<svg xmlns="http://www.w3.org/2000/svg" xml:space="preserve" width="518.814" height="123.595"><path d="M0 0h.169c.193 0 .35.069.35.251 0 .129-.097.257-.35.257A.876.876 0 0 1 0 .496Zm0-.816h-.241V.655C-.121.672 0 .69.181.69.398.69.543.643.639.579.724.514.772.415.772.274.772.08.639-.035.483-.083v-.011C.615-.117.7-.235.724-.451.76-.68.796-.77.82-.816H.579C.543-.77.507-.635.471-.442.434-.253.35-.185.157-.185H0Zm.241 1.88c-.579 0-1.049-.496-1.049-1.112 0-.628.47-1.119 1.049-1.119.591-.006 1.062.491 1.062 1.113S.832 1.064.241 1.064m0 .208c.724 0 1.303-.587 1.303-1.32 0-.745-.579-1.323-1.303-1.323s-1.303.578-1.303 1.323c0 .733.579 1.32 1.303 1.32M-5.996-9.096v5.86l-1.906-3.815h-1.327l-1.93 3.815v-5.86h-1.967V.962h1.943l2.617-5.437L-5.96.962h1.943V-9.096Zm-15.025 7.091-1.271-3.653h2.5zm2.343-7.091-.591 1.782h-3.574l-.608-1.782h-2.048L-21.84.962h1.538l3.678-10.058zm-16.806 0V.962h6.63V-.784h-4.659v-2.373h3.968v-1.745h-3.968V-7.35h4.659v-1.746zm-6.765 8.312v-8.313h-1.966v8.313h-2.628V.961h7.222V-.784zm-8.43-7.592c-.697-.543-1.588-.813-2.682-.813-.789 0-1.479.1-2.069.304a4.18 4.18 0 0 0-1.602 1.021l1.273 1.269c.299-.3.654-.518 1.065-.649.41-.134.864-.2 1.363-.2 1.185 0 1.78.418 1.78 1.248 0 .351-.091.624-.269.818-.179.193-.49.321-.934.389l-.566.087-.65.082c-.859.124-1.512.4-1.955.833-.481.479-.721 1.139-.721 1.975 0 .912.316 1.65.946 2.207.632.561 1.484.84 2.561.84.702 0 1.315-.089 1.833-.275a3.83 3.83 0 0 0 1.411-.898l-1.241-1.227a2.199 2.199 0 0 1-.939.549 4.272 4.272 0 0 1-1.123.142c-.5 0-.883-.119-1.151-.359a1.164 1.164 0 0 1-.403-.909c0-.263.104-.502.31-.709.209-.211.514-.346.919-.403l.606-.083.582-.086a5.094 5.094 0 0 0 1.135-.284 2.36 2.36 0 0 0 .784-.494c.519-.489.777-1.201.777-2.136 0-.951-.349-1.696-1.04-2.239" style="fill:#000;fill-opacity:1;fill-rule:nonzero;stroke:none" transform="matrix(1.25 0 0 -1.25 406.851 88.758)"/><path d="M0 0a1.986 1.986 0 1 0 1.04 3.834A1.986 1.986 0 0 0 0 0m-.177-.639a2.647 2.647 0 0 0-1.862 3.243 2.648 2.648 0 0 0 3.242 1.863 2.65 2.65 0 0 0 1.863-3.243A2.649 2.649 0 0 0-.177-.639m-5.694-3.505a2.238 2.238 0 0 0-3.136-.399 2.22 2.22 0 0 0-.825 1.358l1.107-.853A1.646 1.646 0 0 1-6.71-1.436l-1.145.882a2.227 2.227 0 0 0 2.434-1.939 2.223 2.223 0 0 0-.45-1.651M-22.684 5.968a2.24 2.24 0 0 0-.789 2.353 2.236 2.236 0 0 0 3.525 1.182c.46-.356.739-.855.831-1.387l-1.134.873a1.646 1.646 0 0 1-2.014-2.604l1.137-.875a2.212 2.212 0 0 0-1.556.458m24.233-.223A3.972 3.972 0 0 1-3.318 2.95l-.013-.05-3.435-2.912a2.885 2.885 0 0 1-1.778-.011l-9.881 7.605a2.897 2.897 0 0 1-1.117 2.445 2.903 2.903 0 0 1-4.066-.519 2.9 2.9 0 0 1 .519-4.064 2.882 2.882 0 0 1 2.655-.468l9.903-7.623a2.888 2.888 0 0 1 1.119-2.419 2.9 2.9 0 0 1 4.59 1.609l4.213 1.564.087-.025A3.973 3.973 0 0 1 4.344.879a3.972 3.972 0 0 1-2.795 4.866" style="fill:#000;fill-opacity:1;fill-rule:nonzero;stroke:none" transform="matrix(1.25 0 0 -1.25 328.02 93.792)"/><path d="M0 0c0-.407-.3-.681-.653-.681v.003c-.364-.003-.658.271-.658.678 0 .407.294.679.658.679C-.3.679 0 .407 0 0m.265 0c0 .559-.434.883-.918.883-.488 0-.922-.324-.922-.883 0-.559.434-.884.922-.884.484 0 .918.325.918.884M-.806-.075h.099l.227-.4h.251l-.253.417c.131.009.238.071.238.247 0 .218-.151.288-.405.288h-.368v-.952h.211v.4m0 .161v.229h.147c.081 0 .19-.006.19-.104 0-.106-.056-.125-.151-.125h-.186" style="fill:#000;fill-opacity:1;fill-rule:nonzero;stroke:none" transform="matrix(1.25 0 0 -1.25 231.142 99.567)"/><path d="m0 0 1.716-4.697h-3.487Zm-1.839 1.829L-5.796-8.197h2.794l.626 1.773h4.682l.593-1.773h3.033L1.946 1.83ZM-9.783-8.2h2.834V1.832l-2.834.001zM-29.462 1.833l-2.365-7.952-2.266 7.951-3.059.001L-33.916-8.2h4.084l3.262 10.033zm11.458-2.185h1.218c1.768 0 2.911-.794 2.911-2.853 0-2.06-1.143-2.854-2.911-2.854h-1.218zm-2.811 2.185V-8.2h4.596c2.449 0 3.248.407 4.112 1.32.611.641 1.006 2.049 1.006 3.586 0 1.41-.334 2.669-.917 3.452-1.05 1.401-2.562 1.675-4.82 1.675zm-26.852.014V-8.2h2.859v7.629l2.214-.001c.734 0 1.256-.183 1.61-.56.448-.477.631-1.247.631-2.656V-8.2h2.77v5.551c0 3.962-2.526 4.496-4.996 4.496zm22.29-.014.001-10.033h2.833V1.833Z" style="fill:#000;fill-opacity:1;fill-rule:nonzero;stroke:none" transform="matrix(1.25 0 0 -1.25 221.063 90.032)"/><path d="M0 0s2.222 3.279 6.658 3.617v1.19C1.745 4.412-2.511.251-2.511.251s2.41-6.968 9.169-7.606v1.265C1.698-5.466 0 0 0 0m6.658-3.576v-1.158C2.91-4.066 1.869-.169 1.869-.169s1.8 1.994 4.789 2.318V.878l-.005.001C5.084 1.067 3.858-.399 3.858-.399s.687-2.467 2.8-3.177m0 10.577V4.807c.145.011.289.02.434.026 5.587.188 9.227-4.582 9.227-4.582s-4.181-5.084-8.537-5.084c-.399 0-.772.037-1.124.099V-6.09c.301-.039.612-.061.936-.061 4.054 0 6.985 2.07 9.823 4.52.47-.377 2.397-1.294 2.793-1.696-2.699-2.259-8.988-4.08-12.553-4.08-.344 0-.674.021-.999.052v-1.906h15.406V7.001Zm0-4.852v1.468c.143.011.287.018.434.023 4.017.126 6.653-3.452 6.653-3.452s-2.847-3.954-5.899-3.954c-.44 0-.833.071-1.188.19V.878c1.564-.189 1.879-.88 2.819-2.447L11.569.194s-1.527 2.002-4.1 2.002c-.28 0-.548-.019-.811-.047" style="fill:#7db500;fill-opacity:1;fill-rule:nonzero;stroke:none" transform="matrix(1.25 0 0 -1.25 129.484 92.425)"/><path d="M237.469 100.321h-2.853V87.752h2.853z" style="fill:#333;fill-opacity:1;fill-rule:nonzero;stroke:none;stroke-width:1.25"/><path d="M0 0c0 .91-.029 1.686-.059 2.327H1.91l.105-.999h.044c.298.462 1.045 1.164 2.253 1.164 1.492 0 2.611-.985 2.611-3.133v-4.327H4.655v4.043c0 .94-.328 1.582-1.149 1.582-.627 0-.999-.433-1.149-.851-.06-.134-.089-.358-.089-.567v-4.207H0Z" style="fill:#333;fill-opacity:1;fill-rule:nonzero;stroke:none" transform="matrix(1.25 0 0 -1.25 239.891 94.111)"/><path d="M255.125 96.368h-4.885v-1.884h4.885z" style="fill:#333;fill-opacity:1;fill-rule:nonzero;stroke:none;stroke-width:1.25"/><path d="M0 0v-3.864h3.745V0h2.267v-10.055H3.745v4.207H0v-4.207h-2.282V0Z" style="fill:#333;fill-opacity:1;fill-rule:nonzero;stroke:none" transform="matrix(1.25 0 0 -1.25 259.766 87.752)"/><path d="M0 0c0-1.253.522-2.193 1.492-2.193.88 0 1.447.881 1.447 2.193 0 1.089-.417 2.193-1.447 2.193C.403 2.193 0 1.074 0 0m5.282.075c0-2.671-1.896-3.894-3.849-3.894-2.134 0-3.775 1.402-3.775 3.759 0 2.358 1.552 3.864 3.894 3.864 2.237 0 3.73-1.536 3.73-3.729" style="fill:#333;fill-opacity:1;fill-rule:nonzero;stroke:none" transform="matrix(1.25 0 0 -1.25 272.014 95.752)"/><path d="M0 0c0 .91-.029 1.686-.059 2.327H1.85l.105-.984H2c.312.462.954 1.149 2.207 1.149.94 0 1.686-.478 1.999-1.239h.03c.269.373.597.672.94.88.403.239.85.359 1.388.359 1.401 0 2.461-.985 2.461-3.163v-4.297H8.817v3.969c0 1.059-.343 1.67-1.074 1.67-.523 0-.895-.357-1.045-.79a1.923 1.923 0 0 1-.089-.582v-4.267H4.401V-.88c0 .925-.328 1.551-1.044 1.551-.582 0-.925-.447-1.06-.82a1.515 1.515 0 0 1-.089-.567v-4.252H0Z" style="fill:#333;fill-opacity:1;fill-rule:nonzero;stroke:none" transform="matrix(1.25 0 0 -1.25 280.366 94.111)"/><path d="M0 0c0 .552-.238 1.477-1.283 1.477-.955 0-1.343-.865-1.402-1.477Zm-2.67-1.551c.074-.94.999-1.388 2.058-1.388.776 0 1.402.105 2.015.299L1.7-4.177C.955-4.475.045-4.625-.94-4.625c-2.476 0-3.894 1.433-3.894 3.715 0 1.85 1.149 3.894 3.685 3.894 2.357 0 3.253-1.835 3.253-3.64 0-.388-.045-.731-.075-.895z" style="fill:#333;fill-opacity:1;fill-rule:nonzero;stroke:none" transform="matrix(1.25 0 0 -1.25 301.919 94.727)"/><path d="M0 0c-.701-.238-2.029-.567-3.356-.567-1.836 0-3.163.463-4.088 1.358-.925.865-1.432 2.178-1.417 3.655.015 3.341 2.446 5.251 5.743 5.251 1.299 0 2.297-.254 2.79-.492l-.478-1.82c-.552.238-1.238.432-2.342.432-1.894 0-3.326-1.074-3.326-3.252 0-2.073 1.297-3.297 3.162-3.297.523 0 .941.06 1.119.149v2.104h-1.551v1.775H0Z" style="fill:#333;fill-opacity:1;fill-rule:nonzero;stroke:none" transform="matrix(1.25 0 0 -1.25 422.494 99.55)"/><path d="M0 0c-1.193.015-2.119-.268-2.119-1.149 0-.581.389-.865.896-.865.567 0 1.029.373 1.178.836.03.119.045.253.045.388Zm.268-3.446-.134.731H.089c-.477-.582-1.223-.895-2.088-.895-1.477 0-2.357 1.074-2.357 2.238 0 1.894 1.7 2.804 4.281 2.79v.104c0 .388-.209.94-1.328.94-.745 0-1.536-.254-2.013-.552l-.418 1.462c.507.283 1.507.641 2.834.641 2.432 0 3.208-1.432 3.208-3.147v-2.537c0-.701.029-1.372.104-1.775z" style="fill:#333;fill-opacity:1;fill-rule:nonzero;stroke:none" transform="matrix(1.25 0 0 -1.25 429.615 95.82)"/><path d="M0 0c0 .91-.029 1.686-.059 2.327H1.85l.105-.985H2c.312.463.954 1.15 2.207 1.15.94 0 1.686-.478 1.999-1.239h.03c.269.373.597.672.94.88.403.239.85.359 1.388.359 1.401 0 2.461-.985 2.461-3.163v-4.297H8.817v3.969c0 1.059-.343 1.67-1.074 1.67-.523 0-.895-.357-1.045-.79a1.923 1.923 0 0 1-.089-.582v-4.267H4.401V-.88c0 .925-.328 1.551-1.044 1.551-.582 0-.925-.447-1.06-.82a1.515 1.515 0 0 1-.089-.567v-4.252H0Z" style="fill:#333;fill-opacity:1;fill-rule:nonzero;stroke:none" transform="matrix(1.25 0 0 -1.25 434.61 93.918)"/><path d="M0 0c0 .552-.238 1.477-1.283 1.477-.955 0-1.343-.865-1.402-1.477Zm-2.67-1.551c.074-.94.999-1.388 2.058-1.388.776 0 1.402.105 2.015.299L1.7-4.177C.955-4.475.045-4.625-.94-4.625c-2.476 0-3.894 1.433-3.894 3.715 0 1.85 1.149 3.894 3.685 3.894 2.357 0 3.253-1.835 3.253-3.64 0-.388-.045-.731-.075-.895z" style="fill:#333;fill-opacity:1;fill-rule:nonzero;stroke:none" transform="matrix(1.25 0 0 -1.25 456.163 94.534)"/><path d="M0 0c.612-.314 1.552-.627 2.522-.627 1.044 0 1.596.433 1.596 1.089 0 .627-.477.985-1.686 1.418-1.671.582-2.76 1.506-2.76 2.968 0 1.716 1.432 3.029 3.804 3.029 1.134 0 1.969-.239 2.566-.507l-.507-1.836a4.765 4.765 0 0 1-2.104.478c-.984 0-1.461-.448-1.461-.97 0-.641.567-.925 1.864-1.417C5.609 2.969 6.445 2.044 6.445.626c0-1.685-1.298-3.118-4.058-3.118-1.149 0-2.283.299-2.849.612z" style="fill:#333;fill-opacity:1;fill-rule:nonzero;stroke:none" transform="matrix(1.25 0 0 -1.25 460.673 97.2)"/><path d="M0 0v-2.088h1.626v-1.671H0V-6.4c0-.88.208-1.283.895-1.283.283 0 .507.03.671.06l.015-1.716c-.299-.119-.836-.194-1.477-.194-.731 0-1.342.254-1.701.627-.417.433-.626 1.134-.626 2.163v2.984h-.97v1.671h.97v1.581z" style="fill:#333;fill-opacity:1;fill-rule:nonzero;stroke:none" transform="matrix(1.25 0 0 -1.25 473.632 88.399)"/><path d="M0 0a46.07 46.07 0 0 1-.059 2.402h1.954l.075-1.343h.059c.373 1.059 1.268 1.507 1.969 1.507.209 0 .314 0 .478-.03V.403c-.164.03-.358.059-.612.059-.835 0-1.402-.447-1.552-1.148a2.751 2.751 0 0 1-.044-.507v-3.7H0Z" style="fill:#333;fill-opacity:1;fill-rule:nonzero;stroke:none" transform="matrix(1.25 0 0 -1.25 477.303 94.012)"/><path d="M0 0c0 .552-.238 1.477-1.283 1.477-.955 0-1.343-.865-1.402-1.477Zm-2.67-1.551c.074-.94.999-1.388 2.058-1.388.776 0 1.402.105 2.015.299L1.7-4.177C.955-4.475.045-4.625-.94-4.625c-2.476 0-3.894 1.433-3.894 3.715 0 1.85 1.149 3.894 3.685 3.894 2.357 0 3.253-1.835 3.253-3.64 0-.388-.045-.731-.075-.895z" style="fill:#333;fill-opacity:1;fill-rule:nonzero;stroke:none" transform="matrix(1.25 0 0 -1.25 489.759 94.534)"/><path d="M0 0c-1.193.015-2.119-.268-2.119-1.149 0-.581.389-.865.896-.865.567 0 1.029.373 1.178.836.03.119.045.253.045.388Zm.269-3.446-.135.731H.089c-.477-.582-1.223-.895-2.088-.895-1.477 0-2.357 1.074-2.357 2.238 0 1.894 1.7 2.804 4.281 2.79v.104c0 .388-.209.94-1.328.94-.745 0-1.536-.254-2.013-.552l-.418 1.462c.507.283 1.507.641 2.834.641 2.432 0 3.208-1.432 3.208-3.147v-2.537c0-.701.029-1.372.104-1.775z" style="fill:#333;fill-opacity:1;fill-rule:nonzero;stroke:none" transform="matrix(1.25 0 0 -1.25 498.93 95.82)"/><path d="M0 0c0 .91-.029 1.686-.059 2.327H1.85l.105-.985H2c.312.463.954 1.15 2.207 1.15.94 0 1.686-.478 1.999-1.239h.03c.269.373.597.672.94.88.403.239.85.359 1.388.359 1.401 0 2.461-.985 2.461-3.163v-4.297H8.817v3.969c0 1.059-.343 1.67-1.074 1.67-.523 0-.895-.357-1.045-.79a1.923 1.923 0 0 1-.089-.582v-4.267H4.401V-.88c0 .925-.328 1.551-1.044 1.551-.582 0-.925-.447-1.06-.82a1.515 1.515 0 0 1-.089-.567v-4.252H0Z" style="fill:#333;fill-opacity:1;fill-rule:nonzero;stroke:none" transform="matrix(1.25 0 0 -1.25 503.925 93.918)"/><g style="fill:#3e4348;fill-opacity:1"><path d="M0 0c-17.172 0-31.092-13.921-31.092-31.092 0-17.172 13.92-31.093 31.092-31.093 17.172 0 31.092 13.921 31.092 31.093C31.092-13.921 17.172 0 0 0m49.278-31.092c0-27.216-22.062-49.279-49.278-49.279-27.216 0-49.278 22.063-49.278 49.279 0 27.215 22.062 49.278 49.278 49.278 27.216 0 49.278-22.063 49.278-49.278" style="fill:#3e4348;fill-opacity:1;fill-rule:nonzero;stroke:none" transform="matrix(1.25 0 0 -1.25 61.598 23.131)"/></g><path d="M62.788 100.862h-3.69v-77.73h3.69z" style="fill:#3e4348;fill-opacity:1;fill-rule:nonzero;stroke:none;stroke-width:1.25"/><path d="M21.859 61.403h78.605v3.69H21.859z" style="fill:#3e4348;fill-opacity:1;fill-rule:nonzero;stroke:none;stroke-width:1.25"/><g style="fill:#3e4348;fill-opacity:1"><path d="m0 0-2.088 2.088 44.882 44.881 2.087-2.088z" style="fill:#3e4348;fill-opacity:1;fill-rule:nonzero;stroke:none" transform="matrix(1.25 0 0 -1.25 34.675 92.343)"/></g><g style="fill:#3e4348;fill-opacity:1"><path d="m0 0-2.088-2.088-44.225 44.226 2.087 2.088z" style="fill:#3e4348;fill-opacity:1;fill-rule:nonzero;stroke:none" transform="matrix(1.25 0 0 -1.25 89.957 88.914)"/></g><g style="fill:#3e4348;fill-opacity:1"><path d="M0 0c-.162 4.376-.324 9.672-.324 14.967h-.162C-1.621 10.32-3.134 5.133-4.539.865L-8.97-13.346h-6.429L-19.289.757c-1.19 4.268-2.432 9.455-3.296 14.21h-.108c-.216-4.917-.378-10.536-.649-15.075l-.648-13.832h-7.618l2.323 36.417h10.968l3.566-12.157c1.135-4.215 2.27-8.753 3.08-13.021h.162c1.027 4.214 2.27 9.023 3.458 13.075l3.89 12.103H6.592L8.591-13.94H.54Z" style="fill:#3e4348;fill-opacity:1;fill-rule:nonzero;stroke:none" transform="matrix(1.25 0 0 -1.25 177.39 59.17)"/></g><g style="fill:#3e4348;fill-opacity:1"><path d="M0 0c0-7.132 3.351-12.157 8.861-12.157 5.566 0 8.753 5.295 8.753 12.373 0 6.538-3.134 12.157-8.806 12.157C3.242 12.373 0 7.078 0 0m26.313.486c0-11.941-7.24-19.181-17.883-19.181-10.807 0-17.129 8.159-17.129 18.533 0 10.914 6.97 19.073 17.722 19.073 11.185 0 17.29-8.375 17.29-18.425" style="fill:#3e4348;fill-opacity:1;fill-rule:nonzero;stroke:none" transform="matrix(1.25 0 0 -1.25 204.815 53.969)"/></g><g style="fill:#3e4348;fill-opacity:1"><path d="M0 0c0-7.132 3.351-12.157 8.861-12.157 5.566 0 8.753 5.295 8.753 12.373 0 6.538-3.134 12.157-8.806 12.157C3.242 12.373 0 7.078 0 0m26.313.486c0-11.941-7.24-19.181-17.883-19.181-10.807 0-17.129 8.159-17.129 18.533 0 10.914 6.97 19.073 17.722 19.073 11.185 0 17.29-8.375 17.29-18.425" style="fill:#3e4348;fill-opacity:1;fill-rule:nonzero;stroke:none" transform="matrix(1.25 0 0 -1.25 253.245 53.969)"/></g><g style="fill:#3e4348;fill-opacity:1"><path d="M0 0v36.417h9.617l7.565-13.346a105.564 105.564 0 0 0 5.943-12.481h.162c-.54 4.809-.702 9.726-.702 15.183v10.644h7.564V0h-8.645l-7.78 14.048c-2.161 3.89-4.539 8.591-6.322 12.86l-.162-.054c.216-4.809.324-9.942.324-15.886V0Z" style="fill:#3e4348;fill-opacity:1;fill-rule:nonzero;stroke:none" transform="matrix(1.25 0 0 -1.25 292.895 76.594)"/></g><g style="fill:#3e4348;fill-opacity:1"><path d="M0 0h8.267v-29.501h14.48v-6.916H0Z" style="fill:#3e4348;fill-opacity:1;fill-rule:nonzero;stroke:none" transform="matrix(1.25 0 0 -1.25 339.5 31.073)"/></g><path d="M384.349 76.594h-10.334V31.073h10.334z" style="fill:#3e4348;fill-opacity:1;fill-rule:nonzero;stroke:none;stroke-width:1.25"/><path d="M0 0c-2.539-.864-7.348-2.053-12.156-2.053-6.647 0-11.455 1.675-14.805 4.917-3.351 3.134-5.187 7.888-5.134 13.238.055 12.103 8.862 19.019 20.803 19.019 4.7 0 8.32-.919 10.104-1.784l-1.729-6.591c-1.999.864-4.485 1.566-8.483 1.566-6.863 0-12.049-3.89-12.049-11.778 0-7.511 4.701-11.941 11.455-11.941 1.89 0 3.403.216 4.052.54v7.618h-5.62v6.43H0Z" style="fill:#3e4348;fill-opacity:1;fill-rule:nonzero;stroke:none" transform="matrix(1.25 0 0 -1.25 431.288 74.5)"/><g style="fill:#3e4348;fill-opacity:1"><path d="M0 0v-13.994h13.562V0h8.212v-36.417h-8.212v15.237H0v-15.237h-8.267V0Z" style="fill:#3e4348;fill-opacity:1;fill-rule:nonzero;stroke:none" transform="matrix(1.25 0 0 -1.25 449.663 31.073)"/></g><g style="fill:#3e4348;fill-opacity:1"><path d="M0 0h-9.779v6.916h27.988V0H8.268v-29.501H0Z" style="fill:#3e4348;fill-opacity:1;fill-rule:nonzero;stroke:none" transform="matrix(1.25 0 0 -1.25 494.647 39.718)"/></g><g style="fill:#555b63;fill-opacity:1"><path d="M0 0c-.162 4.376-.324 9.672-.324 14.967h-.162C-1.621 10.32-3.134 5.133-4.539.865L-8.97-13.346h-6.429L-19.289.757c-1.19 4.268-2.432 9.455-3.296 14.21h-.108c-.216-4.917-.378-10.536-.649-15.075l-.648-13.832h-7.618l2.323 36.417h10.968l3.566-12.157c1.135-4.215 2.27-8.753 3.08-13.021h.162c1.027 4.214 2.27 9.023 3.458 13.075l3.89 12.103H6.592L8.591-13.94H.54Z" style="fill:#555b63;fill-opacity:1;fill-rule:nonzero;stroke:none" transform="matrix(1.25 0 0 -1.25 178.796 58.572)"/></g><g style="fill:#555b63;fill-opacity:1"><path d="M0 0c0-7.132 3.351-12.157 8.861-12.157 5.566 0 8.753 5.295 8.753 12.373 0 6.538-3.134 12.157-8.806 12.157C3.242 12.373 0 7.078 0 0m26.313.486c0-11.941-7.24-19.181-17.883-19.181-10.807 0-17.129 8.159-17.129 18.533 0 10.914 6.97 19.073 17.722 19.073 11.185 0 17.29-8.375 17.29-18.425" style="fill:#555b63;fill-opacity:1;fill-rule:nonzero;stroke:none" transform="matrix(1.25 0 0 -1.25 206.22 53.371)"/></g><g style="fill:#555b63;fill-opacity:1"><path d="M0 0c0-7.132 3.351-12.157 8.861-12.157 5.566 0 8.753 5.295 8.753 12.373 0 6.538-3.134 12.157-8.806 12.157C3.242 12.373 0 7.078 0 0m26.313.486c0-11.941-7.24-19.181-17.883-19.181-10.807 0-17.129 8.159-17.129 18.533 0 10.914 6.97 19.073 17.722 19.073 11.185 0 17.29-8.375 17.29-18.425" style="fill:#555b63;fill-opacity:1;fill-rule:nonzero;stroke:none" transform="matrix(1.25 0 0 -1.25 254.65 53.371)"/></g><g style="fill:#555b63;fill-opacity:1"><path d="M0 0v36.417h9.617l7.565-13.346a105.564 105.564 0 0 0 5.943-12.481h.162c-.54 4.809-.702 9.726-.702 15.183v10.644h7.564V0h-8.645l-7.78 14.048c-2.161 3.89-4.539 8.591-6.322 12.86l-.162-.054c.216-4.809.324-9.942.324-15.886V0Z" style="fill:#555b63;fill-opacity:1;fill-rule:nonzero;stroke:none" transform="matrix(1.25 0 0 -1.25 294.3 75.997)"/></g><g style="fill:#555b63;fill-opacity:1"><path d="M0 0h8.267v-29.501h14.48v-6.916H0Z" style="fill:#555b63;fill-opacity:1;fill-rule:nonzero;stroke:none" transform="matrix(1.25 0 0 -1.25 340.905 30.476)"/></g><path d="M385.754 75.996H375.42V30.475h10.334z" style="fill:#555b63;fill-opacity:1;fill-rule:nonzero;stroke:none;stroke-width:1.25"/><g style="fill:#555b63;fill-opacity:1"><path d="M0 0c-2.539-.864-7.348-2.053-12.156-2.053-6.647 0-11.455 1.675-14.805 4.917-3.351 3.134-5.187 7.888-5.134 13.238.055 12.103 8.862 19.019 20.803 19.019 4.7 0 8.32-.919 10.104-1.784l-1.729-6.591c-1.999.864-4.485 1.566-8.483 1.566-6.863 0-12.049-3.89-12.049-11.778 0-7.511 4.701-11.941 11.455-11.941 1.89 0 3.403.216 4.052.54v7.618h-5.62v6.43H0Z" style="fill:#555b63;fill-opacity:1;fill-rule:nonzero;stroke:none" transform="matrix(1.25 0 0 -1.25 432.693 73.903)"/></g><g style="fill:#555b63;fill-opacity:1"><path d="M0 0v-13.994h13.562V0h8.212v-36.417h-8.212v15.237H0v-15.237h-8.267V0Z" style="fill:#555b63;fill-opacity:1;fill-rule:nonzero;stroke:none" transform="matrix(1.25 0 0 -1.25 451.068 30.476)"/></g><g style="fill:#555b63;fill-opacity:1"><path d="M0 0h-9.779v6.916h27.988V0H8.268v-29.501H0Z" style="fill:#555b63;fill-opacity:1;fill-rule:nonzero;stroke:none" transform="matrix(1.25 0 0 -1.25 496.053 39.12)"/></g><path d="M62.788 22.732c-21.465 0-38.865 17.402-38.865 38.865 0 21.465 17.4 38.867 38.865 38.867 21.465 0 38.865-17.402 38.865-38.867 0-21.463-17.4-38.865-38.865-38.865m61.598 38.865c0 34.02-27.578 61.6-61.598 61.6-34.02 0-61.597-27.58-61.597-61.6C1.19 27.58 28.768 0 62.788 0c34.02 0 61.598 27.579 61.598 61.597" style="fill:#555b63;fill-opacity:1;fill-rule:nonzero;stroke:none;stroke-width:1.25"/><path d="M63.979 100.464h-3.69V22.733h3.69z" style="fill:#555b63;fill-opacity:1;fill-rule:nonzero;stroke:none;stroke-width:1.25"/><path d="M23.049 61.002h78.605v3.69H23.049z" style="fill:#555b63;fill-opacity:1;fill-rule:nonzero;stroke:none;stroke-width:1.25"/><g style="fill:#555b63;fill-opacity:1"><path d="m0 0-2.088 2.088 44.882 44.881 2.087-2.088z" style="fill:#555b63;fill-opacity:1;fill-rule:nonzero;stroke:none" transform="matrix(1.25 0 0 -1.25 35.865 91.944)"/></g><g style="fill:#555b63;fill-opacity:1"><path d="m0 0-2.088-2.088-44.225 44.226 2.087 2.088z" style="fill:#555b63;fill-opacity:1;fill-rule:nonzero;stroke:none" transform="matrix(1.25 0 0 -1.25 91.147 88.515)"/></g></svg>