<svg xmlns="http://www.w3.org/2000/svg" xml:space="preserve" width="566.929" height="87.964"><path d="M.566 52.343v-7.735h60.565v-8.827H.566l-.381-23.82h68.81v7.714H8.429l.381 8.394h60.564v24.276H.566v-.002zM74.357 52.343v-40.23h8.244v40.23h-8.244zM87.026 52.343v-40.23h68.81v40.23h-8.244V19.826H95.269v32.52l-8.243-.003zM160.237 52.343v-40.23h68.86v7.714h-60.564v24.782h60.564v7.739h-68.86v-.005zM234.583 52.343V0h8.246v52.345h-8.246v-.002zM320.994 52.343v-40.23h8.295v40.23h-8.295zM334.271 52.343v-40.23h68.807v7.714h-60.563v32.521h-8.244v-.005zM247.228 12.113v7.714h60.564v8.824h-60.564v23.694h68.861V12.113h-68.861zm60.564 32.496h-52.271v-8.827h52.271v8.827zM74.357 7.739V0h8.244v7.739h-8.244zM320.994 7.739V0h8.295v7.739h-8.295zM0 80.22l9.688-11.586H.76v-3.336h14.215v3.136L5.287 80.02h9.941v3.338H0V80.22zM21.985 73.897l-5.819-8.601h4.604l3.542 5.768 3.668-5.768h4.351l-5.792 8.625 6.298 9.436h-4.73L24.16 77.11l-4.022 6.247h-4.479l6.326-9.46zM44.172 77.365c0 2.402 1.871 3.338 3.996 3.338 1.393 0 3.519-.404 3.519-2.252 0-1.947-2.707-2.275-5.363-2.984-2.681-.709-5.388-1.745-5.388-5.137 0-3.693 3.491-5.463 6.754-5.463 3.769 0 7.235 1.643 7.235 5.818H51.08c-.126-2.176-1.67-2.73-3.566-2.73-1.266 0-2.732.531-2.732 2.049 0 1.393.861 1.567 5.389 2.731 1.315.329 5.362 1.163 5.362 5.261 0 3.313-2.605 5.793-7.513 5.793-3.997 0-7.741-1.974-7.69-6.424h3.842zM57.503 70.281h3.416v1.67h.052c.858-1.391 2.275-2.023 3.895-2.023 4.099 0 5.944 3.313 5.944 7.031 0 3.492-1.922 6.754-5.742 6.754-1.569 0-3.061-.684-3.921-1.973h-.051v6.225h-3.593V70.281zm9.715 6.576c0-2.074-.835-4.225-3.138-4.225-2.353 0-3.11 2.101-3.11 4.225 0 2.125.809 4.148 3.137 4.148 2.351 0 3.111-2.022 3.111-4.148zM75.922 77.691c.101 2.277 1.214 3.314 3.212 3.314 1.441 0 2.605-.885 2.833-1.694h3.161c-1.012 3.085-3.161 4.399-6.121 4.399-4.124 0-6.678-2.832-6.678-6.881 0-3.922 2.708-6.906 6.678-6.906 4.451 0 6.603 3.746 6.35 7.767l-9.435.001zm5.842-2.275c-.328-1.822-1.113-2.781-2.858-2.781-2.277 0-2.935 1.769-2.985 2.781h5.843zM96.387 74.884c-.229-1.467-1.164-2.25-2.657-2.25-2.302 0-3.062 2.326-3.062 4.248 0 1.873.733 4.123 2.985 4.123 1.669 0 2.63-1.062 2.858-2.653h3.464c-.455 3.464-2.858 5.36-6.298 5.36-3.946 0-6.604-2.781-6.604-6.703 0-4.072 2.428-7.084 6.678-7.084 3.088 0 5.92 1.619 6.147 4.961l-3.511-.002zM106.558 70.281h2.63v2.403h-2.63v6.476c0 1.215.303 1.52 1.517 1.52.38 0 .734-.025 1.113-.104v2.807c-.606.104-1.391.129-2.099.129-2.201 0-4.123-.508-4.123-3.112v-7.714h-2.177v-2.404h2.177V66.36h3.592v3.921zM110.909 70.281h3.415v2.43h.051c.657-1.646 2.429-2.783 4.175-2.783.253 0 .556.05.784.129v3.337a6.627 6.627 0 0 0-1.29-.126c-2.63 0-3.542 1.896-3.542 4.197v5.895h-3.592l-.001-13.079zM133.018 83.358h-3.416v-1.821h-.076c-.911 1.467-2.479 2.176-3.997 2.176-3.82 0-4.782-2.148-4.782-5.387v-8.045h3.594v7.387c0 2.149.632 3.213 2.301 3.213 1.949 0 2.783-1.088 2.783-3.744v-6.855h3.592l.001 13.076zM135.852 70.281h3.391v1.771h.05c.937-1.344 2.302-2.127 3.997-2.127 1.645 0 3.111.607 3.82 2.178.759-1.141 2.125-2.178 3.946-2.178 2.783 0 4.782 1.289 4.782 4.681v8.752h-3.593v-7.412c0-1.743-.15-3.187-2.2-3.187-2.024 0-2.404 1.67-2.404 3.313v7.286h-3.592v-7.335c0-1.52.101-3.264-2.177-3.264-.708 0-2.428.455-2.428 3.011v7.588h-3.592V70.281z"/><path fill="#CA2825" d="m429.958 2.173-60.103 60.112h34.207l60.105-60.112z"/><path fill="#FDC601" d="m464.244 2.173-60.106 60.112h34.209l60.104-60.112z"/><path fill="#009C37" d="m498.501 2.173-60.103 60.112h34.207L532.71 2.173z"/><path fill="#02559C" d="m532.722 2.173-60.105 60.112h34.209l60.103-60.112z"/></svg>