<?xml version="1.0" encoding="iso-8859-1"?>
<!-- Generator: Adobe Illustrator 19.0.0, SVG Export Plug-In . SVG Version: 6.00 Build 0)  -->
<svg version="1.1" id="Layer_1" xmlns="http://www.w3.org/2000/svg" xmlns:xlink="http://www.w3.org/1999/xlink" x="0px" y="0px"
	 viewBox="0 0 504 504" style="enable-background:new 0 0 504 504;" xml:space="preserve">
<g>
	<g>
		<path d="M311.136,124.288c-15.304,0-27.752,12.444-27.752,27.748c0,15.308,12.452,27.752,27.752,27.752
			s27.752-12.444,27.752-27.752C338.888,136.736,326.44,124.288,311.136,124.288z"/>
	</g>
</g>
<g>
	<g>
		<path d="M368.848,419.112l-73.616-117.736l-23.944-38.288c-10.912-17.452-28.74-17.432-39.62,0.044L134.64,419.068
			c-10.876,17.48-2.8,31.776,17.944,31.776h198.388C371.72,450.844,379.764,436.568,368.848,419.112z M251.776,427.092
			c-8.64,0-15.668-7.028-15.668-15.672c0-8.644,7.028-15.672,15.668-15.672c8.644,0,15.676,7.028,15.676,15.672
			C267.452,420.064,260.42,427.092,251.776,427.092z M267.752,371.572c0,8.984-7.048,16.296-15.752,16.296
			c-8.7,0-15.748-7.312-15.748-16.296v-57.824c0-8.988,7.048-16.3,15.748-16.3c8.708,0,15.752,7.312,15.752,16.3V371.572z"/>
	</g>
</g>
<g>
	<g>
		<path d="M484.188,53.156H19.812C8.952,53.156,0,62.108,0,72.968v299.5c0,10.856,8.952,19.312,19.812,19.312h103.752
			l88.048-141.324c9.596-15.416,24.128-24.168,39.876-24.168c15.708,0,30.228,8.86,39.828,24.224l23.952,38.128l64.588,103.14
			h104.332c10.856,0,19.812-8.456,19.812-19.312v-299.5C504,62.108,495.044,53.156,484.188,53.156z M391.384,188.104l-74.488,74.476
			L203.56,149.256c-1.54-1.54-4.036-1.54-5.576,0L126.1,221.14l-32.816-32.808c-1.54-1.54-4.088-1.54-5.628,0l-52.22,52.156V88.592
			H468.56v171.032l-71.58-71.52C395.44,186.564,392.916,186.564,391.384,188.104z"/>
	</g>
</g>
</svg>
