<?xml version="1.0" encoding="iso-8859-1"?>
<!-- Generator: Adobe Illustrator 19.0.0, SVG Export Plug-In . SVG Version: 6.00 Build 0)  -->
<svg version="1.1" id="Layer_1" xmlns="http://www.w3.org/2000/svg" xmlns:xlink="http://www.w3.org/1999/xlink" x="0px" y="0px"
	 viewBox="0 0 504 504" style="enable-background:new 0 0 504 504;" xml:space="preserve">
<g>
	<g>
		<path d="M311.136,108.416c-15.304,0-27.752,12.448-27.752,27.752c0,15.292,12.452,27.748,27.752,27.748
			s27.752-12.452,27.752-27.748C338.888,120.864,326.44,108.416,311.136,108.416z"/>
	</g>
</g>
<g>
	<g>
		<path d="M484.188,37.216H19.812C8.956,37.216,0,46.236,0,57.084v299.504c0,10.86,8.956,19.248,19.812,19.248h118.056
			c0-63,51.2-114.128,114.132-114.128S366.132,312.84,366.132,375.84h118.056c10.856,0,19.812-8.392,19.812-19.248V57.084
			C504,46.236,495.044,37.216,484.188,37.216z M391.384,172.224l-74.488,74.48L203.56,133.384c-1.54-1.54-4.036-1.54-5.572,0
			l-71.888,71.88l-32.816-32.816c-1.54-1.536-4.092-1.536-5.628,0l-52.22,52.156V72.652H468.56v171.1l-71.58-71.528
			C395.44,170.684,392.916,170.684,391.384,172.224z"/>
	</g>
</g>
<g>
	<g>
		<path d="M284.16,339.28c-3.572-3.576-8.32-5.544-13.372-5.544c-5.056,0-9.804,1.968-13.376,5.544
			c-7.372,7.38-7.372,19.372,0,26.752c3.572,3.568,8.32,5.536,13.376,5.536c5.052,0,9.8-1.968,13.372-5.536
			c3.576-3.58,5.544-8.324,5.544-13.376S287.736,342.852,284.16,339.28z"/>
	</g>
</g>
<g>
	<g>
		<path d="M251.596,285.776c-49.992,0-90.508,40.52-90.508,90.5c0,49.988,40.516,90.508,90.508,90.508s90.508-40.52,90.508-90.508
			C342.104,326.296,301.584,285.776,251.596,285.776z M301.06,382.92c-8.076,8.076-18.804,12.52-30.224,12.52
			c-7.652,0-15.044-2-21.572-5.812l-36.9,39.208c-2.204,2.196-5.012,3.36-8,3.36c-2.992,0-5.804-1.164-7.916-3.276
			c-4.368-4.376-4.364-11.48-0.004-15.848l38.808-36.548c-11.364-16.836-9.36-39.524,5.26-54.148
			c8.088-8.084,18.84-12.536,30.28-12.536c11.432,0,22.184,4.452,30.264,12.536c8.084,8.088,12.544,18.844,12.544,30.276
			S309.144,374.832,301.06,382.92z"/>
	</g>
</g>
</svg>
