<svg xmlns="http://www.w3.org/2000/svg" xml:space="preserve" width="685" height="182"><linearGradient id="a" x1="-115.667" x2="-115.667" y1="311.5" y2="238" gradientTransform="matrix(1 0 0 -1 654 325)" gradientUnits="userSpaceOnUse"><stop offset="0" style="stop-color:#7ed3f7"/><stop offset="1" style="stop-color:#003d7e"/></linearGradient><path fill="url(#a)" d="M503.083 14.5c-3.728 0-6.75 3.855-6.75 7.583v58.834c0 3.728 3.022 6.915 6.75 6.915h77.25v-20.5h-61V34.667h61V14.5h-77.25z"/><path d="M503.083 88.834c-4.317-.017-7.745-3.648-7.751-7.917V22.084c.031-4.223 3.293-8.512 7.751-8.584v2c-1.508-.002-2.937.785-4.014 2.043-1.074 1.252-1.742 2.948-1.738 4.541v58.833c.006 3.188 2.611 5.908 5.751 5.915h76.249V68.331h-61V33.666h61V15.5h-76.249v-2h78.249v22.166h-61v30.666h61v22.503l-78.248-.001z"/><linearGradient id="b" x1="-374.166" x2="-374.166" y1="224.5" y2="151.5" gradientTransform="matrix(1 0 0 -1 654 325)" gradientUnits="userSpaceOnUse"><stop offset="0" style="stop-color:#7ed3f7"/><stop offset="1" style="stop-color:#003d7e"/></linearGradient><path fill="url(#b)" d="M235 107.084c0-3.729 3.022-7.584 6.75-7.584h83.584v73.333h-23.5v-53.167h-10.167v53.167H268v-53.167h-10.5v53.167h-23.167l.667-65.749z"/><path d="M267 173.833v-53.17h-8.501v53.17h-25.177l.678-66.75h-.002c.031-4.224 3.294-8.513 7.752-8.585h84.583v75.333h-25.502v-53.166h-8.166v53.168H267zm35.834-55.168-.002 53.167h21.501V100.5h-82.582c-1.509-.004-2.937.784-4.014 2.043-1.075 1.251-1.743 2.947-1.736 4.54h-1l.998.011-.656 64.738H256.5v-53.167H269v53.167h21.666v-53.167h12.168z"/><linearGradient id="c" x1="-177.166" x2="-177.166" y1="224.5" y2="151.5" gradientTransform="matrix(1 0 0 -1 654 325)" gradientUnits="userSpaceOnUse"><stop offset="0" style="stop-color:#7ed3f7"/><stop offset="1" style="stop-color:#003d7e"/></linearGradient><path fill="url(#c)" d="M432 107.084c0-3.729 3.021-7.584 6.75-7.584h83.584v73.333h-23.5v-53.167h-10.167v53.167H465v-53.167h-10.5v53.167h-23.166l.666-65.749z"/><path d="M463.999 173.833v-53.17H455.5v53.17h-25.177l.677-66.761c.036-4.219 3.297-8.502 7.75-8.574h84.584v75.333h-25.5v-53.166h-8.167v53.168h-25.668zm35.834-55.168v53.167h21.501V100.5H438.75c-1.507-.004-2.936.784-4.014 2.043-1.073 1.251-1.741 2.947-1.736 4.54h-1l1 .011-.656 64.738H453.5v-53.167H466l-.002 53.167h21.668v-53.167h12.167z"/><linearGradient id="d" x1="-626.75" x2="-626.75" y1="311.5" y2="238" gradientTransform="matrix(1 0 0 -1 654 325)" gradientUnits="userSpaceOnUse"><stop offset="0" style="stop-color:#7ed3f7"/><stop offset="1" style="stop-color:#003d7e"/></linearGradient><path fill="url(#d)" d="M15.167 14.5h24.167v24.834H15.167z"/><path d="M14.166 40.334V13.5h26.167v26.834H14.166zm25.167-1v-1 1zm-23.167-1h22.168V15.499H16.166v22.835z"/><linearGradient id="e" x1="-270.75" x2="-270.75" y1="311.5" y2="238" gradientTransform="matrix(1 0 0 -1 654 325)" gradientUnits="userSpaceOnUse"><stop offset="0" style="stop-color:#7ed3f7"/><stop offset="1" style="stop-color:#003d7e"/></linearGradient><path fill="url(#e)" d="M371.167 14.5h24.167v24.834h-24.167z"/><path d="M370.166 40.334V13.5h26.167v26.834h-26.167zm25.167-1v-1 1zm-23.166-1h22.166V15.499h-22.166v22.835z"/><linearGradient id="f" x1="-308.75" x2="-308.75" y1="224.5" y2="151.5" gradientTransform="matrix(1 0 0 -1 654 325)" gradientUnits="userSpaceOnUse"><stop offset="0" style="stop-color:#7ed3f7"/><stop offset="1" style="stop-color:#003d7e"/></linearGradient><path fill="url(#f)" d="M333.166 99.5h24.168v24.834h-24.168z"/><path d="M332.166 125.334V98.499h26.167v26.835h-26.167zm25.169-1v-1.002 1.002zm-23.17-1.002h22.17V100.5h-22.17v22.832z"/><linearGradient id="g" x1="-593.417" x2="-593.417" y1="311.5" y2="238" gradientTransform="matrix(1 0 0 -1 654 325)" gradientUnits="userSpaceOnUse"><stop offset="0" style="stop-color:#7ed3f7"/><stop offset="1" style="stop-color:#003d7e"/></linearGradient><path fill="url(#g)" d="M15.5 87.833 74.167 14.5h31.5v73.333h-51L69.5 68.5h12.167V39.333L43 87.833z"/><path d="m52.636 88.832 16.37-21.334h11.66V42.19L43.482 88.832H15.499v-.999l.781.623-.781-.623v.999h-2.08l60.267-75.333h32.98v75.333h-54.03zm-10.119-1.999 40.149-50.357V69.5l-12.675-.003-13.298 17.334h47.973V15.499h-30.02L17.579 86.833h24.938z"/><linearGradient id="h" x1="-274.917" x2="-274.917" y1="224.5" y2="151.5" gradientTransform="matrix(1 0 0 -1 654 325)" gradientUnits="userSpaceOnUse"><stop offset="0" style="stop-color:#7ed3f7"/><stop offset="1" style="stop-color:#003d7e"/></linearGradient><path fill="url(#h)" d="M334 172.833 392.666 99.5h31.5v73.333h-51L388 153.5h12.166v-29.166L361.5 172.833z"/><path d="m371.136 173.832 16.371-21.334h11.657v-25.307l-37.183 46.641H334v-1l.781.624-.781-.624v1h-2.081l60.265-75.333h32.981v75.333h-54.029zm-10.118-1.999 40.148-50.356V154.5l-12.674-.002-13.3 17.332h47.973v-71.331h-30.019l-57.067 71.334h24.939z"/><linearGradient id="i" x1="-303.917" x2="-303.917" y1="311.5" y2="238" gradientTransform="matrix(1 0 0 -1 654 325)" gradientUnits="userSpaceOnUse"><stop offset="0" style="stop-color:#7ed3f7"/><stop offset="1" style="stop-color:#003d7e"/></linearGradient><path fill="url(#i)" d="M395.166 87.833 336.5 14.5H305v73.333h51L341.166 68.5H329V39.333l38.666 48.5z"/><path d="m367.183 88.832-37.185-46.64v25.306h11.66l16.37 21.334h-54.03V13.499h32.98l58.967 73.708-.781.626v-1 1l.781-.626 1.302 1.625h-30.064zm.963-1.999h24.938l-57.067-71.334h-30.02v71.332h47.973L340.673 69.5h-12.675V36.474l40.148 50.359z"/><linearGradient id="j" x1="-498.5" x2="-498.5" y1="311.847" y2="236.837" gradientTransform="matrix(1 0 0 -1 654 325)" gradientUnits="userSpaceOnUse"><stop offset="0" style="stop-color:#7ed3f7"/><stop offset="1" style="stop-color:#003d7e"/></linearGradient><path fill="url(#j)" d="M190.083 13.999h-76.416v47.667h23.666V35.5h36.333v33.166l-59.999.002v19.665h76.416c4.022-.007 7.247-3.417 7.249-7.414V22.084c-.015-3.977-3.157-8.048-7.249-8.085z"/><path d="M112.667 89.332V67.668l59.999-.002V36.499h-34.333v26.167h-25.666V12.999h77.416v.999l.01-.999c4.793.101 8.201 4.625 8.238 9.085v58.835c-.006 4.534-3.64 8.395-8.249 8.413h-77.415zm2-2h75.414c3.439-.004 6.254-2.954 6.252-6.413V22.088c.006-3.498-2.871-7.095-6.258-7.089h-75.408v45.667h21.666V34.499h38.333v35.167h-59.999v17.666z"/><linearGradient id="k" x1="-403" x2="-403" y1="311.5" y2="238" gradientTransform="matrix(1 0 0 -1 654 325)" gradientUnits="userSpaceOnUse"><stop offset="0" style="stop-color:#7ed3f7"/><stop offset="1" style="stop-color:#003d7e"/></linearGradient><path fill="url(#k)" d="M206 14.5v73.333h32.833L296 14.5h-27.333l-39.5 47.834V14.5z"/><path d="M204.999 88.834V13.5h25.169v46.049L268.195 13.5h29.853l-58.726 75.334h-34.323zm2-2.002h31.346L293.951 15.5h-24.813l-40.972 49.614V15.5H207l-.001 71.332zM206 15.5v-1 1z"/><linearGradient id="l" x1="-369.75" x2="-369.75" y1="311.5" y2="238" gradientTransform="matrix(1 0 0 -1 654 325)" gradientUnits="userSpaceOnUse"><stop offset="0" style="stop-color:#7ed3f7"/><stop offset="1" style="stop-color:#003d7e"/></linearGradient><path fill="url(#l)" d="M272.167 62.667h24.167v25.166h-24.167z"/><path d="M271.166 88.834V61.665h26.167v27.169h-26.167zm25.167-1.002v-1 1zm-23.167-1h22.167V63.666h-22.167v23.166z"/><linearGradient id="m" x1="-208.333" x2="-208.333" y1="311.5" y2="238" gradientTransform="matrix(1 0 0 -1 654 325)" gradientUnits="userSpaceOnUse"><stop offset="0" style="stop-color:#7ed3f7"/><stop offset="1" style="stop-color:#003d7e"/></linearGradient><path fill="url(#m)" d="M403.833 87.833V14.5h27.834l32.166 39.167V14.5H487.5v73.333h-25.333L427 45.167v42.666z"/><path d="M461.695 88.834 428 47.953v40.881h-24.167v-1.002h1-1v1.002h-1V13.5h29.305l30.695 37.372V13.5H488.5v75.334h-26.805zm-56.862-2.002L426 86.829v-44.45l36.639 44.45h23.859V15.5h-21.665v40.961L431.194 15.5h-26.361v71.332z"/><linearGradient id="n" x1="-24" x2="-24" y1="311.5" y2="238" gradientTransform="matrix(1 0 0 -1 654 325)" gradientUnits="userSpaceOnUse"><stop offset="0" style="stop-color:#7ed3f7"/><stop offset="1" style="stop-color:#003d7e"/></linearGradient><path fill="url(#n)" d="M588.167 14.5v73.333h83.666V68.167h-60.166v-7.5h60.166V40.5H611.5v-5.667h60.333V14.5z"/><path d="M587.167 88.834V13.5h85.667v22.333h-60.335V39.5h60.335v22.167h-60.168v5.499h60.168v21.668h-85.667zm2-2.005h81.666V69.166h-60.166v-9.501h60.166V41.5H610.5v-7.667h60.333V15.5h-81.666v71.329zm-1-71.329v-1 1z"/><linearGradient id="o" x1="-82" x2="-82" y1="224.5" y2="151.5" gradientTransform="matrix(1 0 0 -1 654 325)" gradientUnits="userSpaceOnUse"><stop offset="0" style="stop-color:#7ed3f7"/><stop offset="1" style="stop-color:#003d7e"/></linearGradient><path fill="url(#o)" d="M530.166 99.5v73.333h83.668v-19.666h-60.168v-7.5h60.168V125.5H553.5v-5.666h60.334V99.5z"/><path d="M529.165 173.833V98.498h85.669v22.336l-60.334-.002v3.667h60.334v22.167l-60.169-.003v5.502h60.169v21.668h-85.669zm2-2.001h81.668v-17.667h-60.167v-9.499h60.167v-18.167H552.5v-7.667h60.332V100.5h-81.668l.001 71.332zm-1-71.332v-1 1z"/></svg>