<svg xmlns="http://www.w3.org/2000/svg" xml:space="preserve" baseProfile="tiny" viewBox="94 357.6 800 79.4"><path fill="#4E4E4E" d="M133.7 357.6h720.6c21.8 0 39.7 17.9 39.7 39.7 0 21.8-17.9 39.7-39.7 39.7H133.7c-21.8 0-39.7-17.9-39.7-39.7 0-21.9 17.9-39.7 39.7-39.7z"/><path fill="red" d="M535.5 371.1h217.6v5.9H535.5z"/><path fill="#FD4120" d="M535.5 382.8h217.6v5.8H535.5z"/><path fill="#FC0" d="M535.5 394.4h217.6v5.8H535.5z"/><path fill="#4DAC26" d="M535.5 406h217.6v5.8H535.5z"/><path fill="#00A0C6" d="M535.5 417.6h217.6v5.8H535.5z"/><path fill="#FFF" d="M817 405.7c0 7.4-6.5 11-19.4 11H791c-7.3 0-12.4-1.3-15.2-3.8-2.8-2.5-4.2-6.9-4.2-13.1v-8.3c0-6.2 1.4-10.5 4.2-13 2.8-2.5 7.9-3.8 15.2-3.8h6.6c6 0 10.5.8 13.6 2.4 3 1.6 4.5 4 4.5 7.1v3h-15.6v-1.1c0-1-.3-1.6-.8-1.9-.6-.3-1.7-.5-3.4-.5h-3.7c-2.1 0-3.5.2-4 .5-.6.3-.9 1.1-.9 2.4v5.7c2.3-1.2 5.1-1.9 8.4-1.9h5.5c5.5 0 9.5.9 12.1 2.8 2.5 1.9 3.8 4.7 3.8 8.6l-.1 3.9zm-349.2-20.1h-7.5v21.5h7.8v-11.2c0-2.9 1.8-4.4 5.1-4.4s4.1 1 4.2 3.7h7.3c0-7.3-1-10.1-8.8-10.1-4.7 0-6.4 1-8.1 4.6v-4.1zm-307.6 12.9h-12.6v10.3h22.6l-10-10.3zm10-12.5h-22.6v10.3H160l10.2-10.3zm333.6 16.8c-7.5 0-8.6-.7-8.6-4.4h20.5c-.3-10.4-.3-12.9-14.2-12.9-11.7 0-14.3 2.1-14.3 11.4 0 8.6 3.4 10.8 12.9 10.9 10.6 0 15.6-.5 15.6-7.5H508c-.3 1.7-.9 2.5-4.2 2.5zm-8.8-8.9c.3-2.3 1-3.1 6.2-3.1 5.7 0 6.5.3 6.9 3.1H495zm-291.4.8h7.8c-.7-7.3-2.8-9.1-13.7-9.1-12.4 0-15.2 2-15.2 11.1s2.6 11.2 14.2 11.2c12.2 0 14.7-1.6 14.7-9.3h-7.8c0 2.1-.8 3.1-6.8 3.1-5.2 0-6.4-1.3-6.4-5.5 0-4.1 1.1-4.1 7.3-4.1 4.6 0 5.4.5 5.9 2.6zm181.7 1.3c0-8.8-2.6-10.6-15.2-10.6-13.5 0-15.2 2.3-15.2 11.4 0 9.1 2.3 11.1 15.2 11.1 13.7 0 15.2-2.3 15.2-11.9zm-22.3.5c0-4.4 1-4.9 6.7-4.9 6.4 0 7.5.2 7.5 4.9 0 4.4-.8 5.2-6.8 5.2-6.6 0-7.4-.7-7.4-5.2zm92.6-.5c0-8.8-2.4-10.6-15-10.6-13.4 0-15 2.1-15 11.2 0 9.3 2.3 11.2 15 11.2 13.7.1 15-2.2 15-11.8zm-22.2.5c0-4.4 1-4.9 6.7-4.9 6.4 0 7.5.2 7.5 4.9 0 4.4-.8 5.2-6.8 5.2-6.6 0-7.4-.7-7.4-5.2zm-187.3-.5c0-8.8-2.4-10.6-15-10.6-13.5 0-15.2 2.1-15.2 11.2 0 9.3 2.3 11.2 15.2 11.2 13.7.1 15-2.2 15-11.8zm-22 .5c0-4.4 1-4.9 6.5-4.9 6.4 0 7.5.2 7.5 4.9 0 4.4-.8 5.2-6.8 5.2-6.4 0-7.2-.7-7.2-5.2zm188.4-20.1V389c-1.8-2.4-3.4-3.7-9.9-3.7-10.4 0-12.4 2.8-12.4 11.2 0 8.6 2.8 11.1 12.9 11.1 6.4 0 8.3-1.6 9.8-4.4v3.9h7.8v-30.6h-8.2v-.1zm-5.7 15c4.4 0 5.9.6 5.9 4.1 0 5.2-.3 5.7-6.5 5.7s-7.8-.2-7.8-4.6c0-5 1.9-5.2 8.4-5.2zm-259.9-6.1V372c-2.7-.7-4.5-1-7.2-1-14 0-26.3 11.7-26.3 26.3 0 15 12.4 26.2 26.4 26.2 2.5 0 4-.3 7.1-1.1v-13.6c-3.1 1.6-4.7 2-7.2 2-7.8 0-13.7-6.5-13.7-13.7 0-7.5 5.8-13.9 13.6-13.9 2.6 0 4.9.7 7.3 2.1zm111.6.3h-7.3v21.5h7.8V396c0-3.3 1.6-4.4 6-4.4 4.1 0 5.2 1.5 5.2 5.5v9.9h8v-11.4c0-3.1 2.4-4.1 6.2-4.1 3.6 0 5.2 1 5.2 4.1V407h7.8v-12.7c0-6.4-3.9-9.3-11.1-9.3-6.2 0-8.5 2.3-9.3 4.7-1.6-2.8-3.9-4.7-10.1-4.7-5.9 0-7.5 2-8.5 5.5l.1-4.9zm52.7 0h-7.3v21.5h7.8V396c0-3.3 2-4.4 5.9-4.4 4.1 0 5.2 1.3 5.2 5.5v9.9h8v-11.4c0-3.1 2.3-4.1 6-4.1 3.6 0 5.4 1.1 5.4 4.1V407h7.8v-12.7c0-6.4-3.9-9.3-11.1-9.3-6.2 0-8.3 2.1-9.3 4.7-1.6-2.8-3.9-4.7-10.1-4.7-5.7 0-7.2 2-8.3 5.5v-4.9zm562.1 23h-6.6v7.7h-15.6v-7.7H823l.1-11.2 22.3-22.1h21.3v24.2h6.6v9.1zm-22.1-9.1V386l-13.5 13.6h13.5v-.1zm-49.8 5.6v-3c0-1.1-.3-1.7-1-2-.7-.3-2.2-.4-4.5-.4h-3c-2.3 0-3.8.1-4.5.4-.7.3-1.1.9-1.1 2v3c0 1.1.4 1.8 1.1 2.1.7.3 2.2.4 4.5.4h3c2.4 0 3.9-.1 4.5-.4.7-.2 1-1 1-2.1z"/></svg>