<svg xmlns="http://www.w3.org/2000/svg" xml:space="preserve" width="729.881" height="202.324" version="1.0"><path d="M517.893 16.572c0 7.595-6.907 14.501-15.19 14.501-7.597 0-14.504-6.906-14.504-14.5 0-8.287 6.907-15.192 15.194-15.192 8.286 0 14.5 6.905 14.5 15.191z" style="fill:#fbab18;fill-rule:evenodd"/><path d="M486.82 101.506c0-31.765 7.596-57.314 15.883-57.314 8.976 0 16.569 25.55 16.569 57.314 0 31.76-7.593 57.31-16.57 57.31-8.286 0-15.882-25.55-15.882-57.31z" style="fill:#0082b5;fill-rule:evenodd"/><path d="M75.96 73.887c-11.051-5.525-18.646-7.598-26.933-7.598-7.595 0-13.119 4.144-13.119 10.357 0 5.525 3.452 8.287 13.12 11.05l13.12 3.452c13.12 3.453 17.953 7.596 21.406 12.428 4.144 4.835 6.214 11.053 6.214 17.956 0 22.098-18.643 37.284-46.263 37.284-13.121 0-27.622-4.137-43.505-12.428l10.359-20.71c8.287 5.524 23.478 12.427 35.217 12.427 8.286 0 14.5-5.524 14.5-12.427 0-6.911-5.524-11.05-16.571-13.121l-12.432-2.073c-7.594-1.38-15.881-6.215-20.022-11.048C7.597 94.6 4.835 87.006 4.835 80.1c0-20.717 16.573-35.217 42.122-35.217 16.573 0 28.311 5.524 37.979 10.357l-8.977 18.646zM123.604 46.263l18.646 62.841c2.07 6.21 5.522 22.098 5.522 22.098s2.072-11.742 3.453-17.266c.692-3.452 2.763-9.667 4.144-14.5l16.573-51.101h29l-38.668 109.102c-7.595 20.718-13.121 29.694-20.716 35.218-6.906 5.525-16.573 8.282-26.241 9.67l-9.665-17.96c6.214-2.065 13.81-4.83 17.952-7.59 2.764-2.072 5.524-4.838 7.597-8.975 2.761-4.146 3.45-6.218 6.214-12.436 0 0-6.214.694-17.263-30.38L94.603 49.717l29.001-3.454zM236.85 46.263c1.381 2.764 2.763 5.526 3.452 11.05 7.597-7.596 16.573-11.05 26.24-11.05 8.978 0 16.574 2.764 22.098 8.978 1.381 1.381 2.762 3.453 4.143 4.834 9.668-9.667 18.643-13.812 30.382-13.812 8.287 0 16.573 2.764 21.408 6.907 5.522 4.833 7.594 11.049 7.594 26.24v75.954h-26.93V84.933c0-13.12-2.072-15.881-8.978-15.881-5.522 0-12.427 4.142-18.643 8.975v77.337h-26.93v-69.74c0-13.121-2.071-16.572-9.668-16.572-4.833 0-12.43 2.761-17.954 8.286v78.026h-27.62V80.79c0-15.882-1.381-22.096-4.143-27.62l25.55-6.907zM666.356 45.573c2.762 4.144 4.142 8.976 4.142 13.121 4.144-2.761 7.596-5.524 12.431-7.596 5.525-3.452 13.117-4.835 19.335-4.835 11.738 0 22.787 6.216 25.549 15.192 2.068 4.145 2.068 8.978 2.068 15.883v78.026h-27.617v-69.74c0-12.43-2.072-15.883-8.98-15.883-6.214 0-13.117 4.146-20.025 9.668v75.955h-27.62V78.027c0-9.665-1.38-18.643-4.142-25.548l24.859-6.906zM622.851 83.554c0-11.051-.69-14.502-2.072-19.335-4.142-11.74-16.57-18.646-34.526-18.646-9.666 0-18.641 2.073-29 6.906-7.597 2.762-11.739 4.834-17.263 8.286l11.738 20.025c11.049-7.596 22.098-11.738 31.073-11.738 9.67 0 12.428 3.45 12.428 15.88v4.144h-6.213c-34.525 0-51.788 11.74-51.788 36.602 0 21.403 13.121 33.138 36.598 33.138 22.787 0 49.025-13.114 49.025-35.904V83.554zm-29 49.027c-4.142 4.831-8.976 7.597-14.5 7.597-6.904 0-12.429-7.597-12.429-15.887 0-12.428 6.904-15.88 26.239-15.88h1.379l-.69 24.17zM425.363 45.573c-9.666 0-17.263 2.762-22.787 8.286 0-1.38.69-6.213.69-8.975V19.333c0-7.596-.69-11.736-1.38-19.333l-29 6.905c2.069 6.214 2.069 13.12 2.069 26.24v87.008c0 16.574 14.5 37.284 46.266 37.284 10.356 0 19.335-1.38 26.929-7.597 13.121-10.356 19.335-28.308 19.335-49.715 0-33.836-15.884-54.552-42.122-54.552zm7.596 82.17c-2.761 5.524-6.907 8.29-13.81 8.29-7.597 0-11.738-3.452-15.884-6.903V77.338c3.456-4.144 8.977-8.286 15.884-8.286 7.597 0 13.121 4.142 15.19 13.119 1.382 4.835 1.382 8.977 1.382 18.645 0 13.12-.693 20.716-2.762 26.926z" style="fill-rule:evenodd"/><script/></svg>