<svg xmlns="http://www.w3.org/2000/svg" xml:space="preserve" width="556.316" height="317.734"><defs><clipPath id="a" clipPathUnits="userSpaceOnUse"><path d="M0 254.187h265.318V0H0v254.187Z"/></clipPath><clipPath id="b" clipPathUnits="userSpaceOnUse"><path d="M0 93.146h136.272V0H0v93.146Z"/></clipPath><clipPath id="c" clipPathUnits="userSpaceOnUse"><path d="M31.948 29.258h73.084V17.516H31.948v11.742z"/></clipPath></defs><g clip-path="url(#a)" transform="matrix(1.25 0 0 -1.25 0 317.734)"><path d="M0 0c-4.264-4.454-22.225-20.212-22.225-20.212h-221.687S-259.864-4.989-261.49-4.268c-1.1 1.501-2.099 3.985-2.099 10.145v214.091c0 14.595 11.767 14.003 11.767 14.003h12.285v-1.429h213.023v1.429h8.606c17.664 0 19.626-15.096 19.626-15.096V6.298S1.983 2.071 0 0" style="fill:#444141;fill-opacity:1;fill-rule:nonzero;stroke:none" transform="translate(263.589 20.212)"/><path d="M0 0s-6.084 102.39 30.989 107.419c6.844.804 15.399-1.006 34.791-5.633 19.391-4.627 71.102-4.627 90.494 0 19.392 4.627 27.905 5.633 34.791 5.633 36.882 0 33.27-103.195 30.988-107.419H0Z" style="fill:#4f4c4d;fill-opacity:1;fill-rule:nonzero;stroke:none" transform="translate(19.679)"/><path d="M0 0v-8.864s-.074-1.125-1.568-1.125h-209.887c-1.5 0-1.568 1.125-1.568 1.125V0l106.511-.052L0 0Z" style="fill:#2c2a2a;fill-opacity:1;fill-rule:nonzero;stroke:none" transform="translate(237.074 252.752)"/><path d="M0 0c-26.236 0-31.464 1.291-35.932 1.887-4.467.595-3.136-3.476-3.136-3.476s2.281-15.092 2.566-20.85c.285-5.759 6.464-4.965 6.464-4.965h60.076s6.179-.794 6.464 4.965c.285 5.758 2.566 20.85 2.566 20.85s1.331 4.071-3.136 3.476C31.464 1.291 26.236 0 0 0" style="fill:#373737;fill-opacity:1;fill-rule:nonzero;stroke:none" transform="translate(130.705 97.9)"/><path d="M0 0c-26.236 0-31.464 1.291-35.932 1.887-4.467.595-3.136-3.476-3.136-3.476s2.281-15.092 2.566-20.85c.285-5.759 6.464-4.965 6.464-4.965h60.076s6.179-.794 6.464 4.965c.285 5.758 2.566 20.85 2.566 20.85s1.331 4.071-3.136 3.476C31.464 1.291 26.236 0 0 0Z" style="fill:none;stroke:#393536;stroke-width:3;stroke-linecap:butt;stroke-linejoin:miter;stroke-miterlimit:10;stroke-dasharray:none;stroke-opacity:1" transform="translate(130.705 97.9)"/><path d="M0 0c0-35.781-50.496-64.787-112.785-64.787-62.29 0-112.786 29.006-112.786 64.787 0 35.781 50.496 64.787 112.786 64.787C-50.496 64.787 0 35.781 0 0" style="fill:#2c2a2a;fill-opacity:1;fill-rule:nonzero;stroke:none" transform="translate(243.348 175.594)"/><path d="M0 0c0-35.095-49.964-63.545-111.597-63.545-61.633 0-111.597 28.45-111.597 63.545s49.964 63.545 111.597 63.545C-49.964 63.545 0 35.095 0 0" style="fill:#393536;fill-opacity:1;fill-rule:nonzero;stroke:none" transform="translate(242.112 175.743)"/><path d="M0 0c0-28.46-41.048-51.531-91.683-51.531-50.634 0-91.682 23.071-91.682 51.531 0 28.46 41.048 51.531 91.682 51.531C-41.048 51.531 0 28.46 0 0" style="fill:#454547;fill-opacity:1;fill-rule:nonzero;stroke:none" transform="translate(222.53 177.232)"/><path d="m0 0-5.68-5.933H5.846L0 0Z" style="fill:#2f2e2d;fill-opacity:1;fill-rule:nonzero;stroke:none" transform="translate(130.848 156.083)"/><path d="M0 0c-30.454 0-63.272-3.872-63.272-3.872s-7.724-.224-11.502-4.17c-3.779-3.947-4.135-8.44-4.135-12.809s.988-8.339 1.853-10.425c1.236-2.979 4.385-4.766 6.06-4.766H70.996c1.675 0 4.824 1.787 6.06 4.766.865 2.086 1.853 6.056 1.853 10.425 0 4.369-.356 8.862-4.135 12.809-3.778 3.946-11.502 4.17-11.502 4.17S30.454 0 0 0" style="fill:#535456;fill-opacity:1;fill-rule:nonzero;stroke:none" transform="translate(130.931 198.083)"/><path d="M0 0c-30.454 0-63.272-3.872-63.272-3.872s-7.724-.224-11.502-4.17c-3.779-3.947-4.135-8.44-4.135-12.809s.988-8.339 1.853-10.425c1.236-2.979 4.385-4.766 6.06-4.766H70.996c1.675 0 4.824 1.787 6.06 4.766.865 2.086 1.853 6.056 1.853 10.425 0 4.369-.356 8.862-4.135 12.809-3.778 3.946-11.502 4.17-11.502 4.17S30.454 0 0 0Z" style="fill:none;stroke:#444141;stroke-width:2;stroke-linecap:butt;stroke-linejoin:miter;stroke-miterlimit:10;stroke-dasharray:none;stroke-opacity:1" transform="translate(130.931 198.083)"/><path d="M0 0h124.62v-7h7.414s.642-.397.642-2.855c0-2.457-.642-2.953-.642-2.953H-6.844s-.903.695-.903 3.078.903 3.326.903 3.326h6.701L0 0Z" style="fill:#302f2f;fill-opacity:1;fill-rule:nonzero;stroke:none" transform="translate(69.251 190.04)"/><path d="M0 0v1.424c1.428.351 2.36.82 2.795 1.408h1.404v-5.755L4.187-4.19H2.315l-.016 1.267v3.956C1.315.534.549.189 0 0" style="fill:#f4f4f4;fill-opacity:1;fill-rule:nonzero;stroke:none" transform="translate(50.858 22.017)"/><path d="M0 0c.351 0 .643.098.877.296.234.197.351.476.351.836 0 .32-.126.574-.378.761-.252.187-.533.28-.844.28-.327 0-.616-.101-.868-.303a.969.969 0 0 1-.378-.793c0-.307.117-.563.351-.769C-.655.103-.359 0 0 0m3.013 4.119-1.664-.375C1.192 4.453.78 4.808.115 4.808c-.968 0-1.452-.772-1.452-2.314.391.529 1.008.794 1.851.794.771 0 1.4-.21 1.888-.631.488-.42.732-.918.732-1.492 0-.611-.269-1.151-.808-1.621C1.788-.925 1.069-1.16.169-1.16c-.887 0-1.588.191-2.102.572-.514.382-.863.836-1.047 1.363a4.67 4.67 0 0 0-.275 1.535c0 1.061.285 1.935.856 2.624.571.689 1.417 1.034 2.538 1.034.811 0 1.462-.178 1.954-.535.492-.356.799-.794.92-1.314" style="fill:#f4f4f4;fill-opacity:1;fill-rule:nonzero;stroke:none" transform="translate(59.523 18.881)"/><path d="M63.196 21.541h2.892v-1.218h-2.892v1.218z" style="fill:#f4f4f4;fill-opacity:1;fill-rule:nonzero;stroke:none"/><path d="M0 0v-1.667h1.485c.507 0 .865.075 1.075.223a.723.723 0 0 1 .314.623c0 .223-.101.416-.302.578C2.371-.081 2.037 0 1.57 0H0Zm0 2.746V1.231h1.464c.537 0 .874.089 1.014.266.139.177.208.347.208.509a.652.652 0 0 1-.172.454.744.744 0 0 1-.378.238c-.137.032-.408.048-.811.048H0Zm-1.93 1.221h3.848c.69 0 1.208-.071 1.555-.213.347-.142.633-.344.859-.607.226-.264.339-.584.339-.962 0-.766-.496-1.277-1.489-1.534C3.755.543 4.185.328 4.471.007c.286-.321.43-.671.43-1.049 0-.517-.234-.965-.702-1.341-.468-.377-1.228-.565-2.281-.565H-1.93v6.915z" style="fill:#f4f4f4;fill-opacity:1;fill-rule:nonzero;stroke:none" transform="translate(68.998 20.776)"/><path d="M76.294 17.827h-1.93v6.915h1.93v-6.915z" style="fill:#f4f4f4;fill-opacity:1;fill-rule:nonzero;stroke:none"/><path d="M0 0v-1.368h-2.045v-5.547h-1.96v5.547h-2.057V0H0Z" style="fill:#f4f4f4;fill-opacity:1;fill-rule:nonzero;stroke:none" transform="translate(82.83 24.742)"/><path d="M0 0h-5.615v1.313h3.849c-.28.847-.512 1.535-.736 2.227-.558 1.723-1.08 3.461-1.693 5.163-.148.412-.549.922-.915 1.007-.617.144-.817-.496-.988-1.026C-6.952 6.043-7.83 3.411-8.656.761-8.85.138-9.134-.072-9.76-.055c-1.723.047-3.447.004-5.171.02-1.746.016-2.888 1.158-2.926 2.966a109.023 109.023 0 0 0 0 4.886c.043 1.836 1.148 2.953 2.912 2.978 1.554.022 3.108.005 4.717.005V9.417h-3.991c-1.873.001-2.303-.452-2.303-2.426-.001-1.229-.006-2.458.001-3.687.008-1.315.606-1.955 1.844-1.968 1.004-.011 2.009-.003 3.064-.003V5.62h-2.556v1.334h3.983V1.306l.218-.025c.842 2.596 1.686 5.192 2.527 7.789.48 1.485 1.365 2.088 2.791 1.869.794-.122 1.382-.585 1.642-1.371C-1.976 6.45-.976 3.321.033.195.048.149.016.085 0 0" style="fill:#f3fbfd;fill-opacity:1;fill-rule:nonzero;stroke:none" transform="translate(148.668 78.612)"/><path d="M0 0v1.367c1.498 0 2.967-.016 4.436.005 1.229.018 2.148.91 2.192 2.077.043 1.141-.866 2.118-2.074 2.203-.491.034-.989-.013-1.477.04-.751.081-1.299.789-1.298 1.608.001.83.543 1.571 1.301 1.593 1.606.047 3.214.015 4.865.015V7.555H3.222L3.217 7.1c.451-.02.901-.048 1.351-.058 1.698-.039 2.925-1.029 3.348-2.709C8.433 2.281 6.96.098 4.932.013 3.323-.053 1.71 0 0 0" style="fill:#f3fbfd;fill-opacity:1;fill-rule:nonzero;stroke:none" transform="translate(113.478 78.583)"/><path d="M0 0v1.412h4.739l.002.397c-.484.019-.967.048-1.45.057C1.934 1.889.925 2.539.33 3.788-.276 5.06-.183 6.335.616 7.505c.547.802 1.303 1.346 2.256 1.377 1.665.053 3.332.014 5.064.014V7.542c-1.496 0-2.992.025-4.488-.007C1.963 7.503.999 6.116 1.447 4.719c.27-.84 1.04-1.404 2.027-1.462.464-.027.933.007 1.394-.04.749-.076 1.317-.782 1.325-1.589C6.202.821 5.636.035 4.904.014 3.297-.031 1.688 0 0 0" style="fill:#f3fbfd;fill-opacity:1;fill-rule:nonzero;stroke:none" transform="translate(113.465 80.486)"/><path d="M0 0v-1.336h-4.415c-1.543-.002-2.08-.547-2.09-2.144-.008-1.285-.004-2.57.006-3.855.011-1.483.581-2.081 1.979-2.084 1.471-.004 2.942-.001 4.468-.001v-1.372c-1.097 0-2.178-.002-3.259.001-.683.002-1.369-.023-2.05.025-1.253.089-2.394 1.262-2.427 2.573-.046 1.883-.043 3.77 0 5.653.027 1.206 1.046 2.448 2.199 2.512C-3.744.076-1.89 0 0 0" style="fill:#f3fbfd;fill-opacity:1;fill-rule:nonzero;stroke:none" transform="translate(130.118 89.365)"/><path d="M0 0h1.128L.655 1.468.46 1.455 0 0m-2.749-3.4C-1.797-.457-.871 2.422.078 5.293a.87.87 0 0 0 .467.489c.105.038.397-.187.452-.35C1.77 3.131 2.518.82 3.293-1.554H.076l-.099.949-.138.05c-.184-.533-.372-1.064-.549-1.599-.472-1.418-.47-1.419-2.039-1.246" style="fill:#f3fbfd;fill-opacity:1;fill-rule:nonzero;stroke:none" transform="translate(142.971 82.042)"/><path d="m0 0-.949.278v1.214h2.086v-3.181c-1.066 0-2.127-.06-3.173.041-.272.027-.7.551-.713.862-.071 1.712-.05 3.428-.03 5.143.007.601.359.953.939.959 1.585.015 3.17.005 4.825.005V3.962c-1.192 0-2.362-.034-3.529.012-.715.028-.992-.233-.946-.988.048-.797.003-1.6.013-2.4C-1.466-.369-1.025-.599 0 0" style="fill:#f3fbfd;fill-opacity:1;fill-rule:nonzero;stroke:none" transform="translate(135.44 82.18)"/><path d="M0 0c1.472-.275 2.997.013 4.524-.16v-1.296c-1.746 0-3.458-.043-5.164.043-.272.014-.68.57-.742.928-.119.688-.035 1.415-.035 2.198h4.858V.431H.045L0 0" style="fill:#f3fbfd;fill-opacity:1;fill-rule:nonzero;stroke:none" transform="translate(125.546 81.95)"/><path d="M0 0v-1.288c-1.515-.216-3.068.138-4.556-.192l.015-.354h3.412V-3.18h-4.844c0 .79-.068 1.614.036 2.413.037.286.482.722.754.733C-3.47.033-1.754 0 0 0" style="fill:#f3fbfd;fill-opacity:1;fill-rule:nonzero;stroke:none" transform="translate(130.118 87.488)"/><path d="M0 0h-68.546s1.147-1.428 1.738-2.05c5.509-5.801 11.76-6.439 11.76-6.439h5.976v-.745h97.863v.745h5.976s6.25.638 11.76 6.439c.591.622 1.738 2.05 1.738 2.05H0Z" style="fill:#302f2f;fill-opacity:1;fill-rule:nonzero;stroke:none" transform="translate(131.951 176.04)"/><path d="M0 0c0-9.806-11.264-11.468-11.264-11.468h-137.168c-1.996 0-11.264 1.662-11.264 11.468 0 9.806 11.264 11.468 11.264 11.468h137.168S0 9.806 0 0" style="fill:#39393a;fill-opacity:1;fill-rule:nonzero;stroke:none" transform="translate(210.553 48.702)"/><path d="M0 0h-136.755c-4.819 0-8.762 3.943-8.762 8.761 0 4.819 3.943 8.761 8.762 8.761H0c4.819 0 8.761-3.942 8.761-8.761C8.761 3.943 4.819 0 0 0" style="fill:#2e2d2d;fill-opacity:1;fill-rule:nonzero;stroke:none" transform="translate(199.226 39.88)"/><path d="M0 0h-1.602a.625.625 0 0 0-.625.625v8.224c0 .345.28.625.625.625H0c.345 0 .625-.28.625-.625V.625A.625.625 0 0 0 0 0" style="fill:#545659;fill-opacity:1;fill-rule:nonzero;stroke:none" transform="translate(127.371 43.638)"/><path d="M0 0h-1.602a.625.625 0 0 0-.625.625v8.224c0 .345.28.625.625.625H0c.345 0 .625-.28.625-.625V.625A.625.625 0 0 0 0 0" style="fill:#545659;fill-opacity:1;fill-rule:nonzero;stroke:none" transform="translate(131.506 43.638)"/><path d="M0 0h-1.602a.625.625 0 0 0-.625.625v8.224c0 .345.28.625.625.625H0c.345 0 .625-.28.625-.625V.625A.625.625 0 0 0 0 0" style="fill:#545659;fill-opacity:1;fill-rule:nonzero;stroke:none" transform="translate(135.594 43.638)"/><path d="M0 0h-23.291c-3.359 0-6.107 2.748-6.107 6.106 0 3.359 2.748 6.107 6.107 6.107H0c3.358 0 6.106-2.748 6.106-6.107C6.106 2.748 3.358 0 0 0" style="fill:#d61d2a;fill-opacity:1;fill-rule:nonzero;stroke:none" transform="translate(198.245 42.595)"/><path d="M0 0h-13.684c-.969 0-1.761.792-1.761 1.76v.65c0 .968.792 1.76 1.761 1.76H0c.968 0 1.76-.792 1.76-1.76v-.65C1.76.792.968 0 0 0" style="fill:#b71c2e;fill-opacity:1;fill-rule:nonzero;stroke:none" transform="translate(194.062 46.617)"/><path d="M0 0h-23.291c-3.359 0-6.107 2.748-6.107 6.106 0 3.359 2.748 6.107 6.107 6.107H0c3.358 0 6.106-2.748 6.106-6.107C6.106 2.748 3.358 0 0 0" style="fill:#d61d2a;fill-opacity:1;fill-rule:nonzero;stroke:none" transform="translate(86.98 42.595)"/><path d="M0 0h-13.685c-.968 0-1.76.792-1.76 1.76v.65c0 .968.792 1.76 1.76 1.76H0c.968 0 1.76-.792 1.76-1.76v-.65C1.76.792.968 0 0 0" style="fill:#b71c2e;fill-opacity:1;fill-rule:nonzero;stroke:none" transform="translate(82.177 46.617)"/><path d="M0 0v.858c.019.017.037.045.053.045 1.042 0 2.083.032 3.122-.016.568-.027 1.009-.698.973-1.328-.037-.648-.54-1.178-1.169-1.188-.925-.015-1.85-.006-2.775-.006-.692-.001-1.382-.007-2.073.002-.743.009-1.178.471-1.18 1.235v1.736H-1.338V-.027c.002-.561.053-.614.577-.615h2.6c.07 0 .141-.002.211.003.201.015.37.117.316.336-.03.121-.204.28-.32.287C1.52.015.992-.001.465 0H0Z" style="fill:#fff;fill-opacity:1;fill-rule:nonzero;stroke:none" transform="translate(163.545 20.857)"/><path d="M0 0c-.076-.494.042-.652.458-.655 1.113-.006 2.226-.002 3.339-.003h.491v-.967c-.107-.007-.229-.023-.352-.024C2.46-1.65.983-1.653-.492-1.648c-.88.003-1.274.432-1.27 1.359.002.522 0 1.044 0 1.571.067.016.111.037.155.037.491.002.984.001 1.525.001.074-.433.406-.401.727-.4.973.002 1.945.001 2.917-.001.15 0 .299-.016.459-.025V0H0Z" style="fill:#fff;fill-opacity:1;fill-rule:nonzero;stroke:none" transform="translate(207.979 20.872)"/><path d="M0 0v-.924h-4.028c-.061-.493.058-.65.473-.652 1.125-.005 2.25-.002 3.376-.002h.45v-.969C.148-2.554.025-2.57-.1-2.57c-1.465-.001-2.931-.003-4.396 0-.888.003-1.289.429-1.285 1.346V.375h1.684c.089-.341.35-.381.653-.378C-2.459.005-1.474 0-.49 0H0Z" style="fill:#fff;fill-opacity:1;fill-rule:nonzero;stroke:none" transform="translate(159.315 21.793)"/><path d="M0 0h1.926l1.011-1.599L3.947.008h1.928L3.998-2.927H1.877A7320.2 7320.2 0 0 1 0 0" style="fill:#fff;fill-opacity:1;fill-rule:nonzero;stroke:none" transform="translate(198.788 22.168)"/><path d="M0 0h-9.225v.989c.11.011.2.029.291.029 2.659.002 5.319.004 7.978 0C-.344 1.017.027.621 0 0" style="fill:#fff;fill-opacity:1;fill-rule:nonzero;stroke:none" transform="translate(152.539 22.497)"/><path d="M0 0v.876h1.702v-2.918H.027l-.037.848h-3.041V0H0Z" style="fill:#fff;fill-opacity:1;fill-rule:nonzero;stroke:none" transform="translate(173.647 21.295)"/><path d="M0 0c-.606 0-1.214-.025-1.817.017-.162.012-.345.199-.458.354-.313.43-.699.581-1.214.535-.533-.046-1.073-.01-1.644-.01v1.186h1.727c.304 0 .609-.001.914.001.397.004.471.081.483.487.003.119.012.238.019.377h1.676c.13-.732-.041-1.316-.767-1.757L.11.168 0 0" style="fill:#fff;fill-opacity:1;fill-rule:nonzero;stroke:none" transform="translate(194.865 19.225)"/><path d="M0 0v.956c.153.009.289.023.425.023.844.003 1.688-.001 2.532.003.392.002.479.092.483.493.005.475.001.951.001 1.456h1.725c0-.245.002-.495 0-.745-.003-.342-.01-.686-.014-1.028C5.143.538 4.765.026 4.185.011 2.805-.024 1.424 0 0 0" style="fill:#fff;fill-opacity:1;fill-rule:nonzero;stroke:none" transform="translate(181.335 19.234)"/><path d="M0 0c-.062.578.312.998.905 1.008.679.011 1.359.003 2.039.003h4.202V0H0Z" style="fill:#fff;fill-opacity:1;fill-rule:nonzero;stroke:none" transform="translate(160.532 22.506)"/><path d="M0 0h-7.084c-.008.134-.02.24-.023.348-.002.205 0 .41 0 .63.115.017.193.038.271.038 1.969.002 3.936.005 5.905-.001C-.338 1.013.029.617 0 0" style="fill:#fff;fill-opacity:1;fill-rule:nonzero;stroke:none" transform="translate(186.46 22.499)"/><path d="M0 0h-6.89c-.046.556.302 1.008.83 1.013 1.743.016 3.485.016 5.229 0C-.295 1.007.056.555 0 0" style="fill:#fff;fill-opacity:1;fill-rule:nonzero;stroke:none" transform="translate(194.54 22.495)"/><path d="M0 0c.011.608.336 1.002.872 1.006 1.684.013 3.369.013 5.054-.001.53-.004.883-.441.85-1.005H0Z" style="fill:#fff;fill-opacity:1;fill-rule:nonzero;stroke:none" transform="translate(168.562 22.504)"/><path d="M206.224 23.497h6.051v-.996h-6.051v.996zM153.543 23.489h6.047V22.5h-6.047v.989zM150.836 22.165h1.71V19.25h-1.71v2.915zM187.623 22.174h1.695v-2.922h-1.695v2.922zM143.313 22.177h1.669v-2.929h-1.669v2.929zM168.543 22.168h1.694v-2.919h-1.694v2.919zM197.284 19.246h-1.671v2.922h1.671v-2.922zM148.75 19.243h-1.66v2.922h1.66v-2.922zM179.373 22.171h1.684v-2.919h-1.684v2.919z" style="fill:#fff;fill-opacity:1;fill-rule:nonzero;stroke:none"/><path d="m0 0 .684-1.068h-1.933L-1.925 0H0Z" style="fill:#fff;fill-opacity:1;fill-rule:nonzero;stroke:none" transform="translate(199.823 23.57)"/><path d="M0 0h1.93l-.68-1.074H-.674L0 0" style="fill:#fff;fill-opacity:1;fill-rule:nonzero;stroke:none" transform="translate(203.624 23.573)"/><path d="M197.294 22.498h-1.677v.993h1.677v-.993zM217.406 20.532H216.3v2.858h1.106v-2.858zm1.63 0v2.955h1.228v1.124h-6.886v-1.317h1.232V20.47h-1.232v-1.252h7.163v1.314h-1.505z" style="fill:#fff;fill-opacity:1;fill-rule:nonzero;stroke:none"/><path d="m0 0-.989-.073C-1.003.599-1.224.936-1.654.936c-.493 0-.74-.518-.74-1.554 0-.598.067-1.003.201-1.216a.631.631 0 0 1 .562-.32c.391 0 .629.3.716.901L0-1.319C-.059-1.89-.239-2.323-.539-2.62a1.51 1.51 0 0 0-1.102-.445c-.533 0-.967.218-1.3.653-.334.435-.501 1.037-.501 1.805 0 .719.162 1.307.484 1.766.323.458.764.688 1.323.688C-.667 1.847-.122 1.231 0 0" style="fill:#2f2e2d;fill-opacity:1;fill-rule:nonzero;stroke:none" transform="translate(111.62 146.77)"/><path d="M0 0h.854L.43 1.672 0 0Zm1.078 2.904 1.261-4.765H1.324l-.248.981H-.227l-.252-.981h-.828l1.292 4.765h1.093z" style="fill:#2f2e2d;fill-opacity:1;fill-rule:nonzero;stroke:none" transform="translate(112.703 145.64)"/><path d="M0 0v-1.215h.579c.188 0 .326.016.411.047a.477.477 0 0 1 .229.21.69.69 0 0 1 .1.372.648.648 0 0 1-.1.356c-.067.104-.14.169-.218.193C.922-.012.774 0 .558 0H0Zm0-2.028v-1.889h-.95V.848H.821c.326 0 .588-.045.786-.134.198-.09.362-.254.492-.494.13-.239.194-.506.194-.799 0-.572-.233-.982-.699-1.231l.744-2.107H1.295L.676-2.028H0z" style="fill:#2f2e2d;fill-opacity:1;fill-rule:nonzero;stroke:none" transform="translate(116.212 147.695)"/><path d="M0 0v-.942h-.998v-3.823h-.956v3.823h-1.004V0H0Z" style="fill:#2f2e2d;fill-opacity:1;fill-rule:nonzero;stroke:none" transform="translate(121.61 148.544)"/><path d="M0 0v-1.215h.579c.188 0 .326.016.411.047a.477.477 0 0 1 .229.21.69.69 0 0 1 .1.372.648.648 0 0 1-.1.356c-.067.104-.14.169-.218.193C.922-.012.774 0 .558 0H0Zm0-2.028v-1.889h-.95V.848H.821c.326 0 .588-.045.786-.134.198-.09.362-.254.492-.494.13-.239.194-.506.194-.799 0-.572-.233-.982-.699-1.231l.744-2.107H1.295L.676-2.028H0z" style="fill:#2f2e2d;fill-opacity:1;fill-rule:nonzero;stroke:none" transform="translate(122.876 147.695)"/><path d="M126.376 143.779h-.942v4.765h.942v-4.765z" style="fill:#2f2e2d;fill-opacity:1;fill-rule:nonzero;stroke:none"/><path d="M0 0v-2.991h.389c.344 0 .599.151.766.455.167.304.25.66.25 1.07 0 .288-.048.556-.143.801-.095.246-.213.418-.355.517A.864.864 0 0 1 .398 0H0Zm-.927.876h1.23c.501 0 .875-.082 1.12-.246.246-.164.467-.423.661-.778.195-.355.292-.804.292-1.346 0-.682-.17-1.251-.51-1.709-.34-.457-.809-.686-1.407-.686H-.927V.876z" style="fill:#2f2e2d;fill-opacity:1;fill-rule:nonzero;stroke:none" transform="translate(127.595 147.667)"/><path d="M0 0s-.006-1.501-.548-2.049-.671-.572-1.116-.572c-.526 0-.934.222-1.227.666-.292.445-.439 1.019-.439 1.725 0 .758.156 1.368.468 1.829.312.46.736.691 1.271.691.449 0 .811-.149 1.086-.447.276-.298.444-.695.505-1.19l-.897-.14c-.073.577-.304.866-.694.866-.256 0-.449-.137-.58-.41-.131-.274-.196-.664-.196-1.171 0-.489.071-.863.212-1.121.142-.258.344-.387.605-.387.17 0 .321.065.453.195.133.13.2.339.2.625h-.759V0H0Z" style="fill:#2f2e2d;fill-opacity:1;fill-rule:nonzero;stroke:none" transform="translate(133.476 146.327)"/><path d="M0 0h-1.919v-.977H-.41v-.897h-1.509v-1.041H0v-.942h-2.878V.908H0V0Z" style="fill:#2f2e2d;fill-opacity:1;fill-rule:nonzero;stroke:none" transform="translate(136.563 147.636)"/><path d="M140.313 143.779h-.942v4.765h.942v-4.765z" style="fill:#2f2e2d;fill-opacity:1;fill-rule:nonzero;stroke:none"/><path d="M0 0v-4.765h-.805l-1.577 3.219c.002-.082.004-.135.006-.161.008-.081.012-.15.012-.206v-2.852h-.735V0h1.017l1.371-2.81c-.012.14-.018.246-.018.318V0H0Z" style="fill:#2f2e2d;fill-opacity:1;fill-rule:nonzero;stroke:none" transform="translate(143.615 148.544)"/><path d="M0 0h.614c.234 0 .398.064.493.192a.726.726 0 0 1 .142.44.655.655 0 0 1-.158.461c-.106.114-.265.171-.48.171H0V0Zm.032-.866v-1.769h-.959v4.764H.661c.354 0 .625-.044.813-.134.188-.09.356-.25.504-.48.147-.23.221-.513.221-.848 0-.235-.039-.465-.118-.688a1.243 1.243 0 0 0-.334-.527 1.157 1.157 0 0 0-.417-.255C1.195-.845.984-.866.697-.866H.032z" style="fill:#2f2e2d;fill-opacity:1;fill-rule:nonzero;stroke:none" transform="translate(144.727 146.414)"/><path d="M0 0v-2.967c0-.479-.046-.836-.139-1.07a1.174 1.174 0 0 0-.512-.576c-.249-.15-.567-.225-.955-.225-.387 0-.696.067-.925.202a1.26 1.26 0 0 0-.515.576c-.114.249-.171.614-.171 1.093V0h1.024v-2.967c0-.256.018-.445.054-.566a.515.515 0 0 1 .219-.288.73.73 0 0 1 .403-.106c.177 0 .321.035.432.105.111.07.185.162.222.277.036.115.054.308.054.578V0H0Z" style="fill:#2f2e2d;fill-opacity:1;fill-rule:nonzero;stroke:none" transform="translate(150.34 148.544)"/><path d="M0 0v-.942h-.998v-3.823h-.956v3.823h-1.004V0H0Z" style="fill:#2f2e2d;fill-opacity:1;fill-rule:nonzero;stroke:none" transform="translate(153.518 148.544)"/><path d="M26.908 254.187h-1.96v-10.139h1.96v10.139zM29.877 254.187h-1.96v-10.139h1.96v10.139zM32.896 254.187h-1.96v-10.139h1.96v10.139zM35.865 254.187h-1.96v-10.139h1.96v10.139zM38.785 254.187h-1.96v-10.139h1.96v10.139zM41.754 254.187h-1.96v-10.139h1.96v10.139zM44.773 254.187h-1.96v-10.139h1.96v10.139zM47.742 254.187h-1.96v-10.139h1.96v10.139zM50.786 254.187h-1.96v-10.139h1.96v10.139zM53.755 254.187h-1.96v-10.139h1.96v10.139zM56.774 254.187h-1.96v-10.139h1.96v10.139zM59.743 254.187h-1.96v-10.139h1.96v10.139zM62.662 254.187h-1.96v-10.139h1.96v10.139zM65.631 254.187h-1.96v-10.139h1.96v10.139zM68.65 254.187h-1.96v-10.139h1.96v10.139zM71.619 254.187h-1.96v-10.139h1.96v10.139zM74.638 254.187h-1.96v-10.139h1.96v10.139zM77.607 254.187h-1.96v-10.139h1.96v10.139zM80.626 254.187h-1.96v-10.139h1.96v10.139zM83.595 254.187h-1.96v-10.139h1.96v10.139zM86.515 254.187h-1.96v-10.139h1.96v10.139zM89.484 254.187h-1.96v-10.139h1.96v10.139zM92.503 254.187h-1.96v-10.139h1.96v10.139zM95.472 254.187h-1.96v-10.139h1.96v10.139zM98.491 254.187h-1.96v-10.139h1.96v10.139zM101.46 254.187H99.5v-10.139h1.96v10.139zM104.479 254.187h-1.96v-10.139h1.96v10.139zM107.448 254.187h-1.96v-10.139h1.96v10.139zM110.367 254.187h-1.96v-10.139h1.96v10.139zM113.336 254.187h-1.96v-10.139h1.96v10.139zM116.355 254.187h-1.96v-10.139h1.96v10.139zM119.324 254.187h-1.96v-10.139h1.96v10.139zM122.501 254.187h-1.96v-10.139h1.96v10.139zM125.52 254.187h-1.96v-10.139h1.96v10.139zM128.489 254.187h-1.96v-10.139h1.96v10.139zM131.409 254.187h-1.96v-10.139h1.96v10.139zM134.378 254.187h-1.96v-10.139h1.96v10.139zM137.397 254.187h-1.96v-10.139h1.96v10.139zM140.366 254.187h-1.96v-10.139h1.96v10.139zM143.385 254.187h-1.96v-10.139h1.96v10.139zM146.354 254.187h-1.96v-10.139h1.96v10.139zM149.373 254.187h-1.96v-10.139h1.96v10.139zM152.342 254.187h-1.96v-10.139h1.96v10.139zM155.261 254.187h-1.96v-10.139h1.96v10.139zM158.23 254.187h-1.96v-10.139h1.96v10.139zM161.249 254.187h-1.96v-10.139h1.96v10.139zM164.218 254.187h-1.96v-10.139h1.96v10.139zM167.487 254.187h-1.96v-10.139h1.96v10.139zM170.506 254.187h-1.96v-10.139h1.96v10.139zM173.475 254.187h-1.96v-10.139h1.96v10.139zM176.394 254.187h-1.96v-10.139h1.96v10.139zM179.363 254.187h-1.96v-10.139h1.96v10.139zM182.382 254.187h-1.96v-10.139h1.96v10.139zM185.351 254.187h-1.96v-10.139h1.96v10.139zM188.37 254.187h-1.96v-10.139h1.96v10.139zM191.339 254.187h-1.96v-10.139h1.96v10.139zM194.358 254.187h-1.96v-10.139h1.96v10.139zM197.327 254.187h-1.96v-10.139h1.96v10.139zM200.246 254.187h-1.96v-10.139h1.96v10.139zM203.216 254.187h-1.96v-10.139h1.96v10.139zM206.235 254.187h-1.96v-10.139h1.96v10.139zM209.204 254.187h-1.96v-10.139h1.96v10.139zM212.347 254.187h-1.96v-10.139h1.96v10.139zM215.366 254.187h-1.96v-10.139h1.96v10.139zM218.335 254.187h-1.96v-10.139h1.96v10.139zM221.255 254.187h-1.96v-10.139h1.96v10.139zM224.224 254.187h-1.96v-10.139h1.96v10.139zM227.243 254.187h-1.96v-10.139h1.96v10.139zM230.212 254.187h-1.96v-10.139h1.96v10.139zM233.231 254.187h-1.96v-10.139h1.96v10.139zM236.2 254.187h-1.96v-10.139h1.96v10.139z" style="fill:#3e3e40;fill-opacity:1;fill-rule:nonzero;stroke:none"/></g><g clip-path="url(#b)" transform="matrix(1.25 0 0 -1.25 385.976 317.734)"><path d="M0 0h-128.849c-3.712 0-3.712 0-3.712 3.712v85.722a3.723 3.723 0 0 0 3.712 3.712H0a3.723 3.723 0 0 0 3.712-3.712V3.712C3.712-.066 3.712 0 0 0" style="fill:#393536;fill-opacity:1;fill-rule:nonzero;stroke:none" transform="translate(132.56)"/><path d="M0 0v-74.764a4.256 4.256 0 0 0-2.817-3.995 4.242 4.242 0 0 0-1.425-.247h-86.076a4.242 4.242 0 0 0-2.018.512 4.256 4.256 0 0 0-2.224 3.73V0c0 1 .35 1.923.937 2.651H-.937A4.211 4.211 0 0 0 0 0" style="fill:#201e1d;fill-opacity:1;fill-rule:nonzero;stroke:none" transform="translate(115.77 90.495)"/><path d="M0 0v3.648h-.205V0h-3.977v3.648h-.205V0h-4.065v3.648h-.209V0h-4.033v3.648h-.209V0h-3.842v3.648h-.205V0h-3.92v3.648h-.205V0h-3.977v3.648h-.205V0h-3.977v3.648h-.209V0h-4.065v4.27h3.404a7.357 7.357 0 0 1-.265.265h-3.139v2.263a3.322 3.322 0 0 1-.205.109V4.535h-4.037v3.921h-.205V4.535h-3.637v4.603c-.071.003-.138.01-.209.014V4.535h-3.917v4.592a3.614 3.614 0 0 1-.205-.017V4.535h-3.976v3.818a7.485 7.485 0 0 1-.209-.064V4.535h-3.977v2.054c-.07-.039-.138-.081-.205-.12V4.535h-2.563a9.459 9.459 0 0 1-.265-.265h2.828V0h-4.065v3.648h-.205V0h-4.037v3.648h-.205V0h-3.902v3.648h-.209V0h-3.917v3.648h-.205V0h-3.977v3.648h-.208V0h-3.977v3.648h-.205V0h-4.065v3.648h-.205V0h-4.037v3.648h-.205V0h-2.796v64.739c0 .997.346 1.916.933 2.641H2.556a4.18 4.18 0 0 0 .933-2.641V0H0Zm3.489-4.447H0v4.182h3.489v-4.182zm0-4.479H0v4.214h3.489v-4.214zm0-.816a4.242 4.242 0 0 0-2.213-3.716 3.322 3.322 0 0 0-.318-.152H0v4.419h3.489v-.551zM-.205-13.61h-3.977v4.419h3.977v-4.419zM-4.182-.265h3.977v-4.182h-3.977v4.182zm3.977-8.661h-3.977v4.214h3.977v-4.214zm-4.182-4.684h-4.065v4.419h4.065v-4.419zM-8.452-.265h4.065v-4.182h-4.065v4.182zm4.065-8.661h-4.065v4.214h4.065v-4.214zm-4.274-4.684h-4.033v4.419h4.033v-4.419zM-12.694-.265h4.033v-4.182h-4.033v4.182zm4.033-8.661h-4.033v4.214h4.033v-4.214zm-4.242-4.684h-3.842v4.419h3.842v-4.419zM-16.745-.265h3.842v-4.182h-3.842v4.182zm3.842-8.661h-3.842v4.214h3.842v-4.214zm-4.047-4.684h-3.92v4.419h3.92v-4.419zM-20.87-.265h3.92v-4.182h-3.92v4.182zm3.92-8.661h-3.92v4.214h3.92v-4.214zm-4.125-4.684h-3.977v4.419h3.977v-4.419zM-25.052-.265h3.977v-4.182h-3.977v4.182zm3.977-8.661h-3.977v4.214h3.977v-4.214zm-4.182-4.684h-3.977v4.419h3.977v-4.419zM-29.234-.265h3.977v-4.182h-3.977v4.182zm3.977-8.661h-3.977v4.214h3.977v-4.214zm-4.186-4.684h-4.065v4.419h4.065v-4.419zM-33.508-.265h4.065v-4.182h-4.065v4.182zm4.065-8.661h-4.065v4.214h4.065v-4.214zm-4.27-4.684h-4.037v4.419h4.037v-4.419zm0 4.684h-4.037v4.214h4.037v-4.214zM-37.75 4.27h4.037V0h-4.037v4.27zm4.037-8.717h-4.037v4.182h4.037v-4.182zm-4.242-9.163h-3.637v4.419h3.637v-4.419zm0 4.684h-3.637v4.214h3.637v-4.214zM-41.592 4.27h3.637V0h-3.637v4.27zm3.637-8.717h-3.637v4.182h3.637v-4.182zm-3.846-9.163h-3.917v4.419h3.917v-4.419zm0 4.684h-3.917v4.214h3.917v-4.214zM-45.718 4.27h3.917V0h-3.917v4.27zm3.917-8.717h-3.917v4.182h3.917v-4.182zm-4.122-9.163H-49.9v4.419h3.977v-4.419zm0 4.684H-49.9v4.214h3.977v-4.214zM-49.899 4.27h3.977V0h-3.977v4.27zm3.976-8.717H-49.9v4.182h3.977v-4.182zm-4.185-9.163h-3.977v4.419h3.977v-4.419zm0 4.684h-3.977v4.214h3.977v-4.214zM-54.085 4.27h3.977V0h-3.977v4.27zm3.977-8.717h-3.977v4.182h3.977v-4.182zm-4.182-9.163h-4.065v4.419h4.065v-4.419zM-58.355-.265h4.065v-4.182h-4.065v4.182zm4.065-8.661h-4.065v4.214h4.065v-4.214zm-4.27-4.684h-4.037v4.419h4.037v-4.419zM-62.597-.265h4.037v-4.182h-4.037v4.182zm4.037-8.661h-4.037v4.214h4.037v-4.214zm-4.242-4.684h-3.903v4.419h3.903v-4.419zM-66.704-.265h3.903v-4.182h-3.903v4.182zm3.902-8.661h-3.903v4.214h3.903v-4.214zm-4.111-4.684h-3.917v4.419h3.917v-4.419zM-70.83-.265h3.917v-4.182h-3.917v4.182zm3.917-8.661h-3.917v4.214h3.917v-4.214zm-4.122-4.684h-3.977v4.419h3.977v-4.419zM-75.012-.265h3.977v-4.182h-3.977v4.182zm3.977-8.661h-3.977v4.214h3.977v-4.214zm-4.185-4.684h-3.977v4.419h3.977v-4.419zM-79.197-.265h3.977v-4.182h-3.977v4.182zm3.977-8.661h-3.977v4.214h3.977v-4.214zm-4.182-4.684h-4.065v4.419h4.065v-4.419zM-83.467-.265h4.065v-4.182h-4.065v4.182zm4.065-8.661h-4.065v4.214h4.065v-4.214zm78.667-5.041h-85.751c-.297 0-.59.032-.87.092H.134a4.146 4.146 0 0 0-.869-.092m-82.937.357h-4.037v4.419h4.037v-4.419zM-87.709-.265h4.037v-4.182h-4.037v4.182zm4.037-8.661h-4.037v4.214h4.037v-4.214zm-4.242 4.479h-2.796v4.182h2.796v-4.182zm0-4.479h-2.796v4.214h2.796v-4.214zm0-4.684h-.265c-.11.046-.216.096-.318.152a4.242 4.242 0 0 0-2.213 3.716v.551h2.796v-4.419zM2.733 67.535h-92.687a4.211 4.211 0 0 1-.937-2.651V-9.88a4.256 4.256 0 0 1 2.818-3.995 4.232 4.232 0 0 1 1.424-.247H-.573a4.233 4.233 0 0 1 2.019.512 4.256 4.256 0 0 1 2.223 3.73v74.764c0 1-.35 1.923-.936 2.651" style="fill:#b1ada6;fill-opacity:1;fill-rule:nonzero;stroke:none" transform="translate(112.1 25.61)"/><path d="M0 0v-.905h-33.2c-.181.212-.371.421-.573.622a8.277 8.277 0 0 1-.265.265c-.113.106-.23.212-.346.318a14.914 14.914 0 0 1-2.998 2.054c-2.241 1.188-4.938 1.98-7.879 2.231-.071.003-.138.01-.209.014a23.443 23.443 0 0 1-4.122-.042 21.892 21.892 0 0 1-3.977-.757c-.07-.021-.141-.042-.208-.064a18.249 18.249 0 0 1-3.977-1.7c-.071-.039-.138-.081-.205-.12a14.816 14.816 0 0 1-2.563-1.934 8.277 8.277 0 0 1-.265-.265 10.76 10.76 0 0 1-.573-.622h-33.2V0h32.766c3.181 3.185 8.494 5.274 14.514 5.274S-35.947 3.185-32.765 0H0Z" style="fill:#b1ada6;fill-opacity:1;fill-rule:nonzero;stroke:none" transform="translate(115.77 30.164)"/><g clip-path="url(#c)"><path d="M0 0c.478-.393 1.019-.751 1.589-.982 1.729-.697 3.56-.962 5.409-.998a639.68 639.68 0 0 1 11.339-.115c6.167-.007 12.335.024 18.502.039 8.072.02 16.145.035 24.217.067a17.51 17.51 0 0 1 4.524.588c.971.264 1.922.58 2.71 1.252.836.713.856 1.487.024 2.195-.684.583-1.502.904-2.353 1.14-1.725.479-3.493.627-5.274.643-3.227.028-6.457-.079-9.678.229-1.558.15-3.105.376-4.611.808-.906.26-1.791.591-2.73.905l.001.001a.224.224 0 0 1-.074-.041c-.898-.773-1.948-1.229-3.091-1.507-1.881-.458-3.791-.585-5.72-.582-1.836.003-3.672-.022-5.49.303-1.036.186-2.078.369-3.021.862-.544.285-1.053.635-1.614.978.014.004-.023-.003-.058-.018a18.525 18.525 0 0 0-3.204-1.073c-2.599-.622-5.247-.792-7.905-.848-2.415-.05-4.832-.029-7.248-.083a14.825 14.825 0 0 1-3.853-.598C1.507 2.905.65 2.57-.028 1.912-.653 1.305-.668.549 0 0m27.138 6.144c.004-.352.29-.499.541-.661a.46.46 0 0 1 .104-.052c.519-.175 1.029-.392 1.561-.514 1.674-.383 3.38-.482 5.606-.482 1.383.008 3.272.104 5.114.602.468.127.932.324 1.351.568.529.31.518.747.008 1.094-.229.156-.487.28-.748.375-1.346.487-2.757.647-4.171.746-2.146.149-4.285.087-6.41-.278-.837-.144-1.67-.314-2.423-.735-.261-.145-.537-.31-.533-.663m15.874.755c1.412-.897 2.985-1.35 4.592-1.693a30.087 30.087 0 0 1 5.808-.644c2.173-.034 4.348-.012 6.522.006 2.248.018 4.481-.105 6.672-.647 1.148-.284 2.256-.679 3.225-1.387.513-.374.899-.826.874-1.511-.015-.424-.206-.778-.457-1.105-.475-.619-1.136-.975-1.821-1.3-1.221-.58-2.531-.8-3.852-.995-2.249-.331-4.514-.246-6.772-.257-5.085-.025-10.169-.014-15.254-.016-2.803-.002-5.606 0-8.409 0v-.004c-6.805 0-13.611-.005-20.416.002-2.397.002-4.794.002-7.19.056-2.013.045-4.012.255-5.928.929-.728.256-1.44.572-2.03 1.089-.23.202-.446.434-.618.686-.536.785-.424 1.606.298 2.226.639.548 1.388.902 2.174 1.188 1.676.611 3.422.905 5.19.962 2.075.067 4.154.022 6.231.009 2.768-.018 5.527.104 8.255.593 1.937.348 3.797.906 5.494 1.971 1.709 1.072 3.618 1.619 5.618 1.858 1.618.194 3.24.214 4.862.105 2.473-.167 4.82-.78 6.932-2.121" style="fill:#231f20;fill-opacity:1;fill-rule:nonzero;stroke:none" transform="translate(34.325 20.171)"/><path d="M0 0a3.564 3.564 0 0 1 1.527-1.016c1.103-.385 2.244-.574 3.405-.623a87.89 87.89 0 0 1 3.594-.066c8.13-.006 16.26-.003 24.391-.003h3.625c7.57.001 15.14-.003 22.709.008 1.537.003 3.069.09 4.562.515.767.219 1.472.535 2.015 1.137.428.474.44.929-.04 1.34a4.693 4.693 0 0 1-1.191.745c-1.166.497-2.408.701-3.667.756a84.087 84.087 0 0 1-3.622.064c-16.251.005-32.502.003-48.753.003-.89 0-1.78.02-2.668-.01-1.47-.049-2.929-.188-4.328-.691-.578-.208-1.133-.453-1.553-.92C-.372.818-.375.424 0 0m23.432 5.471c.561-.343 1.07-.693 1.614-.978.944-.493 1.985-.676 3.021-.862 1.818-.325 3.654-.3 5.49-.302 1.929-.004 3.839.123 5.721.581 1.142.278 2.192.734 3.09 1.507.031.027.07.042.075.042l-.002-.002c.939-.313 1.824-.645 2.73-.904 1.506-.433 3.053-.659 4.611-.809 3.221-.308 6.451-.201 9.678-.229 1.781-.016 3.549-.164 5.274-.642.851-.237 1.669-.558 2.353-1.141.832-.708.813-1.481-.024-2.194-.788-.673-1.738-.989-2.709-1.253a17.523 17.523 0 0 0-4.525-.588c-8.072-.032-16.144-.046-24.216-.067-6.168-.015-12.336-.045-18.503-.039-3.78.005-7.56.043-11.339.115-1.848.036-3.68.301-5.409.999-.57.23-1.111.588-1.589.981-.668.549-.652 1.305-.028 1.912.678.659 1.535.993 2.419 1.253 1.257.369 2.549.569 3.853.598 2.416.054 4.833.033 7.248.083 2.658.056 5.306.226 7.905.848a18.62 18.62 0 0 1 3.205 1.073c.034.015.071.022.057.018" style="fill:#fff;fill-opacity:1;fill-rule:nonzero;stroke:none" transform="translate(35.552 20.485)"/><path d="M0 0c-.495-.002-.932.424-.936.912-.003.486.432.909.934.907.506-.002.929-.423.919-.918A.94.94 0 0 0 0 0" style="fill:#fff;fill-opacity:1;fill-rule:nonzero;stroke:none" transform="translate(99.94 20.21)"/><path d="M97.086 21.921h-4.99v.786h4.99v-.786z" style="fill:#fff;fill-opacity:1;fill-rule:nonzero;stroke:none"/><path d="M0 0c.061-.342.335-.317.6-.316.802.002 1.604.001 2.405-.001.123 0 .246-.012.379-.02v-.705H.068c-.063-.39.034-.516.378-.517.917-.005 1.835-.002 2.753-.003h.405v-.763c-.088-.006-.189-.019-.291-.019-1.217-.001-2.434-.004-3.651 0-.726.003-1.051.342-1.047 1.074.002.411 0 .823 0 1.24.055.013.091.029.127.029C-.852.001-.446 0 0 0" style="fill:#fff;fill-opacity:1;fill-rule:nonzero;stroke:none" transform="translate(93.475 21.678)"/><path d="M0 0h1.592c-.205-.31-.383-.577-.561-.848H-.556L0 0" style="fill:#fff;fill-opacity:1;fill-rule:nonzero;stroke:none" transform="translate(89.952 22.767)"/><path d="M0 0h1.589L.042-2.317h-1.749L-3.255-.006h1.588l.834-1.263L0 0" style="fill:#fff;fill-opacity:1;fill-rule:nonzero;stroke:none" transform="translate(89.22 21.665)"/><path d="m0 0 .564-.843H-1.03L-1.588 0H0Z" style="fill:#fff;fill-opacity:1;fill-rule:nonzero;stroke:none" transform="translate(86.818 22.765)"/><path d="M84.732 21.919h-1.383v.784h1.383v-.784zM84.724 19.352h-1.378v2.307h1.378v-2.307z" style="fill:#fff;fill-opacity:1;fill-rule:nonzero;stroke:none"/><path d="M0 0c.107-.578-.034-1.039-.632-1.388l.982-.806-.091-.133c-.5 0-1-.019-1.498.014-.133.009-.284.157-.378.279-.258.34-.576.458-1 .423-.441-.037-.886-.009-1.356-.009v.937h1.424c.251 0 .502-.001.753.001.328.003.389.064.399.384.002.094.009.188.015.298H0Z" style="fill:#fff;fill-opacity:1;fill-rule:nonzero;stroke:none" transform="translate(82.47 21.662)"/><path d="M0 0c.443-.004.732-.361.686-.799h-5.682c-.038.439.249.796.684.799C-2.874.013-1.437.013 0 0" style="fill:#fff;fill-opacity:1;fill-rule:nonzero;stroke:none" transform="translate(81.776 22.716)"/><path d="M78.156 19.356h-1.398v2.307h1.398v-2.307z" style="fill:#fff;fill-opacity:1;fill-rule:nonzero;stroke:none"/><path d="M0 0c0-.194.001-.391-.001-.588-.002-.271-.007-.541-.011-.812-.007-.489-.319-.894-.797-.905-1.138-.028-2.277-.009-3.451-.009v.755c.126.007.238.018.35.018.696.002 1.392-.001 2.088.002.323.002.396.073.398.389.005.376.002.751.002 1.15H0Z" style="fill:#fff;fill-opacity:1;fill-rule:nonzero;stroke:none" transform="translate(75.833 21.656)"/><path d="M0 0h-5.841c-.007.106-.017.19-.019.274-.002.162-.001.324-.001.498.096.013.16.03.224.03C-4.014.803-2.391.806-.768.801-.278.8.024.487 0 0" style="fill:#fff;fill-opacity:1;fill-rule:nonzero;stroke:none" transform="translate(75.799 21.92)"/><path d="m0 0-.241-.647h-.376l.73 2.116.128.004L.83-.241H.075L0 0m.047.138L.303.16.16.491A60.063 60.063 0 0 1 .047.138" style="fill:#231f20;fill-opacity:1;fill-rule:nonzero;stroke:none" transform="translate(71.712 25.705)"/><path d="M0 0c.258.003.517.001.795.001v.946L.202.995l-.014.262h.944V.039l.061-.016c.029.059.066.115.087.177.174.511.349 1.022.512 1.537.086.271.257.445.536.451.293.004.471-.176.562-.456.195-.606.4-1.209.599-1.813.022-.07.03-.144.048-.233H2.228l-.012.276h.932c-.221.64-.416 1.22-.626 1.795-.021.058-.155.129-.203.11a.393.393 0 0 1-.202-.207C1.92 1.116 1.739.566 1.552.019c-.037-.109-.08-.217-.127-.345-.534 0-1.065-.013-1.594.005-.29.01-.512.264-.519.564-.01.435-.01.87.001 1.305.008.326.23.565.569.584.403.022.808.005 1.241.005v-.318c-.361 0-.708.002-1.053 0-.337-.004-.433-.098-.436-.429-.002-.338.003-.676 0-1.015C-.368.125-.256-.003 0 0" style="fill:#231f20;fill-opacity:1;fill-rule:nonzero;stroke:none" transform="translate(69.548 25.371)"/><path d="m0 0 .113.353.143-.331L0 0" style="fill:#fff;fill-opacity:1;fill-rule:nonzero;stroke:none" transform="translate(71.76 25.843)"/><path d="M71.344 19.356h-1.389v2.304h1.389v-2.304z" style="fill:#fff;fill-opacity:1;fill-rule:nonzero;stroke:none"/><path d="m0 0 .228-.036L.05.385h.534v-.731c-.24 0-.471-.027-.69.014-.095.017-.224.17-.232.27A8.284 8.284 0 0 0-.341.947c.007.178.114.278.303.276.347-.004.692-.001 1.075-.001V.921H0V0Z" style="fill:#231f20;fill-opacity:1;fill-rule:nonzero;stroke:none" transform="translate(69.635 25.837)"/><path d="M0 0v-.315c-.39 0-.772-.017-1.15.013-.077.007-.167.178-.205.29-.035.102-.007.226-.007.369h1.115l.015-.256h-.747L-.981 0H0Z" style="fill:#231f20;fill-opacity:1;fill-rule:nonzero;stroke:none" transform="translate(68.652 25.812)"/><path d="M0 0h-.961l.002-.089h.718l.015-.29H-1.35c0 .163-.035.301.009.406.046.11.16.262.256.271C-.734.33-.377.311 0 .311V0Z" style="fill:#231f20;fill-opacity:1;fill-rule:nonzero;stroke:none" transform="translate(68.642 26.746)"/><path d="M0 0c.003-.256.132-.39.396-.389.355.003.71.001 1.086.001v-.32c-.44 0-.863-.021-1.284.006-.29.019-.492.236-.507.543-.023.452-.021.907.008 1.358.02.319.227.517.546.536.402.024.806.006 1.231.006v-.316c-.347 0-.682.002-1.017-.001-.357-.003-.46-.105-.463-.469C-.007.637-.005.318 0 0" style="fill:#231f20;fill-opacity:1;fill-rule:nonzero;stroke:none" transform="translate(67.168 25.766)"/><path d="M0 0v-2.304h-1.381l-.03.67h-2.508v.943h2.516V0H0Z" style="fill:#fff;fill-opacity:1;fill-rule:nonzero;stroke:none" transform="translate(66.636 21.661)"/><path d="M0 0c-.087.002-.174-.003-.26.003-.057.005-.139.005-.163.039-.081.119-.213.265-.191.374.025.123.188.293.305.306.361.04.728.015 1.112.015l.015-.29H-.277A2.753 2.753 0 0 1-.285.361C-.176.347-.067.332.043.32.516.266.83-.057.828-.488.825-.895.527-1.247.125-1.269c-.384-.022-.769-.005-1.181-.005l-.019.328c.379 0 .735-.01 1.088.003.299.011.497.227.488.499C.492-.179.298-.008 0 0" style="fill:#231f20;fill-opacity:1;fill-rule:nonzero;stroke:none" transform="translate(65.812 26.319)"/><path d="M0 0c.009.48.277.791.719.794 1.389.011 2.778.011 4.168 0 .437-.004.728-.348.7-.794H0Z" style="fill:#fff;fill-opacity:1;fill-rule:nonzero;stroke:none" transform="translate(61.04 21.924)"/><path d="M0 0c.054-.121.228-.212.368-.264.12-.045.271.003.402-.023.2-.039.332-.176.324-.385-.007-.206-.133-.347-.349-.353-.356-.01-.713-.003-1.097-.003l-.027.295H.73l.01.089c-.091.015-.181.038-.273.042-.48.02-.837.345-.845.776-.009.445.319.794.8.819.355.018.71.003 1.081.003v-.32c-.32 0-.639.025-.951-.01C.375.647.17.568.053.444-.034.354-.055.122 0 0" style="fill:#231f20;fill-opacity:1;fill-rule:nonzero;stroke:none" transform="translate(65.117 26.515)"/><path d="M0 0c-2.226.001-3.932.099-5.607.482-.531.122-1.041.339-1.561.514a.475.475 0 0 0-.103.052c-.251.163-.537.309-.541.661-.004.353.272.518.533.664.752.42 1.586.59 2.423.734 2.124.365 4.264.427 6.409.278 1.415-.099 2.825-.258 4.172-.746.261-.095.519-.219.748-.374.509-.348.521-.785-.008-1.094A5.578 5.578 0 0 0 5.113.603C3.272.104 1.383.008 0 0m-3.45.77C-3.804.757-4.159.767-4.539.767l.02-.328c.411 0 .797-.017 1.18.005.402.022.701.374.703.781.002.431-.312.754-.785.808-.109.012-.219.027-.328.041l.008.086h1.095l-.014.29c-.384 0-.752.025-1.112-.015-.118-.013-.28-.183-.305-.306-.022-.109.109-.255.19-.374.024-.034.107-.034.163-.039.086-.006.173-.001.26-.003.298-.008.493-.179.501-.444.01-.272-.189-.488-.487-.499m-1.06.111c.384 0 .74-.008 1.096.002.217.006.342.147.349.354.009.208-.123.345-.324.385-.13.025-.281-.022-.401.023-.141.051-.315.142-.369.263-.054.123-.033.354.053.445.117.123.323.202.5.221.312.035.63.01.95.01v.32c-.37 0-.726.015-1.08-.003-.481-.025-.81-.374-.801-.818.009-.431.365-.756.845-.776.092-.004.182-.028.273-.042l-.01-.09h-1.108l.027-.294m2.403.279c-.005.318-.007.637-.004.955.003.363.106.466.463.469.335.003.671 0 1.017 0V2.9c-.425 0-.829.018-1.231-.005-.319-.019-.526-.217-.546-.536a11.832 11.832 0 0 1-.008-1.358c.015-.308.217-.525.508-.543.42-.027.844-.007 1.283-.007v.321c-.376 0-.731.001-1.086-.001-.264-.002-.392.132-.396.389m.122.403c0-.143-.028-.267.007-.369.038-.112.128-.283.205-.29.378-.03.76-.013 1.15-.013v.315h-.981l.002.101h.747l-.015.256h-1.115zm.011.604c-.044-.105-.009-.243-.009-.406h1.124l-.015.29h-.718l-.002.089h.961v.311c-.377 0-.734.019-1.085-.013-.096-.009-.21-.161-.256-.271m1.559-1.159c.007-.3.228-.554.519-.564C.633.426 1.164.439 1.698.439c.047.128.089.236.126.345.188.547.369 1.097.565 1.641.031.085.12.173.203.207.047.019.181-.052.202-.11.211-.575.406-1.155.626-1.795h-.931l.012-.276H3.81c-.018.089-.026.163-.049.233-.199.604-.403 1.207-.598 1.813-.091.28-.269.46-.562.456-.279-.006-.45-.18-.536-.451-.163-.515-.339-1.026-.512-1.537-.021-.062-.058-.118-.088-.177l-.061.016v1.218H.461l.014-.262.593-.048V.766C.789.766.531.768.273.765.016.762-.096.89-.093 1.14c.003.339-.003.677 0 1.016.003.33.098.424.435.428.346.003.692 0 1.054 0v.318c-.433 0-.839.018-1.242-.005a.575.575 0 0 1-.568-.584c-.011-.435-.011-.87-.001-1.305m.437.161c.008-.1.138-.253.232-.27.219-.041.45-.014.69-.014v.731H.41l.178-.421-.228.036v.921h1.037v.301c-.382 0-.728-.003-1.074.001-.19.002-.296-.098-.303-.276a8.087 8.087 0 0 1 .002-1.009M1.82.451h.376l.241.648.075-.241h.754l-.588 1.714-.129-.004L1.82.451" style="fill:#fff;fill-opacity:1;fill-rule:nonzero;stroke:none" transform="translate(69.275 24.606)"/><path d="M62.421 19.355h-1.397v2.304h1.397v-2.304z" style="fill:#fff;fill-opacity:1;fill-rule:nonzero;stroke:none"/><path d="M0 0v-.798h-5.893c-.051.456.257.788.746.796C-4.586.006-4.025 0-3.465 0H0Z" style="fill:#fff;fill-opacity:1;fill-rule:nonzero;stroke:none" transform="translate(60.31 22.723)"/><path d="M0 0c.002-.443.044-.485.476-.486H2.62c.058 0 .116-.001.174.003.166.012.305.093.261.265-.025.096-.169.221-.265.227-.433.025-.869.012-1.303.012h-.384v.678c.016.013.03.035.044.035.859 0 1.718.025 2.575-.012.468-.021.832-.551.801-1.049a.991.991 0 0 0-.963-.938c-.763-.012-1.526-.004-2.288-.004-.571-.001-1.14-.005-1.71.002-.613.006-.971.371-.973.975v1.37H0C0 .705-.001.352 0 0" style="fill:#fff;fill-opacity:1;fill-rule:nonzero;stroke:none" transform="translate(55.8 20.602)"/><path d="M41.596 21.666h-1.377v-2.312h1.377v2.312zm3.107-.01h-1.369V19.35h1.369v2.306zm3.124.262c.022.49-.283.803-.788.803-2.193.004-4.386.002-6.579.001-.075 0-.149-.015-.24-.023v-.781h7.607zm.007-.262h-1.41v-2.301h1.41v2.301zm5.808 1.046h-4.986v-.781h4.986v.781zm8.779-1.043h-1.397v-2.304h1.397v2.304zm4.206.265c.027.445-.263.79-.701.793-1.389.011-2.778.011-4.167.001-.442-.004-.71-.315-.719-.794h5.587zm4.717-.264h-1.389v-2.304h1.389v2.304zm4.489-.592v.588h-1.422c0-.399.003-.774-.001-1.149-.003-.317-.076-.388-.399-.39-.696-.003-1.392 0-2.088-.001-.112-.001-.224-.012-.35-.019v-.755c1.174 0 2.313-.019 3.451.009.479.012.79.416.797.906l.012.811m2.323.595h-1.398v-2.307h1.398v2.307zm6.568-.004h-1.378v-2.307h1.378v2.307zm.008 1.044h-1.383v-.784h1.383v.784zm6.077-1.038h-1.59l-.833-1.269-.833 1.263h-1.589l1.548-2.311h1.749l1.548 2.317m.174.255.561.847h-1.592l-.555-.847h1.586zm6.103.787h-4.99v-.786h4.99v.786zm-47.379-3.373c1.209-.003 2.417-.001 3.625 0 .103 0 .205.012.306.018v.764h-.371c-.928.001-1.856-.002-2.784.002-.342.002-.44.125-.39.515h3.322v.729h-.404c-.812 0-1.624.004-2.437-.002-.249-.002-.464.029-.538.298h-1.389c0-.436.002-.849 0-1.262-.002-.724.328-1.06 1.06-1.062m4.682.976c.002-.604.36-.968.973-.975.57-.007 1.139-.002 1.709-.002.763 0 1.526-.007 2.289.005a.99.99 0 0 1 .963.938c.031.497-.333 1.027-.801 1.048-.857.038-1.716.013-2.575.013-.014 0-.028-.022-.044-.036v-.677h.384c.434-.001.87.012 1.303-.013.096-.005.24-.131.265-.226.044-.173-.095-.254-.261-.266-.058-.004-.116-.002-.174-.002h-2.144c-.433 0-.474.043-.476.485-.001.352 0 .705 0 1.078h-1.411v-1.37m.029 1.615h5.893v.798H56.846c-.561 0-1.122.006-1.682-.002-.489-.008-.797-.34-.746-.796m10.807-1.898.03-.67h1.381v2.304h-1.403v-.692h-2.516v-.942h2.508zm4.732 1.893h5.842c.024.486-.279.8-.768.801-1.623.005-3.246.002-4.869 0-.064 0-.129-.016-.224-.029 0-.174-.001-.336.001-.498.002-.085.012-.169.018-.274m-32.954-1.709c.487.003.914.426.917.908.003.498-.424.914-.934.911-.49-.003-.913-.418-.917-.9-.004-.487.438-.922.934-.919m42.85-.16c.424.036.743-.083 1.001-.423.093-.122.244-.27.377-.279.498-.033.999-.014 1.499-.014l.091.133-.982.807c.598.348.739.809.632 1.387h-1.382c-.006-.11-.014-.203-.016-.297-.01-.321-.071-.382-.398-.385-.252-.002-.503-.001-.754-.001h-1.424v-.936c.471 0 .916-.029 1.356.008m2.608 1.866c.047.438-.243.795-.685.799-1.438.013-2.875.013-4.312 0-.435-.003-.722-.36-.684-.799h5.681zm3.327.004h1.594l-.564.844h-1.587l.557-.844m7.349-2.587c1.217-.004 2.435-.001 3.652 0 .101 0 .202.013.29.019v.763h-.405c-.918.001-1.835-.002-2.753.003-.344.001-.44.127-.378.516h3.316v.706c-.132.007-.255.02-.378.02-.802.002-1.604.002-2.406.001-.265-.001-.539-.026-.6.316l-1.257-.001c-.036 0-.073-.017-.128-.029 0-.417.002-.829 0-1.241-.003-.732.321-1.07 1.047-1.073m3.345 3.944c1.259-.055 2.501-.258 3.667-.756a4.693 4.693 0 0 0 1.191-.745c.48-.411.468-.866.04-1.339-.543-.603-1.248-.919-2.015-1.137-1.493-.426-3.025-.513-4.562-.516-7.569-.011-15.139-.006-22.708-.008h-3.626c-8.13 0-16.261-.003-24.391.003a89.72 89.72 0 0 0-3.594.066c-1.161.049-2.302.238-3.405.623a3.564 3.564 0 0 0-1.527 1.016c-.375.424-.372.819.006 1.239.42.467.975.713 1.553.92 1.399.503 2.858.642 4.328.691.888.03 1.778.01 2.668.01 16.251.001 32.502.002 48.753-.002 1.208 0 2.416-.013 3.622-.065m3.458-3.067a.94.94 0 0 1 .917.901c.01.494-.413.916-.919.918-.502.002-.937-.421-.933-.907.003-.488.441-.915.935-.912" style="fill:#231f20;fill-opacity:1;fill-rule:nonzero;stroke:none"/><path d="M53.642 21.921h-4.986v.781h4.986v-.781z" style="fill:#fff;fill-opacity:1;fill-rule:nonzero;stroke:none"/><path d="M0 0c-.05-.39.048-.513.39-.515.928-.004 1.856-.001 2.784-.002h.371v-.764c-.101-.006-.203-.018-.306-.018a876.043 876.043 0 0 0-3.625 0c-.732.002-1.062.338-1.06 1.062.002.413 0 .826 0 1.262h1.389C.017.756.232.725.481.727c.813.006 1.625.002 2.437.002h.404V0H0Z" style="fill:#fff;fill-opacity:1;fill-rule:nonzero;stroke:none" transform="translate(50.093 20.633)"/><path d="M47.834 19.355h-1.41v2.301h1.41v-2.301z" style="fill:#fff;fill-opacity:1;fill-rule:nonzero;stroke:none"/><path d="M0 0h-7.607v.781c.091.009.165.023.24.023C-5.174.805-2.981.807-.788.803-.284.803.022.49 0 0" style="fill:#fff;fill-opacity:1;fill-rule:nonzero;stroke:none" transform="translate(47.827 21.918)"/><path d="M44.703 19.349h-1.369v2.306h1.369v-2.306zM41.596 19.353h-1.377v2.312h1.377v-2.312z" style="fill:#fff;fill-opacity:1;fill-rule:nonzero;stroke:none"/><path d="M0 0c.51.003.937-.412.934-.911-.003-.482-.43-.905-.917-.908-.496-.003-.938.432-.934.919.004.482.427.897.917.9" style="fill:#fff;fill-opacity:1;fill-rule:nonzero;stroke:none" transform="translate(36.986 22.03)"/></g></g></svg>