<svg xmlns="http://www.w3.org/2000/svg" xml:space="preserve" width="331.647" height="317.734"><defs><clipPath id="a" clipPathUnits="userSpaceOnUse"><path d="M0 254.187h265.318V0H0v254.187Z"/></clipPath></defs><g clip-path="url(#a)" transform="matrix(1.25 0 0 -1.25 0 317.734)"><path d="M0 0c-4.264-4.454-22.225-20.212-22.225-20.212h-221.687S-259.864-4.989-261.49-4.268c-1.1 1.501-2.099 3.985-2.099 10.145v214.091c0 14.595 11.767 14.003 11.767 14.003h12.285v-1.429h213.023v1.429h8.606c17.664 0 19.626-15.096 19.626-15.096V6.298S1.983 2.071 0 0" style="fill:#444141;fill-opacity:1;fill-rule:nonzero;stroke:none" transform="translate(263.589 20.212)"/><path d="M0 0s-6.084 102.39 30.989 107.419c6.844.804 15.399-1.006 34.791-5.633 19.391-4.627 71.102-4.627 90.494 0 19.392 4.627 27.905 5.633 34.791 5.633 36.882 0 33.27-103.195 30.988-107.419H0Z" style="fill:#4f4c4d;fill-opacity:1;fill-rule:nonzero;stroke:none" transform="translate(19.679)"/><path d="M0 0v-8.864s-.074-1.125-1.568-1.125h-209.887c-1.5 0-1.568 1.125-1.568 1.125V0l106.511-.052L0 0Z" style="fill:#2c2a2a;fill-opacity:1;fill-rule:nonzero;stroke:none" transform="translate(237.074 252.752)"/><path d="M0 0c-26.236 0-31.464 1.291-35.932 1.887-4.467.595-3.136-3.476-3.136-3.476s2.281-15.092 2.566-20.85c.285-5.759 6.464-4.965 6.464-4.965h60.076s6.179-.794 6.464 4.965c.285 5.758 2.566 20.85 2.566 20.85s1.331 4.071-3.136 3.476C31.464 1.291 26.236 0 0 0" style="fill:#373737;fill-opacity:1;fill-rule:nonzero;stroke:none" transform="translate(130.705 97.9)"/><path d="M0 0c-26.236 0-31.464 1.291-35.932 1.887-4.467.595-3.136-3.476-3.136-3.476s2.281-15.092 2.566-20.85c.285-5.759 6.464-4.965 6.464-4.965h60.076s6.179-.794 6.464 4.965c.285 5.758 2.566 20.85 2.566 20.85s1.331 4.071-3.136 3.476C31.464 1.291 26.236 0 0 0Z" style="fill:none;stroke:#393536;stroke-width:3;stroke-linecap:butt;stroke-linejoin:miter;stroke-miterlimit:10;stroke-dasharray:none;stroke-opacity:1" transform="translate(130.705 97.9)"/><path d="M0 0c0-35.781-50.496-64.787-112.785-64.787-62.29 0-112.786 29.006-112.786 64.787 0 35.781 50.496 64.787 112.786 64.787C-50.496 64.787 0 35.781 0 0" style="fill:#2c2a2a;fill-opacity:1;fill-rule:nonzero;stroke:none" transform="translate(243.348 175.594)"/><path d="M0 0c0-35.095-49.964-63.545-111.597-63.545-61.633 0-111.597 28.45-111.597 63.545s49.964 63.545 111.597 63.545C-49.964 63.545 0 35.095 0 0" style="fill:#393536;fill-opacity:1;fill-rule:nonzero;stroke:none" transform="translate(242.112 175.743)"/><path d="M0 0c0-28.46-41.048-51.531-91.683-51.531-50.634 0-91.682 23.071-91.682 51.531 0 28.46 41.048 51.531 91.682 51.531C-41.048 51.531 0 28.46 0 0" style="fill:#454547;fill-opacity:1;fill-rule:nonzero;stroke:none" transform="translate(222.53 177.232)"/><path d="m0 0-5.68-5.933H5.846L0 0Z" style="fill:#2f2e2d;fill-opacity:1;fill-rule:nonzero;stroke:none" transform="translate(130.848 156.083)"/><path d="M0 0c-30.454 0-63.272-3.872-63.272-3.872s-7.724-.224-11.502-4.17c-3.779-3.947-4.135-8.44-4.135-12.809s.988-8.339 1.853-10.425c1.236-2.979 4.385-4.766 6.06-4.766H70.996c1.675 0 4.824 1.787 6.06 4.766.865 2.086 1.853 6.056 1.853 10.425 0 4.369-.356 8.862-4.135 12.809-3.778 3.946-11.502 4.17-11.502 4.17S30.454 0 0 0" style="fill:#535456;fill-opacity:1;fill-rule:nonzero;stroke:none" transform="translate(130.931 198.083)"/><path d="M0 0c-30.454 0-63.272-3.872-63.272-3.872s-7.724-.224-11.502-4.17c-3.779-3.947-4.135-8.44-4.135-12.809s.988-8.339 1.853-10.425c1.236-2.979 4.385-4.766 6.06-4.766H70.996c1.675 0 4.824 1.787 6.06 4.766.865 2.086 1.853 6.056 1.853 10.425 0 4.369-.356 8.862-4.135 12.809-3.778 3.946-11.502 4.17-11.502 4.17S30.454 0 0 0Z" style="fill:none;stroke:#444141;stroke-width:2;stroke-linecap:butt;stroke-linejoin:miter;stroke-miterlimit:10;stroke-dasharray:none;stroke-opacity:1" transform="translate(130.931 198.083)"/><path d="M0 0h124.62v-7h7.414s.642-.397.642-2.855c0-2.457-.642-2.953-.642-2.953H-6.844s-.903.695-.903 3.078.903 3.326.903 3.326h6.701L0 0Z" style="fill:#302f2f;fill-opacity:1;fill-rule:nonzero;stroke:none" transform="translate(69.251 190.04)"/><path d="M0 0v1.424c1.428.351 2.36.82 2.795 1.408h1.404v-5.755L4.187-4.19H2.315l-.016 1.267v3.956C1.315.534.549.189 0 0" style="fill:#f4f4f4;fill-opacity:1;fill-rule:nonzero;stroke:none" transform="translate(50.858 22.017)"/><path d="M0 0c.351 0 .643.098.877.296.234.197.351.476.351.836 0 .32-.126.574-.378.761-.252.187-.533.28-.844.28-.327 0-.616-.101-.868-.303a.969.969 0 0 1-.378-.793c0-.307.117-.563.351-.769C-.655.103-.359 0 0 0m3.013 4.119-1.664-.375C1.192 4.453.78 4.808.115 4.808c-.968 0-1.452-.772-1.452-2.314.391.529 1.008.794 1.851.794.771 0 1.4-.21 1.888-.631.488-.42.732-.918.732-1.492 0-.611-.269-1.151-.808-1.621C1.788-.925 1.069-1.16.169-1.16c-.887 0-1.588.191-2.102.572-.514.382-.863.836-1.047 1.363a4.67 4.67 0 0 0-.275 1.535c0 1.061.285 1.935.856 2.624.571.689 1.417 1.034 2.538 1.034.811 0 1.462-.178 1.954-.535.492-.356.799-.794.92-1.314" style="fill:#f4f4f4;fill-opacity:1;fill-rule:nonzero;stroke:none" transform="translate(59.523 18.881)"/><path d="M63.196 21.541h2.892v-1.218h-2.892v1.218z" style="fill:#f4f4f4;fill-opacity:1;fill-rule:nonzero;stroke:none"/><path d="M0 0v-1.667h1.485c.507 0 .865.075 1.075.223a.723.723 0 0 1 .314.623c0 .223-.101.416-.302.578C2.371-.081 2.037 0 1.57 0H0Zm0 2.746V1.231h1.464c.537 0 .874.089 1.014.266.139.177.208.347.208.509a.652.652 0 0 1-.172.454.744.744 0 0 1-.378.238c-.137.032-.408.048-.811.048H0Zm-1.93 1.221h3.848c.69 0 1.208-.071 1.555-.213.347-.142.633-.344.859-.607.226-.264.339-.584.339-.962 0-.766-.496-1.277-1.489-1.534C3.755.543 4.185.328 4.471.007c.286-.321.43-.671.43-1.049 0-.517-.234-.965-.702-1.341-.468-.377-1.228-.565-2.281-.565H-1.93v6.915z" style="fill:#f4f4f4;fill-opacity:1;fill-rule:nonzero;stroke:none" transform="translate(68.998 20.776)"/><path d="M76.294 17.827h-1.93v6.915h1.93v-6.915z" style="fill:#f4f4f4;fill-opacity:1;fill-rule:nonzero;stroke:none"/><path d="M0 0v-1.368h-2.045v-5.547h-1.96v5.547h-2.057V0H0Z" style="fill:#f4f4f4;fill-opacity:1;fill-rule:nonzero;stroke:none" transform="translate(82.83 24.742)"/><path d="M0 0h-5.615v1.313h3.849c-.28.847-.512 1.535-.736 2.227-.558 1.723-1.08 3.461-1.693 5.163-.148.412-.549.922-.915 1.007-.617.144-.817-.496-.988-1.026C-6.952 6.043-7.83 3.411-8.656.761-8.85.138-9.134-.072-9.76-.055c-1.723.047-3.447.004-5.171.02-1.746.016-2.888 1.158-2.926 2.966a109.023 109.023 0 0 0 0 4.886c.043 1.836 1.148 2.953 2.912 2.978 1.554.022 3.108.005 4.717.005V9.417h-3.991c-1.873.001-2.303-.452-2.303-2.426-.001-1.229-.006-2.458.001-3.687.008-1.315.606-1.955 1.844-1.968 1.004-.011 2.009-.003 3.064-.003V5.62h-2.556v1.334h3.983V1.306l.218-.025c.842 2.596 1.686 5.192 2.527 7.789.48 1.485 1.365 2.088 2.791 1.869.794-.122 1.382-.585 1.642-1.371C-1.976 6.45-.976 3.321.033.195.048.149.016.085 0 0" style="fill:#f3fbfd;fill-opacity:1;fill-rule:nonzero;stroke:none" transform="translate(148.668 78.612)"/><path d="M0 0v1.367c1.498 0 2.967-.016 4.436.005 1.229.018 2.148.91 2.192 2.077.043 1.141-.866 2.118-2.074 2.203-.491.034-.989-.013-1.477.04-.751.081-1.299.789-1.298 1.608.001.83.543 1.571 1.301 1.593 1.606.047 3.214.015 4.865.015V7.555H3.222L3.217 7.1c.451-.02.901-.048 1.351-.058 1.698-.039 2.925-1.029 3.348-2.709C8.433 2.281 6.96.098 4.932.013 3.323-.053 1.71 0 0 0" style="fill:#f3fbfd;fill-opacity:1;fill-rule:nonzero;stroke:none" transform="translate(113.478 78.583)"/><path d="M0 0v1.412h4.739l.002.397c-.484.019-.967.048-1.45.057C1.934 1.889.925 2.539.33 3.788-.276 5.06-.183 6.335.616 7.505c.547.802 1.303 1.346 2.256 1.377 1.665.053 3.332.014 5.064.014V7.542c-1.496 0-2.992.025-4.488-.007C1.963 7.503.999 6.116 1.447 4.719c.27-.84 1.04-1.404 2.027-1.462.464-.027.933.007 1.394-.04.749-.076 1.317-.782 1.325-1.589C6.202.821 5.636.035 4.904.014 3.297-.031 1.688 0 0 0" style="fill:#f3fbfd;fill-opacity:1;fill-rule:nonzero;stroke:none" transform="translate(113.465 80.486)"/><path d="M0 0v-1.336h-4.415c-1.543-.002-2.08-.547-2.09-2.144-.008-1.285-.004-2.57.006-3.855.011-1.483.581-2.081 1.979-2.084 1.471-.004 2.942-.001 4.468-.001v-1.372c-1.097 0-2.178-.002-3.259.001-.683.002-1.369-.023-2.05.025-1.253.089-2.394 1.262-2.427 2.573-.046 1.883-.043 3.77 0 5.653.027 1.206 1.046 2.448 2.199 2.512C-3.744.076-1.89 0 0 0" style="fill:#f3fbfd;fill-opacity:1;fill-rule:nonzero;stroke:none" transform="translate(130.118 89.365)"/><path d="M0 0h1.128L.655 1.468.46 1.455 0 0m-2.749-3.4C-1.797-.457-.871 2.422.078 5.293a.87.87 0 0 0 .467.489c.105.038.397-.187.452-.35C1.77 3.131 2.518.82 3.293-1.554H.076l-.099.949-.138.05c-.184-.533-.372-1.064-.549-1.599-.472-1.418-.47-1.419-2.039-1.246" style="fill:#f3fbfd;fill-opacity:1;fill-rule:nonzero;stroke:none" transform="translate(142.971 82.042)"/><path d="m0 0-.949.278v1.214h2.086v-3.181c-1.066 0-2.127-.06-3.173.041-.272.027-.7.551-.713.862-.071 1.712-.05 3.428-.03 5.143.007.601.359.953.939.959 1.585.015 3.17.005 4.825.005V3.962c-1.192 0-2.362-.034-3.529.012-.715.028-.992-.233-.946-.988.048-.797.003-1.6.013-2.4C-1.466-.369-1.025-.599 0 0" style="fill:#f3fbfd;fill-opacity:1;fill-rule:nonzero;stroke:none" transform="translate(135.44 82.18)"/><path d="M0 0c1.472-.275 2.997.013 4.524-.16v-1.296c-1.746 0-3.458-.043-5.164.043-.272.014-.68.57-.742.928-.119.688-.035 1.415-.035 2.198h4.858V.431H.045L0 0" style="fill:#f3fbfd;fill-opacity:1;fill-rule:nonzero;stroke:none" transform="translate(125.546 81.95)"/><path d="M0 0v-1.288c-1.515-.216-3.068.138-4.556-.192l.015-.354h3.412V-3.18h-4.844c0 .79-.068 1.614.036 2.413.037.286.482.722.754.733C-3.47.033-1.754 0 0 0" style="fill:#f3fbfd;fill-opacity:1;fill-rule:nonzero;stroke:none" transform="translate(130.118 87.488)"/><path d="M0 0h-68.546s1.147-1.428 1.738-2.05c5.509-5.801 11.76-6.439 11.76-6.439h5.976v-.745h97.863v.745h5.976s6.25.638 11.76 6.439c.591.622 1.738 2.05 1.738 2.05H0Z" style="fill:#302f2f;fill-opacity:1;fill-rule:nonzero;stroke:none" transform="translate(131.951 176.04)"/><path d="M0 0c0-9.806-11.264-11.468-11.264-11.468h-137.168c-1.996 0-11.264 1.662-11.264 11.468 0 9.806 11.264 11.468 11.264 11.468h137.168S0 9.806 0 0" style="fill:#39393a;fill-opacity:1;fill-rule:nonzero;stroke:none" transform="translate(210.553 48.702)"/><path d="M0 0h-136.755c-4.819 0-8.762 3.943-8.762 8.761 0 4.819 3.943 8.761 8.762 8.761H0c4.819 0 8.761-3.942 8.761-8.761C8.761 3.943 4.819 0 0 0" style="fill:#2e2d2d;fill-opacity:1;fill-rule:nonzero;stroke:none" transform="translate(199.226 39.88)"/><path d="M0 0h-1.602a.625.625 0 0 0-.625.625v8.224c0 .345.28.625.625.625H0c.345 0 .625-.28.625-.625V.625A.625.625 0 0 0 0 0" style="fill:#545659;fill-opacity:1;fill-rule:nonzero;stroke:none" transform="translate(127.371 43.638)"/><path d="M0 0h-1.602a.625.625 0 0 0-.625.625v8.224c0 .345.28.625.625.625H0c.345 0 .625-.28.625-.625V.625A.625.625 0 0 0 0 0" style="fill:#545659;fill-opacity:1;fill-rule:nonzero;stroke:none" transform="translate(131.506 43.638)"/><path d="M0 0h-1.602a.625.625 0 0 0-.625.625v8.224c0 .345.28.625.625.625H0c.345 0 .625-.28.625-.625V.625A.625.625 0 0 0 0 0" style="fill:#545659;fill-opacity:1;fill-rule:nonzero;stroke:none" transform="translate(135.594 43.638)"/><path d="M0 0h-23.291c-3.359 0-6.107 2.748-6.107 6.106 0 3.359 2.748 6.107 6.107 6.107H0c3.358 0 6.106-2.748 6.106-6.107C6.106 2.748 3.358 0 0 0" style="fill:#d61d2a;fill-opacity:1;fill-rule:nonzero;stroke:none" transform="translate(198.245 42.595)"/><path d="M0 0h-13.684c-.969 0-1.761.792-1.761 1.76v.65c0 .968.792 1.76 1.761 1.76H0c.968 0 1.76-.792 1.76-1.76v-.65C1.76.792.968 0 0 0" style="fill:#b71c2e;fill-opacity:1;fill-rule:nonzero;stroke:none" transform="translate(194.062 46.617)"/><path d="M0 0h-23.291c-3.359 0-6.107 2.748-6.107 6.106 0 3.359 2.748 6.107 6.107 6.107H0c3.358 0 6.106-2.748 6.106-6.107C6.106 2.748 3.358 0 0 0" style="fill:#d61d2a;fill-opacity:1;fill-rule:nonzero;stroke:none" transform="translate(86.98 42.595)"/><path d="M0 0h-13.685c-.968 0-1.76.792-1.76 1.76v.65c0 .968.792 1.76 1.76 1.76H0c.968 0 1.76-.792 1.76-1.76v-.65C1.76.792.968 0 0 0" style="fill:#b71c2e;fill-opacity:1;fill-rule:nonzero;stroke:none" transform="translate(82.177 46.617)"/><path d="M0 0v.858c.019.017.037.045.053.045 1.042 0 2.083.032 3.122-.016.568-.027 1.009-.698.973-1.328-.037-.648-.54-1.178-1.169-1.188-.925-.015-1.85-.006-2.775-.006-.692-.001-1.382-.007-2.073.002-.743.009-1.178.471-1.18 1.235v1.736H-1.338V-.027c.002-.561.053-.614.577-.615h2.6c.07 0 .141-.002.211.003.201.015.37.117.316.336-.03.121-.204.28-.32.287C1.52.015.992-.001.465 0H0Z" style="fill:#fff;fill-opacity:1;fill-rule:nonzero;stroke:none" transform="translate(163.545 20.857)"/><path d="M0 0c-.076-.494.042-.652.458-.655 1.113-.006 2.226-.002 3.339-.003h.491v-.967c-.107-.007-.229-.023-.352-.024C2.46-1.65.983-1.653-.492-1.648c-.88.003-1.274.432-1.27 1.359.002.522 0 1.044 0 1.571.067.016.111.037.155.037.491.002.984.001 1.525.001.074-.433.406-.401.727-.4.973.002 1.945.001 2.917-.001.15 0 .299-.016.459-.025V0H0Z" style="fill:#fff;fill-opacity:1;fill-rule:nonzero;stroke:none" transform="translate(207.979 20.872)"/><path d="M0 0v-.924h-4.028c-.061-.493.058-.65.473-.652 1.125-.005 2.25-.002 3.376-.002h.45v-.969C.148-2.554.025-2.57-.1-2.57c-1.465-.001-2.931-.003-4.396 0-.888.003-1.289.429-1.285 1.346V.375h1.684c.089-.341.35-.381.653-.378C-2.459.005-1.474 0-.49 0H0Z" style="fill:#fff;fill-opacity:1;fill-rule:nonzero;stroke:none" transform="translate(159.315 21.793)"/><path d="M0 0h1.926l1.011-1.599L3.947.008h1.928L3.998-2.927H1.877A7320.2 7320.2 0 0 1 0 0" style="fill:#fff;fill-opacity:1;fill-rule:nonzero;stroke:none" transform="translate(198.788 22.168)"/><path d="M0 0h-9.225v.989c.11.011.2.029.291.029 2.659.002 5.319.004 7.978 0C-.344 1.017.027.621 0 0" style="fill:#fff;fill-opacity:1;fill-rule:nonzero;stroke:none" transform="translate(152.539 22.497)"/><path d="M0 0v.876h1.702v-2.918H.027l-.037.848h-3.041V0H0Z" style="fill:#fff;fill-opacity:1;fill-rule:nonzero;stroke:none" transform="translate(173.647 21.295)"/><path d="M0 0c-.606 0-1.214-.025-1.817.017-.162.012-.345.199-.458.354-.313.43-.699.581-1.214.535-.533-.046-1.073-.01-1.644-.01v1.186h1.727c.304 0 .609-.001.914.001.397.004.471.081.483.487.003.119.012.238.019.377h1.676c.13-.732-.041-1.316-.767-1.757L.11.168 0 0" style="fill:#fff;fill-opacity:1;fill-rule:nonzero;stroke:none" transform="translate(194.865 19.225)"/><path d="M0 0v.956c.153.009.289.023.425.023.844.003 1.688-.001 2.532.003.392.002.479.092.483.493.005.475.001.951.001 1.456h1.725c0-.245.002-.495 0-.745-.003-.342-.01-.686-.014-1.028C5.143.538 4.765.026 4.185.011 2.805-.024 1.424 0 0 0" style="fill:#fff;fill-opacity:1;fill-rule:nonzero;stroke:none" transform="translate(181.335 19.234)"/><path d="M0 0c-.062.578.312.998.905 1.008.679.011 1.359.003 2.039.003h4.202V0H0Z" style="fill:#fff;fill-opacity:1;fill-rule:nonzero;stroke:none" transform="translate(160.532 22.506)"/><path d="M0 0h-7.084c-.008.134-.02.24-.023.348-.002.205 0 .41 0 .63.115.017.193.038.271.038 1.969.002 3.936.005 5.905-.001C-.338 1.013.029.617 0 0" style="fill:#fff;fill-opacity:1;fill-rule:nonzero;stroke:none" transform="translate(186.46 22.499)"/><path d="M0 0h-6.89c-.046.556.302 1.008.83 1.013 1.743.016 3.485.016 5.229 0C-.295 1.007.056.555 0 0" style="fill:#fff;fill-opacity:1;fill-rule:nonzero;stroke:none" transform="translate(194.54 22.495)"/><path d="M0 0c.011.608.336 1.002.872 1.006 1.684.013 3.369.013 5.054-.001.53-.004.883-.441.85-1.005H0Z" style="fill:#fff;fill-opacity:1;fill-rule:nonzero;stroke:none" transform="translate(168.562 22.504)"/><path d="M206.224 23.497h6.051v-.996h-6.051v.996zM153.543 23.489h6.047V22.5h-6.047v.989zM150.836 22.165h1.71V19.25h-1.71v2.915zM187.623 22.174h1.695v-2.922h-1.695v2.922zM143.313 22.177h1.669v-2.929h-1.669v2.929zM168.543 22.168h1.694v-2.919h-1.694v2.919zM197.284 19.246h-1.671v2.922h1.671v-2.922zM148.75 19.243h-1.66v2.922h1.66v-2.922zM179.373 22.171h1.684v-2.919h-1.684v2.919z" style="fill:#fff;fill-opacity:1;fill-rule:nonzero;stroke:none"/><path d="m0 0 .684-1.068h-1.933L-1.925 0H0Z" style="fill:#fff;fill-opacity:1;fill-rule:nonzero;stroke:none" transform="translate(199.823 23.57)"/><path d="M0 0h1.93l-.68-1.074H-.674L0 0" style="fill:#fff;fill-opacity:1;fill-rule:nonzero;stroke:none" transform="translate(203.624 23.573)"/><path d="M197.294 22.498h-1.677v.993h1.677v-.993zM217.406 20.532H216.3v2.858h1.106v-2.858zm1.63 0v2.955h1.228v1.124h-6.886v-1.317h1.232V20.47h-1.232v-1.252h7.163v1.314h-1.505z" style="fill:#fff;fill-opacity:1;fill-rule:nonzero;stroke:none"/><path d="m0 0-.989-.073C-1.003.599-1.224.936-1.654.936c-.493 0-.74-.518-.74-1.554 0-.598.067-1.003.201-1.216a.631.631 0 0 1 .562-.32c.391 0 .629.3.716.901L0-1.319C-.059-1.89-.239-2.323-.539-2.62a1.51 1.51 0 0 0-1.102-.445c-.533 0-.967.218-1.3.653-.334.435-.501 1.037-.501 1.805 0 .719.162 1.307.484 1.766.323.458.764.688 1.323.688C-.667 1.847-.122 1.231 0 0" style="fill:#2f2e2d;fill-opacity:1;fill-rule:nonzero;stroke:none" transform="translate(111.62 146.77)"/><path d="M0 0h.854L.43 1.672 0 0Zm1.078 2.904 1.261-4.765H1.324l-.248.981H-.227l-.252-.981h-.828l1.292 4.765h1.093z" style="fill:#2f2e2d;fill-opacity:1;fill-rule:nonzero;stroke:none" transform="translate(112.703 145.64)"/><path d="M0 0v-1.215h.579c.188 0 .326.016.411.047a.477.477 0 0 1 .229.21.69.69 0 0 1 .1.372.648.648 0 0 1-.1.356c-.067.104-.14.169-.218.193C.922-.012.774 0 .558 0H0Zm0-2.028v-1.889h-.95V.848H.821c.326 0 .588-.045.786-.134.198-.09.362-.254.492-.494.13-.239.194-.506.194-.799 0-.572-.233-.982-.699-1.231l.744-2.107H1.295L.676-2.028H0z" style="fill:#2f2e2d;fill-opacity:1;fill-rule:nonzero;stroke:none" transform="translate(116.212 147.695)"/><path d="M0 0v-.942h-.998v-3.823h-.956v3.823h-1.004V0H0Z" style="fill:#2f2e2d;fill-opacity:1;fill-rule:nonzero;stroke:none" transform="translate(121.61 148.544)"/><path d="M0 0v-1.215h.579c.188 0 .326.016.411.047a.477.477 0 0 1 .229.21.69.69 0 0 1 .1.372.648.648 0 0 1-.1.356c-.067.104-.14.169-.218.193C.922-.012.774 0 .558 0H0Zm0-2.028v-1.889h-.95V.848H.821c.326 0 .588-.045.786-.134.198-.09.362-.254.492-.494.13-.239.194-.506.194-.799 0-.572-.233-.982-.699-1.231l.744-2.107H1.295L.676-2.028H0z" style="fill:#2f2e2d;fill-opacity:1;fill-rule:nonzero;stroke:none" transform="translate(122.876 147.695)"/><path d="M126.376 143.779h-.942v4.765h.942v-4.765z" style="fill:#2f2e2d;fill-opacity:1;fill-rule:nonzero;stroke:none"/><path d="M0 0v-2.991h.389c.344 0 .599.151.766.455.167.304.25.66.25 1.07 0 .288-.048.556-.143.801-.095.246-.213.418-.355.517A.864.864 0 0 1 .398 0H0Zm-.927.876h1.23c.501 0 .875-.082 1.12-.246.246-.164.467-.423.661-.778.195-.355.292-.804.292-1.346 0-.682-.17-1.251-.51-1.709-.34-.457-.809-.686-1.407-.686H-.927V.876z" style="fill:#2f2e2d;fill-opacity:1;fill-rule:nonzero;stroke:none" transform="translate(127.595 147.667)"/><path d="M0 0s-.006-1.501-.548-2.049-.671-.572-1.116-.572c-.526 0-.934.222-1.227.666-.292.445-.439 1.019-.439 1.725 0 .758.156 1.368.468 1.829.312.46.736.691 1.271.691.449 0 .811-.149 1.086-.447.276-.298.444-.695.505-1.19l-.897-.14c-.073.577-.304.866-.694.866-.256 0-.449-.137-.58-.41-.131-.274-.196-.664-.196-1.171 0-.489.071-.863.212-1.121.142-.258.344-.387.605-.387.17 0 .321.065.453.195.133.13.2.339.2.625h-.759V0H0Z" style="fill:#2f2e2d;fill-opacity:1;fill-rule:nonzero;stroke:none" transform="translate(133.476 146.327)"/><path d="M0 0h-1.919v-.977H-.41v-.897h-1.509v-1.041H0v-.942h-2.878V.908H0V0Z" style="fill:#2f2e2d;fill-opacity:1;fill-rule:nonzero;stroke:none" transform="translate(136.563 147.636)"/><path d="M140.313 143.779h-.942v4.765h.942v-4.765z" style="fill:#2f2e2d;fill-opacity:1;fill-rule:nonzero;stroke:none"/><path d="M0 0v-4.765h-.805l-1.577 3.219c.002-.082.004-.135.006-.161.008-.081.012-.15.012-.206v-2.852h-.735V0h1.017l1.371-2.81c-.012.14-.018.246-.018.318V0H0Z" style="fill:#2f2e2d;fill-opacity:1;fill-rule:nonzero;stroke:none" transform="translate(143.615 148.544)"/><path d="M0 0h.614c.234 0 .398.064.493.192a.726.726 0 0 1 .142.44.655.655 0 0 1-.158.461c-.106.114-.265.171-.48.171H0V0Zm.032-.866v-1.769h-.959v4.764H.661c.354 0 .625-.044.813-.134.188-.09.356-.25.504-.48.147-.23.221-.513.221-.848 0-.235-.039-.465-.118-.688a1.243 1.243 0 0 0-.334-.527 1.157 1.157 0 0 0-.417-.255C1.195-.845.984-.866.697-.866H.032z" style="fill:#2f2e2d;fill-opacity:1;fill-rule:nonzero;stroke:none" transform="translate(144.727 146.414)"/><path d="M0 0v-2.967c0-.479-.046-.836-.139-1.07a1.174 1.174 0 0 0-.512-.576c-.249-.15-.567-.225-.955-.225-.387 0-.696.067-.925.202a1.26 1.26 0 0 0-.515.576c-.114.249-.171.614-.171 1.093V0h1.024v-2.967c0-.256.018-.445.054-.566a.515.515 0 0 1 .219-.288.73.73 0 0 1 .403-.106c.177 0 .321.035.432.105.111.07.185.162.222.277.036.115.054.308.054.578V0H0Z" style="fill:#2f2e2d;fill-opacity:1;fill-rule:nonzero;stroke:none" transform="translate(150.34 148.544)"/><path d="M0 0v-.942h-.998v-3.823h-.956v3.823h-1.004V0H0Z" style="fill:#2f2e2d;fill-opacity:1;fill-rule:nonzero;stroke:none" transform="translate(153.518 148.544)"/><path d="M26.908 254.187h-1.96v-10.139h1.96v10.139zM29.877 254.187h-1.96v-10.139h1.96v10.139zM32.896 254.187h-1.96v-10.139h1.96v10.139zM35.865 254.187h-1.96v-10.139h1.96v10.139zM38.785 254.187h-1.96v-10.139h1.96v10.139zM41.754 254.187h-1.96v-10.139h1.96v10.139zM44.773 254.187h-1.96v-10.139h1.96v10.139zM47.742 254.187h-1.96v-10.139h1.96v10.139zM50.786 254.187h-1.96v-10.139h1.96v10.139zM53.755 254.187h-1.96v-10.139h1.96v10.139zM56.774 254.187h-1.96v-10.139h1.96v10.139zM59.743 254.187h-1.96v-10.139h1.96v10.139zM62.662 254.187h-1.96v-10.139h1.96v10.139zM65.631 254.187h-1.96v-10.139h1.96v10.139zM68.65 254.187h-1.96v-10.139h1.96v10.139zM71.619 254.187h-1.96v-10.139h1.96v10.139zM74.638 254.187h-1.96v-10.139h1.96v10.139zM77.607 254.187h-1.96v-10.139h1.96v10.139zM80.626 254.187h-1.96v-10.139h1.96v10.139zM83.595 254.187h-1.96v-10.139h1.96v10.139zM86.515 254.187h-1.96v-10.139h1.96v10.139zM89.484 254.187h-1.96v-10.139h1.96v10.139zM92.503 254.187h-1.96v-10.139h1.96v10.139zM95.472 254.187h-1.96v-10.139h1.96v10.139zM98.491 254.187h-1.96v-10.139h1.96v10.139zM101.46 254.187H99.5v-10.139h1.96v10.139zM104.479 254.187h-1.96v-10.139h1.96v10.139zM107.448 254.187h-1.96v-10.139h1.96v10.139zM110.367 254.187h-1.96v-10.139h1.96v10.139zM113.336 254.187h-1.96v-10.139h1.96v10.139zM116.355 254.187h-1.96v-10.139h1.96v10.139zM119.324 254.187h-1.96v-10.139h1.96v10.139zM122.501 254.187h-1.96v-10.139h1.96v10.139zM125.52 254.187h-1.96v-10.139h1.96v10.139zM128.489 254.187h-1.96v-10.139h1.96v10.139zM131.409 254.187h-1.96v-10.139h1.96v10.139zM134.378 254.187h-1.96v-10.139h1.96v10.139zM137.397 254.187h-1.96v-10.139h1.96v10.139zM140.366 254.187h-1.96v-10.139h1.96v10.139zM143.385 254.187h-1.96v-10.139h1.96v10.139zM146.354 254.187h-1.96v-10.139h1.96v10.139zM149.373 254.187h-1.96v-10.139h1.96v10.139zM152.342 254.187h-1.96v-10.139h1.96v10.139zM155.261 254.187h-1.96v-10.139h1.96v10.139zM158.23 254.187h-1.96v-10.139h1.96v10.139zM161.249 254.187h-1.96v-10.139h1.96v10.139zM164.218 254.187h-1.96v-10.139h1.96v10.139zM167.487 254.187h-1.96v-10.139h1.96v10.139zM170.506 254.187h-1.96v-10.139h1.96v10.139zM173.475 254.187h-1.96v-10.139h1.96v10.139zM176.394 254.187h-1.96v-10.139h1.96v10.139zM179.363 254.187h-1.96v-10.139h1.96v10.139zM182.382 254.187h-1.96v-10.139h1.96v10.139zM185.351 254.187h-1.96v-10.139h1.96v10.139zM188.37 254.187h-1.96v-10.139h1.96v10.139zM191.339 254.187h-1.96v-10.139h1.96v10.139zM194.358 254.187h-1.96v-10.139h1.96v10.139zM197.327 254.187h-1.96v-10.139h1.96v10.139zM200.246 254.187h-1.96v-10.139h1.96v10.139zM203.216 254.187h-1.96v-10.139h1.96v10.139zM206.235 254.187h-1.96v-10.139h1.96v10.139zM209.204 254.187h-1.96v-10.139h1.96v10.139zM212.347 254.187h-1.96v-10.139h1.96v10.139zM215.366 254.187h-1.96v-10.139h1.96v10.139zM218.335 254.187h-1.96v-10.139h1.96v10.139zM221.255 254.187h-1.96v-10.139h1.96v10.139zM224.224 254.187h-1.96v-10.139h1.96v10.139zM227.243 254.187h-1.96v-10.139h1.96v10.139zM230.212 254.187h-1.96v-10.139h1.96v10.139zM233.231 254.187h-1.96v-10.139h1.96v10.139zM236.2 254.187h-1.96v-10.139h1.96v10.139z" style="fill:#3e3e40;fill-opacity:1;fill-rule:nonzero;stroke:none"/></g></svg>