<svg xmlns="http://www.w3.org/2000/svg" width="132" height="49.729"><text font-size="1" style="font-size:1px;font-family:ArialMT;fill:#c23435" transform="translate(99.672 8.268)">I don’t like bugs!</text><path d="M37.683 0h130.394v49.729H37.683Z" style="fill:#070308" transform="translate(-36.88)"/><path d="M164.043 24.924V4.243h-46.296v41.362h46.296z" style="fill:#fff" transform="translate(-36.88)"/><path d="M127.811 25.259V8.268h17.227l7.822 5.868v8.217h-6.573l8.351 6.148.006 6.875.006 6.875h-7.821l-.059-6.651-.059-6.651-11.294-.119v13.422h-7.604zm16.998-6.707v-3.13h-9.393v6.26h9.393z" style="fill:#070308" transform="translate(-36.88)"/><path d="M57.583 41.589v-.885l-3.69-.13-.064-2.292-.064-2.292h3.818v-1.789h-3.802v-2.924l-3.914.129-.067 1.397-.067 1.397H47.07v1.789h2.684l.003 2.403c.002 1.322.067 2.641.144 2.931.238.887 1.222 1.131 4.605 1.141l3.075.009zm12.748-3.251v-4.136h-4.026v6.26h-2.46v-6.26h-3.802v3.654c0 3.201.049 3.697.391 3.995.643.56.883.587 5.48.605l4.417.018zm6.884.839.062-3.186h3.79v-1.789l-2.516.005c-3.051.007-4.147.235-4.809 1.001-.471.546-.503.787-.503 3.775 0 1.756.071 3.263.157 3.349.087.087.967.128 1.957.093l1.8-.064zm15.176 2.677c.806-.652 1.009-1.341 1.009-3.424 0-3.77-.477-4.282-4.114-4.414l-2.404-.087v-2.651l-3.914.129-.12 10.844 4.533-.005c3.957-.005 4.594-.055 5.01-.392zm-5.509-3.628V35.99h2.46v4.471h-2.46zm18.19 3.567c.706-.555 1.042-1.668 1.042-3.455 0-1.84-.334-2.886-1.139-3.563-.664-.558-.767-.573-3.969-.573-3.67 0-4.079.13-4.641 1.475-.378.905-.421 4.6-.062 5.303.595 1.163.956 1.261 4.696 1.266 3.183.004 3.543-.036 4.073-.453zm-5.218-3.567V35.99h2.46v4.471h-2.46zM54.068 24.588c.604-2.029 1.17-3.766 1.259-3.86.089-.094.439.761.777 1.9.338 1.14.867 2.905 1.175 3.924l.56 1.852 4.293-.128.621-1.9c.342-1.045.912-2.854 1.268-4.02l.647-2.12 1.34 4.02 1.34 4.02 7.238.059c8.419.069 8.876-.001 10.688-1.629 1.449-1.302 1.947-2.541 1.93-4.802-.019-2.583-1.141-4.631-3.091-5.639-.771-.399-1.492-.503-4.389-.637-1.907-.088-3.643-.232-3.858-.32-.547-.223-.519-1.369.041-1.669.269-.144 2.827-.231 6.765-.231h6.333l1.789 2.269c.984 1.248 1.765 2.353 1.735 2.455-.03.102-1.522 2.313-3.317 4.913-1.795 2.6-3.315 4.866-3.38 5.035-.096.251.41.307 2.759.307h2.877l2.123-2.795c1.167-1.537 2.178-2.795 2.245-2.795.067 0 1.022 1.258 2.12 2.795l1.998 2.795h2.969c1.633 0 2.969-.042 2.969-.094s-1.56-2.327-3.467-5.056-3.467-5.105-3.467-5.279c0-.175 1.409-2.323 3.131-4.774 1.722-2.451 3.131-4.561 3.131-4.688 0-.147-1.051-.231-2.892-.231h-2.892l-1.19 1.669c-.654.918-1.465 2.075-1.802 2.571-.337.496-.689.9-.783.896-.093-.004-.81-.902-1.593-1.997-2.35-3.287-1.045-2.951-11.129-2.872-8.513.067-8.715.079-9.633.569-1.838.982-2.825 2.884-2.814 5.424.009 2.085.317 3.246 1.174 4.429 1.092 1.507 1.625 1.674 5.82 1.823 3.848.136 4.697.339 4.697 1.121 0 .996-.67 1.123-5.936 1.123h-4.942L67.072 8.602l-4.7-.126-1.095 3.584c-.602 1.971-1.158 3.584-1.236 3.584-.077 0-.417-.931-.755-2.068s-.82-2.75-1.07-3.584l-.456-1.516-4.754.126-.739 2.683c-1.093 3.971-4.3 16.536-4.3 16.849 0 .198.663.253 2.502.207l2.502-.063z" style="fill:#fff" transform="translate(-36.88)"/></svg>