<svg xmlns="http://www.w3.org/2000/svg" viewBox="0 0 282.86 70.644"><path d="M209.878 44.936c-.19-.066-.272-.672-.272-2.01 0-1.546.066-1.941.344-2.048.189-.073 2.466-.132 5.06-.132 7.134 0 6.859.298 7.09-7.658.109-3.772.239-5.55.412-5.663.139-.091 1.084-.14 2.101-.109l1.849.055-.006 6.307c-.005 5.384-.058 6.418-.363 7.068-1.089 2.323-2.87 3.695-5.357 4.128-1.32.23-10.225.28-10.858.062zm18.694-.068c-.473-.19-.495-.295-.435-2.107l.063-1.907 3.806-.112c4.227-.124 4.914-.325 5.525-1.619.333-.704.885-11.091.64-12.03-.078-.3-.015-.519.171-.586.505-.183 4.304-.266 4.197-.092-.056.09 0 .227.123.303.123.076.15.254.058.396-.092.141-.167 3.046-.167 6.455 0 5.997-.016 6.23-.491 7.183-1.095 2.198-2.716 3.504-5.023 4.047-1.408.332-7.685.383-8.467.069zm29.36-1.784.063-2.012 1.305-.126c.718-.069 1.501-.233 1.74-.365.582-.32 9.461-9.263 9.457-9.525-.012-.714-.35-.759-6.102-.817l-5.747-.058-.064-1.807c-.038-1.088.032-1.921.176-2.095.192-.231 1.426-.267 6.262-.181 3.312.059 6.33.202 6.705.318 2.349.728 3.585 4.301 2.343 6.776-.194.387-.95 1.313-1.679 2.058l-1.326 1.355.565.602c1.374 1.463 4.09 6.495 4.09 7.578 0 .245-.421.309-2.03.309h-2.03l-.557-1.292c-.699-1.62-2.345-4.145-2.702-4.145-.148 0-1.179.934-2.292 2.076-2.669 2.739-3.856 3.361-6.415 3.361h-1.822l.06-2.01zm-14.199-5.869c-.047-1.357.064-3.336.195-3.469.082-.082 3.651-.19 7.932-.24 6.981-.081 7.803-.054 7.971.259.103.192.172 1.132.154 2.088l-.033 1.739-8.101.057-8.101.057-.017-.491zm-33.366-.791-.87-.136.072-1.849c.04-1.017.137-1.915.217-1.997.08-.082 2.103-.174 4.495-.205l4.35-.057.063 2.036c.044 1.417-.017 2.085-.2 2.198-.315.195-6.893.203-8.127.01zm18.11-.912c-.342-.2-.364-.593-.244-4.506.085-2.792.216-4.345.375-4.452.134-.09 1.076-.139 2.093-.109l1.849.055.044 4.132c.024 2.273-.002 4.352-.059 4.621-.097.46-.209.489-1.893.483-.984-.002-1.958-.104-2.165-.224zm-18.035-4.927-.796-.084.034-1.941c.019-1.067.132-1.975.252-2.018.12-.043 2.175-.069 4.567-.059l4.349.018-.079 1.957c-.043 1.077-.122 2.031-.176 2.12-.095.163-6.63.168-8.151.007zM.091 16.424c-.062-.1.324-2.31.857-4.911s.97-4.921.97-5.156c0-.236-.34-.778-.756-1.207l-.756-.778.422-.57C1.627 2.723 3.815.514 4.084.514c.309 0 .383.077 4.46 4.639 1.671 1.869 3.106 3.327 3.188 3.24.082-.087.517-1.856.967-3.931.534-2.464.925-3.814 1.127-3.891.606-.233 3.589 1.498 3.406 1.976-.062.162-.601.524-1.197.803-.596.279-1.182.627-1.303.772-.121.146-.755 2.794-1.41 5.886-1.417 6.692-1.328 6.382-1.838 6.382-.446 0-1.197-.763-5.211-5.292C4.807 9.442 3.532 8.17 3.44 8.27c-.167.182-1.087 4.18-1.087 4.725 0 .16.391.55.87.867 1.316.871 1.171 1.273-.746 2.072-1.672.695-2.193.802-2.386.49zm35.615-.041c-1.243-.385-2.78-1.598-3.615-2.853-1.353-2.034-1.527-4.261-.541-6.91C32.773 3.333 38.142.134 42.091.339l1.257.065.683 1.414c1.03 2.13 1.058 2.31.423 2.726-.3.197-.93.409-1.399.472-.84.113-.866.095-1.756-1.216-.599-.883-1.049-1.33-1.337-1.33-.803 0-2.525 1.055-3.511 2.151-1.564 1.74-1.813 3.394-.788 5.247 1.15 2.08 3.393 2.421 6.45.982 1.452-.683 1.846-.793 1.994-.554.264.427-2.224 5.321-2.946 5.794-.661.433-4.363.632-5.455.293zm159.772-.197c-.26-.486-.306-2.549-.06-2.701.091-.056 1.774-.174 3.739-.262 3.331-.149 3.607-.194 4.075-.662.544-.544.713-2.105.258-2.386-.134-.083-1.392-.135-2.795-.115-2.995.042-3.107-.023-3.008-1.754l.066-1.159 2.745-.133c1.51-.073 2.855-.201 2.99-.285.308-.19.322-1.969.02-2.532-.205-.383-.48-.421-3.04-.421-3.266 0-3.192-.047-3.793 2.392-.577 2.344-.614 2.393-1.8 2.389-1.525-.004-2.016-.185-2.016-.743 0-.752 1.451-5.745 1.844-6.345.195-.297.582-.627.861-.733.279-.106 2.549-.219 5.045-.25 4.964-.062 5.394.019 6.258 1.185.426.575.459.937.52 5.756.075 5.889-.04 6.484-1.506 7.738-1.17 1.001-2.074 1.188-6.436 1.325-3.543.111-3.753.095-3.967-.304zm-180.24.057c-.946-.132-.891-.436.153-.854.971-.389 1.077-.619 1.642-3.567.195-1.017.403-2.02.463-2.229.076-.263-.063-.446-.449-.593-.731-.278-.698-.479.143-.875.655-.309.718-.449 1.183-2.61.64-2.981.634-3.254-.09-3.833-.329-.263-.517-.56-.417-.661.1-.1 3.109-.216 6.687-.256 5.705-.065 6.522-.032 6.634.261.071.184-.051 1.195-.271 2.246-.304 1.452-.491 1.928-.781 1.984-.222.043-.434-.093-.508-.324-.769-2.411-1.348-2.899-3.435-2.894-.851.002-1.684.09-1.852.196-.356.225-1.356 5.036-1.105 5.312.255.279 1.981-.584 2.701-1.351 1.193-1.271 1.665-.836 1.221 1.126-.114.502-.365 1.67-.559 2.597-.424 2.028-.767 2.156-1.736.644-.661-1.032-1.658-1.629-2.055-1.23-.252.253-1.321 5.131-1.177 5.365.144.233 2.98.213 3.598-.025.707-.273 2.433-1.956 2.869-2.798.354-.684.852-.912 1.104-.505.068.11-.086 1.184-.342 2.387-.332 1.557-.567 2.215-.818 2.285-.503.139-11.955.32-12.803.202zm30.32.001c-.196-.196-.179-2.729.021-3.038.088-.136.512-.394.943-.573s.993-.621 1.25-.982c.444-.624.467-.894.467-5.476 0-2.906.089-4.987.225-5.24.186-.347.461-.42 1.577-.417.743.002 1.494.094 1.669.204.264.167.319 1.109.326 5.597l.009 5.396-.613 1.248c-.697 1.418-1.997 2.603-3.402 3.099-.969.34-2.221.433-2.472.182zm13.435-.371c-.605-.282-1.456-.928-1.891-1.437-1.384-1.617-1.528-2.322-1.632-7.973-.065-3.539-.019-5.172.157-5.5.227-.425.4-.461 1.923-.404l1.673.063.109 5.15c.13 6.148.064 5.967 2.61 7.141.35.161.564 2.062.335 2.975-.109.435-.261.501-1.155.499-.621-.002-1.466-.206-2.129-.514zm49.361.222c-.062-.161-.083-.96-.048-1.776.064-1.454.078-1.487.765-1.718 1.475-.498 1.464-.45 1.584-6.387l.109-5.375 1.493-.201c2.323-.312 2.194-.628 2.262 5.537.047 4.29-.006 5.511-.283 6.463-.46 1.581-1.81 2.942-3.383 3.409-1.408.42-2.35.437-2.499.048zm17.03.162c-.288-.288-.184-3.345.114-3.377.15-.016 2.278-.09 4.73-.163l4.458-.133V4.319l-4.676-.109-4.676-.109-.065-1.501c-.036-.825.013-1.579.109-1.675.096-.096 2.726-.19 5.846-.209 6.208-.039 6.275-.027 7.072 1.251.391.627.445 1.22.565 6.203.151 6.248.078 6.717-1.169 7.566-.794.541-.829.544-6.474.611-3.122.037-5.747-.003-5.834-.09zm14.358.004c-.089-.089-.162-.866-.162-1.726v-1.564l1.337-.14c.735-.077 2.74-.14 4.455-.14h3.118l.71-.634.71-.634.109-4.702c.089-3.86.167-4.739.435-4.908.42-.265 3.198-.275 3.36-.013.068.11.14 2.385.16 5.056.033 4.458 0 4.938-.406 5.846-.638 1.429-1.642 2.47-2.95 3.057-1.069.48-1.455.518-5.928.589-2.633.042-4.859.003-4.948-.087zm18.145-.203c-1.219-.529-1.985-1.188-2.484-2.134-.457-.867-.477-1.159-.484-6.84-.006-5.042.042-5.966.319-6.145.179-.116 1.06-.186 1.957-.155l1.631.056.057 1.087c.118 2.264-.325 2.066 4.633 2.066h4.355l-.064 1.577-.064 1.577-4.35.125c-2.392.069-4.383.142-4.424.163-.041.021-.041 1.062 0 2.314.104 3.198-.181 3.026 5.246 3.161l4.397.109.065 1.503c.046 1.055-.019 1.556-.217 1.682-.155.099-2.436.177-5.067.174-3.678-.005-4.952-.079-5.506-.32zm12.193.187c-.302-.122-.38-2.393-.098-2.837.105-.165.894-.286 2.117-.326l1.95-.064.066-1.135c.097-1.686-.161-2.018-1.569-2.018-1.381 0-1.709-.293-1.628-1.457.101-1.463.253-1.589 1.889-1.572 2.701.029 3.748.275 4.432 1.041.579.649.617.807.617 2.626 0 2.592.017 2.624 1.429 2.624.929 0 1.211.085 1.39.421.308.575.284 2.26-.036 2.58-.189.189-1.645.256-5.274.244-2.757-.01-5.135-.067-5.285-.127zm-91.883-.198c-.281-.286-.188-3.064.111-3.312.153-.127 1.677-.259 3.463-.298 3.052-.068 3.214-.095 3.778-.615.919-.849 1.127-1.594 1.764-6.334.328-2.437.698-4.503.824-4.591.126-.088.987-.161 1.914-.163l1.685-.003v.612c0 .337-.15 1.731-.333 3.099a832.177 832.177 0 0 0-.655 5.037c-.177 1.402-.437 2.821-.579 3.153-.476 1.116-1.683 2.407-2.726 2.918-.947.463-1.378.513-5.059.585-2.213.043-4.097.004-4.187-.088zm16.148-1.584v-1.771h1.312c.722 0 1.638-.136 2.038-.303 1.268-.53 1.435-.993 1.435-3.986v-2.67h-2.841c-1.563 0-3.031-.101-3.262-.225-.353-.189-.421-.465-.421-1.714 0-1.809-.123-1.75 3.706-1.755l2.728-.003.208-.707.208-.707h3.44l.256.761.256.761 3.026.109 3.026.109v3.262h-2.972c-1.635 0-3.035.063-3.111.139-.077.077-.181 1.428-.231 3.002-.106 3.308-.401 4.226-1.814 5.639-1.239 1.239-2.156 1.568-4.757 1.709l-2.229.12-.001-1.77zm23.035 1.147-.527-.561-.063-7.038c-.063-7.035-.063-7.039.41-7.292.444-.238 3.087-.215 3.331.029.059.059.125 2.207.148 4.775.023 2.568.101 5.158.174 5.756.15 1.231.158 1.234 2.688.884l1.25-.173v1.629c0 1.112-.094 1.708-.297 1.876-.373.309-3.023.661-5.048.67-1.377.006-1.594-.053-2.066-.555zm61.214-5.866c-.162-.646-.005-2.643.226-2.875.196-.196 12.128-.358 12.859-.174.501.126.529.219.529 1.733v1.6l-.68.136c-.374.075-3.406.136-6.738.136h-6.058l-.138-.556zm-112.258.175-3.108-.067.063-1.671.063-1.671.677-.138c.372-.076 3.382-.091 6.687-.033l6.01.105v1.687c0 1.337-.071 1.714-.344 1.819-.327.126-3.183.117-10.048-.031zm11.398-1.957c-.223-.758-.82-6.101-.75-6.713.071-.625.078-.627 1.76-.69 1.229-.046 1.717.013 1.792.217.163.443.978 6.215.978 6.926v.64H79.68c-1.559 0-1.851-.057-1.946-.38zm91.708-2.754c-2.27-1.026-1.494-4.564 1.065-4.852 1.854-.209 3.168 1.063 2.93 2.836-.236 1.758-2.282 2.791-3.995 2.016zm2.062-2.213c.036-.25-.085-.579-.269-.731-.663-.55-1.531.318-.981.981.386.465 1.171.308 1.25-.25zM61.071 4.929c-.954-.492-1.617-1.749-1.413-2.68.633-2.883 4.815-3.04 5.438-.204.487 2.214-1.945 3.956-4.025 2.884zm1.848-2.35c0-.495-.099-.652-.411-.652-.514 0-.9.582-.712 1.073.089.233.325.345.633.301.384-.054.49-.21.49-.722zm76.839 1.561c-.195-.195-.29-.775-.276-1.681.022-1.364.032-1.386.71-1.562.378-.098 2.181-.151 4.007-.118l3.319.06v3.48l-3.731.059c-2.93.047-3.796-.004-4.029-.238zM282.86 27.697a1.724 1.724 0 1 1-3.448 0 1.724 1.724 0 0 1 3.448 0zm-4.122 0a1.724 1.724 0 1 1-3.448 0 1.724 1.724 0 0 1 3.448 0zM11.122 54.508v-8.911h1.526c1.803 0 3.188-.389 4.155-1.169.967-.779 1.451-1.91 1.451-3.39 0-1.441-.484-2.546-1.451-3.316-.967-.77-2.352-1.155-4.155-1.155H9.831V70.11L0 70.14V27.656h11.944c2.629 0 4.901.222 6.817.666s3.568 1.175 4.958 2.191c1.39 1.017 2.46 2.408 3.211 4.174.751 1.767 1.127 3.903 1.127 6.41 0 2.053-.376 3.908-1.127 5.566a12.127 12.127 0 0 1-3.127 4.219c-1.334 1.155-2.92 2.048-4.761 2.679a17.656 17.656 0 0 1-5.775.947h-2.145zm43.234-3.862v-6.027h22.417v6.027H54.356zm42.941 19.05-11.69-.089c3.737-3.829 6.512-6.735 8.324-8.719a46.575 46.575 0 0 0 4.747-6.114l-.113-.118c-.864.375-1.906.563-3.127.563-2.404 0-4.512-.602-6.324-1.806-1.813-1.204-3.211-2.837-4.197-4.9-.986-2.062-1.479-4.327-1.479-6.795 0-2.961.596-5.585 1.789-7.875 1.192-2.289 2.883-4.056 5.07-5.299 2.188-1.243 4.671-1.865 7.451-1.865 2.873 0 5.451.637 7.732 1.91 2.282 1.273 4.052 3.079 5.31 5.418s1.887 5.068 1.887 8.186c0 4.855-1.371 9.454-4.113 13.796-2.742 4.342-6.497 8.911-11.267 13.707zM103.41 41.6a5.62 5.62 0 0 0-.732-2.827 5.708 5.708 0 0 0-1.972-2.058 5.08 5.08 0 0 0-2.732-.77c-1.465 0-2.704.553-3.718 1.658-1.014 1.106-1.521 2.438-1.521 3.997 0 1.007.225 1.964.676 2.872.451.908 1.08 1.619 1.887 2.132.807.513 1.699.77 2.676.77 1.521 0 2.807-.563 3.859-1.688 1.051-1.125 1.577-2.487 1.577-4.086zm55.521-14.921c2.854 0 5.258.671 7.211 2.013 1.953 1.342 3.469 3.094 4.549 5.255 1.08 2.161 1.84 4.495 2.282 7.002.441 2.507.662 5.083.662 7.727 0 3.533-.423 6.962-1.268 10.288-.845 3.326-2.362 6.104-4.549 8.334-2.188 2.231-5.15 3.345-8.887 3.345-2.798 0-5.16-.666-7.084-1.998-1.925-1.332-3.432-3.109-4.521-5.329a26.117 26.117 0 0 1-2.282-7.017 43.954 43.954 0 0 1-.648-7.624c0-2.625.216-5.176.648-7.653a25.848 25.848 0 0 1 2.282-7.031c1.089-2.21 2.596-3.982 4.521-5.314 1.925-1.332 4.286-1.998 7.084-1.998zm0 9.444c-1.334 0-2.38.528-3.141 1.584-.761 1.056-1.301 2.507-1.62 4.352-.32 1.846-.479 4.051-.479 6.617 0 2.546.155 4.742.465 6.587.31 1.846.854 3.301 1.634 4.367.779 1.066 1.826 1.599 3.141 1.599 3.624 0 5.437-4.184 5.437-12.553 0-8.368-1.813-12.553-5.437-12.553zm30.649-9.444c2.854 0 5.258.671 7.211 2.013 1.953 1.342 3.469 3.094 4.549 5.255 1.08 2.161 1.84 4.495 2.282 7.002.441 2.507.662 5.083.662 7.727 0 3.533-.423 6.962-1.268 10.288-.845 3.326-2.362 6.104-4.549 8.334-2.188 2.231-5.15 3.345-8.887 3.345-2.798 0-5.16-.666-7.084-1.998-1.925-1.332-3.432-3.109-4.521-5.329a26.117 26.117 0 0 1-2.282-7.017 43.954 43.954 0 0 1-.648-7.624c0-2.625.216-5.176.648-7.653a25.848 25.848 0 0 1 2.282-7.031c1.089-2.21 2.596-3.982 4.521-5.314 1.924-1.332 4.285-1.998 7.084-1.998zm0 9.444c-1.334 0-2.38.528-3.141 1.584-.761 1.056-1.301 2.507-1.62 4.352-.32 1.846-.479 4.051-.479 6.617 0 2.546.155 4.742.465 6.587.31 1.846.854 3.301 1.634 4.367.779 1.066 1.826 1.599 3.141 1.599 3.624 0 5.437-4.184 5.437-12.553-.001-8.368-1.813-12.553-5.437-12.553zm-74.452 2.99c0-2.112.347-3.952 1.042-5.522.695-1.569 1.69-2.872 2.986-3.908a12.738 12.738 0 0 1 4.423-2.28c1.652-.483 3.418-.725 5.296-.725 3.643 0 6.685 1.091 9.127 3.271 2.441 2.181 3.662 5.216 3.662 9.104 0 1.678-.394 3.296-1.183 4.855-.77 1.522-1.781 2.705-3.033 3.55a.078.078 0 0 0-.001.128c1.887 1.363 3.279 2.831 4.175 4.404.911 1.599 1.366 3.593 1.366 5.98 0 1.994-.413 3.79-1.239 5.388a12.009 12.009 0 0 1-3.338 4.026 14.819 14.819 0 0 1-4.69 2.442 17.475 17.475 0 0 1-5.268.814c-2.46 0-4.798-.499-7.014-1.495-2.216-.996-3.996-2.462-5.338-4.396-1.343-1.934-2.014-4.194-2.014-6.78 0-2.013.516-3.918 1.549-5.714 1.014-1.763 2.318-3.194 3.911-4.291a.08.08 0 0 0 .003-.127c-2.948-2.276-4.422-5.185-4.422-8.724zm13.576-3.878c-2.364 0-4.28 2.014-4.28 4.499s1.916 4.499 4.28 4.499 4.28-2.014 4.28-4.499-1.916-4.499-4.28-4.499zm0 16.707c-2.666 0-4.827 2.271-4.827 5.073 0 2.802 2.161 5.073 4.827 5.073s4.827-2.271 4.827-5.073c0-2.802-2.161-5.073-4.827-5.073zM52.61 36.934a8.692 8.692 0 0 0-3.427-.693c-1.897 0-3.662.582-5.296 1.747-1.615 1.165-2.901 2.704-3.859 4.619-.939 1.935-1.408 3.948-1.408 6.04 0 2.112.479 4.125 1.437 6.04.958 1.935 2.244 3.474 3.859 4.619 1.596 1.165 3.352 1.747 5.268 1.747a8.618 8.618 0 0 0 3.427-.697v9.911a18.206 18.206 0 0 1-3.427.319c-3.549 0-6.836-.977-9.859-2.931-3.024-1.954-5.427-4.608-7.211-7.964-1.765-3.375-2.648-7.056-2.648-11.043 0-4.007.882-7.698 2.648-11.073 1.784-3.355 4.188-6.02 7.211-7.994 3.023-1.954 6.31-2.931 9.859-2.931 1.171 0 2.313.106 3.427.319v9.965z"/></svg>