<svg xmlns="http://www.w3.org/2000/svg" xmlns:xlink="http://www.w3.org/1999/xlink" xml:space="preserve" width="167" height="36" viewBox="2.472 0.608 167 36"><defs><linearGradient id="a"><stop offset="0" style="stop-color:#fff;stop-opacity:1"/><stop offset="1" style="stop-color:#fff;stop-opacity:0"/></linearGradient><linearGradient xlink:href="#b" id="l" x1="17.161" x2="13.206" y1="21.54" y2="16.9" gradientUnits="userSpaceOnUse"/><linearGradient id="b"><stop offset="0" style="stop-color:#97ca43;stop-opacity:1"/><stop offset="1" style="stop-color:#97ca43;stop-opacity:0"/></linearGradient><linearGradient xlink:href="#c" id="m" x1="11.656" x2="13.586" y1="18.172" y2="19.231" gradientUnits="userSpaceOnUse"/><linearGradient id="c"><stop offset="0" style="stop-color:#458f41;stop-opacity:1"/><stop offset="1" style="stop-color:#458f41;stop-opacity:0"/></linearGradient><linearGradient xlink:href="#d" id="n" x1="19.903" x2="14.902" y1="19.231" y2="17.2" gradientUnits="userSpaceOnUse"/><linearGradient id="d"><stop offset="0" style="stop-color:#e5edae;stop-opacity:1"/><stop offset="1" style="stop-color:#e5edae;stop-opacity:0"/></linearGradient><linearGradient xlink:href="#e" id="o" x1="19.663" x2="23.287" y1="13.09" y2="5.046" gradientUnits="userSpaceOnUse"/><linearGradient id="e"><stop offset="0" style="stop-color:#97ca43;stop-opacity:1"/><stop offset="1" style="stop-color:#97ca43;stop-opacity:0"/></linearGradient><linearGradient xlink:href="#f" id="p" x1="17.497" x2="17.321" y1="4.098" y2="6.218" gradientUnits="userSpaceOnUse"/><linearGradient id="f"><stop offset="0" style="stop-color:#459743;stop-opacity:1"/><stop offset="1" style="stop-color:#459743;stop-opacity:0"/></linearGradient><linearGradient xlink:href="#f" id="q" x1="19.339" x2="18.286" y1="4.717" y2="6.306" gradientUnits="userSpaceOnUse"/><linearGradient xlink:href="#g" id="r" x1="19.515" x2="21.796" y1="15.668" y2="11.517" gradientUnits="userSpaceOnUse"/><linearGradient id="g"><stop offset="0" style="stop-color:#e6edae;stop-opacity:1"/><stop offset="1" style="stop-color:#e6edae;stop-opacity:0"/></linearGradient><linearGradient xlink:href="#b" id="s" x1="17.161" x2="13.206" y1="21.54" y2="16.9" gradientUnits="userSpaceOnUse"/><linearGradient xlink:href="#c" id="t" x1="11.656" x2="13.586" y1="18.172" y2="19.231" gradientUnits="userSpaceOnUse"/><linearGradient xlink:href="#d" id="u" x1="19.903" x2="14.902" y1="19.231" y2="17.2" gradientUnits="userSpaceOnUse"/><linearGradient xlink:href="#e" id="v" x1="17.551" x2="20.647" y1="12.031" y2="6.988" gradientUnits="userSpaceOnUse"/><linearGradient xlink:href="#h" id="w" x1="19.552" x2="18.76" y1="5.069" y2="6.348" gradientUnits="userSpaceOnUse"/><linearGradient id="h"><stop offset="0" style="stop-color:#46873f;stop-opacity:1"/><stop offset="1" style="stop-color:#46873f;stop-opacity:0"/></linearGradient><linearGradient xlink:href="#i" id="x" x1="20.124" x2="21.972" y1="15.569" y2="10.981" gradientUnits="userSpaceOnUse"/><linearGradient id="i"><stop offset="0" style="stop-color:#e6eead;stop-opacity:1"/><stop offset="1" style="stop-color:#e6eead;stop-opacity:0"/></linearGradient><radialGradient xlink:href="#a" id="j" cx="23.69" cy="12.766" r="14.35" fx="23.69" fy="12.766" gradientTransform="matrix(0 1.84582 -1.57561 0 41.66 -29.484)" gradientUnits="userSpaceOnUse"/><radialGradient xlink:href="#a" id="k" cx="23.69" cy="12.766" r="14.35" fx="23.69" fy="12.766" gradientTransform="matrix(0 1.15253 -.98381 0 34.106 -13.06)" gradientUnits="userSpaceOnUse"/></defs><path fill="#92C83E" d="m112.129 29.17-6.442-8.752-6.44 8.752h-2.653l7.747-10.573-7.074-9.605h2.653l5.767 7.834 5.763-7.834h2.65l-7.072 9.604 7.75 10.574h-2.65zm-50.22-.004-7.753-10.57 7.073-9.604h-2.65l-5.767 7.84-5.761-7.84h-2.648l7.073 9.604-7.752 10.57h2.653l6.437-8.748 6.44 8.748h2.655zm16.487-5.89c0 3.634-2.753 5.894-7.194 5.894l-8.191-.004v-9.452h-4.192a55.94 55.94 0 0 1 1.46-2.023h2.732v-8.7h8.191c6.083 0 6.558 4.2 6.558 5.49 0 1.744-.958 3.245-2.425 4.039.445.204.902.48 1.322.842 1.142.976 1.74 2.325 1.74 3.914m-13.12-5.585h5.925c2.729 0 4.292-1.265 4.292-3.385 0-2.806-2.687-3.21-4.292-3.21h-5.926v6.595zm10.86 5.543c0-2.896-2.684-3.518-4.935-3.518h-5.926v7.346h5.926c1.845 0 4.935-.502 4.935-3.828m22.526-4.166c0 6.213-3.948 10.544-9.607 10.544-5.667 0-9.628-4.331-9.628-10.544 0-6.205 3.96-10.54 9.628-10.54 5.659 0 9.607 4.335 9.607 10.54m-2.29 0c0-4.951-3.01-8.408-7.317-8.408-4.318 0-7.343 3.457-7.343 8.408s3.025 8.412 7.343 8.412c4.306 0 7.316-3.46 7.316-8.412"/><path fill="#9D9FA2" d="M159.055 8.517c-4.79 0-7.54 3.856-7.54 10.578 0 6.718 2.75 10.578 7.54 10.578 2.731 0 4.76-1.193 6.05-3.53 1.224-2.234 1.484-5.067 1.484-7.048 0-3.179-.737-10.578-7.534-10.578m0 19.346c-1.368 0-2.502-.446-3.377-1.314-1.922-1.93-2.211-5.496-2.211-7.454 0-2.637.547-8.766 5.588-8.766 5.04 0 5.58 6.129 5.58 8.766 0 2.637-.54 8.768-5.58 8.768m-16.188-12.36a6.587 6.587 0 0 0-5.416 2.826c.258-3.831 1.488-8 5.646-8 2.325 0 4.086 1.516 4.481 3.866l.06.369h1.931l-.05-.49c-.382-3.426-2.843-5.557-6.422-5.557-6.328 0-7.653 6.277-7.653 11.54 0 6.291 2.567 9.616 7.423 9.616 3.987 0 7.004-3.02 7.004-7.025 0-4.144-2.95-7.145-7.004-7.145m0 12.36c-2.86 0-5.103-2.293-5.103-5.215 0-3.042 2.199-5.332 5.103-5.332 1.306 0 2.541.51 3.462 1.435 1.01 1.004 1.581 2.424 1.581 3.897 0 2.922-2.215 5.215-5.043 5.215m-8.941-4.43c0 3.77-2.805 6.203-7.14 6.203-2.352 0-4.264-.7-5.527-2.025-1.21-1.268-1.797-3.082-1.7-5.25l.014-.413h1.956l-.013.452c-.069 1.633.377 3.002 1.29 3.954.926.96 2.306 1.475 3.98 1.475 2.58 0 5.18-1.513 5.18-4.396 0-1.19-.364-2.139-1.094-2.82-.88-.827-2.3-1.202-4.095-1.22h-1.36a51.762 51.762 0 0 1 0-1.909c.496-.002 1.01-.01 1.352-.01.955 0 2.81-.24 3.814-1.205.613-.594.936-1.406.936-2.408 0-2.344-2.382-3.569-4.734-3.569-2.329 0-4.087 1.518-4.483 3.87l-.06.365H120.3l.056-.487c.386-3.425 2.853-5.559 6.43-5.559 2.185 0 4.115.677 5.294 1.854.919.924 1.392 2.108 1.392 3.526 0 2.01-1.085 3.71-2.791 4.494 2.007.805 3.245 2.695 3.245 5.078M168.454 26.961c0 .384-.13.706-.392.967a1.3 1.3 0 0 1-.961.392c-.387 0-.707-.127-.961-.382-.256-.254-.383-.578-.383-.964 0-.384.13-.706.39-.967.256-.263.579-.393.963-.393.377 0 .694.125.95.375.261.257.394.582.394.972m-.162.009c0-.345-.113-.632-.346-.864a1.141 1.141 0 0 0-.84-.341c-.343 0-.627.113-.851.345a1.18 1.18 0 0 0-.338.86c0 .345.115.635.35.866.228.23.507.346.84.346.328 0 .607-.117.837-.348.235-.232.348-.52.348-.864m-.535.85h-.29l-.187-.416c-.093-.21-.195-.315-.306-.315h-.159v.732h-.238v-1.74h.483c.212 0 .375.048.484.145.094.085.14.193.14.33 0 .118-.039.218-.113.303a.563.563 0 0 1-.32.17v.008c.094.022.19.129.283.32l.223.464zm-.328-1.236c0-.102-.028-.171-.084-.217-.06-.052-.166-.076-.317-.076h-.213v.594h.26c.233 0 .354-.101.354-.301"/><path d="M37.683 17.392c0 8.15-6.424 14.758-14.35 14.758-7.925 0-14.35-6.608-14.35-14.758 0-8.151 6.425-14.759 14.35-14.759 7.926 0 14.35 6.608 14.35 14.759z" style="fill:#666;fill-opacity:1;stroke:none" transform="matrix(1.1756 0 0 1.13013 -4.473 -.638)"/><path d="M37.683 17.392c0 8.15-6.424 14.758-14.35 14.758-7.925 0-14.35-6.608-14.35-14.758 0-8.151 6.425-14.759 14.35-14.759 7.926 0 14.35 6.608 14.35 14.759z" style="fill:url(#j);fill-opacity:1;stroke:none" transform="matrix(1.1756 0 0 1.13013 -4.473 -.638)"/><path d="M37.683 17.392c0 8.15-6.424 14.758-14.35 14.758-7.925 0-14.35-6.608-14.35-14.758 0-8.151 6.425-14.759 14.35-14.759 7.926 0 14.35 6.608 14.35 14.759z" style="fill:url(#k);fill-opacity:1;stroke:none" transform="matrix(1.1756 0 0 1.13013 -4.473 -.638)"/><path d="M17.75 10.656c-1.848 2.256-9.593 11.425-8.906 17.625.478.61 1.004 1.18 1.562 1.719-.081-4.746 5.452-9.825 9.77-13.658z" style="fill:#00a54d;fill-opacity:1;stroke:none" transform="matrix(1.0075 0 0 1.00084 .809 1.047)"/><g style="fill:#97ca43;fill-opacity:1"><path d="M17.75 10.656c-1.848 2.256-9.593 11.425-8.906 17.625.478.61 1.004 1.18 1.562 1.719-.081-4.746 5.452-9.825 9.77-13.658z" style="fill:url(#l);fill-opacity:1;stroke:none" transform="matrix(1.0075 0 0 1.00084 .809 1.047)"/><path d="M17.75 10.656c-1.848 2.256-9.593 11.425-8.906 17.625.478.61 1.004 1.18 1.562 1.719-.081-4.746 5.452-9.825 9.77-13.658z" style="fill:url(#m);fill-opacity:1;stroke:none" transform="matrix(1.0075 0 0 1.00084 .809 1.047)"/><path d="M17.75 10.656c-1.848 2.256-9.593 11.425-8.906 17.625.478.61 1.004 1.18 1.562 1.719-.081-4.746 5.452-9.825 9.77-13.658z" style="fill:url(#n);fill-opacity:1;stroke:none" transform="matrix(1.0075 0 0 1.00084 .809 1.047)"/></g><path d="M13.344 3.75a16.936 16.936 0 0 0-2.688 2.031c2.657.508 5.321 2.863 6.781 4.813 1.273 2.001 1.964 3.836 2.862 5.731.608-.518 1.227-1.046 1.896-1.587l-.004-8.226c-1.979-1.238-5.25-2.867-8.816-2.762-.008.005-.024-.005-.031 0z" style="fill:#02a74d;fill-opacity:1;stroke:none" transform="matrix(1.0075 0 0 1.00084 .67 1.078)"/><path d="M13.344 3.75a16.936 16.936 0 0 0-2.688 2.031c2.657.508 5.321 2.863 6.781 4.813 1.273 2.001 1.964 3.836 2.862 5.731.608-.518 1.227-1.046 1.896-1.587l-.004-8.226c-1.979-1.238-5.25-2.867-8.816-2.762-.008.005-.024-.005-.031 0z" style="fill:url(#o);fill-opacity:1;stroke:none" transform="matrix(1.0075 0 0 1.00084 .67 1.078)"/><path d="M13.344 3.75a16.936 16.936 0 0 0-2.688 2.031c2.657.508 5.321 2.863 6.781 4.813 1.273 2.001 1.964 3.836 2.862 5.731.608-.518 1.227-1.046 1.896-1.587l-.004-8.226c-1.979-1.238-5.25-2.867-8.816-2.762-.008.005-.024-.005-.031 0z" style="fill:url(#p);fill-opacity:1;stroke:none" transform="matrix(1.0075 0 0 1.00084 .67 1.078)"/><path d="M13.344 3.75a16.936 16.936 0 0 0-2.688 2.031c2.657.508 5.321 2.863 6.781 4.813 1.273 2.001 1.964 3.836 2.862 5.731.608-.518 1.227-1.046 1.896-1.587l-.004-8.226c-1.979-1.238-5.25-2.867-8.816-2.762-.008.005-.024-.005-.031 0z" style="fill:url(#q);fill-opacity:1;stroke:none" transform="matrix(1.0075 0 0 1.00084 .67 1.078)"/><path d="M13.344 3.75a16.936 16.936 0 0 0-2.688 2.031c2.657.508 5.321 2.863 6.781 4.813 1.273 2.001 1.964 3.836 2.862 5.731.608-.518 1.227-1.046 1.896-1.587l-.004-8.226c-1.979-1.238-5.25-2.867-8.816-2.762-.008.005-.024-.005-.031 0z" style="fill:url(#r);fill-opacity:1;stroke:none" transform="matrix(1.0075 0 0 1.00084 .67 1.078)"/><path d="M17.75 10.656c-1.848 2.256-9.593 11.425-8.906 17.625.478.61 1.004 1.18 1.562 1.719-.081-4.746 5.452-9.825 9.77-13.658z" style="fill:#00a54d;fill-opacity:1;stroke:none" transform="matrix(-1.0075 0 0 1.00084 45.123 1.047)"/><g style="fill:#97ca43;fill-opacity:1"><path d="M17.75 10.656c-1.848 2.256-9.593 11.425-8.906 17.625.478.61 1.004 1.18 1.562 1.719-.081-4.746 5.452-9.825 9.77-13.658z" style="fill:url(#s);fill-opacity:1;stroke:none" transform="matrix(-1.0075 0 0 1.00084 45.123 1.047)"/><path d="M17.75 10.656c-1.848 2.256-9.593 11.425-8.906 17.625.478.61 1.004 1.18 1.562 1.719-.081-4.746 5.452-9.825 9.77-13.658z" style="fill:url(#t);fill-opacity:1;stroke:none" transform="matrix(-1.0075 0 0 1.00084 45.123 1.047)"/><path d="M17.75 10.656c-1.848 2.256-9.593 11.425-8.906 17.625.478.61 1.004 1.18 1.562 1.719-.081-4.746 5.452-9.825 9.77-13.658z" style="fill:url(#u);fill-opacity:1;stroke:none" transform="matrix(-1.0075 0 0 1.00084 45.123 1.047)"/></g><path d="M13.344 3.75a16.936 16.936 0 0 0-2.688 2.031c2.657.508 5.321 2.863 6.781 4.813 1.273 2.001 1.964 3.836 2.862 5.731.608-.518 1.227-1.046 1.896-1.587l-.004-8.226c-1.979-1.238-5.25-2.867-8.816-2.762-.008.005-.024-.005-.031 0z" style="fill:#02a74d;fill-opacity:1;stroke:none" transform="matrix(-1.00417 0 0 1.00169 45.223 1.075)"/><path d="M13.344 3.75a16.936 16.936 0 0 0-2.688 2.031c2.657.508 5.321 2.863 6.781 4.813 1.273 2.001 1.964 3.836 2.862 5.731.608-.518 1.227-1.046 1.896-1.587l-.004-8.226c-1.979-1.238-5.25-2.867-8.816-2.762-.008.005-.024-.005-.031 0z" style="fill:url(#v);fill-opacity:1;stroke:none" transform="matrix(-1.00417 0 0 1.00169 45.223 1.075)"/><path d="M13.344 3.75a16.936 16.936 0 0 0-2.688 2.031c2.657.508 5.321 2.863 6.781 4.813 1.273 2.001 1.964 3.836 2.862 5.731.608-.518 1.227-1.046 1.896-1.587l-.004-8.226c-1.979-1.238-5.25-2.867-8.816-2.762-.008.005-.024-.005-.031 0z" style="fill:url(#w);fill-opacity:1;stroke:none" transform="matrix(-1.00417 0 0 1.00169 45.223 1.075)"/><path d="M13.344 3.75a16.936 16.936 0 0 0-2.688 2.031c2.657.508 5.321 2.863 6.781 4.813 1.273 2.001 1.964 3.836 2.862 5.731.608-.518 1.227-1.046 1.896-1.587l-.004-8.226c-1.979-1.238-5.25-2.867-8.816-2.762-.008.005-.024-.005-.031 0z" style="fill:url(#x);fill-opacity:1;stroke:none" transform="matrix(-1.00417 0 0 1.00169 45.223 1.075)"/><script/></svg>