<svg xmlns="http://www.w3.org/2000/svg" viewBox="0 0 204.25 48.052"><text fill="red" font-family="ArialMT" font-size="1" transform="translate(110.282 31.384)">I don’t like bugs!</text><path d="M98.15.133c2.648-.343 4.952 1.74 4.142 4.443-.127.423-.852 1.327-.852 1.327s1.107 1.024 1.228 1.686c.505 2.759-1.577 4.384-3.69 4.443-2.239.063-4.702-1.452-4.217-4.293.066-.384.322-.75.452-.979.131-.231.748-.857.748-.857s-.821-1.304-.899-1.854c-.283-2.007.915-3.635 3.088-3.916zm-.527 3.316c0 1.448 2.184 1.429 2.184.073 0-1.534-2.184-1.553-2.184-.073zm1.129 6.324c1.708 0 1.717-2.561-.029-2.561-1.752 0-1.707 2.561.029 2.561zM89.677.133c2.648-.343 4.952 1.74 4.142 4.443-.127.423-.852 1.327-.852 1.327s1.107 1.024 1.228 1.686c.505 2.759-1.577 4.384-3.69 4.443-2.239.063-4.702-1.452-4.217-4.293.066-.384.322-.75.452-.979.131-.231.748-.857.748-.857s-.821-1.304-.899-1.854c-.283-2.007.914-3.635 3.088-3.916zm-.528 3.316c0 1.448 2.184 1.429 2.184.073 0-1.534-2.184-1.553-2.184-.073zm1.129 6.324c1.708 0 1.717-2.561-.029-2.561-1.752 0-1.706 2.561.029 2.561zm17.06-9.64c1.337-.136 2.509.353 3.163.979 1.963 1.878 2.281 8.036-.075 10.092-.967.844-2.99 1.281-4.519.527-1.471-.725-2.335-2.66-2.485-4.895-.235-3.5.774-6.383 3.916-6.703zm.452 9.64c2.357-.051 2.26-7.909-.377-7.23-1.872.482-1.839 7.277.377 7.23zm8.87-9.722c1.337-.136 2.509.353 3.163.979 1.963 1.878 2.281 8.036-.075 10.092-.967.844-2.99 1.281-4.519.527-1.471-.725-2.335-2.66-2.485-4.895-.235-3.501.774-6.383 3.916-6.703zm.452 9.639c2.357-.051 2.26-7.909-.377-7.23-1.872.483-1.839 7.278.377 7.23zM79.398.228v2.333c-6.398-1.72-6.355 8.624-.086 6.911v2.335c-9.705 2.429-9.748-13.816.086-11.579z"/><path d="m67.415 7.231.008-2.329c1.131 0 1.807-.392 1.807-1.212 0-.678-.112-1.346-2.4-1.346l.009 9.688h-2.457L64.411 0h2.373c4.557.016 5.094 1.845 5.094 3.615 0 2.543-1.78 3.616-4.463 3.616zM128.124.886v2.259h-5.272V.88zm34.618 11.061h-2.495c-.282-1.194-1.93-3.34-1.93-3.34l-2.747 2.836c-.496.496-1.404.504-2.338.504h-.783V9.82l.527.001c.567 0 1.067-.047 1.5-.48l4.801-5.051c.511-.511.236-1.238-.645-1.238l-6.183.014V.886h6.225c3.013 0 3.902 3.217 2.804 4.385l-1.563 1.636c.001 0 2.676 3.835 2.827 5.04zM136.559.88v5.278h-2.41V.88z"/><path d="M142.584.88v6.87c0 2.316-1.741 4.056-3.897 4.056h-4.538V9.547l4.218-.008c1.167 0 1.816-.62 1.816-1.874 0-1.262.009-6.785.009-6.785h2.392zm-9.744.609V7.72c0 2.373-2.165 4.086-4.105 4.086h-5.883v-2.41l5.864-.004c.998 0 1.751-.542 1.751-1.636l.009-6.268 2.364.001z"/><path d="M128.124 6.61h-5.272V4.364l5.272-.004zM79.473 5.254h5.874v1.807h-5.874zm73.504.075v2.184h-9.414V5.329z"/><circle cx="163.558" cy="1.816" r=".982" fill="#060606"/><circle cx="166.033" cy="1.816" r=".982" fill="#060606"/><path d="M155.308 14.41c7.453-.965 13.94 4.897 11.659 12.508-.357 1.19-2.397 3.735-2.397 3.735s3.116 2.883 3.457 4.745c1.422 7.765-4.439 12.34-10.388 12.507-6.301.178-13.235-4.087-11.871-12.083.184-1.081.906-2.112 1.272-2.756.369-.649 2.106-2.413 2.106-2.413s-2.311-3.672-2.53-5.219c-.796-5.651 2.574-10.232 8.692-11.024zm-1.483 9.334c0 4.076 6.148 4.023 6.148.205-.001-4.318-6.148-4.371-6.148-.205zm3.177 17.8c4.808 0 4.834-7.208-.082-7.208-4.932.001-4.803 7.208.082 7.208zM130.628 14.41c7.453-.965 13.94 4.897 11.659 12.508-.357 1.19-2.397 3.735-2.397 3.735s3.116 2.883 3.457 4.745c1.422 7.765-4.439 12.34-10.388 12.507-6.301.178-13.235-4.087-11.871-12.083.184-1.081.906-2.112 1.272-2.756.369-.649 2.106-2.413 2.106-2.413s-2.311-3.672-2.53-5.219c-.797-5.651 2.573-10.232 8.692-11.024zm-1.484 9.334c0 4.076 6.148 4.023 6.148.205-.001-4.318-6.148-4.371-6.148-.205zm3.178 17.8c4.808 0 4.834-7.208-.082-7.208-4.932.001-4.804 7.208.082 7.208zm48.912-27.273c3.764-.384 7.063.994 8.904 2.756 5.525 5.287 6.421 22.62-.212 28.407-2.723 2.375-8.416 3.606-12.72 1.484-4.141-2.042-6.574-7.488-6.996-13.78-.66-9.852 2.179-17.965 11.024-18.867zm1.272 27.135c6.635-.143 6.361-22.262-1.06-20.351-5.271 1.357-5.178 20.485 1.06 20.351zM108.745 14.76v6.567c-18.008-4.841-17.887 24.276-.242 19.453v6.572c-27.319 6.838-27.439-38.887.242-32.592z"/><path d="m72.918 34.526.023-6.555c3.182 0 5.088-1.103 5.088-3.411 0-1.908-.315-3.788-6.755-3.788l.026 27.27h-6.917l.078-33.87 6.68.001c12.827.044 14.338 5.194 14.338 10.175 0 7.158-5.009 10.178-12.561 10.178zM204.25 14.163v33.846h-6.784V14.163zm-94.361 14.401h8v5.088h-8zM23.956 15.188h17.817l-1.182 6.77s-.524-3.67-2.717-5.106c-.544-.255-1.939-.237-5.435-.237l-1.368 8.072c2.787.655 5.878-3.591 5.878-3.591l-1.778 9.387s-1.09-4.25-4.505-4.109l-1.515 8.35c4.974 0 4.877-.035 6.079-.769 1.159-.708 3.867-4.197 3.969-4.685l-1.104 6.997H20.084c.134-.932 1.888-1.032 2.674-1.566l1.473-8.122c-.119-.726-1.543-.101-1.832-.724.245-.667 1.677-.23 2.093-.712l1.495-8.24c-.268-.624-2.031-.93-2.031-1.715zm33.612-.634c.784 1.618 1.414 3.394 1.988 5.23-1.089.423-2.6 1.109-2.6 1.109l-2.868-3.984c-2.987-.234-7.024 4.215-7.329 6.995-.357 3.289 1.688 6.537 4.894 6.815 3.34.29 7.341-2.535 7.341-2.535l-3.671 8.082c-7.571 2.694-13.173-2.251-13.459-8.082-.439-8.903 7.616-13.809 15.704-13.63z"/><path d="m16.167 26.232 2.589-12.069 4.925 3.026-3.937 2.322-3.569 17.399L4.662 23.955l-1.577 8.022 2.801 2.31L0 36.911l2.86-13.55c.312-2.047-1.104-2.752-2.35-3.175l5.043-5.811 10.614 11.857z"/></svg>