<svg xmlns="http://www.w3.org/2000/svg" xml:space="preserve" id="Layer_1" x="0" y="0" style="enable-background:new 0 0 3840 1355.9" version="1.1" viewBox="0 0 3840 1355.9"><style id="style2" type="text/css">.st1{fill:#30308f}.st2{fill:#ea2427}</style><g id="g5112"><path id="path4" d="M3596 1309.3h5.7c6.7 0 9.8-1.9 9.8-6.8 0-5.1-3.4-7.2-10.4-7.2h-5.1v14m41.1 3.3c0 19.2-15.7 34.9-35 34.9s-35.1-15.7-35.1-34.9c0-19.4 15.8-35.1 35.1-35.1s35 15.8 35 35.1zm-35.1-43.4c-24 0-43.3 19.4-43.3 43.4 0 23.8 19.3 43.3 43.3 43.3 23.9 0 43.4-19.4 43.4-43.3 0-24-19.4-43.4-43.4-43.4zm1.2 18.8c13.5 0 20.5 4.7 20.5 13.8 0 6.3-4 11-10.6 12.7l10.8 21.4H3611l-9.2-19.6h-5.7v19.6h-11.7v-48h18.8z" class="st1"/><g id="g18" style="fill:#30308f;fill-opacity:1"><path id="path6" d="M826.3 1024.9 802 899.3l-56.1 125.5h80.4m880.6 318.9h-132.8l-17.7-400.1-172.7 400.1h-88.6L1221.2 982l-115.1 361.7H880.2l-34-193.4H692.7l-87.1 193.4H466.9l284.9-646.6h163.9l87.1 522.6 169.8-522.6H1304l64.9 354.3 150.6-354.3h159.4l28 646.6" class="st1" style="fill:#30308f;fill-opacity:1"/><path id="polyline8" d="M2087.8 1343.7 2110 1205h-231.8l18.4-115.2h201.6l22.1-138.8h-203.7l17.7-115.1h231.8l22.1-138.8h-367.6l-103.3 646.6h370.5" class="st1" style="fill:#30308f;fill-opacity:1"/><path id="polyline10" d="M3813.6 697.1h-155l-131.4 211.1-82.7-211.1h-152l156.5 341-48.2 305.6h132.8l40.8-270.1 239.2-376.5" class="st1" style="fill:#30308f;fill-opacity:1"/><path id="path12" d="M3024.7 1220.6c70.3 31.5 156.3-30.2 192.1-137.8 35.8-107.6 8-220.3-62.3-251.7-70.3-31.4-156.3 30.3-192.1 137.8-35.9 107.6-7.9 220.3 62.3 251.7m-201.1-255.8c41.2-178.7 194-296.1 341.3-262 147.2 34 233.1 206.5 191.9 385.2-41.3 178.8-194.1 296.1-341.3 262.1-147.2-34.1-233.1-206.5-191.9-385.3" class="st1" style="fill:#30308f;fill-opacity:1"/><path id="path14" d="M183.4 754.7C56.9 833-4 952.5 12.2 1114.9 31 1303.3 275 1422 481.6 1302.4c18.1-10.5 11-8.8 17.7-14.8l41.3-262.7H294.2l-18.9 121h103l-11.8 65c-59 23.7-159.4 14.8-202.3-62-27.1-48.6-52.2-157.1 62-256.9 93-81.2 253.9-95.9 346.9-53.1 0 0 11.8-68 20.7-131.5-178.6-61.9-317.4-10.3-410.4 47.3" class="st1" style="fill:#30308f;fill-opacity:1"/><path id="path16" d="m2390.4 700.8-102.6 641.7h298.9c123.1 0 303-181.4 139.2-329.7 168.5-174.3 1.5-310.6-87.9-312-71.8-1.2-249.1 0-249.1 0h1.5m73.3 388.2H2575c105.5 0 102.6 128.9-14.6 128.9h-117.2l20.5-128.9m41-252h86.4c93.8 0 74.7 120.2-14.7 120.2h-92.3l20.6-120.2" class="st1" style="fill:#30308f;fill-opacity:1"/></g><path id="path20" d="M1498.1 735.7c-2-21.4 18.9-37.4 32.2-53.9 70.9-88.3 143.5-174.7 218.6-259.1 5.1-5.8-1.6-14.4-8.5-10.9-77.5 40.2-154.6 83.6-235.3 118-41.8 16.9-86.8 46.9-128.3 14.4-.4-.3-.8-.7-1.2-1.1-30.3-32.4-21.8-55.1-6.6-84.9 3.2-6.2-3.6-12.7-9.7-9.3-98.1 56.5-199 109.3-304.9 151.2-16.3 6.5-33.4 8.5-49.9 4-11-3-20.3-10.3-26.8-19.7-14.9-21.9-32.4-45.1-16.5-71 51.4-90.9 138.2-155.9 215.7-223.7 32-26.7 65.4-51.9 97.8-78 6.1-4.9 9.1-3.8 13.1 2.3 10 14.9 20.4 29.5 30.7 44.2 2.2 3.1 1.5 7.4-1.6 9.6-71 51.9-138.4 108.9-205 166.3-28.5 26.4-57.8 53.5-83.2 82.7-10.1 27.4 21.1 11.4 33.6 7 180.1-67.6 343-174 494-291.9 8-3.9 17-21.9 25.2-10 8.8 13.1 18 26 27.1 38.9 4.4 6.2 3.5 14.7-2.1 19.9-65.3 61.2-128 128.4-177.7 202.9-8.2 22.6 39.4 2 43.1-.1 152.1-78.6 290.4-181.4 443.4-258 15.4-7.5 20.1-5.6 30.5 8.3 7.2 9.5 14 19.2 20.9 28.9 4.5 6.3 3.9 14.9-1.5 20.4-36.6 38.2-72.5 77.2-107.8 116.6-5.3 6 1.9 14.8 8.8 10.6 111.9-68 231.6-123.5 360.8-149.7 29.6-6.9 57.7 16.2 66.5 41.6 17.3 50.4-28 82.9-62.1 115.3-109.3 100.7-289.9 243.1-435.6 132.9-3.4-2.9-6.7-5.6-11.4-1.6-37.2 32.1-74.8 63.7-111.5 96.4-42.3 38.6-80 82.1-118.5 124.6-13.5 18.8-55.3-24-56.3-34.1zm697.2-372c6.4-6.8 13.1-13.3 19.3-20.3 4.5-5.1-.2-13.1-6.7-11.6-162 38.7-351.5 164-355.2 166.6-4.4 3-3.7 9.9 1.2 12.1C1973.7 565 2110.7 440 2195 364.1c.1-.1.2-.2.3-.4z" class="st1" style="fill:#30308f;fill-opacity:1"/><path id="path22" d="M3835.4 514.9c-3.5-8.3-7.2-15.4-17.7-18.2-77.9-20.1-126.2-31.1-237.4-32.7-151.9-2.1-303 8-453.5 27.9-25.2 3.3-44.5-22-34.5-45.4 7.2-16.8 14.5-33.5 21.8-50.8 7.5-14.9 8.2-29.8 6.9-45.1-1.1-12.6-5.9-24.6-13.6-34.6-21.7-28.4-47.3-53.6-68.5-82.4-6-8.2-8.1-18.7-5.2-28.4 3.3-11.1 8.8-22.2 9.7-33.2 12.6-86.2-133.2-109.4-111.7-10.4 6.9 38.7 46.7 56.3 24.9 70.8-141.3 118.5-447 366.4-636.8 326.4-14.8-.9-18.4-14.4-16.6-27.2 2.3-15.7 40.7-69.2 51.3-65.1 96.2 28.7 195.8-20.8 276.6-70.2 38.6-24.4 74.5-52.4 109.4-81.8 10.3-8.6 10.4-20.7 9.7-32.5-3.3-55.7-52.8-77.6-103-68.1-109.8 11.8-448.7 213.3-400.2 354.4 7.1 20.6 24.3 36 45 42.7 212.1 69.2 547.5-222.4 695.7-348.2 7-9.9 17.7 16.6 23.2 21.3 10.6 18.6 49.1 50.6 43.7 70.2-15.6 55.3-53.4 103.2-66.7 159.4-3.1 22.6 15.5 49.4 29.5 57.4 6.9 4 20.8 4.8 31.8 3.2 57.3-8.2 114.5-16.7 171.9-24.2 108.6-12.4 221.9-20.7 327.8-18.5 46.2 1 170.2-1.2 170.2 24.2 0 18.5-3.6 23.2 18.1 21.5 29.2-1.9 58.4-5.3 87.7-5.3 24.2.2 12.5-52.2 10.5-57.1zM2679.1 265.8c12.8-.4 18.4 16.1 7.9 23.5-69.2 48.3-188.1 152.1-296.9 129.8 49.6-55.6 207.3-149.4 289-153.3z" class="st1" style="fill:#30308f;fill-opacity:1"/><path id="path24" d="M523.9 330.8c-25-9.4-46.7-26.9-58.9-50.7-35.1-68.3 1.3-124.9 86.6-148.6 179.8-59.8 413.9-146.6 595.6-66 14.9 6.6 27.6 17.7 35.3 32 45.9 85.6-37 161-138.5 177.3-7.5 1.2-15.1-2.6-18.8-9.3-14.4-25.7-15-53.5-3.3-62.1 24.4-17.9 82.9-23.9 115.7-48.7 3.7-2.8 4.1-7.9 1.1-11.4-92.4-105.5-478.7 23.8-626 88-60.1 40.2 268.3 93.6 311.9 112 61.2 25.9 122.2 80.7 95.7 144.1-41.4 99.1-273.6 109.8-394.3 126.3-128.7 17.6-258.4 26.7-387.9 37.4C71.7 662-21.1 670.9 10 577.5c1.9-5.8 5.7-11 10.6-14.5 28.9-20.7 80.5-13 101.4 11.1 192.4-12.2 384.7-33.9 574.5-67.6 400.1-64.6-7.6-113.6-172.6-175.7z" class="st1" style="fill:#30308f;fill-opacity:1"/><g id="g32" style="fill:#ea2427;fill-opacity:1"><path id="path26" d="M1494.3 702.8c-2-21.4 18.9-37.4 32.2-53.9 70.9-88.3 143.5-174.7 218.6-259.1 5.1-5.8-1.6-14.4-8.5-10.9-77.5 40.2-154.6 83.6-235.3 118-41.8 16.9-86.8 46.9-128.3 14.4-.4-.3-.8-.7-1.2-1.1-30.3-32.4-21.8-55.1-6.6-84.9 3.2-6.2-3.6-12.7-9.7-9.3-98.1 56.5-199 109.3-304.9 151.2-16.3 6.5-33.4 8.5-49.9 4-11-3-20.3-10.3-26.8-19.7-14.9-21.9-32.4-45.1-16.5-71 51.4-90.9 138.2-155.9 215.7-223.7 32-26.7 65.4-51.9 97.8-78 6.1-4.9 9.1-3.8 13.1 2.3 10 14.9 20.4 29.5 30.7 44.2 2.2 3.1 1.5 7.4-1.6 9.6-71 51.9-138.4 108.9-205 166.3-28.5 26.4-57.8 53.5-83.2 82.7-10.1 27.4 21.1 11.4 33.6 7 180.1-67.6 343-174 494-291.9 8-3.9 17-21.9 25.2-10 8.8 13.1 18 26 27.1 38.9 4.4 6.2 3.5 14.7-2.1 19.9-65.3 61.2-128 128.4-177.7 202.9-8.2 22.6 39.4 2 43.1-.1 152.1-78.6 290.4-181.4 443.4-258 15.4-7.5 20.1-5.6 30.5 8.3 7.2 9.5 14 19.2 20.9 28.9 4.5 6.3 3.9 14.9-1.5 20.4-36.6 38.2-72.5 77.2-107.8 116.6-5.3 6 1.9 14.8 8.8 10.6 111.9-68 231.6-123.5 360.8-149.7 29.6-6.9 57.7 16.2 66.5 41.6 17.3 50.4-28 82.9-62.1 115.3-109.3 100.7-289.9 243.1-435.6 132.9-3.4-2.9-6.7-5.6-11.4-1.6-37.2 32.1-74.8 63.7-111.5 96.4-42.3 38.6-80 82.1-118.5 124.6-13.5 18.8-55.4-24-56.3-34.1zm697.2-372c6.4-6.8 13.1-13.3 19.3-20.3 4.5-5.1-.2-13.1-6.7-11.6-162 38.7-351.5 164-355.2 166.6-4.4 3-3.7 9.9 1.2 12.1 119.8 54.5 256.8-70.5 341.1-146.4.1-.1.2-.2.3-.4z" class="st2" style="fill:#ea2427;fill-opacity:1"/><path id="path28" d="M3831.5 482.1c-3.5-8.3-7.2-15.4-17.7-18.2-77.9-20.1-126.2-31.1-237.4-32.7-151.9-2.1-303 8-453.5 27.9-25.2 3.3-44.5-22-34.5-45.4 7.2-16.8 14.5-33.5 21.8-50.8 7.5-14.9 8.2-29.8 6.9-45.1-1.1-12.6-5.9-24.6-13.6-34.6-21.7-28.4-47.3-53.6-68.5-82.4-6-8.2-8.1-18.7-5.2-28.4 3.3-11.1 8.8-22.2 9.7-33.2 12.6-86.2-133.2-109.4-111.7-10.4 6.9 38.7 46.7 56.3 24.9 70.8-141.3 118.5-447 366.4-636.8 326.4-14.8-.9-18.4-14.4-16.6-27.2 2.3-15.7 40.7-69.2 51.3-65.1 96.2 28.7 195.8-20.8 276.6-70.2 38.6-24.4 74.5-52.4 109.4-81.8 10.3-8.6 10.4-20.7 9.7-32.5-3.3-55.7-52.8-77.6-103-68.1-109.8 11.8-448.7 213.3-400.2 354.4 7.1 20.6 24.3 36 45 42.7 212.1 69.2 547.5-222.4 695.7-348.2 7-9.9 17.7 16.6 23.2 21.3 10.6 18.6 49.1 50.6 43.7 70.2-15.6 55.3-53.4 103.2-66.7 159.4-3.1 22.6 15.5 49.4 29.5 57.4 6.9 4 20.8 4.8 31.8 3.2 57.3-8.2 114.5-16.7 171.9-24.2 108.6-12.4 221.9-20.7 327.8-18.5 46.2 1 170.2-1.2 170.2 24.2 0 18.5-3.6 23.2 18.1 21.5 29.2-1.9 58.4-5.3 87.7-5.3 24.3.1 12.6-52.3 10.5-57.1zM2675.3 232.9c12.8-.4 18.4 16.1 7.9 23.5-69.2 48.3-188.1 152.1-296.9 129.8 49.5-55.6 207.3-149.4 289-153.3z" class="st2" style="fill:#ea2427;fill-opacity:1"/><path id="path30" d="M520.1 297.9c-25-9.4-46.7-26.9-58.9-50.7-35.1-68.3 1.3-124.9 86.6-148.6 179.8-59.8 413.9-146.6 595.7-66 14.9 6.6 27.5 17.6 35.2 32 46 85.6-36.9 161-138.5 177.3-7.5 1.2-15.1-2.6-18.8-9.3-14.4-25.7-15-53.5-3.3-62.1 24.4-17.9 82.9-23.9 115.7-48.7 3.7-2.8 4.1-7.9 1.1-11.4-92.4-105.5-478.7 23.8-626 88-60.1 40.2 268.3 93.6 311.9 112 61.2 25.9 122.2 80.7 95.7 144.1-41.4 99.1-273.6 109.8-394.3 126.3-128.7 17.6-258.4 26.7-387.9 37.4C67.8 629.1-24.9 638 6.2 544.6c1.9-5.8 5.7-11 10.6-14.5 28.9-20.7 80.5-13 101.4 11.1 192.4-12.2 384.7-33.9 574.5-67.6 400.1-64.6-7.6-113.6-172.6-175.7Z" style="fill:#ea2427;fill-opacity:1"/></g></g></svg>