<svg xmlns="http://www.w3.org/2000/svg" viewBox="0 0 458.415 92.373"><path fill="#070308" d="M78.587 86.399V2.067H64.569l.229 54.229L0 2.757l.229 84.561h12.18V32.631l66.178 53.768m8.96 1.377 10.798-18.381h-9.882V56.528h16.316l29.642-53.771 47.336 85.019h-16.775l-9.65-18.381h-42.049L103.17 87.776H87.547m31.48-31.48h30.33l-15.164-27.802-15.166 27.802m182.677 31.48h-13.788V2.988l46.877 54.459L382.127 1.84v85.936h-14.706l-.229-46.185-32.63 39.292-32.858-39.063v45.956M409.012.917h13.786v86.86h-13.786zm26.883 14.476V3.215h-3.907V.917h10.803v2.298h-4.137v12.178z"/><path fill="#c85433" d="M181.298 46.185C181.298 20.682 201.98 0 227.485 0s46.185 20.682 46.185 46.185c0 25.508-20.68 46.188-46.185 46.188s-46.187-20.679-46.187-46.188m46.187 32.399c17.923 0 32.399-14.476 32.399-32.399 0-17.691-14.476-32.17-32.399-32.17-17.694 0-32.172 14.479-32.172 32.17 0 17.923 14.479 32.399 32.172 32.399"/><path fill="#070308" d="m451.522 15.323-4.139-9.349v9.419h-2.757V.917h2.989l3.907 8.965 3.905-8.881h2.988v14.476h-2.757V6.059z"/></svg>