<svg xmlns="http://www.w3.org/2000/svg" xml:space="preserve" baseProfile="tiny" viewBox="-23 340 564 113"><path fill="#DE1528" d="m57.4 363.5-.1 89.5-24-7.8V340l30.6 8.1c19.6 5.3 31.6 15.5 31.4 33.4-.2 20.9-9.8 29.3-28.7 23.8v-41.2c.1-4.9-9.2-5.2-9.2-.6z"/><path fill="#F4CB0E" d="M22.3 427.8 11 431.6c-7.3 2.5-13.6-3.4-6.8-5.9l5.5-1.9-20.6-6.5c-6.3 2.1-12.3 6.7-11.9 13.2.4 6.5 15.3 8.1 26.8 9.9 10.7 1.8 20.5.8 29.4-2.3v-6.7l-11.1-3.6zM57.5 453l21-7.3-21.2-6.7v13.6l.2.4z"/><path fill="#4177B3" d="m113.3 433.4.4-.1c9.2-3.2 13.1-7.7 12.1-11.9-1.6-7-12.8-10.8-30-12.1-12.4-.9-24.6 1.9-36.5 5.9l-1.9.7 21.4 6.6 12.5-4.2c13.1-2.4 18.3 1.9 5.8 5.9l-6.2 2.1 22.4 7.1zm-80-31-9.5 3.2 9.5 2.9v-6.1z"/><path fill="#1BA0A5" d="m78.5 445.7 34.8-12.3-22.6-7-33.3 11.4v1.2l21.1 6.7zm-45.2-21.6-11 3.7 11 3.5v-7.2zm24 5.8V416l21.4 6.6-21.4 7.3zm-47.7-6.1 23.7-8.5v-6.8l-9.5-2.9-34.3 11.6c-.1 0-.3.1-.5.1l20.6 6.5z"/><path d="M140.83 368.95v55.953h8.694v-50.565h8.08s5.877 0 7.836 2.57c1.714 2.205 2.081 6.245 2.081 9.061 0 2.938-.244 7.469-1.224 9.06-1.47 2.571-3.918 3.061-6.122 3.061h-5.387v5.02h7.714s6.978.245 9.917-2.694c3.673-3.673 4.53-8.693 4.53-15.426 0-6.122-2.204-12.244-6.734-14.325-3.673-1.714-10.407-1.714-10.407-1.714h-18.977M183.928 424.903h8.692v-55.952h-8.692v55.952zM239.145 382.051l16.04 41.873-9.183 22.527h7.223l26.446-64.4h-8.08l-11.51 31.343-10.651-31.343h-10.285M286.16 424.536v-5.265s9.183.367 11.142.367c4.285 0 6.366-.857 7.958-2.57.98-.98 1.836-5.633 1.836-7.224 0-1.592-.367-5.143-.98-6.612-.611-1.347-2.203-2.693-4.407-2.938-1.591-.123-4.04-.49-6.979-.612-4.04-.245-6.733-2.327-7.958-3.796-1.224-1.469-2.938-3.795-2.938-10.774s1.836-10.897 3.673-12.733 4.407-2.571 6.489-2.939c2.326-.367 6.122-.367 6.122-.367l12.243.367v5.265s-8.938-.367-10.897-.367c-4.285 0-5.51.857-7.1 2.57-.98.98-1.715 3.796-1.715 5.51 0 1.592.245 4.898.857 6.367.612 1.347 2.081 2.694 4.408 2.938 1.591.123 4.04.49 6.978.613 4.04.245 6.734 2.326 7.959 3.795 1.224 1.47 2.938 4.775 2.938 11.631 0 6.98-1.836 11.999-3.673 13.835s-4.408 2.571-6.489 2.939c-2.326.367-6.122.49-6.122.49l-13.345-.49M333.787 374.338h-8.693v41.015s.245 3.796.367 5.02c.245 1.347 2.082 4.408 7.102 4.408l9.06-.123v-5.264s-2.449.122-3.918.122-3.306-.122-3.673-2.571c-.368-2.571-.368-5.51-.368-5.51v-24.242h9.918v-5.264h-9.918l.123-7.591M418.144 424.903h8.693v-42.852h-8.693v42.852zM418.144 376.787h8.693v-7.836h-8.693v7.836zM454.507 381.684c6 0 10.53 1.347 12.978 3.306 2.449 1.959 5.632 6.244 5.632 18.487s-3.061 16.529-5.632 18.488c-2.449 1.959-7.101 3.305-12.978 3.305-6 0-10.53-1.346-13.1-3.305-2.45-1.96-5.51-6.244-5.51-18.488s3.06-16.528 5.51-18.487c2.57-2.082 7.1-3.306 13.1-3.306zm-6 8.203c-1.224 1.47-2.693 4.53-2.693 13.59 0 9.06 1.47 12.121 2.694 13.59 1.224 1.47 3.428 2.449 6.244 2.449s5.02-.98 6.244-2.449 2.693-4.53 2.693-13.59c0-9.06-1.469-12.12-2.693-13.59-1.224-1.47-3.428-2.449-6.244-2.449s-5.02.98-6.244 2.449M491.115 388.05l8.57-.367c2.204 0 4.897.612 6.122 2.204 1.224 1.47 1.959 3.306 1.959 6.244v28.65h8.693v-29.385c0-5.509-1.715-8.815-4.286-10.774-3.673-2.938-10.284-2.57-10.284-2.57l-19.59.366v42.485h8.693l.123-36.853M400.758 374.338h-8.692v41.015s.244 3.796.367 5.02c.245 1.347 2.081 4.408 7.101 4.408l9.06-.123v-5.264s-2.449.122-3.918.122-3.306-.122-3.673-2.571c-.367-2.571-.367-5.51-.367-5.51v-24.242h9.795v-5.264h-9.795v-7.591M225.8 396.131c0-2.938-.735-4.775-1.959-6.244-1.224-1.592-3.918-2.204-6.122-2.204l-11.508.367v-5.754l13.835-.367s6.611-.245 10.284 2.57c2.571 2.082 4.285 5.266 4.285 10.775v29.017l-16.773.367s-7.591 0-11.387-1.469c-3.673-1.47-5.754-5.632-5.754-11.386 0-5.51 1.714-8.816 4.285-10.775 3.673-2.938 10.285-2.57 10.285-2.57h5.387v4.897h-2.939c-2.203 0-4.53.367-5.876 2.081-1.225 1.47-1.837 2.816-1.837 5.754 0 3.796.735 5.632 2.571 6.857 1.592 1.224 4.408 1.469 7.713 1.469l5.755-.367-.245-23.018M373.088 396.131c0-2.938-.734-4.775-1.959-6.244-1.347-1.592-3.918-2.204-6.121-2.204l-11.51.367v-5.754l13.836-.367s6.611-.245 10.162 2.57c2.571 2.082 4.285 5.266 4.285 10.775v29.017l-16.773.367s-7.591 0-11.387-1.469c-3.673-1.47-5.754-5.632-5.754-11.386 0-5.51 1.714-8.816 4.285-10.775 3.673-2.938 10.284-2.57 10.284-2.57h5.388v4.897h-3.061c-2.204 0-4.53.367-5.877 2.081-1.224 1.47-1.837 2.816-1.837 5.754 0 3.796.735 5.632 2.571 6.857 1.592 1.224 4.53 1.469 7.714 1.469l5.754-.367V396.13M532.375 425.27c2.326 0 4.408-.857 6-2.448s2.448-3.796 2.448-6c0-2.326-.857-4.407-2.449-5.999-1.591-1.591-3.795-2.449-5.999-2.449-4.653 0-8.57 3.796-8.57 8.57 0 2.327.857 4.409 2.448 6 1.714 1.47 3.918 2.326 6.122 2.326zm-7.101-8.57c0-1.836.734-3.673 2.081-5.02s3.061-2.081 5.02-2.081 3.673.734 5.02 2.081c1.347 1.347 2.081 3.061 2.081 5.02a7.106 7.106 0 0 1-7.101 7.101 7.144 7.144 0 0 1-5.02-2.081c-1.347-1.347-2.081-3.061-2.081-5.02"/><path d="M536.66 420.74c-.122 0-.245-.245-.245-.367s-.122-.367-.122-.735v-1.224c0-.612-.123-.98-.367-1.224-.123-.245-.368-.368-.613-.49.245-.245.49-.367.735-.735s.367-.857.367-1.469c0-1.102-.49-1.959-1.346-2.326-.49-.245-1.102-.367-1.837-.367h-4.408v9.55h1.592v-3.918h2.571c.49 0 .857 0 .98.122.367.122.49.49.49.98l.122 1.469c0 .367 0 .612.122.734 0 .123.123.245.123.368l.122.122h1.837l-.123-.49zm-1.959-6.121c0 .49-.122.857-.367 1.102-.245.244-.735.367-1.224.367h-2.694v-2.694h2.816c.367 0 .735 0 .857.123.49.122.612.49.612 1.102"/></svg>