<svg xmlns="http://www.w3.org/2000/svg" xml:space="preserve" width="500" height="116.145" viewBox="-1 -1 500 116.145"><path d="M82.587 54.496c0 .368-.255.624-.766.766-.613.163-2.513.245-5.701.245-2.922 0-4.802-.082-5.64-.245-.695-.143-1.134-.603-1.318-1.379-.695-2.942-1.236-4.516-1.625-4.72-.327-.143-3.065-.214-8.214-.214-3.474 0-5.323.092-5.548.275-.348.327-.736 1.421-1.165 3.28-.388 1.696-.858 2.616-1.41 2.759-.695.163-3.024.245-6.989.245-3.126 0-4.689-.296-4.689-.889 0-.531 2.309-7.06 6.927-19.586 5.006-13.548 7.724-20.996 8.153-22.345.245-.776.531-1.165.858-1.165.552 0 1.405.051 2.56.153 1.154.103 2.018.153 2.59.153.552 0 1.364-.036 2.437-.107a40.09 40.09 0 0 1 2.406-.107c.388 0 .746.337 1.073 1.012 1.001 2.146 3.923 9.502 8.766 22.069 4.864 12.648 7.295 19.248 7.295 19.8zM60.856 26.572c-.429.899-1.155 2.851-2.176 5.854-1.104 3.188-1.655 5.058-1.655 5.609 0 .368.613.572 1.839.613.633.042 1.675.062 3.126.062 1.349 0 2.094-.164 2.238-.49.041-.102.061-.246.061-.429 0-.674-.47-2.534-1.41-5.579-.92-2.943-1.594-4.822-2.023-5.64z" style="fill:#fcfcfc" transform="translate(-30.263 -3.854)"/><path d="M70.179 56.73c-1.244-.195-2.267-1.336-2.477-2.504-.401-1.76-.81-3.068-1.042-3.666a44.16 44.16 0 0 0-1.461-.061c-1.344-.035-3.31-.054-5.876-.051-2.218-.013-3.863.052-4.599.111a6.376 6.376 0 0 0-.086.23c-.165.46-.36 1.155-.565 2.047-.214.921-.444 1.667-.771 2.311-.327.61-.76 1.283-1.759 1.575-1.11.234-3.293.271-7.33.286-2.46-.043-3.881-.066-5.139-.697-.409-.204-1.053-.806-1.051-1.692.025-.493.086-.563.165-.892.083-.286.193-.646.341-1.098.296-.904.732-2.168 1.312-3.807 1.157-3.277 2.892-8.043 5.203-14.311 4.999-13.528 7.735-21.032 8.129-22.276.156-.481.321-.898.621-1.312.271-.393.859-.902 1.667-.902.642 0 1.515.056 2.693.158 1.131.101 1.969.148 2.458.148.489 0 1.283-.033 2.337-.104 1.09-.072 1.91-.109 2.506-.109.646-.006 1.227.309 1.587.66.374.357.619.754.845 1.217 1.053 2.261 3.955 9.575 8.806 22.165 4.265 11.096 6.641 17.47 7.221 19.425.083.335.148.411.175.915a2.157 2.157 0 0 1-.631 1.527c-.389.385-.82.565-1.25.689-1.056.25-2.82.279-6.086.296-2.975-.007-4.825-.068-5.943-.278Zm10.684-2.843c-.045-.137-.096-.29-.153-.456-.296-.874-.749-2.138-1.355-3.78-1.21-3.289-3.034-8.097-5.463-14.417-4.833-12.545-7.776-19.945-8.715-21.953a3.19 3.19 0 0 0-.083-.161c-.471.012-1.127.044-1.945.1a41.003 41.003 0 0 1-2.537.109c-.658 0-1.543-.053-2.724-.158a45.698 45.698 0 0 0-1.822-.131 2.566 2.566 0 0 0-.034.104c-.462 1.449-3.162 8.841-8.175 22.408-3.604 9.77-5.811 15.927-6.573 18.312.644.089 1.644.146 2.929.145 3.354.012 5.656-.081 6.385-.161l.034-.063c.144-.278.341-.839.516-1.618.224-.964.438-1.745.662-2.378.249-.641.403-1.11.938-1.657l.049-.045.029-.022c.395-.294.565-.298.74-.357.168-.042.319-.066.485-.088.331-.043.719-.074 1.207-.099.968-.047 2.314-.07 4.066-.07 3.88 0 6.376.039 7.622.125.473.056.592-.002 1.192.214l.049.022.051.027c.639.384.75.717.95 1.042.17.329.314.693.467 1.129.298.871.614 2.031.968 3.529.047.197.093.236.093.238.004-.004 0 0 .053.014.569.122 2.479.224 5.353.218 2.235.009 3.918-.058 4.741-.122zm-14.357-3.661.001-.001zm-7.693-10.078c-1.048-.095-1.737-.017-2.697-.771-.316-.271-.606-.82-.592-1.342.022-.687.193-1.233.475-2.24a96.22 96.22 0 0 1 1.26-3.853c1.034-3.03 1.749-4.974 2.243-6.016l1.291-2.705 1.392 2.653c.539 1.042 1.188 2.905 2.128 5.896.945 3.132 1.441 4.841 1.478 6.021a2.69 2.69 0 0 1-.189 1.032c-.514.98-1.208 1.083-1.718 1.229-.553.119-1.155.156-1.891.158-1.472 0-2.525-.019-3.18-.062zm3.882-2.959c-.174-.828-.59-2.444-1.248-4.529-.214-.69-.417-1.323-.606-1.896-.228.644-.476 1.362-.744 2.153-.655 1.867-1.114 3.336-1.361 4.226.071.004.146.007.225.009.563.037 1.595.06 3.03.058.266.003.505-.006.704-.021zm-3.167-9.921 1.328-.697z" style="fill:#9fcfff" transform="translate(-30.263 -3.854)"/><path d="M117.99 11.767c0-.449-.082.225-.246 2.023-.225 2.269-.398 5.17-.521 8.705-.164 4.005-.245 8.563-.245 13.671 0 8.439.235 14.447.705 18.023.041.388.061.634.061.735 0 .225-.153.357-.459.399-.736.102-3.444.153-8.123.153-1.104 0-1.737-.214-1.9-.644-.042-.776-.082-1.553-.123-2.33a.932.932 0 0 0-.245-.49c-.123.061-.276.184-.459.368-2.207 2.167-4.966 3.249-8.276 3.249-4.312 0-7.766-1.512-10.36-4.536-2.473-2.881-3.709-6.519-3.709-10.912 0-4.455 1.216-8.123 3.647-11.004 2.575-3.065 6.048-4.598 10.422-4.598 3.085 0 5.486.981 7.203 2.942.286.327.49.491.613.491.184 0 .276-.266.276-.797 0-1.574-.041-3.924-.123-7.05-.082-3.126-.123-5.466-.123-7.019 0-.592.163-.93.49-1.011 1.308-.062 3.106-.184 5.395-.368 4.087-.51 5.896-.766 5.425-.766.45 0 .675.256.675.766zm-11.555 28.169c0-1.614-.563-3.029-1.686-4.245-1.124-1.216-2.483-1.824-4.077-1.824-1.676 0-3.009.608-4 1.824-.991 1.216-1.487 2.672-1.487 4.368 0 1.655.5 3.055 1.502 4.199 1.022 1.226 2.35 1.839 3.985 1.839 1.635 0 3.004-.613 4.107-1.839 1.103-1.226 1.656-2.666 1.656-4.322z" style="fill:#fcfcfc" transform="translate(-30.263 -3.854)"/><path d="M86.66 52.069c-2.73-3.168-4.08-7.219-4.072-11.888-.008-4.721 1.313-8.795 4-11.969 2.834-3.408 6.853-5.155 11.571-5.133 2.502-.014 4.754.611 6.571 1.873a416.574 416.574 0 0 0-.103-4.749c-.083-3.132-.124-5.48-.124-7.057.004-.432.045-.867.273-1.353.208-.481.759-.987 1.354-1.114l.146-.037.146-.006c1.279-.06 3.067-.183 5.345-.366 3.046-.378 4.922-.642 5.188-.695l.027-.006c.2-.044.2-.045.331-.069.489-.014 1.18.175 1.632.701.365.423.495.889.531 1.296l.005.054c.006.095.006.15.006.216-.026.109-.036.16-.048.215-.008.056-.033.181-.051.35-.037.343-.088.878-.154 1.605-.22 2.22-.393 5.096-.514 8.617-.164 3.98-.245 8.519-.245 13.61-.002 8.407.239 14.393.697 17.869.041.416.065.629.067.89.023.444-.216 1.067-.631 1.402-.405.341-.804.436-1.122.483-.999.127-3.602.162-8.327.167-.65-.002-1.217-.052-1.784-.241-.543-.173-1.223-.592-1.52-1.369l-.082-.22-.012-.234-.002-.032c-2.175 1.5-4.765 2.261-7.604 2.25h-.083c-4.618.001-8.575-1.721-11.412-5.06Zm2.222-21.925c-2.175 2.588-3.285 5.848-3.293 10.037.008 4.118 1.13 7.341 3.346 9.935 2.337 2.693 5.256 3.992 9.224 4.013 2.986-.014 5.281-.929 7.215-2.81.249-.24.467-.448.851-.649l1.036-.516.762.872c.28.319.537.754.603 1.291l.008.056.002.053.081 1.534c.124.011.273.019.445.018 3.327.003 5.715-.031 6.973-.079-.445-3.747-.657-9.62-.659-17.732.002-5.125.083-9.7.247-13.723.124-3.554.298-6.483.526-8.788l.089-.952-.122.017c-.929.129-2.307.306-4.142.536l-.021.002-.045.004c-1.797.145-3.296.251-4.502.322.006 1.521.045 3.707.12 6.542.082 3.134.124 5.492.124 7.089-.064.532.109.97-.615 1.828-.265.273-.75.483-1.162.468-.731-.041-.954-.3-1.182-.45a4.345 4.345 0 0 1-.559-.551c-1.423-1.603-3.295-2.411-6.074-2.43-4.03.022-6.959 1.338-9.276 4.063zm28.104-17.388.15-.169zm2.243-.296c-59.978 71.026-29.989 35.513 0 0zm.154-.304c-60.08 71.229-30.04 35.614 0 0zm-2.554-2.537c-58.378 72.92-29.189 36.46 0 0zm-21.27 35.627c-1.25-1.412-1.885-3.235-1.875-5.188-.008-1.984.608-3.836 1.825-5.316 1.24-1.558 3.128-2.398 5.162-2.376 1.981-.017 3.83.82 5.178 2.306 1.357 1.449 2.097 3.297 2.086 5.265a7.783 7.783 0 0 1-2.041 5.324 6.826 6.826 0 0 1-5.223 2.335h-.078c-1.978 0-3.815-.852-5.034-2.35zm2.275-8.608c-.767.954-1.141 2.014-1.149 3.42.01 1.356.376 2.335 1.153 3.24.785.904 1.572 1.274 2.833 1.299 1.258-.021 2.121-.405 2.993-1.342.87-.984 1.258-1.998 1.271-3.317-.012-1.264-.396-2.247-1.287-3.228-.9-.945-1.768-1.326-2.977-1.342-1.318.022-2.097.398-2.837 1.27z" style="fill:#9fcfff" transform="translate(-30.263 -3.854)"/><path d="M152.014 33.99c0 3.494-.113 5.558-.337 6.191-.47 1.451-1.88 3.914-4.23 7.387-2.043 2.983-3.791 5.313-5.241 6.988-.532.634-2.136.95-4.813.95-2.33 0-3.842-.082-4.536-.245a2.098 2.098 0 0 1-1.073-.613c-1.226-1.328-2.973-3.637-5.242-6.927-2.432-3.535-3.882-5.957-4.353-7.265-.511-1.41-.766-3.525-.766-6.345 0-.797.01-1.997.031-3.602.02-1.604.03-2.815.03-3.632 0-.531.357-.797 1.073-.797 1.042 0 2.61.031 4.705.092 2.095.062 3.663.092 4.705.092.47 0 .705.317.705.95 0 .572-.041 1.436-.123 2.59-.082 1.155-.123 2.028-.123 2.621 0 2.125.061 3.862.184 5.211.061.695.653 2.003 1.777 3.923 1.165 2.023 2.013 3.035 2.544 3.035.51 0 1.328-.991 2.452-2.974 1.083-1.859 1.665-3.126 1.747-3.801.163-1.451.245-3.208.245-5.272 0-.592-.062-1.486-.184-2.682-.123-1.196-.184-2.079-.184-2.651 0-.633.214-.95.644-.95.49 0 1.221.01 2.191.03.971.021 1.701.031 2.192.031.49 0 1.23-.041 2.222-.123.991-.082 1.732-.123 2.222-.123.511 0 .848.266 1.011.797.351 1.167.525 3.538.525 7.114z" style="fill:#fcfcfc" transform="translate(-30.263 -3.854)"/><path d="M132.509 56.719a3.585 3.585 0 0 1-1.828-1.054c-1.324-1.437-3.085-3.772-5.375-7.094-2.46-3.593-3.93-5.986-4.528-7.604-.61-1.708-.849-3.942-.855-6.855 0-.81.01-2.015.031-3.622a298.4 298.4 0 0 0 .031-3.613c-.029-.584.275-1.386.874-1.801.58-.417 1.166-.489 1.7-.496 1.069 0 2.646.031 4.749.093 2.086.062 3.646.092 4.66.092.555-.029 1.334.265 1.733.843.403.559.467 1.114.473 1.607 0 .64-.043 1.521-.125 2.695a37.903 37.903 0 0 0-.12 2.514c0 2.097.06 3.796.177 5.081-.035.109.481 1.476 1.585 3.305.47.84.915 1.489 1.23 1.897.305-.4.706-1.021 1.169-1.842 1.057-1.766 1.577-3.087 1.554-3.215.154-1.373.237-3.079.237-5.104 0-.493-.058-1.36-.177-2.528-.125-1.225-.191-2.131-.191-2.804.006-.479.056-.997.417-1.554.354-.578 1.153-.933 1.725-.896.51 0 1.248.01 2.224.029.964.023 1.688.031 2.161.031.411 0 1.128-.037 2.099-.117 1.013-.082 1.776-.127 2.345-.127 1.071-.092 2.253.888 2.448 1.869.438 1.523.574 3.893.584 7.54 0 1.764-.027 3.174-.086 4.251-.072 1.1-.115 1.766-.323 2.403-.59 1.772-2.035 4.23-4.419 7.772-2.064 3.014-3.835 5.379-5.33 7.106-.697.777-1.515 1.014-2.46 1.219-.956.187-2.103.265-3.5.267-2.394-.008-3.882-.063-4.889-.288zm8.564-3.147c1.391-1.607 3.113-3.898 5.13-6.844 2.318-3.412 3.694-5.879 4.06-7.048.006-.002.127-.639.168-1.604.054-.986.083-2.355.083-4.086.009-3.174-.164-5.417-.384-6.402-.422.015-1.013.051-1.748.11-1.015.084-1.776.127-2.345.127-.51 0-1.248-.008-2.224-.029-.492-.01-.922-.018-1.288-.023.024.485.077 1.141.159 1.941.125 1.223.193 2.144.193 2.834 0 2.105-.083 3.912-.257 5.454-.185 1.207-.83 2.421-1.93 4.36-.588 1.034-1.102 1.831-1.605 2.444-.539.563-.907 1.18-2.152 1.289-1.237-.104-1.632-.719-2.185-1.295-.518-.623-1.05-1.435-1.655-2.481-1.151-2.022-1.817-3.271-1.975-4.545-.129-1.42-.191-3.192-.191-5.348 0-.658.043-1.552.127-2.726.056-.794.092-1.447.109-1.939-1.006-.011-2.317-.04-3.944-.088a198.055 198.055 0 0 0-4.236-.091c-.004.766-.014 1.748-.029 2.948a298.22 298.22 0 0 0-.031 3.583c-.006 2.724.265 4.719.678 5.835.341.995 1.772 3.445 4.177 6.921 2.245 3.26 3.979 5.544 5.102 6.757a.59.59 0 0 0 .321.175c.384.104 1.92.213 4.193.206 2.075.036 3.46-.293 3.679-.435z" style="fill:#9fcfff" transform="translate(-30.263 -3.854)"/><path d="M184.259 38.618c0 2.064-.664 3.239-1.992 3.525-.225.041-2.34.266-6.345.674-2.411.266-6.007.582-10.789.95.286 1.329 1.154 2.34 2.605 3.034 1.185.572 2.533.858 4.046.858 1.818 0 3.647-.49 5.486-1.471l2.33-1.471c.429.204 1.149 1.247 2.161 3.126 1.011 1.88 1.517 3.076 1.517 3.586 0 .143-.153.378-.459.705-2.494 2.677-6.366 4.015-11.617 4.015-4.863 0-8.787-1.42-11.77-4.26-3.065-2.881-4.598-6.733-4.598-11.556 0-4.7 1.369-8.552 4.107-11.556 2.82-3.106 6.56-4.659 11.219-4.659 3.923 0 7.254 1.431 9.992 4.292 2.738 2.861 4.107 6.265 4.107 10.208zm-10.728-1.87c0-1.267-.45-2.38-1.349-3.341-.899-.96-1.972-1.44-3.218-1.44-1.288 0-2.35.542-3.188 1.625-.777 1.001-1.165 2.176-1.165 3.525 0 .552.286.828.858.828 1.512 0 3.862-.235 7.05-.705.675-.103 1.012-.267 1.012-.492z" style="fill:#fcfcfc" transform="translate(-30.263 -3.854)"/><path d="M158.404 52.984c-3.39-3.167-5.088-7.518-5.071-12.648-.01-4.985 1.484-9.273 4.496-12.564 3.092-3.431 7.345-5.17 12.33-5.151 4.291-.017 8.102 1.622 11.076 4.755 2.987 3.1 4.537 6.952 4.524 11.245-.004 1.188-.179 2.243-.692 3.166-.502.927-1.452 1.622-2.533 1.833-.199.034-.732.095-1.65.193.314.286.521.602.811.989.411.596.863 1.363 1.386 2.333.52.966.917 1.766 1.198 2.432.275.691.473 1.151.498 1.865-.025.606-.22.861-.358 1.104a4.71 4.71 0 0 1-.503.623c-2.874 3.085-7.232 4.5-12.714 4.494h-.061c-5.12-.003-9.477-1.553-12.737-4.669zm1.645-23.195c-2.463 2.714-3.704 6.128-3.714 10.546.014 4.514 1.381 7.865 4.13 10.468 2.687 2.545 6.154 3.836 10.737 3.848 4.986-.008 8.36-1.251 10.48-3.496a8.311 8.311 0 0 0-.165-.42c-.224-.528-.586-1.267-1.077-2.181a21.032 21.032 0 0 0-1.11-1.892l-1.258.794-.049.031-.047.024c-2.017 1.08-4.101 1.649-6.192 1.649-1.7 0-3.287-.325-4.693-1.005-1.75-.81-3.055-2.259-3.425-4.072l-.36-1.68 1.712-.131c4.771-.368 8.358-.683 10.751-.948 3.959-.401 6.208-.647 6.182-.647.296-.084.341-.119.504-.368.15-.25.308-.816.304-1.689-.013-3.596-1.201-6.55-3.69-9.171-2.504-2.59-5.353-3.811-8.91-3.828-4.334.018-7.559 1.383-10.11 4.168zm21.728 21.69c.001 0 .001 0 0 0zm-13.386-6.029c.958.462 2.066.709 3.392.711 1.529-.002 3.087-.402 4.728-1.267l1.189-.751-1.614.166c-2 .221-4.781.473-8.354.759.188.129.406.255.659.382zm-4.607-6.634c-.524-.504-.681-1.186-.674-1.7-.006-1.634.496-3.187 1.48-4.442 1.04-1.39 2.656-2.232 4.375-2.208 1.636-.016 3.192.693 4.313 1.916 1.13 1.192 1.766 2.74 1.753 4.366-.019.973-.744 1.493-1.098 1.641-.409.193-.769.265-1.196.335-3.226.473-5.608.718-7.267.72h-.023c-.507-.001-1.149-.136-1.663-.628zm3.176-4.306a3.93 3.93 0 0 0-.802 1.919c1.331-.055 3.268-.258 5.745-.617-.14-.486-.399-.922-.817-1.381-.678-.697-1.269-.948-2.122-.964-.857.025-1.367.265-2.004 1.043z" style="fill:#9fcfff" transform="translate(-30.263 -3.854)"/><path d="M218.098 54.373c0 .551-.286.869-.858.95-.572.081-2.064.123-4.475.123-2.575 0-4.169-.062-4.782-.184-.613-.123-.919-.541-.919-1.257 0-.96.03-2.411.092-4.353.062-1.941.092-3.402.092-4.383 0-.756-.021-1.885-.061-3.387a131.295 131.295 0 0 1-.062-3.387c0-2.799-1.216-4.199-3.647-4.199-.797 0-1.727.348-2.789 1.042-1.145.777-1.717 1.543-1.717 2.299v16.552c0 .674-.317 1.053-.95 1.134-.715.081-2.176.123-4.383.123-2.391 0-3.944-.062-4.659-.184-.634-.102-.95-.439-.95-1.012 0-1.594.01-3.995.031-7.203.02-3.208.03-5.619.03-7.233 0-5.088-.398-9.083-1.195-11.985a2.181 2.181 0 0 1-.061-.46c0-.327.153-.552.459-.674 1.288-.143 3.004-.368 5.149-.674 3.249-.633 5.078-.95 5.487-.95.225 0 .398.69.521 2.069s.296 2.069.521 2.069c-.225 0 .874-.71 3.295-2.13s4.541-2.13 6.36-2.13c2.595 0 4.761.613 6.498 1.839 1.941 1.41 2.912 3.372 2.912 5.885v9.778c0 1.329.01 3.316.031 5.962.019 2.645.03 4.632.03 5.96z" style="fill:#fcfcfc" transform="translate(-30.263 -3.854)"/><path d="M207.688 56.732c-.573-.103-1.21-.438-1.605-.991-.4-.549-.52-1.174-.52-1.737 0-.988.031-2.448.093-4.398.062-1.932.092-3.386.092-4.335 0-.729-.021-1.852-.062-3.346a137.374 137.374 0 0 1-.062-3.429c0-1.198-.27-1.86-.545-2.167-.271-.298-.654-.518-1.603-.532-.352-.01-1.046.189-1.947.783-.481.325-.785.619-.927.814-.148.201-.129.243-.131.245V54.19c.002.559-.138 1.215-.588 1.753-.448.541-1.106.804-1.694.872-.861.095-2.316.129-4.551.132-2.436-.004-3.967-.052-4.898-.204-.524-.083-1.108-.296-1.568-.783-.464-.483-.653-1.159-.643-1.708 0-1.602.01-4.002.031-7.213.021-3.207.031-5.616.031-7.225.002-5.007-.401-8.898-1.143-11.587l-.008-.031-.011-.039a3.752 3.752 0 0 1-.096-.788c-.076-.808.633-1.842 1.402-2.065l.191-.078.202-.021c1.261-.14 2.964-.363 5.1-.669 3.279-.628 4.887-.94 5.702-.964a1.678 1.678 0 0 1 1.457.88c.167.293.23.522.296.771.105.425.175.907.235 1.507.45-.271.979-.585 1.591-.943 2.561-1.497 4.902-2.331 7.118-2.337 2.826-.004 5.334.678 7.379 2.125 2.31 1.64 3.562 4.204 3.531 7.1v9.778c0 1.319.01 3.305.031 5.949.021 2.649.031 4.639.031 5.975.006.522-.154 1.166-.602 1.655-.442.491-1.036.711-1.546.779-.792.107-2.236.134-4.685.138-2.63-.012-4.159-.047-5.078-.217zm5.077-2.785c1.82.003 3.152-.029 3.831-.07-.002-1.304-.012-3.123-.028-5.453a908.419 908.419 0 0 1-.033-5.973v-9.778c-.031-2.131-.72-3.492-2.275-4.66-1.445-1.018-3.269-1.562-5.634-1.564-1.422-.008-3.318.58-5.602 1.924-1.782 1.036-2.915 1.759-3.027 1.866-.46.216-.651.428-1.582.366a1.578 1.578 0 0 1-.245-.111 1.747 1.747 0 0 1-.656-.664 2.946 2.946 0 0 1-.296-.773c-.121-.487-.195-1.052-.261-1.784a11.999 11.999 0 0 0-.056-.554c-.122.021-.253.042-.394.067-.896.156-2.159.393-3.778.707l-.037.006-.037.006a213.1 213.1 0 0 1-4.151.558c.74 3.032 1.084 6.925 1.086 11.75 0 1.622-.01 4.035-.031 7.244-.019 2.931-.029 5.188-.031 6.767.686.071 2.119.126 4.111.123 1.805 0 3.123-.033 3.832-.08V37.638c.041-1.587 1.089-2.658 2.396-3.556 1.203-.779 2.368-1.276 3.61-1.287 1.482-.015 2.923.466 3.868 1.566.941 1.095 1.279 2.532 1.279 4.133 0 .732.021 1.852.062 3.347.041 1.509.062 2.646.062 3.428 0 1.009-.031 2.479-.092 4.43-.058 1.816-.087 3.2-.09 4.132.633.063 2.124.122 4.199.116z" style="fill:#9fcfff" transform="translate(-30.263 -3.854)"/><path d="M243.723 46.281c0 .613-.077 1.543-.23 2.79-.153 1.247-.23 2.161-.23 2.743 0 .582-.061.956-.184 1.119-.123.164-.46.398-1.012.705-2.636 1.451-5.559 2.176-8.766 2.176-5.906 0-8.858-2.258-8.858-6.774 0-1.349.051-3.376.153-6.084.102-2.708.153-4.735.153-6.084 0-.899-.521-1.349-1.563-1.349h-.398a3.95 3.95 0 0 1-.398.031c-.777 0-1.165-.276-1.165-.828 0-.327.025-.828.077-1.502a22.05 22.05 0 0 0 .077-1.502c0-.429-.026-1.083-.077-1.961a37.396 37.396 0 0 1-.077-1.962c0-.408.654-.633 1.962-.674.736-.02 1.134-.225 1.195-.613.123-.776.164-2.002.123-3.678-.144-2.485-.295-5.413.551-7.326.552 0 1.338.123 2.36.368 1.165.266 1.972.419 2.421.46 1.042.143 2.615.337 4.72.582.511.042.767.215.767.521 0 .817-.067 2.053-.199 3.708-.133 1.655-.199 2.902-.199 3.74 0 1.001.296 1.502.889 1.502.715 0 1.798-.031 3.249-.092a85.344 85.344 0 0 1 3.28-.092c.449 0 .674.153.674.46 0 .47-.051 1.175-.153 2.115-.103.94-.153 1.645-.153 2.115 0 .491.01 1.206.031 2.146.02.94.031 1.655.031 2.146 0 .429-.296.644-.889.644-.409 0-1.093-.015-2.054-.046a72.469 72.469 0 0 0-2.053-.046h-2.299c-.307 0-.46.45-.46 1.349v2.176c.02.981.031 1.707.031 2.176 0 1.716.194 2.902.582 3.556.552.878 1.635 1.318 3.249 1.318.511 0 1.242-.117 2.192-.353.95-.235 1.619-.353 2.008-.353.427-.001.642.224.642.673z" style="fill:#fcfcfc" transform="translate(-30.263 -3.854)"/><path d="M233.302 57.313c-3.133-.004-5.678-.58-7.557-2.002-1.893-1.423-2.826-3.707-2.804-6.272.002-1.385.053-3.422.156-6.14.097-2.596.148-4.561.152-5.875l-.063-.001h-.328a5.077 5.077 0 0 1-.47.031c-.557-.008-1.147-.076-1.741-.485-.615-.403-.954-1.231-.923-1.844 0-.401.029-.921.081-1.614.049-.656.074-1.137.072-1.39 0-.372-.022-1.011-.074-1.875a38.706 38.706 0 0 1-.078-2.048c-.014-.514.259-1.064.58-1.35a2.43 2.43 0 0 1 .923-.545c.539-.178 1.081-.241 1.742-.272.031-.429.05-.978.049-1.625 0-.349-.004-.731-.013-1.126a756.803 756.803 0 0 0-.117-3.659l-.002-.026a2.196 2.196 0 0 1-.005-.132h-.001c.043-1.893.024-2.96.578-4.076.177-.362.748-.98 1.597-.979.767.002 1.624.15 2.695.403 1.13.261 1.93.407 2.224.43l.039.004.029.004c1.021.14 2.59.333 4.637.574.399.039.82.104 1.295.415.489.288.884 1.026.849 1.602 0 .894-.07 2.15-.204 3.827-.131 1.631-.195 2.853-.193 3.616.65-.012 1.512-.04 2.573-.084a84.488 84.488 0 0 1 3.343-.092c.388.006.841.039 1.351.374.532.325.859 1.077.824 1.585-.002.573-.058 1.307-.163 2.277-.099.909-.146 1.585-.144 1.953 0 .468.011 1.178.031 2.113.019.946.031 1.665.031 2.177.029.542-.275 1.317-.843 1.698-.551.384-1.079.44-1.546.446-.444 0-1.133-.016-2.103-.047a71.013 71.013 0 0 0-2.004-.045h-1.26v1.994c.021.986.031 1.716.031 2.208-.021 1.595.243 2.633.354 2.756.158.266.586.601 1.978.617.29.004.948-.086 1.832-.308 1.011-.243 1.702-.386 2.368-.397.456-.008 1.1.138 1.568.633.467.493.578 1.096.576 1.542-.002.731-.084 1.693-.241 2.972-.152 1.215-.222 2.101-.22 2.562-.047.707.055 1.167-.483 2.016-.485.582-.859.742-1.488 1.121-2.857 1.575-6.049 2.362-9.475 2.362-.006-.003-.011-.003-.015-.003zm-10.515-23.292h.399c.721.002 1.497.146 2.152.703.662.557.927 1.428.911 2.146 0 1.385-.052 3.422-.154 6.142-.103 2.697-.152 4.713-.152 6.027.025 1.951.565 3.055 1.626 3.889 1.075.834 2.96 1.39 5.733 1.384 2.982-.002 5.63-.664 8.037-1.986.168-.093.311-.179.417-.247.004-.074.007-.164.007-.265.002-.708.084-1.649.24-2.927.079-.64.136-1.192.172-1.644-.219.045-.47.102-.743.171-1.018.247-1.819.393-2.553.397-1.835.014-3.573-.526-4.539-2.054-.646-1.151-.771-2.485-.792-4.321 0-.448-.01-1.169-.031-2.177v-2.175c.063-.808-.074-1.41.709-2.337.286-.298.802-.526 1.25-.512h2.3c.442 0 1.13.016 2.101.045.559.018 1.023.031 1.388.039-.005-.356-.013-.773-.023-1.25-.021-.946-.031-1.667-.031-2.177 0-.574.056-1.31.161-2.278.037-.333.066-.635.088-.902-.623.014-1.403.04-2.333.08a84.242 84.242 0 0 1-3.313.092c-.719.045-1.62-.454-1.957-1.11-.362-.639-.423-1.246-.432-1.891.002-.913.07-2.183.204-3.858a72.73 72.73 0 0 0 .174-2.689c-1.797-.211-3.17-.381-4.131-.513-.604-.062-1.411-.223-2.606-.492a15.703 15.703 0 0 0-1.104-.231 18.824 18.824 0 0 0-.081 1.915l.002.033.03.898c.021.633.049 1.577.091 2.851.008.425.014.826.014 1.207-.002 1.131-.045 2.017-.156 2.738-.08.672-.625 1.313-1.141 1.546-.521.257-.997.314-1.488.333a6.374 6.374 0 0 0-.487.026c.012.293.029.636.051 1.024.051.894.08 1.562.08 2.047-.002.403-.029.921-.082 1.616-.02.256-.035.485-.046.685h.038zm3.047-14.599z" style="fill:#9fcfff" transform="translate(-30.263 -3.854)"/><path d="M278.481 27.4c0 1.513-.072 3.781-.215 6.805-.143 3.024-.214 5.292-.214 6.805 0 1.471.051 3.678.153 6.621.102 2.943.153 5.14.153 6.59 0 .552-.255.899-.766 1.042-.777.204-2.421.307-4.935.307-2.228 0-3.78-.062-4.659-.184-.389-.061-.634-.307-.736-.735l-.184-1.839c-.102-.939-.245-1.41-.429-1.41.286 0-.747.695-3.096 2.084-2.35 1.39-4.485 2.084-6.406 2.084-5.416 0-8.624-2.442-9.625-7.326-.45-2.269-.675-5.558-.675-9.87 0-4.659.378-8.337 1.134-11.034.225-.838.644-1.257 1.257-1.257.939 0 2.37.01 4.291.031 1.92.021 3.351.03 4.292.03.633 0 .95.266.95.797 0 .143-.021.357-.062.644a55.371 55.371 0 0 0-.644 8.46c0 3.555.112 5.987.337 7.295.368 2.248 1.706 3.372 4.016 3.372.899 0 1.875-.398 2.927-1.195s1.599-1.625 1.64-2.483c.041-.756.062-5.885.062-15.387 0-.674.051-1.073.153-1.195.123-.204.49-.307 1.103-.307 1.001 0 2.508.011 4.521.031 2.012.021 3.52.031 4.521.031.613 0 .97.153 1.073.46.042.161.063.406.063.733z" style="fill:#fcfcfc" transform="translate(-30.263 -3.854)"/><path d="M267.765 56.865c-.952-.082-1.842-1.042-1.961-1.871l-.024-.096-.01-.101-.083-.845c-.396.243-.851.516-1.368.823-2.502 1.476-4.882 2.29-7.17 2.294-2.925.002-5.439-.664-7.377-2.14-1.94-1.47-3.174-3.692-3.718-6.395-.483-2.442-.701-5.794-.705-10.163.004-4.74.378-8.526 1.186-11.422.158-.578.401-1.139.872-1.614.46-.483 1.188-.769 1.835-.754.95 0 2.382.01 4.307.031 1.917.021 3.344.031 4.275.031.512.002 1.12.095 1.675.551.565.457.792 1.203.775 1.746a6.5 6.5 0 0 1-.08.874 53.887 53.887 0 0 0-.625 8.23c-.004 3.513.119 5.934.316 7.052.15.888.434 1.342.765 1.622.333.279.847.487 1.772.491.44.006 1.125-.21 2.021-.89.876-.668 1.044-1.133 1.048-1.369.035-.623.06-5.832.058-15.306.002-.376.015-.69.051-.995.062-.278.032-.514.32-.97l-.003-.002c.37-.592.882-.795 1.251-.902.391-.107.747-.13 1.139-.132 1.009 0 2.52.01 4.537.031 2.008.021 3.513.031 4.505.031.43.002.851.041 1.318.236.458.177.991.645 1.176 1.248l.021.06.014.056c.088.378.101.701.105 1.096 0 1.558-.074 3.837-.216 6.875-.144 3.011-.214 5.267-.214 6.734 0 1.437.051 3.636.152 6.567.103 2.954.154 5.16.154 6.644.004.5-.123 1.075-.483 1.563-.355.489-.888.792-1.402.929-1.11.277-2.74.347-5.315.357-2.265-.005-3.833-.059-4.894-.205zm9.093-2.982c-.007-1.418-.059-3.492-.151-6.202-.103-2.952-.154-5.169-.154-6.672 0-1.558.072-3.84.216-6.875.132-2.811.204-4.963.211-6.43-.997-.002-2.385-.012-4.168-.031a497.035 497.035 0 0 0-4.263-.03v.001c-.002 9.53-.019 14.58-.063 15.46-.078 1.488-1.003 2.681-2.232 3.607-1.208.913-2.477 1.492-3.832 1.499-1.388.004-2.697-.347-3.702-1.194-1.007-.843-1.577-2.074-1.792-3.422-.255-1.511-.355-3.953-.359-7.55 0-2.843.206-5.649.619-8.402-.915-.003-2.137-.013-3.671-.03a449.53 449.53 0 0 0-4.037-.03 1.877 1.877 0 0 0-.049.162c-.701 2.483-1.081 6.053-1.079 10.629-.002 4.257.228 7.482.644 9.569.458 2.191 1.33 3.632 2.596 4.602 1.27.968 3.067 1.523 5.56 1.525 1.552.004 3.443-.571 5.641-1.875 1.569-.921 2.618-1.607 2.789-1.747l.023-.021c.48-.28.366-.25 1.049-.526.032 0 .063.002.093.004.118.004.275.018.509.115.041.017.08.034.117.053a1.629 1.629 0 0 1 .643.56c.185.275.252.481.318.685.119.401.181.81.241 1.344l.13 1.293c.831.073 2.178.117 3.957.115 2.018.007 3.502-.083 4.196-.186z" style="fill:#9fcfff" transform="translate(-30.263 -3.854)"/><path d="M303.861 36.166c0 .797-.439 1.195-1.318 1.195-.388 0-.955-.025-1.701-.077a27.012 27.012 0 0 0-1.67-.077c-1.696 0-2.851.266-3.464.797-.613.532-.92 1.604-.92 3.218 0 .879.016 2.212.047 4 .03 1.789.046 3.122.046 4 0 .593.04 1.477.122 2.651.082 1.175.123 2.049.123 2.621 0 .49-.338.766-1.012.828-.98.081-2.482.123-4.506.123-1.941 0-3.494-.062-4.659-.184-.674-.082-1.011-.418-1.011-1.012 0-1.634.01-4.081.031-7.341.02-3.259.03-5.706.03-7.341 0-4.802-.439-8.756-1.318-11.862a2.181 2.181 0 0 1-.061-.46c0-.306.153-.51.459-.613 1.124-.123 2.769-.347 4.935-.674 3.229-.633 4.894-.95 4.996-.95.368 0 .603.644.705 1.931.102 1.287.286 1.931.552 1.931-.286 0 .552-.536 2.514-1.609 1.961-1.073 3.852-1.609 5.67-1.609 1.145 0 1.717.245 1.717.736 0 .593-.062 1.43-.184 2.513-.123 1.165-.194 2.003-.215 2.514 0 .593.01 1.379.03 2.36.041 1.206.062 2.003.062 2.391z" style="fill:#fcfcfc" transform="translate(-30.263 -3.854)"/><path d="M284.769 56.751c-.54-.066-1.148-.255-1.641-.742-.497-.486-.703-1.191-.69-1.758 0-1.641.01-4.089.031-7.35.019-3.259.029-5.703.029-7.332.002-4.711-.435-8.543-1.262-11.456l-.01-.037-.01-.043a3.701 3.701 0 0 1-.097-.787c-.089-.833.726-1.882 1.484-2.035l.148-.051.165-.019c1.078-.117 2.694-.337 4.823-.659a472.51 472.51 0 0 1 4.636-.892c.297-.043.22-.06.635-.082.546-.013 1.082.291 1.346.596.28.307.41.595.516.872.161.452.244.914.303 1.459.267-.15.562-.313.886-.49 2.13-1.165 4.273-1.793 6.392-1.793.681.008 1.26.051 1.878.305.604.188 1.388 1.035 1.338 1.932 0 .692-.068 1.566-.191 2.671a44.996 44.996 0 0 0-.206 2.356c0 .575.008 1.354.028 2.309.041 1.214.062 2.01.062 2.442.013.653-.208 1.459-.82 2.007-.609.544-1.348.688-1.997.687-.451 0-1.039-.027-1.804-.081a26.864 26.864 0 0 0-1.566-.072c-1.55-.025-2.424.321-2.481.431-.047.002-.427.631-.403 2.084 0 .863.016 2.191.047 3.976.029 1.793.046 3.131.046 4.025 0 .528.037 1.392.119 2.545.082 1.196.126 2.086.126 2.727.022.579-.272 1.327-.804 1.735-.52.413-1.064.534-1.586.587-1.059.087-2.582.126-4.627.126-1.979.001-3.571-.059-4.843-.193zm4.839-2.805c1.747 0 3.098-.031 4.004-.089a66.518 66.518 0 0 0-.106-1.877c-.084-1.195-.125-2.098-.125-2.756 0-.861-.017-2.191-.046-3.974-.03-1.793-.047-3.131-.049-4.027.024-1.773.259-3.261 1.438-4.351 1.168-.953 2.603-1.138 4.447-1.163.434 0 1.006.027 1.772.08.603.042 1.082.064 1.413.07-.007-.424-.026-1.115-.059-2.053a97.604 97.604 0 0 1-.028-2.453c.022-.577.097-1.428.223-2.62a34.88 34.88 0 0 0 .146-1.581 3.788 3.788 0 0 0-.188-.002c-1.521.002-3.157.447-4.952 1.429-1.278.69-2.115 1.202-2.229 1.298-.693.393.051-.048.059-.055-.675.394-.622.41-1.063.548-.051 0-.1-.002-.148-.007a1.678 1.678 0 0 1-.56-.153.778.778 0 0 1-.204-.113 1.694 1.694 0 0 1-.502-.487 2.746 2.746 0 0 1-.366-.81c-.139-.499-.209-1.043-.267-1.741a6.025 6.025 0 0 0-.036-.38l-.219.042c-.827.157-2.049.394-3.663.711l-.035.006-.028.004c-1.581.239-2.887.424-3.927.556.803 3.172 1.186 7.017 1.186 11.572 0 1.641-.009 4.087-.029 7.35-.019 2.971-.029 5.266-.03 6.883 1.05.092 2.449.143 4.171.143z" style="fill:#9fcfff" transform="translate(-30.263 -3.854)"/><path d="M335.524 38.618c0 2.064-.665 3.239-1.993 3.525-.225.041-2.34.266-6.345.674-2.411.266-6.008.582-10.789.95.286 1.329 1.154 2.34 2.605 3.034 1.185.572 2.533.858 4.046.858 1.818 0 3.647-.49 5.486-1.471l2.33-1.471c.429.204 1.149 1.247 2.16 3.126 1.012 1.88 1.518 3.076 1.518 3.586 0 .143-.153.378-.46.705-2.493 2.677-6.365 4.015-11.616 4.015-4.864 0-8.787-1.42-11.771-4.26-3.065-2.881-4.598-6.733-4.598-11.556 0-4.7 1.369-8.552 4.107-11.556 2.819-3.106 6.56-4.659 11.218-4.659 3.924 0 7.254 1.431 9.993 4.292 2.739 2.862 4.109 6.265 4.109 10.208zm-10.729-1.87c0-1.267-.449-2.38-1.349-3.341-.899-.96-1.973-1.44-3.219-1.44-1.287 0-2.35.542-3.188 1.625-.776 1.001-1.165 2.176-1.165 3.525 0 .552.286.828.858.828 1.512 0 3.862-.235 7.05-.705.676-.103 1.013-.267 1.013-.492z" style="fill:#fcfcfc" transform="translate(-30.263 -3.854)"/><path d="M309.668 52.983c-3.391-3.166-5.088-7.517-5.071-12.647-.01-4.984 1.483-9.273 4.496-12.565 3.091-3.431 7.345-5.168 12.329-5.15 4.291-.019 8.103 1.622 11.077 4.754 2.984 3.1 4.536 6.95 4.523 11.243-.004 1.189-.178 2.245-.693 3.167-.501.927-1.452 1.622-2.53 1.833-.199.034-.733.095-1.65.193.313.286.521.602.811.989.411.596.864 1.363 1.386 2.334.52.966.915 1.765 1.198 2.431.273.691.474 1.15.496 1.866-.022.606-.219.861-.357 1.103a4.51 4.51 0 0 1-.503.623c-2.874 3.085-7.231 4.5-12.714 4.494h-.051c-5.126 0-9.484-1.548-12.747-4.668zm1.646-23.194c-2.463 2.715-3.706 6.128-3.717 10.546.017 4.512 1.383 7.866 4.132 10.469 2.686 2.542 6.155 3.833 10.736 3.846 4.986-.006 8.361-1.25 10.48-3.497a6.931 6.931 0 0 0-.167-.417c-.221-.53-.583-1.266-1.075-2.183a20.992 20.992 0 0 0-1.11-1.891l-1.259.795-.048.031-.048.025c-2.017 1.078-4.101 1.649-6.19 1.647-1.7.002-3.289-.325-4.694-1.005-1.748-.809-3.056-2.257-3.424-4.072l-.362-1.678 1.713-.132c4.771-.368 8.359-.683 10.753-.948 3.958-.401 6.209-.647 6.18-.647.296-.085.342-.12.505-.368.149-.252.309-.815.305-1.69-.013-3.596-1.202-6.548-3.691-9.17-2.503-2.59-5.353-3.811-8.909-3.828-4.334.015-7.561 1.383-10.11 4.167zm8.34 15.66c.958.464 2.068.71 3.395.71 1.527 0 3.08-.4 4.719-1.261l1.198-.756-1.615.166c-2.001.221-4.782.473-8.355.76.187.129.405.255.658.381zm-4.606-6.632c-.523-.503-.681-1.186-.675-1.701-.006-1.635.496-3.187 1.479-4.442 1.041-1.39 2.656-2.232 4.374-2.208 1.636-.017 3.192.693 4.313 1.916 1.132 1.191 1.767 2.741 1.753 4.365-.017.973-.743 1.492-1.097 1.641-.41.192-.771.265-1.194.335-3.228.474-5.611.718-7.269.72h-.022c-.504.001-1.149-.133-1.662-.626zm3.176-4.306a3.934 3.934 0 0 0-.803 1.917c1.33-.054 3.269-.258 5.746-.617-.139-.486-.398-.922-.816-1.379-.678-.697-1.27-.95-2.124-.966-.856.027-1.366.267-2.003 1.045z" style="fill:#9fcfff" transform="translate(-30.263 -3.854)"/><path d="M395.141 54.281c.041.552-.245.828-.858.828-.389 0-1.507-.225-3.356-.674-1.85-.449-2.988-.756-3.417-.919-4.271 1.676-8.368 2.513-12.292 2.513-6.313 0-11.494-2.104-15.54-6.314-4.005-4.148-6.008-9.39-6.008-15.724 0-6.478 1.941-11.852 5.824-16.123 4.005-4.414 9.205-6.621 15.602-6.621 3.105 0 6.027.593 8.767 1.778 2.962 1.308 5.292 3.147 6.988 5.517.347.491.521.838.521 1.042 0 .654-.914 2.12-2.743 4.398-1.829 2.279-3.009 3.417-3.54 3.417-.122 0-.593-.418-1.41-1.257-1.001-1.001-2.022-1.777-3.064-2.329-1.554-.838-3.271-1.257-5.149-1.257-3.065 0-5.498 1.145-7.296 3.433-1.676 2.104-2.513 4.73-2.513 7.877 0 3.331.868 5.967 2.605 7.908 1.798 2.003 4.342 3.004 7.632 3.004 2.084 0 4.414-.521 6.988-1.563-.062-.674-.245-2.391-.552-5.149-.266-2.125-.398-3.842-.398-5.149 0-.388.133-.624.398-.705.103-.041.266-.062.49-.062.593 0 1.487.057 2.683.168 1.195.113 2.1.169 2.713.169.653 0 1.634-.046 2.942-.138 1.308-.092 2.288-.138 2.942-.138.511 0 .767.337.767 1.011 0 .981-.057 2.463-.169 4.445-.112 1.982-.169 3.463-.169 4.444 0 2.636.194 6.58.583 11.832z" style="fill:#fcfcfc" transform="translate(-30.263 -3.854)"/><path d="M358.597 50.757c-4.284-4.42-6.441-10.122-6.429-16.768-.011-6.771 2.065-12.581 6.214-17.13 4.264-4.726 9.974-7.131 16.712-7.112 3.297-.002 6.433.633 9.373 1.905 3.17 1.398 5.741 3.414 7.606 6.024.38.617.719.923.796 1.907-.05.981-.421 1.536-.912 2.384-.511.817-1.224 1.786-2.161 2.953-1.428 1.761-2.409 2.861-3.359 3.516-.338.206-.68.439-1.351.464-.814-.079-.821-.269-1.021-.354a4.894 4.894 0 0 1-.421-.34 22.92 22.92 0 0 1-1.029-1.002c-.913-.915-1.819-1.596-2.715-2.069-1.332-.717-2.78-1.075-4.438-1.077-2.696.027-4.56.919-6.122 2.867-1.44 1.815-2.18 4.056-2.187 6.944.007 3.083.784 5.292 2.222 6.904 1.49 1.64 3.514 2.49 6.517 2.507 1.566 0 3.363-.34 5.38-1.057-.095-.903-.239-2.233-.433-3.97-.271-2.165-.41-3.928-.41-5.335.002-.363.054-.773.293-1.207a2.026 2.026 0 0 1 1.165-.934l.001.001c.38-.124.637-.121.931-.128.684 0 1.601.06 2.822.175 1.169.11 2.046.163 2.573.163.586 0 1.546-.044 2.836-.135 1.328-.092 2.326-.14 3.049-.14.565-.027 1.351.26 1.77.846.419.569.49 1.148.496 1.665 0 1.036-.059 2.532-.171 4.529-.112 1.967-.167 3.434-.167 4.359 0 2.565.189 6.49.577 11.697l.029.338-1.492.133 1.497-.085c.004.06.006.123.004.186.019.519-.198 1.244-.746 1.692-.54.444-1.13.534-1.613.536-.8-.025-1.79-.263-3.711-.717-1.401-.343-2.367-.588-3.023-.786-4.237 1.604-8.352 2.422-12.332 2.422h-.071c-6.611-.001-12.257-2.285-16.549-6.771zm2.005-31.881c-3.615 3.993-5.423 8.93-5.433 15.113.013 6.024 1.86 10.807 5.589 14.686 3.78 3.912 8.474 5.837 14.458 5.854 3.71 0 7.617-.792 11.746-2.411l.539-.21.542.206c.239.098 1.419.425 3.236.863.985.241 1.763.415 2.293.519-.362-4.992-.544-8.772-.544-11.382 0-1.036.056-2.532.17-4.528.093-1.642.147-2.936.161-3.856-.551.02-1.254.059-2.099.118-1.327.094-2.328.142-3.047.142-.702 0-1.634-.061-2.854-.175a44.548 44.548 0 0 0-1.916-.145c.039 1.118.162 2.533.375 4.234.307 2.763.49 4.474.555 5.179l.101 1.108-1.032.419c-2.703 1.094-5.216 1.671-7.55 1.671-3.58.017-6.644-1.136-8.751-3.503-2.036-2.267-2.994-5.329-2.988-8.907-.006-3.407.928-6.42 2.834-8.805 2.038-2.636 5.042-4.035 8.476-4.007 2.101-.002 4.085.477 5.852 1.432 1.199.636 2.335 1.507 3.437 2.607.171.178.33.337.47.474.035-.032.071-.066.107-.103.513-.492 1.238-1.313 2.13-2.424 1.306-1.591 2.112-2.867 2.348-3.364a5.457 5.457 0 0 0-.176-.264c-1.531-2.136-3.62-3.799-6.364-5.014-2.549-1.103-5.256-1.652-8.171-1.655-6.058.016-10.747 2.025-14.494 6.128zm29.276.605c-.001 0-.001-.001 0 0z" style="fill:#9fcfff" transform="translate(-30.263 -3.854)"/><path d="M430.022 39.936c0 1.574.092 3.913.275 7.019.185 3.106.276 5.436.276 6.989 0 .817-.357 1.256-1.073 1.318-2.533.184-5.436.276-8.705.276-.388 0-.648-.587-.781-1.763-.133-1.175-.291-1.772-.475-1.793-.164.082-.379.256-.645.521-2.288 2.31-4.74 3.464-7.355 3.464-3.985 0-7.285-1.573-9.901-4.72-2.473-2.943-3.708-6.457-3.708-10.544 0-4.72 1.276-8.521 3.831-11.402 2.656-2.983 6.294-4.475 10.912-4.475 3.208 0 5.742 1.124 7.602 3.372.081.103.153.153.215.153.184 0 .393-.495.628-1.486.234-.991.516-1.487.843-1.487.756 0 2.196.215 4.322.644 2.022.409 3.474.756 4.353 1.042.307.123.46.286.46.49 0 .082-.031.296-.093.644-.655 3.697-.981 7.611-.981 11.738zm-9.87.184c0-1.737-.547-3.173-1.64-4.307-1.094-1.134-2.519-1.701-4.275-1.701-1.758 0-3.178.562-4.261 1.686-1.084 1.124-1.625 2.565-1.625 4.322 0 1.655.572 3.076 1.717 4.26 1.145 1.186 2.533 1.778 4.169 1.778 1.736 0 3.156-.567 4.26-1.701 1.104-1.134 1.655-2.579 1.655-4.337z" style="fill:#fcfcfc" transform="translate(-30.263 -3.854)"/><path d="M400.49 52.211c-2.702-3.202-4.069-7.123-4.061-11.509-.009-4.981 1.37-9.205 4.211-12.399 2.942-3.328 7.102-4.998 12.032-4.979 2.761-.018 5.242.79 7.216 2.384.085-.243.185-.472.311-.699.229-.413.743-1.103 1.761-1.132 1.006.006 2.444.241 4.619.674 2.053.415 3.526.764 4.521 1.086l.046.015.046.019c.283.115.588.272.881.58.298.297.534.818.521 1.302-.011.368-.052.51-.115.906-.638 3.604-.958 7.43-.956 11.478-.002 1.518.09 3.841.271 6.93.187 3.123.278 5.469.278 7.078 0 .613-.132 1.3-.604 1.888-.473.594-1.214.883-1.858.925-2.581.188-5.518.28-8.813.28-1.074-.015-1.675-.85-1.858-1.333a4.656 4.656 0 0 1-.29-.947c-2.156 1.755-4.564 2.716-7.109 2.709h-.081c-4.353 0-8.156-1.834-10.969-5.256zm2.393-21.915c-2.272 2.57-3.447 5.946-3.453 10.406.009 3.788 1.111 6.896 3.361 9.586 2.395 2.844 5.161 4.157 8.746 4.18 2.156-.008 4.187-.913 6.296-3.026.329-.318.595-.572 1.034-.802l.397-.199.439.05c.886.148 1.141.674 1.279.889.143.262.201.463.262.68.11.431.186.917.259 1.547.017.165.037.309.059.429 2.8-.013 5.311-.097 7.51-.249-.006-1.499-.096-3.76-.273-6.744-.185-3.123-.279-5.478-.279-7.108 0-4.079.313-7.965.944-11.654-.816-.222-1.989-.49-3.479-.791-1.461-.299-2.607-.484-3.336-.566-.024.084-.05.18-.073.284-.227.835-.291 1.304-.771 1.979-.172.208-.544.637-1.316.662-.934-.067-1.187-.515-1.371-.697-1.599-1.898-3.581-2.805-6.446-2.828-4.304.02-7.422 1.334-9.789 3.972zm11.353 17.363a7.1 7.1 0 0 1-5.247-2.237 7.442 7.442 0 0 1-2.139-5.302c-.013-2.059.674-3.959 2.045-5.362 1.362-1.434 3.271-2.162 5.341-2.146 2.072-.017 3.985.72 5.356 2.16 1.372 1.406 2.071 3.3 2.059 5.347.013 2.066-.692 3.973-2.08 5.383-1.359 1.418-3.24 2.156-5.274 2.156l-.061.001zm-3.182-10.821c-.797.844-1.19 1.825-1.203 3.282.013 1.308.404 2.277 1.296 3.219.908.917 1.816 1.302 3.089 1.318 1.415-.015 2.351-.41 3.186-1.247.818-.858 1.216-1.842 1.229-3.291-.013-1.427-.406-2.405-1.218-3.265-.818-.829-1.756-1.227-3.196-1.244-1.447.019-2.376.414-3.183 1.228z" style="fill:#9fcfff" transform="translate(-30.263 -3.854)"/><path d="M485.103 54.128c0 .716-.307 1.114-.92 1.196-.613.081-2.126.123-4.536.123-2.494 0-4.046-.062-4.659-.184-.613-.122-.92-.623-.92-1.502 0-.939.031-2.345.092-4.214.062-1.87.092-3.274.092-4.215 0-3.576-.041-6.12-.122-7.632-.123-2.431-1.277-3.647-3.464-3.647-.961 0-1.915.404-2.865 1.211-.951.808-1.477 1.701-1.579 2.682-.082.858-.122 3.372-.122 7.54 0 .961.03 2.417.092 4.368.061 1.952.092 3.418.092 4.398 0 .674-.297 1.012-.889 1.012h-9.288c-.572 0-.858-.418-.858-1.257 0-.96.031-2.401.093-4.322.061-1.92.092-3.372.092-4.353 0-.756-.021-1.9-.062-3.433a141.714 141.714 0 0 1-.062-3.463c0-2.922-1.113-4.383-3.341-4.383-.899 0-1.87.348-2.912 1.042-1.145.756-1.716 1.553-1.716 2.391 0 1.86.01 4.639.03 8.337.02 3.698.03 6.467.03 8.306 0 .511-.061.828-.184.95s-.439.204-.95.246c-.92.081-2.371.123-4.353.123-1.287 0-2.748-.062-4.383-.184-.49-.041-.782-.112-.874-.214-.092-.102-.138-.409-.138-.92 0-1.634.01-4.081.03-7.341.021-3.259.031-5.706.031-7.341 0-3.351-.245-7.121-.736-11.31a3.656 3.656 0 0 1-.061-.552c0-.347.143-.583.429-.705.449-.184 1.298-.337 2.544-.46 1.533-.143 2.441-.234 2.729-.276.204-.041 1.011-.255 2.421-.644 1.001-.286 1.809-.429 2.422-.429.388 0 .592.71.613 2.13.02 1.42.102 2.13.245 2.13.204-.082.438-.225.705-.429 1.839-1.43 3.289-2.411 4.353-2.942 1.573-.756 3.279-1.134 5.118-1.134 1.88 0 3.556.419 5.027 1.257 1.655.94 2.728 2.258 3.218 3.954 1.083-1.471 2.575-2.708 4.476-3.709 1.9-1.001 3.749-1.502 5.548-1.502 2.697 0 4.894.624 6.59 1.87 1.921 1.41 2.882 3.423 2.882 6.039 0 1.083-.031 2.712-.093 4.889a191.619 191.619 0 0 0-.092 4.889c0 1.287.031 3.224.092 5.809.062 2.582.093 4.518.093 5.805z" style="fill:#fcfcfc" transform="translate(-30.263 -3.854)"/><path d="M474.693 56.733c-.645-.112-1.33-.556-1.675-1.154-.356-.594-.447-1.211-.451-1.818 0-.971.031-2.385.093-4.266.062-1.86.091-3.255.091-4.165 0-3.562-.042-6.096-.12-7.556-.051-1.007-.306-1.53-.548-1.778-.24-.244-.586-.434-1.418-.446-.526.004-1.12.207-1.894.855-.748.647-.996 1.165-1.058 1.681-.069.695-.118 3.259-.115 7.398 0 .931.029 2.378.092 4.321.06 1.961.091 3.434.093 4.445-.002.541-.113 1.188-.596 1.748-.489.569-1.234.777-1.793.765h-9.29c-.638.034-1.489-.339-1.881-.969-.402-.609-.47-1.207-.476-1.789 0-.99.031-2.439.093-4.369.061-1.913.092-3.356.092-4.306 0-.731-.021-1.866-.063-3.391-.04-1.542-.062-2.703-.062-3.505.005-1.281-.266-2.05-.528-2.378-.264-.314-.508-.48-1.313-.505-.504-.002-1.198.202-2.086.796-.969.647-1.057 1.054-1.042 1.138 0 1.856.01 4.632.029 8.329.021 3.701.031 6.472.031 8.314-.069.643.114 1.1-.625 2.014-.824.678-1.252.566-1.877.676-1.008.088-2.479.128-4.483.128-1.335 0-2.831-.063-4.508-.189a5.12 5.12 0 0 1-.819-.123c-.268-.088-.566-.105-1.045-.583-.426-.529-.406-.813-.472-1.087a5.906 5.906 0 0 1-.053-.836c.002-1.639.011-4.088.031-7.35.021-3.259.032-5.702.03-7.333.002-3.27-.237-6.973-.722-11.103a4.751 4.751 0 0 1-.073-.759c-.073-.74.519-1.801 1.359-2.092.767-.301 1.649-.426 2.974-.567 1.416-.13 2.327-.223 2.604-.259.17-.039 1.008-.259 2.273-.609 1.081-.306 1.988-.482 2.833-.487.577-.017 1.154.335 1.409.674.276.339.386.646.477.943.123.445.181.902.208 1.435 1.225-.893 2.263-1.559 3.173-2.016 1.778-.855 3.723-1.283 5.768-1.281 2.101-.004 4.058.476 5.768 1.451 1.175.658 2.15 1.537 2.866 2.587.972-.902 2.107-1.69 3.389-2.364 2.068-1.091 4.166-1.677 6.246-1.674 2.921-.004 5.47.682 7.478 2.159 2.307 1.66 3.524 4.274 3.495 7.249-.002 1.11-.032 2.747-.095 4.929-.06 2.169-.091 3.792-.091 4.849 0 1.264.031 3.193.091 5.772.063 2.591.093 4.533.093 5.843.002.563-.116 1.195-.54 1.751-.421.562-1.102.868-1.683.933-.812.101-2.286.133-4.731.135-2.548-.007-4.039-.043-4.953-.211zm4.954-2.787c1.9.002 3.271-.03 3.956-.074a285.608 285.608 0 0 0-.093-5.516 272.73 272.73 0 0 1-.093-5.844c0-1.112.032-2.749.093-4.931.062-2.17.093-3.792.093-4.847-.031-2.256-.735-3.667-2.271-4.831-1.384-1.015-3.228-1.576-5.702-1.578-1.518 0-3.118.419-4.848 1.329-1.738.917-3.037 2.008-3.969 3.271l-1.806 2.448-.842-2.922c-.396-1.325-1.148-2.273-2.52-3.067-1.232-.699-2.627-1.058-4.285-1.06-1.633.002-3.101.331-4.449.975-.896.447-2.307 1.386-4.107 2.792-.339.257-.666.472-1.063.632l-.268.107h-.287a1.573 1.573 0 0 1-1.268-.655c-.166-.238-.213-.392-.259-.524a3.69 3.69 0 0 1-.135-.683c-.051-.449-.074-1.011-.085-1.746 0-.204-.009-.388-.021-.549-.319.061-.694.149-1.117.271-1.437.396-2.178.596-2.525.67l-.031.006-.047.006c-.377.053-1.255.141-2.797.285-.645.059-1.18.139-1.551.209.484 4.172.729 7.944.729 11.324 0 1.641-.013 4.091-.031 7.352-.02 3.041-.03 5.375-.031 6.996 1.453.104 2.754.153 3.896.153 1.779 0 3.123-.035 3.985-.098-.001-1.83-.011-4.504-.029-8.018a1592.09 1592.09 0 0 1-.031-8.346c.017-1.59 1.068-2.778 2.383-3.638 1.202-.801 2.449-1.292 3.745-1.296 1.424-.025 2.85.54 3.699 1.688.849 1.133 1.135 2.557 1.142 4.196 0 .752.021 1.9.061 3.423.04 1.54.062 2.692.062 3.474 0 1.011-.031 2.471-.091 4.401a154.74 154.74 0 0 0-.092 4.03l8.031.002c-.008-.935-.037-2.227-.088-3.863a152.222 152.222 0 0 1-.093-4.416c.002-4.196.036-6.661.131-7.697.143-1.43.943-2.7 2.1-3.667 1.127-.964 2.439-1.571 3.836-1.569 1.354-.01 2.68.409 3.594 1.38.912.967 1.296 2.269 1.367 3.688.084 1.572.124 4.123.124 7.712 0 .971-.029 2.385-.092 4.264-.06 1.86-.091 3.259-.091 4.167l.001.07c.626.061 2.072.119 4.08.114z" style="fill:#9fcfff" transform="translate(-30.263 -3.854)"/><path d="M519.004 38.618c0 2.064-.665 3.239-1.993 3.525-.225.041-2.34.266-6.345.674-2.411.266-6.008.582-10.789.95.286 1.329 1.154 2.34 2.605 3.034 1.185.572 2.533.858 4.046.858 1.818 0 3.647-.49 5.486-1.471l2.33-1.471c.429.204 1.149 1.247 2.16 3.126 1.012 1.88 1.518 3.076 1.518 3.586 0 .143-.153.378-.46.705-2.493 2.677-6.365 4.015-11.616 4.015-4.864 0-8.787-1.42-11.771-4.26-3.065-2.881-4.598-6.733-4.598-11.556 0-4.7 1.369-8.552 4.107-11.556 2.819-3.106 6.56-4.659 11.218-4.659 3.924 0 7.254 1.431 9.993 4.292 2.739 2.862 4.109 6.265 4.109 10.208zm-10.728-1.87c0-1.267-.449-2.38-1.349-3.341-.899-.96-1.973-1.44-3.219-1.44-1.287 0-2.35.542-3.188 1.625-.776 1.001-1.165 2.176-1.165 3.525 0 .552.286.828.858.828 1.512 0 3.862-.235 7.05-.705.676-.103 1.013-.267 1.013-.492z" style="fill:#fcfcfc" transform="translate(-30.263 -3.854)"/><path d="M493.149 52.982c-3.391-3.166-5.087-7.517-5.071-12.648-.011-4.983 1.484-9.272 4.496-12.563 3.093-3.43 7.346-5.169 12.329-5.152 4.291-.017 8.103 1.624 11.076 4.754 2.986 3.101 4.536 6.952 4.523 11.246-.002 1.189-.177 2.244-.691 3.167-.503.926-1.453 1.622-2.531 1.833-.2.033-.733.095-1.649.192.313.286.52.603.81.988.412.597.863 1.364 1.386 2.335.52.964.915 1.764 1.199 2.433.272.689.474 1.148.497 1.863-.023.607-.221.861-.357 1.104-.155.23-.317.423-.504.624-2.874 3.083-7.231 4.499-12.714 4.492h-.052c-5.126 0-9.486-1.548-12.747-4.668zm1.645-23.193c-2.464 2.716-3.707 6.129-3.716 10.545.015 4.514 1.383 7.866 4.131 10.47 2.686 2.544 6.154 3.834 10.737 3.845 4.982-.006 8.359-1.248 10.479-3.494a7.458 7.458 0 0 0-.165-.419c-.223-.529-.584-1.267-1.076-2.183a21.032 21.032 0 0 0-1.11-1.892l-1.259.794-.049.032-.047.025c-2.016 1.076-4.101 1.647-6.19 1.647-1.7 0-3.289-.326-4.693-1.005-1.749-.81-3.056-2.259-3.426-4.073l-.36-1.68 1.712-.131c4.771-.368 8.36-.683 10.752-.948 3.96-.399 6.21-.647 6.181-.647.296-.084.343-.121.506-.368.149-.254.307-.816.304-1.69-.013-3.596-1.201-6.55-3.69-9.171-2.504-2.591-5.354-3.811-8.91-3.828-4.334.019-7.562 1.387-10.111 4.171zm8.34 15.661c.958.461 2.068.708 3.395.708 1.537 0 3.099-.405 4.75-1.278.389-.247.777-.493 1.167-.738l-1.615.166c-2.001.22-4.783.473-8.356.759.188.13.406.256.659.383zm-4.606-6.634c-.522-.501-.682-1.185-.673-1.701-.009-1.633.495-3.185 1.479-4.441 1.041-1.39 2.656-2.233 4.374-2.206 1.637-.017 3.193.692 4.314 1.914 1.132 1.191 1.767 2.741 1.754 4.366-.018.973-.745 1.493-1.098 1.641-.411.192-.771.265-1.195.334-3.228.474-5.611.719-7.27.722h-.013c-.505-.001-1.155-.132-1.672-.629zm3.177-4.306a3.948 3.948 0 0 0-.803 1.92c1.331-.055 3.269-.259 5.746-.618-.139-.485-.399-.922-.817-1.381-.677-.696-1.269-.948-2.123-.965-.857.026-1.367.267-2.003 1.044z" style="fill:#9fcfff" transform="translate(-30.263 -3.854)"/><path d="M221.201 95.161c0 4.148-1.747 7.704-5.241 10.667-3.065 2.615-6.794 4.28-11.188 4.996-.164.02-.296.03-.398.03-.47 0-1.512-1.436-3.126-4.307-1.614-2.87-2.421-4.623-2.421-5.257 0-.225.153-.367.46-.429 2.962-.675 4.924-1.246 5.885-1.717 2.125-1.063 3.188-2.636 3.188-4.72 0-1.328-.695-2.81-2.084-4.445-2.411-2.778-3.719-4.321-3.923-4.628-1.41-2.125-2.115-4.475-2.115-7.05 0-3.739 1.727-6.846 5.18-9.318 2.82-2.043 6.283-3.371 10.391-3.984.225-.021.398-.03.521-.03.307 0 .552.245.736.735.531 1.492 1.767 4.189 3.708 8.092a.72.72 0 0 1 .092.307c0 .348-.184.521-.552.521-.164 0-.44-.031-.828-.093a6.24 6.24 0 0 0-.889-.092c-1.471 0-2.758.337-3.862 1.012-1.329.776-1.992 1.859-1.992 3.249 0 1.247.735 2.779 2.207 4.598 2.595 3.27 3.954 4.986 4.077 5.149 1.448 2.25 2.174 4.487 2.174 6.714z" style="fill:#fcfcfc" transform="translate(-30.263 -3.854)"/><path d="M202.88 111.673a7.306 7.306 0 0 1-.856-1.016c-.582-.801-1.262-1.91-2.086-3.375-.817-1.457-1.438-2.639-1.871-3.574-.422-.977-.701-1.54-.743-2.417-.017-.451.213-1.043.594-1.374.373-.34.753-.46 1.033-.518 2.91-.656 4.863-1.25 5.548-1.596 1.765-.947 2.307-1.84 2.359-3.379.013-.784-.453-1.982-1.717-3.463a371.408 371.408 0 0 1-2.8-3.253c-.677-.803-1.014-1.2-1.242-1.527-1.568-2.356-2.369-5.03-2.363-7.88-.027-4.222 2.055-7.891 5.799-10.533 3.046-2.206 6.754-3.613 11.051-4.253l.017-.004.068-.007c.252-.022.458-.035.658-.035.563-.014 1.145.273 1.474.621.341.35.523.716.674 1.109.48 1.357 1.709 4.054 3.636 7.926.116.244.242.516.25.977.01.418-.13 1.035-.606 1.481a2.062 2.062 0 0 1-1.444.538c-.339-.002-.636-.045-1.058-.109a4.68 4.68 0 0 0-.658-.072c-1.246.002-2.231.275-3.106.807-.979.625-1.208 1.064-1.25 1.954-.027.642.488 1.966 1.883 3.665a875.42 875.42 0 0 1 4.099 5.18l.038.05.024.039c1.573 2.432 2.417 4.967 2.415 7.526.021 4.58-2.005 8.646-5.767 11.809-3.282 2.804-7.297 4.583-11.92 5.335l-.033.004-.031.004c-.194.022-.37.041-.575.041-.893-.06-1.177-.428-1.494-.681zm-2.088-9.221c.375.814.966 1.945 1.761 3.36.963 1.762 1.823 3.01 2.21 3.491 4.059-.7 7.427-2.237 10.225-4.621 3.222-2.761 4.691-5.807 4.712-9.521-.002-1.885-.601-3.812-1.911-5.859-.245-.313-1.614-2.042-4.009-5.061-1.556-1.95-2.512-3.69-2.539-5.54-.042-1.892 1.057-3.617 2.708-4.53 1.36-.834 2.947-1.235 4.646-1.231l.08.002c-1.421-2.905-2.383-5.021-2.909-6.418-3.801.602-6.935 1.837-9.478 3.679-3.156 2.299-4.528 4.842-4.555 8.1.006 2.301.614 4.325 1.864 6.219.002 0 .015.021.062.082a55.363 55.363 0 0 0 .966 1.166 389.35 389.35 0 0 0 2.79 3.24c1.504 1.779 2.427 3.545 2.439 5.416.052 2.63-1.531 4.884-4.027 6.067-1.079.518-2.735 1.006-5.201 1.594l.166.365z" style="fill:#9fcfff" transform="translate(-30.263 -3.854)"/><path d="M246.581 100.281c0 .612-.077 1.543-.23 2.789-.153 1.246-.23 2.161-.23 2.743 0 .582-.061.955-.184 1.119-.123.163-.46.398-1.012.704-2.636 1.451-5.559 2.177-8.766 2.177-5.906 0-8.858-2.258-8.858-6.774 0-1.349.051-3.376.153-6.084.102-2.707.153-4.735.153-6.084 0-.899-.521-1.349-1.563-1.349h-.398c-.184.021-.317.03-.398.03-.777 0-1.165-.275-1.165-.827 0-.327.025-.828.077-1.502a22.08 22.08 0 0 0 .077-1.502c0-.43-.026-1.083-.077-1.962a37.396 37.396 0 0 1-.077-1.962c0-.408.654-.633 1.962-.674.736-.021 1.134-.225 1.195-.613.123-.776.164-2.003.123-3.679a413.712 413.712 0 0 0-.123-3.77c0-2.37.225-3.556.674-3.556.552 0 1.338.122 2.36.368 1.165.266 1.972.419 2.421.459 1.042.144 2.615.338 4.72.583.511.041.767.214.767.521 0 .817-.067 2.054-.199 3.709-.133 1.655-.199 2.902-.199 3.739 0 1.002.296 1.502.889 1.502.715 0 1.798-.03 3.249-.092a83.31 83.31 0 0 1 3.28-.092c.449 0 .674.153.674.46 0 .47-.051 1.175-.153 2.115-.103.939-.153 1.645-.153 2.114 0 .49.01 1.206.031 2.146.02.94.031 1.655.031 2.146 0 .43-.296.645-.889.645-.409 0-1.093-.016-2.054-.047-.96-.03-1.645-.046-2.053-.046h-2.299c-.307 0-.46.45-.46 1.349v2.177c.02.98.031 1.706.031 2.176 0 1.717.194 2.902.582 3.556.552.879 1.635 1.318 3.249 1.318.511 0 1.242-.117 2.192-.353.95-.234 1.619-.353 2.008-.353.427.001.642.226.642.676z" style="fill:#fcfcfc" transform="translate(-30.263 -3.854)"/><path d="M236.159 111.313c-3.132-.006-5.678-.579-7.554-2.003-1.894-1.424-2.829-3.706-2.804-6.271 0-1.385.052-3.423.155-6.142.097-2.594.147-4.562.15-5.875l-.063-.001h-.312a5.054 5.054 0 0 1-.485.031c-.557-.007-1.146-.075-1.742-.484-.615-.403-.954-1.231-.923-1.844.002-.401.029-.921.081-1.614.05-.655.075-1.138.073-1.388 0-.375-.023-1.013-.073-1.877a36.25 36.25 0 0 1-.081-2.049c-.012-.513.261-1.063.58-1.349.318-.303.631-.441.925-.545.539-.179 1.082-.242 1.742-.271.032-.43.05-.979.05-1.628 0-.35-.006-.73-.015-1.127a835.418 835.418 0 0 0-.118-3.658 1.223 1.223 0 0 1-.006-.158v-.017a1.213 1.213 0 0 1 .003-.13c.04-1.802.036-2.841.572-3.927.178-.362.749-.983 1.599-.981.766.004 1.625.151 2.694.405 1.132.261 1.931.404 2.22.429l.045.004.027.005c1.022.139 2.588.333 4.635.572.399.038.822.104 1.297.414.488.288.884 1.026.849 1.602 0 .895-.07 2.152-.203 3.83-.132 1.63-.194 2.854-.195 3.615.649-.013 1.511-.041 2.574-.085a83.393 83.393 0 0 1 3.344-.094c.387.007.838.042 1.351.375.53.325.856 1.078.824 1.585-.002.573-.058 1.308-.164 2.278-.1.908-.145 1.585-.145 1.951 0 .47.01 1.18.031 2.114.021.943.031 1.666.031 2.177.029.545-.275 1.316-.842 1.697-.551.385-1.078.44-1.546.446a66.77 66.77 0 0 1-2.102-.047 81.43 81.43 0 0 0-2.005-.046h-1.26v1.995c.021.986.031 1.715.031 2.207-.021 1.596.242 2.635.352 2.759.159.263.587.6 1.98.616.288.004.948-.087 1.833-.311 1.007-.242 1.699-.387 2.367-.395.456-.009 1.099.139 1.566.633.466.494.58 1.095.575 1.542 0 .729-.084 1.692-.24 2.971-.151 1.215-.222 2.103-.219 2.562-.046.706.054 1.169-.486 2.021-.482.575-.857.739-1.486 1.115-2.858 1.575-6.048 2.363-9.476 2.363-.002.003-.007.003-.011.003zm-10.513-23.292h.397c.722.002 1.496.146 2.152.701.664.559.927 1.43.913 2.147 0 1.385-.052 3.423-.155 6.142-.102 2.696-.151 4.713-.151 6.027.025 1.949.565 3.054 1.625 3.888 1.076.836 2.961 1.391 5.733 1.385 2.982-.002 5.632-.664 8.039-1.989a7.26 7.26 0 0 0 .416-.243c.004-.074.007-.164.006-.266.002-.707.085-1.648.242-2.928.079-.64.135-1.192.171-1.645-.219.045-.47.102-.745.172-1.016.25-1.819.393-2.551.398-1.837.015-3.576-.527-4.54-2.055-.646-1.15-.77-2.482-.792-4.32 0-.448-.011-1.169-.029-2.175-.002-.962-.002-1.686 0-2.177.062-.809-.076-1.411.708-2.338a1.802 1.802 0 0 1 1.251-.511h2.299c.443 0 1.132.015 2.101.045.559.019 1.023.032 1.387.04a178.42 178.42 0 0 0-.022-1.25c-.021-.945-.031-1.668-.031-2.179 0-.573.056-1.308.161-2.276a32.4 32.4 0 0 0 .088-.902c-.624.014-1.403.04-2.333.079-1.465.064-2.56.093-3.313.093-.72.046-1.62-.453-1.959-1.111-.362-.637-.422-1.245-.43-1.889 0-.912.068-2.183.205-3.859.087-1.087.144-1.989.173-2.689a233.196 233.196 0 0 1-4.17-.518v-.001c-.602-.062-1.4-.221-2.568-.485a14.97 14.97 0 0 0-1.103-.23 18.808 18.808 0 0 0-.081 1.913l.002.033c0 .045.004.105.006.186.006.16.015.397.025.714.021.632.05 1.577.089 2.85.01.427.015.825.015 1.206 0 1.132-.043 2.018-.155 2.738-.079.674-.625 1.315-1.142 1.547-.52.259-.995.314-1.488.334a6.955 6.955 0 0 0-.486.025c.012.294.029.636.052 1.023.052.894.079 1.562.079 2.051 0 .398-.029.918-.081 1.613-.02.256-.035.485-.046.686zm3.091-14.909c-132.983 30.591-66.491 15.296 0 0zm-.01-.25.006.052c-.003-.056-.008-.074-.01-.083a.29.29 0 0 0 .004.031z" style="fill:#9fcfff" transform="translate(-30.263 -3.854)"/><path d="M281.339 81.399c0 1.513-.072 3.781-.215 6.805-.143 3.024-.214 5.293-.214 6.805 0 1.472.051 3.678.153 6.621.102 2.942.153 5.139.153 6.59 0 .552-.255.899-.766 1.042-.777.204-2.421.307-4.935.307-2.228 0-3.78-.062-4.659-.184-.389-.062-.634-.307-.736-.736l-.184-1.839c-.102-.939-.245-1.41-.429-1.41.286 0-.747.695-3.096 2.085-2.35 1.39-4.485 2.084-6.406 2.084-5.416 0-8.624-2.441-9.625-7.326-.45-2.268-.675-5.558-.675-9.869 0-4.659.378-8.338 1.134-11.035.225-.837.644-1.257 1.257-1.257.939 0 2.37.011 4.291.031 1.92.021 3.351.03 4.292.03.633 0 .95.266.95.797 0 .144-.021.358-.062.644a55.38 55.38 0 0 0-.644 8.46c0 3.556.112 5.988.337 7.295.368 2.248 1.706 3.372 4.016 3.372.899 0 1.875-.398 2.927-1.195s1.599-1.625 1.64-2.482c.041-.756.062-5.886.062-15.388 0-.674.051-1.072.153-1.195.123-.204.49-.307 1.103-.307 1.001 0 2.508.011 4.521.031 2.012.021 3.52.03 4.521.03.613 0 .97.153 1.073.46.042.162.063.408.063.734z" style="fill:#fcfcfc" transform="translate(-30.263 -3.854)"/><path d="M270.622 110.865c-.95-.083-1.841-1.043-1.961-1.873l-.023-.101-.01-.096-.083-.846c-.396.243-.851.517-1.369.823-2.502 1.478-4.881 2.29-7.169 2.294-2.924 0-5.438-.664-7.376-2.139-1.943-1.472-3.174-3.693-3.72-6.397-.482-2.44-.702-5.794-.704-10.16.004-4.742.376-8.528 1.186-11.425.159-.577.401-1.137.871-1.612.459-.482 1.188-.77 1.835-.755.95 0 2.383.013 4.306.031 1.918.021 3.346.03 4.277.03.511.002 1.119.096 1.676.549.565.459.791 1.204.774 1.748a6.3 6.3 0 0 1-.079.873 53.744 53.744 0 0 0-.627 8.231c-.002 3.513.12 5.936.317 7.051.151.89.434 1.343.765 1.623.333.279.849.488 1.771.492.44.006 1.125-.211 2.021-.892.875-.667 1.042-1.132 1.047-1.368.037-.623.06-5.831.06-15.305 0-.377.012-.693.05-.995.062-.278.034-.515.321-.971l-.004-.002c.37-.592.881-.797 1.252-.904a4.294 4.294 0 0 1 1.138-.131c1.012 0 2.52.011 4.538.031 2.009.021 3.513.031 4.504.031.431.002.853.041 1.32.235.457.177.989.646 1.175 1.248l.019.056.017.061c.089.378.101.699.103 1.095 0 1.558-.072 3.84-.215 6.875-.143 3.013-.213 5.269-.213 6.735 0 1.438.05 3.635.153 6.569.102 2.95.153 5.156.153 6.642.002.499-.124 1.076-.484 1.563-.354.488-.888.792-1.401.929-1.111.277-2.739.348-5.315.357-2.266-.001-3.834-.055-4.896-.2zm9.093-2.984c-.007-1.419-.057-3.492-.152-6.2-.101-2.953-.153-5.169-.153-6.673 0-1.559.072-3.839.215-6.876.133-2.809.205-4.962.212-6.43a608.99 608.99 0 0 1-4.169-.03c-1.853-.019-3.275-.03-4.262-.032v.004c-.002 9.528-.019 14.581-.064 15.458-.079 1.489-1.001 2.682-2.232 3.606-1.208.914-2.477 1.494-3.832 1.5-1.386.004-2.696-.348-3.702-1.194-1.008-.844-1.577-2.075-1.792-3.424-.256-1.509-.356-3.95-.36-7.548 0-2.844.208-5.651.619-8.404-.915-.003-2.136-.011-3.671-.027a457.45 457.45 0 0 0-4.038-.031 1.99 1.99 0 0 0-.051.161c-.699 2.483-1.08 6.055-1.078 10.631-.002 4.257.228 7.482.646 9.568.455 2.19 1.328 3.631 2.594 4.602 1.271.968 3.069 1.522 5.56 1.526 1.552.002 3.443-.573 5.64-1.876 1.57-.92 2.62-1.609 2.792-1.749.498-.375.783-.482 1.069-.544.035 0 .069.002.103.004.115.006.266.021.487.109a1.378 1.378 0 0 1 .128.057.827.827 0 0 1 .267.166c.182.138.308.289.376.396.187.273.252.478.319.683.12.401.182.812.242 1.345l.129 1.293c.831.073 2.178.118 3.958.116 2.023.006 3.506-.083 4.2-.187z" style="fill:#9fcfff" transform="translate(-30.263 -3.854)"/><path d="M318.887 65.767c0-.449-.082.225-.245 2.022-.226 2.269-.398 5.17-.521 8.705-.164 4.006-.245 8.563-.245 13.671 0 8.439.234 14.447.705 18.022.041.389.062.634.062.736 0 .225-.153.357-.46.398-.735.102-3.443.153-8.123.153-1.104 0-1.737-.215-1.9-.644l-.122-2.33c-.021-.163-.103-.326-.245-.49-.123.062-.276.184-.46.368-2.207 2.166-4.966 3.249-8.276 3.249-4.312 0-7.765-1.513-10.36-4.537-2.473-2.881-3.708-6.518-3.708-10.911 0-4.455 1.215-8.123 3.647-11.004 2.574-3.065 6.048-4.599 10.421-4.599 3.086 0 5.487.981 7.203 2.943.286.327.49.49.613.49.184 0 .275-.266.275-.797 0-1.573-.041-3.924-.122-7.05-.082-3.127-.123-5.466-.123-7.02 0-.593.164-.93.491-1.012 1.307-.061 3.105-.184 5.395-.367 4.087-.511 5.895-.767 5.425-.767.448.004.673.26.673.771zm-11.555 28.168c0-1.613-.563-3.028-1.686-4.245-1.125-1.215-2.483-1.823-4.077-1.823-1.676 0-3.009.608-4 1.823-.991 1.217-1.486 2.672-1.486 4.368 0 1.655.5 3.055 1.502 4.199 1.021 1.227 2.35 1.839 3.984 1.839s3.004-.612 4.107-1.839c1.104-1.226 1.656-2.667 1.656-4.322z" style="fill:#fcfcfc" transform="translate(-30.263 -3.854)"/><path d="M287.555 106.07c-2.729-3.17-4.078-7.222-4.07-11.89-.006-4.72 1.312-8.796 4-11.968 2.834-3.408 6.853-5.158 11.57-5.134 2.502-.015 4.755.61 6.571 1.872a412.546 412.546 0 0 0-.102-4.746c-.082-3.135-.124-5.48-.124-7.06.004-.433.046-.869.273-1.354.209-.481.759-.984 1.354-1.112l.143-.038.153-.006c1.268-.06 3.04-.181 5.299-.36 3.061-.381 4.95-.646 5.226-.7l.029-.007c.334-.068.252-.04.334-.068l.055-.001h.017c.482.005 1.129.2 1.561.702.363.42.493.883.53 1.288l.006.055c.006.098.006.153.006.224-.019.123.012 0-.035.25-.044.197-.04.194-.062.315-.037.342-.089.876-.155 1.604-.22 2.221-.392 5.097-.516 8.62-.163 3.979-.244 8.517-.242 13.608-.002 8.407.236 14.394.695 17.865.042.418.066.635.07.896.021.445-.219 1.066-.633 1.401a2.11 2.11 0 0 1-1.121.482c-1 .128-3.601.161-8.328.167-.65-.004-1.219-.054-1.784-.24-.544-.174-1.223-.592-1.519-1.369l-.085-.222-.01-.233-.002-.032c-2.175 1.5-4.765 2.262-7.604 2.25h-.091c-4.618-.001-8.572-1.725-11.409-5.059zm2.224-21.927c-2.174 2.588-3.285 5.848-3.292 10.037.009 4.12 1.13 7.341 3.347 9.934 2.336 2.692 5.255 3.994 9.222 4.015 2.985-.015 5.28-.93 7.213-2.808.25-.244.474-.453.853-.65l1.039-.521.763.878c.275.314.532.747.601 1.287l.008.056.002.054.08 1.534c.124.012.274.02.446.018 3.325.004 5.714-.03 6.974-.079-.446-3.747-.657-9.619-.659-17.732.002-5.123.083-9.699.246-13.722.124-3.557.298-6.484.527-8.786.032-.363.062-.682.088-.956a339.348 339.348 0 0 1-4.263.555l-.037.005-.029.002c-1.798.144-3.297.251-4.504.32.007 1.523.046 3.708.121 6.545.081 3.133.122 5.489.122 7.089-.063.531.11.968-.612 1.825a1.689 1.689 0 0 1-1.162.47c-.729-.04-.954-.299-1.182-.449a4.51 4.51 0 0 1-.561-.553c-1.422-1.602-3.292-2.412-6.073-2.432-4.032.021-6.961 1.338-9.278 4.064zm6.676 15.1c-1.25-1.411-1.883-3.232-1.873-5.186-.008-1.986.608-3.836 1.823-5.317 1.241-1.557 3.13-2.398 5.164-2.373 1.98-.02 3.826.816 5.18 2.305 1.354 1.45 2.094 3.298 2.081 5.262h.002a7.772 7.772 0 0 1-2.042 5.326 6.813 6.813 0 0 1-5.221 2.334h-.085c-1.979 0-3.812-.852-5.029-2.351zm2.275-8.607c-.766.953-1.14 2.013-1.148 3.422.011 1.355.377 2.334 1.155 3.238.781.906 1.57 1.276 2.832 1.3 1.256-.02 2.121-.404 2.992-1.344.869-.982 1.258-1.996 1.269-3.318h.002c-.013-1.263-.397-2.245-1.287-3.226-.9-.946-1.77-1.324-2.976-1.343-1.318.025-2.098.4-2.839 1.271z" style="fill:#9fcfff" transform="translate(-30.263 -3.854)"/><path d="M334.764 95.192c0 1.492.031 3.715.092 6.667.062 2.953.092 5.165.092 6.636 0 .43-.255.686-.766.767-.695.123-2.259.184-4.689.184-2.452 0-4.026-.061-4.721-.184-.45-.081-.726-.215-.828-.398-.041-.081-.061-.388-.061-.92 0-1.409.03-3.529.092-6.359s.092-4.961.092-6.392c0-5.803-.225-10.421-.674-13.854a6.363 6.363 0 0 1-.062-.644c0-.408.275-.613.827-.613.572 0 1.445.062 2.621.185 1.175.122 2.059.184 2.651.184.592 0 1.481-.051 2.666-.153 1.186-.102 2.074-.153 2.667-.153.49 0 .735.205.735.613 0 .082-.021.275-.061.582-.448 3.983-.673 8.601-.673 13.852zm.797-22.774c0 3.556-2.003 5.333-6.008 5.333-1.716 0-3.137-.449-4.26-1.349-1.227-.98-1.84-2.309-1.84-3.984 0-1.594.634-2.901 1.9-3.924 1.165-.939 2.564-1.41 4.199-1.41 1.594 0 2.974.48 4.139 1.441 1.247 1.022 1.87 2.32 1.87 3.893z" style="fill:#fcfcfc" transform="translate(-30.263 -3.854)"/><path d="M324.504 110.736c-.592-.141-1.281-.229-1.899-1.195-.238-.563-.164-.625-.205-.871a13.47 13.47 0 0 1-.019-.727c.002-1.43.031-3.557.093-6.394.063-2.824.092-4.947.092-6.358 0-5.762-.226-10.333-.662-13.662-.044-.362-.07-.571-.073-.836-.026-.523.257-1.28.813-1.665.538-.385 1.062-.443 1.515-.447.565 0 1.292.047 2.225.137a7.19 7.19 0 0 1-2.028-1.145c-1.574-1.227-2.429-3.118-2.402-5.153-.024-1.999.88-3.851 2.458-5.093 1.431-1.164 3.222-1.752 5.143-1.742 1.893-.01 3.67.601 5.087 1.779 1.555 1.244 2.444 3.079 2.421 5.056h-.002c.015 2.037-.606 3.888-2.005 5.12a6.24 6.24 0 0 1-2.021 1.177c.698-.05 1.268-.075 1.729-.075.441.002.993.078 1.513.502.53.427.741 1.128.723 1.612-.005.279-.031.435-.068.749-.443 3.912-.666 8.479-.666 13.687 0 1.472.03 3.689.091 6.636.062 2.959.093 5.177.093 6.666.013.501-.187 1.146-.629 1.575-.437.43-.952.602-1.376.67-.941.157-2.475.201-4.949.207-2.5-.007-4.044-.051-4.992-.21zm8.941-2.897c-.007-1.43-.036-3.417-.089-5.951a354.001 354.001 0 0 1-.092-6.697h-.002c.002-5.066.209-9.564.63-13.522-.455.024-1.015.064-1.666.121-1.211.104-2.123.157-2.795.157-.693 0-1.604-.066-2.809-.19a41.229 41.229 0 0 0-1.684-.147c.422 3.48.627 7.992.627 13.582 0 1.45-.031 3.588-.091 6.425a325.615 325.615 0 0 0-.094 6.213c.697.067 2.134.119 4.111.114 1.839.004 3.206-.042 3.954-.105zm.501-.058v-.003zm-7.652-38.121c-.954.803-1.316 1.566-1.344 2.759.027 1.313.399 2.077 1.279 2.812.827.656 1.86 1.014 3.323 1.02 1.796 0 2.9-.405 3.509-.955.604-.545.984-1.359.999-2.876h-.002c-.022-1.174-.381-1.935-1.322-2.738-.908-.738-1.891-1.088-3.184-1.099-1.35.008-2.358.362-3.258 1.077z" style="fill:#9fcfff" transform="translate(-30.263 -3.854)"/><path d="M370.167 94.181c0 4.658-1.425 8.439-4.275 11.341-2.85 2.902-6.596 4.353-11.234 4.353-4.495 0-8.194-1.431-11.096-4.291-2.901-2.861-4.353-6.539-4.353-11.035 0-4.74 1.39-8.587 4.169-11.54 2.778-2.953 6.539-4.43 11.279-4.43 4.618 0 8.357 1.446 11.219 4.338 2.86 2.891 4.291 6.646 4.291 11.264zm-10.054 0c0-1.614-.501-3.04-1.502-4.276-1.001-1.236-2.299-1.854-3.893-1.854-1.614 0-2.942.634-3.984 1.9-.981 1.186-1.472 2.596-1.472 4.23 0 1.654.49 3.075 1.472 4.26 1.042 1.268 2.37 1.9 3.984 1.9 1.594 0 2.912-.633 3.954-1.9.96-1.185 1.441-2.606 1.441-4.26z" style="fill:#fcfcfc" transform="translate(-30.263 -3.854)"/><path d="M354.656 111.374c-4.808.013-8.974-1.577-12.148-4.725-3.197-3.133-4.813-7.288-4.8-12.103-.012-5.026 1.509-9.32 4.577-12.568 3.069-3.282 7.33-4.917 12.371-4.903 4.924-.012 9.142 1.59 12.285 4.785 3.158 3.175 4.739 7.398 4.725 12.321.013 4.953-1.559 9.201-4.706 12.391-3.121 3.194-7.323 4.802-12.237 4.802h-.067zm-10.188-27.34c-2.49 2.659-3.75 6.059-3.762 10.513.017 4.179 1.302 7.378 3.907 9.967 2.627 2.574 5.859 3.846 10.042 3.858 4.334-.015 7.598-1.31 10.164-3.902 2.554-2.615 3.833-5.93 3.846-10.288-.015-4.317-1.295-7.603-3.856-10.212-2.58-2.587-5.84-3.879-10.153-3.892-4.441.015-7.7 1.334-10.188 3.956zm5.11 15.363c-1.209-1.448-1.826-3.269-1.815-5.215-.011-1.935.608-3.744 1.812-5.185 1.266-1.576 3.133-2.472 5.145-2.447a6.3 6.3 0 0 1 5.057 2.41 8.104 8.104 0 0 1 1.837 5.222c.008 1.94-.592 3.754-1.783 5.21-1.261 1.573-3.116 2.471-5.11 2.448h-.082a6.451 6.451 0 0 1-5.061-2.443zm2.31-8.49c-.756.926-1.118 1.936-1.128 3.274.01 1.358.374 2.379 1.132 3.305.818.958 1.606 1.33 2.826 1.354 1.19-.023 1.972-.391 2.788-1.345.735-.921 1.097-1.949 1.105-3.313-.009-1.306-.376-2.342-1.168-3.335-.772-.916-1.522-1.273-2.726-1.297-1.217.023-2.007.395-2.829 1.357z" style="fill:#9fcfff" transform="translate(-30.263 -3.854)"/><rect width="37.821" height="239.358" x="556.531" y="-62.059" ry="3.48" style="opacity:1;fill:#9fcfff;fill-opacity:1;stroke:#000;stroke-width:.5;stroke-linecap:round;stroke-linejoin:round;stroke-miterlimit:4;stroke-dasharray:none;stroke-opacity:1;paint-order:stroke fill markers"/><rect width="37.821" height="239.358" x="594.352" y="-62.059" ry="3.48" style="opacity:1;fill:#5eaeff;fill-opacity:1;stroke:#000;stroke-width:.5;stroke-linecap:round;stroke-linejoin:round;stroke-miterlimit:4;stroke-dasharray:none;stroke-opacity:1;paint-order:stroke fill markers"/><rect width="37.821" height="239.358" x="632.174" y="-62.059" ry="3.48" style="opacity:1;fill:#bdf;fill-opacity:1;stroke:#000;stroke-width:.5;stroke-linecap:round;stroke-linejoin:round;stroke-miterlimit:4;stroke-dasharray:none;stroke-opacity:1;paint-order:stroke fill markers"/><rect width="37.821" height="239.358" x="669.995" y="-62.059" ry="3.48" style="opacity:1;fill:#0482ff;fill-opacity:1;stroke:#000;stroke-width:.5;stroke-linecap:round;stroke-linejoin:round;stroke-miterlimit:4;stroke-dasharray:none;stroke-opacity:1;paint-order:stroke fill markers"/></svg>