<svg xmlns="http://www.w3.org/2000/svg" xml:space="preserve" baseProfile="tiny" viewBox="-64 344.8 482 105.2"><path fill="#025" d="M-11.4 344.8c-29.1 0-52.6 23.6-52.6 52.6 0 29.1 23.6 52.6 52.6 52.6 5.6 0 11-.9 16-2.5v-26.3c-4.4 2.5-9.5 4-14.9 4-16 0-28.9-12.5-28.9-27.8s13-27.8 28.9-27.8c5.5 0 10.6 1.5 14.9 4v-26.3c-5-1.6-10.4-2.5-16-2.5zM5.1 377.4h39.2l-17.6 18.3H5.1z"/><path fill="red" d="M5.1 417.7h39.2l-17.6-18.3H5.1z"/><g fill="#025"><path d="M110.6 391.1c5 0 9-1.4 12.2-4 3.2-2.7 4.8-6.4 4.9-11.3-.1-4.9-1.7-8.7-4.9-11.4s-7.2-4-12.2-4-9 1.4-12.2 4-4.8 6.5-4.9 11.4c.1 4.9 1.7 8.7 4.9 11.3 3.2 2.6 7.2 4 12.2 4zm0-7.1c-2.3-.1-4-.9-5.1-2.5s-1.6-3.5-1.5-5.8c0-2.3.5-4.2 1.5-5.8 1-1.6 2.7-2.4 5.1-2.5 2.3.1 4 .9 5.1 2.5s1.6 3.5 1.5 5.8c0 2.2-.5 4.2-1.5 5.8-1.1 1.6-2.8 2.4-5.1 2.5zM131.8 390.4H142V378c0-3.1.5-5.5 1.5-7s2.4-2.2 4.2-2.2c1.4 0 2.5.6 3.1 1.7s1 2.5 1 4.2v15.8H162v-12.4c0-3.1.5-5.5 1.5-7s2.4-2.2 4.2-2.2c1.4 0 2.5.6 3.1 1.7s1 2.5 1 4.2v15.8H182v-17.3c.1-4-.6-7.1-2-9.4-1.4-2.2-4.2-3.4-8.4-3.4-2.1 0-4.1.4-5.9 1.3s-3.3 2.3-4.5 4.3c-.8-1.9-2-3.3-3.6-4.3-1.6-.9-3.5-1.4-5.6-1.4-2.3 0-4.5.5-6.3 1.5-1.9 1-3.3 2.5-4.4 4.6h-.1v-5.4h-9.3l-.1 29.3zM187.5 390.4h10.2V378c0-3.1.5-5.5 1.5-7s2.4-2.2 4.2-2.2c1.4 0 2.5.6 3.1 1.7s1 2.5 1 4.2v15.8h10.2v-12.4c0-3.1.5-5.5 1.5-7s2.4-2.2 4.2-2.2c1.4 0 2.5.6 3.1 1.7s1 2.5 1 4.2v15.8h10.2v-17.3c.1-4-.6-7.1-2-9.4-1.4-2.2-4.2-3.4-8.4-3.4-2.1 0-4.1.4-5.9 1.3-1.8.9-3.3 2.3-4.5 4.3-.8-1.9-2-3.3-3.6-4.3-1.6-.9-3.5-1.4-5.6-1.4-2.3 0-4.5.5-6.3 1.5-1.9 1-3.3 2.5-4.4 4.6h-.1v-5.4h-9.3l-.1 29.3zM258.8 391.1c5 0 9-1.4 12.2-4 3.2-2.7 4.8-6.4 4.9-11.3-.1-4.9-1.7-8.7-4.9-11.4-3.2-2.7-7.2-4-12.2-4s-9 1.4-12.2 4c-3.2 2.6-4.8 6.5-4.9 11.4.1 4.9 1.7 8.7 4.9 11.3 3.2 2.6 7.3 4 12.2 4zm0-7.1c-2.3-.1-4-.9-5.1-2.5s-1.6-3.5-1.5-5.8c0-2.3.5-4.2 1.5-5.8 1-1.6 2.7-2.4 5.1-2.5 2.3.1 4 .9 5.1 2.5s1.6 3.5 1.5 5.8c0 2.2-.5 4.2-1.5 5.8-1.1 1.6-2.7 2.4-5.1 2.5zM311.7 348.1h-10.2v16.7h-.1c-1.3-1.7-2.8-2.8-4.5-3.5s-3.6-1-5.6-1c-4.1.2-7.2 1.7-9.3 4.7-2.1 3-3.2 6.4-3.2 10.1 0 4.5 1.2 8.2 3.4 11.2 2.3 3 5.6 4.6 10 4.7 2.4 0 4.5-.6 6.3-1.7s3.1-2.5 3.8-4.2h.1v5.3h9.4l-.1-42.3zm-22.6 27.3c0-2 .5-3.7 1.6-5.1s2.6-2.1 4.6-2.2c1.9 0 3.4.8 4.5 2.2 1.1 1.4 1.7 3.2 1.7 5.5 0 2.2-.7 4-1.8 5.4s-2.6 2.1-4.4 2.1c-1.9 0-3.4-.8-4.5-2.2-1.1-1.4-1.7-3.3-1.7-5.7zM332.6 391.1c5 0 9-1.4 12.2-4 3.2-2.7 4.8-6.4 4.9-11.3-.1-4.9-1.7-8.7-4.9-11.4-3.2-2.7-7.2-4-12.2-4s-9 1.4-12.2 4c-3.2 2.7-4.8 6.5-4.9 11.4.1 4.9 1.7 8.7 4.9 11.3 3.2 2.6 7.3 4 12.2 4zm0-7.1c-2.3-.1-4-.9-5.1-2.5-1-1.6-1.6-3.5-1.5-5.8 0-2.3.5-4.2 1.5-5.8 1-1.6 2.7-2.4 5.1-2.5 2.3.1 4 .9 5.1 2.5 1 1.6 1.6 3.5 1.5 5.8 0 2.2-.5 4.2-1.5 5.8-1 1.6-2.7 2.4-5.1 2.5zM375.4 360.7c-.5-.1-1.1-.2-1.7-.2-.6-.1-1.2-.1-1.8-.1-2.2 0-4 .6-5.3 1.7-1.4 1.1-2.5 2.6-3.4 4.4h-.1v-5.4h-9.3v29.4H364v-12.4c0-2.9.6-5.2 1.9-6.8 1.3-1.6 3.1-2.4 5.5-2.4h1.7c.6 0 1.1.1 1.7.3l.6-8.5zM407.3 378.7v-1.9c.1-4.5-1.1-8.4-3.3-11.5-2.3-3.2-6.1-4.8-11.5-5-4.7 0-8.4 1.4-11.3 4-2.9 2.7-4.4 6.4-4.4 11.3.1 4.9 1.7 8.7 4.9 11.3 3.2 2.7 7.2 4 12.2 4.1 1.9 0 3.8-.1 5.6-.4 1.8-.3 3.6-.8 5.2-1.4V382c-1.5.8-3.1 1.4-4.6 1.7-1.5.4-3 .5-4.4.5-2.5 0-4.5-.4-6-1.3s-2.4-2.3-2.7-4.3l20.3.1zm-20.5-5.8c.1-1.7.6-3.2 1.5-4.3.9-1.2 2.3-1.8 4.1-1.8 2 0 3.5.6 4.3 1.8.9 1.2 1.3 2.6 1.3 4.3h-11.2zM71.8 390.7c-4.4-1.2-7.8-3.2-10.6-6.3-2.8-3.1-4.1-5.9-4.9-10.9-1.5-9.8 2.7-18.8 10.8-22.7 4.1-2 9.6-3 15.1-3 3.4 0 6.4.6 9.2 1.1l-.9 8.8s-.7-.2-2.7-.7c-1.9-.5-3.8-.7-5.7-.7-3.8 0-7.5 1-9.9 2.9-5.7 4.4-5.7 15.9.2 20.7 3.6 3 10.1 4 15.9 2.5l2.7-.7.8 8.9c-1.7.4-5.3 1.1-9.7 1.1-5.8 0-7.6-.2-10.3-1z"/></g><path fill="#025" d="M49 395.8h369v3H49z"/><g fill="red"><path d="M104.7 443.9c0-.5-.1-.9-.4-1-.3-.2-.6-.3-1.1-.3-1.6-.3-2.5-.9-2.8-1.8-.3-1-.4-2.2-.4-3.7l-1.6-30.8c0-1.1-.1-2-.3-2.8-.2-.7-.9-1.1-2.2-1.2-1.1 0-1.9.4-2.4 1s-1 1.4-1.6 2.2l-19.8 27.8-3.3 4.7c-.7 1-1.4 1.9-2.1 2.8-.8.9-1.8 1.4-3 1.6-.7.1-1.3.2-1.9.4-.6.2-.9.7-1 1.5 0 .5.2.8.5.9s.7.2 1.1.2c1.1 0 2.3-.1 3.5-.2s2.3-.2 3.5-.2c1.1 0 2.1.1 3.1.2s2.1.1 3.1.2c.5 0 .9-.1 1.3-.3.4-.2.6-.6.6-1.1-.1-.8-.5-1.2-1.4-1.3s-1.7-.3-2.6-.5-1.3-.8-1.4-1.9c.2-1.1.9-2.7 2.2-4.7 1.3-2 2.2-3.5 2.8-4.3h12.3c.1 1.3.1 2.6.2 3.9s.1 2.6.1 3.9c-.1 1.8-.5 2.9-1.4 3.2-.9.3-1.8.5-2.6.5-.9 0-1.4.6-1.4 1.5 0 .4.1.7.4.9.3.2.6.2 1 .2 1.7 0 3.4-.1 5.1-.2s3.4-.2 5.1-.2c1.1 0 2.3.1 3.4.1 1.1.1 2.3.1 3.4.1.5 0 1-.1 1.3-.2.5-.2.7-.5.7-1.1zm-15.2-15.7H79.2l9.8-14.3.5 14.3zM194.1 404.7c0-.4-.1-.6-.4-.8-.2-.2-.5-.3-.9-.3-.6 0-1.1 0-1.6.1-.5 0-1.1.1-1.6.2-1.4.1-2.7.2-4.1.3h-4.2c-1 0-2-.1-3.1-.1-1-.1-2-.1-3.1-.1-.5 0-.9.1-1.3.4s-.6.7-.6 1.2c.2.9.9 1.4 2.1 1.3 1.2-.1 1.9.5 2.1 1.6 0 .3 0 .6-.1 1-.1.3-.2.6-.3 1l-7.8 27c-.3 1.3-.6 2.4-1 3.3s-1.2 1.5-2.5 1.8c-.6.1-1.3.2-2.1.4s-1.3.7-1.3 1.4c0 .4.2.7.5.9.3.2.7.3 1.1.3 1.3 0 2.7-.1 4-.2 1.4-.1 2.7-.2 4.1-.2 1.5 0 2.9.1 4.4.2s2.9.1 4.4.2c.6 0 1.3 0 2.1-.1s1.2-.5 1.3-1.3c-.1-.8-.5-1.2-1.2-1.3-.7-.1-1.5-.2-2.2-.4-.7-.2-1.1-.9-1.2-2.1 0-.5.1-1 .2-1.5s.3-1 .4-1.5l7.8-27.1c.3-1.1.6-1.9 1-2.4s1.2-.9 2.3-1.1c.6-.1 1.2-.2 1.9-.5.5-.5.8-.9.9-1.6zM234.7 405c-.1-.7-.8-1.1-2-1.4-1.3-.3-2.6-.4-4-.5s-2.3-.1-2.8-.1c-5.2 0-10.6 1.1-16.2 3.1-5.6 2.1-10.4 5.1-14.4 9.1s-6.1 8.9-6.2 14.7c.1 3.7 1.1 6.7 3.2 9.1s4.6 4.2 7.8 5.4c3.1 1.2 6.3 1.8 9.7 1.8 2 0 4-.1 6.1-.4 2-.2 4-.6 6-1.1.7-.1 1.4-.3 1.9-.6.5-.2.9-.7 1.2-1.5.5-1.5 1-3.1 1.5-4.7s.9-3.2 1.3-4.7c.7-2.2 1.6-3.6 2.6-4s1.9-.6 2.7-.6c.8 0 1.2-.5 1.2-1.5 0-.4-.2-.7-.5-.9-.3-.2-.7-.3-1-.3-1.5 0-3.1.1-4.6.2-1.6.1-3.1.2-4.7.2-1.5 0-3-.1-4.4-.2-1.5-.1-3-.2-4.4-.2-.5 0-1 .1-1.4.3-.5.2-.7.6-.7 1.1.1.7.5 1.1 1.2 1.2.8.1 1.5.2 2.3.5.8.2 1.2.9 1.2 2-.1 1.2-.4 2.7-1.1 4.8-.6 2-1.2 3.6-1.6 4.9-.2.9-.6 1.6-1 2s-1.1.6-2.1.6c-3.6-.1-6.4-1.2-8.2-3.5-1.9-2.3-2.8-5.1-2.8-8.6 0-3.2.7-6.4 2-9.4s3.1-5.7 5.3-8c2.2-2.2 5-4.1 8.2-5.7 3.3-1.6 6.5-2.4 9.7-2.5 1.5 0 2.4.3 2.8.9.3.6.5 1.6.4 3 0 .4 0 .7-.1 1.1 0 .4-.1.7-.1 1.1 0 .6.1 1.2.3 1.7.2.5.7.8 1.4.8.8-.1 1.3-.4 1.7-1.1s.6-1.4.8-2c.2-.5.5-1.5 1-3.1.4-1.6.7-2.6.8-3zM270.1 443.9c0-.5-.1-.9-.4-1-.3-.2-.6-.3-1.1-.3-1.6-.3-2.5-.9-2.8-1.8-.3-1-.4-2.2-.4-3.7l-1.6-30.8c0-1.1-.1-2-.3-2.8-.2-.7-.9-1.1-2.2-1.2-1.1 0-1.9.4-2.4 1s-1 1.4-1.6 2.2l-19.8 27.8-3.3 4.7c-.7 1-1.4 1.9-2.1 2.8-.8.9-1.8 1.4-3 1.6-.7.1-1.3.2-1.9.4-.6.2-.9.7-1 1.5 0 .5.2.8.5.9.3.1.7.2 1.1.2 1.1 0 2.3-.1 3.5-.2 1.2-.1 2.3-.2 3.5-.2 1.1 0 2.1.1 3.1.2 1.1.1 2.1.1 3.1.2.5 0 .9-.1 1.3-.3.4-.2.6-.6.6-1.1-.1-.8-.5-1.2-1.4-1.3-.9-.1-1.7-.3-2.6-.5-.9-.2-1.3-.8-1.4-1.9.2-1.1.9-2.7 2.2-4.7 1.3-2 2.2-3.5 2.8-4.3h12.4c.1 1.3.1 2.6.2 3.9s.1 2.6.1 3.9c-.1 1.8-.5 2.9-1.4 3.2-.9.3-1.8.5-2.6.5-.9 0-1.4.6-1.4 1.5 0 .4.1.7.4.9.3.2.6.2 1 .2 1.7 0 3.4-.1 5.1-.2s3.4-.2 5.1-.2c1.1 0 2.3.1 3.4.1 1.1.1 2.3.1 3.4.1.5 0 1-.1 1.3-.2.4-.2.6-.5.6-1.1zm-15.3-15.7h-10.3l9.8-14.3.5 14.3zM167.9 404.9c0-.4-.1-.7-.4-.9-.2-.2-.5-.3-.9-.3-1.3 0-2.6 0-3.9.1s-2.6.1-3.9.1c-.7 0-1.7-.1-3.1-.1-1.4 0-2.3.1-2.8.5-.1.1-.2.3-.2.4-.1.2-.2.3-.2.4l-17 25.7-.7-25.3c0-.5 0-.9-.1-1.2-.1-.4-.4-.5-.9-.6-1.4 0-2.9 0-4.3.1h-4.3c-.8 0-1.6-.1-2.4-.1-.8-.1-1.6-.1-2.4-.1-.5 0-1 .1-1.5.2-.5.2-.7.5-.8 1.1.2 1 1 1.5 2.3 1.4 1.4 0 2.1.5 2.3 1.4 0 .7-.2 1.4-.4 2.1-.3.7-.5 1.4-.7 2-1.5 4.2-3 8.3-4.5 12.5s-3 8.3-4.6 12.5c-.6 1.8-1.2 3-1.8 3.7-.6.7-1.8 1.2-3.7 1.5-.5.1-1 .2-1.4.5-.4.2-.6.6-.6 1.2 0 .5.2.8.5 1 .3.1.7.2 1.2.2 1.1 0 2.2 0 3.3-.1 1.1-.1 2.2-.1 3.3-.1 1 0 2 .1 3 .2s2 .1 3 .2c.5 0 .9-.1 1.3-.3.4-.2.6-.6.7-1.1-.1-.9-.5-1.3-1.4-1.4-.9-.1-1.8-.2-2.7-.4s-1.4-1-1.4-2.4c.1-1.9.8-4.8 2.1-8.7 1.3-3.8 2.6-7.6 4.1-11.2 1.4-3.6 2.4-6 2.9-7.3l.7 29.4c0 .9.1 1.6.3 2.2.2.5.8.8 1.8.8s1.8-.4 2.4-1.1c.6-.7 1.1-1.4 1.6-2.2l19.8-29.1-6.5 24.6c-.2 1.1-.5 2.1-.9 3.2s-1.2 1.7-2.3 2c-.7 0-1.4.2-2.2.3-.8.2-1.3.7-1.4 1.5 0 .5.2.8.5 1 .3.2.7.3 1.1.3 1.4 0 2.9-.1 4.3-.2s2.9-.2 4.3-.2c1.5 0 3 .1 4.4.2 1.5.1 3 .2 4.4.2.6 0 1-.1 1.5-.3.4-.2.7-.6.7-1.2-.1-.7-.4-1.2-1.1-1.3-.7-.1-1.4-.3-2.1-.5-.7-.2-1.1-.8-1.1-1.9 0-.7.1-1.5.3-2.3.2-.8.3-1.5.5-2.2l6.3-25.3c.2-1.1.5-2 .9-2.6s1.1-1 2.3-1.2c.6 0 1.2-.2 1.8-.4.3.1.7-.3.7-1.1z"/></g><g fill="#025"><path d="m286.3 414.4-3.9 2.5.2-11.4 4.8-3.1h9.4V446l-10.6.1.1-31.7zm1.2-2.1V445h8.2v-41.3h-7.9l-4 2.6-.1 8.5 3.8-2.5z"/><path d="m288.6 443.8.1-33.7-3.9 2.5.1-5.7 3.2-2.1 6.4.1v38.9z"/></g><g fill="#025"><path d="M321.8 436.2h10v10h-32.3l16.3-18.7c1.2-1.3 2.4-2.7 3.5-4.1 2-2.6 4.3-5.9 2.3-9.1-1.3-2.2-4.6-2.2-6.6-1.1-1.5.8-2.4 2.3-2.6 3.9-.2 1-.1 2.8.7 3.5l1.5 1.4-6.2 8.4-1.9-2.1c-2.4-2.6-3.9-5.8-4.2-9.4-.3-3.2.4-6.5 2-9.2s3.9-4.8 6.8-6c3.2-1.4 6.8-1.6 10.2-.9 4.7 1 9.1 4.7 10.6 9.3 1.2 3.8 1.1 6.8-.3 10.6-1.2 3.2-3.3 6-5.5 8.5-1.3 1.6-2.8 3.3-4.3 5zm-2.5 1.1c2-2.4 4-4.6 6-6.9 2.1-2.5 4.1-5.1 5.3-8.2 1.3-3.5 1.4-6.3.3-9.8-1.4-4.2-5.5-7.6-9.8-8.5-3.2-.7-6.5-.5-9.5.8-2.6 1.2-4.8 3.1-6.3 5.6-1.5 2.6-2.2 5.6-1.9 8.5.3 3.3 1.7 6.3 3.9 8.7l.9 1 4.8-6.4-.8-.7c-1.1-1-1.3-3.1-1.1-4.5.3-2 1.4-3.8 3.2-4.8 2.6-1.3 6.5-1.1 8.1 1.6 2.3 3.7.1 7.4-2.4 10.5-1.1 1.4-2.3 2.7-3.5 4.1l-14.6 16.8h28.6v-7.7l-11.2-.1z"/><path d="M329.5 443.8h-24.9l12.9-14.9c3.8-4.3 9.6-10 6-15.9-1.9-3.1-6.3-3.7-9.6-2-4.6 2.3-4.9 8.9-2.4 11.2l-3.3 4.4c-8.7-9.6-1.1-24.6 12.6-21.7 3.8.8 7.6 3.9 8.9 7.8 1.1 3.3 1 5.8-.2 9.1-2 5.4-7.3 10-12.6 16.7h12.6v5.3z"/></g><path fill="none" d="M352 409.8c-10.2-.3-8.5 19.7-5.7 25 1.2 2.3 2.9 3.5 5.7 3.5 2.8 0 4.8-1.1 6.1-3.4 2.9-5 4.1-24.8-6.1-25.1zm6.5 19.8c-.2 1.4-.7 3.4-1.4 4.7-1.1 2-2.8 2.8-5.1 2.8h-.4c-2-.1-3.2-1-4.2-2.9-.7-1.3-1.1-3.2-1.4-4.6-.4-2.2-.6-4.5-.6-6.7 0-3.4.6-9 3.7-11.1.9-.6 1.9-.8 3-.8 5.6.2 6.8 7.4 7 11.8 0 2.2-.2 4.6-.6 6.8z"/><path fill="none" d="M363.3 408.9c-2.7-3.9-6.5-5.8-11.2-5.8s-8.4 1.9-11.1 5.8c-3.1 4.3-3.9 9.9-3.9 15.2 0 5.2.9 10.8 3.9 15.2 2.7 3.8 6.5 5.8 11.1 5.8 4.7 0 8.4-1.9 11.1-5.7 3.1-4.3 3.9-9.8 3.9-14.9 0-5.4-.8-11.2-3.8-15.6zm-1 29.7c-2.5 3.5-5.9 5.2-10.2 5.2-4.3 0-7.7-1.8-10.2-5.3s-3.7-8.4-3.7-14.5 1.2-11 3.7-14.5 5.9-5.3 10.2-5.3c4.4 0 7.8 1.8 10.2 5.3 2.4 3.5 3.6 8.5 3.6 14.8.1 6.1-1.2 10.9-3.6 14.3z"/><path fill="#025" d="M352 411c-1.1 0-2.1.2-3 .8-3.1 2.1-3.7 7.7-3.7 11.1 0 2.2.2 4.5.6 6.7.3 1.4.7 3.3 1.4 4.6 1 1.9 2.2 2.8 4.2 2.9h.4c2.3 0 4-.8 5.1-2.8.7-1.3 1.2-3.2 1.4-4.7.4-2.3.5-4.6.4-6.9 0-4.3-1.2-11.6-6.8-11.7zm4.3 22.1c-1 2.1-2.6 2.7-4.1 2.7-1.6 0-3-.3-4-2.6-.9-2.1-1.5-6-1.5-9.1 0-3.8.4-7.5 1.7-9.6.9-1.5 2.5-2.1 3.7-2.1 1.3 0 2.8.9 3.7 2.5 1.2 2.1 1.7 5.5 1.7 9.2.1 3.2-.2 6.8-1.2 9z"/><path fill="#025" d="M364.2 408.2c-2.9-4.2-7-6.3-12.1-6.3s-9.2 2.1-12.1 6.2c-3.2 4.5-4.1 10.4-4.1 15.8 0 5.5.9 11.3 4.1 15.9 2.9 4.1 7 6.3 12.1 6.3 5 0 9.1-2.1 12-6.2 3.2-4.5 4.1-10.2 4.1-15.6.1-5.4-.8-11.4-4-16.1zm-1 31.1c-2.7 3.8-6.5 5.7-11.1 5.7-4.7 0-8.4-1.9-11.1-5.8-3.1-4.4-3.9-10-3.9-15.2s.9-10.8 3.9-15.2c2.7-3.8 6.5-5.8 11.1-5.8 4.7 0 8.5 1.9 11.2 5.8 3.1 4.4 3.9 10.2 3.9 15.5-.1 5.2-.9 10.7-4 15z"/><path fill="#025" d="M362.3 409.5c-2.4-3.5-5.8-5.3-10.2-5.3-4.3 0-7.7 1.8-10.2 5.3s-3.7 8.3-3.7 14.5 1.2 11 3.7 14.5 5.9 5.3 10.2 5.3c4.3 0 7.7-1.7 10.2-5.2s3.7-8.2 3.7-14.3c0-6.3-1.2-11.2-3.7-14.8zm-4.2 25.3c-1.3 2.3-3.3 3.4-6.1 3.4s-4.5-1.2-5.7-3.5c-2.8-5.2-4.5-25.2 5.7-25 10.2.4 9 20.2 6.1 25.1z"/><path fill="none" d="M386.8 410.2c-10.2-.3-8.5 19.7-5.7 25 1.2 2.3 2.9 3.5 5.7 3.5 2.8 0 4.8-1.1 6.1-3.4 2.9-5.1 4.2-24.8-6.1-25.1zm6.6 19.8c-.2 1.4-.7 3.4-1.4 4.7-1.1 2-2.8 2.8-5.1 2.8h-.4c-2-.1-3.2-1-4.2-2.9-.7-1.3-1.1-3.2-1.4-4.6-.4-2.2-.6-4.5-.6-6.7 0-3.4.6-9 3.7-11.1.9-.6 1.9-.8 3-.8 5.6.2 6.8 7.4 7 11.8-.1 2.2-.3 4.5-.6 6.8z"/><path fill="none" d="M398.1 409.2c-2.7-3.9-6.5-5.8-11.2-5.8s-8.4 1.9-11.1 5.8c-3.1 4.3-3.9 9.9-3.9 15.2 0 5.2.9 10.8 3.9 15.2 2.7 3.8 6.5 5.8 11.1 5.8 4.7 0 8.4-1.9 11.1-5.7 3.1-4.3 3.9-9.8 3.9-14.9.1-5.3-.7-11.1-3.8-15.6zm-1 29.8c-2.5 3.5-5.9 5.2-10.2 5.2-4.3 0-7.7-1.8-10.2-5.3s-3.7-8.4-3.7-14.5 1.2-11 3.7-14.5 5.9-5.3 10.2-5.3c4.4 0 7.8 1.8 10.2 5.3 2.4 3.5 3.6 8.5 3.6 14.8.1 6.1-1.1 10.9-3.6 14.3z"/><path fill="#025" d="M386.8 411.3c-1.1 0-2.1.2-3 .8-3.1 2.1-3.7 7.7-3.7 11.1 0 2.2.2 4.5.6 6.7.3 1.4.7 3.3 1.4 4.6 1 1.9 2.2 2.8 4.2 2.9h.4c2.3 0 4-.8 5.1-2.8.7-1.3 1.2-3.2 1.4-4.7.4-2.3.5-4.6.4-6.9 0-4.3-1.2-11.5-6.8-11.7zm4.3 22.1c-1 2.1-2.6 2.7-4.1 2.7-1.6 0-3-.3-4-2.6-.9-2.1-1.5-6-1.5-9.1 0-3.8.4-7.5 1.7-9.6.9-1.5 2.5-2.1 3.7-2.1 1.3 0 2.8.9 3.7 2.6 1.2 2.1 1.7 5.5 1.7 9.2.1 3.2-.2 6.8-1.2 8.9z"/><path fill="#025" d="M399 408.6c-2.9-4.2-7-6.3-12.1-6.3s-9.2 2.1-12.1 6.2c-3.2 4.5-4.1 10.4-4.1 15.8 0 5.5.9 11.3 4.1 15.9 2.9 4.1 7 6.3 12.1 6.3 5 0 9.1-2.1 12-6.2 3.2-4.5 4.1-10.2 4.1-15.6.1-5.5-.8-11.5-4-16.1zm-1 31.1c-2.7 3.8-6.5 5.7-11.1 5.7-4.7 0-8.4-1.9-11.1-5.8-3.1-4.4-3.9-10-3.9-15.2s.9-10.8 3.9-15.2c2.7-3.8 6.5-5.8 11.1-5.8 4.7 0 8.5 1.9 11.2 5.8 3.1 4.4 3.9 10.2 3.9 15.5 0 5.2-.9 10.7-4 15z"/><path fill="#025" d="M397.2 409.9c-2.4-3.5-5.8-5.3-10.2-5.3-4.3 0-7.7 1.8-10.2 5.3s-3.7 8.3-3.7 14.5 1.2 11 3.7 14.5 5.9 5.3 10.2 5.3c4.3 0 7.7-1.7 10.2-5.2s3.7-8.2 3.7-14.3c-.1-6.3-1.3-11.3-3.7-14.8zm-4.3 25.3c-1.3 2.3-3.3 3.4-6.1 3.4s-4.5-1.2-5.7-3.5c-2.8-5.2-4.5-25.2 5.7-25 10.3.4 9 20.1 6.1 25.1z"/></svg>