<svg xmlns="http://www.w3.org/2000/svg" width="788" height="120"><path d="M6036.621 1790.646c117.6 0 215.285 60.697 261.757 126.136v-110.014h179.246v816.567h-128.982c-28.451 0-51.213-22.762-51.213-51.214v-58.8c-45.523 66.387-143.207 127.085-260.808 127.085-223.82 0-393.583-191.576-393.583-424.88 0-233.305 169.762-424.88 393.583-424.88m32.245 163.123c-145.104 0-243.737 114.756-243.737 261.757 0 147 97.685 261.756 243.737 261.756 145.104 0 243.737-114.756 243.737-261.756 0-147.001-97.684-261.757-243.737-261.757M6681.528 1806.768h180.195v110.962c49.316-81.562 142.259-127.085 248.479-127.085 189.678 0 312.021 133.724 312.021 341.422v491.267h-128.981c-28.452 0-51.213-22.76-51.213-51.213v-410.654c0-128.981-65.44-207.698-169.763-207.698-119.497 0-210.543 92.943-210.543 267.447v402.118H6732.74c-28.451 0-51.213-22.76-51.213-51.213zM7958.065 1790.646c117.6 0 215.285 60.697 261.757 126.136v-517.823h179.246v1225.324h-128.982c-28.451 0-51.213-22.761-51.213-51.213v-58.8c-45.523 65.438-144.156 126.136-261.756 126.136-223.821 0-393.583-191.576-393.583-424.88.948-233.305 170.71-424.88 394.531-424.88m32.245 163.123c-145.104 0-243.737 114.756-243.737 261.757 0 147 97.685 261.756 243.737 261.756 145.105 0 243.737-114.755 243.737-261.756 0-147.001-98.632-261.757-243.737-261.757M8602.972 1806.768h179.247v145.104c31.297-92.942 122.342-153.64 215.285-153.64 22.761 0 45.523 1.898 70.18 6.64v184.936c-31.296-9.484-56.903-15.174-90.096-15.174-103.375 0-196.318 86.304-196.318 250.376v398.324H8652.29c-28.452 0-51.214-22.76-51.214-51.213v-765.353zM9553.262 2640.406c-241.84 0-427.725-187.782-427.725-424.88 0-237.099 185.885-424.88 427.725-424.88 241.84 0 427.725 187.781 427.725 424.88 0 237.098-185.885 424.88-427.725 424.88m0-166.918c144.156 0 244.685-112.858 244.685-257.962 0-145.105-101.478-257.963-244.685-257.963-145.104 0-246.582 112.858-246.582 257.963 0 145.104 101.478 257.962 246.582 257.962M10216.188 1628.47c-65.439 0-120.445-54.058-120.445-120.446 0-65.439 55.955-119.497 120.445-119.497 67.336 0 119.498 54.058 119.498 119.497 0 67.336-52.162 120.446-119.498 120.446m-89.149 178.298h179.247v816.566h-128.033c-28.452 0-51.214-22.76-51.214-51.213zM10847.818 1790.646c117.601 0 215.285 60.697 261.757 126.136v-517.823h179.246v1225.324h-128.982c-28.451 0-51.213-22.761-51.213-51.213v-58.8c-45.523 65.438-144.156 126.136-261.756 126.136-223.821 0-393.583-191.576-393.583-424.88.948-233.305 170.71-424.88 394.531-424.88m33.194 163.123c-145.104 0-243.737 114.756-243.737 261.757 0 147 97.684 261.756 243.737 261.756 145.104 0 243.737-114.755 243.737-261.756 0-147.001-98.633-261.757-243.737-261.757" style="stroke-width:9.48392963" transform="matrix(.09586 0 0 .09586 -540.691 -133.099)"/><path d="M13271.91 2315.107c-50.264 0-91.045-40.781-91.045-91.046 0-50.265 40.781-91.046 91.045-91.046 50.265 0 91.046 40.781 91.046 91.046 0 50.265-40.781 91.046-91.046 91.046m-1002.451 0c-50.265 0-91.046-40.781-91.046-91.046 0-50.265 40.781-91.046 91.046-91.046 50.265 0 91.046 40.781 91.046 91.046 0 50.265-40.781 91.046-91.046 91.046m1034.697-546.274 182.091-313.919c10.433-18.019 3.794-40.78-14.226-51.213-18.019-10.432-40.781-3.793-51.213 14.226l-183.988 317.712c-140.362-64.491-297.795-100.53-465.661-100.53-167.866 0-326.247 36.039-466.609 99.581l-183.989-317.711c-10.432-18.02-33.193-24.658-51.213-14.226-18.019 10.432-24.658 33.194-14.226 51.213l181.143 313.918c-311.073 169.762-524.461 484.629-555.758 857.347h2178.459c-30.349-371.77-242.789-686.636-554.81-856.398" class="logo-android__andy-icon" style="fill:#3ddc84;fill-opacity:1;stroke-width:9.48392963" transform="matrix(.09586 0 0 .09586 -540.691 -133.099)"/></svg>