<svg xmlns="http://www.w3.org/2000/svg" xml:space="preserve" width="1240" height="458.9" viewBox="23.6 167.1 1240 458.9"><path d="M1205.8 349.8c.1-1.4 0-2.7 0-3.9v-77.5c0-1.3-.1-2.7-.4-4-7.5-28-20.9-52.4-43.3-71.2-18.4-15.5-39.4-24.1-63.7-24.1H647.8c-1.6 0-3.2-.1-4.9 0v58.7c1.2.5 2.3.9 3.3 1.3 7.9 2.5 15.8 5 23.8 7.5 79.8 25.3 159.6 50.5 239.5 75.8 37.7 11.9 75.4 23.9 113.1 35.8 2.4.7 4.9 1.4 7.3 1.4 57.3.1 114.7.1 172 .1 1.2.1 2.6.2 3.9.1zM983.6 346c-51.4-16.3-102.4-32.5-154-48.8v226.7c-22.2 11.2-44.1 22.3-65.9 33.2V624h269.5V494h-49.6V346zm17.4 17.8v114h204.5v-114H1001z" style="fill:#cf8a61" transform="matrix(.94529 0 0 .94529 -550.778 19.963)"/><path d="M427.784 611.713H169.248v-66.265l62.294-31.383V298.35l149.356 47.359v139.336h46.886zm-254.755-3.781h250.974V488.826h-46.887V348.45L235.23 303.455v212.879l-62.295 31.383zm417.723-134.42H393.659V361.968h197.093zm-193.406-3.781H586.97V365.749H397.346ZM587.82 352.515h-66.454c-39.418 0-69.762 0-98.593-.094-2.552 0-5.105-.662-7.468-1.418-22.97-7.28-45.941-14.558-68.911-21.837-12.667-3.97-25.334-8.034-38.001-12.005-53.22-16.826-106.44-33.746-159.66-50.573l-70.14-22.214c-6.333-1.985-12.666-3.97-19-6.05-.756-.283-1.512-.567-2.174-.85-.378-.095-.662-.284-1.04-.379l-1.229-.472v-58.514l1.796-.094c1.135-.095 2.174 0 3.214 0h427.271c22.497 0 43.2 7.846 61.443 23.254 20.23 17.11 33.842 39.419 41.498 68.25.379 1.512.473 3.12.473 4.254V348.073c0 .85.095 1.795 0 2.74l-.094 1.608-1.607.094h-1.324zm-2.363-3.781H587.254V273.678c0-.945 0-2.174-.284-3.308-7.467-28.075-20.701-49.817-40.363-66.36-17.583-14.84-37.434-22.308-58.986-22.308H58.932v52.368c.662.284 1.23.473 1.891.662 6.333 1.985 12.667 4.065 19 6.05l70.14 22.214c53.22 16.826 106.44 33.747 159.66 50.573 12.667 3.97 25.334 8.035 38 12.005 22.97 7.28 45.941 14.558 68.912 21.837 2.08.661 4.348 1.228 6.333 1.323 28.832 0 59.175.094 98.594.094h56.434z"/><path d="m1205.8 349.8-178.8-.1L642.9 228v-58.9c1.7-.1 177.2 0 263.4 0h192.1c24.3 0 45.4 8.6 63.7 24.1 22.4 18.9 35.8 43.2 43.3 71.2.3 1.3.4 2.7.4 4 .1 25.9 0 81.4 0 81.4z" style="fill:#cf8a61" transform="matrix(.94529 0 0 .94529 -550.778 19.963)"/><path d="m590.94 352.515-171.191-.094-.284-.095L55.057 236.812v-58.797l1.796-.095h430.579c22.497 0 43.2 7.846 61.443 23.254 20.23 17.11 33.842 39.419 41.498 68.25.379 1.513.473 3.12.473 4.254v76.852zm-170.53-3.876 166.844.095v-75.056c0-.945 0-2.174-.284-3.308-7.467-28.075-20.701-49.817-40.363-66.36-17.583-14.84-37.434-22.308-58.986-22.308H58.932v52.463z"/><path d="M983.6 346v148h49.6v130H763.7v-66.9c21.7-11 43.6-22 65.9-33.2V297.2c51.6 16.4 102.6 32.5 154 48.8z" style="fill:#cf8a61" transform="matrix(.94529 0 0 .94529 -550.778 19.963)"/><path d="M427.784 611.713H169.248v-66.265l62.294-31.383V298.35l149.356 47.359v139.336h46.886zm-254.755-3.781h250.974V488.826h-46.887V348.45L235.23 303.455v212.879l-62.295 31.383z"/><path d="M1001 363.8h204.5v114H1001v-114z" style="fill:#cf8a61" transform="matrix(.94529 0 0 .94529 -550.778 19.963)"/><path d="M590.752 473.512H393.659V361.968h197.093zm-193.406-3.781H586.97V365.749H397.346Z"/><g aria-label="FinalBurn" style="font-style:normal;font-variant:normal;font-weight:400;font-stretch:normal;font-size:129.25238037px;line-height:1.25;font-family:Impact;-inkscape-font-specification:Impact;letter-spacing:0;word-spacing:0;fill:#0f0f0f;fill-opacity:1;stroke:none;stroke-width:2.05194569"><path d="M812.952 278.245h44.998v20.448h-18.428v19.375h16.409v19.439h-16.41v42.915h-26.57zM889.885 278.245v13.316H863.63v-13.316zm0 18.428v83.75H863.63v-83.75zM924.975 296.673l-.442 7.7q2.777-4.607 6.753-6.88 4.04-2.334 9.277-2.334 6.564 0 10.73 3.092 4.165 3.093 5.364 7.826 1.199 4.67 1.199 15.652v58.693h-25.497v-58q0-8.645-.568-10.539-.568-1.893-3.156-1.893-2.713 0-3.408 2.209-.694 2.146-.694 11.612v56.611h-25.497v-83.749zM989.412 329.113h-23.92v-5.617q0-9.72 2.21-14.958 2.271-5.301 9.024-9.34 6.753-4.04 17.545-4.04 12.938 0 19.502 4.608 6.563 4.544 7.889 11.234 1.325 6.626 1.325 27.39v42.032h-24.803v-7.447q-2.335 4.481-6.058 6.753-3.661 2.209-8.773 2.209-6.69 0-12.307-3.724-5.554-3.786-5.554-16.472v-6.879q0-9.403 2.967-12.811 2.966-3.408 14.705-7.952 12.559-4.923 13.442-6.627.884-1.704.884-6.942 0-6.564-1.01-8.52-.946-2.02-3.218-2.02-2.588 0-3.22 1.704-.63 1.64-.63 8.646zm8.078 11.486q-6.122 4.48-7.132 7.51-.946 3.03-.946 8.71 0 6.5.82 8.393.884 1.894 3.408 1.894 2.398 0 3.093-1.452.757-1.514.757-7.826zM1058.014 278.245v102.177h-26.254V278.245ZM1067.922 278.245h26.507q12.56 0 18.997 1.956 6.5 1.957 10.476 7.952 3.976 5.933 3.976 19.186 0 8.962-2.84 12.496-2.777 3.535-11.044 5.428 9.214 2.083 12.496 6.942 3.282 4.797 3.282 14.768v9.467q0 10.35-2.398 15.336-2.336 4.986-7.51 6.816-5.176 1.83-21.206 1.83h-30.735zm26.57 17.482v22.72q1.704-.063 2.651-.063 3.913 0 4.986-1.894 1.073-1.956 1.073-11.044 0-4.797-.884-6.69-.883-1.956-2.335-2.461-1.388-.505-5.49-.568zm0 38.624v28.59q5.617-.19 7.132-1.768 1.578-1.577 1.578-7.762v-9.53q0-6.564-1.389-7.952-1.388-1.389-7.32-1.578zM1196.922 296.673v83.75h-25.938l.441-6.943q-2.65 4.229-6.563 6.374-3.85 2.083-8.899 2.083-5.743 0-9.53-2.02-3.786-2.02-5.617-5.364-1.767-3.345-2.209-6.942-.441-3.66-.441-14.453v-56.485h25.497v56.99q0 9.782.568 11.613.63 1.83 3.281 1.83 2.84 0 3.345-1.894.568-1.893.568-12.18v-56.359zM1231.57 296.673l-1.01 10.982q5.555-11.802 16.094-12.496v29.473q-7.005 0-10.287 1.893-3.282 1.893-4.039 5.302-.757 3.344-.757 15.525v33.07h-25.497v-83.749zM1278.273 296.673l-.442 7.7q2.777-4.607 6.753-6.88 4.04-2.334 9.278-2.334 6.563 0 10.729 3.092 4.165 3.093 5.364 7.826 1.2 4.67 1.2 15.652v58.693h-25.498v-58q0-8.645-.568-10.539-.568-1.893-3.155-1.893-2.714 0-3.408 2.209-.695 2.146-.695 11.612v56.611h-25.497v-83.749z" style="fill:#0f0f0f;fill-opacity:1;stroke-width:2.05194569" transform="matrix(1.09472 0 0 .91348 -203.2 9.313)"/></g><g aria-label="Neo" style="font-style:normal;font-variant:normal;font-weight:400;font-stretch:normal;font-size:292.61712646px;line-height:1.25;font-family:Impact;-inkscape-font-specification:Impact;letter-spacing:0;word-spacing:0;fill:#000;fill-opacity:1;stroke:none;stroke-width:1.52404749"><path d="M1017.028 426.852v231.322h-52.723l-31.29-105.16v105.16H882.72V426.852h50.294l33.72 104.159V426.85ZM1170.195 566.73h-74.726v41.007q0 12.86 1.857 16.574 1.858 3.715 7.144 3.715 6.573 0 8.716-4.858 2.286-5 2.286-19.146v-25.004h54.723v14.003q0 17.574-2.286 27.004-2.144 9.43-10.288 20.146-8.144 10.716-20.717 16.145-12.43 5.287-31.29 5.287-18.29 0-32.292-5.287-14.002-5.286-21.86-14.43-7.716-9.288-10.716-20.29-3-11.144-3-32.29V534.01q0-24.86 6.715-39.149 6.715-14.43 22.003-22.003 15.288-7.716 35.148-7.716 24.29 0 40.007 9.288 15.86 9.144 22.146 24.432 6.43 15.145 6.43 42.721zm-57.867-30.861v-13.86q0-14.716-1.571-19.002-1.572-4.287-6.43-4.287-6 0-7.43 3.715-1.428 3.572-1.428 19.575v13.859zM1319.647 535.154v46.436q0 25.576-2.572 37.578-2.572 11.859-11.002 22.289-8.43 10.287-21.718 15.288-13.145 4.858-30.29 4.858-19.146 0-32.434-4.144-13.288-4.286-20.717-12.716-7.287-8.573-10.43-20.575-3.144-12.144-3.144-36.291v-48.58q0-26.432 5.715-41.291 5.716-14.86 20.575-23.861 14.86-9.002 38.006-9.002 19.432 0 33.29 5.859 14.003 5.715 21.576 15.002 7.572 9.287 10.287 19.146 2.858 9.858 2.858 30.004zm-57.724-14.288q0-14.573-1.572-18.288-1.571-3.858-6.715-3.858t-6.858 3.858q-1.715 3.715-1.715 18.288v85.585q0 13.43 1.715 17.574 1.714 4.001 6.715 4.001 5.144 0 6.716-3.715 1.714-3.715 1.714-16.002z" style="stroke-width:1.52404749" transform="matrix(1.09472 0 0 .91348 -280.7 10.82)"/></g></svg>