<svg xmlns="http://www.w3.org/2000/svg" xmlns:osb="http://www.openswatchbook.org/uri/2009/osb" xml:space="preserve" width="505" height="132"><defs><linearGradient osb:paint="solid" id="b"><stop offset="0" style="stop-color:#000;stop-opacity:1"/></linearGradient><linearGradient id="a"><stop offset="0" style="stop-color:#f80;stop-opacity:1"/><stop offset="1" style="stop-color:#f80;stop-opacity:0"/></linearGradient></defs><path d="M480.01 47.553v82.877c11.315-2.29 22.487-12.94 23.226-40.682.557-20.863-9.39-35.116-23.226-42.195z" style="fill:#000;fill-opacity:.98989898;stroke:none;stroke-width:.58851516;stroke-linecap:round;stroke-linejoin:round;stroke-miterlimit:4;stroke-dasharray:none;stroke-opacity:1;paint-order:stroke fill markers" transform="translate(.198 -8.066)"/><path d="M97.056 131.224H69.68v-9.107c-2.616 3.283-5.259 5.676-7.93 7.178-4.674 2.616-9.988 3.923-15.942 3.923-9.627 0-18.197-3.31-25.709-9.932C11.14 115.384 6.66 104.922 6.66 91.9c0-13.243 4.59-23.816 13.772-31.718 7.29-6.288 15.664-9.432 25.124-9.432 5.509 0 10.684 1.169 15.525 3.506 2.783 1.335 5.648 3.533 8.598 6.594v-7.596h27.377zm-26.543-39.24c0-4.896-1.725-9.042-5.175-12.436-3.45-3.45-7.623-5.175-12.52-5.175-5.453 0-9.933 2.059-13.439 6.177-2.838 3.338-4.256 7.15-4.256 11.435s1.418 8.096 4.256 11.435c3.45 4.118 7.93 6.177 13.439 6.177 4.952 0 9.126-1.698 12.52-5.092 3.45-3.394 5.175-7.568 5.175-12.52zM161.941 79.103c-3.84-1.836-7.734-2.755-11.685-2.755-9.015 0-14.858 3.673-17.529 11.018-1.001 2.671-1.502 6.26-1.502 10.768l.417 33.137h-27.795V53.81h27.378V66.5c2.893-4.507 6.01-7.762 9.348-9.766 4.508-2.67 9.85-4.006 16.026-4.006 1.447 0 3.228.083 5.342.25z" style="font-style:normal;font-variant:normal;font-weight:700;font-stretch:normal;font-size:170.94393921px;line-height:7.00000003%;font-family:Aharoni;-inkscape-font-specification:&quot;Aharoni, Bold&quot;;text-align:start;letter-spacing:-10.96000004px;word-spacing:-12.86999989px;writing-mode:lr-tb;text-anchor:start;fill:#000;fill-opacity:1;stroke:#000;stroke-width:7;stroke-linecap:round;stroke-linejoin:round;stroke-miterlimit:4;stroke-dasharray:none;stroke-opacity:1" transform="translate(.198 -8.066)"/><path d="M222.227 129.509c-5.676 2.838-12.094 4.35-18.327 4.35-14.134 0-25.346-4.786-33.637-14.357-6.678-7.735-9.548-16.705-10.017-26.877-.835-18.124 3.34-19.198 10.017-26.877 8.29-9.571 19.503-14.357 33.637-14.357 6.344 0 12.298 1.447 17.863 4.34V79.02c-4.841-3.394-9.571-5.091-14.19-5.091-5.453 0-9.96 1.753-13.522 5.258-3.561 3.506-5.342 7.986-5.342 13.439s1.78 9.933 5.342 13.438c3.562 3.506 8.069 5.259 13.522 5.259 4.563 0 9.293-1.67 14.19-5.008zM314.128 131.781h-27.703v-9.107c-2.615 3.283-5.258 5.675-7.93 7.178-4.673 2.615-9.987 3.923-15.942 3.923-9.626 0-18.196-3.311-25.708-9.933-8.959-7.902-13.438-18.363-13.438-31.384 0-13.244 4.59-23.817 13.772-31.718 7.29-6.288 15.664-9.432 25.124-9.432 5.509 0 10.684 1.168 15.525 3.505 2.782 1.336 5.648 3.534 8.597 6.595v-7.596h27.378zm-26.868-39.24c0-4.896-1.725-9.042-5.175-12.436-3.45-3.45-7.623-5.176-12.52-5.176-5.454 0-9.933 2.06-13.439 6.177-2.838 3.339-4.257 7.15-4.257 11.435s1.42 8.097 4.257 11.436c3.45 4.117 7.93 6.176 13.439 6.176 4.952 0 9.126-1.697 12.52-5.091 3.45-3.395 5.175-7.568 5.175-12.52z" style="font-style:normal;font-variant:normal;font-weight:700;font-stretch:normal;font-size:170.94393921px;line-height:7.00000003%;font-family:Aharoni;-inkscape-font-specification:&quot;Aharoni, Bold&quot;;text-align:start;letter-spacing:-10.96000004px;word-spacing:-12.86999989px;writing-mode:lr-tb;text-anchor:start;fill:#000;fill-opacity:1;stroke:#000;stroke-width:7;stroke-linecap:round;stroke-linejoin:round;stroke-miterlimit:4;stroke-dasharray:none;stroke-opacity:1" transform="translate(.198 -8.066)"/><path d="m409.455 132.036-27.705.047v-9.517c-2.62 3.28-5.268 5.671-7.944 7.172-4.682 2.613-10.006 3.92-15.97 3.92-9.644 0-18.228-3.308-25.754-9.924-8.974-7.894-13.462-18.346-13.462-31.355 0-13.232 4.6-23.794 13.797-31.689 7.302-6.282 15.692-9.423 25.168-9.423 5.519 0 10.703 1.168 15.553 3.502 2.787 1.335 5.657 3.53 8.612 6.588l-.253-43.899h27.426zm-26.869-39.574c0-4.892-1.728-9.034-5.184-12.425-3.456-3.447-7.637-5.17-12.542-5.17-5.463 0-9.95 2.057-13.463 6.17-2.842 3.336-4.264 7.145-4.264 11.425 0 4.281 1.422 8.09 4.264 11.425 3.457 4.114 7.944 6.17 13.463 6.17 4.96 0 9.142-1.695 12.542-5.086 3.456-3.391 5.184-7.56 5.184-12.509z" style="font-style:normal;font-variant:normal;font-weight:700;font-stretch:normal;font-size:170.94393921px;line-height:7.00000003%;font-family:Aharoni;-inkscape-font-specification:&quot;Aharoni, Bold&quot;;text-align:start;letter-spacing:-10.96000004px;word-spacing:-12.86999989px;writing-mode:lr-tb;text-anchor:start;fill:#000;fill-opacity:1;stroke:#000;stroke-width:7.00289488;stroke-linecap:round;stroke-linejoin:round;stroke-miterlimit:4;stroke-dasharray:none;stroke-opacity:1" transform="translate(.198 -8.066)"/><path d="M499.123 95.908h-57.576c0 11.718 5.619 17.577 16.856 17.577 5.73 0 10.124-2.467 13.184-7.4l26.407-1.868c-2.114 7.064-5.185 14.398-9.301 18.267-7.454 7.008-17.44 10.512-29.957 10.512-15.91 0-27.87-4.878-35.88-14.633-6.008-7.289-9.012-16.175-9.012-26.66 0-12.446 3.755-22.566 11.265-30.359 7.51-7.793 18.107-11.69 31.792-11.69 16.855 0 28.9 6.168 36.131 18.502 4.06 6.952 6.091 15.026 6.091 24.22zm-25.533-15.81c-1.948-8.634-7.149-12.951-15.605-12.951-4.672 0-8.455 1.373-11.348 4.12-2.28 2.187-3.727 5.13-4.339 8.831z" style="font-style:normal;font-variant:normal;font-weight:700;font-stretch:normal;font-size:170.94393921px;line-height:7.00000003%;font-family:Aharoni;-inkscape-font-specification:&quot;Aharoni, Bold&quot;;text-align:start;letter-spacing:-10.96000004px;word-spacing:-12.86999989px;writing-mode:lr-tb;text-anchor:start;fill:#000;fill-opacity:1;stroke:#000;stroke-width:7.02531195;stroke-linecap:round;stroke-linejoin:round;stroke-miterlimit:4;stroke-dasharray:none;stroke-opacity:1" transform="translate(.198 -8.066)"/><path d="M95.943 123.27H68.565v-8.596q-3.923 4.924-7.93 7.178-7.01 3.923-15.942 3.923-14.44 0-25.708-9.933Q5.547 103.99 5.547 84.458q0-19.866 13.772-31.718 10.934-9.432 25.124-9.432 8.263 0 15.525 3.505 4.174 2.004 8.597 6.595v-7.596h27.378zM69.4 84.542q0-7.345-5.175-12.436-5.175-5.176-12.52-5.176-8.18 0-13.439 6.177-4.257 5.008-4.257 11.435 0 6.427 4.257 11.436 5.175 6.176 13.439 6.176 7.428 0 12.52-5.091Q69.4 91.97 69.4 84.542zM161.941 71.103q-5.759-2.755-11.685-2.755-13.522 0-17.529 11.018-1.502 4.007-1.502 10.768v33.137h-27.378V45.81h27.378V58.5q4.34-6.76 9.348-9.766 6.761-4.006 16.026-4.006 2.17 0 5.342.25z" style="color:#000;font-style:normal;font-variant:normal;font-weight:700;font-stretch:normal;font-size:170.94393921px;line-height:7.00000003%;font-family:Aharoni;-inkscape-font-specification:&quot;Aharoni, Bold&quot;;text-align:start;letter-spacing:-10.96000004px;word-spacing:-12.86999989px;writing-mode:lr-tb;text-anchor:start;clip-rule:nonzero;display:inline;overflow:visible;visibility:visible;isolation:auto;mix-blend-mode:normal;color-interpolation:sRGB;color-interpolation-filters:linearRGB;solid-color:#000;solid-opacity:1;fill:#fccd0a;fill-opacity:1;fill-rule:nonzero;stroke:#000;stroke-width:7;stroke-linecap:round;stroke-linejoin:round;stroke-miterlimit:4;stroke-dasharray:none;stroke-dashoffset:0;stroke-opacity:1;color-rendering:auto;image-rendering:auto;shape-rendering:auto;text-rendering:auto;enable-background:accumulate" transform="translate(.198 -8.066)"/><path d="M221.763 121.601q-8.514 4.257-17.863 4.257-21.2 0-33.637-14.356-10.017-11.602-10.017-26.877 0-15.358 10.017-26.877Q182.699 43.39 203.9 43.39q9.516 0 17.863 4.34V71.02q-7.262-5.091-14.19-5.091-8.18 0-13.522 5.258-5.342 5.259-5.342 13.439t5.342 13.438q5.342 5.259 13.522 5.259 6.845 0 14.19-5.008zM313.803 123.27h-27.378v-8.596q-3.923 4.924-7.93 7.178-7.01 3.923-15.942 3.923-14.44 0-25.708-9.933-13.438-11.852-13.438-31.384 0-19.866 13.772-31.718 10.934-9.432 25.124-9.432 8.263 0 15.525 3.505 4.174 2.004 8.597 6.595v-7.596h27.378zM287.26 84.542q0-7.345-5.175-12.436-5.175-5.176-12.52-5.176-8.18 0-13.439 6.177-4.257 5.008-4.257 11.435 0 6.427 4.257 11.436 5.175 6.176 13.439 6.176 7.428 0 12.52-5.091 5.175-5.092 5.175-12.52zM409.015 123.27h-27.377v-8.596c-2.616 3.283-5.259 5.675-7.93 7.178-4.674 2.615-9.988 3.923-15.942 3.923-9.627 0-18.197-3.311-25.709-9.933-8.959-7.902-13.438-18.363-13.438-31.384 0-13.244 4.59-23.817 13.772-31.718 7.29-6.288 15.664-9.432 25.124-9.432 5.51 0 10.684 1.168 15.525 3.505 2.783 1.336 5.648 3.534 8.598 6.595l-.253-39.08h27.377zm-26.543-38.729c0-4.896-1.725-9.042-5.175-12.436-3.45-3.45-7.623-5.176-12.52-5.176-5.453 0-9.933 2.06-13.438 6.177-2.838 3.339-4.257 7.15-4.257 11.435s1.419 8.097 4.257 11.436c3.45 4.117 7.929 6.176 13.438 6.176 4.952 0 9.126-1.697 12.52-5.091 3.45-3.395 5.175-7.568 5.175-12.52zM499.136 89.55h-57.593q0 17.444 16.86 17.444 8.598 0 13.188-7.345h26.46q-3.172 10.517-9.349 16.277-11.184 10.433-29.965 10.433-23.872 0-35.891-14.523-9.015-10.851-9.015-26.46 0-18.53 11.268-30.132 11.269-11.602 31.802-11.602 25.29 0 36.142 18.363 6.093 10.35 6.093 24.039zm-25.541-15.693q-2.922-12.854-15.61-12.854-7.01 0-11.35 4.09-3.423 3.255-4.341 8.764z" style="color:#000;font-style:normal;font-variant:normal;font-weight:700;font-stretch:normal;font-size:170.94393921px;line-height:7.00000003%;font-family:Aharoni;-inkscape-font-specification:&quot;Aharoni, Bold&quot;;text-align:start;letter-spacing:-10.96000004px;word-spacing:-12.86999989px;writing-mode:lr-tb;text-anchor:start;clip-rule:nonzero;display:inline;overflow:visible;visibility:visible;isolation:auto;mix-blend-mode:normal;color-interpolation:sRGB;color-interpolation-filters:linearRGB;solid-color:#000;solid-opacity:1;fill:#fccd0a;fill-opacity:1;fill-rule:nonzero;stroke:#000;stroke-width:7;stroke-linecap:round;stroke-linejoin:round;stroke-miterlimit:4;stroke-dasharray:none;stroke-dashoffset:0;stroke-opacity:1;color-rendering:auto;image-rendering:auto;shape-rendering:auto;text-rendering:auto;enable-background:accumulate" transform="translate(.198 -8.066)"/><path d="M45.41 40.082c-10.236 0-19.554 3.506-27.41 10.283C8.087 58.897 1.256 69.67 1.346 84.74c.141 23.632 11.419 40.165 15.966 35.393 8.069 7.113 17.92 9.417 28.348 9.417 6.467 0 12.424-1.444 17.65-4.369.003 0 .006-.003.009-.004.938-.528 1.814-1.298 2.712-1.982v.35a3.5 3.5 0 0 0 3.5 3.5H96.91a3.5 3.5 0 0 0 3.5-3.5v-77.46a3.5 3.5 0 0 0-3.5-3.5H69.532a3.5 3.5 0 0 0-3.5 3.5v.08c-1.183-.82-2.364-1.646-3.576-2.228-5.309-2.563-11.043-3.855-17.047-3.855Zm0 7c5.013 0 9.63 1.047 14.003 3.158l.008.004c2.277 1.093 4.848 3.02 7.592 5.867 2.186 2.266 6.019.719 6.02-2.43v-4.095h20.376v70.459H73.032v-5.096c.001-3.313-4.174-4.773-6.238-2.182-2.413 3.03-4.755 5.097-6.9 6.305h-.002c-4.121 2.305-8.79 3.478-14.23 3.478-8.825 0-16.44-2.927-23.395-9.058-8.244-7.271-12.254-16.541-12.254-28.76 0-12.435 4.108-21.793 12.557-29.064l.002-.002c6.722-5.8 14.153-8.584 22.837-8.584zm7.261 16.623c-6.334 0-12.017 2.608-16.103 7.408l-.002.002c-3.317 3.902-5.09 8.644-5.09 13.701 0 5.054 1.771 9.793 5.084 13.693 4.038 4.814 9.735 7.418 16.111 7.418 5.748 0 10.991-2.117 14.986-6.107 4.05-3.99 6.21-9.244 6.21-15.004 0-5.713-2.167-10.937-6.21-14.92-4.034-4.03-9.271-6.191-14.986-6.191zm0 7c4.075 0 7.182 1.284 10.047 4.148l.02.022c2.85 2.804 4.128 5.866 4.128 9.941 0 4.14-1.285 7.228-4.128 10.025l-.02.02c-2.793 2.793-5.894 4.066-10.047 4.066-4.637 0-7.895-1.509-10.756-4.923l-.015-.02c-2.36-2.776-3.424-5.656-3.424-9.168 0-3.511 1.064-6.39 3.422-9.166l.002-.002c2.924-3.434 6.2-4.943 10.771-4.943zM156.916 41.687c-6.68 0-12.698 1.468-17.808 4.496a3.5 3.5 0 0 0-.018.01c-1.436.861-2.736 2.085-4.047 3.285v-3.207a3.5 3.5 0 0 0-3.5-3.5h-27.379a3.5 3.5 0 0 0-3.5 3.5v77.46a3.5 3.5 0 0 0 3.5 3.5h27.38a3.5 3.5 0 0 0 3.5-3.5V90.592c0-4.248.504-7.472 1.279-9.537a3.5 3.5 0 0 0 .011-.033c2.24-6.157 6.175-8.715 14.239-8.715 3.408 0 6.757.778 10.175 2.412a3.5 3.5 0 0 0 5.012-3.156V45.437a3.5 3.5 0 0 0-3.225-3.488c-2.177-.172-4.037-.262-5.619-.262zm0 7c.478 0 1.265.067 1.844.088v17.852c-2.696-.784-5.423-1.319-8.187-1.319-9.958 0-17.701 4.783-20.809 13.305-1.225 3.274-1.72 7.22-1.72 11.98v29.637h-20.38V49.771h20.38v9.188a3.5 3.5 0 0 0 6.445 1.89c2.688-4.187 5.47-7.01 8.197-8.648 3.902-2.31 8.563-3.514 14.23-3.514z" style="color:#000;font-style:normal;font-variant:normal;font-weight:400;font-stretch:normal;font-size:medium;line-height:7.00000003%;font-family:Aharoni;-inkscape-font-specification:&quot;Aharoni, Bold&quot;;text-indent:0;text-align:start;text-decoration:none;text-decoration-line:none;text-decoration-style:solid;text-decoration-color:#000;letter-spacing:-10.96000004px;word-spacing:-12.86999989px;text-transform:none;writing-mode:lr-tb;direction:ltr;baseline-shift:baseline;text-anchor:start;white-space:normal;clip-rule:nonzero;display:inline;overflow:visible;visibility:visible;opacity:1;isolation:auto;mix-blend-mode:normal;color-interpolation:sRGB;color-interpolation-filters:linearRGB;solid-color:#000;solid-opacity:1;fill:#000;fill-opacity:1;fill-rule:nonzero;stroke:none;stroke-width:7;stroke-linecap:round;stroke-linejoin:round;stroke-miterlimit:4;stroke-dasharray:none;stroke-dashoffset:0;stroke-opacity:1;color-rendering:auto;image-rendering:auto;shape-rendering:auto;text-rendering:auto;enable-background:accumulate" transform="translate(.198 -8.066)"/><path d="M204.22 40.351c-14.925 0-27.348 5.25-36.284 15.565-7.18 8.26-10.871 18.172-10.871 29.17 0 10.948 3.693 20.854 10.867 29.164a3.5 3.5 0 0 0 .004.004c8.936 10.315 21.36 15.564 36.283 15.564 6.764 0 13.294-1.558 19.428-4.625a3.5 3.5 0 0 0 1.934-3.13v-23.29a3.5 3.5 0 0 0-5.471-2.89c-4.479 3.053-8.51 4.4-12.219 4.4-4.703 0-8.142-1.375-11.066-4.254-2.915-2.87-4.297-6.252-4.297-10.943 0-4.692 1.382-8.076 4.297-10.946 2.925-2.879 6.363-4.252 11.066-4.252 3.761 0 7.767 1.363 12.18 4.457a3.5 3.5 0 0 0 5.51-2.865V48.191a3.5 3.5 0 0 0-1.885-3.103c-6.048-3.145-12.601-4.737-19.477-4.737zm0 7c5.102 0 9.837 1.068 14.36 3.102v15.03c-3.525-1.643-7.1-2.595-10.689-2.595-6.203 0-11.779 2.132-15.977 6.264-4.208 4.142-6.386 9.718-6.386 15.934 0 6.215 2.178 11.79 6.386 15.931 4.198 4.132 9.774 6.266 15.977 6.266 3.57 0 7.144-.942 10.69-2.57v14.927c-4.621 2.01-9.353 3.178-14.362 3.178-13.344 0-23.347-4.321-30.994-13.148-6.178-7.159-9.16-15.169-9.16-24.584 0-9.478 2.984-17.483 9.156-24.58a3.5 3.5 0 0 0 .004-.006c7.647-8.828 17.65-13.149 30.994-13.149z" style="color:#000;font-style:normal;font-variant:normal;font-weight:400;font-stretch:normal;font-size:medium;line-height:7.00000003%;font-family:Aharoni;-inkscape-font-specification:&quot;Aharoni, Bold&quot;;text-indent:0;text-align:start;text-decoration:none;text-decoration-line:none;text-decoration-style:solid;text-decoration-color:#000;letter-spacing:-10.96000004px;word-spacing:-12.86999989px;text-transform:none;writing-mode:lr-tb;direction:ltr;baseline-shift:baseline;text-anchor:start;white-space:normal;clip-rule:nonzero;display:inline;overflow:visible;visibility:visible;opacity:1;isolation:auto;mix-blend-mode:normal;color-interpolation:sRGB;color-interpolation-filters:linearRGB;solid-color:#000;solid-opacity:1;fill:#000;fill-opacity:1;fill-rule:nonzero;stroke:none;stroke-width:7;stroke-linecap:round;stroke-linejoin:round;stroke-miterlimit:4;stroke-dasharray:none;stroke-dashoffset:0;stroke-opacity:1;color-rendering:auto;image-rendering:auto;shape-rendering:auto;text-rendering:auto;enable-background:accumulate" transform="translate(.198 -8.066)"/><path d="M262.621 40.267c-10.235 0-19.553 3.506-27.41 10.283l.002-.003c-9.914 8.532-14.988 20.318-14.988 34.37 0 13.824 4.949 25.478 14.623 34.01 8.069 7.113 17.594 10.809 28.023 10.809 6.467 0 12.424-1.445 17.65-4.37a3.5 3.5 0 0 0 .009-.003c.939-.528 1.815-1.298 2.713-1.983v.35a3.5 3.5 0 0 0 3.5 3.5h27.379a3.5 3.5 0 0 0 3.5-3.5V46.271a3.5 3.5 0 0 0-3.5-3.5h-27.38a3.5 3.5 0 0 0-3.5 3.5v.08c-1.182-.82-2.362-1.646-3.573-2.228l-.004-.002c-5.309-2.562-11.041-3.854-17.043-3.854zm0 7c5.014 0 9.631 1.047 14.004 3.158a3.5 3.5 0 0 0 .006.004c2.277 1.093 4.848 3.02 7.592 5.868a3.5 3.5 0 0 0 6.02-2.43V49.77h20.379v70.46h-20.38v-5.097a3.5 3.5 0 0 0-6.236-2.181c-2.413 3.03-4.756 5.096-6.902 6.304h-.002c-4.121 2.306-8.79 3.479-14.23 3.479-8.824 0-16.438-2.928-23.393-9.059-8.244-7.27-12.254-16.541-12.254-28.76 0-12.434 4.106-21.793 12.555-29.064a3.5 3.5 0 0 0 .004-.002c6.722-5.799 14.153-8.584 22.838-8.584zm7.262 16.623c-6.334 0-12.017 2.609-16.103 7.408a3.5 3.5 0 0 0-.002.002c-3.317 3.902-5.09 8.644-5.09 13.702 0 5.054 1.771 9.793 5.084 13.693 4.038 4.814 9.735 7.418 16.111 7.418 5.748 0 10.99-2.117 14.984-6.107 4.05-3.99 6.211-9.244 6.211-15.004 0-5.714-2.168-10.937-6.21-14.92-4.035-4.03-9.27-6.192-14.985-6.192zm0 7c4.075 0 7.18 1.284 10.045 4.149a3.5 3.5 0 0 0 .02.021c2.85 2.804 4.13 5.867 4.13 9.942 0 4.14-1.287 7.227-4.13 10.025a3.5 3.5 0 0 0-.02.02c-2.793 2.792-5.892 4.066-10.045 4.066-4.637 0-7.895-1.51-10.756-4.924a3.5 3.5 0 0 0-.015-.02c-2.36-2.775-3.424-5.655-3.424-9.167 0-3.511 1.064-6.391 3.422-9.166l.002-.002c2.924-3.435 6.2-4.944 10.771-4.944z" style="color:#000;font-style:normal;font-variant:normal;font-weight:400;font-stretch:normal;font-size:medium;line-height:7.00000003%;font-family:Aharoni;-inkscape-font-specification:&quot;Aharoni, Bold&quot;;text-indent:0;text-align:start;text-decoration:none;text-decoration-line:none;text-decoration-style:solid;text-decoration-color:#000;letter-spacing:-10.96000004px;word-spacing:-12.86999989px;text-transform:none;writing-mode:lr-tb;direction:ltr;baseline-shift:baseline;text-anchor:start;white-space:normal;clip-rule:nonzero;display:inline;overflow:visible;visibility:visible;opacity:1;isolation:auto;mix-blend-mode:normal;color-interpolation:sRGB;color-interpolation-filters:linearRGB;solid-color:#000;solid-opacity:1;fill:#000;fill-opacity:1;fill-rule:nonzero;stroke:none;stroke-width:7;stroke-linecap:round;stroke-linejoin:round;stroke-miterlimit:4;stroke-dasharray:none;stroke-dashoffset:0;stroke-opacity:1;color-rendering:auto;image-rendering:auto;shape-rendering:auto;text-rendering:auto;enable-background:accumulate" transform="translate(.198 -8.066)"/><path d="M381.618 10.774a3.5 3.5 0 0 0-3.5 3.5l.337 32.077c-1.183-.82-2.364-1.646-3.576-2.228-5.309-2.563-11.043-3.856-17.047-3.856-10.235 0-19.553 3.506-27.41 10.283-9.911 8.532-14.986 20.317-14.986 34.368 0 13.823 4.95 25.477 14.625 34.01 8.068 7.112 17.594 10.808 28.023 10.808 6.467 0 12.424-1.445 17.65-4.37.004 0 .006-.002.009-.003.938-.528 1.814-1.298 2.713-1.983v.35a3.5 3.5 0 0 0 3.5 3.5h27.377a3.5 3.5 0 0 0 3.5-3.5l-.338-109.457a3.5 3.5 0 0 0-3.5-3.5h-27.377zm3.5 7h20.377l.337 102.456h-20.377v-5.096c.001-3.312-4.174-4.773-6.238-2.181-2.413 3.03-4.755 5.096-6.9 6.304h-.002c-4.121 2.306-8.79 3.479-14.23 3.479-8.825 0-16.44-2.927-23.395-9.059-8.244-7.27-12.254-16.541-12.254-28.76 0-12.434 4.108-21.793 12.556-29.064l.002-.002c6.723-5.799 14.154-8.584 22.838-8.584 5.014 0 9.631 1.047 14.004 3.158l.008.004c2.277 1.093 4.848 3.02 7.592 5.867 2.186 2.267 6.02.72 6.02-2.43l-.338-36.092zM365.094 63.89c-6.334 0-12.017 2.609-16.103 7.408l-.002.002c-3.317 3.902-5.09 8.644-5.09 13.702 0 5.054 1.771 9.793 5.084 13.693 4.038 4.814 9.735 7.418 16.111 7.418 5.748 0 10.991-2.117 14.986-6.107 4.05-3.99 6.21-9.244 6.21-15.004 0-5.714-2.167-10.937-6.21-14.92-4.034-4.03-9.271-6.192-14.986-6.192zm0 7c4.075 0 7.182 1.284 10.047 4.149l.02.021c2.85 2.804 4.128 5.867 4.128 9.942 0 4.14-1.285 7.227-4.129 10.025l-.019.02c-2.793 2.792-5.894 4.066-10.047 4.066-4.637 0-7.895-1.51-10.756-4.924l-.015-.02c-2.36-2.775-3.424-5.655-3.424-9.167 0-3.511 1.064-6.391 3.422-9.166l.002-.002c2.924-3.435 6.2-4.944 10.771-4.944z" style="color:#000;font-style:normal;font-variant:normal;font-weight:400;font-stretch:normal;font-size:medium;line-height:7.00000003%;font-family:Aharoni;-inkscape-font-specification:&quot;Aharoni, Bold&quot;;text-indent:0;text-align:start;text-decoration:none;text-decoration-line:none;text-decoration-style:solid;text-decoration-color:#000;letter-spacing:-10.96000004px;word-spacing:-12.86999989px;text-transform:none;writing-mode:lr-tb;direction:ltr;baseline-shift:baseline;text-anchor:start;white-space:normal;clip-rule:nonzero;display:inline;overflow:visible;visibility:visible;opacity:1;isolation:auto;mix-blend-mode:normal;color-interpolation:sRGB;color-interpolation-filters:linearRGB;solid-color:#000;solid-opacity:1;fill:#000;fill-opacity:1;fill-rule:nonzero;stroke:none;stroke-width:7;stroke-linecap:round;stroke-linejoin:round;stroke-miterlimit:4;stroke-dasharray:none;stroke-dashoffset:0;stroke-opacity:1;color-rendering:auto;image-rendering:auto;shape-rendering:auto;text-rendering:auto;enable-background:accumulate" transform="translate(.198 -8.066)"/><path d="M457.22 40.601c-14.349 0-26.061 4.167-34.313 12.664-8.161 8.403-12.258 19.508-12.258 32.57 0 11.08 3.285 20.83 9.822 28.698 8.739 10.555 21.962 15.787 38.584 15.787 13.168 0 24.18-3.754 32.352-11.375 4.676-4.36 8.067-10.38 10.312-17.824a3.5 3.5 0 0 0-3.35-4.512h-26.46a3.5 3.5 0 0 0-2.967 1.645c-2.54 4.064-5.486 5.7-10.221 5.7-5.017 0-8.13-1.223-10.129-3.292-1.512-1.565-2.58-3.86-3.014-7.153h53.875a3.5 3.5 0 0 0 3.5-3.5v-3.505c0-9.646-2.171-18.333-6.576-25.815a3.5 3.5 0 0 0-.004-.004c-7.84-13.267-21.446-20.084-39.154-20.084zm0 7c16.013 0 26.5 5.428 33.128 16.645 3.718 6.317 5.605 13.654 5.605 22.258v.005H441.86a3.5 3.5 0 0 0-3.5 3.5c0 6.38 1.579 11.77 5.199 15.516 3.62 3.746 8.938 5.43 15.162 5.43 6.004 0 11.21-2.715 14.826-7.346h19.86c-1.81 4.334-4.085 7.71-6.774 10.217-6.742 6.29-15.706 9.494-27.578 9.494-15.205 0-25.908-4.45-33.195-13.256a3.5 3.5 0 0 0-.004-.004c-5.483-6.6-8.207-14.492-8.207-24.224 0-11.644 3.416-20.627 10.279-27.694 6.772-6.972 16.261-10.54 29.291-10.54zm1.083 10.362c-5.355 0-10.174 1.67-13.752 5.043a3.5 3.5 0 0 0-.012.011c-2.882 2.742-4.67 6.467-5.38 10.725a3.5 3.5 0 0 0 3.453 4.076h31.3a3.5 3.5 0 0 0 3.413-4.275c-1.096-4.819-3.231-8.835-6.551-11.569-3.32-2.734-7.65-4.011-12.47-4.011zm0 7c3.638 0 6.139.865 8.022 2.416 1.023.842 1.884 2.01 2.623 3.439h-21.586c.538-1.053 1.193-1.955 1.996-2.72 2.208-2.079 4.955-3.135 8.945-3.135z" style="color:#000;font-style:normal;font-variant:normal;font-weight:400;font-stretch:normal;font-size:medium;line-height:7.00000003%;font-family:Aharoni;-inkscape-font-specification:&quot;Aharoni, Bold&quot;;text-indent:0;text-align:start;text-decoration:none;text-decoration-line:none;text-decoration-style:solid;text-decoration-color:#000;letter-spacing:-10.96000004px;word-spacing:-12.86999989px;text-transform:none;writing-mode:lr-tb;direction:ltr;baseline-shift:baseline;text-anchor:start;white-space:normal;clip-rule:nonzero;display:inline;overflow:visible;visibility:visible;opacity:1;isolation:auto;mix-blend-mode:normal;color-interpolation:sRGB;color-interpolation-filters:linearRGB;solid-color:#000;solid-opacity:1;fill:#000;fill-opacity:1;fill-rule:nonzero;stroke:none;stroke-width:7;stroke-linecap:round;stroke-linejoin:round;stroke-miterlimit:4;stroke-dasharray:none;stroke-dashoffset:0;stroke-opacity:1;color-rendering:auto;image-rendering:auto;shape-rendering:auto;text-rendering:auto;enable-background:accumulate" transform="translate(.198 -8.066)"/></svg>