<svg xmlns="http://www.w3.org/2000/svg" xml:space="preserve" width="568.929" height="116.145"><path fill="#FFF" d="M358.58 26.897v-2.481h17.185v21.973h-12.201v4.326h-4.197v4.851h-4.837v21.108h4.18v4.457h4.592v4.72h12.463v22.244H358.71v-2.737h-5.248v-2.565h-4.197v-3.59h-3.805v-4.761H341v-4.689h-4.196v-5.64h-4.07V48.142h4.07v-5.424h4.065v-4.905h4.724v-4.689h3.672V29.74h3.805v-2.843z"/><path d="M376.515 108.845H357.96v-2.737h-5.248v-2.564h-4.197v-3.59h-3.805v-4.762h-4.461v-4.688h-4.195v-5.641h-4.07V47.392h4.07v-5.424h4.064v-4.905h4.725v-4.688h3.672V28.99h3.805v-2.844h5.51v-2.48h18.686v23.473h-12.201v4.326h-4.197v4.851h-4.837v19.608h4.181v4.457h4.592v4.72h12.463v23.744zm-17.055-1.5h15.555V86.601h-12.463v-4.72h-4.592v-4.457h-4.181V54.816h4.837v-4.851h4.197v-4.326h12.201V25.166H359.33v2.48h-5.51v2.844h-3.805v3.384h-3.672v4.688h-4.725v4.905h-4.064v5.424h-4.07v34.471h4.07v5.641h4.195v4.688h4.461v4.762h3.805v3.59h4.197v2.564h5.248v2.738z"/><path fill="#FFF" d="M405.199 26.488v-2.177h18.365v2.177h5.248v2.754h3.938v3.937h4.197v4.199h4.33v4.852h4.461v65.811h-20.27V51.019h-4.394v-4.064h-10.625v3.802h-4.723v4.593h-4.857v21.253h4.591v4.721h4.2v3.804h11.281v22.913h-15.742v-1.79h-5.51v-2.755h-3.543v-3.804h-4.197v-4.46h-4.069v-5.117h-4.066v-5.641h-4.461V48.265h3.805v-5.547h4.593v-4.817h4.198v-4.854h3.935v-3.543h4.067v-3.023z"/><path d="M446.488 108.791h-21.77V51.769h-4.395v-4.063h-9.125v3.802h-4.723V56.1h-4.857v19.753h4.592v4.722h4.199v3.804h11.281v24.413h-17.242v-1.79h-5.51v-2.755h-3.543v-3.805h-4.197v-4.46h-4.068v-5.116h-4.066v-5.642h-4.461V47.515h3.805v-5.547h4.594v-4.817h4.197v-4.854h3.936v-3.543h4.066V25.73l5.248.007v-2.176h19.865v2.177h5.248v2.755h3.938v3.937h4.197v4.199h4.33v4.852h4.461v67.31zm-20.27-1.5h18.77V42.98h-4.461v-4.852h-4.33v-4.199H432v-3.937h-3.938v-2.755h-5.248V25.06h-16.865v2.178l-5.248-.007v3.022h-4.066v3.543h-3.936v4.854h-4.197v4.817h-4.594v5.547h-3.805v34.709h4.461v5.642h4.066v5.116h4.068v4.46h4.197v3.805h3.543v2.755h5.51v1.79h14.242V85.878h-11.28v-3.804h-4.199v-4.722h-4.592V54.6h4.857v-4.593h4.723v-3.802h12.125v4.063h4.395v57.023z"/><path fill="#F2B101" d="M29.042 26.488v-2.177h18.366v2.177h5.248v2.754h3.937v3.937h4.198v4.199h4.33v4.853h4.461v65.81h-20.27V51.02h-4.395v-4.065H34.292v3.802H29.57v4.594h-4.858v21.251h4.592v4.722h4.199v3.805h11.282v22.912H29.042v-1.789h-5.509v-2.756H19.99v-3.804h-4.198v-4.459h-4.067v-5.118H7.658v-5.64H3.197v-36.21h3.804v-5.547h4.595v-4.817h4.196v-4.854h3.936v-3.543h4.066v-3.023z"/><path d="M70.332 108.791h-21.77V51.77h-4.395v-4.064h-9.125v3.802H30.32v4.594h-4.858v19.751h4.592v4.723h4.199v3.805h11.282v24.412H28.292v-1.789h-5.509v-2.756H19.24v-3.805h-4.198v-4.459h-4.067v-5.117H6.908v-5.641H2.447v-37.71h3.804v-5.547h4.595v-4.817h4.196v-4.854h3.936v-3.543h4.066V25.73l5.248.007v-2.176h19.866v2.177h5.248v2.755h3.937v3.937h4.198v4.199h4.33v4.853h4.461v67.309zm-20.27-1.5h18.77v-64.31h-4.461v-4.853h-4.33v-4.199h-4.198v-3.937h-3.937v-2.755h-5.248V25.06H29.792v2.178l-5.248-.007v3.022h-4.066v3.543h-3.936v4.854h-4.196v4.817H7.751v5.547H3.947v34.71h4.461v5.641h4.067v5.117h4.067v4.459h4.198v3.805h3.543v2.756h5.509v1.789h14.243V85.879H32.753v-3.805h-4.199v-4.723h-4.592v-22.75h4.858v-4.594h4.722v-3.802h12.125v4.064h4.395v57.022z"/><path fill="#FFF" d="M491.369 46.077V24.31h-15.946v2.285l-5.035.013v2.685h-4.361v3.693h-4.365v4.699h-3.86v4.7h-4.197v5.874h-4.363v35.918h4.531v5.707h4.029v5.202H462v4.868h4.195v3.693h4.193v2.516h5.709v1.879h19.131v-1.71h5.205v-3.022h3.525v-4.195h3.862v-4.868h4.697v-4.7h4.197V7.138H495.06v74.185h-3.691v3.862h-11.414v-3.862h-3.858v-5.035h-4.533V55.31h4.867v-4.365h4.197v-4.868z"/><path d="M495.978 108.792h-20.631v-1.879h-5.709v-2.517h-4.193v-3.692h-4.195v-4.868h-4.197v-5.202h-4.029v-5.707h-4.531V47.509h4.363v-5.874h4.197v-4.7h3.859v-4.699h4.365v-3.692h4.361V25.86l5.035-.013V23.56h17.445v23.268h-10.74v4.867h-4.197v4.365h-4.867v19.479h4.533v5.035h3.857v3.861h9.914v-3.861h3.691V6.388h23.154v83.909h-4.197v4.7h-4.697v4.868h-3.861v4.194h-3.525v3.022h-5.205v1.711zm-19.131-1.5h17.631v-1.71h5.205v-3.022h3.525v-4.194h3.861v-4.868h4.697v-4.7h4.197V7.888H495.81v74.186h-3.691v3.861h-12.914v-3.861h-3.857v-5.035h-4.533V54.56h4.867v-4.365h4.197v-4.867h10.74V25.06h-14.445v2.283l-5.035.013v2.688h-4.361v3.692h-4.365v4.699h-3.859v4.7h-4.197v5.874h-4.363v34.418h4.531v5.707h4.029v5.202h4.197v4.868h4.195v3.692h4.193v2.517h5.709v1.879z"/><path fill="#FFF" d="M525.328 47.705v-5.282h3.656v-4.604h4.334v-4.742h3.795v-3.793h4.334V26.17h4.875v-1.86h19.773v22.176h-13.814v3.386h-4.469v2.574h-4.066v2.98h22.349v20.722h-22.213v3.251h4.201v2.572h3.926v3.252h14.086v22.819h-19.773v-1.828h-4.608v-2.842h-4.199v-3.793h-3.924v-4.2h-4.607v-5.416h-3.656v-5.96h-4.877V47.69z"/><path d="M566.845 108.792h-21.273v-1.828h-4.607v-2.842h-4.199v-3.793h-3.924v-4.2h-4.607v-5.416h-3.656v-5.96h-4.877V46.937l4.877.016v-5.28h3.656v-4.604h4.334v-4.741h3.795v-3.793h4.334V25.42h4.875v-1.86h21.273v23.676h-13.814v3.387h-4.469v2.573h-4.066v1.48h22.35v22.222h-22.213v1.751h4.201v2.572h3.926v3.252h14.086v24.319zm-19.773-1.5h18.273V85.973h-14.086v-3.252h-3.926v-2.572h-4.201v-4.751h22.213V56.176h-22.35v-4.48h4.066v-2.573h4.469v-3.387h13.814V25.06h-18.273v1.86h-4.875v3.114h-4.334v3.793h-3.795v4.741h-4.334v4.604h-3.656v5.285l-4.877-.016v34.811h4.877v5.96h3.656v5.416h4.607v4.2h3.924v3.793h4.199v2.842h4.607v1.829z"/><path fill="#F2B101" d="M136.836 55.95V42.491h-4.154v-4.982h-4.275v-4.58h-3.86v-3.548h-4.067v-2.797h-5.02v-2.273H94.691v2.273h-5.539v2.797h-3.721v3.548h-3.894v4.58h-4.5v4.72h-3.723v21.937h4.154v4.283h4.241v3.933h29.165v4.37h4.327v4.283H110.7v4.457H99.537v-4.631h-3.981V76.49H73.314v13.372h4.154v4.545h4.327v4.546h4.329v3.583h3.806v2.796h5.193v2.71h20.597v-2.71h4.674v-2.796h4.153v-3.583h4.154v-4.458h4.068V89.95h4.067V68.974h-5.019v-4.109h-4.241v-4.894H99.45v-4.37h-4.24v-4.283h4.24v-4.632h11.164v4.982h4.154v4.282z"/><path d="M116.47 108.792H94.373v-2.71H89.18v-2.796h-3.806v-3.583h-4.329v-4.546h-4.327v-4.546h-4.154V75.74h23.742v4.37h3.981v4.632h9.663v-4.457h4.501v-2.783h-4.327v-4.37H80.959v-3.933h-4.241v-4.283h-4.154V41.479h3.723v-4.72h4.5v-4.58h3.894v-3.548h3.721v-2.797h5.539v-2.273h22.269v2.273h5.02v2.797h4.067v3.548h3.86v4.58h4.275v4.982h4.154V56.7h-23.568v-4.282h-4.154v-4.982H100.2v4.632h-4.24v2.783h4.24v4.37h28.126v4.895h4.241v4.108h5.019V90.7h-4.067v4.545h-4.068v4.458h-4.154v3.583h-4.153v2.796h-4.674v2.71zm-20.597-1.5h19.097v-2.71h4.674v-2.796h4.153v-3.583h4.154v-4.458h4.068V89.2h4.067V69.724h-5.019v-4.108h-4.241v-4.895H98.7v-4.37h-4.24v-5.783h4.24v-4.632h12.664v4.982h4.154V55.2h20.568V43.241h-4.154v-4.982h-4.275v-4.58h-3.86v-3.548h-4.067v-2.797h-5.02v-2.273H95.441v2.273h-5.539v2.797h-3.721v3.548h-3.894v4.58h-4.5v4.72h-3.723v20.438h4.154V67.7h4.241v3.933h29.165v4.37h4.327v5.783h-4.501v4.457H98.787v-4.632h-3.981v-4.37H74.064v11.871h4.154v4.546h4.327v4.546h4.329v3.583h3.806v2.796h5.193v2.709z"/><path fill="#F2B101" d="M183.471 86.1v-4.625h-4.232v-4.36h-3.886V46.836h12.868v-7.765h-5.009v-4.799h-4.665v-3.664h-3.194V16.909h-22.112v13.699h-2.851v3.664h-4.318v4.799h-5.441v7.765h12.61v37.257h4.319v5.234h3.627v5.062h4.232v5.147h3.715v3.839h3.713v2.793h5.614V108h15.634V86.1z"/><path d="M194.845 108.75h-17.134v-1.832h-5.614v-2.793h-3.713v-3.839h-3.715v-5.147h-4.232v-5.062h-3.627v-5.234h-4.319V47.586h-12.61V38.32h5.441v-4.799h4.318v-3.664h2.851V16.159h23.612v13.698h3.194v3.664h4.665v4.799h5.009v9.266h-12.868v28.779h3.886v4.359h4.232v4.625h10.624v23.401zm-15.634-1.5h14.134v-20.4h-10.624v-4.625h-4.232v-4.359h-3.886v-31.78h12.868V39.82h-5.009v-4.799h-4.665v-3.664h-3.194V17.659h-20.612v13.698h-2.851v3.664h-4.318v4.799h-5.441v6.266h12.61v37.257h4.319v5.234h3.627v5.062h4.232v5.147h3.715v3.839h3.713v2.793h5.614v1.832z"/><path fill="#F2B101" d="M243.015 72.016h4.711v-4.718h3.933v-5.33h2.36V42.309h-2.885V37.94h-3.67v-4.631h-4.283v-3.67h-4.72v-2.795h-4.544V24.31h-14.071v2.534h-3.932v2.795h-4.37v3.67h-4.719v4.631h-4.195v4.281h-4.719v65.794h21.499V46.677h14.507v11.709h-4.457v3.145h-6.73v15.64l13.109 30.844h22.199z"/><path d="M259.164 108.765h-23.821L221.98 77.323V60.781h6.73v-3.146h4.457V47.427H220.16v61.338h-22.999V41.471h4.719V37.19h4.195v-4.631h4.719v-3.67h4.37v-2.795h3.932V23.56h15.571v2.534h4.544v2.795h4.72v3.67h4.283v4.631h3.67v4.369h2.885v21.159h-2.36v5.33h-3.933v4.718h-4.335l15.023 35.999zm-22.829-1.5h20.578L241.89 71.266h5.086v-4.718h3.933v-5.33h2.36V43.059h-2.885V38.69h-3.67v-4.631h-4.283v-3.67h-4.72v-2.795h-4.544V25.06h-12.571v2.534h-3.932v2.795h-4.37v3.67h-4.719v4.631h-4.195v4.281h-4.719v64.294h19.999V45.927h16.007v13.209h-4.457v3.146h-6.73v14.737l12.855 30.246z"/><path fill="#F2B101" d="M325.389 48.171v-5.594h-4.326v-4.724h-4.409v-4.719h-3.893V29.74h-3.977v-2.81h-5.02v-2.62h-20.84v2.622H278v2.622h-4.324v3.583h-3.544v4.719h-4.584v4.724h-3.977v5.594h-4.238v36.009h4.238v5.592h3.977v4.726h4.584v4.719h3.544v3.583H278v2.623h4.929v2.621H303.769v-2.621h5.016v-2.623h3.977V99.22h3.896v-4.719h4.409v-4.726h4.326v-5.658h3.89V48.171h-3.894zm-22.223 28.231v4.724h-4.324v4.37h-11.063v-4.37H283.8v-4.724h-4.669V55.949h4.669v-4.726h3.979V46.86h11.063v4.369h4.324v4.726h4.324v20.447h-4.324z"/><path d="M304.519 108.795h-22.254l-.086-.75v-1.871h-4.929v-2.623h-4.324v-3.583h-3.544v-4.719h-4.584v-4.726h-3.977v-5.592h-4.238v-37.42l.75-.088h3.488v-5.594h3.977v-4.724h4.584v-4.719h3.544v-3.583h4.324v-2.622h4.925V23.56h22.34v2.62h5.02v2.811h3.977v3.395h3.893v4.719h4.409v4.724h4.326v5.594h3.894v37.352l-.75.093h-3.14v5.658h-4.326v4.726h-4.409v4.719h-3.896v3.583h-3.977v2.623h-5.016v2.618zm-20.84-1.5h19.34v-2.621h5.016v-2.623h3.977v-3.583h3.896v-4.719h4.409v-4.726h4.326v-5.658h3.89V48.921h-3.894v-5.594h-4.326v-4.724h-4.409v-4.719h-3.893V30.49h-3.977v-2.81h-5.02v-2.62h-19.34v2.622h-4.925v2.622h-4.324v3.583h-3.544v4.719h-4.584v4.724h-3.977v5.594h-4.238v34.509h4.238v5.592h3.977v4.726h4.584v4.719h3.544v3.583h4.324v2.623h4.929v2.619zm15.912-21.05h-12.563v-4.37h-3.979v-4.724h-4.669V55.199h4.669v-4.726h3.979V46.11h12.563v4.369h4.324v4.726h4.324v21.947h-4.324v4.724h-4.324v4.369zm-11.063-1.5h9.563v-4.37h4.324v-4.724h4.324V56.704h-4.324v-4.726h-4.324V47.61h-9.563v4.364h-3.979V56.7h-4.669v18.952h4.669v4.724h3.979v4.369z"/></svg>