<svg xmlns="http://www.w3.org/2000/svg" xml:space="preserve" width="533.405" height="118.969"><defs><clipPath id="a" clipPathUnits="userSpaceOnUse"><path d="M0 95.175h426.724V0H0v95.175Z"/></clipPath></defs><g clip-path="url(#a)" transform="matrix(1.25 0 0 -1.25 0 118.97)"><path d="m0 0 8.247 26.613L16.494 0H0Zm20.294 47.621c-2.139 6.665-6.151 9.997-12.047 9.997-5.94 0-9.952-3.332-12.036-9.997l-26.012-84.365h18.355l6.464 20.607h26.391l6.386-20.607h18.5L20.294 47.621z" style="fill:#a92d38;fill-opacity:1;fill-rule:nonzero;stroke:none" transform="translate(157.02 36.744)"/><path d="M0 0v-16.137h20.283v-78.225h17.765v78.225h20.283V0H0Z" style="fill:#a92d38;fill-opacity:1;fill-rule:nonzero;stroke:none" transform="translate(185.784 94.362)"/><path d="m0 0 8.247 26.613L16.494 0H0Zm20.283 47.621c-2.128 6.665-6.14 9.997-12.036 9.997-5.951 0-9.963-3.332-12.036-9.997l-26.012-84.365h18.355l6.464 20.607h26.38l6.386-20.607h18.511L20.283 47.621z" style="fill:#a92d38;fill-opacity:1;fill-rule:nonzero;stroke:none" transform="translate(256.53 36.744)"/><path d="M0 0c6.999 2.251 12.783 6.018 17.363 11.278 4.625 5.316 6.944 11.19 6.944 17.631 0 6.932-2.954 12.884-8.849 17.832-5.896 5.004-12.65 7.5-20.284 7.5h-20.283c-3.076 0-5.751-1.036-8.035-3.109-2.274-2.073-3.411-4.48-3.411-7.222v-84.031h17.754v78.225H-4.87c2.964 0 5.606-1.059 7.935-3.177 2.318-2.117 3.477-4.502 3.477-7.166 0-3.867-2.196-7.132-6.587-9.796a342.525 342.525 0 0 1-6.085-3.098 337.09 337.09 0 0 0-6.073-3.109c-4.391-2.931-6.598-6.709-6.598-11.346 0-2.485 1.56-5.906 4.67-10.275L7.144-40.121h20.729L0 0Z" style="fill:#a92d38;fill-opacity:1;fill-rule:nonzero;stroke:none" transform="translate(339.602 40.12)"/><path d="M373.415 0h17.765v94.362h-17.765V0z" style="fill:#a92d38;fill-opacity:1;fill-rule:nonzero;stroke:none"/><path d="M0 0c-.501.257-.972.39-1.412.39-.767 0-1.443-.421-2.016-1.284-.583-.801-.869-1.767-.869-2.887v-14.763H.205V-6.4l21.814-11.404v6.287L0 0Z" style="fill:#a92d38;fill-opacity:1;fill-rule:nonzero;stroke:none" transform="translate(404.705 18.544)"/><path d="M0 0c-.859-.863-1.86-1.288-2.989-1.288-.936 0-1.77.515-2.514 1.546-.731 1.03-1.103 2.202-1.103 3.516a5.88 5.88 0 0 0 1.103 3.49c.744 1.03 1.578 1.546 2.514 1.546 1.129 0 2.13-.425 2.989-1.288.962-.941 1.45-2.19 1.45-3.748C1.45 2.241.962.979 0 0m-10.78.482c-.685-.965-1.477-1.447-2.366-1.447-1.032 0-1.957.398-2.785 1.206-.901.916-1.345 2.097-1.345 3.532 0 1.459.444 2.628 1.345 3.508.828.808 1.753 1.205 2.785 1.205.889 0 1.681-.482 2.366-1.446a5.44 5.44 0 0 0 1.044-3.267c0-1.23-.348-2.327-1.044-3.291M2.906 10.963c-1.463 2.054-3.182 3.092-5.157 3.092-2.363 0-4.297-1.027-5.801-3.072-1.443 2.045-3.162 3.072-5.147 3.072h-.634c-1.975 0-3.694-1.038-5.168-3.092-1.483-2.045-2.22-4.449-2.22-7.192 0-2.743.737-5.147 2.22-7.212 1.474-2.055 3.193-3.092 5.168-3.092 2.373 0 4.297 1.037 5.781 3.092 1.442-2.055 3.161-3.092 5.146-3.092h.655c1.975 0 3.694 1.037 5.157 3.092 1.463 2.086 2.19 4.49 2.19 7.212 0 2.712-.727 5.106-2.19 7.192" style="fill:#a92d38;fill-opacity:1;fill-rule:nonzero;stroke:none" transform="translate(421.628 27.933)"/><path d="M0 0c-4.104 0-7.435 3.345-7.435 7.466S-4.104 14.931 0 14.931c4.104 0 7.435-3.344 7.435-7.465S4.104 0 0 0m0 19.424c-6.579 0-11.91-5.353-11.91-11.958C-11.91.86-6.579-4.493 0-4.493S11.91.86 11.91 7.466c0 6.605-5.331 11.958-11.91 11.958" style="fill:#a92d38;fill-opacity:1;fill-rule:nonzero;stroke:none" transform="translate(413.566 49.172)"/><path d="M0 0c-4.104 0-7.435 3.345-7.435 7.466S-4.104 14.931 0 14.931c4.104 0 7.435-3.344 7.435-7.465S4.104 0 0 0m0 19.424c-6.579 0-11.91-5.353-11.91-11.958C-11.91.86-6.579-4.493 0-4.493S11.91.86 11.91 7.466c0 6.605-5.331 11.958-11.91 11.958" style="fill:#a92d38;fill-opacity:1;fill-rule:nonzero;stroke:none" transform="translate(413.566 74.938)"/><path d="M65.22.312H52.704v9.963H65.22V.312z" style="fill:#6c4d9d;fill-opacity:1;fill-rule:evenodd;stroke:none"/><path d="M0 0v-10.231c-4.993-.212-9.852.446-14.544 2.017-4.725 1.583-9.083 3.778-12.916 6.776-.602.468-1.215.948-1.806 1.438H0Z" style="fill:#6c4d9d;fill-opacity:1;fill-rule:evenodd;stroke:none" transform="translate(118.135 10.275)"/><path d="M0 0c-4.023-3.399-8.637-5.996-13.764-7.835-4.692-1.671-9.517-2.541-14.555-2.396h-1.069c0 3.477-.012 6.865.022 10.231H0Z" style="fill:#6c4d9d;fill-opacity:1;fill-rule:evenodd;stroke:none" transform="translate(29.39 10.275)"/><path d="M0 0c-1.683-3.12-3.689-6.074-6.13-8.804-1.861-2.084-3.766-4.146-5.895-5.996a13.877 13.877 0 0 0-.457-.379h-29.366c-.011.947 0 1.883.011 2.831 0 .278.39.758.657.802 3.957.647 7.713 1.861 11.156 3.7 2.742 1.471 5.417 3.121 7.891 4.948A40.25 40.25 0 0 1-18.612 0H0Z" style="fill:#3e6eb2;fill-opacity:1;fill-rule:evenodd;stroke:none" transform="translate(41.872 25.454)"/><path d="M0 0v-3.466h-29.266a46.916 46.916 0 0 0-3.176 2.742c-3.054 2.953-5.639 6.241-7.846 9.785a52.897 52.897 0 0 0-1.549 2.652h18.678a35.714 35.714 0 0 1 2.463-2.207C-14.945 4.826-8.381 1.482-.713.19-.468.156-.234.067 0 0" style="fill:#3e6eb2;fill-opacity:1;fill-rule:evenodd;stroke:none" transform="translate(118.135 13.741)"/><path d="M65.22 10.275H52.704v15.179H65.22V10.275z" style="fill:#3e6eb2;fill-opacity:1;fill-rule:evenodd;stroke:none"/><path d="M65.22 25.454H52.704V40.31H65.22V25.454z" style="fill:#35afdf;fill-opacity:1;fill-rule:evenodd;stroke:none"/><path d="M0 0h-18.678a53.343 53.343 0 0 0-3.912 8.793c-.68 2.006-1.293 4.012-1.761 6.063h13.128c1.795-3.622 3.979-7.055 6.776-10.153C-3.009 3.109-1.56 1.493 0 0" style="fill:#35afdf;fill-opacity:1;fill-rule:evenodd;stroke:none" transform="translate(94.977 25.454)"/><path d="M0 0c-.613-2.909-1.538-5.74-2.664-8.515-.88-2.173-1.85-4.29-2.964-6.341H-24.24c2.764 2.485 5.16 5.294 7.256 8.336 1.448 2.107 2.797 4.269 3.945 6.52H0Z" style="fill:#35afdf;fill-opacity:1;fill-rule:evenodd;stroke:none" transform="translate(47.5 40.31)"/><path d="M0 0c0-.557-.011-1.114-.011-1.672-.022-2.819-.602-5.65-1.026-8.459a33.745 33.745 0 0 0-.39-2.128h-13.039a37.532 37.532 0 0 1 1.95 4.525c.892 2.552 1.672 5.137 2.397 7.734H0Z" style="fill:#9ecf81;fill-opacity:1;fill-rule:evenodd;stroke:none" transform="translate(48.927 52.57)"/><path d="M65.22 40.31H52.704v12.259H65.22V40.31z" style="fill:#9ecf81;fill-opacity:1;fill-rule:evenodd;stroke:none"/><path d="M0 0h-13.128a33.63 33.63 0 0 0-.781 4.703c-.234 2.519-.49 5.037-.601 7.556h9.941c.602-2.585 1.504-5.104 2.496-7.612A59.638 59.638 0 0 1 0 0" style="fill:#9ecf81;fill-opacity:1;fill-rule:evenodd;stroke:none" transform="translate(83.754 40.31)"/><path d="M0 0c0-5.327-.022-10.654-.056-15.97h-10.119c.301 1.092.591 2.173.869 3.265.457 1.75.68 3.6.702 5.405.034 2.43.056 4.87.078 7.3H0Z" style="fill:#fdd255;fill-opacity:1;fill-rule:evenodd;stroke:none" transform="translate(48.983 68.54)"/><path d="M0 0h-9.941c-.022.635-.045 1.271-.045 1.906a2996.94 2996.94 0 0 0-.033 14.064h8.358c0-1.226.023-2.452.034-3.666.044-3.065.646-6.119 1.048-9.172C-.446 2.073-.245 1.036 0 0" style="fill:#fdd255;fill-opacity:1;fill-rule:evenodd;stroke:none" transform="translate(79.185 52.57)"/><path d="M65.22 52.569H52.704v15.97H65.22v-15.97z" style="fill:#fdd255;fill-opacity:1;fill-rule:evenodd;stroke:none"/><path d="M65.22 68.54H52.704v12.638H65.22V68.54z" style="fill:#f89f5c;fill-opacity:1;fill-rule:evenodd;stroke:none"/><path d="M0 0h-8.359c-.011 4.213-.011 8.425-.011 12.638h8.337C-.045 8.414-.045 4.202 0 0" style="fill:#f89f5c;fill-opacity:1;fill-rule:evenodd;stroke:none" transform="translate(77.524 68.54)"/><path d="M0 0v-12.638h-8.526c.034 4.213.067 8.425.089 12.638H0Z" style="fill:#f89f5c;fill-opacity:1;fill-rule:evenodd;stroke:none" transform="translate(48.983 81.178)"/><path d="M0 0c0-4.19 0-8.37.011-12.549h-8.436c.033 4.358.055 8.715.078 13.073v.657H0V0Z" style="fill:#ee3d57;fill-opacity:1;fill-rule:evenodd;stroke:none" transform="translate(48.971 93.727)"/><path d="M0 0v-1.126C0-5.327-.022-9.54-.022-13.741h-8.337c.012 4.168.012 8.325.012 12.493V0H0Z" style="fill:#ee3d57;fill-opacity:1;fill-rule:evenodd;stroke:none" transform="translate(77.513 94.92)"/><path d="M52.705 95.175h12.516V81.177H52.705v13.998z" style="fill:#ee3d57;fill-opacity:1;fill-rule:evenodd;stroke:none"/></g></svg>