<svg xmlns="http://www.w3.org/2000/svg" xml:space="preserve" width="566.929" height="104.51"><path d="M566.929 84.51c0 11-9 20-20 20H20c-11 0-20-9-20-20V20C0 9 9 0 20 0h526.929c11 0 20 9 20 20v64.51z"/><path fill="red" d="M432.612 68.958 384.13 86.539h48.791l18.554-10.243zM387.336 18.221h57.596l76.685 38.876h-30.072l-21.144-9.72-13.036 5.304z"/><path fill="#FC0" d="m494.603 36.031 48.488-17.573h-48.789l-18.553 10.235zM539.886 86.768h-57.595l-76.686-38.876h30.071l21.146 9.721 13.035-5.305zM23.837 17.749h38.175v46.65H23.837zM23.837 70.11h97.824v14.281H23.837zM85.87 17.749h45.34l31.017 26.177-22.42 16.449zM143.136 62.967v21.425h35.791V62.967l69.198-45.218h-33.407l-69.192 45.218zM252.899 24.885l38.175 23.801v35.706h-38.175zM257.667 17.749l97.831 66.643h21.474v-66.65h-18.611v46.871L288.69 17.749z"/></svg>