<svg xmlns="http://www.w3.org/2000/svg" xml:space="preserve" width="932.336" height="155.635"><defs><clipPath id="a" clipPathUnits="userSpaceOnUse"><path d="M0 185h792V0H0v185Z"/></clipPath></defs><path d="M85.78 154.754h14.529V31.469H85.78v123.285z" style="fill:#949494;fill-opacity:1;fill-rule:nonzero;stroke:none" transform="matrix(1.25 0 0 -1.25 -28.832 193.442)"/><g clip-path="url(#a)" transform="matrix(1.25 0 0 -1.25 -28.832 193.442)"><path d="m0 0 2.417-.018C33.228.778 58.01 31.891 58.01 70.133v53.222h-9.67V87.068c0-35.195-20.98-64.336-48.34-69.38V0Z" style="fill:#949494;fill-opacity:1;fill-rule:nonzero;stroke:none" transform="translate(23.066 31.22)"/><path d="m0 0-2.418-.018C-33.229.778-58.01 31.891-58.01 70.133v53.222h9.671V87.068c0-35.195 20.979-64.336 48.339-69.38V0Z" style="fill:#949494;fill-opacity:1;fill-rule:nonzero;stroke:none" transform="translate(163.25 31.22)"/><path d="M0 0h-27.193l-6.713 23.32h-36.626L-77.6 0h-27.2l33.906 108.542c1.331 4.211 3.445 7.716 6.35 10.526 3.38 3.154 7.253 4.733 11.601 4.733 4.835 0 9.189-1.698 13.056-5.084 3.386-3.041 5.804-6.896 7.253-11.577L0 0Zm-41.159 45.946-10.876 52.955-11.969-52.955h22.845z" style="fill:#5479b6;fill-opacity:1;fill-rule:nonzero;stroke:none" transform="translate(284.218 30.84)"/><path d="M0 0h-23.749v-100.505h-26.652V0h-23.938v23.148H0V0Z" style="fill:#5479b6;fill-opacity:1;fill-rule:nonzero;stroke:none" transform="translate(346.451 130.75)"/><path d="M0 0h-27.193l-6.713 23.32h-36.626L-77.6 0h-27.2l33.905 108.542c1.331 4.211 3.446 7.716 6.351 10.526 3.38 3.154 7.253 4.733 11.6 4.733 4.836 0 9.19-1.698 13.056-5.084 3.386-3.041 5.804-6.896 7.253-11.577L0 0Zm-41.159 45.946-10.876 52.955-11.969-52.955h22.845z" style="fill:#5479b6;fill-opacity:1;fill-rule:nonzero;stroke:none" transform="translate(439.846 30.84)"/><path d="M0 0h-30.822l-27.33 50.169c-1.213 2.334-2.21 4.443-2.995 6.314-.785 1.866-1.175 3.327-1.175 4.384 0 5.376 4.317 9.789 12.96 13.234 8.643 3.451 12.967 7.746 12.967 12.89 0 3.16-1.242 6.255-3.718 9.296-2.477 3.036-5.168 4.556-8.073 4.556h-15.23V.338H-89.16v107.169c0 3.743 1.753 7.366 5.258 10.871 3.504 3.511 7.008 5.263 10.518 5.263h25.929c10.033 0 18.795-3.505 26.291-10.52 7.489-7.015 11.238-15.142 11.238-24.378 0-7.366-2.293-13.792-6.89-19.287-3.987-4.793-9.731-8.887-17.227-12.271L0 0Z" style="fill:#5479b6;fill-opacity:1;fill-rule:nonzero;stroke:none" transform="translate(533.247 30.502)"/><path d="M563.451 30.311H536.62v123.831h26.831V30.311z" style="fill:#5479b6;fill-opacity:1;fill-rule:nonzero;stroke:none"/><path d="M0 0c0-12.01-4.764-21.246-14.304-27.716-8.35-5.679-19.001-8.517-31.938-8.517a98.63 98.63 0 0 0-17.857 1.616c-5.856 1.074-12.248 2.774-19.186 5.09v27.811c7.117-2.05 8.798-3.671 12.64-4.883 8.566-2.411 15.266-3.623 20.108-3.623 6.367 0 10.9 1.051 13.602 3.16 2.697 2.103 4.051.671 4.051 3.795 0 3.969-4.829 7.533-14.487 10.693-13.876 4.099-18.776 7.247-22.305 9.45-10.324 6.345-15.48 19.941-15.48 32.688 0 10.217 4.385 18.818 13.158 25.803 8.773 6.986 19.862 10.479 33.281 10.479 6.475 0 12.261-.374 17.346-1.117 5.09-.749 10.59-2.371 16.506-4.871v-27.84c-6.504 2.88-8.322 5.072-13.061 6.575-4.728 1.503-9.463 2.257-14.21 2.257-4.496 0-8.529-1.039-12.098-3.118-3.571-2.08-5.359-4.865-5.359-8.358 0-5.091 4.122-8.839 12.379-11.245 15.165-4.407 20.06-7.329 22.287-8.761C-4.978 23.286 0 13.496 0 0" style="fill:#949494;fill-opacity:1;fill-rule:nonzero;stroke:none" transform="translate(680.641 68.57)"/><path d="m0 0-24.663.006v-91.262h-37.049V.006h-24.656v28.292H-.006L0 0Z" style="fill:#949494;fill-opacity:1;fill-rule:nonzero;stroke:none" transform="translate(768.934 122.12)"/></g></svg>