<svg xmlns="http://www.w3.org/2000/svg" viewBox="0 0 750.4 269.1"><path fill="red" d="M150 45.5c1 .3 1.5-.8 2.3-1.3 1.2-.7 12.5-4.3 12.6-4.4 1.1-1.1-.6-3.9.4-4.5 1.1-.7 3.3-.3 4.1-.9 4.3-2.6 10.9-2.7 15.1-5.4 1.3-.8 2.5-3 3.9-3.5 2.8-1.1 6.1-1.1 9.1-2.3 1.5-.6 2-3.1 2.9-4.1 1.7-2 3.7-2.5 5.8-4.1 3-2.4-11.4.5-6.1-4.8 5-5 25.3-3 27.3-5l.4-.6c1.4-1.4 4.8.3 4.8-3.5V0c-.2-.1-13 1.3-14 1.5-8.6 2.1-19.4 1.1-27.3 3.5-3.4 1-21 3.8-22.3 5.1l-3.1 2.2c-14.6 2.9-29.4 4.6-44 7-7.3 1.2-17.8 1.5-24.2 3.6-5.8 1.9-15.1 2.4-20.8 4-4.5 1.3-17.3-1.5-21.3.3-.9.4-1.9 4.9-1.3 5.5.5.6 2.2.4 2.9.9.6.4 1.6.9 1.3 1.9-.5 1.3-5.7-.2-7 2-1.6 2.7 4.1 6.5 5.1 8.1 1.5 2.5-4.5 3.7-3.1 7H56c1.3 0 2.3.4 3.1 1.6l1.1.9c2.4 3.4 58-6 58-6s-16.3 138.7-82 146c-15 1.7-30.9-17.6-32-18-1-.4-2.9-.5-3.6 0-.6.5-1.4 3.5.6 5.8 7.5 8.5 29.7 26.8 51.9 26.2C122.3 207.4 150 45.5 150 45.5z"/><path fill="red" d="M145.1 119.8v.4c0 7 4.9 2.1 6.5 3.8.3.3-.1 3.4-.4 3.9-5.8 11.5-10.7 23.5-18.1 34.6-.4.7-.4 1.5-.8 2.3-2.6 5.2-6.6 10.9-8.8 15.1-.8 1.6-1 3.4-1.9 5.3-.1.2-.5 3.5-.8 3 0 4.4-4.6 12.3-3 15.5.5 1 .2-.8.8-1.1 1.2-.8 2.9-1.4 3.8-2.6.7-1 2.1-7.9 2.6-8.3 1.7-1.2 2.8-3.5 2.8-.4 0 1.5.1 2.4-.4 3.8-.2.6.2 1.3 0 1.9l-.5 1.1v1.9l.5-.8.4-.8c.2-.4.1-.9.4-1.5.6-1.1.1-.9.1-.9l.6-.6c.9-.9.2-2.8 1.1-3.8.4-.4 2.5-4 3-5l2.3-4.1c.4-.7.6-2 1.1-1.5 2.7 2.7 2 9.8.8 13.6-.1.4-.9 2.4-.8 2.6.3.3.4-.6.8-.8 3.5-1.8.9-5.6 1.9-6.5 3.6-3.6 4.2-10.2 7.9-13.9 6.3-6.3 17.9-46.6 23.9-52.5 4.7-4.7 30.2-10.2 35-15 3.1-3.2 3 5.7 3 6.8 0 3.1-.2 27 0 27.5.8 2.4 2.2 3.8 3 6.1 1.2 3.6-1.1 17.7 2.8 21.5.6.5.3-.7.4-.8.5-.5 1.9-3.8 1.9-4.6 0-.8.2-2.8.8-2.3.4.4 3.8 12.1 4.1 12.5.8.8-.1 2.4.4 3.4.3.5 1 1 1.1 1.1.2.2.3 1 .4.8.8-1.6.5-4 1.5-6 .8-1.6.8-5.4 1.9-6.5 1.7-1.7 4.2 4.3 4.5 4.6.3.3 1.6 1.4 1.9 1.1v-7.6c0-11.9 0-77.6.4-78.4.5-1.1 3.1-41 3.1-45.6 0-5.7-1-4.3-3.9-7.3-.6-.6-.3-6.3-.4-6.4l-3-2.6c-1.1-1.2-9.4 3.8-12.8 3.8-7.3 0-5.5 2.4-9.1 6-.2.2-.6-.2-.8-.4-.8-.8-.8-.8-.8-2.3v-1.1c-.6-.3-3.4.9-3.8 1.1-2 1.3-3.8 6.1-4.9 8.4-2.1 4.2-5.4 7.5-7.6 12-.9 1.8-1.9 8.3-3 9.5-5.5 5.5-15.6 22-18.9 28.6-.4.8-1.9 6-1.9 6-1.6 1.6-9.1 14.6-9.8 16.6-.3 1-6 3.3-7.1 3.8-1.1.5-2.6.3-3.5 1.1-.5.5-.2.5-.2.6.1.1 0 .1-.5.3zm36.2-13.5h-.1c0-3.8 8.5-15.8 9.9-21.3v-.1c.9-.5 1.2-3.5 1.5-3.8 2.5-1.8 6.4-10.5 10.1-14.3l4-3.9c.3-.3.9-.5 1.1-.3.6.6-.1 12.2-.4 13.4-.7 3.6.5 14.8-.3 16.4-.8 1.8-3.8 2.6-7 4.4-4.3 2.4-9.3 5.4-12.2 6-1.7.3-1.4 3.8-6.5 3.8l-.1-.3zm126.8-76.9h.2c.7.3 1.6.2 2.3.6.6.4.2-.4.8 0 .9.7 2.7 2.6 4 3.3.7.3 1.9.1 2.6.1h1c.4 1.5 4.4 8.3 6 9.3.9.5 2.9.5 4.1 1.1.3.1.9 0 1.3.1h.5c0 2-4.9 3.4-3.5 4.8 2.1 2.1 2.5 4.6-2.1 5.8-3.5.9-7.4-.5-10.8.9-3.9 1.6-7.9 4.7-12 5.8h-.1c-19.6 6.5-40.1 34.3-40.1 55.3v.8c0 13.8 8.2 29.6 20.8 34.6 1.7.7 3.1 2.6 5.3 3 1.7.3 4 1.4 6.1 1.4 1.5 0 9.9 1.3 11.1.6 2.9-1.6 6-2.6 8.9-4.5 1.5-1 .3-6-.3-6.3-3.2-1.6-.4-21.4.9-25.1 1-3.1 3.3-8 1.5-9.8l-.5-.5c-.1-.1-2.2-.5-2.4-.4-2.6 1.8-10 .6-11.1 1.3-3.8 2.2-7.7 3.9-11.5 6-1 .6-7.4 4.5-8.1 3-.2-.3.8-.9 1-1.1.8-.8 2.5-2.5 3.5-3.1 2.2-1.3 3.8-7.4 6.1-9.3 6.5-5.2 18.3-10.7 27-12.9.2 0 .5.1.6-.1l.3-.5 4.8-2.1c1.6-.8 2.6-3.1 4.3-3.4 1.4-.2 2 1.6 3 2.1 3.7 1.9 7.8-2.2 7.8 2.1v3.4c-2 2-.6 7.2-1.8 9.6-.6 1.2-5.1 18.9-5.1 19.4 0 .6-1.7 8.1-1.8 8.3-.6.8-.9 21.1-.9 23.9 0 4.1 1 7.5 2.3 11.1.2.7.8 2.1.8 2.8 0 .4.4.5.3.6-.8.8-1.9-1.2-2.1-1.3-6.6-1.9-12.9-12.8-13.1-12.9-3.3-1.3-3.1 4.3-5.8 5.6-2.4 1.2-6.1 4.5-7.8 6.9-2 2.7-22.8 2.5-24.7.6-2.7-2.7-7.9-2.3-10.8-4.5-1.6-1.2-18.4-16.2-18.6-17.1-.8-2.8-2.8-7-4.1-9.8 0 0-2.9-13.8-3.5-22.4-2.1-28 13.4-55.6 32.5-72 2.7-2.3 5.7-6.7 9-8 3.9-1.5 7.3-2.3 11.4-3.6 2.9-1 6.5-1.5 9.1-2.8 0-.3.8-.9 1.4-.7zm75.2-6.4h-.5c.7.7-.5.5-.5.5-.5.5-2.1 1.9-2.5 3-.6 1.8-7.1 9.2-6 12.5-.1-.1-1.3.8-1.5 1-1.2 1.2-2.4 4.8-3.5 6.5-1 1.5-7 17.6-8 20.5-.2.6.3 2.5 0 3-2 3.9-4.5 8-6.5 12-2.9 5.8-5 16-8.5 23-2.3 4.6-5 16.5-6.5 26-.8 4.7 0 12.2 0 16.5 0 1.5 0 6 .5 7 .2.4 1.2 2.3 1.5 2-.5 1.6 2.4 2.4 3 3 .1.1 1.2 2.7 1.5 3 0 0 1.5.5 1 1 4.8-1.6 11.6 2.3 18-2 1.3-.9 11.3-7.1 11.5-7l1.5-2c1.4-2.2 4.2-3.5 5.5-6 1.2-2.5 6.5-11 9-11-4.1.6-1 24.1-1 27h1c0 1.1.7 5.2 2 4.5-.4 1.1 2.6 2.9 3.5 3.5 5.8 3.9 14.3-5.7 16.5-3.5.4.4-2.2 4.7-2.5 6-.3 1.2-7.8 17.8-9 19-1.3 1.3-5 6-5 8 0 1.4-.2 1.8.5 2.5 0 0-.2 1.2.5.5v1c.6-.6 2 2.5 2 2.5.9 1 6.6-1.5 6-3.5.6.6.9-1.8 1.5-2 2.3-.8 2.8 1.8 3.5 1.5 2.3-1.2 7-8.5 7-3h1v-1c.3.2 1.8-.9 2-1 1.3-.9 8.5-11.7 9.5-14.5.3-1 2.9-4.3 3.5-4v-1c.5.5 1-1 1-1 .4-.4 1.6-.9 2.5-1.5.3-.2.5-.8 1-.5-.4-1.2.6-2.6 1.5-3.5 6.1-6.1 19.6-34.8 24.5-44.5.3-.6 7.1-10.1 8-10.5l5.5-.5c.4 0 1.9-.6 1.5-1 .8.3 12.8-9.5 17-9.5-.3-.3 1.6-1.4 2-1.5 1.9-.5 3.7-1.5 5.5-1.5v-1c.6 0 4.2-1.8 5-1 2 2-2 17.8-2 18 0 1.5 1.5 7 1.5 7h1c0 7 1 13.8 1 21v2c.2.2 2.8-.2 3 0 2.8 2.8.5 15 4.5 19 .1.1 0 .3 0 .5 0 1.1.5 1.5 1.5 1.5 0 1.8-.1 2.1-1 3-.1.1.5 1.6.5 2.5 1.3-.6.9 1.5 1 1.5 1.6 1.6-.1 5.1-1 7 0 0-.3 3.3.5 2.5-.6 1.8 1 .7 1 2.5h1c-.2.2 1.3 1.3 1.5 2 .4 1.4 1 2.6 1 4h.5v1.5h1l.5 1v1c1.1 1.1 1.2-3.2.5-4.5-1-2 .5-7.1.5-9.5 0-3.2 1.5-18 2-19.5 2.2-6.5 1.3-41.8 2-44.5 2.5-10.5 4-29.8 4-43 0-8.9 1.4-19.6 3.5-28 .7-2.7.9-6.8 2-9 .3-.6 1.2-.9 1.5-1.5 0-.1.3-2.8-.5-2V34h-1c0-.2.3-2.3-.5-1.5v-1c-1.9 0-4.4-1-6.5-1-.2 0-4.5-.5-4-1h-1c.5-.5-1.3-1.3-2-1v-1l-.5-.5h-1.5c.4-.4-1.4-1.4-1.5-1.5-.8-.8-.4-2.6-1.5-3-1-.3-2.3 1.2-3 .5.9 2.7-2.8 2-3.5 3.5-1.5 2.9.4 7.1-1 10l-5 4.5c-.1.1-.1.4 0 .5-1.7 0-4.7 3.2-5 3 .3.3-.2.7-.5 1-.9.9-3.3 2-4 3.5-1.5 3-5.9 5.8-7.5 9-2.6 5.2-8.7 14.3-14 17-.9.5-2.7 5.6-4 5 .3.9-3.8 4.6-4.5 6-1.7 3.4-7 13.6-9 16.5-1 1.6-4.4 2.8-4 4 0 0-5.4 3.3-5 4.5-.8-.4-8.3 5.8-9 6.5-1.5 1.5-7.4 1.2-8 2.5-.5.9 2.7 5.5 1.5 8-.8 1.6-3.5 2.2-3.5 4h2.5c2.5 0 4-1.5 6-1.5.3 0 .8-.2.5.5-1.2 2.4-15 23.2-16 23.5-.7.2-6-.5-6-.5-.6-.6-.9-2.6-1.5-2 0-1.1-.1-9.7 0-10 2.5-5.1 2.4-11.8 5-17 3.4-6.9 10.4-26.4 13.5-31 .8-1.2 1.9-1.8 1.5-3.5h.5c2.2-8.2 7.4-16 10-24 .7-2 3.3-9.8 4.5-11l2-1.5c-.3-.8 2-4.5 1-5.5-.2-.2-1.9-1.6-1.5-2h-1l-.5-.5v-1c-1.6 1.6 1.4-9.4-.5-7.5 0-4-8.2-3.5-11.5-3.5l-.5-.5v-1c-.4.4-1-.5-1.5-.5-1.1 0-5.3.1-6 .5-3.3 2.2-10.4 20.4-13.5 23.5l-1.5 4c-.4.9-2.1 1.6-1.5 2.5h-.5c1.5 4.4-2.6 7.7-4.5 10.5-.4.5-3 16.6-3 19h-1c0 .5-.5 2.5-1 2 .5 2.2-2.9 6.6-3.5 8.5-6.8 20.5-4.6 13.1-19 27.5-2.6 2.6-4.7 6.8-8 9-1.7 1.1-3.1 1.6-4.5 3-.1.1-.1.4 0 .5h-1c.7.7-3.6 1.9-3 2.5-.2-.1-6.4 6.3-11 4-6.2-3.1 5.7-25.9 5-28 0 0 1.4-1.3 2-2.5 1.4-2.7.8-7.5 2.5-10 3.9-5.8 8-8.2 8-16.5l.5-1h1c0-.1 1-2 1-3 .1.1.4.1.5 0l2.5-2.5c2.7-2.7 2.8-7.7 4.5-11 .8-1.7 3.7-2.9 4.5-4.5.7-1.4-.6-5.8.5-8 .2-.3 1.1-2.4 1.5-2-.3-1 9-13.4 8.5-14.5h1c-.6-1.2 4.5-10.1 4.5-10.5h-1v-1c-.7.7-2.6-2.6-3-3-.1-.1-.4-.1-.5 0v-1h-1c.7-.7-.5-.5-.5-.5s-.4-3.1-1-2.5c0-1.1-1.6-4.8-1.5-5h-1c1.9-3.8-5.9-2.7-8-2-1.1.4-3.7 3.5-4.5 3zm103.3 67.3c.2 0 1.2-3.8 1.9-4.9 2.6-4.4 5.4-9.9 8.4-13.9 2.6-3.4 15.4-19.7 12.4-4.8-.6 3.1-2 4.6-2 8 0 6.4-1.5 5.7-6.3 6.9-4.8 1.2-10.2 8.7-14.4 8.7zM539.1 208c-.2 0-.1-.3-.1-.5V205c0-1.8 2.1-5.1 1.6-5.6-4.7-4.7 5.3-18.5 7.8-24.3.3-.6-.2-5.6 0-5.8.2-.2 1.9-.8 1.6-1.3-.5-.9-1.5-3.4-.9-4.8.5-1.1 2.1-1.6 2.5-2.5 1.2-2.6.9-4.3 2.4-6.5.3-.4.3-2.3.9-3.3.4-.6.4-1.4.8-2 1.2-2 3-2 3.6-4 1.1-3.5-.8-8 0-10.1 1.6-4 7.4-23.3 8.5-24.8l1.3-1.6c2.3-2.9.1-6.6 1.3-9.4 1.2-2.8 2.8-5.8 4.4-8.5.9-1.5 1.1-7.3 3.3-10.9.3-.4 1.7-7.6 1.3-8.1-.6-.6-2.5 2-3.3 2.5-1.3.9-2.7.7-4 2-.4.4-12.7 3.1-11.8-.9-.2.2-1.5-1.1-1.6-1.1-1.1-.5-.7.3-2-.5-.2-.1-4-.2-4.1-.4-2.7-2.7-2.7-3.7-6-5.6-.8-.5-.1-1-1.6-.5.4-.3-1.2-.7-1.3-.8-.6-.6.4-5.8.8-6.1 2.5-2.5 11.4-7.9 10.1-12.1.9-.4.1 0 .9-.8.2-.2 2.2-1.4 2.9-1.6 2-.8 6.8-2 8.5-3.3 1.1-.8 1.8-1 3.3-1.6 5.9-2.6 11.8-4.6 18.1-6.5 1.4-.4 1.8-1.9 3.3-2.5 1.2-.5 3.5-.4 4.5-1.1l.9-.6c6.5-4.5 23.5-2.5 26.8-4.4 2-1.2 4.1-3.8 5.6-4.5 2.5-1.2 29.4 2.9 31.3 4 3.2 1.8 4.9 1.8 7.3 4.1.1.1 2.5 3.7 3.3 3.3 0 2.1 5.3 3 5.6 3.6 1.1 2.1 2.7 4.1 4.9 5.3.3.1 1.1 2.8 1.3 3.3.7 1.7 2.3 3 3.3 4 1.5 1.5-.2 4.3.8 6.1.5.9-.5 4.3-.4 5.3-1 2.3.4 6.8-.3 9.4-2 6.6-4.9 11-9 17-2.6 3.7-6.9 4.4-8.9 7.3-.4.5-1.1 3.4-2 3.6-2 .6-8.9 4.2-10.5 5.8-1.4 1.4-3 2.8-4.9 3.6l-1.6.4h-.9c0 .3 8.7 8.2 9.4 8.9 4.9 4.9 7.3 12.6 11.4 16.6 2.8 2.8 7.2 6.4 9.6 10.1.1.2.3-.1.5 0 11.2 4.5 22.8 20.9 33.1 25.5-.3.5 2.2 2.3 2.5 2.5 1.6 1.3 5.5 4.9 6.5 6.5 1.7 2.5 21.7 21.3 26.3 25.9.5.5 1.3 5.3.8 5.8 1-3.3-16.4-11-17.5-13.9-1.3-3.2-17-15.2-21-16.6-.1 0-10.6-10.2-11.8-10.9-2.9-1.8-8-3.5-11-5.6-4.4-3.1-6.1-7.8-8.9-11-1.8-2.1-4.8-1.6-7.6-6.5-.3-.5-2.8-1.7-3.3-2.4l-.9-1.3c-1.2-1.8-3-2.5-4.5-4-.2-.2-.5-1.8-1.1-2.1-.5-.3-3-1.9-2.5-2.8h-1.1c.3-.5-1.5-1.4-1.6-2-.2-.7-2.4-3.3-3.3-4.1-.2-.2-2.9.2-3.3 0l-2-1.3c-.3-.1-1.6-.8-1.3-1.1-1.7 0-5.2-3.6-6.5-4.9-.9-.9-5.6-.6-6.9-3.6-.7-1.6-2.7-2.3-4.1-3.3-.8-.6-2-1.1-2.4-2l-.8-1.6c-.2-.5-.2-.6-.2-.6s0 .1-.7-.3c-.5-.3-.4-.3-.4-.8v-.9 1.3l.8.8.5 1.3c.3.9.4.8.4 2s.4 2.5 1.3 3.3c2 1.8 4.3 3.7 6 5.8 1.8 2.1 6 5.1 8.1 7.3 4.3 4.2 11 8.2 16.3 13.4 2.2 2.2 2.8 4 4.4 6 .1.2-.2.4 0 .5l4.5 1.1c3.9 4.6 10.7 7.3 13.4 13.4.4-.3.6.4.8.5 1.9 1.3 5.9 4.6 6.1 6.4 1.2-.5 1.5 1.3 2.4 1.6 9.5 4 20.4 14.2 27.6 21.5.7.7 3.9 6.1 5.3 6.5 2 .7 7.2 3.1 8.5 4.9.5.7 1 2.8 1.3 3.6 0 0 14.1 14.5 15.4 15 .1 0 0 .2 0 .4.5 1.7 3.3 1.6 3.3 3.3 0 .7.6 1.7 0 2-.2.1-1.1-.5-1.3-.8-.1-.2-9.5-9.3-9.8-9.4-6.8-2.7-26-21.6-35.3-26.3-7.2-3.6-17.2-14.9-23-20.8-2.9-2.9-4.6-5.3-6.5-7.3-.8-.8-4-1.3-4.9-2.4l-.9-1.3c-7.5-3.3-11.5-9.5-17.8-11.4l-1.3-.8c-.1-.1-.3.1-.4 0-.4-1-20.6-24-21.5-24.4-1.6-.8-18.4-11.5-19-12.1-1-1 .2-2.8.8-4 3.3-7.7 6.2 1.4 11.8-4.1.8-.8-4.2-5.3-5.3-5.6-.6-.2-1.8-1.2-1.3-1.6l-1.1-.4c0-2.3.2-3.4 1.6-4.5.6-.5.6-1.5 1.1-2 .8-.8 3.2 1.1 3.3 1.1 3.1 4.2 6 5.8 13 5.8 1.1 0 2.6.5 3.3-.4 4.5-6 11.3-18.3 15.8-23.5.2-.3.6-3 .4-3.3-.8-.8-2.3-3.4-2.8-4.5l-5.8-2c-.9-.3-.5-.7-.8-1.3-.1-.1-.2.1-.4 0-1.6-.7-5.4-2.8-5.8-3.6h-1.1c-.5 0-3.6-.1-3.8 0-.6.5-.3.7-.3.7h-.4c-13.6 0-15.7 1.5-20.6 12.2-.5 1.1-1.5 1.9-1.6 3.3-1 .5-.7-3.5-4.1-2.5-.7.2-3.2 11.9-4 13l-5.8 7.3c-5.5 8.2-7.9 37.6-12.1 41.8-.3.3 0 .8 0 1.3 0 5.4-.9 8.7-2.8 12.9-.6 1.5-1.7 15.8-2.9 19.5-1.2 3.5-2.4 4.4-3.6 7.3-2.5 5.8 1.8 10.2-4.1 14.6-.1.1 0 .2 0 .4 0 1.8.2 5.6-1.1 6.1-.5.2-3.8-.7-4.1-.9-.6-.3-.4-1.5 0-2 .7-1 3.4-3.6 4.1-4.4.7-.7 0-4.9.4-5.8.3-.6 3.1-3.5 3.6-4 .7-.7.7-2 1.3-2.9.3-.4-1.2-2.8-1.3-2.9-.1-.1.1-3.9 0-4-.9-.9-2.9 2.5-3.3 3.3-.9 1.9-6.1 15.3-6.1 15.4-2.5 2.5-5.4 11.8-6.9 12.6-1.9 1.1-2.6-9-6.5-2.1-.2.3-.2 4.4-.4 4.9-.7 2.1-1.9 3-2.8 5.8v2.4c-.7.5-1.2-2.3-2.9-1.3-4.6 3.1-1.8 1.8-3.6 0-.1-.1-.3 0-.5 0l.1.1"/><path fill="red" d="M597.1 111.7c1.3.7 2.4 0 3.3.3 3.5 1.4 6.7.9 10 2.6 4.6 2.3 10 9.4 16 11.4.3.1.1.7.3 1 .6 1 2.1 3.1 3 4 2.3 2.3 10.1 12 12 13 .7.4 2.8 1.6 3 2.3.3.8 1.5 3.7 1.8 4 2.6 2.6 4.1 2.5 7.3 4.4.7.4 2.4 3.3 2.8 4.4.2.6 1.1.7 1.6 1 2.1 1.3 12 10.3 13 11 1.3.9 1.8 3.3 3.6 4 1.1.5.9 2.5 2 3 4.9 2.4 19 9.6 23.4 14 .9.9 1 2.5 2 3.3 2.4 1.7 7.7 3.8 9.4 6 3.3 4.3 13 16.8 17.6 19.4 1 .5 1.6.2 1.6 1.6.1-.1.3-.1.4 0 .5.5 1.5 1.8 2.4 2.4 2 1.2 4.6 5 6.3 6.4.2.2.5.2.8.3 1.1.3 11.8 6.5 9.6 8.8-.4.4-1.3.5-1.6 0-1.2-1.8-2.8-3.6-4.8-4.8-.5-.3-1.9-.2-2.3-1-2.4-6-22.3-15.7-25-20.3-.2-.3-1.9-.3-2-.4-.8-.5-4.3-2-4.4-2-1.5-1.5-3.5-4.5-5-5.4-3.7-2.2-12.7-12.3-13.6-12.6-5.6-2.1-10-7.2-16.4-10.4-.9-.4-2-.5-2.6-1.3-4-4.8-29.8-23.8-30-26.8h-1c.1-.1-1-.8-1.4-1-.2-.1-.5.2-.6 0l-3.4-2c-.2-.1-5-7.6-6.6-9.3l-.8-.8c-4.6-4.6-8.8-9.3-14.6-12.3-.1-.1-2.8-4.9-3.6-5.8-.1-.1-.2 0-.4 0-4.8-1.2-8.9-.7-12.4-3-1.2-.8-2-5.2-2-7.6v-.4c0-.3-.2-.4 0-.6.2-.3 1.7-.4 1.4-.6l-.1-.2z"/><path fill="red" d="M737 246.3c.4-.4 1.3-.1 1.6.4 1 1.4 2.4 2.1 3 3.6.6 1.7 3.8.9 4.8 2.4.5.8.8.9 1.3 1.6.4.7.8.8.8 1.8v1.6l-.4 1s.3.1-.4-.6c-.6-.6.3-.2-.3-.8l-.4-.3c-.1-.1.1-.3 0-.4-.5-.5-.6-.8-1-1.4-.4-.4-1.7-.8-2.4-1.6-.7-.9-2.3-1.3-3-2-.4-.4-4.8-3.7-5.6-4-3.7-1.4-6.6-3.4-9.6-6.4-2.5-2.5-12.8-8.2-13.8-10.6-.1-.2-.5.1-.6 0-1.2-1.2-1.9-1.7-3.6-2.4-.9-.4-20.3-15.5-20.4-15.6-.1-.2-.1-.3-.1-.3s.1.2-.3-.1c-5-3.3-9.7-8.6-15-11.3-.6-.3-4.3-5.9-4.3-6.8v-.3c-6.8-4.5-11.1-3-19.8-13.4-.1-.2 0-.5-.3-.6-4-1.3-24.6-23.5-25.8-26.4-.7-1.7-3.7-1.4-4.6-3-1.3-2.2-.8-3.6-2.4-6-.5-.8-7.8-2.5-8-2.6-2-2-3-5.5-4.3-6.8-1.5-1.5-5.7-2.3-7-4.3-.1-.2 0-1.7 0-2 .3.2 1.1-.7 1.3-.8h4.8c1.6.9 7.1 5.7 8.3 6 4.5 1.1 8.8 2 12.4 5 5.2 4.3 3 7.2 5.6 12.4 2.1 4.2 22.7 22.7 27 27 1.7 1.6 2.7 5.2 4.8 6.4.8.5 6 1.3 6.3 1.6 1.9 1.9 4.9 3.6 6.4 5 .5.5.9 3.7 1.4 4 .7.4 8.3 6.8 8.6 7.4.2.5 1.3-.2 1.6.3.8 1.2 3.8 2.3 5 3 .9.5 2.9 4.3 4 5 .7.5 5 4.3 5 4.4.5 1.2 1.8.7 2.8 1.6 2.3 2.3 7.8 3.1 10 5.4 10.2 10.2 21.4 17.2 28.6 24.4"/><path fill="#FDC007" d="M180.3 249.1c0-11 8.9-20 20-20 11 0 20 9 20 20s-9 20-20 20c-11.1 0-20-9-20-20zm66 0c0-11 9-20 20-20s20 9 20 20-9 20-20 20c-11.1 0-20-9-20-20zm68 0c0-11 9-20 20-20s20 9 20 20-9 20-20 20-20-9-20-20zm68 0c0-11 9-20 20-20s20 9 20 20-9 20-20 20-20-9-20-20zm66 0c0-11 9-20 20-20s20 9 20 20-9 20-20 20-20-9-20-20zm68.1 0c0-11 8.9-20 20-20 11 0 20 9 20 20s-9 20-20 20c-11.1 0-20-9-20-20z"/><path d="M528.4 239.1v4h6v16h4v-16h6v-4zm-62.1 0h4v20h-4zm-136 9h8v2h-8zm-63-6.7v9.9h-6l6-9.9zm0 14.3v4.4h4v-4.4h4v-4.4h-4v-13.2h-6l-8 13.2v4.4h10zm138.1-2.4c0-.7-.1-1.2-.4-1.6-.3-.4-.7-.7-1.2-.9-.3-.1-.8-.2-1.4-.2h-3.3v5.5h3.3c.5 0 1.1-.2 1.7-.4.5-.2.9-.5 1.1-.9.1-.5.2-1 .2-1.5zm-1.4-8.9c0-.3-.1-.7-.3-1.1-.2-.4-.5-.6-.9-.8-.4-.2-.8-.2-1.3-.3H399v4.6h2.7c.4 0 .8-.1 1.2-.3.4-.2.7-.5.9-.9.1-.3.2-.7.2-1.2zm7 9c0 1.1-.2 2-.6 2.8-.4.8-1 1.5-1.6 2-.8.6-1.7 1.1-2.7 1.4-1 .3-2.2.4-3.8.4h-8.7v-21.8h7.7c1.6 0 2.8.1 3.7.2.8.1 1.6.4 2.3.8.8.4 1.4 1 1.8 1.7.4.7.6 1.5.6 2.4 0 1.1-.3 2-.8 2.8-.5.8-1.3 1.4-2.2 1.8v.1c1.4.3 2.4.9 3.2 1.7.7 1 1.1 2.2 1.1 3.7zm-210 1.5c.3-.4.5-.7.6-1.2.2-.4.2-1 .2-1.9 0-.7-.1-1.3-.3-1.7-.2-.5-.4-.8-.8-1.1-.3-.3-.7-.5-1.1-.6-.4-.1-.8-.2-1.3-.2-.4 0-.8 0-1.2.1-.4.1-.8.2-1.1.4v1.3c0 1.3.1 2.3.3 3 .2.8.5 1.3.8 1.7.3.3.5.5.9.7.3.1.7.2 1 .2.3 0 .6-.1 1-.2.5 0 .8-.2 1-.5zm6.4-3.3c0 2.3-.7 4.2-2.2 5.7-1.5 1.5-3.5 2.2-6 2.2-1.3 0-2.4-.2-3.4-.5-1-.4-1.8-.9-2.5-1.6-.8-.8-1.5-1.9-1.9-3.3-.4-1.3-.7-2.9-.7-4.8s.2-3.6.6-5.1c.4-1.5 1.1-2.8 2-3.9.9-1.1 2-1.9 3.5-2.5 1.4-.6 3.1-.9 5.1-.9.7 0 1.4 0 2.1.1.7.1 1.2.2 1.5.2v4.3h-.4c-.3-.1-.7-.3-1.3-.4-.6-.2-1.3-.2-2-.2-1.7 0-3 .4-4 1.3-.9.9-1.5 2.2-1.7 3.8.7-.5 1.4-.8 2.2-1.1.7-.3 1.6-.4 2.5-.4.8 0 1.5.1 2.2.3.7.2 1.3.5 1.8.9.8.6 1.3 1.3 1.8 2.3.6 1 .8 2.2.8 3.6z"/></svg>