<svg xmlns="http://www.w3.org/2000/svg" xml:space="preserve" width="169.5" height="67.609" viewBox="187.964 0 169.5 67.609"><path d="M192.703 4.104h161.302v60.594H192.703z"/><path fill="#1F0200" d="M194.132 5.432h48.983V63.31h-48.983z"/><g fill="#F9F8E1"><path d="M265.563 28.495c0 5.628-4.411 8.442-13.232 8.442-1.531 0-3.916-.042-7.155-.127.176-4.271.265-9.086.265-14.446 0-5.147-.088-9.538-.265-13.173h3.293c.624 0 1.67-.021 3.14-.063s2.619-.064 3.445-.064c6.003 0 9.004 2.037 9.004 6.109 0 3.14-1.538 5.218-4.614 6.236v.318c1.639.269 3.069.937 4.289 2.004 1.22 1.07 1.83 2.657 1.83 4.764zm-6.972-11.645c0-2.531-1.518-3.797-4.553-3.797-1.396 0-2.636.106-3.719.318.148 1.429.223 3.882.223 7.361.515.028 1.057.042 1.626.042 4.282-.001 6.423-1.308 6.423-3.924zm1.484 11.879c0-2.814-2.364-4.222-7.094-4.222-.935 0-1.741.036-2.418.106 0 2.956.061 5.678.183 8.167.46.114 1.151.17 2.073.17 2.507 0 4.343-.314 5.508-.944s1.748-1.722 1.748-3.277zM290.442 28.495c0 5.628-4.411 8.442-13.232 8.442-1.531 0-3.916-.042-7.154-.127.176-4.271.264-9.086.264-14.446 0-5.147-.088-9.538-.264-13.173h3.292c.623 0 1.67-.021 3.14-.063a129.26 129.26 0 0 1 3.445-.064c6.003 0 9.004 2.037 9.004 6.109 0 3.14-1.537 5.218-4.613 6.236v.318c1.64.269 3.069.937 4.289 2.004 1.219 1.07 1.829 2.657 1.829 4.764zM283.47 16.85c0-2.531-1.518-3.797-4.553-3.797-1.396 0-2.636.106-3.72.318.149 1.429.224 3.882.224 7.361.515.028 1.057.042 1.626.042 4.282-.001 6.423-1.308 6.423-3.924zm1.484 11.879c0-2.814-2.365-4.222-7.093-4.222-.935 0-1.742.036-2.419.106 0 2.956.061 5.678.183 8.167.46.114 1.151.17 2.073.17 2.507 0 4.343-.314 5.508-.944s1.748-1.722 1.748-3.277zM313.877 31.783l-.346 4.879c-1.925.48-3.821.721-5.691.721-4.647 0-8.188-1.339-10.62-4.02-2.433-2.68-3.648-5.936-3.648-9.769 0-3.973 1.291-7.431 3.872-10.373 2.581-2.941 6.122-4.412 10.62-4.412 1.653 0 3.219.198 4.695.594l-.711 4.9c-1.6-.538-3.131-.806-4.594-.806-2.751 0-4.797.909-6.139 2.726-1.342 1.817-2.012 4.027-2.012 6.629 0 2.659.795 4.964 2.389 6.915 1.592 1.952 3.824 2.928 6.696 2.928 1.682 0 3.511-.303 5.489-.912z"/></g><g fill="#F9F8E1"><path d="m250.922 50.963-3.193-9.094c-.018-.041-.054-.081-.126-.081s-.161.054-.161.136v9.039h-1.489v-9.962h2.745l2.798 7.736c.036.081.09.122.162.122.108 0 .198-.055.215-.136L254.6 41h2.781v9.962h-1.489v-8.984c0-.082-.072-.123-.126-.123-.072 0-.144.027-.179.096l-3.157 9.012h-1.508zM261.057 50.081h1.112V41.91h-1.112v-.909h4.144v.909h-1.166v8.171h1.166v.882h-4.144v-.882zM274.42 43.893c-.144-.965-.753-1.833-2.188-1.833-1.31 0-1.866.773-2.152 1.303-.484.896-.539 2.28-.539 2.39 0 2.185.521 4.315 2.691 4.315 1.041 0 1.579-.569 1.74-.76.358-.462.43-1.032.466-1.357l1.794.244a3.159 3.159 0 0 1-1.237 2.239c-1.13.855-2.422.855-2.924.855-1.077 0-4.323-.421-4.323-5.212 0-2.294.771-5.198 4.484-5.198.843 0 1.938.189 2.745.814.897.691 1.076 1.479 1.166 1.954l-1.723.246zM279.73 41.001h4.054c3.678 0 4.467 1.683 4.467 2.701 0 1.872-1.632 2.375-2.816 2.659l3.444 4.602h-2.152l-3.122-4.424h-2.027v4.424h-1.848v-9.962zm1.83 1.167v3.299c1.004.014 2.296.014 2.977-.096.719-.122 1.848-.407 1.848-1.52 0-1.168-1.039-1.684-3.013-1.684h-1.812zM298.959 43.268c.395.882.502 2.049.502 2.742 0 2.375-.879 5.252-4.431 5.252-3.229 0-4.449-2.457-4.449-5.117 0-1.52.324-2.904 1.077-3.813 1.095-1.33 2.403-1.479 3.372-1.479 2.225-.001 3.391 1.22 3.929 2.415zm-3.892-1.222c-1.13 0-1.829.597-2.206 1.534-.252.597-.395 1.479-.395 2.523 0 1.264.232 3.923 2.529 3.923 1.865 0 2.582-1.452 2.582-3.977.001-1.316-.16-4.003-2.51-4.003z"/></g><circle cx="199.287" cy="10.039" r="1.863" fill="#F9F8E1"/><circle cx="204.204" cy="10.039" r="1.863" fill="#F9F8E1"/><circle cx="209.121" cy="10.039" r="1.863" fill="#F9F8E1"/><circle cx="214.039" cy="10.039" r="1.863" fill="#F9F8E1"/><circle cx="218.956" cy="10.039" r="1.863" fill="#F9F8E1"/><circle cx="223.873" cy="10.039" r="1.863" fill="#F9F8E1"/><circle cx="228.79" cy="10.039" r="1.863" fill="#F9F8E1"/><circle cx="233.707" cy="10.039" r="1.863" fill="#F9F8E1"/><circle cx="238.624" cy="10.039" r="1.863" fill="#F9F8E1"/><circle cx="201.713" cy="12.854" r="1.863" fill="#F9F8E1"/><circle cx="216.465" cy="12.854" r="1.863" fill="#F9F8E1"/><circle cx="221.382" cy="12.854" r="1.863" fill="#F9F8E1"/><circle cx="236.133" cy="12.854" r="1.863" fill="#F9F8E1"/><circle cx="199.287" cy="15.584" r="1.863" fill="#F9F8E1"/><circle cx="209.121" cy="15.584" r="1.863" fill="#F9F8E1"/><circle cx="218.956" cy="15.584" r="1.863" fill="#F9F8E1"/><circle cx="228.79" cy="15.584" r="1.863" fill="#F9F8E1"/><circle cx="238.624" cy="15.584" r="1.863" fill="#F9F8E1"/><circle cx="206.63" cy="18.4" r="1.863" fill="#F9F8E1"/><circle cx="211.548" cy="18.4" r="1.863" fill="#F9F8E1"/><circle cx="226.299" cy="18.4" r="1.863" fill="#F9F8E1"/><circle cx="231.216" cy="18.4" r="1.863" fill="#F9F8E1"/><circle cx="199.287" cy="20.999" r="1.863" fill="#F9F8E1"/><circle cx="209.121" cy="20.999" r="1.863" fill="#F9F8E1"/><circle cx="228.79" cy="20.999" r="1.863" fill="#F9F8E1"/><circle cx="238.624" cy="20.999" r="1.863" fill="#F9F8E1"/><circle cx="201.713" cy="23.815" r="1.863" fill="#F9F8E1"/><circle cx="216.465" cy="23.815" r="1.863" fill="#F9F8E1"/><circle cx="221.382" cy="23.815" r="1.863" fill="#F9F8E1"/><circle cx="236.133" cy="23.815" r="1.863" fill="#F9F8E1"/><circle cx="199.287" cy="26.544" r="1.863" fill="#F9F8E1"/><circle cx="204.204" cy="26.544" r="1.863" fill="#F9F8E1"/><circle cx="218.956" cy="26.544" r="1.863" fill="#F9F8E1"/><circle cx="233.707" cy="26.544" r="1.863" fill="#F9F8E1"/><circle cx="238.624" cy="26.544" r="1.863" fill="#F9F8E1"/><circle cx="201.713" cy="29.36" r="1.863" fill="#F9F8E1"/><circle cx="206.63" cy="29.36" r="1.863" fill="#F9F8E1"/><circle cx="211.548" cy="29.36" r="1.863" fill="#F9F8E1"/><circle cx="216.465" cy="29.36" r="1.863" fill="#F9F8E1"/><circle cx="221.382" cy="29.36" r="1.863" fill="#F9F8E1"/><circle cx="226.299" cy="29.36" r="1.863" fill="#F9F8E1"/><circle cx="231.216" cy="29.36" r="1.863" fill="#F9F8E1"/><circle cx="199.287" cy="32.22" r="1.863" fill="#F9F8E1"/><circle cx="204.204" cy="32.22" r="1.863" fill="#F9F8E1"/><circle cx="209.121" cy="32.22" r="1.863" fill="#F9F8E1"/><circle cx="214.039" cy="32.22" r="1.863" fill="#F9F8E1"/><circle cx="218.956" cy="32.22" r="1.863" fill="#F9F8E1"/><circle cx="238.624" cy="32.22" r="1.863" fill="#F9F8E1"/><circle cx="201.713" cy="35.036" r="1.863" fill="#F9F8E1"/><circle cx="206.63" cy="35.036" r="1.863" fill="#F9F8E1"/><circle cx="211.548" cy="35.036" r="1.863" fill="#F9F8E1"/><circle cx="216.465" cy="35.036" r="1.863" fill="#F9F8E1"/><circle cx="221.382" cy="35.036" r="1.863" fill="#F9F8E1"/><circle cx="204.204" cy="37.765" r="1.863" fill="#F9F8E1"/><circle cx="209.121" cy="37.765" r="1.863" fill="#F9F8E1"/><circle cx="214.039" cy="37.765" r="1.863" fill="#F9F8E1"/><circle cx="218.956" cy="37.765" r="1.863" fill="#F9F8E1"/><circle cx="238.624" cy="37.765" r="1.863" fill="#F9F8E1"/><circle cx="206.63" cy="40.581" r="1.863" fill="#F9F8E1"/><circle cx="211.548" cy="40.581" r="1.863" fill="#F9F8E1"/><circle cx="216.465" cy="40.581" r="1.863" fill="#F9F8E1"/><circle cx="221.382" cy="40.581" r="1.863" fill="#F9F8E1"/><circle cx="209.121" cy="43.181" r="1.863" fill="#F9F8E1"/><circle cx="214.039" cy="43.181" r="1.863" fill="#F9F8E1"/><circle cx="218.956" cy="43.181" r="1.863" fill="#F9F8E1"/><circle cx="223.873" cy="43.181" r="1.863" fill="#F9F8E1"/><circle cx="238.624" cy="43.181" r="1.863" fill="#F9F8E1"/><circle cx="211.548" cy="45.996" r="1.863" fill="#F9F8E1"/><circle cx="216.465" cy="45.996" r="1.863" fill="#F9F8E1"/><circle cx="221.382" cy="45.996" r="1.863" fill="#F9F8E1"/><circle cx="226.299" cy="45.996" r="1.863" fill="#F9F8E1"/><circle cx="214.039" cy="48.726" r="1.863" fill="#F9F8E1"/><circle cx="218.956" cy="48.726" r="1.863" fill="#F9F8E1"/><circle cx="223.873" cy="48.726" r="1.863" fill="#F9F8E1"/><circle cx="228.79" cy="48.726" r="1.863" fill="#F9F8E1"/><circle cx="238.624" cy="48.726" r="1.863" fill="#F9F8E1"/><circle cx="216.465" cy="51.541" r="1.863" fill="#F9F8E1"/><circle cx="226.299" cy="51.541" r="1.863" fill="#F9F8E1"/><circle cx="231.216" cy="51.541" r="1.863" fill="#F9F8E1"/><circle cx="214.039" cy="54.285" r="1.863" fill="#F9F8E1"/><circle cx="223.873" cy="54.285" r="1.863" fill="#F9F8E1"/><circle cx="233.707" cy="54.285" r="1.863" fill="#F9F8E1"/><circle cx="238.624" cy="54.285" r="1.863" fill="#F9F8E1"/><circle cx="201.713" cy="57.102" r="1.863" fill="#F9F8E1"/><circle cx="206.63" cy="57.102" r="1.863" fill="#F9F8E1"/><circle cx="211.548" cy="57.102" r="1.863" fill="#F9F8E1"/><circle cx="216.465" cy="57.102" r="1.863" fill="#F9F8E1"/><circle cx="221.382" cy="57.102" r="1.863" fill="#F9F8E1"/><circle cx="226.299" cy="57.102" r="1.863" fill="#F9F8E1"/><circle cx="236.133" cy="57.102" r="1.863" fill="#F9F8E1"/><circle cx="238.624" cy="59.83" r="1.863" fill="#F9F8E1"/></svg>