<svg xmlns="http://www.w3.org/2000/svg" xml:space="preserve" width="820" height="159" viewBox="144 324 820 159"><path d="M200.75 325.888c-5.8 1.9-12.9 5.5-19.9 9.9-2.8 1.8-6.3 3.2-7.8 3.2-6.4 0-17 10.1-22.9 21.9l-3.4 6.6v16.5c0 13.8.3 17.1 1.8 19.9.9 1.9 1.7 3.9 1.7 4.6 0 2.3 6.6 13.6 10.8 18.5 5.4 6.3 11.5 9.3 17.1 8.4 3-.5 4.6-.3 5.9.8 8.2 7.2 30.7 10 47.2 5.8 12.6-3.1 20.2-6.4 21.2-9.1l.9-2.4 2.2 3c6.2 8.6 10.9 11 15.9 8.1 2.5-1.5 3.6-1.6 7.7-.6 2.6.6 14.3 1.2 26.2 1.3 21.5.2 21.6.2 25.2-2.3 4.9-3.3 5.1-7.5.5-13.3-1.8-2.3-4.1-5.9-5.1-8.1-2.5-5.5-4.7-20.4-4.7-31.4 0-8.3.2-9.3 1.7-9 1.6.3 13.1 14.3 13.2 16 .1.4 2 3.4 4.4 6.5 2.3 3.2 4.7 6.7 5.4 7.8.7 1.1 5.1 8.3 9.7 16.1 9.6 15.9 12.6 19.4 16.6 19.4 3.8 0 10.6-7.1 15-15.7 1.9-3.7 5.2-9.7 7.3-13.2 2.1-3.5 6-11.2 8.8-17 5.7-12 10.8-20.1 12.7-20.1 1.6 0 1.5 2.7-.2 3.3-.7.3-1.6 2-1.9 3.9-.3 1.8-1 5.3-1.7 7.8-.6 2.5-1 8.1-.8 12.5.5 10.2 3.9 17.6 11.6 24.6 4.7 4.3 5.9 4.9 9.7 4.9 2.4 0 4.7.5 5 1 1.1 1.7 8.7 5.2 14.5 6.6 15.7 3.8 31.3-.9 39.7-11.9 1.7-2.3 4.6-8 6.4-12.6l3.3-8.4-3.8-3.3-3.7-3.2 3.8-3.5c3.8-3.5 3.8-3.6 3.7-11-.1-6.7-.5-7.9-3.7-12.8-2-3-4.2-6.1-4.9-7-2.1-2.6-11-7.9-13.2-7.9-1.2 0-5.2-1.6-9-3.5-11.8-5.9-19.2-4.7-35 5.7-4.9 3.3-9.4 5.7-10.1 5.4-.7-.2-1.5-2.4-1.8-4.7-.9-7.1-.3-7-29.4-7.3-10.5-.1-11.3 0-13.7 2.3-3.9 3.7-3.7 10.8.4 15.4 3 3.5 3.9 7 1.9 8.2-.5.4-1.4 1.8-1.9 3.1-1.6 4.2-4.4 2.9-7.8-3.6l-3.2-6 2.1-4.1c2-3.6 2-4.4.9-8-2.4-7.2-2.3-7.1-27.7-7.5l-22.6-.3-3.5 3.5c-3.5 3.5-5.6 4.2-6.7 2.4-1.4-2.3-9-5.1-16.7-6.1-15.6-2.1-31.1 2.1-37 10.1-3.9 5.4-4.3 4.1-4.5-13.4 0-10.1-.5-17.1-1.2-18.5-1.3-2.4-6.9-5.5-15-8.2-7.5-2.5-30.1-2.5-37.6 0zm36.1 6.8c9.5 3.4 9.2 2.5 9.6 21.8l.3 17-2.7.3c-3.5.4-6.8-2.9-6.8-6.7 0-6.9-9.7-18.3-17.4-20.6-9.3-2.8-17.1-1.5-24.7 4.1-5.8 4.2-9.5 9.5-12.5 17.9-2 5.6-2.4 8.4-2.4 19 0 11 .3 13.1 2.4 17.7 1.3 2.9 3.9 6.8 5.8 8.7 5.1 5.1 15.3 10.9 21.5 12.1 9.1 1.9 13.5.4 25.5-8.7 3.3-2.5 6.7-4.3 8.2-4.3h2.6V430.688l-3.7 1.6c-14.3 6.2-39.6 6.5-50.3.5-3.7-2-8.3-5.1-9.8-6.5-1.8-1.7-5.3-1.6-7.8.2-1.9 1.3-2.3 1.1-5.1-1.8-5.4-5.8-11.5-17.2-13.5-25.2-1.7-6.6-2.1-20.5-.8-28 1.3-7.3 4.4-13.5 10.7-21.3 3.8-4.6 6-5.2 8.5-2.3 2.3 2.7 5.7 1.6 6.5-2 .4-2.1 2-3.8 5.7-6.1 5.5-3.5 15.9-8.3 19.8-9.2 4.9-1 25.3.3 30.4 2.1zm-19.7 17.8c1.6.8 4.6 3.4 6.7 5.8 3.6 4.1 4.9 7 7.2 16.6 1 4.4 3.4 6.1 6.2 4.3 4.9-3 15 .1 15 4.7 0 3.8 3.7 5.6 11.4 5.5 5.8 0 7.9-.5 11.7-2.7 2.5-1.5 5.5-2.7 6.6-2.7 2.2 0 5 2.6 4 3.7-1.8 1.7-11.8 4.3-16.5 4.1-3-.1-5.7.3-6 .8-.4.5-2.6 2.2-4.9 3.8-2.6 1.7-5 4.4-6 6.7l-1.7 3.9h-6.4c-6.2 0-6.5.1-12 4.9-7.2 6.2-12.4 9.1-16.3 9.1-7.2 0-21.7-9.7-25.3-17-.7-1.4-1.8-5.7-2.5-9.6-2.9-16.8 3.5-36 13.7-41.4 4.4-2.3 11.2-2.6 15.1-.5zm88.2 14.6c2.4 1.4 5.5 4.1 6.7 6.1 2.3 3.4 2.4 4.5 2.6 22.4.2 21.7 1.3 26.6 7.9 34.7 2.1 2.6 3.7 5.3 3.4 6-.3.9-5.9 1.2-22.4 1.1-18.3-.1-22.6-.4-25.3-1.8-4.1-2-5.4-2-7-.1-2.7 3.3-5.7 1.8-9.5-4.6-1.9-3.3-3.5-6.8-3.5-7.8s-.5-3.2-1.1-5c-1.4-4 .2-10.9 3.9-16.4 2.7-4 6-4.9 8.2-2.2 2 2.4 5.1 1.8 7.9-1.6 2-2.3 4.2-3.4 9.6-4.8l7-1.7.3-4c.2-3.3-.2-4.5-2.9-7.2-1.7-1.7-3.7-3.2-4.3-3.2-1.9 0-10.9 3.2-12.6 4.4-6.9 5.1-11.6 5.5-13.9 1.2-3.8-7.1 5.2-15.5 18.9-17.5 10.1-1.5 21.3-.6 26.1 2zm58.7-2.1c1.6 0 3.3 4.5 2.5 6.5-.3.9-1.8 1.9-3.4 2.2-1.6.3-2.9 1.2-2.9 2s2.4 5.1 5.4 9.7c2.9 4.5 6.5 10.7 8 13.8 3 6.4 4.8 7.5 8.3 5.3 1.9-1.3 2.1-1.9 1.3-3.5-.7-1.3-.7-2.6-.1-3.7.5-1 1.2-2.5 1.5-3.3.8-2 2.5-4.7 5.9-9.1 3.5-4.7 3.5-7.3-.2-9.5-3.3-2-6.5-6.9-5.7-9 .4-1.1 3.4-1.4 16.1-1.4h15.5l1.1 2.7c1.6 4.1.8 5.6-4.3 8.1-3.3 1.5-4.8 2.9-4.8 4.2 0 1-.6 2.3-1.3 2.7-1.4.8-8.6 12.5-12.5 20.3-1.3 2.5-2.7 5.2-3.2 6-4.7 7.9-10.1 17.7-12.9 23.3-3.7 7.5-5.3 8.1-8 3.2-.9-1.7-3.4-5.7-5.5-8.9-2-3.2-4.2-6.8-4.7-8-1.8-4.2-19-29.4-23.7-34.9-1.5-1.7-5.1-5.4-7.9-8.2-3.7-3.6-5.3-6-5.3-7.8 0-1.4.4-2.7 1-2.9.7-.2 25.2-.1 39.8.2zm102.5 1.7c1.8 1 4 2.4 4.9 3.2 1.2.9 3 1.2 5.4.8 3.2-.5 4-.1 8 3.5 7.9 7.3 11.5 18.6 7.8 24.4l-1.7 2.5-21.6-.7c-25.4-.7-25.6-.6-25.5 7.3.1 6.3 3.4 11.7 9.6 15.6 8.9 5.6 19.9 1.3 27.4-10.6 2.5-3.9 4.3-4.4 8.8-2.7 3.5 1.3 3.5 6.1 0 13-3.6 7.2-8.1 11.9-13.8 14.6-4.1 1.9-6.1 2.2-12 1.8-9.6-.7-14.3-2.1-19.6-6.1-4-3-5-3.4-8.6-2.8-4 .6-4.3.4-7.6-3.7-7.7-9.6-8.3-11.2-8.2-23.3.2-12 1.4-16 7.4-24.4 3.1-4.2 3.3-4.3 7.5-3.7 3.9.6 4.5.4 6.9-2.4 1.4-1.7 2.6-3.5 2.6-3.8 0-.4 1.2-1.5 2.8-2.4 3.8-2.4 15.3-2.4 19.5-.1zm8.4 40.7c1 .4.9 1.3-.3 3.8-2.1 4.3-6.5 7.8-10.7 8.5-2.8.4-4 0-6.9-2.6-4.1-3.6-6.8-8.9-5-10 1.2-.7 20.9-.4 22.9.3z"/><path d="M283.95 404.388c-3.2 2.9-4.1 6.3-3.4 11.8 1.1 8.3 6.6 12 11.1 7.5 3.3-3.3 4.7-15.4 2.2-19.2-2.1-3.3-6.4-3.3-9.9-.1zM448.45 377.688c-2.9 1.9-4.2 3.4-4.2 5 0 2.2.4 2.3 6.9 2.3 3.8 0 8.1.3 9.7.6 6.6 1.3 8.5-5.3 2.5-8.9-4.3-2.5-10-2.2-14.9 1zM576.25 324.988c-.8.4-4.5 2.2-8.2 3.9-6.2 2.9-12.8 8.9-12.8 11.6 0 .5-1.5 2-3.4 3.2-1.8 1.2-4.6 4.3-6.2 7-2.6 4.3-2.9 5.7-2.9 13.3 0 9.5 2.4 16.6 7.6 23 1.6 1.9 2.9 3.8 2.9 4.2 0 .5-1.5 2.1-3.2 3.7l-3.3 2.9-.3 12.9c-.5 18 1.3 24.8 7.6 28.2 1.3.7 9.1 1.4 19 1.8 14 .5 17.6.3 22.6-1.1 5.7-1.7 12.8-5.5 14.1-7.6.3-.5 1.9-1 3.6-1 7.9 0 13.2-7.5 14.9-21.1 1.9-15.9-1.4-26.5-10.5-33.5-4.2-3.2-4.4-4.2-.7-5 4.1-1.1 6.9-3.2 8-6.2.6-1.5 1.2-9.1 1.5-16.9.4-17.1.8-16.6-13.2-21.2-8.7-2.9-10.5-3.1-22.5-3-7.2 0-13.8.4-14.6.9zm29 7.4c4.1.7 8.7 1.9 10.3 2.6l2.7 1.3v13.7c0 13.9-.5 16-4.1 16-1.1 0-1.8-1.1-2.2-3.5-1.3-8.1-11.2-16.8-20.4-18-8.8-1.1-13 .1-16.4 4.7-1.8 2.6-2.9 5.3-2.9 7.4 0 3 .5 3.6 4.5 5.5 2.5 1.2 4.8 2.5 5.1 3 .3.5 1.4.9 2.4.9 1.1 0 4.2 1.3 7 3 2.8 1.6 5.4 3 5.8 3 1.1 0 7 3.2 12.5 6.7 5 3.3 7.4 5.9 10.1 11 2.3 4.5 2.2 21.8-.1 28.4-1.8 5.1-3.2 6-5.3 3.4-2.1-2.5-5.3-1.4-7.4 2.5-2.3 4.3-6.8 7.4-13.2 9-6.4 1.6-36.1.1-37.3-1.9-1-1.6-2.5-32.7-1.6-34.1 1.1-1.8 4.4-1.1 5.9 1.2.7 1.3 1.9 5.3 2.6 9.1 1.1 6.1 1.6 7.1 6 11 8.6 7.8 16.4 8.1 24.7 1.1 3.6-3.1 3.8-3.5 3.8-9.4 0-6-.1-6.4-3.9-9.6-2.1-1.8-6-4.3-8.5-5.4-2.5-1.2-5.9-2.8-7.4-3.5-1.6-.8-3.5-1.5-4.2-1.5-.8 0-3.1-.7-5.2-1.6-12-5.2-14.3-7.4-16.7-15.8-2-6.8-2-13.3-.1-18 1.4-3.3 1.9-3.6 5.5-3.6 3.7 0 4-.2 4-2.8 0-4.1 4.8-10.5 10-13.3 6.9-3.7 21.5-4.8 34-2.5zm-9 21c4.6 3.1 9 11 7.2 12.8-1.1 1.1-2.1.8-5.5-1-2.3-1.3-6.8-3.8-9.9-5.5-5.2-2.9-7.5-5.8-6.2-7.9.3-.4 2.9-.8 5.7-.8 3.9 0 6.1.6 8.7 2.4zm-19.1 45.3c8.2 4.1 14.1 9.3 14.1 12.2 0 2.7-5.6 7.1-9 7.1-4.3 0-12-8.1-12-12.7 0-1-.7-3.1-1.5-4.7-1.5-2.9-1.4-5.6.2-5.6.4 0 4.2 1.7 8.2 3.7z"/><path d="M655.55 339.988c-5.5 3.1-8.7 6.9-9.9 11.4-.4 1.7-2.7 4.3-5.8 6.6-6.4 4.8-11.6 11.9-11.6 15.6 0 1.5 1.2 4.3 2.7 6.3l2.8 3.6.2 21.8c.3 23.5.5 24.8 6 29.8 4.6 4.4 8.9 6 15.1 5.9 3.1-.1 8.4.2 11.7.5 10.8 1.3 21.4-4 27.6-13.7l3.2-5 2.6 3.4c5.6 7.2 10.1 9.9 17.1 10.3.8 0 3.3 1 5.6 2.2 5 2.7 15.9 4.2 22.4 3.2 2.7-.4 6.8-1.9 9.2-3.2 2.4-1.4 6.4-2.8 8.9-3.1 3.8-.6 5.5-1.6 9.2-5.3 17.1-17.3 17.2-44.9.2-64.1-4.1-4.6-5.8-5.4-9.1-4.2-2.4.9-3.1.7-5.8-1.9-5-4.7-8.8-6.1-16.4-6.1-6.9 0-15.4 2.1-18.2 4.6-.8.7-3.5 1.7-5.8 2.3-11.2 2.5-21.4 14.7-24.6 29.6-.9 3.8-1.5 7.7-1.4 8.5.4 4.3-.4 5.8-3.4 7.1-1.8.7-5.2 3.1-7.5 5.2-2.9 2.6-4.9 3.7-6.5 3.5-2.3-.3-2.3-.4-2.1-13.7.1-15.1.3-15.4 7.4-16.6 4.9-.8 12.9-7.9 15.8-13.8 1.2-2.4 2.1-6.2 2.1-8.4 0-3.4-.6-4.6-3.1-6.7-3.9-3.3-7.8-3.3-13.8.1-6.7 3.7-8.1 2.9-8.1-5 0-5.8-.3-6.6-3.4-10-4.1-4.5-6.4-4.6-13.3-.7zm9.6 9.2c.6 1.7.8 5.4.5 8.3-.6 4.7-.4 5.4 1.7 6.9 4.2 2.9 10.7 1.6 18-3.6 2.1-1.5 4.9-.4 4.9 2 0 1.1-.9 4-2 6.5-2.8 6.3-7.4 9-15.5 9.1-9.8.2-9.6-.4-9.3 22.5l.3 19.6 4 1.3c5.6 1.8 12.7-.5 17.5-5.8 2.9-3.2 3.9-3.7 5.8-3 4.7 1.9 1.4 9.4-7.7 17.5-4.9 4.4-5.7 4.7-11.9 4.8-4 .1-6.7-.4-9-1.8-3.2-1.9-3.4-1.9-6.3-.2-4.3 2.4-5.2 2.2-9.8-2.4l-4.1-4.1-.2-14.2c-.1-7.7-.3-18.2-.3-23.3-.1-8.8-.3-9.3-2.8-11.3-4.1-3.3-3.6-7.1 1.5-12.1 3.7-3.6 4.6-4 7.6-3.4 4.4.8 6.2-.8 6.2-5.7 0-3.2.7-4.7 3.6-7.8 4.1-4.3 5.8-4.3 7.3.2zm82.9 12.7c4 2 6.9 4.8 8.6 8.3 1.6 3.2 4.3 3.4 7.2.7 2.4-2.3 2.5-2.3 4.4-.3 1 1 3.6 5.3 5.7 9.4 3.7 7.4 3.7 7.7 3.8 19 0 10.1-.3 12-2.3 15.5-4.6 8.1-7.8 12-9.8 11.7-5-.7-6.6-.2-11 3.7-5.5 4.8-10.4 6.4-17.6 5.6-7.1-.8-12.1-3.1-14.7-6.6-2.3-3.2-6.5-3.9-7.5-1.4-1 2.8-3.5 1.5-7.5-3.7-5.5-7.4-7.9-13.9-8-22.3-.2-16 9-32.5 18.2-32.5 1.3 0 4.2-1.3 6.3-2.8 8.5-6.1 17.6-7.7 24.2-4.3z"/><path d="M735.35 374.688c-3.4.7-8.1 5.2-10.2 9.8-2.6 5.6-2.5 16.7.1 25.3 2.5 7.9 3.4 9.3 7.7 11.5 3.9 2.1 6.1 2.1 10.4.3 7.8-3.3 10.1-8.6 10-23.6 0-12.5-.6-14.8-5.4-20.3-2.5-2.9-7.4-4.1-12.6-3zm8.2 9.5c.8 1.8 1.8 7 2.2 11.5.8 9.5-.6 17.2-3.6 19.9-1.8 1.7-2 1.6-4.4-.6-5.6-5.2-7.7-23.8-3.4-30.6 2.9-4.7 7-4.8 9.2-.2zM848.75 356.388c-3.2 1.7-5.4 2.2-6.4 1.7-.9-.5-13.1-1.2-27.2-1.6-23.3-.7-25.9-.6-29.3 1-8.4 4-8.6 10.2-.6 17.6l5 4.6v16.9c0 9.3-.4 18.6-.9 20.7-.5 2.2-2.6 5.7-5 8.2-5.3 5.7-5.6 10.1-1 13.9l3.1 2.6h23.3c12.9 0 24.5-.4 25.9-1 1.4-.5 3.7-2.8 5.2-5 2.5-3.7 2.6-4.3 1.3-6.7-.8-1.5-3.5-4.3-6.1-6.2-5.7-4.4-6.6-6.9-7-19.1-.3-9-.2-9.5 1.7-9.2 10.6 1.5 10.1 1.6 16-2.3 4.8-3.3 10-9.4 11.9-14 .8-2.2 4.3 1.6 10.3 11.1 3.5 5.4 6.8 10.8 7.3 11.9.6 1.1 1.6 2.9 2.3 4 5.1 8.4 6.3 10.3 7.5 12 .6 1.1 1.5 2.7 1.9 3.5.3.8 1.9 3.1 3.5 5.1 1.5 2 2.8 4.6 2.8 5.7 0 2.2-6.8 18.8-12.8 31.2-1.8 3.6-2.7 7.1-2.7 10.3 0 4 .4 5.1 3 7.2 1.7 1.3 4.3 2.4 6 2.5 4.9 0 22.6-2.9 28-4.6 6.6-2.2 8.5-4 8.5-8.1 0-3.5-3.4-11.3-4.9-11.3-.5 0-2-.9-3.5-2.1-2-1.5-2.4-2.4-1.6-3.4 1.3-1.5 13-25.2 13-26.2 0-1.2 4.7-11.1 13.8-29.3 7.6-15.2 12-22 14.2-22 1.7 0 6-7.5 6-10.3 0-1.8-1.1-3.9-3-5.8l-2.9-3h-14.3c-7.9 0-16-.1-18-.2-4.2-.1-7.9 2.6-9.8 7.3-1 2.3-.9 3.5.5 6.5 1 1.9 2.7 4 3.7 4.6 1.8 1 1.9 1.7 1.4 6-.9 6.3-2.6 10.1-4.3 9.7-.8-.2-3-3.3-5-7-3.5-6.7-3.5-6.8-1.9-10.2.9-1.9 1.6-5.1 1.6-7.1 0-4.2-2.7-9.4-5-9.7-.8 0-10.5 0-21.5.2-16.6.2-20.7 0-23.9-1.4-4.8-2-4.4-2.1-10.1.8zm52.3 7.8c.6.6 1.2 2.3 1.2 3.9 0 2.2-.7 3.2-2.5 4.1-3.1 1.4-3.1 3.3 0 8.9 1.3 2.4 2.9 5.3 3.5 6.4.6 1.1 1.9 3.3 3 5 1.1 1.6 3.1 5.3 4.5 8.2 1.4 2.8 3.4 5.3 4.3 5.5 2.7.6 6.3-2.2 5.7-4.3-.7-2 .1-4.8 3.9-15.4 3.6-10 3.5-12.8-1-15.4-2.9-1.7-3.5-2.6-3.2-4.9l.3-2.7 15.3-.1c13.6 0 15.4.2 16.3 1.7 1.3 2.6 1.4 2.5-4.4 8.3-4.4 4.3-7 8.6-14.4 23.7-5 10.1-10.1 20.6-11.3 23.4-5.1 11.5-7.4 16.5-12.1 26.1-2.7 5.5-4.9 11-4.9 12.1 0 2.1 1.8 3.3 4.9 3.3 2.6 0 5.3 3.4 4.9 6.1-.3 2-1.2 2.5-7.3 3.6-19.3 3.5-19.5 3.5-21.1 2.2-1.8-1.5-1.4-3 3.6-13.4 2.1-4.4 5.3-11.6 7.1-16 1.8-4.4 3.8-8.7 4.6-9.6 2-2.4 1.6-4.3-2.5-10.6-2.2-3.2-4.5-7-5.3-8.6-6.3-12.3-27.6-44.5-29.9-45.2-1.1-.3-3.5-.3-5.5.1-3 .5-4.6 1.9-9.5 8.4-7.6 10-11.2 11-21.1 5.8-2.4-1.2-4.6-1.7-6.3-1.2-2.9.7-3.1 1.8-1.2 5.3.9 1.7 1.2 5.6.8 14.5-.5 14.9.4 17.8 7.8 23.3 4 3 5 4.3 4.8 6.3l-.3 2.5h-21.8c-19.5 0-22-.2-22.8-1.7-1.3-2.3.5-6.3 3.6-8.4 1.4-.9 3-2.6 3.6-3.6.6-1.2 1.1-10.8 1.1-24.1v-22.2l-4.4-2.1c-4.6-2.3-7.5-6.2-6.5-8.8.9-2.3 32.2-2.4 33.1-.1.7 2 4.7 1.9 8.4-.2 2.9-1.7 3.2-1.7 6.7 0 4.8 2.3 13.7 2.3 15.8-.1 1.4-1.5 3.7-1.7 25.4-1.4 14.3.2 24.3.8 25.1 1.4z"/></svg>