<svg xmlns="http://www.w3.org/2000/svg" width="2500" height="366" viewBox="0 0 39.78 5.82"><path d="M539.215 132.096c-72.713-.189-132.351 22.247-132.037 49.02-.314 28.405 59.324 50.778 132.037 49.019 74.598 1.76 134.24-20.614 135.748-49.02-1.508-26.772-61.15-49.208-135.748-49.02zm0 22.623c56.121.628 100.868 12.507 101.81 26.396-.942 15.46-45.626 27.337-101.81 26.395-54.299.942-99.045-10.935-98.04-26.395-1.005-13.826 43.741-25.705 98.04-26.396z" style="stroke-width:62.84564972" transform="translate(0 -.002) scale(.01591)"/><path d="M551.496.096c-4.082-.008-8.177 0-12.281.023C241.012-1.389-1.445 80.688 0 181.115c-1.445 102.062 241.012 184.137 539.215 184.766 263.763-.691 482.845-64.04 531.676-147.059H920.06c-49.02 48.266-200.605 82.515-380.846 82.955-218.452-.44-396.242-53.92-395.928-120.662-.314-65.17 177.476-118.652 395.928-116.892 177.853-1.697 327.804 32.617 380.846 79.185h150.83C1021.028 62.738 808.69.58 551.496.096zM1553.811 26.51c-3.848-.013-7.708-.013-11.579.004h-441.175v324.285h441.175c249.749 1.257 449.913-60.898 448.72-162.143C1992.064 87.262 1796.235 27.34 1553.81 26.51zm836.837.004v75.416H2500V26.514h-109.352zM1217.52 96.992h316.805c172.637-.314 313.788 34.189 312.908 101.81.817 65.926-140.335 102.312-312.972 101.872v-.063h-316.74V96.992zm1173.13 38.873v218.703H2500V135.865h-109.352z" style="stroke-width:62.84564972" transform="translate(0 -.002) scale(.01591)"/><path d="m32.64 3.9 4.26-.72-4.26-.72Z" style="fill:#e70000;fill-opacity:1;stroke-width:1"/></svg>