<svg xmlns="http://www.w3.org/2000/svg" xmlns:xlink="http://www.w3.org/1999/xlink" xml:space="preserve" width="270" height="82.35" version="1.0" viewBox="3 136.909 270 82.35"><defs><linearGradient id="b"><stop offset="0" style="stop-color:#abdfff;stop-opacity:1"/><stop offset="1" style="stop-color:#00d3ff;stop-opacity:1"/></linearGradient><linearGradient id="c"><stop offset="0" style="stop-color:#abdfff;stop-opacity:1"/><stop offset="1" style="stop-color:#00d3ff;stop-opacity:1"/></linearGradient><linearGradient id="d"><stop offset="0" style="stop-color:#abdfff;stop-opacity:1"/><stop offset="1" style="stop-color:#00d3ff;stop-opacity:1"/></linearGradient><linearGradient id="e"><stop offset="0" style="stop-color:#abdfff;stop-opacity:1"/><stop offset="1" style="stop-color:#00d3ff;stop-opacity:1"/></linearGradient><linearGradient id="f"><stop offset="0" style="stop-color:#abdfff;stop-opacity:1"/><stop offset="1" style="stop-color:#00d3ff;stop-opacity:1"/></linearGradient><linearGradient id="a"><stop offset="0" style="stop-color:#abdfff;stop-opacity:1"/><stop offset=".509" style="stop-color:#66d2ff;stop-opacity:1"/><stop offset="1" style="stop-color:#00d3ff;stop-opacity:1"/></linearGradient><linearGradient xlink:href="#a" id="j" x1="134.217" x2="134.615" y1="137.423" y2="218.861" gradientUnits="userSpaceOnUse"/><linearGradient xlink:href="#b" id="i" x1="134.217" x2="134.615" y1="137.423" y2="218.861" gradientUnits="userSpaceOnUse"/><linearGradient xlink:href="#c" id="l" x1="134.217" x2="134.615" y1="137.423" y2="218.861" gradientUnits="userSpaceOnUse"/><linearGradient xlink:href="#d" id="k" x1="134.217" x2="134.615" y1="137.423" y2="218.861" gradientUnits="userSpaceOnUse"/><linearGradient xlink:href="#e" id="h" x1="134.217" x2="134.615" y1="137.423" y2="218.861" gradientUnits="userSpaceOnUse"/><linearGradient xlink:href="#f" id="g" x1="134.217" x2="134.615" y1="137.423" y2="218.861" gradientUnits="userSpaceOnUse"/></defs><path d="M30.095 204.465c-6.309-7.225-9.388-16.95-9.387-27.437.002-7 1.363-14.389 4.107-21.802a5.617 5.617 0 0 1 7.218-3.319 5.617 5.617 0 0 1 3.32 7.22c-2.32 6.265-3.41 12.365-3.408 17.901.002 8.335 2.44 15.287 6.605 20.04 4.195 4.728 10.087 7.653 18.64 7.702 2.786 0 5.845-.332 9.18-1.07a5.62 5.62 0 0 1 6.696 4.275 5.617 5.617 0 0 1-4.274 6.697c-4.05.895-7.92 1.334-11.602 1.334l-.186.002c-11.194-.002-20.664-4.336-26.909-11.543z" style="fill:url(#g);fill-opacity:1"/><path d="M68.978 184.631c.004-17.6 14.265-31.862 31.867-31.865 17.6.003 31.861 14.265 31.866 31.865-.005 17.604-14.267 31.863-31.866 31.867-17.602-.004-31.863-14.264-31.867-31.867zm11.237 0c.02 11.393 9.237 20.61 20.63 20.631 11.39-.02 20.608-9.238 20.63-20.63h-.003c-.019-11.39-9.238-20.607-20.627-20.629-11.39.022-20.61 9.24-20.63 20.628z" style="fill:url(#h);fill-opacity:1"/><path d="M157.587 213.746c-1.918-1.084-3.554-2.5-5.073-4.129-3.017-3.268-5.636-7.445-8.307-12.416-5.3-9.924-10.676-23.086-16.948-37.55v.001a5.62 5.62 0 0 1 2.92-7.39 5.62 5.62 0 0 1 7.391 2.92c4.144 9.565 7.874 18.474 11.334 26.044 3.448 7.564 6.672 13.811 9.54 17.854 1.888 2.71 3.644 4.34 4.65 4.87.502.276.76.327.935.34l.05-.019c.14-.053.437-.197.832-.48.798-.555 1.95-1.652 3.19-3.174 2.506-3.047 5.377-7.713 8.17-12.97 5.616-10.552 11.022-23.439 14.883-32.048a5.618 5.618 0 0 1 10.252 4.603c-2.473 5.502-5.698 13.068-9.292 20.76-3.604 7.701-7.552 15.523-11.687 21.791-2.793 4.184-5.555 7.707-9.017 10.205-1.979 1.396-4.386 2.555-7.306 2.572h-.026c-2.356.001-4.598-.71-6.49-1.784z" style="fill:url(#i);fill-opacity:1"/><path d="M204.366 205.734c-5.375-6.164-7.414-14.008-7.416-21.465.014-8.898 4.037-16.559 9.321-22.019 5.346-5.448 11.925-9.059 18.738-9.476a26.87 26.87 0 0 1 1.438-.038c4.446.011 9.197.956 13.684 2.808 4.463 1.871 8.738 4.648 11.726 8.875 1.98 2.8 3.274 6.342 3.26 10.174.007 3.31-.54 6.424-1.873 9.21-1.32 2.79-3.396 5.065-5.755 6.796-4.765 3.455-10.533 5.348-17.933 7.934h.002a5.62 5.62 0 1 1-3.659-10.625c5.511-1.89 9.784-3.43 12.586-4.916 2.853-1.527 3.962-2.69 4.618-4.03.442-.935.773-2.236.776-4.369-.013-1.402-.393-2.506-1.23-3.73-.837-1.206-2.204-2.443-3.965-3.502-3.494-2.149-8.52-3.418-12.237-3.387-.3 0-.585.008-.858.023-2.845.063-7.637 2.258-11.242 6.066-3.665 3.79-6.174 8.83-6.159 14.206-.003 5.463 1.525 10.541 4.633 14.064 3.124 3.498 7.903 6.1 16.54 6.156a47.18 47.18 0 0 0 5.884-.393 5.619 5.619 0 0 1 1.417 11.146 58.109 58.109 0 0 1-7.302.484h-.245c-10.903.003-19.43-3.843-24.749-9.992z" style="fill:url(#j);fill-opacity:1"/><circle cx="93.587" cy="146.41" r="6.411" style="fill:url(#k);fill-opacity:1"/><circle cx="109.312" cy="146.41" r="6.411" style="fill:url(#l);fill-opacity:1"/></svg>