<svg xmlns="http://www.w3.org/2000/svg" width="800" height="800" class="icon" viewBox="0 0 1024 1024"><path fill="#FFF" d="M464.8 409.7C431.9 365 378.9 336 319.2 336c-99.8 0-180.7 80.9-180.7 180.7s80.9 180.7 180.7 180.7h297.3c149.3 0 270.3-121 270.3-270.3s-121-270.3-270.3-270.3c-118.7 0-219.6 76.5-255.9 183"/><path fill="#06F3FF" d="M823.5 766.5c0-3.2.5-6.3 1.5-9.2H631V417.4c0-5.5-4.5-10-10-10s-10 4.5-10 10v359.9h214.6c-1.3-3.3-2.1-7-2.1-10.8z"/><path fill="#E6E6E6" d="M230.2 791.7c-3.5-8.7-12-14.9-22-14.9-13.1 0-23.7 10.6-23.7 23.7s10.6 23.7 23.7 23.7c9.5 0 17.7-5.6 21.5-13.7 1.4-3 2.2-6.4 2.2-10 0-3.1-.6-6.1-1.7-8.8z"/><path fill="#005BFF" d="M852.2 737.9c-12.6 0-23.3 8.1-27.1 19.4-1 2.9-1.5 6-1.5 9.2 0 3.8.7 7.4 2.1 10.8 4.3 10.5 14.5 17.9 26.6 17.9 15.8 0 28.7-12.8 28.7-28.7-.1-15.8-13-28.6-28.8-28.6zM700 257.7c2.1-5.1-.3-11-5.4-13.1-78-32.3-135.3-15.6-169.6 4.1-37.2 21.3-55.7 50.2-56.4 51.5-2.9 4.7-1.5 10.8 3.1 13.8 1.7 1 3.5 1.5 5.3 1.5 3.3 0 6.6-1.6 8.5-4.6.2-.3 17.1-26.4 50.2-45.2 44.1-24.9 94.9-25.8 151.2-2.5 5.1 2 11-.4 13.1-5.5z"/><path fill="#005BFF" d="M852.2 819.8c-12.4 0-22.9 7.8-26.9 18.8H534.5V717.3H611v-40h-76.5V537.9c0-5.5-4.5-10-10-10s-10 4.5-10 10v139.4h-66.9V537.9c0-5.5-4.5-10-10-10s-10 4.5-10 10v139.4H319.2c-88.6 0-160.7-72.1-160.7-160.7s72.1-160.7 160.7-160.7c50.9 0 99.3 24.5 129.5 65.6 6.5 8.9 19.1 10.8 28 4.3 8.9-6.5 10.8-19.1 4.3-28-18.3-24.8-42.4-45.4-69.7-59.5-7.9-4.1-16.1-7.7-24.5-10.7 39.3-91 129.3-150.8 229.8-150.8 138 0 250.3 112.3 250.3 250.3 0 133.1-104.4 242.2-235.7 249.8V717c72.1-3.5 139.3-33.3 190.7-84.7 54.8-54.8 85-127.7 85-205.2s-30.2-150.4-85-205.2c-54.8-54.8-127.7-85-205.2-85-118.8 0-224.9 72.1-269.1 181.2-9.3-1.3-18.8-2-28.2-2-110.7 0-200.7 90-200.7 200.7s90 200.7 200.7 200.7h108.4v73.9H250.9c-4.3-19.6-21.8-34.4-42.7-34.4-24.1 0-43.7 19.6-43.7 43.7s19.6 43.7 43.7 43.7c20.4 0 37.6-14.1 42.4-33h197v-93.9h66.9v141.3h310.9c4.1 10.8 14.6 18.5 26.8 18.5 15.8 0 28.7-12.8 28.7-28.7 0-16-12.9-28.8-28.7-28.8zm-622.5-9.3c-3.8 8.1-12 13.7-21.5 13.7-13.1 0-23.7-10.6-23.7-23.7s10.6-23.7 23.7-23.7c9.9 0 18.5 6.2 22 14.9 1.1 2.7 1.7 5.7 1.7 8.8 0 3.6-.8 7-2.2 10z"/></svg>