<svg xmlns="http://www.w3.org/2000/svg" xml:space="preserve" width="343.64" height="70.468"><path fill="#498cc1" d="M273.133 70.468h28.176L343.64 0h-28.166l-42.342 70.468"/><path fill="#666" stroke="#000" stroke-width=".9092676000000001" d="M110.587 19.225v38.398h23.039c7.167-1.175 11.266-5.19 12.825-11.519.014-5.124.002-10.235 0-15.36-1.56-6.328-5.658-10.343-12.825-11.518h-23.04zm9.01 7.705h10.215c3.208.57 6.252 1.575 7.705 6.4l-.025 10.24c-1.466 4.817-4.498 5.83-7.706 6.4h-10.214l.026-23.04zM11.993 57.631V28.202H.466l-.003-8.957h35.862l-3.844 8.957-8.965.004V57.63H11.993M40.164 19.25l-14.08 38.373H37.63l4.454-14.053 4.48 6.4h7.68l2.56 7.653h11.622L54.244 19.251h-14.08zm6.989 10.214 4.53 11.546h-8.96l4.43-11.546zM69.594 57.631V19.245h14.11l14.085 28.163V19.245h8.965l-.007 38.386H92.664L78.577 29.492l-.004 28.14h-8.979"/><path fill="#666" stroke="#000" stroke-width=".9092676000000001" d="m156.681 39.74-15.356-20.495h11.517l8.351 12.777 8.311-12.777h12.783l-15.404 20.431.028 17.955h-10.22l-.01-17.891"/><path fill="#197123" d="M236.148 70.468h28.176L306.65 0h-28.17l-42.335 70.468"/><path fill="#ae1f19" d="M199.155 70.468h28.176L269.657 0H241.49l-42.343 70.468"/><text xml:space="preserve" x="295.303" y="32.582" font-family="Open Sans Light" font-size="40" style="letter-spacing:0;word-spacing:0"/></svg>