<svg xmlns="http://www.w3.org/2000/svg" xml:space="preserve" width="820" height="254" viewBox="-131 270 820 254"><path d="M30.15 401.3c3.7 2.6 7.8 4.9 12.5 6.3l-23.1 34-17.5-32.5h15.9c3.3 0 6.9-.8 9.5-3.4 1.3-1.3 2.1-2.8 2.7-4.4zm-97.2-131.2c-15.5 0-27 6.4-34 14.8-7 8.3-10 18.2-10 26.3v55c0 9.9 3.7 20 10.3 28 5.8 7.2 14.3 12.7 24.3 13.7l68.4 113.3 1.8 2.9H44.45l1.8-2.8 44.9-71.4v58.2c0 3.7.8 7.5 3.4 10.8 2.6 3.3 7 5.2 11.6 5.2h147c5.3 0 10.5-1.7 15.1-3.9 1.3-.6 2.5-1.4 3.7-2.2 2.1 3.2 6.3 6 11.2 6h38c4.9 0 9.3-2 12-5.1.4-.5.7-1 1.1-1.5 6.4 3.7 14.2 6.6 21.9 6.6h84.7c13.8-1.7 19.2-4.3 22.9-6.6 2.8 3.9 6.7 6.6 11.4 6.6h38c3.4 0 6.2-1 9.4-3.2s6.6-6.3 6.6-11.8v-62h25c1.6 0 3.6.7 4.9 1.8 1.3 1.1 2.1 2.3 2.1 4.2v56c0 3.7 1.4 6.5 3.8 9.3 2.4 2.8 6 5.8 11 5.8h39c4.4 0 7.6-2.1 10.2-4.6 2.6-2.5 4.8-5.9 4.8-10.4v-77.4l-.1-.4c-.7-5.6-1.2-13-6.8-22.3H627.95c11.5.5 21.5-5.8 28.8-13.5 7.3-7.8 12.3-17.3 12.3-26.5v-58c0-9.2-3.9-19.1-11.2-27.1-7.3-8-18.3-13.9-31.8-13.9h-85c-9.2 0-17.2 3.4-23.7 7.8-.4-.9-.8-1.7-1.4-2.6-2-2.7-5.6-5.3-9.9-5.3h-86c-7.8 0-14.2 2.3-19 5v-5h-149.1v77h-19c-1.2 0-3.6-.5-5-1.4-1.4-.9-2-1.5-2-3.6v-58c0-8.5-7.4-14-15-14h-38c-4.5 0-8.2 2.3-10.7 5-.4.4-.6.9-.9 1.3-5.4-3.1-11.7-6.1-19.4-6.1h-90c-9 0-16.2 3.7-21.8 7.8-.6-1.3-1.5-2.5-2.6-3.7-2.1-2.2-5.6-4.1-9.6-4.1z" style="fill:#fff"/><path d="M24.95 290.1c5-4.9 14.8-14 27-14h90c8.3 0 15.2 4.7 22 9 .3-4 4-9 9-9h38c4.5 0 9 3.4 9 8v58c0 8.1 8.1 11.1 13 11h25v-77h137v11c3-2.9 10.9-11 25-11h86c4.5 0 6.8 4.8 7 8v5c6-6.3 16.4-13 28-13h85c23.8 0 37 20.1 37 35v58c0 13.4-16.7 35-35 34h-17c12.3 13.3 12 20.8 13 29v77c0 4.3-5 9-9 9h-39c-5.6 0-9-6.1-9-9v-56c0-7.6-7-12-13-12h-31v68c0 6.2-7.3 9-10 9h-38c-3.5 0-7.3-3.2-9-9-6.5 3.1-6.1 6.5-26 9h-84c-8.4 0-19.4-5.2-25-10 0 5-3.3 10.1-10 10h-38c-6.5 0-8-6.5-8-10-3.8 4.5-14.1 10-22 10h-147c-6.5 0-9-4.4-9-10v-79l-56 89h-44l-70-116c-19 0-32-19.3-32-36v-55c0-13 10.1-35 38-35h85c4.6 0 7 3.9 7 6zm28 113c-11.9 0-21.5-7-28-14v7c-.1 4.9-2.2 7-7 7h-26l27 50z"/><linearGradient id="a" x1="69" x2="819" y1="399" y2="399" gradientTransform="matrix(1 0 0 -1 -165.05 796.1)" gradientUnits="userSpaceOnUse"><stop offset="0" style="stop-color:#f090a7"/><stop offset=".149" style="stop-color:#ef7b75"/><stop offset=".256" style="stop-color:#ee6e5e"/><stop offset=".589" style="stop-color:#fce72c"/><stop offset=".813" style="stop-color:#acdee4"/><stop offset="1" style="stop-color:#a3ddf2"/></linearGradient><path d="M272.95 400.1v31h-88c-10.1 0-9.5 10 0 10h58c45.2 0 45.2 67 0 67h-91v-30h87c10.4 0 9.7-10 0-10h-54c-46.4 0-46.3-68 0-68h88zm202 0h103c18.5 0 35 14.4 35 34v74h-37v-64c0-10.7-6.4-12.8-14-13h-50v77h-37zm-97 30.1c-9.8.1-14 6.2-14 13.9v20c0 8.3 7.1 14 14 14h41c4.9 0 13-3.3 13-14v-20c0-6.7-4.1-14.2-13-14.1zm-14-30.1h69c21.9 0 36 14.9 36 33v40c0 28.4-24.5 35-36 35h-69c-25.9 0-37-20.9-37-35v-40c0-23 20.6-33 37-33zm-81 0h37v108h-37zm-178 0h37v108h-37zm-168 0h41l40 70 47-70h34l-64 108H1.35Zm330-114h117v27h-81v10h81v27h-81c0 9.9 7.3 14 15 14h66v29h-85c-19 0-32.1-15.8-32.1-33zm-94 0h36v64c0 9.2 6.9 14.1 15 14h39v29h-56c-15.9 0-34-7.1-34-33zm332 0h-81c-23.3 0-32.9 21.4-33 33v40c0 25.9 21.3 35.2 33 35h81v-30h-62c-4.4 0-15-3.3-15-13v-21c0-10 7.5-14 15-14h62zm58 30.1c-9.8.1-14 6.2-14 13.9v20c0 8.3 7.1 14 14 14h41c4.9 0 13-3.3 13-14v-20c0-6.7-4.1-14.2-13-14.1zm-14-30.1h69c21.9 0 36 14.9 36 33v40c0 28.4-24.5 35-36 35h-69c-25.9 0-37-20.9-37-35v-40c0-23 20.6-33 37-33zm-474 30.1c-9.8.1-14 6.2-14 13.9v20c0 8.3 7.1 14 14 14h41c4.9 0 13-3.3 13-14v-20c0-6.7-4.1-14.2-13-14.1zm-14-30.1h69c21.9 0 36 14.9 36 33v40c0 28.4-24.5 35-36 35h-69c-25.9 0-36-20.9-36-35v-40c0-23 19.6-33 36-33zm-43 0h-81c-23.3 0-32.9 21.4-33 33v40c0 25.9 21.3 35.2 33 35h81v-30h-63c-4.4 0-15-3.3-15-13v-21c0-10 7.5-14 15-14h63z" style="fill:url(#a)"/></svg>