<svg xmlns="http://www.w3.org/2000/svg" xml:space="preserve" id="Layer_1" x="0" y="0" style="enable-background:new 0 0 3839 347.3" version="1.1" viewBox="0 0 3839 347.3"><style>.st35{fill:#002684}</style><path d="M2431.2 52.2v243.1h-27.8V52.2z" style="fill-rule:evenodd;clip-rule:evenodd;fill:#002684"/><path d="M2492.8 52.2v243.1H2465V52.2z" style="fill-rule:evenodd;clip-rule:evenodd;fill:#12506f"/><path d="M2554.5 52.2v243.1h-27.8V52.2z" style="fill-rule:evenodd;clip-rule:evenodd;fill:#24795b"/><path d="M2616.1 52.2v243.1h-27.7V52.2z" style="fill-rule:evenodd;clip-rule:evenodd;fill:#36a346"/><path d="M2677.8 52.2v243.1H2650V52.2z" style="fill-rule:evenodd;clip-rule:evenodd;fill:#48cc31"/><path d="M2739.5 52.2v243.1h-27.9V52.2z" style="fill-rule:evenodd;clip-rule:evenodd;fill:#6ad434"/><path d="M2801.1 52.2v243.1h-27.8V52.2z" style="fill-rule:evenodd;clip-rule:evenodd;fill:#8bdc37"/><path d="M2862.8 52.2v243.1H2835V52.2z" style="fill-rule:evenodd;clip-rule:evenodd;fill:#aee53a"/><path d="M2924.4 52.2v243.1h-27.8V52.2z" style="fill-rule:evenodd;clip-rule:evenodd;fill:#d0ed3d"/><path d="M2986 52.2v243.1h-27.8V52.2z" style="fill-rule:evenodd;clip-rule:evenodd;fill:#f2f540"/><path d="M3047.7 52.2v243.1h-27.8V52.2z" style="fill-rule:evenodd;clip-rule:evenodd;fill:#f5d630"/><path d="M3109.4 52.2v243.1h-27.8V52.2z" style="fill-rule:evenodd;clip-rule:evenodd;fill:#f8b621"/><path d="M3171 52.2v243.1h-27.8V52.2z" style="fill-rule:evenodd;clip-rule:evenodd;fill:#fa9711"/><path d="M3232.7 52.2v243.1h-27.8V52.2z" style="fill-rule:evenodd;clip-rule:evenodd;fill:#fd7801"/><path d="M3294.3 52.2v243.1h-27.8V52.2z" style="fill-rule:evenodd;clip-rule:evenodd;fill:#f9500e"/><path d="M3356 52.2v243.1h-27.8V52.2z" style="fill-rule:evenodd;clip-rule:evenodd;fill:#f6281c"/><path d="M3417.6 52.2v243.1h-27.8V52.2z" style="fill-rule:evenodd;clip-rule:evenodd;fill:#f20029"/><path d="M538.2 161.9c-2.2-20.5-24.3-20-39.8-20-8.5 0-26.2.3-33 6.2-6.5 5.6-6.5 20.3-6.5 28.1 0 7.6.3 17.7 6 23.4 6.8 6.8 25.7 7.3 34.4 7.3 6 0 11.7 0 17.7-.8 12-1.7 19.1-5.3 21-18.6h49c-.5 14.9-1.4 29.3-12 40.5-11.2 12.1-28.4 14.6-43.9 15.5-11.7.6-23.2.8-34.9.8-21 0-51 .6-69-12.4-17.5-12.7-16.6-39.1-16.6-58.5 0-19.1-.3-41.9 15.3-55.4 16.9-14.6 52.1-13.5 72.9-13.5 20.8 0 56.8-.8 74 13.5 4.6 3.9 7.6 7.9 10.1 13.8 4.1 9.9 4.4 19.4 4.6 30.1h-49.3zM784.3 197.8c-1.1 12.9-4.4 24.5-14.2 33.2-16.6 14.9-55.9 13.2-76.4 13.2-21.3 0-58.9 2-76.4-13.2-4.9-4.2-7.9-8.7-10.4-14.6-5.5-13.8-4.6-31.2-4.6-45.9 0-7.3 0-14.9.8-22.2 1.1-12.7 5.7-23.9 15.8-31.8 16.4-12.9 55.4-12.1 74.8-12.1 19.6 0 58.1-.8 74.8 12.1 4.6 3.7 7.6 7.3 10.4 12.7 7.1 12.9 6.3 29.5 6.3 43.9-.1 8.2-.3 16.7-.9 24.7zm-53.5-48.5c-7.1-7-27.8-7.3-36.8-7.3-8.7 0-17.7.3-26.2 2-16.9 3.4-17.2 16.9-17.2 32.1 0 7.3-.3 17.2 4.9 22.8 7.4 8.2 28.7 8.2 38.5 8.2 9.3 0 19.1 0 28.1-2.5 15-4.2 14.7-18.3 14.7-32.1 0-7.8-.2-17.6-6-23.2zM1037.8 240.9v-62.2c0-28.7-3-36.9-32.7-36.9-33.3 0-35.8 13.5-35.8 44.2v54.9H921v-71.5c0-24.2-10.1-27.6-31.9-27.6-34.4 0-36.6 12.7-36.6 44.2v54.9h-48.3v-133h45.5v20h2.2c9-20.5 33-23.4 52.4-23.4 24.6 0 46.1 4.2 58.7 27.9 9.8-24.8 32.7-27.9 55.9-27.9 18.8 0 39.8 2.3 53.5 17.2 4.6 5.1 8.2 10.4 10.1 17.2 3.8 12.9 3.5 26.7 3.5 40V241h-48.2zM1340.5 240.9v-62.2c0-28.7-3-36.9-32.7-36.9-33.3 0-35.8 13.5-35.8 44.2v54.9h-48.3v-71.5c0-24.2-10.1-27.6-31.9-27.6-34.4 0-36.6 12.7-36.6 44.2v54.9h-48.3v-133h45.6v20h2.2c9-20.5 33-23.4 52.4-23.4 24.6 0 46.1 4.2 58.7 27.9 9.8-24.8 32.7-27.9 55.9-27.9 18.8 0 39.8 2.3 53.5 17.2 4.6 5.1 8.2 10.4 10.1 17.2 3.8 12.9 3.5 26.7 3.5 40V241h-48.3zM1588.8 197.8c-1.1 12.9-4.4 24.5-14.2 33.2-16.6 14.9-55.9 13.2-76.4 13.2-21.3 0-58.9 2-76.4-13.2-4.9-4.2-7.9-8.7-10.4-14.6-5.5-13.8-4.6-31.2-4.6-45.9 0-7.3 0-14.9.8-22.2 1.1-12.7 5.7-23.9 15.8-31.8 16.4-12.9 55.4-12.1 74.8-12.1 19.6 0 58.1-.8 74.8 12.1 4.6 3.7 7.6 7.3 10.4 12.7 7.1 12.9 6.3 29.5 6.3 43.9-.1 8.2-.4 16.7-.9 24.7zm-53.5-48.5c-7.1-7-27.8-7.3-36.8-7.3-8.7 0-17.7.3-26.2 2-16.9 3.4-17.2 16.9-17.2 32.1 0 7.3-.3 17.2 4.9 22.8 7.4 8.2 28.7 8.2 38.5 8.2 9.3 0 19.1 0 28.1-2.5 15-4.2 14.7-18.3 14.7-32.1 0-7.8-.3-17.6-6-23.2zM1742.1 240.9v-17.4h-2.5c-3.3 5.6-5.7 9.3-11.2 12.7-12 7.6-32.2 8.2-45.8 8.2-19.9 0-46.9.3-62.8-14.1-14.2-12.9-13.9-38.6-13.9-56.6 0-20.8.5-46.2 19.1-59.1 16.4-11.3 39.3-10.1 58.1-10.1 14.2 0 29.7-.3 42.3 7.3 6.3 3.7 8.5 7.3 12 13.8h1.9V53.3h48.3V241h-45.5zm-4.9-86.6c-5.7-13.5-26.5-12.4-38.2-12.4-12 0-36.3-1.4-42.3 12.7-2.2 5.6-2.5 12.9-2.5 18.9 0 7.9-.3 20 5.5 26.2 6.5 7.3 27.6 7.3 36.3 7.3 9.8 0 21.8-.6 31.1-3.7 13.1-4.2 12.8-17.2 12.8-29.3 0-6.2-.3-13.8-2.7-19.7zM1988.8 197.8c-1.1 12.9-4.4 24.5-14.2 33.2-16.6 14.9-55.9 13.2-76.4 13.2-21.3 0-58.9 2-76.4-13.2-4.9-4.2-7.9-8.7-10.4-14.6-5.5-13.8-4.6-31.2-4.6-45.9 0-7.3 0-14.9.8-22.2 1.1-12.7 5.7-23.9 15.8-31.8 16.4-12.9 55.4-12.1 74.8-12.1 19.6 0 58.1-.8 74.8 12.1 4.6 3.7 7.6 7.3 10.4 12.7 7.1 12.9 6.3 29.5 6.3 43.9-.1 8.2-.4 16.7-.9 24.7zm-53.5-48.5c-7.1-7-27.8-7.3-36.8-7.3-8.7 0-17.7.3-26.2 2-16.9 3.4-17.2 16.9-17.2 32.1 0 7.3-.3 17.2 4.9 22.8 7.4 8.2 28.7 8.2 38.5 8.2 9.3 0 19.1 0 28.1-2.5 15-4.2 14.7-18.3 14.7-32.1 0-7.8-.3-17.6-6-23.2zM2158.2 167h-45.3c0-19.7-6.3-25-25.4-25-29.7 0-30.6 19.4-30.6 43.9V241h-48.3V107.9h45.6v20h2.2c11.2-20.5 29.2-23.4 50.2-23.4 15 0 33 2 43.1 14.9 9 11.5 8.7 28.1 8.7 42.2.1 1.7-.2 3.7-.2 5.4zM2343.8 185.3h-126.1c0 7.6-.3 16.3 6 21.7 6.5 5.3 24.8 5.6 32.7 5.6 7.9 0 30 .3 35.2-5.6 2.2-2.3 2.7-5.3 3.3-8.4h48c-1.1 12.7-3.5 22.5-12.8 31.2-16.6 15.5-56.5 14.6-77.5 14.6-19.1 0-51 .3-66.9-12.4-4.9-3.9-8.2-8.4-10.9-14.1-6-12.9-5.5-29-5.5-42.8 0-8.4 0-16.9.8-25 1.4-13.5 5.7-25.6 16.6-33.8 16.9-12.7 50.8-11.8 70.7-11.8 18.3 0 38.2-.6 55.9 4.8 28.7 8.7 30.6 35.7 30.6 62.5.2 4.5.2 9-.1 13.5zm-48.3-30.4c0-5.1-.3-9-3.8-12.9-5.7-6.5-25.4-6.5-33.3-6.5-7.4 0-14.7 0-21.8 1.1-13.6 2-18.6 7.3-18.8 21.4h77.8l-.1-3.1zM79.1 173.7c0-50.8 40.1-92.1 89.3-92.1 15.8 0 30.7 4.3 43.5 11.7V5.9C198 2.1 183.5 0 168.4 0 75.4 0 0 77.7 0 173.7s75.4 173.7 168.4 173.7c15.1 0 29.7-2.1 43.5-5.9V254c-12.9 7.5-27.7 11.7-43.5 11.7-49.2-.1-89.3-41.4-89.3-92zM211.9 167.3h79.4l67.3-69.4H211.9z" class="st35"/><path d="M211.9 180v69.3h146.7L291.3 180z" style="fill:#f20029"/><path d="M3461.3 295.3V52.4h75.3v242.9h-75.3zM3771.9 120.5c0-3.6-.4-8.7-3.5-11.3-3.2-2.5-8.1-2.9-11.7-3.3-18.4-1.8-37.5-1.8-56.2-1.8-17.3 0-36 0-53 3.3-3.9.7-7.4 1.8-10.6 4.4-8.1 6.6-7.4 24.8-7.4 34.3v13.5c4.2-4.4 8.5-8 13.8-10.9 19.8-11.7 59.4-10.6 81.6-10.6 24 0 53.4.4 76.3 8 8.5 2.9 15.5 6.9 21.9 13.5 14.1 14.2 14.5 41.5 14.5 60.5 0 34.6-5.7 65.6-43.1 73.2-14.5 2.9-29.3 4-43.8 4.4-21.2.4-42.1.7-63.3.7-29.7 0-85.2 1.8-107.8-19.3-16.3-14.9-17.3-44.1-18-64.9-.4-16-.7-32.4-.7-48.5 0-29.2-3.2-76.5 20.1-97.3 22.3-20 98.2-18.9 126.2-18.9 15.5 0 31.1 0 46.6.7 21.6.7 58 1.8 74.2 18.9 11.3 12 11 35.7 11 51.4h-67.1zm-20.5 74.3c-19.1-2.9-39.6-2.2-59-2.2-14.1 0-28.6-.7-42.8 1.5-13.8 2.2-19.1 10.9-19.1 24.8 0 6.2 1.4 14.2 5.7 19 7.1 7.7 47 5.8 56.2 5.8 12.4 0 24.4-.4 36.8-.7 8.8-.4 26.9.7 33.9-6.2 4.2-4.4 4.9-12.4 4.9-18.2 0-13.6-2.9-21.7-16.6-23.8z" class="st35"/></svg>