<svg xmlns="http://www.w3.org/2000/svg" width="560" height="172.5" viewBox="0 0 148.167 45.641"><path d="M289.459 6.35c-1.418-.986-2.708-1.393-4.37-1.741-8.058-1.656-16.311-2.576-24.532-1.742-22.83 1.925-44.398 14.155-58.31 32.279-3.01 3.858-5.92 7.788-8.806 11.737-.223.335-.684 1.005-.907 1.34-4.758 6.236-7.446 13.656-10.146 20.93-1.249 4.482-2.425 9.017-3.089 13.623-.729 6.454-.657 12.972-.25 19.439 1.255 14.629 7.005 28.771 15.667 40.594 2.07 2.693 4.239 5.322 6.572 7.799 4.225 4.213 8.852 8.045 13.885 11.258 6.519 4.369 13.735 7.736 21.305 9.814 14.439 4.152 30.275 4.836 44.642.077l8.338-13.063v-28.525l61.333-.063 7.741-12.742-29.862-30.15-4.467-.028 27.854-28.241 8.563-11.458h-71.161zm-9.399 116.099c-8.813 2.438-20.159 2.393-28.618-1.242-9.68-4.087-17.895-11.882-21.865-21.688-3.726-8.167-4.12-17.504-2.136-26.182 1.203-4.797 3.713-9.463 7.695-12.512 6.545-5.514 15.227-7.399 23.514-8.333 7.301.25 15.1 1.688 21.409 5.552zM88.46 171.447l10.015-13.616L119.134 6.35H79.979l-7.004 8.764L65.44 79.53 56.205 6.35h-39.54l-7.188 9.22 21.975 155.756zM512.711 6.35c-8.543 0-11.24 3.176-13.843 4.931-2.233 1.688-3.809 3.178-5.968 4.939-4.563 3.746-7.354 7.929-10.461 12.916-3.179 5.148-5.914 9.132-5.914 17.894l.192 83.273c.105 7.53-.897 15.344 1.771 22.579 1.771 4.495 4.486 8.845 8.411 11.763 3.68 3.174 10.731 6.683 16.481 6.683h29.736c8.955 0 17.252-5.423 22.837-12.075l5.449-7.063c6.38-9.774 7.663-15.058 7.374-23.15l1.109-96.635c-.132-8.405-2.806-15.768-9.906-20.571-3.608-2.327-7.299-5.479-13.451-5.479h-33.82zm6.85 34.705h4.238c2.423-.161 2.425 3.27 2.425 4.872l-.002 87.859-2.921.08c-1.703 0-3.739-3.271-3.739-4.871zM421.312 82.293c-.104 2.458-2.209 6.043-4.298 7.226-6.882 3.851-13.715 7.788-20.612 11.605-3.708 1.78-7.396 3.812-10.206 6.873-5.618 6.04-9.863 13.88-9.732 22.323l-.371 41.195 78.313.026 9.002-12.854v-24.906H416.99s-.149-7.395 1.191-9.354c1.759-2.564 5.505-4.146 8.188-5.816 5.81-3.438 11.822-6.53 17.638-9.975 3.721-2.145 6.776-5.244 9.135-8.82 1.827-2.653 3.996-5.047 5.977-7.584 2.892-3.718 4.641-8.313 4.814-13.03l.259-45.462c-.44-7.446-2.559-15.352-8.233-20.55-4.751-5.001-10.104-6.919-16.951-6.841-7.358-.381-18.479-.053-25.848 0-4.182.138-7.602.508-11.542 1.974-3.076.947-6.495 3.877-7.777 4.929-3.962 3.917-7.016 6.708-10.655 10.926-3.581 4.351-6.31 11.08-6.109 16.843l.262 31.169 31.266-.013c2.17-2.615 6.771-7.729 8.736-10.507 1.07-1.407.782-3.28.861-4.929-.119-4.758-.008-10.837-.146-15.595.578.007 1.666.722 2.541 2.047.715 1.192.777 3.493.729 6.299v32.802z" style="fill:#010101" transform="matrix(.2638 0 0 .2638 -2.334 -.608)"/><path d="M284.529 6.258c-7.596-1.676-15.39-2.097-23.145-1.63-18.493 1.814-36.519 9.706-49.747 22.862-1.268 1.367-2.373 2.878-3.594 4.285 11.395-9.857 25.931-15.765 40.803-17.756l.539-.092c4.85-.138 9.706-.789 14.555-.335 3.595.328 7.17.795 10.772 1.084 2.26.5 4.507 1.052 6.813 1.301l.973-1.367c1.511-2.28 2.878-4.666 4.587-6.808-.61-.861-1.491-1.452-2.556-1.544zM455.698 15.642c-3.519-4.271-6.851-6.234-12.25-6.99-8.49-1.104-18.481-.686-27.014-.876-4.387.405-7.857-.282-11.32.986-4.479 1.531-8.816 4.233-11.958 7.794l-.026.033c.263.125.789.362 1.053.487 5.316-1.413 10.855-1.157 16.307-1.301 7.912.138 15.854-.48 23.729.512 5.642 1.025 11.055 3.595 15.082 7.729zM278.556 124.874c-2.543.563-5.106 1.091-7.709 1.248a46.968 46.968 0 0 1-16.23-1.649c-4.672-1.603-9.121-3.89-13.117-6.802-5.441-4.205-9.898-9.674-12.887-15.864-4.081-8.355-5.185-18.091-3.286-27.186.375-2.057.979-4.062 1.597-6.053-1.597 1.879-2.997 3.923-4.081 6.145-2.734 5.868-4.862 12.25-4.666 18.801-.151 8.057 2.201 16.107 6.513 22.902.42.689.866 1.374 1.347 2.037 5.191 6.882 12.361 12.367 20.668 14.879 10.31 3.229 21.804 2.207 31.445-2.648a42.442 42.442 0 0 0 1.958-1.269 92.82 92.82 0 0 0 0-4.836c-.389.071-1.164.217-1.552.295zM560.891 14.875c-1.354-1.051-3.081-2.229-4.521-3.156-4.337-2.852-8.52-3.7-13.648-3.943-5.757-.19-12.979.033-18.729 0-5.967.086-12.866-.694-18.551 1.534-5.586 2.519-7.164 5.04-10.877 8.417 8.563-2.458 17.523-1.689 26.316-1.722 3.456-.046 6.913.013 10.376-.026 4.063.21 8.208.545 12.046 2.024 2.904 1.071 5.454 2.905 7.827 4.863.702.598 1.399 1.203 2.109 1.807z" style="fill:#dededd" transform="matrix(.2638 0 0 .2638 -2.334 -.608)"/><path d="m158.79 171.268 8.713-12.635-.295-152.283h-36.5l-7.26 9.47-.085 155.448z" style="fill:#010101" transform="matrix(.2638 0 0 .2638 -2.334 -.608)"/><path d="M412.327 39.73c-3.818 0-5.033 6.22-5.053 9.118v22.146l-28.619-.119.203-29.953c.599-9.332 5.961-19.413 15.417-22.192a29.587 29.587 0 0 1 7.728-1.183c7.867-.27 15.753.092 23.612-.368 5.704.466 11.819.473 16.837 3.627 6.176 3.325 9.979 9.693 10.564 16.692.288 17.296-.063 33.852 0 51.148.041 2.978-.179 6.892-1.519 9.573-1.578 3.285-4.035 6.211-7.223 8.023-8.341 4.764-16.771 9.357-25.063 14.193-4.259 2.512-9.286 4.869-11.468 9.582-1.367 5.149-.828 10.561-.907 15.83h46.18v23.914l-75.127.077v-41.877c1.764-9.315 9.229-19.446 17.486-23.894 6.44-3.629 12.834-7.318 19.32-10.86 3.549-1.959 8.411-4.16 8.438-8.898.093-12.907-.085-22.541.063-35.454-.147-3.998-1.285-9.131-5.61-9.131h-5.259z" style="fill:#fff" transform="matrix(.2638 0 0 .2638 -2.334 -.608)"/><path d="M282.364 90.148V58.709h67.309l-31.05 31.439z" style="fill:#323eaa" transform="matrix(.2638 0 0 .2638 -2.334 -.608)"/><path d="M282.364 98.044v30.002h67.309l-31.05-30.002z" style="fill:#fa362c" transform="matrix(.2638 0 0 .2638 -2.334 -.608)"/><path d="M530.679 169.895c15.854 0 28.707-13.617 28.707-24.74V46.851c0-11.122-10.881-29.339-26.732-29.339h-27.73c-15.854 0-26.734 18.217-26.734 29.339v98.303c0 11.123 12.854 24.74 28.706 24.74h23.783zM510.196 45.269c0-1.602.938-5.529 3.736-5.529h9.699c3.163 0 3.739 3.927 3.739 5.529v95.553c0 1.603-2.695 4.871-4.396 4.871h-8.384c-1.703 0-4.396-3.271-4.396-4.871z" style="fill:#fff" transform="matrix(.2638 0 0 .2638 -2.334 -.608)"/><path d="m47.592 15.246 5.834-7.471H17.528l-5.833 7.471zM111.309 15.219l5.833-7.471H81.245l-5.833 7.471zM158.652 15.246l5.833-7.471h-33.269l-5.833 7.471zM350.329 57.126l6.491-8.127h-67.441l-6.49 8.127zM320.149 96.311l6.228-7.895-2.96.027-3.129 3.314h-33.911l-3.599 4.608h37.262l.043-.054zM453.127 143.917l7.147-8.785h-43.126l-7.147 8.785z" style="fill:#dededd" transform="matrix(.2638 0 0 .2638 -2.334 -.608)"/><path d="m23.762 103.844 30.946-33.029-7.495-53.989h-35.87zM105.295 16.826H74.639l-4.768 37.807z" style="fill:#2e329a" transform="matrix(.2638 0 0 .2638 -2.334 -.608)"/><path d="m124.547 71.221 33.246-35.482V16.825h-33.246zM69.871 54.633l-.036.28-8.252 65.421-6.846-49.308-.029-.211-30.946 33.029.03.211 9.252 64.826 65.012-69.386 11.799-82.669h-4.56z" style="fill:#dc2770" transform="matrix(.2638 0 0 .2638 -2.334 -.608)"/><path d="m180.566 86.322 66.315-70.778c-35.549 5.404-62.92 34.533-66.315 70.778zM33.169 169.752h54.859l10.016-70.175.012-.082-65.012 69.386.009.058zM124.547 146.107l33.246-35.481V35.739l-33.246 35.482v.07z" style="fill:#fa6b28" transform="matrix(.2638 0 0 .2638 -2.334 -.608)"/><path d="M258.852 14.643c-4.027 0-7.978.303-11.833.881l-.137.02-66.315 70.778a81.585 81.585 0 0 0-.361 7.623c0 18.724 6.372 35.93 17.086 49.494l25.424-27.135c-3.882-6.513-6.103-14.166-6.103-22.357 0-23.691 18.549-42.895 42.239-42.895a42.687 42.687 0 0 1 20.244 5.08l.49-.523V17.4a79.346 79.346 0 0 0-20.734-2.757zM157.793 169.752V110.626l-33.246 35.481v23.645z" style="fill:#ffcd1c" transform="matrix(.2638 0 0 .2638 -2.334 -.608)"/><path d="M258.852 136.844c-15.487 0-28.774-8.211-36.121-20.514a.071.071 0 0 0-.016-.023l-25.424 27.135a.218.218 0 0 0 .017.021c10.9 13.79 26.288 23.816 44.043 27.84l36.403-38.854a42.659 42.659 0 0 1-18.902 4.395zM279.096 56.132l.026.013c.154.084.311.163.464.249v-.785z" style="fill:#53a520" transform="matrix(.2638 0 0 .2638 -2.334 -.608)"/><path d="m277.98 132.338-.225.111-36.403 38.854.101.02a78.894 78.894 0 0 0 17.399 1.93c7.176 0 14.124-.973 20.734-2.756V131.5c-.528.291-1.065.568-1.606.838z" style="fill:#42591f" transform="matrix(.2638 0 0 .2638 -2.334 -.608)"/></svg>