<svg xmlns="http://www.w3.org/2000/svg" xmlns:xlink="http://www.w3.org/1999/xlink" xml:space="preserve" width="440" height="129.21"><g transform="translate(-72.608 -.883)"><defs><path id="a" d="m171.641 13.556 4.729 11.337c-.545.468-.949.942-1.226 1.474-.277.531-.426 1.12-.461 1.814-.034.695.045 1.498.227 2.457.181.959.464 2.076.835 3.399l-4.763-10.982c-.385-1.375-.679-2.535-.867-3.531-.188-.996-.271-1.829-.234-2.552.037-.722.192-1.333.481-1.885.29-.552.711-1.045 1.279-1.531z"/></defs><clipPath id="b"><use xlink:href="#a" width="100%" height="100%" overflow="visible" style="overflow:visible"/></clipPath><g clip-path="url(#b)"><path d="m171.641 13.556 4.729 11.337c-.545.468-.949.942-1.226 1.474-.277.531-.426 1.12-.461 1.814-.034.695.045 1.498.227 2.457.181.959.464 2.076.835 3.399l-4.763-10.982c-.385-1.375-.679-2.535-.867-3.531-.188-.996-.271-1.829-.234-2.552.037-.722.192-1.333.481-1.885.29-.552.711-1.045 1.279-1.531" style="fill:#856125"/></g></g><g transform="translate(-72.608 -.883)"><defs><path id="c" d="m87.144 25.833 8.054 10.878a4.985 4.985 0 0 0-.752-.819 4.12 4.12 0 0 0-.878-.582 4.319 4.319 0 0 0-1.016-.348 5.544 5.544 0 0 0-1.167-.116 8.215 8.215 0 0 0-1.056.075 10.5 10.5 0 0 0-.569.093c-.195.037-.394.081-.599.13l-8.298-10.939c.213-.051.42-.096.623-.135a10.58 10.58 0 0 1 1.156-.155 7.55 7.55 0 0 1 .535-.02c.433 0 .836.04 1.214.12a4.346 4.346 0 0 1 1.97.967c.282.244.542.527.783.851z"/></defs><clipPath id="d"><use xlink:href="#c" width="100%" height="100%" overflow="visible" style="overflow:visible"/></clipPath><g clip-path="url(#d)"><path d="m87.144 25.833 8.054 10.878a4.985 4.985 0 0 0-.752-.819 4.12 4.12 0 0 0-.878-.582 4.319 4.319 0 0 0-1.016-.348 5.544 5.544 0 0 0-1.167-.116 8.215 8.215 0 0 0-1.056.075 10.5 10.5 0 0 0-.569.093c-.195.037-.394.081-.599.13l-8.298-10.939c.213-.051.42-.096.623-.135a10.58 10.58 0 0 1 1.156-.155 7.55 7.55 0 0 1 .535-.02c.433 0 .836.04 1.214.12a4.346 4.346 0 0 1 1.97.967c.282.244.542.527.783.851" style="fill:#856125"/></g></g><g transform="translate(-72.608 -.883)"><defs><path id="e" d="m191.479 27.944 3.962 10.799a3.832 3.832 0 0 0-1.139-1.635 4.756 4.756 0 0 0-1.51-.839 6.487 6.487 0 0 0-1.357-.309c-.369-.044-.626-.044-.683-.044l-4.151-10.91a6.848 6.848 0 0 1 2.123.367 4.957 4.957 0 0 1 1.571.872c.49.413.915.964 1.184 1.699z"/></defs><clipPath id="f"><use xlink:href="#e" width="100%" height="100%" overflow="visible" style="overflow:visible"/></clipPath><g clip-path="url(#f)"><path d="m191.479 27.944 3.962 10.799a3.832 3.832 0 0 0-1.139-1.635 4.756 4.756 0 0 0-1.51-.839 6.487 6.487 0 0 0-1.357-.309c-.369-.044-.626-.044-.683-.044l-4.151-10.91a6.848 6.848 0 0 1 2.123.367 4.957 4.957 0 0 1 1.571.872c.49.413.915.964 1.184 1.699" style="fill:#856125"/></g></g><g transform="translate(-72.608 -.883)"><defs><path id="g" d="m149.297 21.509 5.611 11.041c-1.079-2.122-2.282-3.814-3.602-5.159a14.885 14.885 0 0 0-4.304-3.074c-1.546-.732-3.203-1.2-4.962-1.485-1.759-.285-3.621-.386-5.578-.386a71.921 71.921 0 0 0-2.226.038c-.377.012-.758.026-1.142.043-.384.016-.771.035-1.161.054-5.279.267-9.136 1.508-11.951 3.371-2.816 1.864-4.59 4.351-5.699 7.11-1.11 2.762-1.555 5.796-1.712 8.75-.157 2.957-.027 5.833.012 8.273l-7.361-10.356c-.037-2.535-.169-5.524-.001-8.596.167-3.07.634-6.223 1.793-9.092 1.157-2.867 3.006-5.451 5.94-7.387 2.931-1.935 6.947-3.223 12.441-3.501a132.992 132.992 0 0 1 2.397-.101 94.31 94.31 0 0 1 1.168-.029c.386-.007.769-.011 1.148-.011 2.037 0 3.974.105 5.804.401 1.831.295 3.554.781 5.163 1.542a15.493 15.493 0 0 1 4.476 3.194c1.375 1.398 2.625 3.156 3.746 5.36z"/></defs><clipPath id="h"><use xlink:href="#g" width="100%" height="100%" overflow="visible" style="overflow:visible"/></clipPath><g clip-path="url(#h)"><path d="m149.297 21.509 5.611 11.041c-1.079-2.122-2.282-3.814-3.602-5.159a14.885 14.885 0 0 0-4.304-3.074c-1.546-.732-3.203-1.2-4.962-1.485-1.759-.285-3.621-.386-5.578-.386a71.921 71.921 0 0 0-2.226.038c-.377.012-.758.026-1.142.043-.384.016-.771.035-1.161.054-5.279.267-9.136 1.508-11.951 3.371-2.816 1.864-4.59 4.351-5.699 7.11-1.11 2.762-1.555 5.796-1.712 8.75-.157 2.957-.027 5.833.012 8.273l-7.361-10.356c-.037-2.535-.169-5.524-.001-8.596.167-3.07.634-6.223 1.793-9.092 1.157-2.867 3.006-5.451 5.94-7.387 2.931-1.935 6.947-3.223 12.441-3.501a132.992 132.992 0 0 1 2.397-.101 94.31 94.31 0 0 1 1.168-.029c.386-.007.769-.011 1.148-.011 2.037 0 3.974.105 5.804.401 1.831.295 3.554.781 5.163 1.542a15.493 15.493 0 0 1 4.476 3.194c1.375 1.398 2.625 3.156 3.746 5.36" style="fill:#856125"/></g></g><g transform="translate(-72.608 -.883)"><defs><path id="i" d="m224.022 31.995 2.687 10.647c-.011-.042-.021-.082-.033-.121a1.948 1.948 0 0 0-.074-.212c-.014-.032-.027-.062-.042-.091a5.306 5.306 0 0 0-.627-.983 4.342 4.342 0 0 0-.913-.848 4.393 4.393 0 0 0-1.261-.595 5.878 5.878 0 0 0-1.67-.225 8.35 8.35 0 0 0-.771.038c-.269.026-.551.065-.846.118-.294.054-.602.122-.923.205-.321.084-.656.183-1.006.299a17.465 17.465 0 0 0-3.625 1.651c-1.191.72-2.389 1.644-3.673 2.868-1.285 1.226-2.656 2.753-4.19 4.682-1.536 1.93-3.236 4.263-5.179 7.098l-3.71-10.104c2.024-2.946 3.795-5.371 5.395-7.376 1.599-2.004 3.026-3.591 4.365-4.865 1.337-1.272 2.585-2.232 3.825-2.98a18.155 18.155 0 0 1 3.774-1.715c.363-.121.712-.224 1.046-.311.334-.087.655-.158.961-.213.307-.056.6-.096.88-.123.28-.026.547-.039.803-.04.658 0 1.233.084 1.738.233.504.148.938.361 1.312.618.374.257.687.557.95.881a5.537 5.537 0 0 1 .695 1.116 1.784 1.784 0 0 1 .077.22c.013.043.025.085.035.128z"/></defs><clipPath id="j"><use xlink:href="#i" width="100%" height="100%" overflow="visible" style="overflow:visible"/></clipPath><g clip-path="url(#j)"><path d="m224.022 31.995 2.687 10.647c-.011-.042-.021-.082-.033-.121a1.948 1.948 0 0 0-.074-.212c-.014-.032-.027-.062-.042-.091a5.306 5.306 0 0 0-.627-.983 4.342 4.342 0 0 0-.913-.848 4.393 4.393 0 0 0-1.261-.595 5.878 5.878 0 0 0-1.67-.225 8.35 8.35 0 0 0-.771.038c-.269.026-.551.065-.846.118-.294.054-.602.122-.923.205-.321.084-.656.183-1.006.299a17.465 17.465 0 0 0-3.625 1.651c-1.191.72-2.389 1.644-3.673 2.868-1.285 1.226-2.656 2.753-4.19 4.682-1.536 1.93-3.236 4.263-5.179 7.098l-3.71-10.104c2.024-2.946 3.795-5.371 5.395-7.376 1.599-2.004 3.026-3.591 4.365-4.865 1.337-1.272 2.585-2.232 3.825-2.98a18.155 18.155 0 0 1 3.774-1.715c.363-.121.712-.224 1.046-.311.334-.087.655-.158.961-.213.307-.056.6-.096.88-.123.28-.026.547-.039.803-.04.658 0 1.233.084 1.738.233.504.148.938.361 1.312.618.374.257.687.557.95.881a5.537 5.537 0 0 1 .695 1.116 1.784 1.784 0 0 1 .077.22c.013.043.025.085.035.128" style="fill:#856125"/></g></g><g transform="translate(-72.608 -.883)"><defs><path id="k" d="m223.745 52.44 2.706 9.876-.819-.019a209.468 209.468 0 0 0-1.729-.021 266.165 266.165 0 0 0-7.613.096 535.82 535.82 0 0 0-6.738.221c-2.137.083-4.109.168-5.746.239a347.29 347.29 0 0 1-3.735.151l-3.789-9.85c.829-.025 2.184-.083 3.888-.157 1.704-.074 3.757-.163 5.982-.249s4.623-.169 7.015-.23a274.348 274.348 0 0 1 7.926-.099 121.637 121.637 0 0 1 1.799.021c.29.007.574.013.853.021z"/></defs><clipPath id="l"><use xlink:href="#k" width="100%" height="100%" overflow="visible" style="overflow:visible"/></clipPath><g clip-path="url(#l)"><path d="m223.745 52.44 2.706 9.876-.819-.019a209.468 209.468 0 0 0-1.729-.021 266.165 266.165 0 0 0-7.613.096 535.82 535.82 0 0 0-6.738.221c-2.137.083-4.109.168-5.746.239a347.29 347.29 0 0 1-3.735.151l-3.789-9.85c.829-.025 2.184-.083 3.888-.157 1.704-.074 3.757-.163 5.982-.249s4.623-.169 7.015-.23a274.348 274.348 0 0 1 7.926-.099 121.637 121.637 0 0 1 1.799.021c.29.007.574.013.853.021" style="fill:#856125"/></g></g><g transform="translate(-72.608 -.883)"><defs><path id="m" d="m199.643 111.895-1.88-3.875-1.958-4.036c-2.93-6.038-4.537-11.795-5.257-17.145-.719-5.341-.553-10.275.064-14.679.616-4.396 1.684-8.265 2.772-11.479 1.087-3.21 2.196-5.768 2.898-7.548l3.789 9.85c-.674 1.712-1.737 4.174-2.78 7.262-1.043 3.092-2.066 6.813-2.655 11.043a51.777 51.777 0 0 0-.052 14.118c.695 5.146 2.242 10.683 5.059 16.489z"/></defs><clipPath id="n"><use xlink:href="#m" width="100%" height="100%" overflow="visible" style="overflow:visible"/></clipPath><g clip-path="url(#n)"><path d="m196.282 53.134 3.789 9.85c-.674 1.712-1.737 4.174-2.78 7.262-1.043 3.092-2.066 6.813-2.655 11.043a51.777 51.777 0 0 0-.052 14.118c.695 5.145 2.243 10.682 5.06 16.487l-3.838-7.911c-2.93-6.037-4.537-11.795-5.257-17.145-.719-5.341-.553-10.275.064-14.679.616-4.396 1.684-8.265 2.772-11.479 1.085-3.208 2.194-5.766 2.897-7.546" style="fill:#856125"/></g></g><g transform="translate(-72.608 -.883)"><defs><path id="o" d="m240.933 23.024 2.02 10.983c.035.188.017.397-.047.614a2.547 2.547 0 0 1-.318.662 3.7 3.7 0 0 1-.541.64 4.189 4.189 0 0 1-.713.546c-.456.277-.777.595-1.003.964-.226.37-.356.791-.432 1.273-.075.483-.093 1.028-.095 1.646-.001.619.014 1.31.007 2.085l-.097 11.051-.191 21.75-.195 22.205-.106 12.145a13.177 13.177 0 0 0 .099 1.751 11.213 11.213 0 0 0 .315 1.582c0-.118-.073-.266-.105-.379l-.965-3.477-1.114-4.015a10.985 10.985 0 0 1-.19-.799 12.24 12.24 0 0 1-.218-1.736 13.602 13.602 0 0 1-.022-.933l.116-12.629.211-23.085.207-22.606.105-11.483c.007-.806-.008-1.524-.007-2.167.002-.643.021-1.209.1-1.711.078-.502.214-.939.449-1.323.235-.384.57-.714 1.044-1.001.272-.165.523-.358.743-.567.221-.209.411-.435.563-.665.152-.229.266-.462.332-.688.066-.226.084-.437.048-.633z"/></defs><clipPath id="p"><use xlink:href="#o" width="100%" height="100%" overflow="visible" style="overflow:visible"/></clipPath><g clip-path="url(#p)"><path d="m240.933 23.024 2.02 10.983c.035.188.017.397-.047.614a2.547 2.547 0 0 1-.318.662 3.7 3.7 0 0 1-.541.64 4.189 4.189 0 0 1-.713.546c-.456.277-.777.595-1.003.964-.226.37-.356.791-.432 1.273-.075.483-.093 1.028-.095 1.646-.001.619.014 1.31.007 2.085l-.097 11.051-.191 21.75-.195 22.205-.106 12.145a13.177 13.177 0 0 0 .099 1.751 11.213 11.213 0 0 0 .315 1.582l-2.185-7.87a10.985 10.985 0 0 1-.19-.799 12.24 12.24 0 0 1-.218-1.736 13.602 13.602 0 0 1-.022-.933l.116-12.629.211-23.085.207-22.606.105-11.483c.007-.806-.008-1.524-.007-2.167.002-.643.021-1.209.1-1.711.078-.502.214-.939.449-1.323.235-.384.57-.714 1.044-1.001.272-.165.523-.358.743-.567.221-.209.411-.435.563-.665.152-.229.266-.462.332-.688.066-.226.085-.438.049-.634" style="fill:#856125"/></g></g><g transform="translate(-72.608 -.883)"><defs><path id="q" d="m105.224 39.729 7.361 10.356c.041 2.442.289 7.608.641 14.04.353 6.444.811 14.164 1.27 21.684a8342.91 8342.91 0 0 0 1.945 30.809l-7.286-7.722a8702.371 8702.371 0 0 1-1.987-32.037c-.469-7.816-.936-15.841-1.295-22.54-.359-6.684-.61-12.053-.649-14.59z"/></defs><clipPath id="r"><use xlink:href="#q" width="100%" height="100%" overflow="visible" style="overflow:visible"/></clipPath><g clip-path="url(#r)"><path d="m105.224 39.729 7.361 10.356c.041 2.442.289 7.608.641 14.04.353 6.444.811 14.164 1.27 21.684a8342.91 8342.91 0 0 0 1.945 30.809l-7.286-7.722a8702.371 8702.371 0 0 1-1.987-32.037c-.469-7.816-.936-15.841-1.295-22.54-.359-6.684-.61-12.053-.649-14.59" style="fill:#856125"/></g></g><g transform="translate(-72.608 -.883)"><defs><path id="s" d="m242.437 110.31 1.988 7.667c-2.41 0-5.008.007-7.56.017a3114.897 3114.897 0 0 0-12.879.076l-2.511.02-2.938-7.662 2.615-.021a4423.8 4423.8 0 0 1 13.413-.078c2.657-.012 5.362-.019 7.872-.019z"/></defs><clipPath id="t"><use xlink:href="#s" width="100%" height="100%" overflow="visible" style="overflow:visible"/></clipPath><g clip-path="url(#t)"><path d="m242.437 110.31 1.988 7.667c-2.41 0-5.008.007-7.56.017a3114.897 3114.897 0 0 0-12.879.076l-2.511.02-2.938-7.662 2.615-.021a4423.8 4423.8 0 0 1 13.413-.078c2.657-.012 5.362-.019 7.872-.019" style="fill:#856125"/></g></g><g transform="translate(-72.608 -.883)"><defs><path id="u" d="m170.983 23.055 4.763 10.982c.369 1.324.97 3.499 1.488 6.396.519 2.899.955 6.524.995 10.747a69.003 69.003 0 0 1-1.392 14.359c-1.075 5.311-2.867 11.098-5.696 17.231-2.796 6.066-6.777 11.651-11.697 16.618-4.927 4.976-10.793 9.329-17.35 12.924-6.564 3.599-13.817 6.435-21.505 8.372a98.912 98.912 0 0 1-24.123 2.976h-.338l-.338-.002-.338-.002-.338-.004-8.179-7.439.353.004.352.003.352.002h.352c8.648 0 17.112-1.079 25.126-3.095 8.01-2.016 15.566-4.966 22.406-8.709 6.831-3.738 12.944-8.266 18.08-13.438 5.126-5.165 9.277-10.972 12.193-17.278 2.95-6.377 4.821-12.392 5.945-17.912a71.594 71.594 0 0 0 1.461-14.923 66.8 66.8 0 0 0-1.027-11.167 68.295 68.295 0 0 0-1.545-6.645z"/></defs><clipPath id="v"><use xlink:href="#u" width="100%" height="100%" overflow="visible" style="overflow:visible"/></clipPath><g clip-path="url(#v)"><path d="m170.983 23.055 4.763 10.982c.369 1.324.97 3.499 1.488 6.396.519 2.899.955 6.524.995 10.747a69.003 69.003 0 0 1-1.392 14.359c-1.075 5.311-2.867 11.098-5.696 17.231-2.796 6.066-6.777 11.651-11.697 16.618-4.927 4.976-10.793 9.329-17.35 12.924-6.564 3.599-13.817 6.435-21.505 8.372a98.912 98.912 0 0 1-24.123 2.976h-.338l-.338-.002-.338-.002-.338-.004-8.179-7.439.353.004.352.003.352.002h.352c8.648 0 17.112-1.079 25.126-3.095 8.01-2.016 15.566-4.966 22.406-8.709 6.831-3.738 12.944-8.266 18.08-13.438 5.126-5.165 9.277-10.972 12.193-17.278 2.95-6.377 4.821-12.392 5.945-17.912a71.594 71.594 0 0 0 1.461-14.923 66.8 66.8 0 0 0-1.027-11.167 68.295 68.295 0 0 0-1.545-6.645" style="fill:#856125"/></g></g><path d="M170.983 23.055a68.062 68.062 0 0 1 1.544 6.645 66.79 66.79 0 0 1 1.027 11.167 71.594 71.594 0 0 1-1.461 14.923c-1.124 5.52-2.995 11.535-5.945 17.912-2.917 6.307-7.067 12.113-12.193 17.278-5.136 5.173-11.249 9.7-18.08 13.438-6.84 3.743-14.396 6.693-22.406 8.709a103.176 103.176 0 0 1-25.126 3.095h-.352l-.352-.002-.352-.003-.353-.004c1.407-1.003 2.541-1.859 3.436-2.808a8.704 8.704 0 0 0 2.009-3.361c.456-1.372.709-3.075.797-5.348.088-2.271.01-5.11-.198-8.754-.208-3.641-.46-8.829-.738-14.687-.277-5.845-.58-12.354-.888-18.656-.308-6.289-.621-12.373-.921-17.392-.299-5.011-.586-8.965-.842-11.008-.217-1.739-.479-3.252-.812-4.544-.333-1.292-.736-2.362-1.235-3.216-.5-.853-1.096-1.489-1.815-1.912-.719-.423-1.561-.633-2.551-.633a8.892 8.892 0 0 0-1.098.078 12.793 12.793 0 0 0-1.216.232c5.828-4.496 10.949-8.011 15.578-10.754 4.625-2.741 8.76-4.714 12.618-6.127a53.12 53.12 0 0 1 10.952-2.764c3.515-.5 6.965-.646 10.562-.646 1.126 0 2.267.014 3.428.037 1.162.022 2.344.053 3.553.085 1.209.032 2.447.067 3.717.096 1.27.029 2.574.054 3.917.068 5.632.057 10.088.64 13.607 1.491 3.521.851 6.104 1.97 7.991 3.097 1.887 1.127 3.076 2.262 3.806 3.144.73.882 1 1.511 1.049 1.625-.567.486-.989.979-1.277 1.531-.289.552-.444 1.164-.481 1.885-.037.723.046 1.556.234 2.552.188.997.482 2.156.867 3.531zM148.605 77.44c2.391-4.404 4.042-9.064 5.092-13.788 1.049-4.717 1.499-9.496 1.487-14.149a73.247 73.247 0 0 0-1.28-13.371c-.794-4.2-1.912-8.087-3.216-11.475-1.115-2.896-2.395-5.196-3.828-7.018-1.432-1.821-3.018-3.164-4.747-4.146-1.729-.981-3.6-1.602-5.604-1.977s-4.141-.505-6.399-.505c-.379 0-.762.004-1.148.011a93.827 93.827 0 0 0-2.357.073c-.399.017-.802.036-1.208.057-5.495.278-9.51 1.566-12.441 3.501-2.934 1.936-4.783 4.52-5.94 7.387-1.159 2.869-1.625 6.022-1.793 9.092-.168 3.072-.036 6.061.001 8.596.04 2.538.291 7.907.649 14.59.359 6.699.826 14.723 1.295 22.54.47 7.838.942 15.466 1.31 21.327.367 5.872.629 9.965.677 10.71 3.681-.296 7.036-.68 10.238-1.524s6.249-2.148 9.313-4.283c3.063-2.134 6.141-5.096 9.405-9.255 3.26-4.154 6.702-9.498 10.494-16.393" style="fill:#deba27" transform="translate(-72.608 -.883)"/><g transform="translate(-72.608 -.883)"><defs><path id="w" d="m189.773 106.212-4.242-8.137a71.292 71.292 0 0 0 4.107 6.907c1.501 2.222 3.116 4.315 4.793 6.151 1.678 1.838 3.417 3.416 5.165 4.603 1.749 1.188 3.505 1.982 5.218 2.254l3.488 7.371c-1.645-.262-3.332-1.026-5.011-2.167-1.679-1.142-3.35-2.658-4.962-4.425-1.611-1.766-3.164-3.779-4.606-5.915a68.338 68.338 0 0 1-3.95-6.642z"/></defs><clipPath id="x"><use xlink:href="#w" width="100%" height="100%" overflow="visible" style="overflow:visible"/></clipPath><g clip-path="url(#x)"><path d="m204.813 117.991 3.488 7.371c-1.645-.262-3.332-1.026-5.011-2.167-1.679-1.142-3.35-2.658-4.962-4.425-1.611-1.766-3.164-3.779-4.606-5.915a68.665 68.665 0 0 1-3.949-6.643l-4.243-8.138a71.306 71.306 0 0 0 4.107 6.908c1.501 2.221 3.116 4.315 4.793 6.151 1.678 1.838 3.417 3.416 5.165 4.603 1.749 1.188 3.506 1.983 5.218 2.255" style="fill:#856125"/></g></g><path d="M218.537 110.427c.064-.028.42-.183.92-.499a9.372 9.372 0 0 0 1.786-1.476 9.367 9.367 0 0 0 1.772-2.669c.491-1.113.833-2.462.881-4.081.048-1.617.068-5.35.069-10.077.001-4.719-.016-10.427-.042-16.011-.025-5.574-.06-11.025-.093-15.253-.033-4.222-.065-7.228-.086-7.922a107.495 107.495 0 0 0-2.652-.041c-.309-.002-.623-.002-.939-.002-2.207 0-4.594.04-6.987.101-2.392.061-4.79.144-7.015.23-2.225.086-4.278.175-5.982.249-1.704.074-3.059.132-3.888.157-.834 2.113-2.241 5.323-3.504 9.419-1.265 4.102-2.387 9.094-2.646 14.766-.26 5.684.347 12.051 2.545 18.891 2.203 6.855 6.005 14.188 12.138 21.78-2.238-.354-4.551-1.604-6.823-3.453-2.271-1.849-4.498-4.295-6.565-7.045-2.065-2.748-3.971-5.799-5.601-8.859-1.628-3.057-2.98-6.123-3.942-8.908a60.89 60.89 0 0 1-2.326-8.921 63.567 63.567 0 0 1-1.011-9.799c-.084-3.37.1-6.827.604-10.311a57.76 57.76 0 0 1 2.514-10.461c1.186-3.468 2.347-6.016 3.437-7.983a32.395 32.395 0 0 1 3.004-4.498c.898-1.145 1.677-2.048 2.29-3.046.613-.998 1.059-2.091 1.291-3.615.231-1.522.048-2.664-.362-3.52-.41-.856-1.046-1.426-1.72-1.806-.674-.38-1.387-.57-1.95-.665-.563-.095-.976-.095-1.051-.095 5.307-.344 11.039-.681 16.7-.996 5.661-.315 11.251-.609 16.274-.867 5.023-.258 9.478-.48 12.869-.652 3.391-.171 5.718-.292 6.485-.349l.1-.007.097-.005.094-.003.091-.001c.65 0 1.084.147 1.342.385.257.238.339.567.281.93-.058.363-.253.761-.546 1.136a4.29 4.29 0 0 1-1.142 1.003c-.474.288-.809.618-1.044 1.001-.235.383-.372.821-.449 1.323-.078.502-.098 1.068-.1 1.711-.001.643.014 1.361.007 2.167l-.105 11.483-.207 22.606-.211 23.085-.116 12.629a12.571 12.571 0 0 0 .406 3.382 9.142 9.142 0 0 0 1.164 2.656c.494.752 1.081 1.364 1.733 1.818.651.454 1.366.75 2.113.868-2.51 0-5.215.007-7.872.018s-5.266.024-7.583.039a4423.8 4423.8 0 0 0-5.83.039l-2.617.024zm5.451-68.973c.038-.777.093-1.699.143-2.665a93.9 93.9 0 0 0 .114-2.935c.019-.957.011-1.859-.044-2.608-.055-.75-.159-1.346-.332-1.691a5.537 5.537 0 0 0-.652-1.022 4.535 4.535 0 0 0-.95-.881 4.616 4.616 0 0 0-1.312-.618 6.118 6.118 0 0 0-1.738-.233c-.255 0-.522.013-.803.04-.28.027-.573.067-.88.123-.307.055-.627.126-.961.213-.334.087-.683.19-1.046.311-1.303.43-2.534.967-3.774 1.715-1.24.749-2.488 1.708-3.825 2.98-1.338 1.273-2.766 2.86-4.365 4.865-1.6 2.006-3.371 4.43-5.395 7.376a285.37 285.37 0 0 0 7.825.095 424.493 424.493 0 0 0 9.238-.101c1.338-.03 2.527-.065 3.491-.103a46.32 46.32 0 0 0 2.143-.119c.62-.059 1.116-.19 1.513-.402.397-.212.696-.505.922-.888.226-.383.379-.856.485-1.429.105-.573.165-1.244.203-2.023" style="fill:#deba27" transform="translate(-72.608 -.883)"/><g transform="translate(-72.608 -.883)"><defs><path id="y" d="m340.346 39.1 1.958-10.786c.104-.576.313-1.14.633-1.688a7.093 7.093 0 0 1 1.31-1.6 12.039 12.039 0 0 1 2.04-1.499 21.441 21.441 0 0 1 2.827-1.386l-2.223 11.017a20.49 20.49 0 0 0-2.716 1.334c-.777.463-1.428.945-1.961 1.442a6.823 6.823 0 0 0-1.259 1.54 4.979 4.979 0 0 0-.609 1.626z"/></defs><clipPath id="z"><use xlink:href="#y" width="100%" height="100%" overflow="visible" style="overflow:visible"/></clipPath><g clip-path="url(#z)"><path d="m349.114 22.142-2.223 11.017a20.49 20.49 0 0 0-2.716 1.334c-.777.463-1.428.945-1.961 1.442a6.823 6.823 0 0 0-1.259 1.54 4.929 4.929 0 0 0-.609 1.625l1.958-10.786c.104-.576.313-1.14.633-1.688a7.093 7.093 0 0 1 1.31-1.6 12.039 12.039 0 0 1 2.04-1.499 21.26 21.26 0 0 1 2.827-1.385" style="fill:#856125"/></g></g><g transform="translate(-72.608 -.883)"><defs><path id="A" d="M380.394 40.152c1.197-3.582 2.396-7.163 3.594-10.745a9.9 9.9 0 0 1 .691-1.613c.254-.465.533-.867.844-1.239.309-.372.648-.713 1.021-1.057.373-.344.78-.688 1.227-1.068l-3.74 10.931c-.429.365-.82.697-1.179 1.027-.358.331-.685.659-.982 1.017a7.526 7.526 0 0 0-.811 1.192 9.37 9.37 0 0 0-.665 1.555z"/></defs><clipPath id="B"><use xlink:href="#A" width="100%" height="100%" overflow="visible" style="overflow:visible"/></clipPath><g clip-path="url(#B)"><path d="m387.771 24.431-3.74 10.931c-.429.365-.82.697-1.179 1.027-.358.331-.685.659-.982 1.017a7.526 7.526 0 0 0-.811 1.192 9.344 9.344 0 0 0-.665 1.553l3.594-10.745a9.9 9.9 0 0 1 .691-1.613c.254-.465.533-.867.844-1.239.309-.372.648-.713 1.021-1.057.373-.344.781-.686 1.227-1.066" style="fill:#856125"/></g></g><g transform="translate(-72.608 -.883)"><defs><path id="C" d="m439.073 43.202 5.995-10.625c.172-.305.379-.579.627-.84s.537-.512.876-.771a23.85 23.85 0 0 1 1.171-.825c.443-.298.943-.625 1.507-1.002l-6.155 10.754c-.542.363-1.023.678-1.449.965-.428.287-.8.545-1.125.794a7.22 7.22 0 0 0-.844.742 4 4 0 0 0-.603.808z"/></defs><clipPath id="D"><use xlink:href="#C" width="100%" height="100%" overflow="visible" style="overflow:visible"/></clipPath><g clip-path="url(#D)"><path d="m449.249 29.138-6.155 10.754c-.542.363-1.023.678-1.449.965-.428.287-.8.545-1.125.794a7.22 7.22 0 0 0-.844.742 4.073 4.073 0 0 0-.603.809l5.995-10.625c.172-.305.379-.579.627-.84s.537-.512.876-.771a23.85 23.85 0 0 1 1.171-.825c.443-.299.943-.626 1.507-1.003" style="fill:#856125"/></g></g><g transform="translate(-72.608 -.883)"><defs><path id="E" d="m250.871 40.018 1.635 10.346c-.288-1.748-.631-3.038-1.019-3.991-.388-.953-.819-1.572-1.284-1.978-.465-.405-.963-.597-1.483-.698-.52-.101-1.062-.11-1.614-.15l-1.854-10.612c.575.041 1.14.051 1.681.156.542.104 1.06.304 1.544.725.483.421.934 1.063 1.336 2.055.402.991.759 2.331 1.058 4.147z"/></defs><clipPath id="F"><use xlink:href="#E" width="100%" height="100%" overflow="visible" style="overflow:visible"/></clipPath><g clip-path="url(#F)"><path d="m250.871 40.018 1.635 10.346c-.288-1.748-.631-3.038-1.019-3.991-.388-.953-.819-1.572-1.284-1.978-.465-.405-.963-.597-1.483-.698-.52-.101-1.062-.11-1.614-.15l-1.854-10.612c.575.041 1.14.051 1.681.156.542.104 1.06.304 1.544.725.483.421.934 1.063 1.336 2.055.402.991.759 2.331 1.058 4.147" style="fill:#856125"/></g></g><g transform="translate(-72.608 -.883)"><defs><path id="G" d="m368.472 44.573-2.992 10.174c.001-.111.01-.723.014-1.643s.004-2.148-.014-3.494a136.93 136.93 0 0 0-.109-4.195c-.06-1.388-.147-2.702-.273-3.752a7.392 7.392 0 0 0-.872-2.741 7.547 7.547 0 0 0-1.636-2.002 10.456 10.456 0 0 0-2.071-1.399 16.106 16.106 0 0 0-2.182-.931l2.69-10.96c.738.257 1.514.571 2.271.967a10.95 10.95 0 0 1 2.156 1.453 7.865 7.865 0 0 1 1.703 2.081c.455.813.776 1.755.908 2.848.133 1.091.225 2.457.288 3.898.063 1.443.099 2.961.116 4.359.018 1.398.02 2.675.016 3.63-.003.957-.012 1.592-.013 1.707z"/></defs><clipPath id="H"><use xlink:href="#G" width="100%" height="100%" overflow="visible" style="overflow:visible"/></clipPath><g clip-path="url(#H)"><path d="m368.472 44.573-2.992 10.174c.001-.101.008-.616.012-1.401.005-.785.006-1.839-.004-3.02-.01-1.18-.031-2.485-.074-3.772a76.507 76.507 0 0 0-.194-3.66l2.976-10.637c.095 1.149.16 2.467.205 3.803a200.488 200.488 0 0 1 .084 7.057c-.005.816-.012 1.351-.013 1.456" style="fill:#8a6625"/><path d="m368.195 32.257-2.976 10.637-.028-.324-.029-.313c-.009-.102-.021-.204-.031-.302l-.033-.291a7.392 7.392 0 0 0-.872-2.741 7.547 7.547 0 0 0-1.636-2.002 10.456 10.456 0 0 0-2.071-1.399 16.106 16.106 0 0 0-2.182-.931l2.69-10.96c.738.257 1.514.571 2.271.967a10.95 10.95 0 0 1 2.156 1.453 7.865 7.865 0 0 1 1.703 2.081c.455.813.776 1.755.908 2.848.013.098.023.199.035.301.012.103.022.208.033.314l.031.326.031.336" style="fill:#856125"/></g></g><g transform="translate(-72.608 -.883)"><defs><path id="I" d="m463.09 54.818 6.99-10.17a28.14 28.14 0 0 1 2.254-2.882 19.444 19.444 0 0 1 2.792-2.581c1.021-.763 2.136-1.406 3.342-1.857a11.055 11.055 0 0 1 5.294-.628 12.622 12.622 0 0 1 1.451.265c2.617.634 4.618 1.629 6.149 2.772a12.71 12.71 0 0 1 3.327 3.663 12.41 12.41 0 0 1 1.37 3.272c.228.883.272 1.486.281 1.596l-8.029 10.034c-.008-.105-.05-.687-.267-1.536a11.975 11.975 0 0 0-1.313-3.148 12.179 12.179 0 0 0-3.191-3.524c-1.469-1.1-3.391-2.058-5.904-2.668a12.674 12.674 0 0 0-1.393-.255 11.284 11.284 0 0 0-1.335-.083c-1.342 0-2.591.251-3.751.687-1.16.435-2.23 1.053-3.213 1.788a18.799 18.799 0 0 0-2.686 2.483 27.219 27.219 0 0 0-2.168 2.772z"/></defs><clipPath id="J"><use xlink:href="#I" width="100%" height="100%" overflow="visible" style="overflow:visible"/></clipPath><g clip-path="url(#J)"><path d="m496.341 48.267-8.029 10.034-.002-.025-.002-.036-.005-.046-.005-.057 8.027-10.041.006.059.004.048.004.037.002.027" style="fill:#8a6625"/><path d="m496.326 48.097-8.027 10.041c-.032-.309-.125-.99-.394-1.875-.27-.884-.715-1.97-1.45-3.089a12.292 12.292 0 0 0-3.193-3.285c-1.432-1.014-3.268-1.892-5.625-2.464a12.674 12.674 0 0 0-1.393-.255 11.284 11.284 0 0 0-1.335-.083c-1.342 0-2.591.251-3.751.687-1.16.435-2.23 1.053-3.213 1.788a18.799 18.799 0 0 0-2.686 2.483 27.098 27.098 0 0 0-2.168 2.774l6.99-10.171a28.14 28.14 0 0 1 2.254-2.882 19.444 19.444 0 0 1 2.792-2.581c1.021-.763 2.136-1.406 3.342-1.857a11.055 11.055 0 0 1 5.294-.628 12.622 12.622 0 0 1 1.451.265c2.454.595 4.367 1.507 5.857 2.561a12.804 12.804 0 0 1 3.329 3.414 12.493 12.493 0 0 1 1.514 3.21c.281.917.378 1.626.412 1.947" style="fill:#856125"/></g></g><g transform="translate(-72.608 -.883)"><defs><path id="K" d="m368.208 51.394-2.986 9.916a1588.455 1588.455 0 0 1-17.523.2c-2.285.014-4.168.021-5.515.025-1.347.003-2.16.003-2.308.003l1.945-9.907c.154 0 1 0 2.402-.003a1888.34 1888.34 0 0 0 14.008-.096c3.086-.033 6.457-.079 9.977-.138z"/></defs><clipPath id="L"><use xlink:href="#K" width="100%" height="100%" overflow="visible" style="overflow:visible"/></clipPath><g clip-path="url(#L)"><path d="m368.208 51.394-2.986 9.916a1588.455 1588.455 0 0 1-17.523.2c-2.285.014-4.168.021-5.515.025-1.347.003-2.16.003-2.308.003l1.945-9.907c.154 0 1 0 2.402-.003a1888.34 1888.34 0 0 0 14.008-.096c3.086-.033 6.457-.079 9.977-.138" style="fill:#856125"/></g></g><g transform="translate(-72.608 -.883)"><defs><path id="M" d="m438.517 52.897-5.757 9.859c.171-3.563.212-6.657.12-9.324-.092-2.665-.314-4.904-.67-6.76-.355-1.855-.843-3.329-1.464-4.463-.62-1.134-1.374-1.928-2.263-2.426l5.559-10.758c.925.517 1.711 1.342 2.357 2.521.647 1.178 1.156 2.709 1.527 4.637.373 1.929.607 4.256.705 7.025.099 2.77.06 5.985-.114 9.689z"/></defs><clipPath id="N"><use xlink:href="#M" width="100%" height="100%" overflow="visible" style="overflow:visible"/></clipPath><g clip-path="url(#N)"><path d="m438.517 52.897-5.757 9.859c.063-1.303.108-2.543.136-3.723.027-1.179.037-2.297.029-3.357a81.599 81.599 0 0 0-.075-3.005 56.13 56.13 0 0 0-.181-2.666l5.739-10.359c.082.866.146 1.789.19 2.77.046.981.073 2.021.082 3.123.01 1.101 0 2.263-.027 3.488a153.63 153.63 0 0 1-.136 3.87" style="fill:#8a6625"/><path d="m438.409 39.647-5.739 10.359a33.598 33.598 0 0 0-.566-3.861c-.241-1.131-.536-2.109-.885-2.947-.348-.837-.75-1.533-1.205-2.099a5.28 5.28 0 0 0-1.529-1.317l5.559-10.758c.587.328 1.117.78 1.592 1.368.476.588.895 1.311 1.258 2.181.363.87.672 1.887.924 3.062.251 1.175.449 2.509.591 4.012" style="fill:#856125"/></g></g><g transform="translate(-72.608 -.883)"><defs><path id="O" d="m320.265 32.411-1.093 10.632c-4.063 4.445-8.314 8.012-12.616 10.914-4.305 2.905-8.658 5.143-12.918 6.928-4.263 1.786-8.432 3.118-12.367 4.213-3.937 1.096-7.639 1.953-10.969 2.79l-.908-9.658c3.467-.87 7.32-1.761 11.42-2.899 4.096-1.138 8.436-2.523 12.873-4.379 4.436-1.855 8.967-4.18 13.448-7.199 4.478-3.017 8.903-6.724 13.13-11.342z"/></defs><clipPath id="P"><use xlink:href="#O" width="100%" height="100%" overflow="visible" style="overflow:visible"/></clipPath><g clip-path="url(#P)"><path d="m320.265 32.411-1.093 10.632c-4.063 4.445-8.314 8.012-12.616 10.914-4.305 2.905-8.658 5.143-12.918 6.928-4.263 1.786-8.432 3.118-12.367 4.213-3.937 1.096-7.639 1.953-10.969 2.79l-.908-9.658c3.467-.87 7.32-1.761 11.42-2.899 4.096-1.138 8.436-2.523 12.873-4.379 4.436-1.855 8.967-4.18 13.448-7.199 4.478-3.017 8.903-6.724 13.13-11.342" style="fill:#856125"/></g></g><g transform="translate(-72.608 -.883)"><defs><path id="Q" d="m488.732 57.648-7.741 9.68c-.207.26-.456.547-.751.865-.296.318-.64.666-1.036 1.045-.397.38-.849.791-1.36 1.235-.511.444-1.084.922-1.723 1.434l7.546-9.499a57.944 57.944 0 0 0 1.793-1.491 39.94 39.94 0 0 0 1.414-1.283c.412-.395.77-.756 1.077-1.087.306-.33.565-.63.781-.899z"/></defs><clipPath id="R"><use xlink:href="#Q" width="100%" height="100%" overflow="visible" style="overflow:visible"/></clipPath><g clip-path="url(#R)"><path d="m488.732 57.648-7.741 9.68c-.207.26-.456.547-.751.865-.296.318-.64.666-1.036 1.045-.397.38-.849.791-1.36 1.235-.511.444-1.084.922-1.723 1.434l7.546-9.499a57.944 57.944 0 0 0 1.793-1.491 39.94 39.94 0 0 0 1.414-1.283c.412-.395.77-.756 1.077-1.087.306-.33.565-.63.781-.899" style="fill:#856125"/></g></g><g transform="translate(-72.608 -.883)"><defs><path id="S" d="m457.299 69.095 6.771-9.61c.182-.258.406-.462.688-.623.281-.161.619-.28 1.028-.368.409-.088.889-.146 1.453-.187.563-.04 1.213-.063 1.96-.079l.351-.006.351-.005.349-.003.349-.001c1.291 0 2.563.042 3.792.162 1.229.119 2.416.313 3.535.618 1.12.305 2.174.719 3.139 1.276.965.557 1.84 1.259 2.603 2.137l-7.546 9.499a9.729 9.729 0 0 0-2.498-2.056c-.926-.536-1.938-.936-3.013-1.229-1.075-.293-2.215-.48-3.396-.595a38.061 38.061 0 0 0-3.643-.155l-.335.001-.335.003-.336.005-.337.006c-.718.016-1.342.037-1.884.075-.542.039-1.003.095-1.396.18a3.424 3.424 0 0 0-.988.354c-.27.157-.486.353-.662.601z"/></defs><clipPath id="T"><use xlink:href="#S" width="100%" height="100%" overflow="visible" style="overflow:visible"/></clipPath><g clip-path="url(#T)"><path d="m483.667 62.408-7.546 9.499a9.729 9.729 0 0 0-2.498-2.056c-.926-.536-1.938-.936-3.013-1.229-1.075-.293-2.215-.48-3.396-.595a38.061 38.061 0 0 0-3.643-.155l-.335.001-.335.003-.336.005-.337.006c-.718.016-1.342.037-1.884.075-.542.039-1.003.095-1.396.18a3.424 3.424 0 0 0-.988.354 2.03 2.03 0 0 0-.662.6l6.771-9.61c.182-.258.406-.461.688-.623.281-.161.619-.28 1.028-.368.409-.088.889-.146 1.453-.187.563-.04 1.213-.063 1.96-.079l.351-.006.351-.005.349-.003.349-.001c1.291 0 2.563.042 3.792.162 1.229.119 2.416.313 3.535.618 1.12.305 2.174.719 3.139 1.276.965.557 1.84 1.26 2.603 2.138" style="fill:#856125"/></g></g><g transform="translate(-72.608 -.883)"><defs><path id="U" d="M267.31 110.77c-.346-2.651-.691-5.304-1.038-7.955a10.191 10.191 0 0 1-.071-.858 17.12 17.12 0 0 1-.012-.466c-.003-.16-.004-.324-.003-.494l.011-8.671.025-19.43c.01-7.206.021-14.635.032-20.743.011-6.096.021-10.881.029-12.827.009-1.944.414-3.737 1.173-5.359.758-1.621 1.869-3.071 3.288-4.332 1.418-1.26 3.145-2.332 5.134-3.195 1.99-.863 4.243-1.519 6.717-1.948.401-.07.793-.13 1.175-.182.382-.052.755-.094 1.118-.128a22.586 22.586 0 0 1 2.073-.099c1.695 0 3.167.217 4.468.611 1.301.394 2.431.964 3.44 1.669 1.011.706 1.902 1.547 2.728 2.482.825.936 1.583 1.966 2.327 3.051l-.294 10.651c-.715-1.043-1.443-2.036-2.235-2.937-.793-.9-1.65-1.71-2.621-2.389a11.563 11.563 0 0 0-3.306-1.607c-1.249-.379-2.663-.588-4.292-.588a21.547 21.547 0 0 0-1.992.096c-.349.032-.707.073-1.074.123-.366.05-.742.108-1.129.175-2.375.413-4.541 1.044-6.451 1.875-1.912.831-3.57 1.862-4.934 3.075-1.362 1.214-2.43 2.609-3.157 4.169-.729 1.561-1.118 3.286-1.126 5.157-.008 1.873-.018 6.478-.026 12.343a54547.39 54547.39 0 0 0-.048 38.645l-.01 8.338a15.645 15.645 0 0 0 .041 1.347c.01.136.023.27.04.401z"/></defs><clipPath id="V"><use xlink:href="#U" width="100%" height="100%" overflow="visible" style="overflow:visible"/></clipPath><g clip-path="url(#V)"><path d="m299.923 31.896-.294 10.651c-.715-1.043-1.443-2.036-2.235-2.937-.793-.9-1.65-1.71-2.621-2.389a11.563 11.563 0 0 0-3.306-1.607c-1.249-.379-2.663-.588-4.292-.588a21.547 21.547 0 0 0-1.992.096c-.349.032-.707.073-1.074.123-.366.05-.742.108-1.129.175-2.375.413-4.541 1.044-6.451 1.875-1.912.831-3.57 1.862-4.934 3.075-1.362 1.214-2.43 2.609-3.157 4.169-.729 1.561-1.118 3.286-1.126 5.157-.008 1.873-.018 6.478-.026 12.343a54547.39 54547.39 0 0 0-.048 38.645l-.01 8.338a15.645 15.645 0 0 0 .041 1.347c.011.137.024.271.041.401l-1.038-7.955a10.191 10.191 0 0 1-.071-.858 17.12 17.12 0 0 1-.012-.466c-.003-.16-.004-.324-.003-.494l.011-8.671.025-19.43c.01-7.206.021-14.635.032-20.743.011-6.096.021-10.881.029-12.827.009-1.944.414-3.737 1.173-5.359.758-1.621 1.869-3.071 3.288-4.332 1.418-1.26 3.145-2.332 5.134-3.195 1.99-.863 4.243-1.519 6.717-1.948.401-.07.793-.13 1.175-.182.382-.052.755-.094 1.118-.128a22.586 22.586 0 0 1 2.073-.099c1.695 0 3.167.217 4.468.611 1.301.394 2.431.964 3.44 1.669 1.011.706 1.902 1.547 2.728 2.482.824.936 1.582 1.966 2.326 3.051" style="fill:#856125"/></g></g><g transform="translate(-72.608 -.883)"><defs><path id="W" d="m325.165 103.814-1.3 7.918c.029-.178.057-.36.081-.548a22.885 22.885 0 0 0 .12-1.182c.016-.207.028-.419.038-.637.104-2.235.308-7.123.538-13.3.232-6.164.491-13.608.707-20.98.216-7.354.389-14.64.448-20.522.06-5.872.007-10.354-.229-12.125-.237-1.77-.686-3.276-1.248-4.551a13.434 13.434 0 0 0-1.937-3.158 11.673 11.673 0 0 0-2.055-1.956c-.641-.473-1.206-.778-1.602-.945l1.072-11.068c.412.174 1.001.49 1.668.982a12.114 12.114 0 0 1 2.139 2.033 13.946 13.946 0 0 1 2.016 3.28c.586 1.324 1.053 2.89 1.301 4.729.246 1.84.302 6.497.241 12.599-.062 6.114-.239 13.685-.462 21.33a2833.38 2833.38 0 0 1-.73 21.813c-.24 6.423-.451 11.506-.559 13.83a21.892 21.892 0 0 1-.247 2.458z"/></defs><clipPath id="X"><use xlink:href="#W" width="100%" height="100%" overflow="visible" style="overflow:visible"/></clipPath><g clip-path="url(#X)"><path d="m325.165 103.814-1.3 7.918.041-.267c.014-.09.026-.182.039-.273l.035-.28.031-.288 1.307-7.961c-.011.101-.021.2-.033.299-.012.099-.023.195-.037.292-.012.096-.025.19-.039.284l-.044.276" style="fill:#8f6b25"/><path d="m325.318 102.663-1.307 7.961.029-.303c.009-.103.018-.206.025-.311a16.016 16.016 0 0 0 .038-.645c.1-2.15.292-6.758.513-12.605.221-5.838.469-12.907.684-20.005.213-7.081.392-14.191.473-20.142.081-5.939.065-10.729-.109-13.191l1.358-10.617c.183 2.56.2 7.536.117 13.708-.083 6.185-.268 13.574-.487 20.935-.222 7.379-.479 14.729-.707 20.798-.229 6.081-.428 10.872-.531 13.108-.005.114-.011.228-.018.34l-.021.331-.027.323-.03.315" style="fill:#8a6625"/><path d="m327.022 32.804-1.358 10.617-.021-.279-.023-.258-.023-.235-.026-.212c-.237-1.77-.686-3.276-1.248-4.551a13.434 13.434 0 0 0-1.937-3.158 11.673 11.673 0 0 0-2.055-1.956c-.641-.473-1.206-.778-1.602-.945l1.072-11.068c.412.174 1.001.49 1.668.982a12.114 12.114 0 0 1 2.139 2.033 13.946 13.946 0 0 1 2.016 3.28c.586 1.324 1.053 2.89 1.301 4.729.01.069.018.143.027.22l.025.244.023.268.022.289" style="fill:#856125"/></g></g><g transform="translate(-72.608 -.883)"><defs><path id="Y" d="m392.019 105.258-3.957 7.861c.171-.339.326-.704.467-1.098.141-.394.266-.815.375-1.268.109-.451.203-.934.281-1.448.078-.514.141-1.061.188-1.643.143-1.781.404-5.975.715-11.318a3644.939 3644.939 0 0 0 1.889-35.691c.229-4.897.367-8.458.351-9.458-.017-1-.065-1.826-.187-2.504-.122-.678-.315-1.208-.62-1.617-.305-.409-.722-.696-1.288-.889-.567-.192-1.285-.29-2.193-.319l3.91-10.521c.945.031 1.693.132 2.283.332.591.2 1.023.499 1.342.924.317.424.52.975.646 1.68s.178 1.563.196 2.603c.018 1.038-.125 4.739-.358 9.828-.234 5.097-.559 11.592-.906 18.198-.348 6.621-.716 13.356-1.035 18.903-.319 5.558-.589 9.918-.736 11.771a24.871 24.871 0 0 1-.194 1.708 17.909 17.909 0 0 1-.292 1.506c-.113.47-.244.908-.39 1.317a9.94 9.94 0 0 1-.487 1.143z"/></defs><clipPath id="Z"><use xlink:href="#Y" width="100%" height="100%" overflow="visible" style="overflow:visible"/></clipPath><g clip-path="url(#Z)"><path d="m392.019 105.258-3.957 7.861c.027-.053.053-.105.078-.159.025-.054.051-.107.076-.163.025-.055.05-.11.074-.167.023-.056.048-.112.071-.17l3.969-7.889c-.024.061-.05.119-.074.178-.025.059-.051.116-.077.174-.025.057-.052.113-.078.169-.027.057-.055.112-.082.166" style="fill:#997526"/><path d="m392.331 104.572-3.969 7.889a11.214 11.214 0 0 0 .409-1.197c.04-.143.078-.289.115-.438l3.99-7.953a15.726 15.726 0 0 1-.252.89 10.599 10.599 0 0 1-.293.809" style="fill:#947026"/><path d="m392.876 102.872-3.99 7.953c.053-.21.102-.428.146-.651a18.326 18.326 0 0 0 .23-1.429c.031-.252.059-.512.084-.779l4.006-8.068a25.973 25.973 0 0 1-.195 1.577 17.306 17.306 0 0 1-.281 1.397" style="fill:#8f6b25"/><path d="m393.353 99.896-4.006 8.068.006-.074.007-.075.007-.075.006-.076c.143-1.781.404-5.975.715-11.318a3644.939 3644.939 0 0 0 1.889-35.691c.229-4.897.367-8.458.351-9.458-.003-.149-.005-.295-.01-.437a25.398 25.398 0 0 0-.036-.806c-.008-.127-.017-.25-.027-.37l4.086-10.376a19.602 19.602 0 0 1 .05.791c.005.14.012.283.016.43l.011.454c.018 1.038-.125 4.739-.358 9.828-.234 5.097-.559 11.592-.906 18.198-.348 6.621-.716 13.356-1.035 18.903-.319 5.558-.589 9.918-.736 11.771l-.007.078-.007.078-.007.078a1.278 1.278 0 0 0-.009.079" style="fill:#8a6625"/><path d="m396.339 39.209-4.086 10.376c-.059-.682-.159-1.249-.324-1.717-.164-.468-.395-.838-.713-1.126-.318-.288-.727-.494-1.248-.634-.521-.141-1.157-.215-1.93-.24l3.91-10.521c.805.026 1.465.104 2.008.249.543.146.969.36 1.301.659.332.299.571.684.743 1.171.172.487.277 1.075.339 1.783" style="fill:#856125"/></g></g><g transform="translate(-72.608 -.883)"><defs><path id="aa" d="m365.63 105.272-2.908 7.861a10.392 10.392 0 0 0 .442-1.574c.058-.286.106-.583.146-.893.04-.31.069-.632.089-.966.119-2.036.29-5.971.479-10.754.189-4.775.396-10.394.59-15.813a9950.327 9950.327 0 0 0 .754-21.825l2.986-9.916c-.018.52-.111 3.378-.252 7.51-.139 4.137-.324 9.553-.523 15.176-.199 5.633-.412 11.475-.605 16.439-.193 4.974-.369 9.066-.492 11.184-.021.348-.052.683-.093 1.004-.041.322-.092.632-.151.928a11.486 11.486 0 0 1-.462 1.639z"/></defs><clipPath id="ab"><use xlink:href="#aa" width="100%" height="100%" overflow="visible" style="overflow:visible"/></clipPath><g clip-path="url(#ab)"><path d="m365.63 105.272-2.908 7.861a9.735 9.735 0 0 0 .25-.774c.025-.091.05-.182.073-.274l2.921-7.902c-.023.096-.049.19-.075.284-.026.094-.054.186-.081.276a14.179 14.179 0 0 1-.18.529" style="fill:#947026"/><path d="m365.966 104.183-2.921 7.902a12.131 12.131 0 0 0 .259-1.364c.021-.161.039-.326.055-.494l2.934-7.977c-.016.175-.035.346-.058.514a12.368 12.368 0 0 1-.269 1.419" style="fill:#8f6b25"/><path d="m366.292 102.251-2.934 7.977.013-.13.011-.131.01-.133.008-.134c.119-2.036.29-5.971.479-10.754.189-4.775.396-10.394.59-15.813a9950.327 9950.327 0 0 0 .754-21.825l2.986-9.916c-.018.52-.111 3.378-.252 7.51-.139 4.137-.324 9.553-.523 15.176-.199 5.633-.412 11.475-.605 16.439-.193 4.974-.369 9.066-.492 11.184l-.01.139a5.588 5.588 0 0 1-.01.138l-.011.137-.014.136" style="fill:#8a6625"/></g></g><g transform="translate(-72.608 -.883)"><defs><path id="ac" d="m272.425 109.487.795 7.698H249.175l-1.791-7.698h25.041z"/></defs><clipPath id="ad"><use xlink:href="#ac" width="100%" height="100%" overflow="visible" style="overflow:visible"/></clipPath><g clip-path="url(#ad)"><path d="m272.425 109.487.795 7.698H249.175l-1.791-7.698h25.041" style="fill:#856125"/></g></g><path d="M269.394 58.229c5.028-3.129 9.23-5.931 12.76-8.475 3.525-2.542 6.381-4.827 8.719-6.927 2.338-2.099 4.158-4.012 5.615-5.812a32.735 32.735 0 0 0 3.436-5.121c-.744-1.084-1.502-2.115-2.327-3.051-.825-.936-1.717-1.777-2.728-2.482a12.06 12.06 0 0 0-3.44-1.669c-1.3-.394-2.772-.611-4.468-.611a21.82 21.82 0 0 0-2.073.099 29.985 29.985 0 0 0-2.293.31c-2.474.429-4.727 1.085-6.717 1.948-1.989.863-3.716 1.935-5.134 3.195-1.419 1.261-2.53 2.711-3.288 4.332-.759 1.622-1.164 3.415-1.173 5.359-.009 1.946-.019 6.731-.029 12.827a53157.109 53157.109 0 0 0-.057 40.173l-.011 8.671c-.004.882.026 1.622.165 2.293.137.671.381 1.273.805 1.882.424.609 1.025 1.223 1.88 1.917s1.96 1.469 3.39 2.398h-25.04c.407-.042.91-.145 1.438-.374a4.616 4.616 0 0 0 1.578-1.131c.501-.546.952-1.285 1.281-2.28.328-.995.533-2.247.545-3.821.014-2.117.01-6.612-.021-12.271a2193.06 2193.06 0 0 0-.191-19.21c-.099-6.741-.236-13.436-.423-18.894-.187-5.449-.423-9.67-.72-11.488-.299-1.816-.655-3.156-1.059-4.147-.402-.991-.853-1.634-1.336-2.055-.484-.421-1.002-.621-1.544-.725-.541-.105-1.105-.115-1.681-.156 5.275-2.915 9.955-5.255 14.192-7.125 4.235-1.869 8.029-3.27 11.537-4.307 3.507-1.037 6.728-1.71 9.815-2.124 3.087-.414 6.042-.569 9.016-.569h.317l.317.002.316.002.318.004c3.088.042 5.879.32 8.472.861a31.911 31.911 0 0 1 7.286 2.443c2.298 1.096 4.499 2.483 6.702 4.188 2.205 1.706 4.413 3.73 6.724 6.1-4.228 4.619-8.652 8.325-13.13 11.341-4.481 3.019-9.013 5.344-13.448 7.199-4.438 1.856-8.777 3.241-12.873 4.379-4.1 1.142-7.953 2.033-11.42 2.902z" style="fill:#deba27" transform="translate(-72.608 -.883)"/><g transform="translate(-72.608 -.883)"><defs><path id="ae" d="m247.384 109.487 1.791 7.698a3.188 3.188 0 0 1-.131.012l-.123.008-.115.004-.105.001-1.811-7.697.109-.002.12-.004.128-.008.137-.012z"/></defs><clipPath id="af"><use xlink:href="#ae" width="100%" height="100%" overflow="visible" style="overflow:visible"/></clipPath><g clip-path="url(#af)"><path d="m247.384 109.487 1.791 7.698a3.188 3.188 0 0 1-.131.012l-.123.008-.115.004-.105.001-1.811-7.697.109-.002.12-.004.128-.008.137-.012" style="fill:#856125"/></g></g><path d="M246.89 109.512a4.951 4.951 0 0 1-.325-.013 1.392 1.392 0 0 1-.088-.009l-.035-.004h.941a3.468 3.468 0 0 1-.137.012l-.128.008-.12.004a3.963 3.963 0 0 1-.108.002z" style="fill:#e0bc27" transform="translate(-72.608 -.883)"/><g transform="translate(-72.608 -.883)"><defs><path id="ag" d="m246.89 109.512 1.811 7.697a3.216 3.216 0 0 1-.312-.012l-.085-.008-.032-.005-1.829-7.698.035.004.088.009.139.009c.053.002.116.004.185.004z"/></defs><clipPath id="ah"><use xlink:href="#ag" width="100%" height="100%" overflow="visible" style="overflow:visible"/></clipPath><g clip-path="url(#ah)"><path d="m246.89 109.512 1.811 7.697a3.216 3.216 0 0 1-.312-.012l-.085-.008-.032-.005-1.829-7.698.035.004.088.009.139.009c.053.002.116.004.185.004" style="fill:#856125"/></g></g><g transform="translate(-72.608 -.883)"><defs><path id="ai" d="m344.223 110.777-2.06 7.649h-23.63l1.081-7.649h24.609z"/></defs><clipPath id="aj"><use xlink:href="#ai" width="100%" height="100%" overflow="visible" style="overflow:visible"/></clipPath><g clip-path="url(#aj)"><path d="m344.223 110.777-2.06 7.649h-23.63l1.081-7.649h24.609" style="fill:#856125"/></g></g><g transform="translate(-72.608 -.883)"><defs><path id="ak" d="m403.253 111.251-4.407 7.631a144.893 144.893 0 0 1-5.499-.316 328.294 328.294 0 0 1-5.758-.48 492.82 492.82 0 0 1-4.639-.451c-1.205-.124-1.996-.21-2.139-.226l3.659-7.689c.149.016.972.105 2.229.233 1.256.129 2.946.297 4.83.47 1.885.173 3.964.352 5.997.501 2.035.149 4.024.27 5.727.327z"/></defs><clipPath id="al"><use xlink:href="#ak" width="100%" height="100%" overflow="visible" style="overflow:visible"/></clipPath><g clip-path="url(#al)"><path d="m403.253 111.251-4.407 7.631a144.893 144.893 0 0 1-5.499-.316 328.294 328.294 0 0 1-5.758-.48 492.82 492.82 0 0 1-4.639-.451c-1.205-.124-1.996-.21-2.139-.226l3.659-7.689c.149.016.972.105 2.229.233 1.256.129 2.946.297 4.83.47 1.885.173 3.964.352 5.997.501 2.035.149 4.024.27 5.727.327" style="fill:#856125"/></g></g><g transform="translate(-72.608 -.883)"><defs><path id="am" d="m383.892 111.019-3.637 7.64-8.943-.083-7.639-.073c-2.229-.021-4.09-.04-5.43-.054l-2.311-.022 2.631-7.649 2.405.024c1.396.014 3.333.032 5.653.056l7.957.076 9.314.085z"/></defs><clipPath id="an"><use xlink:href="#am" width="100%" height="100%" overflow="visible" style="overflow:visible"/></clipPath><g clip-path="url(#an)"><path d="m383.892 111.019-3.637 7.64-8.943-.083-7.639-.073c-2.229-.021-4.09-.04-5.43-.054l-2.311-.022 2.631-7.649 2.405.024c1.396.014 3.333.032 5.653.056l7.957.076 9.314.085" style="fill:#856125"/></g></g><path d="m319.8 20.758 29.313 1.383c-1.26.516-2.329 1.06-3.222 1.629-.892.569-1.607 1.164-2.162 1.78-.555.617-.946 1.255-1.191 1.912a4.992 4.992 0 0 0-.309 2.024c.035.689.053 1.937.062 3.43.008 1.494.005 3.235-.002 4.909a1150.433 1150.433 0 0 1-.05 6.747h26.232c.001-.116.01-.75.014-1.707.004-.956.002-2.232-.016-3.63a144.835 144.835 0 0 0-.116-4.359c-.063-1.441-.155-2.807-.288-3.898a7.643 7.643 0 0 0-.908-2.848 7.881 7.881 0 0 0-1.703-2.081 10.906 10.906 0 0 0-2.156-1.453 16.93 16.93 0 0 0-2.271-.967 612.455 612.455 0 0 1 18.852.43c2.358.091 4.258.18 5.605.248 1.347.068 2.143.115 2.287.124-.844.717-1.548 1.312-2.145 2.002-.598.69-1.086 1.477-1.498 2.576-.41 1.099-.743 2.511-1.027 4.454-.285 1.944-.521 4.421-.74 7.649-.216 3.231-.487 8.266-.773 14.091-.287 5.836-.59 12.47-.867 18.878a3266.37 3266.37 0 0 0-.714 17.545c-.186 4.938-.304 8.605-.313 9.959-.01 1.354.074 2.54.25 3.576.176 1.037.441 1.925.797 2.685.354.76.796 1.39 1.322 1.912a6.497 6.497 0 0 0 1.83 1.261l-9.313-.086-7.957-.076-5.653-.056c-1.396-.015-2.251-.022-2.405-.024a7.33 7.33 0 0 0 1.298-.236 8.731 8.731 0 0 0 2.539-1.129 8.037 8.037 0 0 0 2.563-2.716c.723-1.247 1.247-2.873 1.371-4.993.123-2.117.299-6.21.492-11.184.193-4.965.406-10.807.605-16.439.199-5.623.385-11.039.523-15.176.141-4.131.234-6.99.252-7.51a1655.49 1655.49 0 0 1-18.243.207c-2.381.015-4.34.022-5.742.026-1.402.003-2.248.003-2.402.003-.025.58-.17 3.773-.367 8.312-.199 4.544-.45 10.443-.691 16.417-.24 5.986-.47 12.051-.623 16.903-.152 4.859-.229 8.499-.16 9.618.067 1.118.201 2.111.406 2.987.203.876.479 1.636.827 2.284a5.682 5.682 0 0 0 1.271 1.622 5.366 5.366 0 0 0 1.738 1.002h-24.608a3.67 3.67 0 0 0 .959-.166 5.072 5.072 0 0 0 1.881-1.06c.682-.597 1.367-1.483 1.91-2.804.543-1.319.941-3.07 1.049-5.395.108-2.325.318-7.407.559-13.83.238-6.409.507-14.148.73-21.813.223-7.645.4-15.216.462-21.33.061-6.102.005-10.758-.241-12.599-.248-1.839-.715-3.405-1.301-4.729a13.926 13.926 0 0 0-2.016-3.28 12.114 12.114 0 0 0-2.139-2.033c-.666-.487-1.255-.804-1.667-.978z" style="fill:#deba27" transform="translate(-72.608 -.883)"/><g transform="translate(-72.608 -.883)"><defs><path id="ao" d="m431.41 109.887-5.525 7.683a50.993 50.993 0 0 1-1.648 2.169 42.328 42.328 0 0 1-1.604 1.884 32.557 32.557 0 0 1-1.516 1.577 22.19 22.19 0 0 1-1.388 1.246l5.277-7.407a23.31 23.31 0 0 0 1.444-1.297 34.313 34.313 0 0 0 1.577-1.64 44.716 44.716 0 0 0 1.668-1.96 53.127 53.127 0 0 0 1.715-2.255z"/></defs><clipPath id="ap"><use xlink:href="#ao" width="100%" height="100%" overflow="visible" style="overflow:visible"/></clipPath><g clip-path="url(#ap)"><path d="m431.41 109.887-5.525 7.683a50.993 50.993 0 0 1-1.648 2.169 42.328 42.328 0 0 1-1.604 1.884 32.557 32.557 0 0 1-1.516 1.577 22.19 22.19 0 0 1-1.388 1.246l5.277-7.407a23.31 23.31 0 0 0 1.444-1.297 34.313 34.313 0 0 0 1.577-1.64 44.716 44.716 0 0 0 1.668-1.96 53.127 53.127 0 0 0 1.715-2.255" style="fill:#856125"/></g></g><g transform="translate(-72.608 -.883)"><defs><path id="aq" d="m398.689 53.343 4.352-10.229c.094-.22.196-.406.309-.563a1.64 1.64 0 0 1 .367-.379c.134-.099.279-.169.438-.215.159-.046.331-.067.518-.067.227 0 .475.032.748.09.271.058.569.142.895.248.324.105.678.232 1.061.375.383.143.795.302 1.242.471 1.369.52 3.5 1.819 5.976 3.667 2.478 1.85 5.301 4.25 8.052 6.972 2.754 2.724 5.436 5.77 7.625 8.905 2.193 3.139 3.893 6.368 4.678 9.455a38.06 38.06 0 0 1 1.158 9.595c-.014 3.328-.429 6.801-1.25 10.473-.822 3.675-2.051 7.55-3.689 11.678-1.641 4.134-3.692 8.522-6.159 13.221l-5.277 7.407c2.372-4.517 4.347-8.736 5.926-12.711 1.577-3.969 2.761-7.695 3.553-11.229.792-3.53 1.194-6.871 1.211-10.071a36.67 36.67 0 0 0-1.104-9.229c-.752-2.97-2.381-6.076-4.484-9.096-2.101-3.017-4.674-5.946-7.316-8.566-2.641-2.619-5.352-4.929-7.73-6.709-2.377-1.779-4.423-3.029-5.737-3.529-.429-.164-.825-.316-1.193-.454-.367-.138-.706-.26-1.019-.361a8.63 8.63 0 0 0-.859-.239 3.46 3.46 0 0 0-.717-.086c-.18 0-.345.021-.498.065a1.318 1.318 0 0 0-.42.207 1.602 1.602 0 0 0-.354.365 2.481 2.481 0 0 0-.303.539z"/></defs><clipPath id="ar"><use xlink:href="#aq" width="100%" height="100%" overflow="visible" style="overflow:visible"/></clipPath><g clip-path="url(#ar)"><path d="m425.006 117.039-5.277 7.407c.57-1.086 1.118-2.154 1.642-3.207a146.91 146.91 0 0 0 1.504-3.106 119.877 119.877 0 0 0 2.595-5.933l5.504-7.898c-.401.997-.827 2.01-1.276 3.038a129.222 129.222 0 0 1-1.42 3.132 146.674 146.674 0 0 1-1.563 3.231 187.444 187.444 0 0 1-1.709 3.336" style="fill:#997526"/><path d="m430.973 104.301-5.504 7.898a98.01 98.01 0 0 0 1.075-2.791c.336-.916.65-1.819.942-2.711.292-.891.562-1.77.811-2.636.248-.867.475-1.722.679-2.566l5.639-8.325a65.768 65.768 0 0 1-.705 2.668 75.38 75.38 0 0 1-.841 2.741c-.304.927-.63 1.866-.979 2.819-.35.955-.721 1.922-1.117 2.903" style="fill:#947026"/><path d="m434.615 93.17-5.639 8.325a53.879 53.879 0 0 0 1.087-5.822c.08-.628.146-1.25.199-1.867l5.684-8.632a49.625 49.625 0 0 1-.496 3.92 56.24 56.24 0 0 1-.835 4.076" style="fill:#8f6b25"/><path d="m435.947 85.173-5.684 8.632a41.32 41.32 0 0 0 .156-3.604 39.3 39.3 0 0 0-.162-3.489l5.678-8.914a39.422 39.422 0 0 1 .171 3.628 43.008 43.008 0 0 1-.159 3.747" style="fill:#8a6625"/><path d="m435.935 77.797-5.678 8.914a37.617 37.617 0 0 0-.156-1.399 36.73 36.73 0 0 0-.787-4.107c-.752-2.97-2.381-6.076-4.484-9.096-2.101-3.017-4.674-5.946-7.316-8.566-2.641-2.619-5.352-4.929-7.73-6.709-2.377-1.779-4.423-3.029-5.737-3.529-.429-.164-.825-.316-1.193-.454-.367-.138-.706-.26-1.019-.361a8.63 8.63 0 0 0-.859-.239 3.46 3.46 0 0 0-.717-.086c-.18 0-.345.021-.498.065a1.318 1.318 0 0 0-.42.207 1.602 1.602 0 0 0-.354.365c-.107.15-.206.33-.297.542l4.352-10.229c.094-.22.196-.406.309-.563a1.64 1.64 0 0 1 .367-.379c.134-.099.279-.169.438-.215.159-.046.331-.067.518-.067.227 0 .475.032.748.09.271.058.569.142.895.248.324.105.678.232 1.061.375.383.143.795.302 1.242.471 1.369.52 3.5 1.819 5.976 3.667 2.478 1.85 5.301 4.25 8.052 6.972 2.754 2.724 5.436 5.77 7.625 8.905 2.193 3.139 3.893 6.368 4.678 9.455.118.468.229.938.328 1.409.102.473.193.946.275 1.424.082.477.155.956.22 1.438.059.481.114.965.161 1.452" style="fill:#856125"/></g></g><path d="M402.329 24.409c.277 0 .563.026.856.08.295.053.6.133.916.239.316.107.645.241.986.401.343.161.699.349 1.072.565 1.49.86 3.865 2.202 6.689 3.927 2.824 1.726 6.097 3.836 9.378 6.231 3.284 2.397 6.577 5.082 9.438 7.954 2.863 2.875 5.295 5.938 6.852 9.09.174-3.704.213-6.919.115-9.69-.098-2.769-.332-5.096-.705-7.025-.371-1.928-.88-3.459-1.527-4.637-.646-1.178-1.433-2.004-2.357-2.521l1.258-.015 1.229-.01 1.195-.006 1.156-.001a384.818 384.818 0 0 1 9.51.118c.509.014.805.024.858.026-1.244.833-2.179 1.422-2.882 1.988-.704.566-1.176 1.108-1.496 1.849-.32.741-.489 1.68-.584 3.039-.096 1.359-.117 3.14-.146 5.563a552.735 552.735 0 0 1-.176 9.289c-.1 3.666-.247 7.789-.467 12.041-.219 4.258-.51 8.647-.896 12.833-.386 4.193-.866 8.183-1.466 11.637-.6 3.459-1.59 6.781-2.818 9.886a58.86 58.86 0 0 1-4.248 8.577 55.986 55.986 0 0 1-4.748 6.763c-1.563 1.896-3.054 3.401-4.315 4.437 2.467-4.698 4.519-9.087 6.159-13.221 1.639-4.128 2.867-8.003 3.689-11.678.821-3.672 1.236-7.145 1.25-10.473a38.06 38.06 0 0 0-1.158-9.595c-.785-3.087-2.484-6.315-4.678-9.455-2.189-3.135-4.871-6.181-7.625-8.905-2.751-2.721-5.574-5.122-8.052-6.972-2.476-1.849-4.606-3.148-5.976-3.667-.447-.169-.859-.329-1.242-.471-.383-.143-.736-.27-1.061-.375a8.938 8.938 0 0 0-.895-.248 3.632 3.632 0 0 0-.748-.09c-.466 0-.839.134-1.145.449-.307.314-.545.809-.74 1.53-.195.721-.349 1.668-.484 2.887-.136 1.22-.254 2.713-.379 4.524-.189 2.693-.453 7.011-.742 12.026-.29 5.022-.607 10.746-.902 16.232a4228.68 4228.68 0 0 0-.776 14.825c-.205 4.076-.341 6.959-.356 7.696-.018.735.072 1.588.256 2.477.184.89.461 1.813.82 2.69.359.877.8 1.706 1.309 2.404.51.699 1.088 1.268 1.723 1.621a152.341 152.341 0 0 1-5.727-.328 333.02 333.02 0 0 1-5.997-.501 456.61 456.61 0 0 1-4.83-.47c-1.257-.128-2.079-.218-2.229-.233 1.31-.177 2.485-.436 3.52-.839 1.034-.404 1.929-.953 2.679-1.713.749-.759 1.353-1.728 1.807-2.971.453-1.243.756-2.759.904-4.612.147-1.853.417-6.213.736-11.771.319-5.547.688-12.282 1.035-18.903.348-6.606.672-13.101.906-18.198.233-5.089.376-8.79.358-9.828-.019-1.04-.07-1.898-.196-2.603-.127-.705-.329-1.255-.646-1.68-.318-.425-.751-.724-1.342-.924-.59-.2-1.338-.301-2.283-.332 1.209-1.79 2.254-3.368 3.195-4.729.939-1.36 1.775-2.503 2.563-3.423.789-.919 1.529-1.615 2.28-2.082.752-.462 1.514-.699 2.343-.699z" style="fill:#deba27" transform="translate(-72.608 -.883)"/><g transform="translate(-72.608 -.883)"><defs><path id="as" d="m492.069 119.762-7.95 7.302a38.371 38.371 0 0 1-5.581-1.272 40.76 40.76 0 0 1-8.131-3.532c-2.997-1.704-6.215-4.01-9.448-7.144-3.229-3.13-6.473-7.084-9.526-12.085-3.046-4.992-4.972-10.208-6.097-15.326-1.123-5.109-1.449-10.121-1.295-14.716a64.27 64.27 0 0 1 1.584-12.204c.796-3.439 1.754-6.15 2.563-7.818.807-1.665 1.406-3.121 1.8-4.398.394-1.276.58-2.374.563-3.322-.019-.948-.241-1.748-.668-2.427-.427-.679-1.058-1.24-1.891-1.71l6.356-10.707c.868.489 1.525 1.071 1.97 1.777.445.706.679 1.537.698 2.522.019.985-.174 2.126-.581 3.452-.408 1.327-1.031 2.84-1.869 4.57-.839 1.733-1.834 4.55-2.658 8.124a66.715 66.715 0 0 0-1.636 12.685c-.156 4.776.188 9.986 1.363 15.298 1.178 5.321 3.188 10.745 6.365 15.937 3.186 5.199 6.567 9.312 9.935 12.567 3.371 3.259 6.725 5.657 9.849 7.43a42.471 42.471 0 0 0 8.473 3.674 39.996 39.996 0 0 0 5.812 1.323z"/></defs><clipPath id="at"><use xlink:href="#as" width="100%" height="100%" overflow="visible" style="overflow:visible"/></clipPath><g clip-path="url(#at)"><path d="m492.069 119.762-7.95 7.302a38.371 38.371 0 0 1-5.581-1.272 40.76 40.76 0 0 1-8.131-3.532c-2.997-1.704-6.215-4.01-9.448-7.144-3.229-3.13-6.473-7.084-9.526-12.085a48.11 48.11 0 0 1-2.883-5.495 50.196 50.196 0 0 1-2.093-5.577 53.251 53.251 0 0 1-1.393-5.565 57.335 57.335 0 0 1-.787-5.464l6.249-9.143c.18 1.865.449 3.765.824 5.68a54.998 54.998 0 0 0 1.457 5.787 52.074 52.074 0 0 0 2.185 5.799A50.132 50.132 0 0 0 458 94.768c3.186 5.199 6.567 9.312 9.935 12.567 3.371 3.259 6.725 5.657 9.849 7.43a42.471 42.471 0 0 0 8.473 3.674 39.996 39.996 0 0 0 5.812 1.323" style="fill:#856125"/><path d="m450.526 71.787-6.249 9.143a62.24 62.24 0 0 1-.213-8.522c.038-.902.095-1.789.168-2.655l6.234-9.584a66.616 66.616 0 0 0-.158 8.585c.047.998.119 2.01.218 3.033" style="fill:#8a6625"/><path d="m450.465 60.168-6.234 9.584a63.943 63.943 0 0 1 .623-5.04 58.457 58.457 0 0 1 .891-4.431l6.286-9.956a64.466 64.466 0 0 0-1.287 7.153 67.034 67.034 0 0 0-.279 2.69" style="fill:#8f6b25"/><path d="m452.03 50.326-6.286 9.956a55.48 55.48 0 0 1 .447-1.734c.153-.553.309-1.081.466-1.581.157-.5.314-.972.472-1.416.158-.443.314-.857.469-1.24l6.354-10.191a34.25 34.25 0 0 0-.485 1.289c-.163.461-.327.952-.49 1.472-.162.52-.324 1.067-.482 1.643-.16.574-.315 1.175-.465 1.802" style="fill:#947026"/><path d="m453.952 44.12-6.354 10.191c.05-.126.101-.248.15-.367l.148-.346.146-.326c.049-.105.097-.207.145-.305.107-.223.213-.442.313-.658.102-.216.198-.428.291-.636a33.282 33.282 0 0 0 .516-1.207l6.421-10.341a50.15 50.15 0 0 1-.534 1.255c-.098.216-.198.437-.303.661a50.44 50.44 0 0 1-.325.685c-.05.102-.1.207-.149.316a16.24 16.24 0 0 0-.306.698c-.051.124-.107.25-.159.38" style="fill:#997526"/><path d="m455.727 40.124-6.421 10.341c.105-.262.205-.518.297-.768a22.386 22.386 0 0 0 .473-1.425c.065-.226.124-.446.176-.66l6.456-10.453a16.058 16.058 0 0 1-.407 1.408 25.21 25.21 0 0 1-.574 1.557" style="fill:#947026"/><path d="m456.708 37.159-6.456 10.453c.034-.145.066-.287.095-.426a10.316 10.316 0 0 0 .137-.807c.017-.129.03-.257.04-.382l6.466-10.517a9.555 9.555 0 0 1-.182 1.236c-.031.145-.064.293-.1.443" style="fill:#8f6b25"/><path d="m456.989 35.48-6.466 10.517a7.153 7.153 0 0 0 .021-.929 6.817 6.817 0 0 0-.021-.29l6.465-10.564a5.833 5.833 0 0 1 .029.612c.001.105-.002.212-.006.321-.006.11-.012.221-.022.333" style="fill:#8a6625"/><path d="m456.987 34.214-6.465 10.564a4.832 4.832 0 0 0-.248-1.146 4.09 4.09 0 0 0-.505-.982 4.558 4.558 0 0 0-.762-.835 6.226 6.226 0 0 0-1.017-.705l6.356-10.707c.397.224.751.467 1.06.732.309.265.573.554.793.868.22.314.396.653.527 1.021.132.367.219.763.261 1.19" style="fill:#856125"/></g></g><path d="M457.079 30.12c.668 0 1.454.03 2.395.093.941.063 2.036.161 3.325.294 1.288.134 2.769.305 4.479.516 1.712.211 3.652.463 5.861.759 3.027.405 5.865.76 8.48 1.064 2.614.304 5.006.557 7.141.759 2.135.202 4.013.354 5.601.455 1.589.101 2.887.151 3.86.151h.188l.181-.002.172-.003.162-.005c.559-.02 1.078-.077 1.557-.15.479-.073.916-.165 1.311-.253.395-.088.746-.174 1.053-.237.308-.064.569-.105.784-.105.114 0 .216.012.303.038a.537.537 0 0 1 .223.125.58.58 0 0 1 .141.23c.034.096.053.212.058.353.014.402-.175.898-.542 1.562-.368.664-.914 1.495-1.613 2.568a127.16 127.16 0 0 0-2.538 4.019 107.33 107.33 0 0 0-3.317 5.918c-.009-.11-.054-.713-.281-1.596a12.444 12.444 0 0 0-1.37-3.272 12.71 12.71 0 0 0-3.327-3.663c-1.531-1.143-3.532-2.139-6.149-2.772a12.817 12.817 0 0 0-1.451-.265 11.541 11.541 0 0 0-1.39-.085c-2.175 0-4.117.633-5.835 1.634s-3.212 2.37-4.488 3.84c-1.277 1.471-2.337 3.044-3.185 4.453-.849 1.409-1.486 2.653-1.918 3.464-.477.896-.746 1.568-.783 2.075-.037.506.158.846.608 1.078.45.232 1.156.355 2.142.429.986.074 2.252.097 3.82.127 1.568.028 3.414.137 5.3.292 1.886.156 3.813.358 5.543.575 1.731.217 3.268.449 4.372.663 1.104.214 1.777.41 1.781.555.005.145-.054.377-.225.706-.171.329-.453.756-.896 1.292-.441.536-1.042 1.18-1.851 1.944a49.438 49.438 0 0 1-3.093 2.667 10.117 10.117 0 0 0-2.603-2.137c-.965-.557-2.019-.972-3.139-1.276-1.119-.305-2.306-.5-3.535-.618a39.527 39.527 0 0 0-3.792-.162l-.349.001-.349.003-.351.005-.351.006c-1.419.031-2.483.083-3.287.239-.804.156-1.348.417-1.728.867-.379.45-.594 1.087-.74 1.998-.146.911-.225 2.093-.329 3.633-.113 7.511.684 14.156 2.182 20.033 1.501 5.888 3.705 11.001 6.399 15.439a52.276 52.276 0 0 0 9.352 11.395c3.469 3.19 7.214 5.799 11.021 7.929a39.928 39.928 0 0 1-5.813-1.324 42.413 42.413 0 0 1-8.473-3.674c-3.124-1.772-6.478-4.171-9.849-7.43-3.367-3.256-6.749-7.368-9.935-12.567-3.177-5.191-5.188-10.615-6.365-15.937-1.175-5.312-1.52-10.521-1.363-15.298a66.645 66.645 0 0 1 1.636-12.685c.824-3.574 1.819-6.391 2.658-8.124.838-1.73 1.461-3.243 1.869-4.57.407-1.326.601-2.467.581-3.452-.02-.985-.253-1.816-.698-2.522-.444-.706-1.102-1.288-1.97-1.777.167-.045.344-.086.535-.121a9.01 9.01 0 0 1 .619-.089 16.023 16.023 0 0 1 1.578-.075z" style="fill:#deba27" transform="translate(-72.608 -.883)"/></svg>