<svg xmlns="http://www.w3.org/2000/svg" xml:space="preserve" width="559.249" height="81.18"><path d="M559.249 75.466c0 3.154-2.15 5.714-4.802 5.714H4.801C2.15 81.18 0 78.62 0 75.466V5.716C0 2.56 2.15 0 4.801 0h549.646c2.652 0 4.802 2.56 4.802 5.715v69.75z"/><linearGradient id="a" x1="895.855" x2="1304.746" y1="-429.678" y2="-429.678" gradientTransform="matrix(.67196 0 0 -.67196 -442.04 -248.75)" gradientUnits="userSpaceOnUse"><stop offset="0" style="stop-color:#f50019;stop-opacity:1"/><stop offset=".276" style="stop-color:#f66d19;stop-opacity:1"/><stop offset=".479" style="stop-color:#fbfa35;stop-opacity:1"/><stop offset=".681" style="stop-color:#74b719;stop-opacity:1"/><stop offset=".791" style="stop-color:#17710a;stop-opacity:1"/><stop offset=".883" style="stop-color:#226887;stop-opacity:1"/><stop offset="1" style="stop-color:#3262d9;stop-opacity:1"/></linearGradient><path d="M159.942 18.077h22.145c14.6 0 19.754 10.797 19.754 21.84 0 13.434-7.117 21.962-22.392 21.962h-19.507V18.077zm13.495 32.575h5.277c8.404 0 9.63-6.81 9.63-10.92 0-2.76-.858-10.429-10.612-10.429h-4.295v21.349zm33.003-32.575h25.705c7.668 0 14.293 4.234 14.293 12.515 0 4.54-2.086 9.325-6.564 10.981 3.681 1.412 5.95 5.46 6.441 10.92.184 2.146.245 7.36 1.472 9.385H234.29c-.675-2.208-.92-4.477-1.105-6.747-.368-4.172-.737-8.527-6.074-8.527h-7.178V61.88h-13.496V18.077zm13.496 19.14h7.055c2.515 0 5.95-.43 5.95-4.355 0-2.76-1.533-4.355-6.687-4.355h-6.318v8.71zm46.56-19.14h13.19l15.95 43.801H281.65l-1.84-6.257h-13.927l-1.963 6.257h-13.558l16.135-43.8zm10.613 28.157-3.926-13.495h-.123l-4.233 13.495h8.282zM329.497 57.4c-3.007 3.864-7.668 5.52-12.452 5.52-12.946 0-20.92-10.06-20.92-22.513 0-16.685 11.718-23.372 21.594-23.372 11.165 0 18.22 6.073 20.183 16.38h-12.945c-.49-3.19-3.19-5.46-6.379-5.46-9.263 0-8.957 9.754-8.957 12.76 0 4.108 1.657 11.287 9.876 11.287 3.129 0 6.319-1.595 6.993-4.846h-5.95v-9.387h17.914v24.11h-8.527l-.43-4.479zm37.787-40.366c13.313 0 22.207 9.57 22.207 22.944 0 13.374-8.895 22.943-22.207 22.943-13.312 0-22.208-9.57-22.208-22.943 0-13.374 8.896-22.944 22.208-22.944zm0 34.967c3.435 0 8.711-2.27 8.711-12.025 0-9.754-5.276-12.024-8.711-12.024-3.435 0-8.711 2.27-8.711 12.024 0 9.755 5.277 12.025 8.711 12.025zm27.972-33.924h13.803l12.76 23.434h.123V18.077h12.76v43.801h-13.129L408.14 37.954h-.123v23.924h-12.76v-43.8z" style="fill:url(#a)"/><path d="M447.336 33.413c.063-5.03 2.086-8.71 5.337-11.164 3.252-2.393 7.669-3.558 12.454-3.558 12.39 0 16.502 7.361 16.502 10.98 0 8.957-5.644 8.957-5.644 9.142v.123c0 .49 6.994.49 6.994 10 0 5.214-3.927 13.435-17.914 13.435-19.2 0-19.262-13.496-18.956-16.687h11.657c-.062 2.27.49 3.989 1.657 5.092 1.165 1.41 2.945 1.901 5.091 1.901 3.497 0 5.705-1.288 5.705-4.784 0-3.742-2.884-4.417-5.705-4.417-1.778 0-2.638.183-3.558.306V35.44c.92.062 1.901.245 3.558.245 2.577 0 5.828-.552 5.828-3.865 0-2.7-3.066-3.742-5.583-3.742-3.313 0-6.011 1.779-5.89 5.337h-11.533zm38.218 3.743c-.676-11.718 6.625-18.465 18.098-18.465 10.367 0 17.422 4.355 17.422 13.434 0 10.92-10.674 14.355-18.711 19.263v.062h19.324v10.43h-36.991c-.246-4.111.981-7.67 3.066-10.553 3.558-4.97 9.693-8.22 15.153-11.533 2.208-1.35 5.766-3.067 5.766-6.196 0-3.866-2.27-5.215-5.153-5.215-4.908 0-6.564 3.558-6.441 8.773h-11.533z" style="fill:#fff"/><path d="M373.437 67.356h3.887c2.561 0 3.466 1.894 3.466 3.832 0 2.36-1.249 3.855-3.93 3.855h-3.424v-7.687zm2.37 5.717h.925c1.475 0 1.691-1.194 1.691-1.917 0-.485-.151-1.83-1.862-1.83h-.753v3.747zm8.141-5.717h2.314l2.8 7.687h-2.455l-.322-1.1h-2.444l-.345 1.1h-2.38l2.832-7.687zm1.862 4.942-.689-2.369h-.021l-.742 2.369h1.452zm4.848-2.972h-2.153v-1.97h6.675v1.97h-2.154v5.718h-2.367v-5.718zm6.731-1.97h2.315l2.799 7.687h-2.455l-.322-1.1h-2.444l-.345 1.1h-2.38l2.832-7.687zm1.862 4.942-.688-2.369h-.022l-.742 2.369h1.452zm13.41-4.942h2.368v5.717h3.402v1.971h-5.771v-7.688zm7.193 1.97H417.7v-1.97h6.676v1.97h-2.154v5.718h-2.367v-5.718zm5.396-1.97h3.887c2.561 0 3.467 1.894 3.467 3.832 0 2.36-1.249 3.855-3.93 3.855h-3.425v-7.687zm2.369 5.717h.925c1.475 0 1.69-1.194 1.69-1.917 0-.485-.15-1.83-1.861-1.83h-.753l-.001 3.747zm6.075-.16h2.24v2.13h-2.24v-2.13z" style="fill:#dedede"/><path d="M76.055 41.738h-6.643l15.812-27.385a17.183 17.183 0 0 1 14.864-8.61h32.674l-3.32 5.752h-29.354a11.416 11.416 0 0 0-9.88 5.727L76.056 41.738zm17.793-22.421a7.21 7.21 0 0 1 6.24-3.625h26.93l1.436-2.487H100.09a9.703 9.703 0 0 0-8.398 4.872l-13.66 23.661h2.871l12.946-22.421zm2.516 10.565h22.462l3.884-6.727 1.182-2.049 2.14-3.704h-25.943a5.497 5.497 0 0 0-4.757 2.764L82.877 41.738h6.642l6.845-11.856zm-51.039 0c-.004.047-.007.068-.005.068-.052.177-.294.688-1.14 2.108-1.79 3.004-3.62 6.757-3.621 11.82 0 9.449 7.688 17.138 17.138 17.138h65.256l-6.774 11.733h6.643l5.32-9.216c.5-.84.763-1.806.763-2.79a5.484 5.484 0 0 0-5.479-5.479H57.698c-6.28 0-11.387-5.108-11.387-11.386 0-3.453 1.124-6.045 2.811-8.874 1.569-2.634 1.964-3.543 1.963-5.395a5.484 5.484 0 0 0-5.477-5.477H26.333l3.32 5.752h15.672zm78.1 21.185H57.697c-3.964 0-7.189-3.226-7.189-7.19 0-2.19.602-4.013 2.218-6.725 1.738-2.915 2.556-4.61 2.556-7.544 0-5.334-4.34-9.675-9.675-9.675H19.1l-.936-1.62-6.287 2.842 9.728 3.118-1.07-1.853h25.072c3.964 0 7.188 3.225 7.188 7.188 0 2.232-.496 3.402-2.205 6.27-1.849 3.1-2.568 5.344-2.568 7.999 0 5.335 4.34 9.676 9.675 9.676h65.73c3.963 0 7.188 3.225 7.188 7.188a7.201 7.201 0 0 1-1.01 3.677l-4.809 8.33h2.872l4.084-7.074a9.676 9.676 0 0 0 1.35-4.933c0-5.334-4.34-9.674-9.677-9.674zM63.848 62.882h-6.642l-5.697 9.867h6.642l5.697-9.867zm-.85 9.866 5.697-9.867h-2.872l-5.697 9.867h2.872zm14.313-9.866H70.67l-5.697 9.867h6.642l5.697-9.867zm46.114-19.278H57.98c.035-.42.216-1.053 1.157-2.632 2.045-3.43 3.608-6.446 3.608-11.364 0-9.45-7.687-17.138-17.138-17.138h-.45l-3.79 3.79-3.79-3.79H19.599l3.322 5.752h22.684c6.28 0 11.386 5.109 11.386 11.386 0 3.475-1.056 5.498-2.797 8.42-1.46 2.448-1.977 3.978-1.977 5.85a5.485 5.485 0 0 0 5.479 5.478h65.729c6.279 0 11.386 5.107 11.386 11.385 0 2.04-.546 4.041-1.58 5.79l-3.59 6.216h6.642l1.916-3.318a17.137 17.137 0 0 0 2.364-8.688c0-9.449-7.687-17.137-17.138-17.137zM47.048 11.74l-5.682-5.682-5.682 5.682h2.639l3.043-3.043 3.044 3.043h2.638z" style="fill:#f50019"/></svg>