<svg xmlns="http://www.w3.org/2000/svg" viewBox="0 0 1875.1 378.093"><radialGradient id="a" cx="-.604" cy="-94.244" r="226.5" gradientTransform="matrix(.6042 0 0 -.6042 181.243 138.395)" gradientUnits="userSpaceOnUse"><stop offset="0" stop-color="#d8edca"/><stop offset="1" stop-color="#9ebf88"/></radialGradient><radialGradient id="b" cx="4.123" cy="-57.742" r="270.065" gradientTransform="matrix(.6042 0 0 -.6042 181.243 138.395)" gradientUnits="userSpaceOnUse"><stop offset="0" stop-color="#688c51"/><stop offset=".475" stop-color="#587b42"/><stop offset="1" stop-color="#42632d"/></radialGradient><text transform="translate(164.391 348.29)"><tspan x="0" y="0" fill="#f22222" font-family="MyriadPro-Regular" font-size="6">I h</tspan><tspan x="6.036" y="0" fill="#f22222" font-family="MyriadPro-Regular" font-size="6">a</tspan><tspan x="8.904" y="0" fill="#f22222" font-family="MyriadPro-Regular" font-size="6">t</tspan><tspan x="10.854" y="0" fill="#f22222" font-family="MyriadPro-Regular" font-size="6">e bugs!</tspan></text><path fill="#fff" stroke="#2e3d25" stroke-width="30" d="M348.142 215.917c-3.595-13.389-9.647-25.068-18.143-35.047-2.552-50.357-29.526-94.266-69.307-120.138.005-.219.018-.434.018-.654 0-6.056-2.417-11.632-7.251-16.721C235.086 24.456 212.729 15 186.388 15c-26.105 0-48.038 8.894-65.801 26.681a96.934 96.934 0 0 0-7.919 8.958c-51.774 24.399-87.612 77.05-87.612 138.08 0 3.276.115 6.524.318 9.748-2.986 2.897-5.179 6.697-6.571 11.406-7.183 25.362-4.193 49.451 8.977 72.263 13.053 22.607 31.721 37.153 56.006 43.644 11.086 2.964 21.999 3.883 32.741 2.77 18.709 8.186 39.371 12.738 61.099 12.738 27.915 0 54.075-7.503 76.584-20.593 1.983 2.996 4.624 5.458 7.939 7.372 5.246 3.028 11.282 3.722 18.106 2.08 25.555-6.46 44.923-21.094 58.093-43.906 13.052-22.606 16.316-46.046 9.794-70.324z"/><circle cx="178.159" cy="188.996" r="152.57" fill="#559338" stroke="#88ba68" stroke-width="5"/><circle cx="180.878" cy="195.341" r="136.86" fill="url(#a)" stroke="#b0d19b" stroke-width="5"/><path fill="url(#b)" stroke="#5b7749" stroke-width="5" d="M348.676 216.194c-6.52-24.282-21.104-42.954-43.739-56.023-22.637-13.069-46.148-16.39-70.543-9.957a98.69 98.69 0 0 0-7.998 2.477c-2.228-.567-4.629-.856-7.21-.856h-32.265c-12.085 0-22.357-4.3-30.816-12.906-8.459-8.601-12.689-18.963-12.689-31.085 0-12.113 4.225-22.414 12.679-30.897 8.45-8.483 18.718-12.727 30.797-12.727 3.135 0 6.274.331 9.418.987l-26.02 25.831c-5.349 5.277-8.02 10.91-8.02 16.9 0 6.712 2.474 12.585 7.43 17.617 4.957 5.032 10.815 7.548 17.585 7.548 6.042 0 11.721-2.436 17.041-7.313l46.404-45.441c7.006-5.329 10.513-11.995 10.513-19.997 0-6.056-2.417-11.632-7.251-16.721-18.372-18.901-40.729-28.357-67.071-28.357-26.106 0-48.037 8.894-65.801 26.681-17.768 17.788-26.648 39.752-26.648 65.89s8.879 48.16 26.648 66.07a98.197 98.197 0 0 0 6.598 6.076c.623 2.056 1.527 4.122 2.725 6.197l16.133 27.943c6.042 10.465 7.454 21.512 4.231 33.14-3.219 11.627-10.078 20.471-20.576 26.532-10.49 6.056-21.524 7.547-33.097 4.467-11.571-3.077-20.38-9.846-26.42-20.308a45.935 45.935 0 0 1-3.854-8.649l35.381 9.62c7.245 1.992 13.458 1.491 18.646-1.505 5.813-3.357 9.662-8.435 11.542-15.243 1.88-6.81 1.129-13.141-2.255-19.003-3.021-5.233-7.97-8.934-14.853-11.103l-62.555-17.466c-8.119-3.402-15.644-3.106-22.574.894-5.245 3.028-8.865 7.909-10.855 14.64-7.183 25.362-4.193 49.451 8.977 72.263 13.053 22.607 31.721 37.153 56.007 43.644 24.289 6.494 47.751 3.202 70.387-9.867 22.635-13.069 37.268-31.77 43.894-56.113a98.448 98.448 0 0 0 1.909-8.467c1.458-1.561 2.785-3.367 3.975-5.428l16.133-27.942c6.042-10.465 14.903-17.211 26.585-20.234 11.679-3.025 22.767-1.508 33.265 4.554 10.49 6.056 17.299 14.865 20.418 26.429 3.122 11.558 1.663 22.573-4.377 33.034a46.042 46.042 0 0 1-5.563 7.663l-9.361-35.449c-1.896-7.271-5.437-12.4-10.625-15.395-5.813-3.357-12.136-4.151-18.972-2.375-6.836 1.777-11.945 5.592-15.329 11.455-3.021 5.233-3.752 11.368-2.188 18.414l16.151 62.908c1.113 8.731 5.131 15.101 12.061 19.102 5.246 3.028 11.282 3.722 18.106 2.08 25.555-6.46 44.923-21.094 58.093-43.906 13.051-22.605 16.314-46.045 9.793-70.323z"/><path fill-opacity=".941" d="M623.456 148.633v20.01H435.352c1.779 28.166 10.262 49.621 25.458 64.369 15.191 14.751 36.354 22.122 63.479 22.122 15.71 0 30.942-1.926 45.692-5.781 14.748-3.853 29.385-9.634 43.914-17.344v38.69c-14.674 6.224-29.72 10.97-45.138 14.229a226.145 226.145 0 0 1-46.914 4.893c-39.728 0-71.189-11.56-94.387-34.685-23.201-23.125-34.797-54.4-34.797-93.83 0-40.761 11.005-73.113 33.018-97.054 22.013-23.937 51.695-35.909 89.049-35.909 33.497 0 59.995 10.784 79.489 32.351 19.492 21.569 29.241 50.885 29.241 87.939zm-40.912-12.008c-.298-22.38-6.557-40.242-18.789-53.586-12.229-13.341-28.425-20.01-48.583-20.01-22.827 0-41.099 6.448-54.807 19.346-13.712 12.896-21.606 31.054-23.68 54.474z" style="fill:#363635;fill-opacity:1"/><path fill-opacity=".941" d="M810.245 141.294v142.08h-40.911v-37.799c-9.338 15.122-20.977 26.275-34.909 33.463-13.936 7.191-30.982 10.784-51.14 10.784-25.496 0-45.769-7.15-60.812-21.456-15.046-14.305-22.568-33.466-22.568-57.479 0-28.015 9.374-49.138 28.127-63.367 18.751-14.232 46.728-21.346 83.935-21.346h57.364v-4.003c0-18.822-6.191-33.385-18.565-43.692-12.379-10.3-29.761-15.453-52.138-15.453-14.232 0-28.092 1.707-41.578 5.115-13.491 3.412-26.458 8.524-38.911 15.341V45.688c14.97-5.781 29.497-10.117 43.58-13.008 14.082-2.891 27.794-4.336 41.133-4.336 36.021 0 62.924 9.341 80.711 28.018 17.786 18.675 26.682 46.99 26.682 84.932zm-81.602 16.901c-33.056 0-55.957 3.779-68.705 11.339-12.751 7.562-19.122 20.458-19.122 38.69 0 14.529 4.781 26.051 14.341 34.575 9.562 8.524 22.57 12.784 39.023 12.784 22.68 0 40.873-8.038 54.586-24.125 13.71-16.082 20.568-37.464 20.568-64.146v-9.115h-40.69v-.002z" style="fill:#363635;fill-opacity:1"/><path fill-opacity=".941" d="M984.964 41.685v38.687C973.402 74.446 961.396 70 948.943 67.031c-12.451-2.964-25.349-4.448-38.687-4.448-20.31 0-35.542 3.114-45.692 9.338-10.155 6.226-15.229 15.565-15.229 28.018 0 9.486 3.629 16.934 10.896 22.346 7.26 5.412 21.863 10.562 43.802 15.451l14.008 3.114c29.051 6.226 49.695 15.01 61.924 26.346 12.229 11.341 18.344 27.165 18.344 47.473 0 23.122-9.155 41.43-27.461 54.917-18.308 13.491-43.469 20.234-75.487 20.234-13.341 0-27.237-1.3-41.69-3.891-14.453-2.593-29.682-6.484-45.692-11.674V232.01c15.12 7.86 30.016 13.751 44.692 17.677 14.674 3.929 29.201 5.893 43.581 5.893 19.267 0 34.092-3.298 44.469-9.893 10.374-6.596 15.565-15.898 15.565-27.906 0-11.117-3.745-19.639-11.229-25.568-7.486-5.926-23.903-11.636-49.25-17.12l-14.232-3.333c-25.349-5.336-43.657-13.527-54.919-24.57-11.267-11.041-16.898-26.199-16.898-45.469 0-23.42 8.3-41.504 24.901-54.252 16.601-12.748 40.168-19.122 70.705-19.122 15.12 0 29.349 1.112 42.69 3.336 13.34 2.221 25.643 5.554 36.91 10.002z" style="fill:#363635;fill-opacity:1"/><path fill-opacity=".941" d="M1099.671 306.499c-11.56 29.644-22.83 48.988-33.797 58.031-10.969 9.041-25.646 13.563-44.023 13.563h-32.685v-34.242h24.013c11.262 0 20.01-2.667 26.237-8.003 6.226-5.336 13.12-17.936 20.679-37.799l7.338-18.677L966.711 34.347h43.357l77.822 194.775 77.822-194.775h43.354z" style="fill:#363635;fill-opacity:1"/><path fill="#838382" d="M702.852 28.344c-13.341 0-27.054 1.445-41.133 4.336-14.084 2.891-28.611 7.227-43.58 13.008v37.799c12.451-6.817 25.42-11.931 38.911-15.341 13.486-3.41 27.349-5.115 41.578-5.115 22.38 0 39.761 5.153 52.138 15.453 12.374 10.305 18.565 24.868 18.565 43.692v4.003h-57.364c-37.206 0-65.184 7.115-83.935 21.346a71.05 71.05 0 0 0-4.576 3.819v-2.707c0-37.056-9.748-66.37-29.237-87.939-19.494-21.568-45.99-32.351-79.489-32.351-37.354 0-67.036 11.972-89.049 35.909-22.013 23.941-33.018 56.293-33.018 97.054 0 15.443 1.805 29.616 5.362 42.559 11.391-2 25.511-4.414 41.952-7.119-2.429-8.481-3.976-17.839-4.624-28.101h174.3a68.286 68.286 0 0 0-1.888 3.674 4317.788 4317.788 0 0 1 63.057-7.546c13.393-4.381 32.656-6.579 57.824-6.579h5.334c25.015-2.4 50.528-4.588 76.268-6.486v-10.415c0-37.944-8.893-66.258-26.682-84.935-17.792-18.677-44.694-28.018-80.714-28.018zM436.686 136.849c2.074-23.42 9.967-41.578 23.68-54.474 13.708-12.898 31.98-19.346 54.807-19.346 20.158 0 36.354 6.672 48.583 20.01 12.229 13.343 18.489 31.204 18.789 53.586zm772.052-101.695.326-.807h-43.357l-45.983 115.091c12.784 1.121 25.303 2.441 37.509 3.981 1.252.157 2.521.312 3.781.469l47.333-117.762v-.974h.391zm-242.03-.807.624 1.514c-6.165-1.674-12.591-3.069-19.277-4.181-13.341-2.226-27.57-3.336-42.69-3.336-30.537 0-54.107 6.376-70.705 19.122-16.603 12.748-24.901 30.832-24.901 54.252 0 19.27 5.631 34.428 16.898 45.469a57.064 57.064 0 0 0 3.491 3.119c35.063-2.357 70.415-4.126 105.393-5.091a262.197 262.197 0 0 0-17.501-4.365l-14.008-3.114c-21.939-4.891-36.542-10.039-43.802-15.451-7.265-5.41-10.896-12.858-10.896-22.346 0-12.451 5.074-21.789 15.229-28.018 10.15-6.224 25.382-9.338 45.692-9.338 13.341 0 26.237 1.483 38.687 4.448 12.451 2.967 24.458 7.412 36.021 13.341v-1.617l27.023 65.736c14.334.15 28.508.471 42.48.981l-44.399-111.129h-43.359z"/><path fill="#4d603d" fill-opacity=".941" d="M1272.352 189.439v93.935h-64.005V35.154h97.759c32.692 0 56.662 5.488 71.905 16.46 15.234 10.972 22.858 28.323 22.858 52.036 0 16.408-3.962 29.873-11.886 40.402-7.924 10.531-19.867 18.289-35.828 23.275 8.753 1.995 16.598 6.512 23.527 13.548 6.924 7.041 13.934 17.708 21.03 32.004l34.749 70.491h-68.167l-30.259-61.674c-6.098-12.412-12.277-20.891-18.536-25.439-6.265-4.543-14.608-6.817-25.025-6.817h-18.122zm26.935-44.221c13.408 0 23.025-2.495 28.846-7.484 5.817-4.988 8.724-13.189 8.724-24.606 0-11.305-2.907-19.396-8.724-24.272-5.822-4.876-15.439-7.315-28.846-7.315h-26.937v63.677zM1436.483 35.154h106.236c31.587 0 55.833 7.012 72.739 21.032 16.901 14.024 25.349 33.999 25.349 59.936 0 26.046-8.45 46.083-25.349 60.1-16.906 14.024-41.152 21.032-72.739 21.032h-42.23v86.12h-64.005V35.154zm64.003 46.388v69.327h35.413c12.412 0 22.001-3.019 28.763-9.06 6.757-6.041 10.143-14.603 10.143-25.687 0-11.081-3.386-19.618-10.143-25.603-6.762-5.986-16.351-8.979-28.763-8.979h-35.413z"/><path fill="#4d603d" fill-opacity=".941" d="M1875.097 264.921c-15.96 7.76-32.535 13.577-49.714 17.456s-34.911 5.819-53.202 5.819c-41.342 0-74.091-11.558-98.257-34.666-24.163-23.111-36.242-54.448-36.242-94.018 0-40.009 12.301-71.486 36.906-94.433 24.606-22.941 58.298-34.413 101.083-34.413 16.515 0 32.339 1.552 47.469 4.655 15.129 3.105 29.396 7.705 42.809 13.798v51.374c-13.853-7.869-27.625-13.741-41.311-17.622-13.691-3.879-27.411-5.819-41.152-5.819-25.494 0-45.138 7.124-58.936 21.365-13.798 14.243-20.698 34.611-20.698 61.098 0 26.27 6.65 46.552 19.951 60.853 13.301 14.296 32.194 21.446 56.695 21.446 6.65 0 12.827-.417 18.536-1.245 5.705-.833 10.831-2.133 15.379-3.91v-48.212h-39.068V145.55h99.754v119.372h-.002z" style="fill:#4d603d;fill-opacity:1"/><path fill="#5f7057" d="M1378.012 51.614c-15.244-10.972-39.214-16.46-71.905-16.46h-97.369l-.391.974V159.1c47.381 4.614 98.568 7.96 151.176 10.186a44.801 44.801 0 0 0-6.369-1.96c15.96-4.988 27.904-12.746 35.828-23.275s11.886-23.994 11.886-40.402c0-23.712-7.622-41.06-22.856-52.035zm-49.876 86.121c-5.822 4.988-15.439 7.484-28.846 7.484h-26.937V81.542h26.937c13.408 0 23.025 2.438 28.846 7.315 5.817 4.879 8.724 12.967 8.724 24.272 0 11.417-2.907 19.62-8.724 24.606zm287.322-81.549c-16.905-14.02-41.152-21.032-72.739-21.032h-106.235V171.75c62.124 1.374 124.605 1.34 183.703.133 13.732-13.708 20.62-32.282 20.62-55.762-.001-25.934-8.451-45.911-25.349-59.935zm-50.795 85.623c-6.762 6.041-16.351 9.06-28.763 9.06h-35.413V81.542h35.413c12.412 0 22.001 2.993 28.763 8.979 6.757 5.986 10.143 14.522 10.143 25.603s-3.386 19.644-10.143 25.685zm210.683 3.74v19.991c37.902-2.457 71.72-5.469 99.754-8.929v-11.062zm8.143-68.498c13.741 0 27.461 1.941 41.152 5.819 13.686 3.881 27.456 9.755 41.311 17.622V49.119c-13.412-6.093-27.68-10.693-42.809-13.798-15.129-3.103-30.954-4.655-47.469-4.655-42.785 0-76.477 11.472-101.083 34.413-24.606 22.946-36.906 54.424-36.906 94.433 0 4.083.16 8.057.419 11.965 22.67-.56 44.766-1.295 66.079-2.186a141.487 141.487 0 0 1-.331-9.779c0-26.487 6.9-46.854 20.699-61.098 13.8-14.239 33.444-21.363 58.938-21.363z"/></svg>