<svg xmlns="http://www.w3.org/2000/svg" width="648" height="987" fill="none"><g fill="#666" clip-path="url(#a)"><path fill-rule="evenodd" d="M58.771 986.977h529.625c42.928 0 58.771-15.842 58.771-58.79V409.952c0-4.86-.196-9.375-.625-13.557-.978-9.375-1.162-18.459-9.88-28.802-.852-1.013-9.754-7.637-9.754-7.637-4.788-2.348-8.057-4.077-13.457-6.251L352.656 244.441c-13.538-6.206-19.2-8.625-29.033-8.43v-.002h-.077v.002c-9.834-.195-15.495 2.224-29.035 8.43L33.718 353.705c-5.402 2.174-8.67 3.903-13.459 6.251 0 0-8.901 6.624-9.752 7.637-8.719 10.343-8.903 19.427-9.88 28.802-.43 4.182-.627 8.697-.627 13.557v518.235c0 42.948 15.844 58.79 58.771 58.79Z" clip-rule="evenodd"/><path d="m94.245 465.961.12-1.196.119-1.314.24-1.196.357-1.194.232-1.076.36-1.196.477-1.076.48-.958.47-1.074.597-.956.597-.958.711-.956.599-.956.709-.836.837-.837.711-.717.955-.838.83-.717.956-.717.95-.59.949-.717 1.076-.597 1.069-.479 1.068-.597 1.196-.479 1.188-.479 1.188-.357 1.188-.36 1.076-.357 1.188-.24 1.07-.239 1.068-.239 1.196-.24 1.189-.118 1.068-.12 1.196-.12 1.307-.12 1.189-.119h4.999l1.189.119h1.307l1.189.12 1.195.12 1.308.12 1.188.238 1.188.12 1.196.239 1.189.239 1.188.24 1.188.238 1.195.358 1.069.24 1.188.358 1.189.359 1.075.479 1.188.358 1.069.358 1.19.478 1.074.479 1.07.479 1.069.589 1.075.479 1.069.598.949.596 1.076.599.95.597.956.598.949.717.949.717.956.718.951.717.836.717.949.836-.717.956-.829.838-.718.957-.83.956-.718.836-.709.956-.837.957-.71.836-.837.956-.711.838-.836.956-.71.957-.718.836-.829.956-.717.957-.83.836-.717.956-.949-.717-1.07-.717-.956-.718-1.069-.717-.956-.597-1.069-.716-.948-.599-1.078-.477-.948-.599-1.069-.479-1.076-.477-1.068-.479-1.071-.358-1.074-.478-1.188-.358-1.19-.359-1.068-.359-1.196-.24-1.188-.238-1.188-.239-1.308-.12-1.194-.239h-1.19l-1.306-.118H126.38l-1.308.118-1.196.239-1.068.24-1.07.239-.956.358-.83.478-.956.717-.71.837-.478.958-.36 1.074-.118 1.196v.239l.118 1.435.478 1.196.599.836.829.717.958.717.949.478 1.068.478 1.196.479 1.427.596.83.24.948.239 1.076.36 1.07.238 1.188.359 1.196.239 1.306.358 1.19.239 1.308.359 1.188.238 1.196.359 1.186.24 1.19.359 1.076.357 1.186.24 1.071.359 1.068.358 1.076.359 1.308.479 1.188.478 1.189.478 1.195.478 1.068.598 1.189.597.956.597 1.07.598.949.717.956.597.829.719.836.836.831.837.717.838.71.836.598.836.591.957.597 1.075.479.829.359.957.35 1.076.359.956.24 1.196.239 1.076.12 1.195.118 1.196.12 1.313V504.206l-.12 1.195-.118 1.076-.12 1.196-.239 1.074-.24 1.076-.359 1.078-.238 1.074-.471 1.076-.479 1.076-.477 1.075-.592 1.077-.596 1.075-.711.957-.718.956-.83.956-.836.836-.83.958-.956.837-.83.597-.956.718-.95.717-.948.597-1.076.598-1.07.478-1.068.597-1.076.478-1.188.36-1.188.477-1.076.359-.949.24-1.071.239-1.074.238-1.188.239-1.07.24-1.188.119-1.196.12-1.188.12-1.188.118h-5.118l-1.308-.118-1.308-.12h-1.188l-1.315-.12-1.188-.239-1.308-.12-1.189-.239-1.076-.238-1.188-.239-1.188-.24-1.07-.239-1.194-.358-1.07-.359-1.069-.24-1.195-.478-1.069-.358-1.068-.477-1.069-.479-1.195-.479-1.069-.597-.95-.479-1.076-.597-1.069-.597-.949-.599-1.075-.717-.95-.596-.957-.719-.949-.717-.948-.716.71-.958.597-.956.71-.956.718-.957.709-1.075.599-.956.717-.957.711-.956.596-.956.712-.957.716-.956.598-.956.71-1.076.718-.956.71-.956.597-.956.711-.956.956.716 1.068.598.95.598.956.717 1.068.477.958.599 1.068.479.949.477 1.076.479.949.477 1.068.359.956.478 1.31.358 1.188.36 1.188.357 1.196.24 1.188.239 1.188.24 1.188.12 1.196.118 1.068.12h2.616l1.308-.238 1.196-.24 1.068-.239.949-.479.837-.477 1.07-.957.717-1.076.469-1.076.122-1.195v-.24l-.122-1.553-.589-1.315-.479-.717-.829-.838-1.076-.597-.949-.597-1.188-.479-1.315-.479-1.428-.477-.949-.239-.95-.358-1.076-.239-1.068-.359-1.188-.24-1.316-.358-1.308-.358-1.308-.36-1.306-.238-1.188-.359-1.308-.359-1.196-.238-1.19-.359-1.188-.359-1.068-.358-1.196-.359-1.069-.359-1.068-.358-1.315-.471-1.188-.599-1.188-.477-1.189-.597-1.076-.599-1.069-.597-.948-.598-.956-.717-.951-.597-.949-.838-.956-.836-.83-.957-.836-.836-.71-.957-.718-1.075-.59-.956-.599-1.077-.477-.956-.359-1.075-.352-1.076-.239-1.076-.238-1.196-.239-1.196-.12-1.195-.12-1.314v-2.87l.12-1.314Zm83.459-23.902H245.894V529.07h-68.782v-19.725H223.169V495.121H181.753v-18.522H223.169V461.778H176.514v-19.719h1.19Zm86.952 0h21.777V493.511l.596-.956.711-1.084.598-.956.71-.957.597-1.075.719-.957.589-.956.599-1.083.709-.956.599-.956.716-.957.59-1.083.718-.956.59-.956.599-1.076.717-.962.591-.958.717-1.074.59-.958.717-.956.591-1.082.598-.958.716-.956.591-1.076.717-.962.591-.956.717-.958.599-1.074.591-.963.716-.957.59-1.076.718-.956.597-.956.711-1.084.597-.956h.472l.716 1.076.599.964.71 1.076.598.956.71 1.074.598.964.709 1.076.599.958.717 1.074.591.956.717 1.084.589.956.718 1.076.598.956.71 1.083.598.956.71 1.076.717.956.597 1.083.711.956.597 1.076.711.956.597 1.084.711.956.597 1.076.718.956.59 1.076.718.964.59 1.074.718.958.597 1.076.709.954.6 1.084.71.956V442.059h22.613V529.07H330.105l-.591-.957-.597-1.075-.709-.949-.599-1.076-.597-.956-.591-1.078-.597-.948-.712-1.077-.596-.956-.599-.956-.591-1.068-.597-.957-.711-1.075-.597-.957-.597-1.068-.591-.956-.717-.956-.599-1.071-.589-.955-.598-1.076-.592-.957-.717-1.068-.597-.957-.59-1.075-.598-.949-.591-.956-.717-1.076-.598-.958-.59-1.076-.598-.949-.59-1.076-.719-.956-.597-1.068-.591-.957-.597.957-.598 1.068-.71.956-.596 1.076-.592.949-.598 1.076-.71.958-.598 1.076-.598.956-.59.949-.717 1.075-.591.957-.598 1.068-.596.957-.711 1.076-.597.955-.599 1.071-.589.956-.6.956-.71 1.068-.597.957-.597 1.075-.592.957-.716 1.068-.592.956-.596.956-.599 1.077-.709.948-.599 1.078-.589.956-.599 1.076-.717.949-.591 1.075-.597.957H263.468V442.059h1.188Zm138.078 35.855.359 1.083.471 1.196.478 1.076.359 1.082.471 1.076.477 1.196.36 1.083.479 1.076.469 1.075.36 1.082.479 1.196.35 1.076.479 1.083.479 1.076.357 1.076.472 1.201.477 1.078.359 1.074.479 1.083.47 1.196.359 1.083.479 1.076.47-1.076.358-1.083.478-1.196.479-1.083.352-1.074.477-1.078.479-1.201.471-1.076.36-1.076.477-1.083.479-1.076.352-1.196.477-1.082.479-1.075.357-1.076.472-1.083.479-1.196.477-1.076.351-1.082.478-1.076.479-1.196.359-1.083.47-1.076H402.257l.477 1.076Zm-37.373-35.855H388.692l.472 1.078.358 1.076.478 1.076.478 1.194.352 1.07.478 1.074.478 1.076.352 1.076.478 1.076.478 1.076.358 1.076.472 1.195.478 1.076.359 1.076.479 1.076h34.152l.47-1.076.359-1.076.479-1.076.477-1.195.352-1.076.477-1.076.479-1.076.359-1.076.47-1.076.479-1.074.359-1.07.472-1.194.477-1.076.359-1.076.478-1.078h24.034l-.471 1.078-.479 1.076-.477 1.076-.472 1.194-.359 1.07-.478 1.074-.478 1.076-.47 1.076-.479 1.076-.479 1.196-.47 1.076-.479 1.075-.357 1.076-.479 1.076-.471 1.076-.478 1.195-.478 1.076-.472 1.077-.478 1.075-.478 1.076-.358 1.076-.471 1.196-.479 1.074-.478 1.076-.471 1.076-.479 1.076-.478 1.076-.471 1.196-.359 1.075-.478 1.076-.478 1.076-.472 1.076-.477 1.076-.477 1.195-.472 1.076-.478 1.076-.358 1.076-.479 1.074-.471 1.076-.478 1.196-.479 1.076-.471 1.076-.477 1.076-.479 1.075-.358 1.077-.472 1.068-.478 1.196-.477 1.075-.472 1.077-.477 1.076-.479 1.075-.471 1.076-.358 1.196-.479 1.075-.477 1.076-.472 1.076-.479 1.076-.477 1.076-.472 1.196-.478 1.074-.358 1.076-.478 1.076-.472 1.076-.477 1.076-.479 1.195-.47 1.076-.479 1.076-.479 1.076-.35 1.075-.479 1.077-.479 1.195-.478 1.076-.471 1.076-.479 1.076-.477 1.076-.471 1.074-.36 1.196-.477 1.076-.479 1.076-.47 1.076H401.068l-.478-1.076-.478-1.076-.472-1.076-.478-1.196-.358-1.074-.471-1.076-.479-1.076-.477-1.076-.479-1.076-.47-1.195-.479-1.077-.479-1.075-.35-1.076-.479-1.076-.479-1.076-.478-1.195-.471-1.076-.477-1.076-.479-1.076-.471-1.076-.358-1.074-.478-1.196-.472-1.076-.478-1.076-.478-1.076-.478-1.076-.471-1.075-.477-1.196-.36-1.076-.471-1.075-.477-1.076-.479-1.077-.479-1.075-.47-1.196-.479-1.068-.477-1.077-.352-1.075-.478-1.076-.478-1.076-.472-1.076-.478-1.196-.478-1.076-.479-1.074-.471-1.076-.358-1.076-.478-1.076-.472-1.195-.477-1.076-.479-1.076-.477-1.076-.472-1.076-.479-1.075-.357-1.196-.472-1.076-.477-1.076-.479-1.076-.471-1.076-.478-1.074-.479-1.196-.479-1.076-.35-1.076-.479-1.075-.479-1.077-.47-1.076-.478-1.195-.478-1.076-.478-1.076-.47-1.076-.36-1.075-.479-1.076-.471-1.196-.477-1.076-.477-1.076-.472-1.076-.478-1.074-.478-1.07-.36-1.194-.47-1.076-.478-1.076-.478-1.078h1.187Zm104.257 11.112.956-.717.831-.599.956-.717.949-.597.95-.718.956-.597.949-.599 1.076-.596 1.069-.598 1.07-.598 1.074-.47 1.07-.599 1.188-.477 1.068-.479 1.196-.477 1.068-.479 1.07-.359 1.075-.358 1.069-.36 1.188-.358 1.068-.36 1.196-.238 1.07-.239 1.188-.239 1.194-.238 1.19-.12 1.308-.12 1.188-.12 1.308-.119 1.196-.12 1.306-.119h5.12l1.188.119 1.308.12 1.188.119 1.188.12 1.196.12 1.188.238 1.19.24 1.068.239 1.194.239 1.07.358 1.188.239 1.076.36 1.069.477 1.069.359 1.187.479 1.076.477 1.069.477 1.068.479 1.078.597.948.592 1.069.598.956.598.949.596.956.719.95.716.95.717.836.718.83.717.837.837.829.716.838.838.829.837.717.836.711.956.717.837.598.956.71.958.596.954.592.958.598 1.076.597.956.471 1.076.478 1.076.478 1.076.472 1.074.358.956.479 1.078.239 1.076.352 1.074.238 1.195.359 1.077.239 1.195.12 1.076.24 1.196.117 1.075.121 1.196.112 1.196.119 1.194V486.761l-.119 1.314v1.195l-.112 1.196-.121 1.315-.239 1.188-.118 1.196-.239 1.076-.359 1.194-.24 1.196-.35 1.076-.359 1.195-.359 1.076-.478 1.196-.472 1.075-.478 1.076-.478 1.076-.471 1.076-.597 1.076-.598.956-.592.957-.596.956-.598.956-.71.956-.717.956-.711.956-.717.839-.829.836-.718.837-.83.835-.836.838-.83.716-.956.838-.83.717-.95.717-.956.598-.949.717-.957.597-.948.598-1.07.598-1.076.598-1.068.597-1.069.479-1.075.477-1.189.599-.949.357-1.188.36-1.078.477-1.068.24-1.068.359-1.194.239-1.07.358-1.188.239-1.189.12-1.195.239-1.189.12-1.187.118-1.189.12-1.196.12h-5.111l-1.316-.12-1.308-.12h-1.188l-1.188-.118-1.308-.24-1.076-.119-1.188-.24-1.189-.239-1.075-.238-1.068-.239-1.07-.24-1.076-.359-1.068-.238-.95-.359-1.076-.359-1.069-.477-1.068-.479-1.076-.478-1.069-.598-1.068-.478-.958-.598-1.068-.597-.949-.597-1.076-.599-.949-.716-.95-.599-.956-.717-.949-.717-.956-.836-.949-.718.717-.957.829-.836.718-.956.829-.956.717-.957.711-.836.837-.956.71-.956.717-.839.831-.956.716-.956.83-.956.718-.837.709-.956.836-.956.712-.956.836-.838.711-.956.956.718.949.836.956.598.949.718.95.597.956.599.95.596 1.068.598.956.478.95.478.956.359 1.069.359 1.068.358 1.076.239 1.188.24 1.188.239 1.189.118 1.308.12 1.315.119h2.496l1.188-.119 1.076-.12 1.188-.238 1.069-.24 1.076-.358 1.068-.358 1.07-.479 1.069-.477.956-.598.948-.598.957-.599.83-.716.837-.717.829-.718.718-.836.829-.837.717-.956.592-.837.598-.956.589-1.076.599-.956.477-1.076.359-1.076.472-1.076.358-1.195.239-1.189.239-1.075.24-1.316.118-1.195.112-1.194V484.13l-.112-1.195-.118-1.076-.12-1.196-.239-1.074-.24-1.078-.239-1.074-.358-1.076-.352-.956-.479-1.195-.477-1.077-.591-1.076-.597-.956-.598-.956-.71-.958-.718-.836-.829-.837-.719-.836-.828-.717-.957-.718-.949-.717-.948-.597-.956-.598-1.071-.478-1.068-.479-1.075-.477-1.189-.359-1.188-.359-1.196-.24-1.188-.238-1.188-.119-1.308-.12H504.018l-1.316.12-1.308.119-1.188.12-1.188.24-1.196.238-1.188.358-1.068.24-1.07.477-.956.479-1.068.478-.836.478-.951.598v10.878h17.376V492.73H468.789v-38.843l.829-.716ZM507.893 725.94h-51.578v39.896h51.578v81.448h-53.631v39.896h97.429V599.245h-98.245v39.897h54.447v86.798ZM138.459 717.297v-64.992c0-11.519 5.324-16.863 16.371-16.863h8.192c11.46 0 16.784 5.344 16.784 16.863v181.816c0 11.517-5.324 16.861-16.784 16.861h-7.37c-11.053 0-16.377-5.344-16.377-16.861v-56.359H96.298v58.827c0 35.783 17.193 53.06 52.8 53.06h21.292c35.608 0 53.216-17.685 53.216-53.475V650.252c0-35.791-17.608-53.475-53.216-53.475h-21.699c-35.616 0-53.215 17.684-53.215 53.475v67.045h42.983ZM290.559 599.245h-43.805v287.936h43.805V599.245ZM354.118 759.255c0-11.518 5.316-16.869 16.369-16.869h18.015v106.128h-18.015c-11.053 0-16.369-5.345-16.369-16.861v-72.398Zm9.414 127.926h68.77V599.245h-43.8v104.482h-24.97c-35.614 0-53.214 17.684-53.214 53.467v76.512c0 35.789 17.6 53.475 53.214 53.475"/><path fill-rule="evenodd" d="M448.362 338.894H197.623l127.982-42.206 122.757 42.206Z" clip-rule="evenodd"/></g><g clip-path="url(#b)"><path fill="#fff" fill-rule="evenodd" d="M588.396 0H58.771C15.843 0 0 15.842 0 58.79v518.235c0 4.86.196 9.375.625 13.557.978 9.375 1.162 18.459 9.88 28.802.852 1.013 9.754 7.637 9.754 7.637 4.788 2.348 8.057 4.077 13.457 6.251l260.795 109.264c13.538 6.206 19.2 8.625 29.033 8.43v.002h.077v-.002c9.834.195 15.495-2.224 29.035-8.43l260.793-109.264c5.402-2.174 8.67-3.903 13.459-6.251 0 0 8.901-6.624 9.752-7.637 8.719-10.343 8.903-19.427 9.88-28.802.429-4.182.627-8.697.627-13.557V58.79c0-42.948-15.844-58.79-58.771-58.79Z" clip-rule="evenodd"/><path fill="#343434" d="m552.922 521.016-.12 1.196-.119 1.314-.24 1.196-.357 1.194-.232 1.076-.36 1.196-.477 1.076-.479.958-.471 1.074-.597.956-.597.958-.711.956-.599.956-.709.836-.837.837-.711.717-.955.838-.83.717-.956.717-.95.59-.949.717-1.076.597-1.069.479-1.068.597-1.196.479-1.188.479-1.188.357-1.188.36-1.076.357-1.188.24-1.07.239-1.068.239-1.196.24-1.189.118-1.068.12-1.196.12-1.307.12-1.189.119h-4.999l-1.189-.119h-1.307l-1.189-.12-1.195-.12-1.308-.12-1.188-.238-1.188-.12-1.196-.239-1.189-.239-1.188-.24-1.188-.238-1.195-.358-1.069-.24-1.188-.358-1.189-.359-1.075-.479-1.188-.358-1.069-.358-1.19-.478-1.074-.479-1.07-.479-1.069-.589-1.075-.479-1.069-.598-.949-.596-1.076-.599-.95-.597-.956-.598-.949-.717-.949-.717-.956-.718-.951-.717-.836-.717-.949-.836.717-.956.829-.838.718-.957.83-.956.718-.836.709-.956.837-.957.71-.836.837-.956.711-.838.836-.956.71-.957.718-.836.829-.956.717-.957.83-.836.717-.956.949.717 1.07.717.956.718 1.069.717.956.597 1.069.716.948.599 1.078.477.948.599 1.069.479 1.076.477 1.068.479 1.071.358 1.074.478 1.188.358 1.19.359 1.068.359 1.196.24 1.188.238 1.188.239 1.308.12 1.194.239h1.19l1.306.118H520.787l1.308-.118 1.196-.239 1.068-.24 1.07-.239.956-.358.83-.478.956-.717.71-.837.478-.958.36-1.074.118-1.196v-.239l-.118-1.435-.478-1.196-.599-.836-.829-.717-.958-.717-.949-.478-1.068-.478-1.196-.479-1.427-.596-.83-.24-.948-.239-1.076-.36-1.07-.238-1.188-.359-1.196-.239-1.306-.358-1.19-.239-1.308-.359-1.188-.238-1.196-.359-1.186-.24-1.19-.359-1.076-.357-1.186-.24-1.071-.359-1.068-.358-1.076-.359-1.308-.479-1.188-.478-1.189-.478-1.195-.478-1.068-.598-1.189-.597-.956-.597-1.07-.598-.949-.717-.956-.597-.829-.719-.836-.836-.831-.837-.717-.838-.71-.836-.598-.836-.591-.957-.597-1.075-.479-.829-.359-.957-.35-1.076-.359-.956-.24-1.196-.239-1.076-.12-1.195-.118-1.196-.12-1.313V482.771l.12-1.195.118-1.076.12-1.196.239-1.074.24-1.076.359-1.078.238-1.074.471-1.076.479-1.076.477-1.075.592-1.077.596-1.075.711-.957.718-.956.83-.956.836-.836.83-.958.956-.837.83-.597.956-.718.95-.717.948-.597 1.076-.598 1.07-.478 1.068-.598 1.076-.477 1.188-.36 1.188-.477 1.076-.359.949-.24 1.071-.239 1.074-.238 1.188-.239 1.07-.24 1.188-.119 1.196-.12 1.188-.12 1.188-.118h5.118l1.308.118 1.308.12h1.188l1.315.12 1.188.239 1.308.12 1.189.239 1.076.238 1.188.239 1.188.24 1.07.239 1.194.358 1.07.359 1.069.24 1.195.477 1.069.359 1.068.477 1.069.479 1.195.479 1.069.597.95.479 1.076.597 1.069.597.949.599 1.075.717.951.596.956.719.949.717.948.716-.709.958-.598.956-.71.956-.718.957-.709 1.075-.599.956-.717.957-.711.956-.596.956-.712.957-.716.956-.598.956-.71 1.076-.718.956-.71.956-.597.956-.711.956-.956-.716-1.068-.598-.95-.598-.956-.717-1.068-.477-.958-.599-1.068-.479-.949-.477-1.076-.479-.949-.477-1.068-.359-.956-.478-1.31-.358-1.188-.36-1.188-.357-1.196-.24-1.188-.239-1.188-.24-1.188-.12-1.196-.118-1.068-.12h-2.616l-1.308.238-1.196.24-1.068.239-.949.479-.837.477-1.07.957-.717 1.076-.469 1.076-.122 1.195v.24l.122 1.553.589 1.315.479.717.829.838 1.076.597.949.597 1.188.479 1.315.479 1.428.477.949.239.95.358 1.076.239 1.068.359 1.188.24 1.316.358 1.308.358 1.308.36 1.306.238 1.188.359 1.308.359 1.196.238 1.19.359 1.188.359 1.068.358 1.196.359 1.069.359 1.068.358 1.315.471 1.188.599 1.188.477 1.189.597 1.076.599 1.069.597.948.598.956.717.951.597.949.838.956.836.83.957.836.836.71.957.718 1.075.59.956.599 1.077.477.956.359 1.075.352 1.076.239 1.076.238 1.196.239 1.196.12 1.195.12 1.314v2.87l-.12 1.314Zm-83.459 23.902H401.273V457.907h68.782v19.725H423.998V491.856H465.414v18.522H423.998V525.199H470.653v19.719h-1.19Zm-86.952 0h-21.777V493.466l-.596.956-.711 1.084-.598.956-.71.957-.597 1.075-.719.957-.589.956-.599 1.083-.709.956-.599.956-.716.957-.59 1.083-.718.956-.59.956-.599 1.076-.717.962-.591.958-.717 1.074-.59.958-.717.956-.591 1.082-.598.958-.716.956-.591 1.076-.717.962-.591.956-.717.958-.599 1.074-.591.963-.716.957-.59 1.076-.718.956-.597.956-.711 1.084-.597.956h-.472l-.716-1.076-.599-.964-.71-1.076-.598-.956-.71-1.074-.598-.964-.709-1.076-.599-.958-.717-1.074-.591-.956-.717-1.084-.589-.956-.718-1.076-.598-.956-.71-1.083-.598-.956-.71-1.076-.717-.956-.597-1.083-.711-.956-.597-1.076-.711-.956-.597-1.084-.711-.956-.597-1.076-.718-.956-.59-1.076-.718-.964-.59-1.074-.718-.958-.597-1.076-.709-.954-.6-1.084-.71-.956V544.918h-22.613V457.907H317.062l.591.957.597 1.075.709.949.599 1.076.597.956.591 1.078.597.948.712 1.077.596.956.599.956.591 1.068.597.957.711 1.075.597.957.597 1.068.591.956.717.956.599 1.071.589.955.598 1.076.592.957.717 1.068.597.957.59 1.075.598.949.591.956.717 1.076.598.958.59 1.076.598.949.59 1.076.719.956.597 1.068.591.957.597-.957.598-1.068.71-.956.596-1.076.592-.949.598-1.076.71-.958.598-1.076.598-.956.59-.949.717-1.075.591-.957.598-1.068.596-.957.711-1.076.597-.955.599-1.071.589-.956.6-.956.71-1.068.597-.957.597-1.075.592-.957.716-1.068.592-.956.596-.956.599-1.077.709-.948.599-1.078.589-.956.599-1.076.717-.949.591-1.075.597-.957H383.699V544.918h-1.188Zm-138.078-35.855-.359-1.083-.471-1.196-.478-1.076-.359-1.082-.471-1.076-.477-1.196-.36-1.083-.479-1.076-.469-1.075-.36-1.082-.479-1.196-.35-1.076-.479-1.083-.479-1.076-.357-1.076-.472-1.201-.477-1.078-.359-1.074-.479-1.083-.47-1.196-.359-1.083-.479-1.076-.47 1.076-.358 1.083-.478 1.196-.479 1.083-.352 1.074-.477 1.078-.479 1.201-.471 1.076-.36 1.076-.477 1.083-.479 1.076-.352 1.196-.477 1.082-.479 1.075-.357 1.076-.472 1.083-.479 1.196-.477 1.076-.351 1.082-.478 1.076-.479 1.196-.359 1.083-.47 1.076H244.91l-.477-1.076Zm37.373 35.855H258.475l-.472-1.078-.358-1.076-.478-1.076-.478-1.194-.352-1.07-.478-1.074-.478-1.076-.352-1.076-.478-1.076-.478-1.076-.358-1.076-.472-1.195-.478-1.076-.359-1.076-.479-1.076h-34.152l-.47 1.076-.359 1.076-.479 1.076-.477 1.195-.352 1.076-.477 1.076-.479 1.076-.359 1.076-.47 1.076-.479 1.074-.359 1.07-.472 1.194-.477 1.076-.359 1.076-.478 1.078h-24.034l.471-1.078.479-1.076.477-1.076.472-1.194.359-1.07.478-1.074.478-1.076.47-1.076.479-1.076.479-1.196.47-1.076.479-1.075.357-1.076.479-1.076.471-1.076.478-1.195.478-1.076.472-1.077.478-1.075.478-1.076.358-1.076.471-1.196.479-1.074.478-1.076.471-1.076.479-1.076.478-1.076.471-1.196.359-1.075.478-1.076.478-1.076.472-1.076.477-1.076.477-1.195.472-1.076.478-1.076.358-1.076.479-1.074.471-1.076.478-1.196.479-1.076.471-1.076.477-1.076.479-1.075.358-1.077.472-1.068.478-1.196.477-1.075.472-1.077.477-1.076.479-1.075.471-1.076.358-1.196.479-1.075.477-1.076.472-1.076.479-1.076.477-1.076.472-1.196.478-1.074.358-1.076.478-1.076.472-1.076.477-1.076.479-1.195.47-1.076.479-1.076.479-1.076.35-1.075.479-1.077.479-1.195.478-1.076.471-1.076.479-1.076.477-1.076.471-1.074.36-1.196.477-1.076.479-1.076.47-1.076H246.099l.478 1.076.478 1.076.472 1.076.478 1.196.358 1.074.471 1.076.479 1.076.477 1.076.479 1.076.47 1.195.479 1.077.479 1.075.35 1.076.479 1.076.479 1.076.478 1.195.471 1.076.477 1.076.479 1.076.471 1.076.358 1.074.478 1.196.472 1.076.478 1.076.478 1.076.478 1.076.471 1.075.477 1.196.36 1.076.471 1.075.477 1.076.479 1.077.479 1.075.47 1.196.479 1.068.477 1.077.352 1.075.478 1.076.478 1.076.472 1.076.478 1.196.478 1.076.479 1.074.471 1.076.358 1.076.478 1.076.472 1.195.477 1.076.479 1.076.477 1.076.472 1.076.479 1.075.357 1.196.472 1.076.477 1.076.479 1.076.471 1.076.478 1.074.479 1.196.479 1.076.35 1.076.479 1.075.479 1.077.47 1.076.478 1.195.478 1.076.478 1.076.47 1.076.36 1.075.479 1.076.471 1.196.477 1.076.477 1.076.472 1.076.478 1.074.478 1.07.36 1.194.47 1.076.478 1.076.478 1.078h-1.187Zm-104.257-11.112-.956.717-.831.599-.956.717-.949.597-.95.718-.956.597-.949.599-1.076.596-1.069.598-1.07.598-1.074.47-1.07.599-1.188.477-1.068.479-1.196.477-1.068.479-1.07.359-1.075.358-1.069.36-1.188.358-1.068.36-1.196.238-1.07.239-1.188.239-1.194.238-1.19.12-1.308.12-1.188.12-1.308.119-1.196.12-1.306.119h-5.12l-1.188-.119-1.308-.12-1.188-.119-1.188-.12-1.196-.12-1.188-.238-1.19-.24-1.068-.239-1.194-.239-1.07-.358-1.188-.239-1.076-.36-1.069-.477-1.069-.359-1.187-.479-1.076-.477-1.069-.477-1.068-.479-1.078-.597-.948-.592-1.069-.598-.956-.598-.949-.596-.956-.719-.95-.716-.95-.717-.836-.718-.83-.717-.837-.837-.829-.716-.838-.838-.829-.837-.717-.836-.711-.956-.717-.837-.598-.956-.71-.958-.596-.954-.592-.958-.598-1.076-.597-.956-.47-1.076-.48-1.076-.477-1.076-.472-1.074-.358-.956-.479-1.078-.239-1.076-.352-1.074-.238-1.195-.359-1.077-.239-1.195-.12-1.076-.24-1.196-.117-1.075-.121-1.196-.112-1.196-.119-1.194V500.216l.119-1.314v-1.195l.112-1.196.12-1.315.24-1.188.118-1.196.239-1.076.359-1.194.24-1.196.35-1.076.359-1.195.359-1.076.478-1.196.472-1.075.478-1.076.478-1.076.471-1.076.597-1.076.598-.956.592-.957.596-.956.598-.956.71-.956.717-.956.711-.956.717-.839.829-.836.718-.837.83-.835.836-.838.83-.716.956-.838.83-.717.95-.717.956-.598.949-.717.957-.597.948-.598 1.07-.598 1.076-.598 1.068-.597 1.069-.479 1.075-.477 1.189-.599.949-.357 1.188-.36 1.078-.477 1.068-.24 1.068-.359 1.194-.239 1.07-.358 1.188-.239 1.189-.12 1.195-.239 1.189-.12 1.187-.118 1.189-.12 1.196-.12h5.111l1.316.12 1.308.12h1.188l1.188.118 1.308.24 1.076.119 1.188.24 1.189.239 1.075.238 1.068.239 1.07.24 1.076.359 1.068.238.95.359 1.076.359 1.069.477 1.068.479 1.076.478 1.069.598 1.068.478.958.598 1.068.597.949.597 1.076.599.949.716.95.599.956.717.949.717.956.836.949.718-.717.957-.829.836-.718.956-.829.956-.717.957-.711.836-.837.956-.71.956-.717.839-.831.956-.716.956-.83.956-.718.837-.709.956-.836.956-.712.956-.836.838-.711.956-.956-.718-.949-.836-.956-.598-.949-.718-.95-.597-.956-.599-.95-.596-1.068-.598-.956-.478-.95-.478-.956-.359-1.069-.359-1.068-.358-1.076-.239-1.188-.24-1.188-.239-1.189-.118-1.308-.12-1.315-.119h-2.496l-1.188.119-1.076.12-1.188.238-1.069.24-1.076.358-1.068.358-1.07.479-1.069.477-.956.598-.948.598-.957.599-.83.716-.837.717-.829.718-.718.836-.829.837-.717.956-.592.837-.598.956-.589 1.076-.599.956-.477 1.076-.359 1.076-.472 1.076-.358 1.195-.239 1.189-.239 1.075-.24 1.316-.118 1.195-.112 1.194V502.847l.112 1.195.118 1.076.12 1.196.239 1.074.24 1.078.239 1.074.358 1.076.352.956.479 1.195.477 1.077.591 1.076.597.956.598.956.71.958.718.836.829.837.719.836.828.717.957.718.949.717.948.597.956.598 1.071.478 1.068.479 1.075.477 1.189.359 1.188.359 1.196.24 1.188.238 1.188.119 1.308.12H143.149l1.316-.12 1.308-.119 1.188-.12 1.188-.24 1.196-.238 1.188-.358 1.068-.24 1.07-.477.956-.479 1.068-.478.836-.478.951-.598v-10.878h-17.376V494.247H178.378v38.843l-.829.716ZM139.274 261.037h51.578v-39.896h-51.578v-81.448h53.631V99.797h-97.43v287.935h98.246v-39.897h-54.447v-86.798ZM508.708 269.68v64.992c0 11.519-5.324 16.863-16.371 16.863h-8.192c-11.46 0-16.784-5.344-16.784-16.863V152.856c0-11.517 5.324-16.861 16.784-16.861h7.37c11.053 0 16.377 5.344 16.377 16.861v56.359h42.977v-58.827c0-35.783-17.193-53.06-52.8-53.06h-21.292c-35.608 0-53.216 17.685-53.216 53.475v185.922c0 35.791 17.608 53.475 53.216 53.475h21.699c35.616 0 53.215-17.684 53.215-53.475V269.68h-42.983ZM356.608 387.732h43.805V99.796h-43.805v287.936ZM293.049 227.722c0 11.518-5.316 16.869-16.369 16.869h-18.015V138.463h18.015c11.053 0 16.369 5.345 16.369 16.861v72.398Zm-9.414-127.926h-68.77v287.936h43.8V283.25h24.97c35.614 0 53.214-17.684 53.214-53.467v-76.512c0-35.789-17.6-53.475-53.214-53.475"/><path fill="#343434" fill-rule="evenodd" d="M198.805 648.083h250.739l-127.982 42.206-122.757-42.206Z" clip-rule="evenodd"/></g><path fill="#fff" d="m194.584 798.501 75.855.006v22.33h-25.685v77.311h-24.577v-77.312h-25.593v-22.335ZM161.599 831.997h22.36c0-8.859 1.01-18.556-16.178-28.852-13.365-8.006-33.005-4.052-40.552.184-12.935 7.261-16.267 17.104-15.984 27.691.471 17.601 13.392 21.538 25.481 26.041 7.845 2.922 16.723 4.675 22.471 9.961 2.203 2.026 3.121 6.012-1.663 7.856-6.806 2.622-14.103 2.923-21.685-1.946-2.595-1.666-3.446-4.288-3.446-7.111l-23.673-.304c0 8.2 1.484 14.945 6.673 20.82 7.474 8.464 17.715 10.966 28.826 11.737 13.925.966 22.09-1.47 28.827-5.822 6.854-4.428 11.186-11.169 12.473-20.332.781-5.558 1.392-11.007-4.989-18.945-5.725-5.528-15.506-10.997-27.903-14.786-5.937-2.245-14.706-4.666-16.275-8.49-1.607-3.292.868-6.581 2.959-7.793 3.388-1.9 8.287-1.92 12.568-.302 4.976 1.88 9.71 5.507 9.71 10.393ZM280.475 830.615l-.216 32.807c0 45.55 78.904 46.809 78.904 0v-32.807c0-44.566-78.688-41.203-78.688 0Zm39.296-11.542c7.676.13 15.35 5.114 15.35 14.563v28.753c0 18.638-30.705 18.331-30.705 0v-28.753c0-9.969 7.678-14.693 15.355-14.563ZM378.446 798.289v99.551h24.204v-35.506h9.426l19.301 35.376h24.677v-8.856l-17.818-29.871c25.141-14.519 19.014-60.583-12.84-60.583l-46.95-.111Zm24.26 21.282 13.722.263c15.631 0 14.769 20.903 0 21.003h-13.722v-21.266ZM472.501 798.058l63.382-.065v21.061h-39.36v18.512h33.632v20.885h-34.001v18.483h41.023v20.642h-64.676v-99.518Z"/><defs><clipPath id="a"><path fill="#fff" d="M647.167 986.977H0V236h647.167z"/></clipPath><clipPath id="b"><path fill="#fff" d="M0 0h647.167v750.977H0z"/></clipPath></defs><script/></svg>