<svg xmlns="http://www.w3.org/2000/svg" xml:space="preserve" viewBox="0 0 1024 1024"><path fill="#A0001C" d="M1025 171c0 194.69 0 389.379-.378 584.453-1.103 1.804-2.081 3.15-2.513 4.654-3.594 12.502-10.22 22.94-19.608 32.062-19.712 19.152-38.943 38.798-58.395 58.217-14.39 14.365-31.922 21.418-52.114 21.562-28.318.203-56.638.07-84.958.046-29.65-.025-59.3-.091-88.802-.424 1.526-1.726 2.879-3.195 4.29-4.606 34.957-34.968 69.932-69.919 104.846-104.93 1.435-1.44 2.31-3.438 3.469-5.144.022.033-.057.039.189-.056.497-.335.748-.574.988-.824-.011-.01 0 .016.303-.052.739-.465 1.175-.863 1.773-1.544 2.173-2.022 4.3-3.645 6.179-5.518 20.75-20.693 41.587-41.301 62.133-62.195 11.454-11.648 18.438-26.053 19.485-42.183 1.216-18.73 1.256-37.637.222-56.38-.972-17.608-8.545-32.971-21.161-45.588-19.897-19.898-39.656-39.936-59.74-59.643-14.006-13.742-31.067-20.804-50.76-20.952-24.137-.182-48.275-.156-72.237-.484 36.076-36.191 71.987-72.107 107.84-108.08 1.567-1.573 2.604-3.672 3.887-5.486-.001.04-.079.025.247 0 .769-.45 1.211-.873 1.664-1.188.01.109-.207.094.07.016.537-.35.797-.62 1.21-1.184 2.441-2.22 4.881-3.995 6.993-6.099a22782.257 22782.257 0 0 0 62.54-62.54c1.864-1.87 3.646-3.943 4.964-6.213 3.44-5.931 1.404-10.956-5.196-12.629-3.02-.765-6.248-.99-9.383-.991-82.782-.051-165.565-.045-248.347-.021-2.656 0-5.35.058-7.96.49-17.21 2.844-32.189 9.923-44.523 22.624-21.799 22.446-43.886 44.611-66.119 67.052-.405.535-.544.91-.68 1.2.001-.088.155-.005-.18.052-.56.644-.785 1.233-1.033 1.832-.023.01.028.02-.322-.035-1.918 1.095-3.665 2.064-5.025 3.422a132412.98 132412.98 0 0 0-112.632 112.6c-1.169 1.168-2.187 2.486-3.588 3.613-6.12-5.684-13.051-8.041-21.076-8.023-23.875.054-47.75-.094-71.558-.487 1.35-1.831 2.534-3.436 3.928-4.831 34.699-34.735 69.43-69.435 104.1-104.198 1.568-1.572 2.609-3.669 3.9-5.464.005.057-.11.054.125-.05.482-.333.73-.563.97-.825-.009-.033.037.017.33-.06.718-.464 1.144-.852 1.725-1.528 1.425-1.362 2.778-2.352 3.952-3.523 21.7-21.65 43.397-43.303 65.026-65.024a24.38 24.38 0 0 0 4.379-6.021c2.757-5.404.85-10.063-5.02-11.622-3.48-.925-7.229-1.164-10.857-1.167-82.132-.06-164.265-.162-246.396.137-7.988.029-16.165 1.923-23.906 4.16-14.877 4.298-25.834 14.533-36.342 25.446-19.734 20.493-39.795 40.672-59.96 61.189a7.3 7.3 0 0 0-.787 1.292c.019-.021.05.027-.3-.026-1.795.986-3.42 1.849-4.664 3.091a83704.049 83704.049 0 0 0-96.076 96.052C9.683 452.878 5.374 457.47 1 462c0-63.69 0-127.379.378-191.46 1.104-1.813 2.082-3.16 2.516-4.665 3.61-12.516 10.264-22.96 19.658-32.097 20.189-19.637 39.77-39.898 59.886-59.61 13.436-13.166 30.058-20.045 48.724-20.056 287.496-.16 574.992-.111 862.487-.111 1.334 0 2.69-.158 3.996.028 8.146 1.16 15.727 3.367 20.773 10.694 1.576 2.288 3.706 4.195 5.582 6.277z"/><path fill="#780015" d="M8.958 864.243c-2.42-3.08-4.84-6.158-7.61-9.24C1 724.313 1 593.625 1 462.47a289.48 289.48 0 0 1 13.131-14.045c32.001-32.042 64.023-64.062 96.076-96.052 1.245-1.242 2.869-2.105 4.588-2.752-7.976 14.326-11.654 29.245-11.594 45.574.29 78.485.328 156.973.012 235.458-.097 24.204 7.663 44.503 25.292 61.187 8.816 8.343 17.095 17.252 25.464 26.22-1.51 1.774-2.821 3.278-4.229 4.687-45.525 45.54-91.063 91.068-136.578 136.619-1.513 1.514-2.807 3.247-4.204 4.878z"/><path fill="#780218" d="M718.232 871.57a7.84 7.84 0 0 1-2.638.422c-107.531-.005-215.063-.016-322.91-.35 32.557-33.257 65.438-66.186 98.28-99.153 1.49-1.495 2.64-3.33 4.19-5.222 5.025-3.778 5.886-6.626 2.948-11.6-1.665-2.818-3.899-5.382-6.22-7.719-19.937-20.061-39.842-40.156-59.981-60.013-14.101-13.904-31.263-21.102-51.106-21.226-27.117-.169-54.236-.026-81.355-.042a23.372 23.372 0 0 1-5.363-.63c1.412-1.77 2.689-3.302 4.093-4.707 31.654-31.677 63.335-63.327 94.95-95.045 1.56-1.566 2.555-3.696 3.99-5.84 9.485-6.096 13.536-14.704 13.535-25.463 0-13.815-.175-27.633.064-41.443.153-8.843-1.896-16.754-7.759-23.511 1.089-1.249 2.107-2.567 3.276-3.736 37.526-37.55 75.06-75.094 112.632-112.6 1.36-1.357 3.107-2.326 4.954-3.08-7.39 13.832-11.484 28.092-10.891 43.757.479 12.648-.098 25.333.157 37.995.388 19.277 7.153 36.186 20.628 49.97 19.922 20.377 40.121 40.487 60.415 60.496 14.119 13.92 31.274 21.22 51.172 21.257 56.333.107 112.666.038 168.999.038h5.58c.113 1.236.25 2.03.25 2.823.006 24.167.014 48.333-.037 72.5-.004 1.977-.22 4.005-.692 5.923-3.317 13.496-14.013 21.28-29.327 21.283-82 .021-163.999-.01-245.998.068-4.112.004-8.385.287-12.294 1.43-5.216 1.524-6.92 5.83-4.463 10.68 1.472 2.905 3.651 5.58 5.964 7.91 20.316 20.46 40.614 40.94 61.162 61.165 14.015 13.795 31.147 20.943 50.799 21.026 48.332.204 96.665.078 144.998.04a75.155 75.155 0 0 0 9.453-.619c11.246-1.439 21.293-6.196 31.128-11.497-1.137 1.739-2.012 3.737-3.447 5.177-34.914 35.011-69.889 69.962-104.847 104.93-1.41 1.41-2.763 2.88-4.289 4.606z"/><path fill="#FFFEFE" d="M294 666.332c1.814.117 3.627.333 5.44.335 27.119.016 54.238-.127 81.355.042 19.843.124 37.005 7.322 51.106 21.226 20.139 19.857 40.044 39.952 59.98 60.013 2.322 2.337 4.556 4.9 6.221 7.72 2.938 4.973 2.077 7.82-3.358 11.726-4.603.764-8.554 1.55-12.506 1.553-81.933.072-163.867.099-245.8.022-20.421-.019-37.897-7.55-52.472-21.794-9.992-9.766-19.899-19.618-29.844-29.432-8.522-8.652-16.801-17.56-25.617-25.904-17.629-16.684-25.39-36.983-25.292-61.187.316-78.485.278-156.973-.012-235.458-.06-16.329 3.618-31.248 11.943-45.521.077-.34.046-.387.316-.519.426-.536.582-.941.738-1.346 19.925-20.31 39.986-40.489 59.72-60.982 10.508-10.913 21.465-21.148 36.342-25.446 7.74-2.237 15.918-4.131 23.906-4.16 82.13-.299 164.264-.198 246.396-.137 3.628.003 7.377.242 10.858 1.167 5.868 1.559 7.776 6.218 5.019 11.622a24.38 24.38 0 0 1-4.379 6.021c-21.629 21.721-43.326 43.374-65.026 65.024-1.174 1.17-2.527 2.161-4.236 3.604-.87.754-1.302 1.139-1.734 1.524 0 0-.046-.05-.31.017-.487.343-.71.619-.932.895 0 0 .115.003-.236.024-14.135 8.522-28.934 12.696-45.317 12.573-46.164-.348-92.332-.126-138.499-.11-2.495.001-5.007.028-7.484.299-13.815 1.508-24.18 12.628-24.343 26.523-.193 16.331-.212 32.668.012 48.998.197 14.299 11.63 26.319 26 26.512 25.99.35 51.988.001 77.982-.056 23.875.07 47.75.217 71.625.163 8.025-.018 14.956 2.339 21.076 8.023 6.175 6.879 8.224 14.79 8.071 23.633-.24 13.81-.064 27.628-.064 41.443.001 10.759-4.05 19.367-13.904 25.558-5.514 1.442-10.468 3.364-15.45 3.443-24.433.385-48.873.28-73.77.256-24.757-.1-49.055-.199-73.353-.082-15.493.075-27.884 11.317-28.162 25.884-.325 16.969-.225 33.95.004 50.922.09 6.676 2.665 12.583 7.963 17.438 4.938 5.03 10.729 7.979 17.412 8.029 20.87.157 41.744-.039 62.616-.098z"/><path fill="#FEFEFE" d="M830.837 756.89c-9.857 5.268-19.904 10.025-31.15 11.464-3.127.4-6.3.617-9.453.62-48.333.037-96.666.163-144.998-.041-19.652-.083-36.784-7.231-50.799-21.026-20.548-20.225-40.846-40.706-61.162-61.166-2.313-2.33-4.492-5.004-5.964-7.909-2.456-4.85-.753-9.156 4.463-10.68 3.909-1.143 8.182-1.426 12.294-1.43 82-.077 163.999-.047 245.998-.068 15.314-.003 26.01-7.787 29.327-21.283.471-1.918.688-3.946.692-5.924.051-24.166.043-48.332.037-72.499 0-.793-.137-1.587-.25-2.823h-5.58c-56.333 0-112.666.069-168.999-.038-19.898-.037-37.053-7.337-51.172-21.257-20.294-20.009-40.493-40.12-60.415-60.497-13.475-13.783-20.24-30.692-20.628-49.97-.255-12.66.322-25.346-.157-37.994-.593-15.665 3.5-29.925 11.241-43.702.071-.34.02-.35.3-.511.557-.687.834-1.213 1.11-1.739 0 0-.153-.083.085-.176.394-.454.55-.816.707-1.177 21.967-22.283 44.054-44.448 65.853-66.894 12.334-12.7 27.312-19.78 44.523-22.625 2.61-.431 5.304-.488 7.96-.489 82.782-.024 165.565-.03 248.347.02 3.135.002 6.362.227 9.383.992 6.6 1.673 8.637 6.698 5.196 12.629-1.318 2.27-3.1 4.342-4.964 6.213a22782.257 22782.257 0 0 1-62.54 62.54c-2.112 2.104-4.552 3.88-7.28 6.165a15.89 15.89 0 0 0-1.2 1.196s.218.015-.093-.009c-.771.36-1.23.744-1.69 1.128 0 0 .078.015-.273.041-14.145 8.188-28.938 12.383-45.07 11.496-3.983-.219-7.99-.033-11.985-.033-42.622 0-85.244-.04-127.866.021-16.83.025-28.713 10.735-29.184 26.97-.468 16.136-.436 32.304-.004 48.442.402 15.032 11.55 26.673 26.156 26.893 25.461.383 50.934.024 76.402-.024 24.138.063 48.276.037 72.413.219 19.693.148 36.754 7.21 50.76 20.952 20.084 19.707 39.843 39.745 59.74 59.643 12.616 12.617 20.189 27.98 21.16 45.587 1.035 18.744.995 37.652-.22 56.381-1.048 16.13-8.032 30.535-19.486 42.183-20.546 20.894-41.383 41.502-62.133 62.195-1.878 1.873-4.006 3.496-6.468 5.605-.895.755-1.34 1.14-1.786 1.525 0 0-.012-.026-.28.02-.497.324-.726.604-.955.883 0 0 .079-.006.057-.039z"/><path fill="#790116" d="M310.004 461.396c-26.061.381-52.06.73-78.048.38-14.37-.193-25.804-12.213-26-26.512-.225-16.33-.206-32.667-.013-48.998.164-13.895 10.528-25.015 24.343-26.523 2.477-.27 4.989-.298 7.484-.299 46.167-.016 92.335-.238 138.499.11 16.383.123 31.182-4.051 45.312-12.63-.94 1.774-1.981 3.87-3.549 5.443-34.67 34.763-69.401 69.463-104.1 104.198-1.394 1.395-2.579 3-3.928 4.831z"/><path fill="#790319" d="M718.21 461.47c-25.643.314-51.116.673-76.577.29-14.607-.22-25.754-11.86-26.156-26.893-.432-16.138-.464-32.306.004-48.442.471-16.235 12.355-26.945 29.184-26.97 42.622-.062 85.244-.02 127.866-.02 3.996 0 8.002-.187 11.986.032 16.131.887 30.924-3.308 45.07-11.535-.932 1.787-1.969 3.886-3.535 5.458-35.854 35.974-71.765 71.89-107.841 108.08zM830.185 347.904c.133-.358.593-.742 1.353-1.21-.142.338-.584.761-1.353 1.21z"/><path fill="#780218" d="M525.238 348.474c.058.47-.22.995-.754 1.671-.031-.438.194-1.027.754-1.671zM832.317 755.958c.143-.317.589-.702 1.323-1.174-.148.31-.584.709-1.323 1.174z"/><path fill="#790116" d="M423.356 345.969c.14-.31.571-.694 1.287-1.16-.142.307-.568.695-1.287 1.16z"/><path fill="#780218" d="M526.098 347.222c.11.203-.047.565-.443 1.106-.1-.195.038-.571.443-1.106z"/><path fill="#780015" d="M115.958 348.015c.084.198-.072.603-.517 1.16-.1-.215.088-.584.517-1.16z"/><path fill="#780218" d="M831.026 756.834c-.017-.184.212-.464.72-.778.028.204-.223.443-.72.778z"/><path fill="#790319" d="M831.919 346.733c-.023-.201.23-.48.771-.826.026.206-.234.477-.771.826z"/><path fill="#790116" d="M422.057 346.854c-.012-.173.21-.45.705-.76.025.196-.223.426-.705.76z"/><path fill="#5A0111" d="M153.969 718.058c10.098 9.499 20.005 19.351 29.997 29.117 14.575 14.244 32.05 21.775 52.471 21.794 81.934.077 163.868.05 245.801-.022 3.952-.003 7.903-.789 12.264-1.337-.898 1.55-2.048 3.384-3.538 4.88-32.842 32.966-65.723 65.895-98.743 99.115-2.476.33-4.805.415-7.134.415-117.03.007-234.061-.032-351.092.08-9.09.008-17.455-1.388-24.82-7.612 1.18-1.876 2.474-3.609 3.987-5.123 45.515-45.551 91.053-91.079 136.578-136.62 1.408-1.408 2.72-2.912 4.229-4.687zM294.077 666.037c-20.948.354-41.821.55-62.692.393-6.683-.05-12.474-3-17.105-8.184 31.35-31.62 62.525-62.767 93.7-93.914 24.438-.068 48.878.036 73.31-.35 4.983-.078 9.937-2 15.274-3.166-.889 1.773-1.884 3.903-3.445 5.47-31.614 31.717-63.295 63.367-94.95 95.044-1.403 1.405-2.68 2.937-4.092 4.707z"/><path fill="#790217" d="M307.52 564.239c-30.715 31.24-61.89 62.388-93.373 93.69-5.472-4.383-8.047-10.29-8.137-16.966-.229-16.972-.33-33.953-.004-50.922.278-14.567 12.669-25.809 28.162-25.884 24.298-.117 48.596-.018 73.353.082z"/></svg>