<svg xmlns="http://www.w3.org/2000/svg" xml:space="preserve" width="1400" height="458.9" viewBox="23.6 167.1 1400 458.9"><path d="M1205.8 349.8c.1-1.4 0-2.7 0-3.9v-77.5c0-1.3-.1-2.7-.4-4-7.5-28-20.9-52.4-43.3-71.2-18.4-15.5-39.4-24.1-63.7-24.1H647.8c-1.6 0-3.2-.1-4.9 0v58.7c1.2.5 2.3.9 3.3 1.3 7.9 2.5 15.8 5 23.8 7.5 79.8 25.3 159.6 50.5 239.5 75.8 37.7 11.9 75.4 23.9 113.1 35.8 2.4.7 4.9 1.4 7.3 1.4 57.3.1 114.7.1 172 .1 1.2.1 2.6.2 3.9.1zM983.6 346c-51.4-16.3-102.4-32.5-154-48.8v226.7c-22.2 11.2-44.1 22.3-65.9 33.2V624h269.5V494h-49.6V346zm17.4 17.8v114h204.5v-114H1001z" style="fill:#cf8a61" transform="matrix(.94529 0 0 .94529 -548.718 9.142)"/><path d="M429.845 600.893H171.308v-66.265l62.295-31.384V287.53l149.355 47.359v139.335h46.887zm-254.755-3.781h250.974V478.005h-46.887V337.63L237.29 292.634v212.88l-62.295 31.383zm417.722-134.42H395.72V351.148h197.092zm-193.406-3.782h189.625V354.93H399.406Zm190.476-117.215h-66.454c-39.418 0-69.762 0-98.593-.095-2.553 0-5.105-.662-7.468-1.418l-68.912-21.836c-12.666-3.97-25.333-8.035-38-12.005-53.22-16.826-106.44-33.747-159.66-50.573l-70.14-22.214c-6.333-1.985-12.667-3.97-19-6.05-.756-.284-1.512-.567-2.174-.85-.378-.095-.662-.284-1.04-.379l-1.229-.473V167.29l1.796-.094c1.135-.095 2.174 0 3.214 0h427.27c22.498 0 43.2 7.845 61.444 23.254 20.23 17.11 33.841 39.418 41.498 68.25.378 1.512.473 3.119.473 4.253V337.252c0 .85.094 1.796 0 2.741l-.095 1.607-1.607.095h-1.323zm-2.363-3.781H589.315V262.858c0-.946 0-2.174-.284-3.309-7.467-28.075-20.702-49.817-40.364-66.36-17.582-14.84-37.433-22.308-58.986-22.308H60.993v52.37c.662.283 1.23.472 1.89.66 6.334 1.986 12.668 4.066 19.001 6.05l70.14 22.215c53.22 16.826 106.44 33.747 159.66 50.573 12.667 3.97 25.333 8.035 38 12.005l68.912 21.836c2.08.662 4.348 1.229 6.333 1.324 28.832 0 59.175.094 98.594.094h56.434z"/><path d="m1205.8 349.8-178.8-.1L642.9 228v-58.9c1.7-.1 177.2 0 263.4 0h192.1c24.3 0 45.4 8.6 63.7 24.1 22.4 18.9 35.8 43.2 43.3 71.2.3 1.3.4 2.7.4 4 .1 25.9 0 81.4 0 81.4z" style="fill:#cf8a61" transform="matrix(.94529 0 0 .94529 -548.718 9.142)"/><path d="M593.001 341.695 421.81 341.6l-.284-.094L57.118 225.99v-58.796l1.796-.095h430.578c22.498 0 43.2 7.846 61.444 23.254 20.23 17.11 33.841 39.419 41.498 68.25.378 1.512.473 3.12.473 4.254v76.852zm-170.53-3.876 166.844.095v-75.056c0-.946 0-2.174-.284-3.309-7.467-28.075-20.702-49.817-40.364-66.36-17.582-14.84-37.433-22.308-58.986-22.308H60.993v52.464z"/><path d="M983.6 346v148h49.6v130H763.7v-66.9c21.7-11 43.6-22 65.9-33.2V297.2c51.6 16.4 102.6 32.5 154 48.8z" style="fill:#cf8a61" transform="matrix(.94529 0 0 .94529 -548.718 9.142)"/><path d="M429.845 600.893H171.308v-66.265l62.295-31.384V287.53l149.355 47.359v139.335h46.887zm-254.755-3.781h250.974V478.005h-46.887V337.63L237.29 292.634v212.88l-62.295 31.383z"/><path d="M1001 363.8h204.5v114H1001v-114z" style="fill:#cf8a61" transform="matrix(.94529 0 0 .94529 -548.718 9.142)"/><path d="M592.812 462.692H395.72V351.148h197.092zm-193.406-3.782h189.625V354.93H399.406Z"/><g aria-label="Alpha" style="font-style:normal;font-variant:normal;font-weight:400;font-stretch:normal;font-size:292.61712646px;line-height:1.25;font-family:Impact;-inkscape-font-specification:Impact;letter-spacing:0;word-spacing:0;fill:#0f0f0f;fill-opacity:1;stroke:none;stroke-width:1.52404749"><path d="m897.2 426.967 34.434 231.322h-61.581l-3-41.578h-21.575l-3.572 41.578H779.61l30.576-231.322zm-31.862 148.738q-4.572-39.292-9.144-97.015-9.145 66.296-11.43 97.015zM999.645 426.967V658.29h-59.438V426.967ZM1079.085 468.688l-1 16.717q7.716-10.145 17.003-15.145 9.287-5.001 20.289-5.001 13.43 0 23.146 7.287 9.859 7.144 12.288 16.574 2.429 9.43 2.429 32.005v79.87q0 25.86-3.143 36.862-3 10.86-12.574 17.432-9.43 6.43-22.86 6.43-10.716 0-19.86-5.002-9.145-5-16.718-14.86v43.436h-57.723V468.688Zm16.432 55.151q0-17.574-1.286-21.289-1.286-3.714-7.144-3.714-5.715 0-7.43 4.286-1.572 4.286-1.572 20.717v78.584q0 17.146 1.715 21.432 1.714 4.286 7.43 4.286 5.572 0 6.858-3.857 1.429-4 1.429-19.146zM1229.966 426.967v52.008q7.43-6.858 16.003-10.287 8.715-3.43 18.574-3.43 15.145 0 25.718 7.716 10.716 7.716 13.002 17.86 2.43 10.002 2.43 36.72V658.29h-57.724V524.84q0-16.573-1.715-21.288-1.571-4.715-7.286-4.715-5.287 0-7.144 4.857-1.858 4.858-1.858 19.29v135.306h-57.723V426.967ZM1377.132 542.128h-54.151v-12.716q0-22.004 5-33.863 5.144-12.002 20.432-21.146 15.288-9.144 39.72-9.144 29.291 0 44.15 10.43 14.86 10.287 17.86 25.433 3 15.002 3 62.01v95.157h-56.15v-16.86q-5.287 10.145-13.717 15.288-8.287 5.001-19.86 5.001-15.146 0-27.862-8.43-12.573-8.572-12.573-37.291v-15.574q0-21.29 6.715-29.005t33.291-18.002q28.433-11.145 30.433-15.003 2-3.858 2-15.717 0-14.859-2.285-19.288-2.144-4.572-7.287-4.572-5.858 0-7.287 3.857-1.429 3.715-1.429 19.575zm18.289 26.004q-13.86 10.145-16.146 17.003-2.143 6.858-2.143 19.717 0 14.717 1.857 19.003 2 4.286 7.716 4.286 5.43 0 7.001-3.286 1.715-3.429 1.715-17.717z" style="fill:#0f0f0f;fill-opacity:1;stroke-width:1.52404749" transform="matrix(1.09472 0 0 .91348 -200.7 0)"/></g><g aria-label="FinalBurn" style="font-style:normal;font-variant:normal;font-weight:400;font-stretch:normal;font-size:129.25238037px;line-height:1.25;font-family:Impact;-inkscape-font-specification:Impact;letter-spacing:0;word-spacing:0;fill:#0f0f0f;fill-opacity:1;stroke:none;stroke-width:2.05194569"><path d="M812.952 278.245h44.998v20.448h-18.428v19.375h16.409v19.439h-16.41v42.915h-26.57zM889.885 278.245v13.316H863.63v-13.316zm0 18.428v83.75H863.63v-83.75zM924.975 296.673l-.442 7.7q2.777-4.607 6.753-6.88 4.04-2.334 9.277-2.334 6.564 0 10.73 3.092 4.165 3.093 5.364 7.826 1.199 4.67 1.199 15.652v58.693h-25.497v-58q0-8.645-.568-10.539-.568-1.893-3.156-1.893-2.713 0-3.408 2.209-.694 2.146-.694 11.612v56.611h-25.497v-83.749zM989.412 329.113h-23.92v-5.617q0-9.72 2.21-14.958 2.271-5.301 9.024-9.34 6.753-4.04 17.545-4.04 12.938 0 19.502 4.608 6.563 4.544 7.889 11.234 1.325 6.626 1.325 27.39v42.032h-24.803v-7.447q-2.335 4.481-6.058 6.753-3.661 2.209-8.773 2.209-6.69 0-12.307-3.724-5.554-3.786-5.554-16.472v-6.879q0-9.403 2.967-12.811 2.966-3.408 14.705-7.952 12.559-4.923 13.442-6.627.884-1.704.884-6.942 0-6.564-1.01-8.52-.946-2.02-3.218-2.02-2.588 0-3.22 1.704-.63 1.64-.63 8.646zm8.078 11.486q-6.122 4.48-7.132 7.51-.946 3.03-.946 8.71 0 6.5.82 8.393.884 1.894 3.408 1.894 2.398 0 3.093-1.452.757-1.514.757-7.826zM1058.014 278.245v102.177h-26.254V278.245ZM1067.922 278.245h26.507q12.56 0 18.997 1.956 6.5 1.957 10.476 7.952 3.976 5.933 3.976 19.186 0 8.962-2.84 12.496-2.777 3.535-11.044 5.428 9.214 2.083 12.496 6.942 3.282 4.797 3.282 14.768v9.467q0 10.35-2.398 15.336-2.336 4.986-7.51 6.816-5.176 1.83-21.206 1.83h-30.735zm26.57 17.482v22.72q1.704-.063 2.651-.063 3.913 0 4.986-1.894 1.073-1.956 1.073-11.044 0-4.797-.884-6.69-.883-1.956-2.335-2.461-1.388-.505-5.49-.568zm0 38.624v28.59q5.617-.19 7.132-1.768 1.578-1.577 1.578-7.762v-9.53q0-6.564-1.389-7.952-1.388-1.389-7.32-1.578zM1196.922 296.673v83.75h-25.938l.441-6.943q-2.65 4.229-6.563 6.374-3.85 2.083-8.899 2.083-5.743 0-9.53-2.02-3.786-2.02-5.617-5.364-1.767-3.345-2.209-6.942-.441-3.66-.441-14.453v-56.485h25.497v56.99q0 9.782.568 11.613.63 1.83 3.281 1.83 2.84 0 3.345-1.894.568-1.893.568-12.18v-56.359zM1231.57 296.673l-1.01 10.982q5.555-11.802 16.094-12.496v29.473q-7.005 0-10.287 1.893-3.282 1.893-4.039 5.302-.757 3.344-.757 15.525v33.07h-25.497v-83.749zM1278.273 296.673l-.442 7.7q2.777-4.607 6.753-6.88 4.04-2.334 9.278-2.334 6.563 0 10.729 3.092 4.165 3.093 5.364 7.826 1.2 4.67 1.2 15.652v58.693h-25.498v-58q0-8.645-.568-10.539-.568-1.893-3.155-1.893-2.714 0-3.408 2.209-.695 2.146-.695 11.612v56.611h-25.497v-83.749z" style="fill:#0f0f0f;fill-opacity:1;stroke-width:2.05194569" transform="matrix(1.09472 0 0 .91348 -202.7 0)"/></g></svg>