<svg xmlns="http://www.w3.org/2000/svg" xml:space="preserve" id="Layer_1" x="0" y="0" style="enable-background:new 0 0 3840 1260" version="1.1" viewBox="0 0 3840 1260"><style id="style2" type="text/css">.st0{fill:#009971}</style><g id="g83" style="fill:#009971;fill-opacity:1"><path id="path4" d="M1400.6 933.8c10.6-115 107.3-205 225.1-205s214.4 90 225.1 205h79.3c-10.8-158.7-142.9-284.1-304.3-284.1s-293.5 125.4-304.3 284.1h79.1z" class="st0" style="fill:#009971;fill-opacity:1"/><path id="path6" d="M1625.6 1180.9c-119.6 0-217.5-93-225.5-210.6h-79.2c8.1 161.3 141.4 289.6 304.7 289.6s296.7-128.3 304.7-289.6h-79.2c-7.9 117.7-105.8 210.6-225.5 210.6z" class="st0" style="fill:#009971;fill-opacity:1"/><path id="rect8" d="M1039.7 970.3h79.1v269.8h-79.1z" class="st0" style="fill:#009971;fill-opacity:1"/><path id="polygon10" d="M1347.9 669.9H813.8V749h225.9v184.8h79.1V749h229.1z" class="st0" style="fill:#009971;fill-opacity:1"/><path id="rect12" d="M2728.6 970.3h79.1v269.8h-79.1z" class="st0" style="fill:#009971;fill-opacity:1"/><path id="path14" d="M3162.2 1161.1h-19.4l-84.9-190.7h-86.5l109.2 245.3c6.6 14.9 21.4 24.4 37.6 24.4h122.9V970.3H3162v190.8h.2z" class="st0" style="fill:#009971;fill-opacity:1"/><path id="rect16" d="M3162.2 669.9h79.1v263.9h-79.1z" class="st0" style="fill:#009971;fill-opacity:1"/><path id="path18" d="M2935 694.4c-6.6-14.9-21.4-24.4-37.6-24.4h-168.8v263.9h79.1V749h65.2l82.3 184.8h86.5L2935 694.4z" class="st0" style="fill:#009971;fill-opacity:1"/><path id="polygon20" d="M2532.5 933.8h81l58.5-263.9h-81z" class="st0" style="fill:#009971;fill-opacity:1"/><path id="polygon22" d="M2140 1164.8h-14.5l-43.1-194.5h-81l59.8 269.8h143l59.8-269.8h-80.9z" class="st0" style="fill:#009971;fill-opacity:1"/><path id="polygon24" d="M2481.3 1164.8h-14.4l-43.1-194.5h-81l59.8 269.8h143l59.8-269.8h-81z" class="st0" style="fill:#009971;fill-opacity:1"/><path id="polygon26" d="M2357.2 669.9h-107.5l-58.5 263.9h80.9l31.3-141 31.3 141h81z" class="st0" style="fill:#009971;fill-opacity:1"/><path id="polygon28" d="M2015.8 669.9h-81l58.5 263.9h81z" class="st0" style="fill:#009971;fill-opacity:1"/><path id="path30" d="M3418.3 922h223.1c21.4 0 39.8 4.3 55.5 11.8h114.4c-31.1-52.4-87.3-90.5-168.8-90.8h-224.2c-62.7 0-62.7-94 0-94h388.6v-79.1h-388.6c-168 0-168 252.1 0 252.1z" class="st0" style="fill:#009971;fill-opacity:1"/><path id="path32" d="M3828.2 970.3h-88.6c47.9 69.8 15.2 190.7-98.2 190.7h-347.3v79.1h347.3c164.7 0 227-153.6 186.8-269.8z" class="st0" style="fill:#009971;fill-opacity:1"/><g id="g51" style="fill:#009971;fill-opacity:1"><g id="layer1_6_" style="fill:#009971;fill-opacity:1" transform="translate(-398.571 -700.482)"><g id="g5598_6_" style="fill:#009971;fill-opacity:1" transform="matrix(4.25245 0 0 -4.25245 426.906 839.407)"><path id="path5600_6_" d="M316-47.5h14.7c2.8 0 5.4-2 5.5-4.7h.1v11.1H316v19.4h19.6c2.8 0 5.4-2 5.5-4.7h.1v11.1h-41.1v-.1c2.8-.2 4.8-3.1 4.8-5.8V-72c0-2.7-2.1-5.7-4.8-5.8v-.1h20.7v.1c-2.8.2-4.9 3.1-4.9 5.8l.1 24.5z" class="st0" style="fill:#009971;fill-opacity:1"/></g><g id="g5602_6_" style="fill:#009971;fill-opacity:1" transform="matrix(4.25245 0 0 -4.25245 499.928 863.105)"><path id="path5604_6_" d="M341.3-55.7c0-6.5 5.4-12.2 12.1-12.2s12.2 5.7 12.2 12.2v39.8c0 2.7-2.1 5.7-4.9 5.8v.1h20.8c-2.8-.2-4.9-3.1-4.9-5.8v-38.7c0-12.5-10.3-19.7-23.1-19.7s-23.3 7.3-23.3 19.7v38.7c0 2.7-2.1 5.7-4.8 5.8v.1h20.7v-.1c-2.8-.2-4.8-3.1-4.8-5.8v-39.9z" class="st0" style="fill:#009971;fill-opacity:1"/></g><g id="g5606_6_" style="fill:#009971;fill-opacity:1" transform="matrix(4.25245 0 0 -4.25245 791.72 801.679)"><path id="path5608_6_" d="M442.3-34.4c-3.5 5.6-11.4 4.9-11.4 4.9-13 0-12.4-9.9-12.4-9.9s-.9-5 5.6-8.3l13-6.9c12.5-6.7 11-16.2 11-16.2s.6-17.8-25.6-17.8c0 0-7.6-.2-11.9 1.4l-3.7 11.5h.1c4-5.7 15.6-6.6 15.6-6.6 14.7.6 14.8 10.6 14.8 10.6s.7 4.3-5.1 7.4l-12.9 6.9c-13.5 7.2-11.9 16.9-11.9 16.9S407.1-23 430.3-23c0 0 10.4-.3 12.1-1.9v-9.5h-.1z" class="st0" style="fill:#009971;fill-opacity:1"/></g><g id="g5610_6_" style="fill:#009971;fill-opacity:1" transform="matrix(4.25245 0 0 -4.25245 617.714 746.69)"><path id="path5612_6_" d="M382-15.4c2.3-2.2 5.5-3.6 9-3.6 7.1 0 12.8 5.6 12.8 12.4S398.1 5.8 391 5.8c0 0-9.8.9-14.3-11.3v9.2c3.3 4.2 8.4 7.2 14.2 7.2 10 0 18-7.8 18-17.5s-8.1-17.5-18-17.5c-5 0-9.5 2-12.7 5.1l-6.2 6.8c-1.7 1.6-4 2.7-6.6 2.7-5.2 0-9.3-4.1-9.3-9.1s4.2-9.1 9.3-9.1c0 0 6.9-.9 11.3 7.4v-7.4c-2.7-3.1-6.7-5.2-11.3-5.2-8.1 0-14.6 6.4-14.6 14.2s6.5 14.2 14.6 14.2c4 0 7.7-1.6 10.3-4.2l6.3-6.7z" class="st0" style="fill:#009971;fill-opacity:1"/></g><g id="g5614_6_" style="fill:#009971;fill-opacity:1" transform="matrix(4.25245 0 0 -4.25245 623.424 794.231)"><path id="path5616_6_" d="M384-31.9c0 2.7-2.1 5.5-4.9 5.7v.1h20.7v-.1c-2.7-.2-4.8-3-4.8-5.7v-50.9c0-2.7 2.1-5.7 4.8-5.8v-.1h-20.7v.1c2.8.2 4.9 3.1 4.9 5.8v50.9z" class="st0" style="fill:#009971;fill-opacity:1"/></g><g id="g5618_6_" style="fill:#009971;fill-opacity:1" transform="matrix(4.25245 0 0 -4.25245 601.049 794.46)"><path id="path5620_6_" d="M376.3-31.9c0 2.7 2.1 5.7 4.8 5.8v.1h-20.7v-.1c2.8-.2 4.8-3.1 4.8-5.8v-63.7s-.2-11.2-9.3-17.7v-.1c1.8.3 20.3 3.7 20.3 21.6l.1 59.9z" class="st0" style="fill:#009971;fill-opacity:1"/></g><g id="g5622_6_" style="fill:#009971;fill-opacity:1" transform="matrix(4.25245 0 0 -4.25245 650.575 803.645)"><path id="path5624_6_" d="M393.4-35.1h.1c2.8 4.9 7.1 4.9 7.1 4.9h11.2v-50.4c0-2.7-2.1-5.7-4.9-5.8v-.1h20.8v.1c-2.8.2-4.9 3.1-4.9 5.8v50.4h9.4c2.9 0 5.1-2.2 5.2-5h.1l3.4 11.3h-44.2l-3.3-11.2z" class="st0" style="fill:#009971;fill-opacity:1"/></g><g id="g5626_6_" style="fill:#009971;fill-opacity:1" transform="matrix(4.25245 0 0 -4.25245 828.405 863.105)"><path id="path5628_6_" d="M455-55.7c0-6.5 5.4-12.2 12.2-12.2 6.7 0 12.2 5.7 12.2 12.2v39.8c0 2.7-2.1 5.7-4.8 5.8v.1h20.7c-2.8-.2-4.8-3.1-4.8-5.8v-38.7c0-12.5-10.3-19.7-23.2-19.7-12.8 0-23.2 7.3-23.2 19.7v38.7c0 2.7-2.1 5.7-4.9 5.8v.1h20.7v-.1c-2.8-.2-4.9-3.1-4.9-5.8v-39.9z" class="st0" style="fill:#009971;fill-opacity:1"/></g></g></g><g id="g81" style="fill:#009971;fill-opacity:1"><path id="rect53" d="M31.3 1016.7h85.9v184.9H31.3z" class="st0" style="fill:#009971;fill-opacity:1"/><path id="rect55" d="M621.7 1006.4h85.9v203.3h-85.9z" class="st0" style="fill:#009971;fill-opacity:1"/><path id="polygon57" d="m564.1 1165.3-59.8 74.8-118-251.8 82.8-25.7z" class="st0" style="fill:#009971;fill-opacity:1"/><path id="rect59" d="M74.3 1080.7h140.5v54H74.3z" class="st0" style="fill:#009971;fill-opacity:1"/><path id="rect61" d="M375.6 997.3h54v204.3h-54z" class="st0" style="fill:#009971;fill-opacity:1"/><path id="rect63" d="M0 962.6h319.9v54H0z" class="st0" style="fill:#009971;fill-opacity:1"/><path id="polygon65" d="M344.3 1016.7h101.1l23.7-54.1H344.3z" class="st0" style="fill:#009971;fill-opacity:1"/><path id="rect67" d="M621.7 962.6h117.2v54H621.7z" class="st0" style="fill:#009971;fill-opacity:1"/><path id="rect69" d="M0 1186.1h148.6v54H0z" class="st0" style="fill:#009971;fill-opacity:1"/><path id="rect71" d="M590.3 1186.1h148.6v54H590.3z" class="st0" style="fill:#009971;fill-opacity:1"/><path id="rect73" d="M344.3 1186.1H461v54H344.3z" class="st0" style="fill:#009971;fill-opacity:1"/><path id="rect75" d="M250.6 983.7h69.3v87.3h-69.3z" class="st0" style="fill:#009971;fill-opacity:1"/><path id="polygon77" d="m614.9 962.6-116.8 235.6 39.5 41.9 137.6-277.5z" class="st0" style="fill:#009971;fill-opacity:1"/><path id="rect79" d="M504.3 1192.8h33.3v47.3h-33.3z" class="st0" style="fill:#009971;fill-opacity:1"/></g></g></svg>