<svg xmlns="http://www.w3.org/2000/svg" baseProfile="tiny" viewBox="0 0 655.7 153"><path d="M477.6.2c-.7 0-1.1.6-1.1 1.4l-.1 14.8c0 .7.6 1.1 1.4 1.1l6.8-.1c.8 0 1.4-.4 1.4-1.1v-2.7c0-.7-.6-1.1-1.4-1.1h-4.4c-.8 0-1.4-.4-1.4-1.1V1.5c-.1-.7-.4-1.3-1.2-1.3zm33.3 0h-.3c-.6.1-.9.7-.9 1.3l-.2 14.8c0 .5.2.8.6.9.1 0 .2.1.2.1.1 0 .2 0 .3.1h.3l6.8-.1c.8 0 1.4-.4 1.4-1.1v-2.7c0-.7-.6-1.1-1.4-1.1h-4.4c-.8 0-1.4-.4-1.4-1.1V1.5c.1-.7-.3-1.3-1-1.3zM404.5.2c-.8 0-1.4.4-1.4 1.1l.1 2.2V16c0 .8.4 1.4 1.1 1.4h.2c.6-.1.9-.7.9-1.4V6.2c0-.7.6-1.1 1.4-1.1h.9c.8 0 1.4.4 1.4 1.1l.9 5.2c0 .8.4 1.4 1.1 1.4h2.7c.6-.1.9-.6 1.2-1.3 0 0 2.8-6.7 2.9-6.9.3-.5.9-.5.9.1v11.4c0 .8.4 1.4 1.1 1.4h3c.1 0 .1 0 .2-.1.4-.2.5-.6.9-1.3l2.1-4.6c.3-.7.8-1.1 1.4-1.1h3.5c.8 0 1.4.4 1.4 1.1l.2 4.9c0 .5.2.8.6.9.1.1.3.1.4.1.6.1 1.5.1 2.1.1.6 0 1.6-.4 1.6-1.1V1.3c0-.7-.6-1.1-1.4-1.1h-7.3c-.8 0-1.2.4-1.4 1.1 0 0-4.8 12.2-4.9 12.5 0 0 0 .1-.1.1-.1.1-.2.1-.3.1-.3.1-.6 0-.6-.4V1.7c0-.8-.3-1.5-1-1.5h-2.6c-.7 0-1 .5-1.5 1.4 0 0-3.1 7.5-3.2 7.9 0 .1-.1.2-.2.2-.1.1-.2.1-.2.1-.2 0-.3-.1-.4-.3-.1-.5-1.5-8.2-1.5-8.2 0-.7-.6-1.1-1.4-1.1h-4.8zm134 0c-.8 0-1.4.4-1.4 1.1l-.1 15c0 .3.1.5.2.7s.3.3.6.4c.1 0 .2 0 .3.1h8.6c.1 0 .2 0 .3-.1.5-.1.8-.5.8-1 0-.7-.6-1.1-1.4-1.1h-5.7c-.7 0-1.3-.4-1.3-1.1l.1-7.9c0-.7.6-1.1 1.4-1.1h5.6c.8 0 1.4-.4 1.4-1.1V1.4c0-.7-.6-1.1-1.4-1.1l-8-.1zm24.5 0h-.3c-.6.1-1.1.5-1.1 1.1v1.1c0 4.3-.1 8.5-.1 12.8 0 .3 0 .5-.1.8v.4c0 .1.1.3.1.4.2.3.4.5.7.6.3.1.6.1.9.1h1.4c.2 0 .3 0 .4-.1.6-.1 1-.4 1.3-1.1l.2-4.9c0-.7.6-1.1 1.4-1.1h3.7c.8 0 1.4.4 1.4 1.1l.1 4.6c0 .8.4 1.4 1.1 1.4h.3c.6-.1.9-.7.9-1.4V9.8c0-1.1-.9-1.4-1.6-1.8-.2-.1-.4-.2-.5-.3s-.2-.3-.2-.5V1.3c0-.7-.6-1.1-1.4-1.1H563zm16.4 0h-.3c-.6.1-1.1.5-1.1 1.1l-.1 15c0 .4.2.6.4.8.1 0 .1.1.2.1.2.1.5.2.8.2h9.5c.8 0 1.4-.4 1.4-1.1l-.1-15c0-.7-.6-1.1-1.4-1.1h-9.3zm14.8 0h-.3c-.2 0-.3.1-.5.1-.4.2-.6.5-.6 1l.1 2.2V16c0 .7.3 1.2.9 1.4h.5c.6-.1.9-.7.9-1.4V6.2c0-.7.6-1.1 1.4-1.1h5c.8 0 1.4.4 1.4 1.1l.1 9.7c0 .8.4 1.4 1.1 1.4h.3c.6-.1.9-.7.9-1.4V1.3c0-.7-.6-1.1-1.4-1.1h-9.8zm23.6 0c-.6 0-1.1.2-1.3.6-.1.1-.1.3-.1.5l-.1 15c0 .3.1.5.2.7.2.3.7.5 1.1.5h8c.8 0 1.4-.4 1.4-1.1 0-.7-.6-1.1-1.4-1.1H620c-.8 0-1.4-.4-1.4-1.1l.1-7.9c0-.7.6-1.1 1.4-1.1h5.6c.8 0 1.4-.4 1.4-1.1V1.4c0-.7-.6-1.1-1.4-1.1l-7.9-.1zm-6.8 0c-.5 0-.8.2-.9.6-.1.1-.1.3-.1.5v.3l.1 9.9c0 .5-.3.9-.7 1-.1 0-.2 0-.2.1h-.8c-.8 0-1.5.4-1.5 1.1v2.6c0 .4.2.6.5.8.1 0 .1.1.2.1.2.1.5.2.8.2h4.5c.8 0 1.4-.4 1.4-1.1v-2.9c-.1-.6-.5-.7-1-.8-.2 0-.4-.1-.5-.1-.3-.1-.4-.4-.4-1V1.6c-.2-.8-.6-1.4-1.4-1.4zM440.8.2c-.8 0-1.4.4-1.4 1.1V4c0 .7.6 1.1 1.4 1.1h1.7c.8 0 1.4.4 1.4 1.1l-.1 9.9c0 .8.4 1.4 1.1 1.4h.2c.6-.1.9-.7.9-1.4V6.2c0-.6.5-1 1.1-1.1h5c.8 0 1.4.4 1.4 1.1v9.9c0 .8.4 1.4 1.1 1.4h.3c.6-.1.8-.7.8-1.4l-.1-9.9c0-.6.5-1 1.1-1.1h2c.8 0 1.4-.4 1.4-1.1V1.4c0-.7-.6-1.1-1.4-1.1L440.8.2zm109.5 0c-.2 0-.4 0-.5.1-.1 0-.2.1-.2.1-.4.2-.6.5-.6 1V4c0 .7.6 1.1 1.4 1.1h1.7c.8 0 1.4.4 1.4 1.1l-.1 9.9c0 .4.1.7.3 1 0 .1.1.1.2.2s.2.2.4.2h.5c.6-.1.9-.7.9-1.4V6.2c0-.6.5-1 1.1-1.1h2c.8 0 1.4-.4 1.4-1.1V1.4c0-.7-.6-1.1-1.4-1.1l-8.5-.1zm88.7 0-8.1.1h-.3c-.6.1-1.1.5-1.1 1.1l.1 7.6c0 .7.6 1.1 1.4 1.1l4 .1c.8 0 1.4.4 1.4 1.1l-.1 2.8c0 .2 0 .3-.1.5-.1.3-.4.5-.7.6h-6.6c-.6.1-1.1.5-1.1 1.1 0 .4.1.6.4.8.2.2.6.3 1 .3h10.7c.4 0 .7-.1 1-.3s.4-.5.4-.8l.1-7.4c0-.7-.6-1.1-1.4-1.1h-6.6c-.8 0-1.4-.4-1.4-1.1l-.1-3.1c0-.7.6-1.1 1.4-1.1h5.7c.8 0 1.4-.4 1.4-1.1S639.8.2 639 .2zM465.4.4c-.8 0-1.4.4-1.4 1.1v5.2c0 .8-.4 1.4-1.1 1.4h-1.5c-.8 0-1.4.4-1.4 1.1l-.1 7.1c0 .5.4.9.9 1.1.1 0 .2 0 .2.1h11.4c.8 0 1.4-.4 1.4-1.1 0-.7-.6-1.1-1.4-1.1h-8.7c-.8 0-1.4-.4-1.4-1.1l.1-2.6c0-.7.6-1.1 1.4-1.1h9c.1 0 .2 0 .2-.1.5-.1.9-.5.9-1 0-.6-.5-1-1.1-1.1h-2.5c-.4-.1-.7-.2-.9-.4-.1-.2-.2-.4-.2-.7l.1-3.2c0-.7.6-1.1 1.4-1.1h1.8c.8 0 1.4-.4 1.4-1.1 0-.7-.6-1.1-1.4-1.1l-7.1-.3zm33.2 0c-.5 0-.9.1-1.1.4 0 .1-.1.1-.1.2-.1.1-.1.3-.1.5v5.2c0 .8-.4 1.4-1.1 1.4h-1.5c-.8 0-1.4.4-1.4 1.1l-.1 7.1c0 .3.1.5.2.7.1.2.4.3.6.4.1 0 .2 0 .3.1h11.4c.8 0 1.4-.4 1.4-1.1 0-.7-.6-1.1-1.4-1.1H497c-.8 0-1.4-.4-1.4-1.1l.1-2.6c0-.7.6-1.1 1.4-1.1h8.9c.1 0 .2 0 .3-.1.5-.1.8-.5.8-1 0-.6-.5-1-1.1-1.1h-2.5c-.4-.1-.7-.2-.9-.4-.1-.2-.2-.4-.2-.7l.1-3.2c0-.7.6-1.1 1.4-1.1h1.8c.8 0 1.4-.4 1.4-1.1 0-.7-.6-1.1-1.4-1.1l-7.1-.3zm27.6 0c-.5 0-.9.1-1.1.4 0 .1-.1.1-.1.2-.1.1-.1.3-.1.5v5.2c0 .8-.4 1.4-1.1 1.4h-1.5c-.8 0-1.4.4-1.4 1.1l-.1 7.1c0 .3.1.5.2.7.1.2.3.3.6.4.1 0 .2 0 .3.1s.2 0 .3 0h11.1c.8 0 1.4-.4 1.4-1.1 0-.7-.6-1.1-1.4-1.1h-8.7c-.8 0-1.4-.4-1.4-1.1l.1-2.6c0-.7.6-1.1 1.4-1.1h8.9c.1 0 .2 0 .3-.1.5-.1.9-.5.9-1 0-.6-.5-1-1.1-1.1h-2.5c-.4-.1-.7-.2-.9-.4-.3-.4-.3-.7-.3-.9l.1-3.2c0-.7.6-1.1 1.4-1.1h1.8c.8 0 1.4-.4 1.4-1.1 0-.7-.6-1.1-1.4-1.1l-7.1-.1zm-95.6 2.2h3.1c.8 0 1.4.4 1.4 1.1l.1 3.2c0 .7-.6 1.1-1.4 1.1h-4.5c-1.6 0-1.4-1.1-1.3-1.5l1.3-2.9c.3-.5.6-1 1.3-1zm134.8 0h3.8c.8 0 1.4.4 1.4 1.1l.1 3.2c0 .7-.6 1.1-1.4 1.1h-3.9c-.8 0-1.4-.4-1.4-1.1l.1-3.2c-.1-.7.5-1.1 1.3-1.1zm16.2 0h5c.8 0 1.4.4 1.4 1.1l.1 7.9c0 .7-.6 1.1-1.4 1.1h-5.1c-.8 0-1.4-.4-1.4-1.1l.1-7.9c-.1-.7.5-1.1 1.3-1.1zM377.8 6.7s-17.5 67.3-18 68.9c-.6 2-2.5 2.6-3.5.3-1.2-2.4-14.5-47.9-14.5-47.9h-24.2s18.1 59.2 18.9 61c8.6 18.4 27.5 11 31.3-2.4 4-13.9 21.1-79.8 21.1-79.8l-11.1-.1zm-249.7 5.1L90.5 35.7v-7.6H78.6v33c0 .8-1.5 2.3-2.9.3 0 0-15.9-22.8-21.7-29.7-4.8-5.7-21.5-5.4-21.5 8.1v59h11.9V57.3c0-2.3 2-1.5 3.3-.1.6.7 26.2 39.6 27.3 41.2 2.6 3.5 15.5 6.1 15.5-7.2v-53h11.7c1.2 0 2.8 1.4 2.8 1.4 0 1.2-.2 37.5-.2 42.3 0 10.8 8.9 18.1 18.6 18.1h21.5V89.4H135c-3.5 0-6.3-2.6-6.3-6.2V42.4c0-2.2 1.8-5.3 5.3-5.3s11-.1 11-.1v-9h-14.8c-1.4 0-2.1-1.1-2.1-2.1V11.8zM.2 12.2S0 95.1 0 100.1h23.2V12.2H.2zm541.5 15c-11.1 0-21.1 4.6-28.1 12-.4.4-.8.9-1.2 1.3-5.4 6.3-8.7 14.5-8.7 23.3 0 5.1 1.1 9.9 3 14.3.2.5.5 1.1.8 1.6 4.5 9.1 12.8 16.1 22.9 19.2.6.2 1.2.3 1.8.5 3 .8 6.2 1.2 9.5 1.2 21 0 38-16.4 38-36.7 0-20.3-17-36.7-38-36.7zm-101.3.5c-13.9 0-24.7 10-24.7 24.1 0 14.6 16.1 19.2 24.6 20.1 5.3.6 10.5 4.3 10.5 9.5 0 4.2-3.6 7.6-7.6 7.6h-24.8v10.5h28.8c13.3-.7 23.9-11.4 23.9-24.6 0-2.2-.1-4.1-.4-5.8-.1-.4-.2-.8-.3-1.3-2.4-11-11-13.2-24.5-16.7 0 0-7.2-2.2-7.2-6.5 0-2.7 1.6-4.5 3.7-5.5.2-.1.4-.2.7-.3 1.1-.4 2.3-.6 3.6-.6l16.8.1V27.7h-23.1zm-151.3.1s-.2 7.4-.2 12.3l23.2-.1V27.8h-23zm98.3 0s-.2 7.4-.2 12.3l23.1-.1V27.8h-22.9zm88.6 0s-.2 7.4-.2 12.3l23.1-.1V27.8H476zm-310.7.1c-6.6 0-11.5 3.4-13.8 9.1-.2.5-.4 1-.6 1.6-.7 2.2-1.1 4.7-1.1 7.4v35.3c0 10.8 5.8 18.5 15.5 18.5H200V89.2h-20.7c-3.5 0-6.3-3-6.3-6.6V68.9h23.7V58.4H173V44.5c0-3.5 2.8-6.2 6.4-6.2H200V27.9h-34.7zm39.6.1s-.2 48.9-.2 53.8c0 2 .3 3.9.8 5.7.2.6.4 1.2.6 1.7 2.5 6 8.1 10 14.6 10.6.6.1 1.2.1 1.8.1H244V89.4h-9.5c-3.5 0-6.3-2.6-6.3-6.2V28h-23.3zm41 0s-.2 48.9-.2 53.8c0 10.1 7.2 17.1 16.1 18 .6.1 1.2.1 1.8.1h21.5V89.4h-9.9c-3.5 0-6.4-2.6-6.4-6.2V28h-22.9zm383.5.2v33c0 .8-1.5 2.3-2.9.3 0 0-15.9-22.8-21.6-29.7-4.8-5.7-21.5-5.4-21.6 8.1v59h11.9V57.3c0-2.3 2-1.5 3.3-.1.6.7 26.2 39.6 27.3 41.2.5.7 1.3 1.3 2.4 1.8.4.2.7.3 1.1.5 4.7 1.6 12 .5 12-9.4v-63h-11.9v-.1zm-87.7 7.5c9.2 0 12.9 12.6 12.9 28.2 0 15.5-4.3 28.1-12.9 28.2-2.3 0-4.3-.8-5.9-2.2l-.6-.6c-.6-.6-1.1-1.3-1.6-2-.2-.3-.3-.5-.5-.8-3-5.1-4.2-13.4-4.2-22.6V61c.2-8.5 1.1-15.9 4-20.5.2-.3.3-.5.5-.7 2-2.5 4.6-4.1 8.3-4.1zm-252.6 8.9s-.2 50.5-.2 55.4h23.2V44.6h-23zm98.3 0s-.2 50.5-.2 55.4h23.1V44.6h-22.9zm88.6 0s-.2 50.5-.2 55.4h23.1V44.6H476z"/><g fill-rule="evenodd"><path d="M643.1 3.5h-.4V.9h1c.6 0 .9.2.9.7 0 .5-.3.7-.7.7l.7 1.1h-.4l-.7-1.1h-.4v1.2zm.5-1.5c.3 0 .6 0 .6-.4 0-.3-.3-.4-.6-.4h-.5V2h.5z"/><path d="M641.4 2.2c0-1.3 1-2.2 2.2-2.2 1.2 0 2.2.9 2.2 2.2 0 1.3-1 2.2-2.2 2.2-1.2 0-2.2-.9-2.2-2.2zm2.2 1.8c1 0 1.8-.8 1.8-1.8s-.8-1.8-1.8-1.8-1.8.8-1.8 1.8c0 1.1.8 1.8 1.8 1.8z"/></g><path d="M648.6 92.9h-1.9v5.4h-1.3v-5.4h-2v-1.1h5.3v1.1zm7.1 5.4h-1.4V93l-1.2 5.3h-1.3l-1.2-5.3v5.3h-1.4v-6.6h2l1.2 5 1.2-5h2v6.6zM180 141.5h-4.9v-37.9h4.9v37.9zm29.7 0h-4.4v-19.9c0-1.1-.5-2.1-1.6-2.9-1.1-.9-2.4-1.3-4-1.3-2.2 0-3.9.8-5.3 2.4s-2.1 3.6-2.1 6v15.8H188v-27.3h4.4v3.5c1.9-2.9 4.6-4.3 8.1-4.3 3.3 0 5.8.8 7.4 2.5 1.2 1.3 1.9 3 1.9 5v20.5zm16.9.9c-1.3.2-2.5.4-3.7.4-1.5 0-2.8-.4-3.7-1.3-.8-.8-1.2-1.6-1.2-2.7v-20.6h-3.8v-4h3.8v-7.4h4.4v7.4h4.3v4h-4.3v19.2c0 .9.6 1.3 1.9 1.3.5 0 1.3-.1 2.4-.3v4zm27.9-14.4c0 .7 0 1.2-.1 1.6h-19.9c0 .2-.1.6-.1 1 0 2.2.8 4.1 2.3 5.8s3.3 2.5 5.4 2.5c3.6 0 6-1.9 7.3-5.7h4.5c-1.5 6.3-5.2 9.5-11.3 9.5-8.5 0-12.7-4.9-12.7-14.8 0-4.2 1.2-7.7 3.5-10.4s5.3-4.1 8.9-4.1c3.6 0 6.4 1.1 8.5 3.3 2.4 2.6 3.6 6.4 3.7 11.3zm-4.7-2.2c-.6-5.9-3-8.8-7.4-8.8-4.5 0-7.1 2.9-7.8 8.8h15.2zm14.8 15.7h-4.4v-37.9h4.4v37.9zm11.6 0h-4.4v-37.9h4.4v37.9zm11.4-32.5h-4.4v-5.4h4.4v5.4zm0 32.5h-4.4v-27.3h4.4v27.3zm29.2-2.3c0 5.8-1.8 9.8-5.4 12-1.9 1.1-4.2 1.7-6.9 1.7-3.2 0-5.8-.8-7.8-2.5s-3-3.6-2.9-5.9h4.5c0 1.6.9 2.8 2.5 3.6 1.2.6 2.5.9 3.8.9 5.1 0 7.7-2.9 7.7-8.7 0-.2 0-.5.1-1s.1-.8.1-1.1c-3.3 3-6.1 4.5-8.6 4.5-2.9 0-5.4-1.2-7.5-3.6-2.3-2.7-3.4-6.3-3.4-10.8 0-4.6 1.1-8.3 3.2-10.9 2.1-2.6 5-4 8.4-4 3.3 0 5.9 1.4 7.9 4.3v-3.5h4.4v25zm-4.4-10.6c0-6.9-2.7-10.3-8-10.3-2.2 0-3.8 1-5.1 2.9s-1.9 4.5-1.9 7.8c0 2.9.7 5.2 2 7 1.4 1.8 3.2 2.7 5.5 2.7 2.2 0 4-.9 5.4-2.8 1.4-1.9 2.1-4.4 2.1-7.3zm34.5-.6c0 .7 0 1.2-.1 1.6H327c0 .2-.1.6-.1 1 0 2.2.8 4.1 2.3 5.8s3.3 2.5 5.4 2.5c3.6 0 6-1.9 7.3-5.7h4.5c-1.5 6.3-5.2 9.5-11.3 9.5-8.5 0-12.7-4.9-12.7-14.8 0-4.2 1.2-7.7 3.5-10.4s5.3-4.1 8.9-4.1c3.6 0 6.4 1.1 8.5 3.3 2.4 2.6 3.6 6.4 3.6 11.3zm-4.6-2.2c-.6-5.9-3-8.8-7.4-8.8-4.5 0-7.1 2.9-7.8 8.8h15.2zm32.1 15.7H370v-19.9c0-1.1-.5-2.1-1.6-2.9s-2.4-1.3-4-1.3c-2.1 0-3.9.8-5.3 2.4s-2.1 3.6-2.1 6v15.8h-4.4v-27.3h4.4v3.5c1.9-2.9 4.6-4.3 8.1-4.3 3.3 0 5.8.8 7.4 2.5 1.2 1.3 1.9 3 1.9 5v20.5zm16.9.9c-1.3.2-2.5.4-3.7.4-1.5 0-2.8-.4-3.7-1.3-.8-.8-1.2-1.6-1.2-2.7v-20.6h-3.8v-4h3.8v-7.4h4.4v7.4h4.3v4H387v19.2c0 .9.6 1.3 1.9 1.3.5 0 1.3-.1 2.4-.3v4zm46.5-34.4h-12.4v33.6h-4.9V108H408v-4.3h29.7v4.3zm27.6 20c0 .7 0 1.2-.1 1.6h-19.9c0 .2-.1.6-.1 1 0 2.2.8 4.1 2.3 5.8s3.3 2.5 5.4 2.5c3.6 0 6-1.9 7.3-5.7h4.5c-1.5 6.3-5.2 9.5-11.3 9.5-8.5 0-12.7-4.9-12.7-14.8 0-4.2 1.2-7.7 3.5-10.4s5.3-4.1 8.9-4.1c3.6 0 6.4 1.1 8.5 3.3 2.5 2.6 3.7 6.4 3.7 11.3zm-4.6-2.2c-.6-5.9-3-8.8-7.4-8.8-4.5 0-7.1 2.9-7.8 8.8h15.2zm14.8 15.7h-4.4v-37.9h4.4v37.9zm30.3-13.5c0 .7 0 1.2-.1 1.6H486c0 .2-.1.6-.1 1 0 2.2.8 4.1 2.3 5.8s3.3 2.5 5.4 2.5c3.6 0 6-1.9 7.3-5.7h4.5c-1.5 6.3-5.2 9.5-11.3 9.5-8.5 0-12.7-4.9-12.7-14.8 0-4.2 1.2-7.7 3.5-10.4s5.3-4.1 8.9-4.1c3.6 0 6.4 1.1 8.5 3.3 2.3 2.6 3.6 6.4 3.6 11.3zm-4.6-2.2c-.6-5.9-3-8.8-7.4-8.8-4.5 0-7.1 2.9-7.8 8.8h15.2zm32.1-11.6-10.5 27.3h-4.7l-9.6-27.3h4.9l7.1 22 7.9-22h4.9zm8.5-5.2h-4.4v-5.4h4.4v5.4zm0 32.5h-4.4v-27.3h4.4v27.3zm27.6-7.4c0 2.7-1 4.8-3.1 6.3s-4.7 2.3-7.9 2.3c-4.1 0-7-.8-8.7-2.4-1.5-1.4-2.3-3.6-2.4-6.8h4.2c0 1.8.7 3.3 2.2 4.3 1.3.9 2.8 1.3 4.6 1.3 2 0 3.6-.4 4.9-1.1 1.3-.7 1.9-1.9 1.9-3.3 0-1.9-1.2-3.2-3.5-3.8l-6.8-1.6c-2.6-.6-4.4-1.6-5.5-3-.9-1.1-1.3-2.7-1.3-4.7 0-2.5 1-4.4 2.9-5.9s4.5-2.2 7.7-2.2c3 0 5.3.7 7 2.2 1.7 1.4 2.6 3.5 2.7 6.3h-4.3c-.1-2.9-2.1-4.4-6.1-4.4-1.5 0-2.8.4-4 1.2-1.2.8-1.8 1.8-1.8 3 0 1.7 1.3 2.8 3.8 3.4l7.1 1.7c4.3 1 6.4 3.4 6.4 7.2zm10-25.1h-4.4v-5.4h4.4v5.4zm0 32.5h-4.4v-27.3h4.4v27.3zm30.2-13.8c0 4.4-.9 7.9-2.7 10.5-2.1 3-5.3 4.5-9.6 4.5-4.1 0-7.1-1.3-9.3-4-2-2.6-3.1-6.2-3.1-11 0-4.4 1.1-7.9 3.2-10.5 2.1-2.5 5.2-3.8 9.1-3.8s7 1.3 9.1 3.8c2.3 2.6 3.3 6.1 3.3 10.5zm-4.4 0c0-3.1-.8-5.5-2.3-7.4-1.4-1.7-3.3-2.5-5.5-2.5-2.3 0-4.1.8-5.5 2.5-1.6 1.8-2.3 4.3-2.3 7.4 0 3.2.7 5.8 2.1 7.7 1.4 1.9 3.3 2.9 5.7 2.9s4.3-1 5.7-2.9c1.4-1.9 2.1-4.5 2.1-7.7zm32.1 13.8H633v-19.9c0-1.1-.5-2.1-1.6-2.9s-2.4-1.3-4-1.3c-2.1 0-3.9.8-5.3 2.4s-2.1 3.6-2.1 6v15.8h-4.4v-27.3h4.4v3.5c1.9-2.9 4.6-4.3 8.1-4.3 3.3 0 5.8.8 7.4 2.5 1.2 1.3 1.9 3 1.9 5v20.5z"/></svg>