<svg xmlns="http://www.w3.org/2000/svg" xml:space="preserve" width="570.756" height="210.914"><defs><clipPath id="a" clipPathUnits="userSpaceOnUse"><path d="M0 168.731h456.605V0H0v168.731Z"/></clipPath></defs><g clip-path="url(#a)" transform="matrix(1.25 0 0 -1.25 0 210.914)"><path d="M0 0h-17.432v30.692h-4.212V-3.966H0V0Zm4.281 20.785c0-6.755-.107-13.334.051-19.907.065-2.737 1.863-4.536 4.436-5.379 4.532-1.485 8.506-.371 12.271 3.366-.191-3.682 1.78-2.848 3.547-2.67v24.519h-4.239c0-4.535.108-8.858-.052-13.171-.067-1.805-.411-3.72-1.145-5.354-1.217-2.713-4.182-3.89-6.995-3.247-3.121.712-3.512 3.024-3.489 5.692.047 5.336.014 10.672.014 16.151H4.281zm25.777-7.569c1.9.524 4.022.534 4.335 1.291 1.707 4.129 5.039 3.381 8.152 3.044 2.037-.22 3.315-1.502 3.226-3.817-.087-2.24-1.66-2.569-3.354-2.883-2.934-.543-5.952-.85-8.766-1.769-3.376-1.102-4.808-3.732-4.616-7.225.183-3.322 2.149-5.602 5.561-6.579 4.159-1.191 7.656.353 9.896 1.951 2.78-.936 4.717-1.681 6.716-2.182.398-.099 1.364.666 1.474 1.163.153.694-.133 2.121-.438 2.181-2.642.517-2.002 2.516-2.023 4.166-.047 3.717-.008 7.436-.016 11.154-.01 4.851-1.67 6.901-6.211 7.697-6.672 1.171-12.023-.754-13.395-4.867-.251-.752-.268-1.582-.541-3.325m6.229 16.157c8.758.029 15.777 7.073 15.681 15.737-.097 8.715-7.126 15.554-15.924 15.492-8.578-.061-15.444-6.967-15.495-15.585-.051-8.672 6.992-15.673 15.738-15.644M14.314-30.172c-29.1-.169-53.061 23.59-53.226 52.779-.165 29.387 23.363 53.187 52.854 53.464 29.098.274 53.217-23.506 53.377-52.625C67.481-6.175 43.929-30 14.314-30.172" style="fill:#00007f;fill-opacity:1;fill-rule:nonzero;stroke:none" transform="translate(38.913 30.173)"/><path d="M0 0c.026 8.699 6.794 15.358 15.573 15.323C24.22 15.288 31.054 8.386 30.99-.25c-.063-8.525-7.116-15.454-15.676-15.399C6.686-15.595-.026-8.736 0 0" style="fill:#00007f;fill-opacity:1;fill-rule:nonzero;stroke:none" transform="translate(90.868 106.425)"/><path d="M0 0c.882-6.759-2.713-10.603-8.58-9.065-1.307.343-3.137 1.962-3.175 3.047-.046 1.331 1.256 3.469 2.476 3.93C-6.345-.98-3.119-.648 0 0" style="fill:#00007f;fill-opacity:1;fill-rule:nonzero;stroke:none" transform="translate(84.39 38.27)"/><path d="M0 0c.472 8.475 4.649 13.004 12.532 13.586 8.025-.395 12.395-3.93 13.108-10.605l-8.612.033c-.494 3.183-1.329 5.286-2.503 6.307-1.175 1.043-2.372.867-3.59-.527C9.727 7.4 9.09 4.54 9.024.214c-.12-5.72.472-8.958 1.779-9.716 1.306-.746 2.624-.653 3.952.28 1.329.933 2.042 2.882 2.141 5.846l-4.496.017-.049 3.622h13.24c-.637-7.454-3.145-11.736-7.526-12.844-4.38-1.109-8.382-.802-12.005.922C2.437-9.936.417-6.049 0 0" style="fill:#00007f;fill-opacity:1;fill-rule:nonzero;stroke:none" transform="translate(113.317 38.334)"/><path d="M0 0c-2.064-.088-3.134-1.685-3.211-4.792v-4.973c.164-3.052 1.257-4.65 3.277-4.793 1.976.209 2.948 1.093 2.915 2.652v8.678C3.134-1.263 2.141-.187 0 0m2.882 1.746 7.723-.017v-18.51h-7.74l-.016.626c-.604-.472-2.443-.653-5.517-.543-3.14.066-5.445 1.065-6.916 2.997-1.471 1.943-2.114 4.051-1.927 6.323.033 2.086.62 3.98 1.762 5.682C-8.607.005-6.422 1.263-3.195 2.075c3.063.209 5.089-.104 6.077-.939v.61z" style="fill:#00007f;fill-opacity:1;fill-rule:nonzero;stroke:none" transform="translate(152.362 41.825)"/><path d="M0 0c3.93.626 6.4-.593 7.41-3.656.527 1.383 2.268 2.684 5.221 3.903 5.16.758 7.937-1.153 8.332-5.731v-13.355l-6.471.033.049 11c.066 2.514-.972 3.717-3.112 3.607-1.856.274-3.195-.61-4.019-2.652v-12.07H.758h1.333H.758v12.63c0 1.669-.978 2.591-2.932 2.767-1.372.121-2.404-.538-3.096-1.976v-13.421h-6.768V-.758H-5.928h-1.334 2.025l-.016-2.206C-3.771-1.252-2.02-.263 0 0" style="fill:#00007f;fill-opacity:1;fill-rule:nonzero;stroke:none" transform="translate(176.356 43.999)"/><path d="M0 0c-1.91-.099-2.893-1.575-2.948-4.43h5.715C2.745-1.707 1.822-.231 0 0m-.099 2.009C6.39 1.811 9.787-1.29 10.095-7.295H-2.948c-.099-3.985.385-6.242 1.449-6.768 1.065-.516 2.119-.451 3.162.197 1.065.648 1.488 2.124 1.268 4.43H9.93 8.497 9.93c-.977-3.941-3.03-6.247-6.159-6.916-3.129-.67-6.066-.473-8.81.592-2.734 1.076-4.512 3.535-5.336 7.378l-.016 1.284c.812 5.797 4.243 8.833 10.292 9.107" style="fill:#00007f;fill-opacity:1;fill-rule:nonzero;stroke:none" transform="translate(209.21 41.825)"/><path d="M0 0h21.672v-5.22L7.46-5.204v-5.945h11.28v-4.034H7.46v-11.149H0V0Z" style="fill:#00007f;fill-opacity:1;fill-rule:nonzero;stroke:none" transform="translate(226.929 51.459)"/><path d="M0 0c5.105.428 7.652-1.449 7.641-5.632H1.713C1.757-3.744.587-2.838-1.795-2.915c-1.295-.285-1.949-.927-1.96-1.927v-13.421h-8.019V-.099H-4.545-6.11h2.388l-.016-2.206C-2.904-1.12-1.658-.351 0 0" style="fill:#00007f;fill-opacity:1;fill-rule:nonzero;stroke:none" transform="translate(262.021 43.34)"/><path d="M0 0c-2.064-.088-3.134-1.685-3.211-4.792v-4.973c.164-3.052 1.257-4.65 3.277-4.793 1.976.209 2.948 1.093 2.915 2.652v8.678C3.134-1.263 2.141-.187 0 0m2.882 1.746 7.723-.017v-18.51h-7.74l-.016.626c-.604-.472-2.443-.653-5.517-.543-3.14.066-5.445 1.065-6.916 2.997-1.471 1.943-2.114 4.051-1.927 6.323.033 2.086.62 3.98 1.762 5.682C-8.607.005-6.422 1.263-3.195 2.075c3.063.209 5.089-.104 6.077-.939v.61z" style="fill:#00007f;fill-opacity:1;fill-rule:nonzero;stroke:none" transform="translate(282.425 41.825)"/><path d="M0 0c3.93.626 6.4-.593 7.41-3.656.527 1.383 2.268 2.684 5.221 3.903 5.16.758 7.937-1.153 8.332-5.731v-13.355l-6.471.033.049 11c.066 2.514-.972 3.717-3.112 3.607-1.856.274-3.195-.61-4.019-2.652v-12.07H.758h1.333H.758v12.63c0 1.669-.978 2.591-2.932 2.767-1.372.121-2.404-.538-3.096-1.976v-13.421h-6.768V-.758H-5.928h-1.334 2.025l-.016-2.206C-3.771-1.252-2.02-.263 0 0" style="fill:#00007f;fill-opacity:1;fill-rule:nonzero;stroke:none" transform="translate(306.418 43.999)"/><path d="M0 0c-1.91-.099-2.893-1.575-2.948-4.43h5.715C2.745-1.707 1.822-.231 0 0m-.099 2.009c6.488-.198 9.886-3.299 10.194-9.304H-2.948c-.099-3.985.385-6.242 1.449-6.768 1.065-.516 2.119-.451 3.162.197 1.065.648 1.488 2.124 1.268 4.43H9.93 8.497 9.93c-.977-3.941-3.03-6.247-6.159-6.916-3.129-.67-6.065-.473-8.81.592-2.734 1.076-4.512 3.535-5.336 7.378l-.016 1.284c.812 5.797 4.243 8.833 10.292 9.107" style="fill:#00007f;fill-opacity:1;fill-rule:nonzero;stroke:none" transform="translate(339.272 41.825)"/><path d="M0 0h7.509l3.261-12.005L14.87 0h6.999l4.265-12.005L29.395 0h7.443l-7.443-19.07h-6.9l-4.1 11.478-3.953-11.478H7.509L0 0Z" style="fill:#00007f;fill-opacity:1;fill-rule:nonzero;stroke:none" transform="translate(350.684 44.196)"/><path d="M0 0c-2.185-.066-3.305-1.493-3.359-4.282v-5.5c.153-2.723 1.295-4.155 3.425-4.298 2.108.198 3.14 1.663 3.096 4.397v5.335C3.107-1.471 2.053-.022 0 0m-10.819-6.422c.285 3.282 1.41 5.577 3.376 6.883 1.965 1.307 4.325 1.916 7.081 1.828H.856c3.008-.154 5.358-.952 7.049-2.396 1.69-1.444 2.651-3.532 2.881-6.266.077-3.392-.867-5.852-2.832-7.378C6-15.255 3.617-16.149.807-16.435H-.461c-3.612.275-6.219 1.219-7.822 2.833-1.592 1.591-2.438 3.985-2.536 7.18" style="fill:#00007f;fill-opacity:1;fill-rule:nonzero;stroke:none" transform="translate(399.79 41.562)"/><path d="M0 0c5.105.428 7.652-1.449 7.641-5.632H1.713C1.757-3.744.587-2.838-1.795-2.915c-1.295-.285-1.949-.927-1.96-1.927v-13.421h-8.019V-.099H-4.545-6.11h2.388l-.016-2.206C-2.904-1.12-1.658-.351 0 0" style="fill:#00007f;fill-opacity:1;fill-rule:nonzero;stroke:none" transform="translate(423.867 43.34)"/><path d="M0 0h-8.02v18.164l.033 8.152H.016L0 15.2l6.867 8.629h4.15l-5.303-7.048L15.793-.049H7.081L.675 10.21l-.576-.692L0 0Z" style="fill:#00007f;fill-opacity:1;fill-rule:nonzero;stroke:none" transform="translate(440.812 25.077)"/><path d="M0 0c-1.923-.838-3.451-2.564-4.437-4.832-.592-1.528-.74-4.19-.74-14.692v-12.819h-3.796c-5.128 0-7.543-1.183-9.516-4.634-1.922-3.254-1.922-5.719-.098-9.22 1.873-3.648 4.338-4.881 9.515-4.881h3.846l.148-21.299c.197-20.411.246-21.496 1.282-24.602 2.07-6.163 7.099-12.276 12.276-14.889 5.522-2.811 14.594-3.846 21.003-2.416 5.226 1.232 7.987 4.881 7.642 10.205-.246 3.747-1.725 6.015-5.078 7.642-2.416 1.184-3.994 1.184-9.269.05-3.057-.691-6.902.542-8.431 2.563-.986 1.381-1.035 2.022-1.183 22.088l-.148 20.658h6.804c9.269.049 11.192.888 13.509 6.114.739 1.676.986 3.007.789 4.289-.345 2.761-2.663 5.916-5.276 7.248-1.923.986-2.909 1.084-8.973 1.084h-6.754l-.148 13.706-.148 13.756-1.43 1.824C8.875.247 3.698 1.627 0 0" style="fill:#7a7777;fill-opacity:1;fill-rule:nonzero;stroke:none" transform="translate(263.183 168.047)"/><path d="M0 0c-2.367-1.085-3.402-2.169-4.437-4.634-.641-1.578-.74-7.889-.74-51.473 0-46.345.049-49.796.888-51.373 3.056-6.114 11.98-6.656 15.727-.987l1.381 2.12v49.796c0 27.413-.148 50.437-.345 51.177C11.537-2.169 7.297.937 3.846.937 2.81.937 1.085.493 0 0" style="fill:#7a7777;fill-opacity:1;fill-rule:nonzero;stroke:none" transform="translate(137.954 166.322)"/><path d="M0 0c-11.586-2.712-19.918-9.22-23.764-18.637-2.81-6.951-3.106-9.909-3.106-33.871 0-21.397 0-21.989 1.035-24.109 2.17-4.437 7.79-6.311 12.277-4.043 2.317 1.184 3.747 3.106 4.388 5.966.295 1.282.542 10.847.542 23.419 0 20.066.049 21.348 1.035 24.208 1.233 3.697 3.698 6.656 6.459 7.79 2.81 1.134 8.825 1.479 12.375.739 3.353-.69 5.818-2.564 7.346-5.62 2.071-4.191 4.881-6.213 8.53-6.213 2.958 0 5.078.937 7.001 3.106 3.5 3.994 3.303 7.938-.641 13.756C27.412-4.536 19.08.049 8.184.493 4.782.592 1.923.444 0 0" style="fill:#7a7777;fill-opacity:1;fill-rule:nonzero;stroke:none" transform="translate(336.645 135.507)"/><path d="M0 0c-2.268-1.183-3.254-2.219-4.24-4.339-.838-1.824-.937-3.697-.937-24.306 0-18.538.148-22.975.789-26.131 1.43-6.951 3.895-11.586 9.022-17.058 3.6-3.797 7.692-6.41 12.573-8.037 3.5-1.134 4.782-1.282 10.649-1.331 5.917 0 7.1.148 10.6 1.331C49.451-76.222 56.797-68.285 60.002-56.6c1.035 3.747 1.084 5.078 1.282 26.377.197 23.912.098 24.898-2.219 27.61C54.48 2.86 46.197 1.479 43.387-5.177c-.641-1.578-.74-5.078-.74-23.764 0-20.658-.049-22.088-1.035-25.144-2.022-6.656-6.804-9.565-14.988-9.072-6.163.394-9.319 2.514-11.784 7.79-.986 2.12-1.035 3.204-1.282 26.18l-.246 23.961-1.331 1.972C9.565.394 3.698 1.972 0 0" style="fill:#7a7777;fill-opacity:1;fill-rule:nonzero;stroke:none" transform="translate(172.466 134.867)"/><path d="M0 0c2.81-1.183 5.423-3.796 7.001-6.853 3.747-7.346 3.254-23.863-.887-30.617-2.663-4.339-7.692-6.903-13.411-6.903-8.283 0-13.657 4.536-15.58 13.214-1.084 4.831-.788 17.403.493 21.052 1.923 5.473 4.832 8.579 9.96 10.649C-9.22 1.824-3.648 1.578 0 0m-14.347 18.932C-25.49 16.467-34.857 8.283-38.703-2.317c-2.268-6.311-2.81-9.713-2.81-18.883-.049-12.622 1.775-19.968 6.804-27.561 4.19-6.261 10.255-10.55 18.045-12.671 4.437-1.232 14.347-1.232 18.735-.049 9.318 2.564 16.763 8.628 20.904 17.108 2.761 5.769 4.142 11.537 4.536 19.524 1.233 22.088-8.529 38.851-25.194 43.288-4.338 1.184-12.572 1.43-16.664.493" style="fill:#7a7777;fill-opacity:1;fill-rule:nonzero;stroke:none" transform="translate(428.99 115.984)"/></g></svg>