<svg xmlns="http://www.w3.org/2000/svg" xml:space="preserve" width="85" height="46" viewBox="159.3 374.4 85 46"><path d="M159.9 374.4h83.8v46h-83.8z"/><path d="m237.5 409.7 11.5-11.4c0-.1.1-.2.1-.3l-11.6 8.8 11.8-12.3-11.8 9 11.3-12-11.3 9.2 10.9-12.3c-3.9-3.3-13.2-.4-21.3 6.8-8.4 7.6-12.4 16.9-8.8 21 3.6 4 13.4 1.2 21.8-6.4 2.3-2 4.2-4.2 5.8-6.4z" style="fill:#5a97d0" transform="translate(-36.2)"/><path d="M232.4 399.9h-4v10h4v-2.7h3.8v6.1h-9.7c-1 0-1.9-1-1.9-1.9v-12.8c0-1.4.7-1.9 1.8-1.9h9.7v6.6h-3.8v-3.4z" style="fill:#010101" transform="translate(-36.2)"/><path d="m257.6 384.8-11.5 11.4c0 .1-.1.2-.1.3l11.6-8.8-11.8 12.3 11.8-9-11.3 12 11.3-9.2-10.9 12.3c3.9 3.3 13.2.4 21.3-6.8 8.4-7.6 12.4-16.9 8.8-21-3.6-4-13.4-1.2-21.8 6.4-2.3 2-4.2 4.2-5.8 6.4z" style="fill:#dead2c" transform="translate(-36.2)"/><path d="M270.7 396.2c0 .9-1 1.9-1.9 1.9h-9.7v-16.5h9.7c.9.1 1.9.9 1.9 1.9zm-7.7-1.5h4v-10h-4z" style="fill:#010101" transform="translate(-36.2)"/><path d="M203.7 377.8c.3-.5.8-.9 1.4-.9h3.5v1.2c.5-.5 1-1.2 1.7-1.1h4.8v9.3h-3.2v-6.7c-.6-.1-.9.5-1.2 1-1.2 1.9-2.4 3.8-3.5 5.7h-3.4c1.4-2.3 2.8-4.5 4.2-6.8-.7 0-1.6-.2-2.2.4-1.3 2.1-2.6 4.3-4 6.4h-3.4c1.7-2.9 3.5-5.7 5.3-8.5zM216.4 378c.4-.6 1.3-1.2 2.1-1.1h7.2v2.1c-1.8.1-3.6 0-5.3 0-.7.2-.8 1.1-1.2 1.6h6.7c-.4.6-.9 1.2-1.3 1.8h-5.4v1.8h6.6v2h-9.9v-5.7c-.2-1 0-1.8.5-2.5zM227.2 377.7c.3-.4 1.1-.9 1.7-.9h7.7v2.1h-5c-1.1-.1-1.6 1.2-1.9 2.1 0 1.4-.3 1.4-.1 3.1 1.9.1 2.3.1 4.7 0 .1-.5 0-1 .1-1.5-.8-.1-.6-.1-2.2-.1.4-.7.8-1.3 1.1-2h4v4.7c0 .3-.1.6-.2.9-3.1.1-6.1 0-9.2.1-.8.1-1.3-.7-1.3-1.4v-5.1c-.2-.9.2-1.4.6-2zM238 376.8h5.2c.9-.1 1.6.7 2 1.4 1.6 2.7 3.3 5.3 4.9 8h-3.5c-.5-.6-.8-1.3-1.4-1.8h-3.1l-.9-1.5v3.3H238v-9.4zm3.3 2.1v3.5h2.8c-.6-.9-1.1-2-1.7-2.9-.3-.4-.7-.5-1.1-.6zM267.9 418.3v-5.4H266v-1.1h5.1v1.1h-1.9v5.4zM271.9 418.3v-6.4h1.9l1.2 4.4 1.2-4.4h2v6.4H277v-5.1l-1.3 5.1h-1.3l-1.3-5.1v5.1z" style="fill:#fff" transform="translate(-36.2)"/></svg>