<svg xmlns="http://www.w3.org/2000/svg" xml:space="preserve" width="567.5" height="90.32"><path d="M492.028 89.96c8.256-.162 16.444-.409 24.631-1.504 7.381-.984 15.09-1.993 22.254-4.029 5.428-1.542 10.057-3.437 15.895-6.56 6.832-3.654 12.602-10.143 12.596-16.239-.009-7.51-6.74-11.396-13.125-15.035-5.015-2.585-10.609-4.529-16.037-6.073-7.162-2.034-14.406-3.098-21.787-4.083-8.185-1.094-16.168-1.369-24.424-1.533-7.857-.154-16.084.158-23.941.341-6.061.141-11.971.417-18.031.325-8.963-.136-17.987-.469-26.934-1.09-5.355-.373-10.818-.862-16.148-1.512-6.055-.736-12.965-1.829-18.1-2.82-5.135-.995-8.492-2.027-12.68-3.249-4.125-1.204-8.322-2.533-12.31-4.142a60.158 60.158 0 0 1-7.156-3.453c-1.816-1.023-3.677-2.238-5.465-3.313-1.684-1.014-3.26-2.046-5.022-2.91-4.022-1.968-8.088-3.93-12.291-5.48a120.94 120.94 0 0 0-17.103-4.896C310.912 1.46 304.834.862 298.792.312c-3.056-.275-14.854-.49-14.854-.49s-11.802.215-14.854.49c-6.042.548-12.119 1.146-18.058 2.393-5.847 1.228-11.498 2.83-17.103 4.896-4.202 1.551-8.269 3.515-12.291 5.48-1.764.863-3.34 1.896-5.022 2.91-1.789 1.075-3.646 2.29-5.465 3.313a60.723 60.723 0 0 1-7.158 3.453c-3.985 1.607-8.184 2.938-12.31 4.142-4.187 1.222-7.543 2.254-12.679 3.248-5.135.993-12.044 2.085-18.1 2.821-5.33.647-10.793 1.14-16.149 1.512-8.944.621-17.968.954-26.933 1.09-6.062.092-11.971-.186-18.03-.325-7.858-.183-16.084-.495-23.943-.34-8.256.163-16.238.438-24.424 1.532-7.381.986-14.624 2.05-21.787 4.083-5.426 1.542-11.023 3.488-16.038 6.073C7.209 50.235.478 54.118.47 61.628c-.005 6.097 5.766 12.585 12.597 16.24 5.837 3.122 10.468 5.017 15.894 6.56 7.164 2.035 14.874 3.044 22.255 4.028 8.186 1.095 16.374 1.342 24.629 1.503.004 0 345.259.41 416.183 0z"/><linearGradient id="a" x1="284.45" x2="284.45" y1="-415.988" y2="-475.994" gradientTransform="matrix(1 0 0 -1 -.135 -389.255)" gradientUnits="userSpaceOnUse"><stop offset="0" style="stop-color:#f1f3f2"/><stop offset=".194" style="stop-color:#a4b5d3"/><stop offset=".586" style="stop-color:#f1f3f2"/><stop offset=".6" style="stop-color:#5878b5"/><stop offset="1" style="stop-color:#f1f3f2"/></linearGradient><path fill="url(#a)" d="M265.309 41.527c-5.688-.354-11.369-.9-17.009-1.721-2.925-.427-5.817-1.055-8.712-1.657-1.859-.387-3.73-.742-5.561-1.257-3.459-.974-6.947-1.953-10.215-3.45-3.813-1.746-9.41-5.425-10.83-6.402-1.42-.979-1.996-1.67-2.604-1.671-.753.024-1.433.39-2.233.697-4.707 1.814-9.4 3.699-14.236 5.138-6.178 1.835-12.483 3.243-18.816 4.436-6.262 1.178-12.591 2.008-18.928 2.676-7.372.774-14.779 1.199-22.184 1.537-6.226.285-12.458.354-18.69.415-8.47.083-16.94-.155-25.411-.062-8.062.091-16.143-.044-24.179.604-7.37.596-14.771 1.353-21.977 3.007-5.555 1.275-10.329 2.483-16.251 5.306-5.47 2.604-12.708 7.281-12.746 13.461-.038 6.116 7.126 10.469 12.45 13.479 2.818 1.594 11.498 4.311 17.459 5.708 6.875 1.611 13.932 2.436 20.966 3.055 8.415.739 16.884.649 25.331.779H477.7c8.446-.13 16.916-.04 25.33-.779 7.034-.619 14.092-1.44 20.967-3.055 5.961-1.397 14.641-4.114 17.459-5.708 5.324-3.01 12.487-7.36 12.451-13.479-.039-6.18-7.275-10.854-12.746-13.461-5.922-2.82-10.695-4.028-16.25-5.306-7.207-1.654-14.607-2.412-21.979-3.007-8.033-.647-16.115-.514-24.176-.604-8.471-.096-16.941.145-25.412.062-6.229-.063-12.465-.13-18.688-.415-7.406-.338-14.813-.762-22.185-1.537-6.338-.667-12.666-1.498-18.93-2.676-6.332-1.191-12.64-2.601-18.814-4.437-4.836-1.438-9.528-3.319-14.237-5.137-.802-.309-1.734-.729-2.284-.561-.509.086-1.69.94-2.55 1.533-3.455 2.379-7.021 4.656-10.832 6.402-3.269 1.498-6.757 2.478-10.216 3.45-1.829.515-3.698.87-5.56 1.257-2.896.604-5.788 1.23-8.714 1.657-5.639.819-11.318 1.364-17.007 1.721-14.104.403-16.633.291-19.963.287-9.494-.006-12.017.091-18.055-.285z"/><linearGradient id="b" x1="1.764" x2="1.764" y1="261.543" y2="259.414" gradientTransform="matrix(2.5123 0 0 -12.4474 281.807 3263.65)" gradientUnits="userSpaceOnUse"><stop offset="0" style="stop-color:#f1f3f2"/><stop offset=".898" style="stop-color:#a4b5d3"/><stop offset="1" style="stop-color:#5878b5"/></linearGradient><path fill="url(#b)" d="M343.188 22.236c0 7.391-25.497 13.383-56.951 13.383-31.451 0-56.949-5.992-56.949-13.383 0-7.393 25.498-13.385 56.949-13.385 31.452 0 56.951 5.992 56.951 13.385z"/><path d="M91.21 80.453c-8.445-.129-17.579.039-26.329-.688-5.462-.454-10.98-.904-16.284-2.293-5.424-1.419-11.206-2.718-15.668-6.11-2.922-2.225-6.594-5.285-6.594-8.827 0-2.274 1.791-4.304 3.475-5.805 4.464-3.979 10.615-5.685 16.348-7.388 6.58-1.957 13.513-2.559 20.352-3.153 8.204-.715 16.64-.402 24.701-.493M476.417 80.453c8.447-.129 17.658.041 26.447-.688 5.463-.454 10.981-.904 16.285-2.293 5.424-1.419 11.206-2.718 15.666-6.11 2.926-2.225 6.596-5.285 6.596-8.827 0-2.274-1.791-4.304-3.476-5.805-4.463-3.979-10.612-5.685-16.346-7.388-6.582-1.957-13.514-2.56-20.353-3.153-8.242-.718-16.759-.402-24.82-.493"/><path d="m87.73 45.695 389.851.008v34.75l-389.29-.12z"/><path fill="#0F0E43" d="M302.592 15.683c-.369 1.215-.74 2.438-1.108 3.667-.371 1.229-.742 2.465-1.112 3.708-.372 1.242-.742 2.488-1.113 3.742l-1.111 3.772c.186-.008.367-.016.552-.021.183-.008.364-.016.55-.022l.548-.025c.184-.008.367-.017.551-.024.372-1.212.743-2.419 1.114-3.62.372-1.199.743-2.396 1.114-3.583a989.117 989.117 0 0 1 2.225-7.043c.04-.158.103-.308.18-.438.078-.132.173-.248.278-.343.107-.097.229-.171.354-.221a1.086 1.086 0 0 1 .826.027c.129.057.252.139.356.239.107.101.204.221.281.354.078.133.138.283.18.44.313.979.629 1.953.943 2.919.313.967.628 1.927.94 2.879.313.953.629 1.899.942 2.839.313.938.629 1.869.942 2.794l-1.479.093c-.492.03-.984.061-1.479.089l-1.479.083c-.492.025-.986.052-1.479.076v2.153a392.86 392.86 0 0 0 4.399-.31 320.07 320.07 0 0 0 2.198-.178c.73-.062 1.465-.125 2.196-.19a557.474 557.474 0 0 1-3.332-10.152 682.912 682.912 0 0 1-1.114-3.517 3.948 3.948 0 0 0-.485-1.093 4.058 4.058 0 0 0-.781-.887 3.798 3.798 0 0 0-1.006-.609 3.486 3.486 0 0 0-1.166-.259 3.207 3.207 0 0 0-1.162.158c-.362.119-.7.303-1.002.539a3.522 3.522 0 0 0-.776.858 3.941 3.941 0 0 0-.485 1.106zm2.614 9.042.192-.622.194-.62.192-.619c.063-.206.13-.412.194-.617.066.204.136.407.203.608l.202.607.204.606c.066.201.135.403.202.604l-.396.013-.398.014-.396.012-.393.014zm-.326-7.086c-.332 1.044-.664 2.096-.996 3.151-.331 1.059-.663 2.12-.994 3.188-.332 1.067-.664 2.144-.998 3.222l-.994 3.25c.216-.012.429-.021.645-.032l.642-.032c.216-.013.431-.022.646-.036.214-.013.428-.023.643-.037.138-.446.274-.893.412-1.336.139-.444.273-.89.413-1.331.136-.441.272-.884.409-1.323.137-.44.272-.881.412-1.319v2.462l1.296-.063 1.293-.065c.432-.022.862-.046 1.294-.069s.861-.048 1.294-.073c-.257-.774-.513-1.555-.771-2.339a666.06 666.06 0 0 1-2.31-7.184 13.235 13.235 0 0 0-.172-.557 7.036 7.036 0 0 0-.267-.7 3.073 3.073 0 0 0-.341-.604c-.121-.158-.254-.26-.392-.265-.138-.004-.271.09-.395.242a2.85 2.85 0 0 0-.34.591 8.514 8.514 0 0 0-.266.697 21.39 21.39 0 0 0-.163.562zm-14.083-2.132c.645.003 1.285.007 1.93.012.644.005 1.283.012 1.928.019.643.006 1.284.015 1.928.021.645.008 1.285.019 1.929.026l-.001-.606v-1.213a61.409 61.409 0 0 1 0-.607 427.25 427.25 0 0 0-1.975-.045c-.657-.015-1.314-.025-1.976-.036a213.97 213.97 0 0 0-1.973-.026c-.659-.009-1.315-.015-1.976-.02a3.438 3.438 0 0 0-1.5.334 3.793 3.793 0 0 0-1.226.928 4.38 4.38 0 0 0-.827 1.382 4.853 4.853 0 0 0-.303 1.688V26.45c-.001.6.107 1.169.303 1.688.195.521.479.986.828 1.379.348.392.762.708 1.227.925.459.217.969.333 1.5.326.658-.008 1.316-.02 1.977-.03.658-.014 1.315-.028 1.976-.046.658-.019 1.314-.038 1.975-.061.657-.021 1.314-.048 1.976-.074v-2.834c-.002-.944-.002-1.891-.003-2.834v-2.833l-.001-2.833-1.563-.002-1.562-.003-1.559-.001-1.563-.001v1.694c.002.188 0 .377 0 .564l1.011-.003 1.011-.004 1.008-.004 1.008-.006.001 1.683v1.683l.001 1.681.001 1.683c-.459.013-.916.022-1.376.033-.46.01-.919.02-1.378.026s-.917.016-1.377.021l-1.377.018a1.659 1.659 0 0 1-.715-.154 1.794 1.794 0 0 1-.582-.438 2.107 2.107 0 0 1-.394-.654 2.264 2.264 0 0 1-.146-.804v-6.506l.001-2.168c0-.283.049-.557.143-.803.092-.247.229-.469.394-.654.166-.188.36-.337.582-.44.219-.102.46-.16.715-.157zm1.471 6.592V24.571l.321-.003c.106-.001.214-.001.32-.003l.32-.003c.105-.001.214-.001.318-.003v.153l.001.154v.307l-.319.004-.32.003-.32.003-.321.003a.51.51 0 0 1-.215-.047.548.548 0 0 1-.177-.131.704.704 0 0 1-.119-.196.71.71 0 0 1-.042-.239v-1.34l-.001-1.34v-2.68a.647.647 0 0 1 .161-.435.561.561 0 0 1 .177-.133.5.5 0 0 1 .216-.048l1.56.003c.521 0 1.039.002 1.563.004l1.562.006 1.56.007v-2.42c-.597-.009-1.191-.016-1.791-.021-.597-.007-1.191-.014-1.788-.019s-1.192-.011-1.791-.015l-1.789-.012a1.682 1.682 0 0 0-.716.159c-.22.104-.418.254-.585.439a2.092 2.092 0 0 0-.395.655 2.249 2.249 0 0 0-.146.802V21.9a575.36 575.36 0 0 0 0 1.858v1.857c0 .285.053.557.146.803.094.247.228.468.395.653.168.187.366.335.586.438.221.103.463.157.717.154l1.104-.014 1.103-.018 1.103-.021 1.104-.023-.001-1.377v-2.756l-.001-1.377-.873.005-.871.005c-.291.003-.582.004-.873.005s-.592.006-.883.007zm-14.138-6.542c.644-.008 1.285-.017 1.929-.021l1.928-.019 1.928-.012c.643-.003 1.283-.005 1.927-.006v-2.481a434.599 434.599 0 0 0-7.897.096 3.584 3.584 0 0 0-1.5.369 4.05 4.05 0 0 0-1.224.938c-.35.392-.632.854-.825 1.361a4.568 4.568 0 0 0-.306 1.646v2.184l-.001 2.183v2.183l-.001 2.183c0 .583.108 1.14.304 1.649.193.514.478.979.825 1.375.349.396.765.727 1.226.958.459.232.967.372 1.5.391.658.021 1.315.042 1.976.061.658.019 1.315.032 1.976.046.656.013 1.314.023 1.975.031.658.009 1.316.015 1.975.019V29.452l.002-.62v-.62a410.143 410.143 0 0 1-3.858-.038c-.643-.009-1.285-.021-1.928-.033-.645-.014-1.287-.028-1.93-.045a1.694 1.694 0 0 1-.713-.18 1.927 1.927 0 0 1-.584-.449 2.202 2.202 0 0 1-.539-1.447l.001-2.104v-2.104l.001-2.104v-2.103c0-.279.053-.546.146-.79.093-.242.228-.463.394-.647.166-.188.363-.337.583-.442a1.65 1.65 0 0 1 .71-.169zm6.054 5.929v-.567c0-.189 0-.379.002-.566V19.22h-1.285l-1.285.001-1.283.001-1.285.001a.618.618 0 0 1 .336-.564.53.53 0 0 1 .215-.051l1.561-.004c.521 0 1.041-.001 1.562-.003l1.562-.002 1.561-.001-.001-.618.001-.62v-1.236c-.597.001-1.191.002-1.789.005-.597.002-1.191.006-1.79.01-.597.004-1.192.007-1.791.013-.597.004-1.192.011-1.788.017a1.717 1.717 0 0 0-.715.167c-.22.104-.417.256-.583.441a2.1 2.1 0 0 0-.394.647 2.192 2.192 0 0 0-.146.79v3.25c.612.004 1.226.009 1.835.011l1.834.009c.611.003 1.225.004 1.836.006.608-.007 1.218-.005 1.83-.004zm0 .826v1.134c0 .188.002.378 0 .567 0 .188.002.378 0 .565a276.08 276.08 0 0 1-1.285-.008c-.429-.003-.855-.008-1.283-.012l-1.285-.014-1.285-.016c0 .085.016.165.042.238a.621.621 0 0 0 .294.331.515.515 0 0 0 .215.052l1.561.02a405.031 405.031 0 0 0 3.126.029l1.561.007v2.474c-.597-.002-1.191-.007-1.79-.012-.598-.005-1.192-.012-1.791-.02-.598-.009-1.192-.02-1.791-.028-.597-.01-1.192-.022-1.79-.037a1.69 1.69 0 0 1-.713-.177 1.926 1.926 0 0 1-.583-.45 2.145 2.145 0 0 1-.394-.653 2.26 2.26 0 0 1-.145-.793v-3.25l1.835.017 1.834.013 1.835.011c.609.008 1.22.011 1.832.012zm-18.86 2.658-1.155-.045-1.153-.049-1.156-.049-1.154-.051v2.011c.588.038 1.176.074 1.763.109.587.036 1.177.07 1.765.104a521.02 521.02 0 0 0 3.528.189l.021.001.022.001c.006 0 .017 0 .022.002l.023.001a2.255 2.255 0 0 0 1.688-.726c.216-.229.389-.507.509-.813a2.76 2.76 0 0 0 .188-1.006c0-.365-.069-.716-.194-1.036a2.758 2.758 0 0 0-.53-.854 2.494 2.494 0 0 0-.785-.579 2.37 2.37 0 0 0-.964-.222l-.694-.01a159.02 159.02 0 0 1-.696-.011l-.696-.01c-.23-.003-.463-.007-.693-.012a3.466 3.466 0 0 1-1.914-1.979 2.853 2.853 0 0 1-.166-.947c0-.424.097-.831.268-1.204a3.38 3.38 0 0 1 .712-.999 3.594 3.594 0 0 1 1.024-.695c.38-.169.789-.271 1.207-.283.574-.019 1.146-.033 1.721-.05.574-.017 1.146-.031 1.721-.046.574-.016 1.146-.028 1.721-.041.574-.014 1.146-.025 1.722-.037v-2.399c-.597.02-1.193.039-1.79.062a545.346 545.346 0 0 0-3.58.142c-.598.025-1.193.053-1.789.082a5.143 5.143 0 0 0-1.997.514 5.672 5.672 0 0 0-2.732 2.878 5.183 5.183 0 0 0-.402 2.003c0 .707.154 1.381.432 1.998a5.498 5.498 0 0 0 1.163 1.661c.486.48 1.063.882 1.692 1.167a5.309 5.309 0 0 0 2.025.481V24.197c0 .002.002.004.004.006l.004.008c0 .002.002.004.004.006l.002.006.41.014.407.013.41.013.409.014a.373.373 0 0 1 .141.033.39.39 0 0 1 .195.21.388.388 0 0 1-.001.301c-.021.045-.045.087-.079.12a.346.346 0 0 1-.258.103 57.343 57.343 0 0 0-.586-.021 38.236 38.236 0 0 0-.586-.022l-.586-.021c-.197.006-.391-.003-.587-.01zm3.035-6.497 1.158-.011 1.157-.009 1.159-.009c.385-.003.771-.007 1.158-.009V16.24l-1.766.031c-.591.012-1.18.022-1.768.036-.589.014-1.178.025-1.766.041-.59.016-1.178.028-1.767.044h-.022l-.023.001h-.045a2.432 2.432 0 0 0-.933.251 2.617 2.617 0 0 0-1.259 3.331c.125.302.308.578.53.811.226.231.491.421.788.555.296.132.623.209.965.214l.696.008.694.009.697.008.693.008a3.456 3.456 0 0 1 1.46 1.189c.188.269.345.565.45.884a3.097 3.097 0 0 1-.102 2.265c-.17.384-.416.723-.711 1.004a3.166 3.166 0 0 1-1.025.644 2.922 2.922 0 0 1-1.209.188 329.135 329.135 0 0 1-3.435-.201c-.573-.034-1.146-.071-1.718-.108-.57-.038-1.145-.076-1.716-.116V29.535c.595.054 1.19.105 1.784.155.596.052 1.19.101 1.787.146a350 350 0 0 0 3.574.267 4.599 4.599 0 0 0 1.998-.3 4.654 4.654 0 0 0 1.635-1.096 5.242 5.242 0 0 0 1.104-1.721 5.864 5.864 0 0 0 .405-2.162 5.7 5.7 0 0 0-1.597-3.962 5.385 5.385 0 0 0-1.694-1.188 4.938 4.938 0 0 0-2.027-.425v.032l-.004-.008-.004-.007-.005-.007-.004-.008-.409.001-.408.002-.407.002-.408.002a.345.345 0 0 1-.26-.108.391.391 0 0 1-.078-.416.398.398 0 0 1 .192-.205.33.33 0 0 1 .144-.031l.584-.007.586-.006a114.498 114.498 0 0 1 1.172-.012z"/><linearGradient id="c" x1="284.853" x2="284.853" y1="-415.7" y2="-480.576" gradientTransform="matrix(1 0 0 -1 -1.135 -390.255)" gradientUnits="userSpaceOnUse"><stop offset="0" style="stop-color:#f1f3f2"/><stop offset=".194" style="stop-color:#a4b5d3"/><stop offset=".586" style="stop-color:#f1f3f2"/><stop offset=".6" style="stop-color:#5878b5"/><stop offset="1" style="stop-color:#f1f3f2"/></linearGradient><path fill="url(#c)" d="m413.979 49.74 4.438 6.651h12.134l-4.438-6.651h-12.134zm36.842 0-4.437 6.651h12.133l4.437-6.651h-12.133zm-386.569.571v6.082h59.302c0-3.322-2.405-6.025-5.385-6.082H64.252zm65.479 0v6.082h39.027v-6.082h-39.027zm50.052 0c-3.01.02-5.449 2.734-5.449 6.082H220.458v-6.082h-40.675zm51.572 0c-2.996.037-5.418 2.747-5.418 6.082h43.685c0-3.357-2.457-6.082-5.479-6.082-.057 0-.104-.002-.158 0h-32.63zm63.925 0v6.082h45.616c0-3.334-2.424-6.042-5.416-6.082h-40.2zm57.846 0v.031c-2.818.248-5.037 2.855-5.037 6.051h44.604c0-3.335-2.422-6.045-5.416-6.082h-34.151zm46.06 0v6.082h10.931v-6.082h-10.931zm68.012 0v6.082h39.028v-6.082h-39.028zm-427.941 5.29a7.024 7.024 0 0 0-7.032 7.033c0 3.89 3.142 7.063 7.032 7.063 3.892 0 7.033-3.174 7.033-7.063a7.022 7.022 0 0 0-7.033-7.033zm488.923 0c-3.891 0-7.063 3.143-7.063 7.033 0 3.89 3.174 7.063 7.063 7.063 3.891 0 7.033-3.174 7.033-7.063a7.026 7.026 0 0 0-7.033-7.033zM64.252 58.419v18.058h10.834V58.419H64.252zm24.107 0v18.058h10.865V58.419H88.359zm24.139 0v18.058h10.96V58.419h-10.96zm17.233 0v11.563c.146 3.611 3.46 6.494 7.508 6.494h31.52v-6.082H143.1c-1.345 0-2.407-1.096-2.407-2.438v-1.521h26.167v-5.574H143.1c-1.345 0-2.407-1.097-2.407-2.439h-1.015l-9.947-.003zm44.603 0v11.753h.031c.238 3.313 3.13 5.968 6.779 6.272v.03h32.026v-.03c4.069-.265 7.286-3.623 7.286-7.763 0-4.312-3.48-7.823-7.793-7.823-.042 0-.084-.002-.126 0h-18.722v5.574h13.525c1.096 0 1.965.9 1.965 1.996s-.869 1.964-1.965 1.964h-20.084a1.95 1.95 0 0 1-1.964-1.964v-10.01l-10.958.001zm51.604 0v18.058h10.93V58.419h-10.93zm32.724 0v5.387H238.8v7.097h19.862v5.574h10.961V58.419h-10.961zm36.618 0v18.058h10.93V58.419h-10.93zm34.658 0v10.012a1.95 1.95 0 0 1-1.965 1.964H307.73v6.082h26.294v-.03c3.842-.293 6.875-3.183 6.875-6.717V58.419h-10.961zm18.15 0v18.058h10.93V58.419h-10.93zm33.642 0v3.423c0 .021.003.042 0 .063a1.95 1.95 0 0 1-1.963 1.899H361.458v7.097h15.27l5.543 5.574h13.084l-7.539-7.57c2.854-1.159 4.88-3.954 4.88-7.224v-3.264h-.729l-10.237.002zm17.456 0v18.058h10.931V58.419h-10.931zm20.559 0 12.037 18.058h13.367l12.036-18.058h-12.133l-6.59 9.885-6.59-9.885h-12.127zm47.453 0v11.563c.147 3.611 3.461 6.494 7.508 6.494h31.521v-6.082h-25.659a2.444 2.444 0 0 1-2.439-2.438v-1.521h26.168v-5.574h-23.729a2.445 2.445 0 0 1-2.439-2.439l-10.931-.003z"/></svg>