<svg xmlns="http://www.w3.org/2000/svg" xmlns:i="&amp;ns_ai;" xml:space="preserve" width="1480" height="460"><g i:extraneous="self"><path d="M521.207 296.791 401.949 412.288l-1.333 1.289h-156.62L597.305 37.552v170.096L740.917 47.444v247.694h6.193L850.673 65.13h246.362l-37.186 82.886H915.145l-22.517 51.715h78.993l-37.025 85.89-65.831-.002-22.399 49.998h300.364l22.399-49.996h-139.158l96.45-220.491h248.204l-36.022 82.886h-149.392l-22.52 51.715h138.53l-59.478 135.886h176.389l22.396-49.996h-139.156l96.449-220.491h244.391l-36.022 82.886h-143.482l-22.515 51.715h136.643l-93.956 213.846H639.07v-116.2L521.207 420.392Zm-122.444 112.21v-4.578z" style="fill:#ffe5c0" transform="translate(-208.404 1.028)"/><path d="m512.875 329.448-95.974 92.947-5.324 5.157H217.654L616.438 3.126v168.875L760.049 11.797v233.401l87.147-193.555H1672.555l-47.957 110.348h-143.491l-10.557 24.252h136.717l-106.02 241.31H630.739v-95.75L512.875 454.818Zm-108.711 79.795v-18.309zm788.885-223h138.575l-59.48 135.889h146.493l10.095-22.537h-138.954l60.194-137.604h-146.364ZM872.964 322.13h270.271l10.096-22.535h-138.957l76.997-176.014-17.232 38.41H929.543l-10.559 24.252h78.912l-48.869 113.352H883.06Z" style="fill:#f7f7f7" transform="translate(-208.404 1.028)"/><path d="M520.474 313.116 412.857 417.342l-3.331 3.224H234.257L610.304 20.342l-.003 169.483L753.916 29.622v247.425l98.451-218.663h261.409l-43.348 96.62-144.651-.002-16.537 37.984h78.951l-42.946 99.622-65.9-.002-16.249 36.269h285.321l16.249-36.267h-139.054l102.454-234.225h263.165l-41.99 96.62-149.4-.002-16.536 37.984h138.555l-59.482 135.889h161.441l16.249-36.267H1301.01l102.456-234.225h259.351l-41.988 96.62h-143.49l-16.535 37.986h136.683l-99.988 227.576h-859.16V314.589L520.474 437.604Zm-115.578 96.006v-11.445z" style="fill:#a05f00" transform="translate(-208.404 1.028)"/><path d="M528.753 292.56 407.258 409.938l-1.002.967H252.368l350.374-371.99v170.198L746.709 48.905v245.85h8.1L858.626 64.746h244.453l-36.25 80.598h-145.07l-23.566 54.003h79.192l-36.129 83.599h-65.98l-23.482 52.29h303.617l23.482-52.287h-139.519l95.683-218.203h246.315l-35.112 80.598H1196.5l-23.569 54.003h138.864l-59.624 135.889h179.315l23.482-52.287h-139.516l95.682-218.203h242.493l-35.115 80.598H1474.68l-23.571 54.003h136.972l-93.18 211.558H646.908V293.001L528.753 416.016ZM404.865 407.472v-3.435z" style="fill:#f7f7f7" transform="translate(-208.404 1.028)"/><path d="m1613.484 143.356 32.042-73.731H1413.23l-90.32 209.215h139.223l-28.623 61.276h-188.474l59.48-135.889h-138.514l26.501-60.871h149.395l32.041-73.731h-236.11l-90.322 209.215h137.106l-28.624 61.276H845.591l27.562-61.276h65.783l32.02-74.613h-79.02l26.501-60.871h144.742l33.08-73.731H862.046L758.484 299.636h-15.853V59.326L599.019 219.533V49.027L262.993 404.674h144.184l125.959-120.893v118.772l118.927-121.954v126.197h838.122l89.933-202.569H1443.5l26.503-60.871z" style="fill:#ffa102" transform="translate(-208.404 1.028)"/><g transform="translate(-208.404 1.028)"><linearGradient id="a" x1="921.695" x2="921.695" y1="54.287" y2="211.82" gradientTransform="translate(-7)" gradientUnits="userSpaceOnUse"><stop offset="0" style="stop-color:#fff"/><stop offset=".791" style="stop-color:#ffa102"/></linearGradient><path d="M852.921 87.534c66.592-5.182 146.623 8.831 212.502 53.187l31.897-71.096H860.985Zm559.247-17.909-17.37 39.711c69.873-7.504 164.834-8.357 222.567 27.529l29.221-67.24zm-307.723 73.894c107.86.172 145.137-5.329 208.041-20.736 8.031-1.967 23.235-5.135 42.997-8.247L1375 69.625h-238.232Zm-504.366-43.234V49.027l-51.871 55.206c16.723-3.139 33.296-5.365 51.871-3.948zm120.433 50.79c3.55-10.763 11.608-20.671 23.18-29.33V59.326l-61.2 68.271c11.723 6.407 24.336 14.156 38.02 23.478z" style="fill:url(#a)"/></g></g></svg>