<svg xmlns="http://www.w3.org/2000/svg" xml:space="preserve" width="760" height="296.8" viewBox="241 210.9 760 296.8"><path d="M420.4 210.3h735v297.5h-735z" style="fill:#231f20" transform="translate(-166.9 .25)"/><path d="m1097.3 251.9-69.8 102 76 111.6H1033l-41.7-59.7-42.3 59.7h-69.3c1.6-3.9 76-111.6 76-111.6l-31.6-44H789.5c-6.2.5-14-1.6-17 5.7-1.1 2.3-1.6 5.7-.5 7.8 1.1 2.8 3.4 5.1 6.2 6.2l4.6.5H837c24.8.5 47.9 16.3 58.6 38.8 9.6 18.6 8.5 44.5-2.3 62.6-13.5 22.5-37.8 35.5-63.6 34.4h-150l-23.1-82.8-23.2 82.9h-54.7l-22-83.4-23.7 82.9h-60.8s55.8-200.1 59.2-213h51.2l23.7 89.1 24.3-89.1h50.2l43 155.6h99.7c6.7-.5 16.3 1.6 19.1-6.7 1.1-3.9 0-7.8-2.3-10.1s-5.7-2.8-9-2.8h-53.5c-25.3-.5-50.7-17.5-60.3-41.7-10.1-24.3-4.6-54.1 14.7-72.7 12.9-12.9 28.7-19.7 47.3-20.9H956l35.5 51.2 36.7-51.2z" style="fill:#fff" transform="translate(-166.9 .25)"/></svg>