<svg xmlns="http://www.w3.org/2000/svg" width="313" height="50" viewBox="0 0 82.815 13.229"><g style="font-style:normal;font-variant:normal;font-weight:400;font-stretch:normal;font-size:20.44046021px;line-height:12.77528667px;font-family:&quot;namco regular&quot;;-inkscape-font-specification:&quot;namco regular, &quot;;letter-spacing:0;word-spacing:0;fill:#fbe01b;fill-opacity:1;stroke:none;stroke-width:.51101148px;stroke-linecap:butt;stroke-linejoin:miter;stroke-opacity:1"><g aria-label="All Games" style="fill:#9abf5e"><path d="M82.798 0h-.212l-.256.806a.344.344 0 0 0-.063.169.957.957 0 0 1-.064-.148L81.927 0h-.212v1.145h.127V.17l.34.975h.126l.34-.954v.954h.149V0zm-1.612.148h.36V0h-.89v.148h.381v.997h.149zM75.94.002 69.55 5.17 63.195.002h-3.596l8.187 6.613-8.187 6.614h3.596l6.356-5.201 6.389 5.2h3.563l-8.154-6.613L79.503.002zm-17.4 6.613c0-2.953-.77-5.136-2.247-6.613H43.227c-1.54 1.477-2.311 3.66-2.311 6.613 0 2.954.77 5.137 2.311 6.614h13.066c1.477-1.478 2.247-3.693 2.247-6.614zm-2.183 0c0 .995-.224 2.022-.642 3.083l-.61 1.38H44.382l-.61-1.38a7.812 7.812 0 0 1-.642-3.083c0-1.573.418-3.05 1.252-4.43h10.723c.835 1.38 1.252 2.857 1.252 4.43zm-18.78.546V6.07l.964-.515c-.225-2.471-.963-4.333-2.215-5.553H23.259c-1.252 1.188-2.022 3.05-2.215 5.521h-2.118v2.184h2.118c.193 2.471.963 4.302 2.215 5.522h13.067c1.252-1.253 1.99-3.082 2.215-5.522zm-2.44-4.976a9.414 9.414 0 0 1 1.189 3.338H23.259c.193-1.252.578-2.343 1.188-3.338zm1.189 5.522a9.57 9.57 0 0 1-1.188 3.37h-10.69c-.611-.994-.996-2.118-1.189-3.37z"/><path d="M11.735 6.615 19.888.002h-3.595L9.937 5.17 3.549.002H.017l8.122 6.613L.017 13.23h3.532l6.388-5.201 6.356 5.2h3.595z"/></g></g></svg>