<svg xmlns="http://www.w3.org/2000/svg" xml:space="preserve" id="Layer_1" x="0" y="0" style="enable-background:new 0 0 3839 1424.2" version="1.1" viewBox="0 0 3839 1424.2"><style id="style2" type="text/css">.st0{fill:#fff}.st1{fill:#034693}</style><path id="path4" d="M3817.5 744.6c-14.1-34-33.3-63.9-57.2-89-23.9-25.2-52.1-45.4-83.5-60.1-32.4-15.1-66.6-22.7-101.5-22.7H2393c-34.9 0-69 7.7-101.5 22.7-31.5 14.7-59.6 34.9-83.5 60-16.8 17.7-31.3 37.8-43.3 60-10.5-29.3-25.3-54.4-44.5-74.8-23.4-24.8-53.2-42.8-88.5-53.6-31.5-9.6-68.7-14.4-110.8-14.4h-345.3v83.5c-4.1-5.4-8.4-10.6-12.9-15.4-23.4-24.8-53.2-42.9-88.5-53.6-31.5-9.6-68.7-14.4-110.8-14.4h-97.6c-41.6 0-78.5 4.9-109.8 14.5-34.8 10.7-64.5 28.6-88.1 53.3-23.3 24.3-40.6 55.6-51.3 92.8-9.7 33.7-14.6 74.6-14.6 121.4v157L888.4 690.7c-5.1-15.1-12.5-29.7-22-43.4-9.7-14-21.6-26.7-35.5-37.7-14.5-11.5-31.6-20.7-50.6-27.2-18.8-6.4-39.6-9.6-62-9.6-23.2 0-44.2 3.3-62.5 9.9-18.4 6.6-34.8 15.9-48.9 27.7a188.39 188.39 0 0 0-32.4 35c-9.3-13.1-20.5-25-33.3-35.5-14.2-11.5-30.5-20.7-48.7-27.3-18.3-6.6-39.3-9.9-62.5-9.9-23 0-44.1 3.3-62.6 9.7-18.7 6.5-35.5 15.6-50 27.1-14.1 11.2-26.1 24.2-35.6 38.5-8.7 13.1-15.9 26.9-21.3 41.2L0 1424.2h340.8l92.4-280.4 105.2 280.4H610l105.9-282.4 95.8 282.4h336.7l-7.3-20.7c4.6 1.9 9.4 3.6 14.2 5.2 31.5 10.3 68.7 15.5 110.6 15.5h97.6c42.4 0 79.9-5.2 111.6-15.5 35-11.3 64.6-29.8 87.9-54.7 4.5-4.8 8.7-10 12.7-15.3v85.5H1921c42.4 0 79.9-5.2 111.6-15.5 35-11.3 64.6-29.8 87.9-54.7 18.7-20.1 33.4-44.8 43.7-73.5 12.1 22.6 26.8 43 43.8 60.9 24 25.2 52.1 45.4 83.5 60.1 32.4 15.1 66.6 22.8 101.5 22.8h340.7v-116.5c8.3 12 17.3 23.3 27.2 33.6 24 25.2 52.1 45.4 83.5 60.1 32.4 15.1 66.6 22.8 101.5 22.8h629.5c34.9 0 69.1-7.7 101.5-22.7 31.5-14.6 59.6-34.8 83.5-60.1 23.9-25.1 43.1-55.1 57.2-89 14.3-34.4 21.5-71.4 21.5-110.2V854.8c-.1-38.8-7.3-75.8-21.6-110.2Zm-524.9 346h-259.2v-.8h-14.5V906.4h273.7z" class="st0" style="fill:#fff;fill-opacity:1"/><path id="path6" d="M1627.3 854.7V753.3h293.6c17.8 0 32.4 2.4 43.8 7.2 11.4 4.8 20.5 11.6 27.1 20.2 6.6 8.7 11.2 18.8 13.7 30.5s3.8 24.2 3.8 37.4v299.7c0 17.8-1.3 32.7-3.8 44.6-2.5 12-7 21.7-13.3 29.4-6.4 7.6-15.3 13.1-26.7 16.4-11.4 3.3-26.1 5-43.8 5h-170.8V879.2h106.8v243.3c0 13.2 6.4 19.8 19.1 19.8h16.8c6.1 0 11.1-1.8 14.9-5.3 3.8-3.6 5.7-8.4 5.7-14.5V874.6c0-6.1-1.9-10.9-5.7-14.5-3.8-3.5-8.8-5.3-14.9-5.3h-266.3zm353.1 408.4c13.2-5.3 24-12.8 32.4-22.5 8.4-9.7 14.5-21.1 18.3-34.3 3.8-13.2 5.7-27.5 5.7-42.7V833.4c0-15.3-1.9-29.5-5.7-42.7-3.8-13.2-9.9-24.7-18.3-34.3-8.4-9.7-19.3-17.2-32.8-22.5-13.5-5.3-29.9-8-49.2-8h-303.5V624.4h293.6c37.1 0 69 4.1 95.7 12.2 26.7 8.1 48.7 21.4 66 39.7 17.3 18.3 30 42.1 38.1 71.3 8.1 29.2 12.2 65 12.2 107.1v287.5c0 40.7-4.1 75.6-12.2 104.9-8.1 29.2-20.9 53.1-38.1 71.7-17.3 18.6-39.3 32.2-66 40.8-26.7 8.7-58.6 13-95.7 13h-293.6V879.2h96.1v392h208.2c19.3-.1 35.6-2.7 48.8-8.1z" class="st1" style="fill:#034693;fill-opacity:1"/><path id="path8" d="M3787.3 1142.3c0 32-5.8 62.2-17.5 90.4-11.7 28.2-27.3 52.6-46.9 73.2-19.6 20.6-42.2 36.9-67.9 48.8-25.7 12-52.2 17.9-79.7 17.9h-311v-101.4h298.8c19.3 0 36.6-3.8 51.9-11.4 15.3-7.6 28.1-17.5 38.5-29.7 10.4-12.2 18.4-26 24-41.6 5.6-15.5 8.4-30.9 8.4-46.1V854.8c0-15.3-2.8-30.6-8.4-46.1-5.6-15.5-13.6-29.4-24-41.6-10.4-12.2-23.3-22.1-38.5-29.7-15.3-7.6-32.5-11.4-51.9-11.4H3019V624.4h556.3c27.5 0 54 6 79.7 17.9 25.7 12 48.3 28.2 67.9 48.8 19.6 20.6 35.2 45 46.9 73.2 11.7 28.2 17.5 58.3 17.5 90.4zm-443-156.4V885.3h221.2v-10.7c0-6.1-1.6-10.9-5-14.5-3.3-3.5-6.5-5.3-9.5-5.3h-531.9V753.3h534.1c17.8 0 33.3 3.6 46.5 10.7 13.2 7.1 24.2 16.3 32.8 27.5 8.7 11.2 15.1 23.8 19.4 37.7 4.3 14 6.5 27.6 6.5 40.8v115.9zm314.1 141.1c0 13.2-2.2 26.8-6.5 40.8-4.3 14-10.8 26.6-19.4 37.7-8.6 11.2-19.6 20.3-32.8 27.5-13.2 7.1-28.7 10.7-46.5 10.7h-291.6v-101.4h289.3c3.1 0 6.2-1.8 9.5-5.3 3.3-3.6 5-8.4 5-14.5v-9.9h-221.2v-101.4h314.2z"/><path id="path10" d="M574.2 1037.8 465.1 745.7c-2-5.1-6.4-9.7-13-13.7-6.6-4.1-14-6.1-22.1-6.1-7.1 0-14.5 2-22.1 6.1-7.6 4.1-12.2 8.7-13.7 13.7l-219.6 626.9H73.1l235.6-665c4.1-10.7 9.4-21 16-30.9 6.6-9.9 14.9-18.8 24.8-26.7 9.9-7.9 21.5-14.1 34.7-18.7 13.2-4.6 28.5-6.9 45.8-6.9 17.3 0 32.3 2.3 45 6.9 12.7 4.6 23.9 10.8 33.6 18.7 9.7 7.9 17.9 16.8 24.8 26.7 6.9 9.9 12.8 20.2 17.9 30.9l22.9 45.8 22.9-45.8c5.6-10.7 11.8-21 18.7-30.9 6.9-9.9 15-18.8 24.4-26.7 9.4-7.9 20.5-14.1 33.2-18.7 12.7-4.6 27.7-6.9 45-6.9 16.8 0 31.9 2.3 45.4 6.9 13.5 4.6 25.2 10.8 35.1 18.7 9.9 7.9 18.3 16.8 25.2 26.7 6.9 9.9 12.1 20.2 15.6 30.9l235.6 665H973.8L754.1 745.7c-1.5-5.1-6.1-9.7-13.7-13.7-7.6-4.1-15-6.1-22.1-6.1-8.1 0-15.5 2-22.1 6.1-6.6 4.1-10.9 8.7-13 13.7zm0 334.8L430 988.2l-126.6 384.4H202l209-607.8c1-3.1 3.6-5.7 7.6-8 4.1-2.3 7.9-3.4 11.4-3.4 3.6 0 7.2 1.1 11.1 3.4 3.8 2.3 6.2 5 7.2 8l125.8 347 125.8-347c1-3.1 3.4-5.7 7.2-8 3.8-2.3 7.5-3.4 11.1-3.4 3.5 0 7.4 1.1 11.4 3.4 4.1 2.3 6.6 5 7.6 8l209 607.8h-97.6L718.3 988.2Z" class="st1" style="fill:#034693;fill-opacity:1"/><path id="path12" d="M1171.3 1359.6c-26.4-8.6-48.4-22.2-66-40.8-17.5-18.6-30.5-42.4-38.9-71.7-8.4-29.2-12.6-64.2-12.6-104.9V854.7c0-42.2 4.2-77.9 12.6-107.1 8.4-29.2 21.4-53 38.9-71.3 17.5-18.3 39.5-31.5 66-39.7 26.4-8.1 58-12.2 94.6-12.2h97.6c37.1 0 69 4.1 95.7 12.2 26.7 8.1 48.7 21.4 66 39.7 17.3 18.3 30 42.1 38.1 71.3 8.1 29.2 12.2 65 12.2 107.1v287.5c0 40.7-4.1 75.6-12.2 104.9-8.1 29.2-20.9 53.1-38.1 71.7-17.3 18.6-39.3 32.2-66 40.8-26.7 8.7-58.6 13-95.7 13h-97.6c-36.7 0-68.2-4.4-94.6-13zm202.8-88.5c19.3 0 35.6-2.7 48.8-8 13.2-5.3 24-12.8 32.4-22.5 8.4-9.7 14.5-21.1 18.3-34.3 3.8-13.2 5.7-27.5 5.7-42.7V833.4c0-15.3-1.9-29.5-5.7-42.7-3.8-13.2-9.9-24.7-18.3-34.3-8.4-9.7-19.3-17.2-32.8-22.5-13.5-5.3-29.9-8-49.2-8h-117.4c-19.3 0-35.7 2.7-49.2 8s-24.4 12.8-32.8 22.5c-8.4 9.7-14.5 21.1-18.3 34.3-3.8 13.2-5.7 27.5-5.7 42.7v330.2c0 15.3 1.9 29.5 5.7 42.7 3.8 13.2 9.9 24.7 18.3 34.3 8.4 9.7 19.2 17.2 32.4 22.5 13.2 5.3 29.5 8 48.8 8h59.5zm-109-27.4c-17.8 0-32.4-1.6-43.8-5-11.4-3.3-20.3-8.8-26.7-16.4-6.4-7.6-10.8-17.4-13.3-29.4-2.5-11.9-3.8-26.8-3.8-44.6V848.6c0-13.2 1.3-25.7 3.8-37.4s7.1-21.9 13.7-30.5c6.6-8.6 15.6-15.4 27.1-20.2 11.4-4.8 26-7.2 43.8-7.2h97.6c17.8 0 32.4 2.4 43.8 7.2 11.4 4.8 20.5 11.6 27.1 20.2 6.6 8.7 11.2 18.8 13.7 30.5s3.8 24.2 3.8 37.4v299.7c0 17.8-1.3 32.7-3.8 44.6-2.6 12-7 21.7-13.3 29.4-6.4 7.6-15.3 13.1-26.7 16.4-11.4 3.3-26.1 5-43.8 5zm74-101.4c6.1 0 10-1.8 11.8-5.3 1.8-3.6 2.7-8.4 2.7-14.5V874.6c0-6.1-.9-10.9-2.7-14.5-1.8-3.5-5.7-5.3-11.8-5.3h-48.8c-6.1 0-10 1.8-11.8 5.3-1.8 3.6-2.7 8.4-2.7 14.5v247.8c0 6.1.9 10.9 2.7 14.5 1.8 3.6 5.7 5.3 11.8 5.3h48.8z" class="st1" style="fill:#034693;fill-opacity:1"/><path id="path14" d="M2181 854.7c0-32 5.8-62.2 17.5-90.4 11.7-28.2 27.3-52.6 46.9-73.2 19.6-20.6 42.2-36.9 67.9-48.8 25.7-11.9 52.2-17.9 79.7-17.9h289v101.4h-276.8c-19.3 0-36.6 3.8-51.9 11.4-15.3 7.6-28.1 17.5-38.5 29.7-10.4 12.2-18.4 26.1-24 41.6-5.6 15.5-8.4 30.9-8.4 46.1v287.5c0 15.3 2.8 30.6 8.4 46.1 5.6 15.5 13.6 29.4 24 41.6 10.4 12.2 23.3 22.1 38.5 29.7 15.3 7.6 32.5 11.4 51.9 11.4H2682v101.4h-289c-27.5 0-54-6-79.7-17.9-25.7-11.9-48.3-28.2-67.9-48.8-19.6-20.6-35.2-45-46.9-73.2-11.7-28.2-17.5-58.3-17.5-90.4zm128.8 131.2V870c0-13.2 2.2-26.8 6.5-40.8 4.3-14 10.8-26.6 19.4-37.7 8.6-11.2 19.6-20.3 32.8-27.5 13.2-7.1 28.7-10.7 46.5-10.7h267v101.4h-264.6c-3.1 0-6.2 1.8-9.5 5.3-3.3 3.6-5 8.4-5 14.5v10.7H2624v100.7zm0 25.2H2624v101.4h-221.2v9.9c0 6.1 1.6 10.9 5 14.5 3.3 3.6 6.5 5.3 9.5 5.3H2682v101.4h-266.9c-17.8 0-33.3-3.6-46.5-10.7-13.2-7.1-24.2-16.3-32.8-27.5-8.7-11.2-15.1-23.8-19.4-37.7-4.3-14-6.5-27.6-6.5-40.8v-115.8z" class="st1" style="fill:#034693;fill-opacity:1"/><path id="path16" d="M3255.3 1372.6h-309.4c-27.5 0-54-6-79.7-17.9-25.7-11.9-48.3-28.2-67.9-48.8-19.6-20.6-35.2-45-46.9-73.2-11.7-28.2-17.5-58.3-17.5-90.4V624.4h101.4v517.8c0 15.3 2.8 30.6 8.4 46.1 5.6 15.5 13.6 29.4 24 41.6 10.4 12.2 23.3 22.1 38.5 29.7 15.3 7.6 32.5 11.4 51.9 11.4h297.2zm-273.6-230.3h269v101.4H2968c-17.8 0-33.3-3.6-46.5-10.7-13.2-7.1-24.2-16.3-32.8-27.5-8.7-11.2-15.1-23.8-19.4-37.7-4.3-14-6.5-27.6-6.5-40.8V624.4h104.5v498c0 6.1 1.6 10.8 5 14.1 3.3 3.3 6.5 5 9.5 5v.8z" class="st1" style="fill:#034693;fill-opacity:1"/><path id="rect18" d="M1117.353-3292.581h290.6v51.7h-290.6z" class="st0" style="fill:#fff;fill-opacity:1" transform="rotate(90)"/><path id="path22" d="M2486.1 81.5C2471.1 34 2426.3 0 2374.6 0c-51.6 0-96.5 34-111.4 81.5l-39.4 116.9V6.8h-206.6c-36.7 0-70.7 14.9-96.5 39.4V6.8h-212c-39.4 0-74.7 16.3-100.6 43.5V6.8H1407c-85.6 0-156.3 70.7-156.3 156.3 0 40.8 16.3 78.8 42.1 106h-42.1v182.1h201.1c57.1 0 106-29.9 134.5-76.1 23.1 44.8 69.3 76.1 123.7 76.1h213.4v-39.4c24.5 24.5 58.4 39.4 96.5 39.4h589.8z" class="st0" style="fill:#fff;fill-opacity:1"/><g id="g46" style="fill:#034693;fill-opacity:1"><g id="g28" style="fill:#034693;fill-opacity:1"><path id="path24" d="M1451.9 301.7H1282v53h169.9c32.6 0 59.8-27.2 59.8-59.8 0-32.6-27.2-59.8-59.8-59.8h-43.5c-39.4 0-72-32.6-72-72s32.6-72 72-72h168.5v-53H1407c-69.3 0-125 55.7-125 125s55.7 125 125 125h43.5c4.1 0 6.8 2.7 6.8 6.8s-2.7 6.8-5.4 6.8z" class="st1" style="fill:#034693;fill-opacity:1"/><path id="path26" d="M1407 157.6h169.9v-54.4H1407c-32.6 0-59.8 27.2-59.8 59.8 0 32.6 27.2 59.8 59.8 59.8h43.5c39.4 0 72 32.6 72 72s-32.6 72-72 72H1282v53h169.9c69.3 0 125-55.7 125-125s-55.7-125-125-125h-43.5c-4.1 0-6.8-2.7-6.8-6.8 0-2.6 2.7-5.4 5.4-5.4z" class="st1" style="fill:#034693;fill-opacity:1"/></g><g id="g36" style="fill:#034693;fill-opacity:1"><path id="path30" d="M2017.2 103.3c-23.1 0-40.8 17.7-40.8 40.8V314c0 23.1 17.7 40.8 40.8 40.8h110.1V235.1H2043v53h31.3v12.2H2043c-6.8 0-12.2-5.4-12.2-12.2V168.5c0-6.8 5.4-12.2 12.2-12.2h150.9v-53z" class="st1" style="fill:#034693;fill-opacity:1"/><path id="path32" d="M2351.5 354.7h123.7l-84.3-250.1c-2.7-6.8-8.2-12.2-16.3-12.2-6.8 0-13.6 5.4-16.3 10.9L2249.6 420h62.5l38.1-112.8v47.6h1.3zm21.8-114.2 17.7 54.4h-36.7z" class="st1" style="fill:#034693;fill-opacity:1"/><path id="path34" d="M2456.2 93.8c-10.9-35.3-43.5-62.5-82.9-62.5-39.4 0-72 25.8-81.5 61.2l-99.2 290.8V169.9H2043v53h97.8V367h-122.3c-29.9 0-53-24.5-53-53V144.1c0-29.9 24.5-53 53-53h175.3v-53h-176.7c-58.4 0-106 47.6-106 106V314c0 58.4 47.6 106 106 106H2236l110.1-319.4c4.1-12.2 14.9-20.4 28.5-20.4s24.5 8.2 28.5 20.4l89.7 266.4h-141.3v53h214.7z" class="st1" style="fill:#034693;fill-opacity:1"/></g><g id="g44" style="fill:#034693;fill-opacity:1"><path id="path38" d="M1708.7 366.9c-29.9 0-53-24.5-53-53V144.1c0-29.9 24.5-53 53-53h182.1v-53h-182.1c-58.4 0-106 47.6-106 106V314c0 58.4 47.6 106 106 106h182.1v-53h-182.1z" class="st1" style="fill:#034693;fill-opacity:1"/><path id="path40" d="M1720.9 289.5h131.8v-53h-184.8v78.8c0 23.1 17.7 40.8 40.8 40.8h182.1v-53h-157.6c-6.8-1.4-12.3-6.8-12.3-13.6z" class="st1" style="fill:#034693;fill-opacity:1"/><path id="path42" d="M1852.8 169.9H1721c0-6.8 5.4-12.2 12.2-12.2h156.3v-54.4h-180.8c-23.1 0-40.8 17.7-40.8 40.8v78.8h184.8c.1 0 .1-53 .1-53z" class="st1" style="fill:#034693;fill-opacity:1"/></g></g></svg>