<svg xmlns="http://www.w3.org/2000/svg" xml:space="preserve" width="1093.824" height="295.901"><defs><clipPath id="a" clipPathUnits="userSpaceOnUse"><path d="M0 236.721h875.059V0H0v236.721Z"/></clipPath></defs><path d="M0 0v-66.47h-60.73v-30.051H0v-66.471h28.795v66.471h60.729v30.051H28.795V0H0Z" style="fill:#221f1f;fill-opacity:1;fill-rule:nonzero;stroke:none" transform="matrix(1.25 0 0 -1.25 981.92 92.161)"/><path d="M0 0h584.507v236.721H0V0Z" style="fill:#221f1f;fill-opacity:1;fill-rule:nonzero;stroke:none" transform="matrix(1.25 0 0 -1.25 0 295.901)"/><g clip-path="url(#a)" transform="matrix(1.25 0 0 -1.25 0 295.901)"><path d="m0 0-55.568-81.16 60.44-88.672h-55.813l-33.213 47.47-33.48-47.584h-55.446c1.506 3.126 60.695 88.786 60.695 88.786l-25.228 35.099-107.02-.122c-4.991-.394-11.11 1.121-13.614-4.509-.876-1.865-1.252-4.614-.246-6.496.867-2.119 2.872-4.115 5.113-4.737l3.371-.254h42.837c19.848-.499 38.216-12.852 46.822-30.713 7.626-14.989 6.501-35.467-1.996-49.711-10.734-18.097-29.846-28.218-50.569-27.474h-119.138s-18.237 65.821-18.36 65.935l-18.359-65.935-43.452-.008-17.484 66.197-19.112-66.058h-48.074S-452.69-10.856-449.818-.359h40.597l19.104-70.934 19.48 70.934 39.836.009 34.092-123.526h79.425c5.48.262 13.106-1.234 15.356 5.498.876 3.012.132 6.129-1.996 8.248-2.005 1.751-4.5 2.241-7.118 2.241l-42.705.008c-20.233.622-40.335 13.86-47.829 33.331-8.117 19.489-3.371 42.848 11.486 57.933C-279.601-6.102-267.116-.858-252.495-.236l140.11.122 28.231-40.702L-54.947.009 0 0Z" style="fill:#fff;fill-opacity:1;fill-rule:nonzero;stroke:none" transform="translate(538.262 203.399)"/><path d="M0 0c2.856 20.12 54.579 32.427 54.579 76.371 0 41.86-29.125 52.521-54.579 52.521-25.445 0-52.563-19.28-52.563-50.9V66.088h38.197v8.62c0 10.874 5.327 17.666 14.778 17.666s13.936-5.557 13.936-16.835c0-25.454-43.104-35.719-61.148-67.752-7.736-13.67-8.225-41.045-8.225-41.045h107.16V0H0Z" style="fill:#221f1f;fill-opacity:1;fill-rule:nonzero;stroke:none" transform="translate(653.678 33.258)"/></g></svg>