<svg xmlns="http://www.w3.org/2000/svg" xmlns:xlink="http://www.w3.org/1999/xlink" xml:space="preserve" id="Layer_1" width="1152.5" height="162" x="0" y="0" version="1.1"><defs id="defs71"><linearGradient id="linearGradient2048"><stop id="stop2044" offset="0" style="stop-color:#7b94da;stop-opacity:1"/><stop id="stop14229" offset=".134" style="stop-color:#e5f5fe;stop-opacity:1"/><stop id="stop36112" offset=".551" style="stop-color:#e5f5fe;stop-opacity:1"/><stop id="stop2046" offset="1" style="stop-color:#b5b8f1;stop-opacity:1"/></linearGradient><linearGradient xlink:href="#linearGradient2048" id="linearGradient2050" x1="1726.084" x2="1727.949" y1="70.577" y2="672.054" gradientTransform="matrix(1 0 0 .73477 0 110.162)" gradientUnits="userSpaceOnUse"/></defs><style id="style2" type="text/css">.st0{fill:#00a336}.st1{fill:red}.st2{fill:#fff}.st3{fill:#00fffe}</style><g id="g52950" transform="matrix(.3292 0 0 .3292 -67.701 -54.687)"><path id="rect1682" d="M1516.77 166.285c-19.305.083-38.707 1.27-40.922 3.485-2.832 2.831-3.164 22.853-3.164 190.2 0 119.02-.729 188.952-2.002 192.301-4.037 10.619-8.441 11.11-99.143 11.11-93.157 0-93.77-.09-100.767-14.096-3.276-6.557-3.524-19.939-3.524-191.7 0-165.174-.337-184.984-3.168-187.815-2.776-2.777-13.525-3.165-87.568-3.165h-84.403l-3.199 4.885c-2.88 4.397-3.122 23.172-2.404 187.815.766 175.62.963 183.654 4.928 201.056 12.66 55.579 39.728 85.154 86.61 94.633 10.934 2.21 41.501 2.678 152.646 2.334 125.467-.388 140.146-.77 151.056-3.945 40.027-11.646 59.993-33.345 71.881-78.115 4.474-16.852 4.496-17.705 5.154-209.975.495-144.385.072-193.765-1.675-195.871-1.825-2.198-21.032-3.22-40.336-3.137zm2145.95.13c-19.639.07-39.202 1.059-40.732 2.901-1.61 1.942-2.395 53.411-2.763 181.274l-.514 178.564-80.432-178.48c-44.237-98.164-81.69-179.737-83.226-181.274-2.315-2.314-21.594-2.795-112.305-2.795h-109.51l-3.136 4.477c-2.795 3.99-3.135 30.252-3.135 241.691 0 234.531.045 237.262 4.027 241.245 3.727 3.726 6.715 4.029 39.899 4.029 27.796 0 36.747-.644 39.777-2.86 3.806-2.782 3.938-7.61 4.918-182.566l1.006-179.709 81.474 180.7c47.47 105.284 82.93 181.477 84.963 182.566 2.02 1.08 48.485 1.869 110.227 1.869 94.347 0 107.102-.369 109.9-3.166 2.842-2.842 3.166-27.68 3.166-243.303 0-184.089-.565-240.704-2.418-242.557-1.83-1.83-21.546-2.677-41.185-2.607zm-1384.624.187-174.791.004c-166.227 0-175.537.19-190.026 3.896-20.739 5.304-34.448 12.653-46.982 25.188-17.358 17.357-28.885 45.135-33.045 79.625-2.699 22.378-2.72 251.674-.025 273.168 3.986 31.79 14.108 58.852 28.475 76.125 12.376 14.88 36.217 27.413 59.65 31.359v-.01c14.829 2.502 364.523 2.497 369.19 0 3.796-2.032 3.896-5.812 3.896-149.094V359.855l-5.168-1.964c-3.154-1.2-53.575-1.965-129.461-1.965-109.237 0-124.838.381-128.772 3.137-4.38 3.068-4.476 4.023-4.476 44.914 0 29.809.693 42.47 2.418 44.195 1.725 1.725 14.41 2.418 44.308 2.418h41.895v50.24c0 50.192-.01 50.245-4.857 55.89l-4.856 5.653-39.326.621c-43.654.69-50.199-.692-53.149-11.232-2.01-7.185-2.01-271.696 0-278.881 3.292-11.76 1.593-11.617 138.342-11.617 122.29 0 125.06-.086 129.002-4.028 3.75-3.75 4.028-6.714 4.028-42.855 0-31.882-.56-39.627-3.135-43.303zm-2066.014.004-3.135 4.476c-2.794 3.99-3.134 30.252-3.134 241.692 0 234.53.044 237.261 4.027 241.244 3.726 3.726 6.713 4.029 39.896 4.029 27.796 0 36.75-.644 39.78-2.86 3.799-2.777 3.937-7.433 4.916-165.078l1.007-162.22 50.094 162.56c28.915 93.833 51.432 163.627 53.256 165.08 2.363 1.882 17.718 2.518 60.8 2.518 42.995 0 58.485-.64 60.966-2.518 2.043-1.546 23.365-65.63 55.27-166.107l51.94-163.588L628.774 490c.878 142.992 1.398 164.411 4.03 166.074 1.775 1.122 37.276 1.924 86.101 1.942 80.418.03 83.213-.1 87.112-3.998 3.982-3.983 4.027-6.714 4.027-241.245 0-211.439-.34-237.701-3.135-241.691l-3.137-4.477H592.613l-2.916 4.532c-1.603 2.492-20.33 58.46-41.617 124.37-21.286 65.912-39.298 120.518-40.027 121.347-.73.828-17.987-53.357-38.35-120.413-20.363-67.055-38.27-123.7-39.795-125.877-2.697-3.85-5.686-3.959-110.299-3.959zm2364.559 0-3.137 4.476c-2.795 3.99-3.135 30.252-3.135 241.692 0 234.53.045 237.261 4.028 241.244 3.97 3.97 6.715 4.029 190.466 4.029 124.664 0 187.727-.692 190.332-2.086 3.665-1.961 3.897-4.631 3.897-44.914 0-30.626-.69-43.518-2.418-45.246-1.816-1.816-27.616-2.418-103.727-2.418H2751.64V450.594h187.41l2.08-5.47c3.123-8.215 1.588-82.214-1.775-85.573-2.052-2.05-22.6-2.735-95.166-3.176l-92.55-.56v-94.547h99.83c64.965 0 101.192-.728 103.727-2.084 3.665-1.961 3.897-4.633 3.897-44.916 0-30.627-.69-43.518-2.418-45.246-1.846-1.846-47.06-2.416-191.225-2.416zm-1877.045 16.11h94.334v.028h-93.582zM948.01 517.06c-71.209 0-81.677.393-84.45 3.166-2.744 2.744-3.164 11.683-3.164 67.328s.42 64.583 3.165 67.328c2.772 2.773 13.24 3.166 84.449 3.166 71.208 0 81.674-.393 84.447-3.166 2.745-2.745 3.166-11.683 3.166-67.328s-.421-64.584-3.166-67.328c-2.773-2.773-13.239-3.166-84.447-3.166zm751.26 0c-71.209 0-81.677.393-84.45 3.166-2.745 2.744-3.164 11.683-3.164 67.328s.42 64.583 3.164 67.328c2.773 2.773 13.241 3.166 84.45 3.166 71.208 0 81.676-.393 84.449-3.166 2.744-2.745 3.164-11.683 3.164-67.328s-.42-64.584-3.164-67.328c-2.773-2.773-13.24-3.166-84.45-3.166zm733.132 0c-71.208 0-81.674.393-84.447 3.166-2.745 2.744-3.166 11.683-3.166 67.328s.421 64.583 3.166 67.328c2.773 2.773 13.239 3.166 84.447 3.166 71.209 0 81.677-.393 84.45-3.166 2.744-2.745 3.164-11.683 3.164-67.328s-.42-64.584-3.164-67.328c-2.773-2.773-13.241-3.166-84.45-3.166zm656.598 0c-71.209 0-81.674.393-84.447 3.166-2.745 2.744-3.166 11.683-3.166 67.328s.42 64.583 3.166 67.328c2.773 2.773 13.238 3.166 84.447 3.166s81.676-.393 84.45-3.166c2.744-2.745 3.165-11.683 3.165-67.328s-.421-64.584-3.166-67.328c-2.773-2.773-13.24-3.166-84.449-3.166z" style="fill:url(#linearGradient2050);fill-opacity:1;stroke:none;stroke-width:1.077;stroke-linecap:square;stroke-miterlimit:4;stroke-dasharray:none;stroke-opacity:.998405;stop-color:#000"/><path id="path1124-3" d="M209.84 654.018c-3.982-3.983-4.028-6.714-4.028-241.244 0-211.44.34-237.703 3.135-241.693l3.136-4.476h107.526c104.612 0 107.601.107 110.299 3.959 1.525 2.177 19.433 58.822 39.796 125.877 20.362 67.055 37.62 121.241 38.348 120.412.73-.828 18.742-55.434 40.029-121.345 21.286-65.912 40.014-121.879 41.617-124.371l2.915-4.532h211.16l3.135 4.476c2.794 3.99 3.135 30.253 3.135 241.693 0 234.53-.046 237.261-4.028 241.244-3.9 3.899-6.692 4.027-87.11 3.997-48.826-.018-84.328-.818-86.103-1.94-2.632-1.663-3.151-23.083-4.028-166.075l-1.007-164.165-51.944 163.588c-31.903 100.477-53.226 164.56-55.269 166.106-2.48 1.877-17.97 2.517-60.965 2.517-43.083 0-58.437-.636-60.8-2.517-1.825-1.454-24.34-71.247-53.255-165.08L295.44 327.888l-1.007 162.22c-.98 157.645-1.118 162.302-4.917 165.08-3.03 2.215-11.983 2.858-39.779 2.858-33.183 0-36.17-.301-39.897-4.028zm68.48-195.972c0-140.339.572-184.46 2.417-186.305 3.596-3.596 11.604-2.925 13.22 1.108.776 1.939 26.829 85.549 57.894 185.8l56.483 182.277 51.489.537 51.489.537 4.143-13.629c2.279-7.495 28.701-90.668 58.717-184.827 34.805-109.187 55.809-172.109 57.986-173.711 2.747-2.022 4.224-1.974 7.568.245 4.139 2.749 4.155 3.412 4.667 187.307l.515 184.548H793.93V182.718H600.78l-22.097 67.976a449330.88 449330.88 0 0 0-42.952 132.215c-21.8 67.145-24.61 72.943-32.549 67.139-2.306-1.686-15.753-42.776-39.713-121.345-19.925-65.337-38.1-124.913-40.39-132.39l-4.164-13.595h-196.99V641.933H278.32zM863.56 654.88c-2.744-2.745-3.164-11.683-3.164-67.328 0-55.646.42-64.584 3.165-67.329 2.772-2.773 13.24-3.165 84.448-3.165 71.209 0 81.676.392 84.448 3.165 2.745 2.745 3.165 11.683 3.165 67.329 0 55.645-.42 64.583-3.165 67.328-2.772 2.773-13.24 3.165-84.448 3.165-71.209 0-81.676-.392-84.448-3.165zm155.95-67.328v-54.381H876.509v108.761h143zm158.535 67.441c-46.883-9.479-73.951-39.054-86.612-94.632-3.965-17.402-4.161-25.436-4.927-201.056-.718-164.643-.478-183.419 2.403-187.816l3.201-4.885h84.402c74.044 0 84.79.388 87.567 3.165 2.832 2.831 3.166 22.64 3.168 187.815 0 171.76.25 185.142 3.525 191.7 6.997 14.006 7.61 14.092 100.767 14.095 90.702 0 95.106-.49 99.143-11.108 1.273-3.35 2-73.282 2-192.3 0-167.348.334-187.37 3.166-190.202 4.43-4.43 77.609-4.745 81.257-.349 1.748 2.106 2.17 51.486 1.676 195.872-.658 192.27-.68 193.124-5.154 209.975-11.887 44.771-31.854 66.47-71.88 78.115-10.91 3.174-25.591 3.558-151.058 3.946-111.145.343-141.711-.124-152.644-2.335zm290.61-15.133c17.544-2.735 40.208-13.982 49.093-24.362 15.012-17.539 22.504-41.607 25.44-81.726 1.036-14.178 1.912-98.965 1.944-188.416l.059-162.64H1488.796v180.905c0 199.37.187 196.176-12.098 206.513-10.33 8.693-21.292 9.576-110.987 8.943-81.72-.577-83.525-.677-91.73-5.064-10.644-5.692-16.037-12.59-19.832-25.372-2.58-8.689-3.017-35.899-3.017-188.042V182.718h-149.26l.757 180.766c.843 200.924.494 195.527 14.59 225.61 12.5 26.68 35.602 45.356 62.433 50.472 13.878 2.647 272.232 2.91 289.003.295zm146.166 15.02c-2.745-2.745-3.165-11.683-3.165-67.328 0-55.646.42-64.584 3.165-67.329 2.773-2.773 13.24-3.165 84.448-3.165 71.21 0 81.676.392 84.449 3.165 2.745 2.745 3.165 11.683 3.165 67.329 0 55.645-.42 64.583-3.165 67.328-2.773 2.773-13.24 3.165-84.449 3.165-71.208 0-81.675-.392-84.448-3.165zm155.95-67.328v-54.381h-143.002v108.761h143.001zm150.58 68.413c-23.432-3.946-47.274-16.48-59.65-31.36-14.366-17.271-24.488-44.332-28.475-76.123-2.695-21.494-2.673-250.79.025-273.17 4.16-34.489 15.688-62.266 33.046-79.624 12.534-12.534 26.243-19.884 46.982-25.188 14.489-3.705 23.799-3.896 190.026-3.896h174.79l3.136 4.476c2.574 3.676 3.135 11.422 3.135 43.304 0 36.14-.279 39.105-4.028 42.855-3.942 3.941-6.714 4.028-129.003 4.028-136.749 0-135.05-.143-138.34 11.618-2.01 7.184-2.01 271.695 0 278.88 2.95 10.54 9.494 11.923 53.148 11.232l39.325-.622 4.857-5.65c4.852-5.646 4.856-5.7 4.856-55.892v-50.24h-41.893c-29.898 0-42.585-.692-44.31-2.417-1.725-1.725-2.417-14.387-2.417-44.196 0-40.89.095-41.846 4.476-44.915 3.934-2.755 19.535-3.135 128.772-3.135 75.886 0 126.307.765 129.461 1.964l5.167 1.964v147.009c0 143.281-.1 147.061-3.896 149.093-4.666 2.497-354.361 2.502-369.19 0zm357.655-54.818c.727-22.432 1.324-83.158 1.327-134.945v-94.16H2042.67v64.452h42.225c39.686 0 42.35.234 44.31 3.896 1.29 2.408 2.069 24.126 2.041 56.898-.039 47.237-.45 53.896-3.775 61.217-8.387 18.468-18.496 21.515-68.465 20.64-43.125-.756-49.994-2.76-58.096-16.948l-4.493-7.878-.033-141.064-.033-141.064 4.532-8.87c3.085-6.038 7.104-10.194 12.588-13.015 7.836-4.032 11.428-4.16 131.42-4.708l123.364-.563v-62.319h-168.91c-105.038 0-172.956.768-179.611 2.03-35.05 6.647-58.207 31.36-67.85 72.405-3.238 13.782-3.57 28.292-3.57 156.18 0 155.82-.169 153.484 13.162 181.416 10.883 22.803 33.324 40.051 58.557 45.007 4.865.955 87.327 1.836 183.25 1.958l174.403.22zm68.949 53.733c-2.745-2.745-3.165-11.683-3.165-67.328 0-55.646.42-64.584 3.165-67.329 2.772-2.773 13.24-3.165 84.448-3.165 71.209 0 81.676.392 84.449 3.165 2.745 2.745 3.165 11.683 3.165 67.329 0 55.645-.42 64.583-3.165 67.328-2.773 2.773-13.24 3.165-84.449 3.165-71.208 0-81.676-.392-84.448-3.165zm155.949-67.328v-54.381h-143.002v108.761h143.001zm70.493 66.465c-3.982-3.983-4.028-6.714-4.028-241.244 0-211.44.341-237.703 3.136-241.693l3.135-4.476h188.809c144.165 0 189.38.571 191.225 2.417 1.728 1.728 2.417 14.62 2.417 45.246 0 40.283-.232 42.954-3.896 44.915-2.535 1.357-38.762 2.085-103.726 2.085h-99.83v94.545l92.549.563c72.567.44 93.115 1.126 95.166 3.175 3.364 3.36 4.899 77.358 1.776 85.572l-2.08 5.47h-187.412v112.79h101.31c76.11 0 101.91.601 103.726 2.417 1.728 1.729 2.417 14.62 2.417 45.247 0 40.283-.232 42.953-3.896 44.914-2.605 1.394-65.668 2.085-190.333 2.085-183.751 0-186.494-.058-190.465-4.028zm368.581-43.303v-31.219h-100.561c-88.734 0-100.934-.372-103.726-3.165-2.749-2.748-3.165-11.843-3.165-69.084 0-48.584.635-66.554 2.417-68.335 1.81-1.81 25.825-2.417 95.67-2.417h93.252v-64.452h-93.252c-69.845 0-93.86-.606-95.67-2.416-1.768-1.768-2.417-17.961-2.417-60.28 0-49.916.434-58.297 3.165-61.027 2.794-2.794 15.11-3.165 105.02-3.165h101.855l-1.294-12.38c-.711-6.81-1.294-20.857-1.294-31.219v-18.838h-356.496V641.933h356.496zm61.574 44.166c-2.745-2.745-3.165-11.683-3.165-67.328 0-55.646.42-64.584 3.165-67.329 2.773-2.773 13.24-3.165 84.449-3.165 71.208 0 81.675.392 84.448 3.165 2.745 2.745 3.165 11.683 3.165 67.329 0 55.645-.42 64.583-3.165 67.328-2.773 2.773-13.24 3.165-84.448 3.165-71.209 0-81.676-.392-84.449-3.165zm155.95-67.328v-54.381H3017.5v108.761h143zm70.493 66.465c-3.983-3.983-4.028-6.714-4.028-241.244 0-211.44.34-237.703 3.135-241.693l3.136-4.476h109.51c90.711 0 109.99.48 112.305 2.795 1.537 1.537 38.989 83.11 83.226 181.274l80.431 178.48.514-178.564c.369-127.862 1.154-179.333 2.765-181.274 3.058-3.686 78.256-3.956 81.917-.294 1.853 1.853 2.417 58.466 2.417 242.555 0 215.623-.323 240.462-3.165 243.304-2.797 2.798-15.553 3.165-109.9 3.165-61.743 0-108.208-.787-110.227-1.868-2.034-1.088-37.493-77.282-84.964-182.567l-81.473-180.699-1.007 179.709c-.98 174.956-1.11 179.784-4.916 182.567-3.03 2.215-11.982 2.858-39.779 2.858-33.183 0-36.17-.301-39.897-4.028zm68.48-206.199c0-209.582-.502-199.885 10.246-198.287 3.725.554 10.31 13.73 41.607 83.237 20.45 45.418 60.177 133.333 88.283 195.368l51.102 112.79 99.749.522 99.749.522V182.718h-54.381v189.458c0 126.747-.69 190.748-2.085 193.354-2.865 5.353-11.203 4.997-14.877-.636-2.324-3.562-117.202-256.973-163.893-361.532l-9.219-20.644H3243.08V641.933H3299.475z" style="fill:#000;stroke-width:2.0141"/></g></svg>