<svg xmlns="http://www.w3.org/2000/svg" viewBox="0 0 338.339 52.948"><text fill="#c23334" font-family="ArialMT" font-size="1" transform="translate(262.754 30.097)">I don’t like bugs!</text><g fill="#183b67"><path d="M99.525 31.555H94.45a.914.914 0 0 1-.911-.911V2.02c0-.501.41-.911.911-.911h5.076c.501 0 .911.41.911.911v28.625a.915.915 0 0 1-.912.91zm7.719 0h-5.076a.914.914 0 0 1-.911-.911V2.02c0-.501.41-.911.911-.911h5.076c.501 0 .911.41.911.911v28.625c0 .5-.41.91-.911.91zm-63.233-4.623c-1.724 0-1.806-1.24-1.806-2.443V14.077h2.702c.524 0 .952-.392.952-.872v-2.768c0-.479-.428-.872-.952-.872h-2.702V3.334c0-.479-.428-.872-.952-.872H36.26c-.524 0-.952.392-.952.872v6.233H30.06c-.524 0-.952.392-.952.872v2.768c0 .479.428.872.952.872h5.247V26.37c0 3.352 2.504 5.187 5.501 5.187h7.636v-4.623c.001-.002-2.709-.002-4.433-.002z"/><path d="M60.658 8.683c-2.782 0-5.261 1.116-7.041 3.157V1.98c0-.479-.428-.872-.952-.872h-4.993c-.524 0-.952.392-.952.872v28.703c0 .479.428.872.952.872h4.993c.524 0 .952-.392.952-.872V18.127c0-2.283 2.053-4.05 4.547-4.05s4.005 1.814 4.005 3.496v13.112c0 .479.428.872.952.872h4.993c.524 0 .952-.392.952-.872V16.333c0-3.111-2.865-7.65-8.408-7.65z"/><path d="M90.834 22.327h3.106c.103-.632.158-1.281.158-1.945 0-6.742-5.488-12.207-12.563-12.207-7.074 0-12.563 5.465-12.563 12.207s5.488 11.981 12.563 11.981c5.4 0 9.873-3.055 11.689-7.499h-6.622c-1.055 1.418-2.85 2.312-5.283 2.312-2.583 0-4.768-2.039-5.498-4.849h15.013zm-9.515-8.964c2.352 0 4.373 1.692 5.267 4.116H76.052c.894-2.424 2.915-4.116 5.267-4.116zm39.597-5.188c-7.404 0-13.148 5.465-13.148 12.207s5.744 11.981 13.148 11.981 13.148-5.24 13.148-11.981-5.744-12.207-13.148-12.207zm0 19.23c-4.649 0-5.916-3.091-5.916-7.069s1.637-7.202 5.916-7.202 5.916 3.224 5.916 7.202-1.266 7.069-5.916 7.069zM17.027 0C7.623 0 0 7.333 0 16.379s7.623 16.379 17.027 16.379 17.027-7.333 17.027-16.379S26.431 0 17.027 0zm.321 27.189c-6.201 0-9.025-4.84-9.025-10.81s3.131-10.81 9.025-10.81 9.025 4.84 9.025 10.81-2.824 10.81-9.025 10.81z"/></g><g fill="#183b67"><path d="M289.989 7.142h-5.677a.612.612 0 0 1-.61-.61V3.467c0-.335.274-.61.61-.61h5.677c.335 0 .61.274.61.61v3.065c0 .335-.275.61-.61.61zm-30.276 0h-5.694a.604.604 0 0 1-.602-.602V3.458c0-.331.271-.602.602-.602h5.694c.331 0 .602.271.602.602V6.54a.604.604 0 0 1-.602.602zm-28.798 0h-5.751a.575.575 0 0 1-.573-.573V3.43c0-.315.258-.573.573-.573h5.751c.315 0 .573.258.573.573v3.139a.574.574 0 0 1-.573.573zM209.429 31.95h-5.076a.914.914 0 0 1-.911-.911V2.414c0-.501.41-.911.911-.911h5.076c.501 0 .911.41.911.911v28.625c0 .501-.41.911-.911.911zm80.259 0h-5.076a.914.914 0 0 1-.911-.911V9.857c0-.501.41-.911.911-.911h5.076c.501 0 .911.41.911.911v21.182c0 .501-.41.911-.911.911zm-30.284 0h-5.076a.914.914 0 0 1-.911-.911V9.857c0-.501.41-.911.911-.911h5.076c.501 0 .911.41.911.911v21.182c0 .501-.41.911-.911.911zm-28.826 0h-5.076a.914.914 0 0 1-.911-.911V9.857c0-.501.41-.911.911-.911h5.076c.501 0 .911.41.911.911v21.182c0 .501-.41.911-.911.911z"/><path d="M221.794 27.327c-1.724 0-1.806-1.24-1.806-2.443V14.472h3.018c.35 0 .635-.262.635-.582v-3.347c0-.32-.286-.582-.635-.582h-3.018V3.432c0-.316-.283-.575-.628-.575h-5.642c-.345 0-.628.259-.628.575v6.529h-5.564c-.349 0-.635.262-.635.582v3.347c0 .32.286.582.635.582h5.564v12.291c0 3.352 2.504 5.187 5.501 5.187h7.636v-4.623h-4.433zM329.931 9.078c-2.782 0-5.261 1.116-7.041 3.157V9.366c0-.479-.428-.872-.952-.872h-4.993c-.524 0-.952.392-.952.872v21.712c0 .479.428.872.952.872h4.993c.524 0 .952-.392.952-.872V18.521c0-2.283 2.053-4.05 4.547-4.05 2.494 0 4.005 1.814 4.005 3.496v13.112c0 .479.428.872.952.872h4.993c.524 0 .952-.392.952-.872V16.727c0-3.111-2.865-7.649-8.408-7.649zM187.685 31.367c2.782 0 5.261-1.116 7.041-3.157v2.868c0 .479.428.872.952.872h4.993c.524 0 .952-.392.952-.872V9.366c0-.479-.428-.872-.952-.872h-4.993c-.524 0-.952.392-.952.872v12.557c0 2.283-2.053 4.05-4.547 4.05-2.494 0-4.005-1.814-4.005-3.496V9.366c0-.479-.428-.872-.952-.872h-4.993c-.524 0-.952.392-.952.872v14.352c0 3.111 2.866 7.649 8.408 7.649z"/><path d="M303.377 8.57c-7.404 0-13.148 5.465-13.148 12.207s5.744 11.981 13.148 11.981 13.148-5.24 13.148-11.981S310.781 8.57 303.377 8.57zm0 19.23c-4.649 0-5.917-3.091-5.917-7.069s1.637-7.202 5.917-7.202c4.28 0 5.917 3.224 5.917 7.202s-1.267 7.069-5.917 7.069zM253.372 8.946h-4.993c-.524 0-1.067.392-1.207.872l-4.476 15.294-5.352-15.294c-.168-.479-.733-.872-1.257-.872h-4.993c-.524 0-.815.392-.647.872l5.395 15.42c.047.177.098.359.153.548 1.909 6.524 6.7 6.164 6.7 6.164s4.791.36 6.7-6.164l4.673-15.968c.141-.48-.172-.872-.696-.872zm18.22 4.736h14.985V8.946h-16.463c-4.019 0-7.308 3.011-7.308 6.691 0 3.68 3.288 6.691 7.308 6.691h1.684c1.446 0 2.668 1.119 2.668 2.443s-1.222 2.443-2.669 2.443h-12.85v4.736h14.821c4.313 0 7.841-3.231 7.841-7.179 0-3.949-3.529-7.179-7.841-7.179h-2.176c-1.157 0-2.135-.895-2.135-1.955s.978-1.955 2.135-1.955zm-94.556-9.341-.002-.012c-.079-.696-.407-1.373-.986-1.904s-1.319-.831-2.079-.903l-.013-.002a3.684 3.684 0 0 0-.348-.016h-.002l-.057.003a4.37 4.37 0 0 0-.28.013c-.048.004-.095.013-.143.019-.065.008-.131.016-.196.028-.038.007-.076.017-.113.025-.075.016-.15.032-.223.053-.019.005-.037.012-.055.018-.5.149-.971.401-1.367.763l-2.415 2.211-3.043 2.786-3.439 3.149-3.439-3.149-3.043-2.786-2.415-2.211a3.477 3.477 0 0 0-1.367-.763l-.055-.018c-.074-.021-.149-.037-.223-.053-.038-.008-.075-.018-.113-.025-.065-.012-.13-.019-.196-.028-.048-.006-.095-.014-.143-.019a3.722 3.722 0 0 0-.28-.013l-.057-.003h-.002c-.116 0-.232.006-.348.016l-.013.002c-.761.072-1.5.372-2.079.903a3.036 3.036 0 0 0-.986 1.904l-.002.012a2.83 2.83 0 0 0-.018.319v26.42c0 .479.428.872.952.872h4.993c.524 0 .952-.392.952-.872V12.297l6.837 6.26a1.577 1.577 0 0 0 2.09 0l6.837-6.26V31.08c0 .479.428.872.952.872h4.993c.524 0 .952-.392.952-.872V4.659c0-.106-.006-.213-.018-.318z"/></g><path d="M131.775 5.475a2.12 2.12 0 1 0 0 4.239 2.12 2.12 0 0 0 0-4.239zm0 3.931a1.812 1.812 0 1 1 0-3.623 1.812 1.812 0 0 1 0 3.623z"/><path d="M132.979 8.928h-.488l-.841-1.06h-.667v1.06h-.413V6.261h1.333c.309 0 .56.073.754.22a.695.695 0 0 1 .291.584.671.671 0 0 1-.251.548 1.057 1.057 0 0 1-.614.228l.896 1.087zm-1.125-1.352a.764.764 0 0 0 .48-.144.447.447 0 0 0 .187-.368.437.437 0 0 0-.187-.368.781.781 0 0 0-.48-.14h-.871v1.02h.871z"/><path fill="#e8e342" stroke="#000" stroke-miterlimit="10" stroke-width=".25" d="M55.92 38.823h226.5v14H55.92z"/><path d="M82.789 44.428h-3.19v5.895c0 .337-1.002.003-1.002-.034v-4.687c-.857 1.325-2.18 2.663-3.969 4.013l-.729-.763c1.926-1.466 3.282-2.941 4.069-4.425h-3.991v-.891h4.62V41.35h1.002v2.188h3.19v.89zm9.159.323c-.734 1.217-1.458 2.174-2.171 2.872l-.773-.663a12.202 12.202 0 0 0 1.598-1.959l-3.251.49v3.295c0 .189.104.284.312.284h4.091v.991h-4.392c-.297 0-.549-.108-.757-.326a1.063 1.063 0 0 1-.312-.76v-3.34l-2.51.39-.145-.991 2.655-.401v-2.805h1.058v2.633l4.414-.674.183.964zm11.291 4.592h-1.036v-.501h-4.319v.501h-1.036v-6.591h6.391v6.591zm-1.036-1.458v-4.164h-4.319v4.164h4.319zm12.882-3.307h-2.115c-.208 2.468-1.292 4.496-3.25 6.084l-.824-.657c1.852-1.473 2.867-3.282 3.045-5.427h-2.733a12.079 12.079 0 0 1-1.665 2.46l-.835-.612c1.117-1.236 1.983-2.881 2.6-4.938l.946.273c-.111.464-.315 1.091-.612 1.881h5.444v.936zm-.211-1.48-.718.328a8.648 8.648 0 0 0-.985-1.38l.707-.351c.355.382.687.85.996 1.403zm1.23-.368-.685.368c-.234-.468-.581-.971-1.041-1.509l.685-.373c.382.397.729.902 1.041 1.514zm10.122 3.696h-8.377v-1.007h8.377v1.007zm11.147 2.895-.813.612a10.97 10.97 0 0 0-.612-.958c-1.93.282-4.396.47-7.397.563l-.268-1.075h1.475c.98-1.874 1.811-4.071 2.494-6.59l1.024.278a43.843 43.843 0 0 1-2.321 6.256c1.31-.052 2.739-.17 4.286-.356a14.694 14.694 0 0 0-1.531-1.698l.869-.612c1.257 1.281 2.189 2.474 2.794 3.58zm11.863.384c0 .805-.46 1.208-1.38 1.208a19.57 19.57 0 0 1-1.392-.033l-.351-1.002c.215.015.792.022 1.731.022.252 0 .378-.117.378-.351v-5.917h-3.078a5.582 5.582 0 0 1-.117.624 31.586 31.586 0 0 1 2.956 4.186l-.813.651c-.757-1.421-1.566-2.65-2.427-3.685-.434 1.254-1.243 2.468-2.427 3.64l-.74-.718c1.469-1.314 2.319-2.88 2.549-4.698h-2.895v7.236h-1.046v-8.183h4.069a37.19 37.19 0 0 0 .067-1.731l1.019.011a76.47 76.47 0 0 1-.083 1.72h3.98v7.02zm11.513-.774c-.015.36-.128.783-.339 1.269-.211.486-.512.729-.902.729-.475 0-.985-.399-1.531-1.197-.278.371-.647.792-1.107 1.263l-.818-.479c.62-.653 1.098-1.227 1.436-1.72-.382-1.087-.618-2.49-.707-4.208h-4.447v2.577c0 1.533-.323 2.791-.969 3.774l-.763-.718c.516-.772.774-1.844.774-3.217v-3.251h5.372a4.96 4.96 0 0 1 0-.668l.979.022a6.325 6.325 0 0 0 0 .646h2.883v.835h-2.861c.037 1.199.17 2.213.401 3.045.304-.564.634-1.419.991-2.566l.902.262c-.416 1.362-.904 2.521-1.464 3.479.126.293.281.537.465.732s.318.292.404.292c.174 0 .323-.457.445-1.37l.856.469zm-5.338-6.44h-1.175v.707h-1.013v-.707h-2.544V41.6h2.544v-.673h1.013v.673h1.175v.891zm1.141 3.373h-1.175v.629h.98v2.099h-.98v.673h1.002v.785H152.8v-4.948h3.752v.762zm-2.076.629v-.629h-.751v.629h.751zm.968 1.403v-.718h-1.72v.718h1.72zm-.968 1.369v-.673h-.751v.673h.751zm6.133-6.774h-2.471v.306h-1.041v-.306h-1.208V41.6h1.208v-.673h1.041v.673h2.471v.891zm-.467.596-.523.59c-.074-.048-.477-.233-1.208-.557l.535-.562c.396.144.795.321 1.196.529zm16.517 6.518-.579.83c-1.317-.738-2.293-1.516-2.928-2.333.011.156.017.334.017.535 0 .872-.126 1.469-.378 1.79-.252.321-.741.481-1.464.481-.189 0-.436-.005-.74-.017l-.334-.969c.523.019.896.028 1.119.028.278 0 .461-.039.548-.117a.792.792 0 0 0 .203-.287c.048-.113.072-.461.072-1.044 0-.186-.004-.358-.011-.518-1.429 1.206-3.147 2.065-5.154 2.577l-.445-.857a11.48 11.48 0 0 0 5.438-2.745 2.991 2.991 0 0 0-.239-.595c-1.358 1.05-2.913 1.757-4.665 2.121l-.434-.83c1.64-.274 3.195-.94 4.665-1.998-.022-.03-.152-.173-.39-.429-1.046.545-2.262.941-3.646 1.186l-.457-.868a11.027 11.027 0 0 0 4.286-1.336h-2.767v-.885h6.44v.885h-2.338c-.186.186-.417.36-.696.523.475.52.816 1.06 1.024 1.62.783-.39 1.533-.937 2.249-1.642l.718.64a10.438 10.438 0 0 1-2.382 1.687c.705.958 1.794 1.814 3.268 2.567zm-.373-5.767h-.991v-1.164h-7.398v1.164h-1.007v-2.065h4.108a4.224 4.224 0 0 0-.434-.674l1.08-.217c.182.286.353.583.512.891h4.13v2.065zm11.448-1.119h-8.06v3.946c0 1.707-.342 3.147-1.024 4.32l-.824-.629c.564-1.035.846-2.301.846-3.796v-4.787h3.863a3.306 3.306 0 0 0-.434-.64l1.085-.229c.07.093.241.382.512.869h4.036v.946zm.14 7.059-.301.979h-3.056c-1.191 0-2.179-.271-2.961-.813-.331.345-.791.685-1.38 1.019l-.651-.791c.542-.256.987-.564 1.336-.924-.286-.327-.579-.889-.879-1.687l.913-.306c.197.579.36.966.49 1.163.215-.427.342-.938.379-1.536h-1.642v-.935c.397-.334.85-.848 1.358-1.542h-1.358v-.935h2.505v.935a9.797 9.797 0 0 1-1.208 1.542h1.347v.935c-.13.946-.354 1.72-.674 2.321.553.382 1.336.573 2.349.573h3.433zm-.267-.78h-4.693v-.935h1.854v-1.447h-1.481v-.918h1.481v-1.119c-.568.056-1.039.097-1.414.123l-.384-.913c1.563-.085 2.915-.3 4.058-.646l.545.84c-.664.193-1.264.334-1.798.423v1.292h1.436v.918h-1.436v1.447h1.832v.935zm10.662.757c0 .308-.111.577-.334.807s-.614.345-1.174.345c-.256 0-.521-.009-.796-.028l-.306-1.002 1.274-.011a.318.318 0 0 0 .239-.114.357.357 0 0 0 .106-.248V47.45h-2.806v3.189h-.968V47.45h-2.761c-.126 1.466-.464 2.633-1.013 3.501l-.902-.584c.319-.475.566-1.103.74-1.884a10.31 10.31 0 0 0 .262-2.24v-5.049h8.438v8.561zm-4.765-5.917v-1.653h-2.661v1.653h2.661zm0 2.655v-1.709h-2.661v1.709h2.661zm3.774-2.655v-1.653h-2.806v1.653h2.806zm0 2.655v-1.709h-2.806v1.709h2.806zm11.707-1.263h-3.474c0 .913-.055 1.669-.164 2.268-.11.6-.368 1.161-.774 1.684s-1.029.976-1.868 1.358l-.685-.774c.776-.356 1.338-.735 1.687-1.136.349-.4.563-.821.643-1.261.08-.439.116-1.153.108-2.14h-3.807v-.935h8.333v.936zm-1.319-2.227h-5.667v-.958h5.667v.958zm12.261 2.466c-1.046 1.425-2.111 2.451-3.192 3.078-1.082.627-2.426 1.041-4.033 1.242v-7.843h1.035v6.635c1.05-.227 1.98-.599 2.789-1.116.809-.518 1.696-1.435 2.661-2.752l.74.756zm10.159 4.286h-5.082c-.315 0-.59-.104-.824-.314a1.021 1.021 0 0 1-.351-.793v-6.702h1.074v2.917c1.663-.204 3.182-.546 4.559-1.024l.523.863a22.676 22.676 0 0 1-5.083 1.119v2.667c0 .06.036.122.109.187.072.065.138.097.197.097h4.876v.983zm.423-6.318-.662.412a10.137 10.137 0 0 0-1.036-1.486l.64-.429c.435.468.787.969 1.058 1.503zm.991-.673-.657.445a7.926 7.926 0 0 0-1.052-1.525l.64-.412c.375.393.732.891 1.069 1.492zm10.674 1.814h-2.115c-.209 2.468-1.291 4.496-3.252 6.084l-.822-.657c1.852-1.473 2.865-3.282 3.045-5.427h-2.734c-.43.854-.985 1.674-1.665 2.46l-.835-.612c1.116-1.236 1.984-2.881 2.599-4.938l.947.273c-.111.464-.316 1.091-.613 1.881h5.445v.936zm-.213-1.48-.717.328a8.655 8.655 0 0 0-.986-1.38l.707-.351c.358.382.69.85.996 1.403zm1.231-.368-.684.368c-.234-.468-.582-.971-1.041-1.509l.684-.373c.383.397.73.902 1.041 1.514zm10.163 3.696h-8.377v-1.007h8.377v1.007zm11.085 2.895-.813.612c-.253-.431-.457-.75-.612-.958-1.93.282-4.396.47-7.398.563l-.267-1.075h1.475c.979-1.874 1.812-4.071 2.494-6.59l1.024.278a43.964 43.964 0 0 1-2.321 6.256 54.08 54.08 0 0 0 4.286-.356 14.88 14.88 0 0 0-1.531-1.698l.868-.612c1.259 1.281 2.19 2.474 2.795 3.58z"/></svg>