<svg xmlns="http://www.w3.org/2000/svg" xmlns:xlink="http://www.w3.org/1999/xlink" xmlns:a="http://ns.adobe.com/AdobeSVGViewerExtensions/3.0/" version="1.1" x="0px" y="0px" width="1386px" height="180px" viewBox="-14.625 -9 1386 180" enable-background="new -14.625 -9 1386 180" xml:space="preserve">
<defs>
</defs>
<path fill-rule="evenodd" clip-rule="evenodd" d="M351.375,159.77h-36.5l29.533-59.521c-7.981,0-30.033-4.249-38.076-11.495  c-10.428-9.395-18.869-28.396-12.999-50.994c6.481-24.946,34.497-43.741,64.992-35.996c21.805,5.539,34.549,16.485,38.299,40.376  c1.727,11.003,1.013,21.703-6.193,37.881L351.375,159.77z M324.33,52.758c0,25.899,39.995,26.614,39.995,1  C364.325,27.016,324.33,26.766,324.33,52.758z"/>
<path fill-rule="evenodd" clip-rule="evenodd" d="M448.314,1.765c35.151-4.551,65.75,23.095,54.993,58.993  C501.625,66.372,492,78.373,492,78.373s14.699,13.6,16.307,22.38c6.706,36.626-20.935,58.203-48.994,58.992  c-29.72,0.838-62.426-19.279-55.993-56.992c0.87-5.1,4.273-9.96,6-12.999c1.74-3.063,9.931-11.381,9.931-11.381  s-10.901-17.317-11.931-24.614C403.559,27.106,419.456,5.501,448.314,1.765z M441.315,45.791c0,19.225,28.997,18.975,28.997,0.968  C470.312,26.391,441.315,26.141,441.315,45.791z M456.304,129.748c22.679,0,22.8-33.995-0.388-33.995  C432.655,95.753,433.26,129.748,456.304,129.748z"/>
<path fill-rule="evenodd" clip-rule="evenodd" d="M570.299,1.765c17.755-1.81,33.311,4.689,41.995,12.999  c26.06,24.935,30.287,106.69-1,133.983c-12.841,11.201-39.696,17.006-59.993,7c-19.53-9.629-31.006-35.318-32.996-64.993  C515.19,44.285,528.583,6.017,570.299,1.765z M576.298,129.748c31.296-0.674,30.004-104.999-5-95.987  C546.44,40.161,546.878,130.383,576.298,129.748z"/>
<path fill-rule="evenodd" clip-rule="evenodd" d="M694.058,0.671c17.755-1.81,33.311,4.689,41.995,12.999  c26.061,24.935,30.287,106.69-1,133.983c-12.841,11.201-39.696,17.006-59.993,7c-19.53-9.629-31.006-35.318-32.996-64.993  C638.949,43.191,652.341,4.923,694.058,0.671z M700.057,128.654c31.297-0.674,30.004-104.999-4.999-95.987  C670.199,39.067,670.637,129.289,700.057,128.654z"/>
<path fill-rule="evenodd" clip-rule="evenodd" d="M199.345,3.024V34c-84.938-22.833-84.368,114.5-1.14,91.754v30.996  C69.355,189,68.785-26.667,199.345,3.024z"/>
<path fill-rule="evenodd" clip-rule="evenodd" d="M40.256,96l0.108-30.918c15.01,0,23.997-5.203,23.997-16.088  c0-9-1.487-17.866-31.862-17.866l0.125,128.622H0L0.37,0l31.505,0.003C92.375,0.209,99.5,24.5,99.5,47.994  C99.5,81.755,75.875,96,40.256,96z"/>
<polygon fill-rule="evenodd" clip-rule="evenodd" points="846.265,11.764 846.265,41.76 776.273,41.76 776.273,11.683   846.265,11.764 "/>
<path fill-rule="evenodd" clip-rule="evenodd" d="M1305.875,158.618h-33.125c-3.75-15.854-25.623-44.344-25.623-44.344  l-36.465,37.649c-6.589,6.589-18.636,6.694-31.037,6.694h-10.4v-28.243l6.999,0.015c7.53,0,14.165-0.626,19.909-6.369l63.738-67.066  c6.784-6.784,3.129-16.439-8.561-16.439l-82.086,0.187V11.765h82.65c40,0,51.799,42.711,37.227,58.212l-20.751,21.727  C1268.351,91.705,1303.875,142.624,1305.875,158.618z"/>
<polygon fill-rule="evenodd" clip-rule="evenodd" points="958.25,11.683 958.25,81.754 926.255,81.754 926.255,11.683   958.25,11.683 "/>
<path fill-rule="evenodd" clip-rule="evenodd" d="M1038.24,11.683v91.208c0,30.75-23.115,53.855-51.74,53.855h-60.245V126.75  l56.005-0.109c15.49,0,24.116-8.23,24.117-24.875c0-16.756,0.123-90.083,0.123-90.083H1038.24z"/>
<path fill-rule="evenodd" clip-rule="evenodd" d="M908.875,19.766V102.5c0,31.5-28.75,54.246-54.5,54.246h-78.102V124.75  l77.852-0.051c13.25,0,23.252-7.199,23.252-21.717l0.123-83.216H908.875z"/>
<polygon fill-rule="evenodd" clip-rule="evenodd" points="846.265,87.756 776.273,87.754 776.273,57.933 846.265,57.891 "/>
<rect x="200.345" y="69.756" fill-rule="evenodd" clip-rule="evenodd" width="77.99" height="23.997"/>
<polygon fill-rule="evenodd" clip-rule="evenodd" points="1176.224,70.756 1176.224,99.752 1051.239,99.752 1051.239,70.756   1176.224,70.756 "/>
<circle fill-rule="evenodd" clip-rule="evenodd" fill="#060606" cx="1316.706" cy="24.114" r="13.032"/>
<circle fill-rule="evenodd" clip-rule="evenodd" fill="#060606" cx="1349.568" cy="24.114" r="13.032"/>
</svg>