<svg xmlns="http://www.w3.org/2000/svg" viewBox="0 0 791.387 98.441"><path d="M301.428 34.154c-3.717 0-6.881 1.303-9.481 3.904-2.603 2.601-3.9 5.761-3.9 9.479 0 3.663 1.298 6.797 3.9 9.399 2.6 2.6 5.763 3.903 9.481 3.903 3.658 0 6.796-1.302 9.394-3.903 2.605-2.602 3.907-5.736 3.907-9.399 0-3.717-1.302-6.877-3.907-9.479-2.598-2.6-5.736-3.904-9.394-3.904zM556.153 1.515c-13.784-.552-25.398 3.798-34.838 13.049-9.444 9.252-14.166 20.807-14.166 34.669 0 12.351 3.63 23.024 10.891 32.022 9.188 11.385 22.193 17.076 39.01 17.076 16.769 0 29.747-5.965 38.937-17.902 6.938-8.998 10.406-19.419 10.406-31.265 0-13.862-4.651-25.406-13.956-34.634C583.132 5.301 571.04.964 556.153 1.515zm21.948 74.115c-2.243 6.45-5.388 11.143-9.428 14.077-3.166 2.298-7.105 3.442-11.831 3.442-7.018 0-12.477-2.662-16.375-7.986-5.596-7.618-8.396-19.39-8.396-35.315 0-13.403 1.811-23.681 5.436-30.84 4.45-8.722 10.941-13.084 19.474-13.084 4.631 0 8.723 1.265 12.283 3.787 3.552 2.526 6.475 6.85 8.769 12.976 2.291 6.129 3.442 15.366 3.442 27.71 0 10.373-1.128 18.785-3.374 25.233zM422.08 57.092h-45.431v2.424h2.406c2.243 0 4.155.444 5.731 1.323 1.584.879 2.623 1.865 3.127 2.953.504 1.09.755 3.488.755 7.194v19.451c-2.47.92-4.882 1.621-7.24 2.099a34.2 34.2 0 0 1-6.899.726c-6.452 0-12.024-1.586-16.716-4.754-4.69-3.165-8.085-8.126-10.193-14.874-2.106-6.748-3.156-14.599-3.156-23.552 0-7.392.966-14.598 2.898-21.622 1.927-7.022 5.219-12.499 9.861-16.423 4.644-3.926 10.458-5.889 17.448-5.889 7.309 0 14.043 2.343 20.202 7.029 6.164 4.687 10.783 11.534 13.867 20.537h2.424V.743h-2.424c-.92 2.651-1.934 4.454-3.037 5.407-1.103.954-2.298 1.43-3.587 1.43-.824 0-3.507-.863-8.036-2.589-4.532-1.728-7.805-2.774-9.829-3.144-3.729-.735-7.911-1.104-12.557-1.104-14.993 0-27.431 4.841-37.319 14.519-9.89 9.678-14.83 21.534-14.83 35.57 0 7.842 1.607 14.931 4.823 21.262 2.522 4.905 6.024 9.318 10.504 13.244 4.475 3.921 9.646 7.086 15.498 9.495 5.855 2.406 13.219 3.61 22.081 3.61 6.933 0 13.626-.673 20.076-2.014a92.492 92.492 0 0 0 18.636-5.99V70.986c0-3.429.208-5.583.62-6.466.73-1.666 1.769-2.859 3.12-3.578 1.353-.717 3.745-1.19 7.176-1.426v-2.424zM232.517 1.515c-13.786-.552-25.4 3.798-34.84 13.049-9.444 9.252-14.162 20.807-14.162 34.669 0 12.351 3.626 23.024 10.888 32.022 9.188 11.385 22.191 17.076 39.006 17.076 16.771 0 29.752-5.965 38.942-17.902 6.936-8.998 10.408-19.419 10.408-31.265 0-13.862-4.653-25.406-13.956-34.634-9.306-9.229-21.401-13.566-36.286-13.015zm21.947 74.115c-2.248 6.45-5.388 11.143-9.426 14.077-3.166 2.298-7.109 3.442-11.832 3.442-7.022 0-12.479-2.662-16.375-7.986-5.599-7.618-8.396-19.39-8.396-35.315 0-13.403 1.808-23.681 5.434-30.84 4.452-8.722 10.941-13.084 19.472-13.084 4.633 0 8.726 1.265 12.283 3.787 3.557 2.526 6.475 6.85 8.771 12.976 2.296 6.129 3.442 15.366 3.442 27.71.001 10.373-1.126 18.785-3.373 25.233zm234.984 9.476c-5.255 4.038-12.246 6.059-20.964 6.059h-5.58c-2.662 0-4.592-.364-5.784-1.103-1.193-.735-2.01-1.678-2.445-2.822-.437-1.149-.65-4.299-.65-9.444V51.468c4.452 0 7.853.588 10.197 1.758 2.346 1.172 4.402 3.461 6.169 6.862 1.769 3.401 2.927 7.771 3.479 13.102h2.648V24.23h-2.648c-.735 7.261-2.433 12.753-5.1 16.473-2.664 3.722-6.961 5.583-12.884 5.583h-1.861V8.241h9.593c7.073 0 11.9.414 14.473 1.241 4.409 1.38 7.822 3.542 10.232 6.485 2.415 2.941 4.285 7.793 5.619 14.551h2.648V2.838h-78.186v2.425h3.092c3.024 0 5.407.65 7.144 1.947 1.238.883 2.085 2.134 2.545 3.757.227.975.346 3.594.346 7.86v61.531c0 4.733-.256 7.65-.762 8.762-.636 1.577-1.552 2.692-2.749 3.342-1.648.975-3.822 1.46-6.523 1.46h-3.092v2.424h80.708l4.2-29.704h-2.541c-2.289 8.271-6.068 14.426-11.324 18.464zm-323.633 0c-5.258 4.038-12.248 6.059-20.969 6.059h-5.578c-2.662 0-4.589-.364-5.784-1.103-1.195-.735-2.007-1.678-2.444-2.822-.435-1.149-.655-4.299-.655-9.444V51.468c4.456 0 7.86.588 10.202 1.758 2.344 1.172 4.402 3.461 6.169 6.862 1.765 3.401 2.928 7.771 3.484 13.102h2.644V24.23h-2.644c-.739 7.261-2.438 12.753-5.102 16.473-2.669 3.722-6.963 5.583-12.889 5.583h-1.863V8.241h9.595c7.077 0 11.898.414 14.471 1.241 4.415 1.38 7.824 3.542 10.239 6.485 2.413 2.941 4.283 7.793 5.615 14.551h2.646V2.838H65.5v2.425c5.212-.09 8.927 1.204 11.145 3.884 1.611 1.988 2.42 5.804 2.42 11.444v40.094L33.137 2.838H.005v2.425c2.85.096 5.033.541 6.549 1.338 1.515.797 3.26 2.461 5.237 4.991l1.994 2.474v65.96c0 5.029-1.01 8.588-3.033 10.682C8.73 92.806 5.146 93.875 0 93.923v2.424h33.192v-2.424h-2.207c-3.17 0-5.983-.952-8.442-2.861-2.458-1.909-3.685-5.59-3.685-11.035V20.533l62.951 77.908h2.328v-77.85c0-4.438.378-7.571 1.133-9.396.76-1.827 1.813-3.145 3.163-3.953 1.355-.81 4.003-1.468 7.943-1.979h1.483c3.021 0 5.407.65 7.146 1.947 1.241.883 2.088 2.134 2.543 3.757.227.975.343 3.594.343 7.86v61.531c0 4.733-.254 7.65-.753 8.762-.643 1.577-1.559 2.692-2.751 3.342-1.648.975-3.827 1.46-6.528 1.46h-3.088v2.424h80.706l4.203-29.704h-2.538c-2.299 8.271-6.076 14.426-11.327 18.464zm583.316-74.813c-3.024-1.307-8.041-1.939-15.052-1.898v68.926c0 3.543.167 5.716.506 6.517.332.801.9 1.415 1.698 1.833 1.133.632 2.77.945 4.912.945 7.009 0 12.36-2.399 16.059-7.206 5.036-6.496 7.556-17.433 7.556-31.098 0-11.005-1.724-19.797-5.164-26.373-2.731-5.144-6.235-9.792-10.515-11.646zm5.173 66.829c-2.987 3.884-7.27 5.766-13.109 5.766-2.083 0-2.896-.364-3.095-.476l-.055-.03c-.069-.403-.236-1.671-.236-5.061v-65.14c5.539.197 8.393.912 9.835 1.536 3.514 1.524 6.361 5.558 8.707 9.973 3.131 5.993 4.722 14.284 4.722 24.624.001 12.754-2.274 23.017-6.769 28.808zm30.69-54.519c-4.317-7.58-10.721-14.461-19.044-18.19C759.262 1.426 750.447.01 739.744.01L701.134 0h-9.41l-.442 3.223c-.252 1.82-.728 2.414-.867 2.555-.312.311-.545.381-.833.387-.211-.024-1.511-.232-6.068-2.008C676.411 1.397 669.542 0 663.09 0c-8.774 0-17.169 2.197-24.959 6.534-7.821 4.355-14.118 10.558-18.71 18.435-4.592 7.867-6.92 16.322-6.92 25.122 0 8.36 2.106 16.349 6.258 23.744 4.193 7.476 10.236 13.29 17.957 17.277 7.597 3.923 16.366 5.91 26.055 5.91 7.425 0 14.054-1.241 19.703-3.692 5.628-2.442 11.083-6.398 16.21-11.758l1.035-1.083V61.535l-6.56 7.631c-4.633 5.388-9.025 9.197-13.061 11.323-3.912 2.062-8.297 3.106-13.035 3.106-5.672 0-10.289-1.359-13.711-4.04-3.488-2.724-6.114-6.908-7.81-12.429-1.813-5.903-2.731-12.58-2.731-19.841 0-7.257 1.238-13.912 3.683-19.787 1.794-4.337 4.557-7.745 8.439-10.426 3.852-2.656 7.963-3.95 12.566-3.95 5.546 0 10.378 1.752 14.775 5.36 4.372 3.585 7.423 8.913 9.071 15.831l.682 2.867h9.105V9.601h3.129c2.126 0 3.243.395 3.806.727.941.556 1.186.976 1.243 1.107.069.227.414 3.635.414 8.874v56.406c0 4.697-.218 6.21-.304 6.622-.265.542-.712 1.032-1.366 1.421-.412.247-1.453.659-3.793.659h-6.565v9.684h42.046c5.805 0 10.005-.272 12.841-.826 6.093-1.154 11.378-2.825 15.684-4.972a40.646 40.646 0 0 0 11.701-8.762c3.385-3.644 6.166-8.284 8.265-13.793 2.092-5.477 3.152-12.388 3.152-18.845.002-9.338-2.147-17.85-6.391-25.3zm-87.591 10.848h-2.424c-1.852-7.765-5.297-13.717-10.337-17.851-5.043-4.137-10.758-6.207-17.142-6.207-5.336 0-10.232 1.536-14.684 4.609-4.454 3.075-7.709 7.096-9.769 12.065-2.646 6.36-3.969 13.43-3.969 21.22 0 7.664.966 14.642 2.898 20.937 1.932 6.295 4.958 11.051 9.076 14.274 4.118 3.223 9.456 4.83 16.011 4.83 5.374 0 10.298-1.176 14.775-3.534 4.475-2.36 9.19-6.423 14.15-12.193v7.393c-4.8 5.017-9.799 8.655-14.999 10.916-5.196 2.252-11.271 3.383-18.218 3.383-9.135 0-17.25-1.834-24.343-5.494-7.094-3.665-12.566-8.927-16.416-15.791-3.855-6.862-5.777-14.166-5.777-21.915 0-8.168 2.133-15.916 6.407-23.243 4.274-7.326 10.039-13.009 17.302-17.054 7.263-4.04 14.974-6.063 23.146-6.063 6.017 0 12.374 1.302 19.069 3.902 3.875 1.509 6.336 2.265 7.389 2.265 1.346 0 2.516-.492 3.502-1.478.991-.987 1.632-2.548 1.93-4.689h2.424v29.718zm87.346 31.97c-1.936 5.079-4.438 9.273-7.512 12.58a36.73 36.73 0 0 1-10.634 7.963c-4.019 2.003-8.934 3.552-14.736 4.649-2.573.503-6.61.755-12.122.755H701.43v-2.22h2.834c2.477 0 4.376-.394 5.699-1.181 1.321-.788 2.298-1.861 2.927-3.22.378-.89.568-3.571.568-8.032V20.309c0-4.419-.231-9.189-.691-10.296-.462-1.106-1.396-2.072-2.804-2.901-1.405-.829-3.305-1.243-5.699-1.243h-2.834V3.645h38.315c10.227 0 18.453 1.392 24.679 4.173 7.618 3.413 13.392 9.722 17.329 16.635 3.935 6.912 5.901 14.727 5.901 23.451 0 6.027-.966 12.438-2.905 17.517z"/></svg>