<svg xmlns="http://www.w3.org/2000/svg" xml:space="preserve" width="2437.475" height="680"><defs><clipPath id="a" clipPathUnits="userSpaceOnUse"><path d="M0 618.062h1949.984V0H0Z"/></clipPath></defs><g clip-path="url(#a)" transform="matrix(1.25 0 0 -1.25 -.002 726.289)"><path d="M0 0c0 149.251 121.013 270.264 270.262 270.264 149.25 0 270.264-121.013 270.264-270.264 0-149.25-121.014-270.262-270.264-270.262C121.013-270.262 0-149.25 0 0" style="fill:#000;fill-opacity:1;fill-rule:nonzero;stroke:none" transform="translate(30.908 309.03)"/><path d="M0 0c-4.763 1.051-9.038 5.4-9.038 5.4l1.801 5.4 5.437 3.6s5.4-.449 7.2-1.8C7.2 11.25 9 5.4 9 5.4L4.95 1.8S4.05-.899 0 0m30.601 30.637 7.236 10.802h9.002s7.649-11.25 7.649-13.052c0-1.8-5.85-10.386-5.85-10.386L36.9 18.45Zm0-90.075c6.112-3.9 12.599-3.825 18.9-3.75 10.538.114 20.661 3.414 27.936 11.851 5.888 8.549 6.04 13.876 9.488 23.549 2.025 5.663 4.5 8.888 4.5 8.888s2.025-7.65 1.801-16.686c-.151-6.039-1.238-12.413-4.951-18.452-7.2-11.737-13.987-16.236-18.936-17.137-4.951-.899-18.9-2.699-27.902 1.35-7.049 3.187-10.836 10.387-10.836 10.387M-9.038 95.475l-43.236-63.037 30.636-66.675L32.4-102.713l41.437-14.399 52.275 63.074L118.912 0 64.838 75.676Z" style="fill:#f7b210;fill-opacity:1;fill-rule:nonzero;stroke:none" transform="translate(405.683 391.905)"/><path d="m0 0 5.4 144.114 18.001 21.637 70.274-52.276 18.001 106.763 3.6-31.088 9.036 16.238 1.8-14.438 12.601 16.238 2.1-189.489L39.637 95.476S0 .9 0 0" style="fill:#f7b210;fill-opacity:1;fill-rule:nonzero;stroke:none" transform="translate(84.983 291.03)"/><path d="m0 0 121.95 34.237S97.313 19.801 99.113 19.801c1.799 0 16.2-1.8 16.2-1.8L86.512 0l32.4 1.8-86.475-50.436v-3.602l93.713 5.402-93.713-66.677v-19.798l70.577 8.699s-23.288-13.237-21.903-12.338c1.353.937 17.101.638 17.101.638l-9.899-6.038h17.099L1.838-216.187Z" style="fill:#f7b210;fill-opacity:1;fill-rule:nonzero;stroke:none" transform="translate(241.696 507.217)"/><path d="m0 0-29.774 65.176s-16.5 14.888-45.788 13.837c-6.451-.225-59.738-.638-63.151-82.613-3.038-73.312 45.826-107.963 45.826-107.963s23.662-17.474 41.175-28.087C-34.2-150.299-1.8-165.75-1.8-165.75L-27.001-5.398-81.075-21.6l10.838-1.8-18.038-14.438 16.199-1.799-10.799-10.801 28.837-1.799 10.8-41.437s-21.975 6.9-40.463 25.274c-15.148 15.075-27.336 39.639-28.011 59.401-.638 19.761 8.624 44.7 36.037 45.037C-48.224 36.375 0 0 0 0" style="fill:#1082ce;fill-opacity:1;fill-rule:nonzero;stroke:none" transform="translate(232.696 235.155)"/><path d="m0 0 102.675 140.549 64.874-52.275s-8.101 2.065-8.999 1.8c-.901-.224 14.399-21.599 14.399-21.599l-19.8 7.201 10.8-14.4-66.675 23.399-5.399-5.4 43.237-72.076-88.275 3.6 48.639-93.674-18.002 3.601 8.476-21.189-15.225 13.238 12.149-22.687z" style="fill:#1082ce;fill-opacity:1;fill-rule:nonzero;stroke:none" transform="translate(218.296 190.118)"/><path d="m0 0 5.4 9 16.2 7.199L34.237 0h10.8l14.401 5.4L70.237-18l-27-12.637H30.601l-5.402 10.799H7.2Zm93.675 48.637s6.562 2.926 7.2 1.801c.637-1.087 9-1.801 9-1.801v-9l-7.2-5.4-9 5.4zm-37.836 9.002-7.202 10.836 7.202 14.4 18.036 1.801 5.401-10.801-5.401-14.437zm-81.077-34.202-1.799-64.875L1.801-64.875l50.773 10.687 84.338 73.987 5.4 91.914H45.037Z" style="fill:#1082ce;fill-opacity:1;fill-rule:nonzero;stroke:none" transform="translate(371.446 148.68)"/><path d="M0 0h-149.62c-5.312 0-10.431.197-15.549.984a87.17 87.17 0 0 0-13.584 2.756c-5.906 1.378-10.237 4.331-12.993 6.691-2.362 2.168-3.544 4.531-3.544 6.893V43.31c.591 2.166 2.166 4.922 4.725 6.89 2.557 1.969 6.103 3.741 10.237 4.922a93.172 93.172 0 0 0 14.371 2.756c5.512.591 11.222.984 17.521.984H0v-7.874h-148.436c-6.299 0-11.812-.197-16.733-.788-4.728-.59-9.45-1.574-13.781-2.753-5.906-1.774-7.087-3.94-8.268-6.893l-.197-6.1H-.197L0 26.38h-187.218v-8.465c0-2.166 1.575-4.331 9.447-6.497 3.94-.987 8.271-1.772 13.192-2.365 4.919-.785 9.844-.982 14.765-.982H0Z" style="fill:#231f20;fill-opacity:1;fill-rule:nonzero;stroke:none" transform="translate(1681.461 146.52)"/><path d="M0 0h-.394Z" style="fill:#231f20;fill-opacity:1;fill-rule:nonzero;stroke:none" transform="translate(1372.384 146.52)"/><path d="M0 0h-94.298v-50.594h-8.271V0h-94.101v8.268H0Z" style="fill:#231f20;fill-opacity:1;fill-rule:nonzero;stroke:none" transform="translate(1462.55 197.114)"/><path d="M0 0h-54.531v-24.411H-62.8V0h-70.477c-10.631 0-23.818 1.381-23.818 17.13v17.324h8.659V17.915c0-10.434 10.04-9.447 16.537-9.447H16.34c6.693 0 16.733-.987 16.733 9.447v16.539h8.268V17.13C41.342 1.381 28.152 0 17.521 0Z" style="fill:#231f20;fill-opacity:1;fill-rule:nonzero;stroke:none" transform="translate(992.238 170.93)"/><path d="M0 0h-157.492c-7.874 0-14.961-1.381-20.08-3.546-3.937-1.575-6.299-3.347-6.299-4.922 0-1.575 2.362-3.344 6.299-4.919 5.119-1.971 12.206-3.349 20.08-3.349h122.844c5.906 0 11.615-.588 16.34-1.769 2.559-.591 4.724-1.378 6.89-2.169 2.165-.981 4.134-1.968 5.709-2.952 3.74-2.754 5.906-6.103 5.906-9.841v-.2c0-5.315-4.528-9.84-11.615-12.793-6.103-2.362-14.371-3.94-23.23-3.94h-155.326v8.468h155.326c7.874 0 14.962 1.378 20.08 3.344 3.74 1.772 6.3 3.546 6.3 4.921v.2c0 .785-.985 1.769-2.363 2.756-1.181.788-2.559 1.375-3.937 2.166-1.772.588-3.544 1.178-5.709 1.769-4.134.984-9.056 1.575-14.371 1.575h-122.844c-8.859 0-17.127 1.378-23.23 3.94-7.087 2.95-11.615 7.478-11.615 12.793 0 5.515 4.528 10.04 11.615 12.993 6.103 2.365 14.371 3.94 23.23 3.94H0Z" style="fill:#231f20;fill-opacity:1;fill-rule:nonzero;stroke:none" transform="translate(813.879 196.919)"/><path d="M0 0h-157.292c-7.875 0-14.962-1.381-20.08-3.546-3.937-1.575-6.3-3.347-6.3-4.922 0-1.575 2.363-3.344 6.3-4.919 5.118-1.971 12.205-3.349 20.08-3.349H-34.451c5.908 0 11.618-.588 16.145-1.769 2.557-.591 4.725-1.378 6.888-2.169 2.168-.981 4.134-1.968 5.712-2.952h-.197c3.937-2.754 6.1-6.103 6.1-9.841v-.2c0-5.315-4.528-9.84-11.615-12.793-6.1-2.362-14.172-3.94-23.033-3.94h-155.324v8.468h155.324c7.877 0 14.767 1.378 19.689 3.344 3.934 1.772 6.496 3.546 6.496 4.921v.2c0 .785-.984 1.769-2.362 2.756-1.181.788-2.559 1.375-3.937 2.166-1.772.588-3.544 1.178-5.512 1.769-4.135.984-9.056 1.575-14.374 1.575H-157.292c-8.859 0-17.127 1.378-23.23 3.94-7.087 2.95-11.615 7.478-11.615 12.793 0 5.515 4.331 10.04 11.615 12.993 6.103 2.365 14.371 3.94 23.23 3.94H0Z" style="fill:#231f20;fill-opacity:1;fill-rule:nonzero;stroke:none" transform="translate(1245.995 196.919)"/><path d="M0 0c2.166 0 4.331-1.575 4.331-4.134v-54.728H-3.74v47.444L-93.117-56.5l-1.181-.397c-4.922-1.965-6.3-1.574-9.846 0l-1.179.594-88.591 45.079v-47.639h-8.465v54.926c0 2.559 2.165 3.937 4.134 3.937 1.184 0 1.771-.197 2.759-.787l92.129-47.448c3.544-1.574 4.137-2.359 8.468-.196L-13.39-6.893l11.618 6.3C-1.181-.197-.396 0 0 0" style="fill:#231f20;fill-opacity:1;fill-rule:nonzero;stroke:none" transform="translate(1902.344 205.383)"/><path d="M0 0v-70.281h-5.512c-6.497 19.293-16.34 33.861-29.527 43.702-12.996 10.042-20.871 15.161-36.423 15.161-14.765 0-27.167-4.331-37.01-12.599-10.043-8.468-16.931-20.081-21.065-35.042-4.134-14.962-6.1-30.317-6.1-46.067 0-19.095 2.166-35.829 6.691-50.203 4.528-14.565 11.812-22.24 21.852-28.939 10.04-6.691 18.111-10.037 31.892-10.037 4.921 0 9.843.393 14.764 1.375 5.122 1.184 9.056 2.562 14.369 4.531v50.791c0 7.874-.588 12.993-1.572 15.355-1.182 2.166-3.347 4.331-6.694 6.103-3.349 1.969-7.481 2.953-12.402 2.953h-5.119v5.315h96.858v-5.315c-7.284-.591-12.403-1.578-15.358-3.15-2.953-1.381-5.119-3.937-6.691-7.481-.788-1.968-1.184-6.496-1.378-13.78l-.394-49.216c-12.602-5.513-24.214-10.237-37.995-13.19-13.78-2.756-28.154-5.116-42.916-5.116-18.899 0-30.908 1.375-43.31 6.494-12.597 5.118-23.427 9.843-33.076 18.114-9.45 8.462-16.928 17.909-22.44 28.346-6.694 13.583-10.237 28.545-10.237 45.478 0 29.921 10.631 55.12 31.695 75.788C-136.23-10.237-109.654 0-77.762 0c14.568 0 27.561-3.74 41.145-8.859 9.647-3.74 15.356-5.512 17.127-5.512 2.756 0 5.119.984 7.481 2.953C-9.646-9.449-7.481-5.709-5.512 0z" style="fill:#231f20;fill-opacity:1;fill-rule:nonzero;stroke:none" transform="translate(1496.212 471.543)"/><path d="M0 0h-.394v11.022c32.483.787 59.257-8.463 79.73-27.364 20.868-19.487 31.299-43.704 31.299-72.838 0-25.001-7.869-46.853-23.424-65.949C66.54-180.134 37.404-192.73-.394-192.73v15.158c10.434 0 19.49 2.756 26.38 7.478 8.859 5.906 14.568 15.555 19.49 28.745 4.921 12.993 8.268 29.727 8.268 50.791 0 25.199-2.559 43.901-7.678 56.304C41.145-21.655 34.648-12.993 26.97-7.68 19.096-2.562 10.04 0 0 0m-.394 0C-19.096-.197-33.073-9.059-42.72-26.776c-8.071-14.371-12.008-35.433-12.008-62.6 0-32.483 5.709-56.894 17.914-72.25 8.662-10.827 21.065-15.946 36.42-15.946v-15.158h-.197c-37.798 0-67.13 12.006-87.801 36.023C-104.732-137.805-113-115.363-113-89.376c0 29.135 10.63 53.547 31.892 72.837C-59.847 2.953-33.664 12.206-2.559 11.022h2.165z" style="fill:#231f20;fill-opacity:1;fill-rule:nonzero;stroke:none" transform="translate(1139.1 458.748)"/><path d="M0 0v-78.549h4.331c13.584 0 18.899 3.937 25.002 12.009 6.103 7.874 10.04 19.492 11.615 35.042h6.103v-104.339h-6.103c-1.181 11.419-3.937 20.674-7.875 27.955-4.134 7.284-8.859 12.206-14.174 14.568-5.315 2.562-8.662 3.741-18.899 3.741v-58.469c0-11.025.591-17.718 1.575-20.08.984-2.56 2.756-4.528 5.512-6.103 2.756-1.575 7.087-2.362 13.387-2.362H33.27c19.883 0 25.592 4.331 37.601 12.993 12.009 8.465 20.277 18.308 25.593 36.026h5.906l-9.253-60.041H-81.896v5.509h7.284c6.103 0 11.222.985 14.962 2.953 2.756 1.378 4.922 3.741 6.3 7.087 1.181 2.363 1.772 8.466 1.772 18.506V-22.44c0 8.856-.197 14.371-.788 16.534-.984 3.347-2.953 6.103-5.906 7.877-3.937 2.756-9.449 4.132-16.34 4.132h-7.284v5.512H97.645v-58.86h-5.906c-3.15 14.371-7.284 24.608-12.993 30.902-5.512 6.303-13.19 10.831-23.427 13.784C49.413-.787 38.389 0 22.049 0Z" style="fill:#231f20;fill-opacity:1;fill-rule:nonzero;stroke:none" transform="translate(921.367 455.4)"/><path d="m0 0 110.441-123.631v85.639c0 12.006-1.772 20.077-5.709 24.214-5.315 5.707-11.615 8.465-24.214 8.266V0h66.737v-5.512c-9.45-.985-11.025-2.559-14.175-4.132-3.346-1.774-5.906-4.53-7.677-8.468-1.772-3.74-2.756-10.431-2.756-19.88v-165.76h-5.513L-34.451-37.992v-126.584c0-11.418 2.953-19.099 8.859-23.23 5.906-3.94 12.599-5.909 20.277-5.909H0v-5.509h-79.533v5.509c12.402 0 20.867 2.363 25.789 6.694 4.725 4.331 7.284 11.812 7.284 22.445v140.561l-4.922 5.313c-4.724 5.318-8.859 8.662-12.402 10.436-3.741 1.575-.394 2.557-7.087 2.754V0Z" style="fill:#231f20;fill-opacity:1;fill-rule:nonzero;stroke:none" transform="translate(688.673 467.015)"/><path d="M0 0h-.394v11.022c32.483.787 59.254-8.463 79.728-27.364 21.064-19.487 31.498-43.704 31.498-72.838 0-25.001-7.872-46.853-23.427-65.949C66.537-180.134 37.401-192.73-.394-192.73v15.158c10.431 0 19.49 2.756 26.377 7.478 8.862 5.906 14.571 15.555 19.49 28.745 4.922 12.993 8.271 29.727 8.271 50.791 0 25.199-2.562 43.901-7.68 56.304C41.142-21.655 34.645-12.993 26.97-7.68 19.096-2.562 10.037 0 0 0m-.394 0C-19.099-.197-33.073-9.059-42.72-26.776c-8.074-14.371-12.008-35.433-12.008-62.6 0-32.483 5.709-56.894 17.912-72.25 8.662-10.827 21.064-15.946 36.422-15.946v-15.158h-.199c-37.798 0-67.131 12.006-87.802 36.023-16.337 18.902-24.608 41.344-24.608 67.331 0 29.135 10.631 53.547 31.892 72.837C-59.85 2.953-33.667 12.206-2.559 11.022h2.165z" style="fill:#231f20;fill-opacity:1;fill-rule:nonzero;stroke:none" transform="translate(1808.244 458.748)"/><path d="M0 0v-78.549h4.334c13.583 0 18.899 3.937 25.002 12.009 6.1 7.874 10.037 19.492 11.615 35.042h6.102v-104.339h-6.102c-1.184 11.419-3.938 20.674-7.875 27.955-4.134 7.284-8.859 12.206-14.174 14.568-5.316 2.562-8.665 3.741-18.902 3.741v-58.469c0-11.025.593-17.718 1.578-20.08.984-2.56 2.756-4.528 5.512-6.103 2.756-1.575 7.087-2.362 13.387-2.362H33.27c19.886 0 25.595 4.331 37.601 12.993 12.012 8.465 20.277 18.308 25.595 36.026h5.906l-9.252-60.041H-81.893v5.509h7.284c6.1 0 11.221.985 14.962 2.953 2.753 1.378 4.919 3.741 6.299 7.087 1.179 2.363 1.772 8.466 1.772 18.506V-22.44c0 8.856-.197 14.371-.787 16.534-.985 3.347-2.953 6.103-5.906 7.877-3.94 2.756-9.45 4.132-16.34 4.132h-7.284v5.512H97.648v-58.86h-5.906c-3.153 14.371-7.284 24.608-12.993 30.902-5.513 6.303-13.19 10.831-23.427 13.784C49.413-.787 38.389 0 22.052 0Z" style="fill:#231f20;fill-opacity:1;fill-rule:nonzero;stroke:none" transform="translate(1590.508 455.4)"/><path d="M0 0h1.184c11.218 0 20.277-8.856 20.277-19.49 0-10.63-9.059-19.292-20.277-19.292H0c-11.219 0-20.274 8.662-20.274 19.292C-20.274-8.856-11.219 0 0 0" style="fill:#231f20;fill-opacity:1;fill-rule:nonzero;stroke:none" transform="translate(1277.297 388.072)"/></g></svg>