<svg xmlns="http://www.w3.org/2000/svg" xml:space="preserve" width="566.927" height="124.853"><path d="m33.98 108.929-.068-41.587h5.384v49.797h-5.384L5.249 75.215l.135 41.924H0V67.342h5.652l28.328 41.587zM45.31 67.342h26.419v4.912H50.827v17.294h20.767v4.912H50.827v17.767h20.902v4.912H45.31V67.342zM74.242 92.375c0-15.341 11.911-25.908 25.976-25.908 14.602 0 25.975 11.171 25.975 25.773 0 14.604-11.305 25.773-25.975 25.773-14.738 0-25.976-11.373-25.976-25.572v-.066zm5.585-.135c0 11.709 8.815 20.861 20.458 20.861 11.776 0 20.39-9.486 20.39-20.861 0-11.373-8.613-20.861-20.457-20.861-11.709 0-20.391 9.286-20.391 20.792v.069zM172.16 80.262a21.234 21.234 0 0 0-5.586-5.383c-3.23-2.221-7.133-3.5-11.574-3.5-10.902 0-20.39 8.344-20.39 20.792 0 12.652 9.556 20.996 20.457 20.996 5.249 0 9.892-1.815 13.324-4.508 3.5-2.76 5.922-6.527 6.73-10.432h-27.104v-4.576h33.564c-.067 2.895-.74 6.527-2.221 9.624-4.307 9.354-14.267 14.804-24.293 14.804-14.535 0-26.042-11.17-26.042-25.908 0-14.938 11.709-25.706 26.109-25.706 10.094 0 19.448 5.653 23.351 13.795h-6.325v.002zM184.25 67.342h27.59v4.912h-22.071v17.294h21.937v4.912h-21.937v17.767h22.071v4.912h-27.59V67.342zM214.061 92.375c0-15.341 11.911-25.908 25.975-25.908 14.603 0 25.975 11.171 25.975 25.773 0 14.604-11.305 25.773-25.975 25.773-14.737 0-25.975-11.373-25.975-25.572v-.066zm5.585-.135c0 11.709 8.815 20.861 20.457 20.861 11.777 0 20.39-9.486 20.39-20.861 0-11.373-8.613-20.861-20.457-20.861-11.709 0-20.39 9.286-20.39 20.792v.069zM327.466 92.375c0-15.341 11.91-25.908 25.976-25.908 14.603 0 25.976 11.171 25.976 25.773 0 14.604-11.305 25.773-25.976 25.773-14.737 0-25.976-11.373-25.976-25.572v-.066zm5.584-.135c0 11.709 8.816 20.861 20.459 20.861 11.777 0 20.391-9.486 20.391-20.861 0-11.373-8.613-20.861-20.458-20.861-11.708 0-20.392 9.286-20.392 20.792v.069zM435.001 103.748c-3.229 7.672-11.91 14.268-22.879 14.268-14.736 0-25.976-11.373-25.976-25.772 0-14.2 10.97-25.774 25.906-25.774 12.313 0 20.054 8.21 22.946 14.535h-5.99c-1.684-2.96-7.334-9.623-16.956-9.623-11.642 0-20.39 9.219-20.39 20.793 0 11.777 8.813 20.929 20.39 20.929 10.433 0 15.745-7.47 16.956-9.354l5.993-.002zM489.644 67.342h27.592v4.912h-22.072v17.294H517.1v4.912h-21.936v17.767h22.072v4.912h-27.592V67.342zM545.228 72.254h-16.047v-4.912h37.746v4.912h-16.113v44.885h-5.586V72.254z" style="fill:#1d1d1b"/><path d="M494.481 137.233h6.932l-25.87-24.968 23.782-24.83h-6.055l-26.105 26.998V87.436h-5.518v49.797h5.518v-16.228l5.08-5.306 22.236 21.534z" style="fill:#1d1d1b" transform="translate(-18.907 -20.094)"/><path d="M321.701 141.039c-10.838-21.554-21.646-43.05-32.46-64.562.06-.042.107-.083.162-.11l8.091-4.138c3.812-1.946 7.625-3.883 11.433-5.84 4.003-2.055 8.21-3.292 12.751-3.145 3.091.1 5.925.999 8.411 2.895 2.194 1.674 3.747 3.848 4.937 6.306 1.13 2.332 1.934 4.759 1.98 7.377.062 3.636-1.037 6.924-2.986 9.977-1.306 2.042-2.796 3.92-4.544 5.584-1.204 1.146-2.49 2.204-3.739 3.299-4.569-3.241-9.04-6.41-13.53-9.593.852-3.113 1.692-6.198 2.538-9.291h12.94v-9.823c-6.682.064-13.29.127-19.897.193-2.407 6.8-4.803 13.565-7.2 20.342l23.16 19.157c3.065-1.17 5.974-2.61 8.712-4.387 4.363-2.835 8-6.396 10.671-10.881 2.481-4.17 3.728-8.71 3.796-13.56.042-3.004-.414-5.942-1.298-8.822-1.173-3.816-2.987-7.27-5.755-10.165-5.189-5.433-11.553-8.353-19.08-8.621-4.45-.158-8.66.847-12.633 2.842-1.789.9-3.54 1.872-5.34 2.744-4.01 1.939-8.04 3.837-12.063 5.748-3.547 1.686-7.095 3.366-10.642 5.047l-3.6 1.71c12.046 24.56 24.078 49.093 36.104 73.625l9.081-3.908z" style="fill:none" transform="translate(-18.907 -20.094)"/><path d="M321.701 141.039c-3.047 1.31-6.032 2.596-9.086 3.908-12.025-24.53-24.059-49.063-36.104-73.624l3.6-1.71c3.547-1.682 7.095-3.362 10.642-5.047 4.022-1.911 8.052-3.81 12.062-5.748 1.8-.872 3.552-1.844 5.341-2.744 3.972-1.996 8.182-3 12.631-2.842 7.53.268 13.893 3.188 19.082 8.62 2.768 2.896 4.582 6.349 5.754 10.166.885 2.879 1.341 5.818 1.3 8.823-.069 4.849-1.314 9.39-3.797 13.559-2.673 4.484-6.308 8.045-10.673 10.88-2.736 1.777-5.645 3.218-8.71 4.387l-23.16-19.156c2.397-6.777 4.793-13.541 7.2-20.342 6.607-.065 13.218-.13 19.897-.193v9.823h-12.94l-2.539 9.29 13.531 9.594c1.248-1.095 2.535-2.153 3.74-3.3 1.747-1.662 3.237-3.541 4.542-5.583 1.95-3.053 3.05-6.341 2.986-9.977-.048-2.618-.85-5.045-1.979-7.377-1.188-2.458-2.742-4.632-4.937-6.306-2.486-1.896-5.32-2.794-8.41-2.895-4.542-.147-8.749 1.089-12.752 3.146-3.806 1.956-7.62 3.893-11.433 5.839-2.697 1.378-5.395 2.758-8.09 4.138-.056.028-.105.069-.164.11 10.821 21.51 21.63 43.007 32.466 64.56zM329.346 46.62c-2.162-.445-4.264-.88-6.423-1.324l3.774-25.202c3.935.574 7.832 1.145 11.791 1.724l-9.142 24.802z" style="fill:#f10000" transform="translate(-18.907 -20.094)"/><path d="M364.446 39.773c2.088 3.38 4.147 6.72 6.241 10.112-6.819 4.222-13.635 8.44-20.472 12.67-1.434-2.14-2.84-4.24-4.278-6.39l18.51-16.392zM347.976 26.576l8.954 6.19c-5.377 6.412-10.738 12.805-16.136 19.239l-5.683-3.507c4.271-7.275 8.55-14.567 12.865-21.922z" style="fill:#f10000;fill-opacity:1" transform="translate(-18.907 -20.094)"/></svg>