<svg xmlns="http://www.w3.org/2000/svg" xml:space="preserve" width="566.929" height="66.041"><path fill="#1F00CC" d="m296.042 8.236 4.352-6.971h-66.25c-5.084.076-9.82 1.502-14.135 4.274l-5.084 3.736c-2.234-2.696-4.43-4.584-6.588-5.854-2.695-1.502-5.699-2.156-9.127-2.156H87.009l-3.66 11.169-1.808-11.168H57.003l-.885 2.079-2.311-.809C40.864-1.894 28.424-.545 16.676 6.734c-5.971 3.813-10.477 8.59-13.25 14.443C.576 27.032-.388 33.541.268 40.937c.461 4.43 2.002 8.551 4.699 12.287 2.695 3.736 6.123 6.74 10.398 8.897 6.201 3.235 12.941 4.198 19.99 3.081h21.84l5.469-12.133 2.004 12.133 131.266-.153c2.852 0 5.701-.694 8.59-1.964 2.85-1.271 5.314-3.082 7.549-5.316 3.66 3.891 8.012 6.51 13.096 7.55 6.895 1.656 13.559.462 19.836-3.505l.811-.617-.617 3.968h26.73l.656-4.622c1.578-.23 2.85-1.039 3.967-2.389h72.682c11.17 0 19.373-2.85 24.381-8.589l5.393 8.589h77.768V47.217l13.98 10.938h96.102V8.313H462.744v10.784L448.955 8.313h-55.387l-6.818 12.942-7.549-13.02h-83.159v.001z"/><path fill="#FFF" d="M313.027 16.557h-8.318l-19.605 33.009h23.342v-7.318h-9.514l9.514-17.063 13.789 24.42h10.631v-.076h16.6c14.367 0 21.57-5.547 21.57-16.523 0-1.888-.23-3.66-.732-5.316l13.25 21.84h6.355l19.066-32.932h-10.092L386.98 38.164l-12.557-21.568h-10.861l3.004 4.93c-3.504-3.313-8.551-4.93-15.137-4.93h-21.84V43.98l-16.562-27.423zm25.961 7.471h12.52c6.508 0 9.82 2.851 9.82 8.551 0 3.429-1.039 5.932-3.004 7.241-1.887 1.348-5.469 2.003-10.477 2.003h-8.82V24.028h-.039zM423.033 16.557h-8.358l-19.529 33.008h9.861v-.077h13.481v-7.357h-9.436l9.36-16.985 13.789 24.419h10.746v-.077h5.469V29.575l24.921 19.913h6.471V16.557h-8.629v19.681l-25.152-19.681h-6.432v27.384zM484.738 18.404c-1.348 1.195-2.041 3.352-2.041 6.434v16.33c0 3.159.693 5.316 2.002 6.51 1.271 1.195 3.582 1.811 6.973 1.811h19.373c3.352 0 5.777-.616 7.049-1.811 1.271-1.193 2.004-3.351 2.004-6.51v-4.583l-9.514-.154v5.085h-18.412V24.221h18.412v4.507h9.514v-3.89c0-3.236-.732-5.393-2.004-6.434-1.271-1.271-3.504-1.887-7.049-1.887h-19.373c-3.352.04-5.663.618-6.934 1.887zM532.769 28.766v-4.738h25.689v-7.471h-35.203v32.931h35.627v-7.626h-26.113v-5.854h15.061v-7.242zM50.841 10.354C40.519 6.619 30.542 7.813 20.99 13.706 11.554 19.483 7.433 28.304 8.55 39.82c.307 3.352 1.578 6.433 3.736 9.129 2.156 2.696 4.93 4.621 8.242 6.123 3.35 1.503 6.895 2.08 10.631 1.888 4.121-.231 7.857-1.425 11.516-3.429l.385-.23-1.424 3.158H51.65l6.434-13.981h11.092l2.465 13.981h16.41l8.396-26.191 5.393 26.191h6.508l12.557-29.041 1.271 29.041h9.592l-1.965-46.914H118.13l-10.938 25.652-4.699-25.652h-9.592L80.539 47.484 74.183 9.545H62.359L44.255 50.489l2.619-17.141H29.001l-1.348 8.821h7.473l-.732 4.698-7.857.54c-3.158-.809-5.393-2.465-6.895-5.085-1.271-2.465-1.887-5.007-1.578-7.856.385-3.968 2.311-7.55 5.969-10.785 3.313-2.928 7.551-4.584 12.635-5.238 4.854-.732 9.129-.231 12.711 1.348l1.462-9.437zm16.91 22.957H61.82l4.121-9.051 1.81 9.051zM166.779 9.508h-26.694l-7.509 46.952h26.884l1.733-9.976h-16.947l1.347-8.397h14.676l1.578-10.091h-14.828l1.272-8.396h16.908zM284.949 9.508H273.74l-9.59 15.367-5.971-15.367h-11.092l11.477 24.765-3.619 22.187h9.744l2.928-19.566z"/><path fill="#FFF" d="M237.88 9.97c-5.469-1.271-10.477 0-15.33 3.736-4.852 3.582-8.012 8.743-9.668 15.253-1.424 6.432-.73 12.518 1.889 17.871 2.773 5.547 6.74 8.898 12.209 10.092 5.393 1.271 10.4 0 15.254-3.659 4.854-3.736 8.088-8.897 9.59-15.407 1.502-6.432.811-12.44-1.887-17.871-2.697-5.47-6.74-8.821-12.057-10.015zm-.808 9.359c2.619 1.04 4.275 3.429 5.162 6.972.885 3.582.693 7.318-.617 11.285-1.271 3.891-3.35 6.818-6.047 8.667-2.773 2.003-5.393 2.388-7.857 1.271-2.619-1.04-4.352-3.429-5.238-6.972-.963-3.659-.617-7.396.654-11.285 1.271-3.813 3.352-6.818 6.047-8.821 2.657-1.887 5.355-2.311 7.896-1.117zM205.025 11.626c-1.887-1.194-3.736-1.81-5.545-1.81h-17.949l-7.396 46.644h21.57c2.311 0 4.699-.731 7.203-2.233 2.465-1.503 4.352-3.352 5.854-5.624 1.58-2.618 2.156-5.161 1.889-7.856-.309-2.928-1.889-5.701-4.623-8.32 5.469-5.623 6.74-10.939 3.891-16.023-1.234-1.889-2.775-3.508-4.894-4.778zm-16.678 16.755 1.502-8.666h6.279c1.58 0 2.773.461 3.582 1.348.693.809.963 1.811.809 3.004-.154 1.195-.73 2.157-1.656 3.005-1.039.886-2.311 1.349-3.813 1.349h-6.703l10.861 11.092c.887.887 1.35 2.042 1.271 3.313-.076 1.271-.693 2.312-1.811 3.236-1.115.885-2.695 1.425-4.852 1.425h-8.475l1.502-9.437h8.088c1.811 0 3.236.539 4.275 1.502l-10.859-11.171zM276.437 52.262c0-1.349-.539-2.389-1.35-3.275-.885-.885-2.002-1.424-3.311-1.424-1.271 0-2.389.539-3.275 1.424-.885.887-1.348 1.965-1.348 3.275 0 1.271.463 2.311 1.348 3.234.887.887 2.004 1.426 3.275 1.426 1.27 0 2.387-.539 3.311-1.426.811-.924 1.35-1.963 1.35-3.234zm-1.889-2.774c.693.693 1.117 1.656 1.117 2.773 0 1.04-.461 1.965-1.117 2.773-.654.654-1.656 1.04-2.771 1.04-1.117 0-2.08-.386-2.773-1.04-.811-.809-1.195-1.732-1.195-2.773 0-1.117.387-2.08 1.195-2.773.654-.809 1.656-1.194 2.773-1.194 1.154 0 2.117.347 2.771 1.194z"/><path fill="#FFF" d="m273.433 49.873-1.271-.308h-2.234v5.238h.732v-2.388h1.039l1.426 2.388h.809l-1.58-2.388c1.041 0 1.656-.462 1.656-1.502.038-.462-.116-.886-.577-1.04zm-.154 1.041c0 .616-.617.885-1.734.885h-.885v-1.656h1.424c.847 0 1.195.308 1.195.771z"/></svg>