<svg xmlns="http://www.w3.org/2000/svg" xml:space="preserve" width="566.93" height="65.438"><path fill="#2D288B" d="M437.047 26.359c-1.192-3.612-4.341-7.049-4.341-7.049s-4.731-6.146-14.024-8.242c-7.956-1.664-14.208 1.845-14.208 1.845s-5.677 2.275-9.943 6.978c-6.796 6.542-8.749 16.088-8.749 16.088s-2.604 8.314 1.521 14.896l4.482 5.422c6.326 5.279 13.087 5.819 13.087 5.819s5.46 1.229 11.824-.434c5.563-1.122 9.614-3.869 9.614-3.869s9.222-5.097 11.749-15.509l-1.012-15.945zM422.69 43.676s-3.686 6.437-11.782 5.675c-9.51-.975-10.628-9.325-10.628-9.325s-1.305-6.146 4.553-11.498c5.931-4.987 12.113-4.229 12.113-4.229s4.154.397 6.292 7.268c2.744 8.747-.548 12.109-.548 12.109"/><path fill="#639D01" d="M467.773 43.787c-3.044-.672-7.917.575-7.917.575s-6.796 2.493-7.845 2.458c-.396-.577-1.263-11.677-1.012-16.123.146-7.846-.509-14.243-.509-14.243s-.323-7.558-4.373-12.039c-4.771-4.811-8.101-2.747-10.016-1.593-4.591 4.122-2.457 9.146-2.457 9.146l2.389 6.762s1.155 2.894 1.012 7.628l1.012 15.944c0 2.133 1.737 16.484 1.737 16.484s.176 4.665 4.661 5.496c4.593.759 9.109-1.52 11.025-2.423 1.917-.901 4.447-1.697 4.447-1.697s2.098-.471 4.194-.65c4.916-.472 6.688-1.338 6.688-1.338s1.901-.286 3.184-2.099c1.278-1.81 2.826-10.302-6.22-12.288"/><path fill="#94012C" d="M387.3 50.872c-3.229-.969-6.938-.327-6.938-.327s-10.485 1.011-15.945-.146c-8.457-1.48-8.174-10.592-8.174-10.592s-.283-6.039 4.813-14.208c6.289-10.088 13.23-11.895 13.23-11.895s1.733-.649 3.36.217c1.013 5.854 6.688 5.818 6.688 5.818s8.171.545 7.771-9.359c-.938-8.138-8.782-9.257-12.074-10.018-9.864-1.771-16.269 3.508-16.269 3.508s-6.614 3.578-14.531 16.051c-5.391 7.735-6.04 13.811-6.04 13.811s-.649 1.446-.396 7.883c-.145 5.023 1.737 8.676 1.737 8.676s2.854 8.645 11.891 12.187c5.497 2.276 13.525 2.241 13.525 2.241s7.771-.108 13.733-.435c3.255.252 4.812-1.447 4.812-1.447s3.648-2.385 3.289-6.543c0 0-.708-4.295-4.482-5.422"/><path fill="#2E3192" d="M152.788 62.488h-11.956l-1.598-36.012-15.545 36.012h-7.975l-6.642-32.557-10.367 32.557H78.374l-3.057-17.403H61.495l-7.84 17.403H41.16l25.652-58.2h14.749l7.839 47.04 15.285-47.041h11.823l5.848 31.893 13.56-31.893h14.351l2.521 58.201zM73.515 33.781l-2.189-11.29-5.049 11.29h7.238M187.072 62.488 189.07 50h-20.866l1.654-10.365h18.148L190 27.14h-18.341l1.594-10.366h20.861l1.995-12.486h-33.087l-9.305 58.2h33.355M342.419 4.287h-13.954l-11.827 19-7.438-19h-13.688l14.084 30.692-4.339 27.508h11.963l3.671-24.315 21.528-33.885"/><path fill="#2E3192" d="M253.306 28.382c3.714-16.093 17.469-26.654 30.717-23.591 13.256 3.063 20.989 18.586 17.278 34.679-3.714 16.089-17.467 26.652-30.721 23.589-13.253-3.063-20.985-18.59-17.274-34.677zm18.099 23.023c6.327 2.83 14.078-2.721 17.302-12.398 3.223-9.685.714-19.828-5.614-22.659-6.328-2.832-14.069 2.722-17.298 12.404-3.227 9.683-.713 19.821 5.61 22.653"/><path fill="#2E3192" d="M224.595 16.877h7.786c8.439 0 6.727 10.812-1.316 10.812h-8.313l1.843-10.812zm-3.689 22.679h10.021c9.499 0 9.233 11.605-1.317 11.605h-10.55l1.846-11.605zm-6.595-34.949-9.229 57.767h26.903c11.076 0 27.276-16.326 12.531-29.672 15.162-15.692.126-27.955-7.916-28.095-6.461-.104-22.416 0-22.416 0h.127M15.648 9.468C4.252 16.521-1.228 27.271.231 41.89 1.928 58.847 23.887 69.53 42.49 58.769c1.629-.94.992-.792 1.595-1.331l3.723-23.656H25.614l-1.702 10.897h9.276l-1.065 5.85c-5.314 2.125-14.352 1.327-18.204-5.582-2.44-4.376-4.703-14.142 5.583-23.124 8.369-7.309 22.856-8.633 31.23-4.78 0 0 1.062-6.111 1.857-11.829-16.078-5.58-28.571-.927-36.941 4.254"/><path fill="#C8A601" d="M518.642 24.443c-6.325-10.339-17.46-11.894-17.46-11.894s-3.543-1.194-11.133-.183c-14.246 2.713-19.2 13.667-19.2 13.667s-5.099 8.024-3.074 17.75l6.224 12.292c4.59 4.302 6.469 4.302 6.757 4.558 6.076 2.747 13.125 1.156 13.125 1.156s8.895-.867 17.029-7.194c6.506-4.771 9.326-11.786 9.326-11.786l.863-9.41-2.457-8.956zm-17.316 21.113c-10.231 6.146-16.668-.579-16.668-.579s-2.855-1.88-3.47-7.593c-.438-6.615 6.146-10.05 6.146-10.05s3.471-2.134 7.81-1.808c4.339.324 5.708.035 9.219 2.64 3.324 3.002 3.107 5.206 3.107 5.206s1.195 7.449-6.144 12.184"/><path fill="#00766A" d="M520.234 42.809s.218 5.783-.688 7.194c-1.229 2.639-1.047 5.206-1.047 5.206s-.835 7.809 8.209 9.107c6.214-.035 6.971-5.206 7.081-7.411.36-1.732.217-9.798.217-9.798l8.063 6.581s5.856 4.917 9.295 7.772c3.581 2.818 4.479 3.325 4.479 3.325s.763.901 3.506.577c2.211.038 4.234-1.952 4.234-1.952s2.563-1.875 3.214-5.167c.795-3.905-2.24-5.821-2.24-5.821s-11.205-9.039-18.798-15.258c5.097-2.783 7.556-4.699 7.556-4.699s7.088-4.698 8.604-11.896c2.099-7.918-3.867-11.024-3.867-11.024s-3.726-2.676-6.87-4.087c-7.92-3.868-15.293-3.073-15.293-3.073s-10.483-.722-17.316 7.703c-3.144 4.083-1.19 9.436-1.19 9.436s.388.857 1.263 4.916c1.753 8.167 1.588 18.369 1.588 18.369zm13.738-16.053-.688-9.435s6.614-.146 9.363.324c5.426.831 5.134 2.352 5.134 2.352s-.181 1.915-4.303 3.796c-4.48 2.17-9.506 2.963-9.506 2.963"/></svg>