<svg xmlns="http://www.w3.org/2000/svg" xml:space="preserve" baseProfile="tiny" viewBox="-105 349.6 399.5 98.4"><path fill="#FC0C18" d="M-85.5 349.6c-3.8 0-7.4 3.1-8.1 6.9V356.8l-.1.1v.2l-.1.1v.1l-.1.1v.2l-.1.1v.2l-.1.2-.1.2-.1.4-.1.5-.1.5-.1.5-.1.5-.1.5-.1.6-.1.5-.2 1.2-.1.6-.1.5-.1.5-.1.5-.1.5-.1.5-.1.5-.1.4-.1.5v.2l-.1.1V368.6l-.1.2v.2l-.1.1v.2c-.1 1.7.2 4 .7 4.4.7 3.7 13 20.8 12.6 23.4-.3 2.6-1.8 10.3-1.8 10.3-.4 2.6-2.2 4.7-4.8 4.7-2.6 0-4.4-2.1-3.9-4.7l2.3-12.7h-9.2l-3.1 17.7c-.6 3.6 1.8 6.4 5.4 6.4h13.1c3.6 0 7.1-2.9 7.7-6.4 0 0 3.4-16.5 3.4-17.7 0-1.2-.3-1.3-.3-1.3 0-1.3-10.9-19.4-12.1-20.1-.5-.3-.9-2.1-.9-3.1 0-1.1 1.4-8.3 1.4-8.3.4-2.6 2.9-4.7 5.5-4.7s3.7 2.1 3.2 4.7l-2 11.4h9.2l3.2-17.2c.7-3.8-1.7-6.9-5.5-6.9h-13.2zm25.2 0-11 63.2c-.6 3.6 1.8 6.4 5.4 6.4h13.1c3.6 0 7.1-2.9 7.8-6.4l11.7-63.2h-8.2L-52.7 411c-.2.9-1 1.6-1.9 1.6h-6.5c-.9 0-1.5-.7-1.4-1.6l10.9-61.4h-8.7zm31.5 0L-42 419.2h8.8l6-31.5H-16c3.6 0 7.1-2.9 7.7-6.4l4.8-24.7c.7-3.8-1.7-6.9-5.5-6.9h-19.8zm31.3 0-13.7 69.6H8.5l1.4-8.6H.1l4-23.5h9.7l1.4-7.3H5.5l4.3-21.6h9.7l1.4-8.6H2.5zm23.5 0-13.2 69.6h8.8l6-31.5h6.2c.8.8.9 2.2 1 2.9.2 1 .3 2.3.2 3.4-.1 1-4.8 25.3-4.8 25.3H39s4.9-26.4 4.9-26.9c0-.4 0-1.8-.5-2.5-.3-.5-.9-1.6-1.5-2-1.2-.8-2.6-1.3-2.6-1.3h-.6c2.5-1 7.2-2.6 7.7-5.3l4.8-24.7c.7-3.8-1.7-6.9-5.5-6.9H26zm47 0-13.2 69.6h10.1l8.1-40.3 3.2 40.3H90l13.2-69.6H93.1L86.2 386l-4.5-36.4H73zm34.8 0-13.2 69.6h8.8l13.2-69.6h-8.8zm13.3 0-13.2 69.6H118l8.2-40.3 3.2 40.3h8.8l13.2-69.6h-10.1l-6.8 36.4-4.5-36.4h-8.9zm34 0-1.6 8.6h5.5l-10.8 61h10l11-61h5.3l1.4-8.6h-20.8zm24.1 0-13.7 69.6h19.7l1.4-8.6h-9.7l4-23.5h9.7l1.4-7.3h-9.7l4.2-21.6h9.7l1.4-8.6h-18.4zm22.3 0-13.2 69.6h10.1l8.2-40.3 3.2 40.3h8.8l13.2-69.6h-10.1l-6.8 36.4-4.5-36.4h-8.9zm34.8 0-13.2 69.6h20c3.6 0 7.1-2.9 7.8-6.4l10.6-56.2c.7-3.8-1.7-6.9-5.5-6.9h-19.7zm37.6 0c-3.8 0-7.3 3.1-8 6.9l-9.8 56.2c-.6 3.6 1.7 6.4 5.3 6.4h14.5c3.6 0 7.1-2.9 7.8-6.4l10.6-56.2c.7-3.8-1.7-6.9-5.5-6.9h-14.9zm-30.1 8h4c2.6 0 4.3 2.1 3.9 4.7l-8.6 45.6c-.5 2.6-3 4.7-5.5 4.7h-4l10.2-55zm35.3 0h.3c2.6 0 4.3 2.1 3.8 4.7l-8.2 45.6c-.4 2.6-2.8 4.7-5.4 4.7-2.6 0-3.7-2.1-3.2-4.7l8.2-45.6.1-.2.1-.2.1-.3.1-.2.1-.3.1-.2.1-.2.1-.2.1-.2.1-.2.1-.2.1-.2.1-.1.1-.2.1-.2.2-.1.1-.1.1-.1.2-.1.2-.1.1-.1.2-.1.2-.1.2-.1.1-.1.3-.1.2-.1h.2l.2-.1h.3l.2-.3zm-299.5.3h4.2c.9 0 2.9 2.1 2.7 3.1l-3.6 17.2c-.2.9-1.4 2.9-2.3 2.9H-24.7l-.1-.1h-.4v-.1h.2-.1l-.1-.1h-.1l-.1-.1-.1-.1h-.1v-.1l-.1-.1-.1-.1v-.1l-.1-.1-.1-.1v-.2l-.1-.1v.3l-.1-.1v-.5l4.1-21c.8-.3 1.2-.5 1.7-.5zm54.6 0h4.3c.9 0 2.9 2.1 2.7 3.1l-3.6 17.1c-.2.9-2.4 3-3.3 3h-3.8c-.8 0-1.3-.5-1.4-1.2v-.4l4-21 .1-.1.1-.1.1-.1h.1l.1-.1.1-.1h.1l.1-.1h.1l.1-.1H34l.2.1zM-105 425.2V448h391v-22.8h-391zm287.4 2.4h3.4c.8 0 1.4.6 1.2 1.5l-.8 3.8h-1.8l.4-2.5c.1-.6-.2-1-.8-1-.6 0-1.1.5-1.2 1l-.3 1.9c-.1.1.1.6.2.7.3.1 2.7 4.2 2.7 4.5.1.1.1.2.1.3-.1.5-.8 3.9-.8 3.9-.1.8-.9 1.4-1.7 1.4h-3c-.8 0-1.3-.7-1.2-1.4l.7-3.9h2l-.5 2.8c-.1.6.2 1.1.8 1.1.6 0 1.1-.5 1.2-1.1l.4-2.3c-.4-.9-2.8-4.4-2.9-5.2-.1-.1-.1-.6-.1-1s.5-2.9.5-2.9h.1V428.9l.1-.1v-.1l.1-.1v-.1l.1-.1v-.1l.1-.1.1-.1v-.1h.1l.1-.1.1-.1.1-.1v-.1h.1l.1-.1.1-.1h.1l.1-.1h.1l.1-.1h.1l-.3.4zm15.8 0h2.5l.3 5.8 3.1-5.8h2.5l-5.1 8.9-1.2 6.5h-2.2l1.1-7-1-8.4zm22.4 0h3.4c.8 0 1.4.6 1.2 1.5l-.8 3.8h-1.9l.4-2.5c.1-.6-.2-1-.8-1-.6 0-1.1.5-1.2 1l-.3 1.9c-.1.1.1.6.2.7.2.1 2.7 4.2 2.7 4.5.1.1.1.2.1.3-.1.5-.7 3.9-.7 3.9-.1.8-.9 1.4-1.7 1.4h-2.9c-.8 0-1.3-.7-1.2-1.4l.7-3.9h2l-.5 2.8c-.1.6.3 1.1.8 1.1.6 0 1.1-.5 1.2-1.1l.4-2.3c-.4-.9-2.8-4.4-2.9-5.2-.1-.1-.1-.6-.1-1s.5-2.9.5-2.9l.1-.1v-.2l.1-.1v-.1l.1-.1v-.1l.1-.1v-.1l.1-.1.1-.1v-.1h.1l.1-.1.1-.1.1-.1.1-.1.1-.1.1-.1h.1l.1-.1h.1l.1-.1h.1l-.4.4zm15.9 0h4.6l-.3 1.9h-1.2l-2.4 13.6H235l2.4-13.6h-1.2l.3-1.9zm18 0h4.1l-.3 1.9h-2.1l-1 4.9h2.2l-.3 1.6H255l-.9 5.2h2.1l-.3 1.9h-4.4l3-15.5zm16.9 0h2.5l.4 8.9 3.9-8.8 2.5-.1-2.6 15.4h-1.9l1.2-8.1-3.4 8.1h-1.4l-.4-8.4-1.5 8.4h-2.3l3-15.4zm-367.9.5h4l-.3 1.9H-95l-.9 4.8h2.1l-.3 1.6h-2.2l-.8 5.2h2.1l-.3 1.9h-4.4l3.2-15.4zm18.9 0h1.9l1 8.1 1.5-8.1h2.3l-2.9 15.5h-1.9l-.8-9-1.8 9h-2.3l3-15.5zm20.6 0h4.5l-.3 1.9H-54l-2.5 13.6h-2.2l2.4-13.6h-1.2l.5-1.9zm19.9 0h4.1l-.3 1.9h-2.1l-1 4.8h2.1l-.3 1.6h-2.1l-.9 5.2h2.1l-.3 1.9h-4.4l3.1-15.4zm19.3 0h4.4c.8 0 1.3.7 1.2 1.6l-1 5.5c-.1.6-1.2 1.1-1.7 1.3H-14.6v.1h.4l.1.1H-13.8v.1h.2v.1h.1c.1.2.1.7.1.8 0 .1-1.1 6.1-1.1 6.1h-2s1.1-5.4 1.1-5.6c0-.2 0-.5-.1-.8 0-.2 0-.4-.2-.6h-1.4l-1.3 7h-2l2.6-15.7zm19.6 0h4.6l-.3 1.9H4.9l-2.5 13.6H.3L2.7 430H1.5l.3-1.9zm22.8 0h2.6l-.8 15.5h-2.6l.3-3.6h-1.6l-1.3 3.6h-2.3l5.7-15.5zm18.2 0h2l-2.9 15.5H40l2.8-15.5zm17.7 0h1.9l1 8.1 1.5-8.1h2.2l-2.9 15.5h-2l-.7-9-1.8 9h-2.3l3.1-15.5zm22.7 0h2.5l.4 9 3.9-8.9h2.5l-2.6 15.4H88l1.2-8.2-3.4 8.2h-1.4l-.4-8.4-1.5 8.4h-2.2l2.9-15.5zm24.8 0h4l-.3 1.9h-2.2l-.9 4.8h2.1l-.3 1.6h-2.2l-.9 5.2h2.2l-.3 1.9H105l3-15.4zm19.9 0h1.9l1 8.1 1.5-8.1h2.2l-2.9 15.5h-1.9l-.8-9-1.8 9H125l2.9-15.5zm20.3 0h4.6l-.3 1.9h-1.2l-2.4 13.6h-2.2l2.4-13.6h-1.2l.3-1.9zM-15.9 430c-.1 0-.2.1-.3.1l-.9 4.7v.1c0 .1.1.3.3.3h.8c.2 0 .7-.4.8-.6l.8-3.8c0-.2-.3-.7-.5-.7l-1-.1zm40.5 4.6-1.4 3.9h1.1l.3-3.9z"/></svg>