<svg xmlns="http://www.w3.org/2000/svg" viewBox="-236.252 381.062 530.294 98.493"><ellipse cx="-211.177" cy="440.23" fill="#007544" rx="25.076" ry="11.212"/><path fill="#fed01b" d="M-141.212 458.799c0 6.192-11.227 11.212-25.076 11.212s-25.076-5.02-25.076-11.212 11.227-11.211 25.076-11.211c13.85 0 25.076 5.019 25.076 11.211z"/><path fill="#ba2318" d="M-138.194 451.442c-3.018-12.557-13.963-26.431-28.094-20.4 11.506-26.541 33.221-22.319 40.761-13.27 5.873 7.046 5.732 31.146-12.667 33.67z"/><path fill="#0a2a8d" d="M-182.387 431.14c-3.019-12.557-13.963-26.431-28.094-20.4 11.506-26.541 33.222-22.319 40.761-13.27 5.872 7.047 5.73 31.146-12.667 33.67z"/><path fill="#e60012" d="M-88.775 381.062c-3.73 0-7.355 3.089-8.021 6.917v.206l-.068.068v.206l-.068.137v.137l-.068.137v.205l-.068.137v.206l-.068.205-.068.206-.068.41-.136.48-.068.479-.136.48-.068.547-.136.548-.136.617-.136.548-.204 1.164-.136.616-.136.548-.068.548-.136.548-.135.548-.068.548-.068.479-.136.411-.068.479v.206l-.068.137v.342l-.068.206v.273l-.068.137v.137c-.071 1.674.161 3.96.679 4.384.659 3.688 12.858 20.757 12.507 23.356-.33 2.607-1.768 10.274-1.768 10.274-.442 2.586-2.192 4.658-4.758 4.658s-4.316-2.065-3.875-4.658l2.311-12.74h-9.108l-3.059 17.671c-.624 3.589 1.788 6.438 5.37 6.438h12.982c3.596 0 7.022-2.849 7.681-6.438 0 0 3.345-16.506 3.33-17.671-.014-1.172-.34-1.301-.34-1.301 0-1.342-10.855-19.397-11.963-20.068-.477-.283-.87-2.07-.883-3.15-.021-1.074 1.427-8.288 1.427-8.288.442-2.585 2.872-4.658 5.437-4.658 2.566 0 3.637 2.072 3.195 4.658l-1.971 11.438h9.177l3.194-17.192c.722-3.829-1.708-6.917-5.437-6.917h-13.456zm25.013 0-10.876 63.15c-.624 3.589 1.788 6.438 5.37 6.438h12.982c3.596 0 7.083-2.849 7.749-6.438l11.623-63.15h-8.157l-11.08 61.369c-.161.89-1.02 1.644-1.903 1.644h-6.457c-.905 0-1.507-.747-1.36-1.644l10.808-61.369h-8.699zm31.268 0-13.119 69.588h8.7l5.982-31.506h11.08c3.603 0 7.022-2.871 7.68-6.439l4.758-24.726c.715-3.836-1.708-6.917-5.437-6.917h-19.644zm31.063 0-13.595 69.588H4.55l1.36-8.63h-9.652L.2 418.527h9.652l1.36-7.26H1.56l4.283-21.575h9.652l1.36-8.63H-1.431zm23.382 0L8.901 450.65h8.7l5.914-31.506H29.7c.813.762.907 2.17 1.019 2.876.161 1.024.33 2.332.204 3.356-.112 1.017-4.758 25.273-4.758 25.273h8.7s4.894-26.425 4.894-26.849c.014-.431.001-1.786-.476-2.534-.316-.48-.865-1.584-1.496-1.986-1.213-.784-2.583-1.301-2.583-1.301h-.612c2.489-.989 7.184-2.618 7.681-5.274l4.758-24.726c.722-3.836-1.708-6.917-5.438-6.917H21.951zm46.562 0L55.394 450.65h9.992l8.088-40.342 3.195 40.342h8.701l13.119-69.588h-9.992L81.7 417.431l-4.486-36.369h-8.701zm34.53 0L89.924 450.65h8.7l13.118-69.588h-8.699zm13.254 0-13.118 69.588h10.06l8.088-40.342 3.195 40.342h8.7l13.118-69.588h-10.06l-6.729 36.369-4.486-36.369h-8.768zm33.715 0-1.632 8.63h5.438l-10.74 60.958h9.924l10.944-60.958h5.234l1.36-8.63h-20.528zm23.926 0-13.595 69.588h19.576l1.359-8.63h-9.652l4.01-23.493h9.652l1.36-7.26h-9.652l4.214-21.575h9.652l1.359-8.63h-18.283zm22.091 0L182.91 450.65h10.06l8.088-40.342 3.195 40.342h8.701l13.118-69.588h-10.06l-6.729 36.369-4.486-36.369h-8.768zm34.598 0-13.119 69.588h19.848c3.603 0 7.083-2.849 7.749-6.438l10.536-56.233c.715-3.836-1.708-6.917-5.438-6.917h-19.576zm37.317 0c-3.73 0-7.287 3.089-7.953 6.917l-9.72 56.233c-.631 3.589 1.726 6.438 5.301 6.438h14.343c3.596 0 7.083-2.849 7.749-6.438l10.536-56.233c.722-3.829-1.715-6.917-5.438-6.917h-14.818zm-29.908 8.013h4.01c2.566 0 4.316 2.072 3.875 4.658l-8.565 45.548c-.449 2.586-2.94 4.726-5.506 4.726h-3.942l10.128-54.932zm35.006 0h.272c2.566 0 4.248 2.072 3.806 4.658l-8.157 45.548c-.442 2.578-2.804 4.726-5.37 4.726-2.566 0-3.637-2.141-3.195-4.726l8.088-45.548.068-.205.068-.206.068-.274.068-.205.068-.274.068-.206.068-.205.136-.205.068-.206.136-.205.068-.206.136-.205.136-.137.136-.206.136-.205.204-.137.136-.137.136-.137.204-.137.204-.137.136-.137.204-.137.204-.068.204-.137.136-.069.272-.068.204-.069h.204l.204-.068h.272l.204-.07zm-297.176.274h4.214c.925 0 2.887 2.135 2.719 3.082l-3.603 17.191c-.168.89-1.36 2.945-2.243 2.945h-5.234l-.068-.068h-.272v-.069h-.136l-.068-.068h-.068l-.068-.069-.068-.068h-.068v-.069l-.068-.068-.068-.069v-.068l-.068-.069-.068-.068v-.137l-.068-.068v-.137l-.068-.069v-.068c0-.113-.014-.284 0-.411l4.078-21.027c.374-.311.831-.548 1.293-.548zm54.174 0h4.214c.925 0 2.901 2.135 2.719 3.082l-3.602 17.123c-.161.897-2.373 3.013-3.263 3.013H26.37c-.771 0-1.303-.512-1.36-1.232 0-.113-.014-.277 0-.411l4.011-21.027.068-.068.068-.069.136-.068h.068l.068-.069.068-.068h.068l.068-.069h.068l.136-.068h.204v-.069zm-138.12 67.328v22.808h397.999v-22.808H-108.08zm290.635 2.398h3.396c.822 0 1.412.651 1.247 1.507l-.762 3.836h-1.871l.416-2.534c.093-.573-.246-1.027-.832-1.027-.579 0-1.147.451-1.247 1.027l-.346 1.849c-.057.11.115.63.208.685.257.146 2.702 4.154 2.702 4.452.057.149.091.219.07.274-.072.502-.763 3.904-.763 3.904-.15.781-.918 1.438-1.732 1.438h-2.91c-.808 0-1.328-.657-1.178-1.438l.692-3.904h2.009l-.485 2.808c-.093.573.246 1.096.832 1.096.557 0 1.154-.52 1.247-1.096l.415-2.26c-.371-.946-2.822-4.386-2.979-5.206-.108-.091-.153-.586-.139-.959.021-.408.554-2.945.554-2.945h.069v-.206l.07-.137v-.068l.069-.069v-.068l.069-.069v-.068l.07-.069.069-.068v-.069h.07l.069-.068.07-.069.069-.068v-.069h.07l.069-.068.07-.069h.069l.07-.068h.069l.07-.068h.208l.067-.069zm15.936 0h2.494l.347 5.822 3.187-5.822h2.495l-5.128 8.904-1.247 6.507h-2.217l1.108-6.986-1.039-8.425zm22.658 0h3.397c.822 0 1.397.651 1.247 1.507l-.762 3.836h-1.871l.416-2.534c.093-.573-.245-1.027-.831-1.027-.579 0-1.154.451-1.247 1.027l-.347 1.849c-.071.11.094.63.208.685.243.146 2.702 4.154 2.702 4.452.071.149.069.219.069.274-.093.502-.693 3.904-.693 3.904-.15.781-.925 1.438-1.732 1.438h-2.98c-.807 0-1.327-.657-1.178-1.438l.693-3.904h2.009l-.485 2.808c-.093.573.267 1.096.831 1.096.579 0 1.133-.52 1.247-1.096l.416-2.26c-.378-.946-2.822-4.386-2.979-5.206-.107-.091-.153-.586-.139-.959.022-.408.554-2.945.554-2.945l.07-.069v-.137l.069-.137v-.068l.07-.069v-.068l.069-.069v-.068l.07-.069.069-.068v-.069h.07l.069-.068.07-.069.069-.068.07-.069.069-.068.069-.069h.07l.069-.068h.07l.069-.068h.209l.065-.069zm16.145 0h4.643l-.347 1.849h-1.178l-2.425 13.562H235.7l2.425-13.562h-1.178l.347-1.849zm18.153 0h4.157l-.346 1.849h-2.148l-.97 4.863h2.217l-.346 1.576h-2.148l-.901 5.205h2.148l-.277 1.918h-4.435l3.049-15.411zm17.115 0h2.564l.416 8.904 3.949-8.835 2.494-.069-2.633 15.411h-1.94l1.247-8.151-3.464 8.151h-1.386l-.416-8.356-1.524 8.356h-2.287l2.98-15.411zm-372.154.548h4.088l-.277 1.917h-2.218l-.901 4.795h2.148l-.277 1.644h-2.217l-.832 5.206h2.148l-.347 1.917h-4.435l3.12-15.479zm19.124 0h1.94l1.04 8.082 1.524-8.082h2.287l-2.98 15.479h-1.94l-.762-8.972-1.802 8.972h-2.287l2.98-15.479zm20.787 0h4.573l-.277 1.917h-1.178l-2.495 13.562h-2.217l2.425-13.562h-1.247l.416-1.917zm20.163 0h4.157l-.346 1.917h-2.148l-.97 4.795h2.148l-.277 1.644h-2.148l-.901 5.206h2.148l-.277 1.917h-4.435l3.049-15.479zm19.54 0h4.435c.822 0 1.342.72 1.178 1.575l-1.04 5.48c-.114.593-1.167 1.078-1.732 1.301h.278v.068h.278l.07.069h.208v.068h.139v.069h.07c.092.166.139.66.139.753 0 .091-1.109 6.096-1.109 6.096h-2.009s1.073-5.392 1.109-5.616c.021-.24-.027-.53-.07-.754-.014-.165-.022-.448-.208-.616h-1.386l-1.316 6.986h-2.009l2.975-15.479zm19.817 0h4.642l-.277 1.917H3.026L.532 475.102h-2.218L.739 461.54H-.508l.347-1.917zm23.073 0h2.633l-.832 15.479H22.08l.347-3.561h-1.594l-1.317 3.561H17.16l5.752-15.479zm18.431 0h2.009l-2.98 15.479h-1.94l2.911-15.479zm17.877 0h1.94l1.04 8.082 1.524-8.082h2.218l-2.91 15.479h-2.009l-.693-8.972-1.802 8.972H56.24l2.98-15.479zm22.934 0h2.564l.416 8.972 3.95-8.904h2.494l-2.633 15.411h-1.94l1.247-8.15-3.464 8.15h-1.386l-.416-8.356-1.525 8.356h-2.217l2.91-15.479zm25.153 0h4.088l-.277 1.917H108.9l-.9 4.795h2.148l-.277 1.644h-2.218l-.901 5.206h2.218l-.347 1.917h-4.365l3.049-15.479zm20.093 0h1.94l1.039 8.082 1.525-8.082h2.217l-2.91 15.479h-1.94l-.762-8.972-1.801 8.972h-2.287l2.979-15.479zm20.579 0h4.643l-.347 1.917h-1.178l-2.425 13.562h-2.218l2.425-13.562h-1.247l.347-1.917zm-166.086 1.849c-.108 0-.199.063-.277.137l-.901 4.658v.068c0 .149.106.274.277.274h.832c.207 0 .726-.412.762-.616l.763-3.836c.036-.22-.347-.685-.554-.685h-.902zm41.019 4.657-1.455 3.904h1.109l.346-3.904zm264.339-19.575h-1.833v4.099h-1.29v-4.099h-1.902v-.849h5.025v.849zm6.79 4.099h-1.291v-4.02l-1.118 4.02h-1.291l-1.119-3.998v3.998h-1.29v-4.948h1.888l1.165 3.788 1.178-3.788h1.878v4.948z"/></svg>