<svg xmlns="http://www.w3.org/2000/svg" xml:space="preserve" width="566.929" height="98.574"><g fill="#2E3192"><path d="M488.614.917h24.031l11.869 27.298L542.313.917h24.615l-34.707 53.996-5.635 42.128h-22.248l6.524-48.068zM311.799 97.041l2.967-21.37h-33.815l2.076-16.605h29.366l2.969-21.36H286.29l2.078-15.43h33.814L325.446.917h-56.067l-13.35 96.124zM112.146 49.565l7.416-19.874 2.375 19.874h-9.791zm-8.009 18.987h20.172l3.563 28.48h36.488l16.91-52.213 8.309 52.213h19.283l21.359-55.179 3.561 55.179h21.359L249.207.913h-25.514L203.818 51.64 196.103.913h-22.842l-26.105 78.912L137.365.913h-28.48l-31.744 79.8 4.154-31.149H42.729l-2.672 18.987h16.912l-1.188 6.526c-2.967 1.778-9.789 2.076-12.459 2.076s-22.545-1.779-21.656-23.14c.889-21.358 29.369-41.234 63.188-30.258l3.266-20.47C65.572-4.427 6.354-.111.305 52.828c-3.559 31.149 24.921 45.983 43.906 45.688 10.977.594 23.438-3.561 27.887-5.935l-1.482 4.451h22.547l10.974-28.48z"/><path d="M464.581.028c-15.428-.594-37.678 8.306-45.094 44.204-7.416 35.894 12.459 50.431 30.852 52.804 18.396 2.373 44.205-9.196 48.951-43.609C504.038 19.013 487.125.919 464.581.028zm-2.373 20.47c6.229 0 19.578 4.154 16.314 29.071-3.262 24.92-18.688 27.887-24.326 27.293-5.637-.594-17.207-4.448-13.943-27.293 3.263-22.841 15.425-29.368 21.955-29.071z"/><path d="M370.833 37.706h12.461c9.197 0 10.977-5.934 11.271-8.305.297-2.375-2.371-7.122-7.117-7.122h-14.537l-2.078 15.427zm-5.34 37.971h16.912c9.195 0 11.271-7.119 11.566-9.493.299-2.373-2.371-7.118-7.117-7.118h-18.986l-2.375 16.611zm-24.918 21.361L353.925.92h40.938c9.793 0 24.031 11.274 22.252 26.403-1.779 15.13-6.527 16.02-9.791 18.393 5.045 4.447 10.088 11.568 8.012 24.918-2.078 13.352-13.055 26.403-32.338 26.403l-42.423.001zM538.618 82.498c-3.66 0-6.615 2.951-6.615 6.593a6.607 6.607 0 0 0 6.615 6.633c3.641 0 6.592-2.952 6.592-6.633a6.594 6.594 0 0 0-6.592-6.593v-.907a7.498 7.498 0 0 1 7.498 7.5c0 4.172-3.348 7.538-7.498 7.538a7.527 7.527 0 0 1-7.539-7.538c0-4.135 3.365-7.499 7.539-7.499v.906z"/><path d="M536.84 85.638h2.402c1.045 0 2.182.157 2.182 1.457 0 1.711-1.828 1.516-3.01 1.516l-1.574-.001v.808h1.891l2.402 3.878h1.219l-2.539-3.878c1.496-.038 2.656-.649 2.656-2.302 0-.71-.313-1.457-.945-1.813-.627-.374-1.338-.413-2.047-.413h-3.658v8.404h1.021v-7.656z"/></g></svg>