<svg xmlns="http://www.w3.org/2000/svg" viewBox="0 0 398 110.593"><path fill="#898d89" d="M378.918 1.12V0h7.994v1.12h-3.332v8.876h-1.33V1.12h-3.332zM389.866 0l3.149 8.4 3.164-8.4H398v9.996h-1.26V1.68h-.028l-3.122 8.316h-1.134l-3.122-8.316h-.028v8.316h-1.26V0h1.82z"/><g fill="#1f9ebb"><path d="M300.675 38.038c0 25.394 29.982 21.766 29.982 4.001V0h-29.982v38.038z"/><path d="M259.329 64.712c0 12.537 8.643 20.006 21.34 20.006h72.021c10.723 0 19.366-7.362 19.366-18.032V14.031c0-6.402-4.748-13.337-10.67-13.337h-16.698v43.319c0 32.916-57.35 32.65-57.35.694V0h-12.697c-8.269 0-15.365 5.228-15.365 13.337l.053 51.375z"/></g><path fill="#898d89" d="M159.62 12.591c0 6.829 5.762 12.59 12.964 12.59 7.576 0 13.497-5.602 13.497-12.59 0-7.042-5.922-12.59-13.497-12.59-7.202-.054-12.964 5.548-12.964 12.59zm24.487 97.255V37.611h-22.3v72.235h22.3zm20.753-97.255c0 6.829 5.922 12.59 13.177 12.59 7.362 0 13.337-5.602 13.337-12.59 0-7.042-5.922-12.59-13.337-12.59-7.255-.054-13.177 5.548-13.177 12.59zm24.487 97.255V37.611h-22.353v72.235h22.353zM126.277 6.082l-19.472 76.556S91.867 25.181 89.307 16.859C86.959 8.75 81.944 5.175 74.902 5.175c-7.202 0-12.057 3.628-14.618 11.683-2.347 8.269-17.285 65.779-17.285 65.779L23.42 6.082H0s22.513 81.624 25.608 91.173c2.347 7.362 8.109 13.337 16.378 13.337 9.71 0 14.244-7.042 16.218-13.337 2.187-6.509 16.752-60.338 16.752-60.338S89.573 90.8 91.547 97.256c2.187 6.295 6.669 13.337 16.218 13.337 8.482 0 14.031-5.922 16.592-13.337 3.041-9.549 25.608-91.173 25.608-91.173l-23.688-.001z"/></svg>