<svg xmlns="http://www.w3.org/2000/svg" xml:space="preserve" width="990" height="418" viewBox="9.6 187.5 990 418"><path d="M184.9 610.75c-18.2-5-35.9-21.8-43.6-41.5-5.2-13.2-24-79.3-89.8-316l-9.9-35.5 44.5-.3c24.5-.1 44.8.1 45.2.5.4.4 17.1 64.9 37 143.4l36.3 142.6 17.3-66.1c41-157 48-182.3 53.2-193.2 7-14.7 19.2-25.1 33.6-28.9 7.6-2 25.2-2 32.8 0 16 4.2 28.4 15.7 35.3 32.6 4.2 10.3 13.2 43.5 46.8 172.5 11.3 43.4 20.9 79.8 21.3 80.7.5 1.1 14.5-52.2 37.2-141.2l36.5-143h45.2c35.7 0 45.1.3 44.8 1.2-.2.7-9.9 35.2-21.4 76.8-55.1 198.4-74.3 265.1-79.7 276.8-9.2 20-24.6 33.8-42.9 38.6-7.7 2-24.3 2-31.9 0-10.6-2.8-16.6-6.4-25.7-15.5-7.1-7.1-9.3-10.2-13.2-18-6.3-12.9-12.4-33.9-51.2-176.5-9.1-33.6-16.9-61.7-17.2-62.5-.3-.8-9.7 32-20.9 72.9-24.6 89.9-37.6 136.4-41.6 149.1-8.7 27.5-24.6 45-45.4 50.4-7.4 2-25.6 2-32.6.1zm468.4-138v-136.5h85v273h-85zm171 0v-136.5h85v273h-85zm117 123v-13.5h-5c-4.7 0-5-.2-5-2.5v-2.5h26v2.5c0 2.3-.3 2.5-5 2.5h-5v27h-6zm18-2.5v-16h9l3 9.9c1.7 5.4 3 10.5 3 11.2 0 3.1 2-1.2 4.9-10.8l3.1-10.3h9v32h-6l-.1-11.3c-.1-12.2 0-12.2-4.4 2.6-2.6 8.8-2.6 8.8-5.8 8.5-3.1-.3-3.2-.5-6.2-10.8l-3-10.5-.3 10.8-.3 10.8h-6v-16.1zm-275.5-304.1c-19.3-3.9-35.2-20.4-38.5-39.8-4-23.6 11.8-47.4 35.5-53.6 12.1-3.2 27.6-1.5 38.7 4.1 6.6 3.4 16.7 13 20.1 19.2 11.6 21.4 4.7 49.3-15.4 62.2-11.1 7.2-27.8 10.5-40.4 7.9zm171 0c-24.9-5.1-42.6-29.9-38.6-54.3 3.1-18.7 17.3-34.3 35.6-39.1 12.1-3.2 27.6-1.5 38.7 4.1 6.6 3.4 16 12.3 19.8 18.9 12 21.1 5.2 49.6-15 62.5-11.2 7.2-27.9 10.5-40.5 7.9zM17.9 180.75" style="fill:#999"/></svg>