<svg xmlns="http://www.w3.org/2000/svg" viewBox="0 0 508.158 60.11"><path fill="#929497" d="M265.842 53.988c0 .637-.526 1.16-1.165 1.16H242.44a1.16 1.16 0 0 1-1.163-1.16V37.904c0-.639.517-1.157 1.163-1.157h22.237c.64 0 1.165.517 1.165 1.157v16.084zm-.965-22.066h-22.642c-3.278 0-5.94 2.682-5.94 5.95v16.153c0 3.263 2.662 5.943 5.94 5.943h22.643c3.278 0 5.947-2.68 5.947-5.943V37.871c0-3.267-2.67-5.949-5.948-5.949"/><path fill="#c02424" d="M326.764 27.334s16.665-2.669 16.665-13.044C343.43 4.148 325.684 0 306.804 0c-17.04 0-28.243 2.082-28.243 2.082v9.214c7.734-1.87 15.131-3.464 25.213-3.464 10.82 0 19.08 3.228 19.08 7.79 0 5.5-8.168 8.64-25.743 8.64h-8.077v8.29h7.503c18.513 0 29.041 2.785 29.041 9.581 0 6.067-9.406 9.753-21.135 9.753-10.227 0-19.583-2.178-27.17-4.284v9.94c3.644.625 13.314 2.568 31.325 2.568 19.952 0 37.313-6.416 37.313-17.726.002-9.484-12.026-15.05-19.147-15.05"/><path fill="#221d1f" d="M5.196 7.754v20.785H0V.484h4.437l21.036 20.434V.484h5.128v28.055h-4.059L5.196 7.754zm52.074 0v20.785h-5.194V.484h4.432l21.036 20.434V.484h5.133v28.055H78.62L57.27 7.754zm107.925 0v20.785h-5.192V.484h4.432l21.034 20.434V.484h5.132v28.055h-4.054L165.195 7.754zM42.967.485h.96v28.053h-5.192V.485h4.232zm75.08 0h.956V5.31h-12.527v23.227h-5.395V5.31H88.563V.485h29.484zm33.275 0h.973V5.31h-22.263v6.296h17.221v4.825h-17.22v7.274h22.262v4.832h-27.402V.484h26.43zm68.159 23.22h-15.953V5.31h15.953c4.991 0 6.768 4.961 6.768 9.192 0 4.25-1.777 9.204-6.768 9.204m8.522-19.123c-2.027-2.676-5.035-4.099-8.67-4.099h-20.814v28.055h20.814c3.636 0 6.643-1.42 8.671-4.099 1.901-2.495 2.911-5.92 2.911-9.939 0-3.995-1.01-7.436-2.912-9.918m37.839 17.97c0 .633-.526 1.154-1.165 1.154H242.44a1.16 1.16 0 0 1-1.163-1.154V6.47c0-.635.517-1.152 1.163-1.152h22.237c.64 0 1.165.517 1.165 1.152v16.084zM264.877.484h-22.642c-3.278 0-5.94 2.684-5.94 5.951v16.16c0 3.264 2.662 5.944 5.94 5.944h22.643c3.278 0 5.947-2.68 5.947-5.945V6.435c0-3.266-2.67-5.95-5.948-5.95m168.788 47.713c5.388 2.126 16.76 3.85 25.63 3.85 9.714 0 13.745-3.335 13.745-7.518 0-3.754-3.74-5.96-14.469-9.893-14.34-5.301-24.858-9.472-24.858-18.891 0-9.755 12.654-15.493 31.955-15.493 10.362 0 13.92.655 20.504 1.862l.046 9.256c-6.462-1.23-12.19-3.341-21.09-3.341-9.536 0-13.597 3.027-13.597 6.148 0 4.529 6.255 6.693 17.237 10.607 15.281 5.47 23.784 9.692 23.784 18.915 0 9.489-10.646 16.34-34.66 16.34-9.866 0-16.664-.65-24.226-1.866v-9.976zm-51.12-39.767h-11.427v43.262h11.427c17.544 0 28.611-7.501 28.611-21.543 0-14.037-11.067-21.719-28.61-21.719m30.683 47.293c-5.659 2.56-16.348 4.184-25.702 4.184h-35.722V.38h35.722c9.354 0 20.043 1.646 25.707 4.199 13.758 6.211 18.25 16.152 18.25 25.571 0 9.426-4.45 19.352-18.255 25.574m84.169-3.924h-1.879v-1.01h4.987v1.01h-1.903v5.594h-1.205V51.8zm9.455 2.899c-.037-.853-.087-1.881-.076-2.772h-.033a33.922 33.922 0 0 1-.78 2.527l-.972 2.86h-.92l-.88-2.821a32.362 32.362 0 0 1-.667-2.566h-.02a153.3 153.3 0 0 1-.12 2.813l-.146 2.654h-1.128l.443-6.604h1.587l.864 2.654c.231.775.441 1.56.607 2.296h.031c.175-.718.4-1.532.655-2.305l.908-2.645h1.57l.383 6.604h-1.176l-.13-2.695z"/></svg>