<?xml version="1.0" encoding="UTF-8"?>
<svg id="Layer_1" data-name="Layer 1" xmlns="http://www.w3.org/2000/svg" viewBox="0 0 367.26 167.92">
  <path d="M219.4,29.59c.64,2.24,.07,4.26-1.48,5.86-7.49,7.71-15.46,14.8-25.59,19.02-6.75,2.81-13.32,2.97-19.61-1.12-1.3-.85-2.2-.73-3.28,.2-4.32,3.77-8.82,7.33-12.8,11.47-.32,.33-.82,.7-.49,1.19,.14,.22,.68,.22,1.04,.24,.62,.04,1.25,.03,1.87,.01,.9-.02,1.35,.41,1.44,1.31,.11,1.23,.36,2.46,.4,3.69,.35,8.69,.61,17.38,.99,26.07,.36,8.31,.83,16.61,1.25,24.92,.06,1.24,0,2.5,.14,3.73,.19,1.64-.42,2.19-2.07,2.13-2.99-.11-6-.08-8.99,0-1.32,.03-1.68-.51-1.73-1.75-.14-3.72-.42-7.43-.59-11.15-.29-6.45-.54-12.9-.81-19.36-.02-.49,.05-1.03-.12-1.47-.16-.44-.48-.97-.87-1.14-.53-.23-.82,.35-1.02,.78-.36,.79-.66,1.6-1.01,2.4-4.13,9.55-8.33,19.07-12.36,28.67-.93,2.22-1.99,3.21-4.61,3.09-5.31-.25-5.26-.07-6.33-5.43-1.71-8.62-3.5-17.22-5.26-25.83-.05-.24-.07-.51-.2-.71-.19-.3-.41-.71-.7-.8-.45-.13-.43,.39-.53,.68-.27,.82-.53,1.65-.79,2.48-2.96,9.19-5.97,18.36-8.82,27.58-.46,1.48-1.04,1.98-2.54,1.97-6-.06-11.99-.05-17.99,0-1.38,.01-1.92-.43-2.13-1.86-.66-4.53-1.5-9.04-2.29-13.55q-.54-3.14-3.77-3.16c-3-.01-6,.1-8.99-.04-1.78-.08-2.71,.56-3.4,2.17-2.04,4.79-4.27,9.5-6.33,14.28-.67,1.55-1.52,2.28-3.33,2.18-2.99-.17-5.99-.08-8.99-.03-1.46,.03-2.1-.19-1.31-1.85,.66-1.38-.22-1.48-1.27-.99-5.26,2.51-10.77,3.89-16.62,3.47-8.59-.62-15.87-3.94-21.44-10.63-3.68-4.42-5.04-9.69-5.15-15.22-.19-9.22,2.13-17.69,8.74-24.57,6.12-6.37,13.61-10.29,22.13-12.46,7.84-1.99,15.52-1.4,23.21,.83,1.59,.46,1.98,1.15,1.72,2.61-.5,2.8-.95,5.62-1.4,8.43-.32,1.95-.37,1.99-2.37,1.44-8.48-2.32-16.8-1.93-24.78,1.82-7.76,3.64-13.32,9.33-14.42,18.12-1.01,8.04,3.75,16.77,13.87,17.17,1.88,.07,3.75,.07,5.59-.32,1.15-.24,1.79-.83,2.14-2.17,1.14-4.44,1.19-4.49-3.49-4.49-5.77,0-5.75,0-4.66-5.68,.28-1.46,.4-2.95,.62-4.42,.17-1.13,.76-1.7,2.02-1.69,6.74,.04,13.49,.05,20.24,0,1.85-.01,1.67,1.14,1.44,2.24-1.03,4.96-1.25,10.07-2.68,14.95-.17,.57-.18,1.04,.27,1.27,.5,.25,.88-.12,1.11-.64,1.57-3.51,3.17-7,4.72-10.51,5.32-12.01,10.68-24,15.87-36.06,.83-1.93,1.73-2.66,3.84-2.54,3.36,.2,6.74,.04,10.11,.06,2.83,.02,2.91,.02,3.38,2.72,.87,5,1.62,10.02,2.44,15.03,1.56,9.53,3.11,19.06,4.7,28.59,.14,.84,.52,1.63,.88,2.73,5.02-15.47,9.93-30.64,14.86-45.8,1.06-3.27,1.08-3.26,4.69-3.27,2.25,0,4.5,.07,6.74-.02,1.66-.07,2.4,.48,2.69,2.24,1.13,6.84,2.46,13.64,3.7,20.46,.53,2.92,1.03,5.85,1.57,8.77,.08,.43-.04,1.13,.71,1.01,.25-.04,.52-.46,.65-.77,1.86-4.33,3.68-8.67,5.53-12.99,1.61-3.76,3.22-7.52,4.89-11.25,.71-1.6,.87-3.32,1.32-4.98,4.43,2.57,3.73,3,7.22-1.17,5.55-6.62,12.21-12.02,18.66-17.66,.87-.76,1.45-.99,2.54-.22,6.38,4.51,13.13,4.31,20.11,1.46,6.29-2.57,11.8-6.38,16.81-10.83,3.77-3.35,8.07-6.27,10.49-10.93ZM75.06,97.71c.86,0,1.73,.01,2.59,0,.51-.01,1.1-.21,1.01-.77-.56-3.38-1.19-6.74-1.8-10.11-1.84,1.88-2.32,4.46-3.52,6.67-.18,.32-.36,.65-.5,.99q-1.39,3.25,2.21,3.23Z" fill="#333390"/>
  <path d="M219.4,29.59c-2.42,4.66-6.72,7.58-10.49,10.93-5.01,4.45-10.52,8.26-16.81,10.83-6.98,2.85-13.73,3.05-20.11-1.46-1.08-.77-1.67-.54-2.54,.22-6.45,5.64-13.11,11.04-18.66,17.66-3.5,4.17-2.8,3.74-7.22,1.17-.98-2.04-.45-3.67,1-5.39,6.07-7.18,12.02-14.46,18.02-21.71,1.24-1.48,3.07-2.41,3.92-4.24,.14-.3,.51-.64,.17-.92-.24-.19-.76-.29-1.02-.16-2.43,1.22-4.86,2.46-7.25,3.75-6.31,3.42-12.74,6.59-19.47,9.08-4.22,1.56-6.52,.88-9.19-2.26-.15-1.09-.3-2.17-.45-3.26,.17-.59,.31-1.19,.52-1.77,.19-.54,.84-1.08,.28-1.65-.66-.66-1.34-.13-1.99,.23-3.01,1.69-6,3.4-9.03,5.04-6.06,3.29-12.4,6.01-18.78,8.61-2.57,1.05-5.04,.85-7.04-1.41-.31-.36-.78-.59-1.17-.88-1.25-2.77-1.2-5.28,.61-7.99,3.93-5.88,9.1-10.52,14.37-15.08,3.95-3.42,8.06-6.66,12.11-9.96,3-2.44,3-2.42,5.21,.65,.87,1.2,2.12,2.28,.75,3.9-1.19,.08-2.11,.78-2.95,1.46-7.5,6.07-15.16,11.95-21.94,18.84-.92,.94-3.12,1.94-1.77,3.44,1.11,1.24,2.63-.4,3.81-1.2,.19-.13,.27-.4,.4-.61,2.5,.3,4.55-.97,6.67-1.93,12.7-5.78,24.35-13.26,35.41-21.69,1.48-1.13,2.93-2.29,4.38-3.45,.51-.41,1.15-.86,1.6-.21,1.28,1.83,3.71,3.23,2.56,6.08-3.14,1.89-5.34,4.8-7.86,7.35-3.24,3.27-5.92,7-8.6,10.72-.28,.4-.64,.81-.25,1.31,.37,.47,.93,.36,1.37,.22,.46-.15,.85-.49,1.27-.75,.56,.1,1.04,.09,.9-.7l-.06,.05c2.22,.39,3.71-1.18,5.34-2.14,8.35-4.93,16.6-10.02,24.94-14.97,3.63-2.16,7.37-4.12,11.08-6.16,1.32-.72,2.89-1.7,4.03-.17,1.14,1.53,3.47,2.85,1.97,5.41-3.73,2.69-6.09,6.69-9.39,9.79-.33,.32-.67,.77-.26,1.26,.39,.48,1.02,.32,1.35,.08,1.56-1.14,3.58-1.71,4.56-3.59,1.47,.22,2.62-.58,3.84-1.19,7.57-3.8,15.38-6.95,23.73-8.64,4.49-.91,7.26,.83,8.1,5.2,.14,.72,.02,1.48,.02,2.23Zm-39.69,16.66c2.09,1.24,4.37,.86,6.46,.34,8.31-2.04,14.84-7.01,20.71-12.96,.06-.06,0-.24-.02-.36,.37-.66,1.2-.32,1.64-.68,1.1-.92,3.1-1.86,2.51-3.23-.47-1.09-2.42-.19-3.73,.21-8.73,2.63-16.66,7.01-24.61,11.31-1.63,.88-3.15,1.98-4.75,2.93-.56,.33-1.15,.63-1.05,1.34,.14,.96,.98,.98,1.72,1.05,.37,.03,.75,.04,1.12,.06Z" fill="#e7272b"/>
  <path d="M234.45,128.21c-4.49,0-8.98,.02-13.47,0-2.12-.02-2.31-.21-2.01-1.99,1.88-11.47,3.82-22.92,5.67-34.4,1.14-7.08,2.17-14.18,3.26-21.27,.11-.73,.32-1.45,.44-2.18,.16-1.05,.75-1.39,1.79-1.38,7.73,.05,15.49-.31,23.19,.15,10.95,.64,17.51,13.35,12.16,23.1-1.18,2.16-3.61,3.98-3.93,6.18-.33,2.28,2.66,3.88,3.74,6.1,2.96,6.06,1.79,11.66-2.06,16.73-4.44,5.82-10.27,9.25-17.92,9-3.61-.12-7.23-.02-10.85-.02Zm6.55-11.94c2.98-.11,6.24,.47,9.23-1.35,3.77-2.3,4.37-6.64,1.24-9.27-1.3-1.1-2.86-1.63-4.44-1.72-3.22-.18-6.46-.08-9.7-.08-.92,0-1.76,.2-1.94,1.3-.52,3.16-1.01,6.33-1.53,9.5-.23,1.4,.5,1.69,1.71,1.65,1.74-.06,3.48-.01,5.44-.01Zm4.09-36.41c-1.46,0-2.7,.02-3.95,0-1.18-.02-1.81,.5-2,1.7-.45,2.79-.97,5.58-1.45,8.37-.18,1.05,.18,1.63,1.37,1.61,2.61-.05,5.23,.11,7.82-.09,2.29-.17,4.29-1.18,5.65-3.15,2.33-3.37,.76-7.42-2.87-8.15-1.62-.33-3.21-.15-4.59-.28Z" fill="#323290"/>
  <path d="M268.93,100.41c.6-12.42,4.98-22.97,15.82-29.95,12.52-8.06,26.36-3.37,32.74,8.09,6.88,12.35,5.71,24.75-1.27,36.73-3.41,5.86-8.34,10.1-14.73,12.62-10.25,4.05-20.72,.04-26.5-7.92-4.24-5.84-6.13-12.37-6.06-19.57Zm39.98-6.54c.15-3.03-.55-6.52-2.38-9.72-2.46-4.29-6.43-6.13-10.99-5.15-2.11,.46-3.92,1.56-5.55,2.93-7.24,6.06-10.39,19.74-6.56,28.39,2.26,5.1,6.74,7.79,11.58,6.68,3.11-.71,5.67-2.51,7.7-4.98,4.17-5.09,6.25-10.92,6.21-18.14Z" fill="#333390"/>
  <path d="M220.82,49.86c4.2,1.66,8.36,.65,12.46-.34,7.21-1.73,13.68-5.17,19.96-8.98,9.6-5.81,18.45-12.66,27.06-19.81,1.49-1.24,2.01-2.3,.88-4.06-1.01-1.56-1.25-3.46-1.49-5.26-.5-3.8,2.46-6.12,6.14-4.96,3.77,1.18,5.94,4.33,4.77,8-1.02,3.22-.1,5.48,1.96,7.72,1.1,1.19,2.05,2.5,3.16,3.67,3.31,3.48,2.77,7.43,1.5,11.47-.18,.57-.77,1.04-.87,1.61-.81,4.41-.35,5.37,3.98,4.79,5.54-.75,11.1-1.51,16.68-1.8,8.46-.45,16.92-1.13,25.4-.81,6.84,.26,13.63,.88,20.26,2.75,3.56,1.01,3.69,1.06,3.95,4.74,.03,.5,.04,.99,.06,1.49-.17,.8-.58,1.39-1.49,1.33-3.36-.2-6.61,1.01-9.97,.73l.04,.04c-.23-3.18-.34-3.31-3.28-3.79-1.34-.22-2.68-.6-4.03-.62-10.85-.23-21.71-.37-32.5,.82-2.83,.31-5.69,.38-8.51,.81-4.65,.71-9.33,1.22-13.94,2.08-2.44,.46-4.6,.18-6.72-.96-1.19-2.46-1.2-4.93-.07-7.4,1.12-2.44,2.24-4.88,3.42-7.29,.7-1.44,1.36-2.88,1.54-4.48,.65-.8,.54-1.65,0-2.39-1.54-2.08-3.12-4.13-4.71-6.18-.44-.57-1.01-.65-1.62-.22-.7,.51-1.45,.96-2.09,1.54-4.4,4-9.06,7.69-13.77,11.32-8.14,6.28-16.64,11.99-26.01,16.34-6.39,2.96-12.94,4.74-20.09,4.26-3.57-.24-6.45-1.3-8.39-4.4-1.37-4.64,.44-8.48,3.11-12.07,5-6.71,11.74-11.38,18.85-15.54,4.81-2.82,9.8-5.33,15.35-6.51,6.87-1.46,10.48,1.28,10.71,8.25-.24,.74-.79,1.26-1.36,1.73-4.9,3.99-9.94,7.81-15.67,10.54-6.05,2.88-12.18,5.54-19.19,3.76-1.2-.3-2.58-.4-3.36,.91-1.21,2.03-3.39,3.67-2.9,6.44,.05,.29,.51,.5,.78,.75Zm11.5-12.77c1,.08,1.95-.05,2.94-.32,7.21-2,13.26-5.99,18.88-10.76,.55-.28,1.13-.53,1.65-.86,.62-.4,1.4-.85,1.14-1.71-.29-.96-1.17-1.23-2.12-1.1-.49,.07-.96,.2-1.44,.33-8.32,2.16-15.54,6.41-22.24,11.63-.68,.53-1.3,1.16-1.89,1.81-.56,.62-.48,1.09,.48,1.09,.87,0,1.74-.06,2.61-.1Z" fill="#e7272b"/>
  <path d="M181.91,128.28c-5.25,0-10.49,.03-15.74-.01-2.02-.02-1.99-.08-1.66-2.13,1.89-11.86,3.76-23.72,5.66-35.58,1.18-7.33,2.51-14.64,3.56-21.99,.27-1.89,1.06-2.13,2.66-2.12,10.12,.05,20.23,.01,30.35,.04,2.44,0,2.56,.15,2.22,2.56-.42,2.94-1.07,5.85-1.38,8.8-.18,1.68-.95,1.99-2.43,1.98-5.87-.06-11.74,.07-17.61-.07-1.89-.05-2.71,.58-2.93,2.36-.28,2.21-.63,4.41-1.01,6.61-.26,1.57,.21,2.22,1.93,2.19,4.87-.09,9.74-.06,14.61-.02,2.38,.02,2.48,.08,2.17,2.55-.38,3.07-1.03,6.11-1.42,9.17-.17,1.31-.79,1.61-1.97,1.6-4.37-.04-8.74-.02-13.11-.01-.87,0-1.75,.04-2.62,0-1.15-.07-1.82,.23-1.99,1.55-.33,2.45-.83,4.88-1.3,7.31-.3,1.53,.38,1.92,1.82,1.9,5.12-.06,10.24-.02,15.36-.02,.87,0,1.75,.06,2.62-.01,1.43-.12,2.11,.37,1.86,1.9-.56,3.42-1.08,6.85-1.6,10.28-.22,1.46-1.35,1.2-2.31,1.2-5.25,.01-10.49,0-15.74,0Z" fill="#333390"/>
  <path d="M43.5,24.4c-.1-1.11-.05-2.27-.34-3.32-1.1-3.96,.67-6.74,3.62-9.01,1.17-.9,2.52-1.55,3.96-2.03,9.19-3.01,18.29-6.32,27.81-8.27,8.48-1.73,16.95-2.74,25.49-.41,.84,.23,1.67,.48,2.5,.73,4.45,1.35,7.69,3.38,7.45,10.02-1.23,5.01-4.83,7.75-9.36,9.54-2.35,.93-4.71,2.32-7.3,.6l.04,.07c-.08-.26-.16-.51-.24-.77-.16-.71-.41-1.42-.46-2.13-.15-2.39,.15-2.95,2.42-3.91,1.79-.76,3.65-1.38,5.51-1.96,.96-.3,1.86-.6,2.54-1.37,.96-.37,2.07-.69,.92-2.01-.93-1.05-2.14-1.67-3.45-2.08-2.6-.8-5.23-1.43-7.98-1.42-4.96,.02-9.86,.79-14.68,1.77-8.32,1.7-16.46,4.14-24.43,7.1-2.66,.98-5.28,2.04-7.93,3.05-.72,.27-1.48,.61-1.48,1.44,0,.8,.69,1.25,1.43,1.5,.23,.08,.48,.13,.72,.19,4,2.38,8.59,3.01,12.98,4.2,4.3,1.17,8.68,2.05,13.02,3.06,3.22,.75,6.02,2.36,8.45,4.51,2.64,2.33,4.1,5.26,3.64,8.9-1.62,3.53-4.36,5.85-7.89,7.38-4.93,2.13-10.16,3.08-15.42,3.83-4.78,.68-9.62,.96-14.39,1.74-5.26,.86-10.55,1.46-15.84,1.89-4.33,.35-8.69,.65-12.99,1.12-3.68,.4-7.4,.36-11.09,1.04-3.32,.61-6.99,.98-10.05-1.44-.96-2.6-1.15-5.21,1.06-7.22,2.07-1.87,4.95-1.85,7.03-.62,3.61,2.14,7.27,1.28,10.89,1.02,6.45-.46,12.87-1.28,19.3-1.94,8.04-.83,16.02-2.05,23.99-3.38,4.53-.76,9.03-1.68,13.51-2.65,1.66-.36,3.46-.58,4.67-2.05,1.58-1.38,1.67-1.98,.16-2.89-2.66-1.61-5.65-2.43-8.63-3.25-6.41-1.75-12.84-3.45-19.24-5.25-3.24-.91-6.4-2.03-8.55-4.86-.34-.45-.87-.39-1.36-.46Z" fill="#e92328"/>
  <path d="M322.54,66.46c2,.27,4.7-.89,6.59,.54,1.71,1.3,1.87,3.94,2.75,5.98,1.51,3.53,2.78,7.15,4.25,10.7,.3,.71,.14,2.02,1.26,1.98,.9-.03,1.15-1.17,1.6-1.89,2.69-4.32,5.33-8.68,8.09-12.95,3.37-5.19,1.59-4.27,7.89-4.36,2.37-.03,4.75-.03,7.12,0,2.43,.03,2.54,.18,1.3,2.15-3.44,5.46-6.94,10.89-10.41,16.34-3.14,4.92-6.19,9.9-9.44,14.74-1.44,2.14-2.06,4.46-2.44,6.91-1.01,6.61-2.07,13.21-2.96,19.84-.2,1.46-.7,1.89-2.09,1.86-3-.07-6-.1-8.99,0-1.6,.06-1.93-.62-1.71-2,.59-3.67,1.12-7.34,1.72-11.01,.82-5.01,1.64-10.01,2.54-15.01,.25-1.39-.49-2.39-.99-3.48-4.23-9.24-8.5-18.46-12.74-27.69-1.2-2.61-1.19-2.62,1.84-2.65,1.5-.01,3,0,4.83,0Z" fill="#333390"/>
  <path d="M219.58,143.13c-.72-7.15,2.75-11.07,10.01-11.32,4.26-.14,8.17,.96,11.74,3.26,.16,.53,.55,.64,1.04,.6,.35,.06,.46,.31,.48,.62-.05,1.86,.2,3.79-.2,5.57-.78,3.48-3.34,5.59-6.38,7.25-2.39,1.3-2.5,3.67-.31,5.21,2.53,1.78,5.03,3.59,7.12,5.9,.58,.64,1.31,1.16,1.25,2.18-.05,.98,.05,1.91-.71,2.79-1.06,1.24-2.37,1.19-3.75,1.11l-.04-.03c-.12-.4-.39-.62-.8-.69-1.53-.96-2.83-2.13-4.03-3.52-1.16-1.33-2.27-2.91-4.23-3.29-.06-.45-.33-.64-.77-.63l.04,.06c.05-.78,.05-1.52-1.01-1.6-1.06-.08-1.71,.59-1.91,1.44-.22,.95-.02,1.98-.1,2.96-.32,3.74-1.35,4.9-4.7,5.38-2.17-1.45-2.31-3.46-1.61-5.72,.44-1.41,1.49-2.88-.32-4.13,2.21-4.12,1.97-8.07-.86-11.84v.02c-.17-.53,1.27-1.03,.03-1.58Zm15.68-3.67l.04,.05c.11-1.34-.53-2.16-1.84-2.26-1.48-.1-2.99-.2-4.44,.01-1.57,.23-2.67,1.2-2.67,2.98,0,1.23,.03,2.46,0,3.69-.04,1.46,.95,2.22,2.01,2.83,.5,.29,.88-.2,1.07-.69,1.62,.18,3.17-.29,4.62-.84,2.44-.92,2.97-2.51,2.03-5.14-.13-.4-.4-.61-.82-.64Z" fill="#279c92"/>
  <path d="M141.45,141.07c-1.08-.53-1.61-1.51-2.07-2.54-1.24-1.62-2.18-1.75-4.12-.58-4.75,2.86-7.78,7.13-9.08,12.36-.65,2.62-1.41,5.89,2.07,7.68h-.05c-.03,.56,.22,.81,.78,.76l-.04-.03c.06,1.03,.84,.81,1.47,.84,3.23,1.06,6.51,1.06,9.78,.36,1.72-.37,3.42-.26,5.13-.17-.04,1.51,2.35,1.96,1.66,3.76-.47,.73-.94,1.45-1.41,2.18-3.15,.38-6.31,.59-9.49,.73-3.49,.16-6.81-.9-10.25-.82h0c-.09-.52-.43-.71-.93-.67-4.79-3.42-5.64-8.38-4.75-13.59,1.32-7.75,5.51-13.95,11.63-18.88,3.1-2.5,6.74-2.39,10.33-1.83,1.17,.18,2.18,1.41,3.27,2.16,0,.74,0,1.48,.01,2.22q.01,4.29-3.94,6.05Z" fill="#be2851"/>
  <path d="M.68,57.95c3.06,2.42,6.73,2.05,10.05,1.44,3.69-.68,7.41-.64,11.09-1.04,4.3-.47,8.66-.77,12.99-1.12,5.29-.43,10.58-1.03,15.84-1.89,4.76-.78,9.6-1.06,14.39-1.74,5.26-.75,10.49-1.7,15.42-3.83,3.53-1.52,6.27-3.84,7.89-7.38,1.02,2.86-.36,5.03-2.16,7-2.25,2.47-5.3,3.72-8.35,4.72-5.08,1.67-10.36,2.55-15.66,3.2-7.52,.92-15.04,1.86-22.56,2.78-2.72,.33-5.45,.44-8.17,.73-7.17,.77-14.37,1.26-21.57,1.8-1.73,.13-3.5,.15-5.23-.03-2.98-.31-3.8-1.36-3.97-4.64Z" fill="#3f378e"/>
  <path d="M176.63,167.13c-1.62-.91-1.19-2.49-1.25-3.9-.11-2.64,.28-5.33-.76-7.89,0-1.61,.05-3.23-.02-4.84-.08-1.95,.38-3.99-.78-5.8-.19-.77,.78-1.94-.78-2.25l.04,.07c.58-.98,.2-1.98-.18-2.84-.67-1.56-.61-3.16-.53-4.75,.15-3.26,1.77-4.16,5.25-3.05,1.7,3.63,1.83,7.57,2.16,11.44,.28,3.33,.14,6.7,.05,10.05-.04,1.54,.5,2.9,.99,4.25,.31,.84,.96,.39,1.3-.25,3.03-.26,5.79-1.97,8.93-1.62,.76,.3,1.86-.29,2.32,.85,0,.61,0,1.23-.01,1.84-.08,3.16-.54,3.63-3.74,4.18-1.18,.2-2.36,.54-3.49,.95-3.18,1.15-6.33,2.37-9.5,3.57Z" fill="#79a643"/>
  <path d="M146.99,163.51c.69-1.8-1.7-2.24-1.66-3.76,.01-.3,.02-.6,.03-.9,2.82-.42,2.88-.46,2.98-2.66,.05-1.11,0-2.23,.01-3.34,.01-4.91,4.54-11.14,9.19-12.64q2.64-.85,2.84-3.61c.74,0,1.49,0,2.23,0,.38,.81,1.05,.59,1.7,.47,1.03,.03,2.02,.17,2.81,.92,.08,.45,.36,.66,.82,.65v-.05c-.18,1.6,.6,2.32,2.15,2.36,.28-.02,.56-.04,.83-.05l-.04-.03c.03,.52,.31,.79,.83,.8,.42,.09,.63,.34,.6,.77-1.12,.47-.82,1.3-.43,2.04,.29,.54,.47,1.07,.45,1.67-1.17,1.83-1.05,2.32,.73,3.04,0,.72,0,1.44,0,2.15-.45,.1-1.28,.08-1.2,.49,.32,1.64-1.59,3.14-.27,4.79-.65,2.93-2.26,5.03-5.22,5.96-1.06,.03-2.35-.3-2.3,1.47-.98,.25-1.97,.5-2.95,.75-.26-.23-.51-.66-.77-.67-3.89-.14-7.8,.21-11.64-.74-.57,.04-1.14,.08-1.72,.12Zm9.64-4.7c.08,.2,.17,.39,.25,.59,.13-.14,.27-.29,.4-.43,1.02,.44,2.03,.88,3.05,1.32,1.48,1.33,3.17,1.16,4.62,.23,3.76-2.39,5.52-7.44,4.26-11.64-.53-1.76-1.08-1.94-3.16-1.02-.42-.75-.84-1.5-1.26-2.24-.04-.68-.46-.9-1.07-.89-.13,.06-.26,.05-.37-.05-1.3-2.36-2.71-2.86-5.32-1.78-4.55,1.9-7.1,4.54-6.67,10.89,.23,3.46,1.72,4.92,5.29,5.04v-.02Z" fill="#575c9f"/>
  <path d="M214.5,51.6c1.94,3.1,4.81,4.16,8.39,4.4,7.15,.48,13.7-1.3,20.09-4.26,9.38-4.35,17.87-10.06,26.01-16.34,4.71-3.63,9.36-7.32,13.77-11.32,.64-.58,1.39-1.03,2.09-1.54,.61-.44,1.18-.35,1.62,.22,1.59,2.05,3.17,4.1,4.71,6.18,.55,.75,.65,1.59,0,2.39-1.33-1.64-2.74-3.21-3.95-4.93-.9-1.28-1.52-1.13-2.62-.22-4.86,4.05-9.75,8.09-14.73,11.99-7.63,5.98-15.59,11.49-24.33,15.77-4.91,2.4-10,4.27-15.45,5.2-3.52,.6-6.94,.44-10.33-.46-3.47-.92-5.06-3.18-5.27-7.09Z" fill="#3f378e"/>
  <path d="M210.59,138.66c3-.13,5.33,.97,6.77,3.68,.55,.95,.46,2.5,2.19,2.37v-.02c-.04,1.23-.17,2.45,.3,3.65,.65,1.67,.35,3.27-.13,5-1.5,5.51-5.36,8.56-10.3,10.73-3.27,1.44-6.68,1.53-10.14,1.52l.05,.04c-.34-1.27-1.43-.59-2.17-.83-1.07-.11-1.51-1.1-2.31-1.59,.15-1.25,.99-2.33,.87-3.64,.56-.03,1.27,.04,1.18-.79-.08-.77-.82-.61-1.36-.66h.01c-.04-1.09,.09-2.23-.14-3.29-1.19-5.43,.71-9.64,5.53-12.11,2.43-1.24,5.1-1.64,7.75-1.71,1.91-.05,1.94-1.02,1.87-2.35Zm-9.01,18.69c.2,.76,.85,.64,1.4,.71l2.32,.19c-.12,.21-.22,.44-.37,.63-.44,.55-1.32,1-.83,1.84,.34,.57,1.13,.31,1.73,.38,5.02,.64,8.19-2.24,10.68-5.91,1.44-2.12,1.17-4.67,.25-7.07-.46-1.21-1.15-2.37-2.43-2.51-1.25-.13-.23,1.93-1.53,2.11-.96-.45-1.59-1.26-2.23-2.05-.05-.52-.28-.98-.73-1.21-4.21-2.2-11.2,.69-12.58,5.19-1.16,3.78,.7,7.09,4.35,7.74l-.02-.02Z" fill="#daae26"/>
  <path d="M286.29,50.51c2.12,1.13,4.28,1.42,6.72,.96,4.62-.87,9.3-1.38,13.94-2.08,2.82-.43,5.68-.5,8.51-.81,10.8-1.18,21.66-1.04,32.5-.82,1.35,.03,2.69,.4,4.03,.62,2.94,.48,3.05,.61,3.28,3.79-8.61-1.56-17.27-1.78-25.98-1.13-4.71,.35-9.43,.42-14.14,.89-7.42,.73-14.79,1.69-22.13,2.92-3.81,.64-5.67-.25-7.23-3.57-.18-.38,.12-.65,.5-.78Z" fill="#3f378e"/>
  <path d="M50.26,21.73c-.24-.06-.49-.11-.72-.19-.74-.25-1.43-.7-1.43-1.5,0-.83,.76-1.16,1.48-1.44,2.65-1.01,5.28-2.06,7.93-3.05,7.97-2.95,16.11-5.39,24.43-7.1,4.82-.99,9.72-1.75,14.68-1.77,2.74-.01,5.38,.62,7.98,1.42,1.31,.41,2.53,1.03,3.45,2.08,1.16,1.31,.05,1.63-.92,2.01-5.91-2.91-12.21-2.43-18.35-1.58-13.35,1.85-26.08,6.08-38.54,11.12Z" fill="#3f378e"/>
  <path d="M220.82,49.86c-.27-.25-.73-.46-.78-.75-.49-2.77,1.68-4.4,2.9-6.44,.78-1.31,2.16-1.21,3.36-.91,7.01,1.78,13.14-.88,19.19-3.76,5.74-2.73,10.77-6.55,15.67-10.54,.58-.47,1.12-.99,1.36-1.73,1.04,1.91,.71,3.54-.98,4.93-6.29,5.13-12.86,9.8-20.55,12.69-4.87,1.83-9.79,2.89-14.96,1.48-1.17-.32-1.95,.18-2.6,.98-1.01,1.26-2.12,2.45-2.6,4.05Z" fill="#3f378e"/>
  <path d="M92.09,52.01c.39,.29,.85,.52,1.17,.88,1.99,2.26,4.47,2.46,7.04,1.41,6.38-2.6,12.72-5.31,18.78-8.61,3.03-1.65,6.03-3.35,9.03-5.04,.64-.36,1.32-.88,1.99-.23,.57,.56-.09,1.1-.28,1.65-.2,.58-.35,1.18-.52,1.77-2.22,.5-4.01,1.88-5.95,2.94-7.39,4.02-14.91,7.78-22.8,10.73-4.36,1.63-7.99-.64-8.78-5.33,0-.03,.21-.11,.32-.16Z" fill="#3f378e"/>
  <path d="M129.75,47.09c2.67,3.14,4.97,3.82,9.19,2.26,6.74-2.49,13.17-5.66,19.47-9.08,2.39-1.3,4.81-2.54,7.25-3.75,.26-.13,.78-.03,1.02,.16,.34,.28-.03,.62-.17,.92-.86,1.83-2.69,2.76-3.92,4.24-2.98,.96-5.57,2.71-8.38,4.02-4.49,2.1-8.98,4.2-13.49,6.26-1.01,.46-2.1,.75-3.15,1.12-3.83,1.36-8.62-1.89-7.82-6.15Z" fill="#3f378e"/>
  <path d="M43.5,24.4c.48,.07,1.01,0,1.36,.46,2.16,2.83,5.31,3.96,8.55,4.86,6.4,1.79,12.83,3.49,19.24,5.25,2.98,.81,5.97,1.64,8.63,3.25,1.51,.91,1.42,1.51-.16,2.89-5.54-2.6-11.52-3.78-17.36-5.41-4.05-1.13-8.08-2.36-12.14-3.47-4.17-1.14-6.88-3.71-8.11-7.84Z" fill="#3f378e"/>
  <path d="M210.59,138.66c.07,1.32,.05,2.3-1.87,2.35-2.65,.07-5.32,.47-7.75,1.71-4.83,2.47-6.72,6.68-5.53,12.11,.23,1.06,.1,2.2,.14,3.3-.42-.1-.67-.37-.77-.79-.04-.45-.28-.67-.74-.66-.23-.04-.47-.07-.71-.1-.46-1.14-1.55-.54-2.32-.85,.21-2.81-.23-5.63,.75-8.43,1.28-3.67,3.36-6.42,7.04-7.96,3.35-1.4,6.77-2.24,10.42-2.07,.98,.05,1.28,.55,1.32,1.39Z" fill="#f2c73b"/>
  <path d="M102.7,45.47c-.13,.21-.21,.48-.4,.61-1.18,.8-2.7,2.43-3.81,1.2-1.35-1.5,.85-2.51,1.77-3.44,6.78-6.89,14.45-12.77,21.94-18.84,.84-.68,1.76-1.39,2.95-1.46,1.54,1.37,.67,2.31-.54,3.25-2.84,2.19-5.72,4.35-8.47,6.65-4.19,3.49-8.3,7.07-12.42,10.63-.44,.38-1.09,.65-1.01,1.41Z" fill="#3f378e"/>
  <path d="M160.38,136.61q-.2,2.75-2.84,3.61c-4.65,1.5-9.18,7.74-9.19,12.64,0,1.11,.04,2.23-.01,3.34-.1,2.2-.16,2.23-2.98,2.66-2.87-8.4,1.2-15.64,7.02-19.46,1.32-.87,2.7-1.66,4.28-2.01,.36,.73,.53,.41,.67-.11,1.03-.13,1.9-1.04,3.05-.66Z" fill="#7074ba"/>
  <path d="M239.88,166.3c1.38,.09,2.68,.14,3.75-1.11,.75-.88,.65-1.81,.71-2.79,.06-1.02-.68-1.54-1.25-2.18-2.09-2.31-4.59-4.12-7.12-5.9-2.19-1.54-2.08-3.91,.31-5.21,3.04-1.66,5.6-3.77,6.38-7.25,.4-1.78,.15-3.71,.2-5.57,2.51,1.93,3.08,4.58,1.69,7.81-1.18,2.74-3.3,4.6-5.74,6.19-2.71,1.77-2.69,1.81-.15,3.97,1.99,1.69,3.99,3.38,5.99,5.06,.38,.32,.78,.62,1.17,.93,1.21,.98,.44,2.91,1.85,3.79-1.51,.6-1.91,1.97-2.32,3.33-1.28-1.07-2.28,.49-3.43,.37-.9-.09-1.6-.62-2.03-1.45Z" fill="#2d5c57"/>
  <path d="M139.25,43.11c-.42,.26-.81,.6-1.27,.75-.45,.14-1.01,.25-1.37-.22-.39-.5-.03-.91,.25-1.31,2.67-3.73,5.36-7.46,8.6-10.72,2.52-2.55,4.72-5.46,7.86-7.35,1.22,1.26,.88,2.28-.32,3.41-4.02,3.79-7.92,7.71-11.35,12.05-.65,.82-1.79,1.41-1.55,2.74l.06-.05c-.62-.18-.78,.25-.9,.7Z" fill="#3f378e"/>
  <path d="M97.33,22.26c2.59,1.72,4.95,.33,7.3-.6,4.53-1.79,8.13-4.53,9.36-9.54,1.33,3.05-.08,5.53-1.85,7.77-3,3.8-7.2,5.54-11.85,6.43-1.23,.24-1.87-.33-2.44-1.21-.56-.88-.68-1.85-.53-2.86Z" fill="#3f378e"/>
  <path d="M161.11,164.81c.98-.25,1.97-.5,2.95-.75,1.16,.13,1.91-.39,2.3-1.47,2.96-.93,4.57-3.03,5.22-5.96,1.38-1.51,1.63-3.34,1.47-5.28,0-.72,0-1.44,0-2.15-.18-1.03,.7-2.31-.73-3.04,.03-.61-.15-1.13-.45-1.67-.4-.74-.7-1.57,.43-2.04,.26,.02,.52,.05,.78,.07l-.04-.07c-.03,.85-.23,1.75,.78,2.25,1.16,1.81,.7,3.85,.78,5.8,.07,1.61,.02,3.23,.02,4.84-.7,1.42-1.23,2.95-2.12,4.24-3.93,5.74-9.57,7.72-16.32,7.06-.85-.08-1.69-.31-2.54-.46,1.24-1.21,2.78-.32,4.15-.62,1.11-.24,2.5,.71,3.32-.76Z" fill="#2d5c57"/>
  <path d="M199.29,165.59c3.46,0,6.87-.09,10.14-1.52,4.94-2.18,8.81-5.22,10.3-10.73,.47-1.73,.78-3.33,.13-5-.47-1.2-.34-2.42-.31-3.65,2.83,3.76,3.07,7.71,.86,11.84-2.53,5.65-7.36,8.32-13.03,9.76-2.72,.69-5.52,.97-8.09-.69Z" fill="#6e5d28"/>
  <path d="M182.12,157.36c-.34,.64-.99,1.09-1.3,.25-.49-1.35-1.03-2.71-.99-4.25,.09-3.35,.23-6.72-.05-10.05-.33-3.86-.46-7.81-2.16-11.44,2.81,1.37,3.17,4.13,3.63,6.7,1,5.6,.62,11.29,.81,16.94,.02,.62,.04,1.23,.06,1.85Z" fill="#6e5d28"/>
  <path d="M128.26,158c-3.49-1.79-2.72-5.06-2.07-7.68,1.3-5.23,4.33-9.5,9.08-12.36,1.94-1.17,2.88-1.04,4.12,.58-1.3-.19-2.42,.18-3.49,.94-4.54,3.25-7.34,7.58-8.38,13.07-.37,1.94,.76,3.6,.75,5.46Z" fill="#6e5d28"/>
  <path d="M193.37,156.59c.24,.03,.47,.06,.71,.1,.09,.39,.34,.61,.74,.66,.1,.41,.34,.69,.77,.79h-.01c.06,.47,.12,.95,.18,1.43,.11,1.31-.73,2.39-.87,3.64-.56,.26-1.1,.73-1.67,.75-4.18,.15-7.89,1.92-11.72,3.26-1.61,.56-3.25,1.3-4.84-.08,3.16-1.19,6.32-2.41,9.5-3.57,1.13-.41,2.3-.75,3.49-.95,3.2-.55,3.66-1.02,3.74-4.18,.01-.61,0-1.23,.01-1.84Z" fill="#6e5d28"/>
  <path d="M355.24,52.14c3.36,.28,6.61-.93,9.97-.73,.91,.05,1.31-.53,1.49-1.33,.85,.8,.49,1.83,.47,2.76-.03,1.3-.78,1.99-2.11,2.04-2.22,.08-4.43,.19-6.65,.25-2.73,.07-2.73,.06-3.16-2.99Z" fill="#3f378e"/>
  <path d="M183.7,31.98c-.97,1.87-3,2.45-4.56,3.59-.33,.24-.95,.4-1.35-.08-.4-.49-.07-.95,.26-1.26,3.3-3.11,5.65-7.1,9.39-9.79,1.27,1.23,.89,2.33-.16,3.49-1.21,1.33-2.73,2.41-3.58,4.06Z" fill="#3f378e"/>
  <path d="M222.33,166.37c3.35-.48,4.38-1.64,4.7-5.38,.08-.99-.11-2.02,.1-2.96,.19-.85,.85-1.52,1.91-1.44,1.06,.08,1.06,.82,1.01,1.6-.87,.08-.8,.74-.8,1.33-.02,1.22,.07,2.44-.03,3.65-.34,4.05-3.19,5.36-6.88,3.2Z" fill="#2d5c57"/>
  <path d="M125.83,165.61c3.44-.08,6.76,.98,10.25,.82,3.18-.15,6.34-.35,9.49-.73-.33,.96-.21,2.2-1.89,2.11-4.89-.29-9.81,.48-14.68-.64-1.24-.28-2.28-.69-3.17-1.55Z" fill="#6e5d28"/>
  <path d="M141.45,141.07q3.95-1.76,3.94-6.05c0-.74,0-1.48-.01-2.22,2.73,1.16,3.52,3.4,2.28,6.46-1.08,2.68-3.02,3.24-6.21,1.81Z" fill="#6e5d28"/>
  <path d="M161.11,164.81c-.82,1.47-2.21,.52-3.32,.76-1.37,.3-2.92-.59-4.15,.62-1.91-.47-3.74-1.07-4.93-2.79,3.83,.96,7.75,.6,11.64,.74,.26,0,.51,.44,.77,.67Z" fill="#3f378e"/>
  <path d="M219.56,144.71c-1.74,.13-1.64-1.41-2.19-2.37,.88-.12,1.43,.66,2.22,.79,1.23,.54-.2,1.05-.02,1.58Z" fill="#6e5d28"/>
  <path d="M170.08,140.96c-1.55-.04-2.33-.76-2.15-2.36,1.04,.05,1.74,.6,2.21,1.49-.02,.29-.04,.58-.05,.87Z" fill="#3f378e"/>
  <path d="M197.17,164.8c.73,.25,1.83-.44,2.17,.83-.83,.01-1.66-.01-2.17-.83Z" fill="#6e5d28"/>
  <path d="M130.42,159.57c-.63-.03-1.42,.2-1.47-.84,.66-.01,1.13,.3,1.47,.84Z" fill="#6e5d28"/>
  <path d="M164.3,137.08c-.64,.12-1.31,.34-1.7-.47,.66-.18,1.26-.16,1.7,.47Z" fill="#7074ba"/>
  <path d="M128.99,158.76c-.55,.05-.81-.2-.78-.75,.54-.04,.76,.26,.78,.75Z" fill="#6e5d28"/>
  <path d="M230.01,158.13c.44-.02,.71,.18,.77,.63-.5,.08-.68-.21-.77-.63Z" fill="#2d5c57"/>
  <path d="M171.71,141.67c-.52-.01-.8-.27-.83-.8,.46,.08,.69,.39,.83,.8Z" fill="#2d5c57"/>
  <path d="M97.13,21.55c.08,.26,.16,.51,.24,.77-.15-.16-.32-.31-.45-.49-.02-.03,.13-.18,.21-.28Z" fill="#3f378e"/>
  <path d="M170.08,140.96c.02-.29,.03-.58,.05-.87,.43,.11,.71,.36,.78,.82-.28,.02-.56,.04-.83,.05Z" fill="#2d5c57"/>
  <path d="M167.93,138.65c-.45,0-.73-.2-.82-.65,.44,.01,.77,.16,.82,.65Z" fill="#3f378e"/>
  <path d="M124.91,164.93c.51-.04,.84,.16,.93,.68-.44-.05-.75-.28-.93-.68Z" fill="#6e5d28"/>
  <path d="M157.33,137.27c-.14,.53-.31,.85-.67,.11,.21-.14,.43-.18,.67-.11Z" fill="#575c9f"/>
  <path d="M242.37,135.68c-.49,.04-.89-.07-1.04-.6,.51-.08,.79,.23,1.04,.6Z" fill="#2d5c57"/>
  <path d="M239.04,165.57c.41,.07,.68,.29,.8,.69-.41-.07-.66-.31-.8-.69Z" fill="#2d5c57"/>
  <path d="M179.7,46.25c-.37-.02-.75-.03-1.12-.06-.75-.07-1.59-.09-1.72-1.05-.1-.72,.5-1.01,1.05-1.34,1.6-.95,3.11-2.05,4.75-2.93,7.96-4.3,15.88-8.68,24.61-11.31,1.31-.4,3.26-1.3,3.73-.21,.59,1.37-1.4,2.31-2.51,3.23-.44,.37-1.26,.02-1.64,.68-.61,.1-1.25,.11-1.82,.32-8.89,3.34-17.42,7.4-25.34,12.66Z" fill="#3f378e"/>
  <path d="M139.25,43.11c.13-.46,.28-.88,.9-.7,.14,.8-.34,.8-.9,.7Z" fill="#3f378e"/>
  <path d="M232.32,37.08c-.87,.03-1.74,.09-2.61,.1-.95,0-1.04-.47-.48-1.09,.58-.64,1.2-1.28,1.89-1.81,6.7-5.22,13.92-9.47,22.24-11.63,.48-.12,.95-.26,1.44-.33,.96-.13,1.83,.14,2.12,1.1,.26,.86-.51,1.32-1.14,1.71-.52,.33-1.1,.58-1.65,.86-8.32,1.66-15.4,5.71-21.81,11.08Z" fill="#3f378e"/>
  <path d="M236.08,140.11c-.4-.05-.68-.26-.82-.64,.42,.03,.69,.24,.82,.64Z" fill="#2d5c57"/>
  <path d="M163.35,144.68c-5.33-1.1-8.34,2.05-9.6,5.48-1.22,3.33-.21,6.13,2.89,8.67-3.58-.12-5.06-1.58-5.29-5.04-.43-6.35,2.12-8.99,6.67-10.89,2.61-1.09,4.02-.58,5.32,1.78Z" fill="#2d5c57"/>
  <path d="M166.39,149.17c-.11-.44-.22-.87-.34-1.31,2.09-.91,2.64-.74,3.16,1.02,1.26,4.2-.5,9.25-4.26,11.64-1.45,.92-3.15,1.1-4.62-.23,.24-.24,.45-.58,.74-.71,4.21-1.92,5.91-5.21,5.38-9.72,.16-.13,.32-.25,.48-.38-.18-.11-.37-.21-.55-.32Z" fill="#7074ba"/>
  <path d="M173.06,151.35c.15,1.94-.09,3.77-1.47,5.28-1.32-1.65,.59-3.15,.27-4.79-.08-.41,.76-.39,1.2-.49Z" fill="#3f378e"/>
  <path d="M172.32,146.16c1.43,.73,.55,2.01,.73,3.04-1.78-.72-1.9-1.21-.73-3.04Z" fill="#3f378e"/>
  <path d="M166.36,162.59c-.39,1.08-1.13,1.59-2.3,1.47-.06-1.77,1.23-1.44,2.3-1.47Z" fill="#3f378e"/>
  <path d="M156.63,158.81c.23,0,.45,.05,.65,.16-.13,.14-.27,.29-.4,.43-.08-.2-.17-.39-.25-.59Z" fill="#2d5c57"/>
  <path d="M164.79,145.62c-.36-.3-.72-.59-1.07-.89,.62-.01,1.03,.21,1.07,.89Z" fill="#2d5c57"/>
  <path d="M205.31,158.26c1.34-.17,2.66-.28,3.93-.88,4.28-2.03,5.44-5.09,3.56-9.66,1.3-.18,.28-2.24,1.53-2.11,1.29,.14,1.97,1.3,2.43,2.51,.92,2.41,1.18,4.95-.25,7.07-2.49,3.68-5.66,6.55-10.68,5.91-.6-.08-1.39,.19-1.73-.38-.49-.84,.39-1.28,.83-1.84,.15-.19,.25-.42,.37-.63Z" fill="#f2c73b"/>
  <path d="M210.57,145.66c-1.45-.38-2.92-.57-4.41-.43-3.34,.31-5.79,1.84-7.09,5.07-1.28,3.16,.62,5.1,2.53,7.08-3.65-.65-5.51-3.96-4.35-7.74,1.38-4.5,8.37-7.39,12.58-5.19,.45,.24,.69,.69,.73,1.21Z" fill="#6e5d28"/>
  <path d="M195.74,159.57c-.06-.48-.12-.96-.18-1.45,.54,.05,1.27-.12,1.36,.66,.09,.83-.62,.76-1.18,.79Z" fill="#f2c73b"/>
  <path d="M201.58,157.35c.53,.12,1.13,.1,1.4,.71-.55-.07-1.2,.05-1.4-.71Z" fill="#6e5d28"/>
  <path d="M194.81,157.35c-.4-.05-.65-.26-.74-.66,.46-.02,.7,.21,.74,.66Z" fill="#79a643"/>
  <path d="M166.39,149.17c.18,.11,.37,.21,.55,.32-.16,.13-.32,.25-.48,.38-.1-.22-.13-.45-.07-.69Z" fill="#575c9f"/>
</svg>