<svg xmlns="http://www.w3.org/2000/svg" xml:space="preserve" baseProfile="tiny" viewBox="0 0 824.4 121.8"><path fill="#EA2C27" d="M184 0h34v11.9h-22.1v14.3H218v12.3h-22.1V64H184zM256.7 64h-11.6V54h-22.4L216 64h-13.6l44.9-64h9.4v64zm-11.6-22.1V23.3L231.4 42h13.7zM261.2 0h13.4l19 43 19.1-43h13.5v64h-11.9V31.7L299.5 64h-12.1l-14.2-32.3V64h-12zM549.2 0h13.4l18.9 43 19.1-43h13.6v64h-12V31.7L587.5 64h-12.1l-14.3-32.3V64h-11.9zM330 0h12.4v64H330zM345.8 0h12.4v52.3h16.1V64h-28.5zM360.5 0h13.8l13 26.2L399.9 0h13.6L393 40.7V64h-12V40.7zM480.8 17.7C475.4 7.3 464.5.2 452 .2c-17.9 0-32.5 14.6-32.5 32.5S434 65.2 452 65.2c12.6 0 23.5-7.2 28.9-17.6l-14.7.1c-3.6 3.3-8.5 5.4-13.8 5.4-11.3 0-20.4-9.1-20.4-20.4 0-11.3 9.1-20.4 20.4-20.4 5.3 0 10 2 13.7 5.3l14.7.1z"/><path fill="#EA2C27" d="M513 65.4c-18 0-32.7-14.6-32.7-32.7 0-18 14.6-32.7 32.7-32.7 18 0 32.7 14.6 32.7 32.7-.1 18.1-14.7 32.7-32.7 32.7zm20.7-32.7c0-11.4-9.3-20.7-20.7-20.7-11.4 0-20.7 9.3-20.7 20.7 0 11.4 9.3 20.7 20.7 20.7 11.5 0 20.7-9.3 20.7-20.7zM639.7 0C650.5.9 659 9.9 659 21s-8.5 20.1-19.3 21h-9.4v22h-12V0h21.4zm-9.4 12.3v17.4h9.4c4.1-.8 7.2-4.4 7.2-8.7 0-4.3-3.1-7.9-7.2-8.7h-9.4zM790.9 64.8H779V.6h25.9c10.8.9 19.3 9.9 19.3 21 0 9-5.7 16.7-13.7 19.7l13.8 23.6h-13L792 31.7h-1.1v33.1zM804.9 30.2c4.1-.8 7.2-4.4 7.2-8.7 0-4.3-3.1-7.9-7.2-8.7h-14v17.4h14zM674.7 37v9.4c.8 4.1 4.4 7.2 8.7 7.2 4.3 0 7.9-3.1 8.7-7.2V.6h12.3v45.8c-.9 10.8-9.9 19.3-21 19.3s-20.1-8.5-21-19.3V.6h12.3V37zM716.6 64.8h12.1V12.7h10.9V.6h-33.5v12.1h10.5zM775.9 64.8h-33.3V.6h33.3v11.7h-21.4v15.3h21.4v12h-21.4V53h21.4zM184 74.2v6.2h627.4l13-6.2z"/><g fill="#EA2C27"><path d="M223.9 89c0 7.3 1.2 16.8-3 23.4-1.9 3.6-5.6 5.5-9.1 7.1h-23.5v-7.4h20.5c3.6-.5 6.7-3.7 7.9-7.2.6-2.3.7-4.8.7-7.2h-33.1V89h39.6zM305.8 112.2c5.8-.1 11.9.1 17.8 0 2.9-.1 5.3-2.5 6.9-4.8 1.6-1.9 2-4.1 2.2-6.8.1-3.9 0-7.7.1-11.6h5.6v15.6c0 4.1-1.4 7.3-4.1 10.3-.9 1.4-3.3 3-5.3 3.9-1.5.4-3.1.8-4.7.7h-18.6l.1-7.3zM593 98.4c-1.3 4.7-4.9 9.9-10.3 9.9v-8.7c1.5-.7 3.2-1.5 4.1-2.9 1.1-2.1 1.1-4.8 1-7.6 11.1-.1 22.5 0 33.6 0v19.8c0 6.9-7.7 10.7-9.5 10.7-8.8-.1-17.7 0-26.5 0v-7.4c6.3-.1 15.4 0 21.7 0 2.9 0 6-1 6.9-2.4l-20.2.1.1-8.6h21c.2-3.2-2-2.7-3.9-2.9h-18zM225.6 119.5v-7.3l11.4-.1c1.6 0 1.5-3.8 1.5-6.4h13c0-1.2-1.4-1.9-3.4-1.9h-22.6v-7.9h32.1c-.1 4.7.4 10.9-1.5 14.2-2.6 3.7-9.7 2.5-12.2 2.9 0 3-2.1 6.4-4.3 6.4h-14z"/></g><path fill="#EA2C27" d="m259.3 97.3 38.8 4.3v-8l-38.8-4.2zM259.3 106.2l38.8 4.2v-8l-38.8-4.2zM259.3 115.3l38.8 4.2v-7.9l-38.8-4.3zM299.9 89h7v19.5h-7zM340.8 100.7h37.4v7.7h-37.4zM431.2 89h-37.9v8.8h31.4v14.3h-32.5v7.4h39zM433.6 112.2c5.8-.1 18.5.1 24.3 0 2.9-.1 5.3-2.5 6.9-4.8 1.6-1.9 2-4.1 2.2-6.8.1-3.9 0-7.7.1-11.6h5.6v15.6c0 4.1-1.4 7.3-4.1 10.3-.9 1.4-3.3 3-5.3 3.9-1.5.4-3.1.8-4.7.7h-25.1l.1-7.3z"/><path fill="#EA2C27" d="M433.7 89h22.8v8.6h-22.8zM480.5 105.7h33.2c.1-2.1 0-4.4 0-6.4h-4.1c1.6-.8 2.8-2.5 2.8-4.5 0-2.8-2.3-5.1-5.1-5.1s-5.1 2.3-5.1 5.1c0 2 1.1 3.7 2.8 4.5h-2.3c-.8 0-.7-2.2-2.3-2.2h-20v-8h-5.7c0 7.4-.1 15.4 0 22.8 0 3.3 2.9 7.3 5.3 7.7h33.6v-7.4l-29.7-.1c-2.6-.6-3.4-3.9-3.4-6.4zm26.9-13.6c1.5 0 2.7 1.2 2.7 2.7s-1.2 2.7-2.7 2.7-2.7-1.2-2.7-2.7 1.3-2.7 2.7-2.7zM540.8 97.1h-22.7v8h17v7.1h-19.9v7.3h31.9v-7.3h-6.3z"/><path fill="#EA2C27" d="M543.2 100.7h37.4v7.7h-37.4z"/><circle cx="76.4" cy="15.6" r="16.2" stroke="#000"/><path stroke="#000" stroke-width=".638" d="M53.5 12.2c.2-.7.3-1.5.3-2.3 0-5.7-4.6-10.3-10.3-10.3-4.6 0-8.5 3-9.8 7.1L.7 108c-.5 1-.7 2.2-.7 3.5 0 5.7 4.6 10.3 10.3 10.3 4.6 0 8.5-3 9.8-7.1L53.5 12.2z"/><circle cx="64" cy="53.5" r="16.2" stroke="#000"/><circle cx="147.7" cy="15.6" r="16.2" stroke="#000"/><path stroke="#000" stroke-width=".638" d="M124.8 12.2c.2-.7.3-1.5.3-2.3 0-5.7-4.6-10.3-10.3-10.3-4.6 0-8.5 3-9.8 7.1L72 108c-.4 1.1-.6 2.3-.6 3.5 0 5.7 4.6 10.3 10.3 10.3 4.6 0 8.5-3 9.8-7.1l33.3-102.5z"/><circle cx="135.3" cy="53.5" r="16.2" stroke="#000"/></svg>