<svg xmlns="http://www.w3.org/2000/svg" xml:space="preserve" width="360" height="89" viewBox="57.1 352 360 89"><path d="m114.1 352 18.6 89 18.5-89h-10l-8.5 50-8.6-50zM155.2 352h10v89h-10zM174.2 352v89h10v-46l13.9 46h9.2l-11.1-42.1c6.2-3.7 8-8.6 8-8.6V362c-4.1-9.1-11.2-10.1-11.2-10.1Zm10 9h10v30.9h-10zM207.3 352h29.9v9h-10v80h-10v-80h-9.9zM292.5 352l-19.3 88.9v.1h9.9l2.1-12h14l2 12h10zm0 38.3 4.6 30.7h-9.9zM315.2 352h10v80h14.9v9h-24.9zM422.1 352h9.1l9.3 38.4L449 352h10.1l-14 52.4v36.7h-10v-36.7zM404.2 352c-11.4 0-15 10.1-15 10.1.1.1 0 66.9 0 68.8 1.5 10.8 15 10.1 15 10.1 15 0 15-10.1 15-10.1v-68.8c-3.9-10.6-15-10.1-15-10.1zm-5.1 10.1h10V432h-10zM241.1 352h10.1v78.9h10.1V352h9.9v78.9S268 441 256.6 441c-11.4 0-15.5-10.1-15.5-10.1zM351.2 352v89h20.1c9.3-2.4 9.9-9.1 9.9-9.1V402c-.7-3.9-3.9-4-3.9-4v-1.9c3.5-.3 3.9-4.1 3.9-4.1v-29.9c-1.5-7.3-9.9-10.1-9.9-10.1zm10 10.1h10.1v29.8h-10.1zm0 38.9h10.1v30.9h-10.1zM451.2 431.9h7v1h-3v8h-1v-8h-3zM459.1 441v-9h1l3.6 8.1 3.4-8.1h1v9h-1v-7l-3 7h-1l-3-7v7z" style="fill:#fe0016" transform="translate(-54)"/></svg>