<svg xmlns="http://www.w3.org/2000/svg" xml:space="preserve" width="566.93" height="124.23"><path fill="none" d="m29.248 99.123-1.128-.841"/><linearGradient id="a" x1="24.415" x2="104.743" y1="564.872" y2="551.509" gradientTransform="translate(-.005 -473.426)" gradientUnits="userSpaceOnUse"><stop offset=".037" style="stop-color:#fff"/><stop offset=".896" style="stop-color:#898cbf"/></linearGradient><path fill="url(#a)" d="M89.451 62.438v20.17l-35.752 20.616-35.477-20.616-1.594 1.083 37.071 21.736 37.366-21.603V61.505z"/><path fill="#7A7EAE" d="m89.451 82.52 1.614 1.165v.139l-.102.076-1.655-1.21.143-.082z"/><linearGradient id="b" x1="28.461" x2="54.049" y1="68.837" y2="68.837" gradientTransform="matrix(1 0 0 -1 -.045 123.99)" gradientUnits="userSpaceOnUse"><stop offset="0" style="stop-color:#6e70a9"/><stop offset=".969" style="stop-color:#514a8e"/></linearGradient><path fill="url(#b)" d="m54.004 62.205-25.19-14.75-.398.398 25.283 14.998z"/><linearGradient id="c" x1="53.857" x2="54.185" y1="61.681" y2="61.681" gradientTransform="matrix(1 0 0 -1 -.045 123.99)" gradientUnits="userSpaceOnUse"><stop offset="0" style="stop-color:#6e70a9"/><stop offset=".969" style="stop-color:#514a8e"/></linearGradient><path fill="url(#c)" d="M53.922 62.205h.185l.033.208h-.327z"/><path fill="#120F22" d="M54.004 62.851v-.646l53.623-30.999.158.441z"/><path fill="#453D76" d="m54.004 124.23.359-18.501L91.582 84.28l.138-22.968h-.655v22.512l-37.366 21.603-.134 18.803z"/><linearGradient id="d" x1="64.085" x2="108.726" y1="540.326" y2="569.631" gradientTransform="translate(-.005 -473.426)" gradientUnits="userSpaceOnUse"><stop offset="0" style="stop-color:#4c5284"/><stop offset="1" style="stop-color:#8789bc"/></linearGradient><path fill="url(#d)" d="M54.004 91.212V62.851l53.781-31.204v61.55L54.004 124.23v-18.657l37.357-21.511v-22.73L78.85 68.566v8.029z"/><linearGradient id="e" x1="53.464" x2="53.153" y1="596.999" y2="577.096" gradientTransform="translate(-.005 -473.426)" gradientUnits="userSpaceOnUse"><stop offset=".11" style="stop-color:#4c407e"/><stop offset=".89" style="stop-color:#669"/><stop offset="1" style="stop-color:#a7b3d9"/><stop offset="1" style="stop-color:#9ba5cd"/></linearGradient><path fill="url(#e)" d="M53.402 124.23h.297v-18.803l-1.057-.621.76 19.424"/><path fill="#2D2868" d="m16.542 40.703.229.194.091 42.635-.234.159-.142-.09.056-42.898"/><path fill="#453D76" d="m18.222 82.608-1.594 1.083V40.755l37.376-21.581V21.3L18.26 41.987zM54.004 62.094v29.118l-.305.205V62.028z"/><linearGradient id="f" x1="4.824" x2="66.026" y1="553.133" y2="536.124" gradientTransform="translate(-.005 -473.426)" gradientUnits="userSpaceOnUse"><stop offset=".233" style="stop-color:#669"/><stop offset=".724" style="stop-color:#a7b3d9"/></linearGradient><path fill="url(#f)" d="M28.416 47.853v28.949l25.283 14.615V62.851z"/><linearGradient id="g" x1="5.882" x2="67.08" y1="556.931" y2="539.923" gradientTransform="translate(-.005 -473.426)" gradientUnits="userSpaceOnUse"><stop offset=".233" style="stop-color:#669"/><stop offset=".991" style="stop-color:#a7b3d9"/></linearGradient><path fill="url(#g)" d="M53.402 123.926v-18.675l-36.774-21.56V40.964L0 31.206v62.096l53.402 30.928z"/><g fill="#2D2868"><path d="M16.343 40.755h.285v42.938h-.285z"/><path d="M16.628 40.755.214 30.992 0 31.206l16.486 9.691z"/></g><linearGradient id="h" x1="19.586" x2="43.921" y1="559.814" y2="572.836" gradientTransform="translate(-.005 -473.426)" gradientUnits="userSpaceOnUse"><stop offset="0" style="stop-color:#6e70a9"/><stop offset=".969" style="stop-color:#514a8e"/></linearGradient><path fill="url(#h)" d="M53.402 105.251v.352L16.343 84.015v-.324h.285z"/><linearGradient id="i" x1="55.735" x2="71.185" y1="495.654" y2="503.171" gradientTransform="translate(-.005 -473.426)" gradientUnits="userSpaceOnUse"><stop offset=".037" style="stop-color:#9ea5d3"/><stop offset=".902" style="stop-color:#7675ae"/></linearGradient><path fill="url(#i)" d="m54.004 19.174 23.897 13.968v2.089L54.004 21.3z"/><path fill="#484592" d="M77.901 33.142v2.089l16.553-9.707v-1.972z"/><linearGradient id="j" x1=".219" x2=".219" y1="504.418" y2="504.418" gradientTransform="translate(-.005 -473.426)" gradientUnits="userSpaceOnUse"><stop offset=".233" style="stop-color:#669"/><stop offset=".991" style="stop-color:#a7b3d9"/></linearGradient><linearGradient id="k" x1="49.386" x2="45.741" y1="477.947" y2="518.442" gradientTransform="translate(-.005 -473.426)" gradientUnits="userSpaceOnUse"><stop offset="0" style="stop-color:#aaacd2"/><stop offset=".626" style="stop-color:#fcfafb"/></linearGradient><path fill="url(#k)" d="m53.833 0 40.621 23.552-16.553 9.59-23.897-13.968-37.376 21.581L.214 30.992z"/><linearGradient id="l" x1="71.78" x2="68.135" y1="473.265" y2="513.761" gradientTransform="translate(-.005 -473.426)" gradientUnits="userSpaceOnUse"><stop offset=".674" style="stop-color:#aaacd2"/><stop offset="1" style="stop-color:#fcfafb"/></linearGradient><path fill="url(#l)" d="M28.814 47.455 53.68 33.409l23.689 13.372 28.863-16.589 1.395 1.014-53.623 30.999z"/><path d="M373.52 21.158v-4.949h-14.143c-1.816 0-3.533.404-5.054 1.11-1.513.71-2.726 1.718-3.634 2.932-.908 1.209-1.314 2.529-1.416 4.04v15.252c.1 1.417.508 2.729 1.313 3.944.912 1.21 2.121 2.116 3.537 2.924 1.516.71 3.127 1.115 5.053 1.115h14.34v-4.949h-13.739a5.319 5.319 0 0 1-3.022-.911c-.815-.604-1.318-1.312-1.318-2.319V33.69h18.082v-5.053h-18.082v-4.142c0-1.013.503-1.817 1.318-2.427a5.31 5.31 0 0 1 3.022-.91h13.739M457.952 16.21v31.317h15.102c1.916-.098 3.625-.405 5.139-1.107 1.609-.804 2.818-1.712 3.723-2.921.908-1.203 1.307-2.615 1.408-4.127V24.266c-.102-1.507-.5-2.821-1.408-4.028-.904-1.208-2.111-2.213-3.723-2.921-1.514-.705-3.225-1.107-5.139-1.107h-15.102zm17.826 5.842c.898.604 1.303 1.407 1.404 2.418v14.803c-.104 1.006-.506 1.812-1.404 2.416-.809.703-1.82 1.005-2.928 1.005h-8.758V21.046h8.758c1.108 0 2.119.301 2.928 1.006M531.958 17.302c-1.488-.692-3.172-.993-5.053-1.093h-5.453c-1.885.099-3.566.4-5.057 1.093-1.584.794-2.775 1.68-3.666 2.874-.895 1.186-1.389 2.576-1.389 4.063v15.359c0 1.486.494 2.777 1.389 3.967.891 1.19 2.082 2.179 3.666 2.874 1.49.693 3.172 1.089 5.057 1.089h5.453c1.881 0 3.563-.396 5.053-1.089 1.584-.694 2.773-1.684 3.666-2.874.893-1.191 1.387-2.577 1.387-3.967v-15.36c-.096-1.487-.494-2.877-1.387-4.063-.893-1.194-2.082-2.08-3.666-2.873zm-2.379 4.656c.891.694 1.387 1.484 1.387 2.382v15.059c0 .892-.496 1.686-1.387 2.379-.793.597-1.787.994-2.873.994h-5.055c-1.094 0-2.084-.396-2.977-.994-.789-.694-1.285-1.487-1.285-2.379V24.34c0-.897.496-1.688 1.285-2.382.893-.596 1.883-.893 2.977-.992h5.055c1.087.101 2.08.397 2.873.992M169.301 16.21h-6.163v20.003L152.634 16.21h-8.385v31.317h6.163V23.083l12.828 24.444h6.061V16.21M269.711 16.21h-6.163v20.003L253.043 16.21h-8.385v31.317h6.163V23.083l12.828 24.444h6.062V16.21M428.299 16.21h-6.162v20.003L411.633 16.21h-8.387v31.317h6.163V23.083l12.828 24.444h6.062V16.21M210.526 47.527V16.21h-7.07v31.317h7.07M296.922 16.21v4.949h10.401v26.369h6.671v-26.37h10.504v-4.949H296.92M543.92 69.03v-8.463h-42.717v40.229h43.113v-9.062h-31.855v-7.57h18.316v-8.457h-18.316V69.03h31.459M496.374 68.755c.096-2.785-.697-4.977-2.393-6.274-1.596-1.394-4.08-2.09-7.467-2.09h-35.148v40.325h32.658c8.563-.099 12.744-2.887 12.744-8.562v-4.883c0-3.382-1.492-5.87-4.582-7.262 2.789-1.298 4.188-3.487 4.188-6.576v-4.678zm-10.854.2c.398.399.602.8.496 1.396v3.685c.104.495-.098.995-.496 1.293l-2.795.495h-20.107v-7.266h20.107c1.502 0 2.496.199 2.795.397zm-22.902 22.9v-7.867h20.211c1.496 0 2.393.201 2.889.5.402.401.596.998.596 1.993v2.886c0 .897-.191 1.594-.596 1.891-.496.4-1.393.597-2.889.597h-20.211M446.614 60.458h-11.25v31.167h-24.396V60.458H399.72v30.271c-.106 2.486.295 4.484.99 5.975.6 1.395 1.797 2.49 3.389 3.089 1.597.695 3.684.993 6.47.896h25.093c2.789.097 4.977-.201 6.57-.896 1.59-.599 2.689-1.694 3.389-3.089.695-1.491.996-3.487.996-5.975V60.458M394.09 64.607c-.705-1.489-1.896-2.488-3.388-3.186-1.596-.602-3.784-.898-6.473-.898h-24.591c-2.789 0-4.881.298-6.478.898-1.591.697-2.786 1.696-3.382 3.186-.697 1.494-1.096 3.484-.993 5.974v20.214c-.103 2.484.296 4.48.993 5.971.596 1.396 1.791 2.491 3.382 3.093 1.597.693 3.688.991 6.478.893h24.592c2.688.098 4.877-.199 6.473-.893a6.48 6.48 0 0 0 3.387-3.093c.597-1.489.996-3.485.996-5.971v-7.371l-11.256.105v8.162h-23.893V69.39h23.893v7.165h11.256v-5.974c0-2.585-.399-4.574-.996-5.974M340.461 69.03v-8.463h-42.718v40.229h43.116v-9.062h-31.861v-7.57h18.321v-8.457h-18.321V69.03h31.463M282.411 60.458l-17.127 28.48-17.025-28.48h-10.254v33.159l-20.016-33.159h-10.056l-23.994 40.228h30.068v-9.061h-13.442l12.447-20.013 16.828 29.072h18.519V79.179l12.842 21.505h8.266l12.942-21.505v21.505h10.354V60.457h-10.354M184.83 69.307v-8.77h-37.938c-2.685 0-4.879.3-6.474.899-1.59.696-2.686 1.698-3.381 3.187-.7 1.493-.998 3.483-.998 5.975v20.21c0 2.486.298 4.483.998 5.975.696 1.395 1.792 2.49 3.381 3.091 1.594.692 3.789.991 6.474.895h27.584c3.978.097 6.768-.599 8.458-2.091 1.595-1.595 2.391-4.183 2.294-7.868V76.57H159.14v8.47h15.135v6.667H147.29v-22.4h37.54M566.93 91.979h-1.693l-2.041 6.45c-.334.513-.51 1.024-.51 1.362a7.701 7.701 0 0 1-.512-1.188l-2.211-6.626h-1.699v9.17h1.027v-7.813l2.717 7.813h1.012l2.721-7.642v7.642h1.189v-9.168M554.016 93.167h2.893v-1.188h-7.139v1.188h3.063v7.982h1.186v-7.982"/></svg>