<svg xmlns="http://www.w3.org/2000/svg" width="800" height="176.364"><path d="M37.76.584C20.191 3.724 6.056 16.724 1.6 33.814-.009 39.984-.118 43.6.064 91.472c.11 43.965.146 44.988.877 48.384 4.054 18.294 17.058 31.33 35.54 35.64 2.41.547 5.479.657 25.24.766 20.454.146 22.573.11 23.12-.438.548-.548.585-7.595.585-87.492 0-59.229-.11-87.127-.365-87.638-.366-.657-.987-.694-22.39-.657-17.387.036-22.61.146-24.912.547zm33.056 87.638v73.982l-14.866-.183c-13.697-.146-15.158-.22-17.897-.913-11.762-3.03-20.492-12.087-22.939-23.881-.803-3.688-.803-94.54-.036-98.155 2.191-10.261 9.314-18.77 18.92-22.603 4.822-1.936 7.05-2.155 22.683-2.191l14.135-.037z" style="fill:#65bade;fill-opacity:1;stroke:none;stroke-width:.03652103"/><path d="M40.902 36.552c-2.302.439-5.808 2.191-7.67 3.835-3.836 3.323-5.736 8.033-5.443 13.583.146 2.885.328 3.652 1.497 5.99 1.717 3.541 4.31 6.134 7.853 7.887 2.448 1.205 3.069 1.35 6.246 1.46 2.886.11 3.909 0 5.845-.657 7.926-2.666 12.71-10.37 11.36-18.258-1.571-9.385-10.484-15.665-19.688-13.84z" style="fill:#65bade;fill-opacity:1;stroke:none;stroke-width:.03652103"/><path d="M103.215.256c-.146.11-.255 39.692-.255 87.966 0 79.642.036 87.712.584 87.93.986.366 29.33.22 32.837-.145 14.83-1.68 27.906-10.7 35.029-24.1.913-1.717 2.118-4.602 2.739-6.391 2.301-6.865 2.228-5.04 2.228-57.513 0-41.883-.073-48.128-.584-50.793-3.616-19.025-18.117-33.376-37.184-36.662C136.052.11 132.107 0 119.396 0c-8.766 0-16.071.11-16.18.256Zm39.01 79.531c5.698 1.497 10.374 5.843 12.273 11.393 1.205 3.433 1.169 8.472-.037 11.612-2.228 5.77-6.61 9.823-12.236 11.32-9.131 2.374-18.847-3.14-21.514-12.196-.803-2.775-.767-7.45.146-10.298 2.74-8.946 12.237-14.204 21.368-11.83z" style="fill:#da4a4b;fill-opacity:1;stroke:none;stroke-width:.03652103"/><path d="M1657.063 183.105c-20.669 6.8-32.936 26.666-29.47 48.266 2.134 13.867 10.135 24.8 22.402 31.067 16.668 8.267 34.403 6.133 47.737-5.867 10.001-9.066 14.268-18.533 14.268-32 0-12.666-3.734-22.133-12.134-30.533-10.534-10.533-29.47-15.333-42.803-10.933zm23.601 19.466c8 4.134 12.401 10.8 13.068 19.867.8 11.867-4.267 20.4-14.801 24.8-17.868 7.467-38.136-9.733-33.07-28.267 2.134-8.266 5.735-12.933 12.402-16.266 7.2-3.467 15.6-3.6 22.401-.134zM763.262 224.571v40.8l8.401-.4 8.267-.4.667-25.733.667-25.733 19.334 26 19.335 26.133 8-.267 8.001-.4v-80l-8.267-.4-8.4-.4v52.667l-19.602-26.267-19.735-26.266h-16.667zM896.606 224.571v40.667h17.334v-81.333h-17.334zM974.611 185.638c-.4.933-.533 19.067-.4 40.267l.4 38.666 8.401.4 8.267.4v-54l20.002 26.934 20.001 26.933H1047.283v-81.333h-17.334l-.267 25.6-.4 25.6-19.201-25.6-19.068-25.6h-7.868c-5.2 0-8.133.533-8.534 1.733zM1104.221 184.838c-.533.4-.933 4.4-.933 8.667v7.733h26.668v64h17.335v-64h25.335v-17.333h-33.735c-18.669 0-34.27.4-34.67.933zM1231.297 224.571v40.667h62.672v-16h-46.67v-18.667h42.669v-14.666H1247.3v-16l23.068-.267 22.935-.4.4-7.733.4-7.6h-62.805zM1359.974 185.638c-.4.933-.534 19.067-.4 40.267l.4 38.666 8.4.4 8.268.4v-54l20.001 26.934 20.001 26.933H1432.646v-81.333h-17.334l-.267 25.6-.4 25.6-19.201-25.6-19.068-25.6h-7.867c-5.2 0-8.134.533-8.534 1.733zM1500.65 224.438v40.8h17.736c20.534 0 30.269-2 39.07-8.133 26.001-17.867 22-56.134-7.201-69.6-5.467-2.534-9.201-2.934-27.87-3.334l-21.734-.533zm43.604-20.667c11.2 5.2 16.001 19.467 10.4 31.334-4.266 8.8-12.933 12.8-28.134 12.8h-9.868v-46.667h11.068c7.867 0 12.534.8 16.534 2.533zM1460.381 301.371c-18.535 2.4-35.07 11.067-48.67 25.6-29.736 32-28.802 80.667 2.267 111.6 11.467 11.6 21.868 17.6 36.803 21.334 24.535 6.266 49.337 1.333 69.605-14 7.867-5.867 18.134-17.334 17.334-19.334-.266-.533-5.734-5.466-12.267-11.2l-11.734-10.266-3.6 4.666c-17.202 22.534-52.005 24.934-72.14 4.8-2.933-2.933-6.933-8.4-8.934-12.266-3.333-6.4-3.733-8.4-3.733-20.4 0-11.467.4-14.267 3.334-20 9.867-20.4 34.269-31.467 55.47-25.334 9.868 2.8 19.202 8.667 25.069 15.734l4.534 5.466 5.867-4.8c3.2-2.533 8.8-7.466 12.4-10.666l6.668-6-5.2-6.4c-17.335-21.067-45.337-32-73.073-28.534zM800.865 306.571c-31.736 8.4-48.137 29.6-41.07 53.6 5.067 17.734 21.869 26.4 66.539 34.4 30.002 5.334 38.803 9.734 38.803 19.2 0 6.534-3.867 11.334-12.268 15.2-7.2 3.334-8.8 3.6-26.935 3.6-21.469 0-29.87-1.733-45.737-8.933-4.934-2.267-9.2-3.867-9.467-3.6-1.6 2-14.268 25.6-13.868 25.867 1.333 1.466 22.668 9.2 31.469 11.6 14.668 3.866 46.003 4.8 62.005 1.866 29.868-5.6 44.67-19.333 46.003-42.4 1.067-19.066-4.267-28.933-20.668-37.466-11.734-6.134-21.869-9.067-47.737-14.267-22.535-4.4-28.936-6.533-33.603-10.933-4.133-3.867-4.133-10.8.134-15.067 9.6-9.6 44.003-10 70.672-.667 4.4 1.467 8.4 2.267 8.934 1.734.933-1.067 10.534-23.6 10.534-24.934 0-1.2-20.402-7.2-31.87-9.333-15.467-2.933-39.469-2.667-51.87.533zM914.474 307.505c.4 1.333 9.734 34.533 20.801 73.733 11.068 39.2 20.402 72.4 20.802 73.6.666 2.133 2.8 2.4 19.201 2.4h18.535l1.467-5.067c13.2-47.733 26.535-92.533 27.202-90.933.4 1.067 6.667 22.933 13.867 48.667l13.068 46.666 18.668.4 18.668.4 21.202-74.4c11.6-40.933 21.335-75.2 21.735-76.133.4-1.2-3.334-1.6-16.268-1.6h-16.668l-1.867 6.267c-1.067 3.6-7.467 27.6-14.268 53.333-6.933 25.867-12.8 47.067-13.334 47.067-.4 0-6.667-20.267-13.868-45.067-7.2-24.667-14.267-48.667-15.734-53.333l-2.534-8.4-13.6.4-13.602.4-15.6 53.333c-8.535 29.333-15.602 53.6-15.735 54-.134.4-6.134-21.2-13.201-48-7.2-26.8-13.868-51.2-14.668-54.4l-1.6-5.6h-16.668c-15.335 0-16.668.133-16.001 2.267zM1167.293 381.238v76h34.669l-.267-75.733-.4-75.6-16.935-.4-17.067-.4zM1237.965 321.905v16.666h48.003v118.667h33.336V338.571l23.735-.266 23.602-.4v-32l-64.272-.4-64.405-.267zM1572.656 381.238v76H1604.658v-60h70.673v60H1707.333l-.267-75.733-.4-75.6-15.6-.4-15.735-.4V365.238h-70.672v-60H1572.657z" style="fill:#000;stroke:none;stroke-width:.13333833" transform="matrix(.62746 0 0 .62746 -274.21 -113.868)"/></svg>