<svg xmlns="http://www.w3.org/2000/svg" xml:space="preserve" width="566.929" height="180.921"><path d="M459.742 80.08 368.58 180.919H152.56l-3.645-3.502c-10.231-9.832-20.466-19.658-30.696-29.488l-55.65-53.467-51.698-49.66c-2.467-2.349-5.214-4.938-7.26-7.592-8.29-10.674-1.57-24.727 12.654-24.727H65.83c1.796 0 3.448-.087 5.262.095a21.076 21.076 0 0 1 7.616 2.27c2.498-1.48 5.583-2.356 9.138-2.356h42.453c.71 0 1.43-.044 2.14-.065 4.686-.141 8.612.658 11.97 2.236 2.363-1.373 5.314-2.171 8.807-2.171H174.726l.601.055c2.107.197 4.105.76 5.877 1.659 2.256-1.104 4.912-1.714 7.793-1.714h14.313c4.543 0 8.127-.226 12.393 1.945.155.082.31.163.462.246 2.474-1.391 5.47-2.19 8.944-2.19h50.808c4.86 0 8.973.018 13.168 2.527 2.854-1.607 6.174-2.527 9.783-2.527h48.506c4.739 0 8.931.083 12.791 2.476 3.084-1.576 6.545-2.476 10.164-2.476h51.211c4.73 0 9.131.099 12.885 2.4a19.083 19.083 0 0 1 3.676-1.506c3.662-1.076 6.828-.894 10.543-.894h17.324c3.109 0 6.047.54 8.525 1.922 2.035-1.069 4.338-1.681 6.748-1.88l.525-.042h23.484c2.117 0 4.182.325 6.076.99.303-1.388.842-2.8 1.639-4.201l.627-1.101.855-.952c3.645-4.074 7.551-7.497 13.525-7.212h18.275c5.055 0 10.082.985 14.082 4.167 8.479 6.744 8.229 18.327 2.4 26.538-2.273 3.198-5.67 5.797-9.486 7.535-.521 2.596-1.932 5.157-4.363 7.332-1.414 1.268-2.793 2.578-4.186 3.876-3.834 3.586-7.342 4.235-12.357 4.235h-23.924c-2.842 0-5.465-.329-7.906-1.431L483.14 69.874c-5.754 5.885-12.205 10.149-20.977 10.207l-.09.001c-.775-.002-1.554-.002-2.331-.002"/><path fill="#F57E25" d="M82.539 36.625C73.353 24.2 71.162 25.472 65.829 25.472H16.265c-3.994 0-4.882 2.99-2.669 5.963 1.245 1.688 3.922 4.414 6.061 6.54l51.718 51.871h50.978a5966.673 5966.673 0 0 1-39.814-53.221zm7.412 40.505c-1.556.023-4.109.079-5.639.055-1.736-.028-2.228-.421-3.307-1.621L57.359 49.249c-1.063-1.184-.938-2.53 1.025-2.532l7.278-.007c.98-.001 1.451.099 3.262 2.289l21.288 25.729c1.204 1.454.403 2.395-.261 2.402zM87.845 25.479h42.453c5.327 0 10.485-1.854 16.696 11.139l25.448 53.229H127.41l-23.684-32.743c-.976-1.35-1.107-1.527-1.712-2.553-.528-.894.136-1.907 1.549-1.995l17.248-.165c2.824.051 3.818.084 5.401 2.714 4.537 6.723 8.598 13.684 13.135 20.408.901 1.666 2.217 1.735 4.94 1.768 3.145.038 5.026-.345 3.094-3.572L132.46 48.785c-2.243-3.747-8.857-3.116-9.838-3.116h-22.301c-2.63 0-4.637.158-6.288-2.005l-8.877-12.236c-2.167-2.99-1.307-5.949 2.689-5.949zM153.214 25.479h20.907c1.08.105 1.691.444 1.833 1.021 3.115 7.735 5.468 15.47 8.585 23.205.578 1.492 1.098 2.161 1.913 2.007 1.733.011 3.168.022 4.902.035 1.584-.063 2.022-.951 1.492-2.662-2.021-7.354-4.26-14.269-6.282-21.624-.543-1.814.561-1.984 2.433-1.984h14.314c7.166 0 8.325-1.046 10.993 11.139 2.106 9.618 4.035 19.238 6.141 28.858.498 3.184-.794 5.764-4.306 5.67l-6.695-.023 5.114 18.725H189.76l-7.53-18.679-7.309.004c-4.363-.032-6.525-2.871-8.329-6.739l-15.685-33.004c-1.424-2.998-1.688-5.949 2.307-5.949zM225.108 25.479h50.807c5.327 0 9.167-.538 8.528 7.315l-.589 7.269c-.098 1.19-.203 2.255-.51 3.381-.67 2.458-2.959 2.829-5.507 2.868h-28.796c-1.307 0-1.741.074-1.745.97l-.026 4.467c-.006 1.014.705.878 2.325.878h22.025c1.612 0 3.183-.076 4.766.304 2.953.708 4.545 2.445 5.364 4.669.681 1.854.402 3.382.245 5.316l-2.188 26.93h-49.454l-1.566-8.994c-.273-1.565.208-2.545 2.109-2.545h26.066c4.525-.654 4.675-3.78 4.218-7.263h-27.814c-2.85.129-4.684-.744-5.905-2.153-1.131-1.303-1.198-2.506-1.483-4.15l-5.47-31.406c-.804-4.612.606-7.856 4.6-7.856zM298.869 25.479h48.506c5.188 0 9.025-.526 6.508 7.123l-2.553 7.743c-.387 1.16-.752 2.195-1.326 3.292-1.254 2.393-3.571 2.754-6.063 2.792h-25.66c-1.271 0-1.705.072-1.938.944l-1.313 4.92c-.261.986.474.855 2.05.855h19.067c1.567 0 3.115-.072 4.563.296 2.697.689 3.826 2.38 4.076 4.546.207 1.805-.438 3.293-1.064 5.175l-9.508 26.68h-47.4l1.032-8.678c.12-1.524.823-2.479 2.68-2.478h19.616c4.563-.638 5.479-3.682 5.889-7.072h-17.722c-6.374.284-9.358-3.927-8.944-9.532l2.133-28.96c.332-4.488 3.482-7.649 7.371-7.649h.002v.003h-.002zM370.328 25.479h51.211c5.477 0 9.674-.526 4.943 7.123l-4.791 7.743c-.723 1.16-1.389 2.195-2.291 3.292-1.977 2.393-4.523 2.754-7.162 2.792h-20.459c-1.344 0-3.1-.127-3.061.629l.205 4.084c.043.858.929 1.521 2.595 1.521h11.157l7.805.053c1.717.012 2.43 1.576 1.621 2.928l-3.092 5.176-7.245 11.194c-.306.016-.612.025-.921.029h-21.869c-1.396 0-3.229-.127-3.174.844l.212 3.869c.05.857.964 1.521 2.69 1.521h12.219l6.76.045-7.457 11.522h-49.66c4.773-12.022 4.592-12.785 19.908-56.718 1.565-4.486 5.749-7.647 9.856-7.647zM505.251 25.479h-22.955c-1.229.105-2.047.444-2.443 1.021-6.693 7.735-12.553 15.47-19.244 23.205-1.268 1.492-2.121 2.161-2.949 2.007-1.91.011-3.488.022-5.398.035-1.711-.063-1.813-.951-.51-2.662 5.332-7.354 10.717-14.269 16.047-21.624 1.363-1.814.229-1.984-1.83-1.984h-17.324c-7.861 0-8.691-1.046-16.779 11.139-6.381 9.618-12.57 19.238-18.953 28.858-1.896 3.184-1.568 5.764 2.326 5.67l8.969-.023-13.539 18.725h27.225l16.172-18.679 8.023.004c4.803-.032 8.381-2.871 11.998-6.739l31.188-33.005c2.826-2.997 4.363-5.948-.024-5.948zM540.396 38.507c-1.484 1.387-2.932 2.818-4.385 4.237-1.156 1.132-2.041.882-3.672.882h-23.922c-1.426 0-2.381-.085-2.898-.494-.758-.597-.586-1.702.396-2.691 3.715-3.944 7.436-7.889 11.15-11.832 1.775-1.632 3.43-3.309 6.813-4.407 2.068-.67 3.9-.827 6.041-.827h9.855c2.434.228 4.672-4.551 2.074-5.461H525.71c-2.123.151-2.729-.605-1.82-2.276 1.75-2.042 2.777-3.29 3.643-3.186h18.721c1.891 0 4.592.198 6.137 1.482 3.311 2.743 2.307 7.848.063 11.148-1.939 2.844-6.27 4.823-9.564 4.935h-12.869c-3.145.228-7.238 6.708-1.572 6.783h11.287c1.623.001 1.664.77.66 1.707"/><linearGradient id="a" x1="426.183" x2="426.183" y1="1339.685" y2="1431.887" gradientTransform="translate(-172.125 -1255.071)" gradientUnits="userSpaceOnUse"><stop offset="0" style="stop-color:#f57e25"/><stop offset="1" style="stop-color:#fcd660"/></linearGradient><path fill="url(#a)" d="M118.668 84.97c14.685 19.412 30.529 40.164 40.607 53.508 11.277 14.945 20.692 27.43 28.656 37.979h-30.208c-8.839-8.867-18.978-19.033-30.696-30.789L66.513 84.97h52.155zm322.935.59-27.41-.589-66.154 91.488h14.856l78.708-90.899zm-99.142-.59c-4.017 10.109-13.427 33.064-36.628 91.488h28.34l58.456-90.331-50.168-1.157zm-7.125 1.725-48.177.241-10.642 89.522h26.841l31.978-89.763zm-55.316.53-50.03.536 15.444 88.698h27.331l7.255-89.234zm-66.377-.73h-25.234l36.271 89.963h13.532l-23.656-86.61-.913-3.353zM170.11 84.97h-46.228l66.173 91.488h23.795l-41.407-86.61"/></svg>