<svg xmlns="http://www.w3.org/2000/svg" xmlns:xlink="http://www.w3.org/1999/xlink" viewBox="0 0 455.108 239.459"><linearGradient id="a"><stop offset="0" stop-color="#535758"/><stop offset=".188" stop-color="#515455"/><stop offset=".387" stop-color="#4b4d4d"/><stop offset=".592" stop-color="#424241"/><stop offset=".8" stop-color="#353433"/><stop offset="1" stop-color="#222"/></linearGradient><linearGradient xlink:href="#a" id="c" x1="430.572" x2="447.902" y1="61.093" y2="71.098" gradientUnits="userSpaceOnUse"/><linearGradient id="d" x1="308.729" x2="409.02" y1="102.083" y2="159.986" gradientUnits="userSpaceOnUse"><stop offset="0" stop-color="#898c90"/><stop offset=".151" stop-color="#87898d"/><stop offset=".312" stop-color="#7c7e82"/><stop offset=".477" stop-color="#6c6e71"/><stop offset=".646" stop-color="#57585a"/><stop offset=".816" stop-color="#40403f"/><stop offset=".987" stop-color="#252424"/><stop offset="1" stop-color="#222"/></linearGradient><linearGradient xlink:href="#a" id="e" x1="427.539" x2="442.311" y1="100.101" y2="108.629" gradientUnits="userSpaceOnUse"/><linearGradient id="f" x1="30.009" x2="248.411" y1="69.995" y2="171.838" gradientUnits="userSpaceOnUse"><stop offset="0" stop-color="#c77538"/><stop offset=".6" stop-color="#d2c14e"/><stop offset=".723" stop-color="#e2d78c"/><stop offset=".857" stop-color="#f3eecc"/><stop offset=".953" stop-color="#fdfcf3"/><stop offset="1" stop-color="#fff"/></linearGradient><linearGradient id="g" x1="34.324" x2="69.228" y1="159.142" y2="175.418" gradientUnits="userSpaceOnUse"><stop offset="0" stop-color="#cb8c3e"/><stop offset="1" stop-color="#ca9b41"/></linearGradient><linearGradient id="h" x1="2.708" x2="56.311" y1="105.87" y2="130.865" gradientUnits="userSpaceOnUse"><stop offset="0" stop-color="#c77539"/><stop offset="1" stop-color="#ca8e3f"/></linearGradient><linearGradient id="i" x1="3.686" x2="50.793" y1="32.562" y2="54.528" gradientUnits="userSpaceOnUse"><stop offset="0" stop-color="#c36738"/><stop offset="1" stop-color="#ca7d3a"/></linearGradient><linearGradient id="j" x1="82.9" x2="111.765" y1="37.426" y2="50.886" gradientUnits="userSpaceOnUse"><stop offset="0" stop-color="#cb883d"/><stop offset="1" stop-color="#cb9641"/></linearGradient><linearGradient id="k" x1="108.369" x2="124.363" y1="137.586" y2="137.586" gradientUnits="userSpaceOnUse"><stop offset="0" stop-color="#1b6192"/><stop offset="1" stop-color="#2f668f"/></linearGradient><radialGradient id="l" cx="138.576" cy="137.524" r="8.825" gradientTransform="matrix(1 0 0 .9 0 13.752)" gradientUnits="userSpaceOnUse"><stop offset="0" stop-color="#5e7188"/><stop offset="1" stop-color="#31678e"/></radialGradient><radialGradient id="m" cx="156.989" cy="137.628" r="11.044" gradientTransform="matrix(1 0 0 .9 0 13.763)" gradientUnits="userSpaceOnUse"><stop offset=".196" stop-color="#5e7188"/><stop offset="1" stop-color="#31678e"/></radialGradient><radialGradient id="n" cx="148.279" cy="137.586" r="9.644" gradientTransform="matrix(1 0 0 2 0 -137.586)" gradientUnits="userSpaceOnUse"><stop offset="0" stop-color="#787b84"/><stop offset="1" stop-color="#3e6da5"/></radialGradient><linearGradient id="o" x1="168.574" x2="185.27" y1="137.586" y2="137.586" gradientUnits="userSpaceOnUse"><stop offset="0" stop-color="#2c668f"/><stop offset="1" stop-color="#1b6192"/></linearGradient><linearGradient id="p" x1="149.159" x2="165.827" y1="148.854" y2="148.854" gradientUnits="userSpaceOnUse"><stop offset="0" stop-color="#808387"/><stop offset="1" stop-color="#7e98ac"/></linearGradient><linearGradient id="q" x1="166.374" x2="176.352" y1="148.854" y2="148.854" gradientUnits="userSpaceOnUse"><stop offset="0" stop-color="#7e98ac"/><stop offset="1" stop-color="#97b6d9"/></linearGradient><linearGradient id="r" x1="108.42" x2="126.365" y1="113.104" y2="113.104" gradientUnits="userSpaceOnUse"><stop offset="0" stop-color="#7f8387"/><stop offset="1" stop-color="#7f8b96"/></linearGradient><linearGradient id="s" x1="130.616" x2="147.327" y1="113.104" y2="113.104" gradientUnits="userSpaceOnUse"><stop offset="0" stop-color="#7d8c98"/><stop offset="1" stop-color="#7f94a6"/></linearGradient><linearGradient id="t" x1="150.915" x2="164.364" y1="113.104" y2="113.104" gradientUnits="userSpaceOnUse"><stop offset="0" stop-color="#7d8c98"/><stop offset="1" stop-color="#7f94a6"/></linearGradient><linearGradient id="u" x1="167.952" x2="185.27" y1="113.104" y2="113.104" gradientUnits="userSpaceOnUse"><stop offset="0" stop-color="#7e9eb6"/><stop offset="1" stop-color="#80a6c3"/></linearGradient><linearGradient id="b"><stop offset="0" stop-color="#7b7e84"/><stop offset=".236" stop-color="#757c88"/><stop offset=".62" stop-color="#637792"/><stop offset="1" stop-color="#48709e"/></linearGradient><radialGradient xlink:href="#b" id="v" cx="143.037" cy="162.241" r="15.346" gradientUnits="userSpaceOnUse"/><linearGradient id="w" x1="108.42" x2="125.575" y1="161.741" y2="161.741" gradientUnits="userSpaceOnUse"><stop offset="0" stop-color="#1f668e"/><stop offset=".546" stop-color="#32688d"/><stop offset="1" stop-color="#426b8b"/></linearGradient><radialGradient xlink:href="#b" id="x" cx="152.528" cy="161.491" r="13.713" gradientUnits="userSpaceOnUse"/><linearGradient id="y" x1="171.948" x2="185.27" y1="161.741" y2="161.741" gradientUnits="userSpaceOnUse"><stop offset="0" stop-color="#30678c"/><stop offset="1" stop-color="#1f668e"/></linearGradient><text fill="#c33a34" font-family="ArialMT" font-size="1" transform="translate(435.475 66.595)">I don’t like bugs!</text><path fill="url(#c)" d="M431.655 81.01c-.557 0-2.034 0-2.404-1.033-.31-.863.431-1.601.786-1.956.867-.881 1.117-2.192 1.617-4.803.108-.57.334-1.757-.076-9.231l-.022-.393c-.169-3.047-.263-4.726 1.063-5.511.248-.146.51-.208.878-.208.492 0 1.226.115 2.307.36 1.063.241 1.768.453 2.334.624.783.236 1.177.354 1.854.355a6.04 6.04 0 0 0 2.238-.437c.805-.329 1.158-.695 1.861-1.424.381-.394.854-.884 1.516-1.482 1.851-1.67 3.188-2.877 4.759-2.877.174 0 .348.015.522.046 1.137.202 1.82.962 2.544 1.766.26.29 2.486 2.846 1.36 4.334-.417.551-1.073.618-1.319.643-1.521.16-2.962 1.231-4.786 2.587-1.292.96-2.402 1.787-2.966 3.25-.285.739-.29 1.273-.297 1.949-.003.256-.006.519-.023.798-.225 3.644-2.621 6.36-3.773 7.666-3.43 3.889-7.785 4.958-9.817 4.976z"/><path fill="#38669e" d="M442.552 59.565a6.873 6.873 0 0 1-2.563.5c-1.349-.002-1.824-.421-4.375-1-2.105-.478-2.415-.337-2.563-.25-.922.546-.787 2.174-.625 5.125.407 7.407.194 8.751.063 9.438-.532 2.784-.798 4.176-1.797 5.19-.222.226-.778.739-.64 1.122.173.483 1.342.472 1.75.469 1.823-.017 5.914-.977 9.188-4.688 1.14-1.292 3.355-3.804 3.563-7.156.064-1.029-.082-1.813.375-3 .652-1.694 1.929-2.643 3.25-3.625 1.921-1.428 3.454-2.568 5.188-2.75.183-.019.549-.047.75-.313.509-.674-.471-2.315-1.313-3.25-.661-.735-1.213-1.349-2.063-1.5-1.355-.241-2.596.85-4.563 2.625-1.873 1.691-2.151 2.459-3.625 3.063z"/><path fill="url(#d)" d="M282.552 239.459c-.382 0-.729-.181-.952-.498-2.857-4.042-12.465-17.678-16.14-23.439-.392-.615-1.215-1.649-2.085-2.745-2.982-3.751-4.923-6.326-4.729-7.88.048-.383.367-.795.954-.795.481 0 1.308.292 3.221 1.01.696.261 1.648.618 2.251.808 1.019-3.081 3.053-4.906 3.854-5.625 9.655-8.664 22.685-29.162 21.994-33.167-.583-3.375-.029-5.176.67-7.456.15-.488.461-1.503 1.14-2.419-1.48-2.037-.813-5.134-.219-7.898.485-2.255.891-4.257 1.248-6.022 1.66-8.195 2.346-11.587 5.386-11.587h.503l.242.441c.194.353 1.5 2.738 2.363 4.522 5.614-9.048 14.334-17.925 16.799-19.999-.005-.024-.01-.05-.017-.077-.587-2.608.254-7.172 2.771-19.987 2.527-12.861 5.139-26.16 12.765-39.324 4.521-7.803 10.279-13.517 21.752-24.898C356.651 32.099 394.292 0 396.029 0h.317l.262.214c1.643 1.423-1.359 5.292-14.915 21.223-7.445 8.75-15.885 18.669-20.307 25.407-4.674 7.123-7.828 13.672-10.545 21.898-3.289 9.954-4.02 19.464-4.177 23.717.492-.252.963-.473 1.403-.679 1.443-.674 2.391-1.117 2.984-2.065.042-.068.071-.11.09-.147a.984.984 0 0 1 .018-.127c.117-.659.293-1.652 1.208-3.306.772-1.393 2.565-4.068 5.897-6.342 1.924-1.313 3.204-1.676 4.233-1.967.769-.218 1.376-.39 2.637-1.158.851-.518 1.614-1.079 2.288-1.574 1.522-1.117 2.837-2.081 4.585-2.081a4.279 4.279 0 0 1 3.554 1.878 1.302 1.302 0 0 1-.011-.061c-.394-2.159.131-3.915.594-5.463.541-1.807 1.28-4.28 3.728-5.923.442-.296 1.787-1.199 3.718-1.289l.266-.006c1.601 0 2.704.582 3.362.93.22.116.39.21.584.277.223.078.477.117.755.117.381 0 .684-.072.797-.104.647-.18 1.292-.693 1.5-1.193.005-.028.006-.119.012-.296.013-.361.029-.771.086-1.292.103-.94.811-5.795 4.654-8.932 1.68-1.373 4.071-2.098 6.913-2.098.062 0 6.175.081 7.099 1.866.46.889-.306 1.599-.981 2.225-.609.564-1.367 1.267-1.611 2.144-.115.412-.931 4.965-1.045 6.166-.024.251-.053.597-.085.998-.117 1.428-.277 3.383-.511 4.556-.623 3.125-1.904 9.561-7.151 11.604 1.269.408 2.476.613 3.607.613a9.232 9.232 0 0 0 2.735-.422c-.65-2.856-.125-5.674.476-8.895.807-4.323 2.522-7.739 3.82-9.845 2.755-4.47 10.475-9.761 14.241-9.761 2.138 0 5.819.177 6.462 1.361.199.368.177.806-.062 1.172-.566.872-1.837 1.363-3.066 1.838-.635.246-1.697.656-1.866.914-.188.356-.258 1.104-.183 1.995.07.821.416 1.467.816 2.216.126.236.255.477.38.729.072.146.162.309.255.476.149.271.304.553.415.804 2.041 4.592 2.024 8.92 1.832 11.092-.499 5.632-2.693 10.445-6.189 13.593.292-.003.611-.005.961-.005.619 0 1.456.097 2.426.209 1.102.127 2.35.271 3.435.285.495-.121 1.903-1.911 2.504-2.675.997-1.268 1.333-1.695 1.918-1.695h.539l.283.523c1.276 2.699-.631 10.58-1.495 11.943l-.514.821c-1.823 2.932-4.092 6.58-8.281 7.769-1.086.308-1.972.384-2.619.44-.744.065-.922.08-1.363.334-.5.288-.85.637-1.221 1.072-2.711 3.178-4.161 6.989-4.167 8.045.033.006.069.01.108.01.164-.05.643-.396 1.842-2.104.826-1.182 1.953-2.794 4.122-2.794h.764l.771.32c1.19.561 2.526 1.776 2.349 4.474l-.009.134c-.076 1.338.665 2.868 2.29 6.218.483.999.775 1.488.969 1.813.363.609.912 1.529.838 2.993-.204 3.986-3.717 6.203-10.128 8.897-6.083 2.557-11.995 4.309-13.938 4.884l-1.908.561c-2.569.751-5.765 1.685-5.993 2.2-.062.148-.074.385-.086.888-.025 1.034-.066 2.766-1.232 4.677-2.022 3.314-5.514 4.307-7.005 4.73-5.304 1.512-10.415 4.142-15.357 6.685-2.791 1.436-5.659 2.911-8.597 4.219-1.766.787-3.767 1.678-4.248 3.049-.079.224-.105.299.2 1.993.079.435.167.928.26 1.493.475 2.885.56 4.543.659 6.463.105 2.027.223 4.313.901 8.91.439 2.977.618 3.389.792 3.594.608.719 4.001 2.198 5.216 2.518 4.922 1.294 5.994 1.919 6.281 2.628l.143.354-.18.438c-.703 1.42-9.069 3.908-9.152 3.931-1.334.366-4.17 1.419-5.981 2.173-1.959.817-3.105 1.726-4.319 2.688-.403.319-.81.642-1.25.966l-.645.472c-2.057 1.498-4.837 3.379-7.78 5.37-6.032 4.08-22.02 14.896-22.662 17.971-.033.159-.065.325-.095.493a4.61 4.61 0 0 0 .53 3.083c.112.196.221.398.327.592.156.287.383.706.503.865.347.153 1.342.456 2.228.725 4.013 1.221 5.766 1.874 6.23 2.757.145.275.174.582.084.865-.245.771-1.097 1.005-3.647 1.005-1.884 0-4.308-.143-6.255-.258-1.21-.071-2.255-.133-2.744-.133-.435 0-.967-.025-1.604-.073-5.264-.396-9.067-.683-10.602-4.202a5.231 5.231 0 0 1-.425-1.646 3.804 3.804 0 0 1-.626.049h-1.7l-10.176-2.146a1.04 1.04 0 0 1-.683-.492c.934 2.324 1.299 4.499-.362 5.387l-.478.256-.434-.326c-.156-.117-3.828-2.877-4.579-3.516-.352-.299-.913-.787-1.574-1.362-1.307-1.137-3.097-2.694-4.338-3.716.237 3.253 1.118 9.1 1.775 11.929.082.354.001.716-.221.995a1.2 1.2 0 0 1-.93.449zm46.284-57.441c-1.357 2.293-3.227 4.21-5.275 5.375a6.46 6.46 0 0 1-1.168.532c-.215.077-.577.207-1.528.631a56.45 56.45 0 0 0-3.845 1.891c-11.472 6.159-22.058 13.694-26.968 19.196-.496.555-.89 1.076-1.206 1.818-.846 1.99-.347 4.114.231 6.574.535 2.279 1.319 4.289 1.838 5.619.15.384.494 1.042.892 1.804.59 1.129 1.254 2.399 1.772 3.64a1.03 1.03 0 0 1 .843-1.275c7.407-1.138 11.205-1.848 11.684-2.046 1.095-.632 1.338-1.497 1.533-2.191l.062-.216c-.264-.224-.549-.442-.828-.656-1.183-.904-2.654-2.029-1.828-3.63.593-1.15 2.823-1.279 5.908-1.334.576-.01 1.171-.021 1.369-.053.544-.088 1.676-.362 1.894-.459.173-.107.673-.703.837-.898l.142-.168c2.125-2.463 5-5.083 8.043-7.856 3.754-3.42 10.016-9.127 10.436-11.462.454-2.61 1.625-4.362 3.479-5.204.167-.075.335-.141.505-.197-1.507-1.443-2.859-2.977-4.176-4.472-1.259-1.429-2.561-2.906-3.9-4.171-.177-.172-.452-.433-.746-.792zm-26.833-24.366c.389.218.777.51 1.142.903 1.528 1.644 1.255 3.492 1.091 4.596-.02.133-.041.275-.062.43a420.593 420.593 0 0 1 3.795-4.141c1.849-2.002 2.862-2.938 3.467-3.497.199-.184.292-.263.347-.331.349-.699.357-.883.389-1.656.04-.987.101-2.476.953-4.625.204-.513.492-1.239.908-2.071-1.528 1.389-2.653 2.572-3.81 4.138-.583.79-1 1.437-1.337 1.958-.919 1.425-1.783 2.763-3.883 3.634-1.106.46-2.136.605-3 .662zm74.369-80.463c.028.216.045.411.059.574.137 1.594-.211 3.284-.979 4.762-.484.934-.962 2.626-1.309 4.309.397-.434.811-.93 1.208-1.481 2.024-2.818 2.799-5.351 2.379-6.171-.057-.111-.189-.283-.357-.5a10.443 10.443 0 0 1-1.001-1.493z"/><path fill="#3b5e88" d="M319.506 237.025a21.8 21.8 0 0 1-1.542-.07c-5.153-.388-8.556-.645-9.886-3.693-.363-.831-.426-1.632-.354-2.496-.533.265-.917.388-1.477.388h-1.611l-10.089-2.128c-.201-.042-.199-.331.005-.363 2.925-.45 11.296-1.76 11.937-2.129 2.025-1.164 1.838-2.966 2.237-3.38-1.375-1.377-3.631-2.313-2.925-3.682.553-1.073 5.688-.781 6.656-.938.545-.088 1.821-.384 2.125-.531.363-.176 1.002-.982 1.257-1.279 2.094-2.427 4.955-5.033 7.983-7.793 4.313-3.93 10.217-9.311 10.688-11.929.149-.858.609-3.498 2.994-4.58a4.032 4.032 0 0 1 2.114-.343c-2.051-1.752-3.799-3.735-5.498-5.663-1.271-1.443-2.586-2.935-3.954-4.227-.329-.312-.956-.904-1.396-1.854-1.244 2.607-3.285 4.985-5.63 6.319a5.652 5.652 0 0 1-1.034.47c-.224.08-.6.214-1.589.655a57.46 57.46 0 0 0-3.902 1.919c-11.555 6.203-22.229 13.809-27.199 19.379-.478.535-.972 1.153-1.354 2.051-.954 2.246-.4 4.604.186 7.101.55 2.342 1.349 4.387 1.877 5.74.74 1.895 5.198 8.751 2.801 10.033 0 0-3.799-2.855-4.539-3.484-1.345-1.144-5.784-5.079-7.091-6.005a.18.18 0 0 0-.282.144c-.015 2.725 1.09 10.246 1.857 13.552.08.346-.372.552-.577.262-3.047-4.311-12.471-17.689-16.117-23.406-1.363-2.137-6.923-8.168-6.688-10.063.056-.446 6.079 2.289 6.194 1.848.853-3.271 3.003-5.198 3.812-5.923 9.33-8.372 23.063-29.309 22.263-33.942-.548-3.176-.047-4.807.646-7.063.167-.544.55-1.795 1.456-2.675-1.82-1.656-1.132-4.854-.518-7.712 2.603-12.102 2.92-16.938 5.803-16.938 0 0 2.544 4.628 2.989 5.959 5.625-9.669 15.831-20.021 17.798-21.46.011-.096.014-.301-.069-.655-.554-2.462.392-7.488 2.777-19.63 2.513-12.793 5.112-26.021 12.667-39.062 4.463-7.705 10.195-13.392 21.616-24.721.246-.244 38.511-32.705 39.128-32.17 2.188 1.896-25.78 30.9-35.375 45.521-4.893 7.457-7.974 14.021-10.642 22.098-3.204 9.698-4.184 19.726-4.258 25.455.939-.579 1.85-1.004 2.661-1.384 1.516-.708 2.609-1.219 3.335-2.381.17-.271.171-.277.224-.579.114-.64.269-1.512 1.115-3.041.736-1.327 2.445-3.876 5.633-6.051 1.81-1.235 2.966-1.563 3.985-1.852.799-.227 1.488-.422 2.847-1.249.879-.536 1.661-1.109 2.35-1.615 1.462-1.072 2.613-1.916 4.082-1.916.688 0 1.35.2 1.913.577 1.452.977 1.588 2.552 1.661 3.398.123 1.434-.192 2.958-.887 4.294-.812 1.565-1.537 4.833-1.808 7.058a17.923 17.923 0 0 0 3.152-3.342c1.76-2.451 3.199-5.582 2.446-7.055-.093-.182-.239-.371-.441-.632-.535-.691-1.338-1.731-1.658-3.485-.357-1.959.115-3.54.572-5.068.532-1.777 1.193-3.987 3.387-5.459.394-.264 1.59-1.067 3.283-1.145l.227-.005c1.391 0 2.339.5 2.966.832.263.139.468.247.701.328.313.109.661.164 1.035.164.488 0 .878-.094 1.023-.134.905-.252 1.751-.946 2.059-1.688.06-.145.061-.147.076-.593.012-.343.027-.732.082-1.227.145-1.328.976-5.616 4.346-8.366 1.784-1.457 4.193-1.906 6.375-1.906 2.16 0 5.894.537 6.344 1.406.359.694-2.093 1.725-2.656 3.75-.146.526-.958 5.115-1.073 6.313-.105 1.099-.292 4.006-.583 5.469-.659 3.308-1.96 9.381-6.922 11.087a7.674 7.674 0 0 1-2.281.415c1.827.905 4.14 1.732 6.494 1.732.244 0 .49-.01.735-.029 1.373-.109 2.451-.456 3.015-.731-.884-2.923-.359-5.738.297-9.254.782-4.192 2.448-7.508 3.708-9.552 2.549-4.136 10.003-9.356 13.517-9.356.755 0 6.386.144 5.688 1.219-.813 1.25-4.406 1.75-4.969 2.813-.299.565-.364 1.484-.281 2.469.109 1.279.735 2.144 1.281 3.25.187.377.479.854.656 1.25 2.104 4.733 1.895 9.167 1.762 10.671-.491 5.541-2.672 10.239-6.138 13.234a15.384 15.384 0 0 1-2.148 1.548c.686-.214 1.643-.269 3.904-.269 1.26 0 3.789.468 5.849.493 1.368.017 4.25-4.833 4.486-4.333 1.121 2.37-.702 9.953-1.445 11.125-1.884 2.974-4.052 7.019-8.309 8.227-1.005.285-1.812.355-2.46.411-.785.068-1.109.097-1.714.444-.642.369-1.073.822-1.444 1.258-3.041 3.565-4.885 8.394-4.232 9.175.083.099.408.283.82.283a.744.744 0 0 0 .125-.009c.771-.113 1.883-1.701 2.418-2.464.796-1.139 1.696-2.426 3.422-2.426h.595l.615.255c1.354.64 1.942 1.851 1.825 3.632l-.009.135c-.089 1.565.683 3.157 2.373 6.644a22.282 22.282 0 0 0 1.004 1.877c.35.586.78 1.309.719 2.514-.181 3.538-3.516 5.596-9.607 8.157-6.046 2.542-11.924 4.282-13.856 4.854l-1.901.559c-4.478 1.309-6.2 1.879-6.538 2.688-.124.298-.137.615-.151 1.195-.024 1.013-.062 2.539-1.108 4.254-1.849 3.03-5.116 3.958-6.512 4.355-5.385 1.535-10.534 4.184-15.514 6.747-2.771 1.426-5.631 2.898-8.553 4.199-1.923.856-4.103 1.827-4.705 3.545-.154.439-.155.64.166 2.424.079.433.166.921.258 1.48.467 2.837.551 4.474.649 6.37.105 2.04.224 4.347.909 8.99.486 3.298.681 3.662.984 4.02.826.976 4.529 2.495 5.649 2.79 1.259.332 5.42 1.412 5.708 2.125.239.591-6.188 2.916-8.625 3.583-1.396.383-4.259 1.449-6.083 2.208-2.725 1.136-3.954 2.436-5.747 3.755l-.644.471c-2.046 1.49-4.825 3.37-7.767 5.36-7.236 4.895-22.293 15.081-23.005 18.493a16.36 16.36 0 0 0-.099.516 5.454 5.454 0 0 0 .628 3.655c.435.763.833 1.61 1.092 1.75 1.042.563 8.547 2.31 8.208 3.375-.29.915-9.864.021-11.836.021zm-20.512-79.209c.087.009.184.01.296.016.743.038 2.122.108 3.233 1.302 1.25 1.344 1.032 2.817.873 3.893-.061.412-.137.923-.182 1.6a37.67 37.67 0 0 0-.077 1.467c.894-1.128 2.474-2.847 5.457-6.077 1.824-1.975 2.823-2.898 3.42-3.449.45-.416.45-.416.566-.647.396-.789.409-1.123.442-1.93.04-.983.095-2.331.894-4.345.627-1.58 2.094-5.276 5.738-7.596a15.773 15.773 0 0 1 1.585-.87c.243-.12.638-.315.726-.394.032-.066.056-.136.074-.204l-.138-.004c-1.01 0-2.404.853-4.97 3.041-3.63 3.096-5.453 4.649-7.392 7.276-.601.814-1.028 1.477-1.372 2.009-.879 1.363-1.634 2.532-3.489 3.302-1.366.566-2.59.604-3.573.636-.941.029-1.629.051-2.521.5.153.156.268.298.348.398.026.03.045.054.062.076z"/><path fill="#465d76" d="M319.506 235.324c-.384 0-.853-.024-1.415-.066-4.857-.366-7.533-.567-8.454-2.677-.405-.926-.234-1.86.048-3.407.108-.591.24-1.082.364-1.483-.873.37-1.977.964-2.445 1.216-.838.451-1.013.545-1.357.545h-.647l-.579-.968.121-.463c.129-.491.412-.654 1.096-1.046 3.979-2.288 4.487-3.477 4.436-3.982-.034-.334-.405-.704-.733-1.03-.422-.42-1.207-1.202-.709-2.167.152-.295.545-.792 1.461-.792.359 0 .761.07 1.226.151.586.102 1.25.218 1.945.218.724 0 1.339-.127 1.88-.39.679-.329 1.071-.784 1.385-1.149 2.026-2.349 4.851-4.922 7.842-7.647 4.988-4.545 10.642-9.697 11.214-12.884.121-.693.456-2.621 2.023-3.332a2.31 2.31 0 0 1 .975-.213c.189 0 .375.023.573.053.11.017.228.038.368.038.075 0 .158-.007.252-.024 1.05-.197 1.851-1.253 1.799-1.688-.024-.207-.354-.462-.479-.559-2.384-1.843-4.375-4.102-6.3-6.287-1.297-1.472-2.638-2.993-4.062-4.339-.333-.315-.89-.842-1.175-1.726-.391-1.211.006-2.16.296-2.853.127-.304.259-.618.217-.735-.118-.326-1.012-.826-1.891-.826-.277 0-.42.054-.451.075.019.01.02.213.02.323-.012 3.632-2.726 8.074-6.051 9.965a4.024 4.024 0 0 1-.763.346c-.247.088-.661.236-1.711.704a58.978 58.978 0 0 0-4.019 1.977c-11.711 6.287-22.567 14.036-27.659 19.743-.547.613-1.171 1.392-1.65 2.518-1.172 2.758-.528 5.502.095 8.155.576 2.455 1.402 4.57 1.949 5.97.716 1.834 1.11 2.844.044 3.414l-.25.134-.326.01c-.653 0-1.087-.478-1.47-.899-2.1-2.313-4.46-4.915-6.611-5.134-.057-.005-.192-.02-.364-.02-.468 0-.682.101-.72.136.017.017.03.288.19 1.079.247 1.211.479 1.94.618 2.376.165.517.413 1.298-.28 1.838l-.308.239-.459.02c-1.675 0-7.874-5.963-10.624-13.777-.969-2.752-1.164-4.763-.653-6.725.723-2.775 2.596-4.454 3.301-5.085 8.519-7.645 23.837-29.507 22.804-35.498-.479-2.775-.075-4.092.596-6.275.215-.703.72-2.346 2.081-2.425h.006c.837 0 1.249.509 1.495.813.089.11.191.243.341.371.342.291.682.322 1.251.351.604.031 1.432.072 2.074.762.692.745.573 1.551.435 2.485a19.98 19.98 0 0 0-.196 1.737c-.131 1.984-.178 3.136.376 3.748.305.336.822.581 1.23.581a.588.588 0 0 0 .227-.038c.166-.076.288-.36.339-.481.38-.881 1.685-2.314 6.155-7.154 1.777-1.923 2.746-2.819 3.325-3.354.6-.555.677-.626.932-1.134.56-1.116.585-1.748.621-2.623.037-.91.083-2.042.776-3.788.566-1.426 1.891-4.764 5.07-6.789.532-.339 1.009-.574 1.431-.782.849-.419 1.205-.611 1.481-1.152.347-.679.45-1.684.021-2.188-.354-.416-1.054-.459-1.353-.478a4.068 4.068 0 0 0-.246-.008c-1.499 0-3.088.902-6.073 3.447-3.73 3.18-5.601 4.775-7.657 7.561-.636.862-1.081 1.551-1.439 2.105-.807 1.251-1.341 2.078-2.706 2.644-1.079.447-2.042.478-2.975.507-1.063.033-2.066.065-3.348.74l-.19.103c-.391.213-.834.455-1.363.455-.261 0-.509-.059-.738-.175-1.605-.813-1.023-3.514-.408-6.375 2.341-10.884 2.586-12.021 4.094-12.021h.06l.074.007c1.443.154 1.589 1.921 1.852 5.13.031.372.067.823.111 1.279 4.041-10.357 17.636-24.339 19.765-25.834.078-.055.252-.177.4-.395.212-.314.411-.917.158-2.002-.474-2.105.572-7.624 2.79-18.916 2.488-12.666 5.057-25.742 12.469-38.537 4.35-7.509 10.028-13.143 21.342-24.366 11.143-11.054 25.888-23.899 28.205-23.899.359 0 .688.138.924.388.959 1.014.373 1.641-3.441 5.722-5.042 5.396-14.428 15.439-24.102 30.179-4.963 7.563-8.549 13.027-11.288 21.317-4.045 12.243-4.632 25.007-4.25 29.474 1.63-1.758 3.4-2.586 4.991-3.33 1.644-.768 3.063-1.432 4.055-3.019.345-.55.387-.789.457-1.185.098-.548.219-1.23.929-2.513.662-1.194 2.205-3.493 5.103-5.47 1.582-1.08 2.553-1.354 3.492-1.621.84-.238 1.709-.484 3.267-1.433.94-.572 1.754-1.169 2.472-1.696 1.302-.955 2.162-1.586 3.076-1.586.35 0 .684.1.966.289.774.521.852 1.415.914 2.132.096 1.117-.153 2.31-.701 3.363-1.287 2.483-2.633 9.407-1.894 10.671 1.074-.088 4.014-2.236 6.127-5.179.972-1.353 4.03-5.986 2.579-8.822-.165-.323-.372-.59-.611-.9-.482-.624-1.083-1.4-1.328-2.747-.284-1.558.092-2.818.528-4.276.501-1.674 1.018-3.402 2.705-4.535.328-.22 1.196-.802 2.414-.858l.184-.004c.934 0 1.573.337 2.137.635.299.158.582.307.937.431a4.85 4.85 0 0 0 1.593.258c.671 0 1.215-.123 1.48-.197 1.418-.395 2.664-1.444 3.173-2.675.179-.433.187-.669.205-1.186.011-.306.023-.655.072-1.099.091-.829.693-5.09 3.637-7.493 1.472-1.202 3.575-1.979 5.355-1.979 1.199 0 2.14.358 2.721 1.035.915 1.064.576 2.283.063 4.127a59.01 59.01 0 0 0-.488 1.84c-.609 2.488-.66 3.728-.704 4.823-.043 1.053-.083 2.047-.554 3.75-.814 2.949-2.329 8.439-6.443 9.854a6.131 6.131 0 0 1-2.054.328c-.556 0-1.099-.059-1.625-.115-.537-.058-1.091-.118-1.676-.118a7.8 7.8 0 0 0-2.143.297c.504.246.838.522.983.642.073.061 5.46 4.422 11.279 4.422.289 0 .579-.011.87-.034 2.36-.188 4.531-1.055 4.74-1.894.051-.204-.028-.425-.104-.639-.938-2.657-.455-5.249.215-8.836.734-3.935 2.299-7.05 3.483-8.97 2.869-4.655 7.737-9.057 10.017-9.057.391 0 .749.11 1.035.32.844.618.652 1.585.498 2.362-.13.659-.31 1.561-.205 2.791.136 1.598.638 2.615 1.22 3.793.177.357.354.716.521 1.091 1.927 4.334 1.55 8.582 1.427 9.977-.452 5.093-2.425 9.387-5.556 12.092-1.168 1.01-2.249 1.588-3.202 2.098-1.329.71-2.477 1.324-3.705 3.014-.526.724-1.924 2.646-1.413 3.618.287.545 1.253 1.042 2.028 1.042.189 0 .291-.034.313-.047.659-2.292 3.563-4.392 5.234-5.18.414-.196 1.008-.277 3.613-.277 1.255 0 2.895.019 4.946.044 1.203.015 2.701.033 3.399 1.212.709 1.195-.025 2.672-.924 4.091-1.806 2.85-3.674 5.797-7.305 6.828-.847.24-1.535.3-2.143.353-.862.075-1.484.129-2.414.664-.867.499-1.442 1.103-1.891 1.628-2.492 2.922-6.041 9.22-4.243 11.37.454.542 1.288.893 2.125.893.126 0 .25-.009.371-.026 1.499-.221 2.743-1.999 3.567-3.175.715-1.022 1.188-1.697 2.026-1.697h.256l.303.125c.88.417.814 1.414.779 1.95l-.009.139c-.115 2.018.718 3.735 2.542 7.498a23.361 23.361 0 0 0 1.072 2.002c.299.501.516.864.48 1.556-.12 2.348-2.282 4.033-8.568 6.675-5.947 2.5-11.767 4.225-13.68 4.792l-1.897.558c-5.277 1.542-6.978 2.105-7.628 3.667-.253.606-.266 1.164-.282 1.81-.022.927-.05 2.08-.86 3.407-1.501 2.46-4.218 3.233-5.524 3.604-5.55 1.582-10.777 4.272-15.833 6.873-2.748 1.414-5.59 2.876-8.462 4.155-2.126.947-4.773 2.125-5.618 4.536-.313.894-.232 1.46.097 3.288.077.427.163.906.253 1.456.452 2.746.534 4.339.629 6.185.107 2.073.228 4.423.924 9.147.508 3.449.749 4.138 1.369 4.871 1.172 1.385 2.925 1.847 4.205 2.184 1.159.305 2.356.62 2.376 1.843.021 1.366-1.366 1.747-3.664 2.376-1.441.395-3.233.886-5.159 1.688-2.911 1.214-4.769 2.58-6.565 3.901l-.641.469c-2.018 1.469-4.785 3.341-7.715 5.324-9.104 6.159-22.864 15.467-23.717 19.554-.316 1.515-.026 2.56-.023 2.571.261.853.783 1.459 1.244 1.995.533.619 1.195 1.389.768 2.351-.463 1.051-1.771 1.051-2.329 1.051z"/><path fill="#3e72b2" d="M278.677 226.627c.153-.119-.277-.754-.753-3.094-.232-1.141-.255-1.604.003-1.969.525-.742 1.882-.604 2.117-.58 2.583.263 5.05 2.98 7.319 5.481.225.248.549.611.689.537.397-.212-1.482-3.521-2.563-8.125-.676-2.879-1.325-5.821-.035-8.858.575-1.354 1.332-2.253 1.847-2.83 4.996-5.599 15.668-13.383 27.969-19.986a60.415 60.415 0 0 1 4.094-2.014c1.994-.888 1.8-.673 2.375-1 2.795-1.59 5.467-5.6 5.478-8.922.001-.319-.022-.853.335-1.203.887-.871 3.692-.184 4.188 1.188.41 1.135-.994 2.095-.5 3.625.193.597.571.963.875 1.25 3.566 3.37 6.387 7.545 10.269 10.547.249.192.837.642.918 1.328.138 1.169-1.237 2.658-2.717 2.935-.911.171-1.256-.231-1.908.065-1.072.486-1.303 2.099-1.375 2.5-.989 5.507-13.758 14.632-19.279 21.031-.341.395-.864 1.023-1.783 1.469-2.656 1.288-5.641-.385-6 .313-.263.51 1.427 1.233 1.563 2.563.264 2.598-5.636 5.313-5.563 5.438.067.113 4.553-2.715 5.25-1.938.297.331-.331 1.049-.688 3-.261 1.427-.391 2.141-.125 2.75.648 1.485 3.01 1.662 7.5 2 1.655.125 2.448.085 2.625-.313.292-.656-1.438-1.524-2.063-3.563 0 0-.388-1.267 0-3.125 1.23-5.888 23.154-19.214 31.875-25.563 2.02-1.47 4.045-3.086 7.438-4.5 4.379-1.825 8.139-2.106 8.125-3-.014-.919-3.991-.569-6.313-3.313-.854-1.009-1.119-2.006-1.625-5.438-1.318-8.941-.602-9.552-1.55-15.313-.471-2.86-.827-3.803-.301-5.303.987-2.815 3.872-4.148 6.226-5.197 8.151-3.629 15.794-8.617 24.375-11.063 1.179-.336 3.642-1.001 4.938-3.125 1.169-1.917.308-3.252 1.063-5.063.991-2.379 3.667-2.924 10.25-4.875 2.537-.752 7.969-2.399 13.563-4.75 5.812-2.443 7.787-3.961 7.875-5.688.032-.635-.23-.51-1.438-3-1.859-3.833-2.788-5.75-2.656-8.063.024-.416.084-.901-.125-1-.686-.325-2.386 4.384-5.5 4.844-1.195.177-2.694-.259-3.531-1.26-2.577-3.082 2.106-10.319 4.25-12.833.573-.672 1.242-1.331 2.188-1.875 1.88-1.081 2.906-.584 4.813-1.125 3.214-.912 4.945-3.643 6.656-6.344 1.112-1.755 1.163-2.473.906-2.906-.366-.618-1.354-.643-2.438-.656-5.067-.062-7.61-.088-8.063.125-1.752.826-4.145 2.764-4.656 4.469-.027.09-.102.359-.344.563-.888.751-3.335.041-4.063-1.344-.839-1.596.759-3.794 1.5-4.813 2.311-3.177 4.416-2.997 7.083-5.302 4.506-3.895 5.055-10.079 5.167-11.333.119-1.345.475-5.35-1.333-9.417-.719-1.617-1.636-2.918-1.833-5.25-.225-2.658.714-3.933.167-4.333-1.086-.794-6.193 3.187-9.417 8.417-.952 1.544-2.584 4.567-3.333 8.583-.663 3.556-1.097 5.882-.278 8.201.104.294.294.775.153 1.34-.439 1.764-3.663 2.584-5.75 2.75-6.241.496-12.259-4.069-12.938-4.625-.117-.096-.386-.328-.813-.531-1.431-.683-2.79-.163-2.875-.406-.07-.2.743-.83 2.156-1.375 3.913-1.508 5.826.189 8.375-.688 3.548-1.22 4.94-6.263 5.719-9.083.926-3.356.049-3.637 1.25-8.542.719-2.934 1.356-4.156.667-4.958-1.053-1.225-4.444-.595-6.5 1.083-2.677 2.185-3.168 6.208-3.227 6.738-.134 1.216.032 1.656-.357 2.595-.687 1.658-2.278 2.877-3.917 3.333-.439.122-2.04.512-3.75-.083-1.198-.417-1.689-1.053-2.833-1-.884.041-1.531.464-1.833.667-1.35.906-1.782 2.351-2.25 3.917-.423 1.416-.735 2.459-.5 3.75.305 1.672 1.237 2.167 1.833 3.333 1.879 3.672-2.049 9.14-2.667 10-2.256 3.141-6.284 6.413-7.667 5.5-1.798-1.188.296-9.843 1.5-12.167.101-.196.705-1.328.583-2.75-.048-.564-.092-1.074-.417-1.292-.815-.547-2.524 1.336-5.292 3.021-3.399 2.069-3.867 1.082-6.708 3.021-3.013 2.056-4.418 4.484-4.75 5.083-1.19 2.149-.456 2.214-1.417 3.75-2.382 3.807-6.646 3.013-9.942 7.44-.307.412-.417.617-.569.591-1.32-.222-1.272-17.134 3.677-32.114 2.73-8.262 6.179-13.601 11.417-21.583 14.374-21.904 28.367-33.76 27.667-34.5-.672-.71-13.813 9.952-27.504 23.534-11.259 11.169-16.888 16.754-21.163 24.133-7.316 12.629-9.812 25.332-12.333 38.167-1.894 9.639-3.243 16.504-2.813 18.417.062.277.463 1.789-.313 2.938-.274.406-.601.626-.688.688-1.969 1.383-16.278 16.063-19.698 26.243-.13.387-.589 1.795-1.052 1.757-1.104-.089-.714-8.265-1.75-8.375-.593-.063-1.395 3.666-3 11.125-.478 2.222-.99 4.719-.188 5.125.338.171.748-.11 1.25-.375 2.675-1.41 4.375-.445 6.417-1.292 1.534-.636 1.632-1.619 3.667-4.375 2.133-2.89 4.033-4.51 7.833-7.75 3.176-2.708 5.061-3.838 7.125-3.708.454.029 1.494.109 2.146.875.799.94.626 2.456.125 3.438-.673 1.317-1.806 1.416-3.313 2.375-2.87 1.827-4.071 4.854-4.625 6.25-1.263 3.184-.122 3.875-1.438 6.5-.662 1.321-.764.773-4.438 4.75-3.751 4.062-5.627 6.092-5.938 6.813-.094.219-.338.817-.917 1.083-.827.38-2.072-.041-2.771-.813-.903-.997-.805-2.485-.667-4.583.145-2.199.563-2.837.063-3.375-.708-.76-2.014.012-3.229-1.021-.537-.457-.67-.938-1.042-.917-.513.03-.865.981-1.063 1.625-.664 2.161-.996 3.241-.563 5.75 1.187 6.874-15.079 29.28-23.125 36.5-.597.536-2.349 2.065-3 4.563-.456 1.748-.261 3.546.625 6.063 2.818 7.985 9.134 13.388 9.632 13z"/><path fill="url(#e)" d="M434.515 116.047c-.508 0-.903-.05-1.094-.08-1.315-.205-2.169-.739-3.073-1.304l-.179-.111c-2.139-1.332-3.819-2.169-5.047-2.78-1.878-.936-2.913-1.451-2.722-2.597.145-.862.928-1.105 1.686-1.34.48-.148 1.077-.333 1.806-.683.486-.233 1.498-.718 4.675-3.992a55.256 55.256 0 0 0 3.027-3.354c.764-.91 1.225-1.459 2.343-2.249 1.635-1.153 4.086-2.377 5.411-2.377.615 0 .938.266 1.101.489.506.695 0 1.388-.445 2-.212.29-.452.619-.67 1.003-.908 1.602-.766 3.001-.569 4.938.174 1.711.39 3.841-.159 6.62-.583 2.953-1.504 3.999-2.146 4.528-1.298 1.066-2.861 1.289-3.945 1.289z"/><path fill="#38669e" d="M423.239 109.315c-.156.937 2.422 1.429 7.379 4.516.943.587 1.712 1.106 2.933 1.297.328.051 2.656.38 4.365-1.026.471-.388 1.302-1.242 1.854-4.036 1.131-5.725-1.12-8.387.823-11.813.629-1.109 1.397-1.767 1.167-2.083-.387-.533-3.139.536-5.333 2.083-1.856 1.309-1.641 1.781-5.25 5.5-3.132 3.227-4.232 3.838-4.917 4.167-1.843.883-2.921.795-3.021 1.395z"/><path fill="#3e72b2" d="M435.552 61.19c-1.7 1.146 1.72 5.88.313 12.313-.245 1.122-.578 2.021-.188 2.313.802.599 4.405-1.557 6-4.875 1.079-2.244.33-3.128 1.875-6.313.615-1.268 1.116-1.914.813-2.438-.47-.811-2.159-.103-5.438-.5-2.521-.305-2.813-.879-3.375-.5zM434.515 112.362c-.275 0-.472-.027-.525-.036-.549-.085-.894-.291-1.688-.788l-.186-.116a55.498 55.498 0 0 0-3.156-1.824c.933-.668 2.23-1.789 4.252-3.873a58.346 58.346 0 0 0 3.207-3.553c.205-.244.368-.439.515-.605.003.822.085 1.622.165 2.413.164 1.619.334 3.294-.108 5.534-.312 1.581-.697 2.252-.876 2.399-.474.391-1.206.449-1.6.449z"/><g fill="#bb8135"><path d="M192.123 233.62c-1.317 0-2.564-.295-3.097-.421-6.417-1.517-10.902-8.023-13.058-11.15a209.863 209.863 0 0 1-10.62-17.136c-.538-.966-.523-2.16.037-3.113s1.593-1.545 2.694-1.545c.351 0 .697.059 1.03.175 2.675.93 9.447 2.218 15.201 2.218 2.246 0 4.129-.203 5.446-.587 1.67-.597 5.688-3.127 6.086-4.379-.267-1.04-2.041-2.639-3.329-3.22-13.826-6.23-22.96-10.347-24.472-10.671-.87-.154-3.225-.571-7.745-.571-4.974 0-11.109.494-18.234 1.467-3.533.482-7.382 1.092-11.457 1.738-10.934 1.732-23.326 3.696-33.291 3.696-3.801 0-6.978-.275-9.711-.841-2.982-.617-9.988-2.575-10.611-7.414-.09-.696-.025-1.303.043-1.945a20.01 20.01 0 0 0 .124-3.043 4.469 4.469 0 0 1-.943.1c-6.049.001-13.041-12.793-15.586-28.52-1.349-8.333-1.317-16.211-1.286-23.83.008-1.998.043-3.65.074-5.093.091-4.239.136-6.366-.635-9.931-.845-3.909-2.122-9.816-6.572-14.687-2.477-2.711-5.696-4.853-8.047-6.417-3.014-2.004-5.616-3.736-4.345-6.518.279-.611.879-1.421 2.15-1.812 7.449-2.289 11.817-3.583 15.002-3.583 1.783 0 3.212.408 4.37 1.247 2.584 1.872 3.393 4.571 3.928 6.358 2.438 8.136 4.248 14.18 5.568 19.374 1.639-6.11.795-21.608-5.03-33.842-2.129-4.471-4.043-6.613-6.069-8.882-2.45-2.742-5.226-5.85-8.343-12.947-3.604-8.202-6.931-18.641-2.315-21.793a4.37 4.37 0 0 1 2.509-.769c1.863 0 3.536 1.015 6.308 2.697 2.322 1.409 5.502 3.339 10.019 5.396 4.279 1.948 6.579 2.563 8.428 3.058 2.017.54 3.76 1.005 6.569 2.731 7.917 4.863 11.752 11.846 15.813 19.238 2.479 4.512 3.519 7.393 4.525 10.179.974 2.696 1.98 5.483 4.425 10.032 2.466 4.589 5 8.477 6.931 11.041-.087-.788-.184-1.606-.277-2.396-.607-5.134-1.44-12.165-1.234-20.064.086-3.297.809-6.396 2.149-9.208 1.668-3.5 5.208-9.371 10.181-9.371.118 0 .236.003.354.01 2.986.173 4.559 2.355 5.946 4.282 1.325 1.839 2.827 3.925 5.937 5.623.709.387 1.895 1.035 2.363 1.035.177-.101.638-.773.943-1.219.933-1.364 2.211-3.231 4.769-3.937a4.634 4.634 0 0 1 1.252-.186c.285 0 .557.032.833.096 4.182.979 4.67 7.93 3.684 12.319-.63 2.805-1.872 4.674-2.967 6.322-1.703 2.563-3.246 4.024-4.88 5.571-1.304 1.234-2.781 2.633-4.672 4.917-1.753 2.119-2.187 2.974-2.286 3.211.027.753.58 1.759 1.465 2.663 1.311 1.34 3.154 2.275 4.483 2.275.195 0 .37-.021.52-.063.226-.063.361-.161.844-.552l.137-.111c.262-.211 6.52-5.206 14.994-7.238 1.886-.452 3.836-.92 5.816-.92h.043a22.4 22.4 0 0 1-.355-.899c-1.944-5.231-1.963-11.096-.057-17.429 2.596-8.626 9.519-17.861 15.687-17.861.502 0 .997.061 1.469.179 2.904.731 5.352 3.83 5.574 7.055.157 2.294-.896 3.841-1.664 4.971-.37.543-.688 1.012-.888 1.538-.897 2.373.928 5.641 2.136 7.803 1.876 3.357 3.81 6.643 5.681 9.821 3.942 6.697 7.666 13.023 10.675 19.638 1.849 4.063 4.247 10.498 3.218 14.725 3.228 1.256 7.175 3.842 10.227 7.944 4.665 6.271 7.267 15.822 3.214 21.944a7.882 7.882 0 0 1-1.137 1.37c-.226.227-.524.527-1.011 1.097a28.14 28.14 0 0 0-5.131 8.886v4.827c11.293 6.191 16.363 11.589 15.928 16.924-.017.207-.05.484-.092.827-.18 1.449-.514 4.146.007 7.58.249 1.643.34 2.081.659 2.612 1.08 1.8 3.651 2.761 5.718 3.533.661.247 1.269.44 1.806.612 1.947.622 4.154 1.327 4.613 3.77.272 1.447-.259 2.861-1.579 4.201-16.084 16.32-25.041 19.283-25.415 19.401-1.978.626-3.502.968-4.727 1.243-2.017.452-3.234.725-5.233 1.924-4.65 2.787-6.708 5.472-6.685 6.897l.004.146c.026.711.088 2.376-1.114 3.795-.695.811-2.019 1.782-4.409 1.782zM74.061 122.348c.418 2.271 1.074 4.099 2.381 4.89.962.582 2.423.797 3.382.805h.001c1.165 0 1.783-.259 2.907-.728 1.114-.465 2.501-1.044 4.643-1.468a22.484 22.484 0 0 1 1.712-.271c-1.485-1.302-3.632-2.615-5.662-2.615-.225.003-.409.013-.628.023-.529.025-1.226.058-2.096.058-.82 0-1.628-.028-2.47-.086-1.736-.12-3.055-.211-4.17-.608z"/><path d="M50.057 180.77c-3.242 0-5.021-.759-6.743-1.493-3.986-1.7-7.11-5.96-7.527-8.873-.649-4.543-.4-10.311.832-19.287.511-3.725 1.855-5.613 3.995-5.613.933 0 1.801.427 2.382 1.172.65.834 1.296 1.94 2.116 3.34 2.353 4.024 5.909 10.106 12.76 15.214 4.725 3.523 8.995 5.463 12.022 5.463.26 0 .513-.015.75-.044l.174-.021.188-.001a2.916 2.916 0 0 1 2.878 2.416 2.908 2.908 0 0 1-1.879 3.242c-2.578.932-9.908 2.769-13.5 3.461-3.63.698-6.314 1.024-8.448 1.024.001 0 .001 0 0 0zM28.534 141.098c-5.045 0-10.794-9.521-11.896-11.429-2.03-3.518-4.613-9.009-6.587-20.347-.033-.187-3.174-18.729-.657-22.205a3.06 3.06 0 0 1 2.042-1.254l.203-.029.228-.002c2.437 0 3.162 1.947 4.913 6.649 1.362 3.658 4.552 12.224 7.194 13.131a6.628 6.628 0 0 0 2.137.377c.158 0 .281-.008.363-.015.383-.138.631-.343 1.122-.765.352-.303.751-.647 1.267-.988 1.546-1.024 3.42-1.544 5.568-1.544 1.4 0 3.668.234 6.526 1.35 3.531 1.379 6.274 4.055 9.467 9.237 2.902 4.709 11.909 20.429 5.98 24.985-.967.743-2.242 1.12-3.79 1.12-4.068 0-10.128-2.696-13.208-4.508l-.161-.096c-.714-.423-1.91-1.132-3.031-1.132a2.45 2.45 0 0 0-.519.054c-.847.184-1.503.815-1.719 1.023-.819.787-1.041 1.589-1.297 2.518-.302 1.095-.76 2.75-2.517 3.53a3.968 3.968 0 0 1-1.628.34zM37.305 66.776c-1.539 0-2.979-.094-4.279-.28-5.341-.763-6.918-3.743-8.589-6.897-.872-1.646-1.86-3.512-3.605-5.708-2.914-3.668-7.099-6.059-11.146-8.371-3.232-1.846-6.285-3.589-8.48-5.897-1.23-1.291-1.552-3.079-.816-4.552 1.531-3.071 8.008-6.378 14.438-7.37.483-.075 1.02-.111 1.642-.111 3.075 0 8.061.968 10.774 2.084.291-.185.799-.687 1.681-1.934.157-.222.268-.395.356-.533.33-.513.781-1.215 1.801-1.702a4.625 4.625 0 0 1 2.009-.443c2.015 0 3.822 1.163 4.842 2.251 2.057 2.195 2.027 5.027 2.016 6.093-.034 3.251-.202 5.812-.351 8.071-.241 3.655-.399 6.07.167 8.828.383 1.865.686 3.087 1.652 4.335 1.711 2.209 4.715 3.551 5.58 3.551l.209-.031.238.001c1.29 0 2.894.555 3.528 2.111.782 1.912-.167 3.996-2.208 4.845-1.918.8-6.844 1.659-11.459 1.659zM107.447 64.933c-4.4-.001-9.055-12.667-9.101-12.795-1.378-3.792-1.677-6.176-1.895-7.917-.216-1.728-.325-2.596-1.339-4.207-1.556-2.47-4.309-4.937-6.319-6.737-2.436-2.182-3.547-3.177-3.515-4.893a3.017 3.017 0 0 1 1.087-2.267c.554-.461 1.242-.694 2.046-.694 2.793 0 21.581 4.632 26.789 12.421.611.914 3.148 6.447.452 10.682-.466.731-.91 1.124-1.339 1.504-.214.189-.492.435-.887.826-.819.812-2.988 2.961-3.676 4.805-.592 1.588-.079 3.213.296 4.4.735 2.327.271 3.88-1.382 4.616l-.551.246z"/></g><path fill="url(#f)" d="M167.128 204.079a.542.542 0 0 1 .633-.782c4.662 1.44 15.965 3.182 21.787 1.485.918-.268 8.712-3.997 8.106-7.493-.414-2.389-3.269-4.642-4.978-5.412-15.659-7.057-23.489-10.585-25.125-10.875-2.362-.419-9.367-1.517-26.875.875-16.557 2.262-40.35 7.35-53.5 4.625-.455-.094-7.952-1.713-8.375-5-.113-.875.278-1.85.188-4.75-.048-1.524-.185-2.22-.688-2.625-.855-.69-2.207-.086-2.875 0-3.36.431-10.326-9.601-13-26.125-1.312-8.105-1.28-15.854-1.25-23.375.032-7.883.496-10.439-.625-15.625-.902-4.172-2.284-10.565-7.25-16-5.062-5.541-12.48-8.59-11.906-9.844.082-.178.291-.246.406-.281 9.676-2.973 14.562-4.425 16.875-2.75 1.77 1.282 2.376 3.209 2.875 4.875 4.676 15.609 7.014 23.414 8 32.25.588 5.268.917 10.289 4.422 12.41 1.922 1.163 4.396 1.211 4.828 1.215 3.14.026 3.998-1.433 8.125-2.25 3.872-.767 5.376.069 5.75-.75.798-1.746-4.985-7.845-10.375-7.75-.78.014-2.381.172-4.875 0-2.178-.15-3.281-.236-4-.75-.605-.433-1.848-1.649-1.75-7.375.054-3.153.081-4.729.875-7.625 1.913-6.979.838-23.221-5.188-35.875-4.943-10.381-8.878-9.232-14.375-21.75-.332-.757-6.877-15.878-3.313-18.313 2.042-1.394 5.426 2.719 16.063 7.563 9.001 4.098 9.781 2.611 14.688 5.625 7.277 4.47 10.863 10.999 14.813 18.188 4.765 8.674 3.874 10.765 8.938 20.188 4.069 7.572 10.101 16.377 11.938 15.563 2.007-.89-1.584-13.013-1.188-28.25.03-1.16.149-4.44 1.875-8.063.387-.812 3.804-7.982 7.813-7.75 3.48.201 3.743 5.769 10.688 9.563 1.723.941 3.296 1.772 4.75 1.188 2.163-.869 2.594-4.279 5.438-5.063.383-.106.556-.093.688-.063 1.69.396 2.409 5.171 1.563 8.938-.505 2.248-1.48 3.746-2.563 5.375-2.821 4.246-5.023 4.991-9.375 10.25-2.799 3.383-2.926 4.327-2.938 4.875-.092 4.221 6.077 8.86 10.063 7.75.88-.245 1.394-.698 2-1.188 0 0 5.925-4.781 13.875-6.688 3.101-.744 5.915-1.419 8.625-.063 1.008.505 1.123 1.163 4.313 3.844.716.602 4.872 3.99 5.188 3.531.404-.587-7.611-4.764-10.625-12.875-2.546-6.852-.704-13.287 0-15.625 2.525-8.389 9.461-16.83 13.75-15.75 1.791.451 3.308 2.609 3.438 4.5.148 2.153-1.558 3.152-2.375 5.313-1.337 3.535.756 7.402 2.313 10.188 5.759 10.308 11.862 19.604 16.25 29.25 0 0 5.501 12.094 2.125 14.375-.33.223-1.651.897-1.563 1.125.062.159.775.018.875 0 1.557-.28 7.884 1.735 12.313 7.688 3.871 5.203 6.463 13.645 3.125 18.688-.54.816-.725.772-1.938 2.188a30.71 30.71 0 0 0-4.419 6.812 14.478 14.478 0 0 0-1.393 6.217v1.78c0 1.493.819 2.865 2.123 3.593 11.614 6.478 14.055 10.893 13.814 13.847-.089 1.098-.754 4.506-.063 9.063.261 1.717.404 2.601 1.032 3.646 1.59 2.649 4.797 3.847 7.156 4.729 2.604.973 4.423 1.177 4.625 2.25.134.71-.519 1.39-.813 1.688-15.775 16.006-24.25 18.687-24.25 18.688-5.095 1.612-6.794 1.179-10.563 3.438-1.166.699-8.136 4.876-8.063 9.375.009.53.121 1.404-.438 2.063-1.091 1.287-3.805.646-4.688.438-5.198-1.228-9.218-6.87-11.375-10a206.733 206.733 0 0 1-10.175-16.365z"/><path fill="url(#g)" d="M70.04 173.618c.096-.035.055-.169-.046-.157-4.367.543-9.947-2.328-14.816-5.959-9.64-7.188-13.208-16.25-15.417-19.083-.296-.379-.989.573-1.333 3.083-1.167 8.5-1.453 14.167-.833 18.5.27 1.887 2.732 5.344 5.833 6.667 2.833 1.208 4.798 1.976 13.542.292 3.44-.663 10.621-2.458 13.07-3.343z"/><path fill="url(#h)" d="M28.01 138.169c1.222-.543.556-3.15 3-5.5.382-.367 1.484-1.403 3.083-1.75 2.47-.536 4.698.881 5.75 1.5 3.776 2.221 11.488 5.386 13.833 3.583 3.222-2.476-2.816-15-6.667-21.25-3.205-5.201-5.529-7.086-8.083-8.083-.901-.352-6.055-2.365-9.5-.083-1.119.741-1.699 1.698-3.333 2.167 0 0-1.711.342-4.042-.458-5.959-2.048-9.854-19.822-11.208-19.625-.953.139-.892 9.302 1 20.167 1.913 10.986 4.39 16.194 6.25 19.417 3.487 6.04 8.056 10.741 9.917 9.915z"/><path fill="url(#i)" d="M2.26 37.669c-.209-.219-.601-.796-.333-1.333.88-1.766 6.21-4.888 12.333-5.833 2.485-.384 8.38.722 11 1.833.182.077.547.241 1.042.229 1.712-.04 3.195-2.138 3.938-3.188.614-.869.643-1.112 1.063-1.313 1.072-.511 2.664.229 3.562 1.188 1.253 1.337 1.26 3.209 1.25 4.125-.089 8.542-1.15 12.515-.125 17.5.383 1.865.777 3.679 2.188 5.5 2.239 2.892 6.343 4.902 8.188 4.625.171-.026.866.051.984.341.278.682-.477 1.078-.672 1.159-1.8.747-8.781 1.969-14.25 1.188-6.104-.872-5.062-4.875-10.375-11.563-5.671-7.137-15.314-9.75-19.793-14.458z"/><path fill="url(#j)" d="M96.51 38.502c2.588 4.11.845 5.362 3.5 12.667 2.402 6.608 5.869 11.197 6.5 10.917.54-.24-1.807-3.689-.417-7.417.906-2.43 3.355-4.856 4.337-5.828 1.134-1.123 1.415-1.187 1.83-1.838 1.819-2.856-.122-7.143-.417-7.583-4.667-6.979-24.046-11.64-24.667-11.124-.812.675 6.156 5.159 9.334 10.206z"/><path fill="#1e3e63" d="M107.569 149.189v-23.207h7.655c2.246 0 3.914.142 5.1.433 1.278.314 2.329.966 3.123 1.936.825 1.005 1.226 2.511 1.226 4.601 0 1.511-.318 2.572-.972 3.241-.189.193-.423.37-.704.53.46.253.83.549 1.114.89.697.835 1.05 2.074 1.05 3.681v1.993c0 1.63-.24 2.833-.733 3.678-.515.885-1.33 1.494-2.42 1.808-.971.279-2.832.415-5.693.415h-8.746zm8.471-5.439c.383-.051.527-.117.562-.136-.011-.01.09-.25.09-.96v-2.006c0-.614-.058-.899-.092-1.013a3.338 3.338 0 0 0-.56-.095zm0-9.321c.304-.009.46-.052.527-.079.041-.152.125-.607.125-1.792 0-.766-.11-.97-.114-.978-.063-.111-.106-.124-.119-.127a2.253 2.253 0 0 0-.419-.058zM125.671 149.189v-23.206h13.886v6.005h-4.877v2.376h4.565v5.793h-4.565v3.028h5.363v6.004zM157.779 149.189v-17.201h-3.294v-6.005h13.467v6.005h-3.307v17.201z"/><path fill="url(#k)" d="M108.369 126.833h6.855c2.165 0 3.805.137 4.921.411 1.115.274 2.015.83 2.701 1.666s1.029 2.184 1.029 4.042c0 1.257-.242 2.133-.726 2.628-.484.496-1.439.876-2.864 1.142 1.588.292 2.666.777 3.231 1.456.565.678.849 1.717.849 3.117v1.993c0 1.454-.204 2.53-.612 3.23s-1.058 1.178-1.95 1.436c-.892.257-2.72.385-5.483.385h-7.948v-21.506zm6.871 3.68v4.782c.294-.009.522-.014.685-.014.674 0 1.104-.135 1.289-.405s.277-1.043.277-2.318c0-.673-.076-1.145-.228-1.415-.153-.27-.351-.44-.596-.511s-.72-.111-1.427-.119zm0 8.129v6.017c.968-.026 1.586-.15 1.853-.372.266-.221.4-.766.4-1.634v-2.006c0-.921-.12-1.479-.359-1.674-.24-.194-.871-.305-1.894-.331z"/><path fill="url(#l)" d="M126.522 126.833h12.184v4.304h-4.877v4.078h4.565v4.091h-4.565v4.729h5.363v4.304h-12.671v-21.506z"/><path fill="url(#m)" d="M167.304 126.833v4.304h-3.307v17.202h-5.57v-17.202h-3.294v-4.304z"/><path fill="#1e3e63" d="m149.185 149.189-.356-3.865h-.987l-.399 3.865h-8.471l3.654-23.207h10.884l4.097 23.207zm-.727-9.378c-.087-.666-.173-1.371-.26-2.115a88.2 88.2 0 0 0-.266 2.115z"/><path fill="url(#n)" d="m152.872 126.833 3.797 21.505h-6.785l-.356-3.865h-2.375l-.399 3.865h-6.864l3.386-21.505zm-3.519 13.828c-.336-2.436-.673-5.447-1.011-9.033-.676 4.118-1.101 7.129-1.274 9.033z"/><path fill="#1e3e63" d="M177.165 149.641c-2.057 0-3.85-.308-5.329-.914-1.576-.646-2.638-1.514-3.158-2.579-.49-1.004-.729-2.347-.729-4.106v-2.258h6.002l-.1-.05c-1.872-.948-3.087-1.625-3.719-2.071-.699-.492-1.28-1.174-1.729-2.025-.451-.854-.679-1.935-.679-3.213 0-1.847.322-3.192.984-4.11.651-.902 1.685-1.605 3.073-2.092 1.312-.459 2.901-.692 4.725-.692 1.985 0 3.712.253 5.133.752 1.542.542 2.556 1.24 3.1 2.134.521.856.775 2.189.775 4.075v1.701h-6.551c2.954 1.384 4.813 2.531 5.675 3.498.998 1.119 1.483 2.803 1.483 5.149 0 1.715-.274 2.973-.838 3.848-.579.895-1.605 1.603-3.139 2.164-1.431.523-3.106.789-4.979.789zm-.614-5.367c.032 0 .137.026.336.026.215 0 .357-.042.424-.124.05-.062.166-.259.166-.766 0-1.438-.318-1.785-.382-1.84a5.764 5.764 0 0 0-.659-.447v2.128c0 .698.079.958.105 1.025l.01-.002zm.198-13.402c-.258 0-.318.073-.341.101-.034.042-.145.215-.145.71 0 .705.142 1.013.227 1.134.021.031.123.168.536.42v-1.49c0-.506-.044-.753-.072-.857a1.005 1.005 0 0 0-.205-.018z"/><path fill="url(#o)" d="M184.663 133.342h-6.786v-1.594c0-.744-.087-1.217-.261-1.421s-.463-.305-.868-.305c-.44 0-.772.137-.998.412-.226.274-.338.691-.338 1.25 0 .717.127 1.258.38 1.622.242.363.93.802 2.065 1.314 3.252 1.478 5.301 2.69 6.146 3.638s1.267 2.475 1.267 4.583c0 1.532-.234 2.661-.703 3.387s-1.374 1.335-2.716 1.826c-1.343.492-2.904.737-4.687.737-1.956 0-3.625-.284-5.007-.85-1.383-.567-2.289-1.289-2.716-2.165-.428-.877-.642-2.121-.642-3.733v-1.408h6.787v2.617c0 .806.095 1.324.286 1.554s.529.345 1.016.345c.486 0 .847-.146 1.085-.438.237-.292.356-.726.356-1.302 0-1.266-.226-2.094-.677-2.484-.463-.39-1.603-1.041-3.419-1.953-1.817-.921-3.02-1.589-3.61-2.006-.59-.416-1.079-.992-1.467-1.727s-.581-1.674-.581-2.816c0-1.647.275-2.851.824-3.613s1.437-1.357 2.664-1.787c1.226-.429 2.708-.644 4.443-.644 1.898 0 3.514.234 4.851.704 1.336.47 2.222 1.061 2.656 1.773.434.713.651 1.924.651 3.633v.851z"/><path fill="#4874ab" d="M157.493 160.909c-1.563 0-2.994-.204-4.254-.604-1.313-.419-2.392-1.064-3.207-1.917-.838-.877-1.346-1.858-1.509-2.915-.145-.937-.215-2.5-.215-4.779v-3.679c0-2.224.067-3.766.206-4.713.155-1.067.643-2.05 1.45-2.919.785-.845 1.844-1.498 3.149-1.94 1.257-.427 2.731-.643 4.38-.643 1.565 0 2.996.204 4.254.605 1.313.418 2.391 1.063 3.206 1.916.838.877 1.346 1.858 1.509 2.915.145.938.215 2.501.215 4.78v3.679c0 2.221-.067 3.762-.206 4.712-.156 1.069-.644 2.051-1.45 2.92-.784.845-1.844 1.498-3.149 1.94-1.257.426-2.73.642-4.379.642zm-.175-5.351a.95.95 0 0 0 .158.011c.148 0 .202-.025.202-.025h-.001c-.028 0 .096-.385.096-2.034v-9.883c0-.954-.069-1.341-.104-1.477a.864.864 0 0 0-.141-.01c-.055 0-.186.005-.228.051l.004-.003c.017 0-.09.321-.09 1.438v10.042c0 1.23.067 1.716.104 1.89z"/><path fill="#4874ab" d="M166.944 160.458v-14.412h-1.42v-4.491h1.432c.028-1.025.108-1.453.171-1.691.152-.576.512-1.082 1.071-1.504.509-.384 1.174-.662 2.034-.849.797-.174 1.971-.259 3.587-.259h3.384v8.794h-1.643v14.412z"/><path fill="url(#p)" d="M165.827 150.694c0 2.161-.066 3.691-.197 4.589-.131.899-.542 1.72-1.232 2.464s-1.624 1.315-2.798 1.714c-1.175.398-2.544.598-4.107.598-1.483 0-2.815-.188-3.996-.564s-2.13-.941-2.849-1.694c-.719-.752-1.147-1.572-1.284-2.458-.137-.885-.205-2.435-.205-4.649v-3.679c0-2.161.065-3.691.197-4.59.131-.898.542-1.72 1.232-2.464s1.623-1.315 2.798-1.713 2.544-.598 4.107-.598c1.483 0 2.815.188 3.996.564s2.131.941 2.85 1.693c.719.753 1.146 1.572 1.284 2.458.137.886.205 2.436.205 4.649v3.68zm-7.204-7.067c0-1-.072-1.64-.214-1.919-.143-.279-.436-.418-.881-.418-.376 0-.665.113-.864.338-.2.226-.299.893-.299 1.999v10.042c0 1.249.065 2.019.197 2.311.131.292.437.438.916.438.491 0 .805-.168.941-.505.137-.336.206-1.138.206-2.404v-9.882z"/><path fill="url(#q)" d="M176.352 138.102v2.723c-1.426 0-2.268.051-2.524.153-.257.102-.385.392-.385.87v.558h2.91v2.79h-1.643v14.412h-6.914v-14.412h-1.42v-2.79h1.42c0-1.16.051-1.935.154-2.325s.356-.737.761-1.043c.405-.305.973-.538 1.703-.697s1.865-.239 3.405-.239z"/><path fill="#3970b2" d="M117.393 125.159c-1.67 0-3.198-.202-4.543-.6-1.399-.415-2.55-1.054-3.419-1.9-.903-.878-1.451-1.863-1.627-2.928-.157-.939-.233-2.506-.233-4.788v-3.679c0-2.228.073-3.772.223-4.722.169-1.075.695-2.062 1.564-2.933.837-.838 1.968-1.485 3.359-1.923 1.341-.423 2.915-.637 4.677-.637 1.672 0 3.2.202 4.543.6 1.398.414 2.549 1.053 3.419 1.899.903.878 1.451 1.864 1.628 2.928.157.94.233 2.507.233 4.789v3.679c0 2.225-.073 3.77-.223 4.721-.169 1.077-.696 2.063-1.565 2.933-.837.838-1.967 1.485-3.358 1.924-1.343.423-2.917.637-4.678.637zm-.255-5.361c.044.01.12.021.236.021.203 0 .271-.037.271-.038-.02 0 .113-.374.113-2.021v-9.883c0-1.005-.082-1.372-.116-1.48a.084.084 0 0 1-.019.002c-.033 0-.097-.008-.194-.008-.073 0-.25.007-.313.074l.004-.003c.019 0-.093.317-.093 1.417v10.042c0 1.234.073 1.712.111 1.877zM129.766 124.708v-23.207h8.662c2.194 0 3.845.124 5.049.377 1.279.269 2.231.662 2.913 1.201.705.558 1.19 1.248 1.444 2.052.231.731.343 1.791.343 3.238v1.873c0 1.55-.235 2.679-.719 3.453-.501.801-1.385 1.409-2.627 1.807-1.144.367-2.576.545-4.377.545h-1.231v8.661zm9.457-14.05c.49-.032.625-.143.63-.147-.002 0 .138-.197.138-.946v-1.767c0-.588-.124-.744-.125-.746-.002 0-.145-.083-.643-.134zM150.064 124.708v-23.207h14.635v6.005h-5.178v2.376h4.846v5.793h-4.846v3.028h5.694v6.005zM177.903 124.708l-2.615-6.338v6.338h-8.186v-23.207h7.886l2.947 6.564v-6.564h8.186v23.207z"/><path fill="url(#r)" d="M126.144 106.615c-.147-.885-.608-1.705-1.382-2.458-.774-.752-1.796-1.317-3.068-1.693-1.271-.376-2.706-.564-4.302-.564-1.683 0-3.157.199-4.422.598-1.265.398-2.27.97-3.013 1.713-.743.744-1.185 1.565-1.326 2.464-.142.899-.212 2.429-.212 4.59v3.679c0 2.214.074 3.764.221 4.649.147.886.608 1.705 1.382 2.458.773.753 1.796 1.317 3.067 1.694 1.271.376 2.705.564 4.302.564 1.683 0 3.156-.199 4.422-.598 1.265-.398 2.269-.97 3.012-1.714s1.185-1.565 1.327-2.464c.141-.898.212-2.429.212-4.589v-3.679c.001-2.214-.072-3.764-.22-4.65zm-7.536 11.145c0 1.267-.074 2.068-.221 2.404-.147.337-.485.505-1.013.505-.516 0-.845-.146-.986-.438s-.212-1.063-.212-2.311v-10.042c0-1.106.107-1.773.323-1.999.214-.226.525-.338.93-.338.479 0 .795.139.949.418s.23.919.23 1.919z"/><path fill="url(#s)" d="M147.023 105.387c-.203-.642-.59-1.189-1.161-1.641s-1.425-.797-2.561-1.036-2.761-.358-4.874-.358h-7.812v21.505h7.756v-8.661h2.082c1.695 0 3.067-.168 4.118-.505 1.05-.336 1.771-.819 2.165-1.448.393-.629.589-1.629.589-3.002v-1.873c.002-1.346-.099-2.339-.302-2.981zm-6.182 4.177c0 .797-.138 1.322-.415 1.574s-.771.378-1.483.378c-.16 0-.35-.004-.571-.013v-5.473c1.007 0 1.67.111 1.99.332.319.222.479.7.479 1.435z"/><path fill="url(#t)" d="M150.915 102.352h12.933v4.303h-5.177v4.078h4.846v4.091h-4.846v4.729h5.693v4.304h-13.449z"/><path fill="url(#u)" d="M185.271 102.352v21.505h-6.799l-4.034-9.776v9.776h-6.486v-21.505h6.486l4.348 9.683v-9.683z"/><path fill="#213e5f" d="M117.589 173.344v-7.997c0-1.174-.141-1.524-.17-1.585l-.006.001c-.028 0-.158-.042-.459-.075v9.656h-9.384v-23.207h6.289c3.706 0 6.158.104 7.497.316 1.464.233 2.681.842 3.617 1.81.964.997 1.453 2.543 1.453 4.596 0 1.925-.361 3.225-1.104 3.973-.218.219-.485.41-.803.574.17.103.32.211.451.326.645.569 1.044 1.105 1.222 1.64.109.329.235 1.018.235 3.449v6.522h-8.838zm-.635-14.784c.274-.03.433-.072.519-.103.038-.089.117-.349.117-.947v-1.182c0-.501-.111-.626-.112-.627-.029-.018-.161-.088-.523-.136v2.995zM138.879 173.344l-.412-3.865h-1.229l-.462 3.865h-9.718l4.229-23.207h12.509l4.741 23.207zm-.84-9.379c-.114-.753-.228-1.557-.341-2.41a80.122 80.122 0 0 0-.354 2.41zM157.359 173.796c-1.395 0-2.722-.251-3.945-.747-1.246-.504-2.218-1.152-2.889-1.924-.681-.784-1.114-1.629-1.288-2.512-.158-.798-.235-1.941-.235-3.491v-6.389c0-2.166.163-3.716.499-4.741.378-1.156 1.367-2.151 3.025-3.042 1.56-.838 3.577-1.264 5.996-1.264 2.362 0 4.365.365 5.954 1.085 1.663.754 2.778 1.696 3.315 2.8.513 1.054.762 2.494.762 4.404v1.78h-9.385v-2.803c0-1.338-.092-1.79-.127-1.915a.091.091 0 0 1-.021.002c-.04 0-.125-.013-.261-.013-.188 0-.264.031-.279.038.019.001-.093.33-.093 1.556v3.48h10.166v13.244h-6.224l-.428-.93a5.838 5.838 0 0 1-1.393.818c-.898.374-1.957.564-3.149.564zm1.18-5.365c.021 0 .111.024.275.024.209 0 .373-.038.405-.095.019-.033.186-.356.186-1.592v-1.7h-1.019v1.873c0 1.195.142 1.479.148 1.491l.005-.001zM171.097 173.344v-23.206h14.513v6.005h-5.129v2.376h4.8v5.793h-4.8v3.027h5.64v6.005z"/><path fill="url(#v)" d="m143.103 150.988 4.394 21.505h-7.852l-.412-3.865h-2.749l-.462 3.865h-7.943l3.919-21.505zm-4.072 13.828c-.389-2.436-.779-5.447-1.171-9.033-.783 4.118-1.274 7.129-1.475 9.033z"/><path fill="url(#w)" d="M108.42 150.988h5.438c3.626 0 6.08.102 7.364.305 1.284.204 2.33.724 3.139 1.561s1.214 2.172 1.214 4.005c0 1.673-.286 2.798-.858 3.374s-1.697.921-3.377 1.036c1.521.274 2.543.642 3.066 1.102.523.461.848.884.976 1.269s.192 1.446.192 3.182v5.672h-7.136v-7.146c0-1.151-.125-1.864-.374-2.139-.249-.274-.903-.412-1.962-.412v9.697h-7.683v-21.506zm7.683 3.679v4.782c.864 0 1.469-.086 1.816-.259.346-.173.52-.732.52-1.68v-1.182c0-.682-.167-1.129-.502-1.342s-.946-.319-1.834-.319z"/><path fill="url(#x)" d="M167.702 158.905h-7.684v-1.953c0-1.23-.073-2.001-.219-2.311s-.493-.465-1.04-.465c-.474 0-.797.133-.967.398-.171.266-.256.948-.256 2.045v10.321c0 .965.085 1.601.256 1.906.17.306.511.458 1.022.458.559 0 .94-.173 1.141-.518s.301-1.018.301-2.019v-2.55h-1.552v-3.268h8.998v11.543h-4.829l-.711-1.541a4.856 4.856 0 0 1-1.982 1.495c-.798.332-1.738.498-2.822.498-1.291 0-2.5-.228-3.626-.684s-1.982-1.021-2.566-1.694-.95-1.379-1.096-2.119c-.146-.739-.219-1.848-.219-3.327v-6.389c0-2.055.152-3.547.456-4.477s1.177-1.782 2.619-2.557 3.306-1.162 5.594-1.162c2.251 0 4.118.336 5.603 1.009 1.484.673 2.451 1.473 2.902 2.397.45.926.676 2.27.676 4.032v.932z"/><path fill="url(#y)" d="M171.948 150.988h12.812v4.304h-5.128v4.078h4.8v4.091h-4.8v4.729h5.64v4.304h-13.323v-21.506z"/></svg>