<svg xmlns="http://www.w3.org/2000/svg" viewBox="0 0 155.865 44.289"><path fill="#78776e" d="M82.641 29.18H70.626l8.322 14.032h12.039v-2.979c-.805-.252-1.426-.57-1.869-.95a7.092 7.092 0 0 1-1.237-1.393 7.71 7.71 0 0 1-.351-.507 9.433 9.433 0 0 1-.346-.634c-.001.001-4.543-7.569-4.543-7.569zm-17.885 0H54.108v7.697c0 .97-.199 1.752-.601 2.343-.402.593-1.085.909-2.057.952v3.04h15.965v-2.979c-1.054-.084-1.762-.41-2.124-.98-.356-.57-.535-1.383-.535-2.439V29.18zm-52.595 0a19.656 19.656 0 0 0 1.813 3.704c2.006 3.211 5.184 4.815 9.533 4.815 3.886 0 6.834-1.456 8.841-4.372a19.56 19.56 0 0 0 2.189-4.148l11.172-.017c-1.088 3.432-3.018 6.404-5.788 8.916-4.563 4.14-10.073 6.21-16.54 6.21-6.503 0-12.028-1.986-16.566-5.956C3.96 35.84 2.003 32.795.942 29.2l11.219-.02zm84.463-.019h10.643v7.653c0 1.057.178 1.869.54 2.439.356.57 1.064.896 2.124.98v2.979h-15.97v-3.04c.973-.043 1.66-.359 2.062-.952.397-.591.601-1.372.601-2.343v-7.716zm32.175 0h-12.531c.167.399.346.796.538 1.19a22.53 22.53 0 0 0 6.05 7.667 24.335 24.335 0 0 0 8.902 4.593 45.84 45.84 0 0 0 9.981 1.614c.463.041.927.064 1.39.064h1.395a62.34 62.34 0 0 0 3.992-.128c1.013-.084 2.017-.201 3.01-.349s1.971-.346 2.943-.601V32.885l-3.422.064c-.463 1.479-1.319 2.556-2.562 3.231a11.171 11.171 0 0 1-4.023 1.268 21.297 21.297 0 0 1-2.221.125c-4.731 0-8.555-1.826-11.468-5.479a21.74 21.74 0 0 1-1.974-2.933z"/><path fill="#bab6b1" d="M12.203 15.109a19.887 19.887 0 0 1 1.77-3.607c2.006-3.231 5.204-4.848 9.599-4.848 3.886 0 6.809 1.436 8.774 4.308a19.928 19.928 0 0 1 2.185 4.149s11.229 0 11.229-.002c-1.091-3.434-3.071-6.422-5.938-8.963C35.199 2.05 29.781 0 23.573 0 17.192 0 11.672 2.06 7.002 6.177c-2.856 2.522-4.84 5.499-5.949 8.932h11.15zm95.065 0H96.624V7.415c0-1.1-.178-1.892-.54-2.378-.356-.484-1.064-.812-2.124-.98V.95h15.97v3.043l-.764.127c-.672.125-1.141.443-1.39.95a5.36 5.36 0 0 0-.509 1.647v.758l.001 7.634zm19.84-.433a14.537 14.537 0 0 1 2.113-4.379c1.879-2.64 4.848-3.959 8.902-3.959 1.986 0 3.784.527 5.388 1.584s2.409 2.661 2.409 4.815a4.204 4.204 0 0 1-.285 1.108 5.018 5.018 0 0 1-.54.983l.454.283h3.821l6.495-6.809c-2.281-2.872-4.94-4.973-7.985-6.304C144.84.665 141.504 0 137.873 0c-5.958 0-11.321 1.882-16.097 5.64-3.24 2.554-5.381 5.709-6.419 9.469h11.635l.116-.433zm-62.352.433v-8.14h5.51c2.113 0 3.906.446 5.388 1.332 1.477.886 2.215 2.513 2.215 4.879 0 .714-.075 1.359-.226 1.932l10.894-.001c.197-.889.296-1.828.296-2.817-.214-3.97-1.787-6.834-4.721-8.586-2.938-1.752-6.157-2.651-9.665-2.694h-.158A.479.479 0 0 1 74.07.95H51.449v3.106c1.054.168 1.762.497 2.124.98.356.486.535 1.278.535 2.378v7.695h10.648z"/><path fill="#9f9d90" d="M149.37 15.109h-3.821l2.397 1.492zM12.161 29.2H.942C.314 27.072 0 24.752 0 22.239v-.061c0-2.539.351-4.895 1.054-7.068 0 0 11.152 0 11.15-.001-.826 2.234-1.239 4.611-1.239 7.13v-.061c-.001 2.476 1.196 7.022 1.196 7.022zm22.376-.02a19.233 19.233 0 0 0 1.202-5.482 4.77 4.77 0 0 0 .061-.761v-.759c0-.295-.01-.593-.031-.889-.02-.295-.031-.591-.031-.886a19.698 19.698 0 0 0-1.203-5.294h11.226c.668 2.104 1.003 4.375 1.003 6.814 0 2.606-.352 5.019-1.056 7.24l-11.171.017zm72.731-14.071v14.052H96.624V15.109zm19.721 0h-11.635c-.492 1.777-.738 3.69-.738 5.737 0 2.9.55 5.671 1.652 8.315v.018h12.531v-.018c-1.596-2.863-2.394-5.952-2.394-9.265 0-1.712.194-3.308.584-4.787zm-38.456 0a10.68 10.68 0 0 1-2.267 4.626c-1.711 2.05-3.942 3.496-6.686 4.341l3.061 5.103H70.626l-2.387-4.025h-3.483v4.026H54.107V15.11h10.648v4.026h5.194c1.986.043 3.799-.349 5.449-1.171 1.148-.576 1.897-1.526 2.244-2.852l10.891-.004z"/></svg>