<svg xmlns="http://www.w3.org/2000/svg" xml:space="preserve" viewBox="-22 283.2 566.9 226.8"><path d="M3.305 293.324v14.116h100.544v-14.116zm114.751 0v14.116h143.257s-14.662-14.116-33.97-14.116zm171.308 0v14.116h86.61l-5.1-14.116zm148.721 0-5.1 14.116h85.882v-14.116ZM3.305 320.828v14.116h100.544v-14.116zm114.751 0v14.116H277.89s-1.913-10.838-5.1-14.116zm171.308 0v14.116h96.172l-4.735-14.116zm138.43 0-4.736 14.116h95.717v-14.116Zm-395.62 27.504v14.116h43.534v-14.116zm114.752 0v14.116h43.533v-14.116zm85.882 0v14.116h43.532s2.733-7.468 2.733-14.116zm85.426 0v14.116h77.138l-5.1-14.116zm100.088 0-5.19 14.116h77.593v-14.116ZM32.175 375.835v14.117h43.533v-14.117zm114.751 0v14.117h111.2s9.29-7.286 12.295-14.117zm171.308 0v14.117h43.532v-7.833l2.733 7.833h79.688l3.005-7.833v7.833h43.533v-14.117h-81.692l-4.371 11.931-4.372-11.93zm-286.06 27.413v14.117h43.534v-14.117Zm114.752 0v14.117H270.33c-3.006-6.83-12.295-14.117-12.295-14.117Zm171.308 0v14.117h43.532v-14.117Zm51.456 0 5.282 14.117h59.744l5.009-14.117zm77.502 0v14.117h43.533v-14.117ZM32.175 430.752v14.116h43.533v-14.116Zm114.751 0v14.116h43.533v-14.116Zm85.882 0v14.116h46.265c0-6.648-2.733-14.116-2.733-14.116zm85.426 0v14.116h43.532v-14.116Zm61.292 0 5.1 14.116h40.072l5.1-14.116zm67.666 0v14.116h43.533v-14.116ZM4.125 458.256v14.116h100.453v-14.116zm113.931 0v14.116H272.79c3.278-3.278 5.1-14.116 5.1-14.116zm172.127 0v14.116h71.583v-14.116zm99.27 0 5.282 14.116h20.4l4.918-14.116zm57.74 0v14.116h72.402v-14.116ZM4.124 485.76v14.116h100.453V485.76zm113.931 0v14.116h109.196c19.399 0 33.97-14.116 33.97-14.116zm172.127 0v14.116h71.583V485.76zm109.196 0 5.01 14.116h.91l5.1-14.116zm47.813 0v14.116h72.403V485.76z" style="fill:#1f70c1;stroke-width:.91072547"/></svg>