<svg xmlns="http://www.w3.org/2000/svg" xml:space="preserve" width="620" height="274.3" viewBox="-201 259.7 620 274.3"><path d="M29.9 461.3c-.4 0-.8-.1-1.2-.3-38-18.4-57.6-39.9-56.7-62.1.7-18.3 15.6-35.6 43.2-50 26.1-13.6 63-24.5 106.6-31.3 1.5-.2 2.8.8 3 2.2.2 1.5-.8 2.8-2.2 3-88.3 14-143.9 43.2-145.2 76.3-.8 19.7 18.3 40 53.7 57.1 1.3.6 1.9 2.2 1.2 3.6-.4 1-1.4 1.5-2.4 1.5zM361 324.8h-.4c-28.1-4.6-57.7-7.7-88-9.1-1.5-.1-2.6-1.3-2.5-2.8.1-1.5 1.3-2.6 2.8-2.5 30.6 1.5 60.4 4.6 88.6 9.2 1.4.2 2.4 1.6 2.2 3.1-.3 1.2-1.4 2.1-2.7 2.1zM277.2 506.7H275c-1.5 0-2.7-1.2-2.7-2.7 0-1.5 1.2-2.7 2.7-2.7h2.2c142.5 0 255-37 256.4-84.6.5-16.7-12.9-33.6-38.7-48.9-25.7-15.3-62.6-28.3-106.7-37.6-1.4-.3-2.4-1.7-2.1-3.2.3-1.4 1.7-2.4 3.2-2.1 44.6 9.5 82 22.7 108.3 38.2 27.6 16.4 41.9 34.9 41.3 53.6-.8 25.3-28.8 48.4-78.7 65-48.3 16.2-113.3 25-183 25z" style="fill:red" transform="translate(-146.444 .01)"/><path d="m309.6 377.4 23.2 24.1-7.4-33.4 70.3-53.6-82.6 32.9-23.2-24.1 7.4 33.5-70.3 53.5z" style="fill:red" transform="translate(-146.444 .01)"/><path d="M237.4 435c1-5 2.8-4.2 7.9-5l4.7-.7-1.5 7.8-4.7.7c-5 .7-7.3 2.1-6.4-2.8zm-10.2-7.2-3.6 19.6c-1 5.4.6 7.1 5.8 6.3l29.8-4.7 6.4-34.4-29.8 4.7c-5.2.8-7.6 3.2-8.6 8.5zm189.4-30.9-.3 1.9 30.8-4.9c2.4-.4 4.8-2.8 5.3-5.5s-1.1-4.5-3.5-4.1l-7.9 1.2-12.6 2-3.2.5c-3.8.6-7.9 4.8-8.6 8.9zm-215.9 88.6.3-1.4c1.1.1 2.5.5 3.7.3l32-5c-1.2 6.4-9.6 8-22.5 10l-14.6 2.3-7.8 42.2 19.2-3c47.3-4.7 65.4-29.1 71.1-58.3l57.7-9.2 9.3-50 4.7-.8c5.1-.8 4.4-1.7 3.4 3.6l-8.5 45.8 41.4-6.6.6-3c3.1 1.4 6.8 1.9 10.6 1.3l71.6-11.4 6.7-36-4.6-3.3c4-4.8 7.2-10.6 8.1-15.5l1.1-5.7c3.6-21.2-16-26.8-24.9-25.4l-41.1 6.5c-7.3 1.2-15.3 6.2-21.1 12.9-5.4-5.3-13.7-7.4-18.6-6.6l-45.8 7.3 5.1 11.3 41.3-6.5c6-.9 9.9 1.4 11 6.1-.4 1.2-11 57.6-11 57.6l-14.8 2.3 7.9-42.6c1-5.3-.6-7.1-5.8-6.3l-28.4 4.5-9.3 50-16.3 2.6 10.6-57.3-13.4-15.8-48.1 17.6 22.8-3.6.4-.1-14.5 78.2c-3.7 19.9-24.9 38.8-43.7 41.8l-19.2 3 2.9-15.6 14.6-2.3c12.9-2 27.3-14.9 29.8-28.4l1.6-8.5-38.1 6c-8.2 1.3-12.6-3.7-11-12.3l6.8-36.7c1.2-6.5 5.3-12 10.7-14.8l.1-1 19.1-14.7-11.2 1.9c-5.9.9-17 5.4-24 14.3-5.3-6.3-14.5-8.8-19.8-8l-41.1 6.5 6.7-36 30-4.8c15.9-2.5 33.6-20.5 36.7-37.3l4.5-24.2c3.1-16.9-8.7-30.1-24.7-27.6l-65.5 10.4-13.9 75-60.3 9.6c-5.1.8-10.1 5.8-11.1 11.2L28 503.5c-1 5.4 2.3 9.1 7.4 8.3l115-18.3 9.3-50 4.7-.7c5.2-.8 4.4-1.7 3.4 3.6l-8.5 45.8zm-85.3-27.4-38.5 6.1 1.4-7.8 31.1-4.9 7.6-40.6-31.1 4.9 1.4-7.8 38.5-6.1zm-2.4 12.5-3.2 17.2-68 10.8L63 384.5l56.2-8.9-2.9 15.6-39.9 6.3-6.1 32.8 32.5-5.2-2.9 15.6-32.5 5.3-6.1 32.8zm78.2 4.3-16.3 2.6 7.9-42.6c1-5.3-.6-7.1-5.8-6.3l-28.4 4.5-9.3 50-16.3 2.6 12.2-65.7.4-.1 54-8.6c8.2-1.3 12.6 3.7 11 12.3zm105.7-80.5 15.9-2.5-12.2 65.7-16.3 2.6 12.2-65.6zm98.7 31 5.6-30.4c1.8-9.6 12.1-19 20.9-20.4l38-6c6.4-1 10.9 6.1 9.6 13.1l-1.9 9.8c-1.3 7-8.5 14.5-14.9 15.5l-39.5 6.3-.6 3.5c-.8 4 1.9 7.2 5.6 6.6l44.1-7-3 16-49.8 7.9c-8.5 1.3-15.8-5.3-14.1-14.9zm-235.4-85.2 5.5-29.7 20.7-3.3c2.7-.4 4.1 1.1 3.6 4l-3.8 20.3c-.5 2.9-2.6 5-5.3 5.4z" style="fill:red" transform="translate(-146.444 .01)"/><path d="m292.6 354.1-4.4-17.4-2.5.3-.8 4.3c-.6 3-2.9 5.4-5.8 5.9l-17 2.7c-2.8.4-4.4-1.3-3.9-4.3l8.6-46.1c.5-3 2.9-5.4 5.7-5.8l17-2.7c2.8-.4 4.4 1.3 3.9 4.3l-1.1 5.9 34.4-5.5 1.3-7c3.3-17.7-8.8-31.2-25.6-28.6l-32.9 5.2c-16.8 2.7-34.8 20.9-38 38.7l-9.2 49.2c-3.3 17.7 8.8 31.2 25.6 28.6l11-1.7zM317 343.6c.9-2.4 1.5-3.3 2-5.8l1.2-6.3-13.7 2.2z" style="fill:red" transform="translate(-146.444 .01)"/></svg>