<svg xmlns="http://www.w3.org/2000/svg" xml:space="preserve" width="530" height="82" version="1.2" viewBox="14.968 80.666 530 82"><path d="M37.843 133.394a.533.533 0 0 1-.229-.053c-7.506-3.644-11.381-7.89-11.208-12.282.142-3.616 3.092-7.03 8.534-9.874 5.162-2.697 12.444-4.838 21.058-6.19a.527.527 0 0 1 .164 1.04c-17.449 2.74-28.447 8.514-28.703 15.067-.153 3.886 3.616 7.896 10.615 11.294a.525.525 0 0 1-.231.998zM103.273 106.418a.49.49 0 0 1-.086-.007c-5.544-.91-11.397-1.518-17.396-1.804a.526.526 0 0 1 .05-1.052c6.04.289 11.933.9 17.518 1.817a.525.525 0 0 1-.086 1.046zM86.708 142.36l-.441-.001a.525.525 0 0 1 .001-1.051h.44c28.163 0 50.385-7.319 50.678-16.729.103-3.293-2.541-6.633-7.65-9.658-5.085-3.015-12.375-5.583-21.079-7.429a.526.526 0 1 1 .218-1.029c8.814 1.868 16.213 4.48 21.397 7.553 5.458 3.234 8.281 6.897 8.166 10.597-.156 5.003-5.683 9.564-15.563 12.841-9.552 3.166-22.381 4.906-36.167 4.906z" style="fill:#c61717" transform="translate(-8.55 .649)"/><path d="m93.116 116.801 4.584 4.774-1.462-6.612 13.893-10.59-16.317 6.514-4.586-4.773 1.462 6.614-13.893 10.589z" style="fill:#c61717" transform="translate(-8.55 .649)"/><path d="M78.839 128.183c.199-.979.563-.838 1.557-.996l.926-.145-.289 1.542-.925.148c-.994.158-1.432.424-1.269-.549zm-2.006-1.413-.72 3.875c-.198 1.059.123 1.399 1.141 1.238l5.895-.936 1.264-6.796-5.895.935c-1.02.161-1.49.626-1.685 1.684zm37.424-6.117-.069.374 6.082-.964c.48-.078.948-.563 1.045-1.088.096-.524-.212-.887-.693-.811l-1.562.246-2.492.397-.631.099c-.73.117-1.532.95-1.68 1.747zm-42.665 17.525.049-.271c.209.016.49.097.734.06l6.32-.99c-.235 1.26-1.9 1.575-4.442 1.979l-2.893.46-1.551 8.34 3.8-.602c9.356-.924 12.916-5.76 14.059-11.524l11.401-1.809 1.837-9.887.927-.147c1.016-.161.866-.346.671.711l-1.682 9.044 8.185-1.298.112-.6c.617.272 1.339.368 2.104.248l14.155-2.244 1.32-7.106-.917-.652c.795-.941 1.415-2.094 1.594-3.061l.223-1.121c.706-4.19-3.158-5.304-4.921-5.023l-8.123 1.289c-1.438.229-3.023 1.231-4.176 2.56-1.066-1.056-2.711-1.466-3.668-1.314l-9.043 1.435 1.012 2.237 8.156-1.292c1.176-.188 1.962.282 2.177 1.213-.086.246-2.177 11.379-2.177 11.379l-2.925.465 1.568-8.428c.194-1.056-.125-1.396-1.141-1.235l-5.604.89-1.839 9.886-3.215.512 2.104-11.318-2.646-3.122-9.526 3.443 4.515-.717.073-.01-2.871 15.446c-.73 3.923-4.917 7.675-8.63 8.266l-3.8.602.576-3.09 2.891-.458c2.541-.405 5.402-2.947 5.896-5.607l.312-1.674-7.527 1.193c-1.614.257-2.49-.724-2.173-2.429l1.35-7.262c.239-1.289 1.044-2.36 2.121-2.918l.019-.193 3.776-2.906-2.206.37c-1.173.186-3.35 1.065-4.733 2.83-1.046-1.247-2.875-1.736-3.905-1.573l-8.113 1.289 1.322-7.107 5.919-.938c3.151-.499 6.638-4.043 7.257-7.372l.89-4.788c.62-3.332-1.723-5.95-4.874-5.45L58.76 98.841l-2.757 14.829-11.912 1.892c-1.008.159-1.989 1.154-2.186 2.22l-4.452 23.942c-.198 1.066.459 1.801 1.468 1.643l22.729-3.607 1.839-9.886.925-.147c1.019-.16.869-.343.671.713l-1.681 9.043zm-16.866-5.421-7.6 1.206.286-1.543 6.138-.977 1.494-8.032-6.139.975.286-1.545 7.6-1.206zm-.46 2.472-.631 3.397-13.447 2.134 4.191-22.554 11.109-1.763-.575 3.09-7.893 1.254-1.205 6.487 6.43-1.02-.574 3.088-6.431 1.02-1.208 6.49zm15.446.849-3.216.509 1.567-8.427c.197-1.056-.123-1.397-1.141-1.237l-5.604.89-1.836 9.887-3.217.511 2.412-12.976.075-.012 10.669-1.691c1.614-.258 2.49.722 2.172 2.429zm20.901-15.91 3.144-.498-2.413 12.976-3.215.51 2.41-12.974zm19.503 6.115 1.116-6.002c.354-1.899 2.394-3.763 4.132-4.039l7.52-1.191c1.267-.202 2.147 1.213 1.889 2.599l-.369 1.931c-.259 1.386-1.673 2.857-2.939 3.058l-7.806 1.24-.112.701c-.148.796.38 1.419 1.111 1.302l8.724-1.389-.588 3.166-9.842 1.56c-1.739.274-3.187-1.036-2.836-2.936zm-46.521-16.821 1.091-5.871 4.092-.647c.537-.085.811.221.704.786l-.746 4.019c-.107.567-.513.979-1.05 1.065z" style="fill:#c61717" transform="translate(-8.55 .649)"/><path d="m89.753 112.208-.869-3.44-.489.06-.158.848c-.109.589-.582 1.067-1.138 1.157l-3.362.532c-.555.089-.873-.267-.763-.854l1.694-9.114c.109-.586.582-1.065 1.136-1.153l3.364-.533c.555-.088.872.267.762.853l-.216 1.16 6.797-1.08.259-1.389c.651-3.507-1.733-6.172-5.052-5.646l-6.503 1.031c-3.317.527-6.868 4.135-7.519 7.641l-1.809 9.73c-.651 3.508 1.732 6.173 5.051 5.646l2.174-.343zM94.571 110.132c.177-.477.3-.658.391-1.146l.231-1.238-2.705.43z" style="fill:#c61717" transform="translate(-8.55 .649)"/><path d="M210.313 141.697h-35.514c-11.838 0-19.73-7.958-19.73-15.784 0-7.826 7.892-15.784 19.73-15.784h35.514v-7.893h-35.514c-15.784 0-27.622 10.26-27.622 23.677 0 13.416 11.838 23.676 27.622 23.676h35.514z" style="fill:#f9f9f9" transform="translate(-8.55 .649)"/><path d="M210.313 151.123h-35.514c-8.224 0-15.491-2.674-20.73-7.178-5.239-4.496-8.432-10.865-8.426-18.032-.006-7.168 3.187-13.537 8.426-18.033 5.24-4.504 12.507-7.179 20.73-7.179h37.049v10.962h-37.049c-5.574.001-10.14 1.869-13.304 4.586-3.167 2.723-4.896 6.275-4.891 9.664-.005 3.388 1.724 6.94 4.891 9.663 3.165 2.718 7.73 4.585 13.304 4.586h35.514v1.535-1.535h1.535v10.961zm-54.244-40.916c-4.625 3.988-7.352 9.457-7.358 15.706.006 6.249 2.733 11.718 7.358 15.706 4.626 3.979 11.169 6.435 18.729 6.435h33.98v-4.822h-33.98c-12.514-.001-21.219-8.433-21.264-17.318.045-8.886 8.75-17.317 21.264-17.318h33.98v-4.823l-33.98-.001c-7.56-.001-14.103 2.457-18.729 6.435z" style="fill:#020202" transform="translate(-8.55 .649)"/><path d="M418.575 102.236h-23.676c-15.785 0-27.622 10.26-27.622 23.677 0 13.416 11.837 23.676 27.622 23.676h23.676c15.784 0 27.621-10.26 27.621-23.676 0-13.417-11.837-23.677-27.621-23.677zm0 39.461h-23.676c-11.838 0-19.73-7.958-19.73-15.784 0-7.826 7.893-15.784 19.73-15.784h23.676c11.838 0 19.729 7.958 19.729 15.784 0 7.826-7.891 15.784-19.729 15.784z" style="fill:#f9f9f9" transform="translate(-8.55 .649)"/><path d="M394.899 151.123c-8.224 0-15.492-2.673-20.729-7.178-5.241-4.496-8.433-10.865-8.427-18.032-.006-7.168 3.186-13.537 8.427-18.033 5.237-4.504 12.506-7.178 20.729-7.178h23.676v3.069h-23.676c-7.563 0-14.104 2.457-18.73 6.435-4.625 3.989-7.352 9.457-7.357 15.707.006 6.249 2.732 11.718 7.357 15.706 4.626 3.979 11.168 6.436 18.73 6.436h23.676c7.56 0 14.104-2.457 18.729-6.436 4.625-3.988 7.353-9.457 7.358-15.706-.006-6.25-2.733-11.718-7.358-15.707-4.626-3.978-11.17-6.435-18.729-6.435v-3.069c8.223 0 15.491 2.674 20.73 7.178 5.239 4.496 8.431 10.865 8.426 18.033.005 7.167-3.187 13.536-8.426 18.032-5.239 4.505-12.508 7.178-20.73 7.178zm0-7.892c-12.514-.001-21.221-8.434-21.266-17.318.045-8.886 8.752-17.317 21.266-17.319h23.676c12.514.002 21.219 8.434 21.264 17.319-.045 8.885-8.75 17.317-21.264 17.318v-3.069c5.573-.001 10.14-1.868 13.303-4.586 3.168-2.722 4.897-6.275 4.893-9.663.005-3.389-1.725-6.941-4.893-9.664-3.163-2.717-7.729-4.585-13.303-4.586h-23.676c-5.575.001-10.141 1.869-13.305 4.586-3.167 2.723-4.896 6.275-4.892 9.664-.005 3.388 1.725 6.941 4.892 9.663 3.164 2.718 7.729 4.585 13.305 4.586h23.676v3.069z" style="fill:#020202" transform="translate(-8.55 .649)"/><path d="M253.72 102.236h-35.515v47.353h35.515c15.784 0 27.621-10.26 27.621-23.676 0-13.417-11.837-23.677-27.621-23.677zm0 39.461h-27.622v-31.568h27.622c11.838 0 19.729 7.958 19.729 15.784 0 7.826-7.891 15.784-19.729 15.784z" style="fill:#f9f9f9" transform="translate(-8.55 .649)"/><path d="M230.931 151.123h-14.26v-50.422h37.047V103.771h-24.464l-9.515-.001v44.283l11.192.001h22.788c7.561-.001 14.104-2.457 18.73-6.436 4.626-3.988 7.353-9.457 7.357-15.706-.004-6.249-2.73-11.718-7.357-15.706-4.625-3.979-11.169-6.436-18.73-6.437V100.701c8.224-.001 15.493 2.674 20.729 7.178 5.242 4.496 8.434 10.865 8.428 18.033.006 7.167-3.186 13.536-8.428 18.032-5.237 4.504-12.506 7.178-20.729 7.178l-22.788.001zm-4.833-7.892h-1.535v-34.637h29.156c12.516.001 21.22 8.433 21.265 17.318-.045 8.886-8.749 17.317-21.265 17.318v-3.069c5.574-.001 10.142-1.868 13.304-4.586 3.167-2.723 4.896-6.275 4.892-9.663.004-3.389-1.725-6.941-4.892-9.664-3.163-2.717-7.73-4.585-13.304-4.586h-26.087v28.499h26.087v3.069l-27.621.001z" style="fill:#020202" transform="translate(-8.55 .649)"/><path d="M352.369 125.913c3.946 0 7.893-5.7 7.893-9.646 0-7.892-3.946-14.03-11.839-14.03h-47.352v47.353h7.893v-19.73h35.514c3.946 0 7.892 3.947 7.892 7.893v11.838h7.893v-11.838c0-7.893-7.894-11.84-7.894-11.84zm-7.891-3.946h-35.514v-11.838h35.514c3.945 0 7.892 2.192 7.892 6.138-.001 3.946-3.947 5.7-7.892 5.7z" style="fill:#f9f9f9" transform="translate(-8.55 .649)"/><path d="M350.836 151.123v-1.534c-.002 0-.002-7.893 0-11.838.01-1.452-.768-3.1-2.018-4.341-1.241-1.249-2.889-2.028-4.341-2.018h-33.979v19.73h-10.962V100.7h48.887c4.344-.02 7.854 1.758 10.089 4.646 2.245 2.88 3.281 6.725 3.284 10.92-.021 2.476-1.142 5.081-2.786 7.24-.887 1.135-1.942 2.173-3.152 2.898.491.396 1.016.854 1.544 1.382 2.143 2.137 4.395 5.479 4.395 9.964v13.372h-10.961zm7.891-3.068.001-10.304c-.001-3.198-1.487-5.653-3.162-7.448-1.666-1.781-3.488-2.812-3.829-2.989l-.053-.028.686-1.373-.686 1.373.686-2.907c1.202.042 2.908-1.025 4.211-2.745 1.314-1.678 2.168-3.895 2.147-5.366.002-3.696-.934-6.866-2.635-9.028-1.71-2.154-4.12-3.447-7.67-3.468h-45.816v44.284h4.822v-19.73h37.049c2.493.011 4.792 1.206 6.511 2.915 1.711 1.719 2.904 4.019 2.915 6.512v10.304h4.823zm-34.965-24.553h-16.333v-14.908h37.049c2.255.005 4.506.608 6.309 1.87 1.799 1.238 3.134 3.295 3.117 5.803.028 2.512-1.362 4.521-3.182 5.629-1.822 1.138-4.047 1.6-6.244 1.606v-3.069c1.748.005 3.471-.409 4.608-1.135 1.14-.755 1.724-1.597 1.75-3.031-.017-1.438-.655-2.449-1.815-3.293-1.158-.823-2.852-1.315-4.543-1.311H310.498v8.77H344.478v3.069h-20.716z" style="fill:#020202" transform="translate(-8.55 .649)"/><path d="M289.892 129.858a3.946 3.946 0 1 1 0-7.891h2.959a3.946 3.946 0 0 1 0 7.891z" style="fill:#f9f9f9" transform="translate(-8.55 .649)"/><path d="M289.891 131.393v-3.068l2.96-.001a2.413 2.413 0 0 0 2.411-2.41 2.414 2.414 0 0 0-2.411-2.412l-2.96.001a2.414 2.414 0 0 0-2.411 2.411 2.413 2.413 0 0 0 2.411 2.41v3.069a5.478 5.478 0 0 1-5.479-5.479 5.479 5.479 0 0 1 5.479-5.48h2.96a5.48 5.48 0 1 1 0 10.959z" style="fill:#020202" transform="translate(-8.55 .649)"/><path d="M481.712 110.129v39.46h7.892v-39.46h7.893c3.945 0 11.837 0 11.837 7.892v31.568h7.893v-35.514c0-7.893-7.893-11.839-15.784-11.839h-31.568c-7.893 0-15.784 3.946-15.784 11.839v35.514h7.892v-31.568c0-7.892 7.893-7.892 11.839-7.892z" style="fill:#f9f9f9" transform="translate(-8.55 .649)"/><path d="M507.798 151.123V118.021c-.004-1.723-.413-2.84-1.003-3.664-.594-.82-1.429-1.397-2.471-1.816-2.078-.843-4.871-.887-6.828-.876l-6.358-.001v39.46h-10.961v-39.459h-6.358c-1.473-.003-3.402.007-5.16.382-1.775.376-3.263 1.088-4.139 2.311-.591.824-.999 1.941-1.005 3.664V151.124h-10.961v-37.048c-.02-4.483 2.326-7.994 5.616-10.157 3.291-2.185 7.504-3.211 11.703-3.216h31.568c4.198.005 8.41 1.031 11.702 3.216 3.29 2.163 5.637 5.674 5.616 10.157v37.048h-10.961zm7.893-3.068v-33.979c-.022-3.41-1.621-5.817-4.25-7.603-2.628-1.761-6.308-2.706-10-2.702h-31.568c-3.694-.004-7.374.941-10.001 2.702-2.63 1.785-4.229 4.192-4.249 7.603v33.979h4.823c-.002-5.372-.002-23.355 0-30.034-.006-2.224.572-4.065 1.584-5.46 1.011-1.399 2.395-2.302 3.82-2.87 2.855-1.129 5.981-1.086 7.968-1.096h7.892v1.534-1.534h1.535v39.46h4.822v-39.46h9.429c1.484.001 3.624-.009 5.797.448 2.155.457 4.46 1.411 5.989 3.518 1.013 1.395 1.591 3.236 1.585 5.46v30.034z" style="fill:#020202" transform="translate(-8.55 .649)"/><path d="M537.763 108.902h2.937c5.259 0 9.062-2.685 9.062-8.726 0-3.883-2.46-8.39-7.766-8.39h-16.397v6.04h11.896c1.696 0 3.598.281 3.598 2.35 0 1.958-1.512 2.685-3.262 2.685h-4.916c-8.827 0-9.896 6.299-9.896 11.219v3.884h26.305v-6.479H531.82c-.002-3.02 3.354-2.583 5.943-2.583z" style="fill:#f9f9f9" transform="translate(-8.55 .649)"/><path d="M522.139 118.84v-4.76c.005-2.52.255-5.478 1.772-7.919 1.514-2.459 4.391-4.201 9-4.176h4.918c.758.003 1.399-.169 1.777-.445.369-.283.588-.607.606-1.363-.039-.757-.219-.902-.664-1.159-.46-.229-1.257-.317-2.056-.313H524.72V90.91h17.273c2.904-.01 5.146 1.271 6.559 3.071 1.422 1.8 2.082 4.071 2.085 6.195.008 3.196-1.03 5.675-2.854 7.284-1.82 1.611-4.313 2.318-7.085 2.318H537.636c-.564-.003-1.142-.022-1.691-.022-1.02-.007-1.956.084-2.486.343-.275.153-.466.278-.587.508h17.327v8.232h-28.06zm3.258-11.749c-1.224 1.938-1.51 4.59-1.504 6.989v3.007h24.554v-4.726H530.94v-.877c-.043-1.423.749-2.54 1.778-2.975 1.007-.459 2.133-.5 3.227-.507.634 0 1.255.022 1.817.022h2.937c2.488 0 4.524-.635 5.921-1.877 1.393-1.242 2.256-3.128 2.263-5.972.005-1.76-.567-3.681-1.702-5.106-1.143-1.424-2.787-2.396-5.186-2.406h-15.521v4.287h11.019c.896.005 1.896.057 2.813.483.929.401 1.698 1.431 1.661 2.742.017 1.202-.518 2.221-1.34 2.79-.815.576-1.806.768-2.798.772h-4.918c-4.217.027-6.287 1.434-7.514 3.354zm12.366 1.811v-.877z" style="fill:#020202" transform="translate(-8.55 .649)"/></svg>