<svg xmlns="http://www.w3.org/2000/svg" xml:space="preserve" width="407" height="136"><g fill="#CCC"><circle cx="58.075" cy="13.716" r="4.039"/><path d="M58.075 107.3 30.25 91.462l7.535-4.062c.019.044.031.08.051.125 5.45 7.98 16.47 8.57 25.22 7.76 5.19-1.655-1.06 2.033-.73 3.49.94 2.7 4.047 1.088 5.482.668 3.77-2.16 7.5-4.563 9.838-8.747 1.287-3.878.724-1.814 3.75-5.09 2.77-2.86 3-7.33 6.24-9.84 3.47-3.12 5.02-7.55 6.87-11.67 6.24-5.78 11.96-13.38 11.74-22.31.34-6.76-3.84-12.78-8.83-16.93-8.22-6.71-18.67-10.14-29.04-11.73-2.41-.89-4.8 1.96-3.14 4.12 4.75 1.95 10.08 1.89 14.83 3.92 7.63 2.8 15.48 7.04 19.62 14.34 3.53 7.16-.16 15.82-5.54 21l-.18.18c-2.04-3.3-4.2-6.63-7.38-8.95-8.156-6.182-18.558-8.406-28.57-9.014V19.505l-50.09 27v56.99l.07-.038v1.038L58.075 133l50.08-28.505v-25.7L58.075 107.3zm-.059-43.565h.06c5.65.33 11.49 1.21 16.37 4.26.644.494 1.383.802-.533 1.385-1.422.513-6.265 1.407-9.925 1.917 0 0-3.304.208-4.452.158a85.486 85.486 0 0 1-1.52-.087v-7.633zm-3.548 14.673c3.073-.293 6.175-.152 9.058.538 1.72.49 3.84.49 4.94 2.11-5.6.95-11.345 1.071-16.97.7-.789-.161-1.673-.244-2.56-.366l5.532-2.982zm3.088 11.837c-5.02-.24-10.81-.67-14.48-4.57 10.02 2.51 20.59 2.43 30.52-.5-4.33 3.85-10.43 4.94-16.04 5.07zm17.91-11.82c-1.345-1.67-3.157-2.545-5.06-3.07 3-.8 6.01-1.61 8.99-2.49 1.68 3.1-1.275 4.82-3.93 5.56zm9.53-25.2c2.38 2.03 3.62 4.94 4.41 7.89-1.8 1.3-3.65 2.53-5.52 3.72-1.27.35-2.77 1.98-3.99.58-6.223-4.809-14.171-6.574-21.88-7.073V44.185c9.55.15 19.76 2.41 26.98 9.04z"/></g><path d="M401.51 129c-94.34 0-188.68.01-283.02-.01.01-4 .01-8 0-11.99 94.34.01 188.68-.01 283.02 0v12z"/><path fill="#01015B" d="M69.24 11.49c-1.66-2.16.73-5.01 3.14-4.12 10.37 1.59 20.82 5.02 29.04 11.73 4.99 4.15 9.17 10.17 8.83 16.93.22 8.93-5.5 16.53-11.74 22.31-1.85 4.12-3.4 8.55-6.87 11.67-3.24 2.51-3.47 6.98-6.24 9.84-3.026 3.276-2.463 1.213-3.75 5.09-2.338 4.185-6.068 6.587-9.838 8.747-1.435.42-4.543 2.033-5.482-.668-.33-1.457 5.92-5.145.73-3.49-8.75.81-19.77.22-25.22-7.76-1.048-2.416-.903-3.166-.91-4.56-3.95-2.85-6.74-7.22-6.4-12.26-4.38-3.04-8.54-7.37-8.73-13.02-.75-5.54 3.55-10.02 7.92-12.68 8.43-5.05 18.55-6.31 28.21-6.29 10.04.6 20.48 2.82 28.66 9.02 3.18 2.32 5.34 5.65 7.38 8.95l.18-.18c5.38-5.18 9.07-13.84 5.54-21-4.14-7.3-11.99-11.54-19.62-14.34-4.75-2.029-10.08-1.969-14.83-3.919zM33.48 46.04c-4.98 3.99-1.3 12.13 3.84 13.72 6.86-5.61 15.97-7.23 24.6-7.18 7.74.49 15.73 2.25 21.98 7.08 1.22 1.4 2.72-.23 3.99-.58 1.87-1.19 3.72-2.42 5.52-3.72-.79-2.95-2.03-5.86-4.41-7.89-7.22-6.63-17.43-8.89-26.98-9.04-9.87-.22-20.69 1.09-28.54 7.61zm34.512 19.502c3.66-.51 8.503-1.403 9.925-1.917 1.917-.583 1.177-.891.533-1.385-4.88-3.05-10.72-3.93-16.37-4.26-6.18-.02-12.67.63-18.14 3.72-.56.342-2.357.675.01 1.35 5.316 1.856 18.443 2.6 19.59 2.65 1.148.05 4.452-.158 4.452-.158zM39.75 67.53c.5 1.298 1.516 3.22 3.547 4.4.859-.571 2.173-1.225 3.273-1.805.714-.289 1.477-.797 2.21-1.054-.358-.025-.895-.088-1.952-.134-2.535-.309-4.688-.827-7.078-1.407zm34.66 2.07c1.902.525 3.715 1.4 5.06 3.07 2.655-.74 5.61-2.46 3.93-5.56-2.98.88-5.99 1.69-8.99 2.49zm-24.722 5.088c1.687.999 4.002.942 5.812 1.312 5.625.371 11.37.25 16.97-.7-1.1-1.62-3.22-1.62-4.94-2.11-5.73-1.37-12.322-.583-17.842 1.498zM47.08 79.92c3.67 3.9 9.46 4.33 14.48 4.57 5.61-.13 11.71-1.22 16.04-5.07-9.93 2.93-20.5 3.01-30.52.5z"/><path d="M138.562 70.199c5.059-.001 10.095-.31 14.848-2.119 12.71-4.38 21.13-17.81 20.71-31.07-.37-6.5-2.57-12.93-6.5-18.14-5.85-8.27-16.04-12.96-26.09-12.71l-22.61-.009v19.105l-.06.263.06-.005V95.32h9.2V70.199m-.09-55.809c5.18-.01 10.36-.12 15.53.12 7.7.51 15.18 4.81 18.95 11.63 4.72 8.07 4.18 18.99-1.64 26.36-4.06 5.47-10.67 8.97-17.5 9.08-5.08.07-10.057.033-15.25.033l-.09-47.223z"/><circle cx="62.08" cy="8.961" r="4.039" fill="#01015B"/><path fill="#01015B" d="M62.08 127.245 12 98.74v-25.7l50.08 28.505z"/><path fill="#F00020" d="m62.08 127.245 50.08-28.505v-25.7l-50.08 28.505z"/><path d="M274.112 57.437V40.11h-13.535a37.935 37.935 0 0 1 1.422 10.285 38.1 38.1 0 0 1-.663 7.043h12.776z"/><path d="M258.027 67.297c-6.217 12.473-19.092 21.045-33.975 21.045-20.958 0-37.948-16.99-37.948-37.948s16.99-37.948 37.948-37.948c13.555 0 25.442 7.112 32.154 17.803h9.542c-7.493-15.484-23.341-26.17-41.697-26.17-25.579 0-46.315 20.736-46.315 46.315s20.736 46.315 46.315 46.315c19.612 0 36.362-12.195 43.115-29.412h-9.139z"/><path fill="#FEC101" d="m11.93 97.74 50.09-27V13.75l-50.09 27z"/><path fill="#01015B" d="M69.24 11.49c-1.66-2.16.73-5.01 3.14-4.12 10.37 1.59 20.82 5.02 29.04 11.73 4.99 4.15 9.17 10.17 8.83 16.93.22 8.93-5.5 16.53-11.74 22.31-1.85 4.12-3.4 8.55-6.87 11.67-3.24 2.51-3.47 6.98-6.24 9.84-3.026 3.276-2.463 1.213-3.75 5.09-2.338 4.185-6.068 6.587-9.838 8.747-1.435.42-4.543 2.033-5.482-.668-.33-1.457 5.92-5.145.73-3.49-8.75.81-19.77.22-25.22-7.76-1.048-2.416-.903-3.166-.91-4.56-3.95-2.85-6.74-7.22-6.4-12.26-4.38-3.04-8.54-7.37-8.73-13.02-.75-5.54 3.55-10.02 7.92-12.68 8.43-5.05 18.55-6.31 28.21-6.29 10.04.6 20.48 2.82 28.66 9.02 3.18 2.32 5.34 5.65 7.38 8.95l.18-.18c5.38-5.18 9.07-13.84 5.54-21-4.14-7.3-11.99-11.54-19.62-14.34-4.75-2.029-10.08-1.969-14.83-3.919zM33.48 46.04c-4.98 3.99-1.3 12.13 3.84 13.72 6.86-5.61 15.97-7.23 24.6-7.18 7.74.49 15.73 2.25 21.98 7.08 1.22 1.4 2.72-.23 3.99-.58 1.87-1.19 3.72-2.42 5.52-3.72-.79-2.95-2.03-5.86-4.41-7.89-7.22-6.63-17.43-8.89-26.98-9.04-9.87-.22-20.69 1.09-28.54 7.61zm34.512 19.502c3.66-.51 8.503-1.403 9.925-1.917 1.917-.583 1.177-.891.533-1.385-4.88-3.05-10.72-3.93-16.37-4.26-6.18-.02-12.67.63-18.14 3.72-.56.342-2.357.675.01 1.35 5.316 1.856 18.443 2.6 19.59 2.65 1.148.05 4.452-.158 4.452-.158zM39.75 67.53c.5 1.298 1.516 3.22 3.547 4.4.859-.571 2.173-1.225 3.273-1.805.714-.289 1.477-.797 2.21-1.054-.358-.025-.895-.088-1.952-.134-2.535-.309-4.688-.827-7.078-1.407zm34.66 2.07c1.902.525 3.715 1.4 5.06 3.07 2.655-.74 5.61-2.46 3.93-5.56-2.98.88-5.99 1.69-8.99 2.49zm-24.722 5.088c1.687.999 4.002.942 5.812 1.312 5.625.371 11.37.25 16.97-.7-1.1-1.62-3.22-1.62-4.94-2.11-5.73-1.37-12.322-.583-17.842 1.498zM47.08 79.92c3.67 3.9 9.46 4.33 14.48 4.57 5.61-.13 11.71-1.22 16.04-5.07-9.93 2.93-20.5 3.01-30.52.5z"/><circle cx="62.08" cy="8.961" r="4.039" fill="#01015B"/><path fill="#01015B" d="M62.08 127.245 12 98.74v-25.7l50.08 28.505z"/><path fill="#F00020" d="m62.08 127.245 50.08-28.505v-25.7l-50.08 28.505z"/><path d="M325.97 23.83V6.151h-44.61V95.35h16.94V57.437h26.396V40.11H298.3V23.83z"/><path d="m397 95.35-26.5-46.348L395 6.151h-20.39l-14.305 25.02L346 6.151h-20.39l24.5 42.851-26.5 46.348H344l16.305-28.517L376.61 95.35zM128.272 113v-9.217L124.378 113h-.896l-3.88-9.217V113h-1.037v-10.352h1.611l3.768 8.811 3.754-8.811h1.611V113h-1.037zM134.862 113.182c-2.087 0-3.516-1.261-3.516-4.076v-6.458h1.037v6.458c0 2.115.869 3.124 2.493 3.124 1.597 0 2.479-1.008 2.479-3.124v-6.458h1.037v6.458c0 2.815-1.429 4.076-3.53 4.076zM140.432 113v-10.352h1.037v9.413h4.286V113h-5.323zM148.624 103.587V113h-1.037v-9.413h-2.367v-.938h5.771v.938h-2.367zM152.066 113v-10.352h1.037V113h-1.037zM164.854 113v-9.217L160.959 113h-.896l-3.88-9.217V113h-1.037v-10.352h1.611l3.768 8.811 3.754-8.811h1.611V113h-1.036zM167.928 113v-10.352h5.659v.938h-4.623v3.712h4.468v.938h-4.468v3.824h4.623v.94h-5.659zM178.136 113h-2.788v-10.352h2.438c1.877 0 2.97.224 3.95.813 1.541.91 2.353 2.451 2.353 4.398 0 2.984-1.905 5.141-5.953 5.141zm3.026-8.741c-.785-.476-1.765-.672-3.334-.672h-1.443v8.475h1.443c1.835 0 2.899-.266 3.726-.924.953-.771 1.485-1.961 1.485-3.32 0-1.542-.687-2.844-1.877-3.559zM185.68 113v-10.352h1.037V113h-1.037zM196.772 113l-1.499-3.488h-4.819L188.942 113h-1.092l4.44-10.352h1.163L197.907 113h-1.135zm-3.894-9.175-2.031 4.749h4.02l-1.989-4.749zM202.83 113v-10.352h5.659v.938h-4.623v3.712h4.468v.938h-4.468v3.824h4.623v.94h-5.659zM217.45 113l-6.164-9.105V113h-1.037v-10.352h1.401l5.799 8.586v-8.586h1.037V113h-1.036zM222.963 103.587V113h-1.037v-9.413h-2.367v-.938h5.771v.938h-2.367zM226.405 113v-10.352h5.659v.938h-4.623v3.712h4.468v.938h-4.468v3.824h4.623v.94h-5.659zM237.79 109.134l2.899 3.866H239.4l-3.488-4.692c2.899 0 3.88-.504 3.88-2.367 0-1.723-1.064-2.354-3.474-2.354h-1.457V113h-1.037v-10.352h2.563c3.25 0 4.455 1.177 4.455 3.334.001 1.835-1.064 2.942-3.052 3.152zM244.677 103.587V113h-1.037v-9.413h-2.367v-.938h5.771v.938h-2.367zM255.432 113l-1.499-3.488h-4.819L247.601 113h-1.092l4.44-10.352h1.163L256.566 113h-1.134zm-3.895-9.175-2.031 4.749h4.02l-1.989-4.749zM257.695 113v-10.352h1.037V113h-1.037zM267.975 113l-6.164-9.105V113h-1.037v-10.352h1.401l5.799 8.586v-8.586h1.037V113h-1.036zM280.758 113v-9.217L276.864 113h-.896l-3.88-9.217V113h-1.037v-10.352h1.611l3.768 8.811 3.754-8.811h1.611V113h-1.037zM283.833 113v-10.352h5.659v.938h-4.623v3.712h4.468v.938h-4.468v3.824h4.623v.94h-5.659zM298.453 113l-6.164-9.105V113h-1.037v-10.352h1.401l5.799 8.586v-8.586h1.036V113h-1.035zM303.966 103.587V113h-1.037v-9.413h-2.367v-.938h5.771v.938h-2.367zM314.228 108.812h-1.989V113h-1.037v-10.352h2.857c2.844 0 3.992.966 3.992 3.138.001 1.961-1.008 3.026-3.823 3.026zm-.519-5.225h-1.471v4.286h1.919c2.059 0 2.844-.588 2.844-2.087 0-2.101-1.316-2.199-3.292-2.199zM319.406 113v-10.352h1.037v9.413h4.287V113h-5.324zM334.292 113l-1.499-3.488h-4.819L326.462 113h-1.092l4.44-10.352h1.163L335.427 113h-1.135zm-3.894-9.175-2.031 4.749h4.02l-1.989-4.749zM339.092 109.54V113h-1.037v-3.46l-3.586-6.892h1.149l2.941 5.799 3.012-5.799h1.135l-3.614 6.892zM343.71 113v-10.352h5.659v.938h-4.623v3.712h4.468v.938h-4.468v3.824h4.623v.94h-5.659zM355.094 109.134l2.899 3.866h-1.289l-3.488-4.692c2.899 0 3.88-.504 3.88-2.367 0-1.723-1.064-2.354-3.474-2.354h-1.457V113h-1.037v-10.352h2.563c3.25 0 4.455 1.177 4.455 3.334.002 1.835-1.063 2.942-3.052 3.152zM366.363 108.812h-1.989V113h-1.037v-10.352h2.858c2.843 0 3.992.966 3.992 3.138 0 1.961-1.008 3.026-3.824 3.026zm-.518-5.225h-1.471v4.286h1.919c2.059 0 2.844-.588 2.844-2.087 0-2.101-1.317-2.199-3.292-2.199zM376.528 113.182c-3.096 0-5.435-2.297-5.435-5.323 0-3.096 2.283-5.393 5.365-5.393 2.143 0 3.964 1.093 4.762 2.872h-1.163c-.882-1.387-2.101-1.919-3.558-1.919-2.465 0-4.356 1.905-4.356 4.398 0 2.423 1.975 4.412 4.37 4.412 1.513 0 2.507-.574 3.6-1.947h1.148c-1.034 1.92-2.632 2.9-4.733 2.9zM387.67 103.587v3.74h4.063v.938h-4.063V113h-1.037v-10.352h5.253v.938h-4.216zM399.474 113l-2.927-4.426-2.942 4.426h-1.218l3.516-5.295-3.32-5.057h1.219l2.746 4.146 2.731-4.146h1.205l-3.32 5.057 3.53 5.295h-1.22zM383.604 108.757a.752.752 0 0 1-.755-.756c0-.419.335-.755.755-.755a.76.76 0 0 1 .756.755.76.76 0 0 1-.756.756z"/></svg>