<?xml version="1.0" encoding="UTF-8"?>
<svg version="1.1" xmlns="http://www.w3.org/2000/svg" width="512" height="512">
<path d="M0 0 C1.59123831 -0.00186961 3.18247616 -0.00417092 4.77371329 -0.00686532 C9.1354145 -0.01297105 13.4970965 -0.01285118 17.85880101 -0.01167095 C22.5671659 -0.01146663 27.27552468 -0.01698862 31.98388672 -0.02172852 C41.20412752 -0.03002874 50.42436193 -0.03278307 59.64460615 -0.03334089 C67.14003181 -0.03381632 74.63545536 -0.03587241 82.13088036 -0.03904152 C103.38817991 -0.04784614 124.64547441 -0.05246116 145.9027758 -0.05171105 C147.62112647 -0.05165111 147.62112647 -0.05165111 149.37419128 -0.05158997 C151.0946431 -0.05152864 151.0946431 -0.05152864 152.84985151 -0.05146609 C171.43965048 -0.0510596 190.02942921 -0.06063026 208.61922232 -0.07472833 C227.71334968 -0.08909448 246.80746716 -0.09599839 265.90160006 -0.09513456 C276.61900767 -0.09480268 287.33639403 -0.09754554 298.05379677 -0.10831261 C307.17822773 -0.1174207 316.30262782 -0.11959028 325.42706136 -0.11280318 C330.08053862 -0.10953964 334.73395667 -0.10947536 339.38742828 -0.11815643 C343.6517121 -0.12602954 347.91588984 -0.12458172 352.18017109 -0.1158723 C353.71847598 -0.11433911 355.25678882 -0.11614662 356.79508433 -0.12173238 C369.44819721 -0.16461533 381.19564264 -0.06562877 391.45793152 8.13371277 C401.2039596 18.06328187 401.90010028 27.95874928 401.84561157 41.22073364 C401.84978686 42.87114768 401.85526545 44.52155885 401.86193138 46.1719647 C401.87637899 50.6972013 401.87214341 55.22225566 401.86476457 59.74750221 C401.86003354 64.63171399 401.87254215 69.51588632 401.88278198 74.40008545 C401.89997633 83.9645819 401.9008087 93.52901268 401.89556908 103.09352057 C401.89152749 110.86738274 401.89297081 118.6412255 401.89831734 126.41508675 C401.89906576 127.52154882 401.89981418 128.62801089 401.90058528 129.76800211 C401.90211676 132.01577826 401.90365511 134.26355441 401.90520025 136.51133055 C401.91892749 157.58936825 401.91348593 178.66736883 401.90201504 199.74540568 C401.89208148 219.02850232 401.90502508 238.31150303 401.92894923 257.59458487 C401.95333146 277.39609889 401.96295031 297.1975682 401.9562965 316.99909693 C401.95280246 328.11552474 401.95504864 339.23187875 401.97254753 350.34829521 C401.98725848 359.81098038 401.98791935 369.27353977 401.97047662 378.73622244 C401.96195535 383.563682 401.95984466 388.39091678 401.97512817 393.21836472 C401.98895146 397.63932418 401.98424252 402.05986578 401.96488894 406.48080093 C401.96112139 408.07828753 401.96407265 409.6758074 401.97450059 411.2732644 C402.0250617 419.6131343 401.9062481 426.82854834 397.45793152 434.13371277 C397.0796738 434.78417177 396.70141607 435.43463076 396.31169599 436.10480064 C392.11623736 443.02056148 385.06938376 446.96301416 377.45793152 449.13371277 C374.15828484 449.38671243 374.15828484 449.38671243 370.49783611 449.39098167 C369.47847186 449.39624079 369.47847186 449.39624079 368.43851438 449.40160614 C366.16273409 449.41090552 363.88721051 449.40600068 361.61141968 449.40113831 C359.96273332 449.4048753 358.31404873 449.40947702 356.66536695 449.41486895 C352.13564873 449.4271082 347.60600431 449.42683739 343.07627332 449.4244802 C338.19066883 449.42407227 333.30508808 449.43510889 328.41949463 449.44459534 C318.84805401 449.46121124 309.27663802 449.46670515 299.70518418 449.46782009 C291.92555656 449.46877026 284.14593708 449.47287899 276.36631203 449.47922134 C254.3123364 449.49683514 232.25838024 449.50605996 210.20439752 449.5045604 C208.42083557 449.50444053 208.42083557 449.50444053 206.60124207 449.50431824 C205.41074996 449.50423648 204.22025785 449.50415471 202.99369023 449.50407048 C183.69753676 449.50325747 164.40146133 449.5223984 145.10533043 449.55059497 C125.29484406 449.57931487 105.48439575 449.59313577 85.67388803 449.59140742 C74.55071837 449.59074322 63.42763052 449.59624856 52.3044796 449.61776352 C42.83443281 449.6359635 33.36450493 449.64033234 23.89444824 449.62674467 C19.06294758 449.62020915 14.23167511 449.62011897 9.40019608 449.63745117 C4.97546347 449.65316097 0.5511404 449.65033969 -3.87358209 449.63288291 C-5.47247739 449.62980841 -7.0714031 449.63346237 -8.67026255 449.64460306 C-17.01822216 449.6989087 -24.21759508 449.56861721 -31.54206848 445.13371277 C-32.33999817 444.68769714 -33.13792786 444.24168152 -33.96003723 443.78215027 C-41.93833635 438.04059284 -45.46604965 430.96501168 -47.12303114 421.45395863 C-47.93085182 415.05318474 -47.81639157 408.62596511 -47.79603577 402.18618774 C-47.7983436 400.58752188 -47.80152229 398.98885708 -47.80549026 397.39019448 C-47.81380243 393.02191521 -47.80972933 388.65372387 -47.80351782 384.28544438 C-47.79897967 379.56487835 -47.80598381 374.8443271 -47.81147766 370.12376404 C-47.82035857 360.88621298 -47.81845551 351.64869448 -47.81265238 342.41114216 C-47.80813104 334.90242929 -47.80752503 327.39372552 -47.80970001 319.88501167 C-47.81000648 318.81532449 -47.81031294 317.74563731 -47.8106287 316.64353536 C-47.81126816 314.47033055 -47.81191659 312.29712574 -47.81257388 310.12392092 C-47.81827329 289.75880038 -47.81172524 269.39369785 -47.80097315 249.02858026 C-47.79203671 231.56174366 -47.7935912 214.09493365 -47.80281067 196.62809753 C-47.81351796 176.33305313 -47.81772535 156.03802451 -47.81158614 135.74297768 C-47.81094906 133.57818449 -47.81032032 131.41339129 -47.80970001 129.2485981 C-47.80939146 128.18353941 -47.80908291 127.11848072 -47.80876501 126.02114753 C-47.80703954 118.52263369 -47.80994995 111.02412988 -47.81465912 103.5256176 C-47.82027298 94.38585637 -47.81874079 85.24612948 -47.80809763 76.10637217 C-47.80284795 71.44489928 -47.80077222 66.78348363 -47.80739594 62.12201118 C-47.81337195 57.85172754 -47.81005305 53.58155397 -47.79944083 49.31128026 C-47.79721382 47.76971969 -47.79832732 46.22814975 -47.80319241 44.68659525 C-47.84236304 31.23944751 -47.27096996 19.75014361 -37.90925598 9.31340027 C-27.08122595 -0.70882288 -13.85321694 -0.01542141 0 0 Z " fill="#303030" transform="translate(80.54206848144531,25.866287231445313)"/>
<path d="M0 0 C-1.2331029 37.50333661 -15.39320783 70.55603035 -41.48535156 97.43408203 C-42.96226207 98.96098467 -44.41548699 100.50775515 -45.8671875 102.05859375 C-57.54199278 114.3418968 -71.28719616 123.72404784 -86 132 C-86.63421875 132.36689941 -87.2684375 132.73379883 -87.921875 133.11181641 C-102.65900914 141.61145852 -118.56881171 147.64202618 -134.8894043 152.37280273 C-136.73560053 152.92142947 -138.55819115 153.54825244 -140.375 154.1875 C-143 155 -143 155 -147 155 C-147 170.84 -147 186.68 -147 203 C-166.14 203 -185.28 203 -205 203 C-205 191.78 -205 180.56 -205 169 C-212.1775 170.7634375 -212.1775 170.7634375 -219.5 172.5625 C-231.62681003 175.52109848 -243.77684679 178.30502702 -255.98095703 180.92532349 C-266.19595376 183.12268097 -276.35439544 185.50253977 -286.5 188 C-301.43688352 191.67648092 -316.43367882 195.00174837 -331.47460938 198.22509766 C-336.09275235 199.24019363 -340.68968254 200.33890227 -345.28417969 201.45581055 C-348 202 -348 202 -352 202 C-352 186.49 -352 170.98 -352 155 C-336.36263143 151.17044035 -320.72298725 147.45480797 -305 144 C-294.13708319 141.61278527 -283.30282138 139.14929214 -272.5 136.5 C-260.93027962 133.66263296 -249.321292 131.04843826 -237.68728638 128.49176025 C-226.21454878 125.96792512 -214.78959631 123.29708285 -203.37890625 120.50390625 C-195.43996747 118.56779534 -187.48186082 116.75011755 -179.5 115 C-176.15705733 114.25969095 -172.81466845 113.51695902 -169.47265625 112.77246094 C-167.08531147 112.24141771 -164.69724737 111.71360121 -162.30859375 111.18847656 C-146.85566317 107.76470161 -132.23855043 104.00350016 -118 97 C-116.82824219 96.43539062 -115.65648437 95.87078125 -114.44921875 95.2890625 C-102.02926291 88.95265389 -91.05181916 80.61840739 -81 71 C-79.78763672 69.89978516 -79.78763672 69.89978516 -78.55078125 68.77734375 C-61.79600036 53.02206313 -52.24181917 32.37421889 -48 10 C-43.18033912 8.89693964 -38.36059314 7.79425215 -33.54077148 6.69189453 C-31.90468092 6.31764546 -30.26861275 5.94329849 -28.63256836 5.56884766 C-26.2668247 5.02740495 -23.90099794 4.48632665 -21.53515625 3.9453125 C-20.81602554 3.78064484 -20.09689484 3.61597717 -19.35597229 3.44631958 C-17.95350388 3.12574673 -16.55068119 2.80671946 -15.14749146 2.48931885 C-13.63253066 2.14412592 -12.11921607 1.79166908 -10.60714722 1.434021 C-9.81825104 1.250672 -9.02935486 1.067323 -8.21655273 0.87841797 C-7.50466293 0.71034637 -6.79277313 0.54227478 -6.05931091 0.36911011 C-4 0 -4 0 0 0 Z " fill="#FD4A4A" transform="translate(432,190)"/>
<path d="M0 0 C7.92471269 12.80304232 16.29595278 27.61045563 16 43 C6.19236012 45.68644425 -3.63143564 48.11839003 -13.5625 50.3125 C-16.29469643 50.92127899 -19.02630949 51.53264929 -21.7578125 52.14453125 C-22.44586472 52.29846344 -23.13391693 52.45239563 -23.84281921 52.61099243 C-30.88611004 54.1907776 -37.91160464 55.84476485 -44.9375 57.5 C-55.68978627 60.02574797 -66.45982017 62.45469514 -77.25 64.8125 C-77.92231659 64.95961426 -78.59463318 65.10672852 -79.287323 65.25830078 C-86.84464523 66.90975227 -94.40721779 68.51942968 -102 70 C-102.495 68.824375 -102.99 67.64875 -103.5 66.4375 C-106.59360844 60.27214608 -111.38077509 56.59207789 -117.1875 53.0625 C-124.53383704 51.01516017 -132.11024237 50.53523718 -139 54.1875 C-145.22677379 58.26279253 -149.59901634 62.91227404 -152 70 C-152.2656934 72.08542683 -152.46620753 74.17994033 -152.609375 76.27734375 C-152.72490723 77.88790649 -152.72490723 77.88790649 -152.84277344 79.53100586 C-152.8946582 80.34577393 -152.94654297 81.16054199 -153 82 C-166.35977747 85.46499989 -179.75895432 88.65705129 -193.25 91.5625 C-202.63213588 93.58310145 -211.97366023 95.68286926 -221.26660156 98.08618164 C-229.83442148 100.27070964 -238.48141257 102.0937362 -247.12304688 103.95800781 C-255.87644212 105.84877358 -264.5860054 107.84099296 -273.25683594 110.08374023 C-281.90753684 112.28950737 -290.63795369 114.13632369 -299.3633728 116.01834106 C-308.39931133 117.96807154 -317.39547673 120.00057596 -326.33203125 122.37109375 C-329 123 -329 123 -332 123 C-332 107.49 -332 91.98 -332 76 C-324.80697489 73.94484997 -317.58086396 72.13694821 -310.3125 70.375 C-309.59703003 70.20114777 -308.88156006 70.02729553 -308.14440918 69.84817505 C-295.94832447 66.89019952 -283.71510755 64.1251406 -271.45767212 61.43426514 C-261.44263073 59.23438009 -251.45943062 56.94232733 -241.5 54.5 C-230.21711857 51.73555386 -218.90235392 49.14408219 -207.5625 46.625 C-206.77520508 46.44960693 -205.98791016 46.27421387 -205.17675781 46.09350586 C-202.93209958 45.59409061 -200.68688981 45.09725234 -198.44140625 44.6015625 C-197.7770607 44.45397491 -197.11271515 44.30638733 -196.42823792 44.15432739 C-192.62376866 43.31946716 -188.84893437 42.64148906 -185 42 C-185 33.42 -185 24.84 -185 16 C-178.61499132 16.63850087 -173.33040106 17.23001439 -167.26171875 18.7421875 C-166.5742305 18.91122589 -165.88674225 19.08026428 -165.17842102 19.25442505 C-163.01312445 19.78817991 -160.85029397 20.33120347 -158.6875 20.875 C-157.25341832 21.23112623 -155.81917412 21.58659864 -154.38476562 21.94140625 C-153.68126984 22.11577209 -152.97777405 22.29013794 -152.25296021 22.4697876 C-150.84568848 22.81717641 -149.43787116 23.16236264 -148.0295105 23.50531006 C-144.82871539 24.28646575 -141.65367881 25.09817963 -138.48291016 25.99707031 C-130.6432572 28.11677973 -124.84957982 27.93554627 -117 26 C-115.29070312 25.60506348 -115.29070312 25.60506348 -113.546875 25.20214844 C-110.37540908 24.45398613 -107.21201941 23.6794836 -104.05114746 22.88790894 C-91.32646829 19.70598186 -78.56190735 16.74578968 -65.75 13.9375 C-52.23873217 10.97286986 -38.78292762 7.83567208 -25.34765625 4.54296875 C-23.23177453 4.02863063 -21.11588908 3.51430785 -19 3 C-17.84870605 2.71463379 -16.69741211 2.42926758 -15.51123047 2.13525391 C-14.37186035 1.85987793 -13.23249023 1.58450195 -12.05859375 1.30078125 C-11.03950928 1.05110596 -10.0204248 0.80143066 -8.97045898 0.54418945 C-5.91454105 -0.01565612 -3.09958573 -0.09613133 0 0 Z " fill="#FD4A4A" transform="translate(412,120)"/>
<path d="M0 0 C0 15.51 0 31.02 0 47 C-17.22507911 51.59335443 -17.22507911 51.59335443 -23.625 53.04296875 C-24.7316803 53.29721367 -24.7316803 53.29721367 -25.86071777 53.55659485 C-28.23993245 54.1026459 -30.61995684 54.64507267 -33 55.1875 C-34.70904865 55.57914669 -36.41803158 55.9710803 -38.12695312 56.36328125 C-41.66381132 57.17476659 -45.20094394 57.98503942 -48.73828125 58.79443359 C-56.19225164 60.50100591 -63.64270121 62.22279815 -71.09326172 63.94418335 C-73.50085175 64.5001967 -75.90860133 65.05551372 -78.31640625 65.6105957 C-85.85444019 67.34857889 -93.39171816 69.08967392 -100.92663574 70.84112549 C-104.43967482 71.65752239 -107.95309966 72.47225214 -111.46655273 73.28686523 C-113.12250676 73.67129168 -114.77827674 74.05651203 -116.43383789 74.44262695 C-118.747078 74.98207254 -121.06097209 75.51863279 -123.375 76.0546875 C-124.02674194 76.20747162 -124.67848389 76.36025574 -125.34997559 76.51766968 C-132.54014415 78.17732181 -139.75239353 79.55047871 -147 81 C-147 65.16 -147 49.32 -147 33 C-141.67875 31.824375 -136.3575 30.64875 -130.875 29.4375 C-110.67850673 24.95733394 -90.52072881 20.32790071 -70.42163086 15.42700195 C-56.47344457 12.02708954 -42.48900483 8.83709721 -28.46826172 5.75219727 C-27.74387909 5.59280167 -27.01949646 5.43340607 -26.27316284 5.2691803 C-24.85670885 4.95775199 -23.4401462 4.6468174 -22.02346802 4.33641052 C-16.51432762 3.12545353 -11.02380012 1.8417925 -5.5390625 0.52441406 C-3 0 -3 0 0 0 Z " fill="#FD4A4A" transform="translate(227,237)"/>
</svg>
