<svg xmlns="http://www.w3.org/2000/svg" width="2500" height="366" viewBox="0 0 39.78 5.82"><path d="M8.58 3.66c1.187.028 2.136-.328 2.16-.78-.024-.426-.973-.783-2.16-.78-1.157-.003-2.106.354-2.101.78-.005.452.944.808 2.101.78z"/><path fill="#fff" d="M8.58 3.3c.894.015 1.605-.174 1.62-.42-.015-.221-.727-.41-1.62-.42-.864.011-1.576.2-1.56.42-.016.246.696.435 1.56.42z"/><path d="M14.64 3.48c-.78.768-3.192 1.313-6.06 1.32-3.476-.007-6.305-.858-6.3-1.92-.005-1.037 2.824-1.888 6.3-1.86 2.83-.027 5.216.519 6.06 1.26h2.4C16.234.976 12.76-.024 8.58 0 3.835-.024-.023 1.282 0 2.88c-.023 1.624 3.835 2.93 8.58 2.94 4.197-.011 7.683-1.019 8.46-2.34h-2.4zm9.9-3.06c3.942-.017 7.158.941 7.14 2.58.019 1.611-3.166 2.6-7.14 2.58h-7.02V.42h7.02zm8.1 3.48 4.26-.72-4.26-.72zm5.4-3.48h1.74v1.2h-1.74zm0 1.74h1.74v3.48h-1.74z"/><path fill="#fff" d="M24.54 4.621c2.747.007 4.993-.572 4.98-1.621.014-1.076-2.232-1.625-4.979-1.62H19.5v3.24h5.04z"/></svg>