<svg xmlns="http://www.w3.org/2000/svg" xml:space="preserve" width="240" height="116" viewBox="169.102 12.001 240 116"><linearGradient id="a" x1="-458.33" x2="-458.33" y1="157.156" y2="230.72" gradientTransform="matrix(1 0 0 -1 654 245.84)" gradientUnits="userSpaceOnUse"><stop offset="0" style="stop-color:#9b9b9b"/><stop offset="1" style="stop-color:#5b5c60"/></linearGradient><linearGradient id="b" x1="-408.358" x2="-408.358" y1="157.156" y2="230.72" gradientTransform="matrix(1 0 0 -1 654 245.84)" gradientUnits="userSpaceOnUse"><stop offset="0" style="stop-color:#9b9b9b"/><stop offset="1" style="stop-color:#5b5c60"/></linearGradient><linearGradient id="c" x1="-360.363" x2="-360.363" y1="157.156" y2="230.72" gradientTransform="matrix(1 0 0 -1 654 245.84)" gradientUnits="userSpaceOnUse"><stop offset="0" style="stop-color:#9b9b9b"/><stop offset="1" style="stop-color:#5b5c60"/></linearGradient><linearGradient id="d" x1="-310.685" x2="-310.685" y1="157.156" y2="230.72" gradientTransform="matrix(1 0 0 -1 654 245.84)" gradientUnits="userSpaceOnUse"><stop offset="0" style="stop-color:#9b9b9b"/><stop offset="1" style="stop-color:#5b5c60"/></linearGradient><linearGradient id="e" x1="-263.422" x2="-263.422" y1="157.156" y2="230.72" gradientTransform="matrix(1 0 0 -1 654 245.84)" gradientUnits="userSpaceOnUse"><stop offset="0" style="stop-color:#9b9b9b"/><stop offset="1" style="stop-color:#5b5c60"/></linearGradient><linearGradient id="f" x1="-457.471" x2="-457.471" y1="112.858" y2="189.396" gradientTransform="matrix(1 0 0 -1 654 245.84)" gradientUnits="userSpaceOnUse"><stop offset="0" style="stop-color:#f9da55"/><stop offset="1" style="stop-color:#e04305"/></linearGradient><linearGradient id="g" x1="-408.378" x2="-408.378" y1="112.859" y2="189.396" gradientTransform="matrix(1 0 0 -1 654 245.84)" gradientUnits="userSpaceOnUse"><stop offset="0" style="stop-color:#f9da55"/><stop offset="1" style="stop-color:#e04305"/></linearGradient><linearGradient id="h" x1="-359.724" x2="-359.724" y1="112.858" y2="189.398" gradientTransform="matrix(1 0 0 -1 654 245.84)" gradientUnits="userSpaceOnUse"><stop offset="0" style="stop-color:#f9da55"/><stop offset="1" style="stop-color:#e04305"/></linearGradient><linearGradient id="i" x1="-310.997" x2="-310.997" y1="112.859" y2="189.396" gradientTransform="matrix(1 0 0 -1 654 245.84)" gradientUnits="userSpaceOnUse"><stop offset="0" style="stop-color:#f9da55"/><stop offset="1" style="stop-color:#e04305"/></linearGradient><linearGradient id="j" x1="-262.563" x2="-262.563" y1="112.858" y2="189.397" gradientTransform="matrix(1 0 0 -1 654 245.84)" gradientUnits="userSpaceOnUse"><stop offset="0" style="stop-color:#f9da55"/><stop offset="1" style="stop-color:#e04305"/></linearGradient><path d="m174.233 127.865 1.17-2.779V17.825l-2.926-3.659h36.438l9.95 6v49.898l-27.071 15.071v25.462h3.659zm17.267-61.02 11.707-7.023V31.433H191.5Z" style="fill:url(#a)" transform="matrix(.92035 0 0 .92035 20.132 1.712)"/><path d="m261.152 14.166 6.439 7.463v85.166l-23.852 20.192-20.047-18.585V22.214l6.146-8.048zM240.227 29.97v65.848l9.805 8.634V29.969Z" style="fill:url(#b)" transform="matrix(.92035 0 0 .92035 20.132 1.712)"/><path d="M272.857 125.378V17.825l-2.926-3.659h36.436l9.95 6v30.876l-15.364 8.78 15.364 8.193v28.242l1.025.879-16.975 12.437v-34.68l-11.12-5.854v44.046l2.195 3.22-20.196 14.926zm16.096-74.629 11.706-7.024V31.433h-11.706z" style="fill:url(#c)" transform="matrix(.92035 0 0 .92035 20.132 1.712)"/><path d="M334.608 31.433h-13.024V17.824l-2.926-3.659h49.313l-2.926 3.659v13.609h-14.196v83.553l2.342 3.513-20.341 14.633 1.756-7.902V31.433Z" style="fill:url(#d)" transform="matrix(.92035 0 0 .92035 20.132 1.712)"/><path d="m403.82 14.166 9.951 6v14.78h-17.56v-3.512h-9.805v21.803l27.364 14.778v24.146l-44.632 35.704 1.172-2.779V77.088h16.096v10.39l9.805-7.17v-6l-25.899-14.634V17.825l-2.928-3.659z" style="fill:url(#e)" transform="matrix(.92035 0 0 .92035 20.132 1.712)"/><path d="M218.845 60.32v9.688l-27.072 15.071v25.461h3.659l-21.218 17.268 1.171-2.779V85.201" style="fill:url(#f)" transform="matrix(.92035 0 0 .92035 20.132 1.712)"/><path d="M267.572 84.119v22.616l-23.852 20.193-20.047-18.585V59.869l16.535 9.014V95.76l9.804 8.634V74.475Z" style="fill:url(#g)" transform="matrix(.92035 0 0 .92035 20.132 1.712)"/><path d="M289.227 76.907v36.121l2.195 3.219-20.193 14.927 1.609-5.853V84.66m39.232-18.957 4.229 2.256V96.2l1.025.878-16.976 12.438v-34.68l-3.292-1.732" style="fill:url(#h)" transform="matrix(.92035 0 0 .92035 20.132 1.712)"/><path d="M350.833 74.203v40.727l2.341 3.512-20.34 14.633 1.756-7.902V64.017" style="fill:url(#i)" transform="matrix(.92035 0 0 .92035 20.132 1.712)"/><path d="m403.894 62.633 9.859 5.326v24.145l-44.632 35.704 1.171-2.779V77.031h16.096v10.391l9.805-7.171v-5.999l-8.329-4.708" style="fill:url(#j)" transform="matrix(.92035 0 0 .92035 20.132 1.712)"/><path d="m218.364 61.898-41.378 23.936-1.085-1.874 41.38-23.937zM240.721 67.934l-1.028 1.9-15.355-8.328 1.034-1.902zM267.461 83.153l-1.101 1.865-15.82-9.332 1.1-1.865zM289.441 77.885l-15.551 7.842-.976-1.93 15.551-7.844zM310.551 67.059l-12.305 6.49-1.008-1.915 12.304-6.491zM349.724 72.229l-1.192 1.806-13.524-8.926 1.193-1.804zM402.721 63.839l-13.928 6.356-.898-1.97 13.926-6.356z" style="fill:#542209" transform="matrix(.92035 0 0 .92035 20.132 1.712)"/><path d="M180.068 116.035V18.142l-4.305-5.383h37.056l10.234 6.171v47.646l-24.914 13.87v21.063h6.073l-22.784 18.541-4.646 3.78zm1.793 3.437-1.376-.579zm1.195-102.379v97.781l12.753-10.378h-.657V78.69l24.912-13.872V20.615l-8.076-4.87-30.014-.001zm11.826 11.558h13.762v28.465l-11.5 6.898-.769-1.28.769 1.28-2.262 1.361V28.651Zm2.987 31.445 7.786-4.67V31.636l-7.786-.002zM224.51 101.631V21.154l6.41-8.395h29.56v1.493-1.493h.682l6.738 7.805v79.628l-23.492 19.889zm2.987-79.466v78.167l17.002 15.76 20.414-17.28V21.674l-5.118-5.93H232.4zm12.232 67.909V27.303h12.01v73.352zm2.987-1.349 6.035 5.315V30.29h-6.035zm-1.493-58.434v-1.494z"/><path d="m269.76 116.398-.003-98.256-4.305-5.384h37.056l10.237 6.173v30.127l-12.546 7.167 12.546 6.692-.002 26.201 1.854 1.587-19.52 14.297v-33.96l-7.247-3.814v37.603l2.572 3.768-23.217 17.16zm2.987.408-.392 1.418 13.96-10.316-1.471-2.159V62.282l13.22 6.958-.002 29.872 11.73-8.593-.037-.028V64.708l-15.736-8.392 15.736-8.992V20.616l-8.08-4.871h-30.008l1.08 1.349v99.51Zm11.827-88.155h13.76v13.648l-11.498 6.902-.77-1.281.77 1.281-2.262 1.358zm2.986 16.631 7.787-4.673v-8.974h-7.787z"/><path d="M326.59 116.306v-84.67h-11.984V18.142L310.3 12.76H361.9l-4.309 5.385v13.492h-13.064v74.955l2.704 4.053-23.071 16.6zm2.99-87.655v87.982l-.805 3.612 14.37-10.34-1.604-2.41V28.651h13.063V17.094l1.08-1.348h-39.172l1.08 1.348v11.557h10.492v1.493-1.493z"/><path d="M359.451 116.034V70.667h17.8v8.111l6.037-4.412v-3.895l-23.835-13.464V18.143l-4.305-5.385h36.639v1.494-1.494h.417l10.237 6.172v15.94h-19.15v-3.233h-6.038V49.32l25.187 13.604v23.83l-46.233 36.978zm2.988-1.11 37.009-29.608V64.702L374.264 51.1V28.65h12.012l-.002 3.231h13.175V20.615l-8.076-4.87-30.016-.001 1.083 1.35-.003 38.169 23.839 13.467v7.15l-12.012 8.786V73.655H362.44z"/></svg>