<?xml version="1.0" encoding="UTF-8" standalone="no"?>
<!DOCTYPE svg PUBLIC "-//W3C//DTD SVG 1.1//EN" "http://www.w3.org/Graphics/SVG/1.1/DTD/svg11.dtd">
<svg xmlns="http://www.w3.org/2000/svg" version="1.1" viewBox="0.00 0.00 512.00 512.00">
<g stroke-width="2.00" fill="none" stroke-linecap="butt">
<path stroke="#0169c4" vector-effect="non-scaling-stroke" d="
  M 450.57 97.50
  Q 449.66 98.66 451.63 101.89
  A 0.22 0.22 0.0 0 1 451.31 102.18
  Q 450.31 101.41 450.19 100.23
  A 0.79 0.78 -85.3 0 0 449.61 99.54
  Q 448.95 99.35 448.69 99.68
  Q 448.00 100.55 448.00 99.25
  L 448.00 98.50
  Q 448.00 97.99 447.48 98.01
  C 445.41 98.08 443.97 97.42 441.89 97.63
  Q 438.55 97.98 435.37 96.65
  Q 434.90 96.46 434.53 96.80
  C 432.54 98.66 429.63 96.42 426.57 97.79
  A 0.93 0.90 48.2 0 1 425.71 97.73
  C 422.27 95.59 420.47 98.67 417.20 97.36
  Q 416.74 97.17 416.26 97.30
  C 413.06 98.16 408.22 95.95 406.24 97.66
  A 0.87 0.87 0.0 0 1 405.28 97.78
  Q 402.27 96.28 399.46 98.00
  A 0.99 0.98 43.2 0 1 398.46 98.03
  Q 395.55 96.49 392.50 97.80
  A 1.28 1.25 44.3 0 1 391.51 97.80
  C 389.00 96.75 386.69 98.12 383.90 97.65
  Q 383.39 97.57 383.05 97.18
  Q 382.45 96.48 381.54 96.49
  A 1.09 1.08 -72.4 0 0 380.68 96.94
  C 379.34 98.77 377.62 97.12 376.10 96.75
  A 0.97 0.96 35.0 0 0 375.34 96.88
  L 372.62 98.72
  A 0.74 0.74 0.0 0 1 371.70 98.65
  Q 369.30 96.38 366.03 97.61
  Q 365.53 97.80 365.02 97.68
  C 361.69 96.92 358.62 98.83 355.01 97.00
  A 1.10 1.09 45.3 0 0 354.05 96.99
  L 352.36 97.78
  Q 351.88 98.01 351.44 97.71
  C 347.62 95.16 346.08 100.70 343.43 97.72
  Q 343.08 97.33 342.56 97.22
  C 340.74 96.87 338.99 97.66 337.55 97.68
  Q 332.78 97.74 328.00 97.44
  Q 327.47 97.41 327.09 97.78
  L 326.55 98.33
  A 0.87 0.87 0.0 0 1 325.31 98.31
  Q 322.66 95.53 319.54 98.10
  A 0.90 0.89 -50.4 0 1 318.54 98.20
  C 315.21 96.42 312.28 97.75 309.35 97.66
  Q 307.04 97.58 304.68 97.64
  Q 304.22 97.65 303.87 97.95
  Q 302.54 99.04 301.12 97.82
  Q 300.75 97.50 300.26 97.54
  Q 298.12 97.68 296.12 96.76
  Q 295.73 96.58 295.34 96.76
  L 292.12 98.26
  A 0.78 0.77 48.2 0 1 291.36 98.21
  C 287.97 96.00 285.70 99.34 283.50 97.49
  A 1.00 0.97 -28.1 0 0 282.73 97.27
  L 277.95 98.00
  Q 277.52 98.06 277.12 97.86
  Q 272.46 95.46 267.11 97.56"
/>
<path stroke="#80b6e4" vector-effect="non-scaling-stroke" d="
  M 267.11 97.56
  Q 255.14 90.79 244.84 99.53"
/>
<path stroke="#0169c4" vector-effect="non-scaling-stroke" d="
  M 244.84 99.53
  Q 243.75 99.19 243.63 98.28
  Q 243.54 97.68 242.94 97.58
  L 240.65 97.23
  A 0.91 0.90 -57.1 0 0 240.02 97.37
  C 237.72 98.89 236.58 97.19 234.69 97.19
  Q 232.91 97.18 231.18 97.79
  A 1.28 1.28 0.0 0 1 230.22 97.74
  Q 228.44 96.93 226.67 97.79
  A 1.01 0.98 -51.2 0 1 226.03 97.87
  Q 221.75 96.98 217.49 97.80
  A 0.76 0.72 -34.2 0 1 216.99 97.72
  Q 215.41 96.88 213.71 97.12
  A 1.54 1.51 18.2 0 0 212.84 97.55
  Q 211.53 98.83 209.94 97.88
  Q 209.58 97.66 209.20 97.86
  L 208.28 98.37
  Q 207.86 98.60 207.79 98.13
  L 207.72 97.64
  Q 207.67 97.27 207.30 97.29
  Q 204.66 97.46 202.02 97.35
  C 200.42 97.28 199.02 98.05 197.23 97.74
  C 195.30 97.40 194.06 95.17 191.87 97.70
  A 0.65 0.65 0.0 0 1 191.06 97.84
  L 188.84 96.56
  A 0.64 0.63 45.4 0 0 188.20 96.55
  L 184.79 98.38
  A 1.00 0.99 -39.6 0 1 183.70 98.28
  Q 181.55 96.55 179.02 97.63
  Q 178.56 97.82 178.08 97.73
  Q 173.99 96.99 169.79 97.56
  A 1.14 1.13 61.4 0 1 168.92 97.30
  Q 166.99 95.69 165.12 97.34
  A 0.96 0.96 0.0 0 1 164.04 97.46
  Q 161.37 96.05 158.86 97.89
  A 2.35 2.34 44.1 0 1 156.15 97.93
  Q 154.24 96.61 152.04 97.62
  Q 151.64 97.80 151.21 97.73
  C 147.51 97.10 143.65 98.29 140.41 96.57
  A 0.54 0.54 0.0 0 0 139.71 96.73
  L 138.50 98.43
  A 0.64 0.64 0.0 0 1 137.54 98.53
  Q 134.59 95.85 131.23 98.20
  Q 130.85 98.46 130.45 98.22
  Q 127.28 96.29 123.82 97.72
  Q 123.38 97.90 122.92 97.80
  Q 118.67 96.88 114.93 98.84
  Q 114.33 99.16 113.99 98.57
  Q 112.99 96.84 111.08 97.84
  A 0.93 0.92 -42.2 0 1 110.15 97.80
  Q 107.23 95.97 105.10 98.40
  Q 104.71 98.83 104.15 98.75
  Q 103.30 98.63 102.79 97.80
  A 2.00 2.00 0.0 0 0 100.28 97.01
  Q 97.50 98.21 94.76 97.27
  A 0.80 0.74 43.7 0 0 94.29 97.26
  Q 91.61 98.05 88.80 97.70
  Q 88.34 97.65 87.95 97.37
  Q 86.43 96.27 85.08 97.70
  A 0.71 0.71 0.0 0 1 84.32 97.88
  L 81.35 96.86
  Q 80.82 96.67 80.35 96.97
  L 77.54 98.72
  A 0.70 0.70 0.0 0 1 76.70 98.64
  Q 74.10 96.24 70.69 97.77
  A 1.27 1.26 43.8 0 1 69.68 97.79
  Q 67.04 96.73 64.49 98.12
  Q 64.08 98.35 64.00 98.81
  Q 63.84 99.85 62.19 99.11
  A 0.23 0.23 0.0 0 1 62.13 98.72
  Q 62.35 98.53 62.21 98.06
  A 0.12 0.11 70.9 0 0 62.06 97.98
  Q 61.91 98.03 61.76 98.08
  Q 61.55 98.16 61.50 97.94
  L 61.39 97.45"
/>
<path stroke="#80b2df" vector-effect="non-scaling-stroke" d="
  M 267.11 97.56
  C 276.90 105.22 277.96 118.26 268.44 126.18
  C 251.37 140.39 228.94 116.28 244.84 99.53"
/>
<path stroke="#0161ba" vector-effect="non-scaling-stroke" d="
  M 461.14 140.74
  L 460.35 145.42
  Q 460.33 145.59 460.25 145.44
  L 458.39 142.01
  Q 458.07 141.42 457.40 141.49
  Q 455.34 141.72 453.74 140.39
  A 0.97 0.95 -29.9 0 0 452.93 140.18
  L 450.28 140.67
  A 0.82 0.79 53.9 0 1 449.71 140.57
  Q 448.05 139.54 446.55 140.38
  Q 446.02 140.68 445.43 140.79
  L 441.34 141.60
  Q 440.83 141.70 440.36 141.49
  Q 439.65 141.18 439.05 140.68
  Q 438.69 140.38 438.24 140.51
  Q 435.17 141.47 432.01 140.70
  A 1.36 1.35 -55.4 0 0 430.90 140.91
  Q 428.31 142.75 426.90 139.84
  A 0.58 0.58 0.0 0 0 425.96 139.69
  Q 424.04 141.70 422.18 139.84
  Q 421.81 139.47 421.31 139.62
  L 414.34 141.61
  Q 413.77 141.78 413.26 141.47
  L 411.84 140.60
  A 0.81 0.80 -37.4 0 0 411.20 140.52
  C 408.00 141.54 405.28 139.97 402.50 141.64
  Q 401.91 141.99 401.42 141.51
  L 399.65 139.79
  A 0.48 0.47 45.4 0 0 398.99 139.78
  Q 396.93 141.69 395.09 139.75
  Q 394.72 139.35 394.19 139.49
  C 391.02 140.32 388.05 143.42 384.93 140.22
  Q 384.52 139.80 384.02 140.09
  Q 381.22 141.75 378.04 140.62
  A 1.18 1.14 37.8 0 0 377.03 140.73
  Q 375.04 141.99 373.60 140.25
  A 0.72 0.72 0.0 0 0 372.73 140.06
  Q 370.13 141.29 367.98 139.52
  Q 367.56 139.18 367.12 139.49
  Q 363.94 141.74 360.18 141.14
  C 357.64 140.73 355.71 141.17 353.30 140.96
  Q 352.74 140.91 352.32 140.53
  Q 350.55 138.92 349.05 141.17
  Q 348.76 141.61 348.29 141.35
  L 346.20 140.17
  Q 345.85 139.98 345.48 140.13
  Q 343.31 141.06 341.22 140.25
  Q 340.64 140.02 340.04 140.18
  L 334.28 141.75
  Q 333.77 141.89 333.35 141.58
  C 331.24 140.01 327.38 141.48 324.32 140.28
  A 0.95 0.94 30.4 0 0 323.26 140.55
  Q 321.50 142.63 319.39 140.93
  Q 318.95 140.58 318.40 140.67
  C 315.91 141.11 314.21 139.83 312.05 140.21
  Q 309.79 140.62 307.72 141.72
  Q 307.26 141.97 306.77 141.75
  L 304.81 140.85
  Q 304.40 140.67 303.97 140.77
  Q 300.61 141.57 297.42 140.29
  A 1.07 1.06 -57.3 0 0 296.25 140.55
  Q 294.73 142.17 292.88 141.02
  Q 292.42 140.74 291.88 140.77
  L 286.62 141.11
  A 0.96 0.87 -59.3 0 0 286.33 141.20
  C 283.77 142.64 275.51 141.26 272.23 141.55
  C 268.90 141.84 265.92 140.85 262.92 141.01
  Q 258.67 141.24 254.43 141.48
  C 252.00 141.61 249.21 140.74 246.23 141.75
  Q 245.72 141.92 245.22 141.71
  Q 243.18 140.85 241.04 141.57
  A 1.08 1.07 51.8 0 1 240.13 141.46
  C 238.02 140.16 236.27 141.23 233.90 140.63
  Q 233.38 140.49 232.85 140.61
  L 226.53 142.02
  A 1.11 1.09 53.2 0 1 225.75 141.90
  C 223.13 140.33 219.98 141.29 216.94 140.66
  A 1.26 1.24 -56.7 0 0 215.93 140.88
  Q 213.52 142.69 212.01 140.02
  Q 211.69 139.45 211.13 139.81
  C 208.37 141.60 205.89 139.15 204.14 141.00
  Q 203.78 141.38 203.26 141.28
  Q 201.28 140.90 199.45 141.77
  A 0.84 0.83 -42.5 0 1 198.67 141.74
  L 196.92 140.74
  A 0.79 0.75 51.3 0 0 196.34 140.66
  Q 193.23 141.40 190.12 140.67
  Q 189.57 140.54 189.05 140.77
  L 188.19 141.15
  Q 187.66 141.38 187.15 141.11
  L 185.24 140.06
  A 0.63 0.62 47.6 0 0 184.69 140.03
  Q 183.08 140.69 181.36 140.78
  Q 181.05 140.79 180.89 141.06
  L 180.37 141.91
  A 0.50 0.50 0.0 0 1 179.45 141.55
  L 179.79 140.01
  Q 179.95 139.26 179.31 139.68
  Q 175.41 142.24 170.84 140.69
  Q 170.34 140.52 169.83 140.65
  Q 166.78 141.40 163.71 140.72
  A 1.30 1.29 32.1 0 0 162.66 140.96
  Q 160.58 142.61 158.95 140.53
  A 0.97 0.96 64.9 0 0 158.00 140.18
  Q 155.78 140.66 153.93 139.62
  Q 153.51 139.38 153.05 139.58
  C 150.45 140.69 146.58 142.65 144.01 140.66
  Q 143.65 140.39 143.22 140.52
  Q 140.11 141.49 136.92 140.67
  A 1.22 1.20 31.9 0 0 135.85 140.91
  Q 133.72 142.63 131.96 140.56
  A 0.87 0.86 56.3 0 0 130.92 140.35
  Q 128.82 141.40 127.21 139.91
  Q 126.80 139.53 126.26 139.65
  C 123.76 140.19 119.12 142.45 116.99 140.94
  Q 116.64 140.69 116.21 140.77
  Q 112.96 141.32 109.71 140.69
  A 1.26 1.24 30.3 0 0 108.68 140.95
  Q 106.72 142.52 105.29 140.34
  A 0.68 0.67 59.3 0 0 104.40 140.11
  Q 102.01 141.44 99.96 139.91
  A 0.86 0.85 -34.7 0 0 99.21 139.78
  L 93.54 141.44
  Q 93.08 141.57 92.60 141.58
  Q 90.71 141.63 90.14 140.30
  A 0.59 0.59 0.0 0 0 89.29 140.02
  Q 86.32 141.77 82.92 140.62
  A 1.07 1.06 -52.3 0 0 81.96 140.75
  Q 80.21 141.96 78.79 140.41
  A 1.06 1.06 0.0 0 0 77.75 140.11
  L 74.97 140.80
  A 1.66 1.63 51.8 0 1 73.80 140.65
  Q 71.99 139.69 70.23 140.76
  Q 69.76 141.05 69.20 141.00
  Q 67.45 140.86 65.86 141.60
  Q 65.34 141.84 64.78 141.71
  Q 61.65 140.98 58.48 141.46
  A 1.29 1.27 -34.5 0 1 57.69 141.32
  Q 55.65 140.21 53.84 141.62
  A 0.68 0.68 0.0 0 1 52.94 141.57
  L 52.44 141.06
  Q 51.82 140.45 51.97 141.30
  Q 52.25 142.88 51.62 144.31
  Q 51.32 144.99 51.26 144.25
  L 50.92 140.50"
/>
<path stroke="#0158a8" stroke-opacity="0.569" vector-effect="non-scaling-stroke" d="
  M 50.92 140.50
  L 52.94 121.89"
/>
<path stroke="#01529f" stroke-opacity="0.569" vector-effect="non-scaling-stroke" d="
  M 50.92 140.50
  L 50.05 165.49"
/>
<path stroke="#014b97" stroke-opacity="0.569" vector-effect="non-scaling-stroke" d="
  M 50.05 165.49
  L 50.05 232.50"
/>
<path stroke="#003d87" stroke-opacity="0.569" vector-effect="non-scaling-stroke" d="
  M 50.05 232.50
  L 50.19 359.23"
/>
<path stroke="#00337a" stroke-opacity="0.569" vector-effect="non-scaling-stroke" d="
  M 50.19 359.23
  Q 50.73 375.23 52.90 390.65"
/>
<path stroke="#0159b1" vector-effect="non-scaling-stroke" d="
  M 461.86 166.00
  L 461.51 179.99
  Q 461.49 180.79 461.23 180.09
  Q 461.15 179.88 461.22 179.57
  Q 461.22 179.56 461.16 179.57
  Q 461.13 179.57 461.10 179.57
  A 0.19 0.08 -87.3 0 0 461.01 179.75
  L 460.97 181.20
  A 0.26 0.26 0.0 0 1 460.46 181.24
  L 460.35 180.70
  Q 460.24 180.16 460.06 180.68
  Q 459.86 181.25 459.98 181.90
  Q 459.98 181.94 459.94 181.94
  Q 459.92 181.93 459.90 181.93
  Q 459.84 181.93 459.82 181.74
  L 459.55 179.80
  Q 459.53 179.59 459.41 179.77
  L 458.42 181.30
  A 2.57 2.57 0.0 0 1 455.43 182.33
  Q 453.59 181.70 452.31 183.01
  Q 451.98 183.33 451.53 183.25
  C 449.07 182.78 446.91 184.26 445.32 183.86
  Q 444.18 183.58 444.10 182.43
  Q 444.06 181.97 443.61 182.03
  C 439.64 182.51 435.15 183.93 431.27 182.36
  Q 430.83 182.18 430.36 182.28
  Q 428.87 182.59 427.36 182.23
  A 1.12 1.10 33.0 0 0 426.42 182.42
  L 425.43 183.16
  Q 425.02 183.47 424.52 183.36
  C 421.76 182.74 419.31 184.72 417.23 183.08
  Q 416.83 182.77 416.33 182.75
  Q 415.39 182.71 414.76 183.34
  Q 414.43 183.68 413.96 183.68
  L 405.75 183.69
  A 0.69 0.68 -87.2 0 0 405.07 184.31
  L 404.86 186.72
  A 0.65 0.65 0.0 0 1 403.58 186.83
  L 402.97 184.50
  Q 402.88 184.14 402.57 184.35
  L 401.31 185.23
  A 0.97 0.96 -43.2 0 1 400.16 185.20
  Q 398.01 183.54 396.50 185.72
  Q 396.43 185.81 396.33 185.78
  Q 396.17 185.72 396.01 185.67
  Q 395.73 185.58 395.96 185.38
  L 397.83 183.76
  Q 398.29 183.36 397.69 183.25
  C 395.11 182.80 392.21 184.66 389.99 182.83
  A 0.84 0.83 52.6 0 0 389.12 182.71
  L 387.20 183.57
  Q 386.71 183.79 386.19 183.68
  Q 382.81 183.01 379.54 184.14
  A 1.04 1.02 50.8 0 1 378.64 184.04
  Q 376.87 182.90 375.83 184.56
  Q 375.48 185.11 374.83 185.13
  Q 372.88 185.17 371.68 183.62
  Q 371.35 183.19 370.81 183.11
  L 367.93 182.67
  Q 367.40 182.59 367.01 182.96
  Q 365.48 184.43 363.71 183.41
  Q 363.24 183.14 363.02 183.63
  Q 362.68 184.40 363.06 185.15
  Q 363.93 186.87 362.41 185.69
  Q 361.27 184.81 361.52 183.27
  Q 361.59 182.84 361.17 182.96
  L 357.06 184.10
  Q 356.53 184.25 356.08 183.95
  Q 354.46 182.89 353.04 184.39
  A 0.72 0.71 -52.7 0 1 352.17 184.51
  Q 351.11 183.88 351.02 185.25
  A 0.41 0.41 0.0 0 1 350.25 185.42
  L 349.48 183.99
  A 0.35 0.35 0.0 0 0 348.90 183.95
  Q 347.27 186.12 345.13 184.29
  A 0.74 0.69 66.7 0 0 344.72 184.11
  L 340.85 183.76
  Q 340.30 183.71 339.76 183.85
  Q 337.72 184.38 336.04 183.02
  Q 335.64 182.69 335.15 182.82
  L 331.31 183.74
  Q 330.82 183.86 330.45 184.19
  Q 329.64 184.91 328.66 184.01
  A 0.61 0.60 40.1 0 0 327.77 184.08
  Q 326.53 185.69 324.89 184.51
  Q 324.53 184.26 324.29 184.63
  L 323.43 186.00
  A 0.37 0.37 0.0 0 1 322.75 185.80
  L 322.75 184.02
  A 0.32 0.31 -23.6 0 0 322.20 183.81
  Q 320.34 185.77 318.52 184.39
  C 314.97 181.72 313.15 185.03 310.33 183.35
  A 0.54 0.54 0.0 0 0 309.69 183.43
  L 309.37 183.76
  A 0.55 0.54 40.4 0 1 308.68 183.81
  Q 307.10 182.68 305.23 183.50
  Q 302.37 184.76 299.75 184.95
  A 1.14 1.10 -23.9 0 1 298.90 184.64
  Q 297.67 183.42 296.68 184.70
  A 0.20 0.20 0.0 0 1 296.35 184.68
  L 296.01 184.11
  A 0.17 0.17 0.0 0 0 295.72 184.10
  C 294.90 185.30 293.84 185.55 292.65 184.62
  Q 289.41 182.10 285.81 184.06
  Q 285.34 184.32 284.86 184.08
  Q 280.98 182.19 277.09 184.39
  A 0.47 0.46 -42.1 0 1 276.59 184.37
  Q 275.71 183.74 274.41 184.21"
/>
<path stroke="#80aeda" vector-effect="non-scaling-stroke" d="
  M 274.41 184.21
  C 280.82 157.20 237.33 152.38 239.59 182.72"
/>
<path stroke="#0159b1" vector-effect="non-scaling-stroke" d="
  M 239.59 182.72
  Q 239.23 183.82 238.30 183.26
  Q 237.93 183.04 237.58 183.28
  L 236.54 183.99
  Q 236.14 184.27 235.66 184.24
  C 232.64 184.07 229.88 183.32 226.91 183.60
  Q 222.16 184.03 217.33 184.13
  Q 216.62 184.14 216.88 184.80
  Q 217.24 185.72 216.40 186.44
  Q 215.97 186.80 215.61 186.36
  Q 215.06 185.70 215.26 184.79
  Q 215.44 183.96 214.77 184.47
  Q 213.39 185.49 212.02 184.68
  Q 211.55 184.39 211.03 184.59
  L 208.71 185.46
  A 0.36 0.35 4.2 0 1 208.27 184.96
  Q 208.98 183.72 210.44 183.73
  A 0.04 0.04 0.0 0 0 210.47 183.67
  L 210.24 183.35
  Q 210.13 183.21 209.95 183.23
  Q 208.44 183.40 206.97 183.06
  Q 206.45 182.94 205.96 183.14
  Q 204.56 183.70 203.14 183.18
  Q 202.53 182.96 202.33 183.58
  L 202.05 184.43
  Q 201.89 184.93 201.38 184.78
  Q 200.61 184.56 200.51 183.88
  Q 200.44 183.40 199.97 183.50
  Q 196.93 184.12 193.89 183.45
  A 0.58 0.57 37.6 0 0 193.49 183.50
  L 192.15 184.18
  A 0.94 0.93 -46.9 0 1 191.36 184.21
  Q 189.37 183.36 188.28 184.75
  Q 187.92 185.21 187.35 185.24
  C 184.00 185.43 182.65 181.61 178.94 183.79
  Q 178.50 184.04 178.03 183.86
  Q 174.96 182.66 170.76 183.62
  Q 167.71 184.32 163.04 183.26
  A 1.04 1.01 22.2 0 0 161.96 183.70
  Q 160.19 186.43 157.64 184.30
  Q 157.25 183.97 156.74 183.87
  C 154.26 183.42 151.54 184.25 149.34 183.31
  Q 148.68 183.02 148.47 183.70
  L 148.17 184.66
  Q 148.03 185.11 147.58 184.98
  Q 146.52 184.65 146.49 183.55
  Q 146.48 183.03 145.98 183.18
  Q 143.20 184.01 140.34 183.76
  Q 139.67 183.70 139.19 184.18
  L 138.54 184.84
  A 0.74 0.73 47.3 0 1 137.46 184.79
  Q 135.72 182.72 134.04 184.80
  A 1.19 1.17 -73.4 0 1 133.24 185.24
  Q 131.51 185.43 130.64 184.05
  Q 130.42 183.71 130.71 183.42
  L 131.33 182.80
  Q 131.68 182.45 131.19 182.53
  L 124.00 183.83
  A 1.08 1.06 60.0 0 1 123.11 183.58
  Q 121.34 181.98 119.51 183.51
  A 1.14 1.12 30.9 0 1 118.52 183.75
  Q 115.08 182.98 111.75 184.09
  A 1.27 1.27 0.0 0 1 110.73 184.00
  Q 108.40 182.74 107.30 185.07
  Q 107.02 185.66 106.39 185.56
  Q 104.71 185.30 103.85 183.70
  Q 103.66 183.35 103.26 183.29
  C 102.20 183.14 100.15 182.69 99.20 183.17
  Q 98.53 183.51 98.42 184.09
  A 0.88 0.88 0.0 0 1 96.83 184.43
  Q 95.03 181.80 92.42 183.48
  Q 91.97 183.77 91.44 183.65
  C 88.73 183.05 85.75 184.47 83.62 183.93
  Q 83.04 183.78 83.03 184.38
  L 82.99 185.77
  A 0.57 0.57 0.0 0 1 82.27 186.30
  Q 81.12 185.97 81.01 184.82
  Q 80.96 184.27 80.48 184.55
  Q 78.22 185.85 77.09 183.73
  Q 76.85 183.29 76.36 183.22
  L 72.63 182.63
  Q 72.20 182.56 71.90 182.88
  Q 70.04 184.84 67.98 182.84
  A 0.55 0.53 -31.7 0 0 67.44 182.72
  L 62.43 184.45
  Q 61.94 184.62 61.48 184.39
  Q 59.80 183.56 58.64 184.88
  A 0.73 0.72 -54.4 0 1 57.74 185.03
  Q 54.73 183.34 51.63 185.19
  Q 51.19 185.45 51.07 185.94
  L 50.70 187.40
  A 0.25 0.25 0.0 0 1 50.20 187.34
  L 50.05 165.49"
/>
<path stroke="#004092" vector-effect="non-scaling-stroke" d="
  M 110.83 356.04
  Q 110.34 356.20 110.03 356.52
  A 0.32 0.32 0.0 0 1 109.53 356.49
  L 109.25 356.11
  Q 108.96 355.72 108.53 355.96
  Q 106.76 356.96 104.83 356.12
  A 0.96 0.93 48.7 0 0 104.22 356.07
  Q 101.83 356.67 99.67 355.70
  Q 99.26 355.51 98.82 355.64
  L 97.89 355.90
  Q 97.39 356.04 96.92 355.81
  Q 94.62 354.68 92.27 355.75
  A 1.32 1.29 40.6 0 1 91.36 355.81
  Q 88.69 355.02 85.91 355.33
  Q 85.41 355.39 84.96 355.17
  Q 82.67 354.08 81.46 356.28
  Q 81.19 356.77 80.67 356.58
  L 77.88 355.54
  Q 77.33 355.34 76.79 355.58
  L 75.01 356.38
  A 0.88 0.86 48.4 0 1 74.19 356.32
  C 71.51 354.60 69.00 354.56 66.03 355.61
  C 63.83 356.38 61.88 354.17 59.14 355.32
  Q 58.66 355.52 58.15 355.48
  Q 54.83 355.20 52.68 357.70
  Q 52.27 358.19 52.10 357.57
  Q 51.41 355.03 51.80 352.38
  Q 51.81 352.31 51.74 352.31
  Q 51.71 352.31 51.66 352.31
  Q 51.59 352.31 51.58 352.50
  L 51.25 361.50
  Q 51.24 361.83 51.02 361.58
  Q 50.90 361.46 50.93 361.24
  Q 51.05 360.26 50.96 359.27
  A 0.07 0.07 0.0 0 0 50.83 359.25
  Q 50.79 359.37 50.76 359.50
  Q 50.70 359.72 50.57 359.53
  Q 50.41 359.30 50.19 359.23"
/>
<path stroke="#014da3" vector-effect="non-scaling-stroke" d="
  M 461.90 223.43
  Q 460.79 228.18 461.37 233.38
  A 0.14 0.14 0.0 0 1 461.10 233.42
  L 460.03 227.77
  Q 460.01 227.65 459.93 227.74
  Q 459.40 228.33 458.39 228.57
  Q 457.99 228.66 457.64 228.45
  Q 454.12 226.35 449.64 225.20
  Q 448.29 224.85 447.91 225.93
  Q 447.77 226.35 447.35 226.49
  Q 445.92 226.98 444.87 226.00
  A 1.28 1.27 -47.1 0 0 443.07 226.07
  L 442.08 227.12
  A 0.87 0.85 -52.4 0 1 440.99 227.27
  Q 438.84 225.92 436.56 227.04
  Q 436.12 227.26 435.63 227.15
  Q 432.27 226.40 428.84 226.99
  Q 428.35 227.07 427.91 226.85
  Q 425.98 225.88 424.49 227.40
  A 0.84 0.83 39.3 0 1 423.41 227.50
  L 421.69 226.30
  A 0.90 0.88 49.1 0 0 420.82 226.23
  Q 419.36 226.92 417.82 226.41
  Q 417.30 226.23 416.81 226.48
  C 414.80 227.50 413.17 226.47 411.39 226.61
  C 406.86 226.96 403.81 227.82 399.37 226.37
  Q 398.89 226.21 398.54 226.57
  Q 396.85 228.35 395.16 226.67
  Q 394.81 226.32 394.33 226.38
  Q 388.50 227.01 382.68 226.75
  C 381.33 226.69 380.39 225.82 378.78 226.85
  A 0.57 0.49 26.1 0 1 378.51 226.92
  L 372.86 226.94
  Q 372.42 226.95 372.18 226.58
  Q 370.94 224.69 368.82 225.28
  Q 368.32 225.42 367.94 225.08
  Q 367.05 224.29 366.88 225.31"
/>
<path stroke="#80aad6" vector-effect="non-scaling-stroke" d="
  M 366.88 225.31
  C 347.60 208.89 321.01 204.34 298.28 215.85
  C 292.20 218.93 284.65 223.54 278.29 227.96
  Q 277.88 228.24 277.38 228.24
  Q 258.24 228.27 239.11 228.24
  C 237.97 228.24 237.30 228.74 236.09 227.90
  Q 226.25 221.07 215.56 215.69
  C 192.29 203.99 165.11 209.33 145.89 226.76"
/>
<path stroke="#014da3" vector-effect="non-scaling-stroke" d="
  M 145.89 226.76
  Q 144.76 225.66 142.41 227.41
  A 0.79 0.77 28.2 0 1 141.89 227.56
  L 128.33 226.28
  Q 128.00 226.25 128.00 226.58
  Q 128.00 226.71 128.01 226.86
  Q 128.03 227.35 127.64 227.06
  C 126.36 226.14 123.75 226.80 122.01 226.45
  A 1.50 1.46 36.4 0 0 121.08 226.58
  C 119.47 227.39 118.20 226.60 116.90 226.57
  Q 110.70 226.41 104.48 226.45
  Q 103.98 226.45 103.55 226.72
  L 102.46 227.41
  Q 101.99 227.70 101.51 227.42
  Q 97.19 224.92 92.83 226.83
  Q 92.40 227.01 91.96 226.86
  Q 90.24 226.24 88.52 226.67
  Q 87.98 226.80 87.46 226.60
  Q 84.89 225.63 82.40 226.75
  Q 81.88 226.98 81.48 226.58
  Q 80.77 225.86 80.23 226.66
  A 0.73 0.73 0.0 0 1 79.25 226.87
  Q 77.16 225.61 75.62 227.34
  A 0.82 0.81 26.8 0 1 74.82 227.60
  L 70.59 226.66
  Q 70.08 226.55 69.63 226.28
  Q 68.37 225.53 66.96 226.31
  Q 66.51 226.56 65.99 226.59
  Q 61.60 226.82 57.28 227.73
  C 55.52 228.10 54.26 229.35 52.28 229.61
  Q 51.85 229.67 51.79 230.10
  L 51.75 230.46
  A 0.07 0.07 0.0 0 1 51.61 230.47
  Q 51.56 230.31 51.42 230.18
  Q 51.05 229.83 51.02 230.34
  L 50.41 241.69
  Q 50.41 241.69 50.40 241.69
  Q 50.38 241.69 50.34 241.69
  A 0.12 0.12 0.0 0 1 50.22 241.58
  L 50.05 232.50"
/>
<path stroke="#00337a" stroke-opacity="0.569" vector-effect="non-scaling-stroke" d="
  M 56.85 405.09
  L 54.07 396.21"
/>
<path stroke="#80aad6" vector-effect="non-scaling-stroke" d="
  M 274.41 184.21
  C 268.83 202.54 244.11 201.08 239.59 182.72"
/>
<path stroke="#80a2cc" vector-effect="non-scaling-stroke" d="
  M 366.88 225.31
  C 382.92 238.95 388.15 253.86 391.44 274.26
  Q 398.82 319.94 403.44 354.77"
/>
<path stroke="#8096bc" vector-effect="non-scaling-stroke" d="
  M 403.44 354.77
  Q 404.54 364.18 404.96 370.00
  C 406.53 391.69 392.29 407.38 371.02 410.01
  Q 341.45 413.67 319.97 394.86"
/>
<path stroke="#809dc5" vector-effect="non-scaling-stroke" d="
  M 319.97 394.86
  Q 304.06 376.13 292.26 354.81
  A 0.60 0.59 75.5 0 0 291.74 354.50
  L 222.99 354.50
  A 1.07 1.05 14.2 0 0 222.06 355.04
  C 213.77 369.71 203.83 385.18 191.99 397.09"
/>
<path stroke="#8096bc" vector-effect="non-scaling-stroke" d="
  M 191.99 397.09
  C 172.04 412.48 137.61 417.98 118.27 397.82"
/>
<path stroke="#809dc5" vector-effect="non-scaling-stroke" d="
  M 118.27 397.82
  C 107.72 385.43 108.67 371.57 110.83 356.04"
/>
<path stroke="#80a2cc" vector-effect="non-scaling-stroke" d="
  M 110.83 356.04
  Q 118.51 297.59 124.75 263.50
  Q 128.61 242.43 145.89 226.76"
/>
<path stroke="#003989" vector-effect="non-scaling-stroke" d="
  M 461.88 237.25
  L 461.44 356.18
  Q 461.44 357.12 461.04 356.26
  Q 460.71 355.55 460.60 354.81
  Q 460.59 354.78 460.56 354.77
  Q 460.40 354.72 460.23 354.65
  Q 460.00 354.56 460.00 354.81
  L 460.00 358.49
  Q 460.00 359.13 459.67 358.58
  Q 459.51 358.30 459.46 357.99
  A 0.10 0.10 0.0 0 0 459.26 358.00
  L 459.22 358.56
  A 1.04 1.03 -76.3 0 1 457.78 359.44
  C 455.47 358.44 455.37 354.91 452.50 355.42
  Q 452.00 355.52 452.00 356.02
  L 452.00 356.52
  A 0.62 0.62 0.0 0 1 450.99 357.01
  Q 446.63 353.56 441.22 355.69
  Q 440.73 355.88 440.25 355.68
  Q 439.29 355.29 438.26 355.52
  Q 435.20 356.21 432.06 355.79
  Q 431.54 355.72 431.11 356.00
  Q 428.77 357.50 426.79 355.62
  Q 426.38 355.23 425.86 355.47
  L 423.89 356.42
  Q 423.50 356.60 423.11 356.43
  C 417.81 354.07 413.08 356.12 407.73 355.66
  Q 407.24 355.61 406.81 355.35
  Q 405.60 354.60 403.44 354.77"
/>
<path stroke="#00276a" stroke-opacity="0.569" vector-effect="non-scaling-stroke" d="
  M 457.99 396.06
  Q 449.46 425.62 424.56 444.10
  C 401.81 460.98 374.83 461.98 347.25 461.99
  Q 257.72 462.05 168.20 461.97
  C 150.01 461.96 130.67 462.08 113.22 457.03
  C 87.48 449.58 67.34 429.61 56.85 405.09"
/>
<path stroke="#003382" vector-effect="non-scaling-stroke" d="
  M 56.85 405.09
  Q 57.73 405.08 58.28 404.80
  Q 58.70 404.58 58.79 405.04
  Q 59.02 406.14 59.81 406.96
  Q 60.58 407.76 60.32 406.68
  L 59.80 404.54
  Q 59.64 403.89 60.27 403.70
  L 61.21 403.40
  Q 61.45 403.33 61.35 403.10
  L 60.42 401.05
  A 0.83 0.82 66.8 0 1 60.86 399.94
  L 64.29 398.57
  A 1.07 1.06 51.6 0 1 65.29 398.69
  Q 67.51 400.27 69.90 399.17
  A 1.86 1.84 -52.3 0 1 70.96 399.03
  C 73.66 399.49 77.53 397.33 79.24 398.58
  Q 79.67 398.89 80.17 398.71
  Q 82.09 398.02 84.02 398.92
  Q 84.40 399.10 84.77 398.90
  Q 86.58 397.89 88.14 399.26
  Q 88.56 399.63 89.08 399.43
  Q 91.49 398.52 93.87 399.37
  Q 94.54 399.61 95.25 399.54
  L 103.84 398.73
  Q 104.28 398.69 104.68 398.84
  L 106.40 399.50
  Q 106.98 399.73 107.48 399.34
  Q 108.86 398.24 110.44 398.88
  Q 110.93 399.08 111.45 399.01
  L 116.23 398.45
  Q 116.75 398.39 117.17 398.68
  L 118.16 399.35
  Q 118.72 399.73 118.43 399.12
  Q 118.11 398.46 118.27 397.82"
/>
<path stroke="#003382" vector-effect="non-scaling-stroke" d="
  M 191.99 397.09
  L 192.01 397.78
  Q 192.03 398.52 192.47 397.92
  L 192.81 397.46
  A 0.40 0.40 0.0 0 1 193.42 397.42
  L 194.71 398.75
  Q 195.08 399.13 195.60 399.07
  Q 198.85 398.71 201.95 399.51
  C 206.08 400.58 208.84 397.95 212.82 398.87
  C 214.03 399.15 214.46 398.90 215.50 398.45
  A 1.16 1.16 0.0 0 1 216.52 398.49
  Q 218.00 399.28 219.54 398.79
  Q 220.09 398.61 220.63 398.81
  L 221.75 399.23
  Q 222.20 399.40 222.66 399.24
  Q 225.31 398.32 227.89 399.44
  Q 228.41 399.67 228.98 399.62
  L 236.45 398.91
  Q 237.02 398.86 237.45 398.49
  Q 238.66 397.47 239.90 398.94
  A 0.71 0.71 0.0 0 0 240.81 399.10
  Q 243.00 397.81 244.99 399.37
  A 0.71 0.70 -46.0 0 0 245.88 399.35
  Q 247.27 398.16 248.80 398.86
  Q 249.32 399.10 249.88 399.00
  Q 252.90 398.44 255.76 399.69
  Q 256.20 399.89 256.63 399.64
  C 258.24 398.69 260.34 399.78 262.45 398.81
  C 264.50 397.86 265.38 397.61 267.14 398.94
  A 0.82 0.81 49.3 0 0 268.02 399.01
  Q 269.89 397.99 271.77 398.87
  Q 272.31 399.12 272.86 398.91
  L 274.00 398.46
  Q 274.50 398.27 275.01 398.47
  Q 276.20 398.94 277.26 398.35
  Q 277.70 398.11 278.16 398.30
  C 283.80 400.64 286.10 398.94 291.70 398.68
  Q 292.24 398.66 292.64 399.03
  Q 294.00 400.28 295.52 399.07
  A 1.30 1.28 -59.4 0 1 296.53 398.80
  C 299.25 399.25 301.61 399.69 304.44 399.05
  C 306.76 398.53 308.92 399.55 311.08 399.33
  Q 314.02 399.02 317.02 398.88
  Q 320.93 398.68 319.97 394.86"
/>
<path stroke="#809dc5" vector-effect="non-scaling-stroke" d="
  M 134.43 316.69
  Q 129.15 349.90 127.26 370.24
  C 124.62 398.79 162.45 395.86 177.49 385.56
  Q 181.29 382.96 185.59 377.49
  Q 200.34 358.76 211.26 337.57
  A 1.98 1.98 0.0 0 1 213.03 336.48
  L 302.00 336.54
  Q 302.59 336.54 302.87 337.07
  Q 313.92 358.52 328.76 377.47
  C 332.62 382.41 335.93 385.52 341.20 388.03
  C 354.15 394.19 381.15 397.24 386.41 379.21
  Q 387.61 375.09 386.59 365.71
  Q 383.99 341.80 380.16 317.99"
/>
<path stroke="#80a2cc" vector-effect="non-scaling-stroke" d="
  M 380.16 317.99
  Q 377.15 298.44 374.08 278.85
  Q 371.92 265.07 369.75 259.37
  C 359.82 233.26 328.92 218.32 303.34 233.39
  Q 293.15 239.40 283.26 245.95
  A 1.79 1.78 -61.8 0 1 282.27 246.25
  L 231.82 246.25
  A 1.48 1.46 -27.0 0 1 230.97 245.98
  C 215.06 234.87 200.25 224.50 181.77 228.05
  C 161.23 232.00 145.76 248.30 141.96 268.73
  Q 140.11 278.69 134.43 316.69"
/>
<path stroke="#004092" vector-effect="non-scaling-stroke" d="
  M 380.16 317.99
  Q 379.50 318.76 378.99 317.29
  A 0.33 0.32 79.1 0 0 378.67 317.07
  Q 374.45 317.22 370.19 317.58
  C 368.60 317.71 367.45 317.00 365.99 318.61
  Q 365.66 318.97 365.26 318.69
  Q 363.55 317.51 361.85 318.58
  A 1.19 1.17 -54.9 0 1 360.97 318.74
  L 355.07 317.42
  Q 354.66 317.33 354.27 317.47
  Q 352.44 318.13 353.00 319.58
  Q 353.16 320.00 352.71 320.00
  L 350.54 320.00
  Q 349.87 320.00 350.08 319.36
  L 350.42 318.38
  Q 350.57 317.94 350.15 317.75
  Q 348.61 317.06 347.44 318.41
  A 0.65 0.64 53.7 0 1 346.36 318.24
  L 345.82 316.98
  Q 345.61 316.49 345.14 316.76
  L 343.46 317.73
  A 1.65 1.59 25.9 0 1 342.88 317.92
  L 340.08 318.21
  Q 339.59 318.26 339.46 318.73
  Q 339.16 319.83 338.06 319.43
  Q 337.12 319.08 335.91 317.85
  Q 335.57 317.51 335.19 317.79
  L 334.30 318.43
  Q 333.87 318.74 333.40 318.50
  C 332.05 317.81 327.48 316.23 326.72 318.51
  A 1.08 0.97 -51.5 0 1 324.86 318.82
  Q 323.24 315.73 320.75 318.16
  A 0.37 0.36 53.8 0 1 320.18 318.07
  L 319.76 317.33
  Q 319.42 316.73 318.83 317.07
  Q 316.52 318.41 313.89 317.64
  A 0.56 0.56 0.0 0 0 313.30 317.83
  L 312.29 319.14
  Q 311.98 319.53 311.70 319.12
  Q 309.91 316.47 307.24 318.59
  Q 306.80 318.93 306.34 318.63
  Q 302.58 316.19 298.93 318.68
  A 0.65 0.65 0.0 0 1 298.02 318.51
  Q 296.62 316.48 295.03 317.82
  A 0.81 0.64 6.6 0 1 294.82 317.95
  Q 293.51 318.61 292.88 317.79
  A 0.73 0.73 0.0 0 0 292.24 317.50
  L 282.71 318.14
  Q 282.32 318.17 282.00 318.40
  C 278.78 320.72 276.32 315.61 272.49 318.28
  Q 272.00 318.62 271.46 318.35
  L 269.78 317.51
  Q 269.34 317.30 268.90 317.50
  Q 267.66 318.08 266.55 317.40
  A 0.55 0.53 54.9 0 0 266.19 317.33
  L 259.12 318.19
  Q 258.81 318.23 258.64 318.48
  Q 258.33 318.92 257.74 318.77
  Q 255.69 318.27 253.88 318.81
  Q 253.40 318.95 252.94 318.75
  C 251.40 318.10 247.72 316.57 246.77 318.80
  A 1.20 1.20 0.0 0 1 244.83 319.19
  L 243.37 317.77
  Q 243.06 317.48 242.65 317.52
  Q 235.84 318.23 229.01 317.76
  Q 228.48 317.72 228.18 318.16
  Q 226.81 320.09 224.96 318.59
  Q 224.59 318.29 224.13 318.36
  Q 219.88 319.05 216.00 317.34
  Q 215.49 317.12 214.95 317.24
  L 213.52 317.57
  Q 212.99 317.69 212.49 317.50
  Q 210.95 316.92 209.70 318.01
  Q 209.36 318.32 208.93 318.18
  C 206.81 317.52 203.69 318.87 202.20 317.81
  Q 201.79 317.51 201.42 317.87
  C 198.44 320.80 196.39 315.18 192.38 318.53
  A 0.83 0.83 0.0 0 1 191.52 318.66
  Q 190.37 318.16 189.60 317.21
  A 1.24 1.24 0.0 0 0 188.94 316.79
  Q 187.78 316.51 187.22 317.42
  A 1.18 1.17 -79.8 0 1 186.44 317.97
  Q 185.43 318.18 184.98 317.29
  Q 184.72 316.79 184.22 317.05
  L 182.33 318.05
  A 0.81 0.80 52.8 0 1 181.40 317.92
  Q 179.72 316.34 177.76 317.89
  A 0.89 0.89 0.0 0 1 176.76 317.95
  Q 175.00 316.89 173.82 318.29
  A 1.15 1.13 19.1 0 1 172.97 318.69
  Q 171.18 318.73 169.73 317.96
  C 167.76 316.90 166.53 316.77 165.21 318.64
  A 0.58 0.58 0.0 0 1 164.38 318.76
  L 162.57 317.35
  A 0.67 0.67 0.0 0 0 161.90 317.26
  L 158.95 318.44
  Q 158.53 318.60 158.33 318.19
  L 157.99 317.47
  Q 157.60 316.65 156.94 317.28
  Q 155.26 318.89 153.32 317.48
  A 0.77 0.76 33.9 0 0 152.22 317.69
  Q 151.00 319.67 149.25 318.05
  A 0.67 0.67 0.0 0 0 148.39 318.01
  Q 146.58 319.33 144.41 318.69
  Q 143.86 318.53 143.35 318.77
  Q 142.30 319.25 141.73 318.02
  A 0.85 0.85 0.0 0 0 140.96 317.53
  Q 139.83 317.54 139.06 318.33
  Q 138.69 318.71 138.20 318.87
  Q 136.10 319.59 135.99 318.13
  Q 135.96 317.60 135.50 317.33
  L 134.43 316.69"
/>
</g>
<path fill="#016dc9" d="
  M 450.57 97.50
  Q 449.66 98.66 451.63 101.89
  A 0.22 0.22 0.0 0 1 451.31 102.18
  Q 450.31 101.41 450.19 100.23
  A 0.79 0.78 -85.3 0 0 449.61 99.54
  Q 448.95 99.35 448.69 99.68
  Q 448.00 100.55 448.00 99.25
  L 448.00 98.50
  Q 448.00 97.99 447.48 98.01
  C 445.41 98.08 443.97 97.42 441.89 97.63
  Q 438.55 97.98 435.37 96.65
  Q 434.90 96.46 434.53 96.80
  C 432.54 98.66 429.63 96.42 426.57 97.79
  A 0.93 0.90 48.2 0 1 425.71 97.73
  C 422.27 95.59 420.47 98.67 417.20 97.36
  Q 416.74 97.17 416.26 97.30
  C 413.06 98.16 408.22 95.95 406.24 97.66
  A 0.87 0.87 0.0 0 1 405.28 97.78
  Q 402.27 96.28 399.46 98.00
  A 0.99 0.98 43.2 0 1 398.46 98.03
  Q 395.55 96.49 392.50 97.80
  A 1.28 1.25 44.3 0 1 391.51 97.80
  C 389.00 96.75 386.69 98.12 383.90 97.65
  Q 383.39 97.57 383.05 97.18
  Q 382.45 96.48 381.54 96.49
  A 1.09 1.08 -72.4 0 0 380.68 96.94
  C 379.34 98.77 377.62 97.12 376.10 96.75
  A 0.97 0.96 35.0 0 0 375.34 96.88
  L 372.62 98.72
  A 0.74 0.74 0.0 0 1 371.70 98.65
  Q 369.30 96.38 366.03 97.61
  Q 365.53 97.80 365.02 97.68
  C 361.69 96.92 358.62 98.83 355.01 97.00
  A 1.10 1.09 45.3 0 0 354.05 96.99
  L 352.36 97.78
  Q 351.88 98.01 351.44 97.71
  C 347.62 95.16 346.08 100.70 343.43 97.72
  Q 343.08 97.33 342.56 97.22
  C 340.74 96.87 338.99 97.66 337.55 97.68
  Q 332.78 97.74 328.00 97.44
  Q 327.47 97.41 327.09 97.78
  L 326.55 98.33
  A 0.87 0.87 0.0 0 1 325.31 98.31
  Q 322.66 95.53 319.54 98.10
  A 0.90 0.89 -50.4 0 1 318.54 98.20
  C 315.21 96.42 312.28 97.75 309.35 97.66
  Q 307.04 97.58 304.68 97.64
  Q 304.22 97.65 303.87 97.95
  Q 302.54 99.04 301.12 97.82
  Q 300.75 97.50 300.26 97.54
  Q 298.12 97.68 296.12 96.76
  Q 295.73 96.58 295.34 96.76
  L 292.12 98.26
  A 0.78 0.77 48.2 0 1 291.36 98.21
  C 287.97 96.00 285.70 99.34 283.50 97.49
  A 1.00 0.97 -28.1 0 0 282.73 97.27
  L 277.95 98.00
  Q 277.52 98.06 277.12 97.86
  Q 272.46 95.46 267.11 97.56
  Q 255.14 90.79 244.84 99.53
  Q 243.75 99.19 243.63 98.28
  Q 243.54 97.68 242.94 97.58
  L 240.65 97.23
  A 0.91 0.90 -57.1 0 0 240.02 97.37
  C 237.72 98.89 236.58 97.19 234.69 97.19
  Q 232.91 97.18 231.18 97.79
  A 1.28 1.28 0.0 0 1 230.22 97.74
  Q 228.44 96.93 226.67 97.79
  A 1.01 0.98 -51.2 0 1 226.03 97.87
  Q 221.75 96.98 217.49 97.80
  A 0.76 0.72 -34.2 0 1 216.99 97.72
  Q 215.41 96.88 213.71 97.12
  A 1.54 1.51 18.2 0 0 212.84 97.55
  Q 211.53 98.83 209.94 97.88
  Q 209.58 97.66 209.20 97.86
  L 208.28 98.37
  Q 207.86 98.60 207.79 98.13
  L 207.72 97.64
  Q 207.67 97.27 207.30 97.29
  Q 204.66 97.46 202.02 97.35
  C 200.42 97.28 199.02 98.05 197.23 97.74
  C 195.30 97.40 194.06 95.17 191.87 97.70
  A 0.65 0.65 0.0 0 1 191.06 97.84
  L 188.84 96.56
  A 0.64 0.63 45.4 0 0 188.20 96.55
  L 184.79 98.38
  A 1.00 0.99 -39.6 0 1 183.70 98.28
  Q 181.55 96.55 179.02 97.63
  Q 178.56 97.82 178.08 97.73
  Q 173.99 96.99 169.79 97.56
  A 1.14 1.13 61.4 0 1 168.92 97.30
  Q 166.99 95.69 165.12 97.34
  A 0.96 0.96 0.0 0 1 164.04 97.46
  Q 161.37 96.05 158.86 97.89
  A 2.35 2.34 44.1 0 1 156.15 97.93
  Q 154.24 96.61 152.04 97.62
  Q 151.64 97.80 151.21 97.73
  C 147.51 97.10 143.65 98.29 140.41 96.57
  A 0.54 0.54 0.0 0 0 139.71 96.73
  L 138.50 98.43
  A 0.64 0.64 0.0 0 1 137.54 98.53
  Q 134.59 95.85 131.23 98.20
  Q 130.85 98.46 130.45 98.22
  Q 127.28 96.29 123.82 97.72
  Q 123.38 97.90 122.92 97.80
  Q 118.67 96.88 114.93 98.84
  Q 114.33 99.16 113.99 98.57
  Q 112.99 96.84 111.08 97.84
  A 0.93 0.92 -42.2 0 1 110.15 97.80
  Q 107.23 95.97 105.10 98.40
  Q 104.71 98.83 104.15 98.75
  Q 103.30 98.63 102.79 97.80
  A 2.00 2.00 0.0 0 0 100.28 97.01
  Q 97.50 98.21 94.76 97.27
  A 0.80 0.74 43.7 0 0 94.29 97.26
  Q 91.61 98.05 88.80 97.70
  Q 88.34 97.65 87.95 97.37
  Q 86.43 96.27 85.08 97.70
  A 0.71 0.71 0.0 0 1 84.32 97.88
  L 81.35 96.86
  Q 80.82 96.67 80.35 96.97
  L 77.54 98.72
  A 0.70 0.70 0.0 0 1 76.70 98.64
  Q 74.10 96.24 70.69 97.77
  A 1.27 1.26 43.8 0 1 69.68 97.79
  Q 67.04 96.73 64.49 98.12
  Q 64.08 98.35 64.00 98.81
  Q 63.84 99.85 62.19 99.11
  A 0.23 0.23 0.0 0 1 62.13 98.72
  Q 62.35 98.53 62.21 98.06
  A 0.12 0.11 70.9 0 0 62.06 97.98
  Q 61.91 98.03 61.76 98.08
  Q 61.55 98.16 61.50 97.94
  L 61.39 97.45
  C 71.73 79.08 88.36 63.73 108.26 56.60
  C 124.00 50.97 142.83 50.33 158.31 50.29
  Q 292.19 49.91 350.75 50.03
  Q 367.29 50.07 385.74 52.37
  C 413.58 55.86 437.16 73.16 450.57 97.50
  Z"
/>
<path fill="#ffffff" d="
  M 267.11 97.56
  C 276.90 105.22 277.96 118.26 268.44 126.18
  C 251.37 140.39 228.94 116.28 244.84 99.53
  Q 255.14 90.79 267.11 97.56
  Z"
/>
<path fill="#0164bf" d="
  M 244.84 99.53
  C 228.94 116.28 251.37 140.39 268.44 126.18
  C 277.96 118.26 276.90 105.22 267.11 97.56
  Q 272.46 95.46 277.12 97.86
  Q 277.52 98.06 277.95 98.00
  L 282.73 97.27
  A 1.00 0.97 -28.1 0 1 283.50 97.49
  C 285.70 99.34 287.97 96.00 291.36 98.21
  A 0.78 0.77 48.2 0 0 292.12 98.26
  L 295.34 96.76
  Q 295.73 96.58 296.12 96.76
  Q 298.12 97.68 300.26 97.54
  Q 300.75 97.50 301.12 97.82
  Q 302.54 99.04 303.87 97.95
  Q 304.22 97.65 304.68 97.64
  Q 307.04 97.58 309.35 97.66
  C 312.28 97.75 315.21 96.42 318.54 98.20
  A 0.90 0.89 -50.4 0 0 319.54 98.10
  Q 322.66 95.53 325.31 98.31
  A 0.87 0.87 0.0 0 0 326.55 98.33
  L 327.09 97.78
  Q 327.47 97.41 328.00 97.44
  Q 332.78 97.74 337.55 97.68
  C 338.99 97.66 340.74 96.87 342.56 97.22
  Q 343.08 97.33 343.43 97.72
  C 346.08 100.70 347.62 95.16 351.44 97.71
  Q 351.88 98.01 352.36 97.78
  L 354.05 96.99
  A 1.10 1.09 45.3 0 1 355.01 97.00
  C 358.62 98.83 361.69 96.92 365.02 97.68
  Q 365.53 97.80 366.03 97.61
  Q 369.30 96.38 371.70 98.65
  A 0.74 0.74 0.0 0 0 372.62 98.72
  L 375.34 96.88
  A 0.97 0.96 35.0 0 1 376.10 96.75
  C 377.62 97.12 379.34 98.77 380.68 96.94
  A 1.09 1.08 -72.4 0 1 381.54 96.49
  Q 382.45 96.48 383.05 97.18
  Q 383.39 97.57 383.90 97.65
  C 386.69 98.12 389.00 96.75 391.51 97.80
  A 1.28 1.25 44.3 0 0 392.50 97.80
  Q 395.55 96.49 398.46 98.03
  A 0.99 0.98 43.2 0 0 399.46 98.00
  Q 402.27 96.28 405.28 97.78
  A 0.87 0.87 0.0 0 0 406.24 97.66
  C 408.22 95.95 413.06 98.16 416.26 97.30
  Q 416.74 97.17 417.20 97.36
  C 420.47 98.67 422.27 95.59 425.71 97.73
  A 0.93 0.90 48.2 0 0 426.57 97.79
  C 429.63 96.42 432.54 98.66 434.53 96.80
  Q 434.90 96.46 435.37 96.65
  Q 438.55 97.98 441.89 97.63
  C 443.97 97.42 445.41 98.08 447.48 98.01
  Q 448.00 97.99 448.00 98.50
  L 448.00 99.25
  Q 448.00 100.55 448.69 99.68
  Q 448.95 99.35 449.61 99.54
  A 0.79 0.78 -85.3 0 1 450.19 100.23
  Q 450.31 101.41 451.31 102.18
  A 0.22 0.22 0.0 0 0 451.63 101.89
  Q 449.66 98.66 450.57 97.50
  C 457.93 110.61 460.42 126.06 461.14 140.74
  L 460.35 145.42
  Q 460.33 145.59 460.25 145.44
  L 458.39 142.01
  Q 458.07 141.42 457.40 141.49
  Q 455.34 141.72 453.74 140.39
  A 0.97 0.95 -29.9 0 0 452.93 140.18
  L 450.28 140.67
  A 0.82 0.79 53.9 0 1 449.71 140.57
  Q 448.05 139.54 446.55 140.38
  Q 446.02 140.68 445.43 140.79
  L 441.34 141.60
  Q 440.83 141.70 440.36 141.49
  Q 439.65 141.18 439.05 140.68
  Q 438.69 140.38 438.24 140.51
  Q 435.17 141.47 432.01 140.70
  A 1.36 1.35 -55.4 0 0 430.90 140.91
  Q 428.31 142.75 426.90 139.84
  A 0.58 0.58 0.0 0 0 425.96 139.69
  Q 424.04 141.70 422.18 139.84
  Q 421.81 139.47 421.31 139.62
  L 414.34 141.61
  Q 413.77 141.78 413.26 141.47
  L 411.84 140.60
  A 0.81 0.80 -37.4 0 0 411.20 140.52
  C 408.00 141.54 405.28 139.97 402.50 141.64
  Q 401.91 141.99 401.42 141.51
  L 399.65 139.79
  A 0.48 0.47 45.4 0 0 398.99 139.78
  Q 396.93 141.69 395.09 139.75
  Q 394.72 139.35 394.19 139.49
  C 391.02 140.32 388.05 143.42 384.93 140.22
  Q 384.52 139.80 384.02 140.09
  Q 381.22 141.75 378.04 140.62
  A 1.18 1.14 37.8 0 0 377.03 140.73
  Q 375.04 141.99 373.60 140.25
  A 0.72 0.72 0.0 0 0 372.73 140.06
  Q 370.13 141.29 367.98 139.52
  Q 367.56 139.18 367.12 139.49
  Q 363.94 141.74 360.18 141.14
  C 357.64 140.73 355.71 141.17 353.30 140.96
  Q 352.74 140.91 352.32 140.53
  Q 350.55 138.92 349.05 141.17
  Q 348.76 141.61 348.29 141.35
  L 346.20 140.17
  Q 345.85 139.98 345.48 140.13
  Q 343.31 141.06 341.22 140.25
  Q 340.64 140.02 340.04 140.18
  L 334.28 141.75
  Q 333.77 141.89 333.35 141.58
  C 331.24 140.01 327.38 141.48 324.32 140.28
  A 0.95 0.94 30.4 0 0 323.26 140.55
  Q 321.50 142.63 319.39 140.93
  Q 318.95 140.58 318.40 140.67
  C 315.91 141.11 314.21 139.83 312.05 140.21
  Q 309.79 140.62 307.72 141.72
  Q 307.26 141.97 306.77 141.75
  L 304.81 140.85
  Q 304.40 140.67 303.97 140.77
  Q 300.61 141.57 297.42 140.29
  A 1.07 1.06 -57.3 0 0 296.25 140.55
  Q 294.73 142.17 292.88 141.02
  Q 292.42 140.74 291.88 140.77
  L 286.62 141.11
  A 0.96 0.87 -59.3 0 0 286.33 141.20
  C 283.77 142.64 275.51 141.26 272.23 141.55
  C 268.90 141.84 265.92 140.85 262.92 141.01
  Q 258.67 141.24 254.43 141.48
  C 252.00 141.61 249.21 140.74 246.23 141.75
  Q 245.72 141.92 245.22 141.71
  Q 243.18 140.85 241.04 141.57
  A 1.08 1.07 51.8 0 1 240.13 141.46
  C 238.02 140.16 236.27 141.23 233.90 140.63
  Q 233.38 140.49 232.85 140.61
  L 226.53 142.02
  A 1.11 1.09 53.2 0 1 225.75 141.90
  C 223.13 140.33 219.98 141.29 216.94 140.66
  A 1.26 1.24 -56.7 0 0 215.93 140.88
  Q 213.52 142.69 212.01 140.02
  Q 211.69 139.45 211.13 139.81
  C 208.37 141.60 205.89 139.15 204.14 141.00
  Q 203.78 141.38 203.26 141.28
  Q 201.28 140.90 199.45 141.77
  A 0.84 0.83 -42.5 0 1 198.67 141.74
  L 196.92 140.74
  A 0.79 0.75 51.3 0 0 196.34 140.66
  Q 193.23 141.40 190.12 140.67
  Q 189.57 140.54 189.05 140.77
  L 188.19 141.15
  Q 187.66 141.38 187.15 141.11
  L 185.24 140.06
  A 0.63 0.62 47.6 0 0 184.69 140.03
  Q 183.08 140.69 181.36 140.78
  Q 181.05 140.79 180.89 141.06
  L 180.37 141.91
  A 0.50 0.50 0.0 0 1 179.45 141.55
  L 179.79 140.01
  Q 179.95 139.26 179.31 139.68
  Q 175.41 142.24 170.84 140.69
  Q 170.34 140.52 169.83 140.65
  Q 166.78 141.40 163.71 140.72
  A 1.30 1.29 32.1 0 0 162.66 140.96
  Q 160.58 142.61 158.95 140.53
  A 0.97 0.96 64.9 0 0 158.00 140.18
  Q 155.78 140.66 153.93 139.62
  Q 153.51 139.38 153.05 139.58
  C 150.45 140.69 146.58 142.65 144.01 140.66
  Q 143.65 140.39 143.22 140.52
  Q 140.11 141.49 136.92 140.67
  A 1.22 1.20 31.9 0 0 135.85 140.91
  Q 133.72 142.63 131.96 140.56
  A 0.87 0.86 56.3 0 0 130.92 140.35
  Q 128.82 141.40 127.21 139.91
  Q 126.80 139.53 126.26 139.65
  C 123.76 140.19 119.12 142.45 116.99 140.94
  Q 116.64 140.69 116.21 140.77
  Q 112.96 141.32 109.71 140.69
  A 1.26 1.24 30.3 0 0 108.68 140.95
  Q 106.72 142.52 105.29 140.34
  A 0.68 0.67 59.3 0 0 104.40 140.11
  Q 102.01 141.44 99.96 139.91
  A 0.86 0.85 -34.7 0 0 99.21 139.78
  L 93.54 141.44
  Q 93.08 141.57 92.60 141.58
  Q 90.71 141.63 90.14 140.30
  A 0.59 0.59 0.0 0 0 89.29 140.02
  Q 86.32 141.77 82.92 140.62
  A 1.07 1.06 -52.3 0 0 81.96 140.75
  Q 80.21 141.96 78.79 140.41
  A 1.06 1.06 0.0 0 0 77.75 140.11
  L 74.97 140.80
  A 1.66 1.63 51.8 0 1 73.80 140.65
  Q 71.99 139.69 70.23 140.76
  Q 69.76 141.05 69.20 141.00
  Q 67.45 140.86 65.86 141.60
  Q 65.34 141.84 64.78 141.71
  Q 61.65 140.98 58.48 141.46
  A 1.29 1.27 -34.5 0 1 57.69 141.32
  Q 55.65 140.21 53.84 141.62
  A 0.68 0.68 0.0 0 1 52.94 141.57
  L 52.44 141.06
  Q 51.82 140.45 51.97 141.30
  Q 52.25 142.88 51.62 144.31
  Q 51.32 144.99 51.26 144.25
  L 50.92 140.50
  L 52.94 121.89
  Q 55.05 109.04 61.39 97.45
  L 61.50 97.94
  Q 61.55 98.16 61.76 98.08
  Q 61.91 98.03 62.06 97.98
  A 0.12 0.11 70.9 0 1 62.21 98.06
  Q 62.35 98.53 62.13 98.72
  A 0.23 0.23 0.0 0 0 62.19 99.11
  Q 63.84 99.85 64.00 98.81
  Q 64.08 98.35 64.49 98.12
  Q 67.04 96.73 69.68 97.79
  A 1.27 1.26 43.8 0 0 70.69 97.77
  Q 74.10 96.24 76.70 98.64
  A 0.70 0.70 0.0 0 0 77.54 98.72
  L 80.35 96.97
  Q 80.82 96.67 81.35 96.86
  L 84.32 97.88
  A 0.71 0.71 0.0 0 0 85.08 97.70
  Q 86.43 96.27 87.95 97.37
  Q 88.34 97.65 88.80 97.70
  Q 91.61 98.05 94.29 97.26
  A 0.80 0.74 43.7 0 1 94.76 97.27
  Q 97.50 98.21 100.28 97.01
  A 2.00 2.00 0.0 0 1 102.79 97.80
  Q 103.30 98.63 104.15 98.75
  Q 104.71 98.83 105.10 98.40
  Q 107.23 95.97 110.15 97.80
  A 0.93 0.92 -42.2 0 0 111.08 97.84
  Q 112.99 96.84 113.99 98.57
  Q 114.33 99.16 114.93 98.84
  Q 118.67 96.88 122.92 97.80
  Q 123.38 97.90 123.82 97.72
  Q 127.28 96.29 130.45 98.22
  Q 130.85 98.46 131.23 98.20
  Q 134.59 95.85 137.54 98.53
  A 0.64 0.64 0.0 0 0 138.50 98.43
  L 139.71 96.73
  A 0.54 0.54 0.0 0 1 140.41 96.57
  C 143.65 98.29 147.51 97.10 151.21 97.73
  Q 151.64 97.80 152.04 97.62
  Q 154.24 96.61 156.15 97.93
  A 2.35 2.34 44.1 0 0 158.86 97.89
  Q 161.37 96.05 164.04 97.46
  A 0.96 0.96 0.0 0 0 165.12 97.34
  Q 166.99 95.69 168.92 97.30
  A 1.14 1.13 61.4 0 0 169.79 97.56
  Q 173.99 96.99 178.08 97.73
  Q 178.56 97.82 179.02 97.63
  Q 181.55 96.55 183.70 98.28
  A 1.00 0.99 -39.6 0 0 184.79 98.38
  L 188.20 96.55
  A 0.64 0.63 45.4 0 1 188.84 96.56
  L 191.06 97.84
  A 0.65 0.65 0.0 0 0 191.87 97.70
  C 194.06 95.17 195.30 97.40 197.23 97.74
  C 199.02 98.05 200.42 97.28 202.02 97.35
  Q 204.66 97.46 207.30 97.29
  Q 207.67 97.27 207.72 97.64
  L 207.79 98.13
  Q 207.86 98.60 208.28 98.37
  L 209.20 97.86
  Q 209.58 97.66 209.94 97.88
  Q 211.53 98.83 212.84 97.55
  A 1.54 1.51 18.2 0 1 213.71 97.12
  Q 215.41 96.88 216.99 97.72
  A 0.76 0.72 -34.2 0 0 217.49 97.80
  Q 221.75 96.98 226.03 97.87
  A 1.01 0.98 -51.2 0 0 226.67 97.79
  Q 228.44 96.93 230.22 97.74
  A 1.28 1.28 0.0 0 0 231.18 97.79
  Q 232.91 97.18 234.69 97.19
  C 236.58 97.19 237.72 98.89 240.02 97.37
  A 0.91 0.90 -57.1 0 1 240.65 97.23
  L 242.94 97.58
  Q 243.54 97.68 243.63 98.28
  Q 243.75 99.19 244.84 99.53
  Z"
/>
<path fill="#000000" fill-opacity="0.137" d="
  M 52.94 121.89
  L 50.92 140.50
  L 50.05 165.49
  L 50.05 232.50
  L 50.19 359.23
  Q 50.73 375.23 52.90 390.65
  L 47.65 388.48
  A 1.05 1.05 0.0 0 1 47.00 387.51
  L 47.00 384.88
  Q 47.00 384.29 46.78 383.76
  C 44.86 379.17 46.08 374.71 45.63 370.11
  Q 45.02 363.70 45.01 361.73
  Q 44.99 271.61 45.00 181.49
  Q 45.00 173.29 45.53 161.50
  Q 46.02 150.51 46.10 139.50
  A 1.06 1.04 -19.5 0 1 46.49 138.71
  C 47.19 138.15 47.05 132.16 47.86 130.23
  Q 48.05 129.78 48.00 129.28
  Q 47.40 123.62 52.94 121.89
  Z"
/>
<path fill="#015db5" d="
  M 461.14 140.74
  L 461.86 166.00
  L 461.51 179.99
  Q 461.49 180.79 461.23 180.09
  Q 461.15 179.88 461.22 179.57
  Q 461.22 179.56 461.16 179.57
  Q 461.13 179.57 461.10 179.57
  A 0.19 0.08 -87.3 0 0 461.01 179.75
  L 460.97 181.20
  A 0.26 0.26 0.0 0 1 460.46 181.24
  L 460.35 180.70
  Q 460.24 180.16 460.06 180.68
  Q 459.86 181.25 459.98 181.90
  Q 459.98 181.94 459.94 181.94
  Q 459.92 181.93 459.90 181.93
  Q 459.84 181.93 459.82 181.74
  L 459.55 179.80
  Q 459.53 179.59 459.41 179.77
  L 458.42 181.30
  A 2.57 2.57 0.0 0 1 455.43 182.33
  Q 453.59 181.70 452.31 183.01
  Q 451.98 183.33 451.53 183.25
  C 449.07 182.78 446.91 184.26 445.32 183.86
  Q 444.18 183.58 444.10 182.43
  Q 444.06 181.97 443.61 182.03
  C 439.64 182.51 435.15 183.93 431.27 182.36
  Q 430.83 182.18 430.36 182.28
  Q 428.87 182.59 427.36 182.23
  A 1.12 1.10 33.0 0 0 426.42 182.42
  L 425.43 183.16
  Q 425.02 183.47 424.52 183.36
  C 421.76 182.74 419.31 184.72 417.23 183.08
  Q 416.83 182.77 416.33 182.75
  Q 415.39 182.71 414.76 183.34
  Q 414.43 183.68 413.96 183.68
  L 405.75 183.69
  A 0.69 0.68 -87.2 0 0 405.07 184.31
  L 404.86 186.72
  A 0.65 0.65 0.0 0 1 403.58 186.83
  L 402.97 184.50
  Q 402.88 184.14 402.57 184.35
  L 401.31 185.23
  A 0.97 0.96 -43.2 0 1 400.16 185.20
  Q 398.01 183.54 396.50 185.72
  Q 396.43 185.81 396.33 185.78
  Q 396.17 185.72 396.01 185.67
  Q 395.73 185.58 395.96 185.38
  L 397.83 183.76
  Q 398.29 183.36 397.69 183.25
  C 395.11 182.80 392.21 184.66 389.99 182.83
  A 0.84 0.83 52.6 0 0 389.12 182.71
  L 387.20 183.57
  Q 386.71 183.79 386.19 183.68
  Q 382.81 183.01 379.54 184.14
  A 1.04 1.02 50.8 0 1 378.64 184.04
  Q 376.87 182.90 375.83 184.56
  Q 375.48 185.11 374.83 185.13
  Q 372.88 185.17 371.68 183.62
  Q 371.35 183.19 370.81 183.11
  L 367.93 182.67
  Q 367.40 182.59 367.01 182.96
  Q 365.48 184.43 363.71 183.41
  Q 363.24 183.14 363.02 183.63
  Q 362.68 184.40 363.06 185.15
  Q 363.93 186.87 362.41 185.69
  Q 361.27 184.81 361.52 183.27
  Q 361.59 182.84 361.17 182.96
  L 357.06 184.10
  Q 356.53 184.25 356.08 183.95
  Q 354.46 182.89 353.04 184.39
  A 0.72 0.71 -52.7 0 1 352.17 184.51
  Q 351.11 183.88 351.02 185.25
  A 0.41 0.41 0.0 0 1 350.25 185.42
  L 349.48 183.99
  A 0.35 0.35 0.0 0 0 348.90 183.95
  Q 347.27 186.12 345.13 184.29
  A 0.74 0.69 66.7 0 0 344.72 184.11
  L 340.85 183.76
  Q 340.30 183.71 339.76 183.85
  Q 337.72 184.38 336.04 183.02
  Q 335.64 182.69 335.15 182.82
  L 331.31 183.74
  Q 330.82 183.86 330.45 184.19
  Q 329.64 184.91 328.66 184.01
  A 0.61 0.60 40.1 0 0 327.77 184.08
  Q 326.53 185.69 324.89 184.51
  Q 324.53 184.26 324.29 184.63
  L 323.43 186.00
  A 0.37 0.37 0.0 0 1 322.75 185.80
  L 322.75 184.02
  A 0.32 0.31 -23.6 0 0 322.20 183.81
  Q 320.34 185.77 318.52 184.39
  C 314.97 181.72 313.15 185.03 310.33 183.35
  A 0.54 0.54 0.0 0 0 309.69 183.43
  L 309.37 183.76
  A 0.55 0.54 40.4 0 1 308.68 183.81
  Q 307.10 182.68 305.23 183.50
  Q 302.37 184.76 299.75 184.95
  A 1.14 1.10 -23.9 0 1 298.90 184.64
  Q 297.67 183.42 296.68 184.70
  A 0.20 0.20 0.0 0 1 296.35 184.68
  L 296.01 184.11
  A 0.17 0.17 0.0 0 0 295.72 184.10
  C 294.90 185.30 293.84 185.55 292.65 184.62
  Q 289.41 182.10 285.81 184.06
  Q 285.34 184.32 284.86 184.08
  Q 280.98 182.19 277.09 184.39
  A 0.47 0.46 -42.1 0 1 276.59 184.37
  Q 275.71 183.74 274.41 184.21
  C 280.82 157.20 237.33 152.38 239.59 182.72
  Q 239.23 183.82 238.30 183.26
  Q 237.93 183.04 237.58 183.28
  L 236.54 183.99
  Q 236.14 184.27 235.66 184.24
  C 232.64 184.07 229.88 183.32 226.91 183.60
  Q 222.16 184.03 217.33 184.13
  Q 216.62 184.14 216.88 184.80
  Q 217.24 185.72 216.40 186.44
  Q 215.97 186.80 215.61 186.36
  Q 215.06 185.70 215.26 184.79
  Q 215.44 183.96 214.77 184.47
  Q 213.39 185.49 212.02 184.68
  Q 211.55 184.39 211.03 184.59
  L 208.71 185.46
  A 0.36 0.35 4.2 0 1 208.27 184.96
  Q 208.98 183.72 210.44 183.73
  A 0.04 0.04 0.0 0 0 210.47 183.67
  L 210.24 183.35
  Q 210.13 183.21 209.95 183.23
  Q 208.44 183.40 206.97 183.06
  Q 206.45 182.94 205.96 183.14
  Q 204.56 183.70 203.14 183.18
  Q 202.53 182.96 202.33 183.58
  L 202.05 184.43
  Q 201.89 184.93 201.38 184.78
  Q 200.61 184.56 200.51 183.88
  Q 200.44 183.40 199.97 183.50
  Q 196.93 184.12 193.89 183.45
  A 0.58 0.57 37.6 0 0 193.49 183.50
  L 192.15 184.18
  A 0.94 0.93 -46.9 0 1 191.36 184.21
  Q 189.37 183.36 188.28 184.75
  Q 187.92 185.21 187.35 185.24
  C 184.00 185.43 182.65 181.61 178.94 183.79
  Q 178.50 184.04 178.03 183.86
  Q 174.96 182.66 170.76 183.62
  Q 167.71 184.32 163.04 183.26
  A 1.04 1.01 22.2 0 0 161.96 183.70
  Q 160.19 186.43 157.64 184.30
  Q 157.25 183.97 156.74 183.87
  C 154.26 183.42 151.54 184.25 149.34 183.31
  Q 148.68 183.02 148.47 183.70
  L 148.17 184.66
  Q 148.03 185.11 147.58 184.98
  Q 146.52 184.65 146.49 183.55
  Q 146.48 183.03 145.98 183.18
  Q 143.20 184.01 140.34 183.76
  Q 139.67 183.70 139.19 184.18
  L 138.54 184.84
  A 0.74 0.73 47.3 0 1 137.46 184.79
  Q 135.72 182.72 134.04 184.80
  A 1.19 1.17 -73.4 0 1 133.24 185.24
  Q 131.51 185.43 130.64 184.05
  Q 130.42 183.71 130.71 183.42
  L 131.33 182.80
  Q 131.68 182.45 131.19 182.53
  L 124.00 183.83
  A 1.08 1.06 60.0 0 1 123.11 183.58
  Q 121.34 181.98 119.51 183.51
  A 1.14 1.12 30.9 0 1 118.52 183.75
  Q 115.08 182.98 111.75 184.09
  A 1.27 1.27 0.0 0 1 110.73 184.00
  Q 108.40 182.74 107.30 185.07
  Q 107.02 185.66 106.39 185.56
  Q 104.71 185.30 103.85 183.70
  Q 103.66 183.35 103.26 183.29
  C 102.20 183.14 100.15 182.69 99.20 183.17
  Q 98.53 183.51 98.42 184.09
  A 0.88 0.88 0.0 0 1 96.83 184.43
  Q 95.03 181.80 92.42 183.48
  Q 91.97 183.77 91.44 183.65
  C 88.73 183.05 85.75 184.47 83.62 183.93
  Q 83.04 183.78 83.03 184.38
  L 82.99 185.77
  A 0.57 0.57 0.0 0 1 82.27 186.30
  Q 81.12 185.97 81.01 184.82
  Q 80.96 184.27 80.48 184.55
  Q 78.22 185.85 77.09 183.73
  Q 76.85 183.29 76.36 183.22
  L 72.63 182.63
  Q 72.20 182.56 71.90 182.88
  Q 70.04 184.84 67.98 182.84
  A 0.55 0.53 -31.7 0 0 67.44 182.72
  L 62.43 184.45
  Q 61.94 184.62 61.48 184.39
  Q 59.80 183.56 58.64 184.88
  A 0.73 0.72 -54.4 0 1 57.74 185.03
  Q 54.73 183.34 51.63 185.19
  Q 51.19 185.45 51.07 185.94
  L 50.70 187.40
  A 0.25 0.25 0.0 0 1 50.20 187.34
  L 50.05 165.49
  L 50.92 140.50
  L 51.26 144.25
  Q 51.32 144.99 51.62 144.31
  Q 52.25 142.88 51.97 141.30
  Q 51.82 140.45 52.44 141.06
  L 52.94 141.57
  A 0.68 0.68 0.0 0 0 53.84 141.62
  Q 55.65 140.21 57.69 141.32
  A 1.29 1.27 -34.5 0 0 58.48 141.46
  Q 61.65 140.98 64.78 141.71
  Q 65.34 141.84 65.86 141.60
  Q 67.45 140.86 69.20 141.00
  Q 69.76 141.05 70.23 140.76
  Q 71.99 139.69 73.80 140.65
  A 1.66 1.63 51.8 0 0 74.97 140.80
  L 77.75 140.11
  A 1.06 1.06 0.0 0 1 78.79 140.41
  Q 80.21 141.96 81.96 140.75
  A 1.07 1.06 -52.3 0 1 82.92 140.62
  Q 86.32 141.77 89.29 140.02
  A 0.59 0.59 0.0 0 1 90.14 140.30
  Q 90.71 141.63 92.60 141.58
  Q 93.08 141.57 93.54 141.44
  L 99.21 139.78
  A 0.86 0.85 -34.7 0 1 99.96 139.91
  Q 102.01 141.44 104.40 140.11
  A 0.68 0.67 59.3 0 1 105.29 140.34
  Q 106.72 142.52 108.68 140.95
  A 1.26 1.24 30.3 0 1 109.71 140.69
  Q 112.96 141.32 116.21 140.77
  Q 116.64 140.69 116.99 140.94
  C 119.12 142.45 123.76 140.19 126.26 139.65
  Q 126.80 139.53 127.21 139.91
  Q 128.82 141.40 130.92 140.35
  A 0.87 0.86 56.3 0 1 131.96 140.56
  Q 133.72 142.63 135.85 140.91
  A 1.22 1.20 31.9 0 1 136.92 140.67
  Q 140.11 141.49 143.22 140.52
  Q 143.65 140.39 144.01 140.66
  C 146.58 142.65 150.45 140.69 153.05 139.58
  Q 153.51 139.38 153.93 139.62
  Q 155.78 140.66 158.00 140.18
  A 0.97 0.96 64.9 0 1 158.95 140.53
  Q 160.58 142.61 162.66 140.96
  A 1.30 1.29 32.1 0 1 163.71 140.72
  Q 166.78 141.40 169.83 140.65
  Q 170.34 140.52 170.84 140.69
  Q 175.41 142.24 179.31 139.68
  Q 179.95 139.26 179.79 140.01
  L 179.45 141.55
  A 0.50 0.50 0.0 0 0 180.37 141.91
  L 180.89 141.06
  Q 181.05 140.79 181.36 140.78
  Q 183.08 140.69 184.69 140.03
  A 0.63 0.62 47.6 0 1 185.24 140.06
  L 187.15 141.11
  Q 187.66 141.38 188.19 141.15
  L 189.05 140.77
  Q 189.57 140.54 190.12 140.67
  Q 193.23 141.40 196.34 140.66
  A 0.79 0.75 51.3 0 1 196.92 140.74
  L 198.67 141.74
  A 0.84 0.83 -42.5 0 0 199.45 141.77
  Q 201.28 140.90 203.26 141.28
  Q 203.78 141.38 204.14 141.00
  C 205.89 139.15 208.37 141.60 211.13 139.81
  Q 211.69 139.45 212.01 140.02
  Q 213.52 142.69 215.93 140.88
  A 1.26 1.24 -56.7 0 1 216.94 140.66
  C 219.98 141.29 223.13 140.33 225.75 141.90
  A 1.11 1.09 53.2 0 0 226.53 142.02
  L 232.85 140.61
  Q 233.38 140.49 233.90 140.63
  C 236.27 141.23 238.02 140.16 240.13 141.46
  A 1.08 1.07 51.8 0 0 241.04 141.57
  Q 243.18 140.85 245.22 141.71
  Q 245.72 141.92 246.23 141.75
  C 249.21 140.74 252.00 141.61 254.43 141.48
  Q 258.67 141.24 262.92 141.01
  C 265.92 140.85 268.90 141.84 272.23 141.55
  C 275.51 141.26 283.77 142.64 286.33 141.20
  A 0.96 0.87 -59.3 0 1 286.62 141.11
  L 291.88 140.77
  Q 292.42 140.74 292.88 141.02
  Q 294.73 142.17 296.25 140.55
  A 1.07 1.06 -57.3 0 1 297.42 140.29
  Q 300.61 141.57 303.97 140.77
  Q 304.40 140.67 304.81 140.85
  L 306.77 141.75
  Q 307.26 141.97 307.72 141.72
  Q 309.79 140.62 312.05 140.21
  C 314.21 139.83 315.91 141.11 318.40 140.67
  Q 318.95 140.58 319.39 140.93
  Q 321.50 142.63 323.26 140.55
  A 0.95 0.94 30.4 0 1 324.32 140.28
  C 327.38 141.48 331.24 140.01 333.35 141.58
  Q 333.77 141.89 334.28 141.75
  L 340.04 140.18
  Q 340.64 140.02 341.22 140.25
  Q 343.31 141.06 345.48 140.13
  Q 345.85 139.98 346.20 140.17
  L 348.29 141.35
  Q 348.76 141.61 349.05 141.17
  Q 350.55 138.92 352.32 140.53
  Q 352.74 140.91 353.30 140.96
  C 355.71 141.17 357.64 140.73 360.18 141.14
  Q 363.94 141.74 367.12 139.49
  Q 367.56 139.18 367.98 139.52
  Q 370.13 141.29 372.73 140.06
  A 0.72 0.72 0.0 0 1 373.60 140.25
  Q 375.04 141.99 377.03 140.73
  A 1.18 1.14 37.8 0 1 378.04 140.62
  Q 381.22 141.75 384.02 140.09
  Q 384.52 139.80 384.93 140.22
  C 388.05 143.42 391.02 140.32 394.19 139.49
  Q 394.72 139.35 395.09 139.75
  Q 396.93 141.69 398.99 139.78
  A 0.48 0.47 45.4 0 1 399.65 139.79
  L 401.42 141.51
  Q 401.91 141.99 402.50 141.64
  C 405.28 139.97 408.00 141.54 411.20 140.52
  A 0.81 0.80 -37.4 0 1 411.84 140.60
  L 413.26 141.47
  Q 413.77 141.78 414.34 141.61
  L 421.31 139.62
  Q 421.81 139.47 422.18 139.84
  Q 424.04 141.70 425.96 139.69
  A 0.58 0.58 0.0 0 1 426.90 139.84
  Q 428.31 142.75 430.90 140.91
  A 1.36 1.35 -55.4 0 1 432.01 140.70
  Q 435.17 141.47 438.24 140.51
  Q 438.69 140.38 439.05 140.68
  Q 439.65 141.18 440.36 141.49
  Q 440.83 141.70 441.34 141.60
  L 445.43 140.79
  Q 446.02 140.68 446.55 140.38
  Q 448.05 139.54 449.71 140.57
  A 0.82 0.79 53.9 0 0 450.28 140.67
  L 452.93 140.18
  A 0.97 0.95 -29.9 0 1 453.74 140.39
  Q 455.34 141.72 457.40 141.49
  Q 458.07 141.42 458.39 142.01
  L 460.25 145.44
  Q 460.33 145.59 460.35 145.42
  L 461.14 140.74
  Z"
/>
<path fill="#ffffff" d="
  M 274.41 184.21
  C 268.83 202.54 244.11 201.08 239.59 182.72
  C 237.33 152.38 280.82 157.20 274.41 184.21
  Z"
/>
<path fill="#0155ac" d="
  M 50.05 165.49
  L 50.20 187.34
  A 0.25 0.25 0.0 0 0 50.70 187.40
  L 51.07 185.94
  Q 51.19 185.45 51.63 185.19
  Q 54.73 183.34 57.74 185.03
  A 0.73 0.72 -54.4 0 0 58.64 184.88
  Q 59.80 183.56 61.48 184.39
  Q 61.94 184.62 62.43 184.45
  L 67.44 182.72
  A 0.55 0.53 -31.7 0 1 67.98 182.84
  Q 70.04 184.84 71.90 182.88
  Q 72.20 182.56 72.63 182.63
  L 76.36 183.22
  Q 76.85 183.29 77.09 183.73
  Q 78.22 185.85 80.48 184.55
  Q 80.96 184.27 81.01 184.82
  Q 81.12 185.97 82.27 186.30
  A 0.57 0.57 0.0 0 0 82.99 185.77
  L 83.03 184.38
  Q 83.04 183.78 83.62 183.93
  C 85.75 184.47 88.73 183.05 91.44 183.65
  Q 91.97 183.77 92.42 183.48
  Q 95.03 181.80 96.83 184.43
  A 0.88 0.88 0.0 0 0 98.42 184.09
  Q 98.53 183.51 99.20 183.17
  C 100.15 182.69 102.20 183.14 103.26 183.29
  Q 103.66 183.35 103.85 183.70
  Q 104.71 185.30 106.39 185.56
  Q 107.02 185.66 107.30 185.07
  Q 108.40 182.74 110.73 184.00
  A 1.27 1.27 0.0 0 0 111.75 184.09
  Q 115.08 182.98 118.52 183.75
  A 1.14 1.12 30.9 0 0 119.51 183.51
  Q 121.34 181.98 123.11 183.58
  A 1.08 1.06 60.0 0 0 124.00 183.83
  L 131.19 182.53
  Q 131.68 182.45 131.33 182.80
  L 130.71 183.42
  Q 130.42 183.71 130.64 184.05
  Q 131.51 185.43 133.24 185.24
  A 1.19 1.17 -73.4 0 0 134.04 184.80
  Q 135.72 182.72 137.46 184.79
  A 0.74 0.73 47.3 0 0 138.54 184.84
  L 139.19 184.18
  Q 139.67 183.70 140.34 183.76
  Q 143.20 184.01 145.98 183.18
  Q 146.48 183.03 146.49 183.55
  Q 146.52 184.65 147.58 184.98
  Q 148.03 185.11 148.17 184.66
  L 148.47 183.70
  Q 148.68 183.02 149.34 183.31
  C 151.54 184.25 154.26 183.42 156.74 183.87
  Q 157.25 183.97 157.64 184.30
  Q 160.19 186.43 161.96 183.70
  A 1.04 1.01 22.2 0 1 163.04 183.26
  Q 167.71 184.32 170.76 183.62
  Q 174.96 182.66 178.03 183.86
  Q 178.50 184.04 178.94 183.79
  C 182.65 181.61 184.00 185.43 187.35 185.24
  Q 187.92 185.21 188.28 184.75
  Q 189.37 183.36 191.36 184.21
  A 0.94 0.93 -46.9 0 0 192.15 184.18
  L 193.49 183.50
  A 0.58 0.57 37.6 0 1 193.89 183.45
  Q 196.93 184.12 199.97 183.50
  Q 200.44 183.40 200.51 183.88
  Q 200.61 184.56 201.38 184.78
  Q 201.89 184.93 202.05 184.43
  L 202.33 183.58
  Q 202.53 182.96 203.14 183.18
  Q 204.56 183.70 205.96 183.14
  Q 206.45 182.94 206.97 183.06
  Q 208.44 183.40 209.95 183.23
  Q 210.13 183.21 210.24 183.35
  L 210.47 183.67
  A 0.04 0.04 0.0 0 1 210.44 183.73
  Q 208.98 183.72 208.27 184.96
  A 0.36 0.35 4.2 0 0 208.71 185.46
  L 211.03 184.59
  Q 211.55 184.39 212.02 184.68
  Q 213.39 185.49 214.77 184.47
  Q 215.44 183.96 215.26 184.79
  Q 215.06 185.70 215.61 186.36
  Q 215.97 186.80 216.40 186.44
  Q 217.24 185.72 216.88 184.80
  Q 216.62 184.14 217.33 184.13
  Q 222.16 184.03 226.91 183.60
  C 229.88 183.32 232.64 184.07 235.66 184.24
  Q 236.14 184.27 236.54 183.99
  L 237.58 183.28
  Q 237.93 183.04 238.30 183.26
  Q 239.23 183.82 239.59 182.72
  C 244.11 201.08 268.83 202.54 274.41 184.21
  Q 275.71 183.74 276.59 184.37
  A 0.47 0.46 -42.1 0 0 277.09 184.39
  Q 280.98 182.19 284.86 184.08
  Q 285.34 184.32 285.81 184.06
  Q 289.41 182.10 292.65 184.62
  C 293.84 185.55 294.90 185.30 295.72 184.10
  A 0.17 0.17 0.0 0 1 296.01 184.11
  L 296.35 184.68
  A 0.20 0.20 0.0 0 0 296.68 184.70
  Q 297.67 183.42 298.90 184.64
  A 1.14 1.10 -23.9 0 0 299.75 184.95
  Q 302.37 184.76 305.23 183.50
  Q 307.10 182.68 308.68 183.81
  A 0.55 0.54 40.4 0 0 309.37 183.76
  L 309.69 183.43
  A 0.54 0.54 0.0 0 1 310.33 183.35
  C 313.15 185.03 314.97 181.72 318.52 184.39
  Q 320.34 185.77 322.20 183.81
  A 0.32 0.31 -23.6 0 1 322.75 184.02
  L 322.75 185.80
  A 0.37 0.37 0.0 0 0 323.43 186.00
  L 324.29 184.63
  Q 324.53 184.26 324.89 184.51
  Q 326.53 185.69 327.77 184.08
  A 0.61 0.60 40.1 0 1 328.66 184.01
  Q 329.64 184.91 330.45 184.19
  Q 330.82 183.86 331.31 183.74
  L 335.15 182.82
  Q 335.64 182.69 336.04 183.02
  Q 337.72 184.38 339.76 183.85
  Q 340.30 183.71 340.85 183.76
  L 344.72 184.11
  A 0.74 0.69 66.7 0 1 345.13 184.29
  Q 347.27 186.12 348.90 183.95
  A 0.35 0.35 0.0 0 1 349.48 183.99
  L 350.25 185.42
  A 0.41 0.41 0.0 0 0 351.02 185.25
  Q 351.11 183.88 352.17 184.51
  A 0.72 0.71 -52.7 0 0 353.04 184.39
  Q 354.46 182.89 356.08 183.95
  Q 356.53 184.25 357.06 184.10
  L 361.17 182.96
  Q 361.59 182.84 361.52 183.27
  Q 361.27 184.81 362.41 185.69
  Q 363.93 186.87 363.06 185.15
  Q 362.68 184.40 363.02 183.63
  Q 363.24 183.14 363.71 183.41
  Q 365.48 184.43 367.01 182.96
  Q 367.40 182.59 367.93 182.67
  L 370.81 183.11
  Q 371.35 183.19 371.68 183.62
  Q 372.88 185.17 374.83 185.13
  Q 375.48 185.11 375.83 184.56
  Q 376.87 182.90 378.64 184.04
  A 1.04 1.02 50.8 0 0 379.54 184.14
  Q 382.81 183.01 386.19 183.68
  Q 386.71 183.79 387.20 183.57
  L 389.12 182.71
  A 0.84 0.83 52.6 0 1 389.99 182.83
  C 392.21 184.66 395.11 182.80 397.69 183.25
  Q 398.29 183.36 397.83 183.76
  L 395.96 185.38
  Q 395.73 185.58 396.01 185.67
  Q 396.17 185.72 396.33 185.78
  Q 396.43 185.81 396.50 185.72
  Q 398.01 183.54 400.16 185.20
  A 0.97 0.96 -43.2 0 0 401.31 185.23
  L 402.57 184.35
  Q 402.88 184.14 402.97 184.50
  L 403.58 186.83
  A 0.65 0.65 0.0 0 0 404.86 186.72
  L 405.07 184.31
  A 0.69 0.68 -87.2 0 1 405.75 183.69
  L 413.96 183.68
  Q 414.43 183.68 414.76 183.34
  Q 415.39 182.71 416.33 182.75
  Q 416.83 182.77 417.23 183.08
  C 419.31 184.72 421.76 182.74 424.52 183.36
  Q 425.02 183.47 425.43 183.16
  L 426.42 182.42
  A 1.12 1.10 33.0 0 1 427.36 182.23
  Q 428.87 182.59 430.36 182.28
  Q 430.83 182.18 431.27 182.36
  C 435.15 183.93 439.64 182.51 443.61 182.03
  Q 444.06 181.97 444.10 182.43
  Q 444.18 183.58 445.32 183.86
  C 446.91 184.26 449.07 182.78 451.53 183.25
  Q 451.98 183.33 452.31 183.01
  Q 453.59 181.70 455.43 182.33
  A 2.57 2.57 0.0 0 0 458.42 181.30
  L 459.41 179.77
  Q 459.53 179.59 459.55 179.80
  L 459.82 181.74
  Q 459.84 181.93 459.90 181.93
  Q 459.92 181.93 459.94 181.94
  Q 459.98 181.94 459.98 181.90
  Q 459.86 181.25 460.06 180.68
  Q 460.24 180.16 460.35 180.70
  L 460.46 181.24
  A 0.26 0.26 0.0 0 0 460.97 181.20
  L 461.01 179.75
  A 0.19 0.08 -87.3 0 1 461.10 179.57
  Q 461.13 179.57 461.16 179.57
  Q 461.22 179.56 461.22 179.57
  Q 461.15 179.88 461.23 180.09
  Q 461.49 180.79 461.51 179.99
  L 461.86 166.00
  L 461.90 223.43
  Q 460.79 228.18 461.37 233.38
  A 0.14 0.14 0.0 0 1 461.10 233.42
  L 460.03 227.77
  Q 460.01 227.65 459.93 227.74
  Q 459.40 228.33 458.39 228.57
  Q 457.99 228.66 457.64 228.45
  Q 454.12 226.35 449.64 225.20
  Q 448.29 224.85 447.91 225.93
  Q 447.77 226.35 447.35 226.49
  Q 445.92 226.98 444.87 226.00
  A 1.28 1.27 -47.1 0 0 443.07 226.07
  L 442.08 227.12
  A 0.87 0.85 -52.4 0 1 440.99 227.27
  Q 438.84 225.92 436.56 227.04
  Q 436.12 227.26 435.63 227.15
  Q 432.27 226.40 428.84 226.99
  Q 428.35 227.07 427.91 226.85
  Q 425.98 225.88 424.49 227.40
  A 0.84 0.83 39.3 0 1 423.41 227.50
  L 421.69 226.30
  A 0.90 0.88 49.1 0 0 420.82 226.23
  Q 419.36 226.92 417.82 226.41
  Q 417.30 226.23 416.81 226.48
  C 414.80 227.50 413.17 226.47 411.39 226.61
  C 406.86 226.96 403.81 227.82 399.37 226.37
  Q 398.89 226.21 398.54 226.57
  Q 396.85 228.35 395.16 226.67
  Q 394.81 226.32 394.33 226.38
  Q 388.50 227.01 382.68 226.75
  C 381.33 226.69 380.39 225.82 378.78 226.85
  A 0.57 0.49 26.1 0 1 378.51 226.92
  L 372.86 226.94
  Q 372.42 226.95 372.18 226.58
  Q 370.94 224.69 368.82 225.28
  Q 368.32 225.42 367.94 225.08
  Q 367.05 224.29 366.88 225.31
  C 347.60 208.89 321.01 204.34 298.28 215.85
  C 292.20 218.93 284.65 223.54 278.29 227.96
  Q 277.88 228.24 277.38 228.24
  Q 258.24 228.27 239.11 228.24
  C 237.97 228.24 237.30 228.74 236.09 227.90
  Q 226.25 221.07 215.56 215.69
  C 192.29 203.99 165.11 209.33 145.89 226.76
  Q 144.76 225.66 142.41 227.41
  A 0.79 0.77 28.2 0 1 141.89 227.56
  L 128.33 226.28
  Q 128.00 226.25 128.00 226.58
  Q 128.00 226.71 128.01 226.86
  Q 128.03 227.35 127.64 227.06
  C 126.36 226.14 123.75 226.80 122.01 226.45
  A 1.50 1.46 36.4 0 0 121.08 226.58
  C 119.47 227.39 118.20 226.60 116.90 226.57
  Q 110.70 226.41 104.48 226.45
  Q 103.98 226.45 103.55 226.72
  L 102.46 227.41
  Q 101.99 227.70 101.51 227.42
  Q 97.19 224.92 92.83 226.83
  Q 92.40 227.01 91.96 226.86
  Q 90.24 226.24 88.52 226.67
  Q 87.98 226.80 87.46 226.60
  Q 84.89 225.63 82.40 226.75
  Q 81.88 226.98 81.48 226.58
  Q 80.77 225.86 80.23 226.66
  A 0.73 0.73 0.0 0 1 79.25 226.87
  Q 77.16 225.61 75.62 227.34
  A 0.82 0.81 26.8 0 1 74.82 227.60
  L 70.59 226.66
  Q 70.08 226.55 69.63 226.28
  Q 68.37 225.53 66.96 226.31
  Q 66.51 226.56 65.99 226.59
  Q 61.60 226.82 57.28 227.73
  C 55.52 228.10 54.26 229.35 52.28 229.61
  Q 51.85 229.67 51.79 230.10
  L 51.75 230.46
  A 0.07 0.07 0.0 0 1 51.61 230.47
  Q 51.56 230.31 51.42 230.18
  Q 51.05 229.83 51.02 230.34
  L 50.41 241.69
  Q 50.41 241.69 50.40 241.69
  Q 50.38 241.69 50.34 241.69
  A 0.12 0.12 0.0 0 1 50.22 241.58
  L 50.05 232.50
  L 50.05 165.49
  Z"
/>
<path fill="#ffffff" d="
  M 366.88 225.31
  C 382.92 238.95 388.15 253.86 391.44 274.26
  Q 398.82 319.94 403.44 354.77
  Q 404.54 364.18 404.96 370.00
  C 406.53 391.69 392.29 407.38 371.02 410.01
  Q 341.45 413.67 319.97 394.86
  Q 304.06 376.13 292.26 354.81
  A 0.60 0.59 75.5 0 0 291.74 354.50
  L 222.99 354.50
  A 1.07 1.05 14.2 0 0 222.06 355.04
  C 213.77 369.71 203.83 385.18 191.99 397.09
  C 172.04 412.48 137.61 417.98 118.27 397.82
  C 107.72 385.43 108.67 371.57 110.83 356.04
  Q 118.51 297.59 124.75 263.50
  Q 128.61 242.43 145.89 226.76
  C 165.11 209.33 192.29 203.99 215.56 215.69
  Q 226.25 221.07 236.09 227.90
  C 237.30 228.74 237.97 228.24 239.11 228.24
  Q 258.24 228.27 277.38 228.24
  Q 277.88 228.24 278.29 227.96
  C 284.65 223.54 292.20 218.93 298.28 215.85
  C 321.01 204.34 347.60 208.89 366.88 225.31
  Z
  M 134.43 316.69
  Q 129.15 349.90 127.26 370.24
  C 124.62 398.79 162.45 395.86 177.49 385.56
  Q 181.29 382.96 185.59 377.49
  Q 200.34 358.76 211.26 337.57
  A 1.98 1.98 0.0 0 1 213.03 336.48
  L 302.00 336.54
  Q 302.59 336.54 302.87 337.07
  Q 313.92 358.52 328.76 377.47
  C 332.62 382.41 335.93 385.52 341.20 388.03
  C 354.15 394.19 381.15 397.24 386.41 379.21
  Q 387.61 375.09 386.59 365.71
  Q 383.99 341.80 380.16 317.99
  Q 377.15 298.44 374.08 278.85
  Q 371.92 265.07 369.75 259.37
  C 359.82 233.26 328.92 218.32 303.34 233.39
  Q 293.15 239.40 283.26 245.95
  A 1.79 1.78 -61.8 0 1 282.27 246.25
  L 231.82 246.25
  A 1.48 1.46 -27.0 0 1 230.97 245.98
  C 215.06 234.87 200.25 224.50 181.77 228.05
  C 161.23 232.00 145.76 248.30 141.96 268.73
  Q 140.11 278.69 134.43 316.69
  Z"
/>
<path fill="#004599" d="
  M 461.90 223.43
  L 461.88 237.25
  L 461.44 356.18
  Q 461.44 357.12 461.04 356.26
  Q 460.71 355.55 460.60 354.81
  Q 460.59 354.78 460.56 354.77
  Q 460.40 354.72 460.23 354.65
  Q 460.00 354.56 460.00 354.81
  L 460.00 358.49
  Q 460.00 359.13 459.67 358.58
  Q 459.51 358.30 459.46 357.99
  A 0.10 0.10 0.0 0 0 459.26 358.00
  L 459.22 358.56
  A 1.04 1.03 -76.3 0 1 457.78 359.44
  C 455.47 358.44 455.37 354.91 452.50 355.42
  Q 452.00 355.52 452.00 356.02
  L 452.00 356.52
  A 0.62 0.62 0.0 0 1 450.99 357.01
  Q 446.63 353.56 441.22 355.69
  Q 440.73 355.88 440.25 355.68
  Q 439.29 355.29 438.26 355.52
  Q 435.20 356.21 432.06 355.79
  Q 431.54 355.72 431.11 356.00
  Q 428.77 357.50 426.79 355.62
  Q 426.38 355.23 425.86 355.47
  L 423.89 356.42
  Q 423.50 356.60 423.11 356.43
  C 417.81 354.07 413.08 356.12 407.73 355.66
  Q 407.24 355.61 406.81 355.35
  Q 405.60 354.60 403.44 354.77
  Q 398.82 319.94 391.44 274.26
  C 388.15 253.86 382.92 238.95 366.88 225.31
  Q 367.05 224.29 367.94 225.08
  Q 368.32 225.42 368.82 225.28
  Q 370.94 224.69 372.18 226.58
  Q 372.42 226.95 372.86 226.94
  L 378.51 226.92
  A 0.57 0.49 26.1 0 0 378.78 226.85
  C 380.39 225.82 381.33 226.69 382.68 226.75
  Q 388.50 227.01 394.33 226.38
  Q 394.81 226.32 395.16 226.67
  Q 396.85 228.35 398.54 226.57
  Q 398.89 226.21 399.37 226.37
  C 403.81 227.82 406.86 226.96 411.39 226.61
  C 413.17 226.47 414.80 227.50 416.81 226.48
  Q 417.30 226.23 417.82 226.41
  Q 419.36 226.92 420.82 226.23
  A 0.90 0.88 49.1 0 1 421.69 226.30
  L 423.41 227.50
  A 0.84 0.83 39.3 0 0 424.49 227.40
  Q 425.98 225.88 427.91 226.85
  Q 428.35 227.07 428.84 226.99
  Q 432.27 226.40 435.63 227.15
  Q 436.12 227.26 436.56 227.04
  Q 438.84 225.92 440.99 227.27
  A 0.87 0.85 -52.4 0 0 442.08 227.12
  L 443.07 226.07
  A 1.28 1.27 -47.1 0 1 444.87 226.00
  Q 445.92 226.98 447.35 226.49
  Q 447.77 226.35 447.91 225.93
  Q 448.29 224.85 449.64 225.20
  Q 454.12 226.35 457.64 228.45
  Q 457.99 228.66 458.39 228.57
  Q 459.40 228.33 459.93 227.74
  Q 460.01 227.65 460.03 227.77
  L 461.10 233.42
  A 0.14 0.14 0.0 0 0 461.37 233.38
  Q 460.79 228.18 461.90 223.43
  Z"
/>
<path fill="#004599" d="
  M 145.89 226.76
  Q 128.61 242.43 124.75 263.50
  Q 118.51 297.59 110.83 356.04
  Q 110.34 356.20 110.03 356.52
  A 0.32 0.32 0.0 0 1 109.53 356.49
  L 109.25 356.11
  Q 108.96 355.72 108.53 355.96
  Q 106.76 356.96 104.83 356.12
  A 0.96 0.93 48.7 0 0 104.22 356.07
  Q 101.83 356.67 99.67 355.70
  Q 99.26 355.51 98.82 355.64
  L 97.89 355.90
  Q 97.39 356.04 96.92 355.81
  Q 94.62 354.68 92.27 355.75
  A 1.32 1.29 40.6 0 1 91.36 355.81
  Q 88.69 355.02 85.91 355.33
  Q 85.41 355.39 84.96 355.17
  Q 82.67 354.08 81.46 356.28
  Q 81.19 356.77 80.67 356.58
  L 77.88 355.54
  Q 77.33 355.34 76.79 355.58
  L 75.01 356.38
  A 0.88 0.86 48.4 0 1 74.19 356.32
  C 71.51 354.60 69.00 354.56 66.03 355.61
  C 63.83 356.38 61.88 354.17 59.14 355.32
  Q 58.66 355.52 58.15 355.48
  Q 54.83 355.20 52.68 357.70
  Q 52.27 358.19 52.10 357.57
  Q 51.41 355.03 51.80 352.38
  Q 51.81 352.31 51.74 352.31
  Q 51.71 352.31 51.66 352.31
  Q 51.59 352.31 51.58 352.50
  L 51.25 361.50
  Q 51.24 361.83 51.02 361.58
  Q 50.90 361.46 50.93 361.24
  Q 51.05 360.26 50.96 359.27
  A 0.07 0.07 0.0 0 0 50.83 359.25
  Q 50.79 359.37 50.76 359.50
  Q 50.70 359.72 50.57 359.53
  Q 50.41 359.30 50.19 359.23
  L 50.05 232.50
  L 50.22 241.58
  A 0.12 0.12 0.0 0 0 50.34 241.69
  Q 50.38 241.69 50.40 241.69
  Q 50.41 241.69 50.41 241.69
  L 51.02 230.34
  Q 51.05 229.83 51.42 230.18
  Q 51.56 230.31 51.61 230.47
  A 0.07 0.07 0.0 0 0 51.75 230.46
  L 51.79 230.10
  Q 51.85 229.67 52.28 229.61
  C 54.26 229.35 55.52 228.10 57.28 227.73
  Q 61.60 226.82 65.99 226.59
  Q 66.51 226.56 66.96 226.31
  Q 68.37 225.53 69.63 226.28
  Q 70.08 226.55 70.59 226.66
  L 74.82 227.60
  A 0.82 0.81 26.8 0 0 75.62 227.34
  Q 77.16 225.61 79.25 226.87
  A 0.73 0.73 0.0 0 0 80.23 226.66
  Q 80.77 225.86 81.48 226.58
  Q 81.88 226.98 82.40 226.75
  Q 84.89 225.63 87.46 226.60
  Q 87.98 226.80 88.52 226.67
  Q 90.24 226.24 91.96 226.86
  Q 92.40 227.01 92.83 226.83
  Q 97.19 224.92 101.51 227.42
  Q 101.99 227.70 102.46 227.41
  L 103.55 226.72
  Q 103.98 226.45 104.48 226.45
  Q 110.70 226.41 116.90 226.57
  C 118.20 226.60 119.47 227.39 121.08 226.58
  A 1.50 1.46 36.4 0 1 122.01 226.45
  C 123.75 226.80 126.36 226.14 127.64 227.06
  Q 128.03 227.35 128.01 226.86
  Q 128.00 226.71 128.00 226.58
  Q 128.00 226.25 128.33 226.28
  L 141.89 227.56
  A 0.79 0.77 28.2 0 0 142.41 227.41
  Q 144.76 225.66 145.89 226.76
  Z"
/>
<path fill="#004599" d="
  M 380.16 317.99
  Q 379.50 318.76 378.99 317.29
  A 0.33 0.32 79.1 0 0 378.67 317.07
  Q 374.45 317.22 370.19 317.58
  C 368.60 317.71 367.45 317.00 365.99 318.61
  Q 365.66 318.97 365.26 318.69
  Q 363.55 317.51 361.85 318.58
  A 1.19 1.17 -54.9 0 1 360.97 318.74
  L 355.07 317.42
  Q 354.66 317.33 354.27 317.47
  Q 352.44 318.13 353.00 319.58
  Q 353.16 320.00 352.71 320.00
  L 350.54 320.00
  Q 349.87 320.00 350.08 319.36
  L 350.42 318.38
  Q 350.57 317.94 350.15 317.75
  Q 348.61 317.06 347.44 318.41
  A 0.65 0.64 53.7 0 1 346.36 318.24
  L 345.82 316.98
  Q 345.61 316.49 345.14 316.76
  L 343.46 317.73
  A 1.65 1.59 25.9 0 1 342.88 317.92
  L 340.08 318.21
  Q 339.59 318.26 339.46 318.73
  Q 339.16 319.83 338.06 319.43
  Q 337.12 319.08 335.91 317.85
  Q 335.57 317.51 335.19 317.79
  L 334.30 318.43
  Q 333.87 318.74 333.40 318.50
  C 332.05 317.81 327.48 316.23 326.72 318.51
  A 1.08 0.97 -51.5 0 1 324.86 318.82
  Q 323.24 315.73 320.75 318.16
  A 0.37 0.36 53.8 0 1 320.18 318.07
  L 319.76 317.33
  Q 319.42 316.73 318.83 317.07
  Q 316.52 318.41 313.89 317.64
  A 0.56 0.56 0.0 0 0 313.30 317.83
  L 312.29 319.14
  Q 311.98 319.53 311.70 319.12
  Q 309.91 316.47 307.24 318.59
  Q 306.80 318.93 306.34 318.63
  Q 302.58 316.19 298.93 318.68
  A 0.65 0.65 0.0 0 1 298.02 318.51
  Q 296.62 316.48 295.03 317.82
  A 0.81 0.64 6.6 0 1 294.82 317.95
  Q 293.51 318.61 292.88 317.79
  A 0.73 0.73 0.0 0 0 292.24 317.50
  L 282.71 318.14
  Q 282.32 318.17 282.00 318.40
  C 278.78 320.72 276.32 315.61 272.49 318.28
  Q 272.00 318.62 271.46 318.35
  L 269.78 317.51
  Q 269.34 317.30 268.90 317.50
  Q 267.66 318.08 266.55 317.40
  A 0.55 0.53 54.9 0 0 266.19 317.33
  L 259.12 318.19
  Q 258.81 318.23 258.64 318.48
  Q 258.33 318.92 257.74 318.77
  Q 255.69 318.27 253.88 318.81
  Q 253.40 318.95 252.94 318.75
  C 251.40 318.10 247.72 316.57 246.77 318.80
  A 1.20 1.20 0.0 0 1 244.83 319.19
  L 243.37 317.77
  Q 243.06 317.48 242.65 317.52
  Q 235.84 318.23 229.01 317.76
  Q 228.48 317.72 228.18 318.16
  Q 226.81 320.09 224.96 318.59
  Q 224.59 318.29 224.13 318.36
  Q 219.88 319.05 216.00 317.34
  Q 215.49 317.12 214.95 317.24
  L 213.52 317.57
  Q 212.99 317.69 212.49 317.50
  Q 210.95 316.92 209.70 318.01
  Q 209.36 318.32 208.93 318.18
  C 206.81 317.52 203.69 318.87 202.20 317.81
  Q 201.79 317.51 201.42 317.87
  C 198.44 320.80 196.39 315.18 192.38 318.53
  A 0.83 0.83 0.0 0 1 191.52 318.66
  Q 190.37 318.16 189.60 317.21
  A 1.24 1.24 0.0 0 0 188.94 316.79
  Q 187.78 316.51 187.22 317.42
  A 1.18 1.17 -79.8 0 1 186.44 317.97
  Q 185.43 318.18 184.98 317.29
  Q 184.72 316.79 184.22 317.05
  L 182.33 318.05
  A 0.81 0.80 52.8 0 1 181.40 317.92
  Q 179.72 316.34 177.76 317.89
  A 0.89 0.89 0.0 0 1 176.76 317.95
  Q 175.00 316.89 173.82 318.29
  A 1.15 1.13 19.1 0 1 172.97 318.69
  Q 171.18 318.73 169.73 317.96
  C 167.76 316.90 166.53 316.77 165.21 318.64
  A 0.58 0.58 0.0 0 1 164.38 318.76
  L 162.57 317.35
  A 0.67 0.67 0.0 0 0 161.90 317.26
  L 158.95 318.44
  Q 158.53 318.60 158.33 318.19
  L 157.99 317.47
  Q 157.60 316.65 156.94 317.28
  Q 155.26 318.89 153.32 317.48
  A 0.77 0.76 33.9 0 0 152.22 317.69
  Q 151.00 319.67 149.25 318.05
  A 0.67 0.67 0.0 0 0 148.39 318.01
  Q 146.58 319.33 144.41 318.69
  Q 143.86 318.53 143.35 318.77
  Q 142.30 319.25 141.73 318.02
  A 0.85 0.85 0.0 0 0 140.96 317.53
  Q 139.83 317.54 139.06 318.33
  Q 138.69 318.71 138.20 318.87
  Q 136.10 319.59 135.99 318.13
  Q 135.96 317.60 135.50 317.33
  L 134.43 316.69
  Q 140.11 278.69 141.96 268.73
  C 145.76 248.30 161.23 232.00 181.77 228.05
  C 200.25 224.50 215.06 234.87 230.97 245.98
  A 1.48 1.46 -27.0 0 0 231.82 246.25
  L 282.27 246.25
  A 1.79 1.78 -61.8 0 0 283.26 245.95
  Q 293.15 239.40 303.34 233.39
  C 328.92 218.32 359.82 233.26 369.75 259.37
  Q 371.92 265.07 374.08 278.85
  Q 377.15 298.44 380.16 317.99
  Z"
/>
<path fill="#002c79" d="
  M 461.88 237.25
  Q 462.10 292.25 461.77 347.25
  C 461.67 363.81 461.17 379.72 457.99 396.06
  Q 449.46 425.62 424.56 444.10
  C 401.81 460.98 374.83 461.98 347.25 461.99
  Q 257.72 462.05 168.20 461.97
  C 150.01 461.96 130.67 462.08 113.22 457.03
  C 87.48 449.58 67.34 429.61 56.85 405.09
  Q 57.73 405.08 58.28 404.80
  Q 58.70 404.58 58.79 405.04
  Q 59.02 406.14 59.81 406.96
  Q 60.58 407.76 60.32 406.68
  L 59.80 404.54
  Q 59.64 403.89 60.27 403.70
  L 61.21 403.40
  Q 61.45 403.33 61.35 403.10
  L 60.42 401.05
  A 0.83 0.82 66.8 0 1 60.86 399.94
  L 64.29 398.57
  A 1.07 1.06 51.6 0 1 65.29 398.69
  Q 67.51 400.27 69.90 399.17
  A 1.86 1.84 -52.3 0 1 70.96 399.03
  C 73.66 399.49 77.53 397.33 79.24 398.58
  Q 79.67 398.89 80.17 398.71
  Q 82.09 398.02 84.02 398.92
  Q 84.40 399.10 84.77 398.90
  Q 86.58 397.89 88.14 399.26
  Q 88.56 399.63 89.08 399.43
  Q 91.49 398.52 93.87 399.37
  Q 94.54 399.61 95.25 399.54
  L 103.84 398.73
  Q 104.28 398.69 104.68 398.84
  L 106.40 399.50
  Q 106.98 399.73 107.48 399.34
  Q 108.86 398.24 110.44 398.88
  Q 110.93 399.08 111.45 399.01
  L 116.23 398.45
  Q 116.75 398.39 117.17 398.68
  L 118.16 399.35
  Q 118.72 399.73 118.43 399.12
  Q 118.11 398.46 118.27 397.82
  C 137.61 417.98 172.04 412.48 191.99 397.09
  L 192.01 397.78
  Q 192.03 398.52 192.47 397.92
  L 192.81 397.46
  A 0.40 0.40 0.0 0 1 193.42 397.42
  L 194.71 398.75
  Q 195.08 399.13 195.60 399.07
  Q 198.85 398.71 201.95 399.51
  C 206.08 400.58 208.84 397.95 212.82 398.87
  C 214.03 399.15 214.46 398.90 215.50 398.45
  A 1.16 1.16 0.0 0 1 216.52 398.49
  Q 218.00 399.28 219.54 398.79
  Q 220.09 398.61 220.63 398.81
  L 221.75 399.23
  Q 222.20 399.40 222.66 399.24
  Q 225.31 398.32 227.89 399.44
  Q 228.41 399.67 228.98 399.62
  L 236.45 398.91
  Q 237.02 398.86 237.45 398.49
  Q 238.66 397.47 239.90 398.94
  A 0.71 0.71 0.0 0 0 240.81 399.10
  Q 243.00 397.81 244.99 399.37
  A 0.71 0.70 -46.0 0 0 245.88 399.35
  Q 247.27 398.16 248.80 398.86
  Q 249.32 399.10 249.88 399.00
  Q 252.90 398.44 255.76 399.69
  Q 256.20 399.89 256.63 399.64
  C 258.24 398.69 260.34 399.78 262.45 398.81
  C 264.50 397.86 265.38 397.61 267.14 398.94
  A 0.82 0.81 49.3 0 0 268.02 399.01
  Q 269.89 397.99 271.77 398.87
  Q 272.31 399.12 272.86 398.91
  L 274.00 398.46
  Q 274.50 398.27 275.01 398.47
  Q 276.20 398.94 277.26 398.35
  Q 277.70 398.11 278.16 398.30
  C 283.80 400.64 286.10 398.94 291.70 398.68
  Q 292.24 398.66 292.64 399.03
  Q 294.00 400.28 295.52 399.07
  A 1.30 1.28 -59.4 0 1 296.53 398.80
  C 299.25 399.25 301.61 399.69 304.44 399.05
  C 306.76 398.53 308.92 399.55 311.08 399.33
  Q 314.02 399.02 317.02 398.88
  Q 320.93 398.68 319.97 394.86
  Q 341.45 413.67 371.02 410.01
  C 392.29 407.38 406.53 391.69 404.96 370.00
  Q 404.54 364.18 403.44 354.77
  Q 405.60 354.60 406.81 355.35
  Q 407.24 355.61 407.73 355.66
  C 413.08 356.12 417.81 354.07 423.11 356.43
  Q 423.50 356.60 423.89 356.42
  L 425.86 355.47
  Q 426.38 355.23 426.79 355.62
  Q 428.77 357.50 431.11 356.00
  Q 431.54 355.72 432.06 355.79
  Q 435.20 356.21 438.26 355.52
  Q 439.29 355.29 440.25 355.68
  Q 440.73 355.88 441.22 355.69
  Q 446.63 353.56 450.99 357.01
  A 0.62 0.62 0.0 0 0 452.00 356.52
  L 452.00 356.02
  Q 452.00 355.52 452.50 355.42
  C 455.37 354.91 455.47 358.44 457.78 359.44
  A 1.04 1.03 -76.3 0 0 459.22 358.56
  L 459.26 358.00
  A 0.10 0.10 0.0 0 1 459.46 357.99
  Q 459.51 358.30 459.67 358.58
  Q 460.00 359.13 460.00 358.49
  L 460.00 354.81
  Q 460.00 354.56 460.23 354.65
  Q 460.40 354.72 460.56 354.77
  Q 460.59 354.78 460.60 354.81
  Q 460.71 355.55 461.04 356.26
  Q 461.44 357.12 461.44 356.18
  L 461.88 237.25
  Z"
/>
<path fill="#003a8b" d="
  M 134.43 316.69
  L 135.50 317.33
  Q 135.96 317.60 135.99 318.13
  Q 136.10 319.59 138.20 318.87
  Q 138.69 318.71 139.06 318.33
  Q 139.83 317.54 140.96 317.53
  A 0.85 0.85 0.0 0 1 141.73 318.02
  Q 142.30 319.25 143.35 318.77
  Q 143.86 318.53 144.41 318.69
  Q 146.58 319.33 148.39 318.01
  A 0.67 0.67 0.0 0 1 149.25 318.05
  Q 151.00 319.67 152.22 317.69
  A 0.77 0.76 33.9 0 1 153.32 317.48
  Q 155.26 318.89 156.94 317.28
  Q 157.60 316.65 157.99 317.47
  L 158.33 318.19
  Q 158.53 318.60 158.95 318.44
  L 161.90 317.26
  A 0.67 0.67 0.0 0 1 162.57 317.35
  L 164.38 318.76
  A 0.58 0.58 0.0 0 0 165.21 318.64
  C 166.53 316.77 167.76 316.90 169.73 317.96
  Q 171.18 318.73 172.97 318.69
  A 1.15 1.13 19.1 0 0 173.82 318.29
  Q 175.00 316.89 176.76 317.95
  A 0.89 0.89 0.0 0 0 177.76 317.89
  Q 179.72 316.34 181.40 317.92
  A 0.81 0.80 52.8 0 0 182.33 318.05
  L 184.22 317.05
  Q 184.72 316.79 184.98 317.29
  Q 185.43 318.18 186.44 317.97
  A 1.18 1.17 -79.8 0 0 187.22 317.42
  Q 187.78 316.51 188.94 316.79
  A 1.24 1.24 0.0 0 1 189.60 317.21
  Q 190.37 318.16 191.52 318.66
  A 0.83 0.83 0.0 0 0 192.38 318.53
  C 196.39 315.18 198.44 320.80 201.42 317.87
  Q 201.79 317.51 202.20 317.81
  C 203.69 318.87 206.81 317.52 208.93 318.18
  Q 209.36 318.32 209.70 318.01
  Q 210.95 316.92 212.49 317.50
  Q 212.99 317.69 213.52 317.57
  L 214.95 317.24
  Q 215.49 317.12 216.00 317.34
  Q 219.88 319.05 224.13 318.36
  Q 224.59 318.29 224.96 318.59
  Q 226.81 320.09 228.18 318.16
  Q 228.48 317.72 229.01 317.76
  Q 235.84 318.23 242.65 317.52
  Q 243.06 317.48 243.37 317.77
  L 244.83 319.19
  A 1.20 1.20 0.0 0 0 246.77 318.80
  C 247.72 316.57 251.40 318.10 252.94 318.75
  Q 253.40 318.95 253.88 318.81
  Q 255.69 318.27 257.74 318.77
  Q 258.33 318.92 258.64 318.48
  Q 258.81 318.23 259.12 318.19
  L 266.19 317.33
  A 0.55 0.53 54.9 0 1 266.55 317.40
  Q 267.66 318.08 268.90 317.50
  Q 269.34 317.30 269.78 317.51
  L 271.46 318.35
  Q 272.00 318.62 272.49 318.28
  C 276.32 315.61 278.78 320.72 282.00 318.40
  Q 282.32 318.17 282.71 318.14
  L 292.24 317.50
  A 0.73 0.73 0.0 0 1 292.88 317.79
  Q 293.51 318.61 294.82 317.95
  A 0.81 0.64 6.6 0 0 295.03 317.82
  Q 296.62 316.48 298.02 318.51
  A 0.65 0.65 0.0 0 0 298.93 318.68
  Q 302.58 316.19 306.34 318.63
  Q 306.80 318.93 307.24 318.59
  Q 309.91 316.47 311.70 319.12
  Q 311.98 319.53 312.29 319.14
  L 313.30 317.83
  A 0.56 0.56 0.0 0 1 313.89 317.64
  Q 316.52 318.41 318.83 317.07
  Q 319.42 316.73 319.76 317.33
  L 320.18 318.07
  A 0.37 0.36 53.8 0 0 320.75 318.16
  Q 323.24 315.73 324.86 318.82
  A 1.08 0.97 -51.5 0 0 326.72 318.51
  C 327.48 316.23 332.05 317.81 333.40 318.50
  Q 333.87 318.74 334.30 318.43
  L 335.19 317.79
  Q 335.57 317.51 335.91 317.85
  Q 337.12 319.08 338.06 319.43
  Q 339.16 319.83 339.46 318.73
  Q 339.59 318.26 340.08 318.21
  L 342.88 317.92
  A 1.65 1.59 25.9 0 0 343.46 317.73
  L 345.14 316.76
  Q 345.61 316.49 345.82 316.98
  L 346.36 318.24
  A 0.65 0.64 53.7 0 0 347.44 318.41
  Q 348.61 317.06 350.15 317.75
  Q 350.57 317.94 350.42 318.38
  L 350.08 319.36
  Q 349.87 320.00 350.54 320.00
  L 352.71 320.00
  Q 353.16 320.00 353.00 319.58
  Q 352.44 318.13 354.27 317.47
  Q 354.66 317.33 355.07 317.42
  L 360.97 318.74
  A 1.19 1.17 -54.9 0 0 361.85 318.58
  Q 363.55 317.51 365.26 318.69
  Q 365.66 318.97 365.99 318.61
  C 367.45 317.00 368.60 317.71 370.19 317.58
  Q 374.45 317.22 378.67 317.07
  A 0.33 0.32 79.1 0 1 378.99 317.29
  Q 379.50 318.76 380.16 317.99
  Q 383.99 341.80 386.59 365.71
  Q 387.61 375.09 386.41 379.21
  C 381.15 397.24 354.15 394.19 341.20 388.03
  C 335.93 385.52 332.62 382.41 328.76 377.47
  Q 313.92 358.52 302.87 337.07
  Q 302.59 336.54 302.00 336.54
  L 213.03 336.48
  A 1.98 1.98 0.0 0 0 211.26 337.57
  Q 200.34 358.76 185.59 377.49
  Q 181.29 382.96 177.49 385.56
  C 162.45 395.86 124.62 398.79 127.26 370.24
  Q 129.15 349.90 134.43 316.69
  Z"
/>
<path fill="#003a8b" d="
  M 110.83 356.04
  C 108.67 371.57 107.72 385.43 118.27 397.82
  Q 118.11 398.46 118.43 399.12
  Q 118.72 399.73 118.16 399.35
  L 117.17 398.68
  Q 116.75 398.39 116.23 398.45
  L 111.45 399.01
  Q 110.93 399.08 110.44 398.88
  Q 108.86 398.24 107.48 399.34
  Q 106.98 399.73 106.40 399.50
  L 104.68 398.84
  Q 104.28 398.69 103.84 398.73
  L 95.25 399.54
  Q 94.54 399.61 93.87 399.37
  Q 91.49 398.52 89.08 399.43
  Q 88.56 399.63 88.14 399.26
  Q 86.58 397.89 84.77 398.90
  Q 84.40 399.10 84.02 398.92
  Q 82.09 398.02 80.17 398.71
  Q 79.67 398.89 79.24 398.58
  C 77.53 397.33 73.66 399.49 70.96 399.03
  A 1.86 1.84 -52.3 0 0 69.90 399.17
  Q 67.51 400.27 65.29 398.69
  A 1.07 1.06 51.6 0 0 64.29 398.57
  L 60.86 399.94
  A 0.83 0.82 66.8 0 0 60.42 401.05
  L 61.35 403.10
  Q 61.45 403.33 61.21 403.40
  L 60.27 403.70
  Q 59.64 403.89 59.80 404.54
  L 60.32 406.68
  Q 60.58 407.76 59.81 406.96
  Q 59.02 406.14 58.79 405.04
  Q 58.70 404.58 58.28 404.80
  Q 57.73 405.08 56.85 405.09
  L 54.07 396.21
  L 52.90 390.65
  Q 50.73 375.23 50.19 359.23
  Q 50.41 359.30 50.57 359.53
  Q 50.70 359.72 50.76 359.50
  Q 50.79 359.37 50.83 359.25
  A 0.07 0.07 0.0 0 1 50.96 359.27
  Q 51.05 360.26 50.93 361.24
  Q 50.90 361.46 51.02 361.58
  Q 51.24 361.83 51.25 361.50
  L 51.58 352.50
  Q 51.59 352.31 51.66 352.31
  Q 51.71 352.31 51.74 352.31
  Q 51.81 352.31 51.80 352.38
  Q 51.41 355.03 52.10 357.57
  Q 52.27 358.19 52.68 357.70
  Q 54.83 355.20 58.15 355.48
  Q 58.66 355.52 59.14 355.32
  C 61.88 354.17 63.83 356.38 66.03 355.61
  C 69.00 354.56 71.51 354.60 74.19 356.32
  A 0.88 0.86 48.4 0 0 75.01 356.38
  L 76.79 355.58
  Q 77.33 355.34 77.88 355.54
  L 80.67 356.58
  Q 81.19 356.77 81.46 356.28
  Q 82.67 354.08 84.96 355.17
  Q 85.41 355.39 85.91 355.33
  Q 88.69 355.02 91.36 355.81
  A 1.32 1.29 40.6 0 0 92.27 355.75
  Q 94.62 354.68 96.92 355.81
  Q 97.39 356.04 97.89 355.90
  L 98.82 355.64
  Q 99.26 355.51 99.67 355.70
  Q 101.83 356.67 104.22 356.07
  A 0.96 0.93 48.7 0 1 104.83 356.12
  Q 106.76 356.96 108.53 355.96
  Q 108.96 355.72 109.25 356.11
  L 109.53 356.49
  A 0.32 0.32 0.0 0 0 110.03 356.52
  Q 110.34 356.20 110.83 356.04
  Z"
/>
<path fill="#003a8b" d="
  M 319.97 394.86
  Q 320.93 398.68 317.02 398.88
  Q 314.02 399.02 311.08 399.33
  C 308.92 399.55 306.76 398.53 304.44 399.05
  C 301.61 399.69 299.25 399.25 296.53 398.80
  A 1.30 1.28 -59.4 0 0 295.52 399.07
  Q 294.00 400.28 292.64 399.03
  Q 292.24 398.66 291.70 398.68
  C 286.10 398.94 283.80 400.64 278.16 398.30
  Q 277.70 398.11 277.26 398.35
  Q 276.20 398.94 275.01 398.47
  Q 274.50 398.27 274.00 398.46
  L 272.86 398.91
  Q 272.31 399.12 271.77 398.87
  Q 269.89 397.99 268.02 399.01
  A 0.82 0.81 49.3 0 1 267.14 398.94
  C 265.38 397.61 264.50 397.86 262.45 398.81
  C 260.34 399.78 258.24 398.69 256.63 399.64
  Q 256.20 399.89 255.76 399.69
  Q 252.90 398.44 249.88 399.00
  Q 249.32 399.10 248.80 398.86
  Q 247.27 398.16 245.88 399.35
  A 0.71 0.70 -46.0 0 1 244.99 399.37
  Q 243.00 397.81 240.81 399.10
  A 0.71 0.71 0.0 0 1 239.90 398.94
  Q 238.66 397.47 237.45 398.49
  Q 237.02 398.86 236.45 398.91
  L 228.98 399.62
  Q 228.41 399.67 227.89 399.44
  Q 225.31 398.32 222.66 399.24
  Q 222.20 399.40 221.75 399.23
  L 220.63 398.81
  Q 220.09 398.61 219.54 398.79
  Q 218.00 399.28 216.52 398.49
  A 1.16 1.16 0.0 0 0 215.50 398.45
  C 214.46 398.90 214.03 399.15 212.82 398.87
  C 208.84 397.95 206.08 400.58 201.95 399.51
  Q 198.85 398.71 195.60 399.07
  Q 195.08 399.13 194.71 398.75
  L 193.42 397.42
  A 0.40 0.40 0.0 0 0 192.81 397.46
  L 192.47 397.92
  Q 192.03 398.52 192.01 397.78
  L 191.99 397.09
  C 203.83 385.18 213.77 369.71 222.06 355.04
  A 1.07 1.05 14.2 0 1 222.99 354.50
  L 291.74 354.50
  A 0.60 0.59 75.5 0 1 292.26 354.81
  Q 304.06 376.13 319.97 394.86
  Z"
/>
<path fill="#000000" fill-opacity="0.137" d="
  M 457.99 396.06
  L 457.99 396.46
  Q 458.00 396.91 458.45 396.96
  Q 459.58 397.08 460.07 398.18
  Q 460.26 398.61 460.64 398.89
  C 463.88 401.37 461.34 403.96 460.98 406.85
  Q 460.92 407.37 460.47 407.64
  L 460.14 407.83
  Q 459.96 407.94 459.91 408.14
  Q 457.75 416.60 453.31 424.11
  Q 453.01 424.61 452.44 424.73
  Q 451.48 424.94 451.48 425.85
  Q 451.48 426.29 451.26 426.67
  L 446.37 435.11
  Q 446.11 435.56 445.69 435.86
  C 444.50 436.71 443.42 438.08 442.40 438.91
  Q 438.97 441.70 436.67 445.50
  Q 436.52 445.75 436.23 445.75
  L 435.76 445.75
  A 0.76 0.74 -87.5 0 0 435.02 446.44
  Q 434.91 447.71 433.82 447.77
  A 0.92 0.91 15.3 0 0 433.13 448.16
  Q 431.89 449.94 429.88 450.84
  Q 429.43 451.04 429.13 451.43
  Q 428.60 452.14 427.84 452.68
  Q 427.49 452.92 427.40 453.33
  Q 427.25 453.94 426.36 453.91
  Q 425.84 453.89 425.46 454.24
  Q 423.58 455.92 421.20 456.80
  Q 420.85 456.93 420.66 457.24
  Q 419.76 458.71 418.21 458.78
  Q 417.75 458.80 417.40 459.11
  Q 415.90 460.40 414.09 461.11
  Q 413.66 461.27 413.31 461.56
  Q 411.82 462.79 409.95 463.05
  Q 409.50 463.12 409.16 463.42
  Q 407.58 464.83 405.46 465.02
  A 1.39 1.35 -63.3 0 0 404.83 465.24
  Q 401.72 467.34 397.99 467.13
  A 1.40 1.37 -56.9 0 0 397.27 467.29
  Q 395.92 468.03 394.39 467.89
  A 0.12 0.11 78.5 0 0 394.28 468.06
  L 394.46 468.38
  A 0.14 0.14 0.0 0 1 394.35 468.58
  L 383.89 469.98
  Q 383.58 470.02 383.69 470.32
  Q 383.73 470.44 383.77 470.56
  A 0.11 0.11 0.0 0 1 383.67 470.70
  L 373.66 471.08
  A 0.16 0.16 0.0 0 0 373.50 471.24
  Q 373.50 471.37 373.50 471.51
  Q 373.50 471.69 373.31 471.69
  L 352.60 471.77
  Q 352.15 471.78 351.83 472.09
  L 351.11 472.82
  A 0.19 0.18 64.3 0 1 350.80 472.71
  L 350.74 472.23
  Q 350.70 472.00 350.48 472.00
  L 321.74 472.00
  Q 321.49 472.00 321.50 472.25
  Q 321.50 472.40 321.50 472.54
  Q 321.51 472.84 321.27 472.66
  Q 319.09 471.01 317.41 472.65
  Q 317.14 472.92 316.75 472.96
  Q 315.76 473.06 315.12 472.60
  Q 314.71 472.31 314.24 472.15
  Q 312.53 471.55 311.20 472.53
  Q 311.03 472.65 311.00 472.45
  L 310.96 472.12
  Q 310.94 472.00 310.82 472.00
  L 304.00 472.00
  Q 303.59 472.00 303.53 472.41
  Q 303.48 472.79 303.01 472.81
  Q 301.53 472.86 300.09 472.66
  C 298.60 472.45 297.15 471.17 295.30 472.53
  Q 294.62 473.02 294.72 472.51
  Q 294.75 472.38 294.75 472.25
  Q 294.75 472.00 294.50 472.00
  L 284.27 472.00
  Q 283.90 472.00 283.68 472.30
  L 283.27 472.85
  Q 283.04 473.18 282.75 472.89
  Q 282.14 472.29 281.51 472.72
  Q 280.57 473.34 280.73 472.50
  Q 280.75 472.36 280.75 472.22
  Q 280.75 472.00 280.52 472.00
  L 255.86 472.00
  Q 255.67 472.00 255.59 472.18
  L 255.38 472.64
  A 0.20 0.20 0.0 0 1 254.99 472.54
  Q 255.00 472.39 255.00 472.25
  Q 255.00 472.00 254.75 472.00
  L 244.75 472.00
  Q 244.38 472.00 244.46 472.36
  Q 244.49 472.53 244.38 472.65
  Q 244.29 472.75 244.10 472.76
  Q 243.31 472.81 242.53 472.85
  Q 242.06 472.87 242.36 472.50
  Q 242.45 472.40 242.74 472.33
  A 0.17 0.17 0.0 0 0 242.70 472.00
  L 229.78 472.00
  Q 229.54 472.00 229.51 472.23
  L 229.45 472.71
  A 0.18 0.18 0.0 0 1 229.12 472.79
  Q 228.99 472.60 228.99 472.40
  Q 228.98 472.17 228.76 472.13
  Q 226.02 471.55 223.49 472.55
  Q 223.16 472.68 222.96 472.40
  L 222.73 472.09
  Q 222.66 472.00 222.55 472.00
  L 207.81 472.00
  A 0.26 0.26 0.0 0 0 207.56 472.18
  L 207.36 472.81
  A 0.19 0.18 -36.6 0 1 207.00 472.76
  L 207.00 472.25
  Q 207.00 472.00 206.75 472.00
  L 194.20 472.00
  Q 193.67 472.00 193.50 472.50
  Q 193.41 472.78 193.35 473.01
  A 0.16 0.16 0.0 0 1 193.04 472.97
  Q 193.07 471.92 192.24 472.01
  Q 191.81 472.06 191.67 472.47
  Q 191.62 472.61 191.51 472.73
  Q 191.46 472.78 191.06 472.78
  L 187.20 472.78
  Q 186.99 472.78 186.99 472.57
  Q 186.99 472.43 187.02 472.29
  Q 187.08 472.08 186.86 472.05
  Q 185.05 471.83 183.31 472.16
  Q 183.07 472.20 182.86 472.10
  Q 182.41 471.86 181.81 472.00
  Q 181.59 472.05 181.67 472.26
  Q 181.73 472.43 181.78 472.59
  A 0.05 0.05 0.0 0 1 181.75 472.66
  Q 181.63 472.71 181.49 472.73
  Q 181.02 472.81 181.01 472.75
  L 180.96 472.38
  Q 180.93 472.20 180.75 472.16
  Q 177.33 471.56 175.54 472.28
  C 171.73 473.81 169.87 471.31 166.03 472.08
  Q 165.73 472.14 165.58 472.40
  L 165.33 472.81
  Q 164.99 473.39 165.00 472.71
  Q 165.00 472.51 165.00 472.31
  Q 165.00 471.95 164.64 471.95
  L 145.12 471.67
  Q 144.99 471.67 144.99 471.54
  Q 145.00 471.40 145.00 471.26
  Q 145.00 471.15 144.89 471.15
  L 129.30 470.89
  Q 128.86 470.88 128.80 470.45
  Q 128.76 470.20 128.62 470.05
  Q 128.53 469.96 128.37 469.93
  Q 125.98 469.60 123.58 469.78
  A 0.50 0.50 0.0 0 1 123.07 469.45
  Q 123.02 469.32 122.98 469.19
  Q 122.95 469.08 122.83 469.07
  L 117.79 468.87
  Q 117.37 468.85 117.16 468.49
  L 116.83 467.94
  Q 116.70 467.72 116.45 467.73
  C 114.28 467.81 110.23 468.45 108.89 466.26
  Q 108.65 465.87 108.19 465.92
  Q 105.51 466.27 103.65 464.39
  Q 103.26 463.99 102.71 463.86
  Q 101.59 463.59 99.52 462.99
  Q 98.98 462.83 98.93 462.45
  Q 98.88 462.02 98.45 462.03
  Q 96.26 462.05 94.67 460.43
  Q 94.34 460.11 93.89 460.03
  Q 92.44 459.80 91.24 458.90
  Q 90.94 458.68 91.20 458.42
  L 91.39 458.23
  Q 91.58 458.05 91.32 457.98
  L 89.74 457.55
  Q 89.39 457.45 89.28 457.10
  Q 89.01 456.18 88.11 455.78
  Q 87.82 455.65 87.62 455.39
  Q 87.19 454.81 86.55 454.75
  Q 86.10 454.70 85.77 454.39
  Q 84.90 453.58 83.61 453.21
  Q 83.06 453.05 83.00 452.48
  Q 82.89 451.50 81.86 451.76
  Q 81.31 451.90 81.16 451.35
  L 80.91 450.36
  Q 80.79 449.93 80.34 449.92
  Q 78.96 449.92 78.50 448.62
  Q 78.48 448.56 78.53 448.51
  L 78.77 448.27
  A 0.14 0.13 -65.0 0 0 78.69 448.04
  L 78.19 448.00
  Q 77.72 447.97 77.36 447.65
  L 71.63 442.59
  Q 71.28 442.28 71.31 441.82
  Q 71.33 441.39 70.95 441.25
  Q 70.71 441.17 70.54 440.99
  Q 69.20 439.52 66.44 436.79
  Q 65.98 436.32 65.50 436.38
  Q 65.17 436.42 65.16 436.09
  Q 65.12 434.31 63.71 433.08
  Q 63.33 432.75 63.27 432.25
  Q 63.09 430.94 61.79 430.80
  Q 61.29 430.74 61.29 430.25
  Q 61.29 428.51 59.74 427.32
  Q 59.29 426.98 59.30 426.38
  Q 59.30 425.88 58.90 425.57
  Q 57.07 424.20 56.95 421.86
  Q 56.92 421.36 56.63 420.95
  C 54.35 417.63 55.00 415.34 55.00 411.53
  C 55.01 408.24 53.44 404.92 53.75 401.50
  Q 53.79 400.99 54.44 400.51
  A 0.51 0.50 -37.4 0 0 54.54 399.80
  Q 54.13 399.26 53.61 399.67
  Q 52.75 400.36 52.75 399.26
  L 52.75 398.71
  Q 52.75 398.20 53.20 397.96
  Q 53.97 397.54 54.07 396.21
  L 56.85 405.09
  C 67.34 429.61 87.48 449.58 113.22 457.03
  C 130.67 462.08 150.01 461.96 168.20 461.97
  Q 257.72 462.05 347.25 461.99
  C 374.83 461.98 401.81 460.98 424.56 444.10
  Q 449.46 425.62 457.99 396.06
  Z"
/>
</svg>
