<svg xmlns="http://www.w3.org/2000/svg" viewBox="0 0 708.371 168.654"><path fill="#0849ff" d="M61.89 53.539c0-9.901-4.95-16.091-13.615-16.091s-11.141 6.189-11.141 13.615c0 7.427 6.189 13.616 29.707 24.757s28.471 25.995 28.471 44.561-14.854 48.272-48.275 48.272S0 147.611 0 116.665h29.707c0 12.379 6.189 18.568 16.092 18.568 9.901 0 13.616-7.426 13.616-13.615 0-6.188.993-9.405-34.658-27.233C2.476 83.246 1.238 58.489 1.238 51.062c0-7.426 3.714-30.943 23.519-42.084C44.56-2.163 73.03 5.264 84.17 20.118c11.142 14.853 7.427 33.419 7.427 33.419-12.379.002-29.707.002-29.707.002zM329.256 5.264H293.36v89.121L235.183 4.026h-35.896V98.1L138.634 5.264H101.5l1.239 163.389h40.846v-24.754h35.896l14.853 23.518h45.799V88.196l51.988 80.458h40.846V88.196l51.988 79.221h48.275L329.256 5.264zM143.585 111.715V88.196l16.091 23.518h-16.091v.001zm297.073 54.463L337.921 5.264h206.713l-48.275 76.744s-12.379-7.426-28.471 17.33c-16.091 24.757-8.664 34.658-7.427 38.372-4.949 8.664-19.803 28.468-19.803 28.468z"/><path fill="#c60000" d="M688.571 78.013c-5.156 2.682-12.791 1.032-14.234-7.426 17.946-11.966 22.691-18.774 24.343-28.263 1.649-9.489-6.81-9.903-15.473-4.539s-20.422 19.185-20.836 36.72c-5.569 8.046-11.346 17.33-20.422 16.917 10.313-19.187 12.377-28.468 10.933-35.276-1.443-6.808-8.87-6.808-25.786 18.566 1.649-15.265 8.043-28.88 9.282-32.594 1.236-3.714 1.443-6.808-2.479-5.777-3.916 1.032-9.075 10.314-15.881 27.23-6.808 16.916-17.743 31.974-21.041 35.895-3.301 3.92-8.873 5.569-8.46-4.747.414-10.314 7.015-18.565 8.46-23.102 1.444-4.539-1.033-12.172-3.921-10.315s-12.172 19.598-16.71 27.436c-4.537 7.84-10.108 15.059-12.171 17.122-2.062 2.062-6.191 1.444-4.539-4.95 1.651-6.396 5.982-12.996 8.046-16.297 2.063-3.301 6.396-10.108 1.857-11.964-4.539-1.857-15.473 3.92-19.184 29.087-3.095 6.394-7.016 10.522-11.76 12.171 1.857-9.078 4.125-31.355-4.744-27.024 1.444-4.95-1.034-7.219-5.778-6.394-4.745.825-24.342 11.966-25.581 36.925-4.333 7.633-15.265 17.33-21.042 17.33-5.775 0-9.076-5.159-8.664-10.727.413-5.57 7.632-13.204 11.139-14.853 1.239 3.095 3.3 2.888 4.539 2.888 1.238 0 5.156-4.539 6.6-11.553s.62-10.52-2.887-11.76c-3.506-1.236-13.202 4.95-18.979 13.204-5.777 8.251-15.679 24.34-3.095 38.574 12.585 14.235 25.167-1.236 34.244-18.152 2.474 9.281 9.489 13.201 14.645 13.201 5.158 0 13.41-6.396 16.71-13.82 4.951.205 11.964-6.191 15.059-12.172-.206 6.6 8.046 12.79 12.999 11.76 4.95-1.034 11.346-13.411 15.265-21.867 0 10.934-.62 19.185 7.221 18.979 7.838-.208 20.009-22.486 33.418-47.036-6.189 29.912-10.727 40.434-11.76 49.097-1.032 8.664.825 21.455 4.536 21.455 3.715 0 7.017-18.36 8.047-34.657 7.838-2.269 9.49-2.887 10.933-2.887 1.447 0 6.808 2.271 14.851-3.507 8.047-5.777 12.79-13.202 18.568-20.836 4.332 10.522 11.758 14.234 23.929 7.427 12.171-6.808 18.566-25.787 19.598-30.531-7.002 11.14-14.638 18.36-19.795 21.042zm-160.492 37.752c-.411 8.045-5.983 10.314-8.457 10.314-2.474 0-7.013-.411-7.013-8.252 0-7.837 7.013-17.121 14.439-24.342 2.888-2.681-.208 4.332-1.032 12.171-.827 7.841.411 11.14 2.063 10.109zm97.575-22.898c2.269-11.964 11.138-25.167 15.472-25.167 4.33 0-1.239 13.615-3.714 18.566-2.475 4.951-6.601 5.365-11.758 6.601zm61.268-49.716c3.918-3.301 5.569 1.444 1.649 7.014-3.917 5.569-12.585 13.615-14.853 14.44 1.034-10.932 9.283-18.153 13.204-21.454z"/><path fill="#c60000" d="M673.512 32.424c.206-5.158 2.887-12.171 7.633-17.74C685.89 9.112 694.14.449 697.234.036c3.096-.413 4.54 2.682 4.54 7.633 0 4.95 0 6.6-3.509 9.282-3.507 2.682-15.059 10.933-16.914 12.79-1.857 1.858-8.045 8.252-7.839 2.683z"/></svg>