<svg xmlns="http://www.w3.org/2000/svg" viewBox="0 0 490 101.5"><path d="m87.4 71.2-7-12.7c-.1-1.2.3-1.8 1.1-1.8 2.8 2.1 5.1 3.8 6.9 5.2 1.8 1.4 4 2.6 6.5 3.8 2.5 1.2 5 1.8 7.5 1.7 2.5 0 4.7-.8 6.8-2.3 1.9-1.9 2.1-3.8.7-5.6-1.5-1.8-3.9-3.7-7.2-5.5-3.3-1.8-6.9-4-10.6-6.7-3.8-2.7-6.1-4.8-6.9-6.2-.9-1.5-1.2-3.4-1-5.8.2-2.4 2.2-4.7 5.9-6.9 2-1 4.3-1.7 6.9-2 2.6-.3 5.1-.5 7.7-.5 2.6 0 5.1.1 7.7.4l12.7 1.2c.7.1 1.3.4 1.7 1l2.3 10.2c.1.8-.2.8-.9 0-2.4-2.8-5.2-4.7-8.2-5.7-3.1-1-6.1-1.8-9.2-2.5-3.1-.6-6.3-.8-9.8-.4-1.3.4-2.1 1.3-2.6 2.5-.4 1.2 0 2.6 1.4 4.2 1.4 1.5 3.9 3.1 7.6 4.6 3.7 1.5 7 3.5 10.1 5.9 3.1 2.4 5.2 4.8 6.3 7.1 1.1 2.3 1.5 4.8 1 7.5-.5 2.6-1.2 4.4-2 5.2-.8.8-2.2 1.8-4.2 2.9-2 1.1-4.6 1.8-7.8 2.2-5.5 0-8.8-.1-9.9-.4-1.1-.3-3.1-.4-6.1-.3-2.9.1-4.8.3-5.6.6s-1.3-.2-1.8-.9z"/><path d="M127.6 36.7c0-4.1-1.2-6.5-3.6-7.2-.6-.3-1-.7-1-1.1s.5-.7 1.5-1H164c1 0 1.7.3 2 .9 2.4 3.5 3.9 7.9 4.5 13.3 0 .8-.3.8-1 0-2-2.3-3.6-4-4.8-5.2-1.1-1.2-3-2.4-5.6-3.6-2.6-1.2-6-2-10.1-2.3h-3c-4.1 0-6.1 1.5-6.1 4.6v11.5c.5.5 1.1.8 1.9.9.8.1 2.5-.4 5.1-1.3 2.6-1 5.4-2.8 8.3-5.5 1 0 1.5.5 1.5 1.5v13.4c0 1-.5 1.5-1.5 1.5-2.9-2.7-5.7-4.5-8.3-5.5-2.6-1-4.3-1.4-5.1-1.3-.8.1-1.4.4-1.9.9v13c0 2.7 2 4 6.1 4h3.1c4.1-.3 7.5-1.1 10.1-2.5s4.5-2.6 5.6-3.8c1.1-1.2 2.9-2.8 5.4-4.9.6-.7 1-.6 1 .2-.6 5.3-2.3 9.9-5.1 13.8-.3.6-1 .9-2 .9h-39.4c-1-.3-1.5-.6-1.5-1s.3-.7 1-1.1c2.4-.7 3.6-1.6 3.6-2.6V36.7z"/><path d="M162.1 50.5c0-6.3 2.5-11.7 7.6-16.4 5.1-4.6 11.7-7 20-7 3.8.5 5.9.8 6.4 1 .5.1 1.4.2 2.6.2 1.3 0 2.8-.5 4.5-1.5 1.2-.3 2-.1 2.4.6 2.3 4.5 3.3 8.8 3.1 12.9-.5.6-1.1.4-1.6-.6-3.6-4.5-6.6-7.1-8.9-7.9-2.3-.8-5.1-1.2-8.4-1.2-4.4.3-7.5 2-9.4 5.2-1.9 3.2-2.8 8.1-2.8 14.7 0 5.5.9 10.2 2.8 14.1 1.9 3.9 5 5.8 9.4 5.8 3.3-.6 5.5-1.7 6.5-3.2 1-1.5 1.6-3.3 1.9-5.3.2-2-.4-3.7-1.8-5.1-1.4-1.4-3-2.2-4.9-2.4-1.1-1.1-1.1-1.8.2-2.3h18c1 0 1.5.3 1.5.8s-.4 1-1.3 1.5c-1.4 7.3-3.8 12.4-7.2 15.4-3.4 3-7.7 4.4-12.9 4.1-7.6 0-13.9-2.3-19.2-6.9-5.3-4.7-8.1-10.2-8.5-16.5z"/><path d="M198 72c-.9-.8-1-1.4-.4-1.8 1.7-.8 3.1-2 4.2-3.7L223.3 26c.4-.4.9-.7 1.4-.7.5 0 1.1.2 1.6.7l17.9 39.9c.6 1.5 2.1 2.9 4.3 4.2 1.3.4 1.5 1 .5 1.9h-15.1c-1.4-.8-1.1-1.5.8-2.1 1.4-.6 2.3-1.2 2.8-1.8.4-.6.5-1.5.2-2.6l-9.9-22.2L215.5 66l-.1 1c-.4.8.4 1.8 2.5 3.1 1.1.5 1.3 1.1.4 1.9H198z"/><linearGradient id="a" x1="-51.125" x2="-50.125" y1="460.011" y2="460.011" gradientTransform="matrix(0 -101.4695 -101.4695 0 46930.332 -5086.16)" gradientUnits="userSpaceOnUse"><stop offset="0"/><stop offset=".315"/><stop offset=".407" stop-color="#0e0301"/><stop offset=".522" stop-color="#1a0502"/><stop offset=".562" stop-color="#410c05"/><stop offset=".612" stop-color="#6b1408"/><stop offset=".665" stop-color="#901a0a"/><stop offset=".72" stop-color="#ae200c"/><stop offset=".778" stop-color="#c5240e"/><stop offset=".84" stop-color="#d5270f"/><stop offset=".909" stop-color="#df2810"/><stop offset="1" stop-color="#e22910"/></linearGradient><path fill="url(#a)" d="M239.9 35.2c-1-6.1-1-11.2 0-15.3.8-4.1 3.3-8.2 7.8-12.2 4.4-4.1 9.9-6.6 16.6-7.7.9 0 1.3.4 1.1 1.3-5 3.2-8.5 6.8-10.5 10.9-2 4.1-2.6 8.7-1.5 13.8l1.5 6.1 9.2 24.5c5 10.5 4.5 20.7-1.5 30.6-4.9 6.2-11.7 10.9-20.3 14.2-1.1.1-1.7-.3-1.5-1.1 7.9-7.9 12.1-14.6 12.6-20 .5-5.5-1.5-13.3-6.1-23.6l-7.4-21.5z"/><path d="M263 72c-.9-.8-1-1.4-.4-1.8 1.7-.8 3.1-2 4.2-3.7L288.3 26c.4-.4.9-.7 1.4-.7.5 0 1.1.2 1.6.7l17.9 39.9c.6 1.5 2.1 2.9 4.3 4.2 1.3.4 1.5 1 .5 1.9h-15c-1.4-.8-1.1-1.5.8-2.1 1.4-.6 2.3-1.2 2.8-1.8.4-.6.5-1.5.2-2.6l-9.9-22.2L280.6 66l-.1 1c-.4.8.4 1.8 2.5 3.1 1.1.5 1.3 1.1.4 1.9H263z"/><path d="M314 70.1c3.1-1 4.6-2.6 4.6-4.6V30.6h-3.1c-6.1.7-10.7 1.9-13.8 3.6-1.9 1-2.9 1.1-3.1.2l3.9-5.9c.4-.6 1.2-1 2.2-1H346c1 0 1.8.3 2.2 1l3.9 5.9c-.1.9-1.1.8-3.1-.2-3.1-1.7-7.7-2.9-13.8-3.6h-3.1v34.8c0 2 1.5 3.6 4.6 4.6 1.1.4 1.1 1 0 1.9h-23c-.9-.8-.9-1.5.3-1.8z"/><path d="M348.2 58.2V33.7c0-2-1.5-3.3-4.6-3.8-1.1-.6-1.1-1.4 0-2.3h22.2c1.1.9 1.1 1.7 0 2.3-3.1.5-4.6 1.8-4.6 3.8v24.5c.1 2.9 1.2 5.4 3.3 7.3 2.1 1.9 4.6 2.9 7.6 2.9 2.9 0 5.4-1 7.4-2.9s3.1-5.6 3.1-11V33.7c0-2-1.5-3.3-4.6-3.8-1-.6-1-1.4 0-2.3h16c.9.6 1 1.4.4 2.5-4.2.4-6.3 1.6-6.3 3.6v25.9c.1 3.1-1.5 6.1-5 9s-8.1 4.5-14 4.5c-6.5-.1-11.6-1.6-15.2-4.4-3.7-2.8-5.6-6.3-5.7-10.5z"/><path d="M394.1 69.7c3.1-.8 4.6-2.2 4.6-4.2V35.2c0-3.1-1.7-4.8-5.2-5.2-1.1-.8-1.1-1.6-.2-2.5h29.9c6.1 0 10.4 1.2 12.9 3.6 2.5 2.4 3.8 5.3 3.8 8.6 0 3.4-1.2 6.2-3.6 8.6-2.4 2.3-5.5 3.4-9.2 3.1.3.4.6.8 1.1 1.1.5.3 1.6 1.8 3.3 4.4 3.2 5.9 7.9 10.5 14.1 13.9l2.2.9c.5.5.8 1 .8 1.5s-.5 1-1.5 1.4h-2c-7-.8-12.3-2.1-16.2-4.1s-7-5.1-9.4-9.4c-2-3.1-3.4-6.9-4.2-11.4-.4-2.2 0-2.8 1.2-2l2.2.4c1.9.4 3.8-.3 5.6-2 1.8-1.7 2.8-3.9 2.8-6.4 0-3.4-.8-5.9-2.5-7.4-1.7-1.6-3.6-2.3-5.9-2.3-1.9-.2-3.7.1-5.1 1.1-.7.7-1 1.6-1 2.5v31.8c0 2 1.5 3.4 4.6 4.2 1.1.4 1.1 1.1 0 2.3h-23c-1.3-1.1-1.3-1.8-.1-2.2z"/><path d="m484.4 73.5-32.2-26.2v21.6c0 2 1.4 3.4 4.2 4.2 1.1.4 1.1 1 0 1.9h-13.8c-1.1-.9-1.1-1.5 0-1.9 2.8-.8 4.2-2.2 4.2-4.2V41.3c-.6-2.4-1.4-4.5-2.3-6.3-1-1.8-2.1-3.2-3.3-4.3-1.2-1.1-1.9-1.9-2-2.5 0-.5.3-.8 1-.8 6.7.2 20.2 8.9 40.4 26.2V34.3c0-2-1.1-3.5-3.4-4.4-1-.5-1-1.1 0-1.7h12.1c1 .6 1 1.2 0 1.7-2.3.9-3.4 2.4-3.4 4.4v38.2c-.2.9-.6 1.3-1.5 1zM69.9 32.2c.1-.8-.1-1.5-.6-2.1-.5-.6-1.2-1-1.9-1.1-3.1-.3-6.5-.3-10.3-.1-3.6.2-7.3.7-11.3 1.4-3.8.7-7.6 1.6-11.5 2.6-3.8 1.1-7.5 2.3-10.9 3.6-3.6 1.4-6.8 2.8-9.7 4.3C10.5 42.5 8 44 6 45.6c-2.4 1.9-4 3.7-4.9 5.4-1.3 2.5-1.4 4.7-.3 6.8.7 2.1 2.7 3 6.2 3.2 2 .1 4.8 0 8.2-.7 2.8-.6 6.2-1.5 10.3-2.6 3-.9 6.8-2.1 11.4-3.7l11.4-3.7c4.2-1.4 7.6-2.4 10.2-3.2 3.2-1 5.8-1.5 7.7-1.8 1.3-.2 2.3-.2 2.7-.1 1.1.7 1.6 1.3 1.7 2.1-.4 1.2-1.6 2.5-3.5 4-2.3 1.7-5.5 3.5-9.4 5.3-3.8 1.7-8 3.3-12.7 4.9-3.6 1.2-7.3 2.2-11.1 3.1-3.7.9-7.2 1.5-10.5 2s-6.1.7-8.5.8c-2.1 0-3.7-.1-4.8-.5-.7-.3-1.4-.2-2.1.1-.8.3-1.2.9-1.5 1.6-.3.8-.2 1.5.1 2.2.3.7.9 1.2 1.6 1.5 1.5.6 3.8.9 6.9.9 2.6 0 5.7-.3 9.3-.8 3.5-.5 7.1-1.2 10.9-2.1 3.9-1 7.8-2 11.5-3.2 4.9-1.5 9.4-3.3 13.3-5.1 4.3-2 7.8-4 10.5-6 3.4-2.6 5.3-5 5.6-7.4.9-3.2-.5-5.9-4.2-8.2-1.2-.9-3.3-1.2-6.6-.7-2.1.3-4.9 1-8.5 2-2.7.8-6.1 1.8-10.5 3.3L35 48.7c-4.6 1.5-8.3 2.7-11.2 3.6-3.9 1.2-7.1 2-9.8 2.5-2.8.6-5 .8-6.7.7H6c-.1-.5-.1-1.1.2-1.6.6-1.1 1.7-2.3 3.4-3.6 1.8-1.4 4-2.8 6.7-4.1 2.7-1.4 5.7-2.7 9.1-4 3.3-1.2 6.8-2.4 10.5-3.4 3.7-1.1 7.3-1.9 11-2.5 3.7-.7 7.3-1.2 10.6-1.3 3.5-.3 6.6-.2 9.3 0 .8.1 1.5-.1 2.1-.6.5-.8.9-1.4 1-2.2z"/><radialGradient id="b" cx="-51.125" cy="460.011" r="1" gradientTransform="matrix(22.1781 0 0 -22.1781 1176.283 10242.426)" gradientUnits="userSpaceOnUse"><stop offset="0" stop-color="#fff"/><stop offset=".04" stop-color="#fff"/><stop offset=".074" stop-color="#fff"/><stop offset=".279" stop-color="#fff"/><stop offset=".339" stop-color="#fafbfe"/><stop offset=".411" stop-color="#ebf0fb"/><stop offset=".492" stop-color="#d2ddf6"/><stop offset=".577" stop-color="#afc3ee"/><stop offset=".666" stop-color="#82a2e5"/><stop offset=".702" stop-color="#6e93e1"/><stop offset=".82" stop-color="#3f72c3"/><stop offset=".939" stop-color="#1654a9"/><stop offset="1" stop-color="#06499f"/></radialGradient><path fill="url(#b)" d="M13.9 50.7c0-13.5 11-24.5 24.5-24.5s24.5 11 24.5 24.5-11 24.5-24.5 24.5-24.5-10.9-24.5-24.5z"/><path d="M13.8 54.8c-.3.1-7.7 1.7-8.9.4-.4-.4.8.6 1.9 2.1.1.2.1.5-.1.9 0 .1-.1.1-.2.2l-.1.3c0 .1-.1.3-.1.4-.1.4-.3.8-.4 1 0 .1.1.2.1.3v.2l-.2.2v.1c.1 0 .5.1.5.1.1 0 .7.1 1.7.1.9 0 2.1 0 3.1-.1.6-.1 1.3-.2 1.9-.2.8-.1 1.5-.2 2.1-.3.5-.1.7 0 .8 0 2.7-.6 5.8-1.4 9.6-2.5 3-.9 6.8-2.1 11.4-3.7l11.4-3.7c2.3-.8 4.4-1.4 6.2-2 1.5-.5 2.8-.8 4-1.2 1.5-.4 2.8-.8 4-1.1 1.4-.3 2.7-.6 3.7-.7 1.3-.2 2.3-.2 2.7-.1.4.3 2.2.1 3.1 1.4 1.4 2.2 2.1 6.1 2.7 5.3.8-1.1 1.3-2.3 1.5-3.4.9-3.2-.5-5.7-4.2-8.1-1.2-.9-3.3-1.2-6.6-.7-1.3.2-2.8.5-4.6 1-1.2.3-2.4.5-3.8.9-1.3.4-2.9.8-4.6 1.4-1.8.5-3.7 1.2-5.9 1.9L35 48.7c-3.2 1.1-6 2-8.4 2.7l-12.8 3.4z"/></svg>