<svg xmlns="http://www.w3.org/2000/svg" xml:space="preserve" width="566.931" height="154.093" viewBox="-0.003 -0.001 566.931 154.093"><linearGradient id="a" x1="439.683" x2="439.683" y1="979.901" y2="1115.395" gradientTransform="translate(49.71 -968.872)" gradientUnits="userSpaceOnUse"><stop offset="0" style="stop-color:#ecefeb"/><stop offset=".175" style="stop-color:#eaece9"/><stop offset=".28" style="stop-color:#e1e4e0"/><stop offset=".366" style="stop-color:#d3d6d3"/><stop offset=".443" style="stop-color:#c0c1bf"/><stop offset=".513" style="stop-color:#a6a7a6"/><stop offset=".577" style="stop-color:#878787"/><stop offset=".6" style="stop-color:#7a7a7a"/><stop offset="1" style="stop-color:#343732"/></linearGradient><path fill="url(#a)" d="m436.783 14.144-17.318 116.254c-.141.942.103 1.867.683 2.603s1.423 1.187 2.37 1.271l16.047 1.399c1.91.168 3.686-1.244 3.947-3.146 0 0 8.807-63.336 9.371-67.417 1.156 3.975 20.719 71.149 20.719 71.149.504 1.722 2.293 3.222 4.078 3.41l10.701 1.14c1.773.188 3.861-.875 4.752-2.418 0 0 34.193-59.302 36.105-62.614l-5.582 64.872c-.01.104-.016.205-.016.31a3.6 3.6 0 0 0 3.209 3.56l19.23 1.987a3.48 3.48 0 0 0 2.586-.778 3.467 3.467 0 0 0 1.258-2.388l10.424-116.891a3.507 3.507 0 0 0-.813-2.578 3.504 3.504 0 0 0-2.396-1.25l-18.051-1.57c-1.777-.155-3.842.951-4.699 2.516l-44.734 81.701-.008.01-.004-.01-23.939-88.783c-.469-1.743-2.244-3.25-4.041-3.431l-19.895-2.003c-1.918-.195-3.701 1.194-3.984 3.095z"/><path d="M564.333 19a11.032 11.032 0 0 0-7.543-3.929l-18.049-1.569c-4.77-.415-9.699 2.227-11.996 6.423 0 0-24.188 44.166-35.697 65.188l-19.039-70.604c-1.293-4.797-5.645-8.496-10.594-8.993l-19.896-2.003a11.213 11.213 0 0 0-12.229 9.516l-17.317 116.256a10.997 10.997 0 0 0 2.228 8.406 11.017 11.017 0 0 0 7.658 4.121l16.043 1.4c5.963.521 11.277-3.717 12.104-9.646 0 0 2.26-16.262 4.5-32.362l10.822 37.168c1.363 4.68 5.699 8.31 10.545 8.821l10.703 1.142c4.746.504 9.725-2.028 12.107-6.164l19.084-33.092-2.66 30.918c-.027.317-.041.637-.041.949 0 5.629 4.309 10.506 10.002 11.094l19.229 1.992c2.971.307 5.875-.57 8.18-2.472a10.96 10.96 0 0 0 3.984-7.56l10.422-116.889a10.996 10.996 0 0 0-2.55-8.111zm-30.062 5.044c.666-1.218 2.344-2.116 3.729-1.996l5.943.517-6.096 18.277h-12.773l9.197-16.798zm-93.607-11.995 19.895 2.003c1.383.139 2.811 1.349 3.168 2.69l5.494 20.373H445.594l-.168.527-2.979 9.373h-9.541l4.877-32.722c.203-1.373 1.5-2.382 2.881-2.244zm-9.561 90.799 3.496 1.902.17.092H445.337l-1.459 10.486-20.783-2.473 1.498-10.049 6.51.042zm7.547 31.819-16.047-1.401a2.352 2.352 0 0 1-2.143-2.716l2.412-16.196 20.797 2.476-2.162 15.56c-.187 1.37-1.474 2.396-2.857 2.277zm13.586-71.948c-.391-1.333-.861-1.297-1.055.076l-5.635 40.534h-10.395l-3.494-1.899-.166-.093-.191-.002-6.479-.041 7.855-52.764h10.871l.168-.528 2.98-9.372h22.928l11.049 40.976H469.138V107.997h-3.723l-13.179-45.278zm92.945 82.778-9.295-.961.938-13.306 4.813-.633.4-.054.18-.36 1.225-2.479h5.861l-1.385 15.541a2.494 2.494 0 0 1-2.737 2.252zm4.256-19.309h-6.942l-.209.42-1.252 2.541-5.023.662-.609.08-.047.617-.975 13.869-8.428-.871a2.588 2.588 0 0 1-2.293-2.775l3.408-39.619h11.182l.002-.756.064-24.132 4.314-15.606 12.646.051-5.838 65.519zm5.977-67.033-13.355-.054-.574-.002-.152.557-4.5 16.264-.027.098v.102l-.066 23.48h-9.541l2.217-25.75c.117-1.383-.355-1.531-1.045-.329l-37.113 64.363c-.691 1.203-2.391 2.064-3.77 1.918l-10.701-1.139c-1.381-.146-2.828-1.356-3.215-2.688l-7.709-26.466h4.799V81.118h10.426l6.58 24.403c.361 1.338 1.203 1.439 1.869.224l34.709-63.387h14.693l.176-.518 6.379-19.139 10.557.918a2.524 2.524 0 0 1 2.289 2.733l-2.926 32.803z"/><linearGradient id="b" x1="324.536" x2="324.536" y1="976.892" y2="1105.977" gradientTransform="translate(49.71 -968.872)" gradientUnits="userSpaceOnUse"><stop offset="0" style="stop-color:#ecefeb"/><stop offset=".175" style="stop-color:#eaece9"/><stop offset=".28" style="stop-color:#e1e4e0"/><stop offset=".366" style="stop-color:#d3d6d3"/><stop offset=".443" style="stop-color:#c0c1bf"/><stop offset=".513" style="stop-color:#a6a7a6"/><stop offset=".577" style="stop-color:#878787"/><stop offset=".6" style="stop-color:#7a7a7a"/><stop offset="1" style="stop-color:#343732"/></linearGradient><path fill="url(#b)" d="m421.875 8.088-18.472 3.722c-1.782.359-3.37 2.05-3.618 3.85L389.35 91.455 351.684 24.44c-.896-1.594-3-2.553-4.791-2.183l-21.271 4.396c-.975.2-1.732.776-2.088 1.579-.354.802-.27 1.752.238 2.605l61.738 104.019c.928 1.561 3.045 2.518 4.822 2.182L401.108 135c1.776-.336 3.404-1.996 3.707-3.781l20.308-119.985c.168-.984-.096-1.897-.723-2.504-.625-.605-1.547-.837-2.525-.642z"/><path d="M430.519 2.419a8.576 8.576 0 0 0-7.668-2.251l-23.417 4.719a8.584 8.584 0 0 0-6.808 7.241l-7.705 55.993-27.871-49.589a8.581 8.581 0 0 0-9.217-4.198l-26.215 5.418a8.575 8.575 0 0 0-6.115 4.938 8.587 8.587 0 0 0 .472 7.844l64.317 108.356a8.576 8.576 0 0 0 8.972 4.051l15.729-2.971a8.58 8.58 0 0 0 6.866-7l21.148-124.96a8.58 8.58 0 0 0-2.488-7.591zm-29.734 13.379c.188-1.375 1.457-2.724 2.815-2.999l7.015-1.413v5.358l-1.759 1.556-.256.226V22.772l-1.806 1.93-.205.219v12.148l-2.353 1.972h-6.653l3.202-23.243zM341.53 46.599h.759V36.522h7.148l.228-.311L351 34.384h5.119l22.877 40.706-18.58 15.5L334.3 46.6l7.23-.001zm-15.702-18.954 21.271-4.396c1.355-.281 3.025.48 3.707 1.689l4.459 7.934h-5.035l-.229.31-1.338 1.828h-7.895v10.077H333.4l-8.762-14.76c-.704-1.196-.172-2.403 1.19-2.682zm77.993 103.408c-.229 1.369-1.536 2.701-2.899 2.957l-10.771 2.035c-1.362.258-3.062-.508-3.771-1.701l-7.616-12.834 15.272-5.639.494-.182v-7.375l3.793-2.902 5.36.043.267.002.209-.164 4.637-3.643-4.975 29.403zm2.262-64.336 1.992-1.949.228-.223v-3.9h7.434l-3.547 20.953h-6.147l.04-14.881zm18.043-55.649-8.135 48.063h-9.205v4.779l-1.99 1.947-.226.223-.002.317-.049 15.958-.002.76h7.412l-2.763 16.316-5.737 4.506-5.357-.043-.26-.002-.205.157-4.297 3.291-.297.226v7.067l-15.039 5.553-16.783-28.273 18.554-15.48 8.959 15.937c.68 1.209 1.392 1.074 1.58-.301l7.09-51.511h7.414l.212-.178 2.834-2.376.271-.226V25.521l1.809-1.931.205-.218v-4.163l1.756-1.557.254-.225v-6.344l9.945-2.003c1.359-.275 2.285.621 2.052 1.988z"/><path d="M353.483 66.369c15.177 6.063 19.17 25.939 16.729 48.469-1.06 9.77-1.271 22.031-10.825 23.375-3.25.457-6.921-.324-10.335-.738-3.063-.373-6.569-1.598-9.596-1.229-1.84.225-3.238 1.721-4.922 2.213-3.736 1.098-8.386.492-13.531.492-3.146 0-6.34.051-9.103-.492-1.666-.328-3.373-1.59-5.168-1.721-1.642-.123-3.303.783-5.166.982-5.01.533-11.729.695-16.979.246-1.88-.166-3.958-1.256-5.657-1.229-1.678.025-3.559 1.271-5.414 1.477-6.576.729-13.49-2.537-19.189-1.967-2.656.266-5.342 2.623-8.857 2.951-5.074.479-13.408.182-18.453-.736-1.891-.344-3.834-1.6-5.658-1.723-1.654-.113-3.541.811-5.412.984-4.783.445-10.76.486-15.748.246-1.436-.072-2.875-.574-4.184-.492-2.266.145-4.504 1.713-6.643 1.969-5.709.688-12.07.789-17.467.246-1.918-.195-3.865-1.209-5.906-1.229-2.764-.032-5.326 1.277-7.627 1.478-13.297 1.158-23.307-5.229-30.018-12.549-2.968 1.426-4.869 4.063-7.627 5.905-12.333 8.259-33.379 5.879-44.287-2.707-1.548-1.219-3.757-4.95-5.658-4.92-1.621.027-4.445 3.8-5.906 4.92-5.808 4.451-13.629 7.709-23.373 8.365-14.66.983-26.373-4.496-33.953-11.563-3.885-3.627-9.488-9.584-6.889-16.976 1.338-3.806 5.254-7.694 8.119-11.071 1.055-1.246 2.639-2.462 2.705-3.691.123-2.213-3.496-5.51-4.428-7.135-4.228-7.377-5.582-19.55-1.476-28.788 4.896-11.01 17.828-18.976 35.429-17.715 6.71.482 13.599 2.547 19.437 5.905 8.34 4.793 16.992 9.227 14.271 21.897 3.516-.753 5.535-3.256 8.611-4.674 10.691-4.936 27.801-4.587 37.643 1.723 1.234.793 3.127 2.69 4.184 2.705 1.957.025 4.361-3.92 6.15-4.675 4.008-1.69 16.895-1.782 22.637-1.229 2.285.222 4.627 1.82 6.395 1.723 1.928-.107 4.414-2.495 5.906-2.953 4.586-1.404 18.709-1.978 23.865-.492 1.695.487 3.506 2.48 5.414 2.707 1.813.215 4.176-.65 6.15-.738 3.664-.168 7.781-.418 11.318-.246 2.551.125 4.965 1.58 7.379 1.722 2.244.135 4.926-1.004 7.381-.983 1.967.016 4.229.486 6.15.983 1.83.474 3.66 1.733 5.168 1.724 2.246-.017 4.652-1.703 6.643-2.215 6.889-1.768 14.553-1.378 21.652 1.23 1.588.584 4.469 3.209 6.148 3.199 1.994-.012 4.344-3.476 6.152-4.184 5.037-1.963 12.468-1.707 18.451-1.477 2.697.104 5.115 1.594 7.629 1.722 2.229.114 4.617-.948 6.887-.983 2.152-.035 4.227.486 6.152.983 1.939.502 3.986 1.702 5.414 1.724 1.906.024 3.781-1.498 5.412-1.97 7.439-2.144 16.275-1.81 23.874 1.225z"/><path fill="#8ED703" d="M65.161 95.064c1.551 3.064 2.33 6.711 2.33 10.945 0 4.084-.854 7.619-2.558 10.605-1.705 2.985-3.921 5.44-6.649 7.37-2.727 1.929-5.816 3.363-9.263 4.312a39.276 39.276 0 0 1-10.399 1.416c-6.973 0-12.826-1.287-17.562-3.854s-8.998-6.463-12.786-11.681l8.075-10.193c.747-.942 2.017-.979 2.817-.086 0 0 .929 1.037 2.52 2.283a31.32 31.32 0 0 0 5.171 3.289c1.854.947 3.75 1.721 5.683 2.326s3.731.908 5.398.908c1.666 0 2.938-.304 3.807-.908.871-.604 1.309-1.738 1.309-3.402 0-1.436-.779-2.797-2.33-4.084-1.555-1.283-3.487-2.625-5.797-4.024-2.313-1.397-4.813-2.91-7.502-4.537a43.629 43.629 0 0 1-7.5-5.728 30.47 30.47 0 0 1-5.797-7.541c-1.553-2.836-2.33-6.105-2.33-9.811 0-3.629.682-6.805 2.045-9.526 1.363-2.723 3.201-5.008 5.513-6.862 2.31-1.851 4.981-3.25 8.013-4.197 3.029-.944 6.25-1.417 9.66-1.417 6.061 0 11.498 1.116 16.311 3.345 4.812 2.231 9.377 5.539 13.697 9.922l-6.539 10.073c-.654 1.009-1.936 1.191-2.846.402 0 0-1.643-1.42-3.46-2.595a48.72 48.72 0 0 0-5.341-3.004c-1.744-.832-3.374-1.455-4.889-1.872-1.517-.415-2.84-.624-3.978-.624-1.364 0-2.368.341-3.012 1.021-.646.681-.966 1.55-.966 2.608 0 1.36.775 2.628 2.33 3.8 1.551 1.172 3.504 2.381 5.853 3.629a259.463 259.463 0 0 1 7.56 4.195 41.53 41.53 0 0 1 7.559 5.613c2.346 2.197 4.297 4.824 5.853 7.884zm29.793-4.388c.866-.941 1.848-1.656 2.944-2.146 1.093-.487 2.168-.733 3.228-.733 3.17 0 5.528.791 7.076 2.373 1.547 1.582 2.248 3.197 2.248 3.197.477 1.1 1.818 1.762 2.981 1.473l13.737-3.428c-1.435-6.25-4.342-11.3-8.719-15.139-4.379-3.842-10.267-5.762-17.664-5.762-4.529 0-8.568.695-12.117 2.09s-6.529 3.389-8.944 5.989c-2.417 2.599-4.247 5.726-5.492 9.377-1.246 3.656-1.869 7.74-1.869 12.259 0 3.918.566 7.646 1.698 11.188s2.887 6.646 5.266 9.32c2.377 2.676 5.377 4.803 9.002 6.385 3.623 1.58 7.963 2.371 13.021 2.371a27.59 27.59 0 0 0 8.379-1.299 23.808 23.808 0 0 0 7.474-3.955c2.266-1.77 4.246-4.01 5.944-6.725 1.698-2.711 3.16-7.518 3.16-7.518a2.148 2.148 0 0 0-1.461-2.687l-13.304-3.807a7.619 7.619 0 0 1-1.473 3.277 13.56 13.56 0 0 1-2.548 2.541c-.944.719-1.907 1.284-2.888 1.698s-1.887.619-2.717.619c-2.944 0-5.342-1.129-7.19-3.389-1.851-2.261-2.774-5.233-2.774-8.929 0-1.954.283-3.649.85-5.084.566-1.425 1.282-2.612 2.152-3.556zm94.375 9.574c-.189-4.686-.379-9.461-.568-14.334-.189-4.873-.445-13.508-.445-13.508a2.213 2.213 0 0 0-2.25-2.137l-18.598.404c.229 3.627.436 6.763.625 9.407.189 2.645.342 5.176.455 7.592.113 2.416.189 4.91.229 7.477.035 2.57.057 5.593.057 9.066 0 2.645-.871 4.74-2.611 6.289-1.742 1.549-3.822 2.322-6.248 2.322-2.572 0-4.504-.775-5.791-2.322-1.289-1.549-1.93-3.418-1.93-5.609 0-3.92.18-7.598.566-11.442.379-3.774.756-7.25 1.137-10.427.455-3.625 1.229-8.268 1.229-8.268.197-1.186-.623-2.146-1.826-2.133l-19.391.203a288.049 288.049 0 0 0-1.363 11.333 241.745 241.745 0 0 0-.965 10.312c-.266 3.625-.396 6.873-.396 9.743 0 4.078.492 7.755 1.477 11.025.982 3.271 2.5 6.051 4.543 8.34s4.674 4.051 7.893 5.291c3.217 1.235 7.059 1.856 11.525 1.856 1.287 0 2.611-.17 3.975-.51a20.224 20.224 0 0 0 3.918-1.419 21.25 21.25 0 0 0 3.463-2.094c.477-.356 1.313-1.485 1.998-1.248.889.312.387 2.306.387 2.97 0 1.202.982 2.163 2.186 2.137l17.801-.399c-.152-5.554-.322-10.756-.512-15.61l-.57-14.307zm82.494-19.064c-1.736-2.672-4.115-4.762-7.133-6.27-3.02-1.506-6.945-2.26-11.775-2.26-3.625 0-6.738.791-9.344 2.373a26.33 26.33 0 0 0-2.025 1.354c-.586.435-1.154.898-1.684 1.399-.395.373-.738.944-1.311 1.045-.146.024-.299.062-.453.047-.523-.049-.668-.401-.938-.791-.754-1.094-1.732-2.015-2.818-2.772-1.889-1.316-4.266-1.977-7.133-1.977-1.436 0-2.795.226-4.078.678a14.069 14.069 0 0 0-3.453 1.751c-.861.604-1.604 1.334-2.426 1.984-.404.317-.564.756-1.131.721-.586-.038-.502-.784-.543-1.184-.049-.474-.1-.947-.148-1.421a193.38 193.38 0 0 1-.109-1.04c-.123-1.191-1.205-2.144-2.404-2.115l-16.279.399c.227 4.595.396 9 .51 13.22.114 4.219.188 8.491.227 12.821.037 4.332.037 8.908 0 13.729-.039 4.82-.053 13.75-.053 13.75a2.142 2.142 0 0 0 2.176 2.146l15.797-.27c1.197-.021 2.199-1.02 2.223-2.215l.637-31.037c0-1.055.264-2.127.791-3.221.527-1.093 1.771-1.64 3.736-1.64.906 0 1.623.338 2.152 1.019.525.678.961 1.582 1.303 2.711.34 1.129.564 2.428.678 3.897.113 1.467.17 2.994.17 4.576v9.604c0 2.483-.02 4.649-.057 6.493-.039 1.851-.096 3.58-.17 5.199-.076 1.62-.143 3.416-.143 3.416a2.148 2.148 0 0 0 2.096 2.228l18.543.401c-.152-1.129-.283-2.522-.395-4.181a110.07 110.07 0 0 1-.229-5.084c-.037-1.731-.074-3.389-.113-4.971s-.057-2.861-.057-3.843c0-7.229.303-12.612.908-16.155.604-3.539 2.188-5.311 4.756-5.311 1.584 0 2.811.66 3.68 1.979.865 1.318 1.303 3.521 1.303 6.609 0 2.938-.359 6.686-1.076 11.242-.719 4.558-2.971 14.427-2.971 14.427-.266 1.168.49 2.244 1.68 2.396l18.672 2.33c.83-4.67 1.529-9.188 2.096-13.56.566-4.366.85-8.625.85-12.769 0-4.442-.322-8.528-.963-12.258-.646-3.724-1.836-6.926-3.572-9.599zm89.059 9.604c-.644-3.729-1.83-6.931-3.563-9.604-1.737-2.672-4.116-4.762-7.137-6.27-3.021-1.506-6.942-2.26-11.774-2.26-3.623 0-6.736.791-9.343 2.373-.666.405-1.315.834-1.946 1.295-.593.434-1.162.896-1.697 1.396-.442.414-1.014 1.406-1.715 1.203-.5-.146-.938-.701-1.229-1.105-.718-.984-1.644-1.813-2.64-2.506-1.889-1.315-4.267-1.978-7.133-1.978-1.438 0-2.795.227-4.078.679-1.282.452-2.435 1.036-3.451 1.751-1.02.716-1.852 1.469-2.491 2.259-.104.127-.205.252-.317.369-.162.168-.416.396-.671.334-.288-.067-.459-.498-.522-.752-.116-.445-.127-.917-.172-1.374-.062-.592-.121-1.186-.185-1.777-.125-1.193-1.207-2.145-2.403-2.115l-16.277.399c.225 4.595.396 9.001.508 13.22.115 4.219.189 8.492.229 12.822.037 4.332.037 8.908 0 13.729-.039 4.82-.055 13.75-.055 13.75a2.142 2.142 0 0 0 2.178 2.146l15.799-.269a2.288 2.288 0 0 0 2.223-2.215l.635-31.037c0-1.055.266-2.127.793-3.221.527-1.092 1.773-1.639 3.736-1.639.906 0 1.623.338 2.15 1.018.525.678.963 1.582 1.303 2.711s.563 2.428.68 3.898c.113 1.469.17 2.994.17 4.574v9.604c0 2.483-.02 4.649-.057 6.495a211.833 211.833 0 0 1-.17 5.197c-.076 1.621-.146 3.416-.146 3.416a2.15 2.15 0 0 0 2.1 2.228h.033c.6.012 1.197.024 1.799.039 1.293.026 2.586.057 3.881.084 1.582.032 3.164.067 4.748.104 1.494.031 2.988.063 4.48.098.916.021 1.99.219 2.891.012.76-.176.592-.777.57-1.385-.025-.918-.193-1.814-.26-2.729a120.919 120.919 0 0 1-.229-5.084c-.037-1.731-.074-3.391-.111-4.971a163.055 163.055 0 0 1-.059-3.843c0-7.229.301-12.614.906-16.155s2.189-5.313 4.756-5.313c1.586 0 2.813.662 3.682 1.979.865 1.317 1.305 3.521 1.305 6.608 0 2.938-.357 6.687-1.078 11.242-.717 4.562-2.969 14.428-2.969 14.428-.268 1.168.486 2.246 1.68 2.396l1.521.19c2.555.32 5.104.636 7.656.955 1.619.203 3.242.373 4.863.563.984.113 1.957.332 2.938.443.607.066 1.377.375 1.867-.166.465-.52.438-1.469.545-2.109.166-.967.264-1.939.344-2.916.121-1.495.313-2.959.523-4.443.18-1.248.344-2.496.506-3.746.564-4.367.85-8.624.85-12.768-.006-4.443-.328-8.529-.97-12.257z"/></svg>