<svg xmlns="http://www.w3.org/2000/svg" xml:space="preserve" width="570" height="202.4" viewBox="-134 295.6 570 202.4"><path d="M103.1 394.7h39.8c16.3 0 29.5-13.2 29.5-29.5s-13.2-29.4-29.5-29.4h-10.4c-.8 0-1.5-.7-1.5-1.5 0-.9.7-1.6 1.5-1.6h39.7l.1-12.4h-39.8c-7.7 0-13.9 6.2-13.9 13.9 0 7.8 6.2 14.1 13.9 14.1h10.4c9.3 0 16.9 7.6 16.9 16.9 0 9.3-7.6 16.8-16.9 16.8h-39.8z" style="fill:#17569b" transform="translate(-109.038 .165)"/><path d="M103.1 379.1h39.8c7.8 0 14-6.3 14-14s-6.2-14-14-14h-10.4c-9.3 0-16.8-7.7-16.8-17s7.5-16.8 16.8-16.8h39.8l-.1-12.6h-39.7c-16.3 0-29.4 13.2-29.4 29.5s13.2 29.4 29.4 29.4h10.3c.8 0 1.5.7 1.5 1.5s-.7 1.5-1.5 1.5h-39.7zM203.2 382.1c-6.9 0-12.5-5.5-12.5-12.5v-40c0-6.7 5.6-12.3 12.5-12.3h42.5v-12.5h-42.5c-13.8 0-25 11.2-25 25v39.8c0 13.8 11.2 25 25 25h42.3v-12.5z" style="fill:#17569b" transform="translate(-109.038 .165)"/><path d="M193.8 329.8c0-5.2 4.2-9.6 9.5-9.6h42.5v12.5h-36.6c-2.9 0-2.9 2.9-2.9 2.9h30.6v12.5h-43zM203.2 379.1c-5.2 0-9.5-4.3-9.5-9.5v-18.4h43v12.5h-30.6c0 2.9 2.9 2.9 2.9 2.9h36.4V379ZM275.6 382.1c-6.9 0-12.6-5.6-12.6-12.5v-39.8c0-6.9 5.6-12.5 12.5-12.5h41.2v-12.5h-41.3c-13.8 0-25 11.2-25 25v39.8c0 13.8 11.3 25 25.1 25h41.2v-58.9h-35.4v12.5h22.9v33.9z" style="fill:#17569b" transform="translate(-109.038 .165)"/><path d="M265.9 369.6c0 5.2 4.3 9.6 9.6 9.6h25.7v-28h-19.9v12.6h7.4v2.9h-7.4c-1.6 0-2.9-1.4-2.9-2.9v-28s0-2.9 2.9-2.9h35.3v-12.5h-41.2c-5.2 0-9.6 4.3-9.6 9.6zM355.3 320.1c.6-1.6 2-2.8 3.8-2.8 1.8 0 3.3 1.1 3.8 2.8l19.9 59.2h-29.2v-13.9h9.8l-4.4-13.2-14.4 42.4h-14.7z" style="fill:#17569b" transform="translate(-109.038 .165)"/><path d="M387 382.1h-33.3v12.5h50.6l-26.3-78c-2.3-7.6-9.9-13.2-18.9-13.2-9 0-16.6 5.6-18.9 13.2l-26.6 78H327l25.7-75.9c1.1-2.5 3.5-4.3 6.5-4.3 2.9 0 5.3 1.7 6.4 4.3zM397 315.1c2.6 0 5.1-1 6.9-2.9 1.9-1.9 2.9-4.3 2.9-6.9 0-2.6-1-5.1-2.9-6.9-1.8-1.9-4.3-2.9-6.9-2.9-5.4 0-9.8 4.3-9.8 9.7 0 2.6 1.1 5.1 2.9 6.9 1.8 2.1 4.3 3 6.9 3zm-8.4-9.8c0-2.2.9-4.3 2.5-6 1.5-1.6 3.7-2.5 6-2.5 2.2 0 4.3.9 6 2.5 1.6 1.6 2.5 3.8 2.5 6 0 4.7-3.8 8.4-8.4 8.4-2.3 0-4.4-.8-6-2.5-1.7-1.4-2.6-3.6-2.6-5.9z" style="fill:#17569b" transform="translate(-109.038 .165)"/><path d="M394.5 306.2v4.7h-1.4V300h4c1.5 0 2.4 0 3.3.7.7.6 1.1 1.5 1.1 2.5 0 2.5-2 2.9-2.6 2.9l3 4.7h-1.7l-2.9-4.7zm0-1.2h2.9c.5 0 .9 0 1.3-.2 1.1-.2 1.4-1 1.4-1.7 0-.2-.1-1.1-.7-1.6s-1.3-.4-2.1-.4h-2.8z" style="fill:#17569b" transform="translate(-109.038 .165)"/><path d="M130.2-515.7H99.3v-3.5c1.1 0 2.6-.1 4.3-.3 1.8-.2 3-.5 3.6-.8 1-.6 1.8-1.3 2.2-2.1.5-.8.7-1.8.7-3v-50.8h-.7l-23.8 59.5h-2.5l-22.7-60.8h-.6v41.7c0 4 .3 7.1.8 9.2.5 2.1 1.3 3.6 2.3 4.5.7.7 2.2 1.4 4.5 2 2.3.6 3.7 1 4.4 1v3.5H43.6v-3.5c1.5-.1 3-.4 4.7-.7 1.6-.4 2.9-.9 3.8-1.6 1.2-.9 1.9-2.3 2.4-4.2.4-1.9.6-5.1.6-9.6V-571c0-2.1-.2-3.8-.7-5.1-.5-1.3-1.2-2.4-2.1-3.2-1-.9-2.3-1.5-3.7-2-1.5-.4-2.9-.7-4.4-.7v-3.5H68l20 52.4 17-43.9c.6-1.6 1.2-3.3 1.6-5 .4-1.8.7-2.9.7-3.5h22.8v3.5c-.9 0-2.1.2-3.5.4-1.4.3-2.5.5-3.1.7-1.1.4-1.9 1.1-2.3 2-.4.9-.6 1.9-.6 3v50.4c0 1.2.2 2.1.6 2.9.4.8 1.1 1.5 2.3 2.1.6.3 1.6.6 3.2.9 1.5.3 2.7.4 3.6.5z" style="fill:red" transform="translate(-176.108 992.035)"/><path d="M173.9-516.6c-1.5.6-2.9 1-4.1 1.4-1.2.3-2.5.5-4 .5-2.6 0-4.6-.6-6.1-1.8-1.5-1.2-2.5-2.9-2.9-5.2h-.3c-2.1 2.4-4.4 4.2-6.9 5.4-2.4 1.3-5.4 1.9-8.8 1.9-3.6 0-6.6-1.1-9-3.3-2.3-2.2-3.5-5.2-3.5-8.8 0-1.9.3-3.5.8-5s1.3-2.8 2.4-4c.8-1 1.9-1.9 3.3-2.6 1.3-.8 2.6-1.4 3.8-1.8 1.5-.6 4.5-1.6 9-3.1s7.6-2.7 9.1-3.5v-4.9c0-.4-.1-1.2-.3-2.5-.2-1.2-.6-2.4-1.2-3.4-.7-1.2-1.6-2.3-2.8-3.2-1.2-.9-2.9-1.4-5.1-1.4-1.5 0-2.9.3-4.2.8-1.3.5-2.2 1-2.7 1.6 0 .7.2 1.6.5 2.9.3 1.3.5 2.5.5 3.5 0 1.2-.5 2.2-1.6 3.2-1 1-2.5 1.4-4.3 1.4-1.6 0-2.8-.6-3.6-1.7-.8-1.2-1.2-2.5-1.2-3.9 0-1.5.5-3 1.6-4.3 1.1-1.4 2.5-2.6 4.2-3.7 1.5-.9 3.3-1.7 5.4-2.3 2.1-.6 4.2-1 6.2-1 2.8 0 5.2.2 7.2.6 2.1.4 3.9 1.2 5.6 2.4 1.7 1.2 2.9 2.9 3.8 4.9.9 2.1 1.3 4.8 1.3 8.1 0 4.7-.1 8.9-.1 12.5-.1 3.6-.1 7.6-.1 11.9 0 1.3.2 2.3.7 3.1.4.8 1.1 1.4 2 1.9.5.3 1.3.5 2.3.5 1.1 0 2.2.1 3.3.1zm-17.2-26c-2.8.8-5.2 1.6-7.3 2.4-2.1.8-4.1 1.8-5.9 3-1.6 1.1-2.9 2.4-3.9 4-.9 1.5-1.4 3.3-1.4 5.4 0 2.7.7 4.7 2.1 6 1.4 1.3 3.2 1.9 5.4 1.9 2.3 0 4.4-.6 6.2-1.7 1.8-1.1 3.3-2.5 4.5-4z" style="fill:red" transform="translate(-176.108 992.035)"/><path d="M200.3-539.5c1.3 1.2 2.4 2.5 3.1 4.1.7 1.5 1.1 3.4 1.1 5.7 0 4.5-1.7 8.2-5 11-3.4 2.9-7.7 4.3-13.1 4.3-2.8 0-5.4-.5-7.8-1.5-2.4-1-4.1-2-5.1-2.8l-1 3.2h-3.7l-.5-16.9h3.4c.3 1.3.8 2.8 1.7 4.5.9 1.7 1.9 3.2 3.1 4.6 1.3 1.4 2.8 2.7 4.6 3.6 1.8 1 3.8 1.5 6 1.5 3.2 0 5.6-.7 7.3-2.1 1.7-1.4 2.6-3.5 2.6-6.1 0-1.4-.3-2.6-.8-3.6s-1.3-1.9-2.4-2.6c-1.1-.8-2.4-1.4-4-2-1.6-.6-3.3-1.2-5.3-1.8-1.5-.5-3.3-1.1-5.1-1.9-1.9-.8-3.5-1.8-4.9-2.8-1.4-1.1-2.6-2.6-3.5-4.2-.9-1.7-1.4-3.6-1.4-5.9 0-4 1.5-7.3 4.4-10.1 3-2.8 6.9-4.1 11.9-4.1 1.9 0 3.8.2 5.8.7 2 .5 3.6 1.1 4.9 1.8l1.1-2.6h3.5l.7 15.6h-3.4c-.7-3.5-2.2-6.3-4.5-8.5s-5.1-3.3-8.4-3.3c-2.7 0-4.8.7-6.4 2-1.5 1.4-2.3 3-2.3 4.9 0 1.5.3 2.7.8 3.7s1.3 1.8 2.3 2.5c1 .7 2.2 1.3 3.7 1.8 1.5.6 3.3 1.2 5.5 1.9s4.2 1.5 6.1 2.4c2.2.8 3.8 1.9 5 3z" style="fill:red" transform="translate(-176.108 992.035)"/><path d="M231.3-517.9c-2.1.9-4.2 1.6-6.1 2.2-1.9.6-4.2.9-7 .9-4.1 0-6.9-1-8.6-3.1-1.7-2.1-2.5-5-2.5-8.7v-32.9h-8.8v-4.7h9v-15.1h9v15.1h13.9v4.7h-13.8v27.1c0 2 .1 3.7.2 5.1.1 1.4.5 2.6 1.1 3.6.5 1 1.3 1.7 2.4 2.2 1.1.5 2.5.7 4.2.7.8 0 2-.1 3.6-.2s2.7-.3 3.4-.6z" style="fill:red" transform="translate(-176.108 992.035)"/><path d="M268.9-527.2c-2 3.9-4.8 7-8.2 9.3-3.4 2.3-7.3 3.4-11.8 3.4-3.9 0-7.3-.7-10.3-2.1-2.9-1.4-5.4-3.3-7.3-5.6-1.9-2.4-3.3-5.1-4.3-8.3-.9-3.2-1.4-6.5-1.4-10 0-3.2.5-6.2 1.5-9.3 1-3 2.5-5.8 4.4-8.2 1.9-2.3 4.2-4.2 7-5.6 2.8-1.4 5.9-2.1 9.3-2.1 3.5 0 6.6.6 9.1 1.7s4.6 2.6 6.2 4.6c1.5 1.8 2.6 4 3.4 6.5.7 2.5 1.1 5.2 1.1 8.1v3.3h-32.2c0 3.2.3 6.1.9 8.7.6 2.6 1.6 4.9 2.9 6.8 1.3 1.9 3 3.4 5 4.5 2.1 1.1 4.5 1.6 7.4 1.6 2.9 0 5.4-.7 7.6-2 2.1-1.4 4.2-3.8 6.1-7.4zM258-545.7c0-1.8-.2-3.8-.5-5.9-.3-2.1-.8-3.9-1.5-5.3-.8-1.5-1.8-2.7-3.1-3.7-1.3-.9-3-1.4-5.1-1.4-3.4 0-6.3 1.4-8.6 4.3s-3.5 6.9-3.7 12z" style="fill:red" transform="translate(-176.108 992.035)"/><path d="M301.3-558c0 1.7-.4 3.2-1.2 4.5-.8 1.3-2.1 1.9-3.8 1.9-1.8 0-3.2-.5-4.2-1.4-1-.9-1.5-2-1.5-3.1 0-.7.1-1.4.2-2l.3-1.8c-1.5 0-3.4.6-5.4 1.9-2.1 1.3-3.8 3-5.3 5.3v28.3c0 1.2.2 2.1.7 2.8.4.7 1.1 1.3 2.1 1.6.8.3 1.9.6 3.2.7 1.3.2 2.4.3 3.4.3v3.3h-25.6v-3.3c.8-.1 1.5-.1 2.3-.2.8-.1 1.5-.2 2.1-.4.9-.3 1.6-.8 2-1.5.4-.7.7-1.7.7-2.9v-30c0-1-.2-2-.7-3-.5-1-1.1-1.8-2-2.4-.6-.4-1.4-.7-2.2-.9-.9-.2-1.8-.3-2.8-.4v-3.2l16.2-1.1.7.7v6.8h.2c2-2.7 4.3-4.7 6.8-6.1 2.5-1.4 4.8-2.1 6.8-2.1 2.1 0 3.8.7 5 2 1.3 1.6 2 3.4 2 5.7zM353.7-547.8c1.5 1.6 2.6 3.4 3.3 5.4.7 2 1.1 4.2 1.1 6.8 0 6.2-2.3 11.3-6.8 15.3-4.6 4-10.2 6-17 6-3.1 0-6.2-.5-9.4-1.5-3.1-1-5.8-2.1-8.1-3.5l-2.1 3.6h-3.9l-.7-23.9h4c.8 3 1.8 5.6 2.9 8 1.1 2.4 2.6 4.6 4.4 6.7 1.7 1.9 3.7 3.5 6 4.6 2.3 1.2 4.9 1.7 8 1.7 2.3 0 4.2-.3 5.9-.9 1.7-.6 3.1-1.4 4.1-2.5 1-1.1 1.8-2.4 2.3-3.8.5-1.5.8-3.1.8-5 0-2.8-.8-5.4-2.4-7.8-1.6-2.4-3.9-4.2-7-5.5-2.1-.9-4.6-1.8-7.3-2.8-2.8-1-5.1-2-7.1-2.9-3.9-1.8-7-4.1-9.2-7-2.2-2.9-3.3-6.6-3.3-11.3 0-2.7.5-5.1 1.6-7.4 1.1-2.3 2.6-4.4 4.6-6.2 1.9-1.7 4.2-3 6.7-4 2.6-1 5.3-1.5 8.1-1.5 3.2 0 6.1.5 8.6 1.5s4.9 2.1 7 3.4l2-3.3h3.9l.4 23.2h-4c-.7-2.7-1.5-5.2-2.4-7.6-.9-2.4-2.1-4.6-3.5-6.6-1.4-1.9-3.1-3.4-5.2-4.6-2-1.1-4.5-1.7-7.5-1.7-3.1 0-5.8 1-8 3s-3.3 4.5-3.3 7.3c0 3 .7 5.5 2.1 7.5 1.4 2 3.5 3.6 6.2 4.9 2.4 1.2 4.8 2.1 7.1 3 2.3.8 4.6 1.7 6.7 2.7 2 .9 3.9 1.8 5.7 2.9 1.8 1.1 3.4 2.4 4.7 3.8z" style="fill:red" transform="translate(-176.108 992.035)"/><path d="M351.4-499.9c0-1.6.4-3 1.4-4 .9-1 2-1.6 3.4-1.6 1 0 2 .2 2.7.6.8.4 1.4.9 2 1.5.5.5 1 1.2 1.6 2 .6.9 1 1.6 1.3 2.1 1.6-.9 3.6-3.2 5.9-6.9 2.3-3.7 3.9-7 4.9-9.9-3.1-7.8-5.9-14.7-8.5-20.9-2.5-6.1-5.2-12.5-7.9-19.1-.6-1.5-1.7-2.7-3.2-3.5-1.5-.8-3-1.4-4.4-1.6v-3.3h22.2v3.4c-1 0-2.2.2-3.5.6-1.4.4-2.1.8-2.1 1.3 0 .2.1.5.2 1s.3.9.5 1.4c1.2 3.3 3.1 7.9 5.7 14.1 2.6 6.1 4.5 11 6 14.7 1.5-3.5 3-7.1 4.6-10.9 1.6-3.8 3.4-8.2 5.3-13.3.2-.6.6-1.5 1-2.6s.6-2 .6-2.8c0-.9-.7-1.7-2.2-2.4-1.5-.7-2.9-1.2-4.3-1.4v-3.2h18v3.1c-1 .2-2.3.7-3.9 1.7s-2.8 2.3-3.6 4.1c-3.9 9.1-7.4 17.3-10.4 24.8s-5.3 12.9-6.9 16.4c-2.1 4.6-3.9 8.2-5.5 10.8-1.6 2.6-3.2 4.6-4.8 6.1-1.5 1.4-2.9 2.3-4.1 2.8-1.2.5-2.5.7-3.8.7-2.6 0-4.6-.6-6-1.8-1.5-1-2.2-2.4-2.2-4z" style="fill:red" transform="translate(-176.108 992.035)"/><path d="M426.3-539.5c1.3 1.2 2.4 2.5 3.1 4.1.7 1.5 1.1 3.4 1.1 5.7 0 4.5-1.7 8.2-5 11-3.4 2.9-7.7 4.3-13.1 4.3-2.8 0-5.4-.5-7.8-1.5-2.4-1-4.1-2-5.1-2.8l-1 3.2h-3.7l-.5-16.9h3.4c.3 1.3.8 2.8 1.7 4.5.9 1.7 1.9 3.2 3.1 4.6 1.3 1.4 2.8 2.7 4.6 3.6 1.8 1 3.8 1.5 6 1.5 3.1 0 5.6-.7 7.3-2.1 1.7-1.4 2.6-3.5 2.6-6.1 0-1.4-.3-2.6-.8-3.6s-1.3-1.9-2.4-2.6c-1.1-.8-2.4-1.4-4-2-1.6-.6-3.3-1.2-5.3-1.8-1.5-.5-3.3-1.1-5.1-1.9-1.9-.8-3.5-1.8-4.9-2.8-1.4-1.1-2.6-2.6-3.5-4.2-.9-1.7-1.4-3.6-1.4-5.9 0-4 1.5-7.3 4.4-10.1 3-2.8 6.9-4.1 11.9-4.1 1.9 0 3.9.2 5.8.7 2 .5 3.6 1.1 4.9 1.8l1.1-2.6h3.5l.7 15.6h-3.4c-.7-3.5-2.2-6.3-4.5-8.5s-5.1-3.3-8.4-3.3c-2.7 0-4.8.7-6.4 2-1.5 1.4-2.3 3-2.3 4.9 0 1.5.3 2.7.8 3.7s1.3 1.8 2.3 2.5c1 .7 2.2 1.3 3.7 1.8 1.5.6 3.3 1.2 5.5 1.9s4.2 1.5 6.1 2.4c2.2.8 3.7 1.9 5 3z" style="fill:red" transform="translate(-176.108 992.035)"/><path d="M457.3-517.9c-2.1.9-4.2 1.6-6.1 2.2-1.9.6-4.2.9-7 .9-4.1 0-6.9-1-8.6-3.1-1.7-2.1-2.5-5-2.5-8.7v-32.9h-8.8v-4.7h9v-15.1h9v15.1h13.9v4.7h-13.8v27.1c0 2 .1 3.7.2 5.1.1 1.4.5 2.6 1.1 3.6.5 1 1.3 1.7 2.4 2.2 1.1.5 2.5.7 4.2.7.8 0 2-.1 3.6-.2s2.7-.3 3.4-.6z" style="fill:red" transform="translate(-176.108 992.035)"/><path d="M494.8-527.2c-2 3.9-4.8 7-8.2 9.3-3.4 2.3-7.3 3.4-11.8 3.4-3.9 0-7.3-.7-10.3-2.1-2.9-1.4-5.4-3.3-7.3-5.6-1.9-2.4-3.3-5.1-4.3-8.3-.9-3.2-1.4-6.5-1.4-10 0-3.2.5-6.2 1.5-9.3 1-3 2.5-5.8 4.4-8.2 1.9-2.3 4.2-4.2 7-5.6 2.8-1.4 5.9-2.1 9.3-2.1 3.5 0 6.6.6 9.1 1.7s4.6 2.6 6.2 4.6c1.5 1.8 2.6 4 3.4 6.5.7 2.5 1.1 5.2 1.1 8.1v3.3h-32.2c0 3.2.3 6.1.9 8.7.6 2.6 1.6 4.9 2.9 6.8 1.3 1.9 3 3.4 5 4.5 2.1 1.1 4.5 1.6 7.4 1.6 2.9 0 5.4-.7 7.6-2 2.1-1.4 4.2-3.8 6.1-7.4zM484-545.7c0-1.8-.2-3.8-.5-5.9-.3-2.1-.8-3.9-1.5-5.3-.8-1.5-1.8-2.7-3.1-3.7-1.3-.9-3-1.4-5.1-1.4-3.4 0-6.3 1.4-8.6 4.3s-3.5 6.9-3.7 12z" style="fill:red" transform="translate(-176.108 992.035)"/><path d="M573.3-515.7h-23.7v-3.3c.8-.1 1.5-.1 2.3-.2.8-.1 1.4-.2 2-.4.9-.3 1.6-.8 2-1.6.4-.7.7-1.7.7-2.9v-25.1c0-3.4-.8-6-2.3-7.9-1.6-1.9-3.5-2.8-5.8-2.8-1.6 0-3.1.2-4.5.7-1.4.5-2.7 1.2-3.9 2.1-1 .7-1.8 1.5-2.4 2.3-.6.8-1.1 1.5-1.5 2.1v28c0 1.2.2 2.1.6 2.8.4.7 1.1 1.3 2 1.7.8.3 1.4.5 2 .7.6.1 1.4.3 2.4.3v3.3H520v-3.3c.8-.1 1.5-.1 2.2-.2.7-.1 1.4-.2 1.9-.4.9-.3 1.6-.8 2-1.5.4-.7.7-1.7.7-2.9v-25.1c0-3.4-.8-6-2.3-7.9-1.6-1.9-3.5-2.8-5.8-2.8-1.6 0-3.1.3-4.5.8s-2.7 1.2-3.9 2.1c-1 .7-1.8 1.5-2.4 2.4-.7.9-1.1 1.6-1.5 2v27.8c0 1.1.2 2.1.7 2.8.5.8 1.1 1.3 2.1 1.7.7.3 1.4.6 2.1.7.7.2 1.5.3 2.4.3v3.3h-23.6v-3.3c.8-.1 1.5-.1 2.3-.2.8-.1 1.5-.2 2.1-.4.9-.3 1.6-.8 2-1.6.4-.7.7-1.7.7-2.9v-30.2c0-1-.2-2-.7-2.8-.5-.8-1.1-1.6-2-2.1-.6-.4-1.4-.7-2.3-1-.9-.2-1.9-.4-2.9-.5v-3.2l16.3-1.1.7.7v6.9h.3c.8-.8 1.8-1.8 3-2.9 1.2-1.1 2.3-2 3.3-2.7 1.1-.8 2.6-1.4 4.3-2 1.7-.5 3.6-.8 5.6-.8 3.2 0 5.9.8 8.1 2.5 2.3 1.7 3.9 3.7 4.9 6.1 1.2-1.1 2.2-2.2 3.1-3 .9-.9 2.1-1.8 3.6-2.8 1.3-.9 2.7-1.5 4.4-2.1 1.7-.5 3.6-.8 5.6-.8 4.1 0 7.4 1.4 9.8 4 2.4 2.7 3.6 6.8 3.6 12.4v24.7c0 1.2.2 2.1.6 2.8.4.7 1.1 1.3 2 1.7.8.3 1.5.5 2.2.7.7.1 1.6.3 2.5.3z" style="fill:red" transform="translate(-176.108 992.035)"/><path d="M594.6 410.6h-6.3v-1c.2 0 .5 0 .8-.1.4 0 .6-.1.7-.1.2-.1.3-.2.4-.3.1-.1.1-.2.1-.4v-8.3h-.3l-4.5 9.7h-.5l-4.3-9.9h-.3v6.7c0 .6 0 1.1.1 1.5.1.3.2.6.4.8.2.1.4.2.8.3.4.1.7.2 1 .2v1h-5.8v-.9c.2 0 .5-.1.9-.1.4-.1.7-.1.9-.3.2-.2.3-.4.4-.7.1-.3.1-.8.1-1.6v-6.4c0-.3 0-.5-.1-.7-.1-.2-.2-.4-.4-.5-.2-.1-.4-.3-.7-.3-.3-.1-.6-.1-.9-.1V398h5.1l3.9 8.7 3.2-7.1.3-.9c.1-.3.1-.5.2-.7h4.9v.9c-.2 0-.5 0-.8.1-.3 0-.6.1-.7.1-.2 0-.3.1-.3.3 0 .1-.1.3-.1.4v8.9c0 .2 0 .3.1.4 0 .1.2.2.3.3.1 0 .3.1.6.1.3.1.6.1.9.1zm-19.8-9h-.9c-.1-.4-.4-.9-.7-1.5-.4-.6-.7-.9-1.1-1-.3 0-.5 0-.8-.1h-1.5v9.6c0 .2 0 .3.1.4.1.1.2.2.4.3.1 0 .3.1.7.2.3.1.6.1.9.1v1h-6.5v-1c.2 0 .5 0 .9-.1.4 0 .6-.1.7-.1.2-.1.3-.2.4-.3.1-.1.1-.3.1-.4V399h-2.3c-.4.1-.8.4-1.1 1-.4.6-.6 1.1-.7 1.5h-.9V398H575Z" style="fill:red" transform="matrix(1.02676 0 0 .97393 -176.108 39.672)"/></svg>