<svg xmlns="http://www.w3.org/2000/svg" xml:space="preserve" width="1013.984" height="200.222"><defs><clipPath id="a" clipPathUnits="userSpaceOnUse"><path d="M0 160.178h811.187V0H0v160.178Z"/></clipPath></defs><g clip-path="url(#a)" transform="matrix(1.25 0 0 -1.25 0 200.222)"><path d="M0 0c-.59-.288-2.376-1.771-2.997-2.089-2.377-.605-3.875-1.498-5.358-1.786-1.771-.318-3.891-.59-5.692-.59-2.982 0-5.358.893-7.175 2.089-2.104 1.18-2.104.605-3.602 2.709-1.181 1.756-3.27 4.768-3.27 7.16-.318 1.801-.318 3.3.287 5.101.303 1.196.924 2.376 1.802 3.587 1.181 1.196 2.407 2.695 4.178 3.891 1.801.923 3.3 1.195 6.281 2.376 1.499.606 3.603.923 6.903 1.211 1.771.288 5.358.288 6.569.878 1.196.318 2.407.318 3.3.938.893.591 2.089.893 2.695 1.196.59.576 1.498.893 2.982 2.377L6.6 14.698s-.288-5.994-2.392-9.279C2.104 1.801 0 0 0 0m-32.59 47.893c3.285 1.484 5.692 2.392 7.765 3.285 2.12.606 4.496 1.181 7.478 1.801 2.997.606 5.101.893 8.098.893 2.982 0 6.6-1.165 8.977-1.771 2.104-.62 3.875-2.997 5.101-4.798C6.327 45.805 6.6 44.896 6.6 42.52v-2.407c-.288-.893-.893-1.181-1.499-2.074-.605-.908-1.196-1.801-2.089-2.391-.605-.606-1.528-1.211-2.406-1.802-1.196-.605-2.377-.893-3.603-1.498-1.181-.606-2.982-.318-4.753-.908-5.994-.909-10.777-1.181-13.472-2.089-2.694-.893-4.495-1.499-6.297-2.407-2.074-.893-2.982-1.801-4.783-3.285-1.802-1.498-2.377-2.679-3.27-4.193-.923-1.483-1.816-2.997-2.407-4.768-.317-1.801-.893-4.178-.893-6.282 0-3.602.576-6.599 2.377-9.869 1.498-2.982 4.496-5.676 7.795-7.205 3.27-1.499 7.478-3.27 13.472-3.27h5.677c1.801.288 3.572.893 6.902 1.484C-1.15-9.233.923-8.053 3.315-6.251c2.104 2.088 3.3 3.284 3.3 3.284v-7.477h12.866c-1.195 5.388-1.786 5.994-1.483 9.869 0 6.6-.606 20.965-.318 28.73 0 7.795-.303 5.676-.303 8.976 0 2.694-1.196 7.19-2.089 9.567-.923 2.406-2.406 3.905-3.905 6.599-1.801 2.104-5.994 5.101-9.279 5.995-3.572.923-5.994 1.498-9.854 1.498-3.603 0-8.976-.303-12.866-.575-3.603-.606-6.6-1.529-11.686-3.012-.015-3.936-.015-7.236-.288-9.31" style="fill:#000;fill-opacity:1;fill-rule:nonzero;stroke:none" transform="translate(451.185 42.209)"/><path d="M0 0c-.893-.318-2.392-1.801-3.285-2.119-2.104-.575-3.587-1.499-5.086-1.786-2.119-.288-3.89-.591-5.691-.591-2.982 0-5.677.893-7.478 2.104-1.801 1.196-1.801.591-3.3 2.695-1.498 1.801-3.587 4.783-3.587 7.19 0 1.771 0 3.3.303 5.101.59 1.181.923 2.376 2.088 3.542 1.211 1.211 2.407 2.71 4.208 3.936 1.499.893 3.27 1.18 6.252 2.376 1.226.575 3.603.893 6.902 1.166 1.499.318 5.389.318 6.6.938.893.288 2.089.591 2.982.893 1.196.591 2.089.893 2.967 1.196.605.606 1.211.923 2.725 2.377v-14.35s-.318-5.677-2.392-9.279C2.089 1.771 0 0 0 0m-32.62 47.878c2.982 1.499 5.389 2.377 7.478 3.3 2.073.606 4.783 1.181 7.477 1.771 2.982.575 5.389.908 8.083.908 2.982 0 6.872-1.181 8.961-1.786 2.392-.621 3.906-2.997 5.389-4.798 1.499-1.499 1.499-2.952 1.802-5.359 0-.923 0-1.513-.318-2.391-.303-.939-.606-.606-1.196-1.514-.605-.893-1.211-1.786-2.104-2.392-.606-.575-1.499-1.18-2.694-1.801-.909-.575-2.105-.893-3.3-1.498-1.499-.606-2.982-.288-4.753-.894-6.297-.908-11.08-1.18-13.472-2.088-2.725-.909-4.496-1.514-6.6-2.392-1.801-.923-2.997-1.801-4.783-3.33-1.801-1.484-2.407-2.362-3.3-3.86-.893-1.499-1.514-3.3-2.119-5.101-.575-1.786-1.181-4.178-1.181-6.282.303-3.572.605-6.6 2.407-9.869 1.771-2.982 4.48-5.677 7.78-7.175 3.573-1.499 7.796-3.3 13.775-3.3h5.359c2.119.318 3.89.893 6.872 1.498C-1.544-9.279.848-8.068 2.937-6.312c2.407 2.134 3.602 3.315 3.602 3.315v-7.478h12.852C18.21-5.101 17.62-4.48 17.62-.59c.287 6.584-.318 20.934-.318 28.7.318 7.795 0 5.676 0 8.991-.288 2.679-1.166 7.205-2.089 9.551-.908 2.407-2.377 4.208-4.178 6.6-1.498 2.119-5.676 5.101-9.279 6.009-3.285.893-5.676 1.741-9.551 1.741-3.603 0-9.279-.575-12.897-.863-3.875-.605-6.57-1.498-11.671-2.694-.257-4.193.046-7.463-.257-9.567" style="fill:#000;fill-opacity:1;fill-rule:nonzero;stroke:none" transform="translate(695.677 43.117)"/><path d="m0 0 1.499 5.071.317 14.092-.908 40.401c0 3.602-2.089 7.765-2.089 9.566 2.089 0 6.57.606 8.644 1.529 1.498.575 3.602.575 5.101.575v-9.278c1.498 2.694 3.875 2.966 5.101 4.495.893 1.499 2.104 1.499 4.178 2.982 1.801 1.226 2.982 1.226 5.388 1.801 2.998.318 5.071.591 7.766.591a16.7 16.7 0 0 0 5.388-.893c1.802-.288 3.573-1.196 5.086-2.089 1.499-.606 2.982-1.801 3.875-2.71 1.211-1.226 2.407-1.801 3.603-3.89.303-.605 2.982 3.27 6.872 5.374 3.906 2.104 8.386 3.905 13.185 3.905 2.981 0 9.854-.318 12.851-1.498 2.997-1.196 7.19-2.725 8.991-4.799 1.786-2.074 2.377-2.982 3.875-4.783 2.104-2.089 2.725-7.478 2.725-9.567 0-2.391.287-5.994.287-10.49V7.205c0-3.3.909-3.602 1.514-7.205H89.474c1.771 5.676 1.499 3.905 1.499 7.205l.288 30.198c0 4.208 0 6.6-.288 9.885 0 2.664-.893 5.994-1.499 7.478-.605 1.483-3.299 4.495-4.495 5.676-1.211 1.196-2.982 1.498-4.783 2.119-1.499.893-4.496.893-6.57.893-1.514 0-3.905-.287-5.404-.621-1.18-.575-2.694-.893-3.905-1.771-1.181-.908-2.377-1.21-3.572-2.694-.909-1.211-1.787-2.679-2.695-4.48-.605-1.529-.605-4.208-.893-6.903 0-2.982.288-6.872 0-11.05V6.6L59.246 0H44.866c0 5.994.923.605.923 6.887v40.976c-.303 2.407-.575 3.3-.923 5.101-.575 1.499-1.468 3.89-2.664 5.071-1.211 1.529-3.906 3.905-5.707 4.526-1.498.893-3.875 1.499-5.979 1.499-2.392 0-3.603-.318-5.691-1.227-1.802-.893-3.573-1.18-5.071-2.981-1.529-1.484-2.71-1.802-3.906-4.148-.923-2.407-1.801-1.801-2.089-5.737-.605-3.86-.908-17.937-.908-27.504.303-5.691.303-10.762.303-15.545 0-2.982 1.498-4.178 1.498-6.888H7.78C6.585 0 2.71 0 0 0" style="fill:#000;fill-opacity:1;fill-rule:nonzero;stroke:none" transform="translate(481.111 31.734)"/><path d="M0 0c0-.923-.318-2.407-.59-4.496-.318-2.104-.909-3.905-1.211-5.994-2.982-.893-6.267-1.786-9.249-2.104-2.725-.303-10.475-.575-12.897-.575-4.48 0-9.884.893-13.759 2.074-3.89 1.528-8.976 4.208-11.973 7.477-2.982 2.997-6.6 6.297-8.084 11.081-1.483 4.783-2.664 9.278-2.664 14.349-.318 7.19.893 9.582 2.664 15.849 2.105 6.297 7.206 11.08 11.686 14.683 4.753 3.602 15.561 6.584 23.644 6.584 5.994 0 13.154-.893 19.148-2.694.303-4.208.606-6.57.924-9.279-4.193 1.529-8.099 3.33-10.49 3.905-2.68.318-5.995.893-8.068.893-3.89 0-11.671-1.801-14.668-3.269-2.982-1.529-5.358-3.603-7.478-6.6-1.801-2.695-3.3-6.585-4.177-10.475-.909-3.905-1.181-4.178-.909-8.371.303-5.388 1.181-10.172 2.71-14.365 1.771-3.89 4.496-8.068 8.371-10.172 3.602-2.391 8.083-4.495 12.866-4.495 4.465 0 14.032.59 24.204 5.994" style="fill:#000;fill-opacity:1;fill-rule:nonzero;stroke:none" transform="translate(651.084 44.615)"/><path d="m0 0-1.181 4.768c0 .606-1.195 3.588-1.786 6.888C5.101 7.16 13.502 3.875 19.769 3.875c2.982 0 6.282 1.181 8.37 1.786 2.105.893 4.193 2.407 5.389 4.163.924 1.529 2.089 3.315 2.407 4.813.288.909.575 2.377.288 3.27-.288.923-.606 3.603-1.499 4.511-.605.893-2.997 2.967-4.178 4.178-1.196.893-4.495 2.694-8.991 4.495-4.178 1.771-9.884 3.573-11.958 5.374-2.119 1.514-5.692 3.587-7.19 5.389C.908 43.655 0 45.441-.893 47.212c-.575 1.817 0 4.511-.303 6.63 0 2.982 1.786 5.994 3.587 8.659 1.772 2.997 4.784 4.495 8.371 5.994 3.603 1.165 7.796 2.119 12.579 2.119 5.373 0 10.475-1.226 17.074-2.407.288-3.602-.62-6.297-.317-9.279-4.511 2.982-9.885 4.784-14.956 4.784-2.724 0-5.389-.591-7.795-1.196-2.407-.908-4.784-2.982-5.995-4.481-.893-1.498-1.498-2.724-1.498-4.495 0-1.196.318-2.982.893-4.178.318-.923 2.997-3.89 4.496-4.496 2.104-.908 1.211-.605 2.982-1.181 2.119-.317 6.902-2.997 11.67-5.101 5.102-2.376 9.597-5.373 11.08-6.902 1.499-1.499 3.3-3.557 4.496-7.175.908-1.801 1.181-3.89 1.181-5.374 0-2.694-.606-2.982-.606-4.783.318-3.3-.575-4.511-2.376-7.19-1.771-2.982-5.101-5.676-8.976-7.175-3.89-1.498-7.765-2.709-12.564-2.709-2.104 0-6.6-.288-9.264 0-2.694.302-5.101 1.211-7.205 1.513C3.906-.923 2.725-.923 0 0" style="fill:#000;fill-opacity:1;fill-rule:nonzero;stroke:none" transform="translate(723.786 34.443)"/><path d="M0 0c-.59-2.407-1.196-3.618-1.514-7.478-2.982-.923-4.178-1.211-5.979-1.211-1.514-.287-3.3.303-4.798.303-3.875 0-6.873.318-9.249 1.499-2.407 1.195-4.193 2.694-5.389 5.101-1.498 2.376-2.406 8.37-2.406 12.548v2.725c0 1.498-.288 2.694 0 10.747l-.288 31.152h-8.689v6.267l8.689.318c.288 1.74 0 7.765 0 12.245 0 2.119-1.211 4.178-2.104 5.404 4.178.893 10.187 2.695 12.851 3.27 0-6.872.621-17.044.621-20.919l17.952-.318c-.287-2.997 0-4.178.318-6.872l-5.101.605h-13.169l-.288-39.205v-3.299c.288-3.603.575-8.068 1.499-9.87.575-1.801 1.771-2.407 3.269-3.3 1.499-.605 2.997-.908 4.496-.908h3.905C-4.178-1.226-3.285-.923 0 0" style="fill:#000;fill-opacity:1;fill-rule:nonzero;stroke:none" transform="translate(811.172 40.438)"/><path d="M0 0c-.288-2.679-1.196-5.964-1.483-10.157-4.178-1.181-10.778-3.587-13.76-4.193-2.982-.287-5.994-.287-8.976-.287-5.374 0-10.778 1.18-15.273 2.694-4.178 1.499-8.401 4.465-11.671 8.083-3.3 3.572-6.297 7.478-7.795 11.943-1.499 4.783-1.802 9.279-2.104 14.35-.288 7.205.923 9.884 3.012 16.166 2.376 5.995 6.872 10.475 11.67 14.078 4.784 3.602 10.778 5.086 18.543 5.086 3.905 0 8.371-.288 11.973-1.484 3.588-1.211 6.6-2.709 8.977-5.101 2.376-2.694 4.495-5.374 5.994-8.976 1.498-3.89 1.801-3.89 2.407-8.371.575-2.119.575-5.404.575-7.205l-51.148-.288v-5.101c.288-5.101.893-10.172 2.967-14.38 2.104-4.178 4.783-7.175 8.673-9.248 3.906-2.105 8.689-4.178 13.487-4.178C-18.225-6.539-8.371-4.163 0 0m-46.955 33.861h37.404c0 2.967 0 2.089-.303 3.875-.288 1.499-.893 2.997-1.786 4.784-.893 1.786-2.392 2.966-3.906 4.193-1.498 1.498-2.982 2.376-5.071 3.299-1.816.606-4.813.894-7.205.894-2.391 0-4.495-.621-6.599-1.514-2.377-.893-4.178-1.786-5.662-3.3-1.816-1.211-2.982-2.679-4.192-4.481-1.196-1.801-2.089-3.602-2.392-5.373l-.303-.591s.303 0 .015-1.786" style="fill:#000;fill-opacity:1;fill-rule:nonzero;stroke:none" transform="translate(403.307 44.282)"/><path d="M0 0c0 1.529 1.211 3.315 1.211 4.511.318 22.72 0 40.082-.606 54.447l-.287 6.297-2.104 5.086c2.104.318 5.101.591 6.6.893 1.483.318 5.373.909 7.159.909V59.246c1.529 3.012 1.802 2.725 2.982 4.208.924 1.529 2.997 3.27 4.496 4.496 1.529.908 2.982 2.104 5.101 2.709 1.786.575 3.587 1.484 5.691 1.484 1.787 0 3.285.317 7.493 0 4.148-.591 6.57-1.484 7.478-1.787.288-1.786-2.997-9.581-2.997-9.581s-3.3.318-5.994 1.498c-2.695.606-4.466.606-6.585.606-2.376 0-5.358-.606-7.478-1.499-1.786-.923-3.875-2.134-5.358-3.875-1.514-1.801-2.407-3.92-3.3-6.599-.923-2.12-.605-.318-.923-3.603-.288-3.588 0-35.617.318-43.095l1.18-3.875H6.903C5.707.333 2.407 0 0 0" style="fill:#000;fill-opacity:1;fill-rule:nonzero;stroke:none" transform="translate(298.575 29.933)"/><path d="m0 0 2.407 6.872v84.964c-.318 2.724-1.196 5.086-2.71 9.597 5.994-.318 15.864.302 20.041.302 2.392 0 6.297-.302 11.671-.302 5.389 0 10.187 0 12.564-.318 7.477-.575 9.597-.893 14.97-2.377 3.875-.893 11.353-5.101 14.955-7.477 3.3-2.407 6.873-5.102 9.582-8.977 2.664-3.89 3.89-5.101 5.964-9.566 2.407-6.312 3.905-12.897 3.905-18.876.621-8.689-.302-14.955-2.709-22.736-2.664-7.795-8.068-13.472-13.139-18.573C72.4 7.145 66.724 4.163 60.139 2.361 53.57.863 46.092-.621 37.706-.621H18.255L0 0Zm17.68 8.083c5.646-.318 10.46-.318 15.243-.318 3.905 0 8.688.318 12.866.606 4.481.605 7.478 2.104 10.793 3.3 3.285 1.211 6.584 2.966 9.566 5.994 3.3 2.982 5.677 6.6 7.796 10.187 1.771 3.89 3.3 8.068 3.875 12.866.893 4.784 1.211 9.582 1.211 14.35-.318 5.389-1.786 9.597-3.315 14.078-1.483 4.768-4.163 10.474-8.068 13.774-4.178 3.27-7.175 5.964-11.671 7.16-4.177 1.211-10.459 3.012-17.347 3.012-4.495 0-10.202-.318-12.896-.62-2.982-.303-5.389-.606-9.279-.606L17.68 8.083Z" style="fill:#000;fill-opacity:1;fill-rule:nonzero;stroke:none" transform="translate(192.964 29.66)"/><path d="M0 0c0 5.689-2.708 5.129-4.547 5.402-1.983.287-6.681-.711-10.926.287-5.115.992-7.823 8.089-6.969 11.501 2.558 9.806 8.951 11.084 13.348 10.79 3.419-.144 9.805-.424 17.614-7.241 3.548-3.125 5.682-11.365 5.826-16.041.15-5.819-.144-12.363-3.549-16.041C5.258-17.312-9.375-22.413-17.6-22.14c-32.24 3.412-31.097 33.792-31.097 33.792s-2.565 13.067 8.376 26.988c.854 1.135 2.27 3.836 3.405 4.964 1.135 1.279 1.982 1.566 3.412 2.708 1.278.992 2.694 1.696 4.116 2.551 3.549 2.126 7.385 4.101 11.07 5.244 5.546 1.702 11.084 2.126 15.488 1.989 13.339-.423 27.829-7.672 35.077-18.892 1.128-1.552 1.983-2.694 2.974-4.116.998-1.567 2.27-4.26 3.549-7.522 1.709-4.834 1.127-2.844 2.981-10.229 1.278-5.251 1.86-8.534 2.133-11.925.151-1.566.28-3.261.438-5.114.137-5.826.841-7.249-.438-11.789-1.982-7.657-6.824-15.207-10.797-19.165-7.097-6.969-13.62-9.102-17.463-11.078-3.836-1.989-5.395-2.27-10.359-3.979-4.963-1.846-7.672-2.134-16.486-2.134-8.656.137-15.753.568-17.88 1.128-15.487 4.267-21.019 7.105-27.692 12.507C-74.12-22.592-77.669 4.109-77.669 4.109s-1.846 13.62 1.128 27.829c1.71 7.528 9.245 21.299 13.649 26.845 3.685 4.677 12.197 11.508 17.312 14.633 5.115 3.261 12.363 7.521 20.739 10.071 4.116 1.401 7.248 1.983 16.609 2.414 10.796.424 26.708-2.414 36.068-5.251 9.806-2.989 18.742-9.382 23.297-14.339 4.676-5.121 15.056-20.308 16.752-23.44 1.853-3.124 6.817-19.74 7.241-22.01.438-2.126 1.278-9.655 8.67-9.231 6.81.582 4.82 8.376 4.677 9.806-.288 1.422-2.694 14.338-3.836 17.887-.992 3.548-6.236 12.923-7.522 14.769-.567 1.142-5.394 8.951-10.071 15.057-3.556 4.547-6.975 9.101-10.811 11.371-7.234 4.67-16.465 8.8-16.465 8.8s-15.761 5.402-24.007 6.394c-7.098.855-14.755 2.406-27.398 1.566-12.636-.855-19.597-4.267-24.274-6.106-4.554-1.997-15.056-6.545-22.879-12.924-7.816-6.407-5.395-3.275-9.655-7.952-4.116-4.691-5.395-5.969-8.232-9.956-2.845-4.116-8.937-16.041-11.228-24.13-.841-3.268-2.407-8.239-3.118-13.067-.567-4.109-.718-8.096-.28-11.357.711-6.961.424-7.097.424-7.097s3.261-13.491 4.971-18.893c1.839-5.244 4.26-13.06 15.193-25.279 11.07-12.076 21.156-15.33 24.992-16.896 3.836-1.422 16.752-5.962 33.798-6.249 19.741-.431 24.855 3.972 28.404 5.394 3.685 1.566 15.761 6.681 25.415 15.761 9.655 9.08 12.78 18.886 13.067 19.597 2.687 7.665 3.549 19.891 1.128 31.816-1.702 8.089-2.981 15.064-4.547 20.028-2.845 8.512-6.25 13.347-8.8 17.176-2.27 3.548-9.382 8.95-13.778 11.651-2.133 1.265-4.116 2.838-6.961 3.98-2.845 1.279-6.537 2.119-10.933 3.125-4.116.991-9.518 1.983-14.058 2.27-3.973.28-7.378.136-8.815.136-1.982 0-8.8-1.142-17.88-5.955-5.114-2.701-10.516-5.84-16.615-11.925-1.854-1.997-3.549-4.403-4.971-6.393-13.491-18.462-8.52-39.057-8.52-39.057s2.407-27.836 26.831-35.788c8.67-2.694 16.199-2.845 22.592-2.127 10.653 1.415 18.462 5.826 23.713 8.52 5.402 2.83 9.375 7.385 11.508 12.363 2.126 4.54 2.55 9.367 2.407 13.34-.137 2.421-.137 5.395-.704 8.527-1.416 7.937-4.26 15.897-11.228 21.852l-2.134 1.429c-1.279.855-2.406 1.423-3.405 1.983-5.955 3.132-11.795 4.267-19.884 4.691-2.988-.144-7.378-.718-9.798-1.99-9.662-4.684-14.906-13.218-14.49-24.417.424-10.509 10.23-16.048 11.925-17.607C-22.298-4.396-.575-9.928 0 0" style="fill:#3e649f;fill-opacity:1;fill-rule:nonzero;stroke:none" transform="translate(91.557 62.656)"/></g></svg>