<svg xmlns="http://www.w3.org/2000/svg" xml:space="preserve" width="360.514" height="94.269"><defs><clipPath id="a" clipPathUnits="userSpaceOnUse"><path d="M0 75.415h288.411V0H0v75.415Z"/></clipPath></defs><g clip-path="url(#a)" transform="matrix(1.25 0 0 -1.25 0 94.269)"><path d="M57.603 67.471h6.311V57.373h-6.311v10.098zm-16.409 0h6.311V57.373h-6.311v10.098zm-15.146 0h6.311V57.373h-6.311v10.098zm0 1.262v3.787H61.39c1.684 0 2.525-1.262 2.525-3.787H26.048z" style="fill:#959595;fill-opacity:1;fill-rule:nonzero;stroke:none"/><path d="M0 0v6.311h6.311c0-.843.422-1.262 1.262-1.262H22.72V1.262H6.311C6.311.419 6.733 0 7.573 0h16.409v-3.787H2.524C.841-3.787 0-2.524 0 0m0 11.36h23.982V7.573H0v3.787z" style="fill:#959595;fill-opacity:1;fill-rule:nonzero;stroke:none" transform="translate(67.701 61.16)"/><path d="M0 0v6.311h6.311V0h12.622c.841 0 1.263.212 1.263.631 0 .419-.422.631-1.263.631h-6.311v3.787h11.36c2.525 0 3.787-1.262 3.787-3.787V0c0-2.524-.841-3.787-2.524-3.787H2.524C.841-3.787 0-2.524 0 0m0 7.573c0 2.525.841 3.787 2.524 3.787h23.983V7.573H0z" style="fill:#959595;fill-opacity:1;fill-rule:nonzero;stroke:none" transform="translate(95.47 61.16)"/><path d="M0 0v2.524h-12.622v3.787H0v3.787h6.311V0H0Zm-20.196 10.098h6.311V0h-6.311v10.098zm0 1.262c0 2.525.841 3.787 2.525 3.787H3.787c1.683 0 2.524-1.262 2.524-3.787h-26.507z" style="fill:#959595;fill-opacity:1;fill-rule:nonzero;stroke:none" transform="translate(147.222 57.373)"/><path d="M0 0h-16.409v3.787h12.622v6.311h6.311V3.787C2.524 1.262 1.684 0 0 0m-23.982 10.098h6.311V0h-6.311v10.098zm0 1.262v3.787H0c1.684 0 2.524-1.262 2.524-3.787h-26.506z" style="fill:#959595;fill-opacity:1;fill-rule:nonzero;stroke:none" transform="translate(181.302 57.373)"/><path d="M0 0v3.787h11.36c.841 0 1.262.419 1.262 1.262v2.524h6.311V3.787c0-2.525-.84-3.787-2.524-3.787l3.787-2.524h-6.311L10.098 0H0Zm-7.573 7.573h6.311V-2.525h-6.311V7.573zm0 1.263c0 2.524.84 3.786 2.524 3.786h21.458c1.684 0 2.524-1.262 2.524-3.786H-7.573z" style="fill:#959595;fill-opacity:1;fill-rule:nonzero;stroke:none" transform="translate(195.187 59.898)"/><path d="M219.169 72.52h6.311V57.373h-6.311V72.52z" style="fill:#959595;fill-opacity:1;fill-rule:nonzero;stroke:none"/><path d="m0 0 2.524 3.787h7.574L7.573 0H0Zm-9.918-11.36-6.311 10.098h7.574l3.786-6.059 3.787 6.059h7.573L.18-11.36H-9.918zM-17.491 0l-2.524 3.787h7.573L-9.918 0h-7.573Z" style="fill:#959595;fill-opacity:1;fill-rule:nonzero;stroke:none" transform="translate(250.544 68.733)"/><path d="M0 0v6.311h6.311c0-.843.422-1.262 1.262-1.262H22.72V1.262H6.311C6.311.419 6.733 0 7.573 0h16.409v-3.787H2.524C.841-3.787 0-2.524 0 0m0 11.36h23.982V7.573H0v3.787z" style="fill:#959595;fill-opacity:1;fill-rule:nonzero;stroke:none" transform="translate(264.429 61.16)"/><path d="M0 0v12.307h51.79c2.655 0 3.984.685 3.984 2.051s-1.329 2.051-3.984 2.051H15.935v12.307h35.058c3.187 0 4.781 1.366 4.781 4.102h19.919V12.307C75.693 4.102 71.974 0 64.538 0H0Zm0 36.92v12.307h64.538c7.436 0 11.155-4.102 11.155-12.307H0Z" style="fill:#959595;fill-opacity:1;fill-rule:nonzero;stroke:none" transform="translate(26.048 3.828)"/><path d="M0 0c0 8.204 3.984 12.307 11.951 12.307H51.79c2.655 0 3.984 1.366 3.984 4.102h19.919v-4.102C75.693 4.102 71.709 0 63.741 0H19.919c-2.655 0-3.984-1.366-3.984-4.102h59.758v-12.307H0V0Zm0 20.511v12.307h63.741c7.968 0 11.952-4.102 11.952-12.307H0Z" style="fill:#959595;fill-opacity:1;fill-rule:nonzero;stroke:none" transform="translate(109.708 20.237)"/><path d="M0 0h23.903L6.146-12.307H-17.7L0 0Zm-.228-49.227-23.39 16.233-23.391-16.233h-23.903l35.342 24.555-11.895 8.263H.228l-11.895-8.263 35.342-24.555H-.228zm-53.155 36.92L-71.14 0h23.903l17.7-12.307h-23.846z" style="fill:#959595;fill-opacity:1;fill-rule:nonzero;stroke:none" transform="translate(264.508 53.055)"/><path d="M0 0c-.932 0-1.734.334-2.412 1.003-.678.669-1.016 1.604-1.016 2.806v9.141h3.047V3.809c0-.508.127-.762.381-.762s.381.254.381.762v2.285c0 1.743.707 3.323 2.121 4.736 1.412 1.413 3.118 2.12 5.116 2.12 1.98 0 3.682-.707 5.104-2.12 1.422-1.413 2.133-2.993 2.133-4.736v-9.903h-3.048v9.141c0 1.406-.414 2.518-1.244 3.339-.83.822-1.81 1.232-2.945 1.232-1.151 0-2.137-.41-2.959-1.232-.821-.821-1.231-1.933-1.231-3.339V3.809c0-1.202-.334-2.137-1.004-2.806A3.3 3.3 0 0 0 0 0m0-3.809c-1.981 0-3.682.707-5.104 2.12-1.422 1.414-2.133 2.993-2.133 4.736v9.903h3.047V3.809c0-1.406.414-2.518 1.244-3.339C-2.115-.352-1.135-.762 0-.762c1.15 0 2.137.41 2.959 1.232.821.821 1.231 1.933 1.231 3.339v1.523c0 1.203.334 2.137 1.004 2.806a3.299 3.299 0 0 0 2.424 1.003c.931 0 1.734-.334 2.412-1.003.678-.669 1.016-1.603 1.016-2.806v-9.141H7.999v9.141c0 .508-.127.762-.381.762s-.381-.254-.381-.762V3.047c0-1.743-.707-3.322-2.121-4.736C3.703-3.102 1.998-3.809 0-3.809" style="fill:#2c3792;fill-opacity:1;fill-rule:nonzero;stroke:none" transform="translate(7.237 3.809)"/><path d="M0 0v9.903h3.047V3.047c.508 0 .762.254.762.762v8.379h3.047V3.047C6.856 1.016 5.84 0 3.809 0H0Zm-.762 0h-3.809c-2.031 0-3.047 1.016-3.047 3.047v9.141h3.047V3.809c0-.508.254-.762.762-.762v6.856h3.047V0zm-3.809-3.809c-4.57 0-6.856 2.285-6.856 6.856v9.141h3.048V3.047c0-2.539 1.269-3.809 3.808-3.809h8.38c2.539 0 3.809 1.27 3.809 3.809v9.141h3.047V3.047c0-4.571-2.286-6.856-6.856-6.856h-8.38z" style="fill:#2c3792;fill-opacity:1;fill-rule:nonzero;stroke:none" transform="translate(11.427 22.091)"/><path d="M0 0c-2.031 0-3.047 1.016-3.047 3.047v9.141H0V3.809c0-.508.254-.762.762-.762h6.856c.508 0 .761.254.761.762v1.523h-.761V3.809H4.571v4.57h6.856V3.047C11.427 1.016 10.411 0 8.379 0H0Zm0-3.809c-4.571 0-6.856 2.285-6.856 6.856v9.141h3.047V3.047C-3.809.508-2.539-.762 0-.762h8.379c2.54 0 3.809 1.27 3.809 3.809v6.094H3.809V3.809H.762v8.379h14.473V3.047c0-4.571-2.285-6.856-6.856-6.856H0z" style="fill:#2c3792;fill-opacity:1;fill-rule:nonzero;stroke:none" transform="translate(6.856 39.612)"/><path d="m0 0 3.555-1.397v2.794L0 0Zm6.602-1.904h-1.65l5.459-2.159V-7.11L-7.364-.508c-.338.085-.508.254-.508.508s.17.423.508.508L6.602 5.84v-7.744zm.762 0V7.11l-15.49-6.094C-8.463.847-8.633.508-8.633 0c0-.423.17-.762.507-1.016l18.537-6.856v-3.047l-19.552 7.11C-10.835-2.962-11.68-1.692-11.68 0c0 1.946.845 3.216 2.539 3.809l19.552 7.364V-1.904H7.364z" style="fill:#2c3792;fill-opacity:1;fill-rule:nonzero;stroke:none" transform="translate(11.68 64.243)"/></g></svg>