<svg xmlns="http://www.w3.org/2000/svg" xml:space="preserve" width="745" height="150"><g transform="translate(-24.5 -231.5)"><path d="M24.5 301.5v53l48 27h649l48-27v-53l-48-27h-240l-25-43h-118l-25 43h-241l-48 27zm252-9h25l45 25.14V292.5h24v70h-24v-25.86l-46-25.709V362.5h-24v-70zm313 70v-70h24v70h-24zm-207 0v-54l24-16h63l-23 14h-40v14h48l-23 14h-25v14h65l-23 14h-66zm-212 0v-54l24-16h63l-23 14h-40v14h48l-23 14h-25v14h65l-23 14h-66zm-16-45v29l-24 16h-69v-54l24-16h73l-23 14h-50v42h45v-17h-28l23-14h29zm418 31-23 14h-71l23-14h45v-14h-68v-27l23-14h72l-23 14h-47v13h69v28zm153 0-23 14h-71l23-14h45v-14h-68v-27l23-14h72l-23 14h-47v13h69v28z" style="fill:#c2c4d2"/><linearGradient id="a" x1="397.335" x2="397.335" y1="237.5" y2="375.5" gradientUnits="userSpaceOnUse"><stop offset="0" style="stop-color:#d9dde9;stop-opacity:1"/><stop offset=".39" style="stop-color:#777489;stop-opacity:1"/><stop offset=".98" style="stop-color:#d9dde9;stop-opacity:1"/></linearGradient><path d="m477.5 280.5-25-43H342.17l-25 43H72.83L30.5 304.25v47.5l42.33 23.75h649.01l42.33-23.75v-47.5l-42.33-23.75H477.5zm-201 12h25l45 25.14V292.5h24v70h-24v-25.86l-46-25.709V362.5h-24v-70zm313 70v-70h24v70h-24zm-207 0v-54l24-16h63l-23 14h-40v14h48l-23 14h-25v14h65l-23 14h-66zm-212 0v-54l24-16h63l-23 14h-40v14h48l-23 14h-25v14h65l-23 14h-66zm-16-45v29l-24 16h-69v-54l24-16h73l-23 14h-50v42h45v-17h-28l23-14h29zm418 31-23 14h-71l23-14h45v-14h-68v-27l23-14h72l-23 14h-47v13h69v28zm153 0-23 14h-71l23-14h45v-14h-68v-27l23-14h72l-23 14h-47v13h69v28z" style="fill:url(#a)"/><path d="m431.16 249.2-9.37 28.55h4.63l9.391-27.57c.34-1.26 1.369-2.18 2.579-2.18 1.221 0 2.25.92 2.591 2.18l7.939 23.32h-12.46v4.25H455l-9.37-28.55a7.525 7.525 0 0 0-7.24-5.45c-3.43 0-6.329 2.3-7.23 5.45zm5.49 17.73 1.64-4.87 1.71 4.87h-3.35zm-.68-13.98-8.39 24.8h5.41l3.47-10.28v4.86h10.9l-6.471-19.38c-.329-1.08-1.31-4.18-2.46-4.18-1.159 0-2.139 3.1-2.459 4.18zm-29.63-3.79h16.221v-4.64h-16.61c-4.48 0-8.11 3.64-8.11 8.12v17c0 4.48 3.63 8.11 8.11 8.11h16.61v-21.64H409.43v4.25h8.49v12.75h-11.58a3.855 3.855 0 0 1-3.859-3.86v-16.23a3.854 3.854 0 0 1 3.859-3.86zm3.09 12.36v4.64h2.7v1.16h-2.7c-.64 0-1.16-.52-1.16-1.16v-10.05c0-.64.521-1.16 1.16-1.16h13.131v-4.63H407.5c-2.14 0-3.87 1.73-3.87 3.86v13.91c0 2.13 1.73 3.86 3.87 3.86h9.27v-10.43h-7.34zm-29.74-12.36h16.22v-4.64H379.3c-4.48 0-8.11 3.64-8.11 8.12v16.81c0 4.48 3.63 8.12 8.11 8.12h16.61v-4.64h-16.22c-2.13 0-3.86-1.73-3.86-3.86v-16.05c0-2.13 1.73-3.86 3.86-3.86zm12.74 11.2v-4.25h-10.81c0-.64.52-1.16 1.16-1.16h13.13v-4.63h-15.06c-2.13 0-3.86 1.73-3.86 3.86v6.18h15.44zm0 1.55v4.25h-10.81c0 .64.52 1.16 1.16 1.16h13.13v4.63h-15.06c-2.13 0-3.86-1.73-3.86-3.86v-6.18h15.44zm-39.69 5.79H343v4.25H358.06c2.79-.1 5.02-2.4 5.02-5.21 0-2.88-2.33-5.22-5.21-5.22h-5.86c-2.37-.9-4.38-3.25-4.38-5.99 0-3.52 3.24-6.37 6.76-6.37h14.49v-4.64h-15.07c-5.97 0-10.81 4.85-10.81 10.82 0 5.98 5.23 10.82 11.2 10.82v-.05l.03.05h3.45a.77.77 0 0 1 0 1.54h-4.94zm6.39-13.13h9.75v-4.25H353.81a5.217 5.217 0 0 0 .2 10.43h5.86c2.37.91 4.37 3.25 4.37 5.99 0 3.52-3.24 6.37-6.76 6.37H343v4.64h15.06c5.97 0 10.82-4.84 10.82-10.82 0-5.97-5.23-10.82-11.2-10.82v.06l-.04-.06h-3.44a.77.77 0 0 1 0-1.54h4.93z" style="fill:#181c4e"/></g><linearGradient id="b" x1="282.977" x2="350.093" y1="286.977" y2="354.093" gradientUnits="userSpaceOnUse"><stop offset="0" style="stop-color:#000;stop-opacity:1"/><stop offset=".11" style="stop-color:#181c4e;stop-opacity:1"/><stop offset=".22" style="stop-color:#181818;stop-opacity:1"/><stop offset=".34" style="stop-color:#181c4e;stop-opacity:1"/><stop offset=".47" style="stop-color:#000;stop-opacity:1"/><stop offset=".59" style="stop-color:#181c4e;stop-opacity:1"/><stop offset=".72" style="stop-color:#000;stop-opacity:1"/><stop offset=".84" style="stop-color:#181c4e;stop-opacity:1"/><stop offset=".98" style="stop-color:#000;stop-opacity:1"/></linearGradient><path d="M370.5 292.5v70h-24v-25.86l-46-25.709V362.5h-24v-70h25l45 25.14V292.5z" style="fill:url(#b)" transform="translate(-24.5 -231.5)"/><linearGradient id="c" x1="578.519" x2="645.267" y1="303.054" y2="374.058" gradientTransform="translate(-24.5 -231.5)" gradientUnits="userSpaceOnUse"><stop offset="0" style="stop-color:#000;stop-opacity:1"/><stop offset=".11" style="stop-color:#181c4e;stop-opacity:1"/><stop offset=".22" style="stop-color:#181818;stop-opacity:1"/><stop offset=".34" style="stop-color:#181c4e;stop-opacity:1"/><stop offset=".47" style="stop-color:#000;stop-opacity:1"/><stop offset=".59" style="stop-color:#181c4e;stop-opacity:1"/><stop offset=".72" style="stop-color:#000;stop-opacity:1"/><stop offset=".84" style="stop-color:#181c4e;stop-opacity:1"/><stop offset=".98" style="stop-color:#000;stop-opacity:1"/></linearGradient><path d="M565 61h24v70h-24z" style="fill:url(#c)"/><linearGradient id="d" x1="386.714" x2="453.117" y1="288.214" y2="354.617" gradientUnits="userSpaceOnUse"><stop offset="0" style="stop-color:#000;stop-opacity:1"/><stop offset=".11" style="stop-color:#181c4e;stop-opacity:1"/><stop offset=".22" style="stop-color:#181818;stop-opacity:1"/><stop offset=".34" style="stop-color:#181c4e;stop-opacity:1"/><stop offset=".47" style="stop-color:#000;stop-opacity:1"/><stop offset=".59" style="stop-color:#181c4e;stop-opacity:1"/><stop offset=".72" style="stop-color:#000;stop-opacity:1"/><stop offset=".84" style="stop-color:#181c4e;stop-opacity:1"/><stop offset=".98" style="stop-color:#000;stop-opacity:1"/></linearGradient><path d="M446.5 306.5h-40v14h48l-23 14h-25v14h65l-23 14h-66v-54l24-16h63z" style="fill:url(#d)" transform="translate(-24.5 -231.5)"/><linearGradient id="e" x1="174.714" x2="241.117" y1="288.214" y2="354.617" gradientUnits="userSpaceOnUse"><stop offset="0" style="stop-color:#000;stop-opacity:1"/><stop offset=".11" style="stop-color:#181c4e;stop-opacity:1"/><stop offset=".22" style="stop-color:#181818;stop-opacity:1"/><stop offset=".34" style="stop-color:#181c4e;stop-opacity:1"/><stop offset=".47" style="stop-color:#000;stop-opacity:1"/><stop offset=".59" style="stop-color:#181c4e;stop-opacity:1"/><stop offset=".72" style="stop-color:#000;stop-opacity:1"/><stop offset=".84" style="stop-color:#181c4e;stop-opacity:1"/><stop offset=".98" style="stop-color:#000;stop-opacity:1"/></linearGradient><path d="M234.5 306.5h-40v14h48l-23 14h-25v14h65l-23 14h-66v-54l24-16h63z" style="fill:url(#e)" transform="translate(-24.5 -231.5)"/><linearGradient id="f" x1="76.251" x2="141.75" y1="293.75" y2="359.25" gradientUnits="userSpaceOnUse"><stop offset="0" style="stop-color:#000;stop-opacity:1"/><stop offset=".11" style="stop-color:#181c4e;stop-opacity:1"/><stop offset=".22" style="stop-color:#181818;stop-opacity:1"/><stop offset=".34" style="stop-color:#181c4e;stop-opacity:1"/><stop offset=".47" style="stop-color:#000;stop-opacity:1"/><stop offset=".59" style="stop-color:#181c4e;stop-opacity:1"/><stop offset=".72" style="stop-color:#000;stop-opacity:1"/><stop offset=".84" style="stop-color:#181c4e;stop-opacity:1"/><stop offset=".98" style="stop-color:#000;stop-opacity:1"/></linearGradient><path d="m61.5 308.5 24-16h73l-23 14h-50v42h45v-17h-28l23-14h29v29l-24 16h-69z" style="fill:url(#f)" transform="translate(-24.5 -231.5)"/><linearGradient id="g" x1="485.459" x2="552.359" y1="287.459" y2="354.359" gradientUnits="userSpaceOnUse"><stop offset="0" style="stop-color:#000;stop-opacity:1"/><stop offset=".11" style="stop-color:#181c4e;stop-opacity:1"/><stop offset=".22" style="stop-color:#181818;stop-opacity:1"/><stop offset=".34" style="stop-color:#181c4e;stop-opacity:1"/><stop offset=".47" style="stop-color:#000;stop-opacity:1"/><stop offset=".59" style="stop-color:#181c4e;stop-opacity:1"/><stop offset=".72" style="stop-color:#000;stop-opacity:1"/><stop offset=".84" style="stop-color:#181c4e;stop-opacity:1"/><stop offset=".98" style="stop-color:#000;stop-opacity:1"/></linearGradient><path d="M546.5 348.5v-14h-68v-27l23-14h72l-23 14h-47v13h69v28l-23 14h-71l23-14z" style="fill:url(#g)" transform="translate(-24.5 -231.5)"/><linearGradient id="h" x1="638.46" x2="705.36" y1="287.459" y2="354.359" gradientUnits="userSpaceOnUse"><stop offset="0" style="stop-color:#000;stop-opacity:1"/><stop offset=".11" style="stop-color:#181c4e;stop-opacity:1"/><stop offset=".22" style="stop-color:#181818;stop-opacity:1"/><stop offset=".34" style="stop-color:#181c4e;stop-opacity:1"/><stop offset=".47" style="stop-color:#000;stop-opacity:1"/><stop offset=".59" style="stop-color:#181c4e;stop-opacity:1"/><stop offset=".72" style="stop-color:#000;stop-opacity:1"/><stop offset=".84" style="stop-color:#181c4e;stop-opacity:1"/><stop offset=".98" style="stop-color:#000;stop-opacity:1"/></linearGradient><path d="M699.5 348.5v-14h-68v-27l23-14h72l-23 14h-47v13h69v28l-23 14h-71l23-14z" style="fill:url(#h)" transform="translate(-24.5 -231.5)"/></svg>