<svg xmlns="http://www.w3.org/2000/svg" xml:space="preserve" id="Layer_1" x="0" y="0" style="enable-background:new 0 0 3839 2037.4" version="1.1" viewBox="0 0 3839 2037.4"><defs id="defs123"><linearGradient id="path2852_2_" x1="5518.937" x2="5524.644" y1="1962.726" y2="1962.726" gradientTransform="matrix(0 125.8848 239.3265 0 -468793.38 -693992.44)" gradientUnits="userSpaceOnUse"><stop id="stop98" offset="0" style="stop-color:#f7ed18"/><stop id="stop100" offset="1" style="stop-color:#f4134b"/></linearGradient><linearGradient id="path2694_2_" x1="5504.286" x2="5509.993" y1="1974.321" y2="1974.321" gradientTransform="matrix(661.2057 0 0 -176.4121 -3639432.7 349830.31)" gradientUnits="userSpaceOnUse"><stop id="stop48" offset="0" style="stop-color:#002f9e"/><stop id="stop50" offset=".401" style="stop-color:#2b89a2"/><stop id="stop52" offset="1" style="stop-color:#fff"/></linearGradient><linearGradient id="path2824_2_" x1="5519.031" x2="5524.738" y1="1956.244" y2="1956.244" gradientTransform="matrix(0 125.8851 146.2225 0 -284020.94 -693994.5)" gradientUnits="userSpaceOnUse"><stop id="stop82" offset="0" style="stop-color:#f7ed18"/><stop id="stop84" offset="1" style="stop-color:#f4134b"/></linearGradient><linearGradient id="path2796_2_" x1="5519.034" x2="5524.741" y1="1964.863" y2="1964.863" gradientTransform="matrix(0 125.8848 175.5626 0 -342029.31 -693992.44)" gradientUnits="userSpaceOnUse"><stop id="stop68" offset="0" style="stop-color:#f7ed18"/><stop id="stop70" offset="1" style="stop-color:#f4134b"/></linearGradient><defs id="defs93"><path id="SVGID_33_" d="M1593.5 434.6c-28.8 113.1-62.9 288.3-64.4 426.3-1.2 102.7-6 287.9.5 385.5 35.8 6 59.1 27.1 60.1 49.9 1.9 39-30.9 47.1-53.6 56.1 4.9 109.7 14.6 191 57.4 283.1 17.3 30.3 17.6 61.1-17.3 80.2-47.7 26-49.9-15.2-112.7-6.5-18.2 2.5-65-4.3-97.5-56.4-43.2-69.1-47.7-177.7-75.9-296.9-147.4 0-208.1 69.4-461.7 43.3-41.2 54.2-68.8 96.3-138.7 195.1-99.7 140.9-143.7 209.1-205.9 244.9-71.5 41.2-130 32.5-174.5 27.4-18.6-2.2-42.2-38.2-24.9-62 119.2-163.9 221.1-275.3 318.6-405.3 0 0-218.9 30.3-240.1-43.9-19.2-67.5 71-77.5 105.7-118.7 50.6-60.1 136.6-23.8 247.1-26 119.2-147.4 253.6-299.1 379.3-437.8 160.8-177.4 407.4-475.9 455.2-472.5 60.6 4.1 57.3 78.9 43.3 134.2zm-253.6 323c-138.7 151.7-273.1 307.8-396.7 466 114.9-4.3 184.2 21.7 338.1 15.2 4.3-166.5 23.9-320.8 58.6-481.2"/></defs><defs id="defs43"><path id="SVGID_36_" d="M1260.4 1212.3c404.8-63.4 590.1-82.9 1350.9-126.8 760.3-43.9 1097.3 53.6 1146.1 63.4 48.8 9.8 68.3 35.8 30.7 43.6-134.7 28.1-806.1 73.4-1347.5 195.4-197.9 44.6-741.3 156.1-1107.1 248.7-423.1 107.2-897.3 297.5-970.5 326.8-73.2 29.3-136.6 63.4-158.8 27-49.8-81.3-187.4-241.6-171.7-445.9 2.7-34.8 236.7-96.9 335.4-127.3 253.6-78.1 487.7-141.5 892.5-204.9"/></defs><defs id="defs77"><path id="SVGID_34_" d="M2164.1 865.9c7.6 15.2 5.6 34.2 14.6 50.4 8.1 14.6-31.3 115.2-43.9 162.6-14.6 55.3-36.3 132.8-36.3 132.8s81.1-108 117.6-153.9c43.9-55.3 120.1-132.2 151.2-126.8 65 11.4 5.7 150.2-8.3 215.3-15.9 40.6-54.7 132.9-30.9 135.7 29.5 3.5 35.8-41.6 54.9-24.6 33.1 29.7-74.8 113.8-93.7 101.2-17.1-11.4-40.6 17.9-63.4-13-20.1-27.2-14.9-65.3 21.9-152s63.1-170.4 63.1-170.4-51.9 55.7-112.7 143.1c-69.4 99.7-110.5 158.2-156.1 169.1-7.3 1.7-14.7-.8-21.4-5.1-17.4-11.1-25.6-32.3-22.4-52.7 5-31.4 14.2-85.8 24.3-126.5 15.2-60.7 32.5-125.7 52-177.7-156.8 171.6-301.2 401.2-372.4 512.7-3.1 4.9-7.9 8.4-13.6 9.8-11.9 3.1-23 5.6-34.8 7.5-14.1 2.3-27.3-8.2-27.4-22.4-.2-50.4 23.8-31.2 42.8-65.5 35-63.1 351.1-480.1 437.8-549.5 30.7-24.5 47.3-19.6 57.1-.1"/></defs><defs id="defs63"><path id="SVGID_35_" d="M2856.4 801.2c14.6 113.8-30.9 173.9-102.4 279.6-39 57.6-141.4 159.3-141.4 159.3s212.9-91.2 373.9-143.1c141.4-45.5 338.1-82.9 360.9-84.5 69.9-4.9 63.4 17.9 6.5 42.3-34.5 14.8-269.9 107.3-442.2 177.2-189.7 77-383.6 185.3-419.4 172.3-4.7-1.7-9.3-4.1-13.7-7-39.8-26.1-44-83.1-12.3-118.5 37.4-41.8 104.7-95.1 203.2-212.6 90.4-107.8 95.7-233.7-19.5-216.2-74.8 11.4-120.3 97.5-144.7 107.3-27.5 11-55.5-11.6-52-35.8 3.3-22.8 52-56.9 69.9-99.2C2539.8 783 2598 703.6 2715 702c86.1-1.1 133.9 40.8 141.4 99.2"/></defs></defs><style id="style2" type="text/css">.st0{fill:#fff}.st1{fill:#f4134b}</style><g id="g896"><path id="path10" d="M3607.9 939.1h-28.6v-14.3h78.1v14.3h-28.6v63.1h-21v-63.1z" class="st0" style="fill:#010101;fill-opacity:1"/><path id="path12" d="M3668.3 924.8h29.5l22.3 53.2h.3l21.1-53.2h29.5v77.4h-19.6v-54.8h-.3l-23.4 54.8h-16.2l-23.4-54.3h-.3v54.3h-19.6v-77.4z" class="st0" style="fill:#010101;fill-opacity:1"/><g id="g3449" transform="translate(-23.295 68.94)"><path id="path94" d="M1384.04 620.481H811.88c-51.463 0-90.587-15.179-115.706-44.167v44.167H507.607c-68.845 0-115.363-27.224-136.173-77.904-6.708 11.458-15.032 22.133-24.972 32.122-30.212 30.456-64.978 45.782-103.367 45.782H41.455v-178.43H86.21c-29.722-30.212-44.755-66.936-44.755-109.144 0-42.404 15.327-79.275 45.538-109.585 30.163-30.505 64.978-45.782 103.17-45.782h201.788v44.117c25.119-28.987 64.242-44.117 115.656-44.117h188.566v44.117c25.12-28.987 64.243-44.117 115.706-44.117h188.517v207.858l53.078-145.868.784-1.47c25.12-50.14 64.194-60.52 92.74-60.52 46.273 0 79.716 22.573 94.161 63.9z" style="fill:#fff;fill-opacity:1;fill-rule:nonzero;stroke:none;stroke-width:48.9655"/><g id="g96" transform="matrix(48.9655 0 0 -48.9655 137.324 332.853)"><path id="path98" d="M0 0c0 .33.119.615.356.855.237.241.568.361.995.361h3.241V.135H1.351c-.18 0-.27-.045-.27-.135 0-.09.09-.135.27-.135h.81c.618 0 1.178-.251 1.679-.752a2.469 2.469 0 0 0 .752-1.814c0-.703-.25-1.306-.752-1.81-.501-.505-1.061-.757-1.679-.757h-3.512v1.081h3.242c.498 0 .893.147 1.184.441.291.294.437.642.437 1.045 0 .408-.146.758-.437 1.049-.291.291-.686.436-1.184.436h-.54c-.427 0-.758.119-.995.356A1.172 1.172 0 0 0 0 0m-1.351 0c0 .702.251 1.306.752 1.81s1.061.756 1.68.756h3.511v-1.08H1.351c-.499 0-.893-.147-1.184-.441A1.435 1.435 0 0 1-.27 0c0-.408.145-.758.437-1.049.291-.291.685-.437 1.184-.437h.54c.426 0 .758-.118.995-.355.237-.238.356-.524.356-.86 0-.331-.119-.616-.356-.856s-.569-.36-.995-.36h-3.242v1.081h3.242c.18 0 .27.045.27.135 0 .09-.09.135-.27.135h-.81c-.619 0-1.179.25-1.68.752A2.473 2.473 0 0 0-1.351 0" style="fill:#174b9a;fill-opacity:1;fill-rule:nonzero;stroke:none"/></g><g id="g100" transform="matrix(48.9655 0 0 -48.9655 454.777 405.606)"><path id="path102" d="M0 0h3.512v-1.081H1.081c0-.18.09-.27.27-.27h2.971v-1.08H1.081C.36-2.431 0-2.071 0-1.351Zm0 .27v1.351c0 .72.36 1.08 1.081 1.08h3.241v-1.08H1.351c-.18 0-.27-.09-.27-.27h2.431V.27Zm-1.351 1.351c0 1.621.811 2.431 2.432 2.431h3.241V2.971H1.081c-.901 0-1.351-.45-1.351-1.35v-2.972c0-.9.45-1.35 1.351-1.35h3.241v-1.081H1.081c-1.621 0-2.432.811-2.432 2.431z" style="fill:#174b9a;fill-opacity:1;fill-rule:nonzero;stroke:none"/></g><g id="g104" transform="matrix(48.9655 0 0 -48.9655 759.006 326.238)"><path id="path106-3" d="M0 0c0 .72.36 1.081 1.081 1.081h3.241V0H1.351c-.18 0-.27-.09-.27-.27v-2.431c0-.18.09-.27.27-.27h.54v.27h-.54v1.08h1.62v-2.431h-1.89C.36-4.052 0-3.692 0-2.971Zm-1.351 0c0 1.621.811 2.431 2.432 2.431h3.241v-1.08H1.081C.18 1.351-.27.9-.27 0v-2.971c0-.901.45-1.351 1.351-1.351h2.161v2.971H1.351V-.27h2.971v-5.133H1.081c-1.621 0-2.432.811-2.432 2.432z" style="fill:#174b9a;fill-opacity:1;fill-rule:nonzero;stroke:none"/></g><g id="g108" transform="matrix(48.9655 0 0 -48.9655 1147.008 410.013)"><path id="path110-6" d="m0 0-.495-1.261h.99zm-.675-2.341v.585l-.766-1.936h-1.08L-.18 2.611c.03.12.09.18.18.18s.15-.06.18-.18l1.891-4.952zm0-.27h3.196L.36 2.881c-.06.121-.18.181-.36.181-.15 0-.27-.06-.36-.181l-2.431-6.573h-1.081l2.521 6.934c.3.6.751.9 1.351.9.69 0 1.141-.3 1.351-.9l2.611-6.934H-.675z" style="fill:#174b9a;fill-opacity:1;fill-rule:nonzero;stroke:none"/></g></g><path id="path2658_17_" d="M2228.6 435.7c75.1 77.4 255.6 344.6 294.6 520.1 43.2 194.3 13 628.6 13 628.6l99.3 30.5 93.6-30.5s-32.5-470.3-119.2-697.9c-44-115.5-121.4-288.3-314.2-450.8-54.2-55.8-62.8-31.5-67.1 0z" style="fill:#aa9644;fill-opacity:1"/><path id="path2660_17_" d="M2367.1 91c58.5-4.3 145.2 10.8 166.9 104 62.9 30.3 114.3 55.9 154.4 110 49.8 67.2 32 147.9 21 185l-51.9-68c4.9-29.3-10.9-60.4-10.9-60.4s-20 24.7-29.6 36.1c-22.4-16.6-67.8-44.6-68.4-43.9 24.4 118.7 43.9 203.2-8.1 274.7l-11.4-37.4c1.6-26 8.1-69.9 8.1-69.9l-35.8 32.5-17.9-21.1c14.6-29.3 9.2-73.2 9.2-73.2l-46.6 35.8-22.8-23.8c5.4-31.4-8.7-67.2-8.7-67.2l-34.7 42.3c-34.7-14.1-87.8-17.3-155-4.3-35.4 6.8-108.4 31.4-137.6 44.4l-37.9-36.8s-4.3 33.6 3.2 70.4l-32.7 52.5-39.3-23.1s.5 54 23.2 79l-3.7 26.4-32-17.7s0 46.6 26 75.9l-2.2 63.9c-48.8-9.8-101.2-70.1-107.3-160.4-7.6-111.6 59.6-195.1 59.6-195.1s-39 4.3-79.1 39l-45.5-32.5s-6.5 27.1 8.7 69.4l-36.8 70.4-42.3-32.5s-10.8 24.9 20.6 83.5l-16.7 65.7c-61.1-60.8-85.6-164.6-53.7-255.4 28.2-80.2 65-136.6 140.9-190.7-4.3-43.4 21.7-78 58.5-93.2 81.9-33.7 143.1-6.5 186.4 28.2 2.2-39-13-123.6 114.9-138.7C2338.8 18.2 2365 65 2367.1 91z" style="fill:#199a40;fill-opacity:1"/><path id="path2662_17_" d="M3086.1 1742.6H1781.5c246-107.4 509-164.2 763.6-172.6h187.3c120 10.4 263.1 100.9 353.7 172.6z" style="fill:#d4bf7c;fill-opacity:1"/><path id="path2664_17_" d="M2236.5 441.6c26 11.4 53.6 81.3 34.1 133.3-11.5 30.6-35.9 62.7-86.2 52-53.6-11.4-79.3-62.8-66.7-105.7 16.4-55.2 78.3-97.3 118.8-79.6z" class="st1" style="fill:#f4134b;fill-opacity:1"/><path id="path40" d="M2253.3 31.3c92.5 0 112 37.5 113.8 59.8 5.7-.4 11.6-.7 17.8-.7 57 0 129.6 20.5 149.1 104.7 62.9 30.3 114.3 55.9 154.4 110 49.9 67.2 32 147.9 21 185l-51.9-68c4.9-29.3-10.9-60.4-10.9-60.4s-20 24.7-29.6 36.1c-22.2-16.4-66.7-43.9-68.4-43.9 24.4 118.7 43.9 203.2-8.1 274.7l-11.4-37.4c1.6-26 8.1-69.9 8.1-69.9l-35.8 32.5-17.9-21.1c14.6-29.3 9.2-73.2 9.2-73.2l-46.6 35.8-22.8-23.8c5.4-31.4-8.7-67.2-8.7-67.2l-34.7 42.3c-19.7-8-45.4-12.5-76.3-12.5-3.2 0-6.4 0-9.7.1.6.6 1.1 1 1.6 1.6 192.8 162.5 270.2 335.3 314.2 450.8 77.7 204.1 111.9 603 118.1 683.4h4.4c120 10.5 263 101 353.7 172.6H1781.5c243.4-106.3 503.5-162.9 755.6-172.3 4.7-75.7 24.7-440.8-13.9-614.4-33.6-151.3-172.3-370.5-258-477.7 11.8 27.6 17.3 65.4 5.5 96.8-9.9 26.5-29.6 54.1-67.3 54.1-5.8 0-12.1-.7-18.9-2.1-53.6-11.4-79.3-62.8-66.6-105.7 7.1-24.2 22.9-45.8 41.9-61.1-28.3 9.1-56.6 19.4-72.3 26.4l-37.9-36.8s-4.3 33.6 3.3 70.4l-32.7 52.5-39.3-23.1s.5 54 23.2 79l-3.7 26.4-32-17.7s0 46.6 26 75.9l-2.2 63.9c-48.8-9.8-101.2-70.1-107.3-160.4-7.6-111.6 59.6-195.1 59.6-195.1s-39 4.3-79.1 39l-45.5-32.5s-6.5 27.1 8.7 69.4l-36.8 70.4-42.3-32.5s-10.8 24.9 20.6 83.4l-16.7 65.7c-61.1-60.8-85.6-164.6-53.7-255.4 28.2-80.2 65-136.5 140.9-190.7-4.3-43.3 21.7-78 58.5-93.2 26.4-10.9 50.6-15.4 72.8-15.4 46.7 0 84.2 20.1 113.6 43.6 2.2-39-13-123.6 114.9-138.7 19.8-2.4 37.4-3.4 52.9-3.4m0-31.3c-17.3 0-36.4 1.2-56.8 3.6-59.6 7.1-101 29.4-123.1 66.4-9.5 16-14.2 32.7-16.6 48.4-27.5-13.2-56-19.9-85.1-19.9-27.6 0-56.1 6-84.7 17.8-46.6 19.2-75.8 59.8-78.2 106.6-33.5 25.6-60.5 52.8-82.1 82.9-22.6 31.5-40.6 67.4-56.7 113-17.4 49.5-20.5 103.4-9.1 155.9 11.1 51.1 36.1 98 70.2 132 5.9 5.9 13.9 9.1 22 9.1 2.8 0 5.6-.4 8.3-1.1 10.8-3 19.2-11.5 22-22.4l16.7-65.7c1.9-7.6 1-15.6-2.8-22.5-.9-1.7-1.8-3.4-2.6-5 1.2-.1 2.3-.3 3.5-.6 9-2 16.7-7.9 21-16l36.8-70.4c3.3-6.4 4.4-13.7 2.9-20.7 2 .4 4.1.6 6.2.6 2.4 0 4.8-.3 7.1-.8-12.7 35.2-22.1 78.9-18.8 127.7 3.3 48 18.3 91.7 43.5 126.6 24.3 33.6 55.9 55.7 88.8 62.3 2 .4 4.1.6 6.1.6 7 0 13.8-2.3 19.4-6.8 7.2-5.7 11.5-14.3 11.8-23.4l2.2-63.9c.3-8-2.5-15.8-7.9-21.8-2.2-2.5-4.2-5.3-5.9-8.3.9-.3 1.7-.7 2.5-1.1 9.2-4.6 15.6-13.4 17-23.6l3.7-26.4c1.3-9.2-1.6-18.6-7.9-25.5-1-1.1-1.9-2.4-2.8-3.8 8.9-1.2 17.3-6.2 22.4-14.5l32.7-52.5c3.6-5.7 5.2-12.4 4.6-19.1.8.1 1.6.2 2.4.2-6.8 28.3-2 58.9 13.3 84.6 17 28.4 44.7 48 78.2 55.1 8.7 1.8 17.2 2.8 25.4 2.8 25 0 47.7-8.8 65.5-25.6 13.1-12.3 23.6-28.7 31.1-48.8.6-1.7 1.3-3.5 1.8-5.3 78 113.8 166 269.9 190.9 382 34.1 153.6 21 466.5 14.9 577.6-119.8 6.1-240.2 22.6-358.4 49.3-130.9 29.5-258.8 71.3-380.1 124.3-13.6 5.9-21.1 20.5-18.1 35s15.8 24.9 30.6 24.9h1304.6c13.3 0 25.2-8.4 29.5-21 4.4-12.6.3-26.5-10.1-34.8-59.7-47.2-208.8-155-348.4-176.6-4.7-55.9-14.4-157.8-30.3-271.2-24.4-173.4-53.9-306.3-87.6-394.9-24.6-64.4-56.8-138.6-106-216.4.7.2 1.5.3 2.3.5 1.7.3 3.5.4 5.2.4 9.9 0 19.3-4.7 25.3-12.9 47.9-65.9 44-139.4 27.8-227.6 1.7 1.2 3.4 2.4 4.9 3.5 5.6 4.1 12.1 6.1 18.6 6.1 3.3 0 6.6-.5 9.7-1.5.9 4.9 2.9 9.6 5.9 13.6l51.9 68c6 7.8 15.2 12.3 24.9 12.3 1.9 0 3.8-.2 5.6-.5 11.6-2.1 21-10.6 24.3-21.9 24.6-83.1 15.7-156.6-25.8-212.6-42.4-57.2-96-85.6-153.2-113.4-12.5-39.1-37-69.7-71.5-89.1-34.1-19.3-71.7-24.3-98.9-24.8-6.1-12.1-15.4-22.9-27.3-31.6C2337.6 9.3 2300.8 0 2253.3 0ZM2387 477c1.9-.4 3.7-1 5.4-1.8.5 3.7 1.5 7.2 3.2 10.5-2.8-2.9-5.7-5.8-8.6-8.7zm116.7 138c-21.8-30.9-46.5-62.2-74.6-93.6 5.2 3.4 11.1 5.1 17.1 5.1 2.3 0 4.6-.3 6.9-.8-2.1 9.4.2 19.5 6.6 27.1l17.9 21.1c5.2 6.2 12.6 10.1 20.6 10.9-.1 1.5-.2 2.9-.3 4.4-.2 3.7.2 7.5 1.3 11.1z"/><path id="path2694_17_" d="M2995.215 1074.209c-113.684-.2-241.358 3.06-383.914 11.291-760.8 43.9-946.1 63.4-1350.9 126.8-404.8 63.4-638.9 126.8-892.5 204.9-98.7 30.4-332.701 92.5-335.401 127.3-15.7 204.3 121.9 364.6 171.7 445.9 22.2 36.4 85.6 2.3 158.8-27 73.2-29.3 547.4-219.6 970.5-326.8 365.8-92.6 909.2-204.1 1107.1-248.7 541.4-122 1212.8-167.3 1347.5-195.4 37.6-7.8 18.1-33.8-30.7-43.6-39.65-7.962-269.557-73.821-762.185-74.691z" clip-path="url(#SVGID_53_)" style="fill:url(#path2694_2_);clip-path:url(#SVGID_53_)"/><path id="path58" d="M2985.1 1074.2c499.5 0 732.4 66.7 772.3 74.7 48.8 9.8 68.3 35.8 30.7 43.6-134.7 28.1-806.1 73.4-1347.5 195.4-197.9 44.6-741.3 156.1-1107.1 248.7-423.1 107.2-897.3 297.5-970.5 326.8-50.6 20.2-96.4 42.8-127.3 42.8-13.8 0-24.6-4.5-31.5-15.8-49.8-81.3-187.4-241.6-171.7-445.9 2.7-34.8 236.6-97 335.4-127.3 253.6-78 487.7-141.4 892.5-204.8 404.8-63.4 590.1-82.9 1350.9-126.8 138.4-8.1 262.6-11.4 373.8-11.4m0-31.2c-118.9 0-245.2 3.8-375.6 11.3-407.4 23.5-626.9 38.7-810.1 56.2-194.8 18.6-341.4 39.3-543.8 71-388.2 60.8-622.8 121.5-896.8 205.8-16.1 4.9-36.3 10.9-57.7 17.2-55.8 16.4-125.3 36.9-181.3 57-31.7 11.4-55.6 21.3-73.1 30.5-21.3 11.2-43.4 25.9-45.3 50.1-3.3 43.2-.4 87.5 8.8 131.6 7.8 37.7 20.4 76.6 37.5 115.4 30.9 70.4 71.8 130.6 101.6 174.6 11.2 16.5 20.9 30.7 28.3 42.9 8.6 14 25.6 30.7 58.2 30.7 30.7 0 66.8-15.1 108.5-32.5 9.9-4.1 20.1-8.4 30.4-12.5l2.1-.9c164.5-65.8 587.9-229.2 964.4-324.6 264.5-67 617.3-142.8 874.8-198.2 94.9-20.4 176.8-38 231.4-50.3 368.5-83 794.6-130 1076.5-161.1 131.5-14.5 226.5-25 270.5-34.2 41.5-8.7 44.6-36.4 44.5-44.7-.1-28.2-28.4-50.7-75.5-60.1-3.4-.7-8.9-2-16-3.6-36.6-8.5-112.7-26.3-237.9-42.1-154.5-19.6-331-29.5-524.4-29.5z"/><path id="path2796_17_" d="M2715 702c-117 1.6-175.2 81-191.8 120.3-17.9 42.3-66.6 76.4-69.9 99.2-3.5 24.2 24.5 46.8 52 35.8 24.4-9.8 69.9-95.9 144.7-107.3 115.2-17.5 109.9 108.4 19.5 216.2-98.5 117.5-165.8 170.8-203.2 212.6-31.7 35.4-27.5 92.4 12.3 118.5 4.4 2.9 9 5.3 13.7 7 35.8 13 229.7-95.3 419.4-172.3 172.3-69.9 407.7-162.4 442.2-177.2 56.9-24.4 63.4-47.2-6.5-42.3-22.8 1.6-219.5 39-360.9 84.5-161 51.9-373.9 143.1-373.9 143.1s102.4-101.7 141.4-159.3c71.5-105.7 117-165.8 102.4-279.6-7.5-58.4-55.3-100.3-141.4-99.2z" clip-path="url(#SVGID_54_)" style="fill:url(#path2796_2_);clip-path:url(#SVGID_54_)"/><path id="path2824_17_" d="M2143.387 849.45c-9.213-.6-21.037 4.3-36.387 16.55-86.7 69.4-402.8 486.4-437.8 549.5-19 34.3-43 15.1-42.8 65.5.1 14.2 13.3 24.7 27.4 22.4 11.8-1.9 22.9-4.4 34.8-7.5 5.7-1.4 10.5-4.9 13.6-9.8 71.2-111.5 215.6-341.1 372.4-512.7-19.5 52-36.8 117-52 177.7-10.1 40.7-19.3 95.1-24.3 126.5-3.2 20.4 5 41.6 22.4 52.7 6.7 4.3 14.1 6.8 21.4 5.1 45.6-10.9 86.7-69.4 156.1-169.1 60.8-87.4 112.7-143.1 112.7-143.1s-26.3 83.7-63.1 170.4-42 124.8-21.9 152c22.8 30.9 46.3 1.6 63.4 13 18.9 12.6 126.8-71.5 93.7-101.2-19.1-17-25.4 28.1-54.9 24.6-23.8-2.8 15-95.1 30.9-135.7 14-65.1 73.3-203.9 8.3-215.3-31.1-5.4-107.3 71.5-151.2 126.8-36.5 45.9-117.6 153.9-117.6 153.9s21.7-77.5 36.3-132.8c12.6-47.4 52-148 43.9-162.6-9-16.2-7-35.2-14.6-50.4-4.9-9.75-11.5-15.85-20.713-16.45z" clip-path="url(#SVGID_55_)" style="fill:url(#path2824_2_);clip-path:url(#SVGID_55_)"/><path id="path90" d="M2141.9 849.4c10 0 17.1 6.2 22.2 16.5 7.6 15.2 5.6 34.2 14.6 50.4 8.1 14.6-31.4 115.2-43.9 162.6-14.6 55.3-36.3 132.8-36.3 132.8s81.1-108 117.6-153.9c42.4-53.4 115-127.1 147.9-127.1 1.1 0 2.2.1 3.3.3 47.4 8.3 28.7 84.3 9.7 150.1-11.8 40.7-25.1 80.9-39.5 120.8-13.9 38.7-24.9 78.3-9.5 80.1 1.1.1 2.2.2 3.2.2 22.3 0 30.6-28.6 43.4-28.6 2.5 0 5.3 1.1 8.3 3.9 30.8 27.6-60.6 102.5-88.6 102.5-2.1 0-3.8-.4-5.1-1.3-3.1-2.1-6.4-2.8-9.8-2.8-8.5 0-18.1 4.5-28.1 4.5-8.4 0-17-3.1-25.5-14.7-20.1-27.2-14.9-65.3 21.9-152s63.1-170.4 63.1-170.4-51.9 55.7-112.7 143.1c-69.4 99.7-110.5 158.2-156.1 169.1-1.6.4-3.2.6-4.8.6-5.7 0-11.4-2.3-16.6-5.6-17.4-11.1-25.6-32.3-22.4-52.7 5-31.4 14.2-85.8 24.3-126.5 15.2-60.7 32.5-125.7 52-177.7-156.8 171.6-301.2 401.3-372.4 512.7-3.1 4.9-8 8.4-13.6 9.8-11.9 3.1-23 5.6-34.8 7.5-1.3.2-2.6.3-3.9.3-12.5 0-23.4-9.8-23.5-22.8-.2-50.4 23.8-31.2 42.8-65.5 35-63.1 351.1-480.1 437.8-549.5 14.7-11.8 26-16.7 35-16.7m0-31.3c-16.8 0-34.6 7.6-54.2 23.4-53.7 43-175.6 195.3-243.4 282.3-94.8 121.5-183.6 242.9-202.2 276.4-3.6 6.5-6.4 8.2-12.3 11.8-6.8 4.1-17 10.4-24.5 23-6.8 11.6-10 26.2-9.9 45.9.1 29.7 24.7 53.9 54.8 53.9 3 0 6-.2 8.9-.7 11.8-1.9 23.4-4.4 37.6-8.1 13.3-3.4 24.7-11.7 32.1-23.3 3.1-4.8 6.3-9.8 9.6-15 57.4-90 153.3-240.4 262.9-379.1-3.1 11.8-6 23.4-8.8 34.8-10.6 42.5-20.2 99.2-24.9 129.2-5.3 33.5 9 66.4 36.5 83.9 10.9 7 22.2 10.5 33.5 10.5 4.1 0 8.1-.5 12-1.4 53.7-12.8 95.5-68.5 159.8-160.6-28.7 72-37.1 120.2-8.5 159 16.7 22.7 36.8 27.4 50.7 27.4 8.8 0 16.3-1.8 22.3-3.2 1.1-.3 2.4-.6 3.5-.8 5.2 2.4 11.1 3.6 17.2 3.6 24.3 0 53.7-20.6 69-32.8 15.1-12.1 42.1-36.4 52.6-64 8.8-23 4.2-45.5-12.2-60.3-10.9-9.8-21.9-11.8-29.2-11.8-4.3 0-8.2.6-11.7 1.7 6.5-19.1 34.4-100.9 39.6-118.9 8.2-27.8 17.4-59.4 22.3-88.4 6.7-39.6 4-67.5-8.6-87.7-9.7-15.6-24.8-25.6-43.6-28.9-2.8-.5-5.7-.7-8.7-.7-14.9 0-40.6 5.4-91.4 51.7-26.4 24-56.6 56.6-81 87.2-5.7 7.1-12.4 15.7-19.6 25.1 3.3-10.3 7-21.8 10.9-33.6 26.6-80.8 34.3-108.6 23.1-128.7-2.2-4-3.4-10.2-4.7-17.4-1.7-9.7-3.7-20.6-9.3-31.8-14.7-29.2-37.8-33.6-50.2-33.6z"/><path id="path2852_17_" d="M1550.2 300.4c-47.8-3.4-294.4 295.1-455.2 472.5-125.7 138.7-260.1 290.4-379.3 437.8-110.5 2.2-196.5-34.1-247.1 26-34.7 41.2-124.9 51.2-105.7 118.7 21.2 74.2 240.1 43.9 240.1 43.9-97.5 130-199.4 241.4-318.6 405.3-17.3 23.8 6.3 59.8 24.9 62 44.5 5.1 103 13.8 174.5-27.4 62.2-35.8 106.2-104 205.9-244.9 69.9-98.8 97.5-140.9 138.7-195.1 253.6 26.1 314.3-43.3 461.7-43.3 28.2 119.2 32.7 227.8 75.9 296.9 32.5 52.1 79.3 58.9 97.5 56.4 62.8-8.7 65 32.5 112.7 6.5 34.9-19.1 34.6-49.9 17.3-80.2-42.8-92.1-52.5-173.4-57.4-283.1 22.7-9 55.5-17.1 53.6-56.1-1-22.8-24.3-43.9-60.1-49.9-6.5-97.6-1.7-282.8-.5-385.5 1.5-138 35.6-313.2 64.4-426.3 14-55.3 17.3-130.1-43.3-134.2zm-210.3 457.2c-34.7 160.4-54.3 314.7-58.6 481.2-153.9 6.5-223.2-19.5-338.1-15.2 123.6-158.2 258-314.3 396.7-466z" clip-path="url(#SVGID_56_)" style="fill:url(#path2852_2_);clip-path:url(#SVGID_56_)"/><path id="path106" d="M1549.3 300.2h.8c60.7 4.3 57.4 79.1 43.3 134.4-28.8 113.1-62.9 288.3-64.4 426.3-1.2 102.7-6 287.9.5 385.4 35.8 6 59.1 27.1 60.1 49.9 1.9 39-30.9 47.1-53.7 56.1 4.9 109.7 14.6 191 57.4 283.1 17.3 30.3 17.6 61.1-17.3 80.2-11.8 6.4-20.7 8.7-28.6 8.7-20.8 0-33.2-16.5-67.3-16.5-5.1 0-10.7.4-16.9 1.2-2 .3-4.4.4-7.1.4-21.4 0-61.6-10.5-90.5-56.8-43.2-69.1-47.7-177.7-75.9-296.9-124.1 0-186.7 49.2-354.9 49.2-31.5 0-66.8-1.7-106.8-5.8-41.2 54.2-68.8 96.3-138.7 195.1-99.7 140.9-143.7 209.1-205.9 244.9-44.1 25.4-83.3 31.8-117.2 31.8-21.1 0-40.3-2.5-57.3-4.5-18.6-2.2-42.2-38.2-24.9-62 119.2-163.9 221.1-275.3 318.6-405.3 0 0-44.3 6.1-94.9 6.1-62 0-133.5-9.2-145.1-50-19.2-67.5 71-77.5 105.7-118.7 23.3-27.6 54-34.9 91.1-34.9 41.3 0 90.5 9 146.1 9 3.2 0 6.5 0 9.8-.1 119.2-147.4 253.6-299.1 379.3-437.8 160.2-176.4 405-472.5 454.7-472.5m-606.1 923.4c8.9-.3 17.6-.5 26-.5 88 0 152.7 16.7 263.3 16.7 15.3 0 31.5-.3 48.8-1 4.2-166.5 23.8-320.8 58.5-481.2-138.7 151.7-273 307.7-396.6 466m606.1-954.7c-24.4 0-56.6 18.9-149 115.7-60.6 63.5-133.6 146.6-204.2 226.9-44.5 50.6-86.5 98.4-124.3 140.2-98.4 108.6-242.8 269.8-371.1 427.6-26.6-.3-51.6-2.6-75.9-4.8-22.9-2.1-44.6-4.1-65.1-4.1-35.5 0-80.7 5.2-115 46-8.3 9.9-24.6 19.1-40.3 28-19.4 11-39.4 22.3-54.3 39.1-19.9 22.4-25.8 50.2-17.3 80.3 8.5 29.7 33.9 50.5 75.5 61.9 26.2 7.2 59.8 10.8 99.7 10.8 9.4 0 18.5-.2 27.2-.5-28.3 36-57.1 71.3-87 108.1-59.6 73.1-121.2 148.6-189.1 242-13.9 19.2-15.9 43.9-5.4 67.9 10.5 24 30.9 41.2 52 43.6l4.7.5c16.5 1.9 35.2 4.1 56.2 4.1 47.3 0 90.7-11.8 132.8-36 62-35.7 104-95.3 187.7-214.1 8.9-12.6 18.2-25.9 28.1-39.8 24.2-34.2 43.1-61.3 59.8-85.2 27-38.6 46-65.9 67.9-95.2 32.4 2.9 63.4 4.3 92.3 4.3 94.1 0 157.2-15 212.9-28.2 39.8-9.4 75-17.8 117.1-20.2 6.2 29 11.2 57.2 16.1 84.8 13.8 77.7 25.7 144.9 58.1 196.8 15.9 25.4 36.1 44.5 60.3 57 24.5 12.6 46.1 14.5 56.7 14.5 4 0 7.8-.2 11.3-.7 4.5-.6 8.7-.9 12.6-.9 12.8 0 20.4 3.2 30.1 7.3 9.7 4.1 21.8 9.2 37.2 9.2 13.8 0 28-4.1 43.5-12.5 27.6-15.1 38.2-35.3 42.3-49.6 6.2-22 2.1-47-12.1-72.3-36.4-78.7-47.6-149.8-52.9-247.9 9-3.9 18.5-9 27.1-16.4 17.9-15.4 26.7-36.9 25.5-62.1-1-20-10.9-39-28-53.6-9.4-8-20.7-14.5-33.4-19.1-3.6-79.7-1.6-201.9-.2-293.4.4-24.4.8-47.5 1-67.4 1.5-131.1 33.8-302.4 63.5-418.9 4.4-17.1 9.6-43.1 9.5-69.5-.1-29.3-6.6-53.2-19.3-70.9-14.2-19.7-35.5-31-61.6-32.9-1.2-.3-2.2-.4-3.2-.4zm-542 923.9c84.9-106.5 177.4-215.7 280.2-330.7-20.4 116.6-32.3 229.2-36.5 346.3-6.2.1-12.4.2-18.4.2-56.9 0-101.2-4.5-144-8.9-27.3-2.9-53.4-5.5-81.3-6.9z"/><path id="path110" d="M2718.5 702c83.9 0 130.5 41.6 137.9 99.2 14.6 113.8-30.9 173.9-102.4 279.6-39 57.6-141.4 159.3-141.4 159.3s212.9-91.2 373.9-143.1c141.4-45.5 338.1-82.9 360.9-84.5 6.5-.5 12.3-.7 17.4-.7 50.8 0 40.7 20.8-10.9 42.9-34.5 14.8-269.9 107.3-442.2 177.2-179.2 72.7-362.1 173.4-412 173.4-2.9 0-5.4-.3-7.4-1.1-4.7-1.7-9.3-4.1-13.7-7-39.8-26.1-44-83.1-12.3-118.5 37.4-41.8 104.7-95.1 203.2-212.6 84.7-101 94.7-217.9 1-217.9-6.3 0-13.2.5-20.5 1.6-74.8 11.4-120.3 97.5-144.7 107.3-4.9 2-9.9 2.9-14.7 2.9-21.9 0-40.2-18.8-37.4-38.6 3.3-22.8 52-56.9 69.9-99.2 16.6-39.3 74.8-118.7 191.8-120.3 1.2.1 2.4.1 3.6.1m0-31.2h-4c-57.6.8-110.4 19.1-152.6 52.9-42.2 33.7-61.3 71.7-67.5 86.5-7.3 17.2-22.9 34.7-36.6 50.1-17.4 19.6-32.5 36.5-35.4 56.8-2.5 17.7 3.1 36 15.3 50.1 13.3 15.4 32.6 24.2 53 24.2 9 0 17.8-1.7 26.3-5.1 14.8-5.9 26.6-19.1 43-37.3 23.5-26.2 55.8-62.2 94.8-68.1 5.6-.9 10.9-1.3 15.8-1.3 24.5 0 29.5 10.7 31.3 14.8 6.1 13.1 5 34.9-3 59.9-9.6 29.7-28.5 62.3-53.2 91.8-64.4 76.8-115.7 126.2-153.2 162.3-19.3 18.6-36.1 34.7-49.4 49.6-22.1 24.7-32.3 57.7-28 90.6 4 30.9 21 58.2 46.5 75 6.5 4.3 13.3 7.7 20.2 10.2 5.5 2 11.4 3 18.1 3 35 0 98-28.5 215.6-83.1 64.1-29.8 136.7-63.5 208.2-92.5 90.6-36.8 198.8-79.8 285.8-114.5 78.3-31.2 140.2-55.8 156.9-63 17.1-7.3 30.7-14.8 40.5-22.2 22.5-17.1 24.4-34.5 22-46.1-1.4-6.9-7.2-23.6-30.6-30.7-8.7-2.7-19.6-3.9-33.3-3.9-6 0-12.6.2-19.6.7-25 1.7-224.6 39.7-368.3 85.9-78.6 25.3-169.9 60.1-243 89.2 17.9-20.6 34.4-41.1 46-58.2 3.4-5.1 6.8-10.1 10.1-15 34.2-50.3 61.2-90.1 79-133.6 19.7-48.2 25.6-96.6 18.4-152.5-4.9-37.8-22.9-69.7-52.3-92.1-30.1-22.8-69.4-34.4-116.8-34.4z"/><path id="rect116" d="M2380.2 463.3h22.1v32.8h-22.1z"/><path id="path1897" d="M2236.5 441.6c26 11.4 53.6 81.3 34.1 133.3-11.5 30.6-35.9 62.7-86.2 52-53.6-11.4-79.3-62.8-66.7-105.7 16.4-55.2 78.3-97.3 118.8-79.6z" class="st1" style="fill:#f4134b;fill-opacity:1"/></g></svg>