<svg xmlns="http://www.w3.org/2000/svg" xml:space="preserve" width="322" height="66" version="1.0"><path d="M318.902 65.314h-.97l-1.953-5.889v5.889H315v-7.248h1.35l2.103 6.191 2.032-6.191h1.353v7.248h-.981v-5.889zM314.096 58.896h-2.322v6.418h-.98v-6.418h-2.325v-.83h5.627zM301.18 51.498h-13.367.451c-.22 0-.45-.227-.45-.453V7.48c0-6.645-4.587-8.835-11.114-4.908l-77.656 47.944c-3.005 1.887-4.057 4.001-3.306 5.587.601 1.359 2.323 2.34 5.707 2.34h72.101c.221 0 .37.152.37.303v6.115c0 .303.23.453.451.453h12.996c.23 0 .45-.15.45-.453v-5.965c0-.227.23-.453.451-.453h12.916c.3 0 .45-.227.45-.452v-6.04c0-.227-.15-.453-.45-.453zm-27.184-.453c0 .227-.229.453-.45.453H213.08c-.52 0-.75-.151-.82-.303-.08-.301.07-.527.45-.754l60.155-37.224c.38-.302 1.131-.226 1.131.604zM201.214.609l-42.133.076c-12.235 0-18.172 7.475-18.172 17.29V47.95c0 6.115-2.934 10.494-8.94 10.494H92.315c-.225 0-.45.152-.45.453v5.965c0 .303.225.529.45.529h44.157c12.246 0 18.253-7.626 18.253-17.441V17.974c0-6.115 2.854-10.494 8.941-10.494h37.547c.23 0 .451-.228.451-.454V1.062a.48.48 0 0 0-.45-.453zM76.77.684H.614c-.3 0-.45.151-.45.378v5.964c0 .302.15.454.45.454h71.574c6.084 0 8.938 4.379 8.938 10.494 0 6.116-2.854 10.495-8.938 10.495H15.56C6.772 28.469.163 35.944.163 45.76v19.102c0 .303.15.529.451.529h12.918c.225 0 .451-.227.451-.529V45.759c0-6.115 3.454-10.344 8.486-10.344h54.302c12.24 0 18.174-7.55 18.174-17.441 0-9.815-5.933-17.29-18.174-17.29z"/></svg>