<svg xmlns="http://www.w3.org/2000/svg" xml:space="preserve" width="566.929" height="185.058"><path d="M103.245 160.91c5.332 0 8.531-1.087 8.531-6.156 0-3.752-2.327-5.759-7.658-5.759H96.75v11.915h6.495zm-9.306 15.655v-29.984h10.955c7.755 0 9.792 3.877 9.792 8.375 0 6.7-6.01 8.366-11.537 8.366H96.75v13.242l-2.81.001M118.465 176.565h2.424v-29.984h-2.424v29.984zM141.247 165.232c-2.132.872-4.362 1.047-6.494 1.213-3.782.29-6.107 1.666-6.107 4.575 0 2.637 2.327 3.878 4.654 3.878 3.974 0 7.95-1.92 7.95-6.292l-.003-3.374zm-4.265-1.24c.97-.088 2.521-.34 3.296-.719.873-.369.97-1.492.97-2.238 0-2.54-1.552-4.372-5.429-4.372-3.393 0-5.816 1.124-6.302 4.867h-2.52c.387-5.08 4.167-7.126 8.918-7.126 4.362 0 7.756 1.716 7.756 6.708v11.741c0 1.957.581 2.414 2.617 1.666v1.96c-.29.125-1.163.415-1.938.415-.389 0-.679-.038-1.066-.125-1.745-.242-2.037-1.706-2.037-3.21-2.037 2.338-4.944 3.588-8.046 3.588-3.78 0-7.175-2.046-7.175-6.204 0-3.616 2.521-5.826 7.562-6.495l3.394-.457M149.875 182.43c.68.126 1.356.262 2.036.262 2.91 0 3.296-4.09 4.265-5.962l-8.434-21.735h2.812l6.98 18.536 6.882-18.536h2.715l-8.047 21.28c-2.037 5.408-3.393 8.783-6.883 8.783a9.77 9.77 0 0 1-2.327-.29v-2.338M173.044 167.608c.485 5.37 3.976 7.328 8.628 7.328 5.332 0 7.562-2.906 7.562-6.204 0-9.287-18.226-3.12-18.226-14.899 0-4.17 3.393-8.038 10.18-8.038 6.688 0 10.081 4.072 9.984 8.96h-2.617c0-4.588-3.587-6.545-7.368-6.545-5.817 0-7.853 3.538-7.368 6.621 1.26 7.736 18.323 2.161 18.323 13.775 0 5.508-4.072 8.746-10.955 8.746-6.302 0-10.955-3.238-10.955-9.743h2.812M205.134 176.644c-.582.125-1.648.504-2.909.504-2.424 0-3.78-1.086-3.78-4.294v-15.783h-3.104v-2.074h3.103v-6h2.521v6h3.975v2.074h-3.975v14.785c0 2.133 0 3.043 2.132 3.043.68 0 1.356-.126 2.037-.29v2.035M223.842 165.232c-2.132.872-4.264 1.047-6.398 1.213-3.78.29-6.107 1.666-6.107 4.575 0 2.637 2.327 3.878 4.655 3.878 3.974 0 7.851-1.92 7.851-6.292v-3.374zm-4.168-1.24c.873-.088 2.425-.34 3.297-.719.776-.369.872-1.492.872-2.238 0-2.54-1.454-4.372-5.332-4.372-3.489 0-5.816 1.124-6.3 4.867h-2.522c.387-5.08 4.168-7.126 8.821-7.126 4.364 0 7.853 1.716 7.853 6.708v11.741c0 1.957.486 2.414 2.62 1.666v1.96c-.39.125-1.263.415-1.94.415-.388 0-.775-.038-1.164-.125-1.648-.242-1.939-1.706-1.939-3.21-2.134 2.338-4.943 3.588-8.046 3.588-3.78 0-7.27-2.046-7.27-6.204 0-3.616 2.52-5.826 7.561-6.495l3.49-.457M241.1 176.644c-.58.125-1.649.504-2.908.504-2.423 0-3.78-1.086-3.78-4.294v-15.783h-3.007v-2.074h3.006v-6h2.521v6h3.975v2.074h-3.975v14.785c0 2.133 0 3.043 2.132 3.043.678 0 1.358-.126 2.037-.29v2.035M248.565 176.565h-2.425v-21.569h2.425v21.57zm-2.619-26.283v-3.7h2.812v3.7h-2.812M263.3 156.663c-5.235 0-7.27 4.45-7.27 9.112 0 5.371 2.52 9.122 7.27 9.122 5.234 0 7.368-4.498 7.368-9.122 0-5.08-2.036-9.112-7.368-9.112zm-9.985 9.111c0-6.28 3.393-11.37 9.985-11.37 6.785 0 10.082 5.04 10.082 11.37 0 6.837-3.975 11.372-10.082 11.372-5.429-.086-9.985-3.829-9.985-11.372M279.393 176.565h-2.52v-21.569h2.52v2.995c1.938-2.123 3.975-3.587 6.883-3.587 2.714 0 5.041.833 6.592 3.083 1.065 1.551 1.163 3.17 1.163 4.953v14.124h-2.52v-14.076c0-3.867-1.648-5.826-5.624-5.826-3.103 0-5.235 1.997-6.01 4.197-.486 1.377-.486 2.59-.486 4.092v11.614M303.822 169.557c-.29-.136-.678-.204-1.259-.204h-.777v1.997h.875c.386 0 .774-.038.968-.114.387-.155.582-.446.582-.873 0-.399-.195-.67-.389-.806zm-1.066-.883c.68 0 1.164.06 1.551.194.582.243.775.708.775 1.416 0 .494-.098.853-.484 1.086-.195.126-.484.214-.775.271.387.067.678.262.871.553.195.301.291.593.291.873v.407c0 .135 0 .281.098.418v.367h-.873v-.127l-.096-.173v-.447c0-.658-.195-1.086-.486-1.289-.193-.126-.58-.184-1.066-.184h-.774v2.22h-.97v-5.584h1.94zm-3.004-.29c-.873.853-1.262 1.89-1.262 3.091 0 1.232.39 2.27 1.262 3.123.872.863 1.841 1.29 3.103 1.29 1.261 0 2.23-.427 3.102-1.29.873-.854 1.262-1.89 1.262-3.123 0-1.2-.389-2.238-1.262-3.09-.872-.855-1.84-1.282-3.102-1.282-1.262 0-2.23.426-3.103 1.281zm6.69 6.687c-.97.99-2.23 1.493-3.587 1.493-1.359 0-2.619-.504-3.587-1.493-.97-.988-1.455-2.19-1.455-3.597 0-1.386.484-2.588 1.455-3.567.968-.998 2.228-1.483 3.587-1.483 1.356 0 2.616.484 3.586 1.483.97.97 1.455 2.172 1.455 3.567 0 1.41-.487 2.61-1.455 3.597M324.956 160.91c5.332 0 8.628-1.087 8.628-6.156 0-3.752-2.423-5.759-7.755-5.759h-7.369v11.915h6.496zm-9.305 15.655v-29.984h10.956c7.755 0 9.79 3.877 9.79 8.375 0 6.7-5.915 8.366-11.536 8.366h-6.4v13.242l-2.81.001M347.544 156.663c-5.234 0-7.366 4.45-7.366 9.112 0 5.371 2.616 9.122 7.366 9.122 5.237 0 7.37-4.498 7.37-9.122-.098-5.08-2.037-9.112-7.37-9.112zm-9.984 9.111c0-6.28 3.296-11.37 9.984-11.37 6.787 0 9.987 5.04 9.987 11.37 0 6.837-3.976 11.372-9.987 11.372-5.525-.086-9.984-3.829-9.984-11.372M363.735 176.565h-2.52v-21.569h2.52v4.043h.098c1.354-3.462 3.392-4.634 6.98-4.634v2.715c-5.624-.126-7.076 4.033-7.076 8.861v10.584M384.773 176.644c-.582.125-1.648.504-2.813.504-2.519 0-3.878-1.086-3.878-4.294v-15.783h-3.005v-2.074h3.005v-6h2.521v6h4.071v2.074h-4.07v14.785c0 2.133.097 3.043 2.131 3.043.682 0 1.455-.126 2.037-.29v2.035M402.706 165.232c-2.133.872-4.265 1.047-6.398 1.213-3.782.29-6.107 1.666-6.107 4.575 0 2.637 2.327 3.878 4.652 3.878 3.976 0 7.854-1.92 7.854-6.292v-3.374zm-4.169-1.24c.871-.088 2.423-.34 3.296-.719.777-.369.873-1.492.873-2.238 0-2.54-1.455-4.372-5.332-4.372-3.489 0-5.817 1.124-6.3 4.867h-2.522c.387-5.08 4.17-7.126 8.822-7.126 4.363 0 7.853 1.716 7.853 6.708v11.741c0 1.957.484 2.414 2.618 1.666v1.96c-.389.125-1.262.415-1.938.415-.389 0-.777-.038-1.164-.125-1.647-.242-1.938-1.706-1.938-3.21-2.133 2.338-4.944 3.588-8.049 3.588-3.779 0-7.27-2.046-7.27-6.204 0-3.616 2.52-5.826 7.561-6.495l3.49-.457M422.483 174.897c4.17 0 7.271-3.043 7.37-8.452.191-5.41-2.23-9.782-7.37-9.782-4.557 0-7.27 4.158-7.27 9.026-.002 5.214 2.52 9.208 7.27 9.208zm-7.272 1.668h-2.52v-29.984h2.52v11.865c1.553-2.618 4.653-4.043 7.66-4.043 6.59 0 9.597 5.38 9.597 11.42 0 6.36-2.714 11.323-9.694 11.323-2.812 0-6.01-1.54-7.56-4.372v3.791M437.995 176.565h2.52v-29.984h-2.52v29.984zM462.23 164.273c0-4.198-2.326-7.61-6.785-7.61-4.46 0-6.787 3.538-7.27 7.61h14.055zm-14.057 2.093c0 4.654 2.521 8.532 7.271 8.532 3.2 0 5.816-1.794 6.494-4.953h2.812c-1.26 4.07-3.78 7.203-9.306 7.203-6.885 0-9.89-4.915-9.89-11.282 0-6.293 3.685-11.46 9.89-11.46 5.914 0 9.501 4.217 9.501 11.961h-16.772M0 0h176.632v52.38H6.98v45.4H0V45.4h169.652V6.98H0V0M397.278 52.38v45.4h-6.98V45.4h169.65V6.98h-169.65V0H566.93v52.38H397.28M266.693 0v90.798h-90.06v6.981h97.427V6.98h90.063V0h-97.43"/></svg>