<svg xmlns="http://www.w3.org/2000/svg" xml:space="preserve" width="566.931" height="154.093" enable-background="new -0.003 -0.001 566.931 154.093" viewBox="-0.003 -0.001 566.931 154.093"><defs><filter id="a" width="1.177" height="1.371" x="-.089" y="-.185" style="color-interpolation-filters:sRGB"><feGaussianBlur stdDeviation=".757"/></filter></defs><path d="M-2847.202 1179.207c-.687-.405-2.357-1.808-3.71-3.12-2.945-2.853-3.877-3.168-5.532-1.87-1.03.807-1.193 1.19-1.108 2.586.054.901-.058 1.639-.245 1.639-.735 0-2.96-2.68-3.952-4.759-2.026-4.248-2.356-8.306-.78-9.574.441-.356 1.612-.506 3.488-.451 3.974.116 6.039 1.308 10.635 6.138 3.832 4.028 4.402 4.328 6.64 3.504 1.468-.54 1.607-1.691.694-5.764-.886-3.945-1.733-6.16-2.637-6.886-.488-.393-.745-.244-1.427.825-.458.716-1.386 1.817-2.064 2.444l-1.23 1.141-4.208-2.52c-2.314-1.385-5.66-3.086-7.435-3.78-1.774-.693-3.39-1.42-3.59-1.613-.527-.51-.49-1.744.207-6.861.845-6.232.864-22.932.04-25.181-.322-.873-.592-1.713-.595-1.868-.041-.454 1.922-2.129 7.15-6.2 4.562-3.552 9.73-8.224 11.333-10.244 1.095-1.379 2.237-.763 3.63 1.957 1.777 3.472 3.778 6.034 8.267 10.588 2.194 2.226 3.99 4.37 3.99 4.763 0 .393-.49 1.025-1.087 1.404l-1.087.69.277 8.378c.153 4.607.451 10.161.663 12.342.622 6.425.51 14.01-.24 16.485-2.323 7.63-8.237 14.783-13.358 16.152-1.194.32-1.695.257-2.713-.343zm3.426-40.223c0-14.127-.042-14.295-.95-16.142-.916-1.803-3.348-4.28-4.201-4.28-.228 0-.72.669-1.09 1.487-.572 1.263-.697 3.576-.83 15.366l-.156 13.88 1.07 1.385c1.325 1.717 3.312 2.794 4.927 2.673l1.228-.095zm-226.821 30.12c-.497-.334-1.495-1.451-2.218-2.478-1.926-2.73-6.346-6.932-8.93-8.49-3.618-2.183-9.456-3.862-11.608-3.338-2.348.571-3.224 2.693-2.343 5.674.463 1.561-.202 1.937-1.717.973-3.424-2.176-7.248-9.653-7.249-14.173 0-3.901.527-4.838 3.441-6.119 4.718-2.073 8.33-2.343 15.96-1.192 3.424.516 4.053.351 5.133-1.341 1.54-2.415 1.305-2.718-3.56-4.593-13.233-5.102-21.616-11.607-23.587-18.302-.908-3.083-.835-4.34.431-7.406 2.645-6.41 7.74-13.457 22.123-30.603l2.828-3.37 2.708-.12c2.206-.095 3.49.136 6.928 1.249 2.322.75 5.054 1.716 6.07 2.144 5.976 2.52 11.42 3.55 13.383 2.533.482-.248 3.454-4.387 3.935-5.042 1.2-1.632 3.063-2.034 4.712-.215 2.978 4.523-3.618 19.597-8.727 26.596-1.275 1.676-1.305 2.568-.112 3.376 8.053 5.458 10.369 7.188 13.003 9.714 1.712 1.641 3.89 4.255 4.84 5.807 2.363 3.862 2.813 6.384 2.168 12.158-.895 8.008-2.88 13.055-6.28 15.963-9.622 8.228-22.731 17.808-27.634 20.195-2.435 1.184-2.522 1.194-3.698.397zm18.834-17.053c1.702-1.21 3.201-2.471 3.332-2.801.31-.788-.78-2.794-2.147-3.948-.598-.505-2.196-1.446-3.55-2.09-2.349-1.117-4.244-1.718-13.444-4.262l-4.038-1.116-1.589 1.65c-1.622 1.685-2.036 3.211-1.077 3.974.281.224 1.487.715 2.679 1.092 3.174 1.002 10.73 6.016 13.345 8.855 1.347 1.463 3.018 1.115 6.489-1.354zm11.105-13.7c.638-3.868-1.034-7.266-5.84-11.87-3.99-3.821-8.855-6.848-12.154-7.564-2.664-.578-3.15-.402-4.455 1.6-1.472 2.26-1.37 3.297.406 4.118.795.368 1.785.668 2.2.668 1.655 0 9.574 3.715 12.522 5.874 1.589 1.163 2.458 2.278 4.009 5.142 1.088 2.011 2.219 3.656 2.512 3.656.306 0 .646-.688.8-1.624zm-30.65-16.92c1.22-.868 3.068-3.419 3.068-4.236 0-1.232-2.58-2.47-6.642-3.189-3.948-.697-6.023-1.37-9.845-3.189-3.947-1.88-9.607-6.228-10.671-8.199-1.06-1.962-2.084-1.496-2.454 1.119-.348 2.45.708 4.216 4.73 7.918 2.672 2.459 8.98 6.51 10.136 6.51.24 0 .754.17 1.145.377 2.259 1.2 7.633 2.936 9.713 3.139.224.041.594-.091.82-.252zm11.138-20.02c1.18-1.245 2.57-3.89 2.57-4.893 0-.79-.269-.853-4.604-1.081-5.366-.281-6.389-.562-13.962-3.824-6.721-2.895-8.935-3.298-11.072-2.019-2.605 1.56-2.492 3.983.26 5.622 3.104 1.847 9.272 3.622 20.518 5.905 1.993.405 3.727.836 3.853.959.503.487 1.632.178 2.436-.67zm140.305 65.303c-.335-.322-2.149-2.502-4.03-4.84-6.41-7.961-7.239-9.57-5.648-10.965.837-.734.851-1.028.851-18.159 0-11.245-.149-17.685-.424-18.18-.273-.494-.856-.767-1.637-.767-2.47 0-1.543-1.547 7.17-11.954 1.58-1.886 3.406-4.183 4.059-5.105l1.188-1.677.71.913c.907 1.164 1.21 3.37 1.21 8.771 0 4.776.05 4.872 3.275 6.813 2.049 1.232 2.873 3.16 3.155 7.377.282 4.221.05 4.39-3.227 2.352-3.348-2.083-3.249-2.545-3.114 14.415l.116 14.647 1.149.957c.63.526 1.598.957 2.148.957.619 0 1 .227 1 .598 0 .525-1.596 4.141-5.197 11.775-1.168 2.476-1.826 2.972-2.754 2.072zm-98.686-1.26c-.633-.818-1.259-1.576-1.39-1.685-.542-.453-5.648-7.047-6.451-8.332-1.729-2.765-1.844-3.485-.714-4.437l1.017-.857v-16.683c0-10.34-.166-17.248-.429-18.17-.389-1.352-.554-1.487-1.839-1.487-.777 0-1.413-.112-1.413-.249 0-.814 2.971-4.974 6.632-9.286 2.323-2.736 4.854-5.926 5.625-7.09l1.402-2.117.946 1.066c.896 1.01.946 1.374.946 6.922 0 6.55-.087 6.333 3.428 8.374 2.047 1.188 2.948 3.215 3.307 7.438.344 4.047-.054 4.359-3.163 2.486-3.51-2.115-3.367-2.695-3.367 13.756 0 11.395.116 14.478.566 15.296.51.924 1.186 1.323 3.423 2.019.671.207.664.356-.125 2.405-.463 1.2-1.536 3.57-2.384 5.267-.847 1.697-1.895 3.932-2.328 4.967-.998 2.39-2.05 2.504-3.683.397zm244.962-.854c-2.933-2.96-4.752-3.58-7.067-2.41-.856.433-1.728.786-1.937.786-.612 0-2.099-1.678-2.712-3.061-.552-1.245-.477-1.449 3.046-8.328 1.987-3.878 3.72-7.458 3.853-7.956.314-1.177-.718-1.837-4.196-2.684-3.828-.934-3.869-1.001-2.997-4.975.79-3.605 1.05-14.168.405-16.466-.405-1.441-.368-1.482 3.416-3.816 3.18-1.96 8.193-6.732 8.962-8.53.72-1.684 1.334-1.625 2.888.273.896 1.097 1.965 1.813 3.583 2.4 2.793 1.012 4.27.919 4.824-.307.644-1.422 1.508-.88 2.974 1.865 1.05 1.965 1.297 2.82 1.088 3.764-.203.921-4.582 10.19-5.773 12.22-.095.162.438.65 1.18 1.09 1.024.604 2.066.797 4.317.798h2.966l-.04 1.289c-.042.709-.282 1.635-.614 2.059-.457.585-.602 2.005-.602 5.921 0 2.834-.207 6.736-.465 8.673-.348 2.633-.348 3.635 0 3.973 1.39 1.347-.261 3.697-4.824 6.863-1.902 1.32-4.418 3.602-6.134 5.566-1.6 1.831-3.121 3.329-3.379 3.329-.256 0-1.513-1.054-2.79-2.342zm5.552-12.94c.456-1.056.577-2.733.491-6.798-.095-4.633-.215-5.458-.83-5.833-.502-.307-.918-.315-1.395-.041-.632.385-3.017 4.429-3.548 6.014-.128.385-.888 1.865-1.686 3.282-.797 1.418-1.45 2.971-1.451 3.453 0 .81.219.885 2.965 1.012 1.632.075 3.39.17 3.908.215.726.062 1.08-.244 1.546-1.323zm-2.601-21.301c1.112-.84 4.82-7.535 4.82-8.704 0-.975-.315-1.24-2.716-2.296-2.785-1.224-3.644-1.418-3.969-.897-.099.162-.314 2.719-.478 5.678-.261 4.754-.215 5.458.393 6.048.823.798 1.088.82 1.948.17zm-190.536 33.994c-1.25-.987-2.419-2.04-2.595-2.34-.178-.302-1.296-1.558-2.486-2.795-2.747-2.853-2.95-3.82-2.953-14.042-.001-4.278-.195-8.44-.425-9.25-.277-.977-1.037-1.961-2.248-2.923-1.82-1.445-2.475-3.19-1.315-3.498.282-.075 1.524-.36 2.763-.635 4.425-.98 4.649-1.875.756-3.034-1.82-.54-2.61-1.005-3.03-1.78-.519-.959-.463-1.253.642-3.371 3.198-6.136 12.542-16.003 15.154-16.003 1.545 0 5.52 2.71 8.78 5.983 2.999 3.011 7.022 5.821 8.85 6.179 1.526.298 3.002 2.923 2.598 4.62-.165.694-.43 7.061-.589 14.15-.157 7.088-.432 13.29-.608 13.78-.277.77-.182.892.707.892 2.483 0 1.568 2.404-3.324 8.724-3.662 4.733-5.508 6.562-6.202 6.147-.26-.157-1.111-1.247-1.887-2.423-.815-1.234-1.708-2.135-2.115-2.133-.385 0-2.249 1.251-4.137 2.776-1.889 1.524-3.575 2.771-3.748 2.771-.174 0-1.337-.807-2.588-1.795zm9.727-10.633 1.27-1.523.12-12.519c.066-6.885-.04-12.667-.223-12.85-.472-.456-5.573 1.508-6.504 2.504-.683.73-.773 1.717-.896 9.786-.178 11.433-.041 12.586 1.848 14.714 1.775 2.009 2.637 1.986 4.386-.112zm-4.813-31.366c2.258-1.037 3.832-1.997 3.832-2.338-1.549-3.165-8.019-6.022-10.628-4.238-1.56 1.076-1.885 2.316-1.226 4.683.63 2.272 1.834 3.652 3.183 3.652.553 0 2.731-.791 4.839-1.759zm63.165 42.81c-.786-.542-2.975-2.61-4.865-4.596-2.717-2.855-3.506-3.957-3.767-5.262-.182-.907-.34-5.218-.348-9.58-.04-4.362-.21-8.598-.445-9.413-.26-.91-1.22-2.242-2.481-3.445-1.797-1.713-2-2.066-1.605-2.78.248-.451.832-.82 1.295-.82.464 0 1.84-.28 3.055-.622 3.142-.886 3.043-1.826-.294-2.796-1.617-.469-2.728-1.054-3.13-1.648-.571-.846-.542-1.09.36-2.973 1.956-4.088 9.124-12.654 12.745-15.23 1.637-1.165 2.207-1.365 3.283-1.157 1.934.377 4.162 1.976 8.37 6.012 3.468 3.326 7.658 6.122 9.176 6.122.901 0 2.556 3.386 2.174 4.45-.178.496-.457 6.703-.619 13.79-.161 7.09-.425 13.365-.586 13.947-.248.908-.153 1.076.67 1.19 1.793.248 1.48 1.967-1.017 5.598-2.856 4.153-7.557 9.495-8.181 9.298-.26-.083-1.178-1.12-2.032-2.303-.854-1.183-1.82-2.209-2.146-2.279-.683-.149-2.078.762-5.404 3.52-1.296 1.075-2.45 1.956-2.565 1.958-.116 0-.852-.44-1.638-.981zm8.071-10.615c2.118-2.244 2.165-2.589 2.165-15.522 0-6.65-.153-12.186-.351-12.3-.406-.245-5.237 1.521-6.295 2.298-1.067.783-1.7 7.463-1.398 14.718.298 7.19.627 8.624 2.362 10.359 1.57 1.57 2.362 1.67 3.515.447zm-7.343-30.794c.389-.199 2.04-.945 3.664-1.662s3.037-1.516 3.14-1.777c-1.048-3.648-8.422-6.216-10.769-4.297-1.408 1.149-1.615 2.545-.729 4.922.968 2.596 1.471 3.172 2.764 3.172.67 0 1.539-.161 1.93-.36zm-102.5 41.105c-1.121-1.19-8.715-12.227-8.715-12.667 0-.19.394-1.455.875-2.812.805-2.271.89-3.515 1.077-15.78l.203-13.313-1.077-.821c-.592-.452-1.077-1.038-1.077-1.302 0-.45 3.45-5.45 7.036-10.198.89-1.178 1.79-1.984 2.088-1.873.29.108.886 1.107 1.328 2.221.962 2.433 3.462 5.328 4.323 5.008.831-.31 2.794-3.137 3.438-4.952.294-.83.748-1.508 1.008-1.508.505 0 7.342 12.306 7.365 13.257.04.31-1.04 1.9-2.327 3.529-3.623 4.584-3.905 4.76-4.704 2.943-.261-.6-1.39-2.306-2.504-3.792-1.444-1.927-2.15-2.578-2.464-2.274-.298.29-.445 5.599-.455 16.58l-.04 16.154 1.125 1.58c1.563 2.193 1.447 3.026-.653 4.693-1.332 1.058-2.005 2.014-2.682 3.815-1.004 2.668-1.766 3.028-3.195 1.512zm181.168-2.227c-1.688-1.665-4.7-4.455-6.693-6.2l-3.624-3.173.063-15.069c.041-8.288.232-15.783.436-16.655.314-1.325.248-1.708-.381-2.324-.635-.621-.69-.968-.344-2.182 1.28-4.498 6.503-12.019 7.838-11.287.868.476 4.144 3.038 5.677 4.439 1.86 1.7 1.942 2.758.405 5.207l-1.12 1.784-.116 15.758c-.087 11.03.04 16.005.335 16.583.549.993 3.95 3.151 4.965 3.151.397 0 .915-.343 1.148-.767.273-.496.42-6.902.414-18.142l-.041-17.376-1.217-1.156c-1.952-1.857-1.666-2.758 2.026-6.378 1.779-1.745 3.425-3.173 3.657-3.173.417 0 5.032 5.379 7.725 9.004 1.07 1.44 1.295 2.027.992 2.577-.77 1.395-1.293 9.534-1.293 20.13 0 9.841.066 10.879.79 12.254.78 1.482.78 1.526 0 3.278-1.032 2.333-3.833 6.938-5.868 9.647l-1.626 2.165-1.352-2.76c-.744-1.518-1.724-3.005-2.18-3.306-.749-.496-.951-.419-2.152.817-.73.75-1.878 2.459-2.554 3.797-.909 1.802-1.44 2.427-2.046 2.409-.458-.041-2.17-1.358-3.888-3.052z" style="color:#000;display:inline;overflow:visible;visibility:visible;fill:#a40000;fill-opacity:1;fill-rule:evenodd;stroke:none;enable-background:accumulate" transform="matrix(1.3924 0 0 1.3924 4398.43 -1491.803)"/><g transform="translate(1125.923 -410.49) scale(.90626)"><path d="m-1218.76 674.127-27.3.602c-4.802 6.618-34.195 2.381-20.516 53.978 2.604 9.824-4.958 8.862-6.5 17.465-.267 1.486-4.33 2.606-6.946.144-.987 2.853-.955 6.786 2.055 9.135l5.84-4.953c4.966.53-.524 6.932-.524 6.932l78.774.375c2.06-31.852-16.232-53.963-24.883-83.678z" style="fill:#c00;stroke:none" transform="matrix(1.02564 0 0 1.02564 81.134 -159.989)"/><path d="M118.289-18.875c-2.21.744-7.77 2.964-8.935 4.84-1.634 7.545 2.532 15.59 1.881 23.616-.268 1.906-1.612 3.35-2.812 4.748 1.085-.545 2.35-1.727 3.467-2.566 1.438-1.096 2.07-3.045 1.47-4.766-.277-1.824 1.322-3.209 2.426-4.435 2.742-2.61 5.85-4.872 9.247-6.553-2.324-4.4-3.249-9.414-5.688-13.763-.28-.425-.557-.926-1.056-1.121zm-11.126 32.359c-.922 2.345-2.761 4.46-5.23 5.292-1.581.278.084 2.895 1.288 1.608 2.54-1.243 3.699-4.284 3.942-6.9z" style="opacity:.2;fill:#000;stroke:none" transform="translate(-1394.976 577.916) scale(1.62811)"/><path d="m139.062-28.556-17.197.379c-3.025 4.169-20.791 1.187-12.174 33.691 1.64 6.189-3.78 6.458-4.752 11.002-.101.472 1.287-1.716 1.394-2.312 1.66-3.388 5.845-1.907 4.204-8.096-8.617-32.504 9.01-30.116 12.035-34.285l16.494-.364-.004-.015z" style="opacity:.4;fill:#fff;stroke:none" transform="translate(-1394.976 577.916) scale(1.62811)"/><path d="M16.094-96.93c-.37-.012-.912.11-.996.471l-8.21 33.445c-.053.23 2.1 2.405 3.01 3.319h5.213l.75-3.154-.418-1.757.957-.931.788-3.575-1.256-1.3 1.501-.655 5.19-24.706a.775.775 0 0 0-.728-.954z" style="color:#000;display:inline;overflow:visible;visibility:visible;fill:#2d3c50;fill-opacity:1;fill-rule:nonzero;stroke:none;enable-background:accumulate" transform="matrix(1.62811 0 0 1.62811 -1162.4 714.434)"/><path d="M16.88-96.154 8.567-61.063 9.9-59.695h3.594l.908-3.802-.46-1.418.973-1.114.66-2.94-1.322-1.841 1.886-1.012 5.299-23.24z" style="color:#000;display:inline;overflow:visible;visibility:visible;fill:#618599;fill-opacity:1;fill-rule:nonzero;stroke:none;enable-background:accumulate" transform="matrix(1.62811 0 0 1.62811 -1162.4 714.434)"/><path d="M101.74 272.355a3.806 3.806 0 0 0-3.795 3.795c0 1.143.604 2.133 1.469 2.846l-2.535 8.048c-2.55-.386-4.792-.758-7.305-1.127a.789.789 0 0 0-.805.397l-2.553 4.856a.789.789 0 0 0 .65 1.17l8.01.43c-.4 2.061-1.978 15.124-.953 17.11 1.883-.806 6.058-14.858 6.7-16.243l1.056.408.237.091 6.412 2.246a.789.789 0 0 0 1.05-.865l-.491-5.22a.789.789 0 0 0-.563-.633s-4.042-1.312-6.668-1.883l1.445-8.153c1.43-.562 2.431-1.905 2.434-3.476v-.002a3.806 3.806 0 0 0-3.795-3.795z" style="color:#000;display:inline;overflow:visible;visibility:visible;fill:#2d3c50;fill-opacity:1;fill-rule:nonzero;stroke:none;enable-background:accumulate" transform="translate(-1287.036 100.041) scale(1.57836)"/><path d="M101.74 273.145a3.005 3.005 0 0 0-1.465 5.629l-2.213 9.475c-2.788-.441-5.511-.758-8.281-1.165l-2.164 3.89 8.512.722c-1.048 4.897-2.342 18.352-2.103 17.699.064.673 5.687-15.478 6.078-17.18l8.24 2.911-.752-4.64s-5.01-1.528-7.395-1.965l2.954-9.95c1.36-.316 1.592-1.025 1.595-2.42a3.005 3.005 0 0 0-3.006-3.006z" style="color:#000;display:inline;overflow:visible;visibility:visible;fill:#425b68;fill-opacity:1;fill-rule:nonzero;stroke:none;enable-background:accumulate" transform="translate(-1287.036 100.041) scale(1.57836)"/><path d="m-1136.916 561.25-12.713 52.56 1.849 1.97c1.595-7.053 8.344-29.049 8.344-29.049 1.123-17.104 2.52-25.482 2.52-25.482z" style="fill:#fff;fill-rule:evenodd;stroke:none"/><path d="M-1130.116 547.875c-.684.012-1.124.168-1.168.413-.075.399.896.911 2.167 1.144 1.27.234 2.36.1 2.432-.299.075-.398-.895-.91-2.167-1.144-.44-.08-.88-.12-1.264-.114zm-.835 3.07c-.684.012-1.124.168-1.169.414-.07.398.9.908 2.168 1.14 1.269.233 2.356.1 2.429-.299.07-.397-.9-.908-2.167-1.14-.44-.08-.877-.12-1.261-.114zm-13.934 1.85-.395 1.184 28.312 4.735c-3.87-1.568-7.84-2.574-11.85-3.354.393-.062.63-.193.666-.367.076-.397-.893-.91-2.164-1.143-.44-.081-.88-.12-1.264-.114-.684.011-1.124.167-1.169.413-.03.184.165.403.546.61-4.22-.7-8.465-1.25-12.682-1.964z" style="color:#000;display:inline;overflow:visible;visibility:visible;opacity:.4;fill:#fff;fill-opacity:1;fill-rule:nonzero;stroke:none;enable-background:accumulate"/><path d="M-1123.176 523.201c-4.43.162-9.118 1.182-9.118 1.182l-18.964-.513c-3.226 11.75 1.68 17.576 5.453 27.406.361-.435 9.132-8.999 12.159-12.184 0 0 1.744 5.37 2.519 5.95 1.26.646 5.333 2.391 8.697-.94l.628-1.18 9.399-3.199c1.327-7.64-4.143-15.483-4.143-15.483-1.406-.924-3.971-1.136-6.63-1.039z" style="color:#000;display:inline;overflow:visible;visibility:visible;fill:#2d3c50;fill-opacity:1;fill-rule:nonzero;stroke:none;enable-background:accumulate"/><path d="M-1174.876 525.43c-1.852.032-3.843.597-6.112.597-4.365 0-8.42 2.324-11.772 6.28-5.176-.411-9.828-2.283-13.536-.696-19.199 6.378-24.626 19.435-25.809 26.998 7.03-.479 10.63-1.278 19.341-2.537l10.761-5.75c2.83 13.018-1.524 33.557-3.559 42.773-1.201 2.634-2.215 4.246-1.727 5.269 1.853 2.156 4.54 1.258 8.128 1.326-.836 2.85-1.402 6.18-1.055 8.875-4.928 1.322-9.452 4.899-10.399 9.306h63.055c-5.427-5.276-13.664-9.195-20.412-9.926 2.353-3.062 3.449-6.06 4.169-9.486 5.32-.762 11.509-1.563 12.548-3.367-.38-13.305-3.575-33.34-4.844-41.915-.078-.53-.74-5.22-.82-5.661l1.217 3.976 10.177-4.574c1.938 1.005-1.356-17.968-3.897-17.898-2.718.753-12.32 1.662-14.916 2.378-1.488.41-3.868-3.778-5.26-3.38-1.712-2.123-3.426-2.622-5.278-2.589zm-1.816 74.104v.003c-.647 2.818-.67 5.541-.067 7.629-4.455-.292-8.654.54-12.776.359a25.687 25.687 0 0 1-.28-.01c1.159-2.478 1.89-5.186 2.105-7.737 3.565-.017 7.316-.09 11.018-.245z" style="fill:#000;fill-opacity:1;stroke:none"/><path d="M-1178.186 482.626c-5.242-.02-12.483 1.031-18.428 2.738-2.973.853-5.611 1.857-7.569 3.073-.976.607-1.808 1.27-2.404 2.1a3.848 3.848 0 0 0-.684 2.666c1.488 12.716 3.18 25.512 4.798 38.248.067.523.403.976.885 1.19 6.134 2.719 12.067 4.154 17.14 4.584 5.07.43 9.274-.086 12.121-1.582a1.514 1.514 0 0 0 .771-1.68l-.01-.046 2.7.743a.421.421 0 0 0 .34-.052l7.852-5.078c.369-.21.547-.583.628-.943.081-.36.071-.729-.032-1.06-.149-.486-.957-3.602-1.985-7.689s-2.32-9.284-3.585-14.393c-2.531-10.217-4.954-20.09-4.954-20.09-.013-.047-.026-.095-.043-.142a2.835 2.835 0 0 0-1.236-1.492c-.54-.328-1.16-.516-1.78-.666-1.256-.305-2.778-.421-4.524-.429zm4.917 21.65.512 2.513-2.51 1.498a1.51 1.51 0 0 0-.7 1.619l-.01-.025 2.569 16.11-3.62-15.589a1.513 1.513 0 0 0-1.584-1.162l-6.819.52-.715-3.036c3.424.166 6.513-.184 8.934-.875a19.883 19.883 0 0 0 3.94-1.572z" style="color:#000;display:inline;overflow:visible;visibility:visible;fill:#2c3e46;fill-opacity:1;fill-rule:nonzero;stroke:none;enable-background:accumulate"/><path d="m-1194.896 501.301 5.768 33.497 8.559.5c3.009-1.824 6.154-2.337 9.544-2.924l2.536-1.065-1.887-35.32z" style="fill:#000;fill-rule:evenodd;stroke:none"/><path d="M-1178.186 484.133c-10.059-.04-28.752 4.155-27.615 9.098l4.831 38.029c11.969 5.305 23.133 5.576 27.95 3.045l-5.153-23.179-8.419.239-3.427-6.182c8.233 1.005 18.328-3.327 19.88-4.544l-.112.711.193 5.985-4.43 2.247 5.436 23.31c1.276-1.053 7.54-4.922 7.54-4.922-.846-2.758-10.549-42.255-10.549-42.255-.38-1.084-2.772-1.568-6.125-1.582z" style="fill:#425b68;fill-opacity:1;stroke:none"/><path d="m-1170.216 501.318-1.13.706-.114 4.654-4.32 2.041 4.577 23.656 2.225.494-4.496-23.163 3.591-2.244zm-9.005 8.179-7.568 1.017.34 1.538 8.244-.875z" style="fill:#70979f;fill-opacity:1;stroke:none"/><path d="M-1171.676 484.843c.343 1.693-6.876 5.599-15.752 7.232-8.877 1.632-18.251 1.39-18.594-.302-.342-1.693 7.685-5.058 16.562-6.691 8.877-1.633 17.442-1.931 17.784-.239z" style="color:#000;display:inline;overflow:visible;visibility:visible;fill:#2c3e46;fill-opacity:1;fill-rule:nonzero;stroke:none;enable-background:accumulate"/><path d="M-1198.496 531.904c-3.763-36.595 4.901-44.658 10.658-47.167-6.024.394-14.779 2.585-18.367 7.412.362 1.631 5.645 38.503 5.645 38.503z" style="opacity:.3;fill:#000;fill-opacity:1;stroke:none"/><path d="M-1148.716 526.228c2.332 2.927 5.753 12.646 5 20.634 3.265-4.31 5.432-6.207 9.837-10.354 2.312.695 4.07 6.287 4.07 6.287 1.927 1.086 4.946 1.745 6.533-1.584 0 0-2.845-5.036-3.47-7.29 2.188 1.406 8.154-1.503 8.154-1.503.192.183-3.524 2.297-3.791 2.864-.051.106 2.902-.118 2.871.04-.038.19-2.778 1.006-2.802 1.231-.154 1.475 1.163 2.958 1.485 2.829l6.265-2.508c1.04-1.33-2.998-11.234-2.998-11.234-.165-.826-8.302-.952-14.188.958-4.63.094-16.462-.974-16.966-.37z" style="color:#000;display:inline;overflow:visible;visibility:visible;fill:#618599;fill-opacity:1;fill-rule:nonzero;stroke:none;enable-background:accumulate"/><path d="m-1148.806 526.028 2.505 4.034 15.1-1.479s2.352-1.603 13.138-2.975l-13.911 1.059z" style="color:#000;display:inline;overflow:visible;visibility:visible;opacity:.6;fill:#fff;fill-opacity:1;fill-rule:evenodd;stroke:none;enable-background:accumulate"/><path d="M189.055-32.21c-3.31-.242-7.651.311-8.532 2.541-.006.025 1.013-.108 1.724-.138-.919.075-4.652 1.092-4.772 3.364-.163.126 1.697-.28 1.697-.28-3.46 1.973-4.495 3.077-3.82 5.402.008.198.478-.378 1.466-1.042-3.178 4.076 2.409 9.208 6.34 11.097.495.29-.733-1.28.328-3.888.138-.34-1.285-1.14-1.365-1.453-.146-.79 1.921-.886.38-2.753.832-1.102 2.555-.833 3.757-1.613.638-.424.971-.95 1.195-1.343.224-.394.344-.624.625-.827.282-.202.796-.414 1.854-.517.508-.05.78-.279 1.01-.387.23-.108.253-.082.218-.101.209.114.463.109.666-.014 4.772-1.826.924-7.595-2.771-8.048z" style="fill:maroon;fill-opacity:1;fill-rule:evenodd;stroke:none" transform="translate(-1797.694 561.87) scale(3.19326)"/><path d="M100.896-58.985c4.905-.029 4.831-8.074-.837-11.9-3.441-2.323-11.154-1.987-18.858 1.539-.203.092 6.93-1.391 10.146.582-4.955-1.423-14.32 1.804-16.434 5.317 3.462-.962 8.955-2.546 9.833-2.805-6.568 2.981-13.04 6.913-13.999 11.123-.255.484 5.412-2.582 9.996-4.667-5.522 4.022-9.032 3.515-8.954 10.553.188 8.371 12.344 15.907 12.344 15.907s-2.054-4.15-.966-6.242c.892-1.715-1.78-1.984-2.08-3.46-.119-1.05.836-1.917.836-1.917-.64.569-3.657.404-3.558.147.11-.236 1.897-.504 2.827-3.708-.788 1.128-2.27.808-2.27.808-.12-1.78 1.657-1.853 4.07-3.33 11.522 7 14.693-3.904 15.134-7.232.904-.149 1.765-1.268 2.77-.715z" style="fill:#c00;fill-rule:evenodd;stroke:none" transform="translate(-1350.51 578.924) scale(1.62811)"/><path d="M-47.813-154.357c.633 1.006 1.952 1.837 3.194 2.9-1.88-1.138-11.392.41-13.174-.199 2.303 2.096 15.781.27 15.133 8.416l.252-.09c.43-3.216.126-5.103-.606-6.449 1.149 1.587 1.95 3.008.713 6.389l.254-.139c5.985-10.387-2.202-8.981-5.765-10.828zm-2.898 6.086c-4.353-.148-9.82 1.15-14.707 3.637 3.022.752 19.255-6.04 22.549 1.44l.19-.034c-.438-3.3-3.678-4.895-8.032-5.043z" style="color:#000;display:inline;overflow:visible;visibility:visible;opacity:.2;fill:#000;fill-opacity:1;fill-rule:evenodd;stroke:none;enable-background:accumulate" transform="translate(-1117.934 715.444) scale(1.62811)"/><path d="M-49.402-156.215c-3.578.06-7.915 1.033-12.248 3.016-.131.06 2.807-.528 5.77-.424 2.792-.806 5.425-1.621 9.8-2.344a16.984 16.984 0 0 0-3.322-.248zm-9.55 3.885c-3.923.971-7.73 2.947-8.985 5.031.796-.221 1.773-.425 2.703-.689zm-5.543 5.65c-4.627 2.217-7.174 5.791-7.608 7.7-.119.224 1.11-.357 2.845-1.21.123-2.117 3.869-4.986 4.763-6.49zm-4.74 7.666c-1.208 1.202-1.862 2.837-1.827 5.918.068 3.079 1.76 6.041 3.867 8.56-2.574-4.515-2.822-9.617-2.04-14.478z" style="opacity:.3;fill:#fff;fill-rule:evenodd;stroke:none" transform="translate(-1117.934 715.444) scale(1.62811)"/><path d="M83.397-51.611c.082-.106 8.48 3.857 13.939-4.562-.33 1.14-4.403 11.281-13.94 4.562z" style="color:#000;display:inline;overflow:visible;visibility:visible;opacity:.3;fill:#000;fill-opacity:1;fill-rule:evenodd;stroke:none;enable-background:accumulate" transform="translate(-1350.51 578.924) scale(1.62811)"/><path d="M94.976-55.9c-1.972 4.568-7.632 3.32-11.415 2.63-2.41 1.603-6.966 5.302-8.21.366-.41-3.98 4.754-3.586 6.226-6.692 3.181-2.19 6.435 2.213 10.04.809 1.957-.516 5.893.231 3.359 2.887z" style="color:#000;display:inline;overflow:visible;visibility:visible;opacity:.3;fill:#fff;fill-opacity:1;fill-rule:evenodd;stroke:none;filter:url(#a);enable-background:accumulate" transform="translate(-1350.51 578.924) scale(1.62811)"/><path d="m124.828-55.64.046-3.115 2.66-.553 1.635 2.907c-1.247.914-2.823 1.337-4.341.762z" style="color:#000;display:inline;overflow:visible;visibility:visible;fill:#888a85;fill-opacity:1;fill-rule:nonzero;stroke:none;enable-background:accumulate" transform="translate(-1393.97 577.628) scale(1.62811)"/><path d="M127.783-60.103c1 .422.699 1.424.401 1.713-1.278 1.068-2.9.87-3.66.468l-.207-1.1c.462-.57 2.35.305 3.466-1.08z" style="color:#000;display:inline;overflow:visible;visibility:visible;fill:#d3d7cf;fill-opacity:1;fill-rule:nonzero;stroke:none;enable-background:accumulate" transform="translate(-1393.97 577.628) scale(1.62811)"/><ellipse cx="-157.459" cy="1273.242" rx="1.323" ry="1.119" style="color:#000;display:inline;overflow:visible;visibility:visible;fill:#fff;fill-opacity:1;fill-rule:nonzero;stroke:none;enable-background:accumulate" transform="rotate(59.748)"/><ellipse cx="360.12" cy="1227.734" rx="1.323" ry="1.119" style="color:#000;display:inline;overflow:visible;visibility:visible;fill:#fff;fill-opacity:1;fill-rule:nonzero;stroke:none;enable-background:accumulate" transform="rotate(83.121)"/><path d="M-1279.52 637.103c-10.083-2.21-22.978 7.108-30.276 12.581 6.724 3.72 5.201 13.692 21.423 12.294 0 0 .264.409.616 1.123-1.346-.808-5.059 3.156-5.059 3.156-1.33 4.132 4.264 8.164 4.264 8.164 1.25 3.492 5.397 4.771 6.2 4.732 2.517-.123 6.216-.673 9.247-1.682.316-.106.377-1.217.693-1.314 1.63-.497 3.49-.381 4.932-1.028.362-.162.172-1.128.519-1.297 2.033-.988 3.704-1.28 5.052-2.34l1.237-10.794c-3.515-4.287-13.255-8.871-13.255-8.871z" style="color:#000;display:inline;overflow:visible;visibility:visible;fill:#2d3c50;fill-opacity:1;fill-rule:nonzero;stroke:none;enable-background:accumulate" transform="matrix(.8665 -.0946 .0946 .8665 -164.13 -129.346)"/><path d="M-1305.92 649.854c2.413-2.109 8.463-10.07 25.45-10.748 0 0 3.004 11.457 5.958 14.046 7.32 4.767 10.742 7.113 12.043 8.048l-1.158 8.847c-.16 1.22-1.598 1.771-3.32 2.178l.496-5.099c-.575 1.83-1.914 4.487-2.402 6.122-1.287 1.174-3.217 1.31-4.132 1.317-.286.11 1.726-3.584.368-5.459-.411.913-1.995 5.795-2.459 6.027-4.756 2.233-11.14 1.347-11.702-2.53-2.193-1.404-3.918-3.763-3.52-5.174 0 0 2.05-2.059 4.073-1.731.327-.174.44 3.467 2.427 5.058 1.991-6.926-3.73-5.743-3.865-14.221l-.609 3.56c-15.2-1.447-12.496-7.3-17.648-10.241z" style="color:#000;display:inline;overflow:visible;visibility:visible;fill:#618599;fill-opacity:1;fill-rule:nonzero;stroke:none;enable-background:accumulate" transform="matrix(.8665 -.0946 .0946 .8665 -164.13 -129.346)"/><path d="M-1281.03 639.308c-8.058-.911-18.455 5.435-23.858 10.166 2.583 2.943 2.362 6.157 8.04 8.427 4.636-6.022-4.135-14.062 15.986-17.127.594-.768.193-.65-.168-1.466z" style="color:#000;display:inline;overflow:visible;visibility:visible;opacity:.4;fill:#fff;fill-opacity:1;fill-rule:evenodd;stroke:none;enable-background:accumulate" transform="matrix(.8665 -.0946 .0946 .8665 -164.13 -129.346)"/><path d="M-1302.58 640.319c.18.335-7.939 5.433-9.671 9.256 5.17 6.129 9.185 6.455 16.04 6.406.196-.001-.138-3.472.063-3.474 0 0 .83 3.4 1.215 3.397l2.032 2.583c2.327 2.272 2.754 3.297 2.435 6.306l-3.104-4.26c-1.757.486-2.006 1.224-2.87 1.86.399 1.125-.352 2.14 3.89 4.14 1.563 2.22 3.274 2.346 4.282 2.25 1.483-.14 1.14-1.33 2.21-2.49l.897-8.293c-5.431-2.996-3.435-3.912-6.733-6.197-.291-.201 5.991-3.702 5.991-3.702s-8.92 2.648-9.155 2.6c-9.643.483-17.193-1.126-7.522-10.382z" style="color:#000;display:inline;overflow:visible;visibility:visible;opacity:.3;fill:#fff;fill-opacity:1;fill-rule:evenodd;stroke:none;enable-background:accumulate" transform="rotate(4.602 -118.604 1581.977)"/><path d="M-1284.5 657.911c3.132.573 9.455-1.804 10.627-5.51l1.23 9.525c-4.427 3.546-10.614 5.523-15.043 7.457.387-.455 1.76-1.431 2.033-2.424.79-2.873 1.153-9.048 1.153-9.048z" style="color:#000;display:inline;overflow:visible;visibility:visible;opacity:.7;fill:#2d3c50;fill-opacity:1;fill-rule:nonzero;stroke:none;enable-background:accumulate" transform="rotate(4.602 -118.604 1581.977)"/></g><path d="m-1914.897 442.166-.513.064-.444.707c-2.28 3.57-3.063 5.021-3.395 6.311-.158.618-.135.867.121 1.451.557 1.27 2.33 2.392 4.99 3.165.978.284 1.027.342.798.837-.16.347-.275.39-.942.346-1.485-.098-2.166.01-3.01.492-.521.297-.595.488-.49 1.246.123.879 1.053 2.271 1.765 2.638.315.162.428.078.297-.218-.248-.565-.135-.993.297-1.143.396-.137 1.556.09 2.305.455.535.26 1.488 1.007 1.928 1.505.166.188.387.39.49.447.246.136.265.131.697-.14.87-.544 3.107-2.624 4.72-4.383.57-.621.811-1.636.766-3.207-.032-1.133-.183-1.618-.738-2.33-.223-.286-.71-.753-1.082-1.044-.57-.447-1.052-.746-2.734-1.673-.25-.138-.27-.315-.072-.662.466-.817.9-2.703.844-3.664-.034-.579-.04-.592-.326-.851-.364-.327-.603-.322-.787.015a1.192 1.192 0 0 1-.293.35c-.347.23-1.414.122-2.62-.27-.206-.066-.753-.21-1.216-.317-.686-.16-.938-.182-1.356-.127zm-.63 2.944c.338-.016.83.101 1.68.384 1.532.509 1.73.548 2.762.514.833-.027.887-.02.908.133.03.195-.165.735-.357.996-.13.178-.336.258-.445.171-.029-.022-.376-.08-.767-.125-2.205-.258-3.425-.504-4.067-.811-.57-.274-.66-.74-.204-1.087a.834.834 0 0 1 .49-.175zm-1.976 2.632c.074-.016.172.054.283.213.256.365 1.455 1.118 2.258 1.418.778.29 1.192.38 1.963.451.794.073 1.316.272 1.35.511.021.16-.26.685-.469.874a.274.274 0 0 1-.15.066c-.403-.005-1.475-.258-1.937-.454a.623.623 0 0 0-.229-.053c-.22.02-1.531-.666-2.107-1.1-.866-.653-1.118-.975-1.118-1.457 0-.29.06-.45.155-.47zm7.294 2.753c.102-.02.235-.004.431.022.649.084 1.661.592 2.525 1.269 1.04.815 1.448 1.447 1.431 2.21-.013.184-.05.322-.108.327-.056.005-.313-.298-.575-.671-.373-.531-.572-.734-.906-.933-.62-.371-2.23-.958-2.545-.93-.08.007-.273-.037-.434-.095-.361-.13-.41-.333-.19-.797.12-.257.201-.37.371-.402zm-1.526 3.908.798.155c1.822.343 2.202.423 2.68.601.275.103.604.265.731.353.292.202.555.571.516.73-.015.066-.267.333-.56.597-.595.537-.903.637-1.199.375-.575-.509-2.153-1.362-2.785-1.504-.237-.054-.478-.126-.538-.165-.203-.133-.166-.441.097-.796l.26-.346z" style="color:#000;display:inline;overflow:visible;visibility:visible;fill:#f57900;fill-opacity:1;fill-rule:nonzero;stroke:none;enable-background:accumulate" transform="matrix(1.33812 0 0 1.33812 2619.607 -510.813)"/></svg>