<svg xmlns="http://www.w3.org/2000/svg" xml:space="preserve" width="180" height="66.4" viewBox="-101.7 363.6 180 66.4"><path d="M-362.7 727.2h172.5v66.4h-172.5z" style="fill:none"/><path d="m-51.5 310.8 6.1 6.8v8.2h-8.7v-5.9H-61v9.7h2.1v8.7h-5c-.2 0-.3-.2-.4-.3-2-2.1-4.1-4.1-6-6.2v-13.9l6.2-7.1z" style="fill:#0a93b2" transform="translate(9.48 52.967)"/><path d="M-49.6 384.6c0-13.7 0-27.4-.1-41h9.4c0 13 0 26.1.1 39.1h2.6v8.9h-4.8c-.2 0-.3-.1-.4-.2z" style="fill:#0a93b2" transform="translate(17.023 20.157)"/><path d="M-46.3 310.7h9.4c0 13.7.1 27.4.1 41.1-2.2 2.4-4.6 4.6-6.8 7h-5v-8.9h2.5c-.2-13.1-.2-26.1-.2-39.2" style="fill:#0a93b2" transform="translate(30.41 53.003)"/><path d="M-43.8 310.7h9.4c0 16 .1 32 .1 48h-9.4c-.1-16-.1-32-.1-48" style="fill:#0a93b2" transform="translate(40.32 53.02)"/><path d="M-40.1 310.6c2.3 2.3 4.6 4.5 6.8 6.7v18.2l-6.8 6.8h-6.7v-9.1h4v-13.5h-4v-9.1z" style="fill:#0a93b2" transform="translate(55.166 53.044)"/><path d="M-38.1 310.6h20.6v9.1h-11.2c0 9.9 0 19.9.1 29.8h11.2v9.1H-38c-.1-16-.1-32-.1-48" style="fill:#0a93b2" transform="translate(63.07 53.06)"/><path d="M-33.4 310.5h9.4c0 16 .1 32 .1 48h-9.4c0-16-.1-32-.1-48" style="fill:#0a93b2" transform="translate(82.077 53.092)"/><path d="m-29.4 353.9 5.7 5.7c.1 6.1 0 12.1 0 18.2h-9.5v-19.2h-4.7v-9.1h4.7v-10.6h-4.7v-9.1h7.3l6.9 6.9V348z" style="fill:#0a93b2" transform="translate(98.207 33.793)"/><path d="M-35.8 343.3h6.8v9.1h-6.8c.1-3 .1-6.1 0-9.1" style="fill:#0a93b2" transform="translate(72.599 38.516)"/><path d="M-51.5 397.2h-12.7l-6.1-6.8v-8.2h8.7v5.9h6.9v-11.3h-1.6v-8.7h4.5c.2 0 .3.1.4.2 2 2.1 4 4.1 6 6.1.1.1.2.2.1.4v15.3z" style="fill:#0a93b2" transform="translate(9.42 14.552)"/><path d="M-48.1 430h-14.3c-.9 0-1.9-.3-2.6-.9-.5-.4-.7-1.1-.7-1.7v-8.5c0-1 .8-1.9 1.7-2.2.7-.3 1.4-.3 2.1-.3h13.8v2.5h-14.4v8.6h11.3v-3h-5.4V422h8.6z" style="fill:#0a93b2" transform="translate(23.12 .008)"/><path d="M-46.9 409.9v3h10.7v-3h-10.7m-3.2-2.5h13.8c1.2 0 2.4.5 3 1.5.3.6.3 1.3.3 1.9v2.4c-.1 1-.9 1.7-1.8 2-.9.4-1.9.2-2.9.3l5 5.5h-3.9c-1.7-1.9-3.3-3.7-5-5.6h-5.3v5.6h-3.2c.1 0 0-13.6 0-13.6z" style="fill:#0a93b2" transform="translate(28.06 8.915)"/><path d="M-40.6 429.8c-1.8-3.7-3.7-7.4-5.5-11.1h-1.4c-1.8 3.7-3.6 7.4-5.5 11.1h-3.7c2.2-4.6 4.5-9.1 6.7-13.7h6.3c2.2 4.5 4.5 9.1 6.8 13.6z" style="fill:#0a93b2" transform="translate(53.353 .06)"/><path d="M-39.5 405.3h16.1v2.5h-12.9v3H-25v2.5h-11.3v5.6h-3.2v-13.6" style="fill:#0a93b2" transform="translate(57.48 10.987)"/><path d="M-32.3 429.7h-4.6c-1.7-1.6-3.3-3.2-5-4.8-1.7 1.6-3.3 3.3-4.9 4.8h-4.6l7.1-7.3c-2.2-2.1-4.3-4.2-6.5-6.4h4.7l4.3 4.2c1.5-1.4 2.8-2.8 4.3-4.2h4.6c-2.2 2.2-4.4 4.3-6.5 6.5z" style="fill:#0a93b2" transform="translate(86.6 .124)"/><path d="M-61.2 329.5v-.1c1.9-3.9 4.1-5.9 6.4-5.9 1.9.1 3.7 1.6 5.2 4.4 1.4 2.7 2.5 6.5 3.3 11 0 .1-.1.3-.2.3s-.3-.1-.3-.2c-1.4-9.1-4.5-14.8-7.9-15-2-.1-4.1 1.9-5.9 5.6-.1.1-.2.2-.4.1-.2 0-.2-.1-.2-.2" style="fill:#0a93b2" transform="translate(-29.265 44.672)"/><path d="M-58.4 390.9c.5-2.9.8-6 .9-9.1 0-.2.1-.3.3-.3.2 0 .3.1.3.3-.1 3.1-.5 6.2-.9 9.1 0 .2-.2.3-.3.2-.2 0-.3-.1-.3-.2" style="fill:#0a93b2" transform="translate(-17.95 17.366)"/><path d="M-62.1 375.4v-.5.3c0 .1.2.2.2.2 0 14.7 3.9 26.3 8.9 26.4 1.7 0 3.5-1.3 5.1-4 1.6-2.7 2.9-6.5 3.9-11 0-.1.2-.2.3-.2.1 0 .2.2.2.3-1 4.6-2.3 8.5-3.9 11.2-1.7 2.9-3.6 4.3-5.5 4.3-2.6-.1-4.9-3-6.6-8.1-1.8-5-2.6-11.7-2.6-18.9" style="fill:#0a93b2" transform="translate(-32.791 24.26)"/><path d="m-59.3 384.3 5.5 7.2-3.4-8.5 2.5-2.4-3.5.8-5.5-7.2 3.4 8.5-2.5 2.4z" style="fill:#0a93b2" transform="translate(-21.525 20.299)"/><path d="m-58.7 353.6 3.1.6.3 2.1c0 .3-.1.4-.4.4l-2.1-.4c-.3-.1-.5-.3-.6-.5zm-8.8 24.3 3.1.6c1 .2 2 1.2 2.1 2.2l.6 3.9c.1.7-.6 1.1-1.4 1l-1-.2c-.7-.1-1.5-.9-1.6-1.5l-.7-4.1-.4-.1c-.4-.1-.7.2-.7.6l.7 4.6-1.7-.3-.8-5.1c.2-1 .9-1.8 1.8-1.6m3.2-10.2.3 1.6-6.8-1.2-.3-1.7zm-8.3-10.9-.3-1.7 4.4.8c.5.1.7-.1.6-.6l-.5-2.9-5.2-1-.3-1.7 6.8 1.2.9 5.6c.1.8-.4 1.3-1.3 1.1.2.2-5.1-.8-5.1-.8zm.4-8-1.8-.3-1.1-7 11.8 2.2.9 5.8-1.6-.3-.7-4.1-3.4-.6.5 3.4-1.6-.3-.5-3.4-3.4-.6c.1-.2.9 5.2.9 5.2zm1.3.2-.6-4 .8.1.5 3.2 4.2.8-.5-3.2.8.1.6 4c0 .1-5.8-1-5.8-1zm-2.8 8.8h.1c0 .1-.1.3 0 .4l.5 3.3c-.7-.1-.8-1-1-2.3l-.2-1.5-4.4-.8.3 2c.5 4.9 3 6.7 6 7.3l1 5.9 5.2.9.1.5c.1.5.2.5-.4.4l-4.7-.9.7 4.3.3.1c-.1.3-.2.7-.1 1.1l1.2 7.4 3.7.7.3-.5c.5.4 1.1.7 1.6.8l.6.1c2.2.4 2.8-1.7 2.6-2.6l-.7-4.2c-.1-.8-.6-1.6-1.3-2.2.5-.6.8-1.4.7-1.9l-.8-4.7-1.2.5.7 4.3c.1.6-.1 1-.6 1.1-.1 0-5.9-1.1-5.9-1.1l-.2-1.5 4.4.8c.6.1.7-.1.6-.6l-.5-2.9-5.2-1-.3-1.7 5.9 1.1 1.6-1.4-1.8-5 .4 2.4-8.1-1.5c-2.1-.4-4-2.6-4.3-4.5l-.3-2 1.6.3.2 1.5c.2 1.3 1.5 2.8 2.9 3.1l.9.2-.6-3.9c-.1-.8.4-1.3 1.3-1.1l3.8.7c.7.1 1.2.5 1.5 1.1h.1l1.5 2-.2-1.2c-.1-.6-.6-1.7-1.5-2.5.6-.5.9-1.5.8-2l-.7-4.2 3.7.7.5 3.1c.3 1.6 2.1 3.5 3.9 3.8l2.5.5c1.7.3 3.1-.9 2.8-2.5l-1.1-6.8-7.7-1.4-1-6.2c-.1-.5-.6-1-1.2-1.1l-12.5-2.3c-.6-.1-.9.2-.9.8l1.9 11.9 5.2 1 .1.5c.1.5.2.5-.4.4l-4.7-.9c.1-.4.8 3.9.8 3.9zm9.2 22.3h-.2l.5 3.2c0 .3.3.5.6.5.3.1.5-.1.4-.4l-.1-.8-.2-1.3-.1-.3c-.1-.4-.5-.8-.9-.9m-3.2-19.6-2-.4c-.6-.1-.7.1-.6.6l.5 3.1 3.5.7-.5-3.1c-.1-.5-.4-.8-.9-.9m-.8 1.1c.5.1.4.3.5.8l.1.5-.8-.1-.1-.5c0-.6-.2-.8.3-.7" style="fill:#0a93b2" transform="translate(-19.252 33.936)"/><path d="m-59 378.2 1.8-.5v-.3l-.4-.1c-.3-.1-.6-.3-.6-.6l-.3-1.8c0-.3.1-.5.4-.4l4.8.9c.3.1.6.3.6.6l.3 1.8c0 .3-.1.5-.4.4l-.6-.1.6 3.5.7.1c1.8.3 3.2-.9 2.9-2.6l-.5-3.4c-.3-1.7-2.2-3.6-4-3.9l-5.1-.9c-1.8-.3-3.2.9-2.9 2.6l.2 1.1z" style="fill:#0a93b2" transform="translate(-20.38 23.01)"/><path d="M-58.8 382.7c.2.1.3.2.6.2l.6.1-.2-1.4z" style="fill:#0a93b2" transform="translate(-19.509 20.998)"/></svg>