<svg xmlns="http://www.w3.org/2000/svg" xml:space="preserve" id="Layer_1" x="0" y="0" style="enable-background:new 0 0 3839 862.3" version="1.1" viewBox="0 0 3839 862.3"><style id="style2" type="text/css">.st2{fill:#fff}.st3{fill:#00fffe}</style><g id="g3704" transform="translate(.05)"><g id="g3671"><path id="path4" d="M239.1 457.3c-17.3-25.3-39.6-41.3-70-41.3-29.1 0-57 24-57 56.6 0 84.6 185.2 49.3 185.2 217.8 0 100.6-58.2 171.8-153.6 171.8-64.4 0-111.5-40-143.7-97.9l58.8-61.9C71.2 741 104 775.7 143 775.7c37.2 0 60.1-34 60.1-72.6 0-51.9-44.6-66.6-81.1-81.9C61.9 594.5 18 561.9 18 484c0-83.2 57.6-150.5 136.3-150.5 41.5 0 99.1 22 127.6 55.9z" class="st2" style="fill:#000;fill-opacity:1"/><path id="path6" d="M361.1 346.8h91v281c0 61.9 5 149.2 82.4 149.2s82.4-87.2 82.4-149.2v-281h91v300.4c0 122.5-48.3 215.1-173.4 215.1-125.1 0-173.4-92.6-173.4-215.1z" class="st2" style="fill:#000;fill-opacity:1"/><path id="path8" d="M882 848.9h-91V346.8h123.9c97.9 0 161.6 42 161.6 155.8 0 106.6-53.9 158.5-149.3 158.5H882Zm0-269h18.6c53.9 0 83-12.7 83-77.9 0-64.6-34.7-73.9-85.5-73.9H882Z" class="st2" style="fill:#000;fill-opacity:1"/><path id="path10" d="M1227.6 432v110.6h144.9v85.2h-144.9v135.9h150.5v85.2h-241.5V346.8h241.5V432Z" class="st2" style="fill:#000;fill-opacity:1"/><path id="path12" d="M1773.3 848.9h-110.2l-113.3-202.5h-1.2v202.5h-91V346.8h123.2c92.3 0 156.1 44 156.1 151.2 0 63.9-32.8 127.9-95.4 139.2zm-224.8-271h11.8c50.2 0 85.5-16 85.5-77.3 0-61.9-36.5-73.9-84.8-73.9h-12.4v151.2z" class="st2" style="fill:#000;fill-opacity:1"/><path id="path14" d="M1989.5 685.1h1.2l104-338.3h97.9l-181.5 515.5h-53.3l-178.4-515.5h97.9z" class="st2" style="fill:#000;fill-opacity:1"/><path id="path16" d="M2327.1 848.9h-91V346.8h91z" class="st2" style="fill:#000;fill-opacity:1"/><path id="path18" d="M2631.8 457.3c-17.3-25.3-39.6-41.3-70-41.3-29.1 0-57 24-57 56.6 0 84.6 185.2 49.3 185.2 217.8 0 100.6-58.2 171.8-153.6 171.8-64.4 0-111.5-40-143.7-97.9l58.8-61.9c12.4 38.6 45.2 73.3 84.2 73.3 37.2 0 60.1-34 60.1-72.6 0-51.9-44.6-66.6-81.1-81.9-60.1-26.6-104-59.3-104-137.2 0-83.2 57.6-150.5 136.3-150.5 41.5 0 99.1 22 127.6 55.9z" class="st2" style="fill:#000;fill-opacity:1"/><path id="path20" d="M2847.4 848.9h-91V346.8h91z" class="st2" style="fill:#000;fill-opacity:1"/><path id="path22" d="M3435.2 333.5h65.6l245.9 351h1.2V346.8h91v512.1h-65.6l-245.9-351h-1.2v341h-91z" class="st2" style="fill:#000;fill-opacity:1"/><path id="path24" d="M3008.6 640.3c-3-15.8-4.5-31.8-4.5-47.1 0-81.2 50.8-163.2 136.9-163.2 86.1 0 136.9 81.9 136.9 163.2 0 15.3-1.5 31.3-4.5 47.1l60.5 110c24.7-43.1 38.2-95.8 38.2-153.2 0-149.2-91.7-263.7-231-263.7-139.4 0-231 114.5-231 263.7 0 57.4 13.5 110.1 38.2 153.2z" class="st2" style="fill:#000;fill-opacity:1"/><path id="polygon26" d="m3140.9 499.9-191.8 349h383.7z" class="st3" style="fill:#00fffe;fill-opacity:1"/></g><g id="g64" style="fill:#00fffe;fill-opacity:1"><g id="g32" style="fill:#00fffe;fill-opacity:1"><path id="polygon30" d="m1672.5 0 37.4 114.1L1757.8 0z" class="st3" style="fill:#00fffe;fill-opacity:1"/></g><path id="polyline34" d="M1655.1 199 1732 16.3l11.6 17.7-6.2 14.6-70.8 168.3" class="st3" style="fill:#00fffe;fill-opacity:1"/><path id="polyline36" d="m1502.7 250.7 98.6-234.4 11.6 17.7-91.2 216.7" class="st3" style="fill:#00fffe;fill-opacity:1"/><g id="g40" style="fill:#00fffe;fill-opacity:1"><path id="polygon38" d="M1512.6 0h-104l82.2 250.7h11.9l51.8-123z" class="st3" style="fill:#00fffe;fill-opacity:1"/></g><path id="polygon42" d="M1622.7 250.7h29.7l41.8-99.3L1644.6 0h-104.1z" class="st3" style="fill:#00fffe;fill-opacity:1"/><path id="polygon44" d="M2430.4 27.8h-640.7L1800.9 0h629.5z" class="st3" style="fill:#00fffe;fill-opacity:1"/><path id="polygon46" d="M2430.4 250.7h-730.8l11.2-27.7h719.6z" class="st3" style="fill:#00fffe;fill-opacity:1"/><g id="g50" style="fill:#00fffe;fill-opacity:1"><path id="path48" d="M1789 55.5h-7.4l-4.6 10.8-53.5 128.8h51.2v-7.4l-12-6.8c-3.1-1.7-5-5-5-8.6v-3.5h29.6l13.7 26.3h64.5zm-28.4 95.8 7.9-18.8 9.8 18.8z" class="st3" style="fill:#00fffe;fill-opacity:1"/></g><g id="g54" style="fill:#00fffe;fill-opacity:1"><path id="path52" d="M2038.9 55.5h-7.4l-4.6 10.8-53.5 128.8h51.2v-7.4l-12-6.8c-3.1-1.7-5-5-5-8.6v-3.5h29.6l13.7 26.3h64.5zm-28.4 95.8 7.9-18.8 9.8 18.8z" class="st3" style="fill:#00fffe;fill-opacity:1"/></g><g id="g58" style="fill:#00fffe;fill-opacity:1"><path id="path56" d="M2353.8 55.5h-7.4l-4.6 10.8-53.5 128.8h51.2v-7.4l-12-6.8c-3.1-1.7-5-5-5-8.6v-3.5h29.6l13.7 26.3h64.5zm-28.4 95.8 7.9-18.8 9.8 18.8z" class="st3" style="fill:#00fffe;fill-opacity:1"/></g><path id="path60" d="M1863.5 55.5h-17.6v48.1h17.6c0-13.2 7.9-21.8 13.8-26.4 3.4-2.7 7.6-4.1 12-4.1v122.1h57.3V73.1c4.3 0 8.6 1.4 12 4.1 5.9 4.6 13.8 13.2 13.8 26.4h17.6V55.5Z" class="st3" style="fill:#00fffe;fill-opacity:1"/><path id="path62" d="M2238.5 114.1h-3.3c16.2 0 29.3-4.9 29.3-29.3s-13.1-29.3-29.3-29.3h-102.9v139.7h57.3v-72.4h17.6v72.4h64.4v-38c0-18.3-14.8-43.1-33.1-43.1zm-48.9-41h17.6v32.2h-17.6z" class="st3" style="fill:#00fffe;fill-opacity:1"/></g></g></svg>