<svg xmlns="http://www.w3.org/2000/svg" xml:space="preserve" baseProfile="tiny" viewBox="373.5 287.6 1194.9 218.4"><path fill="#F79226" d="M1459.6 319.7c24.8-4.1 51.2 2.3 71.2 17.4 14.6 10.8 25.7 25.9 32 42.9 7.2 19.9 7.6 42.3.7 62.4-5.9 17.7-17.4 33.5-32.3 44.8-16.3 12.3-36.7 19.2-57.1 18.8-30.6.3-60.6-16-77.4-41.5-17.5-25.8-20.7-60.4-8.3-89 12.1-29.1 39.9-51 71.2-55.8zm-47.6 52.5v11h10V442h-10v11h31.3v-11h-10c.1-23.2-.1-46.4.1-69.7-7.2-.1-14.3 0-21.4-.1zm41 6.9c.1 22-.1 44 .1 65.9 1.9 2.8 4.8 4.9 7.1 7.4h70c2.6-3.3 8-5.6 7.2-10.5-.1-9.4.1-18.8-.1-28.2-1.4-2.5-3.9-4.3-5.9-6.3-22.7.1-45.5-.1-68.2.1-.1-8.2 0-16.4-.1-24.6h64.5v10.3h9.7v-14.5c-2-2.1-4.1-4.2-6.2-6.3-23.8.1-47.5-.1-71.2.1-2.6 2-4.6 4.5-6.9 6.6zM466.5 323.5h18.2c.1 53 0 106 .1 159h20.5c0-53-.1-106 .1-159 6.2.1 12.3 0 18.5.1-.1 50.8 0 101.6 0 152.4-.1 3.7.3 7.4-.6 11-1.7 7.7-9.3 13.6-17.1 13.5h-22c-9.6-.2-17.7-9.1-17.5-18.6-.3-52.8-.2-105.6-.2-158.4zM570 323.5c12.6.1 25.3-.1 37.9.1 8.9.1 18.5 6.9 18.6 16.4v58c-.1 8.4-5.7 17.1-14.3 18.6 6 27.9 11.8 55.9 17.8 83.8h-17.2c-6.3-27.6-12.8-55.2-19.1-82.7h-6.3v82.8h-17.5c.1-59 .1-118 .1-177zm18.2 17.5v57.7h20.2v-57.8c-6.7.1-13.4.1-20.2.1zM676.2 323.5c13.2 0 26.5-.1 39.7 0 8.4 0 16.3 6.9 16.6 15.4v56c0 5.2-3.7 9.3-7.3 12.5 3.5 2.9 6.9 6.7 7.3 11.5.5 7.6.2 15.3.3 22.9-.1 11.6.2 23.3-.3 35-.2 5 .8 10.3-1.7 14.8-2.7 5.5-8.8 8.7-14.8 8.7-13.2 0-26.5-.1-39.7 0-.1-58.8 0-117.8-.1-176.8zm18.3 17.5v57.8h20.2v-57.7c-6.7-.1-13.4-.1-20.2-.1zm0 76.2V483h20.3v-65.7c-6.8-.1-13.5 0-20.3-.1zM791.4 324.5c5.4-1.6 11-.8 16.6-1 6.1.1 12.7-.8 18.2 2.3 5.5 2.9 10.5 8.5 10.3 15.1V477c-.1 4 .5 8.1-1.4 11.8-2.8 5.9-8.4 10.9-15.1 11.6-6 .1-12 0-18 .1-3.5 0-7.2.3-10.5-1-7-2.8-12.8-9.7-12.6-17.5V346c0-3.6-.4-7.5 1.2-10.9 2.1-4.9 6.3-8.8 11.3-10.6zm6.9 16.8V482h19.5V341.3h-19.5z"/><path fill="#F79226" d="M1463.5 418h63.3v23.7c-21.1 0-42.2.1-63.3-.1.1-7.8 0-15.7 0-23.6zM390.7 305.3h-17.2v-17.7h55v17.7h-17.2v195h-20.6z"/><path fill="#D5E14D" d="M888.2 307c-.4-9.1 6.9-17.7 15.8-19.1 7.3-.3 14.6 0 21.9-.1 10.5-1.1 20.3 8.8 19.8 19.2v31.3c-6.3.1-12.5 0-18.8 0 0-10.6.1-21.2 0-31.8-7 .1-13.9 0-20.9 0-.1 58.8 0 117.7 0 176.5 7.2 0 14.4.1 21.5-.1-.1-28.5 0-57 0-85.4H918v-17h27.7c0 39.9.1 79.9 0 119.8-12.9-.1-25.8 0-38.7 0-7.5 0-14.9-4.8-17.7-11.8-1.5-3.7-1-7.7-1-11.5 0-56.7 0-113.4-.1-170zM994.2 323.5c12.3 0 24.5-.1 36.8 0 7.5-.1 15.3 4 18.5 11 1.3 2.6 1 5.6 1 8.5-.1 18.7 0 37.3 0 56-.4 7.9-6 16-14.2 17.3 6.1 27.9 11.9 55.9 17.8 83.9H1037c-6.4-27.7-12.8-55.4-19.2-83h-6.1v83.3h-17.5c.1-59 .1-118 0-177zm17.8 17.3v57.5h20.5v-57.5H1012zM1098 339.9c0-8 6.7-15.8 14.9-16.1 8-.1 16.1 0 24.1-.1 4.1-.1 8.4 1 11.6 3.6 3.7 3 5.7 7.8 5.7 12.6v160.3H1137v-84h-21.5c-.1 28 0 56 0 84H1098V339.9zm18 1.9c0 18.9-.1 37.9 0 56.8 6.8-.1 13.6 0 20.5 0v-56.8c-6.8 0-13.7-.1-20.5 0zM1198.3 339c.1-7.8 6.8-15.1 14.7-15.2h29.5v15.8H1216c-.1 19.8 0 39.5 0 59.3h21.7v17.5h-21.8v84h-17.8c.2-53.9.2-107.7.2-161.4zM1286.5 323.8h18.5c.1 16.4-.2 32.7.2 49.1 3.1 5.2 6.8 10.2 10.1 15.3 3.2-5.1 7-9.8 9.9-15 .3-16.4.1-32.9.1-49.3h18.5c-.1 11.8 0 23.5 0 35.3-.1 5.5.5 11.1-1.5 16.3-4.1 10.9-10.3 20.9-16.4 30.8 7 11.2 14.5 22.5 17.7 35.5.4 19.6.1 39.3.1 58.9h-17.2c-.1-19.7.1-39.4-.1-59.2-2.9-6-7.3-11.2-10.8-16.9-3.6 5.5-7.3 10.8-10.9 16.3 0 19.9.1 39.8 0 59.8-6.1-.1-12.1 0-18.2 0v-55.5c-.1-5 2.3-9.6 4.3-14.1 4.3-8.7 9.3-17 14.7-25-7.2-11.1-15.3-22.1-18.8-35-.5-15.9 0-31.6-.2-47.3z"/></svg>