<svg xmlns="http://www.w3.org/2000/svg" xmlns:i="&amp;ns_ai;" xml:space="preserve" width="1450" height="424"><g i:extraneous="self"><path d="M223.087 24.132h206.366v61.634h-70.44v181.052h-68.788V85.766h-67.688zM448.714 24.132h67.688v243.236h-68.789zM537.313 113.282h61.084v47.877h-61.084zM614.022 213.782l71.331-8.391c1.877 9.324 5.047 15.905 9.511 19.743 4.461 3.84 9.921 5.758 16.379 5.758 11.506 0 20.489-5.43 26.947-16.288 4.695-8.005 8.217-24.951 10.568-50.837-8.573 8.226-17.379 14.259-26.419 18.098-9.043 3.84-19.492 5.758-31.35 5.758-23.133 0-42.652-7.676-58.562-23.033-15.912-15.354-23.865-34.768-23.865-58.241 0-16.012 4.051-30.601 12.153-43.763 8.102-13.162 19.255-23.116 33.464-29.861 14.205-6.746 32.055-10.118 53.542-10.118 25.83 0 46.555 4.141 62.172 12.421 15.614 8.283 28.092 21.444 37.427 39.485 9.334 18.043 14.001 41.871 14.001 71.485 0 43.544-9.805 75.434-29.413 95.67-19.611 20.235-46.792 30.354-81.546 30.354-20.549 0-36.752-2.222-48.61-6.663-11.861-4.442-21.724-10.941-29.589-19.496-7.868-8.554-13.913-19.248-18.141-32.081zm132.094-107.597c0-13.051-3.522-23.28-10.567-30.684-7.045-7.403-15.618-11.105-25.714-11.105-9.511 0-17.409 3.347-23.689 10.036-6.283 6.691-9.422 16.727-9.422 30.107 0 13.491 3.258 23.802 9.775 30.93 6.516 7.131 14.646 10.694 24.394 10.694 10.097 0 18.493-3.455 25.186-10.365 6.691-6.909 10.037-16.78 10.037-29.613zM836.574 213.782l71.33-8.391c1.876 9.324 5.047 15.905 9.511 19.743 4.46 3.84 9.921 5.758 16.379 5.758 11.506 0 20.489-5.43 26.948-16.288 4.695-8.005 8.218-24.951 10.567-50.837-8.572 8.226-17.378 14.259-26.418 18.098-9.043 3.84-19.493 5.758-31.351 5.758-23.132 0-42.652-7.676-58.561-23.033-15.912-15.354-23.865-34.768-23.865-58.241 0-16.012 4.051-30.601 12.152-43.763 8.102-13.162 19.256-23.116 33.464-29.861 14.205-6.746 32.054-10.118 53.542-10.118 25.829 0 46.555 4.141 62.172 12.421 15.615 8.283 28.092 21.444 37.427 39.485 9.335 18.043 14.002 41.871 14.002 71.485 0 43.544-9.806 75.434-29.412 95.67-19.611 20.235-46.793 30.354-81.547 30.354-20.548 0-36.752-2.222-48.61-6.663-11.861-4.442-21.724-10.941-29.589-19.496-7.868-8.554-13.914-19.248-18.141-32.081zm132.093-107.597c0-13.051-3.522-23.28-10.566-30.684-7.046-7.403-15.618-11.105-25.714-11.105-9.511 0-17.409 3.347-23.689 10.036-6.283 6.691-9.423 16.727-9.423 30.107 0 13.491 3.258 23.802 9.775 30.93 6.517 7.131 14.646 10.694 24.393 10.694 10.097 0 18.493-3.455 25.186-10.365 6.692-6.909 10.038-16.78 10.038-29.613zM1132.198 23.581h33.664L1055.8 273.972h-29.811zM1255.066 278.075v-45.079h-130.684v-66.538l135.265-150.195h74.453v148.235h32.408v68.498H1334.1v45.079zm16.512-61.588v45.078h46.017v-45.078l32.406-.002v-35.478h-32.406V32.772l-50.594.002-126.104 140.021v43.692m130.686-35.48H1175.6l95.978-105.5m-58.639 88.992h42.127V118.19ZM1564.834 278.076l-12.916-39.816h-78.534l-12.583 39.816h-99.732l103.687-257.701h98.183l103.664 257.701zm-.917-56.324 12.919 39.813h65.328l-90.38-224.68h-75.874l-90.401 224.68h63.196l12.586-39.813h96.628v8.255l-7.853 2.547 7.853-2.547v-8.255zm-11.148-35.644H1473.3l39.523-121.522m-16.793 105.012h33.937l-17.057-51.89zM368.916 381.396l16.977 1.699c-1.855 9.015-6.603 16.072-14.243 21.172-7.641 5.099-17.024 7.647-28.15 7.647-13.94 0-25.146-3.51-33.617-10.53-8.473-7.021-12.708-17.082-12.708-30.187 0-8.473 1.822-15.888 5.467-22.242 3.645-6.355 9.191-11.122 16.641-14.3 7.448-3.178 15.552-4.767 24.313-4.767 11.062 0 20.109 2.155 27.143 6.467 7.033 4.311 11.541 10.432 13.523 18.362l-16.785 1.996c-1.599-5.271-4.428-9.238-8.488-11.897-4.061-2.661-8.967-3.99-14.722-3.99-8.697 0-15.763 2.401-21.196 7.205-5.436 4.803-8.153 12.402-8.153 22.796 0 10.544 2.621 18.204 7.865 22.982 5.242 4.779 12.085 7.168 20.525 7.168 6.776 0 12.435-1.601 16.976-4.803 4.539-3.2 7.416-8.128 8.632-14.778zM394.237 370.902c0-14.532 5.242-25.297 15.729-32.292 8.759-5.813 19.437-8.721 32.035-8.721 14.003 0 25.447 3.536 34.335 10.604 8.887 7.069 13.332 16.837 13.332 29.3 0 10.1-1.966 18.044-5.898 23.832-3.932 5.789-9.656 10.284-17.168 13.486-7.514 3.202-15.714 4.803-24.601 4.803-14.26 0-25.785-3.521-34.577-10.567-8.792-7.044-13.187-17.191-13.187-30.445zm17.743 0c0 10.05 2.844 17.576 8.536 22.575 5.69 5.001 12.852 7.501 21.484 7.501 8.567 0 15.696-2.513 21.388-7.538 5.69-5.024 8.536-12.685 8.536-22.981 0-9.705-2.862-17.057-8.584-22.059-5.723-4.999-12.837-7.5-21.34-7.5-8.632 0-15.794 2.488-21.484 7.464-5.692 4.977-8.536 12.489-8.536 22.538zM509.905 410.142v-78.478h15.442v11.011c3.196-3.843 7.448-6.934 12.756-9.274 5.307-2.34 11.349-3.511 18.127-3.511 7.544 0 13.73 1.208 18.56 3.621 4.827 2.414 8.231 5.789 10.214 10.124 8.056-9.163 18.542-13.745 31.458-13.745 10.103 0 17.871 2.155 23.306 6.467 5.434 4.311 8.153 10.949 8.153 19.914v53.871h-17.168v-49.438c0-5.32-.561-9.15-1.679-11.49-1.119-2.34-3.15-4.224-6.09-5.653-2.942-1.429-6.395-2.143-10.358-2.143-7.162 0-13.108 1.836-17.839 5.505-4.732 3.671-7.097 9.546-7.097 17.625v45.594h-17.264v-50.989c0-5.911-1.407-10.345-4.22-13.3-2.814-2.957-7.418-4.435-13.811-4.435-4.86 0-9.352.985-13.476 2.955-4.124 1.972-7.114 4.854-8.968 8.646-1.855 3.795-2.782 9.263-2.782 16.405v40.717h-17.264zM673.529 440.218V331.664h15.73v10.197c3.707-3.99 7.896-6.983 12.564-8.979 4.666-1.995 10.325-2.993 16.976-2.993 8.695 0 16.368 1.726 23.019 5.173 6.649 3.449 11.668 8.313 15.058 14.595 3.388 6.281 5.083 13.167 5.083 20.654 0 8.03-1.87 15.26-5.61 21.688-3.741 6.429-9.176 11.356-16.305 14.779-7.13 3.424-14.626 5.136-22.491 5.136-5.755 0-10.919-.937-15.49-2.809-4.572-1.871-8.329-4.235-11.27-7.094v38.205h-17.264zm15.634-68.872c0 10.1 2.653 17.563 7.961 22.391 5.306 4.829 11.732 7.242 19.278 7.242 7.673 0 14.243-2.5 19.71-7.501 5.467-4.999 8.2-12.746 8.2-23.24 0-10-2.67-17.487-8.009-22.465-5.339-4.975-11.717-7.463-19.134-7.463-7.354 0-13.859 2.648-19.518 7.943-5.658 5.297-8.488 12.995-8.488 23.093zM849.526 410.142v-11.527c-7.929 8.867-18.703 13.301-32.321 13.301-6.011 0-11.622-.887-16.833-2.66-5.212-1.773-9.08-4.002-11.605-6.688-2.526-2.685-4.301-5.974-5.323-9.865-.705-2.61-1.055-6.749-1.055-12.415v-48.623h17.264v43.524c0 6.946.351 11.627 1.055 14.041 1.086 3.498 3.389 6.244 6.906 8.238 3.516 1.996 7.865 2.993 13.044 2.993s10.038-1.021 14.578-3.066c4.54-2.044 7.752-4.827 9.639-8.351 1.885-3.521 2.83-8.633 2.83-15.333v-42.047h17.264v78.478zM929.708 398.244l2.494 11.75c-4.86.787-9.207 1.183-13.043 1.183-6.268 0-11.126-.766-14.579-2.291-3.453-1.526-5.883-3.535-7.289-6.023-1.407-2.486-2.109-7.722-2.109-15.702V342.01H882.52v-10.345h12.661v-19.436l17.167-7.98v27.416h17.36v10.345h-17.36v45.891c0 3.794.303 6.232.911 7.315.606 1.084 1.597 1.946 2.974 2.586 1.374.641 3.34.961 5.898.961 1.918-.001 4.444-.173 7.577-.519zM1016.315 384.869l17.841 1.699c-2.815 8.031-8.026 14.263-15.634 18.696-7.61 4.435-17.328 6.65-29.157 6.65-14.899 0-26.711-3.534-35.439-10.604-8.727-7.067-13.092-16.983-13.092-29.742 0-13.202 4.412-23.45 13.236-30.741 8.823-7.29 20.27-10.938 34.337-10.938 13.619 0 24.744 3.573 33.377 10.715 8.632 7.144 12.948 17.194 12.948 30.15 0 .789-.033 1.971-.097 3.547h-75.962c.64 8.622 3.804 15.223 9.496 19.805 5.689 4.582 12.787 6.872 21.292 6.872 6.331 0 11.733-1.28 16.209-3.843 4.474-2.56 8.023-6.65 10.645-12.266zm-56.683-21.504h56.876c-.769-6.601-2.943-11.552-6.523-14.854-5.5-5.123-12.628-7.685-21.388-7.685-7.929 0-14.595 2.044-19.997 6.133-5.404 4.091-8.392 9.56-8.968 16.406zM1055.639 410.142v-78.478h15.538v11.896c3.964-5.566 7.625-9.237 10.981-11.01 3.356-1.774 7.05-2.661 11.078-2.661 5.817 0 11.732 1.43 17.743 4.287l-5.946 12.34c-4.22-1.921-8.44-2.882-12.66-2.882-3.774 0-7.162.875-10.167 2.623-3.007 1.75-5.147 4.176-6.426 7.279-1.918 4.729-2.878 9.902-2.878 15.519v41.086h-17.263z" style="fill:#919191" transform="translate(-219.57 -16.24)"/></g></svg>