<svg xmlns:dc="http://purl.org/dc/elements/1.1/" xmlns:cc="http://creativecommons.org/ns#" xmlns:rdf="http://www.w3.org/1999/02/22-rdf-syntax-ns#" xmlns:svg="http://www.w3.org/2000/svg" xmlns="http://www.w3.org/2000/svg" viewBox="0 0 300 78.646798" version="1.1" id="svg27547" height="78.646797" width="300">  <defs id="defs27549"/>  <metadata id="metadata27552">    <rdf:RDF>      <cc:Work rdf:about="">        <dc:format>image/svg+xml</dc:format>        <dc:type rdf:resource="http://purl.org/dc/dcmitype/StillImage"/>        <dc:title/>      </cc:Work>    </rdf:RDF>  </metadata>  <g transform="translate(1635.7143,52.675499)" id="layer1">    <g transform="matrix(2.8909082,0,0,2.8909082,136.51006,-167.46761)" id="g27488">      <path id="path9166" style="fill:#000000;fill-opacity:1;fill-rule:evenodd;stroke:none" d="m -612.9014,65.9861 4.51713,0 0,-1.377875 -2.58338,0 0,-0.779125 2.421,0 0,-1.377625 -2.421,0 0,-0.812 2.53163,0 0,-1.377625 -4.46538,0 0,5.72425 z"/>      <path id="path9168" style="fill:#000000;fill-opacity:1;fill-rule:evenodd;stroke:none" d="m -606.48302,65.9861 4.40625,0 0,-1.6895 -2.42825,0 0,-4.03475 -1.978,0 0,5.72425 z"/>      <path id="path9170" style="fill:#000000;fill-opacity:1;fill-rule:evenodd;stroke:none" d="m -600.32977,65.9861 4.517,0 0,-1.377875 -2.58326,0 0,-0.779125 2.421,0 0,-1.377625 -2.421,0 0,-0.812 2.53175,0 0,-1.377625 -4.4655,0 0,5.72425 z"/>      <path id="path9172" style="fill:#000000;fill-opacity:1;fill-rule:evenodd;stroke:none" d="m -589.63815,64.337475 c -0.36162,0.1395 -0.70837,0.221625 -1.07,0.221625 -0.81925,0 -1.40987,-0.50025 -1.40987,-1.484375 0,-0.93475 0.63487,-1.43525 1.47625,-1.43525 0.33212,0 0.66425,0.09875 0.989,0.21325 l 0,-1.509125 c -0.5315,-0.10625 -0.85613,-0.18025 -1.40238,-0.18025 -1.65337,0 -3.08525,0.959375 -3.08525,2.878625 0,2.042 1.37288,3.042375 3.08525,3.042375 0.50188,0 1.04813,-0.115 1.417,-0.2295 l 0,-1.517375 z"/>      <path id="path9174" style="fill:#000000;fill-opacity:1;fill-rule:evenodd;stroke:none" d="m -582.66702,60.26185 -5.46163,0 0,1.689125 1.74188,0 0,4.035125 1.978,0 0,-4.035125 1.74174,0 0,-1.689125 z"/>      <path id="path9176" style="fill:#000000;fill-opacity:1;fill-rule:evenodd;stroke:none" d="m -580.98952,65.9861 1.978,0 0,-1.94375 0.44275,0 c 0.2435,0 0.44275,0.0325 0.56087,0.295125 0.1625,0.3445 0.18463,1.238375 0.27313,1.648625 l 2.05937,0 c -0.20675,-0.557625 -0.18462,-1.4435 -0.48725,-2.05025 -0.1845,-0.303625 -0.44275,-0.533125 -0.87075,-0.61525 l 0,-0.01625 c 0.738,-0.196875 1.23238,-0.63975 1.23238,-1.517125 0,-1.098875 -0.76013,-1.52525 -1.99275,-1.52525 l -3.19575,0 0,5.72425 z m 1.8895,-4.445 0.546,0 c 0.39862,0 0.775,0.07375 0.775,0.590625 0,0.58225 -0.3985,0.631375 -0.80438,0.631375 l -0.51662,0 0,-1.222 z"/>      <path id="path9178" style="fill:#000000;fill-opacity:1;fill-rule:evenodd;stroke:none" d="m -568.3724,63.12385 c 0,-1.919 -1.07762,-2.9605 -2.87862,-2.9605 -1.80075,0 -2.85625,1.0415 -2.85625,2.9605 0,1.951875 1.0555,2.9605 2.85625,2.9605 1.801,0 2.87862,-1.008625 2.87862,-2.9605 z m -3.66837,0 c 0,-0.532875 0.0587,-1.58275 0.78975,-1.58275 0.75287,0 0.80462,1.049875 0.812,1.58275 -0.0125,0.61525 -0.03,1.582875 -0.812,1.582875 -0.70838,0 -0.78975,-0.967625 -0.78975,-1.582875 z"/>      <path id="path9180" style="fill:#000000;fill-opacity:1;fill-rule:evenodd;stroke:none" d="m -566.59465,65.9861 1.69775,0 0,-4.149875 0.015,0 1.00388,4.149875 2.90799,0 0,-5.72425 -1.69749,0 0,4.03475 -0.015,0 -0.95225,-4.03475 -2.95975,0 0,5.72425 z"/>      <path id="path9182" style="fill:#000000;fill-opacity:1;fill-rule:evenodd;stroke:none" d="m -558.95552,60.26185 0,5.72425 1.978,0 0,-5.72425 -1.978,0 z"/>      <path id="path9184" style="fill:#000000;fill-opacity:1;fill-rule:evenodd;stroke:none" d="m -550.68165,64.337475 c -0.36175,0.1395 -0.70862,0.221625 -1.07025,0.221625 -0.81925,0 -1.40975,-0.50025 -1.40975,-1.484375 0,-0.93475 0.63475,-1.43525 1.47613,-1.43525 0.33212,0 0.66437,0.09875 0.98912,0.21325 l 0,-1.509125 c -0.5315,-0.10625 -0.85625,-0.18025 -1.4025,-0.18025 -1.65325,0 -3.08512,0.959375 -3.08512,2.878625 0,2.042 1.37275,3.042375 3.08512,3.042375 0.502,0 1.04813,-0.115 1.41725,-0.2295 l 0,-1.517375 z"/>      <path id="path9186" style="fill:#000000;fill-opacity:1;fill-rule:evenodd;stroke:none" d="m -544.70702,60.3601 c -0.53888,-0.1225 -1.15138,-0.19675 -1.70488,-0.19675 -1.17363,0 -2.64975,0.278875 -2.64975,1.85325 0,2.222625 2.70875,1.525625 2.70875,2.2965 0,0.286875 -0.42062,0.393625 -0.88575,0.393625 -0.59037,0 -1.24,-0.13125 -1.77137,-0.377125 l 0,1.484375 c 0.738,0.1885 1.3655,0.270375 2.12562,0.270375 1.144,0 2.5095,-0.3855 2.5095,-1.919 0,-2.206125 -2.70875,-1.500875 -2.70875,-2.247 0,-0.369 0.53875,-0.37725 0.84888,-0.37725 0.56087,0 1.08487,0.115 1.52775,0.286875 l 0,-1.467875 z"/>      <path id="path9188" style="fill:#000000;fill-opacity:1;fill-rule:evenodd;stroke:none" d="m -542.21527,64.41135 -0.45763,2.5015 1.1735,0 0.84875,-2.5015 -1.56462,0 z"/>      <path id="path9190" style="fill:#000000;fill-opacity:1;fill-rule:evenodd;stroke:none" d="m -534.74252,65.9861 4.4065,0 0,-1.6895 -2.42825,0 0,-4.03475 -1.97825,0 0,5.72425 z"/>      <path id="path9192" style="fill:#000000;fill-opacity:1;fill-rule:evenodd;stroke:none" d="m -524.18202,60.26185 -5.46188,0 0,1.689125 1.74188,0 0,4.035125 1.978,0 0,-4.035125 1.742,0 0,-1.689125 z"/>      <path id="path9194" style="fill:#000000;fill-opacity:1;fill-rule:evenodd;stroke:none" d="m -522.4384,65.9861 2.8195,0 c 1.47613,0 2.59813,-0.680875 2.59813,-2.845875 0,-2.32075 -1.04075,-2.878375 -2.51688,-2.878375 l -2.90075,0 0,5.72425 z m 1.97813,-4.39575 0.48712,0 c 0.70863,0 0.88575,0.508375 0.88575,1.4925 0,0.95125 -0.1625,1.47625 -0.87837,1.47625 l -0.49451,0 0,-2.96875 z"/>      <path id="path9196" style="fill:#000000;fill-opacity:1;fill-rule:evenodd;stroke:none" d="m -515.97977,65.9861 1.609,0 0,-1.57475 -1.609,0 0,1.57475 z"/>      <path id="path9198" style="fill:#ff0000;fill-opacity:1;fill-rule:evenodd;stroke:none" d="m -511.69777,55.132725 0.22612,0 0.51838,0.943 0.56812,0 -0.57362,-0.981375 c 0.29787,-0.0225 0.5405,-0.170875 0.5405,-0.58475 0,-0.51275 -0.342,-0.678375 -0.921,-0.678375 l -0.83825,0 0,2.2445 0.47975,0 0,-0.943 z m 0,-0.3805 0,-0.5405 0.3365,0 c 0.182,0 0.43012,0.0175 0.43012,0.2485 0,0.248 -0.12675,0.292 -0.342,0.292 l -0.42462,0 z m 2.43762,0.204125 c 0,-1.318 -0.98712,-2.084625 -2.09012,-2.084625 -1.10863,0 -2.09563,0.766625 -2.09563,2.084625 0,1.318125 0.987,2.08475 2.09563,2.08475 1.103,0 2.09012,-0.766625 2.09012,-2.08475 z m -0.601,0 c 0,0.9595 -0.684,1.605 -1.48912,1.605 l 0,0 c -0.82725,0 -1.49463,-0.64 -1.49463,-1.5995 0,-0.9595 0.66738,-1.599375 1.49463,-1.599375 0.80512,0 1.48912,0.639875 1.48912,1.599375 z"/>      <path id="path9200" style="fill:#ff0000;fill-opacity:1;fill-rule:nonzero;stroke:none" d="m -551.0084,44.1251 -3.58025,0 0,7.43925 -5.1145,0 0,-11.81 9.11325,0 c 6.32338,0.04625 7.85775,6.509375 3.71963,9.624625 0.79112,0.558125 1.20887,1.023 1.20887,2.045875 l 0,1.2555 23.8545,0 c 1.674,0 2.23175,-0.6045 2.23175,-1.3485 0,-0.7905 -0.74375,-1.39475 -0.65087,-2.557125 0.23312,-2.23175 4.37062,-2.60375 5.5795,1.208875 1.11587,3.626625 -1.11588,6.18375 -3.90563,6.974375 -0.8835,0.23225 -1.62737,0.0925 -2.74325,0.1395 l -29.5735,0 0,-5.25425 c 0,-0.69725 -0.3255,-1.255375 -1.209,-1.255375 l -1.25525,0 0,-4.51 2.46425,0 c 1.53425,0 1.53425,-2.09225 -0.1395,-1.95275 z"/>      <path id="path9202" style="fill:#ff0000;fill-opacity:1;fill-rule:nonzero;stroke:none" d="m -598.71315,39.707975 4.92863,0 0,4.417125 0,12.972375 -4.92863,0 0,-12.972375 0,-4.417125 z"/>      <path id="path9204" style="fill:#ff0000;fill-opacity:1;fill-rule:nonzero;stroke:none" d="m -575.65115,39.707975 0,4.417125 -7.02087,0 c -3.67325,-0.09375 -5.254,2.37125 -5.254,4.603 0,2.045875 1.39475,3.998625 4.41712,3.95225 l 2.78975,0 0,-2.185375 -3.85925,0 0,-4.4635 8.92725,0 0,11.066 -8.13612,0 c -6.60313,0.04625 -8.88138,-4.045125 -8.74188,-9.485125 0.0925,-2.88275 2.41775,-7.858 8.36925,-7.904375 l 8.50875,0 z"/>      <path id="path9206" style="fill:#ff0000;fill-opacity:1;fill-rule:nonzero;stroke:none" d="m -561.2839,39.707975 0,4.417125 -6.2305,0 c -1.62737,0.09375 -1.81275,2.23175 0.279,2.185375 l 5.9515,0 0,4.4635 -6.37,0 c -1.53437,-0.04625 -1.53437,1.85975 -0.186,1.906375 l 13.34425,0 0,4.417125 -15.20412,0 c -4.3705,0.0925 -7.43925,-4.74275 -3.02213,-8.83425 -3.34712,-3.440875 -1.85987,-8.55525 2.92925,-8.55525 l 8.50875,0 z"/>      <path id="path9208" style="fill:#ff0000;fill-opacity:1;fill-rule:nonzero;stroke:none" d="m -613.03377,39.707975 12.97225,0 0,4.417125 -3.90563,0 0,12.972375 -5.1145,0 0,-12.972375 -3.95212,0 0,-4.417125 z"/>      <path id="path9210" style="fill:#ff0000;fill-opacity:1;fill-rule:nonzero;stroke:none" d="m -611.2204,44.58985 c 0.92988,0 1.67375,0.697625 1.67375,1.6275 0,0.8835 -0.74387,1.673875 -1.67375,1.673875 -0.8835,0 -1.62737,-0.790375 -1.62737,-1.673875 0,-0.929875 0.74387,-1.6275 1.62737,-1.6275 z"/>      <path id="path9212" style="fill:#ff0000;fill-opacity:1;fill-rule:nonzero;stroke:none" d="m -601.92127,44.58985 c 0.92987,0 1.67375,0.697625 1.67375,1.6275 0,0.8835 -0.74388,1.673875 -1.67375,1.673875 -0.8835,0 -1.62738,-0.790375 -1.62738,-1.673875 0,-0.929875 0.74388,-1.6275 1.62738,-1.6275 z"/>    </g>  </g></svg>