<svg xmlns="http://www.w3.org/2000/svg" width="833" height="111" viewBox="0 0 220.398 29.369"><g style="display:inline"><path d="M100.145 297c-17.163 0-17.86-1.373-17.86-9.525h8.732c0 3.428.828 3.175 8.202 3.175 6.906 0 10.06.13 10.054-2.514-.006-2.642-2.862-2.513-3.704-2.513H92.604c-5.29 0-10.583-.532-10.583-8.599s3.396-9.393 17.462-9.393c14.067 0 17.463.596 17.463 9.26l-8.743.014c0-3.262-2.458-2.924-7-2.924-7.73 0-10.45-.101-10.45 2.514 0 2.615 3.618 2.513 4.762 2.513h10.847c9.076 0 11.642 1.658 11.642 8.996 0 7.339-2.56 8.996-17.86 8.996zm46.17-7.673c0-3.903.961-5.595 4.762-7.276-3.431-.843-4.498-2.706-4.498-6.615 0-8.101 5.82-7.54 16.669-7.54s16.669-.616 16.669 7.54c0 3.92-.814 5.963-4.498 6.615 4.113 1.358 4.762 3.362 4.762 7.012 0 8.668-7.82 7.937-16.933 7.937s-16.933.709-16.933-7.673zm16.933 1.588c4.923 0 8.731.393 8.731-3.043 0-3.437-3.747-3.043-8.731-3.043s-8.731-.382-8.731 3.043c0 3.424 3.808 3.043 8.73 3.043zm8.467-14.553c0-3.362-3.822-2.91-8.467-2.91-4.645 0-8.467-.422-8.467 2.91 0 3.333 3.822 2.91 8.467 2.91 4.645 0 8.467.453 8.467-2.91zM202.406 297c-14.482 0-17.991.034-17.991-14.684 0-14.719 4.273-14.685 17.991-14.685s17.992-.02 17.992 14.685c0 14.704-3.51 14.684-17.992 14.684zm0-7.144c9.38 0 9.525-.296 9.525-7.54 0-7.245-.61-7.806-9.525-7.806-8.914 0-9.525.562-9.525 7.806 0 7.243.146 7.54 9.525 7.54zM12.7 296.736v-21.432H0v-7.408h34.396v7.408h-12.7v21.431zm26.988 0v-28.84h26.987c7.517 0 9.26 3.101 9.26 9.525 0 6.423-2.361 7.41-4.762 8.278 3.293.833 4.498 2.34 4.498 5.48v5.556h-9.26v-3.968c0-1.603-.02-3.175-2.911-3.175H48.683v7.143zm22.49-14.553c4.762 0 4.762-.629 4.762-3.44 0-2.81 0-3.439-4.763-3.439H48.683v6.9zm59.53 4.234v-9.26h21.167v9.26z" style="fill:#000;stroke-width:.26458335" transform="translate(0 -267.631)"/></g><script/></svg>