<svg xmlns="http://www.w3.org/2000/svg" viewBox="0 0 347.869 102.59"><path fill="#040006" d="M276.662 27.554h-44.959a.284.284 0 0 0-.277.225l-9.38 44.267a.283.283 0 0 0 .277.342h44.959a.284.284 0 0 0 .277-.225l9.38-44.267a.283.283 0 0 0-.277-.342zM256.5 61.666a.28.28 0 0 1-.273.222h-18.4a.279.279 0 0 1-.273-.337l4.932-23.274a.28.28 0 0 1 .273-.222h18.4c.178 0 .31.164.273.337L256.5 61.666zm-33.227-29.101-5.087-4.93a.29.29 0 0 0-.201-.081h-38.714a.288.288 0 0 0-.282.229l-9.378 44.257a.288.288 0 0 0 .282.348h38.616c.06 0 .118-.019.167-.054l7.338-5.231a.287.287 0 0 0 .115-.175l2.584-12.193a.288.288 0 0 0-.081-.267l-5.29-5.127a.29.29 0 0 1 .033-.442l7.653-5.455a.287.287 0 0 0 .115-.175l2.212-10.438a.287.287 0 0 0-.082-.266zm-19.419 29.093a.289.289 0 0 1-.282.229h-18.734a.288.288 0 0 1-.282-.349l1.306-6.14a.288.288 0 0 1 .282-.228h18.726c.183 0 .32.169.282.348l-1.298 6.14zm3.627-17.116a.289.289 0 0 1-.282.229h-18.734a.289.289 0 0 1-.282-.349l1.306-6.14a.288.288 0 0 1 .282-.228h18.726c.183 0 .32.169.282.348l-1.298 6.14zM51.284 52.35l-4.199 19.815a.28.28 0 0 1-.274.222H1.552a.28.28 0 0 1-.274-.339l9.381-44.272a.28.28 0 0 1 .274-.222h12.843a.28.28 0 0 1 .274.339l-7.13 33.651a.28.28 0 0 0 .274.339H35.62a.28.28 0 0 0 .274-.222l7.18-33.883a.28.28 0 0 1 .274-.222h12.843a.28.28 0 0 1 .274.339l-2.69 12.694a.28.28 0 0 0 .392.313l84.59-38.873c.266-.122.518.194.34.426l-48.702 63.45c-.178.232.074.548.34.426l30.373-13.957a.278.278 0 0 0 .157-.197l5.17-24.4a.28.28 0 0 1 .274-.222h44.611a.28.28 0 0 1 .274.339l-2.106 9.939a.28.28 0 0 1-.274.222h-31.456a.28.28 0 0 0-.274.222l-1.304 6.156a.28.28 0 0 0 .274.339h20.307a.28.28 0 0 1 .274.339l-2.085 9.839a.28.28 0 0 1-.274.222h-20.545a.28.28 0 0 0-.274.222l-1.304 6.156a.28.28 0 0 0 .274.339h31.218a.28.28 0 0 1 .274.339l-2.106 9.939a.28.28 0 0 1-.274.222h-44.611a.28.28 0 0 1-.274-.339l1.717-8.103a.28.28 0 0 0-.392-.313L33.65 102.565c-.263.121-.513-.192-.336-.421l48.71-63.461c.178-.232-.074-.548-.34-.426L51.442 52.153a.282.282 0 0 0-.158.197zm222.245 19.689 1.215-5.733a.288.288 0 0 1 .083-.149l16.838-16.023a.29.29 0 0 0 .046-.362l-9.983-16.037a.287.287 0 0 1-.037-.212l1.216-5.738a.29.29 0 0 1 .283-.229h13.044a.29.29 0 0 1 .245.135l6.828 10.889a.289.289 0 0 0 .444.056l11.56-11a.29.29 0 0 1 .199-.08h12.966a.29.29 0 0 1 .283.349l-1.196 5.645a.288.288 0 0 1-.083.149l-16.86 16.109a.288.288 0 0 0-.045.362l10.001 15.948a.29.29 0 0 1 .038.213l-1.235 5.826a.29.29 0 0 1-.283.229h-13.044a.29.29 0 0 1-.245-.135l-6.828-10.889a.289.289 0 0 0-.444-.056l-11.56 11a.29.29 0 0 1-.199.08H273.81a.287.287 0 0 1-.281-.347z"/><linearGradient id="a" x1="248.221" x2="248.221" y1="70.387" y2="25.554" gradientUnits="userSpaceOnUse"><stop offset="0" stop-color="#d9d9d9"/><stop offset=".1" stop-color="#bfbfbf"/><stop offset=".2" stop-color="#d9d9d9"/><stop offset=".3" stop-color="#bfbfbf"/><stop offset=".4" stop-color="#d9d9d9"/><stop offset=".5" stop-color="#bfbfbf"/><stop offset=".6" stop-color="#d9d9d9"/><stop offset=".7" stop-color="#bfbfbf"/><stop offset=".8" stop-color="#d9d9d9"/><stop offset=".9" stop-color="#bfbfbf"/><stop offset="1" stop-color="#d9d9d9"/></linearGradient><path fill="url(#a)" d="M275.391 25.554h-44.959a.284.284 0 0 0-.277.225l-9.38 44.267a.283.283 0 0 0 .277.342h44.959a.284.284 0 0 0 .277-.225l9.38-44.267a.283.283 0 0 0-.277-.342zm-20.162 34.112a.28.28 0 0 1-.273.222h-18.4a.279.279 0 0 1-.273-.337l4.932-23.274a.28.28 0 0 1 .273-.222h18.4c.178 0 .31.164.273.337l-4.932 23.274z"/><linearGradient id="b" x1="195.213" x2="195.213" y1="70.387" y2="25.554" gradientUnits="userSpaceOnUse"><stop offset="0" stop-color="#d9d9d9"/><stop offset=".1" stop-color="#bfbfbf"/><stop offset=".2" stop-color="#d9d9d9"/><stop offset=".3" stop-color="#bfbfbf"/><stop offset=".4" stop-color="#d9d9d9"/><stop offset=".5" stop-color="#bfbfbf"/><stop offset=".6" stop-color="#d9d9d9"/><stop offset=".7" stop-color="#bfbfbf"/><stop offset=".8" stop-color="#d9d9d9"/><stop offset=".9" stop-color="#bfbfbf"/><stop offset="1" stop-color="#d9d9d9"/></linearGradient><path fill="url(#b)" d="m222.002 30.565-5.087-4.93a.29.29 0 0 0-.201-.081H178a.288.288 0 0 0-.282.229L168.34 70.04a.288.288 0 0 0 .282.348h38.616c.06 0 .118-.019.167-.054l7.338-5.231a.287.287 0 0 0 .115-.175l2.584-12.193a.288.288 0 0 0-.081-.267l-5.29-5.127a.29.29 0 0 1 .033-.442l7.653-5.455a.287.287 0 0 0 .115-.175l2.212-10.438a.287.287 0 0 0-.082-.266zm-19.419 29.093a.289.289 0 0 1-.282.229h-18.734a.288.288 0 0 1-.282-.349l1.306-6.14a.288.288 0 0 1 .282-.228h18.726c.183 0 .32.169.282.348l-1.298 6.14zm3.627-17.116a.289.289 0 0 1-.282.229h-18.734a.289.289 0 0 1-.282-.349l1.306-6.14a.288.288 0 0 1 .282-.228h18.726c.183 0 .32.169.282.348l-1.298 6.14z"/><linearGradient id="c" x1="85.165" x2="85.165" y1="100.58" gradientUnits="userSpaceOnUse"><stop offset="0" stop-color="#d9d9d9"/><stop offset=".1" stop-color="#bfbfbf"/><stop offset=".2" stop-color="#d9d9d9"/><stop offset=".3" stop-color="#bfbfbf"/><stop offset=".4" stop-color="#d9d9d9"/><stop offset=".5" stop-color="#bfbfbf"/><stop offset=".6" stop-color="#d9d9d9"/><stop offset=".7" stop-color="#bfbfbf"/><stop offset=".8" stop-color="#d9d9d9"/><stop offset=".9" stop-color="#bfbfbf"/><stop offset="1" stop-color="#d9d9d9"/></linearGradient><path fill="url(#c)" d="m50.014 50.35-4.199 19.815a.28.28 0 0 1-.274.222H.281a.28.28 0 0 1-.274-.339l9.381-44.272a.28.28 0 0 1 .274-.222h12.843a.28.28 0 0 1 .274.339l-7.13 33.651a.28.28 0 0 0 .274.339H34.35a.28.28 0 0 0 .274-.222l7.18-33.883a.28.28 0 0 1 .274-.222h12.843a.28.28 0 0 1 .274.339l-2.69 12.694a.28.28 0 0 0 .392.313L137.487.029c.266-.122.518.194.34.426l-48.703 63.45c-.178.232.074.548.34.426l30.373-13.957a.278.278 0 0 0 .157-.197l5.17-24.4a.28.28 0 0 1 .274-.222h44.611a.28.28 0 0 1 .274.339l-2.106 9.939a.28.28 0 0 1-.274.222h-31.456a.28.28 0 0 0-.274.222l-1.304 6.156a.28.28 0 0 0 .274.339h20.307a.28.28 0 0 1 .274.339l-2.085 9.839a.28.28 0 0 1-.274.222H132.86a.28.28 0 0 0-.274.222l-1.304 6.156a.28.28 0 0 0 .274.339h31.218a.28.28 0 0 1 .274.339l-2.106 9.939a.28.28 0 0 1-.274.222h-44.611a.28.28 0 0 1-.274-.339l1.717-8.103a.28.28 0 0 0-.392-.313l-84.705 38.92c-.27.124-.525-.196-.344-.431l48.694-63.44c.178-.232-.074-.548-.34-.426L50.171 50.153a.278.278 0 0 0-.157.197z"/><linearGradient id="d" x1="299.872" x2="299.872" y1="70.387" y2="25.554" gradientUnits="userSpaceOnUse"><stop offset="0" stop-color="#d9d9d9"/><stop offset=".1" stop-color="#bfbfbf"/><stop offset=".2" stop-color="#d9d9d9"/><stop offset=".3" stop-color="#bfbfbf"/><stop offset=".4" stop-color="#d9d9d9"/><stop offset=".5" stop-color="#bfbfbf"/><stop offset=".6" stop-color="#d9d9d9"/><stop offset=".7" stop-color="#bfbfbf"/><stop offset=".8" stop-color="#d9d9d9"/><stop offset=".9" stop-color="#bfbfbf"/><stop offset="1" stop-color="#d9d9d9"/></linearGradient><path fill="url(#d)" d="m272.258 70.039 1.215-5.733a.288.288 0 0 1 .083-.149l16.838-16.023a.29.29 0 0 0 .046-.362l-9.983-16.037a.287.287 0 0 1-.037-.212l1.216-5.738a.29.29 0 0 1 .283-.229h13.044a.29.29 0 0 1 .245.135l6.828 10.889a.289.289 0 0 0 .444.056l11.56-11a.29.29 0 0 1 .199-.08h12.966a.29.29 0 0 1 .283.349l-1.196 5.645a.288.288 0 0 1-.083.149L309.352 47.81a.288.288 0 0 0-.045.362l10.001 15.948a.29.29 0 0 1 .038.213l-1.235 5.826a.29.29 0 0 1-.283.229h-13.044a.29.29 0 0 1-.245-.135l-6.828-10.889a.289.289 0 0 0-.444-.056l-11.56 11a.29.29 0 0 1-.199.08h-12.966a.29.29 0 0 1-.284-.349z"/><path fill="#696969" d="M334.54 26.882h-2.738l.375-1.575h7.101l-.375 1.575h-2.738l-1.147 5.551h-1.625l1.147-5.551zm11.175.78-2.246 1.871h-.265l-1.545-1.871-.849 4.778h-1.739l1.256-7.125h1.55l1.854 1.843 2.602-1.843h1.536l-1.256 7.125h-1.772l.874-4.778z"/></svg>