<svg xmlns="http://www.w3.org/2000/svg" xmlns:xlink="http://www.w3.org/1999/xlink" version="1.1" id="Camada_1" x="0px" y="0px" viewBox="0 0 780.7 232.6" style="enable-background:new 0 0 780.7 232.6;" xml:space="preserve">
<style type="text/css">
	.st0{fill:#FFFFFF;}
	.st1{fill:#E18837;}
	.st2{fill:#8A6AA2;}
	.st3{fill:#0D0E0F;}
	.st4{fill:#CBCFD0;}
	.st5{fill:#007CB3;}
	.st6{fill:#F0973A;}
	.st7{fill:#007CB4;}
	.st8{fill:none;}
</style>
<g id="XMLID_27_">
	<path id="XMLID_32_" class="st0" d="M651.3,47.3c0.8-1.5,2.6-1.6,4.1-1.4c0.6,4.2-0.8,10.9-6,11.3C648,53.8,649.1,50.1,651.3,47.3z   "/>
	<path id="XMLID_31_" class="st0" d="M666.3,49.1c0.8-0.1,2.3-0.2,3.1-0.3c0.7,3.9,0,8-2.5,11.1c-0.6,0-1.9,0.1-2.5,0.2   C662.7,56.5,663.6,52,666.3,49.1z"/>
	<g id="XMLID_28_">
		<path id="XMLID_29_" class="st0" d="M627.4,35.7c18.6-3.1,37.8,0.7,55,8.1c7.1,3.8,15.6,7,19.5,14.6c3.4,6.7,3.8,14.6,3,21.9    c-0.6,7.9-3.1,15.5-6,22.8c-1.9,5-5.5,9.1-9,13c-3.9,4.3-9.3,7.1-15.1,7.5c-18.5,1.2-37.6-0.3-55.1-7c-5.8-2.3-11.8-6.1-13.5-12.5    c-1.5-6.2-0.8-12.6-1-18.8c-0.4-13.5,2.8-26.9,8.8-39C616.6,41,621.7,37.2,627.4,35.7z"/>
	</g>
</g>
<g id="XMLID_23_">
	<path id="XMLID_24_" class="st1" d="M605.5,26.5c2-6.4,6.2-12.3,12-15.7c3.5-0.9,7.1-0.6,10.7-0.3c9.7,2.5,16.6,11.9,27,12.4   c7,1,14.3,1,20.9,3.6c7.6,2.6,13.6,9.5,22.1,9.6c7.8,0.8,16-0.2,23.4,3c5.7,2.8,10.7,8.6,10.3,15.3c-0.1,6.5-4.2,11.8-7.8,16.8   c-3.9,5.3-1.9,12.2-2.1,18.3c0,1.7,0,3.4-0.2,5c-2.1,5.3-6.2,9.9-6.3,15.8c-0.4,4.1,0.5,8.3,1.4,12.3c1.9,7.4-1.9,16.6-9.5,18.9   c-5.9,1.6-12.2,0.7-17.8-1.4c-5.7-2.1-11.7-3.6-17.8-3.8c-1.6-0.1-3.2-0.1-4.8-0.1c-10.1,1.1-20.5,0.8-30.3-2.3   c-1.6-0.5-3.2-1-4.9-1.4c-2.8-0.7-5.7-1.4-8.6-1.2c-4.4,0.3-8.5,2.2-13,2.4c-6-0.2-12.6-1.8-16.4-6.7c-3.5-3.9-3.4-9.5-2.9-14.5   c0.5-6,4-11.1,5.6-16.7c2-6.6,2.1-13.5,2-20.3c0.1-1.6-0.5-3.1-1.4-4.5c0.8-1.3,1.5-2.7,1.6-4.2c0.6-6.6,3.9-12.5,5.8-18.7   C605.6,40.8,603.7,33.5,605.5,26.5z M627.6,35.7c-5.7,1.4-10.8,5.3-13.3,10.6c-6,12-9.2,25.5-8.8,39c0.2,6.3-0.5,12.7,1,18.8   c1.6,6.4,7.7,10.3,13.5,12.5c17.5,6.7,36.5,8.2,55.1,7c5.8-0.3,11.2-3.2,15.1-7.5c3.5-3.9,7.1-8,9-13c2.9-7.3,5.4-14.9,6-22.8   c0.8-7.3,0.4-15.2-3-21.9c-3.9-7.6-12.3-10.8-19.5-14.6C665.4,36.5,646.2,32.6,627.6,35.7z"/>
</g>
<g id="XMLID_18_">
	<path id="XMLID_22_" class="st2" d="M546.5,27.6c5.2-4.8,13.7-3.7,18.8,0.7c8,6.9,8.6,18.3,12.4,27.5c-1.1,1-2.2,2-3.3,3   c-7.9,1.4-15.5-2.6-22.1-6.6c-4.5-2.6-7.9-7-9-12.1C542.4,35.8,542.8,30.5,546.5,27.6z"/>
	<path id="XMLID_21_" class="st2" d="M741.5,51.5c2.2-6.8,9.5-11.7,16.7-10.7c4.9-0.1,8.4,4.1,10.4,8.1c2.1,3.7,1.8,8.2,1.3,12.3   c-1.6,5.6-5.8,10.1-10.5,13.4c-3.6,2.6-8,3.6-12,5.3c-0.7-1.2-1.4-2.4-2.1-3.6c-1.7-3-1.4-6.5-2.2-9.7   C742.2,61.6,740.1,56.5,741.5,51.5z"/>
	<path id="XMLID_20_" class="st2" d="M607.2,160.2c4.3-1.8,9.1-4.3,13.7-2.1c1.6,0.7,3.2,1.4,4.9,1.9c1.2,3.7,1.9,7.6,0.7,11.4   c-1.5,4.8-2.2,10.3-6.1,13.8c-6.8,7.3-20.6,4.7-24.9-4.2c-2.4-4.9-2.6-11.4,0.8-15.9C598.8,161.8,603.5,161.8,607.2,160.2z"/>
	<path id="XMLID_19_" class="st2" d="M678.8,163c5.5-2.8,11.6,0,17.4,0.2c3.4,0.1,6.1,2.8,7.3,5.8c2,7.2-0.5,15.6-6.7,20   c-5.5,4.3-14.3,4.1-19.2-1c-2.6-2.5-4-6-4.3-9.5c-0.4-4.2-0.8-8.9,1.8-12.6C676.3,164.7,677.5,163.8,678.8,163z"/>
</g>
<g id="XMLID_5_">
	<g id="XMLID_14_">
		<path id="XMLID_15_" class="st3" d="M652.7,44.6c1.5-1.8,4.6-0.5,4.7,1.7c0.8,5.5-1.3,11.2-5.2,15c-1.3,1.5-4.3,2.3-5.1-0.2    C645.5,55.3,648,48.5,652.7,44.6z M651.3,47.3c-2.2,2.8-3.3,6.5-1.8,9.9c5.2-0.4,6.5-7.1,6-11.3C653.9,45.8,652.1,45.9,651.3,47.3    z"/>
	</g>
	<g id="XMLID_10_">
		<path id="XMLID_11_" class="st3" d="M663,52c1.2-2.3,3-5.3,5.9-5.3c3.2,2.3,2.9,7,2.1,10.4c-1.1,3.9-2.9,8.9-7.6,9.4    C660.4,62.3,661.1,56.6,663,52z M666.3,49.1c-2.7,2.9-3.6,7.3-1.9,11c0.6,0,1.9-0.1,2.5-0.2c2.5-3.2,3.2-7.2,2.5-11.1    C668.7,48.9,667.1,49.1,666.3,49.1z"/>
	</g>
	<path id="XMLID_9_" class="st3" d="M574.3,58.8c1.1-1,2.2-2,3.3-3c6.4,4.6,13.7,8,21.1,10.8c-0.1,1.6-0.8,2.9-1.6,4.2   C589.1,67.6,581,64.3,574.3,58.8z"/>
	<path id="XMLID_8_" class="st3" d="M722,89.4c9.1-1.6,16.3-7.8,23.4-13.2c0.7,1.2,1.4,2.4,2.1,3.6c-7.3,6.6-15.9,12.5-25.7,14.6   C721.9,92.7,722,91.1,722,89.4z"/>
	<path id="XMLID_7_" class="st3" d="M631.8,132.4c1.6,0.4,3.2,1,4.9,1.4c-2.6,9.1-6.2,18-10.9,26.3c-1.7-0.6-3.3-1.2-4.9-1.9   C625.4,149.9,629.2,141.4,631.8,132.4z"/>
	<path id="XMLID_6_" class="st3" d="M667,136.1c1.6,0,3.2,0,4.8,0.1c0.5,9.3,2.1,18.8,7,26.8c-1.3,0.8-2.5,1.8-3.7,2.8   C668.7,157.4,666.8,146.3,667,136.1z"/>
</g>
<g id="XMLID_2_">
	<path id="XMLID_4_" class="st1" d="M674.5,71.7c-1,3.2-1.6,6.6-3.1,9.7c-2.8,2.6-5,6.2-8.7,7.6c-5,2-11,2.8-15.9-0.1   c-6.3-3.6-9.8-10.6-11-17.6c0.3-3,2-5.6,2.3-8.6c-2-0.9-4.1-1-6.3-0.8c-1.2,4.3,3.3,7.2,3,11.4c0.4,8.8,5.1,18.5,14,21.2   c5.4,1.1,11.3,0.4,16.1-2.5c3.4-2.7,6.1-6.2,8.5-9.8c2.5-2.1,5.2-4,7.3-6.5C683.4,72.2,676.7,68.1,674.5,71.7z"/>
	<path id="XMLID_3_" class="st4" d="M599,207.9c12.4-1.4,24.8-2.9,37.3-2.9c11,0,22-0.2,33,0c10.6,0.7,21.2,1.3,31.7,2.6   c5.6,0.8,11.4,1.8,16.3,4.8c-0.5,1.3-0.5,3.1-2.2,3.5c-5.9,2.2-12.1,3.3-18.4,3.8c-4.8,0.4-9.5,2-14.3,2.1   c-19.4,0.4-38.8,0.5-58.1,0.1c-4.4-0.1-8.6-1.4-12.9-1.6c-9.1-0.8-18.5-1.1-26.8-5.4c0-0.6,0-1.8,0-2.4   C588.8,209.8,593.9,208.4,599,207.9z"/>
</g>
<g id="XMLID_1_">
	<path id="XMLID_99_" class="st5" d="M132.2,61c-5.4,7.9-49.1,78.5-59.9,95h-1.4C56,133.1,19.5,69.7,14.8,62.1l30.7-16.7   c3,6.4,23.5,49.6,27.9,59.2c4.3-9.7,26.6-54.6,28.6-59.2L132.2,61z"/>
</g>
<g id="XMLID_33_">
	<path id="XMLID_89_" class="st6" d="M171.7,129.5c11.4,0.4,23.8-2.8,23.8-8.3c0-2.3-2-3.7-11.5-9.1c-7.4-4.2-15.9-10.1-15.9-19.9   c0-13.1,17.4-27.4,47.1-30l3.2,19.6c-14.6,0-22,2.5-22,7.3c0,2.8,3.7,4.6,11.4,8.3c6.2,3,16.3,8.3,16.3,18.9   c0,12.9-13.5,29.3-49.1,33.4L171.7,129.5z"/>
	<path id="XMLID_91_" class="st6" d="M227.1,142.5c2-4.7,25.6-65.9,32.4-80.8h1.2c7.1,11.6,24.5,40.3,28.1,46.3   c4.6-6.9,21.1-34.3,27.3-44.4h1.2c8.1,17.3,31.6,70.5,34.8,76.9l-23.7,10.5c-3.7-9.4-14.9-39.1-16.2-42.3   c-1.4,2.1-16.4,25.2-25.2,37.5h-1.2c-9-13.6-21.3-33.5-23.2-37c-2,6.1-10.4,36.3-12.5,41.8L227.1,142.5z"/>
	<path id="XMLID_93_" class="st6" d="M390.9,112.1c0,11.7,0.4,32.7,0.5,35.4h-27.2c0.2-5.2,0.4-32.6,0.4-35.6V99.2   c0-2-0.4-32.1-0.4-34.9h27.2c-0.1,2.1-0.5,21.1-0.5,35.1V112.1z"/>
	<path id="XMLID_95_" class="st6" d="M441.6,64.3c-0.1,2.7-0.6,26.8-0.6,41.6v21.4c2.8,0,16.6,0,26-0.5l0.1,21.8   c-2.8,0-43.4-1.2-52.8-1.2c0.4-6.2,0.4-31.3,0.4-34.1V97.8c0-1.9-0.2-31.3-0.5-33.5H441.6z"/>
	<path id="XMLID_97_" class="st6" d="M533.8,148.6c-4.2,0-46.5-1.2-52.6-1.2c0.4-6.2,0.4-31.3,0.4-34V97.8c0-1.9-0.2-30.1-0.4-33.5   c6.6,0,45.9-1.8,50.2-2.1l0.5,19.3c-4.3,0-22.7,0.6-24.8,0.6v15.5c2.3,0,15.8-0.6,21-1.1l0.4,18.7c-3.2,0-18.7-0.5-21.3-0.5v13.9   c3,0,20.7,0.2,26.2-0.2L533.8,148.6z"/>
</g>
<circle id="XMLID_34_" class="st5" cx="127.9" cy="141.3" r="13.9"/>
<g id="XMLID_37_">
	<path id="XMLID_51_" class="st7" d="M31.3,186v16.3h-4.4V186h-5.5v-4h15.5v4H31.3z"/>
	<path id="XMLID_53_" class="st7" d="M72.1,182l-2.3,6.2c-0.9,2.4-1.7,4.7-2.6,7c-0.9,2.3-1.7,4.7-2.6,7h-4.6l-7-20.3h5l4.9,16.1   h0.1c0-0.4,0.1-1,0.3-1.8c0.1-0.8,0.3-1.7,0.6-2.7c0.2-1,0.5-2.2,0.8-3.5c0.3-1.3,0.7-2.6,1.1-4l1.2-4.1H72.1z"/>
	<path id="XMLID_55_" class="st7" d="M112.9,202.3V182h4.4v16.3h7.9v4H112.9z"/>
	<path id="XMLID_57_" class="st7" d="M143.2,202.3v-17.5h9.9v3.3h-6v3.8h5.7v3.2h-5.7v4.1h6.2v3.3H143.2z"/>
	<path id="XMLID_59_" class="st7" d="M180.5,202.3l-1-3.4h-5.8l-1,3.4h-4.3l6.4-17.5h4l6.1,17.5H180.5z M176.3,188.3L176.3,188.3   c-0.1,0.3-0.2,0.8-0.2,1.3c-0.1,0.5-0.2,1-0.3,1.6s-0.2,1.1-0.4,1.7c-0.1,0.6-0.2,1-0.4,1.5l-0.3,1.3h3.9L176.3,188.3z"/>
	<path id="XMLID_62_" class="st7" d="M204.4,202.3h-3.8v-17.5c2.1-0.1,4.3-0.1,6.5-0.1c0.9,0,1.8,0.1,2.5,0.4   c0.7,0.3,1.3,0.6,1.8,1.1c0.5,0.5,0.9,1,1.2,1.7c0.3,0.7,0.4,1.4,0.4,2.1c0,0.6-0.1,1.1-0.3,1.6c-0.2,0.5-0.4,1-0.8,1.4   c-0.3,0.4-0.7,0.8-1.2,1.2c-0.5,0.3-1,0.6-1.5,0.8l4.9,7.2h-4.8l-3.8-6.4c-0.2,0-0.4,0-0.6,0s-0.4,0-0.5,0V202.3z M204.4,192.7   c0.3,0,0.6,0.1,0.9,0.1c0.3,0,0.6,0,0.9,0c0.8,0,1.5-0.3,2-0.7c0.5-0.4,0.7-1,0.7-1.7c0-0.3-0.1-0.6-0.2-0.9   c-0.1-0.3-0.3-0.5-0.5-0.8c-0.2-0.2-0.5-0.4-0.8-0.5c-0.3-0.1-0.7-0.2-1.2-0.2h-1.8v4.6V192.7z"/>
	<path id="XMLID_65_" class="st7" d="M241.1,202.3c-0.1,0-0.2-0.1-0.3-0.3c-0.2-0.2-0.3-0.4-0.5-0.7s-0.4-0.6-0.7-1   c-0.2-0.4-0.5-0.7-0.7-1c-0.2-0.3-0.4-0.6-0.5-0.8c-0.2-0.2-0.3-0.4-0.3-0.5l-5.1-7.9h-0.1c0.1,0.5,0.2,1,0.3,1.7s0.1,1.3,0.2,2   c0.1,0.7,0.1,1.5,0.1,2.2c0,0.8,0,1.5,0,2.2v4h-3.7v-17.5h4.2l7.8,12.1h0.1c-0.2-1-0.3-2.2-0.5-3.7c-0.1-1.4-0.2-2.9-0.2-4.5v-3.9   h3.6v17.5H241.1z"/>
	<path id="XMLID_67_" class="st7" d="M261.8,202.3v-17.5h3.8v17.5H261.8z"/>
	<path id="XMLID_69_" class="st7" d="M293.9,202.3c-0.1,0-0.2-0.1-0.3-0.3c-0.2-0.2-0.3-0.4-0.5-0.7s-0.4-0.6-0.7-1   c-0.2-0.4-0.5-0.7-0.7-1c-0.2-0.3-0.4-0.6-0.5-0.8c-0.2-0.2-0.3-0.4-0.3-0.5l-5.1-7.9h-0.1c0.1,0.5,0.2,1,0.3,1.7s0.1,1.3,0.2,2   c0.1,0.7,0.1,1.5,0.1,2.2c0,0.8,0,1.5,0,2.2v4h-3.7v-17.5h4.2l7.8,12.1h0.1c-0.2-1-0.3-2.2-0.5-3.7c-0.1-1.4-0.2-2.9-0.2-4.5v-3.9   h3.6v17.5H293.9z"/>
	<path id="XMLID_74_" class="st7" d="M381.3,183.9c0,0.4,0,0.9,0,1.3c0,0.4,0,0.8-0.1,1.1c0,0.3,0,0.6-0.1,0.8   c-0.7-0.5-1.5-0.8-2.3-1c-0.8-0.2-1.6-0.3-2.4-0.3s-1.5,0.1-1.9,0.4c-0.5,0.3-0.8,0.6-0.8,1.1c0,0.5,0.2,1,0.6,1.3   c0.4,0.4,1,0.7,1.6,1c0.6,0.3,1.3,0.7,2.1,1s1.4,0.8,2.1,1.3c0.6,0.5,1.2,1.1,1.6,1.8c0.4,0.7,0.6,1.6,0.6,2.6c0,1-0.2,1.8-0.6,2.5   s-1,1.3-1.8,1.8s-1.6,0.8-2.6,1.1s-2.1,0.4-3.2,0.4c-0.7,0-1.4,0-2.2-0.1c-0.8-0.1-1.5-0.2-2.1-0.4c0-0.8,0-1.6,0.1-2.4   c0-0.9,0.1-1.6,0.1-2.1c0.8,0.4,1.6,0.8,2.4,0.9c0.8,0.2,1.7,0.3,2.6,0.3c1,0,1.7-0.1,2.2-0.3s0.8-0.6,0.8-1.2c0-0.5-0.2-1-0.6-1.3   c-0.4-0.4-1-0.7-1.6-1.1c-0.6-0.3-1.3-0.7-2.1-1.1c-0.8-0.4-1.4-0.8-2.1-1.3c-0.6-0.5-1.2-1.1-1.6-1.8c-0.4-0.7-0.6-1.5-0.6-2.5   c0-0.9,0.2-1.8,0.6-2.5c0.4-0.7,1-1.3,1.8-1.8c0.7-0.5,1.6-0.9,2.6-1.1s2-0.4,3.1-0.4c0.6,0,1.3,0,2,0.1c0.7,0.1,1.4,0.2,1.9,0.4   C381.3,183,381.3,183.4,381.3,183.9z"/>
	<path id="XMLID_76_" class="st7" d="M410.4,202.3V195l-5.9-10.3h4.4l3.7,7.3c0-0.1,0.1-0.4,0.3-0.7c0.2-0.4,0.4-0.8,0.6-1.3   c0.2-0.5,0.5-1,0.7-1.5c0.3-0.5,0.5-1,0.7-1.4l1.2-2.3h4.4l-1.8,2.8c-0.7,1.1-1.5,2.3-2.3,3.5s-1.5,2.2-2.2,3.2v8.1H410.4z"/>
	<path id="XMLID_78_" class="st7" d="M444.9,186.3c0,0.4,0,0.8,0,1.1s0,0.7-0.1,1c0,0.3,0,0.5-0.1,0.7c-0.6-0.4-1.3-0.7-2-0.9   c-0.7-0.1-1.4-0.2-2.1-0.2s-1.3,0.1-1.7,0.3c-0.4,0.2-0.7,0.6-0.7,1c0,0.5,0.2,0.8,0.6,1.2c0.4,0.3,0.8,0.6,1.4,0.9   c0.6,0.3,1.2,0.6,1.8,0.9c0.7,0.3,1.3,0.7,1.8,1.1s1,1,1.4,1.6s0.6,1.4,0.6,2.3c0,0.8-0.2,1.6-0.6,2.2s-0.9,1.2-1.5,1.6   c-0.6,0.4-1.4,0.7-2.3,0.9c-0.9,0.2-1.8,0.3-2.8,0.3c-0.6,0-1.2,0-1.9-0.1s-1.3-0.2-1.8-0.4c0-0.7,0-1.4,0.1-2.1   c0-0.8,0.1-1.4,0.1-1.8c0.7,0.4,1.4,0.7,2.1,0.8c0.7,0.2,1.5,0.2,2.2,0.2c0.8,0,1.5-0.1,1.9-0.3c0.4-0.2,0.6-0.5,0.6-1   c0-0.5-0.2-0.8-0.6-1.2c-0.4-0.3-0.8-0.6-1.4-0.9s-1.2-0.6-1.8-0.9c-0.6-0.3-1.3-0.7-1.8-1.1c-0.6-0.4-1-0.9-1.4-1.5   c-0.4-0.6-0.6-1.3-0.6-2.2c0-0.8,0.2-1.5,0.6-2.2c0.4-0.6,0.9-1.2,1.5-1.6c0.6-0.4,1.4-0.8,2.2-1c0.8-0.2,1.7-0.3,2.7-0.3   c0.5,0,1.1,0,1.7,0.1c0.6,0.1,1.2,0.2,1.6,0.4C444.9,185.6,444.9,185.9,444.9,186.3z"/>
	<path id="XMLID_80_" class="st7" d="M468.9,188.2v14.1H465v-14.1h-4.8v-3.4h13.4v3.4H468.9z"/>
	<path id="XMLID_82_" class="st7" d="M487.7,202.3v-17.5h9.9v3.3h-6v3.8h5.7v3.2h-5.7v4.1h6.2v3.3H487.7z"/>
	<path id="XMLID_84_" class="st7" d="M514.3,184.7h4.4l4.2,12.8h0.1c0-0.1,0.1-0.4,0.1-0.7c0.1-0.4,0.2-0.8,0.3-1.4   c0.1-0.5,0.3-1.1,0.5-1.8c0.2-0.7,0.4-1.4,0.6-2.1l0.5-1.6c0.2-0.6,0.4-1.1,0.5-1.6c0.2-0.5,0.3-0.9,0.5-1.3   c0.1-0.4,0.3-0.8,0.4-1.2c0.1-0.4,0.3-0.8,0.4-1.2h4.3l2,17.5h-4l-1.1-12.4H528c0,0.1,0,0.3-0.1,0.7c-0.1,0.4-0.2,0.9-0.4,1.4   s-0.3,1.2-0.5,1.8s-0.4,1.3-0.6,2l-0.5,1.6c-0.3,0.8-0.5,1.6-0.8,2.4c-0.3,0.8-0.6,1.6-0.9,2.4h-3.6l-3.9-12.3h-0.1   c0,0.1,0,0.5,0,1.1c0,0.6,0,1.3-0.1,2.1c0,0.8-0.1,1.7-0.1,2.7s-0.1,1.9-0.1,2.7l-0.2,3.9H512L514.3,184.7z"/>
</g>
<g id="XMLID_36_">
	<path id="XMLID_71_" class="st7" d="M542.5,70.5h-1.8v-7h-2.6v-1.5h7v1.5h-2.6V70.5z"/>
	<path id="XMLID_87_" class="st7" d="M554.2,70.5h-1.7v-7.2h0l-1.6,7.2h-1.8l-1.6-7.2h0v7.2H546v-8.6h2.6l1.5,6.7h0l1.5-6.7h2.6   V70.5z"/>
</g>
<path id="XMLID_72_" class="st8" d="M326.1,190.2c-0.1-0.2-0.2-0.4-0.3-0.6c-0.4-0.5-0.8-0.9-1.4-1.2s-1.2-0.5-1.9-0.5  c-0.8,0-1.4,0.1-2,0.4s-1,0.7-1.4,1.1c-0.4,0.5-0.6,1.1-0.8,1.7s-0.2,1.4-0.2,2.2c0,0.7,0.1,1.4,0.3,2.1s0.5,1.3,0.8,1.8  c0.4,0.5,0.8,0.9,1.4,1.2c0.5,0.3,1.2,0.5,1.9,0.5c0.8,0,1.4-0.1,2-0.4s1-0.7,1.4-1.1c0.4-0.5,0.6-1.1,0.8-1.7s0.3-1.4,0.3-2.2  c0-0.2,0-0.4,0-0.6"/>
<path id="XMLID_86_" class="st7" d="M331,192.9h-2.1h-2h-4.4v2.7h4.2c0,0.1,0,0.1,0,0.2c-0.2,0.7-0.4,1.3-0.8,1.7  c-0.4,0.5-0.8,0.9-1.4,1.1s-1.2,0.4-2,0.4c-0.7,0-1.3-0.2-1.9-0.5c-0.5-0.3-1-0.7-1.4-1.2c-0.4-0.5-0.7-1.1-0.8-1.8  s-0.3-1.4-0.3-2.1c0-0.8,0.1-1.5,0.2-2.2s0.4-1.3,0.8-1.7c0.4-0.5,0.8-0.9,1.4-1.1s1.2-0.4,2-0.4c0.7,0,1.3,0.2,1.9,0.5  s1,0.7,1.4,1.2c0.1,0.2,0.2,0.4,0.3,0.6h4.4c0-0.1,0-0.1-0.1-0.2c-0.3-1-0.8-2-1.5-2.8c-0.7-0.8-1.5-1.4-2.4-1.9s-2.1-0.7-3.4-0.7  c-1.4,0-2.6,0.2-3.7,0.7c-1.1,0.5-2.1,1.1-2.9,1.9c-0.8,0.8-1.4,1.8-1.9,2.8c-0.4,1.1-0.7,2.3-0.7,3.5c0,1.2,0.2,2.3,0.5,3.3  c0.3,1,0.8,2,1.4,2.7c0.6,0.8,1.5,1.4,2.4,1.9s2.1,0.7,3.5,0.7c1.3,0,2.6-0.2,3.7-0.7c1.1-0.5,2.1-1.1,2.9-1.9  c0.8-0.8,1.4-1.7,1.9-2.8c0.5-1.1,0.7-2.3,0.7-3.5C331,193.2,331,193.1,331,192.9z"/>
<g id="XMLID_35_">
</g>
<g id="XMLID_101_">
</g>
<g id="XMLID_102_">
</g>
<g id="XMLID_103_">
</g>
<g id="XMLID_104_">
</g>
<g id="XMLID_105_">
</g>
</svg>