<svg xmlns="http://www.w3.org/2000/svg" width="350.438" height="97.436"><path d="M0 0c-.226.641-.783.46-1.246.494C-5.845.832-9.94 4.388-10.475 9.6c-.31 3.022-.067 5.934.538 8.855 1.044 5.04 4.654 7.637 9.118 9.29 1.499.555 3.058 1.095 4.725 1.038 1.916-.064 2.44-.654 1.817-2.421-.834-2.361-1.894-4.642-2.724-7.005-.831-2.367-1.474-4.77-1.55-7.339-.101-3.443 1.522-5.467 4.206-6.414 2.936-1.035 6.486.278 8.257 2.833 1.008 1.456 1.219 3.075 1.584 4.753.462 2.121-.178 3.95-.507 5.906-.319 1.892-1.346 3.052-3.091 3.76-.713.289-1.616.453-1.967 1.541 3.526 2.458 7.509 3.323 11.711 2.806 1.629-.201 3.208-1.098 3.959-2.915 1.018-2.462 1.637-4.919.88-7.588-.242-.851-.152-1.793-.363-2.657-1.443-5.924-5.654-9.309-10.951-11.52C12.254 1.308 9.195.42 5.964.456 5.686.459 5.556.232 5.458 0H0z" style="fill:#efac50;fill-opacity:1;fill-rule:nonzero;stroke:none" transform="matrix(1.25 0 0 -1.25 133.352 97.436)"/><path d="M0 0c-.732.995-1.834.32-2.741.599-3.033.934-5.407 2.656-6.995 5.428-.192.335-.207.824-.71.926l.034-.035c-.487 2.339-.617 4.709-.497 7.086.344 6.824 3.826 11.97 10.304 13.937 1.384.42 2.806.804 4.287.846 1.254.034 1.728-.524 1.803-1.773.117-1.948-1.093-3.423-1.775-5.025-1.321-3.106-2.012-6.337-2.651-9.596C.56 9.845 2.587 6.691 5.148 5.887c4.921-1.546 9.521.779 10.179 7.15a16.205 16.205 0 0 1-.273 5.124c-.612 2.826-2.065 4.528-4.798 5.254-.216.057-.388.281-.715.53.336.671.847 1.059 1.506 1.42 3.127 1.714 6.494 2.191 9.97 1.888 2.434-.212 5.081-2.681 5.197-5.163.117-2.511.235-5.031-.278-7.596-1.008-5.047-4.284-8.135-8.362-10.607A23.143 23.143 0 0 0 5.98.496C5.563.486 5.152.472 4.962 0H0z" style="fill:#7b9ac8;fill-opacity:1;fill-rule:nonzero;stroke:none" transform="matrix(1.25 0 0 -1.25 205.921 97.436)"/><path d="M0 0c-6.922.087-12.387 1.679-16.583 6.189-2.829 3.041-4.266 6.734-4.714 10.973-.486 4.593.399 8.696 3.116 12.314 2.279 3.033 5.206 5.426 8.579 7.223 4.021 2.142 8.2 3.889 12.676 4.805 4.103.84 8.207 1.117 12.409.388 1.898-.329 3.889-.401 5.838-.593 1.109-.108 1.818-.498 1.546-1.669-.77-3.307-.803-6.735-1.829-10.017-.421-1.345-1.015-2.569-1.628-3.782-.702-1.389-2.637-1.392-3.361-.018a29.774 29.774 0 0 0-1.984 4.695c-.281.868-.631 1.727-1.11 2.42-1.596 2.307-3.367 3.209-6.199 2.58-6.779-1.504-10.535-6.159-13.407-11.826-1.244-2.452-1.924-5.166-1.682-8.029.338-4.017 2.33-7.78 6.414-8.842 1.559-.405 3.002-.174 4.56.143 3.556.723 6.63 2.153 9.021 4.93 1.264 1.469 3.135 1.593 4.821 2.06.815.226 1.354-.321 1.495-1.23.475-3.066-.679-5.586-3.006-7.352C11.407 2.657 4.558-.476 0 0" style="fill:#00a9e6;fill-opacity:1;fill-rule:nonzero;stroke:none" transform="matrix(1.25 0 0 -1.25 94.13 96.933)"/><path d="M0 0c.142-1.784-.637-2.902-2.06-4.077-2.573-2.123-5.444-1.96-8.379-1.873-2.641.079-5.133.866-7.344 2.249-1.332.832-2.024 2.186-2.079 3.943-.148 4.712 1.177 9.153 2.286 13.629a367.553 367.553 0 0 0 3.768 14.001c.804 2.767 2.317 5.144 4.428 7.178 1.607 1.549 3.227 1.22 4.919.425 1.551-.729 2.553-1.717 2.565-3.734.019-3.194-1.154-6.045-2.116-8.939-1.984-5.97-3.665-12.021-5.26-18.098-.92-3.506.977-5.191 4.591-4.351C-3.128.714-1.386 1.832.034-.035L0 0z" style="fill:#e56565;fill-opacity:1;fill-rule:nonzero;stroke:none" transform="matrix(1.25 0 0 -1.25 192.864 88.744)"/><path d="M0 0c-1.046.78-1.179 1.646-1.647 2.303-1.522 2.134-3.399 2.835-5.933 2.14-4.52-1.239-7.306-4.417-9.379-8.387-.72-1.379-1.365-2.799-2.115-4.161-1.324-2.405-4.942-3.688-7.255-2.467-.898.474-1.728 1.207-1.737 2.5-.014 2.14.066 4.241.778 6.295 1.276 3.686 2.454 7.398 3.283 11.225.269 1.243.957 2.451 1.673 3.53 1.284 1.936 6.372 2.302 7.843.598 1.195-1.384.912-3.085.694-4.714-.05-.376-.43-.709.073-1.286 5.385 4.567 10.87 9.096 19.011 8.36C4.802 10.119 2.204 5.249 0 0" style="fill:#d78fac;fill-opacity:1;fill-rule:nonzero;stroke:none" transform="matrix(1.25 0 0 -1.25 276.954 81.507)"/><g style="fill:#242121;fill-opacity:1"><path d="M0 0c2.266 1.39 3.65 4.226 6.813 4.149 1.142-.027 2.285-.004 3.569-.004l-4.589-19.09c3.528 1.23 3.439 1.323 4.564 4.827C11.479-6.623 12.41-3.089 13.286.469c.379 1.54 3.135 3.687 4.699 3.666 1.881-.025 3.773.159 5.681-.13l-4.531-18.993c2.409 1.388 4.15 2.64 4.586 5.254.498 2.987 1.297 5.924 1.955 8.885.47 2.113 2.518 2.912 3.679 4.45.676.895 1.666.496 2.526.529 1.385.054 2.774.015 4.22.015-1.527-6.103-3.02-11.972-4.45-17.857-.321-1.319-.188-1.092-1.876-2.905l-2.05-1.759c-1.324-1.136-2.656-1.858-4.539-1.838-9.257.099-18.517.045-27.775.045C-4.589-19.673-.098-.06 0 0" style="fill:#242121;fill-opacity:1;fill-rule:nonzero;stroke:none" transform="matrix(1.25 0 0 -1.25 5.736 5.238)"/></g><g style="fill:#242121;fill-opacity:1"><path d="M0 0h-9.05c.646 2.394 1.29 4.813 1.953 7.227.845 3.079.12 4.058-3.032 4.063h-2.373c-.742-2.554-1.445-5.13-2.244-7.676-.895-2.852-2.812-4.284-5.721-4.21-1.665.043-3.407-.408-5.022.337.695 3.373 4.069 13.474 4.497 15.023H-7.32c1.644 0 3.292-.072 4.932.018 1.884.104 3.297-.703 4.524-2.003C2.136 11.125.685 2.71 0 0" style="fill:#242121;fill-opacity:1;fill-rule:nonzero;stroke:none" transform="matrix(1.25 0 0 -1.25 347.768 29.056)"/></g><g style="fill:#242121;fill-opacity:1"><path d="M0 0c-6.625.152-7.897-.362-8.302-3.255C-3.419-3.812-3.12-3.699 0 0m7.486-1.554c2.091 1.968 4.371 2.986 6.445 4.325.907.585 1.898.782 3 .766 3.884-.054 7.769-.05 11.654-.004 1.26.015 2.347-.236 3.445-.915 1.902-1.176 2.383-2.567 1.127-4.354-.752-1.071-1.766-1.879-3.09-2.251-2.442-.684-4.836-.758-7.227.107.086.441.103.6.148.751.274.921 1.523 1.693.468 2.814-.526.558-2.744.385-3.712-.03-2.228-.953-2.882-2.95-3.269-4.99-.417-2.198-1.332-4.233-1.665-6.431H5.541l2.062 9.769c-1.237-.438-1.807-1.315-2.491-1.961C2.286-6.627-1.029-7.32-4.757-6.929c-1.457.153-2.943.025-4.34.025-.42-.68-.326-1.216-.121-1.913h12.01c-1.722-1.94-3.511-3.57-6.229-3.551-3.636.025-7.273-.01-10.91.02-.707.006-1.381-.029-2.131.312-2.425 1.103-3.437 1.699-2.421 4.993.756 2.452.974 5.081 3.103 6.86 1.42 1.186 2.944 2.246 4.384 3.409.607.491 1.264.272 1.89.275 4.628.028 9.257.02 13.886.014 2.519-.004 3.052-.553 3.12-3.177.013-.494.002-.989.002-1.892" style="fill:#242121;fill-opacity:1;fill-rule:nonzero;stroke:none" transform="matrix(1.25 0 0 -1.25 167.412 14.997)"/></g><g style="fill:#242121;fill-opacity:1"><path d="M0 0c1.638 1.64 3.218 3.167 4.727 4.76.551.582 1.176.497 1.814.482 6.425-.146 12.855.309 19.276-.225 1.372-.114 1.955.618 2.509 3.208-2.824 0-5.606.183-8.353-.048-3.188-.269-5.347 1.579-5.104 5.149.273 3.994 2.134 6.941 5.283 9.183a3.426 3.426 0 0 0 2.044.629c6.591-.049 13.183-.028 20.191-.028-1.448-1.475-2.673-2.653-3.811-3.91-.603-.665-1.317-.551-2.039-.552-2.646-.007-5.292.013-7.938-.008-2.613-.02-3.641-.93-4.271-3.965 2.906 0 5.757-.028 8.607.01 1.925.026 3.524-.703 4.645-2.184 1.121-1.48.871-3.376.579-4.993-.565-3.116-2.186-5.688-5.175-7.144-.718-.35-1.446-.601-2.308-.598C20.671-.197 10.665-.209.66-.203.524-.202.387-.122 0 0" style="fill:#242121;fill-opacity:1;fill-rule:nonzero;stroke:none" transform="matrix(1.25 0 0 -1.25 194.725 30.186)"/></g><g style="fill:#242121;fill-opacity:1"><path d="M0 0c2.237 1.034 3.795 2.506 4.376 5.107.717 3.212 1.923 3.948 3.489 5.654.929 1.012 2.169.422 3.266.533.802.081 1.618.016 2.47.016-.35-3.579-1.678-6.721-2.051-10.069-.182-1.626-5.292-4.405-6.231-5.418-.409-.441-.873-.388-1.351-.388-8.837-.001-17.673.003-26.509.015-.15.001-.3.116-.559.222.575 3.514 1.455 6.999 2.205 10.491.442 2.057 2.636 3.246 4.136 4.733.868.86 2.033.31 3.06.398.894.076 1.8.016 3.002.016-.348-4.061-1.712-7.785-2.507-11.531.362-.347.486-.04.673.017C-9.012.878-8.709 3.938-8.227 6.854c.393 2.372 2.744 4.45 5.17 4.455 1.569.003 3.138-.001 4.707-.016.153-.002.306-.108.459-.166C1.433 7.531-.199-.18 0 0" style="fill:#242121;fill-opacity:1;fill-rule:nonzero;stroke:none" transform="matrix(1.25 0 0 -1.25 270.152 24.739)"/></g><g style="fill:#242121;fill-opacity:1"><path d="M0 0c-1.452.436-2.442.282-3.414.271-1.639-.019-3.58-.895-4.163-3.079-.434-1.625-1.191-3.719-.535-5.674 3.605-.325 5.721.181 7.093 3.516C-.469-3.63 0-1.699 0 0m13.364 9.214c-1.349-1.892-2.32-3.551-3.582-4.948C8.278 2.601 8.041.579 7.591-1.436c-.783-3.504-1.64-6.992-2.513-10.683H-4.8c-2.808 0-5.616-.01-8.423.002-3.358.015-4.97 1.795-4.447 5.106.234 1.48.726 2.937 1.255 4.347.504 1.345.73 1.932 1.968 2.97.899.755 0 0 3.356 2.35 2.102 1.289 1.874 1.158 3.085 1.121 2.062-.065 4.129.013 6.193-.03 1.195-.025 2.069.149 2.95 1.376C3.186 7.98 2.453 7.005 3.186 7.98c.408.542.833 1.244 1.723 1.239 2.688-.014 5.377-.005 8.455-.005" style="fill:#242121;fill-opacity:1;fill-rule:nonzero;stroke:none" transform="matrix(1.25 0 0 -1.25 133.773 15.3)"/></g><g style="fill:#242121;fill-opacity:1"><path d="M0 0c5.339.003 7.194 3.575 7.07 8.712C2.026 9.524-1.095 7.096 0 0m15.276 3.082C14.961 1.78 14.269.823 13.192.12 11.519-.973 9.795-1.988 8.145-3.114c-.677-.462-1.367-.438-2.095-.438-3.969 0-7.948-.172-11.905.051-3.503.198-4.916 2.247-4.028 5.306.31 1.07.549 2.201.938 3.193.574 1.464 1.084 2.925 2.695 4.018 2.878 2.207 1.874 1.534 2.878 2.207 1.058.709 2.14 1.205 3.569 1.155 4.212-.146 8.433-.05 12.651-.052 3.173-.002 4.584-1.806 3.636-4.874a137.017 137.017 0 0 1-1.208-4.37" style="fill:#242121;fill-opacity:1;fill-rule:nonzero;stroke:none" transform="matrix(1.25 0 0 -1.25 59.097 26.01)"/></g><g style="fill:#242121;fill-opacity:1"><path d="M0 0c-2.214.576-4.06.821-5.667-1.122-.723-.875-1.444-1.785-1.994-2.727-.494-.849-.902-2.023-.053-3.069.962-1.184 2.276-1.785 3.688-2.12.929-.22 1.421.283 1.685 1.293C-1.682-5.228-.846-2.757 0 0m5.826-11.052c-6.454 0-12.961-.025-19.468.017-1.654.011-3.457 2.309-3.635 4.25-.395 4.299 1.67 7.111 5.218 9.203 1.738 1.024 3.473 1.488 5.498 1.451 5.606-.102 11.215-.035 16.882-.035-.243-1.407-3.42-11.61-4.495-14.886" style="fill:#242121;fill-opacity:1;fill-rule:nonzero;stroke:none" transform="matrix(1.25 0 0 -1.25 307.514 15.394)"/></g><g style="fill:#242121;fill-opacity:1"><path d="M0 0c.46 1.182.893 1.543 2.026 1.539 5.87-.025 11.741.067 17.609-.051 2.291-.046 3.948-1.328 3.869-3.856-.098-3.123-1.176-5.978-1.836-8.943-.137-.613-.012-1.295-.416-1.953h-8.317c.408 2.291.664 4.504 1.25 6.626a8.33 8.33 0 0 1 .3 2.395c-.023 1.535-.701 2.225-2.203 2.287-1.148.048-2.299.01-3.516.01-.657-2.53-1.234-4.998-1.946-7.427-.848-2.889-3.093-4.477-6.112-4.482-4.309-.006-4.218-.027-3.27 4.145C-2.247-8.32-.708-1.818 0 0" style="fill:#242121;fill-opacity:1;fill-rule:nonzero;stroke:none" transform="matrix(1.25 0 0 -1.25 81.731 12.51)"/></g></svg>