<svg xmlns="http://www.w3.org/2000/svg" xml:space="preserve" width="566.929" height="98.441" version="1.2"><g style="fill:#333;fill-opacity:1"><path fill="#707070" d="M12 98.442c-6.627 0-12-5.373-12-12V31.906c0-6.628 5.373-12 12-12s12 5.371 12 12v54.535c0 6.628-5.373 12.001-12 12.001zM174.735 48.034h-36.223v-6.528h36.223c5.964 0 10.799-4.835 10.799-10.799 0-5.965-4.835-10.8-10.799-10.8h-49.423c-5.965 0-10.8 4.835-10.8 10.8v55.735c0 6.627 5.373 12 12 12s12-5.373 12-12v-16.81h36.223c5.964 0 10.799-4.835 10.799-10.8.001-5.963-4.834-10.798-10.799-10.798zM540.859 82.934l-15.535-54.18a11.866 11.866 0 0 0-5.787-7.194 10.737 10.737 0 0 0-5.723-1.652h-57a10.9 10.9 0 0 0-1.105.056c-6.107.56-10.895 5.688-10.895 11.944v54.535c0 6.627 5.371 12 12 12 6.627 0 12-5.373 12-12V41.506h5.314v44.938c0 6.627 5.373 12 12 12 6.625 0 11.998-5.373 11.998-12V41.506h6.041l13.766 48.002c1.5 5.233 6.271 8.644 11.457 8.644 1.088 0 2.193-.149 3.293-.465 6.33-1.819 9.992-8.422 8.176-14.753zM250.508 19.907h-40.751c-11.338 0-20.615 9.276-20.615 20.614v37.306c0 11.338 9.277 20.614 20.615 20.614h40.751c11.339 0 20.615-9.276 20.615-20.614V40.522c0-11.338-9.276-20.615-20.615-20.615zm-2.65 53.848c0 1.32-1.08 2.4-2.4 2.4h-30.652c-1.32 0-2.4-1.08-2.4-2.4V44.593a2.407 2.407 0 0 1 2.4-2.398h30.652c1.32 0 2.4 1.08 2.4 2.398v29.162zM419.322 19.907H378.57c-11.336 0-20.615 9.276-20.615 20.614v37.306c0 11.338 9.279 20.614 20.615 20.614h40.752c11.338 0 20.613-9.276 20.613-20.614V40.522c0-11.338-9.275-20.615-20.613-20.615zm-2.651 53.848c0 1.32-1.08 2.4-2.398 2.4h-30.652c-1.32 0-2.4-1.08-2.4-2.4V44.593a2.407 2.407 0 0 1 2.4-2.398h30.652a2.406 2.406 0 0 1 2.398 2.398v29.162zM105.464 19.907H34.742a5.44 5.44 0 0 0-5.441 5.44v61.095c0 6.627 5.373 12 12 12s11.861-5.373 11.861-12V44.583a2.407 2.407 0 0 1 2.4-2.398h28.855c1.32 0 2.488 1.08 2.488 2.398v41.858c0 6.627 5.373 12 12 12s12-5.373 12-12V25.348a5.441 5.441 0 0 0-5.441-5.441zM345.042 76.156h-42.9c-1.32 0-2.4-1.08-2.4-2.4V44.593a2.407 2.407 0 0 1 2.4-2.398h42.9c6.152 0 11.145-4.988 11.145-11.145 0-6.153-4.99-11.144-11.145-11.144h-48.664c-11.279 0-20.507 9.228-20.507 20.507v37.521c0 11.276 9.228 20.507 20.507 20.507h48.664c6.152 0 11.145-4.988 11.145-11.146 0-6.154-4.99-11.139-11.145-11.139z" style="fill:#333;fill-opacity:1"/><g fill="#707070" style="fill:#333;fill-opacity:1"><path d="M541.027 11.729h-4.131V8.826h11.752v2.903h-4.176v12.387h-3.445V11.729zM563.324 18.263c-.07-1.84-.139-4.038-.139-6.285h-.045a96.867 96.867 0 0 1-1.725 5.921l-1.859 5.967h-2.701l-1.633-5.898c-.5-1.813-.998-3.97-1.385-5.987h-.045a443.855 443.855 0 0 1-.248 6.33l-.297 5.809h-3.197l.977-15.29h4.604l1.496 5.127c.5 1.747.955 3.651 1.295 5.444h.09a92.47 92.47 0 0 1 1.451-5.489l1.611-5.082h4.539l.814 15.29h-3.355l-.248-5.857z" style="fill:#333;fill-opacity:1"/></g></g></svg>