<svg xmlns="http://www.w3.org/2000/svg" xml:space="preserve" width="403.078" height="83.358" version="1.2"><path d="M.566 52.343v-7.735h60.565v-8.827H.566l-.381-23.82h68.81v7.714H8.429l.381 8.394h60.564v24.276H.566v-.002zM74.357 52.343v-40.23h8.244v40.23h-8.244zM87.026 52.343v-40.23h68.81v40.23h-8.244V19.826H95.269v32.52l-8.243-.003zM160.237 52.343v-40.23h68.86v7.714h-60.564v24.782h60.564v7.739h-68.86v-.005zM234.583 52.343V0h8.246v52.345h-8.246v-.002zM320.994 52.343v-40.23h8.295v40.23h-8.295zM334.271 52.343v-40.23h68.807v7.714h-60.563v32.521h-8.244v-.005zM247.228 12.113v7.714h60.564v8.824h-60.564v23.694h68.861V12.113h-68.861zm60.564 32.496h-52.271v-8.827h52.271v8.827zM74.357 7.739V0h8.244v7.739h-8.244zM320.994 7.739V0h8.295v7.739h-8.295z" style="fill:#000;fill-opacity:1"/><path d="m0 80.22 9.688-11.586H.76v-3.336h14.215v3.136L5.287 80.02h9.941v3.338H0V80.22zM21.985 73.897l-5.819-8.601h4.604l3.542 5.768 3.668-5.768h4.351l-5.792 8.625 6.298 9.436h-4.73L24.16 77.11l-4.022 6.247h-4.479l6.326-9.46z" style="fill:#f05953;fill-opacity:1"/><path d="M48.142 74.892c-.874 0-1.546.239-2.016.716-.47.478-.705 1.162-.705 2.053 0 .89.235 1.575.705 2.053.47.47 1.142.704 2.016.704.867 0 1.53-.234 1.992-.704.462-.478.693-1.162.693-2.053 0-.899-.231-1.583-.693-2.053-.461-.477-1.125-.716-1.992-.716m-3.413-1.543c-1.101-.332-1.931-.842-2.49-1.53-.559-.689-.838-1.547-.838-2.576 0-1.53.57-2.696 1.713-3.498 1.141-.802 2.818-1.202 5.028-1.202 2.195 0 3.863.4 5.005 1.202 1.142.794 1.712 1.96 1.713 3.498 0 1.029-.284 1.887-.85 2.575-.56.689-1.39 1.199-2.49 1.531 1.23.34 2.157.895 2.78 1.664.632.761.948 1.725.948 2.891 0 1.798-.599 3.158-1.798 4.081-1.19.915-2.96 1.373-5.308 1.373-2.356 0-4.138-.458-5.344-1.373-1.199-.923-1.798-2.283-1.798-4.08 0-1.167.312-2.13.935-2.892.632-.77 1.563-1.324 2.794-1.664m1.093-3.632c0 .72.199 1.276.595 1.664.405.389.98.583 1.725.583.73 0 1.292-.194 1.689-.583.397-.388.595-.943.595-1.664 0-.72-.198-1.271-.595-1.652-.397-.389-.96-.583-1.689-.583-.745 0-1.32.194-1.725.583-.396.389-.595.94-.595 1.652M57.11 80.127h4.13V68.405L57 69.28v-3.183l4.215-.874h4.446v14.904h4.13v3.231H57.109v-3.231" style="font-size:24.87673377999999857px;font-style:normal;font-variant:normal;font-weight:700;font-stretch:normal;text-align:start;line-height:125%;letter-spacing:-3.73150992000000015px;word-spacing:0;writing-mode:lr-tb;text-anchor:start;fill:#f05953;fill-opacity:1;font-family:Sans;-inkscape-font-specification:Sans Bold"/></svg>