<svg xmlns="http://www.w3.org/2000/svg" xml:space="preserve" width="566.929" height="157.78" viewBox="0 -0.001 566.929 157.78"><linearGradient id="a" x1="558.128" x2="11.77" y1="955.598" y2="955.598" gradientTransform="translate(-.18 -875.41)" gradientUnits="userSpaceOnUse"><stop offset="0" style="stop-color:#013a67"/><stop offset="1" style="stop-color:#6cd1ff"/></linearGradient><path fill="url(#a)" d="m491.191 27.662 45.586.284 21.172-22.019-77.998-.285-73.289 73.575-10.262.567.286-70.783-41.205 42.054-9.856 1.169V9.374l-84.361 83.468-10.489 1.116.892-85.881-73.73 74.863-9.682.047-1.135-71.898-39.778 40.061-11.064.567.419-42.778L11.591 114.895l34.618-.567 45.389-44.052h8.705l-.42 44.264 36.152-36.997h8.644v37.687l-39.787 39.5 38.127-.565 75.017-75.866h10.104v37.271l46.757.284 45.218-45.501 8.728-.567-.135 43.013 36.131-36.132h8.536l.566 36.435-.738 1.896h109.175l20.901-21.183-67.881-1.154-.617-9.852 10.576-11.139 25.611-.003 22.248-22.534-13.447-.568v-9.483z"/><linearGradient id="b" x1="64.71" x2="60.765" y1="938.789" y2="934.845" gradientTransform="translate(-.18 -875.41)" gradientUnits="userSpaceOnUse"><stop offset="0" style="stop-color:#08406f"/><stop offset="1" style="stop-color:#60c5f5"/></linearGradient><path fill="url(#b)" d="M114.692 13.213 13.577 114.328l-11.471 4.313s-.604.039-.271-.445c0 0 117.26-117.292 117.472-117.471.212-.181.467-.028.467-.028l-5.082 12.516z"/><linearGradient id="c" x1="123.295" x2="119.67" y1="1013.91" y2="1010.285" gradientTransform="translate(-.18 -875.41)" gradientUnits="userSpaceOnUse"><stop offset="0" style="stop-color:#08406f"/><stop offset="1" style="stop-color:#60c5f5"/></linearGradient><path fill="url(#c)" d="m145.814 115.797-37.518 37.521-11.065 4.457s-.576.065-.236-.407l43.929-43.749 4.89 2.178z"/><linearGradient id="d" x1="25.724" x2="25.724" y1="994.051" y2="989.738" gradientTransform="translate(-.18 -875.41)" gradientUnits="userSpaceOnUse"><stop offset="0" style="stop-color:#08406f"/><stop offset="1" style="stop-color:#60c5f5"/></linearGradient><path fill="url(#d)" d="M48.982 118.641H2.106l11.497-4.313h32.606z"/><linearGradient id="e" x1="121.186" x2="121.186" y1="1033.182" y2="1028.725" gradientTransform="translate(-.18 -875.41)" gradientUnits="userSpaceOnUse"><stop offset="0" style="stop-color:#08406f"/><stop offset="1" style="stop-color:#60c5f5"/></linearGradient><path fill="url(#e)" d="M144.781 157.771H97.23l11.066-4.457h33.872z"/><linearGradient id="f" x1="427.694" x2="427.694" y1="994.023" y2="989.557" gradientTransform="translate(-.18 -875.41)" gradientUnits="userSpaceOnUse"><stop offset="0" style="stop-color:#08406f"/><stop offset="1" style="stop-color:#60c5f5"/></linearGradient><path fill="url(#f)" d="m484.787 118.613-114.545-.029 3.81-4.436 107.477-.002z"/><linearGradient id="g" x1="251.065" x2="251.065" y1="994.894" y2="990.416" gradientTransform="translate(-.18 -875.41)" gradientUnits="userSpaceOnUse"><stop offset="0" style="stop-color:#08406f"/><stop offset="1" style="stop-color:#60c5f5"/></linearGradient><path fill="url(#g)" d="m277.053 119.484-51.527-.029c-.333.005-.81-.335-.81-.335l4.561-4.115h45.054l2.722 4.479z"/><linearGradient id="h" x1="522.281" x2="522.281" y1="882.188" y2="877.324" gradientTransform="translate(-.18 -875.41)" gradientUnits="userSpaceOnUse"><stop offset="0" style="stop-color:#08406f"/><stop offset="1" style="stop-color:#60c5f5"/></linearGradient><path fill="url(#h)" d="M477.382 1.913h88.652c.785 0 .785.313.785.313l-10.572 4.55h-75.164l-3.701-4.863z"/><linearGradient id="i" x1="515.013" x2="515.013" y1="906.715" y2="902.505" gradientTransform="translate(-.18 -875.41)" gradientUnits="userSpaceOnUse"><stop offset="0" style="stop-color:#08406f"/><stop offset="1" style="stop-color:#60c5f5"/></linearGradient><path fill="url(#i)" d="M539.042 31.304h-46.345l-2.072-4.21h45.302z"/><linearGradient id="j" x1="459.37" x2="459.37" y1="950.231" y2="946.512" gradientTransform="translate(-.18 -875.41)" gradientUnits="userSpaceOnUse"><stop offset="0" style="stop-color:#08406f"/><stop offset="1" style="stop-color:#60c5f5"/></linearGradient><path fill="url(#j)" d="M473.589 74.82H448.91l-4.119-3.718 25.611-.002z"/><linearGradient id="k" x1="490.161" x2="490.161" y1="925.111" y2="919.557" gradientTransform="translate(-.18 -875.41)" gradientUnits="userSpaceOnUse"><stop offset="0" style="stop-color:#08406f"/><stop offset="1" style="stop-color:#60c5f5"/></linearGradient><path fill="url(#k)" d="M491.8 49.7h-13.58l-1.193-5.548h25.467c.346-.043.441.146.441.146L491.8 49.7z"/><linearGradient id="l" x1="74.389" x2="70.846" y1="968.825" y2="965.282" gradientTransform="translate(-.18 -875.41)" gradientUnits="userSpaceOnUse"><stop offset="0" style="stop-color:#08406f"/><stop offset="1" style="stop-color:#60c5f5"/></linearGradient><path fill="url(#l)" d="m96.872 70.634-47.89 48.009-2.773-4.313L92.81 67.965c2-2.313 4.675-1.731 4.675-1.731l-.613 4.4z"/><linearGradient id="m" x1="120.255" x2="114.889" y1="904.369" y2="904.369" gradientTransform="translate(-.18 -875.41)" gradientUnits="userSpaceOnUse"><stop offset="0" style="stop-color:#08406f"/><stop offset="1" style="stop-color:#60c5f5"/></linearGradient><path fill="url(#m)" d="M114.71 51.669V13.193L119.773.694s.303.075.303.571v53.647l-.315 2.311c0 .001-4.496.025-5.051-5.554z"/><linearGradient id="n" x1="173.081" x2="166.421" y1="919.961" y2="919.961" gradientTransform="translate(-.18 -875.41)" gradientUnits="userSpaceOnUse"><stop offset="0" style="stop-color:#08406f"/><stop offset="1" style="stop-color:#60c5f5"/></linearGradient><path fill="url(#n)" d="M172.902 88.843s-6.539 1.95-6.621-5.625c-.08-7.313-.013-69.291-.013-69.291L171.482.031s.182-.027.182.725l-.017 81.793 1.255 6.294z"/><linearGradient id="o" x1="255.988" x2="249.995" y1="925.216" y2="925.216" gradientTransform="translate(-.18 -875.41)" gradientUnits="userSpaceOnUse"><stop offset="0" style="stop-color:#08406f"/><stop offset="1" style="stop-color:#60c5f5"/></linearGradient><path fill="url(#o)" d="M255.809 98.91s-5.889.577-5.96-6.088l-.033-80.063L254.467.688s.583.153.583.907l-.016 91.14.775 6.175z"/><linearGradient id="p" x1="349.277" x2="343.576" y1="904.625" y2="904.625" gradientTransform="translate(-.18 -875.41)" gradientUnits="userSpaceOnUse"><stop offset="0" style="stop-color:#08406f"/><stop offset="1" style="stop-color:#60c5f5"/></linearGradient><path fill="url(#p)" d="M349.097 57.425s-4.868.452-5.701-4.563V13.139L347.789.992s.563.134.563.886v49.667l.745 5.88z"/><linearGradient id="q" x1="400.96" x2="395.164" y1="918.446" y2="918.446" gradientTransform="translate(-.18 -875.41)" gradientUnits="userSpaceOnUse"><stop offset="0" style="stop-color:#08406f"/><stop offset="1" style="stop-color:#60c5f5"/></linearGradient><path fill="url(#q)" d="M400.781 85.333s-4.938.643-5.797-4.373V13.254L399.834.71s.268.221.268 1.708v77.226l.679 5.689z"/><linearGradient id="r" x1="101.765" x2="96.654" y1="968.938" y2="968.938" gradientTransform="translate(-.18 -875.41)" gradientUnits="userSpaceOnUse"><stop offset="0" style="stop-color:#08406f"/><stop offset="1" style="stop-color:#60c5f5"/></linearGradient><path fill="url(#r)" d="M97.759 120.82s-.833-.069-.809-1.149l-.078-49.036s-1.218-1.577.613-4.4c.547.131 3.495.727 4.101 4.256v40.37l-3.827 9.959z"/><linearGradient id="s" x1="121.249" x2="117.696" y1="973.838" y2="970.286" gradientTransform="translate(-.18 -875.41)" gradientUnits="userSpaceOnUse"><stop offset="0" style="stop-color:#08406f"/><stop offset="1" style="stop-color:#60c5f5"/></linearGradient><path fill="url(#s)" d="M140.843 78.598s-41.489 41.548-41.883 41.938c-.346.379-1.202.282-1.202.282l3.827-9.963 36.059-36.088s1.34-1.727 3.831-1.637l-.632 5.468z"/><linearGradient id="t" x1="553.436" x2="549.767" y1="892.5" y2="888.831" gradientTransform="translate(-.18 -875.41)" gradientUnits="userSpaceOnUse"><stop offset="0" style="stop-color:#08406f"/><stop offset="1" style="stop-color:#60c5f5"/></linearGradient><path fill="url(#t)" d="m566.609 3.639-27.566 27.665-3.115-4.211L556.24 6.769l10.582-4.542c0 .001.349.847-.213 1.412z"/><linearGradient id="u" x1="145.994" x2="140.596" y1="969.879" y2="969.879" gradientTransform="translate(-.18 -875.41)" gradientUnits="userSpaceOnUse"><stop offset="0" style="stop-color:#08406f"/><stop offset="1" style="stop-color:#60c5f5"/></linearGradient><path fill="url(#u)" d="m140.924 113.616-.079-35.025s-1.301-2.633.631-5.456c.593-.007 3.7.421 4.339 4.146l-.001 38.52-4.89-2.185z"/><linearGradient id="v" x1="148.777" x2="144.289" y1="907.01" y2="902.522" gradientTransform="translate(-.18 -875.41)" gradientUnits="userSpaceOnUse"><stop offset="0" style="stop-color:#08406f"/><stop offset="1" style="stop-color:#60c5f5"/></linearGradient><path fill="url(#v)" d="m166.269 13.926-41.462 41.463c-1.987 1.986-5.045 1.836-5.045 1.836-1.795-3.531.315-6.065.315-6.065S170.58.67 170.944.29c.331-.417.541-.264.541-.264l-5.216 13.9z"/><linearGradient id="w" x1="215.846" x2="211.688" y1="922.321" y2="918.164" gradientTransform="translate(-.18 -875.41)" gradientUnits="userSpaceOnUse"><stop offset="0" style="stop-color:#08406f"/><stop offset="1" style="stop-color:#60c5f5"/></linearGradient><path fill="url(#w)" d="m249.815 12.762-74.376 74.375c-1.55 1.551-2.537 1.703-2.537 1.703-3.781-1.878-1.213-6.255-1.213-6.255S252.341 1.95 252.705 1.57c.943-1.093 1.761-.883 1.761-.883l-4.651 12.075z"/><linearGradient id="x" x1="304.316" x2="299.932" y1="927.811" y2="923.426" gradientTransform="translate(-.18 -875.41)" gradientUnits="userSpaceOnUse"><stop offset="0" style="stop-color:#08406f"/><stop offset="1" style="stop-color:#60c5f5"/></linearGradient><path fill="url(#x)" d="M343.396 13.139 259.233 97.3c-1.429 1.432-3.424 1.608-3.424 1.608-3.115-1.556-.776-6.175-.776-6.175s90.61-90.5 90.974-90.881c.941-1.098 1.781-.862 1.781-.862l-4.392 12.149z"/><linearGradient id="y" x1="376.971" x2="372.763" y1="906.861" y2="902.653" gradientTransform="translate(-.18 -875.41)" gradientUnits="userSpaceOnUse"><stop offset="0" style="stop-color:#08406f"/><stop offset="1" style="stop-color:#60c5f5"/></linearGradient><path fill="url(#y)" d="m394.984 13.254-42.513 42.514c-1.429 1.432-3.374 1.657-3.374 1.657-2.932-1.908-.588-5.983-.588-5.983s49.584-49.69 49.947-50.07c1.047-1.033 1.377-.66 1.377-.66l-4.849 12.542z"/><linearGradient id="z" x1="488.738" x2="485.282" y1="935.265" y2="931.809" gradientTransform="translate(-.18 -875.41)" gradientUnits="userSpaceOnUse"><stop offset="0" style="stop-color:#08406f"/><stop offset="1" style="stop-color:#60c5f5"/></linearGradient><path fill="url(#z)" d="M502.958 45.453 473.589 74.82l-3.188-3.722L491.8 49.7l11.135-5.401s.414.294.023 1.154z"/><linearGradient id="A" x1="499.808" x2="495.849" y1="979.377" y2="975.418" gradientTransform="translate(-.18 -875.41)" gradientUnits="userSpaceOnUse"><stop offset="0" style="stop-color:#08406f"/><stop offset="1" style="stop-color:#60c5f5"/></linearGradient><path fill="url(#A)" d="m513.634 89.96-28.848 28.651-3.258-4.465 20.049-20.049 12.289-5.38c.001.003.397.435-.232 1.243z"/><linearGradient id="B" x1="441.837" x2="437.555" y1="921.613" y2="917.331" gradientTransform="translate(-.18 -875.41)" gradientUnits="userSpaceOnUse"><stop offset="0" style="stop-color:#08406f"/><stop offset="1" style="stop-color:#60c5f5"/></linearGradient><path fill="url(#B)" d="M481.083 6.777 404.171 83.69c-1.43 1.432-3.395 1.644-3.395 1.644-2.449-3.092-.686-5.979-.686-5.979l77.289-77.44 3.704 4.862z"/><linearGradient id="C" x1="486.859" x2="481.745" y1="916.649" y2="911.535" gradientTransform="translate(-.18 -875.41)" gradientUnits="userSpaceOnUse"><stop offset="0" style="stop-color:#08406f"/><stop offset="1" style="stop-color:#60c5f5"/></linearGradient><path fill="url(#C)" d="M492.697 31.304 480.021 44.09c-2.771 2.282-1.801 5.608-1.801 5.608-2.25-.21-3.125-2.065-3.412-3.695-.285-1.63.303-3.422 1.348-4.467l14.469-14.44 2.072 4.208z"/><linearGradient id="D" x1="185.977" x2="182.335" y1="992.33" y2="988.688" gradientTransform="translate(-.18 -875.41)" gradientUnits="userSpaceOnUse"><stop offset="0" style="stop-color:#08406f"/><stop offset="1" style="stop-color:#60c5f5"/></linearGradient><path fill="url(#D)" d="m142.17 153.316 77.913-77.943s1.437-1.873 4.267-1.771l-.456 5.223s-78.666 78.506-79.113 78.948l-2.611-4.457z"/><linearGradient id="E" x1="303.028" x2="299.387" y1="969.14" y2="965.499" gradientTransform="translate(-.18 -875.41)" gradientUnits="userSpaceOnUse"><stop offset="0" style="stop-color:#08406f"/><stop offset="1" style="stop-color:#60c5f5"/></linearGradient><path fill="url(#E)" d="m274.33 115.004 47.643-47.659s1.437-1.871 4.267-1.771l-.857 5.621-48.325 48.29-2.728-4.481z"/><linearGradient id="F" x1="349.889" x2="346.38" y1="973.085" y2="969.576" gradientTransform="translate(-.18 -875.41)" gradientUnits="userSpaceOnUse"><stop offset="0" style="stop-color:#08406f"/><stop offset="1" style="stop-color:#60c5f5"/></linearGradient><path fill="url(#F)" d="m330.125 110.25 36.779-36.789c.842-.843 1.779-1.771 3.396-1.771l-.107 5.501-43.081 43.043c-.569.563-1.019.399-1.019.399l4.032-10.383z"/><linearGradient id="G" x1="370.804" x2="366.381" y1="993.64" y2="989.217" gradientTransform="translate(-.18 -875.41)" gradientUnits="userSpaceOnUse"><stop offset="0" style="stop-color:#08406f"/><stop offset="1" style="stop-color:#60c5f5"/></linearGradient><path fill="url(#G)" d="m361.984 118.057 7.25-7.281 5.557 2.326-.734 1.047-3.813 4.437-.272.3h-7.72c-.34.014-.521-.271-.521-.271s-.155-.147.253-.558z"/><linearGradient id="H" x1="229.457" x2="223.419" y1="971.769" y2="971.769" gradientTransform="translate(-.18 -875.41)" gradientUnits="userSpaceOnUse"><stop offset="0" style="stop-color:#08406f"/><stop offset="1" style="stop-color:#60c5f5"/></linearGradient><path fill="url(#H)" d="m223.983 117.338-.09-38.515s-1.738-2.016.457-5.223c.673-.01 4.202.478 4.928 4.707l-.001 36.694-4.561 4.115c0 .003-.73-.475-.733-1.778z"/><linearGradient id="I" x1="330.304" x2="325.092" y1="968.519" y2="968.519" gradientTransform="translate(-.18 -875.41)" gradientUnits="userSpaceOnUse"><stop offset="0" style="stop-color:#08406f"/><stop offset="1" style="stop-color:#60c5f5"/></linearGradient><path fill="url(#I)" d="m325.449 119.945-.08-48.75s-1.472-2.681.871-5.621c.596-.009 3.243.472 3.885 4.702v39.975l-4.028 10.39c-.004-.002-.605-.143-.648-.696z"/><linearGradient id="J" x1="374.97" x2="368.725" y1="967.807" y2="967.807" gradientTransform="translate(-.18 -875.41)" gradientUnits="userSpaceOnUse"><stop offset="0" style="stop-color:#08406f"/><stop offset="1" style="stop-color:#60c5f5"/></linearGradient><path fill="url(#J)" d="M369.234 110.775V78.146s-2.113-3.379 1.064-6.456c.693-.008 4.132.24 4.492 4.323v37.088l-5.556-2.326z"/><linearGradient id="K" x1="440.637" x2="436.219" y1="959.675" y2="955.257" gradientTransform="translate(-.18 -875.41)" gradientUnits="userSpaceOnUse"><stop offset="0" style="stop-color:#08406f"/><stop offset="1" style="stop-color:#60c5f5"/></linearGradient><path fill="url(#K)" d="m448.91 74.82-13.451 13.479-3.844 4.809c-3.896-2.458-1.953-6.874-.912-7.925l14.088-14.079 4.119 3.716z"/><linearGradient id="L" x1="472.92" x2="472.92" y1="969.51" y2="963.708" gradientTransform="translate(-.18 -875.41)" gradientUnits="userSpaceOnUse"><stop offset="0" style="stop-color:#08406f"/><stop offset="1" style="stop-color:#60c5f5"/></linearGradient><path fill="url(#L)" d="M501.58 94.098h-66.391c-2.502-.196-3.574-.992-3.574-.992-.012-3.571 3.844-4.809 3.844-4.809l77.746.001c.543-.001.662.422.662.422l-12.287 5.378z"/><path d="M0 142.055v-9.521h2.876l1.728 6.494 1.708-6.494h2.883v9.521H7.41v-7.496l-1.89 7.496H3.669l-1.883-7.496v7.496H0zM17.224 132.532h1.922v5.155c0 .816.024 1.35.071 1.592.083.391.278.701.588.938s.732.354 1.27.354c.545 0 .957-.11 1.234-.334.277-.223.443-.496.5-.821.056-.324.084-.863.084-1.616v-5.268h1.922v5.001c0 1.144-.052 1.95-.155 2.423-.104.472-.296.87-.575 1.193-.279.324-.652.582-1.12.773-.468.192-1.078.289-1.832.289-.909 0-1.599-.104-2.068-.313-.47-.211-.841-.482-1.114-.818a2.622 2.622 0 0 1-.539-1.057c-.125-.545-.188-1.353-.188-2.416v-5.075zM33.025 142.055v-9.443h1.922v7.84h4.78v1.604h-6.702v-.001zM48.385 142.055v-7.91H45.56v-1.61h7.566v1.61h-2.819v7.91h-1.922zM60.438 142.055v-9.521h1.922v9.521h-1.922zM70.324 142.055v-9.521h3.085c1.169 0 1.931.048 2.286.144a2.5 2.5 0 0 1 1.37.935c.368.479.552 1.098.552 1.854 0 .584-.106 1.075-.318 1.477a2.625 2.625 0 0 1-.809.938 2.765 2.765 0 0 1-.997.452c-.459.09-1.124.136-1.994.136h-1.253v3.594l-1.922-.009zm1.922-7.91v2.701h1.052c.757 0 1.264-.053 1.52-.15a1.245 1.245 0 0 0 .818-1.207c0-.346-.102-.633-.305-.856a1.352 1.352 0 0 0-.773-.422c-.229-.043-.691-.063-1.383-.063l-.929-.003zM85.378 142.055v-9.443H87.3v7.84h4.78v1.604h-6.702v-.001zM99.582 142.055v-9.521h7.059v1.609h-5.137v2.108h4.78v1.604h-4.78v2.592h5.319v1.604l-7.241.004zM189.966 142.055h-2.091l-.831-2.164h-3.806l-.786 2.164h-2.039l3.708-9.521h2.032l3.813 9.521zm-3.539-3.769-1.313-3.532-1.286 3.532h2.599zM197.124 142.055v-9.521h4.046c1.018 0 1.757.086 2.218.258.461.171.83.477 1.107.912.277.438.416.938.416 1.5 0 .714-.21 1.304-.63 1.771-.419.465-1.047.758-1.883.879.416.242.758.51 1.029.799.271.291.635.808 1.094 1.548l1.162 1.856h-2.299l-1.39-2.072c-.493-.739-.832-1.207-1.013-1.398a1.541 1.541 0 0 0-.578-.396c-.203-.069-.526-.104-.968-.104h-.389v3.978h-1.922v-.01zm1.922-5.496h1.422c.922 0 1.498-.037 1.727-.115.23-.077.409-.213.539-.402.13-.188.195-.43.195-.714 0-.32-.085-.579-.256-.776-.171-.193-.412-.318-.724-.371-.156-.021-.623-.031-1.403-.031h-1.5v2.409zM218.945 138.552l1.864.593c-.286 1.041-.761 1.813-1.425 2.313-.664.504-1.508.757-2.53.757-1.264 0-2.303-.433-3.117-1.296-.814-.86-1.221-2.044-1.221-3.542 0-1.585.409-2.813 1.228-3.689.818-.877 1.894-1.313 3.228-1.313 1.165 0 2.11.344 2.838 1.03.433.406.757.992.974 1.755l-1.903.452c-.113-.491-.347-.881-.705-1.168-.358-.284-.791-.428-1.302-.428-.706 0-1.278.252-1.718.76-.44.507-.66 1.326-.66 2.461 0 1.203.217 2.062.65 2.572.433.51.996.767 1.688.767.511 0 .95-.162 1.318-.486.369-.33.633-.84.793-1.538zM237.175 142.055h-2.091l-.832-2.164h-3.806l-.786 2.164h-2.039l3.708-9.521h2.033l3.813 9.521zm-3.539-3.769-1.313-3.532-1.286 3.532h2.599zM244.32 132.532h3.514c.792 0 1.396.062 1.812.183a3.183 3.183 0 0 1 1.435.877c.398.419.702.936.91 1.542.208.608.312 1.358.312 2.251 0 .782-.098 1.458-.292 2.025-.238.691-.578 1.254-1.02 1.682-.333.325-.784.578-1.351.762-.424.136-.991.203-1.701.203h-3.617v-9.521l-.002-.004zm1.922 1.613v6.307h1.435c.537 0 .924-.03 1.163-.092.312-.077.57-.211.776-.396.206-.188.374-.49.503-.92.13-.426.195-1.007.195-1.743 0-.733-.065-1.301-.195-1.692-.13-.396-.312-.701-.545-.924a1.81 1.81 0 0 0-.89-.447c-.269-.063-.795-.09-1.578-.09l-.864-.003zM260.063 142.055v-9.521h7.059v1.609h-5.137v2.108h4.78v1.604h-4.78v2.592h5.319v1.604l-7.241.004zM283.18 142.055v-9.521h2.877l1.729 6.494 1.707-6.494h2.883v9.521h-1.785v-7.496l-1.891 7.496h-1.854l-1.887-7.496v7.496h-1.779zM309.001 142.055h-2.09l-.832-2.164h-3.809l-.782 2.164h-2.04l3.709-9.521h2.029l3.815 9.521zm-3.539-3.769-1.313-3.532-1.286 3.532h2.599zM322.246 138.552l1.863.593c-.285 1.041-.761 1.813-1.425 2.313-.665.505-1.509.757-2.53.757-1.264 0-2.303-.433-3.115-1.296-.813-.86-1.223-2.044-1.223-3.542 0-1.585.409-2.813 1.229-3.689.818-.877 1.896-1.313 3.229-1.313 1.165 0 2.108.344 2.839 1.03.434.406.76.992.977 1.755l-1.902.452a2.035 2.035 0 0 0-.704-1.168c-.356-.284-.791-.428-1.303-.428-.705 0-1.277.252-1.718.76-.439.507-.66 1.326-.66 2.461 0 1.203.218 2.062.648 2.572.434.51.994.767 1.688.767.51 0 .946-.162 1.313-.486.369-.33.633-.84.794-1.538zM331.897 142.055v-9.521h1.923v3.748h3.766v-3.748h1.924v9.521h-1.924v-4.164h-3.766v4.164h-1.923zM347.569 142.055v-9.521h1.923v9.521h-1.923zM357.472 142.055v-9.521h1.871l3.896 6.357v-6.357h1.786v9.521h-1.929l-3.839-6.209v6.209h-1.785zM373.19 142.055v-9.521h7.06v1.609h-5.138v2.108h4.78v1.604h-4.78v2.592h5.319v1.604l-7.241.004zM397.091 142.055v-9.521h7.06v1.609h-5.137v2.108h4.78v1.604h-4.78v2.592h5.319v1.604l-7.242.004zM412.069 142.055v-9.521h2.877l1.728 6.494 1.709-6.494h2.883v9.521h-1.783v-7.496l-1.893 7.496h-1.852l-1.884-7.496v7.496h-1.785zM429.292 132.532h1.922v5.155c0 .816.023 1.35.07 1.592.082.391.273.701.588.938.311.236.729.354 1.27.354.547 0 .957-.11 1.234-.334.277-.223.443-.496.5-.821.057-.324.084-.863.084-1.616v-5.268h1.924v5.001c0 1.144-.053 1.95-.156 2.423-.104.472-.297.87-.574 1.193-.279.324-.652.582-1.121.773-.467.192-1.078.289-1.83.289-.91 0-1.6-.104-2.068-.313-.471-.211-.842-.482-1.109-.818a2.63 2.63 0 0 1-.537-1.057c-.127-.545-.189-1.353-.189-2.416v-5.077l-.008.002zM445.093 142.055v-9.443h1.922v7.84h4.781v1.604h-6.703v-.001zM467.882 142.055h-2.092l-.83-2.164h-3.807l-.785 2.164h-2.039l3.707-9.521h2.033l3.813 9.521zm-3.539-3.769-1.313-3.532-1.285 3.532h2.598zM476.191 142.055v-7.91h-2.826v-1.61h7.564v1.61h-2.816v7.91h-1.922zM487.671 137.352c0-.972.146-1.783.438-2.44.215-.484.51-.92.885-1.308.375-.387.785-.67 1.23-.854.594-.251 1.277-.376 2.053-.376 1.402 0 2.525.438 3.367 1.305.842.87 1.264 2.081 1.264 3.633 0 1.535-.418 2.737-1.254 3.605-.836.867-1.953 1.302-3.352 1.302-1.416 0-2.541-.433-3.377-1.296s-1.254-2.057-1.254-3.571zm1.983-.066c0 1.078.248 1.896.746 2.45.498.558 1.131.834 1.896.834.768 0 1.396-.273 1.887-.825.492-.554.736-1.381.736-2.485 0-1.09-.238-1.902-.717-2.439-.48-.535-1.113-.805-1.906-.805s-1.43.271-1.916.813-.726 1.362-.726 2.457zM504.544 142.055v-9.521h4.047c1.018 0 1.756.086 2.217.258.461.171.83.477 1.107.912.277.438.416.938.416 1.5 0 .714-.211 1.304-.631 1.771-.42.465-1.047.758-1.883.879.416.242.76.51 1.021.799.271.291.645.808 1.102 1.548l1.156 1.856H510.8l-1.391-2.072c-.492-.739-.83-1.207-1.012-1.398a1.581 1.581 0 0 0-.578-.396c-.203-.069-.525-.104-.971-.104h-.391v3.978h-1.92v-.006h.004v-.002h.003zm1.922-5.496h1.424c.922 0 1.498-.037 1.727-.115.23-.077.41-.213.541-.402.129-.188.193-.43.193-.714 0-.32-.086-.579-.258-.776-.17-.193-.41-.318-.723-.371-.156-.021-.623-.031-1.402-.031h-1.502v2.409z"/></svg>