<svg xmlns="http://www.w3.org/2000/svg" xml:space="preserve" width="718" height="206" viewBox="-48.423 -13.517 718 206"><path d="M667.726 101.45v-6.248h-.04l-2.388 6.248h-1.086l-2.389-6.248h-.037v6.248h-1.457v-7.996h2.252l2.192 5.667 2.176-5.667h2.23v7.996zm-11.472 0h-1.552v-6.734h-2.444v-1.262h6.442v1.262h-2.446zm-49.948-23.077-73.525-.026-12.691 24.302h-16.72S555.477 4.005 557.55.636c2.075-3.371 8.019-14.015 17.612-13.497 9.59.518 13.6 7.819 15.417 10.93 1.813 3.111 55.615 104.58 55.615 104.58h-26.765zm-31.436-58.44c-2.324-4.667-7.603-5.816-10.455-.373-1.189 2.247-23.667 44.476-23.667 44.476l57.965.005zM480.722 1.029l.085 100.591h-23.91V1.137l-45.388-.071v-13.971l114.86-.077-.052 14.133zm-61.699 171.179c3.217-.59 6.083-.237 6.083-2.865 0-2.316-2.394-2.747-4.2-2.747-2.51 0-4.276 1.021-4.474 3.218h-4.474c.313-5.221 4.75-6.751 9.222-6.751 3.964 0 8.124 1.61 8.124 5.888v10.439c0 1.097.237 1.53 1.062 1.53.274 0 .628 0 1.098-.08v3.101c-.667.236-2.078.51-2.824.51-1.806 0-3.102-.627-3.455-2.471-1.766 1.728-4.63 2.471-7.023 2.471-3.651 0-6.946-1.961-6.946-5.925-.002-5.063 4.04-5.887 7.807-6.318zm.785 8.712c1.961 0 5.022-1.021 5.022-3.848v-3.334c-1.373.903-3.53.863-5.495 1.216-1.922.314-3.648 1.021-3.648 3.374 0 2.002 2.552 2.592 4.121 2.592zm-19.425-2.002v-11.97h-3.376v-3.336h3.376v-6.084h4.474v6.084h4.043v3.336h-4.043v10.832c0 1.845.156 2.786 2.16 2.786.626 0 1.254 0 1.883-.157v3.454c-.982.077-1.924.234-2.904.234-4.672.001-5.535-1.804-5.613-5.179zM371.645-12.274h24.313v114.546h-24.313zm3.23 190.33 7.182-22.175h4.983l-9.575 28.022h-5.454l-9.341-28.022h5.103l7.025 22.175zm-18.48 6.139c-3.71 0-6.35-2.778-6.35-6.453 0-3.883 2.932-6.452 6.35-6.452 3.382 0 6.315 2.569 6.315 6.452s-2.933 6.453-6.315 6.453zm0-11.784c-2.794 0-4.97 2.191-4.97 5.331 0 2.934 1.897 5.332 4.97 5.332 2.76 0 4.935-2.174 4.935-5.332 0-3.14-2.174-5.331-4.935-5.331zm1 5.884 2.002 3.14h-1.329l-1.846-3.053h-1.104v3.053h-1.174v-7.142h2.71c1.726 0 2.604.604 2.604 2.053 0 1.292-.791 1.829-1.862 1.949zm-.862-3.003h-1.415v2.089h1.312c.88 0 1.656-.087 1.656-1.123 0-.862-.847-.966-1.553-.966zm-71.81-72.665c-9.573-.518-13.575-7.804-15.386-10.908-1.812-3.105-55.51-104.378-55.51-104.378h26.714l44.471 82.557c2.32 4.658 7.59 5.805 10.437.371 2.328-4.398 44.242-82.928 44.242-82.928h16.688s-52.007 98.453-54.077 101.816c-2.072 3.364-8.005 13.988-17.579 13.47zm-65.61 60.985L211.224 185c-1.453 3.651-2.512 6.948-7.183 6.948-1.059 0-2.079-.079-3.1-.236v-3.769c.706.118 1.413.274 2.12.274 2.08 0 2.59-1.097 3.138-2.824l.51-1.57-7.692-20.211h4.906l5.298 15.149h.078l5.142-15.149zm-74.39-144.988v52.439c0 19.174-8.632 31.137-32.558 31.137H60.77V88.022h44.843c9.177 0 14.66-7.454 14.66-16.958v-52.44c0-16.715 8.117-31.136 31.88-31.136h51.043v14.18h-44.161c-11.928-.516-14.31 9.254-14.31 16.956zM43.828 51.071h-55c-7.539 0-13.11 5.736-13.11 15.568v35.723h-23.744V67.95c0-19.337 12.127-32.366 29.333-32.366h55.638c13.644-.519 16.898-7.291 16.898-17.124 0-7.538-3.77-17.829-16.898-16.793h-84.97v-14.178h91.853c24.09 0 33.594 13.928 33.594 30.972 0 19.337-9.505 32.61-33.594 32.61zm121.914 113.483c0 3.453-1.53 8.635-9.536 8.595h-7.457v10.755h-4.905v-28.022h12.362c8.006-.001 9.537 5.179 9.537 8.672zm-16.993-4.669v9.262h7.182c2.197 0 4.905-1.1 4.905-4.632 0-3.689-2.237-4.63-4.827-4.63zm25.43 24.018h-4.474v-28.022h4.474zm11.773-11.695c3.218-.59 6.083-.237 6.083-2.865 0-2.316-2.394-2.747-4.2-2.747-2.512 0-4.278 1.021-4.474 3.218h-4.474c.313-5.221 4.749-6.751 9.222-6.751 3.964 0 8.125 1.61 8.125 5.888v10.439c0 1.097.235 1.53 1.059 1.53.275 0 .628 0 1.099-.08v3.101c-.667.236-2.08.51-2.826.51-1.804 0-3.1-.627-3.453-2.471-1.767 1.728-4.631 2.471-7.024 2.471-3.65 0-6.947-1.961-6.947-5.925 0-5.063 4.042-5.887 7.81-6.318zm.785 8.712c1.962 0 5.023-1.021 5.023-3.848v-3.334c-1.374.903-3.532.863-5.495 1.216-1.923.314-3.65 1.021-3.65 3.374.001 2.002 2.551 2.592 4.121 2.592zm46.032-.354c4.317 0 5.926-2.12 5.926-4.238 0-2.159-1.177-3.023-2.315-3.454-1.962-.746-4.513-1.256-8.36-2.315-4.788-1.296-6.2-4.198-6.2-7.104 0-5.61 5.18-8.241 10.244-8.241 5.848 0 10.753 3.101 10.753 8.948h-4.906c-.235-3.611-2.67-4.945-6.044-4.945-2.276 0-5.141.824-5.141 3.65 0 1.962 1.334 3.06 3.336 3.609.43.119 6.632 1.727 8.083 2.16 3.689 1.098 5.456 4.237 5.456 7.142 0 6.279-5.573 8.791-11.146 8.791-6.398 0-11.578-3.061-11.696-10.008h4.906c0 4.317 3.18 6.005 7.104 6.005zm16.01-23.038h4.476v6.084h4.04v3.336h-4.04v10.832c0 1.845.156 2.786 2.157 2.786.628 0 1.257 0 1.884-.157v3.454c-.981.077-1.923.234-2.904.234-4.67 0-5.534-1.805-5.612-5.18v-11.97h-3.375v-3.336h3.375zm18.642 14.68c3.218-.59 6.083-.237 6.083-2.865 0-2.316-2.394-2.747-4.2-2.747-2.511 0-4.277 1.021-4.474 3.218h-4.474c.314-5.221 4.749-6.751 9.223-6.751 3.964 0 8.124 1.61 8.124 5.888v10.439c0 1.097.234 1.53 1.06 1.53.275 0 .627 0 1.099-.08v3.101c-.667.236-2.08.51-2.825.51-1.806 0-3.101-.627-3.455-2.471-1.765 1.728-4.63 2.471-7.024 2.471-3.65 0-6.946-1.961-6.946-5.925-.001-5.063 4.04-5.887 7.809-6.318zm.784 8.712c1.962 0 5.023-1.021 5.023-3.848v-3.334c-1.374.903-3.531.863-5.494 1.216-1.922.314-3.65 1.021-3.65 3.374 0 2.002 2.55 2.592 4.12 2.592zm15.854-23.392h4.473v6.084h4.042v3.336h-4.042v10.832c0 1.845.157 2.786 2.158 2.786.628 0 1.256 0 1.885-.157v3.454c-.98.077-1.923.234-2.905.234-4.67 0-5.533-1.805-5.612-5.18v-11.97h-3.375v-3.336h3.375zm16.521 2.591h-4.474v-4.238h4.474zm0 23.784h-4.474v-20.291h4.474zm14.363-20.841c6.515 0 10.242 4.475 10.242 10.676 0 6.238-3.728 10.712-10.242 10.712-6.514 0-10.242-4.474-10.242-10.712 0-6.201 3.728-10.676 10.242-10.676zm0 17.858c4.004 0 5.77-3.651 5.77-7.182 0-3.494-1.766-7.143-5.77-7.143-4.003 0-5.769 3.648-5.769 7.143.001 3.53 1.766 7.182 5.77 7.182zm18.405-14.324.078.077c1.334-2.236 3.65-3.61 6.318-3.61 4.396 0 7.182 2.354 7.182 6.908v13.933h-4.473v-12.757c-.079-3.177-1.336-4.551-3.964-4.551-2.983 0-4.906 2.354-4.906 5.337v11.971h-4.475v-20.291h4.24v2.983zm60.638-6.477h-4.474v-4.238h4.474zm0 23.784h-4.474v-20.291h4.474z" style="clip-rule:evenodd;fill-rule:evenodd"/></svg>