<svg xmlns="http://www.w3.org/2000/svg" xml:space="preserve" width="566.929" height="129.21"><linearGradient id="a" x1="280.519" x2="280.519" y1="41.153" y2="128.077" gradientUnits="userSpaceOnUse"><stop offset=".35" style="stop-color:#f8f8f8"/><stop offset=".716" style="stop-color:#c9c9c9"/></linearGradient><path fill="url(#a)" d="m314.466 41.153 29.807.189c.568 0 4.658.663-.453 1.999-4.084 1.063-7.43.661-8.764 5.979l-16.086 64.575c-1.336 5.769 3.152 10.742 8.955 12.301 1.313.32 1.393 1.715-.158 1.8l-19.586-.724-23.795.805c-1.728 0-1.795-1.794.085-2.125 5.562-.567 10.478-5.151 11.548-8.913l15.643-56.077c.002-.846-.436-1.287-.914-1.287-.35 0-.723.236-.965.719l-44.044 63.917c-1.22 1.967-3.14 3.271-4.838 3.271-1.835 0-3.412-1.521-3.578-5.375l-4.433-59.588c-.048-.826-.744-1.454-1.438-1.454-.478 0-.956.297-1.222 1.029l-15.107 47.273c-1.237 3.593-1.325 7.104.147 9.646 1.463 2.611 5.229 5.803 9.64 6.701 1.714.412 1.628 2.125-.004 2.209l-15.824-.662-13.293.498c-1.561-.084-1.393-1.631.004-1.883 4.578-.979 9.826-5.638 12.205-12.267l19.571-62.897c.821-2.376-.476-5.236-2.852-5.804l-6.055-1.229c-1.063-.082-1.215-1.632.002-1.632l34.736-.282 3.482 54.755 2.548-3.1 33.147-49.172c.407-.665 1.391-2.214 1.889-3.195z"/><path d="M282.789 128.577a1.83 1.83 0 0 1-.715-1.438c.017-1.149 1.001-1.98 2.225-2.174l.027-.006.043-.004c5.083-.46 9.815-4.928 10.685-8.187l15.581-55.852-44.048 63.92c-1.372 2.18-3.473 3.711-5.686 3.744-1.196.013-2.412-.545-3.218-1.644-.812-1.096-1.27-2.636-1.359-4.66l-4.432-59.601c-.002-.292-.342-.518-.439-.512-.008.004-.017.004-.027.004-.037 0-.095 0-.245.327l-15.114 47.295c-.582 1.689-.889 3.343-.889 4.837 0 1.529.317 2.88.963 3.995 1.27 2.314 4.902 5.408 9.001 6.216 1.134.255 2.012 1.101 2.019 2.18.014 1.132-1.046 1.981-2.201 2l-.058.002-15.822-.661-13.303.497-.043-.002c-1.048-.002-2.078-.789-2.053-1.84.014-1.059.874-1.847 1.902-2.019 4.122-.852 9.223-5.29 11.461-11.587l19.579-62.925c.129-.373.193-.769.193-1.165.002-1.568-.99-3.044-2.298-3.332l-6.008-1.221c-1.043-.115-1.721-1.01-1.703-1.875-.004-.42.153-.885.506-1.231.35-.348.855-.52 1.343-.516l35.681-.288 3.382 53.167.906-1.1 33.1-49.101c.412-.671 1.393-2.221 1.85-3.125l.278-.551 30.42.192c.506.031 1.437.116 2.311.574.259.159.736.456.773 1.206-.077.897-.635 1.161-1.092 1.428-.51.261-1.194.496-2.195.759-2.138.547-3.968.733-5.244 1.334-1.258.611-2.148 1.451-2.799 3.92l-16.082 64.559a7.912 7.912 0 0 0-.214 1.815c-.026 4.268 3.657 8.002 8.43 9.287.945.224 1.738.93 1.759 1.943.005 1.096-1.052 1.819-2.095 1.827l-.054.002-19.602-.725-23.782.804h-.012c-.596.005-1.151-.152-1.586-.492zm1.562-1.503 23.838-.806 18.807.695c-5.114-1.617-9.239-5.779-9.265-11.028a9.952 9.952 0 0 1 .268-2.284l16.087-64.575c.683-2.847 2.131-4.465 3.902-5.25 1.749-.792 3.635-.937 5.578-1.453l.14-.037-28.643-.181c-.553.99-1.303 2.17-1.656 2.75l-33.172 49.208-4.192 5.097-3.583-56.34-31.957.258 4.446.904c2.441.607 3.862 2.942 3.866 5.286 0 .607-.095 1.223-.292 1.788l-19.583 62.938c-2.42 6.682-7.531 11.459-12.446 12.784l12.593-.472 15.813.661a.827.827 0 0 0 .205-.042.946.946 0 0 0-.394-.186c-4.758-.995-8.658-4.285-10.307-7.18-.852-1.47-1.225-3.183-1.225-4.983 0-1.766.356-3.627.99-5.467l15.12-47.31c.332-1.016 1.245-1.716 2.163-1.689 1.289.031 2.329 1.038 2.435 2.381l4.434 59.619c.075 1.801.489 2.948.963 3.576.485.626.974.827 1.617.841 1.181.033 2.919-1.042 4.013-2.839l44.007-63.864c.364-.692 1.033-1.2 1.825-1.204a1.817 1.817 0 0 1 1.42.707c.338.433.493.984.491 1.575l.002.006v.139l-15.682 56.211c-1.266 4.242-6.329 8.924-12.339 9.625a1.426 1.426 0 0 0-.419.131c.039.007.083.01.132.01z"/><linearGradient id="b" x1="366.273" x2="366.273" y1="40.928" y2="127.911" gradientUnits="userSpaceOnUse"><stop offset=".35" style="stop-color:#f8f8f8"/><stop offset=".716" style="stop-color:#c9c9c9"/></linearGradient><path fill="url(#b)" d="m359.425 40.928 40.012.331c1.883 0 2.766 3.332-1 3.664-4.02.354-8.225 3.215-9.213 6.641l-18.748 64.8c-.904 3.438 1.594 9.183 8.051 9.669 1.063.246 1.061 1.877.08 1.877l-23.631-.906-22.697.686c-1.232 0-.896-1.629.154-1.795 3.111-.567 12.154-4.076 13.879-9.634l20.902-64.692c1.309-4.656-3.016-6.949-7.922-8.095-1.062-.17-.845-2.463.133-2.546z"/><path d="m378.567 128.909-23.601-.905-22.688.684c-.466.007-.964-.152-1.31-.503a1.678 1.678 0 0 1-.48-1.199c.017-.946.649-1.87 1.765-2.074 1.394-.249 4.396-1.25 7.141-2.83 2.772-1.573 5.256-3.759 5.967-6.128l20.89-64.654c.14-.494.198-.94.198-1.343-.011-1.41-.699-2.438-2.036-3.391-1.326-.927-3.256-1.631-5.328-2.112-.559-.099-.999-.5-1.203-.895a2.579 2.579 0 0 1-.295-1.237c.005-.481.103-.957.343-1.406.228-.432.7-.921 1.414-.984l.046-.002 40.049.33c1.554.023 2.613 1.308 2.615 2.68.033 1.493-1.355 2.853-3.528 2.98-3.64.282-7.577 3.06-8.341 5.923l-18.74 64.777a4.659 4.659 0 0 0-.148 1.201c.021 2.933 2.246 6.833 7.308 7.215l.069.006.079.019c1.071.253 1.595 1.223 1.581 2.029a1.92 1.92 0 0 1-.403 1.195c-.276.364-.781.626-1.323.626-.016-.002-.028-.002-.041-.002zm-1.452-2.057c-5.262-1.019-7.84-5.458-7.82-9.032 0-.594.07-1.17.221-1.734l18.747-64.799c1.214-3.99 5.686-6.932 10.086-7.36 1.625-.208 1.671-.715 1.704-.988 0-.357-.309-.678-.624-.68l-39.771-.328a1.133 1.133 0 0 0-.07.39c-.002.08.01.151.021.201 2.188.52 4.295 1.258 5.947 2.402 1.666 1.141 2.905 2.851 2.893 5.032a7.017 7.017 0 0 1-.282 1.921l-20.899 64.679c-1.018 3.199-3.918 5.548-6.878 7.26-2.466 1.408-4.993 2.362-6.781 2.833l21.378-.647 22.128.85z"/><linearGradient id="c" x1="432.982" x2="432.982" y1="36.898" y2="127.848" gradientUnits="userSpaceOnUse"><stop offset=".35" style="stop-color:#f8f8f8"/><stop offset=".716" style="stop-color:#c9c9c9"/></linearGradient><path fill="url(#c)" d="M464.128 36.898c4.105 0 8.133.34 12.004 1.062 2.461.496 5.475 1.62 4.738 3.746l-5.906 15.057c-.467 1.534-1.244 2.462-2.031 2.462-1.094 0-2.207-1.792-2.551-6.244-.195-2.436.197-11.205-3.146-11.393a46.972 46.972 0 0 0-2.543-.067c-5.363 0-10.688.885-15.43 2.396-18.068 5.767-29.525 15.623-37.08 32.453-7.385 16.19-3.738 33.692 1.479 39.662 3.557 4.065 11.865 6.874 18.252 6.874 3.75 0 6.836-.971 7.904-3.225 3.457-8.307 5.133-18.494 4.809-23.15.014-5.647-2.201-6.086-6.41-6.866-2.951-.313-3.895-2.228 1.615-2.228.293 0 .604.006.936.02 1.771-.012 3.492-.018 5.189-.018 3.881 0 7.602.021 11.299.039 3.473.019 6.924.035 10.473.035 3.246 0 6.576-.017 10.072-.06.98.483.896.897-.088 1.384-5.973.896-8.352 2.043-8.924 4.254-2.311 7.85-4.383 16.438-8.123 24.488-1.33 2.883-7.605 5.626-9.648 6.204-6.354 2.263-16.916 4.063-26.975 4.063-8.072 0-15.822-1.16-20.813-4.184-18.713-11.438-22.078-33.127-14.438-47.428 11.331-21.274 45.469-39.336 75.336-39.336z"/><path d="M402.708 124.517c-12.916-7.888-18.738-20.608-18.732-32.545 0-5.78 1.356-11.39 3.934-16.207 11.65-21.742 45.962-39.819 76.22-39.867v2c-29.481-.048-63.445 17.999-74.457 38.811-2.409 4.504-3.695 9.795-3.695 15.264.008 11.303 5.468 23.312 17.77 30.837 4.69 2.859 12.321 4.049 20.296 4.038 9.934.005 20.445-1.794 26.701-4.025.903-.253 2.967-1.072 4.874-2.147 1.921-1.054 3.698-2.475 4.14-3.517 3.688-7.93 5.753-16.466 8.063-24.315.348-1.418 1.398-2.544 2.974-3.272.896-.426 1.977-.774 3.296-1.08-2.17.016-4.283.022-6.362.022-3.552 0-7.005-.017-10.478-.035-3.697-.017-7.416-.038-11.294-.038-1.695 0-3.413.006-5.23.017a21.893 21.893 0 0 0-.895-.019 11.744 11.744 0 0 0-2.105.139c.181.039.381.072.596.095l.027.002.05.009c2.085.4 3.839.667 5.237 1.815 1.408 1.185 1.998 3.086 1.989 5.981v.02c.026.392.038.818.038 1.275-.009 5.254-1.692 14.506-4.941 22.337-1.426 2.861-4.932 3.777-8.809 3.796-6.67-.038-15.076-2.803-19.005-7.216-3.354-3.879-5.881-11.648-5.9-20.854 0-6.263 1.207-13.178 4.262-19.878 7.631-17.053 19.421-27.189 37.688-32.994a52.431 52.431 0 0 1 15.735-2.443c.863 0 1.727.021 2.599.067 1.324.072 2.228 1.042 2.717 2.074.514 1.057.789 2.327.97 3.643.356 2.613.308 5.481.4 6.599.222 3.23.994 4.917 1.411 5.228.107.093.135.091.141.091 0 0 .002 0 .002.002 0-.008.122-.002.367-.295.233-.28.505-.785.707-1.459l.017-.05 5.898-15.034a.967.967 0 0 0 .059-.316c.021-.28-.248-.703-1.074-1.154-.789-.432-1.931-.771-2.958-.975-3.803-.709-7.77-1.044-11.818-1.044v-2c4.158 0 8.247.345 12.199 1.082 1.162.236 2.445.594 3.529 1.177 1.049.564 2.102 1.474 2.122 2.914.003.322-.057.642-.179 1l-5.9 15.043c-.543 1.631-1.344 2.999-2.969 3.109-1.16-.023-1.954-.897-2.465-2.036-.535-1.177-.903-2.83-1.083-5.127-.126-1.924-.031-7.288-1.171-9.513-.385-.741-.688-.939-1.033-.96a44.875 44.875 0 0 0-2.487-.065 50.395 50.395 0 0 0-15.126 2.348c-17.869 5.729-28.992 15.304-36.476 31.915-2.925 6.411-4.083 13.044-4.083 19.052-.02 8.812 2.548 16.308 5.405 19.537 3.184 3.719 11.396 6.57 17.499 6.532 3.624.019 6.29-1.007 6.98-2.609 3.12-7.475 4.78-16.659 4.771-21.523 0-.43-.015-.825-.036-1.177l-.002-.034v-.035s-.002 0-.002-.053c-.009-2.705-.526-3.821-1.276-4.451-.752-.662-2.193-1.001-4.285-1.374-.786-.09-1.463-.271-2.019-.551-.522-.29-1.14-.667-1.2-1.608-.005-.499.282-.927.579-1.162.305-.249.644-.398 1.044-.524.798-.242 1.866-.368 3.363-.371.307 0 .631.007.931.021a706.18 706.18 0 0 1 5.194-.019c3.885 0 7.607.022 11.305.04 3.473.019 6.921.035 10.467.035 3.243-.002 6.567-.017 10.061-.061l.236-.005.217.107c.512.289 1.158.554 1.251 1.559-.124 1.084-.796 1.293-1.333 1.617l-.144.071-.155.023c-2.944.438-4.961.947-6.205 1.548-1.251.619-1.675 1.173-1.908 2-2.302 7.813-4.382 16.457-8.174 24.623-.891 1.845-2.916 3.238-4.976 4.42-2.072 1.162-4.169 2.002-5.245 2.308-6.515 2.314-17.129 4.118-27.31 4.123-8.173-.009-16.044-1.142-21.336-4.329z"/><path fill="#878787" d="M558.181 127.465v-4.979h-1.861v-.668h4.477v.668h-1.867v4.979h-.749zM561.539 127.465v-5.646h1.125l1.338 4c.123.371.213.65.271.836.063-.205.164-.508.299-.905l1.352-3.931h1.006v5.646h-.719v-4.727l-1.643 4.727h-.674l-1.633-4.808v4.808h-.722z"/><linearGradient id="d" x1="60.549" x2="60.549" y1="-1452.352" y2="-1385.286" gradientTransform="matrix(1 0 0 -1 2.35 -1325.893)" gradientUnits="userSpaceOnUse"><stop offset=".06" style="stop-color:#53b848"/><stop offset=".555" style="stop-color:#65ccec"/><stop offset=".583" style="stop-color:#61c3e7"/><stop offset=".688" style="stop-color:#55a7d8"/><stop offset=".793" style="stop-color:#4d92cd"/><stop offset=".898" style="stop-color:#4886c6"/><stop offset="1" style="stop-color:#4682c4"/></linearGradient><path fill="url(#d)" d="M28.491 59.393h23.887l44.928 67.066H73.637z"/><linearGradient id="e" x1="72.555" x2="179.013" y1="-1452.288" y2="-1325.416" gradientTransform="matrix(1 0 0 -1 2.35 -1325.893)" gradientUnits="userSpaceOnUse"><stop offset="0" style="stop-color:#6ebe44"/><stop offset=".001" style="stop-color:#6ebe44"/><stop offset=".245" style="stop-color:#bcda20"/><stop offset=".419" style="stop-color:#eceb09"/><stop offset=".505" style="stop-color:#fff200"/><stop offset=".578" style="stop-color:#fbca08"/><stop offset=".679" style="stop-color:#f79a11"/><stop offset=".775" style="stop-color:#f47419"/><stop offset=".864" style="stop-color:#f1581f"/><stop offset=".941" style="stop-color:#f04822"/><stop offset="1" style="stop-color:#ef4223"/></linearGradient><path fill="url(#e)" d="M158.261.001h23.669L97.553 126.459H74.98z"/><linearGradient id="f" x1="32.058" x2="32.058" y1="-1452.351" y2="-1385.286" gradientTransform="matrix(1 0 0 -1 2.35 -1325.893)" gradientUnits="userSpaceOnUse"><stop offset=".06" style="stop-color:#53b848"/><stop offset=".555" style="stop-color:#65ccec"/><stop offset=".583" style="stop-color:#61c3e7"/><stop offset=".688" style="stop-color:#55a7d8"/><stop offset=".793" style="stop-color:#4d92cd"/><stop offset=".898" style="stop-color:#4886c6"/><stop offset="1" style="stop-color:#4682c4"/></linearGradient><path fill="url(#f)" d="M0 59.393h23.889l44.927 67.065H45.147z"/><linearGradient id="g" x1="44.064" x2="150.521" y1="-1452.287" y2="-1325.416" gradientTransform="matrix(1 0 0 -1 2.35 -1325.893)" gradientUnits="userSpaceOnUse"><stop offset="0" style="stop-color:#6ebe44"/><stop offset=".001" style="stop-color:#6ebe44"/><stop offset=".245" style="stop-color:#bcda20"/><stop offset=".419" style="stop-color:#eceb09"/><stop offset=".505" style="stop-color:#fff200"/><stop offset=".578" style="stop-color:#fbca08"/><stop offset=".679" style="stop-color:#f79a11"/><stop offset=".775" style="stop-color:#f47419"/><stop offset=".864" style="stop-color:#f1581f"/><stop offset=".941" style="stop-color:#f04822"/><stop offset="1" style="stop-color:#ef4223"/></linearGradient><path fill="url(#g)" d="M129.769 0h23.669L69.063 126.458H46.489z"/><linearGradient id="h" x1="163.706" x2="163.706" y1="38.08" y2="128.09" gradientUnits="userSpaceOnUse"><stop offset=".35" style="stop-color:#f8f8f8"/><stop offset=".716" style="stop-color:#c9c9c9"/></linearGradient><path fill="url(#h)" d="m154.313 97.063-11.644 16.511c-3.452 5.399 3.078 11.04 10.279 12.354.66.513.548 2.163-.415 2.163-.105 0-.219-.02-.345-.063-.144-.063-2.86-1.194-9.034-1.771-1.652-.156-4.623-.663-8.245-.663a35.96 35.96 0 0 0-3.947.214l-13.024 1.834c-1.232-.082-1.229-1.551.002-1.882 6.293-.813 13.835-5.481 18.259-11.771l52.979-73.901c.875-1.269 2.745-2.007 4.565-2.007 2.279 0 4.474 1.158 4.517 3.887l1.745 73.983c.566 6.204 4.724 8.829 9.962 10.294.732.495.411 1.477-.086 1.645-.34-.007-6.801-.105-14.522-1.254-1.807-.267-3.22-.421-4.946-.421-1.493 0-3.221.116-5.64.373-3.029.32-1.598.366-13.862.91-.466.022-.919-.099-1.017-.888.109-.91 1.48-1.349 1.918-1.465 4.9-1.358 7.317-3.816 8.392-9.847 1.16-6.631.85-12.269.694-18.071l-26.585-.164zm19.08-4.322c2.696 0 5.234.015 7.125.056L179.816 62c-.133-.4-.313-.605-.519-.605-.169 0-.357.145-.546.439-6.558 9.313-15.59 20.729-22.065 29.973-.415.729-.001.979.98.979.157.015.688.02 1.498.02 1.393 0 3.607-.016 6.142-.027 2.534-.02 5.39-.038 8.087-.038"/><path d="M152.533 129.088a2.04 2.04 0 0 1-.669-.114l-.036-.013-.039-.017c-.031-.015-2.65-1.127-8.73-1.695-1.722-.163-4.612-.656-8.149-.658a35.17 35.17 0 0 0-3.809.205l-13.125 1.848-.105-.006c-1.026-.017-1.9-.914-1.856-1.844-.006-.916.684-1.756 1.668-2.002l.064-.019.064-.006c5.928-.746 13.334-5.301 17.576-11.362l52.967-73.887c1.179-1.655 3.311-2.422 5.39-2.438 1.305.002 2.629.323 3.696 1.121 1.074.79 1.809 2.118 1.819 3.742l1.744 73.946c.572 5.681 4.13 7.903 9.232 9.391l.155.043.135.092c.586.381.885 1.055.87 1.616-.029.767-.35 1.46-1.189 1.803l-.166.058-.18-.004c-.354-.007-6.859-.105-14.648-1.262-1.79-.266-3.135-.411-4.799-.411-1.44-.002-3.133.112-5.535.367-2.978.314-1.688.373-13.937.914-.072.002-.116 0-.128 0-.325.002-.788-.054-1.208-.384-.423-.333-.645-.857-.705-1.38l-.015-.122.015-.12c.139-.966.814-1.474 1.328-1.776a5.498 5.498 0 0 1 1.316-.532c4.65-1.38 6.546-3.232 7.675-9.058.661-3.779.835-7.231.835-10.606 0-2.11-.069-4.192-.13-6.297l-25.096-.154-11.318 16.047c-.563.883-.792 1.712-.793 2.526-.135 3.433 4.824 7.333 10.41 8.303l.238.043.195.151c.632.521.792 1.2.804 1.826-.004.44-.096.895-.369 1.323-.253.419-.81.803-1.424.803l-.038-.001zm-9.287-3.827c5.473.512 8.313 1.454 9.117 1.759l.002-.058a.738.738 0 0 0-.013-.136c-5.933-1.258-11.505-5.107-11.634-10.188-.002-1.208.36-2.443 1.133-3.644l11.646-16.51.298-.428 28.075.173.027.967c.064 2.423.158 4.835.158 7.319.002 3.445-.178 7.028-.866 10.955-1.021 6.235-3.96 9.298-9.119 10.638-.183.035-.621.205-.905.375 11.97-.535 10.449-.57 13.503-.893 2.437-.259 4.2-.379 5.746-.379 1.786 0 3.268.163 5.093.433a122.74 122.74 0 0 0 12.971 1.201c-4.847-1.563-8.941-4.615-9.469-10.806l-.002-.033-1.747-74.025c-.031-1.098-.417-1.711-1.021-2.184-.609-.462-1.521-.721-2.495-.719-1.563-.019-3.17.692-3.753 1.589l-52.973 73.893c-4.064 5.747-10.508 10.144-16.537 11.712l10.37-1.461a37.376 37.376 0 0 1 4.06-.222c3.703.002 6.756.522 8.335.672zm11.061-27.199.006-.998-.006.998zm26.189-4.267a353.844 353.844 0 0 0-7.104-.054V91.74c2.232 0 4.356.01 6.102.036l-.646-28.35c-6.368 8.949-14.75 19.6-20.933 28.37.228.005.685.01 1.249.008 1.386 0 3.602-.015 6.136-.026 2.534-.019 5.392-.037 8.093-.037v2.001c-2.693-.002-5.547.017-8.083.035-2.534.011-4.747.027-6.146.027-.815-.002-1.295-.002-1.576-.021-.396-.006-.752-.032-1.145-.188-.41-.114-.957-.705-.918-1.313.006-.403.139-.696.292-.972l.024-.045.025-.033c6.5-9.281 15.533-20.696 22.043-29.94.269-.385.603-.852 1.386-.897.452-.006.843.251 1.044.5.214.251.33.512.425.79l.046.143.731 31.991-1.045-.024z"/><linearGradient id="i" x1="505.14" x2="505.14" y1="38.209" y2="128.211" gradientUnits="userSpaceOnUse"><stop offset=".35" style="stop-color:#f8f8f8"/><stop offset=".716" style="stop-color:#c9c9c9"/></linearGradient><path fill="url(#i)" d="M551.406 126.374c.732.481.398 1.464-.086 1.632-.34-.006-6.801-.105-14.521-1.238-1.834-.271-3.254-.43-5.002-.43-1.479 0-3.188.113-5.584.366-3.041.317-1.598.364-13.877.91-.457.021-.904-.099-1.002-.888.107-.908 1.48-1.338 1.906-1.467 4.908-1.348 7.326-3.814 8.404-9.845 1.158-6.618.838-12.256.684-18.069l-26.588-.152-11.645 16.512c-3.439 5.393 3.09 11.023 10.289 12.338.662.521.539 2.168-.422 2.168a1.14 1.14 0 0 1-.352-.063c-.146-.061-2.859-1.184-9.021-1.773-1.65-.156-4.625-.662-8.246-.662-1.248 0-2.57.059-3.945.213l-13.035 1.834c-1.221-.084-1.219-1.551.004-1.881 6.305-.814 13.834-5.472 18.27-11.771l52.98-73.885c.875-1.274 2.744-2.013 4.563-2.013 2.281 0 4.48 1.163 4.521 3.891l1.744 73.972c.555 6.21 4.724 8.823 9.961 10.301zm-36.614-33.501c2.705 0 5.256.016 7.152.057l-.689-30.813c-.137-.4-.318-.605-.521-.605-.172 0-.355.144-.539.44-6.568 9.325-15.592 20.739-22.078 29.97-.404.732-.002.98.979.98.191.018.945.021 2.078.021 1.377 0 3.32-.012 5.516-.021 2.528-.013 5.393-.029 8.102-.029"/><path d="M493.962 129.21a2.13 2.13 0 0 1-.656-.11l-.047-.015-.031-.013c-.063-.025-2.661-1.119-8.733-1.703-1.721-.164-4.616-.656-8.152-.658-1.217 0-2.501.058-3.807.204l-13.136 1.849-.106-.008c-1.025-.02-1.892-.918-1.847-1.844-.009-.913.679-1.751 1.66-2l.063-.019.066-.007c5.94-.747 13.335-5.289 17.586-11.362l52.968-73.869c1.179-1.661 3.311-2.429 5.388-2.446 1.308.002 2.633.323 3.7 1.121 1.075.792 1.812 2.122 1.82 3.746l1.744 73.939c.562 5.683 4.129 7.894 9.233 9.396l-.271.962.271-.962.146.04.13.085c.593.374.894 1.054.877 1.607-.036.773-.346 1.45-1.174 1.803l-.173.062-.183-.004c-.358-.006-6.86-.106-14.648-1.248-1.82-.271-3.171-.419-4.856-.419-1.427 0-3.101.11-5.48.361-2.988.313-1.685.371-13.947.915-.053.002-.093 0-.123 0-.32.002-.781-.053-1.203-.384-.425-.334-.644-.858-.701-1.383l-.015-.117.015-.121c.136-.968.815-1.474 1.325-1.774.533-.306 1.053-.461 1.308-.54 4.657-1.367 6.553-3.228 7.685-9.052.654-3.743.828-7.169.828-10.52 0-2.138-.072-4.247-.133-6.384l-25.098-.144-11.319 16.047c-.559.881-.786 1.707-.788 2.517-.134 3.429 4.824 7.327 10.415 8.3l.244.043.196.157c.622.52.781 1.195.792 1.817a2.436 2.436 0 0 1-.37 1.327c-.254.421-.81.807-1.428.807l-.035.001zm-9.279-3.83c5.496.524 8.346 1.477 9.11 1.765a.738.738 0 0 0-.01-.204c-5.934-1.259-11.505-5.105-11.636-10.182-.002-1.204.361-2.434 1.13-3.632l11.943-16.938 28.078.161.027.968c.062 2.451.159 4.891.159 7.404 0 3.419-.178 6.974-.857 10.868-1.025 6.231-3.965 9.305-9.101 10.625a4.075 4.075 0 0 0-.921.385c11.963-.536 10.435-.572 13.5-.892 2.414-.255 4.157-.372 5.688-.372 1.811 0 3.3.166 5.146.439a124.83 124.83 0 0 0 12.942 1.188c-4.831-1.574-8.92-4.615-9.437-10.805l-.004-.036-1.743-74.008c-.032-1.096-.416-1.711-1.023-2.185-.609-.465-1.524-.724-2.499-.722-1.559-.017-3.166.692-3.75 1.597l-52.975 73.877c-4.07 5.749-10.494 10.134-16.522 11.706l10.354-1.456a36.367 36.367 0 0 1 4.058-.219c3.707-.001 6.761.518 8.343.668zm-25.236 1.556-.003-.002.003.002zm62.474-33.008c-1.882-.04-4.43-.056-7.131-.056v-2c2.242 0 4.378.01 6.131.038l-.635-28.358c-6.378 8.958-14.751 19.604-20.941 28.36.297.007.975.013 1.828.011 1.37 0 3.314-.011 5.509-.021 2.53-.013 5.397-.029 8.108-.029v2c-2.705 0-5.567.016-8.099.028-2.193.01-4.138.022-5.519.022-1.137-.002-1.827 0-2.154-.023-.398-.007-.754-.032-1.149-.188-.416-.117-.953-.718-.911-1.313.004-.405.138-.692.282-.962l.025-.047.032-.044c6.511-9.265 15.535-20.68 22.045-29.921.26-.391.607-.873 1.391-.913.455-.004.839.253 1.039.497.214.249.331.507.429.786l.049.145.716 32.012-1.045-.024zm-7.13-.056v.002-.002z"/></svg>