<svg xmlns="http://www.w3.org/2000/svg" xml:space="preserve" width="146" height="40"><path d="M134.95 22.55H9.55l16 15.4h115.9v-9.8zM30.85 2.05v4.1c0 .8-.5 1.4-1.6 1.7-1 .3-2.4.5-4.1.5-1.8 0-3.2-.2-4.3-.5-1-.3-1.5-.8-1.5-1.5v-4.3h4.4v4c0 .3.1.5.4.7.3.1.7.2 1.4.2.5 0 .9 0 1.3-.1.3-.2.5-.3.5-.4.1-.1.1-.4.1-.7v-3.7ZM36.65 6.05v2.3h-3.9v-6.3h5.3c1.3 0 2.3.1 3 .2.7.2 1.2.4 1.6.7.4.3.7.7.7 1.1 0 .6-.4 1.1-1.2 1.4-.9.4-2 .6-3.4.6Zm-.1-1.4h1.3c1.1 0 1.7-.2 1.7-.6 0-.4-.5-.6-1.6-.6h-1.4zM53.75 6.85v1.5h-9.4v-6.3h9.4v1.4h-5.6v.9h4.6v1.4h-4.6v1h5.6zM65.35 8.35h-4.2l-1.8-2.4h-1.2v2.4h-3.8v-6.3h6.4c1.4 0 2.5.2 3.3.5.9.3 1.3.8 1.3 1.3 0 .4-.1.7-.4 1-.3.3-.9.5-1.7.7zm-7.1-3.8h1.6c.5 0 .9-.1 1.1-.2.3 0 .4-.2.4-.4 0-.4-.5-.6-1.4-.6h-1.7zM12.45 8.45c-1 0-1.8-.1-2.6-.2s-1.3-.3-1.8-.5-.9-.5-1.1-.7c-.3-.3-.4-.6-.4-.9h2.5c0 .2.2.4.4.6.2.2.4.3.7.4.3.1.6.2 1 .2s.8.1 1.2.1c.4 0 .8 0 1.1-.1.3 0 .6-.1.9-.2l.6-.3c.1-.1.2-.2.2-.3 0-.1-.1-.2-.2-.3-.1-.1-.3-.2-.6-.3-.3-.1-.7-.1-1.1-.2-.5-.1-1.1-.1-1.7-.2-.8-.1-1.5-.2-2-.3-.6-.1-1-.2-1.4-.4-.4-.1-.6-.3-.8-.5-.2-.2-.3-.4-.3-.6 0-.3.1-.5.4-.7.2-.2.6-.4 1-.6.4-.2 1-.3 1.6-.4h2c.8 0 1.5 0 2.1.1.6.1 1.2.2 1.7.4s.8.4 1.1.7c.3.3.4.6.4.9h-2.5c-.2-.7-1.1-1.1-2.8-1.1-.8 0-1.5.1-1.9.2-.4.1-.7.3-.7.5 0 .1 0 .2.1.2s.3.1.5.2.5.1.8.2c.3 0 .7.1 1.2.1.4 0 .8.1 1.3.1.4 0 .9.1 1.3.2s.8.1 1.2.2c.4.1.7.2 1 .3.3.1.5.3.7.5.2.2.2.4.2.6 0 .3-.1.5-.4.8-.3.2-.6.4-1.1.6-.5.2-1 .3-1.7.4-.6.2-1.3.3-2.1.3zM130.85 18.65h-1.1v2.8h-.7v-2.8h-1.1v-.6h2.9zM134.95 21.45h-.7v-2.2l-.8 2.2h-.6l-.8-2.2v2.2h-.7v-3.4h.9l.8 2.4.8-2.4h.9v3.4z"/><path d="M41.75 35.35v-4.8l.7-.2c7.2-2.7 18.7-9.1 19.3-11.1.1-.3 0-.6-.2-1-.5-.6-1.4-1.1-2.3-1.1-1.2 0-2.3.8-2.5 1.8l-.1.7H41.45l.3-1.3c1.4-5.5 8.4-9.1 17.7-9.1 10.4 0 17.7 3.7 17.7 9.1 0 3.8-3.9 6.9-11.8 9.4h11.1v7.4h-34.7Z"/><path d="M82.1 17.4c.5-1.7-1.6-3.3-3.6-3.3-1.7 0-3.1 1.1-3.5 2.6H62.3C63.5 12 69.8 8.4 79 8.4s16.7 3.2 16.7 8.1c0 4.3-6.1 7.2-13.7 9.2v1.2h13.1v5.4H62.3v-3.1c5.8-2.2 19.1-8.9 19.8-11.8Z" style="fill:#fff" transform="translate(-19.65 2.05)"/><path d="M22.85 36.45c-4.5 0-12.7-.6-16.4-4.3-1.2-1.3-1.9-2.7-1.9-4.4v-1h14.6l.2.8c.1.8 1.4 1.6 3.3 1.6 2.1 0 3.7-.9 3.7-1.8s-1.6-1.8-3.7-1.8h-.6l-1.1.2v-6.7l1.5.2h.4c1.7 0 2.9-.8 2.9-1.6s-1.3-1.6-2.9-1.6c-1.6 0-2.8.7-2.9 1.4l-.2.8H5.95v-1c0-2.1 2-4.4 5-5.8 2.9-1.4 7-2.1 12.2-2.1 8.4 0 16.9 2.4 16.9 6.9 0 1.9-1.7 3.8-4.3 5.1 3.8 1.4 5.3 4 5.3 6.1.1 5.2-8 9-18.2 9z"/><path d="M25.2 25.7H38c.3 1.4 2.1 2.5 4.3 2.5 2.6 0 4.7-1.3 4.7-2.8 0-1.5-2.1-2.8-4.7-2.8h-.8v-4.4c.3 0 .5.1.8.1 2.2 0 3.9-1.1 3.9-2.6 0-1.4-1.8-2.6-3.9-2.6-2 0-3.7 1-3.9 2.3H26.6c0-1.6 1.7-3.6 4.4-4.9 3-1.4 7.1-2 11.8-2 9 0 15.9 2.6 15.9 5.9 0 2-2.6 3.8-6.8 4.8v1.1c5.2.6 7.7 2.7 7.7 5.4 0 4.2-7.7 7.7-17.3 7.7-9.6 0-17.1-2.3-17.1-7.7" style="fill:#fff" transform="translate(-19.65 2.05)"/><path d="M158.9 34.5h-38.4L84.9 0h38.4v.1l35.6 34.5" style="fill:#1d46a5" transform="translate(-19.65 2.05)"/><path d="M77.45 5.25h21.7l5.3 4.8 5.1-4.8h21.5l-15.7 14.8 16.7 15.3h-21.7l-5.7-5.2-5.6 5.2h-21.5l16.2-15.2z"/><path d="M114.8 18.1 99.7 4.2h18.7l5.7 5.2 5.5-5.2h18.6L133.5 18l15.6 14.3h-18.7l-6.1-5.6-5.9 5.6H99.7Z" style="fill:#fff" transform="translate(-19.65 2.05)"/></svg>