<svg xmlns="http://www.w3.org/2000/svg" width="280" height="96" fill="none"><path fill="#FFF1E8" d="M219.935-2.324v-4h-8v-8h8v-8h8v8h8v8h-8v8h-8z" style="fill:#f3dfcb;fill-opacity:.999521;stroke:none" transform="translate(36.05 30.317)"/><path d="M204.003-14.324h8v8h-8z" style="fill:#f8eb3b;fill-opacity:1;stroke:none;stroke-width:.4;stroke-linejoin:round;stroke-opacity:1" transform="translate(36.05 30.317)"/><path d="M235.896-14.324h8v8h-8z" style="fill:#df739e;fill-opacity:1;stroke:none;stroke-width:.4;stroke-linejoin:round;stroke-opacity:1" transform="translate(36.05 30.317)"/><path d="M227.915-22.308h8v8h-8z" style="fill:#f0c8a3;fill-opacity:1;stroke:none;stroke-width:.4;stroke-linejoin:round;stroke-opacity:1" transform="translate(36.05 30.317)"/><path d="M227.915-6.371h8v8h-8z" style="fill:#766c92;fill-opacity:1;stroke:none;stroke-width:.4;stroke-linejoin:round;stroke-opacity:1" transform="translate(36.05 30.317)"/><path d="M211.977-6.371h8v8h-8z" style="fill:#77df41;fill-opacity:1;stroke:none;stroke-width:.4;stroke-linejoin:round;stroke-opacity:1" transform="translate(36.05 30.317)"/><path d="M211.956-22.321h8v8h-8z" style="fill:#e69e20;fill-opacity:1;stroke:none;stroke-width:.4;stroke-linejoin:round;stroke-opacity:1" transform="translate(36.05 30.317)"/><path d="M219.935-30.279h8v8h-8z" style="fill:#d82945;fill-opacity:1;stroke:none;stroke-width:.4;stroke-linejoin:round;stroke-opacity:1" transform="translate(36.05 30.317)"/><path d="M219.935 1.644h8v8h-8z" style="fill:#5fa2fc;fill-opacity:1;stroke:none;stroke-width:.4;stroke-linejoin:round;stroke-opacity:1" transform="translate(36.05 30.317)"/><path fill="#FFF1E8" d="M48 68v-4h8V40h-8v-8h32v8h-8v24h8v8H48ZM176 52v-4h16v8h-16z" style="fill:#f0d7bd;fill-opacity:1"/><path fill="#C4C4C4" d="M10 86H1v1H0v9h2v-4h6v-2H2v-2h8z" style="fill:#f0d7bd;fill-opacity:1"/><path fill="#C4C4C4" fill-rule="evenodd" d="M13 86h8v1h1v9h-2v-4h-6v4h-2v-9h1zm1 4h6v-2h-6z" clip-rule="evenodd" style="fill:#f0d7bd;fill-opacity:1"/><path fill="#C4C4C4" d="M24 86h2v1h1v1h1v1h1v1h1v1h1v1h1v-6h2v10h-2v-1h-1v-1h-1v-1h-1v-1h-1v-1h-1v-1h-1v6h-2zM46 86H36v2h4v8h2v-8h4z" style="fill:#f0d7bd;fill-opacity:1"/><path fill="#C4C4C4" fill-rule="evenodd" d="M48 86v10h2v-4h6v4h2V86Zm2 2h6v2h-6z" clip-rule="evenodd" style="fill:#f0d7bd;fill-opacity:1"/><path fill="#C4C4C4" d="M70 86h-8v1h-1v1h-1v2h1v1h1v1h5v2h-7v2h8v-1h1v-1h1v-2h-1v-1h-1v-1h-5v-2h7zM72 86h2v3h1v1h4v-1h1v-3h2v4h-1v1h-1v1h-2v4h-2v-4h-2v-1h-1v-1h-1zM98 86h8v2h-7v1h-1v4h1v1h7v2h-8v-1h-1v-1h-1v-6h1v-1h1z" style="fill:#f0d7bd;fill-opacity:1"/><path fill="#C4C4C4" fill-rule="evenodd" d="M116 86h-6v1h-1v1h-1v6h1v1h1v1h6v-1h1v-1h1v-6h-1v-1h-1zm-1 3h1v4h-1v1h-4v-1h-1v-4h1v-1h4z" clip-rule="evenodd" style="fill:#f0d7bd;fill-opacity:1"/><path fill="#C4C4C4" d="M122 86h-2v10h2v-6h1v1h1v1h1v1h1v1h1v1h1v1h2V86h-2v6h-1v-1h-1v-1h-1v-1h-1v-1h-1v-1h-1zM134 86h8v2h-7v2h5v1h1v1h1v2h-1v1h-1v1h-8v-2h7v-2h-5v-1h-1v-1h-1v-2h1v-1h1z" style="fill:#f0d7bd;fill-opacity:1"/><path fill="#C4C4C4" fill-rule="evenodd" d="M152 86h-6v1h-1v1h-1v6h1v1h1v1h6v-1h1v-1h1v-6h-1v-1h-1zm-5 7h-1v-4h1v-1h4v1h1v4h-1v1h-4z" clip-rule="evenodd" style="fill:#f0d7bd;fill-opacity:1"/><path fill="#C4C4C4" d="M158 86h-2v9h1v1h9v-2h-7v-1h-1zM169 86h9v2h-8v2h4v2h-4v2h8v2h-9v-1h-1v-8h1z" style="fill:#f0d7bd;fill-opacity:1"/><path fill="#FFF1E8" fill-rule="evenodd" d="M0 40v32h16V56h24V32H8v1H7v1H6v1H5v1H4v1H3v1H2v1H1v1zm24 0v8h-8v-8zM200 48v24h40V32h-32v9h-1v1h-1v1h-1v1h-1v1h-1v1h-1v1h-1v1zm32 8v8h-16v-8zm0-8h-16v-8h16zM128 40v32h32v-8h8V32h-32v1h-1v1h-1v1h-1v1h-1v1h-1v1h-1v1h-1v1zm24 0v24h-8V40Z" clip-rule="evenodd" style="fill:#f0d7bd;fill-opacity:1"/><path fill="#FFF1E8" d="M88 40v32h32v-8h-16V40h16v-8H96v1h-1v1h-1v1h-1v1h-1v1h-1v1h-1v1h-1v1z" style="fill:#f0d7bd;fill-opacity:1"/></svg>