<?xml version="1.0" encoding="iso-8859-1"?>
<!-- Generator: Adobe Illustrator 19.0.0, SVG Export Plug-In . SVG Version: 6.00 Build 0)  -->
<svg version="1.1" id="Layer_1" xmlns="http://www.w3.org/2000/svg" xmlns:xlink="http://www.w3.org/1999/xlink" x="0px" y="0px"
	 viewBox="0 0 503.996 503.996" style="enable-background:new 0 0 503.996 503.996;" xml:space="preserve">
<g>
	<g>
		<path d="M342.312,350.72c-0.644-1.372-2.036-2.364-3.556-2.364h-31.632v-90.44c0-2.176-2.064-4.064-4.24-4.064H200.612
			c-2.176,0-3.74,1.888-3.74,4.064v90.44H165.24c-1.52,0-2.908,0.992-3.56,2.364c-0.652,1.376-0.452,3.06,0.508,4.24l86.76,106.344
			c0.752,0.916,1.868,1.46,3.052,1.46s2.3-0.532,3.052-1.444l86.752-106.368C342.764,353.772,342.964,352.096,342.312,350.72z"/>
	</g>
</g>
<g>
	<g>
		<path d="M311.136,112.368c-15.304,0-27.752,12.44-27.752,27.744c0,15.304,12.452,27.752,27.752,27.752
			c15.3,0,27.752-12.448,27.752-27.752C338.888,124.812,326.44,112.368,311.136,112.368z"/>
	</g>
</g>
<g>
	<g>
		<path d="M484.188,41.232H19.812C8.952,41.232,0,50.184,0,61.044v299.5c0,10.856,8.952,19.312,19.812,19.312h132.464l-8.396-10.092
			c-6.704-8.216-8.084-19.728-3.556-29.236c4.532-9.584,14.304-15.796,24.916-15.796h8.008v-66.816
			c0-15.2,12.164-27.688,27.364-27.688h95.964l-93.028-92.96c-1.54-1.54-4.032-1.508-5.568,0.032l-71.88,71.9l-32.816-32.804
			c-1.54-1.54-4.088-1.532-5.628,0.004l-52.22,52.164V76.668H468.56v171.04l-71.584-71.532c-1.54-1.54-4.064-1.54-5.596,0
			l-65.788,65.928c3.152,4.48,5.156,9.928,5.156,15.812v66.812h8.008c10.604,0,20.388,6.308,24.888,15.832
			c4.56,9.564,3.172,20.92-3.532,29.144l-8.392,10.148h132.464c10.856,0,19.812-8.456,19.812-19.312V61.044
			C504,50.184,495.044,41.232,484.188,41.232z"/>
	</g>
</g>
</svg>
