<svg xmlns="http://www.w3.org/2000/svg" xml:space="preserve" width="566.93" height="202.382"><g fill-rule="evenodd" clip-rule="evenodd"><path fill="#262222" d="M60.762 97.449c10.85 0 21.701-.028 32.551.013 5.195.02 9.183 2.276 11.797 6.811 1.258 2.184 1.605 4.59 1.604 7.072-.005 8.556.01 17.111-.021 25.668-.003.83.246 1.303.939 1.785 5.095 3.543 8.083 8.374 8.219 14.642.141 6.534-2.773 11.58-8.198 15.168-.698.461-1.072.919-.951 1.765.06.419.049.858.004 1.281-.257 2.399.196 4.124 2.538 5.716 3.652 2.482 4.476 6.503 3.536 10.726-.929 4.172-3.734 6.703-7.751 7.889-1.42.419-2.94.135-4.412.176-9.99.278-19.983.137-29.975.187-.706.003-.91-.21-.981-.901-.217-2.078-.874-4.011-2.19-5.681-3.663-4.641-11.19-4.095-14.166 1.02a11.372 11.372 0 0 0-1.514 4.726c-.06.646-.279.837-.921.834-10.069-.053-20.14.101-30.207-.188-.583-.017-1.172-.07-1.749-.011-4.504.473-9.102-3.511-10.14-7.541-1.301-5.055.518-9.87 4.87-12.345.861-.489 1.199-.998 1.127-1.986-.099-1.354-.063-2.722-.009-4.081.028-.709-.224-1.096-.819-1.485-4.556-2.977-7.528-7.047-8.169-12.544-.848-7.272 1.976-12.957 7.832-17.183.862-.622 1.168-1.229 1.164-2.264-.04-8.479-.001-16.957-.031-25.435-.016-4.559 1.551-8.351 5.201-11.173 2.428-1.877 5.234-2.655 8.27-2.657 10.851-.008 21.701-.004 32.552-.004zm0 4.633c-10.813 0-21.626.004-32.438-.004-1.957-.002-3.771.434-5.38 1.587-2.638 1.89-3.606 4.556-3.604 7.688.005 9.451-.016 18.902.029 28.354.005 1.006-.315 1.443-1.196 1.914-4.959 2.653-8.033 6.663-7.929 12.465.102 5.681 3.2 9.484 8.263 11.779.626.285.858.606.851 1.298-.035 3.578-.052 7.156.008 10.734.016.959-.236 1.318-1.213 1.521-3.465.726-5.323 3.18-5.144 6.579.165 3.13 2.659 5.484 5.783 5.512 1.942.016 3.883.139 5.824.146 7.467.03 14.935.022 22.402.062.674.003.936-.234 1.146-.83.68-1.928 1.752-3.622 3.158-5.117 5.32-5.658 17.922-5.646 21.855 4.832.342.911.767 1.121 1.666 1.116 9.292-.045 18.584-.024 27.877-.152 2.246-.031 5.042-2.186 5.549-4.354.885-3.789-1.061-6.972-5.014-7.805-.933-.196-1.169-.548-1.157-1.447.049-3.539.045-7.079.001-10.617-.011-.819.236-1.211 1.008-1.548 3.342-1.452 5.857-3.808 7.229-7.221 2.61-6.497-.513-13.878-7.199-17.03-.793-.374-1.043-.797-1.04-1.657.032-9.567.037-19.136.014-28.704-.013-5.553-3.605-9.1-9.146-9.102-10.733-.001-21.468.001-32.203.001z"/><path fill="#252223" d="M503.585 163.878c0-10.422.016-20.844-.025-31.267-.004-.987.254-1.196 1.209-1.189 6.65.046 13.301.083 19.949-.009 2.221-.031 4.329.08 6.287 1.228a11.185 11.185 0 0 1 2.298 1.773c.352.354.521.381.874-.038 1.51-1.793 3.458-2.67 5.815-2.661 4.121.013 8.246.072 12.366-.013 6.074-.126 10.146 4.322 10.079 10.109-.207 17.887-.087 35.777-.047 53.666.002 1.126-.259 1.403-1.385 1.388a648.83 648.83 0 0 0-15.283-.005c-.948.01-1.121-.281-1.119-1.157.026-14.855.019-29.711.019-44.567 0-.311.03-.627-.009-.933-.099-.776-.317-1.455-1.303-1.478-.975-.023-1.529.49-1.75 1.375-.093.368-.044.773-.044 1.162-.001 14.622.002 29.244-.006 43.867 0 1.772.244 1.502-1.563 1.508-4.977.013-9.956-.02-14.934.024-.895.009-1.148-.199-1.146-1.129.032-14.816.022-29.634.022-44.45 0-.312.036-.628-.011-.933-.141-.938-.623-1.646-1.632-1.653-1.029-.006-1.46.75-1.613 1.665-.051.303-.01.621-.01.933 0 14.699-.015 29.399.028 44.1.004 1.068-.302 1.248-1.281 1.237a562.624 562.624 0 0 0-14.583.009c-1.095.017-1.227-.339-1.224-1.296.035-10.421.022-20.843.022-31.266zm29.364-23.338c-.2-.384-.312-.588-.415-.796-1.72-3.449-4.372-5.252-8.359-5.13-5.284.162-10.573.146-15.859.161-.772.003-.973.223-.972.982.02 18.824.021 37.648-.002 56.472-.001.752.24.896.927.886 2.722-.036 5.445-.058 8.166.01.944.022 1.222-.183 1.218-1.182-.04-11.745-.025-23.491-.025-35.236 0-2.412-.027-4.823.008-7.234a4.357 4.357 0 0 1 3.179-4.134c2.422-.665 4.342-.089 5.501 1.631.777 1.155.887 2.452.886 3.79-.005 13.729.004 27.458-.019 41.188-.002.853.126 1.206 1.109 1.182 2.994-.076 5.99-.052 8.983-.011.71.011.918-.16.909-.894-.042-3.383-.019-6.767-.019-10.15 0-10.695-.004-21.39.003-32.086.002-1.951 1.079-3.614 2.801-4.16 1.815-.576 4.6-.686 5.859.965.906 1.189.904 2.525.904 3.883.005 13.769.013 27.535-.019 41.304-.002.92.234 1.161 1.148 1.144 3.071-.059 6.146-.051 9.216-.002.809.012 1.035-.193 1.033-1.021-.025-16.841-.012-33.682-.023-50.521-.004-4.106-2.278-6.352-6.366-6.357-4.045-.005-8.089.037-12.134-.015-2.571-.034-4.548 1.063-6.212 2.907-.599.663-.922 1.499-1.426 2.424z"/><path fill="#272324" d="M387.166 160.19c0 8.866-.104 17.734.036 26.599.098 6.221-5.111 9.922-9.839 9.85-8.281-.125-16.565-.047-24.848-.017-.862.003-1.179-.146-1.166-1.11.059-4.626.044-9.255.007-13.882-.005-.774.22-.96.971-.955 5.094.032 10.188-.011 15.282.04.993.01 1.474-.185 1.278-1.26a3.027 3.027 0 0 1-.002-.931c.088-.674-.196-.844-.847-.838-3.267.029-6.536-.087-9.798.034-7.064.263-9.933-4.29-9.962-9.79-.064-11.86-.017-23.72-.031-35.581 0-.611.103-.885.813-.881 5.443.029 10.888.041 16.331-.008.939-.008.854.469.854 1.076-.006 9.099-.008 18.198.01 27.298.001.456-.31 1.199.29 1.326.811.171 1.707.114 2.531-.04.365-.068.179-.695.18-1.064.009-9.061.037-18.121-.027-27.182-.01-1.238.363-1.43 1.479-1.416 5.132.06 10.266.049 15.397.004.872-.008 1.085.205 1.081 1.08-.033 9.215-.02 18.432-.02 27.648zm-3.077 1.397c0-8.479-.016-16.958.021-25.438.004-.92-.233-1.162-1.148-1.144-2.994.061-5.99.062-8.984-.001-.928-.02-1.15.247-1.147 1.157.036 7.856.022 15.713.019 23.569 0 .426.002.859-.079 1.273-.566 2.907-3.275 4.436-6.586 3.735-1.726-.364-2.829-1.474-3.109-3.192a13.138 13.138 0 0 1-.178-2.085c-.013-7.74-.024-15.479.014-23.22.005-.934-.172-1.268-1.184-1.24a151.77 151.77 0 0 1-8.4-.002c-1.036-.029-1.276.248-1.271 1.274.042 10.385.021 20.77.026 31.154.002 4.788 2.639 7.424 7.403 7.425 4.123.002 8.245.015 12.368-.014.687-.006.983.128.941.889-.064 1.164-.002 2.333-.021 3.5-.022 1.544-.697 2.741-1.936 3.662-1.229.916-2.646 1.06-4.095 1.066-3.617.015-7.234.041-10.851-.021-.994-.017-1.223.285-1.192 1.234.073 2.293.075 4.591-.001 6.884-.03.92.276 1.067 1.113 1.063 7.078-.034 14.157-.02 21.236-.02 4.692 0 7.038-2.332 7.039-7.008.004-8.163.002-16.332.002-24.5zM198.657 165c5.631 3.437 11.06 6.756 16.501 10.054.431.262.568.553.558 1.031-.024 1.127-.054 2.259.021 3.383.084 1.263 1.169 1.961 2.292 1.566.723-.252 1.047-.75.963-1.515-.042-.385-.162-.789-.089-1.151.537-2.71-.602-4.245-3.049-5.484-3.556-1.801-6.905-4.017-10.315-6.1-3.695-2.259-6.407-5.282-7.101-9.725-.166-1.064-.099-2.173-.083-3.26.069-4.625-.178-9.253.13-13.875.3-4.516 3.714-7.722 8.269-8.434 1.08-.17 2.162-.225 3.253-.204 5.596.106 11.2-.253 16.789.204 5.224.428 9.003 3.834 9.897 8.807.055.305.089.617.089.925.005 7.546.004 15.091.004 22.637v.646c-1.967-1.295-3.77-2.48-5.571-3.667-3.859-2.541-7.709-5.096-11.585-7.611-.559-.363-.794-.745-.757-1.409.05-.892.033-1.791-.028-2.682-.06-.873-.446-1.467-1.468-1.406-.997.058-1.79.353-1.817 1.508-.029 1.244.042 2.49.014 3.732-.011.485.26.691.591.904 4.762 3.072 9.473 6.229 14.301 9.193 4.229 2.596 6.575 6.06 6.355 11.188-.17 3.959-.032 7.932-.034 11.899-.003 5.855-4.636 10.487-10.49 10.488-5.64 0-11.287-.195-16.916.051-6.424.279-9.907-4.508-10.589-9.439-.137-.995-.127-2.016-.129-3.023-.01-6.029-.005-12.058-.005-18.086l-.001-1.145zm34.896-7.074v-15.378c-.002-4.482-3.514-7.975-8.052-7.984-5.677-.012-11.354-.01-17.032-.001-3.662.005-6.648 3.005-6.652 6.671-.005 4.627.074 9.256-.035 13.881-.05 2.133.637 3.859 1.979 5.421a14.363 14.363 0 0 0 3.167 2.726c4.899 3.146 9.785 6.31 14.677 9.464.424.273.822.491.805 1.141-.052 1.982.021 3.967-.049 5.948-.09 2.495-2.334 4.48-4.926 4.456-2.724-.027-4.745-2.009-4.773-4.683-.005-.505-.042-1.016.01-1.516.065-.63-.187-.994-.729-1.299-1.386-.78-2.743-1.612-4.11-2.428-1.951-1.163-3.899-2.329-5.981-3.573-.032.562-.067.937-.072 1.312-.055 4.468-.046 8.938-.174 13.403-.148 5.158 3.705 7.817 7.792 7.81 5.6-.011 11.2.005 16.799-.005 4.545-.008 7.2-2.512 7.306-7.087.105-4.508.018-9.021.064-13.53a5.417 5.417 0 0 0-1.075-3.367c-1.185-1.63-2.731-2.852-4.407-3.931-4.829-3.111-9.643-6.246-14.494-9.322-.724-.459-.981-.943-.949-1.777.064-1.67.019-3.344.019-5.016.001-2.887 1.667-4.6 4.569-4.698 2.273-.077 4.54 1.676 4.358 3.761-.179 2.062.637 3.16 2.382 3.871.249.102.469.272.702.412 2.957 1.769 5.913 3.541 8.881 5.318z"/><path fill="#262223" d="M307.072 165.005c5.64 3.438 11.099 6.771 16.568 10.085.403.243.484.531.478.951-.018 1.128-.048 2.259.012 3.383.066 1.265 1.118 1.976 2.26 1.63.689-.209 1.047-.632 1.014-1.36-.02-.427-.136-.873-.051-1.278.581-2.791-.696-4.31-3.14-5.558-3.482-1.781-6.759-3.964-10.125-5.975-3.462-2.069-6.003-4.877-7.093-8.849-.209-.762-.193-1.54-.193-2.316-.004-4.589.093-9.181-.026-13.768-.166-6.439 3.687-10.376 9.848-10.588 6.208-.212 12.443-.352 18.653.141 4.989.395 8.661 3.589 9.728 8.287.094.413.145.846.146 1.269.009 7.583.007 15.168.005 22.751 0 .152-.02.304-.043.629-2.178-1.429-4.272-2.798-6.363-4.175-3.535-2.327-7.059-4.672-10.609-6.975-.588-.381-.859-.779-.818-1.493.051-.889.022-1.789-.062-2.675-.081-.853-.447-1.475-1.487-1.39-1.236.102-1.82.549-1.838 1.628-.021 1.203.059 2.408.059 3.612 0 .464.253.686.597.907 4.799 3.089 9.569 6.22 14.395 9.265 2.929 1.85 5.269 4.104 5.991 7.642.139.678.173 1.387.175 2.083.016 4.512.013 9.023.006 13.534-.009 5.646-4.652 10.239-10.346 10.239-5.678.002-11.363-.181-17.032.049-6.099.247-9.499-4.019-10.446-8.643a13.604 13.604 0 0 1-.266-2.778c.009-6.686.003-13.374.003-20.264zm34.933-7.075c.057-.227.106-.329.106-.432-.05-5.247-.091-10.495-.164-15.741-.017-1.214-.25-2.391-1.002-3.408-1.801-2.438-4.194-3.769-7.242-3.782-5.561-.024-11.122-.009-16.683-.006-3.826.001-6.786 2.947-6.791 6.769-.007 4.666.048 9.334-.025 14-.03 1.904.56 3.491 1.743 4.921a14.58 14.58 0 0 0 3.383 3.003c4.936 3.16 9.851 6.355 14.779 9.526.443.286.766.543.749 1.17-.051 1.826-.005 3.655-.022 5.482-.015 1.427-.462 2.685-1.639 3.574-1.632 1.234-3.411 1.65-5.354.805-1.626-.71-2.879-1.987-2.692-3.724.261-2.401-.731-3.672-2.766-4.483-.214-.086-.402-.234-.602-.354l-7.461-4.444c-.045.333-.09.519-.092.705-.057 4.74-.034 9.485-.184 14.224-.143 4.559 3.353 7.521 7.547 7.55 5.755.041 11.511.036 17.266.002 4.212-.024 6.835-2.416 6.996-6.635.172-4.503.014-9.018.134-13.524.055-2.038-.695-3.62-2.057-4.995-.874-.883-1.81-1.696-2.864-2.374-5.027-3.233-10.031-6.505-15.077-9.712-.722-.458-.97-.931-.938-1.761.067-1.709.091-3.426.002-5.133-.099-1.893.609-3.256 2.332-4.029 1.783-.8 3.533-.8 5.167.424 1.205.903 1.655 2.162 1.49 3.59-.148 1.268.339 1.949 1.44 2.546 2.182 1.181 4.271 2.53 6.402 3.806 1.354.805 2.71 1.605 4.119 2.44zM390.624 165.026c4.566 2.781 8.967 5.46 13.366 8.144 1.158.707 2.6 1.201 3.382 2.204.774.995.153 2.545.259 3.846.116 1.419.992 2.175 2.194 1.859.799-.209 1.175-.699 1.099-1.53-.046-.501-.193-1.028-.097-1.503.521-2.533-.66-3.89-2.84-5.043-3.597-1.902-7.021-4.131-10.52-6.218-3.401-2.03-5.838-4.825-6.935-8.694-.185-.649-.181-1.307-.181-1.966-.003-4.746.126-9.495-.032-14.234-.212-6.328 3.72-10.354 9.899-10.535 6.172-.18 12.366-.342 18.538.146 5.032.397 8.663 3.533 9.76 8.254.079.338.145.688.146 1.033.008 7.818.006 15.636.006 23.52-.515-.04-.847-.388-1.207-.623-5.259-3.453-10.5-6.934-15.769-10.371-.664-.434-.973-.889-.9-1.688.07-.771.049-1.557.002-2.331-.052-.89-.341-1.611-1.448-1.569-1.263.048-1.976.598-1.887 1.696.094 1.167.082 2.329.082 3.492 0 .501.237.75.63 1.002 4.902 3.144 9.784 6.319 14.69 9.457 2.856 1.826 5.035 4.136 5.67 7.601.097.53.13 1.079.131 1.62.011 4.356-.132 8.718.039 13.067.232 5.903-3.235 9.139-7.921 10.652a7.276 7.276 0 0 1-2.291.338c-5.718-.018-11.443-.2-17.15.042-6.198.264-9.605-4.138-10.502-8.73a12.043 12.043 0 0 1-.219-2.313c.01-6.808.006-13.614.006-20.625zm34.857-7.103c0-4.586.012-9.045-.006-13.502-.006-1.358.068-2.746-.178-4.067-.572-3.08-4.268-5.781-7.745-5.79-5.639-.014-11.28.078-16.919-.03-4.409-.085-6.975 3.812-6.943 6.934.042 4.512.068 9.025-.016 13.536-.042 2.246.706 4.093 2.188 5.701.896.975 1.88 1.839 3.008 2.561 4.907 3.136 9.787 6.312 14.683 9.466.435.279.8.51.784 1.151-.048 1.942.026 3.89-.029 5.833-.074 2.555-2.33 4.588-4.958 4.549-2.726-.042-4.733-2.023-4.76-4.7-.005-.505-.042-1.016.011-1.516.066-.634-.202-.973-.737-1.287a573.49 573.49 0 0 1-9.197-5.495c-.812-.497-.98-.381-.982.562-.012 4.354.028 8.713-.163 13.061-.271 6.21 4.149 8.521 8.379 8.434 5.405-.112 10.812-.019 16.22-.03 4.653-.01 7.311-2.667 7.318-7.305.007-4.396-.061-8.792.033-13.186.035-1.693-.544-3.028-1.611-4.222-.96-1.075-2.032-2.029-3.251-2.815-5.091-3.28-10.175-6.572-15.266-9.854-.432-.277-.787-.508-.771-1.148.05-2.098.013-4.2.025-6.301.006-.793.199-1.541.728-2.166 1.265-1.496 3.728-2.096 5.649-1.382 1.786.665 2.645 2.073 2.646 4.341 0 .311.017.623-.003.933-.03.437.142.71.525.939 3.763 2.241 7.517 4.501 11.338 6.795z"/><path fill="#272324" d="M257.091 176.206v1.276c0 5.99-.014 11.98.017 17.971.004.792-.18 1.063-1.019 1.059-5.173-.038-10.347-.04-15.52 0-.858.007-1.004-.286-1.003-1.063.019-21.043.019-42.086-.001-63.128-.001-.791.172-1.057 1.014-1.05 5.173.04 10.347.04 15.52-.001.857-.006 1.012.285 1.008 1.064-.029 5.99-.016 11.98-.016 17.971v1.312c1.502-1.508 2.536-2.809 2.436-5.012-.218-4.775-.052-9.566-.083-14.351-.005-.74.157-.989.949-.983 5.134.037 10.269.035 15.403 0 .784-.006.957.232.954.979-.027 7.624-.021 15.248-.006 22.871.002.542-.143.949-.5 1.355-1.826 2.069-3.589 4.194-5.455 6.227-.647.705-.593 1.117-.001 1.806 1.799 2.092 3.505 4.265 5.277 6.381.472.562.689 1.127.687 1.88-.027 7.43-.044 14.858.014 22.288.008 1.115-.341 1.308-1.354 1.298a835.54 835.54 0 0 0-14.936-.004c-.811.007-1.042-.191-1.035-1.02.04-5.019-.115-10.041.085-15.051.08-2.031-.928-2.984-2.435-4.075zm-3.012-17.099c-.028-.582-.092-1.42-.104-2.26-.109-7.069-.221-14.139-.294-21.209-.007-.717-.179-.91-.901-.9-2.993.043-5.988.044-8.981 0-.757-.012-.962.189-.961.957.022 18.662.021 37.325.001 55.988-.001.748.172.981.95.968 2.916-.047 5.833-.059 8.747.006.904.02 1.074-.258 1.07-1.105-.035-7.192-.02-14.385-.02-21.579v-1.438c2.744 2.601 5.261 5.015 7.82 7.385.504.466.684.927.679 1.602-.028 4.704.003 9.409-.032 14.113-.006.786.154 1.072 1.006 1.058 3.148-.052 6.299-.052 9.448 0 .833.015 1.018-.229 1.013-1.033-.035-6.182-.032-12.364-.001-18.546.004-.729-.249-1.238-.701-1.758-2.043-2.342-4.041-4.723-6.101-7.048-.486-.549-.504-.878-.015-1.431 2.139-2.412 4.225-4.873 6.345-7.302.393-.45.668-.876.665-1.531a1536.7 1536.7 0 0 1 .005-17.964c.006-.868-.292-.997-1.06-.985-2.876.043-5.755.055-8.63-.006-.873-.018-1.09.203-1.087 1.082.014 4.547-.06 9.094-.078 13.641-.002.582-.129 1.041-.562 1.451-2.763 2.619-5.512 5.256-8.221 7.844z"/><path fill="#252122" d="M468.811 163.976c0-10.498.013-20.996-.023-31.493-.004-.954.205-1.221 1.195-1.216 9.486.041 18.973.037 28.459.004.914-.004 1.17.222 1.162 1.15a778.067 778.067 0 0 0 0 15.047c.008.891-.237 1.091-1.098 1.078-3.459-.053-6.92.001-10.381-.041-.728-.008-.913.188-.895.902a94.692 94.692 0 0 1-.002 5.715c-.022.746.214.893.913.886 3.343-.037 6.688.015 10.03-.038.846-.014 1.005.244.999 1.035a909.18 909.18 0 0 0 .003 15.046c.008.846-.247 1.009-1.037.999-3.421-.046-6.843.016-10.264-.044-.9-.015-1.106.251-1.071 1.104.068 1.709.055 3.423.004 5.131-.022.729.217.925.926.918 3.422-.032 6.843.011 10.264-.031.853-.012 1.196.126 1.184 1.11a726.332 726.332 0 0 0-.009 14.463c.007.818-.117 1.131-1.052 1.121-9.482-.104-18.966-.171-28.448-.193-.913-.002-.867-.418-.866-1.043.01-10.538.007-21.073.007-31.61zm3.502.655c0 9.448.013 18.897-.021 28.346-.003.869.199 1.084 1.075 1.079 7.193-.039 14.386-.031 21.58-.007.703.002.928-.161.915-.898-.046-2.8-.048-5.6.001-8.398.014-.803-.188-1.056-1.02-1.044-3.539.046-7.077.002-10.616.035-.706.007-.931-.175-.926-.908a688.61 688.61 0 0 0-.001-12.364c-.007-.775.216-.969.973-.961 3.577.04 7.155-.01 10.731.038.831.011 1.026-.232 1.012-1.033-.052-2.683-.06-5.367.002-8.048.021-.868-.285-.999-1.055-.99-3.498.039-6.999-.003-10.497.034-.738.007-.98-.155-.973-.942.043-4.198.038-8.398.004-12.598-.007-.742.161-.979.943-.969 3.461.046 6.922-.005 10.382.038.796.01 1.061-.172 1.042-1.012-.057-2.604-.057-5.211.001-7.814.018-.843-.251-1.014-1.043-1.01-7.154.029-14.31.035-21.463-.006-.891-.006-1.07.232-1.067 1.088.033 9.447.021 18.896.021 28.344z"/><path fill="#2B2728" d="M439.043 172.556c0-7.582-.014-15.163.02-22.744.002-.834-.144-1.152-1.066-1.113-1.901.082-3.81.001-5.714.038-.64.013-.875-.145-.873-.832.027-5.288.024-10.575.003-15.862-.003-.637.229-.771.817-.764 8.857.117 17.716.211 26.573.316 2.137.025 4.272.098 6.409.103.615.001.78.194.777.802a1680.9 1680.9 0 0 0 .001 15.395c.003.683-.229.854-.872.842-1.982-.035-3.967.04-5.947-.035-.945-.036-1.231.188-1.228 1.188.042 9.953.025 19.905.025 29.858 0 5.172-.021 10.342.021 15.513.007.918-.163 1.27-1.184 1.26-5.559-.051-11.119-.044-16.678-.004-.872.006-1.109-.221-1.105-1.1.037-7.621.021-15.241.021-22.861zm3.633-3.488c0 7.659.016 15.318-.023 22.978-.005.88.216 1.09 1.082 1.074 3.109-.058 6.221-.041 9.33-.009.675.008 1.048-.108.921-.874-.038-.226-.006-.465-.006-.698 0-15.046.01-30.092-.023-45.138-.002-.963.213-1.255 1.202-1.216 2.096.084 4.198-.002 6.296.042.673.014.84-.196.832-.845-.034-2.799-.044-5.599.005-8.397.012-.749-.234-.891-.922-.885-3.732.032-7.466.015-11.198.015-4.742 0-9.486.023-14.229-.021-.876-.009-1.12.229-1.1 1.102.059 2.565.041 5.132.009 7.698-.01.703.109 1.047.936 1.02 1.942-.059 3.891.033 5.831-.041.896-.034 1.082.242 1.078 1.102-.037 7.697-.021 15.396-.021 23.093z"/><path fill="#292526" d="M134.595 163.798c0-10.5.016-21.001-.025-31.502-.004-.998.277-1.195 1.225-1.191 8.167.041 16.335.004 24.501.033 3.165.012 6.144.612 8.683 2.758 2.646 2.235 3.984 5.078 3.996 8.454.053 14.272-.021 28.546.043 42.818.027 6.08-4.333 9.895-8.233 11.034-.602.177-1.201.293-1.83.293-9.101-.004-18.202-.017-27.302.019-.886.004-1.082-.233-1.079-1.098.033-10.539.022-21.078.021-31.618zm3.08.229c0 9.407.015 18.814-.023 28.221-.003.972.263 1.223 1.222 1.218 7.463-.039 14.927-.021 22.391-.022 4.881-.001 8.531-3.646 8.532-8.525.003-14.072 0-28.144.002-42.216 0-1.835-.486-3.544-1.481-5.065-1.2-1.834-2.794-3.146-5.13-3.146-8.085.001-16.17.034-24.255.018-.982-.003-1.293.24-1.288 1.298.051 9.404.03 18.811.03 28.219zM177.033 163.933c0-10.459.013-20.919-.023-31.379-.003-.936.261-1.139 1.154-1.131 5.327.042 10.654.037 15.981.003.803-.005 1.044.194 1.043 1.024-.023 20.958-.023 41.918 0 62.876.001.831-.249 1.029-1.05 1.024-5.327-.034-10.654-.043-15.981.005-.931.009-1.148-.254-1.146-1.158.033-10.42.022-20.842.022-31.264zm3.04-.075c0 9.213.018 18.429-.025 27.644-.005.988.259 1.211 1.215 1.192 3.226-.063 6.454-.049 9.68-.007.794.012 1.047-.178 1.045-1.016-.024-18.507-.024-37.016 0-55.522.001-.804-.262-.949-.99-.941-3.266.036-6.533.048-9.798-.006-.893-.015-1.154.194-1.15 1.128.039 9.175.024 18.351.023 27.528z"/><path fill="#272324" d="M171.632 112.774c1.704-3.823 3.483-7.403 4.89-11.126.884-2.34 2.007-3.528 4.661-3.082 1.581.266 1.617.049 1.617 1.626 0 6.377-.016 12.754.018 19.132.005.876-.159 1.288-1.133 1.171-1.032-.124-2.385.417-3.036-.202-.659-.626-.188-1.985-.204-3.021-.032-2.166-.01-4.331-.21-6.566-.93 2.014-1.862 4.025-2.79 6.04-.471 1.021-.954 2.036-1.39 3.071-.208.491-.479.705-1.04.676-1.163-.059-2.516.319-3.442-.158-.88-.454-1.021-1.91-1.482-2.926-.993-2.189-1.95-4.395-2.962-6.686-.326.387-.177.775-.179 1.115-.014 2.566-.039 5.133.011 7.699.015.777-.219 1.016-.976.956a16.95 16.95 0 0 0-2.448-.001c-.722.047-1.018-.121-1.014-.938.033-6.688.031-13.376.001-20.064-.003-.758.262-.919.945-.888 1.279.058 2.796-.377 3.777.173.988.553 1.16 2.188 1.679 3.353 1.546 3.469 3.073 6.947 4.707 10.646z"/><path fill="#252223" d="M274.904 110.704c-1.349 2.948-2.718 5.886-4.03 8.85-.31.698-.719.841-1.458.973-2.605.464-3.892-.618-4.677-3.06-.744-2.309-1.925-4.476-3.047-7.006-.046.562-.086.826-.087 1.089-.004 2.645-.021 5.289.01 7.933.008.691-.073 1.104-.926 1.012-1.072-.115-2.475.433-3.149-.204-.685-.646-.204-2.059-.208-3.133-.022-5.755.011-11.51-.031-17.264-.007-.964.189-1.191 1.229-1.337 2.748-.385 4.129.641 5.025 3.271 1.109 3.252 2.714 6.334 4.108 9.488.182.411.387.812.676 1.412 1.054-2.359 2.031-4.533 2.998-6.711.96-2.163 1.932-4.322 2.856-6.5.275-.648.604-.98 1.369-.917a19.14 19.14 0 0 0 2.913.002c.819-.059 1.049.208 1.04 1.032-.041 4.238-.019 8.476-.019 12.714 0 2.411-.026 4.823.016 7.232.014.722-.196.963-.919.914-1.117-.076-2.58.351-3.265-.208-.727-.594-.198-2.111-.218-3.224-.038-2.099-.012-4.198-.012-6.296l-.194-.062zM256.428 109.847c-.005 6.174-5.016 11.12-11.244 11.1-6.101-.021-11.069-5.05-11.05-11.186.019-6.192 4.994-11.086 11.252-11.07 6.147.016 11.047 4.967 11.042 11.156zm-11.086 6.702c3.693-.001 6.723-3.018 6.759-6.729.036-3.645-3.05-6.75-6.725-6.768a6.767 6.767 0 0 0-6.8 6.791c.015 3.69 3.058 6.706 6.766 6.706z"/><path fill="#262223" d="M338.776 109.917c0 3.25-.028 6.499.021 9.749.012.835-.146 1.201-1.064 1.105-.846-.088-1.71-.059-2.562-.006-.644.039-.768-.221-.766-.807.018-6.799.021-13.599-.002-20.398-.002-.646.234-.766.812-.76 2.641.024 5.283-.031 7.925.022 3.025.06 5.818 2.363 6.598 5.341.817 3.116-.472 6.445-3.246 8.041-.84.483-.935.799-.431 1.608 1.387 2.224 2.677 4.509 4.105 6.938-1.573 0-2.954-.024-4.333.012-.581.016-.694-.416-.898-.762-1.983-3.371-3.957-6.748-5.933-10.123l-.226.04zm2.305-1.111c.621 0 1.244.035 1.861-.007 1.371-.093 2.457-1.181 2.591-2.548.122-1.248-.797-2.566-2.064-2.873-.442-.107-.921-.088-1.384-.086-1.042.003-2.397-.362-3.045.153-.761.605-.227 2.026-.249 3.089-.05 2.274-.015 2.274 2.29 2.272z"/><path fill="#272324" d="M309.681 107.187c-.001 2.295.01 4.59-.003 6.885-.019 3.799-3.132 6.873-7.021 6.953-3.902.078-7.295-2.951-7.357-6.752-.081-4.898-.009-9.801-.032-14.701-.004-.626.203-.803.802-.772 1.198.061 2.729-.374 3.502.214.735.559.21 2.179.219 3.331.028 3.772.008 7.546.013 11.317.002 1.72 1.062 2.891 2.625 2.922 1.625.033 2.805-1.156 2.81-2.889.012-4.629.025-9.258-.017-13.885-.007-.831.229-1.084 1.037-1.015.812.069 1.639.078 2.447-.001.862-.085 1.01.265.994 1.043-.05 2.45-.019 4.901-.019 7.35z"/><path fill="#252223" d="M234.706 104.88c-1.682 0-3.271-.011-4.861.008-.394.006-.639-.213-.924-.413-2.891-2.024-6.639-1.67-8.878.831-2.311 2.58-2.333 6.435-.054 8.914 2.394 2.602 6.077 2.982 8.957.885.434-.316.834-.482 1.368-.473 1.436.029 2.872.01 4.323.01-1.158 3.839-6.3 6.667-11.098 6.148-5.235-.565-9.353-4.816-9.784-10.1-.432-5.285 3.044-10.237 8.144-11.599 5.097-1.361 10.533 1.055 12.807 5.789z"/><path fill="#262223" d="M146.491 111.892c1.139-1.059 1.86-2.434 2.752-3.674 2.106-2.929 4.147-5.905 6.218-8.859.419-.598 3.146-1.097 3.729-.69.277.192.182.49.183.747.005 6.76-.002 13.521.015 20.281.001.6-.165.83-.787.795a19.046 19.046 0 0 0-2.562.004c-.775.061-.877-.287-.881-.951-.014-2.406-.037-2.406-2.508-2.406-.349 0-.707.046-1.048-.007-2.526-.393-4.557.163-5.556 2.802-.147.389-.447.568-.91.559-1.392-.031-2.784-.012-4.166-.012-.189-.478.17-.693.351-.955 1.593-2.294 3.206-4.575 4.801-6.868.167-.241.474-.429.399-.796l-.03.03zm8.683-4.339-.227-.063-3.809 5.209c1.304 0 2.342-.019 3.378.007.501.013.674-.169.666-.671-.024-1.493-.008-2.987-.008-4.482z"/><path fill="#252223" d="M322.202 109.792c0-3.343.021-6.686-.017-10.026-.008-.737.155-.987.943-.975 3.226.047 6.451.036 9.676.006.664-.006 1.003.083.932.867a16.113 16.113 0 0 0-.004 2.562c.05.713-.172.945-.903.925-1.786-.052-3.576.016-5.362-.032-.724-.02-.975.209-.91.926.114 1.26-.529 2.912.256 3.674.631.611 2.282.176 3.481.193.854.012 1.716.059 2.563-.016.765-.065.918.241.874.923-.073 1.118.347 2.585-.214 3.266-.595.722-2.114.173-3.229.218-.969.04-1.942.031-2.913 0-.557-.018-.805.092-.83.747-.133 3.38-.156 3.379 3.23 3.379 1.05 0 2.1.028 3.147-.011.594-.021.838.148.808.78-.047.97-.039 1.943-.003 2.913.02.523-.172.652-.669.65a635.075 635.075 0 0 0-10.143.006c-.687.008-.727-.295-.724-.832.02-3.381.011-6.762.011-10.143z"/><path fill="#252122" d="M280.466 109.519c0-3.303.029-6.605-.02-9.906-.013-.833.228-1.054 1.037-1.013 2.324.116 4.671-.217 6.977.159 3.952.642 6.468 4.105 6 8.09-.432 3.662-3.66 6.338-7.488 6.208-2.069-.071-2.069-.071-2.069 2.011 0 1.516-.024 3.031.011 4.546.016.617-.094.925-.81.88-1.157-.074-2.664.379-3.385-.195-.759-.602-.223-2.175-.24-3.32-.04-2.487-.013-4.974-.013-7.46zm4.436-3.623v.465c0 2.285 0 2.285 2.289 2.253 1.713-.023 2.907-1.195 2.873-2.816-.04-1.853-1.303-2.666-4.062-2.675-2.21-.006-.606 1.675-1.094 2.43-.053.081-.006.226-.006.343z"/><path fill="#272324" d="M146.522 111.861c-2.177.008-4.355.045-6.532.006-.731-.013-.998.143-.977.939.059 2.253-.004 4.51.035 6.765.012.687-.129.983-.888.925-1.118-.085-2.569.35-3.276-.205-.756-.594-.233-2.108-.237-3.217-.028-5.795.006-11.588-.034-17.382-.006-.875.219-1.112 1.096-1.098 3.266.055 6.533.045 9.799.004.773-.01 1.025.217.968.982-.08 1.078.33 2.48-.208 3.158-.576.725-2.036.185-3.109.229a39.523 39.523 0 0 1-3.266-.002c-.616-.025-.923.083-.876.803.063.968.052 1.945.002 2.914-.031.614.166.79.777.778 1.943-.038 3.889.012 5.833-.028.659-.014.872.182.848.846-.042 1.204.003 2.41.013 3.615l.032-.032z"/><path fill="#262223" d="M212.196 98.616c-.875 1.767-1.667 3.39-2.479 5.001-1.38 2.736-2.766 5.469-4.168 8.193-.258.504-.354 1.01-.35 1.567.015 2.062-.018 4.122.018 6.184.012.685-.144.993-.901.935a17.279 17.279 0 0 0-2.564-.002c-.71.051-.945-.163-.927-.898.049-2.021-.004-4.045.029-6.066.011-.687-.156-1.281-.464-1.885-2.077-4.077-4.132-8.165-6.193-12.251-.102-.203-.183-.415-.342-.776 1.566 0 3.019.022 4.47-.011.646-.014.734.477.933.872 1.248 2.494 2.485 4.994 3.83 7.699 1.042-2.155 2.186-4.082 2.918-6.154.718-2.032 1.891-2.77 3.945-2.425.666.111 1.369.017 2.245.017z"/><path fill="#292526" d="M317.933 111.996c0 2.604-.028 5.209.017 7.812.014.767-.203 1.017-.974.961-1.119-.083-2.596.361-3.272-.201-.711-.591-.205-2.119-.21-3.236a888.5 888.5 0 0 1 .008-13.061c.007-.787-.157-1.056-1.002-1.045-2.536.033-2.536-.006-2.536-2.502 0-1.915 0-1.915 1.865-1.915 2.915 0 5.831.019 8.745-.015.703-.008 1.066.091.989.921-.08.887-.076 1.792 0 2.68.067.775-.255.883-.926.873-.882-.014-2.092-.41-2.561.177-.442.553-.137 1.71-.141 2.603-.007 1.983-.002 3.965-.002 5.948z"/><path fill="#262223" d="M188.976 109.498c0-3.303.02-6.605-.015-9.908-.008-.723.124-1.062.939-.99.848.075 1.713.076 2.562 0 .856-.077 1.012.273 1.007 1.053-.033 5.128.003 10.258-.036 15.385-.007.891.185 1.25 1.141 1.178 1.159-.086 2.33-.001 3.496-.027.555-.014.876.087.843.753a28.971 28.971 0 0 0-.001 2.796c.03.654-.272.759-.839.754a386.875 386.875 0 0 0-8.275.006c-.676.008-.841-.211-.835-.857.029-3.384.013-6.764.013-10.143z"/><path fill="#292526" d="M188.242 109.548c0 3.304-.027 6.608.019 9.913.011.814-.207 1.104-1.035 1.036-.85-.07-1.714-.07-2.564 0-.826.068-1.044-.219-1.037-1.035.04-4.393.019-8.786.019-13.18 0-2.254.028-4.51-.016-6.764-.014-.716.187-.966.915-.919.929.06 1.868.06 2.797 0 .726-.047.924.2.917.917-.035 3.345-.015 6.689-.015 10.032z"/><path fill="#F1BC17" d="M60.762 102.082c10.734 0 21.47-.002 32.205 0 5.541.002 9.134 3.549 9.146 9.102.022 9.568.018 19.137-.014 28.704-.003.86.247 1.283 1.04 1.657 6.686 3.152 9.809 10.533 7.199 17.03-1.372 3.413-3.887 5.769-7.229 7.221-.772.337-1.019.729-1.008 1.548.044 3.538.048 7.078-.001 10.617-.013.899.224 1.251 1.157 1.447 3.953.833 5.899 4.016 5.014 7.805-.507 2.168-3.304 4.322-5.549 4.354-9.293.128-18.585.107-27.877.152-.899.005-1.324-.205-1.666-1.116-3.933-10.479-16.535-10.49-21.855-4.832-1.406 1.495-2.478 3.189-3.158 5.117-.21.596-.472.833-1.146.83-7.467-.04-14.935-.032-22.402-.062-1.941-.007-3.882-.13-5.824-.146-3.124-.027-5.619-2.382-5.783-5.512-.179-3.399 1.679-5.854 5.144-6.579.977-.203 1.229-.562 1.213-1.521-.06-3.578-.042-7.156-.008-10.734.007-.691-.225-1.013-.851-1.298-5.062-2.295-8.161-6.099-8.263-11.779-.104-5.802 2.97-9.812 7.929-12.465.881-.471 1.201-.908 1.196-1.914-.045-9.451-.023-18.902-.029-28.354-.002-3.133.966-5.799 3.604-7.688 1.609-1.153 3.423-1.589 5.38-1.587 10.81.006 21.623.003 32.436.003zm38.633 33.103c.003-10.139-7.987-18.199-18.048-18.207-10.153-.009-18.299 8.055-18.306 18.121-.007 10.092 8.122 18.227 18.221 18.232 10.06.007 18.13-8.069 18.133-18.146zm-41.076-.021c.019-10.01-8.048-18.164-17.991-18.186-10.24-.023-18.403 8.016-18.421 18.139-.018 9.945 8.148 18.195 18.029 18.215 10.236.021 18.363-8.011 18.383-18.168z"/><path fill="#FDFDFD" d="M532.949 140.54c.504-.925.826-1.761 1.427-2.425 1.664-1.844 3.641-2.941 6.212-2.907 4.045.052 8.089.01 12.134.015 4.088.006 6.362 2.251 6.366 6.357.012 16.839-.002 33.68.023 50.521.002.827-.225 1.032-1.033 1.021-3.07-.049-6.145-.057-9.216.002-.914.018-1.15-.224-1.148-1.144.031-13.769.023-27.535.019-41.304 0-1.357.002-2.693-.904-3.883-1.26-1.65-4.044-1.541-5.859-.965-1.722.546-2.799 2.209-2.801 4.16-.007 10.696-.003 21.391-.003 32.086 0 3.384-.023 6.768.019 10.15.009.733-.199.904-.909.894-2.993-.041-5.989-.065-8.983.011-.983.024-1.111-.329-1.109-1.182.022-13.729.014-27.459.019-41.188.001-1.338-.108-2.635-.886-3.79-1.159-1.72-3.079-2.296-5.501-1.631-1.823.501-3.148 2.176-3.179 4.134-.035 2.411-.008 4.822-.008 7.234 0 11.745-.015 23.491.025 35.236.004.999-.273 1.204-1.218 1.182-2.721-.067-5.444-.046-8.166-.01-.687.01-.928-.134-.927-.886.022-18.823.021-37.647.002-56.472-.001-.76.199-.979.972-.982 5.286-.016 10.575.001 15.859-.161 3.987-.122 6.64 1.681 8.359 5.13.103.209.214.413.414.797zM384.089 161.587c0 8.168.002 16.337-.001 24.504-.001 4.676-2.347 7.008-7.039 7.008-7.079 0-14.158-.015-21.236.02-.837.004-1.144-.144-1.113-1.063.076-2.293.074-4.591.001-6.884-.03-.949.198-1.251 1.192-1.234 3.616.062 7.233.036 10.851.021 1.448-.007 2.865-.15 4.095-1.066 1.238-.921 1.913-2.118 1.936-3.662.019-1.167-.044-2.336.021-3.5.042-.761-.255-.895-.941-.889-4.123.028-8.245.016-12.368.014-4.765-.001-7.401-2.637-7.403-7.425-.005-10.385.016-20.77-.026-31.154-.005-1.026.235-1.304 1.271-1.274 2.798.08 5.602.077 8.4.002 1.012-.027 1.188.307 1.184 1.24-.038 7.74-.026 15.479-.014 23.22.001.696.065 1.397.178 2.085.28 1.719 1.384 2.828 3.109 3.192 3.311.7 6.02-.828 6.586-3.735.081-.414.079-.848.079-1.273.004-7.856.018-15.713-.019-23.569-.003-.91.22-1.177 1.147-1.157 2.994.062 5.99.062 8.984.001.915-.019 1.152.224 1.148 1.144-.038 8.476-.022 16.956-.022 25.434zM233.553 157.926l-8.881-5.319c-.233-.14-.453-.311-.702-.412-1.745-.711-2.561-1.809-2.382-3.871.182-2.085-2.085-3.838-4.358-3.761-2.901.099-4.568 1.812-4.569 4.698 0 1.672.045 3.346-.019 5.016-.032.834.226 1.318.949 1.777 4.851 3.076 9.665 6.211 14.494 9.322 1.676 1.079 3.222 2.301 4.407 3.931a5.419 5.419 0 0 1 1.075 3.367c-.046 4.51.041 9.022-.064 13.53-.106 4.575-2.761 7.079-7.306 7.087-5.599.01-11.199-.006-16.799.005-4.088.008-7.94-2.651-7.792-7.81.127-4.465.119-8.936.174-13.403.005-.375.04-.75.072-1.312 2.082 1.244 4.031 2.41 5.981 3.573 1.367.815 2.724 1.647 4.11 2.428.542.305.793.669.729 1.299-.052.5-.015 1.011-.01 1.516.028 2.674 2.049 4.655 4.773 4.683 2.592.024 4.836-1.961 4.926-4.456.071-1.981-.003-3.966.049-5.948.018-.649-.38-.867-.805-1.141-4.892-3.154-9.778-6.318-14.677-9.464a14.359 14.359 0 0 1-3.167-2.726c-1.342-1.562-2.029-3.288-1.979-5.421.108-4.625.03-9.254.035-13.881.004-3.666 2.99-6.666 6.652-6.671 5.677-.009 11.355-.011 17.032.001 4.538.01 8.05 3.502 8.052 7.984.002 5.089 0 10.177 0 15.379zM342.005 157.93c-1.409-.835-2.766-1.635-4.117-2.442-2.131-1.275-4.221-2.625-6.402-3.806-1.102-.597-1.589-1.278-1.44-2.546.165-1.428-.285-2.687-1.49-3.59-1.634-1.224-3.384-1.224-5.167-.424-1.723.773-2.431 2.137-2.332 4.029.089 1.707.065 3.424-.002 5.133-.032.83.216 1.303.938 1.761 5.046 3.207 10.05 6.479 15.077 9.712 1.055.678 1.99 1.491 2.864 2.374 1.361 1.375 2.111 2.957 2.057 4.995-.12 4.507.038 9.021-.134 13.524-.161 4.219-2.784 6.61-6.996 6.635-5.755.034-11.511.039-17.266-.002-4.194-.029-7.689-2.991-7.547-7.55.149-4.738.127-9.483.184-14.224.002-.187.047-.372.092-.705l7.461 4.444c.199.12.388.269.602.354 2.034.812 3.026 2.082 2.766 4.483-.187 1.736 1.066 3.014 2.692 3.724 1.943.846 3.723.43 5.354-.805 1.177-.89 1.624-2.147 1.639-3.574.018-1.827-.028-3.656.022-5.482.017-.627-.306-.884-.749-1.17-4.929-3.171-9.844-6.366-14.779-9.526a14.58 14.58 0 0 1-3.383-3.003c-1.184-1.43-1.773-3.017-1.743-4.921.073-4.666.019-9.334.025-14 .005-3.821 2.965-6.768 6.791-6.769 5.561-.003 11.122-.019 16.683.006 3.048.014 5.441 1.344 7.242 3.782.752 1.018.985 2.194 1.002 3.408.073 5.246.114 10.494.164 15.741-.001.105-.051.208-.108.434zM425.481 157.923c-3.82-2.294-7.574-4.555-11.34-6.798-.384-.229-.556-.503-.525-.939.02-.31.003-.622.003-.933-.001-2.268-.859-3.676-2.646-4.341-1.922-.714-4.385-.114-5.649 1.382-.528.625-.722 1.373-.728 2.166-.013 2.101.024 4.203-.025 6.301-.016.641.34.871.771 1.148 5.091 3.282 10.175 6.574 15.266 9.854 1.219.786 2.291 1.74 3.251 2.815 1.067 1.193 1.646 2.528 1.611 4.222-.094 4.394-.026 8.789-.033 13.186-.008 4.638-2.665 7.295-7.318 7.305-5.407.012-10.814-.082-16.22.03-4.229.087-8.65-2.224-8.379-8.434.191-4.348.151-8.706.163-13.061.002-.942.171-1.059.982-.562a573.49 573.49 0 0 0 9.197 5.495c.535.314.804.653.737 1.287-.053.5-.016 1.011-.011 1.516.026 2.677 2.034 4.658 4.76 4.7 2.628.039 4.884-1.994 4.958-4.549.056-1.943-.019-3.891.029-5.833.016-.642-.35-.872-.784-1.151-4.896-3.154-9.775-6.33-14.683-9.466-1.128-.722-2.111-1.586-3.008-2.561-1.481-1.608-2.229-3.455-2.188-5.701.084-4.511.058-9.024.016-13.536-.031-3.122 2.534-7.019 6.943-6.934 5.639.108 11.28.017 16.919.03 3.478.009 7.173 2.71 7.745 5.79.246 1.321.172 2.709.178 4.067.019 4.46.008 8.919.008 13.505zM254.079 159.107c2.709-2.588 5.458-5.225 8.221-7.846.433-.41.56-.869.562-1.451.018-4.547.092-9.094.078-13.641-.003-.879.214-1.1 1.087-1.082 2.875.061 5.754.049 8.63.006.767-.012 1.065.117 1.06.985-.042 5.987-.034 11.976-.005 17.964.003.655-.272 1.081-.665 1.531-2.12 2.429-4.207 4.89-6.345 7.302-.489.553-.471.882.015 1.431 2.06 2.325 4.058 4.706 6.101 7.048.452.52.705 1.029.701 1.758-.031 6.182-.034 12.364.001 18.546.005.805-.18 1.048-1.013 1.033a286.124 286.124 0 0 0-9.448 0c-.853.015-1.013-.271-1.006-1.058.035-4.704.004-9.409.032-14.113.004-.675-.175-1.136-.679-1.602-2.559-2.37-5.077-4.784-7.82-7.385v1.438c0 7.194-.015 14.387.02 21.579.004.848-.166 1.125-1.07 1.105a229.78 229.78 0 0 0-8.747-.006c-.777.014-.951-.22-.95-.968.021-18.663.021-37.326-.001-55.988-.001-.768.204-.969.961-.957 2.993.044 5.988.043 8.981 0 .722-.01.894.184.901.9.073 7.07.185 14.14.294 21.209.013.842.077 1.68.104 2.262z"/><path fill="#FEFEFE" d="M472.313 164.631c0-9.448.013-18.897-.021-28.345-.003-.855.177-1.094 1.067-1.088 7.153.041 14.309.035 21.463.006.792-.004 1.061.167 1.043 1.01-.058 2.604-.058 5.21-.001 7.814.019.84-.246 1.021-1.042 1.012-3.46-.043-6.921.008-10.382-.038-.782-.011-.95.227-.943.969a687.07 687.07 0 0 1-.004 12.598c-.008.787.234.949.973.942 3.498-.037 6.999.005 10.497-.034.77-.009 1.075.122 1.055.99a189.407 189.407 0 0 0-.002 8.048c.015.801-.181 1.044-1.012 1.033-3.576-.048-7.154.002-10.731-.038-.757-.008-.979.186-.973.961.039 4.121.036 8.243.001 12.364-.005.733.22.915.926.908 3.539-.033 7.077.011 10.616-.035.832-.012 1.033.241 1.02 1.044a247.479 247.479 0 0 0-.001 8.398c.013.737-.212.9-.915.898-7.194-.024-14.387-.032-21.58.007-.876.005-1.078-.21-1.075-1.079.033-9.447.021-18.896.021-28.345zM442.676 169.068c0-7.697-.016-15.396.021-23.094.004-.859-.183-1.136-1.078-1.102-1.94.074-3.889-.018-5.831.041-.826.027-.945-.316-.936-1.02.032-2.566.05-5.133-.009-7.698-.021-.872.224-1.11 1.1-1.102 4.742.044 9.486.021 14.229.021 3.732 0 7.466.018 11.198-.015.688-.006.934.136.922.885a283.189 283.189 0 0 0-.005 8.397c.008.648-.159.858-.832.845-2.098-.044-4.2.042-6.296-.042-.989-.039-1.204.253-1.202 1.216.033 15.046.023 30.092.023 45.138 0 .233-.032.473.006.698.127.766-.246.882-.921.874-3.109-.032-6.221-.049-9.33.009-.866.016-1.087-.194-1.082-1.074.039-7.659.023-15.318.023-22.977z"/><path fill="#FDFDFD" d="M137.675 164.027c0-9.408.021-18.814-.029-28.222-.005-1.058.305-1.301 1.288-1.298 8.085.017 16.17-.017 24.255-.018 2.336 0 3.93 1.312 5.13 3.146.995 1.521 1.481 3.23 1.481 5.065-.001 14.072.001 28.144-.002 42.216-.001 4.879-3.651 8.524-8.532 8.525-7.464.002-14.927-.017-22.391.022-.959.005-1.226-.246-1.222-1.218.036-9.404.022-18.811.022-28.218zm10.924-.524.194-.001c0 6.064.025 12.129-.025 18.191-.008.973.312 1.168 1.184 1.12 1.24-.068 2.487-.017 3.731-.019 2.043-.002 3.428-1.046 4.018-3.023.248-.829.281-1.679.281-2.537-.003-8.982-.002-17.963-.004-26.944 0-.389-.002-.779-.036-1.165-.247-2.864-2.193-4.669-5.059-4.692-1.05-.008-2.104.059-3.148-.02-.9-.065-1.167.197-1.16 1.135.047 5.985.024 11.971.024 17.955zM180.073 163.858c0-9.177.016-18.353-.023-27.528-.004-.934.257-1.143 1.15-1.128 3.265.054 6.532.042 9.798.006.729-.008.991.138.99.941-.024 18.507-.024 37.016 0 55.522.001.838-.251 1.027-1.045 1.016a294.678 294.678 0 0 0-9.68.007c-.956.019-1.22-.204-1.215-1.192.043-9.215.025-18.431.025-27.644z"/><path fill="#282320" d="M99.395 135.185c-.003 10.077-8.073 18.153-18.133 18.146-10.099-.006-18.228-8.141-18.221-18.232.007-10.066 8.153-18.13 18.306-18.121 10.06.008 18.051 8.068 18.048 18.207zm-33.584-3.051c2.752-1.46 4.652-1.35 6.073.354 1.283 1.537 1.301 3.713.044 5.254-1.451 1.779-3.351 1.896-6.157.375.062 6.58 8.075 13.066 15.978 12.936 8.657-.144 15.579-7.574 15.365-16.49-.208-8.656-7.611-15.561-16.407-15.304-7.34.214-15.121 6.94-14.896 12.875zM58.319 135.164c-.02 10.157-8.146 18.189-18.383 18.168-9.881-.02-18.047-8.27-18.029-18.215.019-10.123 8.182-18.162 18.421-18.139 9.942.022 18.009 8.176 17.991 18.186zm-2.683-2.883c-.379-5.107-6.009-13.15-15.757-13.029-8.682.107-15.815 7.414-15.671 16.104.148 8.906 7.593 15.961 16.566 15.697 7.234-.213 15.02-7.03 14.821-12.978-2.623 1.618-4.668 1.476-6.218-.433-1.222-1.506-1.135-3.789.199-5.248 1.577-1.725 3.672-1.764 6.06-.113z"/><path fill="#292526" d="M148.599 163.503c0-5.984.023-11.971-.023-17.955-.007-.938.259-1.2 1.16-1.135 1.044.078 2.098.012 3.148.02 2.865.023 4.812 1.828 5.059 4.692.033.386.036.776.036 1.165.002 8.981 0 17.962.004 26.944 0 .858-.033 1.708-.281 2.537-.589 1.978-1.975 3.021-4.018 3.023-1.244.002-2.491-.05-3.731.019-.872.048-1.192-.147-1.184-1.12.05-6.062.025-12.127.025-18.191l-.195.001zm3.002.206v15.05c0 1.075.406 1.393 1.493 1.186 1.249-.237 1.835-1.105 1.84-2.833.012-4.394.004-8.789.004-13.183 0-4.589.005-9.179-.003-13.768-.003-1.459-.688-2.342-1.899-2.519-1.152-.168-1.434.074-1.434 1.249-.002 4.941-.001 9.879-.001 14.818z"/><path fill="#F1BC17" d="M65.811 132.134c-.226-5.936 7.556-12.661 14.897-12.876 8.796-.257 16.198 6.647 16.407 15.304.214 8.916-6.708 16.347-15.365 16.49-7.903.131-15.916-6.355-15.978-12.936 2.806 1.521 4.706 1.404 6.157-.375 1.257-1.541 1.238-3.717-.044-5.254-1.421-1.702-3.322-1.813-6.074-.353zM55.636 132.281c-2.388-1.65-4.483-1.611-6.061.113-1.334 1.459-1.421 3.742-.199 5.248 1.55 1.908 3.596 2.051 6.218.433.199 5.947-7.587 12.765-14.821 12.978-8.973.264-16.417-6.791-16.566-15.697-.145-8.689 6.989-15.996 15.671-16.104 9.75-.122 15.38 7.921 15.758 13.029z"/></g><path fill="red" d="M391.039 78.98H175.891c-19.423 0-35.228-15.804-35.228-35.228s15.806-35.225 35.228-35.225h215.146c19.426 0 35.229 15.802 35.229 35.226S410.465 78.98 391.039 78.98zM175.891 16.861c-14.829 0-26.895 12.064-26.895 26.895 0 14.828 12.064 26.895 26.895 26.895h215.146c14.826 0 26.896-12.065 26.896-26.895s-12.068-26.895-26.896-26.895H175.891z"/><path fill="red" d="M203.523 60.09V27.575h-9.778V50.31l-14.424-22.735h-10.512V60.09h9.779V36.621l15.155 23.469h9.78zM219.415 60.09V38.088h-9.778V60.09h9.778zM219.415 33.442v-5.867h-9.778v5.867h9.778zM253.639 60.09V44.931c0-3.178-6.112-7.578-9.289-7.578h-2.935c-2.199 0-4.646 1.956-6.846 2.934v-2.199h-9.778V60.09h9.778V44.931c0-1.467 3.423-3.178 4.891-3.178 1.467 0 4.154 1.711 4.154 3.178v15.158l10.025.001zM335.459 60.847V45.69c0-3.179-6.109-7.578-9.293-7.578h-2.932c-2.201 0-4.646 1.956-6.848 2.933v-2.199h-9.777v22.002h9.777V45.69c0-1.466 3.424-3.179 4.891-3.179s4.154 1.713 4.154 3.179v15.157h10.028zM269.53 60.09V38.088h5.135v-2.934h-5.135v-4.645h-10.02v4.645h-5.135v2.934h5.135V60.09h10.02zM288.354 37.354c-7.823 0-14.422 5.378-14.422 11.979 0 6.846 6.6 12.223 14.422 12.223 6.846 0 12.469-3.911 13.936-9.045h-10.021v2.935c0 2.444-1.709 3.18-3.91 3.18s-3.668-.734-3.668-3.18v-6.111h18.092c-.003-6.602-6.359-11.981-14.429-11.981zm0 2.2c2.201 0 3.912 1.467 3.912 3.912v2.199h-7.578v-2.199c0-2.445 1.467-3.912 3.666-3.912zM384.68 37.354c-8.07 0-14.426 5.378-14.426 11.979 0 6.846 6.354 12.223 14.426 12.223 7.818 0 14.422-5.377 14.422-12.223-.004-6.6-6.604-11.979-14.422-11.979zm0 2.2c2.195 0 3.666 1.467 3.666 3.912v11.978c0 2.444-1.471 3.18-3.666 3.18-2.445 0-3.914-.734-3.914-3.18V43.466c-.002-2.445 1.467-3.912 3.914-3.912zM356.563 27.575v11.979s-2.936-2.2-6.848-2.2c-6.111 0-11.244 5.378-11.244 11.246 0 6.112 5.135 12.224 11.244 12.224 3.912 0 6.848-1.467 6.848-1.467v.731h9.779V27.575h-9.779zm-3.668 13.446c2.199 0 3.668 1.712 3.668 3.912v9.045c0 2.2-1.469 2.934-3.668 2.934-2.443 0-3.912-.732-3.912-2.934v-9.045c0-2.2 1.468-3.912 3.912-3.912zM400.321 37.744a5.042 5.042 0 0 1-5.035-5.035c0-2.959 2.213-5.28 5.035-5.28 2.73 0 5.037 2.417 5.037 5.28 0 2.681-2.35 5.035-5.037 5.035zm0-9.533c-2.426 0-4.252 1.934-4.252 4.5a4.26 4.26 0 0 0 4.252 4.254c2.23 0 4.256-2.028 4.256-4.254-.001-2.399-1.985-4.5-4.256-4.5zm.884 6.647-.863-1.515h-1.096v1.321h-.779v-4.546h2.104c.979 0 1.488.813 1.488 1.613 0 .615-.303 1.238-.885 1.492l.711 1.248-.68.387zm-1.959-2.294h1.32a.633.633 0 0 0 .521-.235.973.973 0 0 0 .188-.597c0-.311-.15-.832-.709-.832h-1.32v1.664z"/></svg>