<svg xmlns="http://www.w3.org/2000/svg" xmlns:xlink="http://www.w3.org/1999/xlink" xml:space="preserve" width="510" height="129.21"><defs><linearGradient id="m"><stop offset="0" style="stop-color:#bb000f;stop-opacity:1"/><stop offset=".021" style="stop-color:#fa0211;stop-opacity:1"/><stop offset=".811" style="stop-color:#e9010c;stop-opacity:1"/><stop offset=".979" style="stop-color:#d90209;stop-opacity:1"/><stop offset="1" style="stop-color:#c20b03;stop-opacity:1"/></linearGradient><linearGradient id="k"><stop offset="0" style="stop-color:#bb000f;stop-opacity:1"/><stop offset=".024" style="stop-color:#fa0211;stop-opacity:1"/><stop offset=".811" style="stop-color:#e9010c;stop-opacity:1"/><stop offset=".979" style="stop-color:#d90209;stop-opacity:1"/><stop offset="1" style="stop-color:#c20b03;stop-opacity:1"/></linearGradient><linearGradient id="l"><stop offset="0" style="stop-color:#bb000f;stop-opacity:1"/><stop offset=".037" style="stop-color:#fa0211;stop-opacity:1"/><stop offset=".811" style="stop-color:#e9010c;stop-opacity:1"/><stop offset=".979" style="stop-color:#d90209;stop-opacity:1"/><stop offset="1" style="stop-color:#c20b03;stop-opacity:1"/></linearGradient><linearGradient id="j"><stop offset="0" style="stop-color:#bb000f;stop-opacity:1"/><stop offset=".031" style="stop-color:#fa0211;stop-opacity:1"/><stop offset=".811" style="stop-color:#e9010c;stop-opacity:1"/><stop offset=".971" style="stop-color:#d90209;stop-opacity:1"/><stop offset="1" style="stop-color:#c20b03;stop-opacity:1"/></linearGradient><linearGradient id="i"><stop offset="0" style="stop-color:#bb000f;stop-opacity:1"/><stop offset=".018" style="stop-color:#fa0211;stop-opacity:1"/><stop offset=".811" style="stop-color:#e9010c;stop-opacity:1"/><stop offset=".979" style="stop-color:#d90209;stop-opacity:1"/><stop offset="1" style="stop-color:#c20b03;stop-opacity:1"/></linearGradient><linearGradient id="h"><stop offset="0" style="stop-color:#bb000f;stop-opacity:1"/><stop offset=".031" style="stop-color:#fa0211;stop-opacity:1"/><stop offset=".429" style="stop-color:#f1010e;stop-opacity:1"/><stop offset=".44" style="stop-color:#f1010e;stop-opacity:1"/><stop offset=".448" style="stop-color:#f0010d;stop-opacity:1"/><stop offset=".811" style="stop-color:#e9010c;stop-opacity:1"/><stop offset=".969" style="stop-color:#d90209;stop-opacity:1"/><stop offset="1" style="stop-color:#c20b03;stop-opacity:1"/></linearGradient><linearGradient id="g"><stop offset="0" style="stop-color:#bb000f;stop-opacity:1"/><stop offset=".027" style="stop-color:#fa0211;stop-opacity:1"/><stop offset=".811" style="stop-color:#e9010c;stop-opacity:1"/><stop offset=".979" style="stop-color:#d90209;stop-opacity:1"/><stop offset="1" style="stop-color:#c20b03;stop-opacity:1"/></linearGradient><linearGradient id="a"><stop offset="0" style="stop-color:#bb000f;stop-opacity:1"/><stop offset=".01" style="stop-color:#fa0211;stop-opacity:1"/><stop offset=".811" style="stop-color:#e9010c;stop-opacity:1"/><stop offset=".978" style="stop-color:#d90209;stop-opacity:1"/><stop offset="1" style="stop-color:#c20b03;stop-opacity:1"/></linearGradient><linearGradient id="f"><stop offset="0" style="stop-color:#bb000f;stop-opacity:1"/><stop offset=".029" style="stop-color:#fa0211;stop-opacity:1"/><stop offset=".811" style="stop-color:#e9010c;stop-opacity:1"/><stop offset=".978" style="stop-color:#d90209;stop-opacity:1"/><stop offset="1" style="stop-color:#c20b03;stop-opacity:1"/></linearGradient><linearGradient id="e"><stop offset="0" style="stop-color:#bb000f;stop-opacity:1"/><stop offset=".045" style="stop-color:#fa0211;stop-opacity:1"/><stop offset=".811" style="stop-color:#e9010c;stop-opacity:1"/><stop offset=".978" style="stop-color:#d90209;stop-opacity:1"/><stop offset="1" style="stop-color:#c20b03;stop-opacity:1"/></linearGradient><linearGradient id="d"><stop offset="0" style="stop-color:#a42402;stop-opacity:1"/><stop offset=".025" style="stop-color:#bb000f;stop-opacity:1"/><stop offset=".035" style="stop-color:#fa0211;stop-opacity:1"/><stop offset=".424" style="stop-color:#f1010e;stop-opacity:1"/><stop offset=".43" style="stop-color:#bb000f;stop-opacity:1"/><stop offset=".449" style="stop-color:#ef010c;stop-opacity:1"/><stop offset=".485" style="stop-color:#f1010e;stop-opacity:1"/><stop offset=".842" style="stop-color:#e7010b;stop-opacity:1"/><stop offset=".99" style="stop-color:#d50208;stop-opacity:1"/><stop offset="1" style="stop-color:#b51100;stop-opacity:1"/></linearGradient><linearGradient id="c"><stop offset="0" style="stop-color:#830505;stop-opacity:1"/><stop offset=".045" style="stop-color:red;stop-opacity:1"/><stop offset=".973" style="stop-color:red;stop-opacity:1"/><stop offset="1" style="stop-color:#cc0202;stop-opacity:1"/></linearGradient><linearGradient id="b"><stop offset="0" style="stop-color:#830505;stop-opacity:1"/><stop offset=".038" style="stop-color:red;stop-opacity:1"/><stop offset=".973" style="stop-color:red;stop-opacity:1"/><stop offset="1" style="stop-color:#cc0202;stop-opacity:1"/></linearGradient><linearGradient xlink:href="#a" id="u" x1="50.717" x2="50.971" y1="275.18" y2="300.467" gradientTransform="rotate(.944 65894.516 -4106.195) scale(3.98404)" gradientUnits="userSpaceOnUse"/><linearGradient xlink:href="#b" id="t" x1="34.01" x2="35.122" y1="274.683" y2="300.816" gradientUnits="userSpaceOnUse"/><linearGradient xlink:href="#d" id="v" x1="52.448" x2="56.972" y1="13.337" y2="116.762" gradientUnits="userSpaceOnUse"/><linearGradient xlink:href="#f" id="w" x1="62.159" x2="64.282" y1="274.587" y2="300.336" gradientTransform="rotate(.944 65894.516 -4106.195) scale(3.98404)" gradientUnits="userSpaceOnUse"/><linearGradient xlink:href="#h" id="r" x1="94.803" x2="94.431" y1="274.236" y2="299.849" gradientTransform="rotate(.944 65894.516 -4106.195) scale(3.98404)" gradientUnits="userSpaceOnUse"/><linearGradient xlink:href="#i" id="s" x1="78.907" x2="79.617" y1="274.224" y2="300.641" gradientTransform="rotate(.944 65894.516 -4106.195) scale(3.98404)" gradientUnits="userSpaceOnUse"/><linearGradient xlink:href="#j" id="q" x1="107.266" x2="109.258" y1="274.148" y2="299.711" gradientTransform="rotate(.944 65894.516 -4106.195) scale(3.98404)" gradientUnits="userSpaceOnUse"/><linearGradient xlink:href="#k" id="o" x1="129.398" x2="132.593" y1="273.898" y2="299.173" gradientTransform="rotate(.944 65894.516 -4106.195) scale(3.98404)" gradientUnits="userSpaceOnUse"/><linearGradient xlink:href="#l" id="n" x1="145.737" x2="142.622" y1="273.603" y2="299.185" gradientTransform="rotate(.944 65894.516 -4106.195) scale(3.98404)" gradientUnits="userSpaceOnUse"/><linearGradient xlink:href="#m" id="p" x1="118.029" x2="117.334" y1="274.107" y2="299.557" gradientTransform="rotate(.944 65894.516 -4106.195) scale(3.98404)" gradientUnits="userSpaceOnUse"/></defs><path d="m85.921-114.04 7.004-34.23c1.354-2.6 3.317-3.906 5.887-3.916l13.69.226c2.726.097 4.723 1.468 5.991 4.112l5.765 33.808" style="font-style:normal;font-variant:normal;font-weight:400;font-stretch:normal;font-size:medium;line-height:25.27969551px;font-family:Jumpman;-inkscape-font-specification:Jumpman;letter-spacing:0;word-spacing:0;fill:none;fill-opacity:1;stroke:none;stroke-width:4.02861118px;stroke-linecap:butt;stroke-linejoin:miter;stroke-opacity:1"/><g style="fill:#dfdfdf;fill-opacity:1"><path d="M160.984 273.771c-2.452 0-4.658.855-6.406 2.499-1.747 1.642-2.685 3.754-2.685 6.1 0 2.344.938 4.458 2.685 6.1 1.748 1.644 3.954 2.497 6.406 2.497.55 0 .86.127 1.252.52.392.391.52.702.52 1.251 0 .55-.128.86-.52 1.252s-.702.52-1.252.52h-5.925c-.535 0-1.134.147-1.582.595-.449.449-.596 1.048-.596 1.583v2.962c0 .535.149 1.134.596 1.582.447.45 1.046.598 1.582.598h5.925c2.453 0 4.657-.855 6.405-2.498 1.746-1.642 2.687-3.754 2.687-6.1 0-2.345-.94-4.458-2.687-6.101-1.748-1.643-3.953-2.496-6.405-2.496-.549 0-.86-.128-1.252-.52s-.52-.702-.52-1.252c0-.549.128-.86.52-1.252s.703-.52 1.252-.52h5.924c.535 0 1.134-.148 1.582-.595.449-.447.598-1.046.598-1.582v-2.963c0-.536-.15-1.134-.598-1.582-.447-.447-1.045-.598-1.582-.598z" style="font-style:normal;font-variant:normal;font-weight:400;font-stretch:normal;font-size:medium;line-height:25.27969551px;font-family:Jumpman;-inkscape-font-specification:Jumpman;letter-spacing:0;word-spacing:0;fill:#dfdfdf;fill-opacity:1;stroke:none;stroke-width:1.01118779px;stroke-linecap:butt;stroke-linejoin:miter;stroke-opacity:1" transform="rotate(6.331 10327.682 -1002.83) scale(3.98404)"/><path d="M160.984 295.7q1.224 0 2.093-.868.87-.87.87-2.094 0-1.224-.87-2.093-.869-.87-2.093-.87-3.279 0-5.59-2.172-2.31-2.172-2.31-5.234 0-3.06 2.31-5.233 2.311-2.173 5.59-2.173h5.925q.987 0 .987.988v2.962q0 .988-.987.988h-5.925q-1.225 0-2.094.869-.869.869-.869 2.093 0 1.225.87 2.094.868.869 2.093.869 3.278 0 5.59 2.172 2.31 2.173 2.31 5.234t-2.31 5.233q-2.312 2.173-5.59 2.173h-5.925q-.987 0-.987-.988v-2.962q0-.987.987-.987z" style="font-style:normal;font-variant:normal;font-weight:400;font-stretch:normal;font-size:medium;line-height:25.27969551px;font-family:Jumpman;-inkscape-font-specification:Jumpman;letter-spacing:0;word-spacing:0;fill:#dfdfdf;fill-opacity:1;stroke:none;stroke-width:1.01118779px;stroke-linecap:butt;stroke-linejoin:miter;stroke-opacity:1" transform="rotate(6.331 10327.682 -1002.83) scale(3.98404)"/></g><g style="fill:#dfdfdf;fill-opacity:1"><path d="M136.297 273.93c-.507 0-1.061.14-1.47.55-.41.41-.552.964-.552 1.471v23.7c0 .506.141 1.06.551 1.47.41.41.964.55 1.47.55h13.825c.507 0 1.06-.14 1.47-.55.41-.41.552-.964.552-1.47v-2.963c0-.507-.14-1.064-.551-1.473-.41-.41-.965-.547-1.47-.547h-8.843v-3.86h6.867c.506 0 1.06-.137 1.471-.546.411-.41.551-.966.551-1.473v-1.977c0-.506-.14-1.063-.55-1.472-.411-.41-.966-.547-1.472-.547h-6.867v-3.86h8.842c.506 0 1.06-.137 1.47-.546.412-.41.552-.966.552-1.473v-2.963c0-.507-.141-1.06-.551-1.47-.41-.41-.964-.551-1.47-.551z" style="font-style:normal;font-variant:normal;font-weight:400;font-stretch:normal;font-size:medium;line-height:25.27969551px;font-family:Jumpman;-inkscape-font-specification:Jumpman;letter-spacing:0;word-spacing:0;fill:#dfdfdf;fill-opacity:1;stroke:none;stroke-width:1.01118779px;stroke-linecap:butt;stroke-linejoin:miter;stroke-opacity:1" transform="rotate(-5.863 -10058.272 2114.186) scale(3.98404)"/><path d="M140.247 289.776v5.925h9.875q.987 0 .987.987v2.962q0 .988-.987.988h-13.825q-.988 0-.988-.988v-23.7q0-.987.988-.987h13.825q.987 0 .987.988v2.962q0 .988-.987.988h-9.875v5.925h7.9q.987 0 .987.987v1.975q0 .988-.987.988z" style="font-style:normal;font-variant:normal;font-weight:400;font-stretch:normal;font-size:medium;line-height:25.27969551px;font-family:Jumpman;-inkscape-font-specification:Jumpman;letter-spacing:0;word-spacing:0;fill:#dfdfdf;fill-opacity:1;stroke:none;stroke-width:1.01118779px;stroke-linecap:butt;stroke-linejoin:miter;stroke-opacity:1" transform="rotate(-5.863 -10058.272 2114.186) scale(3.98404)"/></g><g style="fill:#845f23;fill-opacity:1"><path d="M160.984 273.771c-2.452 0-4.658.855-6.406 2.499-1.747 1.642-2.685 3.754-2.685 6.1 0 2.344.938 4.458 2.685 6.1 1.748 1.644 3.954 2.497 6.406 2.497.55 0 .86.127 1.252.52.392.391.52.702.52 1.251 0 .55-.128.86-.52 1.252s-.702.52-1.252.52h-5.925c-.535 0-1.134.147-1.582.595-.449.449-.596 1.048-.596 1.583v2.962c0 .535.149 1.134.596 1.582.447.45 1.046.598 1.582.598h5.925c2.453 0 4.657-.855 6.405-2.498 1.746-1.642 2.687-3.754 2.687-6.1 0-2.345-.94-4.458-2.687-6.101-1.748-1.643-3.953-2.496-6.405-2.496-.549 0-.86-.128-1.252-.52s-.52-.702-.52-1.252c0-.549.128-.86.52-1.252s.703-.52 1.252-.52h5.924c.535 0 1.134-.148 1.582-.595.449-.447.598-1.046.598-1.582v-2.963c0-.536-.15-1.134-.598-1.582-.447-.447-1.045-.598-1.582-.598z" style="font-style:normal;font-variant:normal;font-weight:400;font-stretch:normal;font-size:medium;line-height:25.27969551px;font-family:Jumpman;-inkscape-font-specification:Jumpman;letter-spacing:0;word-spacing:0;fill:#845f23;fill-opacity:1;stroke:none;stroke-width:1.01118779px;stroke-linecap:butt;stroke-linejoin:miter;stroke-opacity:1" transform="rotate(6.331 10341.56 -1018.333) scale(3.98404)"/><path d="M160.984 295.7q1.224 0 2.093-.868.87-.87.87-2.094 0-1.224-.87-2.093-.869-.87-2.093-.87-3.279 0-5.59-2.172-2.31-2.172-2.31-5.234 0-3.06 2.31-5.233 2.311-2.173 5.59-2.173h5.925q.987 0 .987.988v2.962q0 .988-.987.988h-5.925q-1.225 0-2.094.869-.869.869-.869 2.093 0 1.225.87 2.094.868.869 2.093.869 3.278 0 5.59 2.172 2.31 2.173 2.31 5.234t-2.31 5.233q-2.312 2.173-5.59 2.173h-5.925q-.987 0-.987-.988v-2.962q0-.987.987-.987z" style="font-style:normal;font-variant:normal;font-weight:400;font-stretch:normal;font-size:medium;line-height:25.27969551px;font-family:Jumpman;-inkscape-font-specification:Jumpman;letter-spacing:0;word-spacing:0;fill:#845f23;fill-opacity:1;stroke:none;stroke-width:1.01118779px;stroke-linecap:butt;stroke-linejoin:miter;stroke-opacity:1" transform="rotate(6.331 10341.56 -1018.333) scale(3.98404)"/></g><g style="fill:#845f23;fill-opacity:1"><path d="M136.297 273.93c-.507 0-1.061.14-1.47.55-.41.41-.552.964-.552 1.471v23.7c0 .506.141 1.06.551 1.47.41.41.964.55 1.47.55h13.825c.507 0 1.06-.14 1.47-.55.41-.41.552-.964.552-1.47v-2.963c0-.507-.14-1.064-.551-1.473-.41-.41-.965-.547-1.47-.547h-8.843v-3.86h6.867c.506 0 1.06-.137 1.471-.546.411-.41.551-.966.551-1.473v-1.977c0-.506-.14-1.063-.55-1.472-.411-.41-.966-.547-1.472-.547h-6.867v-3.86h8.842c.506 0 1.06-.137 1.47-.546.412-.41.552-.966.552-1.473v-2.963c0-.507-.141-1.06-.551-1.47-.41-.41-.964-.551-1.47-.551z" style="font-style:normal;font-variant:normal;font-weight:400;font-stretch:normal;font-size:medium;line-height:25.27969551px;font-family:Jumpman;-inkscape-font-specification:Jumpman;letter-spacing:0;word-spacing:0;fill:#845f23;fill-opacity:1;stroke:none;stroke-width:1.01118779px;stroke-linecap:butt;stroke-linejoin:miter;stroke-opacity:1" transform="rotate(-5.863 -10074.95 2129.24) scale(3.98404)"/><path d="M140.247 289.776v5.925h9.875q.987 0 .987.987v2.962q0 .988-.987.988h-13.825q-.988 0-.988-.988v-23.7q0-.987.988-.987h13.825q.987 0 .987.988v2.962q0 .988-.987.988h-9.875v5.925h7.9q.987 0 .987.987v1.975q0 .988-.987.988z" style="font-style:normal;font-variant:normal;font-weight:400;font-stretch:normal;font-size:medium;line-height:25.27969551px;font-family:Jumpman;-inkscape-font-specification:Jumpman;letter-spacing:0;word-spacing:0;fill:#845f23;fill-opacity:1;stroke:none;stroke-width:1.01118779px;stroke-linecap:butt;stroke-linejoin:miter;stroke-opacity:1" transform="rotate(-5.863 -10074.95 2129.24) scale(3.98404)"/></g><g style="fill:#dfdfdf;fill-opacity:1"><path d="M118.521 273.617c-.563 0-1.208.158-1.693.645-.484.486-.639 1.128-.639 1.69v2.962c0 .562.156 1.206.641 1.691.485.486 1.13.641 1.691.641h3.098v18.404c0 .563.155 1.208.64 1.694.486.485 1.131.64 1.694.64h2.963c.564 0 1.209-.158 1.693-.644.485-.486.64-1.128.64-1.69v-18.404h3.099c.562 0 1.206-.155 1.691-.64.485-.486.64-1.13.64-1.692v-2.963c0-.56-.154-1.203-.638-1.69-.485-.486-1.13-.644-1.693-.644z" style="font-style:normal;font-variant:normal;font-weight:400;font-stretch:normal;font-size:medium;line-height:25.27969551px;font-family:Jumpman;-inkscape-font-specification:Jumpman;letter-spacing:0;word-spacing:0;fill:#dfdfdf;fill-opacity:1;stroke:none;stroke-width:1.01118779px;stroke-linecap:butt;stroke-linejoin:miter;stroke-opacity:1" transform="matrix(3.8958 .147 -.14385 3.98133 -84.545 -1099.727)"/><path d="M127.903 299.65q0 .988-.987.988h-2.963q-.987 0-.987-.988V279.9h-4.444q-.988 0-.988-.987v-2.962q0-.988.988-.988h13.825q.987 0 .987.988v2.962q0 .988-.987.988h-4.444z" style="font-style:normal;font-variant:normal;font-weight:400;font-stretch:normal;font-size:medium;line-height:25.27969551px;font-family:Jumpman;-inkscape-font-specification:Jumpman;letter-spacing:0;word-spacing:0;fill:#dfdfdf;fill-opacity:1;stroke:none;stroke-width:1.01118779px;stroke-linecap:butt;stroke-linejoin:miter;stroke-opacity:1" transform="matrix(3.8958 .147 -.14385 3.98133 -84.545 -1099.727)"/></g><g style="fill:#dfdfdf;fill-opacity:1"><path d="M111.57 273.598c-.565 0-1.217.156-1.707.646s-.646 1.142-.646 1.707v23.7c0 .565.157 1.217.646 1.706.49.49 1.142.647 1.707.647h2.983c.565 0 1.219-.163 1.703-.658.481-.493.629-1.138.629-1.696v-23.699c0-.564-.156-1.215-.645-1.705s-1.14-.648-1.707-.648z" style="font-style:normal;font-variant:normal;font-weight:400;font-stretch:normal;font-size:medium;line-height:25.27969551px;font-family:Jumpman;-inkscape-font-specification:Jumpman;letter-spacing:0;word-spacing:0;fill:#dfdfdf;fill-opacity:1;stroke:none;stroke-width:1.01118779px;stroke-linecap:butt;stroke-linejoin:miter;stroke-opacity:1" transform="matrix(4.07902 -.18867 .19339 3.97957 -190.808 -1059.037)"/><path d="M115.52 299.65q0 .988-.968.988h-2.982q-.987 0-.987-.988v-23.7q0-.987.987-.987h2.962q.988 0 .988.988z" style="font-style:normal;font-variant:normal;font-weight:400;font-stretch:normal;font-size:medium;line-height:25.27969551px;font-family:Jumpman;-inkscape-font-specification:Jumpman;letter-spacing:0;word-spacing:0;fill:#dfdfdf;fill-opacity:1;stroke:none;stroke-width:1.01118779px;stroke-linecap:butt;stroke-linejoin:miter;stroke-opacity:1" transform="matrix(4.07902 -.18867 .19339 3.97957 -190.808 -1059.037)"/></g><g style="fill:#845f23;fill-opacity:1"><path d="M118.521 273.617c-.563 0-1.208.158-1.693.645-.484.486-.639 1.128-.639 1.69v2.962c0 .562.156 1.206.641 1.691.485.486 1.122.447 1.684.45h3.098l.007 18.595c0 .563.155 1.208.64 1.694.486.485 1.131.64 1.694.64h2.963c.564 0 1.209-.158 1.693-.644.485-.486.639-1.128.639-1.69v-18.404h3.1c.562 0 1.206-.155 1.691-.64.485-.486.64-1.13.64-1.692v-2.963c0-.56-.154-1.203-.638-1.69-.485-.486-1.13-.644-1.693-.644z" style="font-style:normal;font-variant:normal;font-weight:400;font-stretch:normal;font-size:medium;line-height:25.27969551px;font-family:Jumpman;-inkscape-font-specification:Jumpman;letter-spacing:0;word-spacing:0;fill:#845f23;fill-opacity:1;stroke:none;stroke-width:1.01118779px;stroke-linecap:butt;stroke-linejoin:miter;stroke-opacity:1" transform="matrix(3.8958 .14473 -.14385 3.9197 -86.545 -1082.2)"/><path d="M127.903 299.65q0 .988-.987.988h-2.963q-.987 0-.987-.988V279.9h-4.444q-.988 0-.988-.987v-2.962q0-.988.988-.988h13.825q.987 0 .987.988v2.962q0 .988-.987.988h-4.444z" style="font-style:normal;font-variant:normal;font-weight:400;font-stretch:normal;font-size:medium;line-height:25.27969551px;font-family:Jumpman;-inkscape-font-specification:Jumpman;letter-spacing:0;word-spacing:0;fill:#845f23;fill-opacity:1;stroke:none;stroke-width:1.01118779px;stroke-linecap:butt;stroke-linejoin:miter;stroke-opacity:1" transform="matrix(3.8958 .14473 -.14385 3.9197 -86.545 -1082.2)"/></g><path d="M288.623 10.793c-2.237-.066-4.848.486-6.85 2.4-2.001 1.912-2.692 4.508-2.757 6.763l-2.716 93.353c-.066 2.255.473 4.888 2.359 6.915 1.887 2.03 4.461 2.736 6.699 2.802l11.547.343c2.24.067 4.841-.492 6.843-2.4 2.001-1.907 2.706-4.499 2.772-6.762l.97-33.351 6.052.18c1.994.059 2.841.443 4.225 1.927 1.384 1.483 1.714 2.36 1.656 4.376a6.451 6.451 0 0 1-.114 1.037.763.77 0 0 0 0 .008c-.108.565-.007 1.135.064 1.703a.763.77 0 0 0-.037.215l-.706 24.265c-.066 2.263.486 4.893 2.374 6.916 1.887 2.023 4.452 2.735 6.691 2.802l11.54.342c2.24.067 4.841-.491 6.843-2.399 2.001-1.907 2.706-4.5 2.771-6.763l.736-25.28c.236-8.12-2.715-15.441-7.675-21.643 5.312-5.896 8.684-13.029 8.92-21.149.275-9.462-3.24-18.155-10.008-24.976-6.77-6.823-15.509-10.533-25.261-10.823zm19.999 31.164 6.051.18c1.995.06 2.842.444 4.226 1.928 1.384 1.483 1.714 2.36 1.655 4.376-.058 2.016-.439 2.872-1.907 4.271-1.467 1.399-2.335 1.732-4.33 1.673l-6.052-.18z" style="font-style:normal;font-variant:normal;font-weight:400;font-stretch:normal;font-size:medium;line-height:25.27969551px;font-family:Jumpman;-inkscape-font-specification:Jumpman;letter-spacing:0;word-spacing:0;fill:#dfdfdf;fill-opacity:1;stroke:none;stroke-width:3.9637084px;stroke-linecap:butt;stroke-linejoin:miter;stroke-opacity:1" transform="translate(-30.935 -2.68)"/><g style="fill:#845f23;fill-opacity:1"><path d="M111.57 273.598c-.565 0-1.217.156-1.707.646s-.646 1.142-.646 1.707v23.7c0 .565.157 1.217.646 1.706.49.49 1.142.647 1.707.647h2.983c.565 0 1.219-.163 1.703-.658.481-.493.629-1.138.629-1.696v-23.699c0-.564-.156-1.215-.645-1.705s-1.14-.648-1.707-.648z" style="font-style:normal;font-variant:normal;font-weight:400;font-stretch:normal;font-size:medium;line-height:25.27969551px;font-family:Jumpman;-inkscape-font-specification:Jumpman;letter-spacing:0;word-spacing:0;fill:#845f23;fill-opacity:1;stroke:none;stroke-width:1.01118779px;stroke-linecap:butt;stroke-linejoin:miter;stroke-opacity:1" transform="rotate(-2.715 -22472.761 3252.976) scale(3.98404)"/><path d="M115.52 299.65q0 .988-.968.988h-2.982q-.987 0-.987-.988v-23.7q0-.987.987-.987h2.962q.988 0 .988.988z" style="font-style:normal;font-variant:normal;font-weight:400;font-stretch:normal;font-size:medium;line-height:25.27969551px;font-family:Jumpman;-inkscape-font-specification:Jumpman;letter-spacing:0;word-spacing:0;fill:#845f23;fill-opacity:1;stroke:none;stroke-width:1.01118779px;stroke-linecap:butt;stroke-linejoin:miter;stroke-opacity:1" transform="rotate(-2.715 -22472.761 3252.976) scale(3.98404)"/></g><path d="M287.06 9.48c-2.237-.066-4.848.486-6.85 2.4-2 1.912-2.691 4.509-2.757 6.763l-2.716 93.353c-.065 2.255.473 4.888 2.36 6.916 1.887 2.03 4.46 2.735 6.698 2.802l11.548.343c2.239.066 4.84-.492 6.842-2.4 2.002-1.907 2.706-4.5 2.772-6.763l.97-33.351 6.052.18c1.995.06 2.842.444 4.226 1.927 1.383 1.484 1.714 2.361 1.655 4.377l-.087 2.962-.706 24.265c-.066 2.264.487 4.893 2.374 6.916 1.887 2.023 4.452 2.735 6.692 2.802l11.54.343c2.239.066 4.84-.492 6.842-2.4 2.002-1.907 2.706-4.5 2.772-6.762l.735-25.281c.237-8.12-2.714-15.44-7.674-21.642 5.312-5.896 8.683-13.03 8.92-21.15.275-9.462-3.24-18.154-10.009-24.976-6.77-6.823-15.508-10.532-25.26-10.822zm20 31.165 6.05.18c1.995.059 2.843.444 4.226 1.927 1.384 1.483 1.714 2.36 1.656 4.377-.059 2.016-.44 2.872-1.907 4.27-1.468 1.4-2.336 1.733-4.33 1.674l-6.052-.18z" style="font-style:normal;font-variant:normal;font-weight:400;font-stretch:normal;font-size:medium;line-height:25.27969551px;font-family:Jumpman;-inkscape-font-specification:Jumpman;letter-spacing:0;word-spacing:0;fill:#845f23;fill-opacity:1;stroke:none;stroke-width:3.9637084px;stroke-linecap:butt;stroke-linejoin:miter;stroke-opacity:1" transform="translate(-30.935 -2.68)"/><path d="M144.454 16.149c-1.853.192-3.77 1.796-4.427 3.36-.658 1.562-.683 3.004-.583 4.597a3.691 3.691 0 0 0 .105.672l23.618 93.115a3.691 3.691 0 0 0 .388.95c1.953 3.358 5.594 5.635 9.405 5.472a3.691 3.691 0 0 0 .078-.005l13.668-.863a3.691 3.691 0 0 0 .07-.004c3.888-.32 7.346-2.997 8.883-6.627a3.691 3.691 0 0 0 .265-.991l11.716-95.347a3.691 3.691 0 0 0 .02-.68c-.107-1.693-.425-3.338-1.562-4.852-1.138-1.514-3.297-2.428-5.077-2.37a3.691 3.691 0 0 0-.11.008l-15.08.952c-1.886.12-3.419 1.196-4.436 2.354-1.018 1.158-1.735 2.491-2.402 4.066a3.691 3.691 0 0 0-.266.976l-3.45 27.234-6.996-26.59a3.691 3.691 0 0 0-.405-.973c-.882-1.462-1.77-2.671-2.906-3.675-1.137-1.005-2.748-1.9-4.658-1.78l-15.71.992a3.691 3.691 0 0 0-.148.01z" style="font-style:normal;font-variant:normal;font-weight:400;font-stretch:normal;font-size:medium;line-height:25.27969551px;font-family:Jumpman;-inkscape-font-specification:Jumpman;letter-spacing:0;word-spacing:0;fill:#dfdfdf;fill-opacity:1;stroke:#dfdfdf;stroke-width:2;stroke-linecap:butt;stroke-linejoin:miter;stroke-miterlimit:4;stroke-dasharray:none;stroke-opacity:1" transform="translate(-30.935 -2.68)"/><path d="M238.81 9.252c-13.761 0-26.014 6.34-35.367 17.843-9.34 11.438-14.03 25.528-14.03 41.389 0 15.868 4.688 29.978 14.03 41.466l.016.016c9.357 11.45 21.601 17.742 35.35 17.742 13.75 0 25.987-6.293 35.343-17.742l.015-.016c9.342-11.488 14.03-25.598 14.03-41.466 0-15.87-4.695-29.964-14.045-41.405-9.35-11.49-21.59-17.827-35.343-17.827Zm-.009 39.584 2.521 7.766c.794 2.436 3.258 4.224 5.82 4.225h5.806l-4.373 3.182c-2.077 1.513-.804 4.158 0 6.598l.933 9.829-6.746-5.696c-2.187-1.849-5.719-1.849-7.906 0l-6.809 5.743 3.633-12.239c-.024-5.278-.569-2.727-2.66-4.242l-4.389-3.175h5.836c2.563-.001 5.028-1.789 5.82-4.225z" style="font-style:normal;font-variant:normal;font-weight:400;font-stretch:normal;font-size:medium;line-height:25.27969551px;font-family:Jumpman;-inkscape-font-specification:Jumpman;letter-spacing:0;word-spacing:0;fill:#dfdfdf;fill-opacity:1;stroke:none;stroke-width:4.02861118px;stroke-linecap:butt;stroke-linejoin:miter;stroke-opacity:1" transform="translate(-30.935 -2.68)"/><path d="M238.81 7.127c-13.761 0-26.014 6.34-35.367 17.843-9.34 11.438-14.03 25.528-14.03 41.389 0 15.868 4.688 29.978 14.03 41.466l.016.016c9.357 11.45 21.601 17.742 35.35 17.742 13.75 0 25.987-6.293 35.343-17.742l.015-.016c9.342-11.488 14.03-25.598 14.03-41.466 0-15.87-4.695-29.964-14.045-41.405-9.35-11.49-21.59-17.827-35.343-17.827Zm-.009 39.584 2.521 7.766c.794 2.436 3.258 4.224 5.82 4.225h5.806l-4.373 3.182c-2.077 1.513-1.953 4.997-1.15 7.438l6.193 12.657-10.856-9.364c-2.187-1.849-5.498-.39-7.685 1.458l-7.206 5.345 3.809-11.174c.816-2.45-.569-4.852-2.66-6.367l-4.389-3.175h5.836c2.563-.001 5.028-1.789 5.82-4.225z" style="font-style:normal;font-variant:normal;font-weight:400;font-stretch:normal;font-size:medium;line-height:25.27969551px;font-family:Jumpman;-inkscape-font-specification:Jumpman;letter-spacing:0;word-spacing:0;fill:#dfdfdf;fill-opacity:1;stroke:none;stroke-width:4.02861118px;stroke-linecap:butt;stroke-linejoin:miter;stroke-opacity:1" transform="translate(-30.935 -2.68)"/><path d="M142.933 14.149c-1.854.192-3.77 1.796-4.427 3.36-.658 1.562-.684 3.004-.583 4.597a3.691 3.691 0 0 0 .105.672l23.618 93.115a3.691 3.691 0 0 0 .387.95c1.953 3.358 5.594 5.635 9.406 5.472a3.691 3.691 0 0 0 .078-.005l13.668-.863a3.691 3.691 0 0 0 .07-.004c3.888-.32 7.346-2.997 8.883-6.627a3.691 3.691 0 0 0 .264-.991l11.717-95.347a3.691 3.691 0 0 0 .02-.68c-.108-1.693-.425-3.338-1.562-4.852-1.138-1.514-3.298-2.428-5.078-2.37a3.691 3.691 0 0 0-.108.008l-15.082.952c-1.885.12-3.418 1.196-4.435 2.354-1.018 1.158-1.736 2.491-2.402 4.066a3.691 3.691 0 0 0-.266.976l-3.45 27.234-6.996-26.59a3.691 3.691 0 0 0-.405-.973c-.882-1.462-1.77-2.671-2.906-3.675-1.137-1.005-2.748-1.9-4.658-1.78l-15.71.992a3.691 3.691 0 0 0-.148.01z" style="font-style:normal;font-variant:normal;font-weight:400;font-stretch:normal;font-size:medium;line-height:25.27969551px;font-family:Jumpman;-inkscape-font-specification:Jumpman;letter-spacing:0;word-spacing:0;fill:#845f23;fill-opacity:1;stroke:#845f23;stroke-width:2;stroke-linecap:butt;stroke-linejoin:miter;stroke-miterlimit:4;stroke-dasharray:none;stroke-opacity:1" transform="translate(-30.935 -2.68)"/><path d="M238.81 7.127c-13.761 0-26.014 6.34-35.367 17.843-9.34 11.438-14.03 25.528-14.03 41.389 0 15.868 4.688 29.978 14.03 41.466l.016.016c9.357 11.45 21.601 17.742 35.35 17.742 13.75 0 25.987-6.293 35.343-17.742l.015-.016c9.342-11.488 14.03-25.598 14.03-41.466 0-15.87-4.695-29.964-14.045-41.405-9.35-11.49-21.59-17.827-35.343-17.827Zm-.009 39.584 2.521 7.766c.794 2.436 3.258 4.224 5.82 4.225h5.806l-4.373 3.182c-2.077 1.513-3.013 4.423-2.21 6.864l3.674 10.8-7.498-5.298c-2.187-1.849-4.658-2.114-6.845-.265l-7.825 5.433 3.367-10.647c.816-2.45-.127-5.38-2.218-6.894l-4.389-3.175h5.836c2.563-.001 5.028-1.789 5.82-4.225z" style="font-style:normal;font-variant:normal;font-weight:400;font-stretch:normal;font-size:medium;line-height:25.27969551px;font-family:Jumpman;-inkscape-font-specification:Jumpman;letter-spacing:0;word-spacing:0;fill:#845f23;fill-opacity:1;stroke:none;stroke-width:4.02861118px;stroke-linecap:butt;stroke-linejoin:miter;stroke-opacity:1" transform="translate(-30.935 -2.68)"/><path d="M116.93 13.383c-3.855.015-7.442 2.5-9.25 5.973a3.81 3.81 0 0 0-.351.998l-19.254 94.114a3.81 3.81 0 0 0-.082.7c-.027 1.629.062 3.09.818 4.667.756 1.576 2.907 3.145 4.835 3.177l15.732.259c1.955.032 3.551-.956 4.656-2.025 1.105-1.07 1.938-2.334 2.756-3.846a3.81 3.81 0 0 0 .375-1.005l.193-.869 9.873.163.165.874a3.81 3.81 0 0 0 .31.962c.745 1.552 1.533 2.866 2.62 3.99 1.087 1.122 2.697 2.145 4.626 2.176l15.101.25c1.83.03 4.07-1.004 5.172-2.616 1.102-1.612 1.338-3.297 1.367-5.029a3.81 3.81 0 0 0-.059-.7l-16.146-94.698a3.81 3.81 0 0 0-.318-1.01c-1.721-3.588-5.36-6.137-9.298-6.277a3.81 3.81 0 0 0-.07-.001l-13.693-.226a3.81 3.81 0 0 0-.078 0z" style="font-style:normal;font-variant:normal;font-weight:400;font-stretch:normal;font-size:medium;line-height:25.27969551px;font-family:Jumpman;-inkscape-font-specification:Jumpman;letter-spacing:0;word-spacing:0;fill:#dfdfdf;fill-opacity:1;stroke:#dfdfdf;stroke-width:2;stroke-linecap:butt;stroke-linejoin:miter;stroke-miterlimit:4;stroke-dasharray:none;stroke-opacity:1" transform="translate(-30.935 -2.68)"/><path d="M115.409 11.463c-3.855.015-7.442 2.5-9.25 5.972a3.81 3.81 0 0 0-.351.999l-19.255 94.114a3.81 3.81 0 0 0-.081.7c-.027 1.629.062 3.09.818 4.666.756 1.577 2.906 3.146 4.835 3.177l15.732.26c1.955.032 3.551-.956 4.656-2.025 1.105-1.07 1.938-2.335 2.756-3.846a3.81 3.81 0 0 0 .374-1.006l.194-.868 9.873.162.164.875a3.81 3.81 0 0 0 .311.962c.745 1.552 1.533 2.866 2.62 3.989 1.086 1.123 2.697 2.146 4.625 2.177l15.102.249c1.83.03 4.069-1.003 5.172-2.615 1.102-1.612 1.338-3.297 1.366-5.029a3.81 3.81 0 0 0-.058-.701l-16.146-94.697a3.81 3.81 0 0 0-.318-1.01c-1.721-3.589-5.361-6.137-9.298-6.277a3.81 3.81 0 0 0-.07-.001l-13.693-.226a3.81 3.81 0 0 0-.078-.001z" style="font-style:normal;font-variant:normal;font-weight:400;font-stretch:normal;font-size:medium;line-height:25.27969551px;font-family:Jumpman;-inkscape-font-specification:Jumpman;letter-spacing:0;word-spacing:0;fill:#845f23;fill-opacity:1;stroke:#845f23;stroke-width:2;stroke-linecap:butt;stroke-linejoin:miter;stroke-miterlimit:4;stroke-dasharray:none;stroke-opacity:1" transform="translate(-30.935 -2.68)"/><g style="opacity:1;vector-effect:none;fill:none;fill-opacity:1;stroke:#fcf1b3;stroke-width:.12550078;stroke-linecap:butt;stroke-linejoin:miter;stroke-miterlimit:4;stroke-dasharray:none;stroke-dashoffset:0;stroke-opacity:1"><path d="M93.795 274c-.491 0-1.03.136-1.422.53-.392.392-.527.93-.527 1.421v23.7c0 .49.135 1.029.527 1.421.392.393.93.53 1.422.53h2.963c.491 0 1.03-.138 1.422-.53.392-.392.529-.93.529-1.422v-8.912h1.998c.59 0 .991.167 1.412.588.421.421.588.822.588 1.412v6.912c0 .492.137 1.03.53 1.422.391.392.93.53 1.421.53h2.961c.492 0 1.03-.138 1.422-.53.392-.392.53-.93.53-1.422v-6.418c0-2.072-.834-3.906-2.245-5.431 1.411-1.526 2.244-3.36 2.244-5.432 0-2.284-.907-4.332-2.613-5.935-1.707-1.605-3.85-2.434-6.25-2.434Zm4.914 6.863h1.998c.59 0 .991.167 1.412.588.421.421.588.822.588 1.412 0 .591-.167.991-.588 1.412-.421.421-.821.588-1.412.588h-1.998z" style="font-style:normal;font-variant:normal;font-weight:400;font-stretch:normal;font-size:medium;line-height:25.27969551px;font-family:Jumpman;-inkscape-font-specification:Jumpman;letter-spacing:0;word-spacing:0;vector-effect:none;fill:none;fill-opacity:1;stroke:#fcf1b3;stroke-width:.12550078;stroke-linecap:butt;stroke-linejoin:miter;stroke-miterlimit:4;stroke-dasharray:none;stroke-dashoffset:0;stroke-opacity:1" transform="rotate(1.685 37236.673 -3516.03) scale(3.98404)"/><path d="M100.708 279.9h-2.963v5.926h2.963q1.224 0 2.093-.87.87-.868.87-2.093 0-1.224-.87-2.093-.869-.87-2.093-.87zm2.962 13.332h-.04q.04-.237.04-.494 0-1.224-.869-2.093-.869-.87-2.093-.87h-2.963v9.875q0 .988-.987.988h-2.963q-.987 0-.987-.988v-23.7q0-.987.987-.987h6.913q3.278 0 5.589 2.173 2.31 2.172 2.31 5.233 0 3.062-2.31 5.234-.099.099-.217.198.118.098.217.197 2.31 2.173 2.31 5.234v6.418q0 .988-.987.988h-2.962q-.988 0-.988-.988z" style="font-style:normal;font-variant:normal;font-weight:400;font-stretch:normal;font-size:medium;line-height:25.27969551px;font-family:Jumpman;-inkscape-font-specification:Jumpman;letter-spacing:0;word-spacing:0;vector-effect:none;fill:none;fill-opacity:1;stroke:#fcf1b3;stroke-width:.12550078;stroke-linecap:butt;stroke-linejoin:miter;stroke-miterlimit:4;stroke-dasharray:none;stroke-dashoffset:0;stroke-opacity:1" transform="rotate(1.685 37236.673 -3516.03) scale(3.98404)"/></g><path d="m197.852 7.545.002.016-14.938.943c-2.056.13-3.697 1.294-4.777 2.523-1.066 1.213-1.81 2.6-2.487 4.2-.15.352-.251.725-.3 1.105l-3.127 24.695-6.338-24.082-.008-.03c-.1-.388-.255-.761-.46-1.104-.895-1.486-1.813-2.743-3.001-3.793-1.202-1.062-2.938-2.034-5.02-1.903l-15.71.992-.116.008H141.523l-.004.002c-2.095.217-4.09 1.896-4.832 3.66-.698 1.66-.725 3.207-.623 4.825.016.257.058.512.121.761l23.62 93.114c.094.377.241.74.437 1.078 2.038 3.505 5.833 5.892 9.855 5.72h.016l.076-.008-.004.002 13.659-.863c.018 0 .04-.003.062-.004a.295.295 0 0 0 .022-.002h.006c4.09-.337 7.691-3.133 9.298-6.928a4.2 4.2 0 0 0 .301-1.127L205.25 16c.031-.255.04-.512.023-.77-.11-1.735-.447-3.502-1.662-5.119-1.258-1.675-3.525-2.63-5.484-2.566h-.008zM183.928 119.4l-.014.002h.01zm14.2-111.355h.011c1.781-.059 3.936.852 5.074 2.367 1.137 1.513 1.454 3.157 1.56 4.85.015.225.009.452-.019.677l-11.717 95.346c-.041.34-.131.677-.265.992-1.537 3.63-4.994 6.305-8.881 6.625h-.002l-.065.004h-.004l-13.667.864h-.002l-.067.006h-.008c-3.81.162-7.448-2.114-9.4-5.471a3.688 3.688 0 0 1-.387-.95l-23.62-93.113v-.002a3.702 3.702 0 0 1-.105-.67c-.1-1.592-.073-3.035.584-4.597.659-1.566 2.563-3.164 4.418-3.358h.032a.165.165 0 0 0 .006 0h.004l.107-.008h.002l15.713-.992c1.91-.12 3.52.774 4.656 1.778 1.136 1.004 2.023 2.212 2.905 3.675.178.3.315.63.402.967l.002.004 6.674 25.363.326 1.227.164-1.26 3.289-25.975a3.7 3.7 0 0 1 .266-.972c.666-1.575 1.383-2.909 2.4-4.067 1.017-1.157 2.55-2.232 4.434-2.351l15.08-.953h.002c.031-.002.065-.005.1-.006z" style="color:#000;font-style:normal;font-variant:normal;font-weight:400;font-stretch:normal;font-size:medium;line-height:25.27969551px;font-family:Jumpman;-inkscape-font-specification:Jumpman;font-variant-ligatures:normal;font-variant-position:normal;font-variant-caps:normal;font-variant-numeric:normal;font-variant-alternates:normal;font-feature-settings:normal;text-indent:0;text-align:start;text-decoration:none;text-decoration-line:none;text-decoration-style:solid;text-decoration-color:#000;letter-spacing:0;word-spacing:0;text-transform:none;writing-mode:lr-tb;direction:ltr;text-orientation:mixed;dominant-baseline:auto;baseline-shift:baseline;text-anchor:start;white-space:normal;shape-padding:0;clip-rule:nonzero;display:inline;overflow:visible;visibility:visible;opacity:1;isolation:auto;mix-blend-mode:normal;color-interpolation:sRGB;color-interpolation-filters:linearRGB;solid-color:#000;solid-opacity:1;vector-effect:none;fill:#fcf1b3;fill-opacity:1;fill-rule:nonzero;stroke:none;stroke-width:.5;stroke-linecap:butt;stroke-linejoin:miter;stroke-miterlimit:4;stroke-dasharray:none;stroke-dashoffset:0;stroke-opacity:1;color-rendering:auto;image-rendering:auto;shape-rendering:auto;text-rendering:auto;enable-background:accumulate" transform="translate(-30.935 -2.68)"/><g style="opacity:1;vector-effect:none;fill:none;fill-opacity:1;stroke:#fcf1b3;stroke-width:.12550078;stroke-linecap:butt;stroke-linejoin:miter;stroke-miterlimit:4;stroke-dasharray:none;stroke-dashoffset:0;stroke-opacity:1"><path d="M79.932 273.37c-3.322 0-6.257 1.513-8.537 4.318-2.28 2.79-3.426 6.216-3.426 10.113 0 3.897 1.145 7.329 3.426 10.133l.003.004.002.002c2.281 2.788 5.214 4.29 8.532 4.29 3.318 0 6.248-1.502 8.529-4.29l.002-.002.002-.002.002-.002c2.28-2.804 3.426-6.236 3.426-10.133 0-3.898-1.146-7.324-3.428-10.115-2.28-2.803-5.212-4.317-8.533-4.317zm-.002 7.547 1.448 3.611a1.105 1.105 0 0 0 1.045.76h2.799l-2.182 1.588a1.104 1.104 0 0 0-.397 1.232l1.538 5.088-3.627-2.825a1.113 1.113 0 0 0-.711-.26c-.257 0-.514.093-.711.26l-3.227 2.419 1.069-3.923a1.11 1.11 0 0 0 .004-.686 1.105 1.105 0 0 0-.403-.553l-2.48-2.384 3.21-.267c.23 0 .705.169.891.034.186-.136.238-.33.31-.55z" style="font-style:normal;font-variant:normal;font-weight:400;font-stretch:normal;font-size:medium;line-height:25.27969551px;font-family:Jumpman;-inkscape-font-specification:Jumpman;letter-spacing:0;word-spacing:0;vector-effect:none;fill:none;fill-opacity:1;stroke:#fcf1b3;stroke-width:.12550078;stroke-linecap:butt;stroke-linejoin:miter;stroke-miterlimit:4;stroke-dasharray:none;stroke-dashoffset:0;stroke-opacity:1" transform="matrix(3.98404 0 0 3.98404 -110.576 -1084.68)"/><path d="M79.93 274.47q4.504 0 7.684 3.91 3.18 3.89 3.18 9.42 0 5.53-3.18 9.441-3.18 3.89-7.683 3.89t-7.683-3.89q-3.18-3.91-3.18-9.44 0-5.53 3.18-9.421 3.18-3.91 7.683-3.91zm4.938 20.243q.336.158.494.158.158 0 .158-.158t-.158-.494l-2.074-6.3 3.555-2.587q.494-.494.494-.75 0-.238-.494-.238h-4.819l-1.6-4.937q-.236-.494-.493-.494-.237 0-.494.494l-1.6 4.937h-4.819q-.493 0-.493.257 0 .237.474.73l3.574 2.588-2.093 6.3q-.158.316-.158.494 0 .158.178.158.158 0 .493-.158l4.938-4.167z" style="font-style:normal;font-variant:normal;font-weight:400;font-stretch:normal;font-size:medium;line-height:25.27969551px;font-family:Jumpman;-inkscape-font-specification:Jumpman;letter-spacing:0;word-spacing:0;vector-effect:none;fill:none;fill-opacity:1;stroke:#fcf1b3;stroke-width:.12550078;stroke-linecap:butt;stroke-linejoin:miter;stroke-miterlimit:4;stroke-dasharray:none;stroke-dashoffset:0;stroke-opacity:1" transform="matrix(3.98404 0 0 3.98404 -110.576 -1084.68)"/></g><path d="m105.066 13.558-55.038 2.164c-1.801.07-3.658.645-4.949 2.046-1.29 1.401-1.712 3.299-1.641 5.097l3.711 94.34c.071 1.8.642 3.655 2.039 4.95 1.397 1.294 3.296 1.72 5.097 1.65l11.796-.468c1.799-.07 3.657-.639 4.95-2.038 1.292-1.4 1.712-3.3 1.641-5.097L71.24 79.824l28.519-1.12c1.798-.071 3.656-.64 4.949-2.04 1.292-1.398 1.712-3.298 1.642-5.096l-.312-7.867c-.07-1.798-.639-3.656-2.038-4.949-1.4-1.292-3.3-1.712-5.097-1.642l-28.51 1.129-.701-17.726 36.378-1.432c1.798-.07 3.654-.641 4.948-2.039 1.295-1.397 1.72-3.296 1.65-5.096l-.467-11.797c-.07-1.798-.64-3.656-2.039-4.949-1.399-1.292-3.298-1.712-5.096-1.642z" style="font-style:normal;font-variant:normal;font-weight:400;font-stretch:normal;font-size:medium;line-height:25.27969551px;font-family:Jumpman;-inkscape-font-specification:Jumpman;letter-spacing:0;word-spacing:0;fill:#d2d2d2;fill-opacity:1;stroke:#d2d2d2;stroke-width:2;stroke-linecap:butt;stroke-linejoin:miter;stroke-miterlimit:4;stroke-dasharray:none;stroke-opacity:1" transform="translate(-30.935 -2.68)"/><path d="M103.225 11.878 48.188 14.04c-1.802.07-3.659.645-4.949 2.046-1.29 1.401-1.713 3.299-1.642 5.097l3.712 94.34c.07 1.8.641 3.655 2.039 4.95 1.397 1.294 3.296 1.72 5.096 1.65l11.797-.467c1.798-.071 3.656-.64 4.949-2.04 1.292-1.399 1.712-3.298 1.642-5.096L69.4 78.143l28.518-1.12c1.799-.071 3.657-.64 4.95-2.039 1.292-1.4 1.712-3.299 1.641-5.097l-.311-7.867c-.07-1.798-.64-3.656-2.039-4.949-1.4-1.292-3.299-1.712-5.097-1.641l-28.51 1.128-.7-17.726 36.377-1.432c1.799-.07 3.654-.641 4.949-2.038 1.295-1.398 1.72-3.296 1.65-5.097l-.467-11.797c-.071-1.798-.64-3.656-2.039-4.949-1.4-1.292-3.299-1.712-5.097-1.641z" style="font-style:normal;font-variant:normal;font-weight:400;font-stretch:normal;font-size:medium;line-height:25.27969551px;font-family:Jumpman;-inkscape-font-specification:Jumpman;letter-spacing:0;word-spacing:0;fill:#815a16;fill-opacity:1;stroke:#805a16;stroke-width:2;stroke-linecap:butt;stroke-linejoin:miter;stroke-miterlimit:4;stroke-dasharray:none;stroke-opacity:1" transform="translate(-30.935 -2.68)"/><g style="opacity:1;vector-effect:none;fill:none;fill-opacity:1;stroke:#fcf1b3;stroke-width:.12550078;stroke-linecap:butt;stroke-linejoin:miter;stroke-miterlimit:4;stroke-dasharray:none;stroke-dashoffset:0;stroke-opacity:1"><path d="M160.984 274.162c-2.363 0-4.46.813-6.138 2.39-1.678 1.578-2.563 3.574-2.563 5.817 0 2.243.885 4.241 2.563 5.818 1.678 1.579 3.775 2.39 6.138 2.39.63 0 1.08.186 1.528.634.447.448.634.899.634 1.527 0 .629-.187 1.08-.634 1.528-.448.447-.899.634-1.528.634h-5.925c-.464 0-.953.127-1.307.48-.354.355-.48.844-.48 1.307v2.963c0 .464.127.953.48 1.307s.843.482 1.307.482h5.925c2.364 0 4.459-.812 6.137-2.39 1.677-1.577 2.565-3.573 2.565-5.817 0-2.243-.887-4.24-2.565-5.818-1.678-1.578-3.774-2.389-6.137-2.389-.628 0-1.08-.187-1.527-.634-.448-.448-.635-.899-.635-1.528 0-.628.187-1.08.635-1.527.448-.448.899-.635 1.527-.635h5.924c.463 0 .953-.127 1.307-.48.354-.354.482-.843.482-1.307v-2.963c0-.464-.129-.953-.482-1.306-.354-.354-.843-.483-1.307-.483z" style="font-style:normal;font-variant:normal;font-weight:400;font-stretch:normal;font-size:medium;line-height:25.27969551px;font-family:Jumpman;-inkscape-font-specification:Jumpman;letter-spacing:0;word-spacing:0;vector-effect:none;fill:none;fill-opacity:1;stroke:#fcf1b3;stroke-width:.12550078;stroke-linecap:butt;stroke-linejoin:miter;stroke-miterlimit:4;stroke-dasharray:none;stroke-dashoffset:0;stroke-opacity:1" transform="rotate(6.331 10356.66 -1035.199) scale(3.98404)"/><path d="M160.984 295.7q1.224 0 2.093-.868.87-.87.87-2.094 0-1.224-.87-2.093-.869-.87-2.093-.87-3.279 0-5.59-2.172-2.31-2.172-2.31-5.234 0-3.06 2.31-5.233 2.311-2.173 5.59-2.173h5.925q.987 0 .987.988v2.962q0 .988-.987.988h-5.925q-1.225 0-2.094.869-.869.869-.869 2.093 0 1.225.87 2.094.868.869 2.093.869 3.278 0 5.59 2.172 2.31 2.173 2.31 5.234t-2.31 5.233q-2.312 2.173-5.59 2.173h-5.925q-.987 0-.987-.988v-2.962q0-.987.987-.987z" style="font-style:normal;font-variant:normal;font-weight:400;font-stretch:normal;font-size:medium;line-height:25.27969551px;font-family:Jumpman;-inkscape-font-specification:Jumpman;letter-spacing:0;word-spacing:0;vector-effect:none;fill:none;fill-opacity:1;stroke:#fcf1b3;stroke-width:.12550078;stroke-linecap:butt;stroke-linejoin:miter;stroke-miterlimit:4;stroke-dasharray:none;stroke-dashoffset:0;stroke-opacity:1" transform="rotate(6.331 10356.66 -1035.199) scale(3.98404)"/></g><path d="M496.923 10.843c-9.303-1.032-17.897 1.25-25.189 6.725-7.288 5.473-11.627 12.918-12.605 21.737-.979 8.818 1.62 17.04 7.533 23.978 5.915 6.942 13.801 11.044 23.102 12.076 2.54.281 4.325 1.265 5.932 3.273 1.606 2.008 2.175 3.966 1.893 6.504-.282 2.54-1.265 4.325-3.273 5.932-2.008 1.607-3.966 2.175-6.505 1.893l-23.464-2.603c-1.79-.199-3.716.084-5.207 1.277-1.492 1.194-2.19 3.01-2.389 4.8l-1.301 11.733c-.199 1.79.086 3.714 1.277 5.207 1.192 1.493 3.007 2.197 4.8 2.396l23.465 2.604c9.303 1.032 17.89-1.252 25.18-6.727 7.288-5.472 11.635-12.915 12.613-21.735.979-8.82-1.629-17.042-7.54-23.98-5.915-6.94-13.794-11.042-23.095-12.074-2.539-.282-4.325-1.266-5.932-3.273-1.606-2.008-2.174-3.966-1.893-6.505.282-2.539 1.266-4.325 3.273-5.931 2.008-1.607 3.966-2.175 6.505-1.894l23.457 2.603c1.79.199 3.714-.086 5.207-1.278 1.493-1.191 2.197-3.006 2.396-4.8l1.302-11.732c.198-1.793-.092-3.716-1.286-5.208-1.193-1.49-3.007-2.197-4.8-2.395z" style="font-style:normal;font-variant:normal;font-weight:400;font-stretch:normal;font-size:medium;line-height:25.27969551px;font-family:Jumpman;-inkscape-font-specification:Jumpman;letter-spacing:0;word-spacing:0;fill:#fad60b;fill-opacity:1;stroke:none;stroke-width:4.02861118px;stroke-linecap:butt;stroke-linejoin:miter;stroke-opacity:1" transform="translate(-30.935 -2.68)"/><path d="M487.485 95.89q4.848.537 8.671-2.522 3.823-3.059 4.36-7.908.539-4.848-2.52-8.67-3.06-3.824-7.908-4.362-12.982-1.44-21.178-11.058-8.195-9.617-6.85-21.739 1.345-12.122 11.45-19.709 10.104-7.587 23.085-6.147l23.462 2.604q3.91.433 3.476 4.344l-1.302 11.73q-.433 3.91-4.344 3.476l-23.46-2.603q-4.85-.538-8.672 2.522-3.823 3.059-4.36 7.907-.539 4.85 2.52 8.672 3.06 3.823 7.908 4.36Q504.805 58.229 513 67.847q8.196 9.617 6.85 21.739-1.344 12.121-11.448 19.709-10.105 7.587-23.087 6.146l-23.46-2.603q-3.911-.433-3.477-4.344l1.301-11.73q.434-3.91 4.344-3.477z" style="font-style:normal;font-variant:normal;font-weight:400;font-stretch:normal;font-size:medium;line-height:25.27969551px;font-family:Jumpman;-inkscape-font-specification:Jumpman;letter-spacing:0;word-spacing:0;opacity:1;vector-effect:none;fill:url(#n);fill-opacity:1;stroke:none;stroke-width:4.02861118px;stroke-linecap:butt;stroke-linejoin:miter;stroke-miterlimit:4;stroke-dasharray:none;stroke-dashoffset:0;stroke-opacity:1" transform="translate(-30.935 -2.68)"/><path d="M491.828 13.553c-6.47.13-12.35 2.113-17.652 5.906l.658 6.404c.186 1.81-.119 3.76-1.346 5.262-1.226 1.503-3.072 2.193-4.879 2.379l-5.388.553a29.476 29.476 0 0 0-1.16 5.574c-.473 4.258-.21 7.783 1.084 11.578 1.59-.042 3.931.542 5.238 1.602 1.506 1.222 2.17 3.21 2.355 5.02l.617 6.054c.817.815.684.64 1.564 1.349 0 0 .296-9.057-2.375-12.243-1.374-1.638-4.923-.81-5.988-2.3-.891-1.866-1.251-5.607-1.502-7.462.088-2.702.623-6.564 1.313-8.03l6.13-.571c1.025-.096 3.31-1.049 4.347-2.323 1.329-1.634 1.979-3.878 1.781-6.063l-.5-5.531c2.052-2.514 5.353-3.613 8.375-4.5 1.78-.522 6.207-1.21 8.658-.936l30.21 3.37c-.421-1.303-1.513-2.067-3.311-2.266l-23.461-2.604a36.503 36.503 0 0 0-4.768-.222zm-9.932 81.717c.075.343.135.688.17 1.033l1.207 11.742c.186 1.81-.12 3.757-1.345 5.262-.543.667-1.214 1.167-1.944 1.543l2.31.215s1.575-1.922 1.88-3.088c.3-1.142.809-2.163.664-3.67l-1.24-12.85z" style="fill:#bb000f;fill-opacity:1;fill-rule:evenodd;stroke:none;stroke-width:1px;stroke-linecap:butt;stroke-linejoin:miter;stroke-opacity:1" transform="translate(-30.935 -2.68)"/><g style="opacity:1;vector-effect:none;fill:none;fill-opacity:1;stroke:#fcf1b3;stroke-width:.12550078;stroke-linecap:butt;stroke-linejoin:miter;stroke-miterlimit:4;stroke-dasharray:none;stroke-dashoffset:0;stroke-opacity:1"><path d="M136.297 274.143c-.468 0-.962.13-1.32.488-.359.358-.489.853-.489 1.32v23.7c0 .467.13.961.489 1.32.358.358.852.488 1.32.488h13.824c.468 0 .962-.13 1.32-.488.359-.359.489-.853.489-1.32v-2.963c0-.468-.13-.963-.489-1.32-.359-.359-.853-.487-1.32-.487h-9.055v-4.285h7.08c.467 0 .962-.129 1.32-.487.36-.358.49-.853.49-1.32v-1.976c0-.468-.13-.963-.49-1.32-.358-.359-.853-.487-1.32-.487h-7.08v-4.285h9.055c.467 0 .961-.129 1.32-.487.36-.358.489-.853.489-1.32v-2.963c0-.467-.13-.962-.489-1.32-.358-.359-.852-.488-1.32-.488z" style="font-style:normal;font-variant:normal;font-weight:400;font-stretch:normal;font-size:medium;line-height:25.27969551px;font-family:Jumpman;-inkscape-font-specification:Jumpman;letter-spacing:0;word-spacing:0;vector-effect:none;fill:none;fill-opacity:1;stroke:#fcf1b3;stroke-width:.12550078;stroke-linecap:butt;stroke-linejoin:miter;stroke-miterlimit:4;stroke-dasharray:none;stroke-dashoffset:0;stroke-opacity:1" transform="rotate(-5.863 -10098.576 2140.686) scale(3.98404)"/><path d="M140.247 289.776v5.925h9.875q.987 0 .987.987v2.962q0 .988-.987.988h-13.825q-.988 0-.988-.988v-23.7q0-.987.988-.987h13.825q.987 0 .987.988v2.962q0 .988-.987.988h-9.875v5.925h7.9q.987 0 .987.987v1.975q0 .988-.987.988z" style="font-style:normal;font-variant:normal;font-weight:400;font-stretch:normal;font-size:medium;line-height:25.27969551px;font-family:Jumpman;-inkscape-font-specification:Jumpman;letter-spacing:0;word-spacing:0;vector-effect:none;fill:none;fill-opacity:1;stroke:#fcf1b3;stroke-width:.12550078;stroke-linecap:butt;stroke-linejoin:miter;stroke-miterlimit:4;stroke-dasharray:none;stroke-dashoffset:0;stroke-opacity:1" transform="rotate(-5.863 -10098.576 2140.686) scale(3.98404)"/></g><path d="M411.191 13.524c-1.809.186-3.654.881-4.878 2.386-1.224 1.505-1.53 3.452-1.345 5.262l9.645 93.924c.186 1.81.882 3.655 2.386 4.879 1.505 1.224 3.453 1.53 5.262 1.345l54.788-5.626c1.81-.186 3.654-.882 4.879-2.387 1.224-1.504 1.53-3.452 1.344-5.261l-1.205-11.743c-.186-1.81-.88-3.656-2.386-4.878-1.507-1.223-3.455-1.523-5.261-1.337l-36.118 3.709-1.792-17.448 28.292-2.905c1.807-.186 3.653-.876 4.88-2.379 1.226-1.502 1.53-3.452 1.344-5.261l-.804-7.834c-.186-1.81-.88-3.656-2.386-4.878-1.507-1.222-3.455-1.523-5.261-1.337l-28.292 2.905-1.792-17.447 36.118-3.71c1.806-.185 3.653-.875 4.88-2.378 1.226-1.503 1.53-3.452 1.344-5.261l-1.206-11.743c-.185-1.81-.881-3.654-2.386-4.878-1.504-1.225-3.452-1.531-5.261-1.345z" style="font-style:normal;font-variant:normal;font-weight:400;font-stretch:normal;font-size:medium;line-height:25.27969551px;font-family:Jumpman;-inkscape-font-specification:Jumpman;letter-spacing:0;word-spacing:0;fill:#fad60b;fill-opacity:1;stroke:none;stroke-width:4.02861118px;stroke-linecap:butt;stroke-linejoin:miter;stroke-opacity:1" transform="translate(-30.935 -2.68)"/><path d="m433.184 73.641 2.411 23.482 39.136-4.02q3.914-.401 4.316 3.512l1.205 11.741q.402 3.914-3.511 4.316l-54.79 5.626q-3.915.402-4.316-3.511l-9.646-93.927q-.402-3.914 3.512-4.316l54.79-5.626q3.914-.402 4.316 3.512l1.206 11.74q.402 3.914-3.512 4.316l-39.136 4.019 2.411 23.482 31.31-3.216q3.913-.401 4.315 3.512l.803 7.827q.402 3.914-3.511 4.316z" style="font-style:normal;font-variant:normal;font-weight:400;font-stretch:normal;font-size:medium;line-height:25.27969551px;font-family:Jumpman;-inkscape-font-specification:Jumpman;letter-spacing:0;word-spacing:0;opacity:1;vector-effect:none;fill:url(#o);fill-opacity:1;stroke:none;stroke-width:4.02861118px;stroke-linecap:butt;stroke-linejoin:miter;stroke-miterlimit:4;stroke-dasharray:none;stroke-dashoffset:0;stroke-opacity:1" transform="translate(-30.935 -2.68)"/><path d="M467.215 10.885c-.29-.012-.598 0-.924.033l-40.373 4.146c.515 1.152.695 2.43.65 3.649l-.435 11.795c-.068 1.848-.653 3.796-2.123 5.162-1.47 1.366-3.455 1.804-5.303 1.736l-9.05-.334 7.978 77.715c.259 2.524 2.498 3.437 3.26 3.332l-8.846-79.05s4.507.175 6.76.115c2.717-.073 5.116-.739 6.914-2.384 1.25-1.144 2.056-2.946 2.076-4.64l.178-15.556 41.79-4.55c-.572-.73-1.42-1.124-2.552-1.17z" style="fill:#bb000f;fill-opacity:1;fill-rule:evenodd;stroke:none;stroke-width:1px;stroke-linecap:butt;stroke-linejoin:miter;stroke-opacity:1" transform="translate(-30.935 -2.68)"/><g style="opacity:1;vector-effect:none;fill:none;fill-opacity:1;stroke:#fcf1b3;stroke-width:.12550078;stroke-linecap:butt;stroke-linejoin:miter;stroke-miterlimit:4;stroke-dasharray:none;stroke-dashoffset:0;stroke-opacity:1"><path d="M118.521 274.094c-.475 0-.987.131-1.357.502-.37.37-.498.88-.498 1.355v2.963c0 .475.13.985.5 1.356.37.37.88.5 1.355.5h3.575v18.88c0 .476.13.988.5 1.358.37.37.882.5 1.357.5h2.963c.476 0 .988-.131 1.357-.502.37-.37.498-.881.498-1.356v-18.88h3.577c.474 0 .985-.13 1.355-.5s.5-.881.5-1.356v-2.963c0-.474-.128-.985-.498-1.355s-.882-.502-1.357-.502z" style="font-style:normal;font-variant:normal;font-weight:400;font-stretch:normal;font-size:medium;line-height:25.27969551px;font-family:Jumpman;-inkscape-font-specification:Jumpman;letter-spacing:0;word-spacing:0;vector-effect:none;fill:none;fill-opacity:1;stroke:#fcf1b3;stroke-width:.12550078;stroke-linecap:butt;stroke-linejoin:miter;stroke-miterlimit:4;stroke-dasharray:none;stroke-dashoffset:0;stroke-opacity:1" transform="rotate(2.115 29815.732 -3203.245) scale(3.98404)"/><path d="M127.903 299.65q0 .988-.987.988h-2.963q-.987 0-.987-.988V279.9h-4.444q-.988 0-.988-.987v-2.962q0-.988.988-.988h13.825q.987 0 .987.988v2.962q0 .988-.987.988h-4.444z" style="font-style:normal;font-variant:normal;font-weight:400;font-stretch:normal;font-size:medium;line-height:25.27969551px;font-family:Jumpman;-inkscape-font-specification:Jumpman;letter-spacing:0;word-spacing:0;vector-effect:none;fill:none;fill-opacity:1;stroke:#fcf1b3;stroke-width:.12550078;stroke-linecap:butt;stroke-linejoin:miter;stroke-miterlimit:4;stroke-dasharray:none;stroke-dashoffset:0;stroke-opacity:1" transform="rotate(2.115 29815.732 -3203.245) scale(3.98404)"/></g><path d="M364.624 9.246c-1.85-.068-3.844.375-5.312 1.743-1.468 1.367-2.046 3.314-2.114 5.162l-.435 11.796c-.069 1.848.369 3.834 1.735 5.305 1.365 1.47 3.314 2.053 5.162 2.121l14.455.534-2.784 75.396c-.068 1.852.37 3.843 1.735 5.313 1.366 1.47 3.32 2.053 5.17 2.122l11.797.435c1.85.068 3.844-.375 5.312-1.743 1.468-1.367 2.046-3.314 2.114-5.162l2.784-75.396 14.463.534c1.848.068 3.834-.37 5.305-1.735 1.47-1.366 2.053-3.315 2.121-5.162l.436-11.797c.068-1.848-.364-3.832-1.727-5.304-1.364-1.472-3.319-2.061-5.17-2.13z" style="font-style:normal;font-variant:normal;font-weight:400;font-stretch:normal;font-size:medium;line-height:25.27969551px;font-family:Jumpman;-inkscape-font-specification:Jumpman;letter-spacing:0;word-spacing:0;fill:#fad60b;fill-opacity:1;stroke:none;stroke-width:4.02861118px;stroke-linecap:butt;stroke-linejoin:miter;stroke-opacity:1" transform="translate(-30.935 -2.68)"/><path d="M398.227 112.15q-.145 3.93-4.077 3.786l-11.794-.436q-3.932-.145-3.787-4.077l2.904-78.63-17.692-.653q-3.932-.145-3.786-4.077l.435-11.794q.145-3.932 4.077-3.787l55.041 2.033q3.931.145 3.786 4.076l-.435 11.795q-.145 3.931-4.077 3.786l-17.692-.653Z" style="font-style:normal;font-variant:normal;font-weight:400;font-stretch:normal;font-size:medium;line-height:25.27969551px;font-family:Jumpman;-inkscape-font-specification:Jumpman;letter-spacing:0;word-spacing:0;opacity:1;vector-effect:none;fill:url(#p);fill-opacity:1;stroke:none;stroke-width:4.02861118px;stroke-linecap:butt;stroke-linejoin:miter;stroke-miterlimit:4;stroke-dasharray:none;stroke-dashoffset:0;stroke-opacity:1" transform="translate(-30.935 -2.68)"/><path d="M364.506 12.482c-.11-.004-.208.003-.313.004.888 1.302 1.275 2.858 1.344 4.326l.73 15.42 1.941.092-.812-17.68 55.461 1.905c-.361-1.682-1.218-1.956-3.308-2.033zm16.369 20.229-.295.049.893.033-2.903 78.63c-.07 1.916.591 3.15 1.971 3.718l2.767-82.143z" style="fill:#bb000f;fill-opacity:1;fill-rule:evenodd;stroke:none;stroke-width:1px;stroke-linecap:butt;stroke-linejoin:miter;stroke-opacity:1" transform="translate(-30.935 -2.68)"/><g style="opacity:1;vector-effect:none;fill:none;fill-opacity:1;stroke:#fcf1b3;stroke-width:.12550078;stroke-linecap:butt;stroke-linejoin:miter;stroke-miterlimit:4;stroke-dasharray:none;stroke-dashoffset:0;stroke-opacity:1"><path d="M111.57 273.982c-.494 0-1.039.137-1.435.534-.397.396-.533.94-.533 1.435v23.7c0 .494.136 1.039.533 1.435.396.396.941.533 1.435.533h2.983c.491 0 1.037-.141 1.427-.54.39-.4.52-.939.52-1.429v-23.699c0-.493-.135-1.036-.531-1.433s-.941-.536-1.436-.536z" style="font-style:normal;font-variant:normal;font-weight:400;font-stretch:normal;font-size:medium;line-height:25.27969551px;font-family:Jumpman;-inkscape-font-specification:Jumpman;letter-spacing:0;word-spacing:0;vector-effect:none;fill:none;fill-opacity:1;stroke:#fcf1b3;stroke-width:.12550078;stroke-linecap:butt;stroke-linejoin:miter;stroke-miterlimit:4;stroke-dasharray:none;stroke-dashoffset:0;stroke-opacity:1" transform="rotate(-2.715 -22504.572 3285.818) scale(3.98404)"/><path d="M115.52 299.65q0 .988-.968.988h-2.982q-.987 0-.987-.988v-23.7q0-.987.987-.987h2.962q.988 0 .988.988z" style="font-style:normal;font-variant:normal;font-weight:400;font-stretch:normal;font-size:medium;line-height:25.27969551px;font-family:Jumpman;-inkscape-font-specification:Jumpman;letter-spacing:0;word-spacing:0;vector-effect:none;fill:none;fill-opacity:1;stroke:#fcf1b3;stroke-width:.12550078;stroke-linecap:butt;stroke-linejoin:miter;stroke-miterlimit:4;stroke-dasharray:none;stroke-dashoffset:0;stroke-opacity:1" transform="rotate(-2.715 -22504.572 3285.818) scale(3.98404)"/></g><path d="M345.776 10.115c-1.926.09-4.008.727-5.46 2.323s-1.888 3.729-1.796 5.655l4.471 94.313c.091 1.926.727 4.008 2.323 5.46 1.596 1.451 3.73 1.887 5.655 1.796l11.869-.563c1.912-.09 4-.747 5.427-2.353 1.428-1.606 1.834-3.71 1.744-5.621l-4.472-94.313c-.091-1.922-.72-3.998-2.315-5.452-1.594-1.455-3.73-1.896-5.655-1.804z" style="font-style:normal;font-variant:normal;font-weight:400;font-stretch:normal;font-size:medium;line-height:25.27969551px;font-family:Jumpman;-inkscape-font-specification:Jumpman;letter-spacing:0;word-spacing:0;fill:#fad60b;fill-opacity:1;stroke:none;stroke-width:4.02861118px;stroke-linecap:butt;stroke-linejoin:miter;stroke-opacity:1" transform="translate(-30.935 -2.68)"/><path d="M366.326 111.3q.186 3.93-3.665 4.112l-11.868.563q-3.93.186-4.116-3.744l-4.471-94.314q-.187-3.93 3.743-4.117l11.79-.558q3.93-.187 4.116 3.743z" style="font-style:normal;font-variant:normal;font-weight:400;font-stretch:normal;font-size:medium;line-height:25.27969551px;font-family:Jumpman;-inkscape-font-specification:Jumpman;letter-spacing:0;word-spacing:0;opacity:1;vector-effect:none;fill:url(#q);fill-opacity:1;stroke:none;stroke-width:4.02861118px;stroke-linecap:butt;stroke-linejoin:miter;stroke-miterlimit:4;stroke-dasharray:none;stroke-dashoffset:0;stroke-opacity:1" transform="translate(-30.935 -2.68)"/><path d="M285.12 9.081c-1.91-.056-4.006.416-5.55 1.877-1.545 1.46-2.136 3.523-2.192 5.431l-2.775 94.378c-.056 1.908.412 4.002 1.869 5.55 1.456 1.55 3.52 2.144 5.43 2.2l11.8.347c1.911.056 4.005-.418 5.551-1.876 1.547-1.458 2.143-3.52 2.2-5.432l1.05-35.732 8.198.242c2.4.07 4.064.82 5.724 2.581 1.66 1.76 2.311 3.466 2.24 5.866l-.087 2.994-.722 24.532c-.056 1.911.418 4.004 1.877 5.551 1.458 1.547 3.52 2.143 5.43 2.2l11.792.346c1.912.056 4.005-.418 5.551-1.876 1.547-1.459 2.144-3.52 2.2-5.432l.751-25.558c.243-8.26-2.883-15.66-8.378-21.896 5.852-5.903 9.408-13.106 9.65-21.365.266-9.032-3.078-17.22-9.639-23.762-6.566-6.547-14.944-10.077-24.443-10.356ZM303.66 36.5l8.198.241c2.4.07 4.064.822 5.723 2.582 1.66 1.76 2.312 3.465 2.241 5.865-.07 2.4-.821 4.064-2.582 5.724-1.76 1.66-3.465 2.311-5.865 2.24l-8.198-.24Z" style="font-style:normal;font-variant:normal;font-weight:400;font-stretch:normal;font-size:medium;line-height:25.27969551px;font-family:Jumpman;-inkscape-font-specification:Jumpman;letter-spacing:0;word-spacing:0;fill:#fad60b;fill-opacity:1;stroke:none;stroke-width:4.02861118px;stroke-linecap:butt;stroke-linejoin:miter;stroke-opacity:1" transform="translate(-30.935 -2.68)"/><path d="m311.966 33.148-11.798-.347-.694 23.595 11.798.347c3.25.096 6.064-.976 8.438-3.215 2.375-2.24 3.61-4.985 3.706-8.235.096-3.251-.976-6.064-3.215-8.44-2.24-2.374-4.984-3.61-8.235-3.705zm10.236 53.436.058-1.967c.095-3.25-.976-6.063-3.216-8.438-2.239-2.375-4.984-3.61-8.235-3.706l-11.797-.347-1.156 39.325c-.078 2.622-1.427 3.894-4.049 3.817l-11.797-.347c-2.622-.077-3.894-1.426-3.817-4.048l2.775-94.38c.077-2.621 1.427-3.894 4.048-3.817l27.528.81c8.704.256 16.038 3.358 22.003 9.306 5.965 5.948 8.828 12.985 8.59 21.112-.24 8.128-3.511 14.985-9.815 20.572-.27.255-.567.508-.889.761.307.271.588.542.842.812 5.965 5.948 8.828 12.986 8.59 21.113l-.752 25.561c-.077 2.622-1.427 3.894-4.048 3.817l-11.798-.347c-2.621-.077-3.894-1.426-3.817-4.048z" style="font-style:normal;font-variant:normal;font-weight:400;font-stretch:normal;font-size:medium;line-height:25.27969551px;font-family:Jumpman;-inkscape-font-specification:Jumpman;letter-spacing:0;word-spacing:0;opacity:1;vector-effect:none;fill:url(#r);fill-opacity:1;stroke:none;stroke-width:4.02861118px;stroke-linecap:butt;stroke-linejoin:miter;stroke-miterlimit:4;stroke-dasharray:none;stroke-dashoffset:0;stroke-opacity:1" transform="translate(-30.935 -2.68)"/><path d="M285.016 12.676c-2.622-.077-3.97 1.196-4.047 3.818l-.602 20.234c.605 3.896 2.967 7.333 3.921 11.158.957 3.832 1.452 7.779 1.786 11.714.204 2.41.219 4.838.13 7.255-.11 3.03-.353 6.064-.827 9.06a67.991 67.991 0 0 1-1.933 8.525c-1.078 3.92-2.877 7.74-4.814 11.568l-.437 14.865c-.052 1.793.518 2.987 1.727 3.59l.271-17.604c4.284-9.493 7.102-20.466 7.556-30.165-.144-7.347-.652-13.43-2.005-19.176-.977-3.972-3.949-7.12-3.804-10.995l.764-20.516c-.029-.907.988-1.515 1.606-1.486l38.63 1.065-.104-.248c-3.187-1.123-6.616-1.744-10.291-1.852z" style="fill:#bb000f;fill-opacity:1;fill-rule:evenodd;stroke:none;stroke-width:1px;stroke-linecap:butt;stroke-linejoin:miter;stroke-opacity:1" transform="translate(-30.935 -2.68)"/><path d="M238.81 7.338c-13.166 0-24.79 5.988-33.842 17.12-9.051 11.079-13.594 24.67-13.594 40.15 0 15.485 4.544 29.1 13.594 40.23l.008.008c9.055 11.08 20.676 17.026 33.833 17.026 13.158 0 24.772-5.948 33.826-17.026l.008-.008c9.05-11.13 13.594-24.745 13.594-40.23 0-15.484-4.546-29.078-13.602-40.159-9.05-11.125-20.664-17.11-33.825-17.11Zm-.009 31.25 4.389 13.532a4.159 4.159 0 0 0 3.953 2.871h11.835l-9.244 6.73a4.159 4.159 0 0 0-1.502 4.662l5.315 16.162-12.053-10.178a4.159 4.159 0 0 0-5.37 0l-12.138 10.24 5.392-16.209a4.159 4.159 0 0 0-1.51-4.684l-9.29-6.723h11.89c1.8 0 3.41-1.113 4.015-3.121z" style="font-style:normal;font-variant:normal;font-weight:400;font-stretch:normal;font-size:medium;line-height:25.27969551px;font-family:Jumpman;-inkscape-font-specification:Jumpman;letter-spacing:0;word-spacing:0;fill:#fad60b;fill-opacity:1;stroke:none;stroke-width:4.02861118px;stroke-linecap:butt;stroke-linejoin:miter;stroke-opacity:1" transform="translate(-30.935 -2.68)"/><path d="M238.806 11.497q17.94 0 30.608 15.579 12.668 15.5 12.668 37.532 0 22.032-12.668 37.611-12.668 15.5-30.608 15.5t-30.608-15.5q-12.668-15.58-12.668-37.61 0-22.032 12.668-37.533 12.668-15.58 30.608-15.58zm19.671 80.65q1.338.63 1.967.63.63 0 .63-.63 0-.629-.63-1.967l-8.261-25.1 14.163-10.307q1.967-1.967 1.967-2.99 0-.944-1.967-.944h-19.2l-6.373-19.671q-.944-1.968-1.967-1.968-.944 0-1.967 1.968l-6.373 19.67h-19.199q-1.967 0-1.967 1.023 0 .945 1.888 2.912L225.43 65.08l-8.34 25.1q-.63 1.26-.63 1.967 0 .63.708.63.63 0 1.967-.63l19.671-16.602z" style="font-style:normal;font-variant:normal;font-weight:400;font-stretch:normal;font-size:medium;line-height:25.27969551px;font-family:Jumpman;-inkscape-font-specification:Jumpman;letter-spacing:0;word-spacing:0;fill:red;fill-opacity:1;stroke:none;stroke-width:4.02861118px;stroke-linecap:butt;stroke-linejoin:miter;stroke-opacity:1" transform="translate(-30.935 -2.68)"/><path d="M238.806 11.497q17.94 0 30.608 15.579 12.668 15.5 12.668 37.532 0 22.032-12.668 37.611-12.668 15.5-30.608 15.5t-30.608-15.5q-12.668-15.58-12.668-37.61 0-22.032 12.668-37.533 12.668-15.58 30.608-15.58zm19.671 80.65q1.338.63 1.967.63.63 0 .63-.63 0-.629-.63-1.967l-8.261-25.1 14.163-10.307q1.967-1.967 1.967-2.99 0-.944-1.967-.944h-19.2l-6.373-19.671q-.944-1.968-1.967-1.968-.944 0-1.967 1.968l-6.373 19.67h-19.199q-1.967 0-1.967 1.023 0 .945 1.888 2.912L225.43 65.08l-8.34 25.1q-.63 1.26-.63 1.967 0 .63.708.63.63 0 1.967-.63l19.671-16.602z" style="font-style:normal;font-variant:normal;font-weight:400;font-stretch:normal;font-size:medium;line-height:25.27969551px;font-family:Jumpman;-inkscape-font-specification:Jumpman;letter-spacing:0;word-spacing:0;opacity:1;vector-effect:none;fill:url(#s);fill-opacity:1;stroke:none;stroke-width:4.02861118px;stroke-linecap:butt;stroke-linejoin:miter;stroke-miterlimit:4;stroke-dasharray:none;stroke-dashoffset:0;stroke-opacity:1" transform="translate(-30.935 -2.68)"/><path d="m43.486 236.814-13.814.543c-.452.018-.918.162-1.242.514-.324.352-.43.828-.412 1.28l.931 23.68c.018.45.161.916.512 1.241.35.325.827.432 1.28.414l2.96-.117c.452-.018.918-.16 1.242-.512.325-.35.43-.828.412-1.279l-.359-9.13 7.158-.282c.452-.018.918-.16 1.242-.512.325-.351.43-.828.413-1.279l-.079-1.975c-.017-.451-.16-.917-.511-1.242-.352-.324-.828-.43-1.28-.412l-7.156.283-.176-4.449 9.131-.36c.452-.017.918-.16 1.242-.511.325-.35.432-.827.415-1.28l-.118-2.96c-.017-.452-.16-.918-.511-1.242-.352-.325-.828-.43-1.28-.413z" style="font-style:normal;font-variant:normal;font-weight:400;font-stretch:normal;font-size:medium;line-height:25.27969551px;font-family:Jumpman;-inkscape-font-specification:Jumpman;letter-spacing:0;word-spacing:0;fill:#fad60b;fill-opacity:1;stroke:none;stroke-width:1.01118779px;stroke-linecap:butt;stroke-linejoin:miter;stroke-opacity:1" transform="matrix(3.98404 0 0 3.98404 -102.143 -936.672)"/><path d="m34.23 289.89.39 9.868q.038.987-.949 1.025l-2.96.117q-.987.039-1.025-.948l-.932-23.681q-.04-.987.947-1.026l13.815-.544q.986-.038 1.025.948l.117 2.96q.039.987-.948 1.026l-9.867.388.233 5.92 7.893-.31q.987-.039 1.026.948l.078 1.973q.038.987-.948 1.026z" style="font-style:normal;font-variant:normal;font-weight:400;font-stretch:normal;font-size:medium;line-height:25.27969551px;font-family:Jumpman;-inkscape-font-specification:Jumpman;letter-spacing:0;word-spacing:0;fill:url(#t);fill-opacity:1;stroke:none;stroke-width:1.01118779px;stroke-linecap:butt;stroke-linejoin:miter;stroke-opacity:1" transform="matrix(3.98404 0 0 3.98404 -102.143 -1084.68)"/><path d="M114.35 9.463c-3.855.015-7.442 2.5-9.25 5.972a3.81 3.81 0 0 0-.352.999l-19.254 94.114a3.81 3.81 0 0 0-.081.7c-.027 1.629.062 3.09.818 4.666.756 1.577 2.906 3.146 4.835 3.177l15.732.26c1.955.032 3.55-.956 4.656-2.025 1.105-1.07 1.938-2.335 2.756-3.846a3.81 3.81 0 0 0 .374-1.006l.194-.868 9.873.162.164.875a3.81 3.81 0 0 0 .311.962c.744 1.552 1.533 2.866 2.62 3.989 1.086 1.123 2.697 2.146 4.625 2.177l15.102.249c1.83.03 4.069-1.003 5.172-2.615 1.102-1.612 1.338-3.297 1.366-5.029a3.81 3.81 0 0 0-.058-.701l-16.146-94.697a3.81 3.81 0 0 0-.318-1.01c-1.721-3.589-5.361-6.137-9.298-6.277a3.81 3.81 0 0 0-.07-.001l-13.693-.226a3.81 3.81 0 0 0-.078-.001z" style="font-style:normal;font-variant:normal;font-weight:400;font-stretch:normal;font-size:medium;line-height:25.27969551px;font-family:Jumpman;-inkscape-font-specification:Jumpman;letter-spacing:0;word-spacing:0;fill:#fad60b;fill-opacity:1;stroke:none;stroke-width:4.02861118px;stroke-linecap:butt;stroke-linejoin:miter;stroke-opacity:1" transform="translate(-30.935 -2.68)"/><path d="m111.712 107.746-.851 3.92c-1.407 2.6-2.74 3.89-3.999 3.87l-15.734-.26c-1.312-.021-1.946-1.343-1.903-3.966l19.256-94.116c1.354-2.601 3.317-3.907 5.888-3.917l13.689.226c2.726.097 4.724 1.468 5.992 4.112l16.147 94.699c-.043 2.622-.93 3.92-2.66 3.89l-15.106-.248c-1.311-.021-2.6-1.354-3.869-3.998l-.722-3.947zm12.754-19.605-3.886-21.957-4.69 21.957z" style="font-style:normal;font-variant:normal;font-weight:400;font-stretch:normal;font-size:medium;line-height:25.27969551px;font-family:Jumpman;-inkscape-font-specification:Jumpman;letter-spacing:0;word-spacing:0;fill:url(#u);fill-opacity:1;stroke:none;stroke-width:4.02861118px;stroke-linecap:butt;stroke-linejoin:miter;stroke-opacity:1" transform="translate(-30.935 -2.68)"/><path d="M120.738 65.64c-.485.052-.473.763.014.797l.053.266c0 .001 0 .003.002.004l3.847 21.732H116.3a.4.4 0 0 0-.043.002c-.045.005-.058.002-.08 0-.306-.17-.745-.721-.747-.221-.001.101.018.728.02 1.1.003.298.203.333.383.333H125.049c.4 0 1.099-.425.978-1.446-.735-6.35-2.542-14.45-3.683-21.637v-.004a8.247 8.247 0 0 0-.108-.537.4.4 0 0 0-.109-.19c-.312-.3-1.389-.198-1.389-.198z" style="color:#000;font-style:normal;font-variant:normal;font-weight:400;font-stretch:normal;font-size:medium;line-height:25.27969551px;font-family:Jumpman;-inkscape-font-specification:Jumpman;font-variant-ligatures:normal;font-variant-position:normal;font-variant-caps:normal;font-variant-numeric:normal;font-variant-alternates:normal;font-feature-settings:normal;text-indent:0;text-align:start;text-decoration:none;text-decoration-line:none;text-decoration-style:solid;text-decoration-color:#000;letter-spacing:0;word-spacing:0;text-transform:none;writing-mode:lr-tb;direction:ltr;text-orientation:mixed;dominant-baseline:auto;baseline-shift:baseline;text-anchor:start;white-space:normal;shape-padding:0;clip-rule:nonzero;display:inline;overflow:visible;visibility:visible;opacity:1;isolation:auto;mix-blend-mode:normal;color-interpolation:sRGB;color-interpolation-filters:linearRGB;solid-color:#000;solid-opacity:1;vector-effect:none;fill:#bb000f;fill-opacity:1;fill-rule:nonzero;stroke:none;stroke-width:.80000001;stroke-linecap:round;stroke-linejoin:round;stroke-miterlimit:4;stroke-dasharray:none;stroke-dashoffset:0;stroke-opacity:1;color-rendering:auto;image-rendering:auto;shape-rendering:auto;text-rendering:auto;enable-background:accumulate" transform="translate(-30.935 -2.68)"/><path d="M120.578 65.973a.222.222 0 0 0-.207.168s-.002 0-.002.002l-4.687 21.953c-.026.123.082.258.209.258h8.576a.224.224 0 0 0 .21-.25v-.002l-3.886-21.952a.221.221 0 0 0-.211-.177 5.263 5.263 0 0 1-.002 0z" style="font-style:normal;font-variant:normal;font-weight:400;font-stretch:normal;font-size:medium;line-height:25.27969551px;font-family:Jumpman;-inkscape-font-specification:Jumpman;letter-spacing:0;word-spacing:0;fill:none;fill-opacity:1;stroke:#fcf1b3;stroke-width:.5;stroke-linecap:round;stroke-linejoin:round;stroke-miterlimit:4;stroke-dasharray:none;stroke-opacity:1" transform="translate(-30.935 -2.68)"/><path d="M189.38 110.84q-1.715 4.05-5.793 4.387l-13.664.863q-3.853.164-6.064-3.638l-23.62-93.117q-.243-3.848 1.716-4.05l15.705-.992q1.885-.12 4.174 3.678l11.829 44.98 5.84-46.096q1.715-4.05 3.678-4.174l15.078-.952q2.596-.086 2.839 3.762z" style="font-style:normal;font-variant:normal;font-weight:400;font-stretch:normal;font-size:medium;line-height:25.27969551px;font-family:Jumpman;-inkscape-font-specification:Jumpman;letter-spacing:0;word-spacing:0;fill:red;fill-opacity:1;stroke:none;stroke-width:4.02861118px;stroke-linecap:butt;stroke-linejoin:miter;stroke-opacity:1" transform="translate(-30.935 -2.68)"/><path d="M114.35 9.463c-3.855.015-7.442 2.5-9.25 5.972a3.81 3.81 0 0 0-.352.999l-19.254 94.114a3.81 3.81 0 0 0-.081.7c-.027 1.629.062 3.09.818 4.666.756 1.577 2.906 3.146 4.835 3.177l15.732.26c1.955.032 3.55-.956 4.656-2.025 1.105-1.07 1.938-2.335 2.756-3.846a3.81 3.81 0 0 0 .374-1.006l.194-.868 9.873.162.164.875a3.81 3.81 0 0 0 .311.962c.744 1.552 1.533 2.866 2.62 3.989 1.086 1.123 2.697 2.146 4.625 2.177l15.102.249c1.83.03 4.069-1.003 5.172-2.615 1.102-1.612 1.338-3.297 1.366-5.029a3.81 3.81 0 0 0-.058-.701l-16.146-94.697a3.81 3.81 0 0 0-.318-1.01c-1.721-3.589-5.361-6.137-9.298-6.277a3.81 3.81 0 0 0-.07-.001l-13.693-.226a3.81 3.81 0 0 0-.078-.001z" style="font-style:normal;font-variant:normal;font-weight:400;font-stretch:normal;font-size:medium;line-height:25.27969551px;font-family:Jumpman;-inkscape-font-specification:Jumpman;letter-spacing:0;word-spacing:0;fill:none;fill-opacity:1;stroke:#fcf1b3;stroke-width:.49889764;stroke-linecap:butt;stroke-linejoin:miter;stroke-miterlimit:4;stroke-dasharray:none;stroke-opacity:1" transform="translate(-30.935 -2.68)"/><path d="M105.73 34.456c.059-.025.344-.122.402-.15a5.864 5.864 0 0 0 1.864-1.335m0 0c1.295-1.398 1.72-3.297 1.649-5.098l-.373-9.415-.004-.103-.047-1.53" style="font-style:normal;font-variant:normal;font-weight:400;font-stretch:normal;font-size:medium;line-height:25.27969551px;font-family:Jumpman;-inkscape-font-specification:Jumpman;letter-spacing:0;word-spacing:0;fill:#bb000f;fill-opacity:1;stroke:#bb000f;stroke-width:1.5;stroke-linecap:butt;stroke-linejoin:miter;stroke-miterlimit:4;stroke-dasharray:none;stroke-opacity:1" transform="translate(-30.935 -2.68)"/><path d="m101.502 52.982-.447 1.254c.16.12-.132.198.02.338 1.437 1.328 2.013 3.224 2.085 5.049l.31 7.867c.072 1.824-.351 3.762-1.679 5.2-1.328 1.437-3.224 2.013-5.049 2.085l-.226.01.058 1.498.227-.008c2.1-.082 4.419-.755 6.092-2.566 1.673-1.812 2.16-4.179 2.078-6.277l-.31-7.867c-.084-2.1-.756-4.42-2.567-6.092a7.224 7.224 0 0 0-.592-.49z" style="color:#000;font-style:normal;font-variant:normal;font-weight:400;font-stretch:normal;font-size:medium;line-height:25.27969551px;font-family:Jumpman;-inkscape-font-specification:Jumpman;font-variant-ligatures:normal;font-variant-position:normal;font-variant-caps:normal;font-variant-numeric:normal;font-variant-alternates:normal;font-feature-settings:normal;text-indent:0;text-align:start;text-decoration:none;text-decoration-line:none;text-decoration-style:solid;text-decoration-color:#000;letter-spacing:0;word-spacing:0;text-transform:none;writing-mode:lr-tb;direction:ltr;text-orientation:mixed;dominant-baseline:auto;baseline-shift:baseline;text-anchor:start;white-space:normal;shape-padding:0;clip-rule:nonzero;display:inline;overflow:visible;visibility:visible;opacity:1;isolation:auto;mix-blend-mode:normal;color-interpolation:sRGB;color-interpolation-filters:linearRGB;solid-color:#000;solid-opacity:1;vector-effect:none;fill:#bb000f;fill-opacity:1;fill-rule:nonzero;stroke:none;stroke-width:1.5;stroke-linecap:butt;stroke-linejoin:miter;stroke-miterlimit:4;stroke-dasharray:none;stroke-dashoffset:0;stroke-opacity:1;color-rendering:auto;image-rendering:auto;shape-rendering:auto;text-rendering:auto;enable-background:accumulate" transform="translate(-30.935 -2.68)"/><path d="M114.37 13.277c-2.572.01-4.535 1.316-5.89 3.916l-19.255 94.118c.106.73.018 1.02.078 1.586.079.739.322 1.66.688 1.736.087.018-.024-1.275.108-1.25 0 0 18.772-92.032 19.748-96.008.098-.401.861-1.713 1.678-2.133.833-.428 1.283-.777 2.407-.894 1.124-.116 13.76.294 17.72.297-1.01-.71-2.206-1.094-3.593-1.143z" style="font-style:normal;font-variant:normal;font-weight:400;font-stretch:normal;font-size:medium;line-height:25.27969551px;font-family:Jumpman;-inkscape-font-specification:Jumpman;letter-spacing:0;word-spacing:0;fill:#bb000f;fill-opacity:1;stroke:none;stroke-width:4.02861118px;stroke-linecap:butt;stroke-linejoin:miter;stroke-opacity:1" transform="translate(-30.935 -2.68)"/><path d="M102.043 9.486 47.005 11.65c-1.801.071-3.658.646-4.949 2.047-1.29 1.401-1.712 3.299-1.642 5.097l3.712 94.34c.071 1.799.642 3.655 2.039 4.95 1.397 1.294 3.296 1.72 5.097 1.649l11.796-.467c1.799-.07 3.657-.64 4.95-2.039 1.292-1.4 1.712-3.298 1.64-5.096l-1.43-36.378 28.518-1.12c1.798-.072 3.656-.64 4.949-2.04 1.292-1.399 1.712-3.298 1.641-5.096l-.31-7.867c-.072-1.799-.64-3.656-2.04-4.949-1.399-1.292-3.298-1.712-5.096-1.642l-28.511 1.129-.7-17.726 36.377-1.432c1.799-.071 3.655-.641 4.95-2.039 1.294-1.397 1.72-3.296 1.649-5.097l-.467-11.796c-.07-1.799-.64-3.657-2.039-4.949-1.4-1.292-3.299-1.713-5.096-1.642z" style="font-style:normal;font-variant:normal;font-weight:400;font-stretch:normal;font-size:medium;line-height:25.27969551px;font-family:Jumpman;-inkscape-font-specification:Jumpman;letter-spacing:0;word-spacing:0;fill:#fad60b;fill-opacity:1;stroke:none;stroke-width:4.02861118px;stroke-linecap:butt;stroke-linejoin:miter;stroke-opacity:1" transform="translate(-30.935 -2.68)"/><path d="m65.169 72.935 1.547 39.311q.155 3.931-3.777 4.086l-11.793.464q-3.931.155-4.086-3.776l-3.713-94.348q-.155-3.931 3.776-4.086l55.036-2.166q3.931-.154 4.086 3.777l.464 11.793q.155 3.931-3.776 4.086l-39.312 1.547.929 23.587 31.449-1.238q3.931-.154 4.086 3.777l.31 7.862q.154 3.931-3.777 4.086z" style="font-style:normal;font-variant:normal;font-weight:400;font-stretch:normal;font-size:medium;line-height:25.27969551px;font-family:Jumpman;-inkscape-font-specification:Jumpman;letter-spacing:0;word-spacing:0;fill:url(#v);fill-opacity:1;stroke:none;stroke-width:4.02861118px;stroke-linecap:butt;stroke-linejoin:miter;stroke-opacity:1" transform="translate(-30.935 -2.68)"/><path d="M102.043 9.486 47.005 11.65c-1.801.071-3.658.646-4.949 2.047-1.29 1.401-1.712 3.299-1.642 5.097l3.712 94.34c.071 1.799.642 3.655 2.039 4.95 1.397 1.294 3.296 1.72 5.097 1.649l11.796-.467c1.799-.07 3.657-.64 4.95-2.039 1.292-1.4 1.712-3.298 1.64-5.096l-1.43-36.378 28.518-1.12c1.798-.072 3.656-.64 4.949-2.04 1.292-1.399 1.712-3.298 1.641-5.096l-.31-7.867c-.072-1.799-.64-3.656-2.04-4.949-1.399-1.292-3.298-1.712-5.096-1.642l-28.511 1.129-.7-17.726 36.377-1.432c1.799-.071 3.655-.641 4.95-2.039 1.294-1.397 1.72-3.296 1.649-5.097l-.467-11.796c-.07-1.799-.64-3.657-2.039-4.949-1.4-1.292-3.299-1.713-5.096-1.642z" style="font-style:normal;font-variant:normal;font-weight:400;font-stretch:normal;font-size:medium;line-height:25.27969551px;font-family:Jumpman;-inkscape-font-specification:Jumpman;letter-spacing:0;word-spacing:0;fill:none;fill-opacity:1;stroke:#fcf1b3;stroke-width:.5;stroke-linecap:butt;stroke-linejoin:miter;stroke-miterlimit:4;stroke-dasharray:none;stroke-opacity:1" transform="translate(-30.935 -2.68)"/><path d="M141.571 11.612c-1.853.192-3.77 1.796-4.427 3.36-.657 1.563-.683 3.005-.583 4.598a3.691 3.691 0 0 0 .105.671l23.618 93.115a3.691 3.691 0 0 0 .388.95c1.953 3.358 5.594 5.635 9.405 5.472a3.691 3.691 0 0 0 .078-.005l13.668-.863a3.691 3.691 0 0 0 .07-.004c3.888-.32 7.346-2.997 8.883-6.627a3.691 3.691 0 0 0 .265-.991l11.716-95.347a3.691 3.691 0 0 0 .02-.68c-.107-1.693-.424-3.338-1.562-4.851-1.138-1.514-3.297-2.428-5.077-2.37a3.691 3.691 0 0 0-.109.007L182.948 9c-1.885.119-3.419 1.196-4.436 2.354-1.018 1.158-1.735 2.49-2.402 4.065a3.691 3.691 0 0 0-.266.976l-3.45 27.234-6.996-26.59a3.691 3.691 0 0 0-.404-.972c-.883-1.463-1.77-2.672-2.907-3.676-1.136-1.005-2.748-1.9-4.658-1.78l-15.71.992a3.691 3.691 0 0 0-.148.01z" style="font-style:normal;font-variant:normal;font-weight:400;font-stretch:normal;font-size:medium;line-height:25.27969551px;font-family:Jumpman;-inkscape-font-specification:Jumpman;letter-spacing:0;word-spacing:0;fill:none;fill-opacity:1;stroke:none;stroke-width:4.02861118;stroke-linecap:butt;stroke-linejoin:miter;stroke-miterlimit:4;stroke-dasharray:none;stroke-opacity:1" transform="translate(-30.935 -2.68)"/><path d="m64.55 57.21.256 3.69-18.087.646-.28-4.708 17.874-.599.218.557z" style="fill:#f1010e;fill-opacity:1;fill-rule:evenodd;stroke:none;stroke-width:1px;stroke-linecap:butt;stroke-linejoin:miter;stroke-opacity:1" transform="translate(-30.935 -2.68)"/><path d="m102.16 12.42-55.037 2.166c-2.62.103-3.878 1.465-3.775 4.086l3.713 94.348c.074 1.904.822 3.078 2.226 3.544L45.59 18.396c-.094-1.755.754-2.16 3.271-2.255l56.205-2.082.652-.021-.19-.299-.327-.385c-.682-.67-1.69-.987-3.04-.934z" style="font-style:normal;font-variant:normal;font-weight:400;font-stretch:normal;font-size:medium;line-height:25.27969551px;font-family:Jumpman;-inkscape-font-specification:Jumpman;letter-spacing:0;word-spacing:0;fill:#bb000f;fill-opacity:1;stroke:none;stroke-width:4.02861118px;stroke-linecap:butt;stroke-linejoin:miter;stroke-opacity:1" transform="translate(-30.935 -2.68)"/><path d="M141.571 11.612c-1.853.192-3.77 1.796-4.427 3.36-.657 1.563-.683 3.005-.583 4.598a3.691 3.691 0 0 0 .105.671l23.618 93.115a3.691 3.691 0 0 0 .388.95c1.953 3.358 5.594 5.635 9.405 5.472a3.691 3.691 0 0 0 .078-.005l13.668-.863a3.691 3.691 0 0 0 .07-.004c3.888-.32 7.346-2.997 8.883-6.627a3.691 3.691 0 0 0 .265-.991l11.716-95.347a3.691 3.691 0 0 0 .02-.68c-.107-1.693-.424-3.338-1.562-4.851-1.138-1.514-3.297-2.428-5.077-2.37a3.691 3.691 0 0 0-.109.007L182.948 9c-1.885.119-3.419 1.196-4.436 2.354-1.018 1.158-1.735 2.49-2.402 4.065a3.691 3.691 0 0 0-.266.976l-3.45 27.234-6.996-26.59a3.691 3.691 0 0 0-.404-.972c-.883-1.463-1.77-2.672-2.907-3.676-1.136-1.005-2.748-1.9-4.658-1.78l-15.71.992a3.691 3.691 0 0 0-.148.01z" style="font-style:normal;font-variant:normal;font-weight:400;font-stretch:normal;font-size:medium;line-height:25.27969551px;font-family:Jumpman;-inkscape-font-specification:Jumpman;letter-spacing:0;word-spacing:0;fill:#fad60b;fill-opacity:1;stroke:none;stroke-width:.5;stroke-linecap:butt;stroke-linejoin:miter;stroke-miterlimit:4;stroke-dasharray:none;stroke-opacity:1" transform="translate(-30.935 -2.68)"/><path d="M189.38 110.84q-1.715 4.05-5.793 4.387l-13.664.863q-3.853.164-6.064-3.638l-23.62-93.117q-.243-3.848 1.716-4.05l15.705-.992q1.885-.12 4.174 3.678l11.829 44.98 5.84-46.096q1.715-4.05 3.678-4.174l15.078-.952q2.596-.086 2.839 3.762z" style="font-style:normal;font-variant:normal;font-weight:400;font-stretch:normal;font-size:medium;line-height:25.27969551px;font-family:Jumpman;-inkscape-font-specification:Jumpman;letter-spacing:0;word-spacing:0;opacity:1;vector-effect:none;fill:url(#w);fill-opacity:1;stroke:none;stroke-width:4.02861118px;stroke-linecap:butt;stroke-linejoin:miter;stroke-miterlimit:4;stroke-dasharray:none;stroke-dashoffset:0;stroke-opacity:1" transform="translate(-30.935 -2.68)"/><path d="m157.66 14.293-15.705.992c-1.305.135-1.877 1.484-1.715 4.049l23.62 93.117a9.107 9.107 0 0 0 1.15 1.586l-23.655-95.149c-.407-2.018.54-2.1 1.208-2.174l17.43-1.154c-.542-.489-.58-.671-1.185-.97-.365-.181-.717-.302-1.148-.297z" style="font-style:normal;font-variant:normal;font-weight:400;font-stretch:normal;font-size:medium;line-height:25.27969551px;font-family:Jumpman;-inkscape-font-specification:Jumpman;letter-spacing:0;word-spacing:0;opacity:1;vector-effect:none;fill:#bb000f;fill-opacity:1;stroke:none;stroke-width:4.02861118px;stroke-linecap:butt;stroke-linejoin:miter;stroke-miterlimit:4;stroke-dasharray:none;stroke-dashoffset:0;stroke-opacity:1" transform="translate(-30.935 -2.68)"/><path d="m198.258 11.729-15.076.953c-1.31.082-2.535 1.473-3.678 4.173l-5.841 46.097.936.006 6.264-46.115c.297-.86 1.226-2.32 2.013-2.607l17.716-1.08c-.29-.62-1.035-1.47-2.334-1.427zM238.807 11.496l-5.191.341s-3.296.6-4.915 1.022c-.811.212-1.619.45-2.398.758-2.27.898-4.533 1.875-6.606 3.165-2.671 1.662-5.053 3.76-7.42 5.833a8.68 8.68 0 0 0-.773.754c-3.418 3.844-6.25 7.068-8.965 12.088-.114.21-.222.424-.334.635l-5.19 42.78c.265 1.212.554 2.41.89 3.587l.439-2.924 5.127-42.603c.129-1.3 1.49-3.223 2.606-4.915 1.833-2.778 3.729-5.635 6.585-8.165 4.09-4.138 6.96-6.583 12.441-8.734.516-.202 3.22-1.194 3.754-1.37 0 0 1.497-.244 2.253-.3 6.239-.467 18.766-.317 18.766-.317-.209-.066-.237-.082-1.544-.424l-3.954-.817zM238.914 29.2c.396.046.685.254.98.584.345.387.561.698.88 1.384l6.372 19.67h7.377l-5.545-.006-7.222-20.332c-.354-.86-.756-1.21-1.197-1.284zm28.43 21.712c.244.155.969.6.969.871 0 .682-.656 1.68-1.967 2.99L252.182 65.08l8.263 25.1c.42.891.63 1.549.63 1.968 0 .42-.21.63-.63.63-.42 0-1.077-.21-1.968-.63l-19.67-16.603-19.672 16.603c-.59.278-.923.42-1.306.514l-.702.128 1.203.07 2.222-.21 18.362-15.236 2.212.13 17.437 14.7c2.106.986 3.862.772 3.333-1.29l-7.894-25.425 13.78-10.443c.887-.673 2.872-3.979.815-4.16zM313.434 33.285c2.615.38 4.875 1.561 6.767 3.569 2.24 2.374 3.31 5.188 3.215 8.439-.096 3.25-1.33 5.995-3.705 8.234-2.375 2.24-5.189 3.31-8.44 3.215l-11.76-.322-.05.88 14.263.372c2.408-.093 10.844-2.79 11.07-12.468.155-6.627-4.083-11.722-11.36-11.919zM317.81 73.61c-1.333-.724-4.459-.91-4.459-.91 1.055.392 2.117.656 3.403 1.5.72.47 1.781 1.389 2.29 2.002.749.9 1.526 1.752 2.056 2.81.472.943.845 2.001 1.03 3.084.141.827.155 1.66.13 2.521l-.059 1.967-.75 25.56c-.05 1.726.495 2.889 1.613 3.512l.878-31.259c.068-2.394-.988-4.783-2.233-6.829-.963-1.582-2.27-3.076-3.898-3.959zM357.738 13.242l-11.789.559c-2.62.124-3.868 1.495-3.744 4.115l.453 9.564c2.85 4.99 4.246 10.577 4.07 16.53a29.358 29.358 0 0 1-2.736 11.576c.896 18.732 1.88 39.594 2.686 56.644.079 1.672.672 2.78 1.767 3.334l-2.935-59.628s2.103-3.211 2.375-12.227c.272-9.016-3.701-16.5-3.701-16.5l-.45-10.312c-.087-.468.94-1.38 1.609-1.367l15.949-.727c-.619-.952-1.71-1.648-3.554-1.56zM498.968 77.894c3.038 5.346 1.831 11.653-2.812 15.475-2.378 1.845-5.68 2.852-8.672 2.52l-4.681-.52c-.57-.063-.482 1.184.09 1.23l2.68.22c1.762.145 3.495.405 5.301.089 9.464-1.565 13.664-11.65 9.655-18.638-.94-1.352-3.695-2.943-3.695-2.943s1.781 1.96 2.134 2.567zM463.809 54.738c-.29-.011-.598 0-.924.033l-31.283 3.266.351 2.14 34.828-3.573c-.532-1.186-1.522-1.808-2.972-1.866zM475.654 93.07c-.29-.011-.597 0-.924.034l-38.88 3.994.357 2.029 42.483-4.324c-.562-.967-1.84-1.548-3.036-1.733z" style="fill:#bb000f;fill-opacity:1;fill-rule:evenodd;stroke:none;stroke-width:1px;stroke-linecap:butt;stroke-linejoin:miter;stroke-opacity:1" transform="translate(-30.935 -2.68)"/></svg>