<svg xmlns="http://www.w3.org/2000/svg" viewBox="0 0 239.876 106.358"><path fill="#f1e87a" d="M239.641 58.967c.097-.8-.251-1.644.235-2.406v2.4c-.076.108-.154.11-.235.006z"/><path fill="#f5ed99" d="M239.876 49.601c-.47-.766-.155-1.605-.225-2.409.079-.101.154-.098.225.009v2.4z"/><path fill="#f7f2ba" d="M239.876 47.201a3.384 3.384 0 0 1-.225-.009c.081-.556-.257-1.169.225-1.671v1.68z"/><path fill="#f7f2b8" d="m239.671 61.856-.016-1.446c.07-.116.144-.119.222-.009v1.44c-.062.103-.131.108-.206.015z"/><path fill="#fbf9e1" d="M239.671 61.856a7.13 7.13 0 0 0 .206-.015v1.44a4.68 4.68 0 0 1-.205.008l-.001-1.433z"/><path fill="#f5ee9c" d="M239.876 60.401a4.118 4.118 0 0 0-.222.009l-.013-1.443c.078-.004.157-.006.235-.005v1.439z"/><path fill="#efe464" d="M37.465 1.392h18.904c-1.498.994-2.753 1.87-4.055 2.671-.715.44-.906.884-.706 1.755 2.542 11.038 5.032 22.088 7.537 33.134.088.386.199.767.296 1.141.395.016.376-.266.427-.476 2.717-11.326 5.427-22.654 8.156-33.977.161-.668.073-1.081-.57-1.465-1.367-.817-2.673-1.736-4.215-2.752h13.6c-1.463.978-2.787 1.904-4.154 2.76-.594.372-.886.849-1.049 1.509-3.417 13.826-6.834 27.652-10.304 41.464-.296 1.18.03 2.213.269 3.276 2.562 11.402 5.159 22.796 7.738 34.193a2284.24 2284.24 0 0 1 3.525 15.763c.201.917.594 1.559 1.435 2.037 1.273.724 2.471 1.58 3.965 2.552H59.256c1.549-1.026 2.861-1.948 4.228-2.778.619-.376.77-.744.608-1.455-2.864-12.642-5.698-25.29-8.541-37.936-.095-.422-.21-.839-.401-1.6-.628 2.423-1.179 4.532-1.721 6.643-2.766 10.782-5.504 21.571-8.328 32.338-.314 1.196-.092 1.801.943 2.377 1.181.658 2.271 1.477 3.645 2.39H36.46c.777-.785 1.704-1.307 2.605-1.774 1.729-.895 2.497-2.239 2.967-4.131 3.624-14.596 7.352-29.166 11.109-43.729.348-1.348-.015-2.53-.284-3.749-3.399-15.382-6.834-30.757-10.229-46.14-.13-.589-.428-.897-.871-1.188-1.354-.89-2.7-1.793-4.292-2.853zm79.798 103.646h-18.13c1.526-1.012 2.756-1.897 4.054-2.665.822-.486 1.092-1.073 1.088-2.027-.039-8.358-.043-16.716.001-25.074.006-1.106-.304-1.432-1.412-1.416-4.198.061-8.398-.001-12.597.043-.99.01-1.23-.245-1.022-1.236 4.485-21.343 8.94-42.693 13.404-64.041.449-2.147.939-4.285 1.37-6.435.11-.547.273-.869.901-.865 2.639.018 5.279.025 7.918-.004.909-.01.59.496.456.927-1.194 3.85-2.398 7.697-3.595 11.546-5.769 18.56-11.538 37.119-17.304 55.679-.092.298-.147.607-.242 1.009 3.873 0 7.668-.001 11.462.001.884 0 .627-.669.628-1.125.014-5.479.034-10.958-.014-16.436-.009-.99.252-1.606 1.12-2.135 2.38-1.449 4.702-2.996 7.058-4.511.384.453.221.909.221 1.32.012 7.198.033 14.397-.018 21.595-.008 1.076.29 1.376 1.341 1.317 1.595-.09 3.199.009 4.797-.038.745-.022.966.246.948.967-.074 2.998.364 2.379-2.348 2.441-1.239.028-2.48.031-3.719-.005-.682-.02-1.009.138-1.007.92.022 8.718.019 17.436.003 26.154-.001.615.289.936.757 1.239 1.331.862 2.643 1.754 3.962 2.634-.026.074-.054.147-.081.221zm122.613-59.997c-.209-.109-.225-.308-.236-.509-.244-4.823-.61-9.634-1.189-14.43-.806-6.671-2.003-13.254-4.369-19.57-1.167-3.114-2.495-6.163-4.962-8.524-2.647-2.533-6.025-2.315-8.393.466-1.707 2.005-2.912 4.296-3.888 6.712-2.058 5.095-3.243 10.417-4.146 15.825-1.316 7.891-1.974 15.834-2.101 23.825-.126 7.953.028 15.892.923 23.811.695 6.146 1.418 12.282 2.939 18.288 1.073 4.235 2.455 8.362 5.044 11.959 3.06 4.251 7.21 4.393 10.563.365 3.015-3.623 4.491-7.984 5.717-12.42 2.49-9.008 3.434-18.247 3.892-27.549.165-.474.045-.965.081-1.446V58.96c.07-.798-.148-1.611.124-2.398v-6.96c-.275-.771-.053-1.569-.124-2.351.062-.575-.139-1.169.124-1.729l.001-.481zm-9.177 25.57c-.076 5.271-.184 10.546-.487 15.807-.257 4.449-.434 8.934-1.839 13.234-.299.916-.661 1.795-1.296 2.544-1.319 1.557-3.08 1.545-4.377-.075-.931-1.162-1.237-2.591-1.501-3.998-.766-4.087-1.04-8.233-1.206-12.375-.415-10.342-.548-20.691-.468-31.041 0-4.797-.059-9.596.014-14.392.098-6.43.2-12.863.486-19.287.203-4.576.407-9.17 1.38-13.674.219-1.016.565-1.994 1.173-2.863 1.254-1.791 3.196-1.948 4.65-.331 1.377 1.532 1.721 3.5 2.049 5.415.822 4.805 1.089 9.663 1.274 14.532.349 9.191.189 18.384.221 27.576.022 6.309.019 12.619-.073 18.928zm-71.671-16.269c.109-6.978-.293-13.748-.956-20.509-.662-6.759-1.62-13.46-3.637-19.967-1.185-3.823-2.493-7.615-5.087-10.758-3.296-3.993-7.024-3.866-10.104.273-2.823 3.793-4.266 8.193-5.445 12.685-2.802 10.676-3.71 21.6-4.024 32.582a172.26 172.26 0 0 0 .868 22.968c.668 6.348 1.4 12.685 2.938 18.89 1.138 4.589 2.571 9.076 5.529 12.891 2.696 3.476 6.464 3.697 9.57.558 2.006-2.027 3.245-4.535 4.303-7.136 2.883-7.088 4.138-14.559 5.02-22.095a153.187 153.187 0 0 0 1.025-20.382zm-8.969 6.894c-.069 7.59-.198 15.182-.495 22.766-.19 4.854-.415 9.73-1.6 14.485-.311 1.247-.725 2.453-1.486 3.507-1.316 1.822-3.385 1.807-4.661-.042-1.277-1.85-1.478-4.036-1.749-6.157-.685-5.349-.857-10.734-1.057-16.122-.308-8.313-.096-16.626-.146-24.938 0-7.036-.09-14.074.027-21.109.102-6.106.196-12.22.706-18.311.236-2.815.403-5.651 1.148-8.403.231-.854.521-1.678 1.047-2.4 1.461-2.004 3.639-1.979 5.015.078 1.165 1.741 1.534 3.762 1.837 5.771.906 6.011 1.125 12.072 1.253 18.141.23 10.912.26 21.823.161 32.734zm47.846-31.02c-.805-6.669-1.976-13.252-4.338-19.57-1.194-3.193-2.534-6.316-5.084-8.717-2.369-2.231-4.919-2.338-7.416-.251-2.375 1.986-3.655 4.725-4.774 7.507-3.386 8.418-4.612 17.308-5.517 26.25a151.5 151.5 0 0 0-.753 17.736c-.107 7.325.347 14.407 1.169 21.476.636 5.47 1.345 10.924 2.707 16.265 1.079 4.23 2.452 8.363 5.034 11.963 3.101 4.322 7.398 4.398 10.724.234 2.885-3.611 4.359-7.878 5.562-12.237 2.908-10.535 3.776-21.344 4.062-32.209.25-9.512-.235-18.996-1.376-28.447zm-7.777 41.299c-.136 6.146-.144 12.303-.696 18.432-.314 3.487-.545 7.007-1.837 10.328-.116.297-.23.598-.38.878-.625 1.17-1.399 2.232-2.885 2.173-1.57-.062-2.39-1.197-2.916-2.504-.796-1.978-1.059-4.09-1.281-6.19-.843-7.953-.912-15.938-1.064-23.925-.101-5.315-.057-10.629-.107-15.943 0-4.278-.056-8.557.013-12.833.111-6.91.21-13.823.493-20.727.189-4.616.414-9.249 1.373-13.796.232-1.1.621-2.154 1.292-3.07 1.176-1.605 3.054-1.733 4.426-.306 1.469 1.529 1.82 3.539 2.155 5.491.813 4.725 1.092 9.502 1.278 14.292.36 9.271.197 18.544.228 27.816.021 6.628.054 13.259-.092 19.884zM14.943 106.358C6.69 106.358 0 82.549 0 53.179S7.847.016 16.1.016V.015c2.028-.142 4.072.715 5.555 2.536.86 1.057 1.474 2.262 2.213 3.47.541-.379.638-.96.906-1.421.817-1.405 1.262-3.027 2.459-4.21.376.187.279.542.279.844.003 10.598 0 21.196-.004 31.793 0 .077-.034.154-.065.286-.4-.177-.368-.546-.445-.858-1.838-7.475-3.659-14.954-5.53-22.42-.478-1.905-1.252-3.714-2.415-5.318-1.658-2.286-4.005-2.229-5.566.141-1.445 2.193-1.893 4.731-2.306 7.248-.97 5.918-1.268 11.894-1.522 17.881-.543 12.828-.453 25.659-.362 38.49.039 5.512.21 11.027.48 16.533.215 4.378.478 8.769 1.626 13.037.364 1.354.824 2.673 1.653 3.828 1.227 1.709 3.111 1.886 4.623.412 1.618-1.578 1.969-3.696 2.352-5.776.487-2.642.511-5.32.509-7.999-.009-12.318-.014-24.635.018-36.953.002-.876-.279-1.382-1.004-1.825-1.32-.805-2.585-1.699-4.185-2.763h5.077c2.48 0 4.959.027 7.438-.016.782-.014 1.122.22 1.013 1.014-.027.196-.004.399-.004.599 0 18.716.001 37.433-.008 56.149 0 .453.153.944-.332 1.638l-4.904-14.073c-.41 2.15-.642 4.293-1.221 6.37-.662 2.372-1.522 4.654-3.522 6.26-1.237.993-2.613 1.398-3.961 1.238" style="fill:#e2c817;fill-opacity:1"/></svg>