<svg xmlns="http://www.w3.org/2000/svg" xml:space="preserve" width="566.926" height="231.074" viewBox="0 -0.001 566.926 231.074"><path fill="#F50005" d="m395.873 171.932-.035-.033c-.254 1.459-.379 2.957-.787 4.369-.715 2.463-1.612 4.873-2.418 7.312-.953 2.896-1.864 5.808-2.842 8.696-.959 2.834-2.01 5.639-2.955 8.478-.529 1.601-4.877 15.513-5.637 21.11-.377 2.777.233 5.184 1.75 7.453.908 1.361 2.073 1.974 3.346 1.688 1.16-.261 2.131-1.585 2.309-3.026.085-.688.266-1.371.479-2.033.189-.604.487-.588.887-.09.468.58.965 1.16 1.543 1.623 1.332 1.063 2.169.813 2.63-.854.19-.688.062-1.466.058-2.203-.005-.632-.123-1.273-.043-1.895.189-1.428.334-2.883.737-4.258 1.128-3.847 2.209-7.72 3.623-11.463 1.541-4.086 3.54-7.994 5.142-12.06a129.555 129.555 0 0 0 3.705-10.771c1.025-3.459 2.78-12.144 2.873-12.832.354-2.631 1.359-5.209 3.953-6.045 4.104-1.322 8.27-1.813 12.555-1.648 2.814.107 5.463.955 7.807 2.322 3.23 1.889 4.365 5.015 3.811 8.694a25.536 25.536 0 0 1-.879 3.886c-.287.898-1.268 4.103-3.775 6.976-2.512 2.872-8.076 8.265-10.564 10.188-2.487 1.926-5.041 3.525-6.027 4.148-2.021 1.275-4.102 2.462-6.14 3.712-2.056 1.259-4.146 2.47-6.116 3.849-2.027 1.422-4.744 2.138-5.355 5.116-.308 1.501-1.526 2.729-.885 4.537.411 1.156.297 2.513-1.195 3.261-.45.228-.784.924-.924 1.469-.146.57-.164 1.313.103 1.789.129.231 1.106.19 1.58-.008 1.97-.83 8.755-3.793 12.786-5.972 4.033-2.178 13.305-8.181 16.422-10.644 3.119-2.459 7.658-5.672 9.131-6.971 2.27-2.005 4.596-3.951 6.73-6.088 2.357-2.357 6.549-7.886 8.285-15.525 1.736-7.641.449-13.516-1.289-16.482-2.506-4.271-6.146-7.313-11.072-8.86-4.928-1.55-7.008-2.123-12.498-2.563-5.492-.438-8.756.271-10.594.405-1.076.08-1.778-.244-1.85-1.449-.074-1.31-.994-2.036-2.033-2.498a130.673 130.673 0 0 0-7.145-2.925c-1.398-.525-2.281-.008-2.607 1.454a146.99 146.99 0 0 0-1.388 6.932c-.201 1.168-.634 1.918-1.865 2.31-3.381 1.075-6.151 1.695-15.993 6-2.24.818-3.979 2.334-5.17 4.393-.922 1.594-.591 3.342.701 4.545.62.574 1.627 1.045 1.787 1.722.156.659-.561 1.515-.864 2.296-.513 1.326-.29 2.344.847 3.323.963.827 2.026.808 3.136.165.598-.348 6.45-2.688 8.688-3.684 1.143-.509 2.354-.897 3.541-1.341zm-21.774-13.621c.021-1.129-.438-1.356-.77-1.977-.811-1.509-2.244-1.245-3.565-1.086-.962.116-1.746.009-2.53-.65-1.55-1.299-3.33-1.934-5.377-1.351-.716.204-7.453 1.821-12.748 4.06-5.295 2.236-9.045 4.717-11.938 7.365-2.27 2.077-4.268 4.323-5.988 6.85-1.771 2.595-3.023 5.402-3.813 8.451-.894 3.445-1.525 9.529-1.529 10.483-.006.954-.088 3.742.156 5.575.265 1.973.772 3.933 1.385 5.828.457 1.416 1.156 2.774 1.914 4.063.969 1.646 1.457 2.784 3.199 4.755 1.742 1.97 4.846 4.37 7.112 5.767 2.269 1.397 5.246 2.683 10.327 3.146 5.08.467 7.82.695 13.707-.474 5.885-1.169 14.063-6.937 16.539-10.323.384-.523.42-1.456.314-2.154-.283-1.914-.646-3.787.437-5.596.208-.35.229-.831.256-1.257.063-1.003-.944-1.161-1.383-1.002s-.979.465-2.479 2.175-4.957 4.991-5.652 5.55c-.694.558-2.279 1.623-3.395 2.158-.984.472-3.773 1.867-6.851 2.408-3.38.592-7.104.284-9.155-.265-3.922-1.051-5.893-1.934-8.339-4.021-3.267-2.79-4.653-6.496-5.242-10.494-.387-2.628-.595-3.156.418-7.995 1.013-4.838 3.457-9.62 8.04-13.341 4.582-3.72 12.266-5.503 15.521-6.298 2.496-.609 5.07-.849 7.406-2.075 1.111-.585 1.765-1.613 1.48-2.561-.43-1.433.18-2.188 1.104-2.866.987-.72 1.418-1.72 1.439-2.848z"/><path fill="#FFF" d="M380.898 144.338c-.008.031-.018.062-.023.093l.063-.021a1.465 1.465 0 0 0-.086-.03l.046-.042z"/><path d="m395.873 171.932-.035-.033.035.033z"/><g fill="#F50005"><path d="M88.705 89.429c2.707-8.077 5.128-16.25 7.654-24.388.623-2.007 1.207-4.026 1.81-6.039.077-.437 2.299-8.207 3.145-11.702 1.013-4.181 2.102-8.379 2.608-12.635.313-2.637 1.473-3.998 3.75-4.699 1.329-.41 2.062-1.088 3.439-1.189 1.13-.083 1.917-.365 2.438-1.404.442-.879 1.583-1.424 2.174-2.207.438-.581.993-1.272 1.631-1.465 1.825-.552 3.771-.727 5.576-1.324 2.277-.753 4.909-1.296 6.565-2.823 1.695-1.562 3.268-2.413 5.455-2.58 2.026-.155 3.788-.937 4.441-3.059.406-1.316 1.411-1.907 2.428-2.562.93-.187 1.446-.56 1.56-1.676.114-1.116-4.076-.494-4.353-.774-1.289-1.309-1.165-1.569.532-2.211 1.106-.417 2.319-.549 3.484-.809l2.118-.506c1.674-.218 3.345-.454 5.021-.651 2.903-.343 5.813-.637 8.711-1.011.678-.088 1.405-.296 1.963-.669.514-.343 1.217-1.55 1.235-2.14.018-.591-1.145-.925-1.702-.906-2.317.078-4.643.239-6.938.563-3.571.509-7.128 1.131-10.676 1.785-2.959.546-5.898 1.205-8.846 1.813-.413.049-5.73 1.288-6.11 1.396l-3.419.813-.253.036c-1.115.196-2.229.395-3.344.592-3.459.717-6.912 1.468-10.379 2.14-1.879.364-3.803.832-5.673 1.232-2.667.569-5.282 1.067-7.957 1.592-5.917 1.16-11.856 2.201-17.787 3.29-.57.02-21.061 3.659-31.962 3.978-2.527.074-5.065.031-7.599.011-.876-.008-1.577.139-1.857 1.146-.359 1.291-.064 1.712 1.435 2.307.674.27 1.23.838 1.84 1.27-.702.47-1.356 1.053-2.122 1.372-.523.218-1.207.018-1.805.104-.479.069-1.019.181-1.387.461-1.604 1.222-1.113 2.662 1.234 3.734 3.116 1.422 3.301 2.088 1.358 4.904-.375.257-1.125.497-1.124.771s.67.641 1.065.753c.335.097.758-.112 1.142-.187.511.565 1.199 1.053 1.495 1.715.628 1.403 1.541 1.96 3.087 1.839 4.317-.336 8.681-.304 12.953-.923 4.467-.648 8.802-2.063 13.348-2.465 3.71-.327 7.386-1.05 11.078-1.595.997-.147 1.572.232 1.537 1.297-.046 1.414.082 2.919-.171 4.238-.252 1.319-1.027 5.701-1.729 8.792-.929 4.097-2.281 8.71-2.307 8.952l-1.227 4.235C75.909 66.27 72.663 77.04 72.4 78.112c-1.209 4.92-6.452 17.542-7.21 19.176-1.744 3.757-3.497 7.534-5.607 11.09-2.081 3.506-4.603 6.751-6.94 10.104-1.797 2.577-6.368 7.089-6.427 7.156-6.815 7.775-14.552 9.43-14.729 9.491-5.069 1.755-9.908 1.714-14.877-.8-2.238-1.134-4.62-2.132-6.563-3.661-2.08-1.639-4.334-3.746-6.244-5.45-.572-.511-.979-1.245-1.766-1.658-1.164-.607-1.973-.083-2.031 1.262-.025.586.019 1.275.305 1.757 2.187 3.673 4.621 7.207 8.297 9.524 3.568 2.251 8.954 4.821 12.535 6.26 3.581 1.438 6.438 2.407 9.203 2.972 2.765.563 7.439 1.352 11.344.194 3.905-1.154 8.233-2.938 14.265-7.859 6.032-4.923 18.136-18.741 22.798-27.327 2.006-3.693 3.815-7.493 5.632-11.283 1.521-3.174 3.207-6.311 4.32-9.631zM268.584 99.115l-.009.007-.009.01z"/><path d="m164.388 26.515-1.842-.464-.07-.018c-.123-1.697-.195-3.399-.389-5.089-.105-.916.234-2.162-1.266-2.371l-.013.017c-.955-.793-3.021-.157-3.021-.157s-2.075.385-2.496 1.476c-1.29.167-2.578.461-3.869.475-4.37.049-4.357.016-5.958 4.056-.204.516-.627.943-.949 1.41-.364-.42-.959-.796-1.05-1.269-.306-1.579-1.322-1.887-2.67-1.771-1.331.115-1.347 1.094-1.625 2.133-.673 2.513-1.337 5.151-3.56 6.819-2.683 2.015-3.753 4.88-4.634 7.908-.666 2.29-.908 4.781-3.128 6.339-.311.219-.607 1.712-.508 1.909-1.891 2.525-7.695 11.103-8.543 12.803-.928 1.862-2.044 3.721-2.474 5.711-.354 1.64-.818 3.031-1.975 4.203-2.25 1.231-1.709 3.433-1.875 5.389-.379.608-.757 1.22-1.136 1.827-.282.404-.564.81-.847 1.213-.142.153-.284.308-.427.459-.382.444-.437 1.003-1.148 1.334-.711.33-3.206 1.232-4.852 1.698-2.5.706-3.039 1.047-2.958 2.394.11 1.837 1.483 1.896 2.844 1.981 1.139.072 1.376.771.952 1.682-1.32 2.829-2.617 5.676-4.063 8.44-3.408 6.517-10.534 20.046-10.624 20.326l-1.952 4.938-.015.634-.78 1.07-.438.713-.129.604c-.719 1.32-1.785 2.57-2.066 3.979-.313 1.564-.886 2.906-1.883 4.011-2.11 2.338-1.343 4.884-.759 7.435.189.825.91.913 1.356.379a15.695 15.695 0 0 0 1.942-2.995c.581-1.152.915-2.431 1.494-3.586.17-.338.844-.646 1.221-.583.27.047.683.811.592 1.128-.323 1.136-.871 2.205-1.248 3.327-.096.286-.054.938.198 1.022s.847-.187.964-.428c.744-1.537 1.372-3.132 2.091-4.682a405.657 405.657 0 0 1 3.875-8.129c.138-.281.668-.622.887-.549.28.094.487.559.617.902.1.268.081.605.033.897-.52 3.136-1.06 6.267-1.578 9.401-.028.168.086.513.143.516.269.009.69.016.782-.14.288-.489.462-1.049.662-1.587.898-2.42 1.087-5.19 3.566-6.818.443-.291.857-1.01.854-1.528-.011-2.255 5.243-13.497 5.869-14.699l.013-.014c.494-1.241 6.413-13.402 7.575-16.518.144-.386 2.029-4.518 2.158-4.686l2.499-5.464c1.258-.618 2.477-1.332 3.778-1.837 6.636-2.578 22.214-8.974 22.989-8.788.008.198.015 1.693.022 1.892l.045 1.224c-.011 2.81-.075 5.622-.017 8.431.046 2.218.609 9.441.443 10.805-.263 2.143-.349 4.146.618 6.216.898 1.921 1.28 4.052.678 6.212l-.042.063-.037 2.468v.005c.146 1.492.135 2.978 1.348 4.195.832.837 1.468 1.104 2.164.063.5-.749.797-.634 1.331-.039 1.354 1.514 2.107 3.141 1.721 5.258-.126.69.188 1.534.511 2.206.179.373.481 1.058 1.209.797.728-.262.659-.958.718-1.467.117-.997-.036-2.026.064-3.026.088-.878.267-1.777.605-2.586.197-.47.739-.899 1.226-1.087.175-.065.71.585.962.984.317.505.417 1.164.779 1.62.872 1.099 2.079.897 2.479-.435a8.639 8.639 0 0 0 .345-2.681c-.1-3.739-.428-7.479-.39-11.213.076-7.488.345-14.977.519-22.463.171-7.39.292-14.778.499-22.166.063-2.213.478-4.419.498-6.63.065-7.197.712-14.334 1.852-21.437.34-2.113-.027-4.117-1.165-5.955l-.121-.042zm-21.865 39.674c-1.215.496-2.51.797-3.727 1.291-.511.208-1.667 1.024-1.667 1.024s-.484.575-.625.762c-.875.419-1.753 1.191-2.627 1.188-2.187-.01-3.671.924-4.786 2.672-.272.427-.468.932-.825 1.267-.252.236-.762.401-1.074.313-.28-.082-.652-.573-.626-.851.083-.885.179-1.822.542-2.616 1.471-3.208 2.957-6.415 4.598-9.537 2.585-4.918 5.299-9.769 7.959-14.646.438-.802.762-1.657 2.041-1.31.432.116 1.058-.293 1.531-.572.455-.268.825-.678 1.232-1.025.102.588.289 1.177.292 1.766.02 5.581-.053 11.163.04 16.742.031 1.81-.732 2.9-2.278 3.532zM279.894 21.702l-1.825-.693a.577.577 0 0 0-.144-.387c-.027-.03 1.821-2.268.771-3.355-.283-.221-1.861-.766-2.144-.986-.143-.885-.308-1.766-.423-2.652-.188-1.43-1.061-1.784-2.337-1.546l-1.239.878-.182-.003-1.928-.153c-1.388.413-.833 1.151-2.22 1.564-.316.23-.631.462-.947.691-.949.806-1.616 1.264-2.777 2.873-1.162 1.61-2.497 4.235-3.306 5.694-.809 1.458-4.134 10.116-4.188 10.222-.266.245-5.822 12.536-7.656 16.655-1.428 3.204-3.306 7.048-4.701 10.91-1.395 3.861-2.736 9.753-3.05 10.117l-.315.802-.414 1.229-.163 1.21c-.395 2.214-.99 5.242-1.414 6.594-.424 1.351-1.334 2.876-1.85 4.377-.421 2.863-.911 5.722-1.239 8.597-.251 2.203-.296 4.429-.433 6.645l.262 2.409c.405 1.434.498 2.114 1.214 4.299.717 2.186 3.737 4.235 3.737 4.235 3.567 2.001 9.577 1.997 12.284.14 2.708-1.855 4.567-3.097 5.734-4.121 1.167-1.022 7.067-5.706 9.859-8.82 2.792-3.115 3.842-4.612 4.668-5.436.417 1.438.012 2.688-.882 3.824l-.574 1.638c-.149 2.485-.415 4.97-.423 7.453-.012 3.343 1.323 10.35 4.809 10.956 3.486.607 4.058.628 6.116-.417 1.598-.812 3.424-1.23 5.192-1.634 1.278-.291 1.712.323 1.151 1.54-.635 1.376-1.369 2.712-2.137 4.021-3.061 5.235-6.102 10.481-9.228 15.68-1.244 2.067-.536 2.351 1.147 2.376.302.005-.303 1.687-.253 2.247.16 1.783 1.03 2.319 2.508 1.287.865-.606 1.524-1.567 2.135-2.465.619-.907 1.014-1.97 1.63-2.881.115-.172 1.047-.102 1.203.129.39.563-.209 1.92 1.093 1.682.616-.112 1.108-1.002 1.618-1.572.336-.377.58-.832.904-1.221.543-.657 1.057-.902 1.617.049.572.976 1.412.761 2.006.094.938-1.053 1.885-2.147 2.553-3.377 1.775-3.282 3.445-6.625 5.074-9.983.59-1.218 1.229-2.125 2.74-1.73 1.268.332 1.814-.257 2.219-1.397.572-1.619 1.203-3.239 2.025-4.741 2.709-4.953 5.521-9.851 8.282-14.774 2.22-3.958 4.422-7.927 6.627-11.892 1.188-2.137 2.116-4.447 3.551-6.44 1.882-2.614 5.517-3.16 6.646-3.041s2.336-.563 2.854-1.089c.52-.525.645-.456 1.381-.931.737-.476 1.21-.868 1.563-1.125.351-.258 5.76-2.394 6.898-3.505 2.193-2.146 5.584-3.394 8.612-3.633.286 1.394.36 2.904.375 4.325.028 3.19-.038 6.383-.063 9.574l-.064 1.256c-.826 2.05.054 3.904.592 5.826.256.91.52 2.065.182 2.851-1.117 2.576-.59 5.196-.535 7.797.021 1.031.423 2.082 1.812 1.942 1.146-.115 1.322.49 1.399 1.438.15 1.813.425 3.613.652 5.419.213 1.7.385 3.409.67 5.099.151.896.521 1.6 1.572 2.003 1.708.657 1.76.936.917 2.65-.476.97-.97 1.823.009 2.721 1.623 1.485 1.692 3.091.471 4.86-.733 1.063-.604 1.937.789 2.25 1.178.265 1.254 1.229 1.377 2.097.102.687-.034 1.407-.086 2.112-.064.95.248 1.606 1.306 1.628.925.02 1.168-.573 1.208-1.39.223-4.437.402-8.876.729-13.304.137-1.89.939-6.364.965-6.729.188-1.853.746-6.411.841-6.841.187-4.862.627-17.301.901-21.876.277-4.573 1.724-26.028 1.82-29.256-.109-.209 2.678-20.387 3.617-24.966.939-4.579.881-8.701.768-9.172-.113-.472-2.113-1.021-3.225-1.204-2.234-.366-4.505-.501-6.762-.729-1.471-.183-1.17-1.982-1.293-2.301-.121-.316-4.904-1.686-5.861-1.186s-1.186 5.116-1.418 7.25c-.596 1.021-1.188 2.043-1.782 3.063-.438.399-.876.8-1.315 1.198l-.526.537-3.532 2.214c-1.681 1.794-3.361 3.587-5.045 5.381a53.601 53.601 0 0 0-1.217 1.528c-.914 1.26-3.063 3.995-3.082 4.212l-1.014 1.384s-.758.292-.873.502c-1.442 2.625-2.848 5.272-4.262 7.913l-1.561.756-1.406 1.09c-.188.063-3.097 3.867-4.65 5.492-.318.335-.896 1.527-.889 1.718-2.084.864-1.822 4.143-2.128 4.531-.305.39-1.713 1.043-2.077 1.727-1.059 1.979-2.334 5.488-2.82 6.128-.483.64-1.219 1.28-1.684 1.714l-.925.371c-1.334.137-1.952 1.851-2.127 2.211-.175.361-.636.428-.953.642-.229.157-.46.314-.69.474l.037-.037-1.396.609c-2.926 1.771-5.855 3.527-8.758 5.34-.247.154-.479.791-.357 1.018 1.021 1.961.385 3.508-1.063 4.915-.123.119-.213.493-.17.521.232.154.563.387.771.317 1.248-.411 2.455-.942 3.707-1.335.438-.136 1.271-.157 1.384.058.238.443.256 1.12.105 1.627-.158.555-.602 1.029-.932 1.532-1.158 1.77-4.16 5.74-4.384 6.045-1.657 2.277-3.263 4.594-4.93 6.863-.979 1.334-2.056 2.039-3.585.871-1.105-.846-2.156-1.764-3.232-2.647-.074-.617-.15-1.233-.227-1.853.433-2.356.555-4.704 1.671-6.996 1.567-3.218 2.521-6.737 3.706-10.138 1.293-3.71 2.555-7.432 3.822-11.149a347.48 347.48 0 0 0 1.896-5.715c2.139-4.263 4.305-8.511 6.396-12.795 1.101-2.251 2.067-4.567 3.096-6.854.173-.05.242-.162.214-.34 1.886-3.647 3.927-7.228 5.575-10.979.605-1.379.523-3.204.279-4.75-.115-.733-1.321-1.327-2.088-1.917-.813-.628-.803-1.186-.25-2.045 1.121-1.757.955-2.839-.25-4.288-.959-1.153-2.22-1.328-3.565-1.275-1.696.066-3.308.044-5.027-.444-1.414-.401-3.419-1.047-4.685.813l-.121.122c-.48.855-8.014 13.937-8.428 14.612l-2.133 3.27c-.545.818.709 2.127.438 2.782-.271.655-.932-.319-1.967.718-.067.021-.914 3.017-1.613 5.766-.059.234.852.476.79.719-.052.197-1.073 1.048-1.125 1.252-.521 2.045-1.103 3.697-1.656 5.827-.101.39.123.449.022.824-.096.37-.516.083-.608.435-.528 1.982-.992 4.597-1.289 5.441-.085.243.155.486.07.729-.118.336-.56.673-.677 1.01a294.194 294.194 0 0 0-3.957 12.218c-.11.276-.221.554-.333.828l-2.974 3.988-1.71 1.513c.002.112 0 .222-.009.324.009-.104.011-.212.009-.324-.44.504-.878 1.007-1.307 1.513l-.87.704a.453.453 0 0 0-.359.376l-.688.714c-.002-.025.002-.045-.002-.07l-2.036 2.04-.836.739-1.019 1.064c-.182.068-1.073.914-1.463 1.176-.179.091-.376.157-.532.275-4.497 3.393-8.99 6.791-13.483 10.19-.357.117-.35.146-1.069.357-.72.212-2.78-.084-2.846-.961s.675-5.912 1.462-8.865c1.587-5.95 3.681-11.646 6.487-17.106 1.087-2.117 2.153-5.021 3.092-6.439s2.828-3.941 3.501-5.293c.673-1.352 1.034-3.911 1.937-5.666 1.652-3.214 3.529-6.32 5.464-9.378 1.256-1.984 2.313-3.925 2.553-6.361.159-1.638.838-3.279 1.216-3.838.379-.558 1.33-1.375 1.516-1.737 1.229-2.406 2.369-4.859 3.538-7.296 0 0 2.429-3.898 3.368-5.97.954-2.103.857-2.148-1.511-3.241m-6.15 63.616c-.005.021-.006.048-.01.068.004-.021.005-.046.01-.068zm18.773-47.869.102.137-.098-.12c-.003-.006-.003-.011-.004-.017zm60.787 10.166c-.576 1.556-1.105 2.972-.965 4.649.063.77-.195 1.583-.4 2.352-.268 1.002-.913 1.505-2.021 1.404-2.918-.265-4.938 1.324-6.765 3.324-.399.438-.866.913-1.399 1.112-1.112.415-2.291.656-3.439.97.245-1.033.373-2.113.77-3.085.563-1.385 1.153-2.813 2.024-4.008 3.261-4.479 6.64-8.868 10.001-13.269 1.484-1.942 1.229-.028 1.932.14.195.047.738-.928.93-.866.248.081.326.329.438.537.104.193.186.397.247.608.146.499.187 1.03.16 1.548-.054 1.055-.457 2.025-.854 2.989-.223.531-.462 1.057-.659 1.595zM427.128 79.598c.922.304 3.033.857 4.563 1.239 1.898.476 3.566 1.271 4.912 2.783 1.734 1.948 3.611 3.771 5.412 5.664.406.426.867.86 1.1 1.385 1.535 3.473 3.475 6.506 7.354 7.803.814.271 1.48 1.01 2.188 1.564.531.42.979.962 1.549 1.328 2.367 1.531 4.811 2.951 7.137 4.547 1.65 1.131 3.154 2.478 4.723 3.727l.645.494c1.41 1.246 2.824 2.492 4.236 3.739 8.373 8.355 16.436 17.076 26.834 23.081.811.499 1.625.998 2.436 1.498.563.336 1.119.671 1.678 1.007.475.354.941.709 1.412 1.063 2.42 1.817 4.896 3.566 7.246 5.467 3.928 3.178 7.762 6.468 11.664 9.673 1.17.961 12.336 8.488 13.58 9.354.119.084 3.432.985.82-1.229-1.682-1.428-9.664-6.29-9.74-6.357-2.283-1.977-5.223-3.583-7.48-5.588-3.016-2.678-5.982-5.408-8.965-8.124-3.563-3.247-6.578-7.14-11.068-9.293a3.138 3.138 0 0 1-1.314-1.217c-2.119-3.8-5.539-6.404-8.662-9.228-2.145-1.941-4.854-3.251-7.18-5.016-2.971-2.254-5.811-4.683-8.707-7.034l-.787-.821c-1.289-1.176-2.576-2.351-3.865-3.524-2.262-1.669-4.502-3.368-6.795-4.992-.979-.694-2.088-1.207-3.104-1.856-.34-.218-1.113-.588-.199-1.015 1.467-.688.572-1.084-.102-1.598-4.088-3.125-8.078-6.331-11.492-10.245-1.275-1.462-3.232-2.327-4.867-3.48-.566-.398-1.182-.775-1.633-1.286-2.264-2.55-3.547-5.896-6.48-7.91-.295-.204-.459-.674-.566-1.054-.098-.338-.027-.721-.033-1.085.361.035.85-.067 1.066.127 1.063.936 2.023 1.979 3.07 2.928.578.522 1.213 1.242 1.898 1.34 1.336.188 2.215.602 2.732 1.95.215.555 1.064.88 1.648 1.272 1.672 1.127 3.4 2.171 5.014 3.375.908.679 1.592 1.578 2.9.763.254-.157.986.088 1.256.376 3.285 3.555 6.51 7.165 9.787 10.728 1.479 1.604 2.688 3.486 4.811 4.453 1.146.521 2.283 1.229 3.17 2.106a49.007 49.007 0 0 1 4.391 5.001c1.537 2.014 3.416 3.405 5.883 3.992.652.479 1.309.955 1.963 1.435l2.648 1.985c2.336 1.742 4.674 3.482 7.01 5.225.408.348.818.692 1.23 1.041.229.188.455.381.684.57l1.133.896c.197.121.395.241.592.36 2.828 2.268 5.688 4.495 8.473 6.809 3.732 3.098 7.377 6.301 11.123 9.378 2.795 2.297 5.943 4.166 8.326 6.963.318.373.787.775 1.236.844.738.113 1.785.261 2.225-.137.744-.675.053-1.419-.553-2.025-1.061-1.069-2.383-2.036-3.02-3.331-.607-1.235-1.396-1.942-2.561-2.338-4.768-1.62-8.152-5.135-11.701-8.429l-9.084-8.432c-.852-.799-1.701-1.6-2.553-2.396a78.758 78.758 0 0 1-.584-.572 312.41 312.41 0 0 1-1.404-1.416c-.33-.367-.66-.736-.988-1.104-1.189-1.069-2.305-2.237-3.582-3.18-1.939-1.428-4.104-2.561-5.969-4.068-1.85-1.498-3.752-3.097-5.078-5.029-1.607-2.346-3.229-4.34-6.15-4.938-.563-.115-1.037-.608-1.568-.897-2.816-1.535-4.684-4.101-6.754-6.401-2.012-2.236-3.727-4.74-5.57-7.126l-.689-.679c-1.014-1.356-1.877-2.872-3.08-4.037-1.652-1.601-3.559-2.939-5.361-4.386-1.646-1.319-1.666-2.014.143-3.162 1.01-.642 2.246-.922 3.26-1.561 6.248-3.946 12.254-8.188 16.563-14.375 1.295-2.121 2.832-4.135 3.832-6.386 1.834-4.118 2.086-8.453 1.734-12.994-.354-4.562-2-8.309-4.865-11.687-.025-.2-1.504-1.646-1.656-1.809-.572-.574-1.893-1.697-5.594-4.528-3.699-2.831-8.951-5.634-13.561-6.237s-10.969.334-13.742.586c-.465.042-1.053.292-1.324.645-1.289 1.676-3.244 1.942-5.049 2.541-1.504-.034-3.01-.134-4.512-.084-1.568.053-3.135.251-4.701.386-.564.035-2.045.225-2.22.284-.721.119-3.286.729-3.751.883-2.755 1.254-10.558 4.192-12.173 4.828-1.614.636-2.293.625-4.519 1.096-.95.203-2.051.905-3.039 1.512l-.323.24c-1.073.549-2.146 1.098-3.222 1.646l-1.746 1.053c-1.03.447-2.061.895-3.092 1.341-.381.158-1.25.326-1.789.649-.541.324-1.961 1.688-2.127 2.398-.166.713-.271 1.199-.406 1.801-.139.479-.278.959-.42 1.438l-.101.233c-.321.749-1.474 1.079-2.146 1.364-.924.393-2.104.727-2.896 1.358-.729.582-.862 1.521-1.192 2.34-.254.622-.188 1.598.09 2.2.269.588 1.424 1.675 2.047 1.771.713.107 1.793.181 2.137.323.344.144 1.385 1.291 1.32 1.771-.064.479.313 1.714 1.291 2.055.701.116 1.404.231 2.105.349l2.129.09c.168.19.336.382.506.572.305.933.803 1.577 1.924 1.296.818.002 2.359.328 3.986-.011 1.627-.339 2.428-.896 3.563-1.494 1.217-.642 2.338-1.465 3.5-2.209.674-.539 1.447-.771 1.386.416-.128 2.425-.728 4.76-2.073 6.84l-.271.656c-.623 3.263-7.894 21.354-8.864 24.997-.972 3.646-1.915 7.414-2.191 8.063-.062.264-.119.527-.183.792-.394 1.248-.87 2.477-1.146 3.748-.18.833-.65 2.85-.018 2.552 1.991-.933.706 1.212-1.08 2.423-1.072.071-3.996 6.643-4.353 10.054-.22 2.101-1.627 5.171-1.091 6.026.109.173.49.54.275.628-1.451.587-2.486 6.556-2.486 6.556s.479.262.24.502c-.24.241-.27.303-.436.448-.291.289-1.914 3.653-2.217 4.429-.127.224-1.643 3.304-1.832 3.668-1.059 1.491-1.416 5.318-1.02 7.198.264 1.242.524-.235.549 1.041.006.304-.072.482-.07.771.002.603.367 4.104.879 4.339.955.438 1.023-.592 1.334-1.164.094-.172.248-.308.375-.461-.057-.219.867-1.202 1.064-1.307.201.064-.892 3.101-.138 2.895.754-.205 2.979-7.675 3.231-8.225l1.308-2.493 1.123-.34c.386.114.771.229 1.151.344.132.203.263.407.396.61.009.592-.058 1.196.056 1.768.057.294.426.527.651.788.238-.265.478-.527.716-.793.188-.453.364-.908.557-1.359 2.021-4.781 4.047-9.561 6.064-14.341.439-1.045.7-2.159 1.162-3.197.075-.171 1.655-2.682 1.93-2.256.209.324.563.632.596.973.055.586-.19 1.204-.115 1.783.054.419.377 1.071.666 1.122.359.063.927-.293 1.195-.634.43-.544.822-1.188 1-1.853.4-1.521 2.975-14.915 6.014-27.988 2.979-12.82 7.061-26.537 7.477-26.538.937-.001 1.377-.449 1.551-1.291.414-1.834.83-3.669 1.246-5.503.217-.745.433-1.491.646-2.236l.637-1.43c.623-1.153 1.203-2.333 1.883-3.451.543-.892 1.174-1.221 1.584.13.305 1.01.98 1.185 1.438.308 1.012-1.944 2.131-3.929 2.6-6.03.346-1.543 1.068-2.295 2.299-2.872 7.314-3.424 14.484-3.115 21.494.874 2.896 1.648 4.137 3.949 3.441 6.715-.639 2.546-1.586 4.967-3.24 7.106-2.285 2.959-4.445 6.021-6.586 9.089-1.77 2.534-6.137 2.955-8.385.769-1.088-1.057-2.201-2.102-3.402-3.021-1.035-.793-2.479-.49-2.818.582-.326 1.026-.635 2.175.463 3.067 1.105.896 2.293 1.728 3.207 2.791.518.602.854 1.671.705 2.418-.104.523-1.137 1.16-1.797 1.214-1.287.104-2.605-.224-3.912-.252-.662-.015-1.643.01-1.936.41-.65.895-1.664 2.089-1.719 3.241-.075 1.472 3.552 4.653 4.356 4.919z"/><path d="M527.169 165.854c-3.201-1.912-6.449-3.746-9.654-5.65-2.051-1.221-4.324-2.229-6.029-3.828-7.809-7.329-15.4-14.891-23.182-22.247-2.99-2.826-6.084-5.574-10.191-6.856-1.813-.566-3.535-1.507-5.188-2.471-1.002-.584-2.055-1.383-2.621-2.354-2.195-3.774-5.789-6.043-9.004-8.729-3.787-2.879-6.08-7.379-10.451-9.634-.346-.179-.65-.496-.893-.813-2.879-3.755-5.967-7.303-9.523-10.456-3.664-3.249-6.721-7.165-10.977-9.771-1.004-.614-1.779-1.622-2.59-2.515-.09-.1-1.865-1.805-2.998-2.443-1.135-.641-3.775-1.312-5.687-1.896-2.364-.726-3.345-.045-3.709 2.48a18.362 18.362 0 0 0-.196 2.724c.008 1.884.319 2.172 2.284 2.441.791.107 1.821.024 2.31.487 1.217 1.156 2.572 1.112 3.973.887 1.402-.227 2.193.338 3.041 1.425 1.605 2.051 3.203 4.239 5.248 5.779 2.621 1.973 4.68 4.425 6.959 6.691 2.641 2.626 4.855 5.662 8.375 7.387 1.314.645 2.137 2.301 3.182 3.499 1.053 1.207 1.932 2.645 3.186 3.572 2.02 1.495 4.285 2.654 6.447 3.955.781.624 1.58 1.228 2.34 1.877 1.602 1.378 3.414 2.597 4.697 4.228 1.115 1.414 2.191 2.36 3.961 2.914 1.789.56 3.559 1.56 5.002 2.766 4.506 3.762 8.869 7.693 13.258 11.596 3.016 2.685 5.83 5.611 9.975 6.649.9.225 1.674 1.058 2.445 1.684 1.709 1.389 3.381 2.82 5.066 4.234.482.368.965.737 1.445 1.106.131.152.242.331.396.458 4.84 3.97 10.4 6.968 15.002 11.283.875.819 2.691.451 3.641 1.336 14.717 13.771 15.029 10.623 15.537 10.39-.277-.389-14.5-11.961-14.877-12.185z"/><path d="M504.121 163.154c-.482-1.453-1.492-2.102-2.502-2.813-1.309-.921-2.789-1.593-4.176-2.406-1.982-1.166-4.086-2.161-4.926-4.627-.227-.661-1.043-1.466-1.693-1.578-2.783-.479-4.273-3.452-7.207-3.595-.363-.017-.686-.688-1.041-1.038-.717-.706-1.502-1.351-2.154-2.112-1.463-1.713-3.967-2.394-4.727-4.845-.107-.347-.967-.535-1.51-.655-2.91-.646-5.271-2.07-6.361-4.938-.787-2.069-2.301-3.475-3.711-5.041-1.195-1.327-2.52-1.927-4.268-1.702-1.441.185-2.535-.244-3.223-1.662-.293-.604-.934-1.039-1.416-1.551l-1.986-2.275c-.168-.229-.334-.46-.502-.688a.741.741 0 0 0-.232-.503c-.281-1.754-1.121-3.128-2.705-3.999-2.482-2.061-5.105-3.973-7.41-6.215-3.111-3.028-6.107-6.168-7.135-10.703-.309-1.354-1.404-2.721-2.498-3.655a34.724 34.724 0 0 0-5.969-4.104c-3.174-1.72-6.252-3.729-9.919-4.358-1.157-.198-2.339-.659-3.144.596-.519.811.125 1.37.801 1.856.402.288.893.632 1.346.637 2.129.024 3.036 1.465 3.584 3.14.749 2.295 2.189 3.351 4.596 3.679 1.967.27 4.076.984 4.773 3.184 1.221 3.843 3.84 6.563 6.883 8.912 2.814 2.175 5.27 4.65 7.359 7.512.41.563.799 1.176 1.328 1.604 2.096 1.702 4.244 3.341 6.373 5.002l.643.597 1.842 1.84c1.609 2.943 4.078 4.729 7.344 5.441l1.27.494c.73.627 1.533 1.188 2.178 1.894 1.137 1.245 2.105 2.643 3.271 3.854.83.864 1.859 1.539 2.814 2.283 3.268 2.56 6.479 5.198 9.828 7.646 3.41 2.492 6.984 4.763 10.443 7.192 1.564 1.099 3.104 2.261 4.512 3.546 2.387 2.176 4.725 4.363 7.654 5.84 1.193.602 2.199 1.577 3.289 2.385.188.022 14.174 9.469 15.508 10.611.781.669 6.459 4.301 11.627 8.291 3.664 2.83 6.801 6.074 8.959 7.527 9.77 6.576 6.076 1.771 6.387 1.813-.279-.428-36.223-26.545-36.5-26.971-.988-1.008-7.301-4.146-7.697-5.342zM397.458 121.354c-.766 0-1.568.556-2.271 1.016-.279.182-.389.699-.475 1.087-.258 1.174-.453 2.36-.697 3.538-.338 1.623-.102 3.429-1.791 4.587-.762.522-.309 1.276.201 1.823.638.681 1.392.521 1.802-.137a27.752 27.752 0 0 0 2.088-3.997c.802-1.921 1.899-4.888 2.233-6.091.336-1.203-.726-1.826-1.09-1.826zM193.976 117.267a24.002 24.002 0 0 0 14.063 1.338c1.99-.41 2.448-.547 5.679-2.445 3.231-1.9 5.438-6.475 6.098-6.713.66-.238 2.726-.353 3.36.182.374.313 1.368 1.607 2.617 2.577 1.25.97.011.878.957 2.192.945 1.316 2.296-.126 2.32.531.024.656.514 1.183 1.587 1.179 1.074-.003.849-4.18.624-6.594-.221-1.392-.715-6.803-.614-7.986.101-1.183.432-3.207.648-4.812-.079-2.069 1.738-8.891 2.031-10.366-.133-.204 1.29-4.121 2.119-7.93.829-3.809 1.452-8.333 1.497-9.744.082-2.204.496-5.913.248-6.612-.248-.698-1.606-.412-2.119-.127-.512.286-.265.474-.397.71l-.024.104a.24.24 0 0 0-.254.104c-1.895.333-2.878-1.561-3.627-1.842-.749-.28-1.287-.342-2.198-.199-.911.144-4.288 3.514-5.906 4.271s-7.065 3.19-8.946 2.912a.58.58 0 0 1-.563.162c-.727.752-1.394 2.075-2.192 2.159-3.916.415-6.156 3.323-8.898 5.497-.48.623-1.158 1.179-1.405 1.885-.735 2.107-1.532 3.464-3.658 4.584-.115.061-.219.386-.159.478.089.138.326.245.504.251 1.345.044 2.939-1.104 2.939-1.104s6.611-2.84 9.902-4.291c1.423-.628 2.763-.989 4.319-.237.594.285 1.508-.091 2.275-.166l.903-.523.926-.241.573-.059c.419.068.839.139 1.259.205-.761 2.283-1.116 6.315-1.227 7.04-.11.725-.378 1.129-.541 1.709-.241.86-.51 1.722-.642 2.604-.425 2.854-.992 5.71-1.108 8.581-.072 1.775.987 4.513 1.542 5.163.556.652 1.174 1.562.212 2.361-.962.801-1.711 1.541-2.566 2.313-1.069.396-3.175 2.024-6.272 2.505-3.098.479-5.773.356-10.154-1.6-4.381-1.955-7.941-5.512-10.359-7.699-2.418-2.189-5.952-10.584-6.201-14.386-.25-3.801.111-7.656.228-9.198.117-1.543.978-6.734 2.366-10.32 1.388-3.585 5.417-8.558 5.978-9.188l6.27-6.061c2.375-1.806 6.13-5.061 11.488-8.035 1.215-.593 7.93-4.429 13.025-4.832 1.484-.117 2.933-.705 4.352-1.207 1.289-.457 2.03-1.367 1.422-2.816-.418-1-.407-1.971.715-2.248 1.412-.352.14-2.527-.529-2.372-.721.168-1.438.479-2.467-.189-1.122-.729-2.065-2.18-2.442-4.044-.155-.771 1.051-.73.29-1.756-.761-1.025-2.241-.389-2.875-.908-.211-.075-.421-.148-.631-.224l-2.363-.297-.369-.327c-.791-.936-1.707-1.046-2.951-.943-3.673.302-7.043 1.71-10.564 2.549l-3.775 1.325c-.548.43-1.077.885-1.646 1.284-1.478 1.036-2.974 2.047-4.463 3.069l-.547.573-.057.072c-.47.603-.94 1.204-1.411 1.805l-.423.56-1.221 1.192-.65.585-1.105.698-.035.039-.699 1.183-.039.237-.96.993-.839.98-.629.773-.582.514-1.053 1.379-.071.078-1.372 1.658-.468.766-2.169 3.608a.508.508 0 0 0-.331.457l-.583 1.377-.62 1.094v.001c-2.059 1.592-3.163 3.773-3.835 6.221l-.422.524-.726 1.916-1.109 2.967c-2.243 4.051-2.813 8.558-3.11 13.023-.387 5.845-.312 11.726 1.094 17.483.466 1.909 3.739 9.271 5.361 11.725 1.622 2.452 5.974 7.289 8.748 9.188 2.776 1.901 5.299 3.348 9.632 5.148zM541.029 154.924c-2.76-2.041-5.557-4.032-8.354-6.022-.576-.409-.982-1.629-1.836-.838-.295.273.105 1.485.416 2.167.234.517.783.931 1.271 1.283 2.947 2.14 5.889 4.297 8.904 6.335.803.539 1.859.703 2.818.977.164.046.422-.238.703-.411-.285-.333-.449-.584-.67-.771-1.071-.919-2.117-1.881-3.252-2.72zM560.708 167.271c-.16-.191-4.123-2.332-4.307-2.461-.832-.588-1.346-.36-2.176-.957-1.586-1.141-3.092-2.386-4.627-3.59-.805-.633-2.027-1.109-2.162.147-.086.808.111 1.793.867 2.225.271.155.541.313.814.466 1.553.803 3.1 1.614 4.652 2.412.684.352 10.729 7.396 12.367 7.09 1.645-.308.205-2.152.205-2.152s-5.367-2.855-5.633-3.18z"/></g><path fill="#F50005" d="M540.507 167.99s7.076 4.818 9.74 6.05c2.666 1.229 4.205 2.255 3.281.817-.922-1.435 0-1.129-2.977-2.871-2.973-1.74-4.609-2.355-5.943-3.689-1.334-1.333-4-2.46-4.105-1.538-.099.923.004 1.231.004 1.231zM546.455 183.68c2.973 1.742 4.41 3.075 3.385.409-1.023-2.666-2.666-2.153-4.922-3.28-2.256-1.129-2.344-.018-1.832.6l3.369 2.271z"/></svg>