<svg xmlns="http://www.w3.org/2000/svg" viewBox="0 0 800 400" width="800" height="400">
  <style>
    @keyframes drawLine {
      to { stroke-dashoffset: 0; }
    }
    @keyframes fadeInPoint {
      from { opacity: 0; }
      to { opacity: 1; }
    }
    .data-line-0 {
      stroke-dasharray: 1290;
      stroke-dashoffset: 1290;
      animation: drawLine 2s ease-out forwards;
    }
    .data-point {
      opacity: 0;
      animation: fadeInPoint 0.5s ease-out forwards;
    }
    .chart-bg { fill: #fff; }
    .chart-text { fill: #24292e; }
    .chart-muted { fill: #6a737d; }
    .chart-grid { stroke: #eee; }
    .chart-axis { stroke: #6a737d; }
    @media (prefers-color-scheme: dark) {
      .chart-bg { fill: #0d1117; }
      .chart-text { fill: #e6edf3; }
      .chart-muted { fill: #8b949e; }
      .chart-grid { stroke: #21262d; }
      .chart-axis { stroke: #8b949e; }
    }
  </style>
  <rect width="800" height="400" class="chart-bg" />
  <text x="400" y="14" text-anchor="middle" class="chart-text" font-size="16" font-weight="bold" font-family="-apple-system, BlinkMacSystemFont, 'Segoe UI', Helvetica, Arial, sans-serif">cbartondock/chaos Star History</text>
  
  <g class="grid">
    <line x1="60" y1="350" x2="770" y2="350" class="chart-grid" stroke-opacity="0.3" />
    <text x="52" y="354" text-anchor="end" class="chart-muted" font-size="11" font-family="-apple-system, BlinkMacSystemFont, 'Segoe UI', Helvetica, Arial, sans-serif">0</text>
    <line x1="60" y1="200" x2="770" y2="200" class="chart-grid" stroke-opacity="0.3" />
    <text x="52" y="204" text-anchor="end" class="chart-muted" font-size="11" font-family="-apple-system, BlinkMacSystemFont, 'Segoe UI', Helvetica, Arial, sans-serif">1</text>
    <line x1="60" y1="200" x2="770" y2="200" class="chart-grid" stroke-opacity="0.3" />
    <text x="52" y="204" text-anchor="end" class="chart-muted" font-size="11" font-family="-apple-system, BlinkMacSystemFont, 'Segoe UI', Helvetica, Arial, sans-serif">1</text>
    <line x1="60" y1="50" x2="770" y2="50" class="chart-grid" stroke-opacity="0.3" />
    <text x="52" y="54" text-anchor="end" class="chart-muted" font-size="11" font-family="-apple-system, BlinkMacSystemFont, 'Segoe UI', Helvetica, Arial, sans-serif">2</text>
    <line x1="60" y1="50" x2="770" y2="50" class="chart-grid" stroke-opacity="0.3" />
    <text x="52" y="54" text-anchor="end" class="chart-muted" font-size="11" font-family="-apple-system, BlinkMacSystemFont, 'Segoe UI', Helvetica, Arial, sans-serif">2</text>
  </g>
  <g class="milestones">
    
  </g>
  <g class="x-axis">
    <text x="60" y="370" text-anchor="middle" class="chart-muted" font-size="11" font-family="-apple-system, BlinkMacSystemFont, 'Segoe UI', Helvetica, Arial, sans-serif">Jul 12</text>
    <text x="169.23076923076923" y="370" text-anchor="middle" class="chart-muted" font-size="11" font-family="-apple-system, BlinkMacSystemFont, 'Segoe UI', Helvetica, Arial, sans-serif">Jul 13</text>
    <text x="278.46153846153845" y="370" text-anchor="middle" class="chart-muted" font-size="11" font-family="-apple-system, BlinkMacSystemFont, 'Segoe UI', Helvetica, Arial, sans-serif">Jul 15</text>
    <text x="387.69230769230774" y="370" text-anchor="middle" class="chart-muted" font-size="11" font-family="-apple-system, BlinkMacSystemFont, 'Segoe UI', Helvetica, Arial, sans-serif">Jul 17</text>
    <text x="496.92307692307696" y="370" text-anchor="middle" class="chart-muted" font-size="11" font-family="-apple-system, BlinkMacSystemFont, 'Segoe UI', Helvetica, Arial, sans-serif">Jul 19</text>
    <text x="606.1538461538462" y="370" text-anchor="middle" class="chart-muted" font-size="11" font-family="-apple-system, BlinkMacSystemFont, 'Segoe UI', Helvetica, Arial, sans-serif">Jul 21</text>
    <text x="715.3846153846155" y="370" text-anchor="middle" class="chart-muted" font-size="11" font-family="-apple-system, BlinkMacSystemFont, 'Segoe UI', Helvetica, Arial, sans-serif">Jul 23</text>
    <text x="770" y="370" text-anchor="middle" class="chart-muted" font-size="11" font-family="-apple-system, BlinkMacSystemFont, 'Segoe UI', Helvetica, Arial, sans-serif">Jul 24</text>
  </g>
  <line x1="60" y1="50" x2="60" y2="350" class="chart-axis" stroke-width="1" />
  <line x1="60" y1="350" x2="770" y2="350" class="chart-axis" stroke-width="1" />
  <path d="M60,350 L60,200 C78.2051282051282,200 96.41025641025641,200 114.61538461538461,200 C132.82051282051282,200 151.02564102564102,200 169.23076923076923,200 C187.43589743589743,200 205.64102564102566,200 223.84615384615387,200 C242.05128205128207,200 260.2564102564103,200 278.46153846153845,200 C296.6666666666667,200 314.87179487179486,200 333.0769230769231,200 C351.2820512820513,200 369.4871794871795,200 387.69230769230774,200 C405.8974358974359,200 424.1025641025641,200 442.30769230769226,200 C460.5128205128205,200 478.71794871794873,200 496.92307692307696,200 C515.1282051282052,200 533.3333333333334,200 551.5384615384615,200 C569.7435897435897,200 587.948717948718,200 606.1538461538462,200 C624.3589743589744,200 642.5641025641025,200 660.7692307692307,200 C678.974358974359,200 697.1794871794872,200 715.3846153846155,200 C733.5897435897436,200 751.7948717948718,200 770,200 L770,350 L60,350 Z" fill="#dfb317" fill-opacity="0.1" />
  <path d="M60,350 L60,200 C78.2051282051282,200 96.41025641025641,200 114.61538461538461,200 C132.82051282051282,200 151.02564102564102,200 169.23076923076923,200 C187.43589743589743,200 205.64102564102566,200 223.84615384615387,200 C242.05128205128207,200 260.2564102564103,200 278.46153846153845,200 C296.6666666666667,200 314.87179487179486,200 333.0769230769231,200 C351.2820512820513,200 369.4871794871795,200 387.69230769230774,200 C405.8974358974359,200 424.1025641025641,200 442.30769230769226,200 C460.5128205128205,200 478.71794871794873,200 496.92307692307696,200 C515.1282051282052,200 533.3333333333334,200 551.5384615384615,200 C569.7435897435897,200 587.948717948718,200 606.1538461538462,200 C624.3589743589744,200 642.5641025641025,200 660.7692307692307,200 C678.974358974359,200 697.1794871794872,200 715.3846153846155,200 C733.5897435897436,200 751.7948717948718,200 770,200" fill="none" stroke="#dfb317" stroke-width="2.5" class="data-line-0" />
  <g class="points">
    
    <circle cx="60" cy="200" r="4" fill="#dfb317" class="data-point" style="animation-delay: 1.50s" />
    <circle cx="114.61538461538461" cy="200" r="4" fill="#dfb317" class="data-point" style="animation-delay: 1.55s" />
    <circle cx="169.23076923076923" cy="200" r="4" fill="#dfb317" class="data-point" style="animation-delay: 1.60s" />
    <circle cx="223.84615384615387" cy="200" r="4" fill="#dfb317" class="data-point" style="animation-delay: 1.65s" />
    <circle cx="278.46153846153845" cy="200" r="4" fill="#dfb317" class="data-point" style="animation-delay: 1.70s" />
    <circle cx="333.0769230769231" cy="200" r="4" fill="#dfb317" class="data-point" style="animation-delay: 1.75s" />
    <circle cx="387.69230769230774" cy="200" r="4" fill="#dfb317" class="data-point" style="animation-delay: 1.80s" />
    <circle cx="442.30769230769226" cy="200" r="4" fill="#dfb317" class="data-point" style="animation-delay: 1.85s" />
    <circle cx="496.92307692307696" cy="200" r="4" fill="#dfb317" class="data-point" style="animation-delay: 1.90s" />
    <circle cx="551.5384615384615" cy="200" r="4" fill="#dfb317" class="data-point" style="animation-delay: 1.95s" />
    <circle cx="606.1538461538462" cy="200" r="4" fill="#dfb317" class="data-point" style="animation-delay: 2.00s" />
    <circle cx="660.7692307692307" cy="200" r="4" fill="#dfb317" class="data-point" style="animation-delay: 2.05s" />
    <circle cx="715.3846153846155" cy="200" r="4" fill="#dfb317" class="data-point" style="animation-delay: 2.10s" />
    <circle cx="770" cy="200" r="4" fill="#dfb317" class="data-point" style="animation-delay: 2.15s" />
  </g>
</svg>