<svg xmlns="http://www.w3.org/2000/svg" viewBox="0 0 800 400" width="800" height="400">
  <style>
    @keyframes drawLine {
      to { stroke-dashoffset: 0; }
    }
    @keyframes fadeInPoint {
      from { opacity: 0; }
      to { opacity: 1; }
    }
    .data-line-0 {
      stroke-dasharray: 1290;
      stroke-dashoffset: 1290;
      animation: drawLine 2s ease-out forwards;
    }
    .data-point {
      opacity: 0;
      animation: fadeInPoint 0.5s ease-out forwards;
    }
    .chart-bg { fill: #fff; }
    .chart-text { fill: #24292e; }
    .chart-muted { fill: #6a737d; }
    .chart-grid { stroke: #eee; }
    .chart-axis { stroke: #6a737d; }
    @media (prefers-color-scheme: dark) {
      .chart-bg { fill: #0d1117; }
      .chart-text { fill: #e6edf3; }
      .chart-muted { fill: #8b949e; }
      .chart-grid { stroke: #21262d; }
      .chart-axis { stroke: #8b949e; }
    }
  </style>
  <rect width="800" height="400" class="chart-bg" />
  <text x="400" y="14" text-anchor="middle" class="chart-text" font-size="16" font-weight="bold" font-family="-apple-system, BlinkMacSystemFont, 'Segoe UI', Helvetica, Arial, sans-serif">cbartondock/node-binary-vdf Star History</text>
  
  <g class="grid">
    <line x1="60" y1="350" x2="770" y2="350" class="chart-grid" stroke-opacity="0.3" />
    <text x="52" y="354" text-anchor="end" class="chart-muted" font-size="11" font-family="-apple-system, BlinkMacSystemFont, 'Segoe UI', Helvetica, Arial, sans-serif">2</text>
    <line x1="60" y1="200" x2="770" y2="200" class="chart-grid" stroke-opacity="0.3" />
    <text x="52" y="204" text-anchor="end" class="chart-muted" font-size="11" font-family="-apple-system, BlinkMacSystemFont, 'Segoe UI', Helvetica, Arial, sans-serif">3</text>
    <line x1="60" y1="200" x2="770" y2="200" class="chart-grid" stroke-opacity="0.3" />
    <text x="52" y="204" text-anchor="end" class="chart-muted" font-size="11" font-family="-apple-system, BlinkMacSystemFont, 'Segoe UI', Helvetica, Arial, sans-serif">3</text>
    <line x1="60" y1="50" x2="770" y2="50" class="chart-grid" stroke-opacity="0.3" />
    <text x="52" y="54" text-anchor="end" class="chart-muted" font-size="11" font-family="-apple-system, BlinkMacSystemFont, 'Segoe UI', Helvetica, Arial, sans-serif">4</text>
    <line x1="60" y1="50" x2="770" y2="50" class="chart-grid" stroke-opacity="0.3" />
    <text x="52" y="54" text-anchor="end" class="chart-muted" font-size="11" font-family="-apple-system, BlinkMacSystemFont, 'Segoe UI', Helvetica, Arial, sans-serif">4</text>
  </g>
  <g class="milestones">
    
  </g>
  <g class="x-axis">
    <text x="60" y="370" text-anchor="middle" class="chart-muted" font-size="11" font-family="-apple-system, BlinkMacSystemFont, 'Segoe UI', Helvetica, Arial, sans-serif">Jul 12</text>
    <text x="189.0909090909091" y="370" text-anchor="middle" class="chart-muted" font-size="11" font-family="-apple-system, BlinkMacSystemFont, 'Segoe UI', Helvetica, Arial, sans-serif">Jul 13</text>
    <text x="318.1818181818182" y="370" text-anchor="middle" class="chart-muted" font-size="11" font-family="-apple-system, BlinkMacSystemFont, 'Segoe UI', Helvetica, Arial, sans-serif">Jul 15</text>
    <text x="447.27272727272725" y="370" text-anchor="middle" class="chart-muted" font-size="11" font-family="-apple-system, BlinkMacSystemFont, 'Segoe UI', Helvetica, Arial, sans-serif">Jul 17</text>
    <text x="576.3636363636364" y="370" text-anchor="middle" class="chart-muted" font-size="11" font-family="-apple-system, BlinkMacSystemFont, 'Segoe UI', Helvetica, Arial, sans-serif">Jul 19</text>
    <text x="705.4545454545454" y="370" text-anchor="middle" class="chart-muted" font-size="11" font-family="-apple-system, BlinkMacSystemFont, 'Segoe UI', Helvetica, Arial, sans-serif">Jul 21</text>
    <text x="770" y="370" text-anchor="middle" class="chart-muted" font-size="11" font-family="-apple-system, BlinkMacSystemFont, 'Segoe UI', Helvetica, Arial, sans-serif">Jul 22</text>
  </g>
  <line x1="60" y1="50" x2="60" y2="350" class="chart-axis" stroke-width="1" />
  <line x1="60" y1="350" x2="770" y2="350" class="chart-axis" stroke-width="1" />
  <path d="M60,350 L60,200 C81.51515151515152,200 103.03030303030303,200 124.54545454545455,200 C146.06060606060606,200 167.57575757575756,200 189.0909090909091,200 C210.6060606060606,200 232.12121212121212,200 253.63636363636363,200 C275.1515151515151,200 296.6666666666667,200 318.1818181818182,200 C339.6969696969697,200 361.2121212121212,200 382.7272727272727,200 C404.2424242424242,200 425.75757575757575,200 447.27272727272725,200 C468.78787878787875,200 490.3030303030303,200 511.8181818181818,200 C533.3333333333334,200 554.8484848484849,200 576.3636363636364,200 C597.8787878787879,200 619.3939393939395,200 640.909090909091,200 C662.4242424242425,200 683.9393939393939,200 705.4545454545454,200 C726.9696969696969,200 748.4848484848485,200 770,200 L770,350 L60,350 Z" fill="#dfb317" fill-opacity="0.1" />
  <path d="M60,350 L60,200 C81.51515151515152,200 103.03030303030303,200 124.54545454545455,200 C146.06060606060606,200 167.57575757575756,200 189.0909090909091,200 C210.6060606060606,200 232.12121212121212,200 253.63636363636363,200 C275.1515151515151,200 296.6666666666667,200 318.1818181818182,200 C339.6969696969697,200 361.2121212121212,200 382.7272727272727,200 C404.2424242424242,200 425.75757575757575,200 447.27272727272725,200 C468.78787878787875,200 490.3030303030303,200 511.8181818181818,200 C533.3333333333334,200 554.8484848484849,200 576.3636363636364,200 C597.8787878787879,200 619.3939393939395,200 640.909090909091,200 C662.4242424242425,200 683.9393939393939,200 705.4545454545454,200 C726.9696969696969,200 748.4848484848485,200 770,200" fill="none" stroke="#dfb317" stroke-width="2.5" class="data-line-0" />
  <g class="points">
    
    <circle cx="60" cy="200" r="4" fill="#dfb317" class="data-point" style="animation-delay: 1.50s" />
    <circle cx="124.54545454545455" cy="200" r="4" fill="#dfb317" class="data-point" style="animation-delay: 1.55s" />
    <circle cx="189.0909090909091" cy="200" r="4" fill="#dfb317" class="data-point" style="animation-delay: 1.60s" />
    <circle cx="253.63636363636363" cy="200" r="4" fill="#dfb317" class="data-point" style="animation-delay: 1.65s" />
    <circle cx="318.1818181818182" cy="200" r="4" fill="#dfb317" class="data-point" style="animation-delay: 1.70s" />
    <circle cx="382.7272727272727" cy="200" r="4" fill="#dfb317" class="data-point" style="animation-delay: 1.75s" />
    <circle cx="447.27272727272725" cy="200" r="4" fill="#dfb317" class="data-point" style="animation-delay: 1.80s" />
    <circle cx="511.8181818181818" cy="200" r="4" fill="#dfb317" class="data-point" style="animation-delay: 1.85s" />
    <circle cx="576.3636363636364" cy="200" r="4" fill="#dfb317" class="data-point" style="animation-delay: 1.90s" />
    <circle cx="640.909090909091" cy="200" r="4" fill="#dfb317" class="data-point" style="animation-delay: 1.95s" />
    <circle cx="705.4545454545454" cy="200" r="4" fill="#dfb317" class="data-point" style="animation-delay: 2.00s" />
    <circle cx="770" cy="200" r="4" fill="#dfb317" class="data-point" style="animation-delay: 2.05s" />
  </g>
</svg>