<svg xmlns="http://www.w3.org/2000/svg" viewBox="0 0 800 400" width="800" height="400">
  <style>
    @keyframes drawLine {
      to { stroke-dashoffset: 0; }
    }
    @keyframes fadeInPoint {
      from { opacity: 0; }
      to { opacity: 1; }
    }
    .data-line-0 {
      stroke-dasharray: 1065;
      stroke-dashoffset: 1065;
      animation: drawLine 2s ease-out forwards;
    }
    .data-point {
      opacity: 0;
      animation: fadeInPoint 0.5s ease-out forwards;
    }
    .chart-bg { fill: #fff; }
    .chart-text { fill: #24292e; }
    .chart-muted { fill: #6a737d; }
    .chart-grid { stroke: #eee; }
    .chart-axis { stroke: #6a737d; }
    @media (prefers-color-scheme: dark) {
      .chart-bg { fill: #0d1117; }
      .chart-text { fill: #e6edf3; }
      .chart-muted { fill: #8b949e; }
      .chart-grid { stroke: #21262d; }
      .chart-axis { stroke: #8b949e; }
    }
  </style>
  <rect width="800" height="400" class="chart-bg" />
  <text x="400" y="14" text-anchor="middle" class="chart-text" font-size="16" font-weight="bold" font-family="-apple-system, BlinkMacSystemFont, 'Segoe UI', Helvetica, Arial, sans-serif">cbartondock/academicpages.github.io Star History</text>
  
  <g class="grid">
    <line x1="60" y1="350" x2="770" y2="350" class="chart-grid" stroke-opacity="0.3" />
    <text x="52" y="354" text-anchor="end" class="chart-muted" font-size="11" font-family="-apple-system, BlinkMacSystemFont, 'Segoe UI', Helvetica, Arial, sans-serif">0</text>
    <line x1="60" y1="50" x2="770" y2="50" class="chart-grid" stroke-opacity="0.3" />
    <text x="52" y="54" text-anchor="end" class="chart-muted" font-size="11" font-family="-apple-system, BlinkMacSystemFont, 'Segoe UI', Helvetica, Arial, sans-serif">1</text>
  </g>
  <g class="milestones">
    
  </g>
  <g class="x-axis">
    <text x="60" y="370" text-anchor="middle" class="chart-muted" font-size="11" font-family="-apple-system, BlinkMacSystemFont, 'Segoe UI', Helvetica, Arial, sans-serif">Jul 12</text>
    <text x="148.75" y="370" text-anchor="middle" class="chart-muted" font-size="11" font-family="-apple-system, BlinkMacSystemFont, 'Segoe UI', Helvetica, Arial, sans-serif">Jul 14</text>
    <text x="237.5" y="370" text-anchor="middle" class="chart-muted" font-size="11" font-family="-apple-system, BlinkMacSystemFont, 'Segoe UI', Helvetica, Arial, sans-serif">Jul 17</text>
    <text x="326.25" y="370" text-anchor="middle" class="chart-muted" font-size="11" font-family="-apple-system, BlinkMacSystemFont, 'Segoe UI', Helvetica, Arial, sans-serif">Jul 20</text>
    <text x="415" y="370" text-anchor="middle" class="chart-muted" font-size="11" font-family="-apple-system, BlinkMacSystemFont, 'Segoe UI', Helvetica, Arial, sans-serif">Jul 23</text>
    <text x="503.75" y="370" text-anchor="middle" class="chart-muted" font-size="11" font-family="-apple-system, BlinkMacSystemFont, 'Segoe UI', Helvetica, Arial, sans-serif">Jul 26</text>
    <text x="592.5" y="370" text-anchor="middle" class="chart-muted" font-size="11" font-family="-apple-system, BlinkMacSystemFont, 'Segoe UI', Helvetica, Arial, sans-serif">Jul 29</text>
    <text x="681.25" y="370" text-anchor="middle" class="chart-muted" font-size="11" font-family="-apple-system, BlinkMacSystemFont, 'Segoe UI', Helvetica, Arial, sans-serif">Aug 1</text>
    <text x="770" y="370" text-anchor="middle" class="chart-muted" font-size="11" font-family="-apple-system, BlinkMacSystemFont, 'Segoe UI', Helvetica, Arial, sans-serif">Aug 4</text>
  </g>
  <line x1="60" y1="50" x2="60" y2="350" class="chart-axis" stroke-width="1" />
  <line x1="60" y1="350" x2="770" y2="350" class="chart-axis" stroke-width="1" />
  <path d="M60,350 L60,350 C69.86111111111111,350 79.72222222222221,350 89.58333333333333,350 C99.44444444444444,350 109.30555555555554,350 119.16666666666666,350 C129.02777777777777,350 138.88888888888889,350 148.75,350 C158.61111111111111,350 168.4722222222222,350 178.33333333333331,350 C188.19444444444443,350 198.05555555555557,350 207.91666666666669,350 C217.7777777777778,350 227.63888888888889,350 237.5,350 C247.36111111111111,350 257.22222222222223,350 267.08333333333337,350 C276.94444444444446,350 286.80555555555554,350 296.66666666666663,350 C306.52777777777777,350 316.38888888888886,350 326.25,350 C336.11111111111114,350 345.97222222222223,350 355.83333333333337,350 C365.69444444444446,350 375.55555555555554,350 385.41666666666663,350 C395.27777777777777,350 405.13888888888886,350 415,350 C424.8611111111111,350 434.72222222222223,350 444.5833333333333,350 C454.44444444444446,350 464.30555555555554,350 474.1666666666667,350 C484.02777777777777,350 493.8888888888889,350 503.75,350 C513.6111111111111,350 523.4722222222222,350 533.3333333333333,350 C543.1944444444445,350 553.0555555555555,350 562.9166666666667,350 C572.7777777777778,350 582.6388888888889,350 592.5,350 C602.3611111111111,350 612.2222222222222,350 622.0833333333333,350 C631.9444444444445,350 641.8055555555555,350 651.6666666666667,350 C661.5277777777778,350 671.3888888888889,350 681.25,350 C691.1111111111111,350 700.9722222222222,350 710.8333333333333,350 C720.6944444444445,350 730.5555555555555,350 740.4166666666667,350 C750.2777777777778,350 760.1388888888889,350 770,350 L770,350 L60,350 Z" fill="#dfb317" fill-opacity="0.1" />
  <path d="M60,350 L60,350 C69.86111111111111,350 79.72222222222221,350 89.58333333333333,350 C99.44444444444444,350 109.30555555555554,350 119.16666666666666,350 C129.02777777777777,350 138.88888888888889,350 148.75,350 C158.61111111111111,350 168.4722222222222,350 178.33333333333331,350 C188.19444444444443,350 198.05555555555557,350 207.91666666666669,350 C217.7777777777778,350 227.63888888888889,350 237.5,350 C247.36111111111111,350 257.22222222222223,350 267.08333333333337,350 C276.94444444444446,350 286.80555555555554,350 296.66666666666663,350 C306.52777777777777,350 316.38888888888886,350 326.25,350 C336.11111111111114,350 345.97222222222223,350 355.83333333333337,350 C365.69444444444446,350 375.55555555555554,350 385.41666666666663,350 C395.27777777777777,350 405.13888888888886,350 415,350 C424.8611111111111,350 434.72222222222223,350 444.5833333333333,350 C454.44444444444446,350 464.30555555555554,350 474.1666666666667,350 C484.02777777777777,350 493.8888888888889,350 503.75,350 C513.6111111111111,350 523.4722222222222,350 533.3333333333333,350 C543.1944444444445,350 553.0555555555555,350 562.9166666666667,350 C572.7777777777778,350 582.6388888888889,350 592.5,350 C602.3611111111111,350 612.2222222222222,350 622.0833333333333,350 C631.9444444444445,350 641.8055555555555,350 651.6666666666667,350 C661.5277777777778,350 671.3888888888889,350 681.25,350 C691.1111111111111,350 700.9722222222222,350 710.8333333333333,350 C720.6944444444445,350 730.5555555555555,350 740.4166666666667,350 C750.2777777777778,350 760.1388888888889,350 770,350" fill="none" stroke="#dfb317" stroke-width="2.5" class="data-line-0" />
  <g class="points">
    
    <circle cx="60" cy="350" r="4" fill="#dfb317" class="data-point" style="animation-delay: 1.50s" />
    <circle cx="89.58333333333333" cy="350" r="4" fill="#dfb317" class="data-point" style="animation-delay: 1.55s" />
    <circle cx="119.16666666666666" cy="350" r="4" fill="#dfb317" class="data-point" style="animation-delay: 1.60s" />
    <circle cx="148.75" cy="350" r="4" fill="#dfb317" class="data-point" style="animation-delay: 1.65s" />
    <circle cx="178.33333333333331" cy="350" r="4" fill="#dfb317" class="data-point" style="animation-delay: 1.70s" />
    <circle cx="207.91666666666669" cy="350" r="4" fill="#dfb317" class="data-point" style="animation-delay: 1.75s" />
    <circle cx="237.5" cy="350" r="4" fill="#dfb317" class="data-point" style="animation-delay: 1.80s" />
    <circle cx="267.08333333333337" cy="350" r="4" fill="#dfb317" class="data-point" style="animation-delay: 1.85s" />
    <circle cx="296.66666666666663" cy="350" r="4" fill="#dfb317" class="data-point" style="animation-delay: 1.90s" />
    <circle cx="326.25" cy="350" r="4" fill="#dfb317" class="data-point" style="animation-delay: 1.95s" />
    <circle cx="355.83333333333337" cy="350" r="4" fill="#dfb317" class="data-point" style="animation-delay: 2.00s" />
    <circle cx="385.41666666666663" cy="350" r="4" fill="#dfb317" class="data-point" style="animation-delay: 2.05s" />
    <circle cx="415" cy="350" r="4" fill="#dfb317" class="data-point" style="animation-delay: 2.10s" />
    <circle cx="444.5833333333333" cy="350" r="4" fill="#dfb317" class="data-point" style="animation-delay: 2.15s" />
    <circle cx="474.1666666666667" cy="350" r="4" fill="#dfb317" class="data-point" style="animation-delay: 2.20s" />
    <circle cx="503.75" cy="350" r="4" fill="#dfb317" class="data-point" style="animation-delay: 2.25s" />
    <circle cx="533.3333333333333" cy="350" r="4" fill="#dfb317" class="data-point" style="animation-delay: 2.30s" />
    <circle cx="562.9166666666667" cy="350" r="4" fill="#dfb317" class="data-point" style="animation-delay: 2.35s" />
    <circle cx="592.5" cy="350" r="4" fill="#dfb317" class="data-point" style="animation-delay: 2.40s" />
    <circle cx="622.0833333333333" cy="350" r="4" fill="#dfb317" class="data-point" style="animation-delay: 2.45s" />
    <circle cx="651.6666666666667" cy="350" r="4" fill="#dfb317" class="data-point" style="animation-delay: 2.50s" />
    <circle cx="681.25" cy="350" r="4" fill="#dfb317" class="data-point" style="animation-delay: 2.55s" />
    <circle cx="710.8333333333333" cy="350" r="4" fill="#dfb317" class="data-point" style="animation-delay: 2.60s" />
    <circle cx="740.4166666666667" cy="350" r="4" fill="#dfb317" class="data-point" style="animation-delay: 2.65s" />
    <circle cx="770" cy="350" r="4" fill="#dfb317" class="data-point" style="animation-delay: 2.70s" />
  </g>
</svg>