<svg xmlns="http://www.w3.org/2000/svg" viewBox="0 0 800 400" width="800" height="400">
  <style>
    @keyframes drawLine {
      to { stroke-dashoffset: 0; }
    }
    @keyframes fadeInPoint {
      from { opacity: 0; }
      to { opacity: 1; }
    }
    .data-line-0 {
      stroke-dasharray: 1167;
      stroke-dashoffset: 1167;
      animation: drawLine 2s ease-out forwards;
    }
    .data-line-1 {
      stroke-dasharray: 1065;
      stroke-dashoffset: 1065;
      animation: drawLine 2s ease-out forwards;
    }
    .data-line-2 {
      stroke-dasharray: 1065;
      stroke-dashoffset: 1065;
      animation: drawLine 2s ease-out forwards;
    }
    .data-line-3 {
      stroke-dasharray: 1065;
      stroke-dashoffset: 1065;
      animation: drawLine 2s ease-out forwards;
    }
    .data-line-4 {
      stroke-dasharray: 1065;
      stroke-dashoffset: 1065;
      animation: drawLine 2s ease-out forwards;
    }
    .data-line-5 {
      stroke-dasharray: 1065;
      stroke-dashoffset: 1065;
      animation: drawLine 2s ease-out forwards;
    }
    .data-line-6 {
      stroke-dasharray: 1065;
      stroke-dashoffset: 1065;
      animation: drawLine 2s ease-out forwards;
    }
    .data-line-7 {
      stroke-dasharray: 1065;
      stroke-dashoffset: 1065;
      animation: drawLine 2s ease-out forwards;
    }
    .data-line-8 {
      stroke-dasharray: 1065;
      stroke-dashoffset: 1065;
      animation: drawLine 2s ease-out forwards;
    }
    .data-line-9 {
      stroke-dasharray: 1065;
      stroke-dashoffset: 1065;
      animation: drawLine 2s ease-out forwards;
    }
    .data-point {
      opacity: 0;
      animation: fadeInPoint 0.5s ease-out forwards;
    }
    .chart-bg { fill: #fff; }
    .chart-text { fill: #24292e; }
    .chart-muted { fill: #6a737d; }
    .chart-grid { stroke: #eee; }
    .chart-axis { stroke: #6a737d; }
    @media (prefers-color-scheme: dark) {
      .chart-bg { fill: #0d1117; }
      .chart-text { fill: #e6edf3; }
      .chart-muted { fill: #8b949e; }
      .chart-grid { stroke: #21262d; }
      .chart-axis { stroke: #8b949e; }
    }
  </style>
  <rect width="800" height="400" class="chart-bg" />
  <text x="400" y="14" text-anchor="middle" class="chart-text" font-size="16" font-weight="bold" font-family="-apple-system, BlinkMacSystemFont, 'Segoe UI', Helvetica, Arial, sans-serif">Top Repositories</text>
  <g class="legend">
    <rect x="-200" y="31" width="12" height="3" fill="#dfb317" />
    <line x1="-200" y1="32.5" x2="-188" y2="32.5" stroke="#dfb317" stroke-width="2" />
    <text x="-184" y="36" class="chart-text" font-size="10" font-family="-apple-system, BlinkMacSystemFont, 'Segoe UI', Helvetica, Arial, sans-serif">SteamGridDB/steam-rom-manager</text>
    <rect x="-80" y="31" width="12" height="3" fill="#28a745" />
    <line x1="-80" y1="32.5" x2="-68" y2="32.5" stroke="#28a745" stroke-width="2" />
    <text x="-64" y="36" class="chart-text" font-size="10" font-family="-apple-system, BlinkMacSystemFont, 'Segoe UI', Helvetica, Arial, sans-serif">cbartondock/node-binary-vdf</text>
    <rect x="40" y="31" width="12" height="3" fill="#e74c3c" />
    <line x1="40" y1="32.5" x2="52" y2="32.5" stroke="#e74c3c" stroke-width="2" />
    <text x="56" y="36" class="chart-text" font-size="10" font-family="-apple-system, BlinkMacSystemFont, 'Segoe UI', Helvetica, Arial, sans-serif">cbartondock/PortableEnv</text>
    <rect x="160" y="31" width="12" height="3" fill="#3498db" />
    <line x1="160" y1="32.5" x2="172" y2="32.5" stroke="#3498db" stroke-width="2" />
    <text x="176" y="36" class="chart-text" font-size="10" font-family="-apple-system, BlinkMacSystemFont, 'Segoe UI', Helvetica, Arial, sans-serif">cbartondock/Windwaker</text>
    <rect x="280" y="31" width="12" height="3" fill="#9b59b6" />
    <line x1="280" y1="32.5" x2="292" y2="32.5" stroke="#9b59b6" stroke-width="2" />
    <text x="296" y="36" class="chart-text" font-size="10" font-family="-apple-system, BlinkMacSystemFont, 'Segoe UI', Helvetica, Arial, sans-serif">cbartondock/chaos</text>
    <rect x="400" y="31" width="12" height="3" fill="#e67e22" />
    <line x1="400" y1="32.5" x2="412" y2="32.5" stroke="#e67e22" stroke-width="2" />
    <text x="416" y="36" class="chart-text" font-size="10" font-family="-apple-system, BlinkMacSystemFont, 'Segoe UI', Helvetica, Arial, sans-serif">cbartondock/riemann-sphere</text>
    <rect x="520" y="31" width="12" height="3" fill="#1abc9c" />
    <line x1="520" y1="32.5" x2="532" y2="32.5" stroke="#1abc9c" stroke-width="2" />
    <text x="536" y="36" class="chart-text" font-size="10" font-family="-apple-system, BlinkMacSystemFont, 'Segoe UI', Helvetica, Arial, sans-serif">cbartondock/tak-concept-art</text>
    <rect x="640" y="31" width="12" height="3" fill="#e84393" />
    <line x1="640" y1="32.5" x2="652" y2="32.5" stroke="#e84393" stroke-width="2" />
    <text x="656" y="36" class="chart-text" font-size="10" font-family="-apple-system, BlinkMacSystemFont, 'Segoe UI', Helvetica, Arial, sans-serif">stephan-x-liu/sublimechat</text>
    <rect x="760" y="31" width="12" height="3" fill="#795548" />
    <line x1="760" y1="32.5" x2="772" y2="32.5" stroke="#795548" stroke-width="2" />
    <text x="776" y="36" class="chart-text" font-size="10" font-family="-apple-system, BlinkMacSystemFont, 'Segoe UI', Helvetica, Arial, sans-serif">cbartondock/academicpages.github.io</text>
    <rect x="880" y="31" width="12" height="3" fill="#00bcd4" />
    <line x1="880" y1="32.5" x2="892" y2="32.5" stroke="#00bcd4" stroke-width="2" />
    <text x="896" y="36" class="chart-text" font-size="10" font-family="-apple-system, BlinkMacSystemFont, 'Segoe UI', Helvetica, Arial, sans-serif">cbartondock/discordBadge</text>
  </g>
  <g class="grid">
    <line x1="60" y1="350" x2="770" y2="350" class="chart-grid" stroke-opacity="0.3" />
    <text x="52" y="354" text-anchor="end" class="chart-muted" font-size="11" font-family="-apple-system, BlinkMacSystemFont, 'Segoe UI', Helvetica, Arial, sans-serif">0</text>
    <line x1="60" y1="294.994499449945" x2="770" y2="294.994499449945" class="chart-grid" stroke-opacity="0.3" />
    <text x="52" y="298.994499449945" text-anchor="end" class="chart-muted" font-size="11" font-family="-apple-system, BlinkMacSystemFont, 'Segoe UI', Helvetica, Arial, sans-serif">500</text>
    <line x1="60" y1="239.98899889988996" x2="770" y2="239.98899889988996" class="chart-grid" stroke-opacity="0.3" />
    <text x="52" y="243.98899889988996" text-anchor="end" class="chart-muted" font-size="11" font-family="-apple-system, BlinkMacSystemFont, 'Segoe UI', Helvetica, Arial, sans-serif">1K</text>
    <line x1="60" y1="184.98349834983497" x2="770" y2="184.98349834983497" class="chart-grid" stroke-opacity="0.3" />
    <text x="52" y="188.98349834983497" text-anchor="end" class="chart-muted" font-size="11" font-family="-apple-system, BlinkMacSystemFont, 'Segoe UI', Helvetica, Arial, sans-serif">1.5K</text>
    <line x1="60" y1="129.97799779977996" x2="770" y2="129.97799779977996" class="chart-grid" stroke-opacity="0.3" />
    <text x="52" y="133.97799779977996" text-anchor="end" class="chart-muted" font-size="11" font-family="-apple-system, BlinkMacSystemFont, 'Segoe UI', Helvetica, Arial, sans-serif">2K</text>
    <line x1="60" y1="74.97249724972494" x2="770" y2="74.97249724972494" class="chart-grid" stroke-opacity="0.3" />
    <text x="52" y="78.97249724972494" text-anchor="end" class="chart-muted" font-size="11" font-family="-apple-system, BlinkMacSystemFont, 'Segoe UI', Helvetica, Arial, sans-serif">2.5K</text>
  </g>
  <g class="milestones">
    
  </g>
  <g class="x-axis">
    <text x="60" y="370" text-anchor="middle" class="chart-muted" font-size="11" font-family="-apple-system, BlinkMacSystemFont, 'Segoe UI', Helvetica, Arial, sans-serif">2017</text>
    <text x="133.44827586206895" y="370" text-anchor="middle" class="chart-muted" font-size="11" font-family="-apple-system, BlinkMacSystemFont, 'Segoe UI', Helvetica, Arial, sans-serif">2018</text>
    <text x="206.89655172413794" y="370" text-anchor="middle" class="chart-muted" font-size="11" font-family="-apple-system, BlinkMacSystemFont, 'Segoe UI', Helvetica, Arial, sans-serif">2019</text>
    <text x="280.34482758620686" y="370" text-anchor="middle" class="chart-muted" font-size="11" font-family="-apple-system, BlinkMacSystemFont, 'Segoe UI', Helvetica, Arial, sans-serif">2020</text>
    <text x="353.7931034482759" y="370" text-anchor="middle" class="chart-muted" font-size="11" font-family="-apple-system, BlinkMacSystemFont, 'Segoe UI', Helvetica, Arial, sans-serif">2021</text>
    <text x="427.2413793103448" y="370" text-anchor="middle" class="chart-muted" font-size="11" font-family="-apple-system, BlinkMacSystemFont, 'Segoe UI', Helvetica, Arial, sans-serif">2022</text>
    <text x="500.6896551724138" y="370" text-anchor="middle" class="chart-muted" font-size="11" font-family="-apple-system, BlinkMacSystemFont, 'Segoe UI', Helvetica, Arial, sans-serif">2023</text>
    <text x="598.6206896551724" y="370" text-anchor="middle" class="chart-muted" font-size="11" font-family="-apple-system, BlinkMacSystemFont, 'Segoe UI', Helvetica, Arial, sans-serif">2024</text>
    <text x="672.0689655172414" y="370" text-anchor="middle" class="chart-muted" font-size="11" font-family="-apple-system, BlinkMacSystemFont, 'Segoe UI', Helvetica, Arial, sans-serif">2025</text>
    <text x="745.5172413793103" y="370" text-anchor="middle" class="chart-muted" font-size="11" font-family="-apple-system, BlinkMacSystemFont, 'Segoe UI', Helvetica, Arial, sans-serif">2026</text>
  </g>
  <line x1="60" y1="50" x2="60" y2="350" class="chart-axis" stroke-width="1" />
  <line x1="60" y1="350" x2="770" y2="350" class="chart-axis" stroke-width="1" />
  
  
  
  
  
  
  
  
  
  
  <path d="M60,349.88998899889987 C68.16091954022988,347.3230656398973 76.32183908045977,344.13274660799414 84.48275862068965,342.1892189218922 C92.64367816091954,340.2456912357902 100.80459770114942,339.4939493949395 108.9655172413793,338.2288228822882 C117.12643678160919,336.963696369637 125.28735632183907,335.7535753575358 133.44827586206895,334.5984598459846 C141.60919540229884,333.44334433443345 149.77011494252872,332.5999266593326 157.9310344827586,331.2981298129813 C166.0919540229885,329.99633296663 174.2528735632184,328.12614594792814 182.41379310344828,326.7876787678768 C190.57471264367817,325.44921158782546 198.73563218390805,324.2390905757242 206.89655172413794,323.26732673267327 C215.05747126436782,322.2955628896223 223.2183908045977,321.65383204987165 231.3793103448276,320.957095709571 C239.54022988505747,320.2603593692703 247.70114942528735,319.8019801980198 255.86206896551724,319.0869086908691 C264.0229885057471,318.3718371837184 272.183908045977,318.02346901356805 280.34482758620686,316.6666666666667 C288.50574712643675,315.3098643197653 296.6666666666667,312.2295562889622 304.82758620689657,310.94609460946094 C312.98850574712645,309.66263292995967 321.14942528735634,309.73597359735976 329.3103448275862,308.965896589659 C337.4712643678161,308.19581958195823 345.632183908046,307.3157315731573 353.7931034482759,306.3256325632563 C361.95402298850576,305.33553355335533 370.11494252873564,304.71213788045475 378.2758620689655,303.02530253025304 C386.4367816091954,301.33846718005134 394.5977011494253,299.15658232489915 402.7586206896552,296.2046204620462 C410.91954022988506,293.25265859919324 419.08045977011494,291.08910891089107 427.2413793103448,285.3135313531353 C435.4022988505747,279.53795379537956 443.5632183908046,269.03190319031904 451.7241379310345,261.55115511551156 C459.88505747126436,254.07040704070408 468.04597701149424,246.60799413274663 476.2068965517241,240.42904290429044 C484.367816091954,234.25009167583426 492.5287356321839,230.10634396773008 500.6896551724138,224.47744774477445 C508.85057471264366,218.84855152181882 517.0114942528736,211.73450678401173 525.1724137931035,206.65566556655665 C533.3333333333334,201.57682434910157 541.4942528735633,198.4048404840484 549.6551724137931,194.004400440044 C557.816091954023,189.6039603960396 565.9770114942529,184.59845984598462 574.1379310344828,180.25302530253026 C582.2988505747127,175.9075907590759 590.4597701149426,172.14888155482214 598.6206896551724,167.93179317931794 C606.7816091954023,163.71470480381373 614.9425287356322,159.13091309130914 623.1034482758621,154.95049504950495 C631.264367816092,150.77007700770076 639.4252873563219,146.93802713604697 647.5862068965517,142.84928492849286 C655.7471264367816,138.76054272093876 663.9080459770115,134.2134213421342 672.0689655172414,130.4180418041804 C680.2298850574713,126.62266226622661 688.3908045977012,123.78071140447379 696.551724137931,120.07700770077008 C704.7126436781609,116.37330399706637 712.8735632183908,112.8162816281628 721.0344827586207,108.19581958195818 C729.1954022988506,103.57535753575355 737.3563218390805,97.50641730839753 745.5172413793103,92.35423542354238 C753.6781609195402,87.20205353868722 761.8390804597701,82.30656398973231 770,77.28272827282728" fill="none" stroke="#dfb317" stroke-width="2.5" class="data-line-0" />
  <path d="M60,349.66996699669966 C68.16091954022988,349.66996699669966 76.32183908045977,349.66996699669966 84.48275862068965,349.66996699669966 C92.64367816091954,349.66996699669966 100.80459770114942,349.66996699669966 108.9655172413793,349.66996699669966 C117.12643678160919,349.66996699669966 125.28735632183907,349.66996699669966 133.44827586206895,349.66996699669966 C141.60919540229884,349.66996699669966 149.77011494252872,349.66996699669966 157.9310344827586,349.66996699669966 C166.0919540229885,349.66996699669966 174.2528735632184,349.66996699669966 182.41379310344828,349.66996699669966 C190.57471264367817,349.66996699669966 198.73563218390805,349.66996699669966 206.89655172413794,349.66996699669966 C215.05747126436782,349.66996699669966 223.2183908045977,349.66996699669966 231.3793103448276,349.66996699669966 C239.54022988505747,349.66996699669966 247.70114942528735,349.66996699669966 255.86206896551724,349.66996699669966 C264.0229885057471,349.66996699669966 272.183908045977,349.66996699669966 280.34482758620686,349.66996699669966 C288.50574712643675,349.66996699669966 296.6666666666667,349.66996699669966 304.82758620689657,349.66996699669966 C312.98850574712645,349.66996699669966 321.14942528735634,349.66996699669966 329.3103448275862,349.66996699669966 C337.4712643678161,349.66996699669966 345.632183908046,349.66996699669966 353.7931034482759,349.66996699669966 C361.95402298850576,349.66996699669966 370.11494252873564,349.66996699669966 378.2758620689655,349.66996699669966 C386.4367816091954,349.66996699669966 394.5977011494253,349.66996699669966 402.7586206896552,349.66996699669966 C410.91954022988506,349.66996699669966 419.08045977011494,349.66996699669966 427.2413793103448,349.66996699669966 C435.4022988505747,349.66996699669966 443.5632183908046,349.66996699669966 451.7241379310345,349.66996699669966 C459.88505747126436,349.66996699669966 468.04597701149424,349.66996699669966 476.2068965517241,349.66996699669966 C484.367816091954,349.66996699669966 492.5287356321839,349.66996699669966 500.6896551724138,349.66996699669966 C508.85057471264366,349.66996699669966 517.0114942528736,349.66996699669966 525.1724137931035,349.66996699669966 C533.3333333333334,349.66996699669966 541.4942528735633,349.66996699669966 549.6551724137931,349.66996699669966 C557.816091954023,349.66996699669966 565.9770114942529,349.66996699669966 574.1379310344828,349.66996699669966 C582.2988505747127,349.66996699669966 590.4597701149426,349.66996699669966 598.6206896551724,349.66996699669966 C606.7816091954023,349.66996699669966 614.9425287356322,349.66996699669966 623.1034482758621,349.66996699669966 C631.264367816092,349.66996699669966 639.4252873563219,349.66996699669966 647.5862068965517,349.66996699669966 C655.7471264367816,349.66996699669966 663.9080459770115,349.66996699669966 672.0689655172414,349.66996699669966 C680.2298850574713,349.66996699669966 688.3908045977012,349.66996699669966 696.551724137931,349.66996699669966 C704.7126436781609,349.66996699669966 712.8735632183908,349.66996699669966 721.0344827586207,349.66996699669966 C729.1954022988506,349.66996699669966 737.3563218390805,349.66996699669966 745.5172413793103,349.66996699669966 C753.6781609195402,349.66996699669966 761.8390804597701,349.66996699669966 770,349.66996699669966" fill="none" stroke="#28a745" stroke-width="2.5" class="data-line-1" />
  <path d="M60,349.7799779977998 C68.16091954022988,349.7799779977998 76.32183908045977,349.7799779977998 84.48275862068965,349.7799779977998 C92.64367816091954,349.7799779977998 100.80459770114942,349.7799779977998 108.9655172413793,349.7799779977998 C117.12643678160919,349.7799779977998 125.28735632183907,349.7799779977998 133.44827586206895,349.7799779977998 C141.60919540229884,349.7799779977998 149.77011494252872,349.7799779977998 157.9310344827586,349.7799779977998 C166.0919540229885,349.7799779977998 174.2528735632184,349.7799779977998 182.41379310344828,349.7799779977998 C190.57471264367817,349.7799779977998 198.73563218390805,349.7799779977998 206.89655172413794,349.7799779977998 C215.05747126436782,349.7799779977998 223.2183908045977,349.7799779977998 231.3793103448276,349.7799779977998 C239.54022988505747,349.7799779977998 247.70114942528735,349.7799779977998 255.86206896551724,349.7799779977998 C264.0229885057471,349.7799779977998 272.183908045977,349.7799779977998 280.34482758620686,349.7799779977998 C288.50574712643675,349.7799779977998 296.6666666666667,349.7799779977998 304.82758620689657,349.7799779977998 C312.98850574712645,349.7799779977998 321.14942528735634,349.7799779977998 329.3103448275862,349.7799779977998 C337.4712643678161,349.7799779977998 345.632183908046,349.7799779977998 353.7931034482759,349.7799779977998 C361.95402298850576,349.7799779977998 370.11494252873564,349.7799779977998 378.2758620689655,349.7799779977998 C386.4367816091954,349.7799779977998 394.5977011494253,349.7799779977998 402.7586206896552,349.7799779977998 C410.91954022988506,349.7799779977998 419.08045977011494,349.7799779977998 427.2413793103448,349.7799779977998 C435.4022988505747,349.7799779977998 443.5632183908046,349.7799779977998 451.7241379310345,349.7799779977998 C459.88505747126436,349.7799779977998 468.04597701149424,349.7799779977998 476.2068965517241,349.7799779977998 C484.367816091954,349.7799779977998 492.5287356321839,349.7799779977998 500.6896551724138,349.7799779977998 C508.85057471264366,349.7799779977998 517.0114942528736,349.7799779977998 525.1724137931035,349.7799779977998 C533.3333333333334,349.7799779977998 541.4942528735633,349.7799779977998 549.6551724137931,349.7799779977998 C557.816091954023,349.7799779977998 565.9770114942529,349.7799779977998 574.1379310344828,349.7799779977998 C582.2988505747127,349.7799779977998 590.4597701149426,349.7799779977998 598.6206896551724,349.7799779977998 C606.7816091954023,349.7799779977998 614.9425287356322,349.7799779977998 623.1034482758621,349.7799779977998 C631.264367816092,349.7799779977998 639.4252873563219,349.7799779977998 647.5862068965517,349.7799779977998 C655.7471264367816,349.7799779977998 663.9080459770115,349.7799779977998 672.0689655172414,349.7799779977998 C680.2298850574713,349.7799779977998 688.3908045977012,349.7799779977998 696.551724137931,349.7799779977998 C704.7126436781609,349.7799779977998 712.8735632183908,349.7799779977998 721.0344827586207,349.7799779977998 C729.1954022988506,349.7799779977998 737.3563218390805,349.7799779977998 745.5172413793103,349.7799779977998 C753.6781609195402,349.7799779977998 761.8390804597701,349.7799779977998 770,349.7799779977998" fill="none" stroke="#e74c3c" stroke-width="2.5" class="data-line-2" />
  <path d="M60,349.7799779977998 C68.16091954022988,349.7799779977998 76.32183908045977,349.7799779977998 84.48275862068965,349.7799779977998 C92.64367816091954,349.7799779977998 100.80459770114942,349.7799779977998 108.9655172413793,349.7799779977998 C117.12643678160919,349.7799779977998 125.28735632183907,349.7799779977998 133.44827586206895,349.7799779977998 C141.60919540229884,349.7799779977998 149.77011494252872,349.7799779977998 157.9310344827586,349.7799779977998 C166.0919540229885,349.7799779977998 174.2528735632184,349.7799779977998 182.41379310344828,349.7799779977998 C190.57471264367817,349.7799779977998 198.73563218390805,349.7799779977998 206.89655172413794,349.7799779977998 C215.05747126436782,349.7799779977998 223.2183908045977,349.7799779977998 231.3793103448276,349.7799779977998 C239.54022988505747,349.7799779977998 247.70114942528735,349.7799779977998 255.86206896551724,349.7799779977998 C264.0229885057471,349.7799779977998 272.183908045977,349.7799779977998 280.34482758620686,349.7799779977998 C288.50574712643675,349.7799779977998 296.6666666666667,349.7799779977998 304.82758620689657,349.7799779977998 C312.98850574712645,349.7799779977998 321.14942528735634,349.7799779977998 329.3103448275862,349.7799779977998 C337.4712643678161,349.7799779977998 345.632183908046,349.7799779977998 353.7931034482759,349.7799779977998 C361.95402298850576,349.7799779977998 370.11494252873564,349.7799779977998 378.2758620689655,349.7799779977998 C386.4367816091954,349.7799779977998 394.5977011494253,349.7799779977998 402.7586206896552,349.7799779977998 C410.91954022988506,349.7799779977998 419.08045977011494,349.7799779977998 427.2413793103448,349.7799779977998 C435.4022988505747,349.7799779977998 443.5632183908046,349.7799779977998 451.7241379310345,349.7799779977998 C459.88505747126436,349.7799779977998 468.04597701149424,349.7799779977998 476.2068965517241,349.7799779977998 C484.367816091954,349.7799779977998 492.5287356321839,349.7799779977998 500.6896551724138,349.7799779977998 C508.85057471264366,349.7799779977998 517.0114942528736,349.7799779977998 525.1724137931035,349.7799779977998 C533.3333333333334,349.7799779977998 541.4942528735633,349.7799779977998 549.6551724137931,349.7799779977998 C557.816091954023,349.7799779977998 565.9770114942529,349.7799779977998 574.1379310344828,349.7799779977998 C582.2988505747127,349.7799779977998 590.4597701149426,349.7799779977998 598.6206896551724,349.7799779977998 C606.7816091954023,349.7799779977998 614.9425287356322,349.7799779977998 623.1034482758621,349.7799779977998 C631.264367816092,349.7799779977998 639.4252873563219,349.7799779977998 647.5862068965517,349.7799779977998 C655.7471264367816,349.7799779977998 663.9080459770115,349.7799779977998 672.0689655172414,349.7799779977998 C680.2298850574713,349.7799779977998 688.3908045977012,349.7799779977998 696.551724137931,349.7799779977998 C704.7126436781609,349.7799779977998 712.8735632183908,349.7799779977998 721.0344827586207,349.7799779977998 C729.1954022988506,349.7799779977998 737.3563218390805,349.7799779977998 745.5172413793103,349.7799779977998 C753.6781609195402,349.7799779977998 761.8390804597701,349.7799779977998 770,349.7799779977998" fill="none" stroke="#3498db" stroke-width="2.5" class="data-line-3" />
  <path d="M60,349.88998899889987 C68.16091954022988,349.88998899889987 76.32183908045977,349.88998899889987 84.48275862068965,349.88998899889987 C92.64367816091954,349.88998899889987 100.80459770114942,349.88998899889987 108.9655172413793,349.88998899889987 C117.12643678160919,349.88998899889987 125.28735632183907,349.88998899889987 133.44827586206895,349.88998899889987 C141.60919540229884,349.88998899889987 149.77011494252872,349.88998899889987 157.9310344827586,349.88998899889987 C166.0919540229885,349.88998899889987 174.2528735632184,349.88998899889987 182.41379310344828,349.88998899889987 C190.57471264367817,349.88998899889987 198.73563218390805,349.88998899889987 206.89655172413794,349.88998899889987 C215.05747126436782,349.88998899889987 223.2183908045977,349.88998899889987 231.3793103448276,349.88998899889987 C239.54022988505747,349.88998899889987 247.70114942528735,349.88998899889987 255.86206896551724,349.88998899889987 C264.0229885057471,349.88998899889987 272.183908045977,349.88998899889987 280.34482758620686,349.88998899889987 C288.50574712643675,349.88998899889987 296.6666666666667,349.88998899889987 304.82758620689657,349.88998899889987 C312.98850574712645,349.88998899889987 321.14942528735634,349.88998899889987 329.3103448275862,349.88998899889987 C337.4712643678161,349.88998899889987 345.632183908046,349.88998899889987 353.7931034482759,349.88998899889987 C361.95402298850576,349.88998899889987 370.11494252873564,349.88998899889987 378.2758620689655,349.88998899889987 C386.4367816091954,349.88998899889987 394.5977011494253,349.88998899889987 402.7586206896552,349.88998899889987 C410.91954022988506,349.88998899889987 419.08045977011494,349.88998899889987 427.2413793103448,349.88998899889987 C435.4022988505747,349.88998899889987 443.5632183908046,349.88998899889987 451.7241379310345,349.88998899889987 C459.88505747126436,349.88998899889987 468.04597701149424,349.88998899889987 476.2068965517241,349.88998899889987 C484.367816091954,349.88998899889987 492.5287356321839,349.88998899889987 500.6896551724138,349.88998899889987 C508.85057471264366,349.88998899889987 517.0114942528736,349.88998899889987 525.1724137931035,349.88998899889987 C533.3333333333334,349.88998899889987 541.4942528735633,349.88998899889987 549.6551724137931,349.88998899889987 C557.816091954023,349.88998899889987 565.9770114942529,349.88998899889987 574.1379310344828,349.88998899889987 C582.2988505747127,349.88998899889987 590.4597701149426,349.88998899889987 598.6206896551724,349.88998899889987 C606.7816091954023,349.88998899889987 614.9425287356322,349.88998899889987 623.1034482758621,349.88998899889987 C631.264367816092,349.88998899889987 639.4252873563219,349.88998899889987 647.5862068965517,349.88998899889987 C655.7471264367816,349.88998899889987 663.9080459770115,349.88998899889987 672.0689655172414,349.88998899889987 C680.2298850574713,349.88998899889987 688.3908045977012,349.88998899889987 696.551724137931,349.88998899889987 C704.7126436781609,349.88998899889987 712.8735632183908,349.88998899889987 721.0344827586207,349.88998899889987 C729.1954022988506,349.88998899889987 737.3563218390805,349.88998899889987 745.5172413793103,349.88998899889987 C753.6781609195402,349.88998899889987 761.8390804597701,349.88998899889987 770,349.88998899889987" fill="none" stroke="#9b59b6" stroke-width="2.5" class="data-line-4" />
  <path d="M60,349.88998899889987 C68.16091954022988,349.88998899889987 76.32183908045977,349.88998899889987 84.48275862068965,349.88998899889987 C92.64367816091954,349.88998899889987 100.80459770114942,349.88998899889987 108.9655172413793,349.88998899889987 C117.12643678160919,349.88998899889987 125.28735632183907,349.88998899889987 133.44827586206895,349.88998899889987 C141.60919540229884,349.88998899889987 149.77011494252872,349.88998899889987 157.9310344827586,349.88998899889987 C166.0919540229885,349.88998899889987 174.2528735632184,349.88998899889987 182.41379310344828,349.88998899889987 C190.57471264367817,349.88998899889987 198.73563218390805,349.88998899889987 206.89655172413794,349.88998899889987 C215.05747126436782,349.88998899889987 223.2183908045977,349.88998899889987 231.3793103448276,349.88998899889987 C239.54022988505747,349.88998899889987 247.70114942528735,349.88998899889987 255.86206896551724,349.88998899889987 C264.0229885057471,349.88998899889987 272.183908045977,349.88998899889987 280.34482758620686,349.88998899889987 C288.50574712643675,349.88998899889987 296.6666666666667,349.88998899889987 304.82758620689657,349.88998899889987 C312.98850574712645,349.88998899889987 321.14942528735634,349.88998899889987 329.3103448275862,349.88998899889987 C337.4712643678161,349.88998899889987 345.632183908046,349.88998899889987 353.7931034482759,349.88998899889987 C361.95402298850576,349.88998899889987 370.11494252873564,349.88998899889987 378.2758620689655,349.88998899889987 C386.4367816091954,349.88998899889987 394.5977011494253,349.88998899889987 402.7586206896552,349.88998899889987 C410.91954022988506,349.88998899889987 419.08045977011494,349.88998899889987 427.2413793103448,349.88998899889987 C435.4022988505747,349.88998899889987 443.5632183908046,349.88998899889987 451.7241379310345,349.88998899889987 C459.88505747126436,349.88998899889987 468.04597701149424,349.88998899889987 476.2068965517241,349.88998899889987 C484.367816091954,349.88998899889987 492.5287356321839,349.88998899889987 500.6896551724138,349.88998899889987 C508.85057471264366,349.88998899889987 517.0114942528736,349.88998899889987 525.1724137931035,349.88998899889987 C533.3333333333334,349.88998899889987 541.4942528735633,349.88998899889987 549.6551724137931,349.88998899889987 C557.816091954023,349.88998899889987 565.9770114942529,349.88998899889987 574.1379310344828,349.88998899889987 C582.2988505747127,349.88998899889987 590.4597701149426,349.88998899889987 598.6206896551724,349.88998899889987 C606.7816091954023,349.88998899889987 614.9425287356322,349.88998899889987 623.1034482758621,349.88998899889987 C631.264367816092,349.88998899889987 639.4252873563219,349.88998899889987 647.5862068965517,349.88998899889987 C655.7471264367816,349.88998899889987 663.9080459770115,349.88998899889987 672.0689655172414,349.88998899889987 C680.2298850574713,349.88998899889987 688.3908045977012,349.88998899889987 696.551724137931,349.88998899889987 C704.7126436781609,349.88998899889987 712.8735632183908,349.88998899889987 721.0344827586207,349.88998899889987 C729.1954022988506,349.88998899889987 737.3563218390805,349.88998899889987 745.5172413793103,349.88998899889987 C753.6781609195402,349.88998899889987 761.8390804597701,349.88998899889987 770,349.88998899889987" fill="none" stroke="#e67e22" stroke-width="2.5" class="data-line-5" />
  <path d="M60,349.88998899889987 C68.16091954022988,349.88998899889987 76.32183908045977,349.88998899889987 84.48275862068965,349.88998899889987 C92.64367816091954,349.88998899889987 100.80459770114942,349.88998899889987 108.9655172413793,349.88998899889987 C117.12643678160919,349.88998899889987 125.28735632183907,349.88998899889987 133.44827586206895,349.88998899889987 C141.60919540229884,349.88998899889987 149.77011494252872,349.88998899889987 157.9310344827586,349.88998899889987 C166.0919540229885,349.88998899889987 174.2528735632184,349.88998899889987 182.41379310344828,349.88998899889987 C190.57471264367817,349.88998899889987 198.73563218390805,349.88998899889987 206.89655172413794,349.88998899889987 C215.05747126436782,349.88998899889987 223.2183908045977,349.88998899889987 231.3793103448276,349.88998899889987 C239.54022988505747,349.88998899889987 247.70114942528735,349.88998899889987 255.86206896551724,349.88998899889987 C264.0229885057471,349.88998899889987 272.183908045977,349.88998899889987 280.34482758620686,349.88998899889987 C288.50574712643675,349.88998899889987 296.6666666666667,349.88998899889987 304.82758620689657,349.88998899889987 C312.98850574712645,349.88998899889987 321.14942528735634,349.88998899889987 329.3103448275862,349.88998899889987 C337.4712643678161,349.88998899889987 345.632183908046,349.88998899889987 353.7931034482759,349.88998899889987 C361.95402298850576,349.88998899889987 370.11494252873564,349.88998899889987 378.2758620689655,349.88998899889987 C386.4367816091954,349.88998899889987 394.5977011494253,349.88998899889987 402.7586206896552,349.88998899889987 C410.91954022988506,349.88998899889987 419.08045977011494,349.88998899889987 427.2413793103448,349.88998899889987 C435.4022988505747,349.88998899889987 443.5632183908046,349.88998899889987 451.7241379310345,349.88998899889987 C459.88505747126436,349.88998899889987 468.04597701149424,349.88998899889987 476.2068965517241,349.88998899889987 C484.367816091954,349.88998899889987 492.5287356321839,349.88998899889987 500.6896551724138,349.88998899889987 C508.85057471264366,349.88998899889987 517.0114942528736,349.88998899889987 525.1724137931035,349.88998899889987 C533.3333333333334,349.88998899889987 541.4942528735633,349.88998899889987 549.6551724137931,349.88998899889987 C557.816091954023,349.88998899889987 565.9770114942529,349.88998899889987 574.1379310344828,349.88998899889987 C582.2988505747127,349.88998899889987 590.4597701149426,349.88998899889987 598.6206896551724,349.88998899889987 C606.7816091954023,349.88998899889987 614.9425287356322,349.88998899889987 623.1034482758621,349.88998899889987 C631.264367816092,349.88998899889987 639.4252873563219,349.88998899889987 647.5862068965517,349.88998899889987 C655.7471264367816,349.88998899889987 663.9080459770115,349.88998899889987 672.0689655172414,349.88998899889987 C680.2298850574713,349.88998899889987 688.3908045977012,349.88998899889987 696.551724137931,349.88998899889987 C704.7126436781609,349.88998899889987 712.8735632183908,349.88998899889987 721.0344827586207,349.88998899889987 C729.1954022988506,349.88998899889987 737.3563218390805,349.88998899889987 745.5172413793103,349.88998899889987 C753.6781609195402,349.88998899889987 761.8390804597701,349.88998899889987 770,349.88998899889987" fill="none" stroke="#1abc9c" stroke-width="2.5" class="data-line-6" />
  <path d="M60,349.88998899889987 C68.16091954022988,349.88998899889987 76.32183908045977,349.88998899889987 84.48275862068965,349.88998899889987 C92.64367816091954,349.88998899889987 100.80459770114942,349.88998899889987 108.9655172413793,349.88998899889987 C117.12643678160919,349.88998899889987 125.28735632183907,349.88998899889987 133.44827586206895,349.88998899889987 C141.60919540229884,349.88998899889987 149.77011494252872,349.88998899889987 157.9310344827586,349.88998899889987 C166.0919540229885,349.88998899889987 174.2528735632184,349.88998899889987 182.41379310344828,349.88998899889987 C190.57471264367817,349.88998899889987 198.73563218390805,349.88998899889987 206.89655172413794,349.88998899889987 C215.05747126436782,349.88998899889987 223.2183908045977,349.88998899889987 231.3793103448276,349.88998899889987 C239.54022988505747,349.88998899889987 247.70114942528735,349.88998899889987 255.86206896551724,349.88998899889987 C264.0229885057471,349.88998899889987 272.183908045977,349.88998899889987 280.34482758620686,349.88998899889987 C288.50574712643675,349.88998899889987 296.6666666666667,349.88998899889987 304.82758620689657,349.88998899889987 C312.98850574712645,349.88998899889987 321.14942528735634,349.88998899889987 329.3103448275862,349.88998899889987 C337.4712643678161,349.88998899889987 345.632183908046,349.88998899889987 353.7931034482759,349.88998899889987 C361.95402298850576,349.88998899889987 370.11494252873564,349.88998899889987 378.2758620689655,349.88998899889987 C386.4367816091954,349.88998899889987 394.5977011494253,349.88998899889987 402.7586206896552,349.88998899889987 C410.91954022988506,349.88998899889987 419.08045977011494,349.88998899889987 427.2413793103448,349.88998899889987 C435.4022988505747,349.88998899889987 443.5632183908046,349.88998899889987 451.7241379310345,349.88998899889987 C459.88505747126436,349.88998899889987 468.04597701149424,349.88998899889987 476.2068965517241,349.88998899889987 C484.367816091954,349.88998899889987 492.5287356321839,349.88998899889987 500.6896551724138,349.88998899889987 C508.85057471264366,349.88998899889987 517.0114942528736,349.88998899889987 525.1724137931035,349.88998899889987 C533.3333333333334,349.88998899889987 541.4942528735633,349.88998899889987 549.6551724137931,349.88998899889987 C557.816091954023,349.88998899889987 565.9770114942529,349.88998899889987 574.1379310344828,349.88998899889987 C582.2988505747127,349.88998899889987 590.4597701149426,349.88998899889987 598.6206896551724,349.88998899889987 C606.7816091954023,349.88998899889987 614.9425287356322,349.88998899889987 623.1034482758621,349.88998899889987 C631.264367816092,349.88998899889987 639.4252873563219,349.88998899889987 647.5862068965517,349.88998899889987 C655.7471264367816,349.88998899889987 663.9080459770115,349.88998899889987 672.0689655172414,349.88998899889987 C680.2298850574713,349.88998899889987 688.3908045977012,349.88998899889987 696.551724137931,349.88998899889987 C704.7126436781609,349.88998899889987 712.8735632183908,349.88998899889987 721.0344827586207,349.88998899889987 C729.1954022988506,349.88998899889987 737.3563218390805,349.88998899889987 745.5172413793103,349.88998899889987 C753.6781609195402,349.88998899889987 761.8390804597701,349.88998899889987 770,349.88998899889987" fill="none" stroke="#e84393" stroke-width="2.5" class="data-line-7" />
  <path d="M60,350 C68.16091954022988,350 76.32183908045977,350 84.48275862068965,350 C92.64367816091954,350 100.80459770114942,350 108.9655172413793,350 C117.12643678160919,350 125.28735632183907,350 133.44827586206895,350 C141.60919540229884,350 149.77011494252872,350 157.9310344827586,350 C166.0919540229885,350 174.2528735632184,350 182.41379310344828,350 C190.57471264367817,350 198.73563218390805,350 206.89655172413794,350 C215.05747126436782,350 223.2183908045977,350 231.3793103448276,350 C239.54022988505747,350 247.70114942528735,350 255.86206896551724,350 C264.0229885057471,350 272.183908045977,350 280.34482758620686,350 C288.50574712643675,350 296.6666666666667,350 304.82758620689657,350 C312.98850574712645,350 321.14942528735634,350 329.3103448275862,350 C337.4712643678161,350 345.632183908046,350 353.7931034482759,350 C361.95402298850576,350 370.11494252873564,350 378.2758620689655,350 C386.4367816091954,350 394.5977011494253,350 402.7586206896552,350 C410.91954022988506,350 419.08045977011494,350 427.2413793103448,350 C435.4022988505747,350 443.5632183908046,350 451.7241379310345,350 C459.88505747126436,350 468.04597701149424,350 476.2068965517241,350 C484.367816091954,350 492.5287356321839,350 500.6896551724138,350 C508.85057471264366,350 517.0114942528736,350 525.1724137931035,350 C533.3333333333334,350 541.4942528735633,350 549.6551724137931,350 C557.816091954023,350 565.9770114942529,350 574.1379310344828,350 C582.2988505747127,350 590.4597701149426,350 598.6206896551724,350 C606.7816091954023,350 614.9425287356322,350 623.1034482758621,350 C631.264367816092,350 639.4252873563219,350 647.5862068965517,350 C655.7471264367816,350 663.9080459770115,350 672.0689655172414,350 C680.2298850574713,350 688.3908045977012,350 696.551724137931,350 C704.7126436781609,350 712.8735632183908,350 721.0344827586207,350 C729.1954022988506,350 737.3563218390805,350 745.5172413793103,350 C753.6781609195402,350 761.8390804597701,350 770,350" fill="none" stroke="#795548" stroke-width="2.5" class="data-line-8" />
  <path d="M60,350 C68.16091954022988,350 76.32183908045977,350 84.48275862068965,350 C92.64367816091954,350 100.80459770114942,350 108.9655172413793,350 C117.12643678160919,350 125.28735632183907,350 133.44827586206895,350 C141.60919540229884,350 149.77011494252872,350 157.9310344827586,350 C166.0919540229885,350 174.2528735632184,350 182.41379310344828,350 C190.57471264367817,350 198.73563218390805,350 206.89655172413794,350 C215.05747126436782,350 223.2183908045977,350 231.3793103448276,350 C239.54022988505747,350 247.70114942528735,350 255.86206896551724,350 C264.0229885057471,350 272.183908045977,350 280.34482758620686,350 C288.50574712643675,350 296.6666666666667,350 304.82758620689657,350 C312.98850574712645,350 321.14942528735634,350 329.3103448275862,350 C337.4712643678161,350 345.632183908046,350 353.7931034482759,350 C361.95402298850576,350 370.11494252873564,350 378.2758620689655,350 C386.4367816091954,350 394.5977011494253,350 402.7586206896552,350 C410.91954022988506,350 419.08045977011494,350 427.2413793103448,350 C435.4022988505747,350 443.5632183908046,350 451.7241379310345,350 C459.88505747126436,350 468.04597701149424,350 476.2068965517241,350 C484.367816091954,350 492.5287356321839,350 500.6896551724138,350 C508.85057471264366,350 517.0114942528736,350 525.1724137931035,350 C533.3333333333334,350 541.4942528735633,350 549.6551724137931,350 C557.816091954023,350 565.9770114942529,350 574.1379310344828,350 C582.2988505747127,350 590.4597701149426,350 598.6206896551724,350 C606.7816091954023,350 614.9425287356322,350 623.1034482758621,350 C631.264367816092,350 639.4252873563219,350 647.5862068965517,350 C655.7471264367816,350 663.9080459770115,350 672.0689655172414,350 C680.2298850574713,350 688.3908045977012,350 696.551724137931,350 C704.7126436781609,350 712.8735632183908,350 721.0344827586207,350 C729.1954022988506,350 737.3563218390805,350 745.5172413793103,350 C753.6781609195402,350 761.8390804597701,350 770,350" fill="none" stroke="#00bcd4" stroke-width="2.5" class="data-line-9" />
  <g class="points">
    
    <circle cx="60" cy="349.88998899889987" r="4" fill="#dfb317" class="data-point" style="animation-delay: 1.50s" />
    <circle cx="84.48275862068965" cy="342.1892189218922" r="4" fill="#dfb317" class="data-point" style="animation-delay: 1.55s" />
    <circle cx="108.9655172413793" cy="338.2288228822882" r="4" fill="#dfb317" class="data-point" style="animation-delay: 1.60s" />
    <circle cx="133.44827586206895" cy="334.5984598459846" r="4" fill="#dfb317" class="data-point" style="animation-delay: 1.65s" />
    <circle cx="157.9310344827586" cy="331.2981298129813" r="4" fill="#dfb317" class="data-point" style="animation-delay: 1.70s" />
    <circle cx="182.41379310344828" cy="326.7876787678768" r="4" fill="#dfb317" class="data-point" style="animation-delay: 1.75s" />
    <circle cx="206.89655172413794" cy="323.26732673267327" r="4" fill="#dfb317" class="data-point" style="animation-delay: 1.80s" />
    <circle cx="231.3793103448276" cy="320.957095709571" r="4" fill="#dfb317" class="data-point" style="animation-delay: 1.85s" />
    <circle cx="255.86206896551724" cy="319.0869086908691" r="4" fill="#dfb317" class="data-point" style="animation-delay: 1.90s" />
    <circle cx="280.34482758620686" cy="316.6666666666667" r="4" fill="#dfb317" class="data-point" style="animation-delay: 1.95s" />
    <circle cx="304.82758620689657" cy="310.94609460946094" r="4" fill="#dfb317" class="data-point" style="animation-delay: 2.00s" />
    <circle cx="329.3103448275862" cy="308.965896589659" r="4" fill="#dfb317" class="data-point" style="animation-delay: 2.05s" />
    <circle cx="353.7931034482759" cy="306.3256325632563" r="4" fill="#dfb317" class="data-point" style="animation-delay: 2.10s" />
    <circle cx="378.2758620689655" cy="303.02530253025304" r="4" fill="#dfb317" class="data-point" style="animation-delay: 2.15s" />
    <circle cx="402.7586206896552" cy="296.2046204620462" r="4" fill="#dfb317" class="data-point" style="animation-delay: 2.20s" />
    <circle cx="427.2413793103448" cy="285.3135313531353" r="4" fill="#dfb317" class="data-point" style="animation-delay: 2.25s" />
    <circle cx="451.7241379310345" cy="261.55115511551156" r="4" fill="#dfb317" class="data-point" style="animation-delay: 2.30s" />
    <circle cx="476.2068965517241" cy="240.42904290429044" r="4" fill="#dfb317" class="data-point" style="animation-delay: 2.35s" />
    <circle cx="500.6896551724138" cy="224.47744774477445" r="4" fill="#dfb317" class="data-point" style="animation-delay: 2.40s" />
    <circle cx="525.1724137931035" cy="206.65566556655665" r="4" fill="#dfb317" class="data-point" style="animation-delay: 2.45s" />
    <circle cx="549.6551724137931" cy="194.004400440044" r="4" fill="#dfb317" class="data-point" style="animation-delay: 2.50s" />
    <circle cx="574.1379310344828" cy="180.25302530253026" r="4" fill="#dfb317" class="data-point" style="animation-delay: 2.55s" />
    <circle cx="598.6206896551724" cy="167.93179317931794" r="4" fill="#dfb317" class="data-point" style="animation-delay: 2.60s" />
    <circle cx="623.1034482758621" cy="154.95049504950495" r="4" fill="#dfb317" class="data-point" style="animation-delay: 2.65s" />
    <circle cx="647.5862068965517" cy="142.84928492849286" r="4" fill="#dfb317" class="data-point" style="animation-delay: 2.70s" />
    <circle cx="672.0689655172414" cy="130.4180418041804" r="4" fill="#dfb317" class="data-point" style="animation-delay: 2.75s" />
    <circle cx="696.551724137931" cy="120.07700770077008" r="4" fill="#dfb317" class="data-point" style="animation-delay: 2.80s" />
    <circle cx="721.0344827586207" cy="108.19581958195818" r="4" fill="#dfb317" class="data-point" style="animation-delay: 2.85s" />
    <circle cx="745.5172413793103" cy="92.35423542354238" r="4" fill="#dfb317" class="data-point" style="animation-delay: 2.90s" />
    <circle cx="770" cy="77.28272827282728" r="4" fill="#dfb317" class="data-point" style="animation-delay: 2.95s" />
    
    <circle cx="60" cy="349.66996699669966" r="4" fill="#28a745" class="data-point" style="animation-delay: 1.50s" />
    <circle cx="84.48275862068965" cy="349.66996699669966" r="4" fill="#28a745" class="data-point" style="animation-delay: 1.55s" />
    <circle cx="108.9655172413793" cy="349.66996699669966" r="4" fill="#28a745" class="data-point" style="animation-delay: 1.60s" />
    <circle cx="133.44827586206895" cy="349.66996699669966" r="4" fill="#28a745" class="data-point" style="animation-delay: 1.65s" />
    <circle cx="157.9310344827586" cy="349.66996699669966" r="4" fill="#28a745" class="data-point" style="animation-delay: 1.70s" />
    <circle cx="182.41379310344828" cy="349.66996699669966" r="4" fill="#28a745" class="data-point" style="animation-delay: 1.75s" />
    <circle cx="206.89655172413794" cy="349.66996699669966" r="4" fill="#28a745" class="data-point" style="animation-delay: 1.80s" />
    <circle cx="231.3793103448276" cy="349.66996699669966" r="4" fill="#28a745" class="data-point" style="animation-delay: 1.85s" />
    <circle cx="255.86206896551724" cy="349.66996699669966" r="4" fill="#28a745" class="data-point" style="animation-delay: 1.90s" />
    <circle cx="280.34482758620686" cy="349.66996699669966" r="4" fill="#28a745" class="data-point" style="animation-delay: 1.95s" />
    <circle cx="304.82758620689657" cy="349.66996699669966" r="4" fill="#28a745" class="data-point" style="animation-delay: 2.00s" />
    <circle cx="329.3103448275862" cy="349.66996699669966" r="4" fill="#28a745" class="data-point" style="animation-delay: 2.05s" />
    <circle cx="353.7931034482759" cy="349.66996699669966" r="4" fill="#28a745" class="data-point" style="animation-delay: 2.10s" />
    <circle cx="378.2758620689655" cy="349.66996699669966" r="4" fill="#28a745" class="data-point" style="animation-delay: 2.15s" />
    <circle cx="402.7586206896552" cy="349.66996699669966" r="4" fill="#28a745" class="data-point" style="animation-delay: 2.20s" />
    <circle cx="427.2413793103448" cy="349.66996699669966" r="4" fill="#28a745" class="data-point" style="animation-delay: 2.25s" />
    <circle cx="451.7241379310345" cy="349.66996699669966" r="4" fill="#28a745" class="data-point" style="animation-delay: 2.30s" />
    <circle cx="476.2068965517241" cy="349.66996699669966" r="4" fill="#28a745" class="data-point" style="animation-delay: 2.35s" />
    <circle cx="500.6896551724138" cy="349.66996699669966" r="4" fill="#28a745" class="data-point" style="animation-delay: 2.40s" />
    <circle cx="525.1724137931035" cy="349.66996699669966" r="4" fill="#28a745" class="data-point" style="animation-delay: 2.45s" />
    <circle cx="549.6551724137931" cy="349.66996699669966" r="4" fill="#28a745" class="data-point" style="animation-delay: 2.50s" />
    <circle cx="574.1379310344828" cy="349.66996699669966" r="4" fill="#28a745" class="data-point" style="animation-delay: 2.55s" />
    <circle cx="598.6206896551724" cy="349.66996699669966" r="4" fill="#28a745" class="data-point" style="animation-delay: 2.60s" />
    <circle cx="623.1034482758621" cy="349.66996699669966" r="4" fill="#28a745" class="data-point" style="animation-delay: 2.65s" />
    <circle cx="647.5862068965517" cy="349.66996699669966" r="4" fill="#28a745" class="data-point" style="animation-delay: 2.70s" />
    <circle cx="672.0689655172414" cy="349.66996699669966" r="4" fill="#28a745" class="data-point" style="animation-delay: 2.75s" />
    <circle cx="696.551724137931" cy="349.66996699669966" r="4" fill="#28a745" class="data-point" style="animation-delay: 2.80s" />
    <circle cx="721.0344827586207" cy="349.66996699669966" r="4" fill="#28a745" class="data-point" style="animation-delay: 2.85s" />
    <circle cx="745.5172413793103" cy="349.66996699669966" r="4" fill="#28a745" class="data-point" style="animation-delay: 2.90s" />
    <circle cx="770" cy="349.66996699669966" r="4" fill="#28a745" class="data-point" style="animation-delay: 2.95s" />
    
    <circle cx="60" cy="349.7799779977998" r="4" fill="#e74c3c" class="data-point" style="animation-delay: 1.50s" />
    <circle cx="84.48275862068965" cy="349.7799779977998" r="4" fill="#e74c3c" class="data-point" style="animation-delay: 1.55s" />
    <circle cx="108.9655172413793" cy="349.7799779977998" r="4" fill="#e74c3c" class="data-point" style="animation-delay: 1.60s" />
    <circle cx="133.44827586206895" cy="349.7799779977998" r="4" fill="#e74c3c" class="data-point" style="animation-delay: 1.65s" />
    <circle cx="157.9310344827586" cy="349.7799779977998" r="4" fill="#e74c3c" class="data-point" style="animation-delay: 1.70s" />
    <circle cx="182.41379310344828" cy="349.7799779977998" r="4" fill="#e74c3c" class="data-point" style="animation-delay: 1.75s" />
    <circle cx="206.89655172413794" cy="349.7799779977998" r="4" fill="#e74c3c" class="data-point" style="animation-delay: 1.80s" />
    <circle cx="231.3793103448276" cy="349.7799779977998" r="4" fill="#e74c3c" class="data-point" style="animation-delay: 1.85s" />
    <circle cx="255.86206896551724" cy="349.7799779977998" r="4" fill="#e74c3c" class="data-point" style="animation-delay: 1.90s" />
    <circle cx="280.34482758620686" cy="349.7799779977998" r="4" fill="#e74c3c" class="data-point" style="animation-delay: 1.95s" />
    <circle cx="304.82758620689657" cy="349.7799779977998" r="4" fill="#e74c3c" class="data-point" style="animation-delay: 2.00s" />
    <circle cx="329.3103448275862" cy="349.7799779977998" r="4" fill="#e74c3c" class="data-point" style="animation-delay: 2.05s" />
    <circle cx="353.7931034482759" cy="349.7799779977998" r="4" fill="#e74c3c" class="data-point" style="animation-delay: 2.10s" />
    <circle cx="378.2758620689655" cy="349.7799779977998" r="4" fill="#e74c3c" class="data-point" style="animation-delay: 2.15s" />
    <circle cx="402.7586206896552" cy="349.7799779977998" r="4" fill="#e74c3c" class="data-point" style="animation-delay: 2.20s" />
    <circle cx="427.2413793103448" cy="349.7799779977998" r="4" fill="#e74c3c" class="data-point" style="animation-delay: 2.25s" />
    <circle cx="451.7241379310345" cy="349.7799779977998" r="4" fill="#e74c3c" class="data-point" style="animation-delay: 2.30s" />
    <circle cx="476.2068965517241" cy="349.7799779977998" r="4" fill="#e74c3c" class="data-point" style="animation-delay: 2.35s" />
    <circle cx="500.6896551724138" cy="349.7799779977998" r="4" fill="#e74c3c" class="data-point" style="animation-delay: 2.40s" />
    <circle cx="525.1724137931035" cy="349.7799779977998" r="4" fill="#e74c3c" class="data-point" style="animation-delay: 2.45s" />
    <circle cx="549.6551724137931" cy="349.7799779977998" r="4" fill="#e74c3c" class="data-point" style="animation-delay: 2.50s" />
    <circle cx="574.1379310344828" cy="349.7799779977998" r="4" fill="#e74c3c" class="data-point" style="animation-delay: 2.55s" />
    <circle cx="598.6206896551724" cy="349.7799779977998" r="4" fill="#e74c3c" class="data-point" style="animation-delay: 2.60s" />
    <circle cx="623.1034482758621" cy="349.7799779977998" r="4" fill="#e74c3c" class="data-point" style="animation-delay: 2.65s" />
    <circle cx="647.5862068965517" cy="349.7799779977998" r="4" fill="#e74c3c" class="data-point" style="animation-delay: 2.70s" />
    <circle cx="672.0689655172414" cy="349.7799779977998" r="4" fill="#e74c3c" class="data-point" style="animation-delay: 2.75s" />
    <circle cx="696.551724137931" cy="349.7799779977998" r="4" fill="#e74c3c" class="data-point" style="animation-delay: 2.80s" />
    <circle cx="721.0344827586207" cy="349.7799779977998" r="4" fill="#e74c3c" class="data-point" style="animation-delay: 2.85s" />
    <circle cx="745.5172413793103" cy="349.7799779977998" r="4" fill="#e74c3c" class="data-point" style="animation-delay: 2.90s" />
    <circle cx="770" cy="349.7799779977998" r="4" fill="#e74c3c" class="data-point" style="animation-delay: 2.95s" />
    
    <circle cx="60" cy="349.7799779977998" r="4" fill="#3498db" class="data-point" style="animation-delay: 1.50s" />
    <circle cx="84.48275862068965" cy="349.7799779977998" r="4" fill="#3498db" class="data-point" style="animation-delay: 1.55s" />
    <circle cx="108.9655172413793" cy="349.7799779977998" r="4" fill="#3498db" class="data-point" style="animation-delay: 1.60s" />
    <circle cx="133.44827586206895" cy="349.7799779977998" r="4" fill="#3498db" class="data-point" style="animation-delay: 1.65s" />
    <circle cx="157.9310344827586" cy="349.7799779977998" r="4" fill="#3498db" class="data-point" style="animation-delay: 1.70s" />
    <circle cx="182.41379310344828" cy="349.7799779977998" r="4" fill="#3498db" class="data-point" style="animation-delay: 1.75s" />
    <circle cx="206.89655172413794" cy="349.7799779977998" r="4" fill="#3498db" class="data-point" style="animation-delay: 1.80s" />
    <circle cx="231.3793103448276" cy="349.7799779977998" r="4" fill="#3498db" class="data-point" style="animation-delay: 1.85s" />
    <circle cx="255.86206896551724" cy="349.7799779977998" r="4" fill="#3498db" class="data-point" style="animation-delay: 1.90s" />
    <circle cx="280.34482758620686" cy="349.7799779977998" r="4" fill="#3498db" class="data-point" style="animation-delay: 1.95s" />
    <circle cx="304.82758620689657" cy="349.7799779977998" r="4" fill="#3498db" class="data-point" style="animation-delay: 2.00s" />
    <circle cx="329.3103448275862" cy="349.7799779977998" r="4" fill="#3498db" class="data-point" style="animation-delay: 2.05s" />
    <circle cx="353.7931034482759" cy="349.7799779977998" r="4" fill="#3498db" class="data-point" style="animation-delay: 2.10s" />
    <circle cx="378.2758620689655" cy="349.7799779977998" r="4" fill="#3498db" class="data-point" style="animation-delay: 2.15s" />
    <circle cx="402.7586206896552" cy="349.7799779977998" r="4" fill="#3498db" class="data-point" style="animation-delay: 2.20s" />
    <circle cx="427.2413793103448" cy="349.7799779977998" r="4" fill="#3498db" class="data-point" style="animation-delay: 2.25s" />
    <circle cx="451.7241379310345" cy="349.7799779977998" r="4" fill="#3498db" class="data-point" style="animation-delay: 2.30s" />
    <circle cx="476.2068965517241" cy="349.7799779977998" r="4" fill="#3498db" class="data-point" style="animation-delay: 2.35s" />
    <circle cx="500.6896551724138" cy="349.7799779977998" r="4" fill="#3498db" class="data-point" style="animation-delay: 2.40s" />
    <circle cx="525.1724137931035" cy="349.7799779977998" r="4" fill="#3498db" class="data-point" style="animation-delay: 2.45s" />
    <circle cx="549.6551724137931" cy="349.7799779977998" r="4" fill="#3498db" class="data-point" style="animation-delay: 2.50s" />
    <circle cx="574.1379310344828" cy="349.7799779977998" r="4" fill="#3498db" class="data-point" style="animation-delay: 2.55s" />
    <circle cx="598.6206896551724" cy="349.7799779977998" r="4" fill="#3498db" class="data-point" style="animation-delay: 2.60s" />
    <circle cx="623.1034482758621" cy="349.7799779977998" r="4" fill="#3498db" class="data-point" style="animation-delay: 2.65s" />
    <circle cx="647.5862068965517" cy="349.7799779977998" r="4" fill="#3498db" class="data-point" style="animation-delay: 2.70s" />
    <circle cx="672.0689655172414" cy="349.7799779977998" r="4" fill="#3498db" class="data-point" style="animation-delay: 2.75s" />
    <circle cx="696.551724137931" cy="349.7799779977998" r="4" fill="#3498db" class="data-point" style="animation-delay: 2.80s" />
    <circle cx="721.0344827586207" cy="349.7799779977998" r="4" fill="#3498db" class="data-point" style="animation-delay: 2.85s" />
    <circle cx="745.5172413793103" cy="349.7799779977998" r="4" fill="#3498db" class="data-point" style="animation-delay: 2.90s" />
    <circle cx="770" cy="349.7799779977998" r="4" fill="#3498db" class="data-point" style="animation-delay: 2.95s" />
    
    <circle cx="60" cy="349.88998899889987" r="4" fill="#9b59b6" class="data-point" style="animation-delay: 1.50s" />
    <circle cx="84.48275862068965" cy="349.88998899889987" r="4" fill="#9b59b6" class="data-point" style="animation-delay: 1.55s" />
    <circle cx="108.9655172413793" cy="349.88998899889987" r="4" fill="#9b59b6" class="data-point" style="animation-delay: 1.60s" />
    <circle cx="133.44827586206895" cy="349.88998899889987" r="4" fill="#9b59b6" class="data-point" style="animation-delay: 1.65s" />
    <circle cx="157.9310344827586" cy="349.88998899889987" r="4" fill="#9b59b6" class="data-point" style="animation-delay: 1.70s" />
    <circle cx="182.41379310344828" cy="349.88998899889987" r="4" fill="#9b59b6" class="data-point" style="animation-delay: 1.75s" />
    <circle cx="206.89655172413794" cy="349.88998899889987" r="4" fill="#9b59b6" class="data-point" style="animation-delay: 1.80s" />
    <circle cx="231.3793103448276" cy="349.88998899889987" r="4" fill="#9b59b6" class="data-point" style="animation-delay: 1.85s" />
    <circle cx="255.86206896551724" cy="349.88998899889987" r="4" fill="#9b59b6" class="data-point" style="animation-delay: 1.90s" />
    <circle cx="280.34482758620686" cy="349.88998899889987" r="4" fill="#9b59b6" class="data-point" style="animation-delay: 1.95s" />
    <circle cx="304.82758620689657" cy="349.88998899889987" r="4" fill="#9b59b6" class="data-point" style="animation-delay: 2.00s" />
    <circle cx="329.3103448275862" cy="349.88998899889987" r="4" fill="#9b59b6" class="data-point" style="animation-delay: 2.05s" />
    <circle cx="353.7931034482759" cy="349.88998899889987" r="4" fill="#9b59b6" class="data-point" style="animation-delay: 2.10s" />
    <circle cx="378.2758620689655" cy="349.88998899889987" r="4" fill="#9b59b6" class="data-point" style="animation-delay: 2.15s" />
    <circle cx="402.7586206896552" cy="349.88998899889987" r="4" fill="#9b59b6" class="data-point" style="animation-delay: 2.20s" />
    <circle cx="427.2413793103448" cy="349.88998899889987" r="4" fill="#9b59b6" class="data-point" style="animation-delay: 2.25s" />
    <circle cx="451.7241379310345" cy="349.88998899889987" r="4" fill="#9b59b6" class="data-point" style="animation-delay: 2.30s" />
    <circle cx="476.2068965517241" cy="349.88998899889987" r="4" fill="#9b59b6" class="data-point" style="animation-delay: 2.35s" />
    <circle cx="500.6896551724138" cy="349.88998899889987" r="4" fill="#9b59b6" class="data-point" style="animation-delay: 2.40s" />
    <circle cx="525.1724137931035" cy="349.88998899889987" r="4" fill="#9b59b6" class="data-point" style="animation-delay: 2.45s" />
    <circle cx="549.6551724137931" cy="349.88998899889987" r="4" fill="#9b59b6" class="data-point" style="animation-delay: 2.50s" />
    <circle cx="574.1379310344828" cy="349.88998899889987" r="4" fill="#9b59b6" class="data-point" style="animation-delay: 2.55s" />
    <circle cx="598.6206896551724" cy="349.88998899889987" r="4" fill="#9b59b6" class="data-point" style="animation-delay: 2.60s" />
    <circle cx="623.1034482758621" cy="349.88998899889987" r="4" fill="#9b59b6" class="data-point" style="animation-delay: 2.65s" />
    <circle cx="647.5862068965517" cy="349.88998899889987" r="4" fill="#9b59b6" class="data-point" style="animation-delay: 2.70s" />
    <circle cx="672.0689655172414" cy="349.88998899889987" r="4" fill="#9b59b6" class="data-point" style="animation-delay: 2.75s" />
    <circle cx="696.551724137931" cy="349.88998899889987" r="4" fill="#9b59b6" class="data-point" style="animation-delay: 2.80s" />
    <circle cx="721.0344827586207" cy="349.88998899889987" r="4" fill="#9b59b6" class="data-point" style="animation-delay: 2.85s" />
    <circle cx="745.5172413793103" cy="349.88998899889987" r="4" fill="#9b59b6" class="data-point" style="animation-delay: 2.90s" />
    <circle cx="770" cy="349.88998899889987" r="4" fill="#9b59b6" class="data-point" style="animation-delay: 2.95s" />
    
    <circle cx="60" cy="349.88998899889987" r="4" fill="#e67e22" class="data-point" style="animation-delay: 1.50s" />
    <circle cx="84.48275862068965" cy="349.88998899889987" r="4" fill="#e67e22" class="data-point" style="animation-delay: 1.55s" />
    <circle cx="108.9655172413793" cy="349.88998899889987" r="4" fill="#e67e22" class="data-point" style="animation-delay: 1.60s" />
    <circle cx="133.44827586206895" cy="349.88998899889987" r="4" fill="#e67e22" class="data-point" style="animation-delay: 1.65s" />
    <circle cx="157.9310344827586" cy="349.88998899889987" r="4" fill="#e67e22" class="data-point" style="animation-delay: 1.70s" />
    <circle cx="182.41379310344828" cy="349.88998899889987" r="4" fill="#e67e22" class="data-point" style="animation-delay: 1.75s" />
    <circle cx="206.89655172413794" cy="349.88998899889987" r="4" fill="#e67e22" class="data-point" style="animation-delay: 1.80s" />
    <circle cx="231.3793103448276" cy="349.88998899889987" r="4" fill="#e67e22" class="data-point" style="animation-delay: 1.85s" />
    <circle cx="255.86206896551724" cy="349.88998899889987" r="4" fill="#e67e22" class="data-point" style="animation-delay: 1.90s" />
    <circle cx="280.34482758620686" cy="349.88998899889987" r="4" fill="#e67e22" class="data-point" style="animation-delay: 1.95s" />
    <circle cx="304.82758620689657" cy="349.88998899889987" r="4" fill="#e67e22" class="data-point" style="animation-delay: 2.00s" />
    <circle cx="329.3103448275862" cy="349.88998899889987" r="4" fill="#e67e22" class="data-point" style="animation-delay: 2.05s" />
    <circle cx="353.7931034482759" cy="349.88998899889987" r="4" fill="#e67e22" class="data-point" style="animation-delay: 2.10s" />
    <circle cx="378.2758620689655" cy="349.88998899889987" r="4" fill="#e67e22" class="data-point" style="animation-delay: 2.15s" />
    <circle cx="402.7586206896552" cy="349.88998899889987" r="4" fill="#e67e22" class="data-point" style="animation-delay: 2.20s" />
    <circle cx="427.2413793103448" cy="349.88998899889987" r="4" fill="#e67e22" class="data-point" style="animation-delay: 2.25s" />
    <circle cx="451.7241379310345" cy="349.88998899889987" r="4" fill="#e67e22" class="data-point" style="animation-delay: 2.30s" />
    <circle cx="476.2068965517241" cy="349.88998899889987" r="4" fill="#e67e22" class="data-point" style="animation-delay: 2.35s" />
    <circle cx="500.6896551724138" cy="349.88998899889987" r="4" fill="#e67e22" class="data-point" style="animation-delay: 2.40s" />
    <circle cx="525.1724137931035" cy="349.88998899889987" r="4" fill="#e67e22" class="data-point" style="animation-delay: 2.45s" />
    <circle cx="549.6551724137931" cy="349.88998899889987" r="4" fill="#e67e22" class="data-point" style="animation-delay: 2.50s" />
    <circle cx="574.1379310344828" cy="349.88998899889987" r="4" fill="#e67e22" class="data-point" style="animation-delay: 2.55s" />
    <circle cx="598.6206896551724" cy="349.88998899889987" r="4" fill="#e67e22" class="data-point" style="animation-delay: 2.60s" />
    <circle cx="623.1034482758621" cy="349.88998899889987" r="4" fill="#e67e22" class="data-point" style="animation-delay: 2.65s" />
    <circle cx="647.5862068965517" cy="349.88998899889987" r="4" fill="#e67e22" class="data-point" style="animation-delay: 2.70s" />
    <circle cx="672.0689655172414" cy="349.88998899889987" r="4" fill="#e67e22" class="data-point" style="animation-delay: 2.75s" />
    <circle cx="696.551724137931" cy="349.88998899889987" r="4" fill="#e67e22" class="data-point" style="animation-delay: 2.80s" />
    <circle cx="721.0344827586207" cy="349.88998899889987" r="4" fill="#e67e22" class="data-point" style="animation-delay: 2.85s" />
    <circle cx="745.5172413793103" cy="349.88998899889987" r="4" fill="#e67e22" class="data-point" style="animation-delay: 2.90s" />
    <circle cx="770" cy="349.88998899889987" r="4" fill="#e67e22" class="data-point" style="animation-delay: 2.95s" />
    
    <circle cx="60" cy="349.88998899889987" r="4" fill="#1abc9c" class="data-point" style="animation-delay: 1.50s" />
    <circle cx="84.48275862068965" cy="349.88998899889987" r="4" fill="#1abc9c" class="data-point" style="animation-delay: 1.55s" />
    <circle cx="108.9655172413793" cy="349.88998899889987" r="4" fill="#1abc9c" class="data-point" style="animation-delay: 1.60s" />
    <circle cx="133.44827586206895" cy="349.88998899889987" r="4" fill="#1abc9c" class="data-point" style="animation-delay: 1.65s" />
    <circle cx="157.9310344827586" cy="349.88998899889987" r="4" fill="#1abc9c" class="data-point" style="animation-delay: 1.70s" />
    <circle cx="182.41379310344828" cy="349.88998899889987" r="4" fill="#1abc9c" class="data-point" style="animation-delay: 1.75s" />
    <circle cx="206.89655172413794" cy="349.88998899889987" r="4" fill="#1abc9c" class="data-point" style="animation-delay: 1.80s" />
    <circle cx="231.3793103448276" cy="349.88998899889987" r="4" fill="#1abc9c" class="data-point" style="animation-delay: 1.85s" />
    <circle cx="255.86206896551724" cy="349.88998899889987" r="4" fill="#1abc9c" class="data-point" style="animation-delay: 1.90s" />
    <circle cx="280.34482758620686" cy="349.88998899889987" r="4" fill="#1abc9c" class="data-point" style="animation-delay: 1.95s" />
    <circle cx="304.82758620689657" cy="349.88998899889987" r="4" fill="#1abc9c" class="data-point" style="animation-delay: 2.00s" />
    <circle cx="329.3103448275862" cy="349.88998899889987" r="4" fill="#1abc9c" class="data-point" style="animation-delay: 2.05s" />
    <circle cx="353.7931034482759" cy="349.88998899889987" r="4" fill="#1abc9c" class="data-point" style="animation-delay: 2.10s" />
    <circle cx="378.2758620689655" cy="349.88998899889987" r="4" fill="#1abc9c" class="data-point" style="animation-delay: 2.15s" />
    <circle cx="402.7586206896552" cy="349.88998899889987" r="4" fill="#1abc9c" class="data-point" style="animation-delay: 2.20s" />
    <circle cx="427.2413793103448" cy="349.88998899889987" r="4" fill="#1abc9c" class="data-point" style="animation-delay: 2.25s" />
    <circle cx="451.7241379310345" cy="349.88998899889987" r="4" fill="#1abc9c" class="data-point" style="animation-delay: 2.30s" />
    <circle cx="476.2068965517241" cy="349.88998899889987" r="4" fill="#1abc9c" class="data-point" style="animation-delay: 2.35s" />
    <circle cx="500.6896551724138" cy="349.88998899889987" r="4" fill="#1abc9c" class="data-point" style="animation-delay: 2.40s" />
    <circle cx="525.1724137931035" cy="349.88998899889987" r="4" fill="#1abc9c" class="data-point" style="animation-delay: 2.45s" />
    <circle cx="549.6551724137931" cy="349.88998899889987" r="4" fill="#1abc9c" class="data-point" style="animation-delay: 2.50s" />
    <circle cx="574.1379310344828" cy="349.88998899889987" r="4" fill="#1abc9c" class="data-point" style="animation-delay: 2.55s" />
    <circle cx="598.6206896551724" cy="349.88998899889987" r="4" fill="#1abc9c" class="data-point" style="animation-delay: 2.60s" />
    <circle cx="623.1034482758621" cy="349.88998899889987" r="4" fill="#1abc9c" class="data-point" style="animation-delay: 2.65s" />
    <circle cx="647.5862068965517" cy="349.88998899889987" r="4" fill="#1abc9c" class="data-point" style="animation-delay: 2.70s" />
    <circle cx="672.0689655172414" cy="349.88998899889987" r="4" fill="#1abc9c" class="data-point" style="animation-delay: 2.75s" />
    <circle cx="696.551724137931" cy="349.88998899889987" r="4" fill="#1abc9c" class="data-point" style="animation-delay: 2.80s" />
    <circle cx="721.0344827586207" cy="349.88998899889987" r="4" fill="#1abc9c" class="data-point" style="animation-delay: 2.85s" />
    <circle cx="745.5172413793103" cy="349.88998899889987" r="4" fill="#1abc9c" class="data-point" style="animation-delay: 2.90s" />
    <circle cx="770" cy="349.88998899889987" r="4" fill="#1abc9c" class="data-point" style="animation-delay: 2.95s" />
    
    <circle cx="60" cy="349.88998899889987" r="4" fill="#e84393" class="data-point" style="animation-delay: 1.50s" />
    <circle cx="84.48275862068965" cy="349.88998899889987" r="4" fill="#e84393" class="data-point" style="animation-delay: 1.55s" />
    <circle cx="108.9655172413793" cy="349.88998899889987" r="4" fill="#e84393" class="data-point" style="animation-delay: 1.60s" />
    <circle cx="133.44827586206895" cy="349.88998899889987" r="4" fill="#e84393" class="data-point" style="animation-delay: 1.65s" />
    <circle cx="157.9310344827586" cy="349.88998899889987" r="4" fill="#e84393" class="data-point" style="animation-delay: 1.70s" />
    <circle cx="182.41379310344828" cy="349.88998899889987" r="4" fill="#e84393" class="data-point" style="animation-delay: 1.75s" />
    <circle cx="206.89655172413794" cy="349.88998899889987" r="4" fill="#e84393" class="data-point" style="animation-delay: 1.80s" />
    <circle cx="231.3793103448276" cy="349.88998899889987" r="4" fill="#e84393" class="data-point" style="animation-delay: 1.85s" />
    <circle cx="255.86206896551724" cy="349.88998899889987" r="4" fill="#e84393" class="data-point" style="animation-delay: 1.90s" />
    <circle cx="280.34482758620686" cy="349.88998899889987" r="4" fill="#e84393" class="data-point" style="animation-delay: 1.95s" />
    <circle cx="304.82758620689657" cy="349.88998899889987" r="4" fill="#e84393" class="data-point" style="animation-delay: 2.00s" />
    <circle cx="329.3103448275862" cy="349.88998899889987" r="4" fill="#e84393" class="data-point" style="animation-delay: 2.05s" />
    <circle cx="353.7931034482759" cy="349.88998899889987" r="4" fill="#e84393" class="data-point" style="animation-delay: 2.10s" />
    <circle cx="378.2758620689655" cy="349.88998899889987" r="4" fill="#e84393" class="data-point" style="animation-delay: 2.15s" />
    <circle cx="402.7586206896552" cy="349.88998899889987" r="4" fill="#e84393" class="data-point" style="animation-delay: 2.20s" />
    <circle cx="427.2413793103448" cy="349.88998899889987" r="4" fill="#e84393" class="data-point" style="animation-delay: 2.25s" />
    <circle cx="451.7241379310345" cy="349.88998899889987" r="4" fill="#e84393" class="data-point" style="animation-delay: 2.30s" />
    <circle cx="476.2068965517241" cy="349.88998899889987" r="4" fill="#e84393" class="data-point" style="animation-delay: 2.35s" />
    <circle cx="500.6896551724138" cy="349.88998899889987" r="4" fill="#e84393" class="data-point" style="animation-delay: 2.40s" />
    <circle cx="525.1724137931035" cy="349.88998899889987" r="4" fill="#e84393" class="data-point" style="animation-delay: 2.45s" />
    <circle cx="549.6551724137931" cy="349.88998899889987" r="4" fill="#e84393" class="data-point" style="animation-delay: 2.50s" />
    <circle cx="574.1379310344828" cy="349.88998899889987" r="4" fill="#e84393" class="data-point" style="animation-delay: 2.55s" />
    <circle cx="598.6206896551724" cy="349.88998899889987" r="4" fill="#e84393" class="data-point" style="animation-delay: 2.60s" />
    <circle cx="623.1034482758621" cy="349.88998899889987" r="4" fill="#e84393" class="data-point" style="animation-delay: 2.65s" />
    <circle cx="647.5862068965517" cy="349.88998899889987" r="4" fill="#e84393" class="data-point" style="animation-delay: 2.70s" />
    <circle cx="672.0689655172414" cy="349.88998899889987" r="4" fill="#e84393" class="data-point" style="animation-delay: 2.75s" />
    <circle cx="696.551724137931" cy="349.88998899889987" r="4" fill="#e84393" class="data-point" style="animation-delay: 2.80s" />
    <circle cx="721.0344827586207" cy="349.88998899889987" r="4" fill="#e84393" class="data-point" style="animation-delay: 2.85s" />
    <circle cx="745.5172413793103" cy="349.88998899889987" r="4" fill="#e84393" class="data-point" style="animation-delay: 2.90s" />
    <circle cx="770" cy="349.88998899889987" r="4" fill="#e84393" class="data-point" style="animation-delay: 2.95s" />
    
    <circle cx="60" cy="350" r="4" fill="#795548" class="data-point" style="animation-delay: 1.50s" />
    <circle cx="84.48275862068965" cy="350" r="4" fill="#795548" class="data-point" style="animation-delay: 1.55s" />
    <circle cx="108.9655172413793" cy="350" r="4" fill="#795548" class="data-point" style="animation-delay: 1.60s" />
    <circle cx="133.44827586206895" cy="350" r="4" fill="#795548" class="data-point" style="animation-delay: 1.65s" />
    <circle cx="157.9310344827586" cy="350" r="4" fill="#795548" class="data-point" style="animation-delay: 1.70s" />
    <circle cx="182.41379310344828" cy="350" r="4" fill="#795548" class="data-point" style="animation-delay: 1.75s" />
    <circle cx="206.89655172413794" cy="350" r="4" fill="#795548" class="data-point" style="animation-delay: 1.80s" />
    <circle cx="231.3793103448276" cy="350" r="4" fill="#795548" class="data-point" style="animation-delay: 1.85s" />
    <circle cx="255.86206896551724" cy="350" r="4" fill="#795548" class="data-point" style="animation-delay: 1.90s" />
    <circle cx="280.34482758620686" cy="350" r="4" fill="#795548" class="data-point" style="animation-delay: 1.95s" />
    <circle cx="304.82758620689657" cy="350" r="4" fill="#795548" class="data-point" style="animation-delay: 2.00s" />
    <circle cx="329.3103448275862" cy="350" r="4" fill="#795548" class="data-point" style="animation-delay: 2.05s" />
    <circle cx="353.7931034482759" cy="350" r="4" fill="#795548" class="data-point" style="animation-delay: 2.10s" />
    <circle cx="378.2758620689655" cy="350" r="4" fill="#795548" class="data-point" style="animation-delay: 2.15s" />
    <circle cx="402.7586206896552" cy="350" r="4" fill="#795548" class="data-point" style="animation-delay: 2.20s" />
    <circle cx="427.2413793103448" cy="350" r="4" fill="#795548" class="data-point" style="animation-delay: 2.25s" />
    <circle cx="451.7241379310345" cy="350" r="4" fill="#795548" class="data-point" style="animation-delay: 2.30s" />
    <circle cx="476.2068965517241" cy="350" r="4" fill="#795548" class="data-point" style="animation-delay: 2.35s" />
    <circle cx="500.6896551724138" cy="350" r="4" fill="#795548" class="data-point" style="animation-delay: 2.40s" />
    <circle cx="525.1724137931035" cy="350" r="4" fill="#795548" class="data-point" style="animation-delay: 2.45s" />
    <circle cx="549.6551724137931" cy="350" r="4" fill="#795548" class="data-point" style="animation-delay: 2.50s" />
    <circle cx="574.1379310344828" cy="350" r="4" fill="#795548" class="data-point" style="animation-delay: 2.55s" />
    <circle cx="598.6206896551724" cy="350" r="4" fill="#795548" class="data-point" style="animation-delay: 2.60s" />
    <circle cx="623.1034482758621" cy="350" r="4" fill="#795548" class="data-point" style="animation-delay: 2.65s" />
    <circle cx="647.5862068965517" cy="350" r="4" fill="#795548" class="data-point" style="animation-delay: 2.70s" />
    <circle cx="672.0689655172414" cy="350" r="4" fill="#795548" class="data-point" style="animation-delay: 2.75s" />
    <circle cx="696.551724137931" cy="350" r="4" fill="#795548" class="data-point" style="animation-delay: 2.80s" />
    <circle cx="721.0344827586207" cy="350" r="4" fill="#795548" class="data-point" style="animation-delay: 2.85s" />
    <circle cx="745.5172413793103" cy="350" r="4" fill="#795548" class="data-point" style="animation-delay: 2.90s" />
    <circle cx="770" cy="350" r="4" fill="#795548" class="data-point" style="animation-delay: 2.95s" />
    
    <circle cx="60" cy="350" r="4" fill="#00bcd4" class="data-point" style="animation-delay: 1.50s" />
    <circle cx="84.48275862068965" cy="350" r="4" fill="#00bcd4" class="data-point" style="animation-delay: 1.55s" />
    <circle cx="108.9655172413793" cy="350" r="4" fill="#00bcd4" class="data-point" style="animation-delay: 1.60s" />
    <circle cx="133.44827586206895" cy="350" r="4" fill="#00bcd4" class="data-point" style="animation-delay: 1.65s" />
    <circle cx="157.9310344827586" cy="350" r="4" fill="#00bcd4" class="data-point" style="animation-delay: 1.70s" />
    <circle cx="182.41379310344828" cy="350" r="4" fill="#00bcd4" class="data-point" style="animation-delay: 1.75s" />
    <circle cx="206.89655172413794" cy="350" r="4" fill="#00bcd4" class="data-point" style="animation-delay: 1.80s" />
    <circle cx="231.3793103448276" cy="350" r="4" fill="#00bcd4" class="data-point" style="animation-delay: 1.85s" />
    <circle cx="255.86206896551724" cy="350" r="4" fill="#00bcd4" class="data-point" style="animation-delay: 1.90s" />
    <circle cx="280.34482758620686" cy="350" r="4" fill="#00bcd4" class="data-point" style="animation-delay: 1.95s" />
    <circle cx="304.82758620689657" cy="350" r="4" fill="#00bcd4" class="data-point" style="animation-delay: 2.00s" />
    <circle cx="329.3103448275862" cy="350" r="4" fill="#00bcd4" class="data-point" style="animation-delay: 2.05s" />
    <circle cx="353.7931034482759" cy="350" r="4" fill="#00bcd4" class="data-point" style="animation-delay: 2.10s" />
    <circle cx="378.2758620689655" cy="350" r="4" fill="#00bcd4" class="data-point" style="animation-delay: 2.15s" />
    <circle cx="402.7586206896552" cy="350" r="4" fill="#00bcd4" class="data-point" style="animation-delay: 2.20s" />
    <circle cx="427.2413793103448" cy="350" r="4" fill="#00bcd4" class="data-point" style="animation-delay: 2.25s" />
    <circle cx="451.7241379310345" cy="350" r="4" fill="#00bcd4" class="data-point" style="animation-delay: 2.30s" />
    <circle cx="476.2068965517241" cy="350" r="4" fill="#00bcd4" class="data-point" style="animation-delay: 2.35s" />
    <circle cx="500.6896551724138" cy="350" r="4" fill="#00bcd4" class="data-point" style="animation-delay: 2.40s" />
    <circle cx="525.1724137931035" cy="350" r="4" fill="#00bcd4" class="data-point" style="animation-delay: 2.45s" />
    <circle cx="549.6551724137931" cy="350" r="4" fill="#00bcd4" class="data-point" style="animation-delay: 2.50s" />
    <circle cx="574.1379310344828" cy="350" r="4" fill="#00bcd4" class="data-point" style="animation-delay: 2.55s" />
    <circle cx="598.6206896551724" cy="350" r="4" fill="#00bcd4" class="data-point" style="animation-delay: 2.60s" />
    <circle cx="623.1034482758621" cy="350" r="4" fill="#00bcd4" class="data-point" style="animation-delay: 2.65s" />
    <circle cx="647.5862068965517" cy="350" r="4" fill="#00bcd4" class="data-point" style="animation-delay: 2.70s" />
    <circle cx="672.0689655172414" cy="350" r="4" fill="#00bcd4" class="data-point" style="animation-delay: 2.75s" />
    <circle cx="696.551724137931" cy="350" r="4" fill="#00bcd4" class="data-point" style="animation-delay: 2.80s" />
    <circle cx="721.0344827586207" cy="350" r="4" fill="#00bcd4" class="data-point" style="animation-delay: 2.85s" />
    <circle cx="745.5172413793103" cy="350" r="4" fill="#00bcd4" class="data-point" style="animation-delay: 2.90s" />
    <circle cx="770" cy="350" r="4" fill="#00bcd4" class="data-point" style="animation-delay: 2.95s" />
  </g>
</svg>