<svg xmlns="http://www.w3.org/2000/svg" viewBox="0 0 800 400" width="800" height="400">
  <style>
    @keyframes drawLine {
      to { stroke-dashoffset: 0; }
    }
    @keyframes fadeInPoint {
      from { opacity: 0; }
      to { opacity: 1; }
    }
    .data-line-0 {
      stroke-dasharray: 1167;
      stroke-dashoffset: 1167;
      animation: drawLine 2s ease-out forwards;
    }
    .data-line-1 {
      stroke-dasharray: 1065;
      stroke-dashoffset: 1065;
      animation: drawLine 2s ease-out forwards;
    }
    .data-line-2 {
      stroke-dasharray: 1065;
      stroke-dashoffset: 1065;
      animation: drawLine 2s ease-out forwards;
    }
    .data-line-3 {
      stroke-dasharray: 1065;
      stroke-dashoffset: 1065;
      animation: drawLine 2s ease-out forwards;
    }
    .data-line-4 {
      stroke-dasharray: 1065;
      stroke-dashoffset: 1065;
      animation: drawLine 2s ease-out forwards;
    }
    .data-line-5 {
      stroke-dasharray: 1065;
      stroke-dashoffset: 1065;
      animation: drawLine 2s ease-out forwards;
    }
    .data-line-6 {
      stroke-dasharray: 1065;
      stroke-dashoffset: 1065;
      animation: drawLine 2s ease-out forwards;
    }
    .data-line-7 {
      stroke-dasharray: 1065;
      stroke-dashoffset: 1065;
      animation: drawLine 2s ease-out forwards;
    }
    .data-line-8 {
      stroke-dasharray: 1065;
      stroke-dashoffset: 1065;
      animation: drawLine 2s ease-out forwards;
    }
    .data-line-9 {
      stroke-dasharray: 1065;
      stroke-dashoffset: 1065;
      animation: drawLine 2s ease-out forwards;
    }
    .data-point {
      opacity: 0;
      animation: fadeInPoint 0.5s ease-out forwards;
    }
    .chart-bg { fill: #fff; }
    .chart-text { fill: #24292e; }
    .chart-muted { fill: #6a737d; }
    .chart-grid { stroke: #eee; }
    .chart-axis { stroke: #6a737d; }
    @media (prefers-color-scheme: dark) {
      .chart-bg { fill: #0d1117; }
      .chart-text { fill: #e6edf3; }
      .chart-muted { fill: #8b949e; }
      .chart-grid { stroke: #21262d; }
      .chart-axis { stroke: #8b949e; }
    }
  </style>
  <rect width="800" height="400" class="chart-bg" />
  <text x="400" y="14" text-anchor="middle" class="chart-text" font-size="16" font-weight="bold" font-family="-apple-system, BlinkMacSystemFont, 'Segoe UI', Helvetica, Arial, sans-serif">Top Repositories</text>
  <g class="legend">
    <rect x="-200" y="31" width="12" height="3" fill="#dfb317" />
    <line x1="-200" y1="32.5" x2="-188" y2="32.5" stroke="#dfb317" stroke-width="2" />
    <text x="-184" y="36" class="chart-text" font-size="10" font-family="-apple-system, BlinkMacSystemFont, 'Segoe UI', Helvetica, Arial, sans-serif">SteamGridDB/steam-rom-manager</text>
    <rect x="-80" y="31" width="12" height="3" fill="#28a745" />
    <line x1="-80" y1="32.5" x2="-68" y2="32.5" stroke="#28a745" stroke-width="2" />
    <text x="-64" y="36" class="chart-text" font-size="10" font-family="-apple-system, BlinkMacSystemFont, 'Segoe UI', Helvetica, Arial, sans-serif">cbartondock/node-binary-vdf</text>
    <rect x="40" y="31" width="12" height="3" fill="#e74c3c" />
    <line x1="40" y1="32.5" x2="52" y2="32.5" stroke="#e74c3c" stroke-width="2" />
    <text x="56" y="36" class="chart-text" font-size="10" font-family="-apple-system, BlinkMacSystemFont, 'Segoe UI', Helvetica, Arial, sans-serif">cbartondock/PortableEnv</text>
    <rect x="160" y="31" width="12" height="3" fill="#3498db" />
    <line x1="160" y1="32.5" x2="172" y2="32.5" stroke="#3498db" stroke-width="2" />
    <text x="176" y="36" class="chart-text" font-size="10" font-family="-apple-system, BlinkMacSystemFont, 'Segoe UI', Helvetica, Arial, sans-serif">cbartondock/Windwaker</text>
    <rect x="280" y="31" width="12" height="3" fill="#9b59b6" />
    <line x1="280" y1="32.5" x2="292" y2="32.5" stroke="#9b59b6" stroke-width="2" />
    <text x="296" y="36" class="chart-text" font-size="10" font-family="-apple-system, BlinkMacSystemFont, 'Segoe UI', Helvetica, Arial, sans-serif">cbartondock/chaos</text>
    <rect x="400" y="31" width="12" height="3" fill="#e67e22" />
    <line x1="400" y1="32.5" x2="412" y2="32.5" stroke="#e67e22" stroke-width="2" />
    <text x="416" y="36" class="chart-text" font-size="10" font-family="-apple-system, BlinkMacSystemFont, 'Segoe UI', Helvetica, Arial, sans-serif">cbartondock/riemann-sphere</text>
    <rect x="520" y="31" width="12" height="3" fill="#1abc9c" />
    <line x1="520" y1="32.5" x2="532" y2="32.5" stroke="#1abc9c" stroke-width="2" />
    <text x="536" y="36" class="chart-text" font-size="10" font-family="-apple-system, BlinkMacSystemFont, 'Segoe UI', Helvetica, Arial, sans-serif">cbartondock/tak-concept-art</text>
    <rect x="640" y="31" width="12" height="3" fill="#e84393" />
    <line x1="640" y1="32.5" x2="652" y2="32.5" stroke="#e84393" stroke-width="2" />
    <text x="656" y="36" class="chart-text" font-size="10" font-family="-apple-system, BlinkMacSystemFont, 'Segoe UI', Helvetica, Arial, sans-serif">stephan-x-liu/sublimechat</text>
    <rect x="760" y="31" width="12" height="3" fill="#795548" />
    <line x1="760" y1="32.5" x2="772" y2="32.5" stroke="#795548" stroke-width="2" />
    <text x="776" y="36" class="chart-text" font-size="10" font-family="-apple-system, BlinkMacSystemFont, 'Segoe UI', Helvetica, Arial, sans-serif">cbartondock/academicpages.github.io</text>
    <rect x="880" y="31" width="12" height="3" fill="#00bcd4" />
    <line x1="880" y1="32.5" x2="892" y2="32.5" stroke="#00bcd4" stroke-width="2" />
    <text x="896" y="36" class="chart-text" font-size="10" font-family="-apple-system, BlinkMacSystemFont, 'Segoe UI', Helvetica, Arial, sans-serif">cbartondock/discordBadge</text>
  </g>
  <g class="grid">
    <line x1="60" y1="350" x2="770" y2="350" class="chart-grid" stroke-opacity="0.3" />
    <text x="52" y="354" text-anchor="end" class="chart-muted" font-size="11" font-family="-apple-system, BlinkMacSystemFont, 'Segoe UI', Helvetica, Arial, sans-serif">0</text>
    <line x1="60" y1="295.1954694921447" x2="770" y2="295.1954694921447" class="chart-grid" stroke-opacity="0.3" />
    <text x="52" y="299.1954694921447" text-anchor="end" class="chart-muted" font-size="11" font-family="-apple-system, BlinkMacSystemFont, 'Segoe UI', Helvetica, Arial, sans-serif">500</text>
    <line x1="60" y1="240.3909389842894" x2="770" y2="240.3909389842894" class="chart-grid" stroke-opacity="0.3" />
    <text x="52" y="244.3909389842894" text-anchor="end" class="chart-muted" font-size="11" font-family="-apple-system, BlinkMacSystemFont, 'Segoe UI', Helvetica, Arial, sans-serif">1K</text>
    <line x1="60" y1="185.58640847643403" x2="770" y2="185.58640847643403" class="chart-grid" stroke-opacity="0.3" />
    <text x="52" y="189.58640847643403" text-anchor="end" class="chart-muted" font-size="11" font-family="-apple-system, BlinkMacSystemFont, 'Segoe UI', Helvetica, Arial, sans-serif">1.5K</text>
    <line x1="60" y1="130.78187796857875" x2="770" y2="130.78187796857875" class="chart-grid" stroke-opacity="0.3" />
    <text x="52" y="134.78187796857875" text-anchor="end" class="chart-muted" font-size="11" font-family="-apple-system, BlinkMacSystemFont, 'Segoe UI', Helvetica, Arial, sans-serif">2K</text>
    <line x1="60" y1="75.97734746072342" x2="770" y2="75.97734746072342" class="chart-grid" stroke-opacity="0.3" />
    <text x="52" y="79.97734746072342" text-anchor="end" class="chart-muted" font-size="11" font-family="-apple-system, BlinkMacSystemFont, 'Segoe UI', Helvetica, Arial, sans-serif">2.5K</text>
  </g>
  <g class="milestones">
    
  </g>
  <g class="x-axis">
    <text x="60" y="370" text-anchor="middle" class="chart-muted" font-size="11" font-family="-apple-system, BlinkMacSystemFont, 'Segoe UI', Helvetica, Arial, sans-serif">2017</text>
    <text x="133.44827586206895" y="370" text-anchor="middle" class="chart-muted" font-size="11" font-family="-apple-system, BlinkMacSystemFont, 'Segoe UI', Helvetica, Arial, sans-serif">2018</text>
    <text x="206.89655172413794" y="370" text-anchor="middle" class="chart-muted" font-size="11" font-family="-apple-system, BlinkMacSystemFont, 'Segoe UI', Helvetica, Arial, sans-serif">2019</text>
    <text x="280.34482758620686" y="370" text-anchor="middle" class="chart-muted" font-size="11" font-family="-apple-system, BlinkMacSystemFont, 'Segoe UI', Helvetica, Arial, sans-serif">2020</text>
    <text x="353.7931034482759" y="370" text-anchor="middle" class="chart-muted" font-size="11" font-family="-apple-system, BlinkMacSystemFont, 'Segoe UI', Helvetica, Arial, sans-serif">2021</text>
    <text x="427.2413793103448" y="370" text-anchor="middle" class="chart-muted" font-size="11" font-family="-apple-system, BlinkMacSystemFont, 'Segoe UI', Helvetica, Arial, sans-serif">2022</text>
    <text x="500.6896551724138" y="370" text-anchor="middle" class="chart-muted" font-size="11" font-family="-apple-system, BlinkMacSystemFont, 'Segoe UI', Helvetica, Arial, sans-serif">2023</text>
    <text x="574.1379310344828" y="370" text-anchor="middle" class="chart-muted" font-size="11" font-family="-apple-system, BlinkMacSystemFont, 'Segoe UI', Helvetica, Arial, sans-serif">2024</text>
    <text x="672.0689655172414" y="370" text-anchor="middle" class="chart-muted" font-size="11" font-family="-apple-system, BlinkMacSystemFont, 'Segoe UI', Helvetica, Arial, sans-serif">2025</text>
    <text x="745.5172413793103" y="370" text-anchor="middle" class="chart-muted" font-size="11" font-family="-apple-system, BlinkMacSystemFont, 'Segoe UI', Helvetica, Arial, sans-serif">2026</text>
  </g>
  <line x1="60" y1="50" x2="60" y2="350" class="chart-axis" stroke-width="1" />
  <line x1="60" y1="350" x2="770" y2="350" class="chart-axis" stroke-width="1" />
  
  
  
  
  
  
  
  
  
  
  <path d="M60,349.8903909389843 C68.16091954022988,347.332846181951 76.32183908045977,344.15418341249546 84.48275862068965,342.21775666788454 C92.64367816091954,340.28132992327363 100.80459770114942,339.5323346729996 108.9655172413793,338.27183047131894 C117.12643678160919,337.0113262696383 125.28735632183907,335.80562659846544 133.44827586206895,334.6547314578005 C141.60919540229884,333.50383631713555 149.77011494252872,332.66350018268173 157.9310344827586,331.36645962732916 C166.0919540229885,330.0694190719766 174.2528735632184,328.2060650347095 182.41379310344828,326.87248812568504 C190.57471264367817,325.53891121666055 198.73563218390805,324.3514797223237 206.89655172413794,323.3649981731823 C215.05747126436782,322.3785166240409 223.2183908045977,321.6843259042747 231.3793103448276,320.95359883083665 C239.54022988505747,320.2228717573986 247.70114942528735,319.71136280599194 255.86206896551724,318.9806357325539 C264.0229885057471,318.2499086591158 272.183908045977,317.9028132992328 280.34482758620686,316.5692363902083 C288.50574712643675,315.2356594811838 296.6666666666667,312.22141030325173 304.82758620689657,310.979174278407 C312.98850574712645,309.7369382535623 321.14942528735634,309.864815491414 329.3103448275862,309.11582024113994 C337.4712643678161,308.3668249908659 345.632183908046,307.48995250274027 353.7931034482759,306.4852027767629 C361.95402298850576,305.4804530507855 370.11494252873564,304.76799415418344 378.2758620689655,303.08732188527586 C386.4367816091954,301.40664961636827 394.5977011494253,299.3240774570698 402.7586206896552,296.4011691633175 C410.91954022988506,293.4782608695652 419.08045977011494,291.45049324077456 427.2413793103448,285.54987212276217 C435.4022988505747,279.6492510047498 443.5632183908046,268.50566313481914 451.7241379310345,260.99744245524295 C459.88505747126436,253.48922177566675 468.04597701149424,246.583850931677 476.2068965517241,240.50054804530507 C484.367816091954,234.41724515893313 492.5287356321839,230.19729630982826 500.6896551724138,224.4976251370113 C508.85057471264366,218.79795396419436 517.0114942528736,211.36280599196198 525.1724137931035,206.30252100840335 C533.3333333333334,201.24223602484471 541.4942528735633,198.50200949945193 549.6551724137931,194.13591523565947 C557.816091954023,189.769820971867 565.9770114942529,184.5085860431129 574.1379310344828,180.10595542564852 C582.2988505747127,175.70332480818414 590.4597701149426,171.8670076726343 598.6206896551724,167.72013153087323 C606.7816091954023,163.57325538911218 614.9425287356322,159.3533065400073 623.1034482758621,155.22469857508221 C631.264367816092,151.09609061015712 639.4252873563219,147.0405553525758 647.5862068965517,142.9484837413226 C655.7471264367816,138.8564121300694 663.9080459770115,134.41724515893316 672.0689655172414,130.67226890756305 C680.2298850574713,126.92729265619293 688.3908045977012,124.29667519181584 696.551724137931,120.47862623310192 C704.7126436781609,116.660577274388 712.8735632183908,112.38582389477533 721.0344827586207,107.76397515527952 C729.1954022988506,103.14212641578372 737.3563218390805,97.82608695652173 745.5172413793103,92.74753379612713 C753.6781609195402,87.66898063573252 761.8390804597701,82.44428206065032 770,77.29265619291192" fill="none" stroke="#dfb317" stroke-width="2.5" class="data-line-0" />
  <path d="M60,349.6711728169529 C68.16091954022988,349.6711728169529 76.32183908045977,349.6711728169529 84.48275862068965,349.6711728169529 C92.64367816091954,349.6711728169529 100.80459770114942,349.6711728169529 108.9655172413793,349.6711728169529 C117.12643678160919,349.6711728169529 125.28735632183907,349.6711728169529 133.44827586206895,349.6711728169529 C141.60919540229884,349.6711728169529 149.77011494252872,349.6711728169529 157.9310344827586,349.6711728169529 C166.0919540229885,349.6711728169529 174.2528735632184,349.6711728169529 182.41379310344828,349.6711728169529 C190.57471264367817,349.6711728169529 198.73563218390805,349.6711728169529 206.89655172413794,349.6711728169529 C215.05747126436782,349.6711728169529 223.2183908045977,349.6711728169529 231.3793103448276,349.6711728169529 C239.54022988505747,349.6711728169529 247.70114942528735,349.6711728169529 255.86206896551724,349.6711728169529 C264.0229885057471,349.6711728169529 272.183908045977,349.6711728169529 280.34482758620686,349.6711728169529 C288.50574712643675,349.6711728169529 296.6666666666667,349.6711728169529 304.82758620689657,349.6711728169529 C312.98850574712645,349.6711728169529 321.14942528735634,349.6711728169529 329.3103448275862,349.6711728169529 C337.4712643678161,349.6711728169529 345.632183908046,349.6711728169529 353.7931034482759,349.6711728169529 C361.95402298850576,349.6711728169529 370.11494252873564,349.6711728169529 378.2758620689655,349.6711728169529 C386.4367816091954,349.6711728169529 394.5977011494253,349.6711728169529 402.7586206896552,349.6711728169529 C410.91954022988506,349.6711728169529 419.08045977011494,349.6711728169529 427.2413793103448,349.6711728169529 C435.4022988505747,349.6711728169529 443.5632183908046,349.6711728169529 451.7241379310345,349.6711728169529 C459.88505747126436,349.6711728169529 468.04597701149424,349.6711728169529 476.2068965517241,349.6711728169529 C484.367816091954,349.6711728169529 492.5287356321839,349.6711728169529 500.6896551724138,349.6711728169529 C508.85057471264366,349.6711728169529 517.0114942528736,349.6711728169529 525.1724137931035,349.6711728169529 C533.3333333333334,349.6711728169529 541.4942528735633,349.6711728169529 549.6551724137931,349.6711728169529 C557.816091954023,349.6711728169529 565.9770114942529,349.6711728169529 574.1379310344828,349.6711728169529 C582.2988505747127,349.6711728169529 590.4597701149426,349.6711728169529 598.6206896551724,349.6711728169529 C606.7816091954023,349.6711728169529 614.9425287356322,349.6711728169529 623.1034482758621,349.6711728169529 C631.264367816092,349.6711728169529 639.4252873563219,349.6711728169529 647.5862068965517,349.6711728169529 C655.7471264367816,349.6711728169529 663.9080459770115,349.6711728169529 672.0689655172414,349.6711728169529 C680.2298850574713,349.6711728169529 688.3908045977012,349.6711728169529 696.551724137931,349.6711728169529 C704.7126436781609,349.6711728169529 712.8735632183908,349.6711728169529 721.0344827586207,349.6711728169529 C729.1954022988506,349.6711728169529 737.3563218390805,349.6711728169529 745.5172413793103,349.6711728169529 C753.6781609195402,349.6711728169529 761.8390804597701,349.6711728169529 770,349.6711728169529" fill="none" stroke="#28a745" stroke-width="2.5" class="data-line-1" />
  <path d="M60,349.7807818779686 C68.16091954022988,349.7807818779686 76.32183908045977,349.7807818779686 84.48275862068965,349.7807818779686 C92.64367816091954,349.7807818779686 100.80459770114942,349.7807818779686 108.9655172413793,349.7807818779686 C117.12643678160919,349.7807818779686 125.28735632183907,349.7807818779686 133.44827586206895,349.7807818779686 C141.60919540229884,349.7807818779686 149.77011494252872,349.7807818779686 157.9310344827586,349.7807818779686 C166.0919540229885,349.7807818779686 174.2528735632184,349.7807818779686 182.41379310344828,349.7807818779686 C190.57471264367817,349.7807818779686 198.73563218390805,349.7807818779686 206.89655172413794,349.7807818779686 C215.05747126436782,349.7807818779686 223.2183908045977,349.7807818779686 231.3793103448276,349.7807818779686 C239.54022988505747,349.7807818779686 247.70114942528735,349.7807818779686 255.86206896551724,349.7807818779686 C264.0229885057471,349.7807818779686 272.183908045977,349.7807818779686 280.34482758620686,349.7807818779686 C288.50574712643675,349.7807818779686 296.6666666666667,349.7807818779686 304.82758620689657,349.7807818779686 C312.98850574712645,349.7807818779686 321.14942528735634,349.7807818779686 329.3103448275862,349.7807818779686 C337.4712643678161,349.7807818779686 345.632183908046,349.7807818779686 353.7931034482759,349.7807818779686 C361.95402298850576,349.7807818779686 370.11494252873564,349.7807818779686 378.2758620689655,349.7807818779686 C386.4367816091954,349.7807818779686 394.5977011494253,349.7807818779686 402.7586206896552,349.7807818779686 C410.91954022988506,349.7807818779686 419.08045977011494,349.7807818779686 427.2413793103448,349.7807818779686 C435.4022988505747,349.7807818779686 443.5632183908046,349.7807818779686 451.7241379310345,349.7807818779686 C459.88505747126436,349.7807818779686 468.04597701149424,349.7807818779686 476.2068965517241,349.7807818779686 C484.367816091954,349.7807818779686 492.5287356321839,349.7807818779686 500.6896551724138,349.7807818779686 C508.85057471264366,349.7807818779686 517.0114942528736,349.7807818779686 525.1724137931035,349.7807818779686 C533.3333333333334,349.7807818779686 541.4942528735633,349.7807818779686 549.6551724137931,349.7807818779686 C557.816091954023,349.7807818779686 565.9770114942529,349.7807818779686 574.1379310344828,349.7807818779686 C582.2988505747127,349.7807818779686 590.4597701149426,349.7807818779686 598.6206896551724,349.7807818779686 C606.7816091954023,349.7807818779686 614.9425287356322,349.7807818779686 623.1034482758621,349.7807818779686 C631.264367816092,349.7807818779686 639.4252873563219,349.7807818779686 647.5862068965517,349.7807818779686 C655.7471264367816,349.7807818779686 663.9080459770115,349.7807818779686 672.0689655172414,349.7807818779686 C680.2298850574713,349.7807818779686 688.3908045977012,349.7807818779686 696.551724137931,349.7807818779686 C704.7126436781609,349.7807818779686 712.8735632183908,349.7807818779686 721.0344827586207,349.7807818779686 C729.1954022988506,349.7807818779686 737.3563218390805,349.7807818779686 745.5172413793103,349.7807818779686 C753.6781609195402,349.7807818779686 761.8390804597701,349.7807818779686 770,349.7807818779686" fill="none" stroke="#e74c3c" stroke-width="2.5" class="data-line-2" />
  <path d="M60,349.7807818779686 C68.16091954022988,349.7807818779686 76.32183908045977,349.7807818779686 84.48275862068965,349.7807818779686 C92.64367816091954,349.7807818779686 100.80459770114942,349.7807818779686 108.9655172413793,349.7807818779686 C117.12643678160919,349.7807818779686 125.28735632183907,349.7807818779686 133.44827586206895,349.7807818779686 C141.60919540229884,349.7807818779686 149.77011494252872,349.7807818779686 157.9310344827586,349.7807818779686 C166.0919540229885,349.7807818779686 174.2528735632184,349.7807818779686 182.41379310344828,349.7807818779686 C190.57471264367817,349.7807818779686 198.73563218390805,349.7807818779686 206.89655172413794,349.7807818779686 C215.05747126436782,349.7807818779686 223.2183908045977,349.7807818779686 231.3793103448276,349.7807818779686 C239.54022988505747,349.7807818779686 247.70114942528735,349.7807818779686 255.86206896551724,349.7807818779686 C264.0229885057471,349.7807818779686 272.183908045977,349.7807818779686 280.34482758620686,349.7807818779686 C288.50574712643675,349.7807818779686 296.6666666666667,349.7807818779686 304.82758620689657,349.7807818779686 C312.98850574712645,349.7807818779686 321.14942528735634,349.7807818779686 329.3103448275862,349.7807818779686 C337.4712643678161,349.7807818779686 345.632183908046,349.7807818779686 353.7931034482759,349.7807818779686 C361.95402298850576,349.7807818779686 370.11494252873564,349.7807818779686 378.2758620689655,349.7807818779686 C386.4367816091954,349.7807818779686 394.5977011494253,349.7807818779686 402.7586206896552,349.7807818779686 C410.91954022988506,349.7807818779686 419.08045977011494,349.7807818779686 427.2413793103448,349.7807818779686 C435.4022988505747,349.7807818779686 443.5632183908046,349.7807818779686 451.7241379310345,349.7807818779686 C459.88505747126436,349.7807818779686 468.04597701149424,349.7807818779686 476.2068965517241,349.7807818779686 C484.367816091954,349.7807818779686 492.5287356321839,349.7807818779686 500.6896551724138,349.7807818779686 C508.85057471264366,349.7807818779686 517.0114942528736,349.7807818779686 525.1724137931035,349.7807818779686 C533.3333333333334,349.7807818779686 541.4942528735633,349.7807818779686 549.6551724137931,349.7807818779686 C557.816091954023,349.7807818779686 565.9770114942529,349.7807818779686 574.1379310344828,349.7807818779686 C582.2988505747127,349.7807818779686 590.4597701149426,349.7807818779686 598.6206896551724,349.7807818779686 C606.7816091954023,349.7807818779686 614.9425287356322,349.7807818779686 623.1034482758621,349.7807818779686 C631.264367816092,349.7807818779686 639.4252873563219,349.7807818779686 647.5862068965517,349.7807818779686 C655.7471264367816,349.7807818779686 663.9080459770115,349.7807818779686 672.0689655172414,349.7807818779686 C680.2298850574713,349.7807818779686 688.3908045977012,349.7807818779686 696.551724137931,349.7807818779686 C704.7126436781609,349.7807818779686 712.8735632183908,349.7807818779686 721.0344827586207,349.7807818779686 C729.1954022988506,349.7807818779686 737.3563218390805,349.7807818779686 745.5172413793103,349.7807818779686 C753.6781609195402,349.7807818779686 761.8390804597701,349.7807818779686 770,349.7807818779686" fill="none" stroke="#3498db" stroke-width="2.5" class="data-line-3" />
  <path d="M60,349.8903909389843 C68.16091954022988,349.8903909389843 76.32183908045977,349.8903909389843 84.48275862068965,349.8903909389843 C92.64367816091954,349.8903909389843 100.80459770114942,349.8903909389843 108.9655172413793,349.8903909389843 C117.12643678160919,349.8903909389843 125.28735632183907,349.8903909389843 133.44827586206895,349.8903909389843 C141.60919540229884,349.8903909389843 149.77011494252872,349.8903909389843 157.9310344827586,349.8903909389843 C166.0919540229885,349.8903909389843 174.2528735632184,349.8903909389843 182.41379310344828,349.8903909389843 C190.57471264367817,349.8903909389843 198.73563218390805,349.8903909389843 206.89655172413794,349.8903909389843 C215.05747126436782,349.8903909389843 223.2183908045977,349.8903909389843 231.3793103448276,349.8903909389843 C239.54022988505747,349.8903909389843 247.70114942528735,349.8903909389843 255.86206896551724,349.8903909389843 C264.0229885057471,349.8903909389843 272.183908045977,349.8903909389843 280.34482758620686,349.8903909389843 C288.50574712643675,349.8903909389843 296.6666666666667,349.8903909389843 304.82758620689657,349.8903909389843 C312.98850574712645,349.8903909389843 321.14942528735634,349.8903909389843 329.3103448275862,349.8903909389843 C337.4712643678161,349.8903909389843 345.632183908046,349.8903909389843 353.7931034482759,349.8903909389843 C361.95402298850576,349.8903909389843 370.11494252873564,349.8903909389843 378.2758620689655,349.8903909389843 C386.4367816091954,349.8903909389843 394.5977011494253,349.8903909389843 402.7586206896552,349.8903909389843 C410.91954022988506,349.8903909389843 419.08045977011494,349.8903909389843 427.2413793103448,349.8903909389843 C435.4022988505747,349.8903909389843 443.5632183908046,349.8903909389843 451.7241379310345,349.8903909389843 C459.88505747126436,349.8903909389843 468.04597701149424,349.8903909389843 476.2068965517241,349.8903909389843 C484.367816091954,349.8903909389843 492.5287356321839,349.8903909389843 500.6896551724138,349.8903909389843 C508.85057471264366,349.8903909389843 517.0114942528736,349.8903909389843 525.1724137931035,349.8903909389843 C533.3333333333334,349.8903909389843 541.4942528735633,349.8903909389843 549.6551724137931,349.8903909389843 C557.816091954023,349.8903909389843 565.9770114942529,349.8903909389843 574.1379310344828,349.8903909389843 C582.2988505747127,349.8903909389843 590.4597701149426,349.8903909389843 598.6206896551724,349.8903909389843 C606.7816091954023,349.8903909389843 614.9425287356322,349.8903909389843 623.1034482758621,349.8903909389843 C631.264367816092,349.8903909389843 639.4252873563219,349.8903909389843 647.5862068965517,349.8903909389843 C655.7471264367816,349.8903909389843 663.9080459770115,349.8903909389843 672.0689655172414,349.8903909389843 C680.2298850574713,349.8903909389843 688.3908045977012,349.8903909389843 696.551724137931,349.8903909389843 C704.7126436781609,349.8903909389843 712.8735632183908,349.8903909389843 721.0344827586207,349.8903909389843 C729.1954022988506,349.8903909389843 737.3563218390805,349.8903909389843 745.5172413793103,349.8903909389843 C753.6781609195402,349.8903909389843 761.8390804597701,349.8903909389843 770,349.8903909389843" fill="none" stroke="#9b59b6" stroke-width="2.5" class="data-line-4" />
  <path d="M60,349.8903909389843 C68.16091954022988,349.8903909389843 76.32183908045977,349.8903909389843 84.48275862068965,349.8903909389843 C92.64367816091954,349.8903909389843 100.80459770114942,349.8903909389843 108.9655172413793,349.8903909389843 C117.12643678160919,349.8903909389843 125.28735632183907,349.8903909389843 133.44827586206895,349.8903909389843 C141.60919540229884,349.8903909389843 149.77011494252872,349.8903909389843 157.9310344827586,349.8903909389843 C166.0919540229885,349.8903909389843 174.2528735632184,349.8903909389843 182.41379310344828,349.8903909389843 C190.57471264367817,349.8903909389843 198.73563218390805,349.8903909389843 206.89655172413794,349.8903909389843 C215.05747126436782,349.8903909389843 223.2183908045977,349.8903909389843 231.3793103448276,349.8903909389843 C239.54022988505747,349.8903909389843 247.70114942528735,349.8903909389843 255.86206896551724,349.8903909389843 C264.0229885057471,349.8903909389843 272.183908045977,349.8903909389843 280.34482758620686,349.8903909389843 C288.50574712643675,349.8903909389843 296.6666666666667,349.8903909389843 304.82758620689657,349.8903909389843 C312.98850574712645,349.8903909389843 321.14942528735634,349.8903909389843 329.3103448275862,349.8903909389843 C337.4712643678161,349.8903909389843 345.632183908046,349.8903909389843 353.7931034482759,349.8903909389843 C361.95402298850576,349.8903909389843 370.11494252873564,349.8903909389843 378.2758620689655,349.8903909389843 C386.4367816091954,349.8903909389843 394.5977011494253,349.8903909389843 402.7586206896552,349.8903909389843 C410.91954022988506,349.8903909389843 419.08045977011494,349.8903909389843 427.2413793103448,349.8903909389843 C435.4022988505747,349.8903909389843 443.5632183908046,349.8903909389843 451.7241379310345,349.8903909389843 C459.88505747126436,349.8903909389843 468.04597701149424,349.8903909389843 476.2068965517241,349.8903909389843 C484.367816091954,349.8903909389843 492.5287356321839,349.8903909389843 500.6896551724138,349.8903909389843 C508.85057471264366,349.8903909389843 517.0114942528736,349.8903909389843 525.1724137931035,349.8903909389843 C533.3333333333334,349.8903909389843 541.4942528735633,349.8903909389843 549.6551724137931,349.8903909389843 C557.816091954023,349.8903909389843 565.9770114942529,349.8903909389843 574.1379310344828,349.8903909389843 C582.2988505747127,349.8903909389843 590.4597701149426,349.8903909389843 598.6206896551724,349.8903909389843 C606.7816091954023,349.8903909389843 614.9425287356322,349.8903909389843 623.1034482758621,349.8903909389843 C631.264367816092,349.8903909389843 639.4252873563219,349.8903909389843 647.5862068965517,349.8903909389843 C655.7471264367816,349.8903909389843 663.9080459770115,349.8903909389843 672.0689655172414,349.8903909389843 C680.2298850574713,349.8903909389843 688.3908045977012,349.8903909389843 696.551724137931,349.8903909389843 C704.7126436781609,349.8903909389843 712.8735632183908,349.8903909389843 721.0344827586207,349.8903909389843 C729.1954022988506,349.8903909389843 737.3563218390805,349.8903909389843 745.5172413793103,349.8903909389843 C753.6781609195402,349.8903909389843 761.8390804597701,349.8903909389843 770,349.8903909389843" fill="none" stroke="#e67e22" stroke-width="2.5" class="data-line-5" />
  <path d="M60,349.8903909389843 C68.16091954022988,349.8903909389843 76.32183908045977,349.8903909389843 84.48275862068965,349.8903909389843 C92.64367816091954,349.8903909389843 100.80459770114942,349.8903909389843 108.9655172413793,349.8903909389843 C117.12643678160919,349.8903909389843 125.28735632183907,349.8903909389843 133.44827586206895,349.8903909389843 C141.60919540229884,349.8903909389843 149.77011494252872,349.8903909389843 157.9310344827586,349.8903909389843 C166.0919540229885,349.8903909389843 174.2528735632184,349.8903909389843 182.41379310344828,349.8903909389843 C190.57471264367817,349.8903909389843 198.73563218390805,349.8903909389843 206.89655172413794,349.8903909389843 C215.05747126436782,349.8903909389843 223.2183908045977,349.8903909389843 231.3793103448276,349.8903909389843 C239.54022988505747,349.8903909389843 247.70114942528735,349.8903909389843 255.86206896551724,349.8903909389843 C264.0229885057471,349.8903909389843 272.183908045977,349.8903909389843 280.34482758620686,349.8903909389843 C288.50574712643675,349.8903909389843 296.6666666666667,349.8903909389843 304.82758620689657,349.8903909389843 C312.98850574712645,349.8903909389843 321.14942528735634,349.8903909389843 329.3103448275862,349.8903909389843 C337.4712643678161,349.8903909389843 345.632183908046,349.8903909389843 353.7931034482759,349.8903909389843 C361.95402298850576,349.8903909389843 370.11494252873564,349.8903909389843 378.2758620689655,349.8903909389843 C386.4367816091954,349.8903909389843 394.5977011494253,349.8903909389843 402.7586206896552,349.8903909389843 C410.91954022988506,349.8903909389843 419.08045977011494,349.8903909389843 427.2413793103448,349.8903909389843 C435.4022988505747,349.8903909389843 443.5632183908046,349.8903909389843 451.7241379310345,349.8903909389843 C459.88505747126436,349.8903909389843 468.04597701149424,349.8903909389843 476.2068965517241,349.8903909389843 C484.367816091954,349.8903909389843 492.5287356321839,349.8903909389843 500.6896551724138,349.8903909389843 C508.85057471264366,349.8903909389843 517.0114942528736,349.8903909389843 525.1724137931035,349.8903909389843 C533.3333333333334,349.8903909389843 541.4942528735633,349.8903909389843 549.6551724137931,349.8903909389843 C557.816091954023,349.8903909389843 565.9770114942529,349.8903909389843 574.1379310344828,349.8903909389843 C582.2988505747127,349.8903909389843 590.4597701149426,349.8903909389843 598.6206896551724,349.8903909389843 C606.7816091954023,349.8903909389843 614.9425287356322,349.8903909389843 623.1034482758621,349.8903909389843 C631.264367816092,349.8903909389843 639.4252873563219,349.8903909389843 647.5862068965517,349.8903909389843 C655.7471264367816,349.8903909389843 663.9080459770115,349.8903909389843 672.0689655172414,349.8903909389843 C680.2298850574713,349.8903909389843 688.3908045977012,349.8903909389843 696.551724137931,349.8903909389843 C704.7126436781609,349.8903909389843 712.8735632183908,349.8903909389843 721.0344827586207,349.8903909389843 C729.1954022988506,349.8903909389843 737.3563218390805,349.8903909389843 745.5172413793103,349.8903909389843 C753.6781609195402,349.8903909389843 761.8390804597701,349.8903909389843 770,349.8903909389843" fill="none" stroke="#1abc9c" stroke-width="2.5" class="data-line-6" />
  <path d="M60,349.8903909389843 C68.16091954022988,349.8903909389843 76.32183908045977,349.8903909389843 84.48275862068965,349.8903909389843 C92.64367816091954,349.8903909389843 100.80459770114942,349.8903909389843 108.9655172413793,349.8903909389843 C117.12643678160919,349.8903909389843 125.28735632183907,349.8903909389843 133.44827586206895,349.8903909389843 C141.60919540229884,349.8903909389843 149.77011494252872,349.8903909389843 157.9310344827586,349.8903909389843 C166.0919540229885,349.8903909389843 174.2528735632184,349.8903909389843 182.41379310344828,349.8903909389843 C190.57471264367817,349.8903909389843 198.73563218390805,349.8903909389843 206.89655172413794,349.8903909389843 C215.05747126436782,349.8903909389843 223.2183908045977,349.8903909389843 231.3793103448276,349.8903909389843 C239.54022988505747,349.8903909389843 247.70114942528735,349.8903909389843 255.86206896551724,349.8903909389843 C264.0229885057471,349.8903909389843 272.183908045977,349.8903909389843 280.34482758620686,349.8903909389843 C288.50574712643675,349.8903909389843 296.6666666666667,349.8903909389843 304.82758620689657,349.8903909389843 C312.98850574712645,349.8903909389843 321.14942528735634,349.8903909389843 329.3103448275862,349.8903909389843 C337.4712643678161,349.8903909389843 345.632183908046,349.8903909389843 353.7931034482759,349.8903909389843 C361.95402298850576,349.8903909389843 370.11494252873564,349.8903909389843 378.2758620689655,349.8903909389843 C386.4367816091954,349.8903909389843 394.5977011494253,349.8903909389843 402.7586206896552,349.8903909389843 C410.91954022988506,349.8903909389843 419.08045977011494,349.8903909389843 427.2413793103448,349.8903909389843 C435.4022988505747,349.8903909389843 443.5632183908046,349.8903909389843 451.7241379310345,349.8903909389843 C459.88505747126436,349.8903909389843 468.04597701149424,349.8903909389843 476.2068965517241,349.8903909389843 C484.367816091954,349.8903909389843 492.5287356321839,349.8903909389843 500.6896551724138,349.8903909389843 C508.85057471264366,349.8903909389843 517.0114942528736,349.8903909389843 525.1724137931035,349.8903909389843 C533.3333333333334,349.8903909389843 541.4942528735633,349.8903909389843 549.6551724137931,349.8903909389843 C557.816091954023,349.8903909389843 565.9770114942529,349.8903909389843 574.1379310344828,349.8903909389843 C582.2988505747127,349.8903909389843 590.4597701149426,349.8903909389843 598.6206896551724,349.8903909389843 C606.7816091954023,349.8903909389843 614.9425287356322,349.8903909389843 623.1034482758621,349.8903909389843 C631.264367816092,349.8903909389843 639.4252873563219,349.8903909389843 647.5862068965517,349.8903909389843 C655.7471264367816,349.8903909389843 663.9080459770115,349.8903909389843 672.0689655172414,349.8903909389843 C680.2298850574713,349.8903909389843 688.3908045977012,349.8903909389843 696.551724137931,349.8903909389843 C704.7126436781609,349.8903909389843 712.8735632183908,349.8903909389843 721.0344827586207,349.8903909389843 C729.1954022988506,349.8903909389843 737.3563218390805,349.8903909389843 745.5172413793103,349.8903909389843 C753.6781609195402,349.8903909389843 761.8390804597701,349.8903909389843 770,349.8903909389843" fill="none" stroke="#e84393" stroke-width="2.5" class="data-line-7" />
  <path d="M60,350 C68.16091954022988,350 76.32183908045977,350 84.48275862068965,350 C92.64367816091954,350 100.80459770114942,350 108.9655172413793,350 C117.12643678160919,350 125.28735632183907,350 133.44827586206895,350 C141.60919540229884,350 149.77011494252872,350 157.9310344827586,350 C166.0919540229885,350 174.2528735632184,350 182.41379310344828,350 C190.57471264367817,350 198.73563218390805,350 206.89655172413794,350 C215.05747126436782,350 223.2183908045977,350 231.3793103448276,350 C239.54022988505747,350 247.70114942528735,350 255.86206896551724,350 C264.0229885057471,350 272.183908045977,350 280.34482758620686,350 C288.50574712643675,350 296.6666666666667,350 304.82758620689657,350 C312.98850574712645,350 321.14942528735634,350 329.3103448275862,350 C337.4712643678161,350 345.632183908046,350 353.7931034482759,350 C361.95402298850576,350 370.11494252873564,350 378.2758620689655,350 C386.4367816091954,350 394.5977011494253,350 402.7586206896552,350 C410.91954022988506,350 419.08045977011494,350 427.2413793103448,350 C435.4022988505747,350 443.5632183908046,350 451.7241379310345,350 C459.88505747126436,350 468.04597701149424,350 476.2068965517241,350 C484.367816091954,350 492.5287356321839,350 500.6896551724138,350 C508.85057471264366,350 517.0114942528736,350 525.1724137931035,350 C533.3333333333334,350 541.4942528735633,350 549.6551724137931,350 C557.816091954023,350 565.9770114942529,350 574.1379310344828,350 C582.2988505747127,350 590.4597701149426,350 598.6206896551724,350 C606.7816091954023,350 614.9425287356322,350 623.1034482758621,350 C631.264367816092,350 639.4252873563219,350 647.5862068965517,350 C655.7471264367816,350 663.9080459770115,350 672.0689655172414,350 C680.2298850574713,350 688.3908045977012,350 696.551724137931,350 C704.7126436781609,350 712.8735632183908,350 721.0344827586207,350 C729.1954022988506,350 737.3563218390805,350 745.5172413793103,350 C753.6781609195402,350 761.8390804597701,350 770,350" fill="none" stroke="#795548" stroke-width="2.5" class="data-line-8" />
  <path d="M60,350 C68.16091954022988,350 76.32183908045977,350 84.48275862068965,350 C92.64367816091954,350 100.80459770114942,350 108.9655172413793,350 C117.12643678160919,350 125.28735632183907,350 133.44827586206895,350 C141.60919540229884,350 149.77011494252872,350 157.9310344827586,350 C166.0919540229885,350 174.2528735632184,350 182.41379310344828,350 C190.57471264367817,350 198.73563218390805,350 206.89655172413794,350 C215.05747126436782,350 223.2183908045977,350 231.3793103448276,350 C239.54022988505747,350 247.70114942528735,350 255.86206896551724,350 C264.0229885057471,350 272.183908045977,350 280.34482758620686,350 C288.50574712643675,350 296.6666666666667,350 304.82758620689657,350 C312.98850574712645,350 321.14942528735634,350 329.3103448275862,350 C337.4712643678161,350 345.632183908046,350 353.7931034482759,350 C361.95402298850576,350 370.11494252873564,350 378.2758620689655,350 C386.4367816091954,350 394.5977011494253,350 402.7586206896552,350 C410.91954022988506,350 419.08045977011494,350 427.2413793103448,350 C435.4022988505747,350 443.5632183908046,350 451.7241379310345,350 C459.88505747126436,350 468.04597701149424,350 476.2068965517241,350 C484.367816091954,350 492.5287356321839,350 500.6896551724138,350 C508.85057471264366,350 517.0114942528736,350 525.1724137931035,350 C533.3333333333334,350 541.4942528735633,350 549.6551724137931,350 C557.816091954023,350 565.9770114942529,350 574.1379310344828,350 C582.2988505747127,350 590.4597701149426,350 598.6206896551724,350 C606.7816091954023,350 614.9425287356322,350 623.1034482758621,350 C631.264367816092,350 639.4252873563219,350 647.5862068965517,350 C655.7471264367816,350 663.9080459770115,350 672.0689655172414,350 C680.2298850574713,350 688.3908045977012,350 696.551724137931,350 C704.7126436781609,350 712.8735632183908,350 721.0344827586207,350 C729.1954022988506,350 737.3563218390805,350 745.5172413793103,350 C753.6781609195402,350 761.8390804597701,350 770,350" fill="none" stroke="#00bcd4" stroke-width="2.5" class="data-line-9" />
  <g class="points">
    
    <circle cx="60" cy="349.8903909389843" r="4" fill="#dfb317" class="data-point" style="animation-delay: 1.50s" />
    <circle cx="84.48275862068965" cy="342.21775666788454" r="4" fill="#dfb317" class="data-point" style="animation-delay: 1.55s" />
    <circle cx="108.9655172413793" cy="338.27183047131894" r="4" fill="#dfb317" class="data-point" style="animation-delay: 1.60s" />
    <circle cx="133.44827586206895" cy="334.6547314578005" r="4" fill="#dfb317" class="data-point" style="animation-delay: 1.65s" />
    <circle cx="157.9310344827586" cy="331.36645962732916" r="4" fill="#dfb317" class="data-point" style="animation-delay: 1.70s" />
    <circle cx="182.41379310344828" cy="326.87248812568504" r="4" fill="#dfb317" class="data-point" style="animation-delay: 1.75s" />
    <circle cx="206.89655172413794" cy="323.3649981731823" r="4" fill="#dfb317" class="data-point" style="animation-delay: 1.80s" />
    <circle cx="231.3793103448276" cy="320.95359883083665" r="4" fill="#dfb317" class="data-point" style="animation-delay: 1.85s" />
    <circle cx="255.86206896551724" cy="318.9806357325539" r="4" fill="#dfb317" class="data-point" style="animation-delay: 1.90s" />
    <circle cx="280.34482758620686" cy="316.5692363902083" r="4" fill="#dfb317" class="data-point" style="animation-delay: 1.95s" />
    <circle cx="304.82758620689657" cy="310.979174278407" r="4" fill="#dfb317" class="data-point" style="animation-delay: 2.00s" />
    <circle cx="329.3103448275862" cy="309.11582024113994" r="4" fill="#dfb317" class="data-point" style="animation-delay: 2.05s" />
    <circle cx="353.7931034482759" cy="306.4852027767629" r="4" fill="#dfb317" class="data-point" style="animation-delay: 2.10s" />
    <circle cx="378.2758620689655" cy="303.08732188527586" r="4" fill="#dfb317" class="data-point" style="animation-delay: 2.15s" />
    <circle cx="402.7586206896552" cy="296.4011691633175" r="4" fill="#dfb317" class="data-point" style="animation-delay: 2.20s" />
    <circle cx="427.2413793103448" cy="285.54987212276217" r="4" fill="#dfb317" class="data-point" style="animation-delay: 2.25s" />
    <circle cx="451.7241379310345" cy="260.99744245524295" r="4" fill="#dfb317" class="data-point" style="animation-delay: 2.30s" />
    <circle cx="476.2068965517241" cy="240.50054804530507" r="4" fill="#dfb317" class="data-point" style="animation-delay: 2.35s" />
    <circle cx="500.6896551724138" cy="224.4976251370113" r="4" fill="#dfb317" class="data-point" style="animation-delay: 2.40s" />
    <circle cx="525.1724137931035" cy="206.30252100840335" r="4" fill="#dfb317" class="data-point" style="animation-delay: 2.45s" />
    <circle cx="549.6551724137931" cy="194.13591523565947" r="4" fill="#dfb317" class="data-point" style="animation-delay: 2.50s" />
    <circle cx="574.1379310344828" cy="180.10595542564852" r="4" fill="#dfb317" class="data-point" style="animation-delay: 2.55s" />
    <circle cx="598.6206896551724" cy="167.72013153087323" r="4" fill="#dfb317" class="data-point" style="animation-delay: 2.60s" />
    <circle cx="623.1034482758621" cy="155.22469857508221" r="4" fill="#dfb317" class="data-point" style="animation-delay: 2.65s" />
    <circle cx="647.5862068965517" cy="142.9484837413226" r="4" fill="#dfb317" class="data-point" style="animation-delay: 2.70s" />
    <circle cx="672.0689655172414" cy="130.67226890756305" r="4" fill="#dfb317" class="data-point" style="animation-delay: 2.75s" />
    <circle cx="696.551724137931" cy="120.47862623310192" r="4" fill="#dfb317" class="data-point" style="animation-delay: 2.80s" />
    <circle cx="721.0344827586207" cy="107.76397515527952" r="4" fill="#dfb317" class="data-point" style="animation-delay: 2.85s" />
    <circle cx="745.5172413793103" cy="92.74753379612713" r="4" fill="#dfb317" class="data-point" style="animation-delay: 2.90s" />
    <circle cx="770" cy="77.29265619291192" r="4" fill="#dfb317" class="data-point" style="animation-delay: 2.95s" />
    
    <circle cx="60" cy="349.6711728169529" r="4" fill="#28a745" class="data-point" style="animation-delay: 1.50s" />
    <circle cx="84.48275862068965" cy="349.6711728169529" r="4" fill="#28a745" class="data-point" style="animation-delay: 1.55s" />
    <circle cx="108.9655172413793" cy="349.6711728169529" r="4" fill="#28a745" class="data-point" style="animation-delay: 1.60s" />
    <circle cx="133.44827586206895" cy="349.6711728169529" r="4" fill="#28a745" class="data-point" style="animation-delay: 1.65s" />
    <circle cx="157.9310344827586" cy="349.6711728169529" r="4" fill="#28a745" class="data-point" style="animation-delay: 1.70s" />
    <circle cx="182.41379310344828" cy="349.6711728169529" r="4" fill="#28a745" class="data-point" style="animation-delay: 1.75s" />
    <circle cx="206.89655172413794" cy="349.6711728169529" r="4" fill="#28a745" class="data-point" style="animation-delay: 1.80s" />
    <circle cx="231.3793103448276" cy="349.6711728169529" r="4" fill="#28a745" class="data-point" style="animation-delay: 1.85s" />
    <circle cx="255.86206896551724" cy="349.6711728169529" r="4" fill="#28a745" class="data-point" style="animation-delay: 1.90s" />
    <circle cx="280.34482758620686" cy="349.6711728169529" r="4" fill="#28a745" class="data-point" style="animation-delay: 1.95s" />
    <circle cx="304.82758620689657" cy="349.6711728169529" r="4" fill="#28a745" class="data-point" style="animation-delay: 2.00s" />
    <circle cx="329.3103448275862" cy="349.6711728169529" r="4" fill="#28a745" class="data-point" style="animation-delay: 2.05s" />
    <circle cx="353.7931034482759" cy="349.6711728169529" r="4" fill="#28a745" class="data-point" style="animation-delay: 2.10s" />
    <circle cx="378.2758620689655" cy="349.6711728169529" r="4" fill="#28a745" class="data-point" style="animation-delay: 2.15s" />
    <circle cx="402.7586206896552" cy="349.6711728169529" r="4" fill="#28a745" class="data-point" style="animation-delay: 2.20s" />
    <circle cx="427.2413793103448" cy="349.6711728169529" r="4" fill="#28a745" class="data-point" style="animation-delay: 2.25s" />
    <circle cx="451.7241379310345" cy="349.6711728169529" r="4" fill="#28a745" class="data-point" style="animation-delay: 2.30s" />
    <circle cx="476.2068965517241" cy="349.6711728169529" r="4" fill="#28a745" class="data-point" style="animation-delay: 2.35s" />
    <circle cx="500.6896551724138" cy="349.6711728169529" r="4" fill="#28a745" class="data-point" style="animation-delay: 2.40s" />
    <circle cx="525.1724137931035" cy="349.6711728169529" r="4" fill="#28a745" class="data-point" style="animation-delay: 2.45s" />
    <circle cx="549.6551724137931" cy="349.6711728169529" r="4" fill="#28a745" class="data-point" style="animation-delay: 2.50s" />
    <circle cx="574.1379310344828" cy="349.6711728169529" r="4" fill="#28a745" class="data-point" style="animation-delay: 2.55s" />
    <circle cx="598.6206896551724" cy="349.6711728169529" r="4" fill="#28a745" class="data-point" style="animation-delay: 2.60s" />
    <circle cx="623.1034482758621" cy="349.6711728169529" r="4" fill="#28a745" class="data-point" style="animation-delay: 2.65s" />
    <circle cx="647.5862068965517" cy="349.6711728169529" r="4" fill="#28a745" class="data-point" style="animation-delay: 2.70s" />
    <circle cx="672.0689655172414" cy="349.6711728169529" r="4" fill="#28a745" class="data-point" style="animation-delay: 2.75s" />
    <circle cx="696.551724137931" cy="349.6711728169529" r="4" fill="#28a745" class="data-point" style="animation-delay: 2.80s" />
    <circle cx="721.0344827586207" cy="349.6711728169529" r="4" fill="#28a745" class="data-point" style="animation-delay: 2.85s" />
    <circle cx="745.5172413793103" cy="349.6711728169529" r="4" fill="#28a745" class="data-point" style="animation-delay: 2.90s" />
    <circle cx="770" cy="349.6711728169529" r="4" fill="#28a745" class="data-point" style="animation-delay: 2.95s" />
    
    <circle cx="60" cy="349.7807818779686" r="4" fill="#e74c3c" class="data-point" style="animation-delay: 1.50s" />
    <circle cx="84.48275862068965" cy="349.7807818779686" r="4" fill="#e74c3c" class="data-point" style="animation-delay: 1.55s" />
    <circle cx="108.9655172413793" cy="349.7807818779686" r="4" fill="#e74c3c" class="data-point" style="animation-delay: 1.60s" />
    <circle cx="133.44827586206895" cy="349.7807818779686" r="4" fill="#e74c3c" class="data-point" style="animation-delay: 1.65s" />
    <circle cx="157.9310344827586" cy="349.7807818779686" r="4" fill="#e74c3c" class="data-point" style="animation-delay: 1.70s" />
    <circle cx="182.41379310344828" cy="349.7807818779686" r="4" fill="#e74c3c" class="data-point" style="animation-delay: 1.75s" />
    <circle cx="206.89655172413794" cy="349.7807818779686" r="4" fill="#e74c3c" class="data-point" style="animation-delay: 1.80s" />
    <circle cx="231.3793103448276" cy="349.7807818779686" r="4" fill="#e74c3c" class="data-point" style="animation-delay: 1.85s" />
    <circle cx="255.86206896551724" cy="349.7807818779686" r="4" fill="#e74c3c" class="data-point" style="animation-delay: 1.90s" />
    <circle cx="280.34482758620686" cy="349.7807818779686" r="4" fill="#e74c3c" class="data-point" style="animation-delay: 1.95s" />
    <circle cx="304.82758620689657" cy="349.7807818779686" r="4" fill="#e74c3c" class="data-point" style="animation-delay: 2.00s" />
    <circle cx="329.3103448275862" cy="349.7807818779686" r="4" fill="#e74c3c" class="data-point" style="animation-delay: 2.05s" />
    <circle cx="353.7931034482759" cy="349.7807818779686" r="4" fill="#e74c3c" class="data-point" style="animation-delay: 2.10s" />
    <circle cx="378.2758620689655" cy="349.7807818779686" r="4" fill="#e74c3c" class="data-point" style="animation-delay: 2.15s" />
    <circle cx="402.7586206896552" cy="349.7807818779686" r="4" fill="#e74c3c" class="data-point" style="animation-delay: 2.20s" />
    <circle cx="427.2413793103448" cy="349.7807818779686" r="4" fill="#e74c3c" class="data-point" style="animation-delay: 2.25s" />
    <circle cx="451.7241379310345" cy="349.7807818779686" r="4" fill="#e74c3c" class="data-point" style="animation-delay: 2.30s" />
    <circle cx="476.2068965517241" cy="349.7807818779686" r="4" fill="#e74c3c" class="data-point" style="animation-delay: 2.35s" />
    <circle cx="500.6896551724138" cy="349.7807818779686" r="4" fill="#e74c3c" class="data-point" style="animation-delay: 2.40s" />
    <circle cx="525.1724137931035" cy="349.7807818779686" r="4" fill="#e74c3c" class="data-point" style="animation-delay: 2.45s" />
    <circle cx="549.6551724137931" cy="349.7807818779686" r="4" fill="#e74c3c" class="data-point" style="animation-delay: 2.50s" />
    <circle cx="574.1379310344828" cy="349.7807818779686" r="4" fill="#e74c3c" class="data-point" style="animation-delay: 2.55s" />
    <circle cx="598.6206896551724" cy="349.7807818779686" r="4" fill="#e74c3c" class="data-point" style="animation-delay: 2.60s" />
    <circle cx="623.1034482758621" cy="349.7807818779686" r="4" fill="#e74c3c" class="data-point" style="animation-delay: 2.65s" />
    <circle cx="647.5862068965517" cy="349.7807818779686" r="4" fill="#e74c3c" class="data-point" style="animation-delay: 2.70s" />
    <circle cx="672.0689655172414" cy="349.7807818779686" r="4" fill="#e74c3c" class="data-point" style="animation-delay: 2.75s" />
    <circle cx="696.551724137931" cy="349.7807818779686" r="4" fill="#e74c3c" class="data-point" style="animation-delay: 2.80s" />
    <circle cx="721.0344827586207" cy="349.7807818779686" r="4" fill="#e74c3c" class="data-point" style="animation-delay: 2.85s" />
    <circle cx="745.5172413793103" cy="349.7807818779686" r="4" fill="#e74c3c" class="data-point" style="animation-delay: 2.90s" />
    <circle cx="770" cy="349.7807818779686" r="4" fill="#e74c3c" class="data-point" style="animation-delay: 2.95s" />
    
    <circle cx="60" cy="349.7807818779686" r="4" fill="#3498db" class="data-point" style="animation-delay: 1.50s" />
    <circle cx="84.48275862068965" cy="349.7807818779686" r="4" fill="#3498db" class="data-point" style="animation-delay: 1.55s" />
    <circle cx="108.9655172413793" cy="349.7807818779686" r="4" fill="#3498db" class="data-point" style="animation-delay: 1.60s" />
    <circle cx="133.44827586206895" cy="349.7807818779686" r="4" fill="#3498db" class="data-point" style="animation-delay: 1.65s" />
    <circle cx="157.9310344827586" cy="349.7807818779686" r="4" fill="#3498db" class="data-point" style="animation-delay: 1.70s" />
    <circle cx="182.41379310344828" cy="349.7807818779686" r="4" fill="#3498db" class="data-point" style="animation-delay: 1.75s" />
    <circle cx="206.89655172413794" cy="349.7807818779686" r="4" fill="#3498db" class="data-point" style="animation-delay: 1.80s" />
    <circle cx="231.3793103448276" cy="349.7807818779686" r="4" fill="#3498db" class="data-point" style="animation-delay: 1.85s" />
    <circle cx="255.86206896551724" cy="349.7807818779686" r="4" fill="#3498db" class="data-point" style="animation-delay: 1.90s" />
    <circle cx="280.34482758620686" cy="349.7807818779686" r="4" fill="#3498db" class="data-point" style="animation-delay: 1.95s" />
    <circle cx="304.82758620689657" cy="349.7807818779686" r="4" fill="#3498db" class="data-point" style="animation-delay: 2.00s" />
    <circle cx="329.3103448275862" cy="349.7807818779686" r="4" fill="#3498db" class="data-point" style="animation-delay: 2.05s" />
    <circle cx="353.7931034482759" cy="349.7807818779686" r="4" fill="#3498db" class="data-point" style="animation-delay: 2.10s" />
    <circle cx="378.2758620689655" cy="349.7807818779686" r="4" fill="#3498db" class="data-point" style="animation-delay: 2.15s" />
    <circle cx="402.7586206896552" cy="349.7807818779686" r="4" fill="#3498db" class="data-point" style="animation-delay: 2.20s" />
    <circle cx="427.2413793103448" cy="349.7807818779686" r="4" fill="#3498db" class="data-point" style="animation-delay: 2.25s" />
    <circle cx="451.7241379310345" cy="349.7807818779686" r="4" fill="#3498db" class="data-point" style="animation-delay: 2.30s" />
    <circle cx="476.2068965517241" cy="349.7807818779686" r="4" fill="#3498db" class="data-point" style="animation-delay: 2.35s" />
    <circle cx="500.6896551724138" cy="349.7807818779686" r="4" fill="#3498db" class="data-point" style="animation-delay: 2.40s" />
    <circle cx="525.1724137931035" cy="349.7807818779686" r="4" fill="#3498db" class="data-point" style="animation-delay: 2.45s" />
    <circle cx="549.6551724137931" cy="349.7807818779686" r="4" fill="#3498db" class="data-point" style="animation-delay: 2.50s" />
    <circle cx="574.1379310344828" cy="349.7807818779686" r="4" fill="#3498db" class="data-point" style="animation-delay: 2.55s" />
    <circle cx="598.6206896551724" cy="349.7807818779686" r="4" fill="#3498db" class="data-point" style="animation-delay: 2.60s" />
    <circle cx="623.1034482758621" cy="349.7807818779686" r="4" fill="#3498db" class="data-point" style="animation-delay: 2.65s" />
    <circle cx="647.5862068965517" cy="349.7807818779686" r="4" fill="#3498db" class="data-point" style="animation-delay: 2.70s" />
    <circle cx="672.0689655172414" cy="349.7807818779686" r="4" fill="#3498db" class="data-point" style="animation-delay: 2.75s" />
    <circle cx="696.551724137931" cy="349.7807818779686" r="4" fill="#3498db" class="data-point" style="animation-delay: 2.80s" />
    <circle cx="721.0344827586207" cy="349.7807818779686" r="4" fill="#3498db" class="data-point" style="animation-delay: 2.85s" />
    <circle cx="745.5172413793103" cy="349.7807818779686" r="4" fill="#3498db" class="data-point" style="animation-delay: 2.90s" />
    <circle cx="770" cy="349.7807818779686" r="4" fill="#3498db" class="data-point" style="animation-delay: 2.95s" />
    
    <circle cx="60" cy="349.8903909389843" r="4" fill="#9b59b6" class="data-point" style="animation-delay: 1.50s" />
    <circle cx="84.48275862068965" cy="349.8903909389843" r="4" fill="#9b59b6" class="data-point" style="animation-delay: 1.55s" />
    <circle cx="108.9655172413793" cy="349.8903909389843" r="4" fill="#9b59b6" class="data-point" style="animation-delay: 1.60s" />
    <circle cx="133.44827586206895" cy="349.8903909389843" r="4" fill="#9b59b6" class="data-point" style="animation-delay: 1.65s" />
    <circle cx="157.9310344827586" cy="349.8903909389843" r="4" fill="#9b59b6" class="data-point" style="animation-delay: 1.70s" />
    <circle cx="182.41379310344828" cy="349.8903909389843" r="4" fill="#9b59b6" class="data-point" style="animation-delay: 1.75s" />
    <circle cx="206.89655172413794" cy="349.8903909389843" r="4" fill="#9b59b6" class="data-point" style="animation-delay: 1.80s" />
    <circle cx="231.3793103448276" cy="349.8903909389843" r="4" fill="#9b59b6" class="data-point" style="animation-delay: 1.85s" />
    <circle cx="255.86206896551724" cy="349.8903909389843" r="4" fill="#9b59b6" class="data-point" style="animation-delay: 1.90s" />
    <circle cx="280.34482758620686" cy="349.8903909389843" r="4" fill="#9b59b6" class="data-point" style="animation-delay: 1.95s" />
    <circle cx="304.82758620689657" cy="349.8903909389843" r="4" fill="#9b59b6" class="data-point" style="animation-delay: 2.00s" />
    <circle cx="329.3103448275862" cy="349.8903909389843" r="4" fill="#9b59b6" class="data-point" style="animation-delay: 2.05s" />
    <circle cx="353.7931034482759" cy="349.8903909389843" r="4" fill="#9b59b6" class="data-point" style="animation-delay: 2.10s" />
    <circle cx="378.2758620689655" cy="349.8903909389843" r="4" fill="#9b59b6" class="data-point" style="animation-delay: 2.15s" />
    <circle cx="402.7586206896552" cy="349.8903909389843" r="4" fill="#9b59b6" class="data-point" style="animation-delay: 2.20s" />
    <circle cx="427.2413793103448" cy="349.8903909389843" r="4" fill="#9b59b6" class="data-point" style="animation-delay: 2.25s" />
    <circle cx="451.7241379310345" cy="349.8903909389843" r="4" fill="#9b59b6" class="data-point" style="animation-delay: 2.30s" />
    <circle cx="476.2068965517241" cy="349.8903909389843" r="4" fill="#9b59b6" class="data-point" style="animation-delay: 2.35s" />
    <circle cx="500.6896551724138" cy="349.8903909389843" r="4" fill="#9b59b6" class="data-point" style="animation-delay: 2.40s" />
    <circle cx="525.1724137931035" cy="349.8903909389843" r="4" fill="#9b59b6" class="data-point" style="animation-delay: 2.45s" />
    <circle cx="549.6551724137931" cy="349.8903909389843" r="4" fill="#9b59b6" class="data-point" style="animation-delay: 2.50s" />
    <circle cx="574.1379310344828" cy="349.8903909389843" r="4" fill="#9b59b6" class="data-point" style="animation-delay: 2.55s" />
    <circle cx="598.6206896551724" cy="349.8903909389843" r="4" fill="#9b59b6" class="data-point" style="animation-delay: 2.60s" />
    <circle cx="623.1034482758621" cy="349.8903909389843" r="4" fill="#9b59b6" class="data-point" style="animation-delay: 2.65s" />
    <circle cx="647.5862068965517" cy="349.8903909389843" r="4" fill="#9b59b6" class="data-point" style="animation-delay: 2.70s" />
    <circle cx="672.0689655172414" cy="349.8903909389843" r="4" fill="#9b59b6" class="data-point" style="animation-delay: 2.75s" />
    <circle cx="696.551724137931" cy="349.8903909389843" r="4" fill="#9b59b6" class="data-point" style="animation-delay: 2.80s" />
    <circle cx="721.0344827586207" cy="349.8903909389843" r="4" fill="#9b59b6" class="data-point" style="animation-delay: 2.85s" />
    <circle cx="745.5172413793103" cy="349.8903909389843" r="4" fill="#9b59b6" class="data-point" style="animation-delay: 2.90s" />
    <circle cx="770" cy="349.8903909389843" r="4" fill="#9b59b6" class="data-point" style="animation-delay: 2.95s" />
    
    <circle cx="60" cy="349.8903909389843" r="4" fill="#e67e22" class="data-point" style="animation-delay: 1.50s" />
    <circle cx="84.48275862068965" cy="349.8903909389843" r="4" fill="#e67e22" class="data-point" style="animation-delay: 1.55s" />
    <circle cx="108.9655172413793" cy="349.8903909389843" r="4" fill="#e67e22" class="data-point" style="animation-delay: 1.60s" />
    <circle cx="133.44827586206895" cy="349.8903909389843" r="4" fill="#e67e22" class="data-point" style="animation-delay: 1.65s" />
    <circle cx="157.9310344827586" cy="349.8903909389843" r="4" fill="#e67e22" class="data-point" style="animation-delay: 1.70s" />
    <circle cx="182.41379310344828" cy="349.8903909389843" r="4" fill="#e67e22" class="data-point" style="animation-delay: 1.75s" />
    <circle cx="206.89655172413794" cy="349.8903909389843" r="4" fill="#e67e22" class="data-point" style="animation-delay: 1.80s" />
    <circle cx="231.3793103448276" cy="349.8903909389843" r="4" fill="#e67e22" class="data-point" style="animation-delay: 1.85s" />
    <circle cx="255.86206896551724" cy="349.8903909389843" r="4" fill="#e67e22" class="data-point" style="animation-delay: 1.90s" />
    <circle cx="280.34482758620686" cy="349.8903909389843" r="4" fill="#e67e22" class="data-point" style="animation-delay: 1.95s" />
    <circle cx="304.82758620689657" cy="349.8903909389843" r="4" fill="#e67e22" class="data-point" style="animation-delay: 2.00s" />
    <circle cx="329.3103448275862" cy="349.8903909389843" r="4" fill="#e67e22" class="data-point" style="animation-delay: 2.05s" />
    <circle cx="353.7931034482759" cy="349.8903909389843" r="4" fill="#e67e22" class="data-point" style="animation-delay: 2.10s" />
    <circle cx="378.2758620689655" cy="349.8903909389843" r="4" fill="#e67e22" class="data-point" style="animation-delay: 2.15s" />
    <circle cx="402.7586206896552" cy="349.8903909389843" r="4" fill="#e67e22" class="data-point" style="animation-delay: 2.20s" />
    <circle cx="427.2413793103448" cy="349.8903909389843" r="4" fill="#e67e22" class="data-point" style="animation-delay: 2.25s" />
    <circle cx="451.7241379310345" cy="349.8903909389843" r="4" fill="#e67e22" class="data-point" style="animation-delay: 2.30s" />
    <circle cx="476.2068965517241" cy="349.8903909389843" r="4" fill="#e67e22" class="data-point" style="animation-delay: 2.35s" />
    <circle cx="500.6896551724138" cy="349.8903909389843" r="4" fill="#e67e22" class="data-point" style="animation-delay: 2.40s" />
    <circle cx="525.1724137931035" cy="349.8903909389843" r="4" fill="#e67e22" class="data-point" style="animation-delay: 2.45s" />
    <circle cx="549.6551724137931" cy="349.8903909389843" r="4" fill="#e67e22" class="data-point" style="animation-delay: 2.50s" />
    <circle cx="574.1379310344828" cy="349.8903909389843" r="4" fill="#e67e22" class="data-point" style="animation-delay: 2.55s" />
    <circle cx="598.6206896551724" cy="349.8903909389843" r="4" fill="#e67e22" class="data-point" style="animation-delay: 2.60s" />
    <circle cx="623.1034482758621" cy="349.8903909389843" r="4" fill="#e67e22" class="data-point" style="animation-delay: 2.65s" />
    <circle cx="647.5862068965517" cy="349.8903909389843" r="4" fill="#e67e22" class="data-point" style="animation-delay: 2.70s" />
    <circle cx="672.0689655172414" cy="349.8903909389843" r="4" fill="#e67e22" class="data-point" style="animation-delay: 2.75s" />
    <circle cx="696.551724137931" cy="349.8903909389843" r="4" fill="#e67e22" class="data-point" style="animation-delay: 2.80s" />
    <circle cx="721.0344827586207" cy="349.8903909389843" r="4" fill="#e67e22" class="data-point" style="animation-delay: 2.85s" />
    <circle cx="745.5172413793103" cy="349.8903909389843" r="4" fill="#e67e22" class="data-point" style="animation-delay: 2.90s" />
    <circle cx="770" cy="349.8903909389843" r="4" fill="#e67e22" class="data-point" style="animation-delay: 2.95s" />
    
    <circle cx="60" cy="349.8903909389843" r="4" fill="#1abc9c" class="data-point" style="animation-delay: 1.50s" />
    <circle cx="84.48275862068965" cy="349.8903909389843" r="4" fill="#1abc9c" class="data-point" style="animation-delay: 1.55s" />
    <circle cx="108.9655172413793" cy="349.8903909389843" r="4" fill="#1abc9c" class="data-point" style="animation-delay: 1.60s" />
    <circle cx="133.44827586206895" cy="349.8903909389843" r="4" fill="#1abc9c" class="data-point" style="animation-delay: 1.65s" />
    <circle cx="157.9310344827586" cy="349.8903909389843" r="4" fill="#1abc9c" class="data-point" style="animation-delay: 1.70s" />
    <circle cx="182.41379310344828" cy="349.8903909389843" r="4" fill="#1abc9c" class="data-point" style="animation-delay: 1.75s" />
    <circle cx="206.89655172413794" cy="349.8903909389843" r="4" fill="#1abc9c" class="data-point" style="animation-delay: 1.80s" />
    <circle cx="231.3793103448276" cy="349.8903909389843" r="4" fill="#1abc9c" class="data-point" style="animation-delay: 1.85s" />
    <circle cx="255.86206896551724" cy="349.8903909389843" r="4" fill="#1abc9c" class="data-point" style="animation-delay: 1.90s" />
    <circle cx="280.34482758620686" cy="349.8903909389843" r="4" fill="#1abc9c" class="data-point" style="animation-delay: 1.95s" />
    <circle cx="304.82758620689657" cy="349.8903909389843" r="4" fill="#1abc9c" class="data-point" style="animation-delay: 2.00s" />
    <circle cx="329.3103448275862" cy="349.8903909389843" r="4" fill="#1abc9c" class="data-point" style="animation-delay: 2.05s" />
    <circle cx="353.7931034482759" cy="349.8903909389843" r="4" fill="#1abc9c" class="data-point" style="animation-delay: 2.10s" />
    <circle cx="378.2758620689655" cy="349.8903909389843" r="4" fill="#1abc9c" class="data-point" style="animation-delay: 2.15s" />
    <circle cx="402.7586206896552" cy="349.8903909389843" r="4" fill="#1abc9c" class="data-point" style="animation-delay: 2.20s" />
    <circle cx="427.2413793103448" cy="349.8903909389843" r="4" fill="#1abc9c" class="data-point" style="animation-delay: 2.25s" />
    <circle cx="451.7241379310345" cy="349.8903909389843" r="4" fill="#1abc9c" class="data-point" style="animation-delay: 2.30s" />
    <circle cx="476.2068965517241" cy="349.8903909389843" r="4" fill="#1abc9c" class="data-point" style="animation-delay: 2.35s" />
    <circle cx="500.6896551724138" cy="349.8903909389843" r="4" fill="#1abc9c" class="data-point" style="animation-delay: 2.40s" />
    <circle cx="525.1724137931035" cy="349.8903909389843" r="4" fill="#1abc9c" class="data-point" style="animation-delay: 2.45s" />
    <circle cx="549.6551724137931" cy="349.8903909389843" r="4" fill="#1abc9c" class="data-point" style="animation-delay: 2.50s" />
    <circle cx="574.1379310344828" cy="349.8903909389843" r="4" fill="#1abc9c" class="data-point" style="animation-delay: 2.55s" />
    <circle cx="598.6206896551724" cy="349.8903909389843" r="4" fill="#1abc9c" class="data-point" style="animation-delay: 2.60s" />
    <circle cx="623.1034482758621" cy="349.8903909389843" r="4" fill="#1abc9c" class="data-point" style="animation-delay: 2.65s" />
    <circle cx="647.5862068965517" cy="349.8903909389843" r="4" fill="#1abc9c" class="data-point" style="animation-delay: 2.70s" />
    <circle cx="672.0689655172414" cy="349.8903909389843" r="4" fill="#1abc9c" class="data-point" style="animation-delay: 2.75s" />
    <circle cx="696.551724137931" cy="349.8903909389843" r="4" fill="#1abc9c" class="data-point" style="animation-delay: 2.80s" />
    <circle cx="721.0344827586207" cy="349.8903909389843" r="4" fill="#1abc9c" class="data-point" style="animation-delay: 2.85s" />
    <circle cx="745.5172413793103" cy="349.8903909389843" r="4" fill="#1abc9c" class="data-point" style="animation-delay: 2.90s" />
    <circle cx="770" cy="349.8903909389843" r="4" fill="#1abc9c" class="data-point" style="animation-delay: 2.95s" />
    
    <circle cx="60" cy="349.8903909389843" r="4" fill="#e84393" class="data-point" style="animation-delay: 1.50s" />
    <circle cx="84.48275862068965" cy="349.8903909389843" r="4" fill="#e84393" class="data-point" style="animation-delay: 1.55s" />
    <circle cx="108.9655172413793" cy="349.8903909389843" r="4" fill="#e84393" class="data-point" style="animation-delay: 1.60s" />
    <circle cx="133.44827586206895" cy="349.8903909389843" r="4" fill="#e84393" class="data-point" style="animation-delay: 1.65s" />
    <circle cx="157.9310344827586" cy="349.8903909389843" r="4" fill="#e84393" class="data-point" style="animation-delay: 1.70s" />
    <circle cx="182.41379310344828" cy="349.8903909389843" r="4" fill="#e84393" class="data-point" style="animation-delay: 1.75s" />
    <circle cx="206.89655172413794" cy="349.8903909389843" r="4" fill="#e84393" class="data-point" style="animation-delay: 1.80s" />
    <circle cx="231.3793103448276" cy="349.8903909389843" r="4" fill="#e84393" class="data-point" style="animation-delay: 1.85s" />
    <circle cx="255.86206896551724" cy="349.8903909389843" r="4" fill="#e84393" class="data-point" style="animation-delay: 1.90s" />
    <circle cx="280.34482758620686" cy="349.8903909389843" r="4" fill="#e84393" class="data-point" style="animation-delay: 1.95s" />
    <circle cx="304.82758620689657" cy="349.8903909389843" r="4" fill="#e84393" class="data-point" style="animation-delay: 2.00s" />
    <circle cx="329.3103448275862" cy="349.8903909389843" r="4" fill="#e84393" class="data-point" style="animation-delay: 2.05s" />
    <circle cx="353.7931034482759" cy="349.8903909389843" r="4" fill="#e84393" class="data-point" style="animation-delay: 2.10s" />
    <circle cx="378.2758620689655" cy="349.8903909389843" r="4" fill="#e84393" class="data-point" style="animation-delay: 2.15s" />
    <circle cx="402.7586206896552" cy="349.8903909389843" r="4" fill="#e84393" class="data-point" style="animation-delay: 2.20s" />
    <circle cx="427.2413793103448" cy="349.8903909389843" r="4" fill="#e84393" class="data-point" style="animation-delay: 2.25s" />
    <circle cx="451.7241379310345" cy="349.8903909389843" r="4" fill="#e84393" class="data-point" style="animation-delay: 2.30s" />
    <circle cx="476.2068965517241" cy="349.8903909389843" r="4" fill="#e84393" class="data-point" style="animation-delay: 2.35s" />
    <circle cx="500.6896551724138" cy="349.8903909389843" r="4" fill="#e84393" class="data-point" style="animation-delay: 2.40s" />
    <circle cx="525.1724137931035" cy="349.8903909389843" r="4" fill="#e84393" class="data-point" style="animation-delay: 2.45s" />
    <circle cx="549.6551724137931" cy="349.8903909389843" r="4" fill="#e84393" class="data-point" style="animation-delay: 2.50s" />
    <circle cx="574.1379310344828" cy="349.8903909389843" r="4" fill="#e84393" class="data-point" style="animation-delay: 2.55s" />
    <circle cx="598.6206896551724" cy="349.8903909389843" r="4" fill="#e84393" class="data-point" style="animation-delay: 2.60s" />
    <circle cx="623.1034482758621" cy="349.8903909389843" r="4" fill="#e84393" class="data-point" style="animation-delay: 2.65s" />
    <circle cx="647.5862068965517" cy="349.8903909389843" r="4" fill="#e84393" class="data-point" style="animation-delay: 2.70s" />
    <circle cx="672.0689655172414" cy="349.8903909389843" r="4" fill="#e84393" class="data-point" style="animation-delay: 2.75s" />
    <circle cx="696.551724137931" cy="349.8903909389843" r="4" fill="#e84393" class="data-point" style="animation-delay: 2.80s" />
    <circle cx="721.0344827586207" cy="349.8903909389843" r="4" fill="#e84393" class="data-point" style="animation-delay: 2.85s" />
    <circle cx="745.5172413793103" cy="349.8903909389843" r="4" fill="#e84393" class="data-point" style="animation-delay: 2.90s" />
    <circle cx="770" cy="349.8903909389843" r="4" fill="#e84393" class="data-point" style="animation-delay: 2.95s" />
    
    <circle cx="60" cy="350" r="4" fill="#795548" class="data-point" style="animation-delay: 1.50s" />
    <circle cx="84.48275862068965" cy="350" r="4" fill="#795548" class="data-point" style="animation-delay: 1.55s" />
    <circle cx="108.9655172413793" cy="350" r="4" fill="#795548" class="data-point" style="animation-delay: 1.60s" />
    <circle cx="133.44827586206895" cy="350" r="4" fill="#795548" class="data-point" style="animation-delay: 1.65s" />
    <circle cx="157.9310344827586" cy="350" r="4" fill="#795548" class="data-point" style="animation-delay: 1.70s" />
    <circle cx="182.41379310344828" cy="350" r="4" fill="#795548" class="data-point" style="animation-delay: 1.75s" />
    <circle cx="206.89655172413794" cy="350" r="4" fill="#795548" class="data-point" style="animation-delay: 1.80s" />
    <circle cx="231.3793103448276" cy="350" r="4" fill="#795548" class="data-point" style="animation-delay: 1.85s" />
    <circle cx="255.86206896551724" cy="350" r="4" fill="#795548" class="data-point" style="animation-delay: 1.90s" />
    <circle cx="280.34482758620686" cy="350" r="4" fill="#795548" class="data-point" style="animation-delay: 1.95s" />
    <circle cx="304.82758620689657" cy="350" r="4" fill="#795548" class="data-point" style="animation-delay: 2.00s" />
    <circle cx="329.3103448275862" cy="350" r="4" fill="#795548" class="data-point" style="animation-delay: 2.05s" />
    <circle cx="353.7931034482759" cy="350" r="4" fill="#795548" class="data-point" style="animation-delay: 2.10s" />
    <circle cx="378.2758620689655" cy="350" r="4" fill="#795548" class="data-point" style="animation-delay: 2.15s" />
    <circle cx="402.7586206896552" cy="350" r="4" fill="#795548" class="data-point" style="animation-delay: 2.20s" />
    <circle cx="427.2413793103448" cy="350" r="4" fill="#795548" class="data-point" style="animation-delay: 2.25s" />
    <circle cx="451.7241379310345" cy="350" r="4" fill="#795548" class="data-point" style="animation-delay: 2.30s" />
    <circle cx="476.2068965517241" cy="350" r="4" fill="#795548" class="data-point" style="animation-delay: 2.35s" />
    <circle cx="500.6896551724138" cy="350" r="4" fill="#795548" class="data-point" style="animation-delay: 2.40s" />
    <circle cx="525.1724137931035" cy="350" r="4" fill="#795548" class="data-point" style="animation-delay: 2.45s" />
    <circle cx="549.6551724137931" cy="350" r="4" fill="#795548" class="data-point" style="animation-delay: 2.50s" />
    <circle cx="574.1379310344828" cy="350" r="4" fill="#795548" class="data-point" style="animation-delay: 2.55s" />
    <circle cx="598.6206896551724" cy="350" r="4" fill="#795548" class="data-point" style="animation-delay: 2.60s" />
    <circle cx="623.1034482758621" cy="350" r="4" fill="#795548" class="data-point" style="animation-delay: 2.65s" />
    <circle cx="647.5862068965517" cy="350" r="4" fill="#795548" class="data-point" style="animation-delay: 2.70s" />
    <circle cx="672.0689655172414" cy="350" r="4" fill="#795548" class="data-point" style="animation-delay: 2.75s" />
    <circle cx="696.551724137931" cy="350" r="4" fill="#795548" class="data-point" style="animation-delay: 2.80s" />
    <circle cx="721.0344827586207" cy="350" r="4" fill="#795548" class="data-point" style="animation-delay: 2.85s" />
    <circle cx="745.5172413793103" cy="350" r="4" fill="#795548" class="data-point" style="animation-delay: 2.90s" />
    <circle cx="770" cy="350" r="4" fill="#795548" class="data-point" style="animation-delay: 2.95s" />
    
    <circle cx="60" cy="350" r="4" fill="#00bcd4" class="data-point" style="animation-delay: 1.50s" />
    <circle cx="84.48275862068965" cy="350" r="4" fill="#00bcd4" class="data-point" style="animation-delay: 1.55s" />
    <circle cx="108.9655172413793" cy="350" r="4" fill="#00bcd4" class="data-point" style="animation-delay: 1.60s" />
    <circle cx="133.44827586206895" cy="350" r="4" fill="#00bcd4" class="data-point" style="animation-delay: 1.65s" />
    <circle cx="157.9310344827586" cy="350" r="4" fill="#00bcd4" class="data-point" style="animation-delay: 1.70s" />
    <circle cx="182.41379310344828" cy="350" r="4" fill="#00bcd4" class="data-point" style="animation-delay: 1.75s" />
    <circle cx="206.89655172413794" cy="350" r="4" fill="#00bcd4" class="data-point" style="animation-delay: 1.80s" />
    <circle cx="231.3793103448276" cy="350" r="4" fill="#00bcd4" class="data-point" style="animation-delay: 1.85s" />
    <circle cx="255.86206896551724" cy="350" r="4" fill="#00bcd4" class="data-point" style="animation-delay: 1.90s" />
    <circle cx="280.34482758620686" cy="350" r="4" fill="#00bcd4" class="data-point" style="animation-delay: 1.95s" />
    <circle cx="304.82758620689657" cy="350" r="4" fill="#00bcd4" class="data-point" style="animation-delay: 2.00s" />
    <circle cx="329.3103448275862" cy="350" r="4" fill="#00bcd4" class="data-point" style="animation-delay: 2.05s" />
    <circle cx="353.7931034482759" cy="350" r="4" fill="#00bcd4" class="data-point" style="animation-delay: 2.10s" />
    <circle cx="378.2758620689655" cy="350" r="4" fill="#00bcd4" class="data-point" style="animation-delay: 2.15s" />
    <circle cx="402.7586206896552" cy="350" r="4" fill="#00bcd4" class="data-point" style="animation-delay: 2.20s" />
    <circle cx="427.2413793103448" cy="350" r="4" fill="#00bcd4" class="data-point" style="animation-delay: 2.25s" />
    <circle cx="451.7241379310345" cy="350" r="4" fill="#00bcd4" class="data-point" style="animation-delay: 2.30s" />
    <circle cx="476.2068965517241" cy="350" r="4" fill="#00bcd4" class="data-point" style="animation-delay: 2.35s" />
    <circle cx="500.6896551724138" cy="350" r="4" fill="#00bcd4" class="data-point" style="animation-delay: 2.40s" />
    <circle cx="525.1724137931035" cy="350" r="4" fill="#00bcd4" class="data-point" style="animation-delay: 2.45s" />
    <circle cx="549.6551724137931" cy="350" r="4" fill="#00bcd4" class="data-point" style="animation-delay: 2.50s" />
    <circle cx="574.1379310344828" cy="350" r="4" fill="#00bcd4" class="data-point" style="animation-delay: 2.55s" />
    <circle cx="598.6206896551724" cy="350" r="4" fill="#00bcd4" class="data-point" style="animation-delay: 2.60s" />
    <circle cx="623.1034482758621" cy="350" r="4" fill="#00bcd4" class="data-point" style="animation-delay: 2.65s" />
    <circle cx="647.5862068965517" cy="350" r="4" fill="#00bcd4" class="data-point" style="animation-delay: 2.70s" />
    <circle cx="672.0689655172414" cy="350" r="4" fill="#00bcd4" class="data-point" style="animation-delay: 2.75s" />
    <circle cx="696.551724137931" cy="350" r="4" fill="#00bcd4" class="data-point" style="animation-delay: 2.80s" />
    <circle cx="721.0344827586207" cy="350" r="4" fill="#00bcd4" class="data-point" style="animation-delay: 2.85s" />
    <circle cx="745.5172413793103" cy="350" r="4" fill="#00bcd4" class="data-point" style="animation-delay: 2.90s" />
    <circle cx="770" cy="350" r="4" fill="#00bcd4" class="data-point" style="animation-delay: 2.95s" />
  </g>
</svg>