<svg xmlns="http://www.w3.org/2000/svg" viewBox="0 0 800 400" width="800" height="400">
  <style>
    @keyframes drawLine {
      to { stroke-dashoffset: 0; }
    }
    @keyframes fadeInPoint {
      from { opacity: 0; }
      to { opacity: 1; }
    }
    .data-line-0 {
      stroke-dasharray: 1167;
      stroke-dashoffset: 1167;
      animation: drawLine 2s ease-out forwards;
    }
    .data-line-1 {
      stroke-dasharray: 1065;
      stroke-dashoffset: 1065;
      animation: drawLine 2s ease-out forwards;
    }
    .data-line-2 {
      stroke-dasharray: 1065;
      stroke-dashoffset: 1065;
      animation: drawLine 2s ease-out forwards;
    }
    .data-line-3 {
      stroke-dasharray: 1065;
      stroke-dashoffset: 1065;
      animation: drawLine 2s ease-out forwards;
    }
    .data-line-4 {
      stroke-dasharray: 1065;
      stroke-dashoffset: 1065;
      animation: drawLine 2s ease-out forwards;
    }
    .data-line-5 {
      stroke-dasharray: 1065;
      stroke-dashoffset: 1065;
      animation: drawLine 2s ease-out forwards;
    }
    .data-line-6 {
      stroke-dasharray: 1065;
      stroke-dashoffset: 1065;
      animation: drawLine 2s ease-out forwards;
    }
    .data-line-7 {
      stroke-dasharray: 1065;
      stroke-dashoffset: 1065;
      animation: drawLine 2s ease-out forwards;
    }
    .data-line-8 {
      stroke-dasharray: 1065;
      stroke-dashoffset: 1065;
      animation: drawLine 2s ease-out forwards;
    }
    .data-line-9 {
      stroke-dasharray: 1065;
      stroke-dashoffset: 1065;
      animation: drawLine 2s ease-out forwards;
    }
    .data-point {
      opacity: 0;
      animation: fadeInPoint 0.5s ease-out forwards;
    }
    .chart-bg { fill: #fff; }
    .chart-text { fill: #24292e; }
    .chart-muted { fill: #6a737d; }
    .chart-grid { stroke: #eee; }
    .chart-axis { stroke: #6a737d; }
    @media (prefers-color-scheme: dark) {
      .chart-bg { fill: #0d1117; }
      .chart-text { fill: #e6edf3; }
      .chart-muted { fill: #8b949e; }
      .chart-grid { stroke: #21262d; }
      .chart-axis { stroke: #8b949e; }
    }
  </style>
  <rect width="800" height="400" class="chart-bg" />
  <text x="400" y="14" text-anchor="middle" class="chart-text" font-size="16" font-weight="bold" font-family="-apple-system, BlinkMacSystemFont, 'Segoe UI', Helvetica, Arial, sans-serif">Top Repositories</text>
  <g class="legend">
    <rect x="-200" y="31" width="12" height="3" fill="#dfb317" />
    <line x1="-200" y1="32.5" x2="-188" y2="32.5" stroke="#dfb317" stroke-width="2" />
    <text x="-184" y="36" class="chart-text" font-size="10" font-family="-apple-system, BlinkMacSystemFont, 'Segoe UI', Helvetica, Arial, sans-serif">SteamGridDB/steam-rom-manager</text>
    <rect x="-80" y="31" width="12" height="3" fill="#28a745" />
    <line x1="-80" y1="32.5" x2="-68" y2="32.5" stroke="#28a745" stroke-width="2" />
    <text x="-64" y="36" class="chart-text" font-size="10" font-family="-apple-system, BlinkMacSystemFont, 'Segoe UI', Helvetica, Arial, sans-serif">cbartondock/node-binary-vdf</text>
    <rect x="40" y="31" width="12" height="3" fill="#e74c3c" />
    <line x1="40" y1="32.5" x2="52" y2="32.5" stroke="#e74c3c" stroke-width="2" />
    <text x="56" y="36" class="chart-text" font-size="10" font-family="-apple-system, BlinkMacSystemFont, 'Segoe UI', Helvetica, Arial, sans-serif">cbartondock/PortableEnv</text>
    <rect x="160" y="31" width="12" height="3" fill="#3498db" />
    <line x1="160" y1="32.5" x2="172" y2="32.5" stroke="#3498db" stroke-width="2" />
    <text x="176" y="36" class="chart-text" font-size="10" font-family="-apple-system, BlinkMacSystemFont, 'Segoe UI', Helvetica, Arial, sans-serif">cbartondock/Windwaker</text>
    <rect x="280" y="31" width="12" height="3" fill="#9b59b6" />
    <line x1="280" y1="32.5" x2="292" y2="32.5" stroke="#9b59b6" stroke-width="2" />
    <text x="296" y="36" class="chart-text" font-size="10" font-family="-apple-system, BlinkMacSystemFont, 'Segoe UI', Helvetica, Arial, sans-serif">cbartondock/chaos</text>
    <rect x="400" y="31" width="12" height="3" fill="#e67e22" />
    <line x1="400" y1="32.5" x2="412" y2="32.5" stroke="#e67e22" stroke-width="2" />
    <text x="416" y="36" class="chart-text" font-size="10" font-family="-apple-system, BlinkMacSystemFont, 'Segoe UI', Helvetica, Arial, sans-serif">cbartondock/riemann-sphere</text>
    <rect x="520" y="31" width="12" height="3" fill="#1abc9c" />
    <line x1="520" y1="32.5" x2="532" y2="32.5" stroke="#1abc9c" stroke-width="2" />
    <text x="536" y="36" class="chart-text" font-size="10" font-family="-apple-system, BlinkMacSystemFont, 'Segoe UI', Helvetica, Arial, sans-serif">cbartondock/tak-concept-art</text>
    <rect x="640" y="31" width="12" height="3" fill="#e84393" />
    <line x1="640" y1="32.5" x2="652" y2="32.5" stroke="#e84393" stroke-width="2" />
    <text x="656" y="36" class="chart-text" font-size="10" font-family="-apple-system, BlinkMacSystemFont, 'Segoe UI', Helvetica, Arial, sans-serif">stephan-x-liu/sublimechat</text>
    <rect x="760" y="31" width="12" height="3" fill="#795548" />
    <line x1="760" y1="32.5" x2="772" y2="32.5" stroke="#795548" stroke-width="2" />
    <text x="776" y="36" class="chart-text" font-size="10" font-family="-apple-system, BlinkMacSystemFont, 'Segoe UI', Helvetica, Arial, sans-serif">cbartondock/academicpages.github.io</text>
    <rect x="880" y="31" width="12" height="3" fill="#00bcd4" />
    <line x1="880" y1="32.5" x2="892" y2="32.5" stroke="#00bcd4" stroke-width="2" />
    <text x="896" y="36" class="chart-text" font-size="10" font-family="-apple-system, BlinkMacSystemFont, 'Segoe UI', Helvetica, Arial, sans-serif">cbartondock/discordBadge</text>
  </g>
  <g class="grid">
    <line x1="60" y1="350" x2="770" y2="350" class="chart-grid" stroke-opacity="0.3" />
    <text x="52" y="354" text-anchor="end" class="chart-muted" font-size="11" font-family="-apple-system, BlinkMacSystemFont, 'Segoe UI', Helvetica, Arial, sans-serif">0</text>
    <line x1="60" y1="295.05494505494505" x2="770" y2="295.05494505494505" class="chart-grid" stroke-opacity="0.3" />
    <text x="52" y="299.05494505494505" text-anchor="end" class="chart-muted" font-size="11" font-family="-apple-system, BlinkMacSystemFont, 'Segoe UI', Helvetica, Arial, sans-serif">500</text>
    <line x1="60" y1="240.1098901098901" x2="770" y2="240.1098901098901" class="chart-grid" stroke-opacity="0.3" />
    <text x="52" y="244.1098901098901" text-anchor="end" class="chart-muted" font-size="11" font-family="-apple-system, BlinkMacSystemFont, 'Segoe UI', Helvetica, Arial, sans-serif">1K</text>
    <line x1="60" y1="185.16483516483515" x2="770" y2="185.16483516483515" class="chart-grid" stroke-opacity="0.3" />
    <text x="52" y="189.16483516483515" text-anchor="end" class="chart-muted" font-size="11" font-family="-apple-system, BlinkMacSystemFont, 'Segoe UI', Helvetica, Arial, sans-serif">1.5K</text>
    <line x1="60" y1="130.21978021978023" x2="770" y2="130.21978021978023" class="chart-grid" stroke-opacity="0.3" />
    <text x="52" y="134.21978021978023" text-anchor="end" class="chart-muted" font-size="11" font-family="-apple-system, BlinkMacSystemFont, 'Segoe UI', Helvetica, Arial, sans-serif">2K</text>
    <line x1="60" y1="75.27472527472531" x2="770" y2="75.27472527472531" class="chart-grid" stroke-opacity="0.3" />
    <text x="52" y="79.27472527472531" text-anchor="end" class="chart-muted" font-size="11" font-family="-apple-system, BlinkMacSystemFont, 'Segoe UI', Helvetica, Arial, sans-serif">2.5K</text>
  </g>
  <g class="milestones">
    
  </g>
  <g class="x-axis">
    <text x="60" y="370" text-anchor="middle" class="chart-muted" font-size="11" font-family="-apple-system, BlinkMacSystemFont, 'Segoe UI', Helvetica, Arial, sans-serif">2017</text>
    <text x="133.44827586206895" y="370" text-anchor="middle" class="chart-muted" font-size="11" font-family="-apple-system, BlinkMacSystemFont, 'Segoe UI', Helvetica, Arial, sans-serif">2018</text>
    <text x="206.89655172413794" y="370" text-anchor="middle" class="chart-muted" font-size="11" font-family="-apple-system, BlinkMacSystemFont, 'Segoe UI', Helvetica, Arial, sans-serif">2019</text>
    <text x="280.34482758620686" y="370" text-anchor="middle" class="chart-muted" font-size="11" font-family="-apple-system, BlinkMacSystemFont, 'Segoe UI', Helvetica, Arial, sans-serif">2020</text>
    <text x="353.7931034482759" y="370" text-anchor="middle" class="chart-muted" font-size="11" font-family="-apple-system, BlinkMacSystemFont, 'Segoe UI', Helvetica, Arial, sans-serif">2021</text>
    <text x="427.2413793103448" y="370" text-anchor="middle" class="chart-muted" font-size="11" font-family="-apple-system, BlinkMacSystemFont, 'Segoe UI', Helvetica, Arial, sans-serif">2022</text>
    <text x="500.6896551724138" y="370" text-anchor="middle" class="chart-muted" font-size="11" font-family="-apple-system, BlinkMacSystemFont, 'Segoe UI', Helvetica, Arial, sans-serif">2023</text>
    <text x="574.1379310344828" y="370" text-anchor="middle" class="chart-muted" font-size="11" font-family="-apple-system, BlinkMacSystemFont, 'Segoe UI', Helvetica, Arial, sans-serif">2024</text>
    <text x="672.0689655172414" y="370" text-anchor="middle" class="chart-muted" font-size="11" font-family="-apple-system, BlinkMacSystemFont, 'Segoe UI', Helvetica, Arial, sans-serif">2025</text>
    <text x="745.5172413793103" y="370" text-anchor="middle" class="chart-muted" font-size="11" font-family="-apple-system, BlinkMacSystemFont, 'Segoe UI', Helvetica, Arial, sans-serif">2026</text>
  </g>
  <line x1="60" y1="50" x2="60" y2="350" class="chart-axis" stroke-width="1" />
  <line x1="60" y1="350" x2="770" y2="350" class="chart-axis" stroke-width="1" />
  
  
  
  
  
  
  
  
  
  
  <path d="M60,349.8901098901099 C68.16091954022988,347.32600732600736 76.32183908045977,344.13919413919416 84.48275862068965,342.1978021978022 C92.64367816091954,340.2564102564103 100.80459770114942,339.50549450549454 108.9655172413793,338.24175824175825 C117.12643678160919,336.97802197802196 125.28735632183907,335.7692307692308 133.44827586206895,334.61538461538464 C141.60919540229884,333.4615384615385 149.77011494252872,332.61904761904765 157.9310344827586,331.31868131868134 C166.0919540229885,330.01831501831504 174.2528735632184,328.1501831501831 182.41379310344828,326.8131868131868 C190.57471264367817,325.4761904761905 198.73563218390805,324.26739926739924 206.89655172413794,323.2967032967033 C215.05747126436782,322.32600732600736 223.2183908045977,321.7216117216117 231.3793103448276,320.989010989011 C239.54022988505747,320.2564102564103 247.70114942528735,319.6336996336997 255.86206896551724,318.9010989010989 C264.0229885057471,318.1684981684982 272.183908045977,317.9304029304029 280.34482758620686,316.5934065934066 C288.50574712643675,315.2564102564103 296.6666666666667,312.14285714285717 304.82758620689657,310.8791208791209 C312.98850574712645,309.61538461538464 321.14942528735634,309.76190476190476 329.3103448275862,309.010989010989 C337.4712643678161,308.2600732600733 345.632183908046,307.3626373626374 353.7931034482759,306.3736263736264 C361.95402298850576,305.3846153846154 370.11494252873564,304.76190476190476 378.2758620689655,303.0769230769231 C386.4367816091954,301.39194139194143 394.5977011494253,299.21245421245425 402.7586206896552,296.2637362637363 C410.91954022988506,293.31501831501834 419.08045977011494,291.2271062271062 427.2413793103448,285.38461538461536 C435.4022988505747,279.5421245421245 443.5632183908046,268.69963369963375 451.7241379310345,261.20879120879124 C459.88505747126436,253.71794871794876 468.04597701149424,246.55677655677658 476.2068965517241,240.43956043956047 C484.367816091954,234.32234432234435 492.5287356321839,230.16483516483515 500.6896551724138,224.50549450549448 C508.85057471264366,218.8461538461538 517.0114942528736,211.55677655677655 525.1724137931035,206.48351648351647 C533.3333333333334,201.4102564102564 541.4942528735633,198.47985347985346 549.6551724137931,194.06593406593404 C557.816091954023,189.65201465201463 565.9770114942529,184.41391941391942 574.1379310344828,180 C582.2988505747127,175.58608058608058 590.4597701149426,171.73992673992677 598.6206896551724,167.5824175824176 C606.7816091954023,163.42490842490844 614.9425287356322,159.17582417582418 623.1034482758621,155.05494505494505 C631.264367816092,150.93406593406593 639.4252873563219,146.95970695970695 647.5862068965517,142.85714285714286 C655.7471264367816,138.75457875457877 663.9080459770115,134.2490842490843 672.0689655172414,130.43956043956047 C680.2298850574713,126.63003663003666 688.3908045977012,123.79120879120877 696.551724137931,119.99999999999997 C704.7126436781609,116.20879120879117 712.8735632183908,112.28937728937727 721.0344827586207,107.69230769230768 C729.1954022988506,103.09523809523809 737.3563218390805,97.47252747252747 745.5172413793103,92.41758241758242 C753.6781609195402,87.36263736263737 761.8390804597701,82.3809523809524 770,77.36263736263737" fill="none" stroke="#dfb317" stroke-width="2.5" class="data-line-0" />
  <path d="M60,349.6703296703297 C68.16091954022988,349.6703296703297 76.32183908045977,349.6703296703297 84.48275862068965,349.6703296703297 C92.64367816091954,349.6703296703297 100.80459770114942,349.6703296703297 108.9655172413793,349.6703296703297 C117.12643678160919,349.6703296703297 125.28735632183907,349.6703296703297 133.44827586206895,349.6703296703297 C141.60919540229884,349.6703296703297 149.77011494252872,349.6703296703297 157.9310344827586,349.6703296703297 C166.0919540229885,349.6703296703297 174.2528735632184,349.6703296703297 182.41379310344828,349.6703296703297 C190.57471264367817,349.6703296703297 198.73563218390805,349.6703296703297 206.89655172413794,349.6703296703297 C215.05747126436782,349.6703296703297 223.2183908045977,349.6703296703297 231.3793103448276,349.6703296703297 C239.54022988505747,349.6703296703297 247.70114942528735,349.6703296703297 255.86206896551724,349.6703296703297 C264.0229885057471,349.6703296703297 272.183908045977,349.6703296703297 280.34482758620686,349.6703296703297 C288.50574712643675,349.6703296703297 296.6666666666667,349.6703296703297 304.82758620689657,349.6703296703297 C312.98850574712645,349.6703296703297 321.14942528735634,349.6703296703297 329.3103448275862,349.6703296703297 C337.4712643678161,349.6703296703297 345.632183908046,349.6703296703297 353.7931034482759,349.6703296703297 C361.95402298850576,349.6703296703297 370.11494252873564,349.6703296703297 378.2758620689655,349.6703296703297 C386.4367816091954,349.6703296703297 394.5977011494253,349.6703296703297 402.7586206896552,349.6703296703297 C410.91954022988506,349.6703296703297 419.08045977011494,349.6703296703297 427.2413793103448,349.6703296703297 C435.4022988505747,349.6703296703297 443.5632183908046,349.6703296703297 451.7241379310345,349.6703296703297 C459.88505747126436,349.6703296703297 468.04597701149424,349.6703296703297 476.2068965517241,349.6703296703297 C484.367816091954,349.6703296703297 492.5287356321839,349.6703296703297 500.6896551724138,349.6703296703297 C508.85057471264366,349.6703296703297 517.0114942528736,349.6703296703297 525.1724137931035,349.6703296703297 C533.3333333333334,349.6703296703297 541.4942528735633,349.6703296703297 549.6551724137931,349.6703296703297 C557.816091954023,349.6703296703297 565.9770114942529,349.6703296703297 574.1379310344828,349.6703296703297 C582.2988505747127,349.6703296703297 590.4597701149426,349.6703296703297 598.6206896551724,349.6703296703297 C606.7816091954023,349.6703296703297 614.9425287356322,349.6703296703297 623.1034482758621,349.6703296703297 C631.264367816092,349.6703296703297 639.4252873563219,349.6703296703297 647.5862068965517,349.6703296703297 C655.7471264367816,349.6703296703297 663.9080459770115,349.6703296703297 672.0689655172414,349.6703296703297 C680.2298850574713,349.6703296703297 688.3908045977012,349.6703296703297 696.551724137931,349.6703296703297 C704.7126436781609,349.6703296703297 712.8735632183908,349.6703296703297 721.0344827586207,349.6703296703297 C729.1954022988506,349.6703296703297 737.3563218390805,349.6703296703297 745.5172413793103,349.6703296703297 C753.6781609195402,349.6703296703297 761.8390804597701,349.6703296703297 770,349.6703296703297" fill="none" stroke="#28a745" stroke-width="2.5" class="data-line-1" />
  <path d="M60,349.7802197802198 C68.16091954022988,349.7802197802198 76.32183908045977,349.7802197802198 84.48275862068965,349.7802197802198 C92.64367816091954,349.7802197802198 100.80459770114942,349.7802197802198 108.9655172413793,349.7802197802198 C117.12643678160919,349.7802197802198 125.28735632183907,349.7802197802198 133.44827586206895,349.7802197802198 C141.60919540229884,349.7802197802198 149.77011494252872,349.7802197802198 157.9310344827586,349.7802197802198 C166.0919540229885,349.7802197802198 174.2528735632184,349.7802197802198 182.41379310344828,349.7802197802198 C190.57471264367817,349.7802197802198 198.73563218390805,349.7802197802198 206.89655172413794,349.7802197802198 C215.05747126436782,349.7802197802198 223.2183908045977,349.7802197802198 231.3793103448276,349.7802197802198 C239.54022988505747,349.7802197802198 247.70114942528735,349.7802197802198 255.86206896551724,349.7802197802198 C264.0229885057471,349.7802197802198 272.183908045977,349.7802197802198 280.34482758620686,349.7802197802198 C288.50574712643675,349.7802197802198 296.6666666666667,349.7802197802198 304.82758620689657,349.7802197802198 C312.98850574712645,349.7802197802198 321.14942528735634,349.7802197802198 329.3103448275862,349.7802197802198 C337.4712643678161,349.7802197802198 345.632183908046,349.7802197802198 353.7931034482759,349.7802197802198 C361.95402298850576,349.7802197802198 370.11494252873564,349.7802197802198 378.2758620689655,349.7802197802198 C386.4367816091954,349.7802197802198 394.5977011494253,349.7802197802198 402.7586206896552,349.7802197802198 C410.91954022988506,349.7802197802198 419.08045977011494,349.7802197802198 427.2413793103448,349.7802197802198 C435.4022988505747,349.7802197802198 443.5632183908046,349.7802197802198 451.7241379310345,349.7802197802198 C459.88505747126436,349.7802197802198 468.04597701149424,349.7802197802198 476.2068965517241,349.7802197802198 C484.367816091954,349.7802197802198 492.5287356321839,349.7802197802198 500.6896551724138,349.7802197802198 C508.85057471264366,349.7802197802198 517.0114942528736,349.7802197802198 525.1724137931035,349.7802197802198 C533.3333333333334,349.7802197802198 541.4942528735633,349.7802197802198 549.6551724137931,349.7802197802198 C557.816091954023,349.7802197802198 565.9770114942529,349.7802197802198 574.1379310344828,349.7802197802198 C582.2988505747127,349.7802197802198 590.4597701149426,349.7802197802198 598.6206896551724,349.7802197802198 C606.7816091954023,349.7802197802198 614.9425287356322,349.7802197802198 623.1034482758621,349.7802197802198 C631.264367816092,349.7802197802198 639.4252873563219,349.7802197802198 647.5862068965517,349.7802197802198 C655.7471264367816,349.7802197802198 663.9080459770115,349.7802197802198 672.0689655172414,349.7802197802198 C680.2298850574713,349.7802197802198 688.3908045977012,349.7802197802198 696.551724137931,349.7802197802198 C704.7126436781609,349.7802197802198 712.8735632183908,349.7802197802198 721.0344827586207,349.7802197802198 C729.1954022988506,349.7802197802198 737.3563218390805,349.7802197802198 745.5172413793103,349.7802197802198 C753.6781609195402,349.7802197802198 761.8390804597701,349.7802197802198 770,349.7802197802198" fill="none" stroke="#e74c3c" stroke-width="2.5" class="data-line-2" />
  <path d="M60,349.7802197802198 C68.16091954022988,349.7802197802198 76.32183908045977,349.7802197802198 84.48275862068965,349.7802197802198 C92.64367816091954,349.7802197802198 100.80459770114942,349.7802197802198 108.9655172413793,349.7802197802198 C117.12643678160919,349.7802197802198 125.28735632183907,349.7802197802198 133.44827586206895,349.7802197802198 C141.60919540229884,349.7802197802198 149.77011494252872,349.7802197802198 157.9310344827586,349.7802197802198 C166.0919540229885,349.7802197802198 174.2528735632184,349.7802197802198 182.41379310344828,349.7802197802198 C190.57471264367817,349.7802197802198 198.73563218390805,349.7802197802198 206.89655172413794,349.7802197802198 C215.05747126436782,349.7802197802198 223.2183908045977,349.7802197802198 231.3793103448276,349.7802197802198 C239.54022988505747,349.7802197802198 247.70114942528735,349.7802197802198 255.86206896551724,349.7802197802198 C264.0229885057471,349.7802197802198 272.183908045977,349.7802197802198 280.34482758620686,349.7802197802198 C288.50574712643675,349.7802197802198 296.6666666666667,349.7802197802198 304.82758620689657,349.7802197802198 C312.98850574712645,349.7802197802198 321.14942528735634,349.7802197802198 329.3103448275862,349.7802197802198 C337.4712643678161,349.7802197802198 345.632183908046,349.7802197802198 353.7931034482759,349.7802197802198 C361.95402298850576,349.7802197802198 370.11494252873564,349.7802197802198 378.2758620689655,349.7802197802198 C386.4367816091954,349.7802197802198 394.5977011494253,349.7802197802198 402.7586206896552,349.7802197802198 C410.91954022988506,349.7802197802198 419.08045977011494,349.7802197802198 427.2413793103448,349.7802197802198 C435.4022988505747,349.7802197802198 443.5632183908046,349.7802197802198 451.7241379310345,349.7802197802198 C459.88505747126436,349.7802197802198 468.04597701149424,349.7802197802198 476.2068965517241,349.7802197802198 C484.367816091954,349.7802197802198 492.5287356321839,349.7802197802198 500.6896551724138,349.7802197802198 C508.85057471264366,349.7802197802198 517.0114942528736,349.7802197802198 525.1724137931035,349.7802197802198 C533.3333333333334,349.7802197802198 541.4942528735633,349.7802197802198 549.6551724137931,349.7802197802198 C557.816091954023,349.7802197802198 565.9770114942529,349.7802197802198 574.1379310344828,349.7802197802198 C582.2988505747127,349.7802197802198 590.4597701149426,349.7802197802198 598.6206896551724,349.7802197802198 C606.7816091954023,349.7802197802198 614.9425287356322,349.7802197802198 623.1034482758621,349.7802197802198 C631.264367816092,349.7802197802198 639.4252873563219,349.7802197802198 647.5862068965517,349.7802197802198 C655.7471264367816,349.7802197802198 663.9080459770115,349.7802197802198 672.0689655172414,349.7802197802198 C680.2298850574713,349.7802197802198 688.3908045977012,349.7802197802198 696.551724137931,349.7802197802198 C704.7126436781609,349.7802197802198 712.8735632183908,349.7802197802198 721.0344827586207,349.7802197802198 C729.1954022988506,349.7802197802198 737.3563218390805,349.7802197802198 745.5172413793103,349.7802197802198 C753.6781609195402,349.7802197802198 761.8390804597701,349.7802197802198 770,349.7802197802198" fill="none" stroke="#3498db" stroke-width="2.5" class="data-line-3" />
  <path d="M60,349.8901098901099 C68.16091954022988,349.8901098901099 76.32183908045977,349.8901098901099 84.48275862068965,349.8901098901099 C92.64367816091954,349.8901098901099 100.80459770114942,349.8901098901099 108.9655172413793,349.8901098901099 C117.12643678160919,349.8901098901099 125.28735632183907,349.8901098901099 133.44827586206895,349.8901098901099 C141.60919540229884,349.8901098901099 149.77011494252872,349.8901098901099 157.9310344827586,349.8901098901099 C166.0919540229885,349.8901098901099 174.2528735632184,349.8901098901099 182.41379310344828,349.8901098901099 C190.57471264367817,349.8901098901099 198.73563218390805,349.8901098901099 206.89655172413794,349.8901098901099 C215.05747126436782,349.8901098901099 223.2183908045977,349.8901098901099 231.3793103448276,349.8901098901099 C239.54022988505747,349.8901098901099 247.70114942528735,349.8901098901099 255.86206896551724,349.8901098901099 C264.0229885057471,349.8901098901099 272.183908045977,349.8901098901099 280.34482758620686,349.8901098901099 C288.50574712643675,349.8901098901099 296.6666666666667,349.8901098901099 304.82758620689657,349.8901098901099 C312.98850574712645,349.8901098901099 321.14942528735634,349.8901098901099 329.3103448275862,349.8901098901099 C337.4712643678161,349.8901098901099 345.632183908046,349.8901098901099 353.7931034482759,349.8901098901099 C361.95402298850576,349.8901098901099 370.11494252873564,349.8901098901099 378.2758620689655,349.8901098901099 C386.4367816091954,349.8901098901099 394.5977011494253,349.8901098901099 402.7586206896552,349.8901098901099 C410.91954022988506,349.8901098901099 419.08045977011494,349.8901098901099 427.2413793103448,349.8901098901099 C435.4022988505747,349.8901098901099 443.5632183908046,349.8901098901099 451.7241379310345,349.8901098901099 C459.88505747126436,349.8901098901099 468.04597701149424,349.8901098901099 476.2068965517241,349.8901098901099 C484.367816091954,349.8901098901099 492.5287356321839,349.8901098901099 500.6896551724138,349.8901098901099 C508.85057471264366,349.8901098901099 517.0114942528736,349.8901098901099 525.1724137931035,349.8901098901099 C533.3333333333334,349.8901098901099 541.4942528735633,349.8901098901099 549.6551724137931,349.8901098901099 C557.816091954023,349.8901098901099 565.9770114942529,349.8901098901099 574.1379310344828,349.8901098901099 C582.2988505747127,349.8901098901099 590.4597701149426,349.8901098901099 598.6206896551724,349.8901098901099 C606.7816091954023,349.8901098901099 614.9425287356322,349.8901098901099 623.1034482758621,349.8901098901099 C631.264367816092,349.8901098901099 639.4252873563219,349.8901098901099 647.5862068965517,349.8901098901099 C655.7471264367816,349.8901098901099 663.9080459770115,349.8901098901099 672.0689655172414,349.8901098901099 C680.2298850574713,349.8901098901099 688.3908045977012,349.8901098901099 696.551724137931,349.8901098901099 C704.7126436781609,349.8901098901099 712.8735632183908,349.8901098901099 721.0344827586207,349.8901098901099 C729.1954022988506,349.8901098901099 737.3563218390805,349.8901098901099 745.5172413793103,349.8901098901099 C753.6781609195402,349.8901098901099 761.8390804597701,349.8901098901099 770,349.8901098901099" fill="none" stroke="#9b59b6" stroke-width="2.5" class="data-line-4" />
  <path d="M60,349.8901098901099 C68.16091954022988,349.8901098901099 76.32183908045977,349.8901098901099 84.48275862068965,349.8901098901099 C92.64367816091954,349.8901098901099 100.80459770114942,349.8901098901099 108.9655172413793,349.8901098901099 C117.12643678160919,349.8901098901099 125.28735632183907,349.8901098901099 133.44827586206895,349.8901098901099 C141.60919540229884,349.8901098901099 149.77011494252872,349.8901098901099 157.9310344827586,349.8901098901099 C166.0919540229885,349.8901098901099 174.2528735632184,349.8901098901099 182.41379310344828,349.8901098901099 C190.57471264367817,349.8901098901099 198.73563218390805,349.8901098901099 206.89655172413794,349.8901098901099 C215.05747126436782,349.8901098901099 223.2183908045977,349.8901098901099 231.3793103448276,349.8901098901099 C239.54022988505747,349.8901098901099 247.70114942528735,349.8901098901099 255.86206896551724,349.8901098901099 C264.0229885057471,349.8901098901099 272.183908045977,349.8901098901099 280.34482758620686,349.8901098901099 C288.50574712643675,349.8901098901099 296.6666666666667,349.8901098901099 304.82758620689657,349.8901098901099 C312.98850574712645,349.8901098901099 321.14942528735634,349.8901098901099 329.3103448275862,349.8901098901099 C337.4712643678161,349.8901098901099 345.632183908046,349.8901098901099 353.7931034482759,349.8901098901099 C361.95402298850576,349.8901098901099 370.11494252873564,349.8901098901099 378.2758620689655,349.8901098901099 C386.4367816091954,349.8901098901099 394.5977011494253,349.8901098901099 402.7586206896552,349.8901098901099 C410.91954022988506,349.8901098901099 419.08045977011494,349.8901098901099 427.2413793103448,349.8901098901099 C435.4022988505747,349.8901098901099 443.5632183908046,349.8901098901099 451.7241379310345,349.8901098901099 C459.88505747126436,349.8901098901099 468.04597701149424,349.8901098901099 476.2068965517241,349.8901098901099 C484.367816091954,349.8901098901099 492.5287356321839,349.8901098901099 500.6896551724138,349.8901098901099 C508.85057471264366,349.8901098901099 517.0114942528736,349.8901098901099 525.1724137931035,349.8901098901099 C533.3333333333334,349.8901098901099 541.4942528735633,349.8901098901099 549.6551724137931,349.8901098901099 C557.816091954023,349.8901098901099 565.9770114942529,349.8901098901099 574.1379310344828,349.8901098901099 C582.2988505747127,349.8901098901099 590.4597701149426,349.8901098901099 598.6206896551724,349.8901098901099 C606.7816091954023,349.8901098901099 614.9425287356322,349.8901098901099 623.1034482758621,349.8901098901099 C631.264367816092,349.8901098901099 639.4252873563219,349.8901098901099 647.5862068965517,349.8901098901099 C655.7471264367816,349.8901098901099 663.9080459770115,349.8901098901099 672.0689655172414,349.8901098901099 C680.2298850574713,349.8901098901099 688.3908045977012,349.8901098901099 696.551724137931,349.8901098901099 C704.7126436781609,349.8901098901099 712.8735632183908,349.8901098901099 721.0344827586207,349.8901098901099 C729.1954022988506,349.8901098901099 737.3563218390805,349.8901098901099 745.5172413793103,349.8901098901099 C753.6781609195402,349.8901098901099 761.8390804597701,349.8901098901099 770,349.8901098901099" fill="none" stroke="#e67e22" stroke-width="2.5" class="data-line-5" />
  <path d="M60,349.8901098901099 C68.16091954022988,349.8901098901099 76.32183908045977,349.8901098901099 84.48275862068965,349.8901098901099 C92.64367816091954,349.8901098901099 100.80459770114942,349.8901098901099 108.9655172413793,349.8901098901099 C117.12643678160919,349.8901098901099 125.28735632183907,349.8901098901099 133.44827586206895,349.8901098901099 C141.60919540229884,349.8901098901099 149.77011494252872,349.8901098901099 157.9310344827586,349.8901098901099 C166.0919540229885,349.8901098901099 174.2528735632184,349.8901098901099 182.41379310344828,349.8901098901099 C190.57471264367817,349.8901098901099 198.73563218390805,349.8901098901099 206.89655172413794,349.8901098901099 C215.05747126436782,349.8901098901099 223.2183908045977,349.8901098901099 231.3793103448276,349.8901098901099 C239.54022988505747,349.8901098901099 247.70114942528735,349.8901098901099 255.86206896551724,349.8901098901099 C264.0229885057471,349.8901098901099 272.183908045977,349.8901098901099 280.34482758620686,349.8901098901099 C288.50574712643675,349.8901098901099 296.6666666666667,349.8901098901099 304.82758620689657,349.8901098901099 C312.98850574712645,349.8901098901099 321.14942528735634,349.8901098901099 329.3103448275862,349.8901098901099 C337.4712643678161,349.8901098901099 345.632183908046,349.8901098901099 353.7931034482759,349.8901098901099 C361.95402298850576,349.8901098901099 370.11494252873564,349.8901098901099 378.2758620689655,349.8901098901099 C386.4367816091954,349.8901098901099 394.5977011494253,349.8901098901099 402.7586206896552,349.8901098901099 C410.91954022988506,349.8901098901099 419.08045977011494,349.8901098901099 427.2413793103448,349.8901098901099 C435.4022988505747,349.8901098901099 443.5632183908046,349.8901098901099 451.7241379310345,349.8901098901099 C459.88505747126436,349.8901098901099 468.04597701149424,349.8901098901099 476.2068965517241,349.8901098901099 C484.367816091954,349.8901098901099 492.5287356321839,349.8901098901099 500.6896551724138,349.8901098901099 C508.85057471264366,349.8901098901099 517.0114942528736,349.8901098901099 525.1724137931035,349.8901098901099 C533.3333333333334,349.8901098901099 541.4942528735633,349.8901098901099 549.6551724137931,349.8901098901099 C557.816091954023,349.8901098901099 565.9770114942529,349.8901098901099 574.1379310344828,349.8901098901099 C582.2988505747127,349.8901098901099 590.4597701149426,349.8901098901099 598.6206896551724,349.8901098901099 C606.7816091954023,349.8901098901099 614.9425287356322,349.8901098901099 623.1034482758621,349.8901098901099 C631.264367816092,349.8901098901099 639.4252873563219,349.8901098901099 647.5862068965517,349.8901098901099 C655.7471264367816,349.8901098901099 663.9080459770115,349.8901098901099 672.0689655172414,349.8901098901099 C680.2298850574713,349.8901098901099 688.3908045977012,349.8901098901099 696.551724137931,349.8901098901099 C704.7126436781609,349.8901098901099 712.8735632183908,349.8901098901099 721.0344827586207,349.8901098901099 C729.1954022988506,349.8901098901099 737.3563218390805,349.8901098901099 745.5172413793103,349.8901098901099 C753.6781609195402,349.8901098901099 761.8390804597701,349.8901098901099 770,349.8901098901099" fill="none" stroke="#1abc9c" stroke-width="2.5" class="data-line-6" />
  <path d="M60,349.8901098901099 C68.16091954022988,349.8901098901099 76.32183908045977,349.8901098901099 84.48275862068965,349.8901098901099 C92.64367816091954,349.8901098901099 100.80459770114942,349.8901098901099 108.9655172413793,349.8901098901099 C117.12643678160919,349.8901098901099 125.28735632183907,349.8901098901099 133.44827586206895,349.8901098901099 C141.60919540229884,349.8901098901099 149.77011494252872,349.8901098901099 157.9310344827586,349.8901098901099 C166.0919540229885,349.8901098901099 174.2528735632184,349.8901098901099 182.41379310344828,349.8901098901099 C190.57471264367817,349.8901098901099 198.73563218390805,349.8901098901099 206.89655172413794,349.8901098901099 C215.05747126436782,349.8901098901099 223.2183908045977,349.8901098901099 231.3793103448276,349.8901098901099 C239.54022988505747,349.8901098901099 247.70114942528735,349.8901098901099 255.86206896551724,349.8901098901099 C264.0229885057471,349.8901098901099 272.183908045977,349.8901098901099 280.34482758620686,349.8901098901099 C288.50574712643675,349.8901098901099 296.6666666666667,349.8901098901099 304.82758620689657,349.8901098901099 C312.98850574712645,349.8901098901099 321.14942528735634,349.8901098901099 329.3103448275862,349.8901098901099 C337.4712643678161,349.8901098901099 345.632183908046,349.8901098901099 353.7931034482759,349.8901098901099 C361.95402298850576,349.8901098901099 370.11494252873564,349.8901098901099 378.2758620689655,349.8901098901099 C386.4367816091954,349.8901098901099 394.5977011494253,349.8901098901099 402.7586206896552,349.8901098901099 C410.91954022988506,349.8901098901099 419.08045977011494,349.8901098901099 427.2413793103448,349.8901098901099 C435.4022988505747,349.8901098901099 443.5632183908046,349.8901098901099 451.7241379310345,349.8901098901099 C459.88505747126436,349.8901098901099 468.04597701149424,349.8901098901099 476.2068965517241,349.8901098901099 C484.367816091954,349.8901098901099 492.5287356321839,349.8901098901099 500.6896551724138,349.8901098901099 C508.85057471264366,349.8901098901099 517.0114942528736,349.8901098901099 525.1724137931035,349.8901098901099 C533.3333333333334,349.8901098901099 541.4942528735633,349.8901098901099 549.6551724137931,349.8901098901099 C557.816091954023,349.8901098901099 565.9770114942529,349.8901098901099 574.1379310344828,349.8901098901099 C582.2988505747127,349.8901098901099 590.4597701149426,349.8901098901099 598.6206896551724,349.8901098901099 C606.7816091954023,349.8901098901099 614.9425287356322,349.8901098901099 623.1034482758621,349.8901098901099 C631.264367816092,349.8901098901099 639.4252873563219,349.8901098901099 647.5862068965517,349.8901098901099 C655.7471264367816,349.8901098901099 663.9080459770115,349.8901098901099 672.0689655172414,349.8901098901099 C680.2298850574713,349.8901098901099 688.3908045977012,349.8901098901099 696.551724137931,349.8901098901099 C704.7126436781609,349.8901098901099 712.8735632183908,349.8901098901099 721.0344827586207,349.8901098901099 C729.1954022988506,349.8901098901099 737.3563218390805,349.8901098901099 745.5172413793103,349.8901098901099 C753.6781609195402,349.8901098901099 761.8390804597701,349.8901098901099 770,349.8901098901099" fill="none" stroke="#e84393" stroke-width="2.5" class="data-line-7" />
  <path d="M60,350 C68.16091954022988,350 76.32183908045977,350 84.48275862068965,350 C92.64367816091954,350 100.80459770114942,350 108.9655172413793,350 C117.12643678160919,350 125.28735632183907,350 133.44827586206895,350 C141.60919540229884,350 149.77011494252872,350 157.9310344827586,350 C166.0919540229885,350 174.2528735632184,350 182.41379310344828,350 C190.57471264367817,350 198.73563218390805,350 206.89655172413794,350 C215.05747126436782,350 223.2183908045977,350 231.3793103448276,350 C239.54022988505747,350 247.70114942528735,350 255.86206896551724,350 C264.0229885057471,350 272.183908045977,350 280.34482758620686,350 C288.50574712643675,350 296.6666666666667,350 304.82758620689657,350 C312.98850574712645,350 321.14942528735634,350 329.3103448275862,350 C337.4712643678161,350 345.632183908046,350 353.7931034482759,350 C361.95402298850576,350 370.11494252873564,350 378.2758620689655,350 C386.4367816091954,350 394.5977011494253,350 402.7586206896552,350 C410.91954022988506,350 419.08045977011494,350 427.2413793103448,350 C435.4022988505747,350 443.5632183908046,350 451.7241379310345,350 C459.88505747126436,350 468.04597701149424,350 476.2068965517241,350 C484.367816091954,350 492.5287356321839,350 500.6896551724138,350 C508.85057471264366,350 517.0114942528736,350 525.1724137931035,350 C533.3333333333334,350 541.4942528735633,350 549.6551724137931,350 C557.816091954023,350 565.9770114942529,350 574.1379310344828,350 C582.2988505747127,350 590.4597701149426,350 598.6206896551724,350 C606.7816091954023,350 614.9425287356322,350 623.1034482758621,350 C631.264367816092,350 639.4252873563219,350 647.5862068965517,350 C655.7471264367816,350 663.9080459770115,350 672.0689655172414,350 C680.2298850574713,350 688.3908045977012,350 696.551724137931,350 C704.7126436781609,350 712.8735632183908,350 721.0344827586207,350 C729.1954022988506,350 737.3563218390805,350 745.5172413793103,350 C753.6781609195402,350 761.8390804597701,350 770,350" fill="none" stroke="#795548" stroke-width="2.5" class="data-line-8" />
  <path d="M60,350 C68.16091954022988,350 76.32183908045977,350 84.48275862068965,350 C92.64367816091954,350 100.80459770114942,350 108.9655172413793,350 C117.12643678160919,350 125.28735632183907,350 133.44827586206895,350 C141.60919540229884,350 149.77011494252872,350 157.9310344827586,350 C166.0919540229885,350 174.2528735632184,350 182.41379310344828,350 C190.57471264367817,350 198.73563218390805,350 206.89655172413794,350 C215.05747126436782,350 223.2183908045977,350 231.3793103448276,350 C239.54022988505747,350 247.70114942528735,350 255.86206896551724,350 C264.0229885057471,350 272.183908045977,350 280.34482758620686,350 C288.50574712643675,350 296.6666666666667,350 304.82758620689657,350 C312.98850574712645,350 321.14942528735634,350 329.3103448275862,350 C337.4712643678161,350 345.632183908046,350 353.7931034482759,350 C361.95402298850576,350 370.11494252873564,350 378.2758620689655,350 C386.4367816091954,350 394.5977011494253,350 402.7586206896552,350 C410.91954022988506,350 419.08045977011494,350 427.2413793103448,350 C435.4022988505747,350 443.5632183908046,350 451.7241379310345,350 C459.88505747126436,350 468.04597701149424,350 476.2068965517241,350 C484.367816091954,350 492.5287356321839,350 500.6896551724138,350 C508.85057471264366,350 517.0114942528736,350 525.1724137931035,350 C533.3333333333334,350 541.4942528735633,350 549.6551724137931,350 C557.816091954023,350 565.9770114942529,350 574.1379310344828,350 C582.2988505747127,350 590.4597701149426,350 598.6206896551724,350 C606.7816091954023,350 614.9425287356322,350 623.1034482758621,350 C631.264367816092,350 639.4252873563219,350 647.5862068965517,350 C655.7471264367816,350 663.9080459770115,350 672.0689655172414,350 C680.2298850574713,350 688.3908045977012,350 696.551724137931,350 C704.7126436781609,350 712.8735632183908,350 721.0344827586207,350 C729.1954022988506,350 737.3563218390805,350 745.5172413793103,350 C753.6781609195402,350 761.8390804597701,350 770,350" fill="none" stroke="#00bcd4" stroke-width="2.5" class="data-line-9" />
  <g class="points">
    
    <circle cx="60" cy="349.8901098901099" r="4" fill="#dfb317" class="data-point" style="animation-delay: 1.50s" />
    <circle cx="84.48275862068965" cy="342.1978021978022" r="4" fill="#dfb317" class="data-point" style="animation-delay: 1.55s" />
    <circle cx="108.9655172413793" cy="338.24175824175825" r="4" fill="#dfb317" class="data-point" style="animation-delay: 1.60s" />
    <circle cx="133.44827586206895" cy="334.61538461538464" r="4" fill="#dfb317" class="data-point" style="animation-delay: 1.65s" />
    <circle cx="157.9310344827586" cy="331.31868131868134" r="4" fill="#dfb317" class="data-point" style="animation-delay: 1.70s" />
    <circle cx="182.41379310344828" cy="326.8131868131868" r="4" fill="#dfb317" class="data-point" style="animation-delay: 1.75s" />
    <circle cx="206.89655172413794" cy="323.2967032967033" r="4" fill="#dfb317" class="data-point" style="animation-delay: 1.80s" />
    <circle cx="231.3793103448276" cy="320.989010989011" r="4" fill="#dfb317" class="data-point" style="animation-delay: 1.85s" />
    <circle cx="255.86206896551724" cy="318.9010989010989" r="4" fill="#dfb317" class="data-point" style="animation-delay: 1.90s" />
    <circle cx="280.34482758620686" cy="316.5934065934066" r="4" fill="#dfb317" class="data-point" style="animation-delay: 1.95s" />
    <circle cx="304.82758620689657" cy="310.8791208791209" r="4" fill="#dfb317" class="data-point" style="animation-delay: 2.00s" />
    <circle cx="329.3103448275862" cy="309.010989010989" r="4" fill="#dfb317" class="data-point" style="animation-delay: 2.05s" />
    <circle cx="353.7931034482759" cy="306.3736263736264" r="4" fill="#dfb317" class="data-point" style="animation-delay: 2.10s" />
    <circle cx="378.2758620689655" cy="303.0769230769231" r="4" fill="#dfb317" class="data-point" style="animation-delay: 2.15s" />
    <circle cx="402.7586206896552" cy="296.2637362637363" r="4" fill="#dfb317" class="data-point" style="animation-delay: 2.20s" />
    <circle cx="427.2413793103448" cy="285.38461538461536" r="4" fill="#dfb317" class="data-point" style="animation-delay: 2.25s" />
    <circle cx="451.7241379310345" cy="261.20879120879124" r="4" fill="#dfb317" class="data-point" style="animation-delay: 2.30s" />
    <circle cx="476.2068965517241" cy="240.43956043956047" r="4" fill="#dfb317" class="data-point" style="animation-delay: 2.35s" />
    <circle cx="500.6896551724138" cy="224.50549450549448" r="4" fill="#dfb317" class="data-point" style="animation-delay: 2.40s" />
    <circle cx="525.1724137931035" cy="206.48351648351647" r="4" fill="#dfb317" class="data-point" style="animation-delay: 2.45s" />
    <circle cx="549.6551724137931" cy="194.06593406593404" r="4" fill="#dfb317" class="data-point" style="animation-delay: 2.50s" />
    <circle cx="574.1379310344828" cy="180" r="4" fill="#dfb317" class="data-point" style="animation-delay: 2.55s" />
    <circle cx="598.6206896551724" cy="167.5824175824176" r="4" fill="#dfb317" class="data-point" style="animation-delay: 2.60s" />
    <circle cx="623.1034482758621" cy="155.05494505494505" r="4" fill="#dfb317" class="data-point" style="animation-delay: 2.65s" />
    <circle cx="647.5862068965517" cy="142.85714285714286" r="4" fill="#dfb317" class="data-point" style="animation-delay: 2.70s" />
    <circle cx="672.0689655172414" cy="130.43956043956047" r="4" fill="#dfb317" class="data-point" style="animation-delay: 2.75s" />
    <circle cx="696.551724137931" cy="119.99999999999997" r="4" fill="#dfb317" class="data-point" style="animation-delay: 2.80s" />
    <circle cx="721.0344827586207" cy="107.69230769230768" r="4" fill="#dfb317" class="data-point" style="animation-delay: 2.85s" />
    <circle cx="745.5172413793103" cy="92.41758241758242" r="4" fill="#dfb317" class="data-point" style="animation-delay: 2.90s" />
    <circle cx="770" cy="77.36263736263737" r="4" fill="#dfb317" class="data-point" style="animation-delay: 2.95s" />
    
    <circle cx="60" cy="349.6703296703297" r="4" fill="#28a745" class="data-point" style="animation-delay: 1.50s" />
    <circle cx="84.48275862068965" cy="349.6703296703297" r="4" fill="#28a745" class="data-point" style="animation-delay: 1.55s" />
    <circle cx="108.9655172413793" cy="349.6703296703297" r="4" fill="#28a745" class="data-point" style="animation-delay: 1.60s" />
    <circle cx="133.44827586206895" cy="349.6703296703297" r="4" fill="#28a745" class="data-point" style="animation-delay: 1.65s" />
    <circle cx="157.9310344827586" cy="349.6703296703297" r="4" fill="#28a745" class="data-point" style="animation-delay: 1.70s" />
    <circle cx="182.41379310344828" cy="349.6703296703297" r="4" fill="#28a745" class="data-point" style="animation-delay: 1.75s" />
    <circle cx="206.89655172413794" cy="349.6703296703297" r="4" fill="#28a745" class="data-point" style="animation-delay: 1.80s" />
    <circle cx="231.3793103448276" cy="349.6703296703297" r="4" fill="#28a745" class="data-point" style="animation-delay: 1.85s" />
    <circle cx="255.86206896551724" cy="349.6703296703297" r="4" fill="#28a745" class="data-point" style="animation-delay: 1.90s" />
    <circle cx="280.34482758620686" cy="349.6703296703297" r="4" fill="#28a745" class="data-point" style="animation-delay: 1.95s" />
    <circle cx="304.82758620689657" cy="349.6703296703297" r="4" fill="#28a745" class="data-point" style="animation-delay: 2.00s" />
    <circle cx="329.3103448275862" cy="349.6703296703297" r="4" fill="#28a745" class="data-point" style="animation-delay: 2.05s" />
    <circle cx="353.7931034482759" cy="349.6703296703297" r="4" fill="#28a745" class="data-point" style="animation-delay: 2.10s" />
    <circle cx="378.2758620689655" cy="349.6703296703297" r="4" fill="#28a745" class="data-point" style="animation-delay: 2.15s" />
    <circle cx="402.7586206896552" cy="349.6703296703297" r="4" fill="#28a745" class="data-point" style="animation-delay: 2.20s" />
    <circle cx="427.2413793103448" cy="349.6703296703297" r="4" fill="#28a745" class="data-point" style="animation-delay: 2.25s" />
    <circle cx="451.7241379310345" cy="349.6703296703297" r="4" fill="#28a745" class="data-point" style="animation-delay: 2.30s" />
    <circle cx="476.2068965517241" cy="349.6703296703297" r="4" fill="#28a745" class="data-point" style="animation-delay: 2.35s" />
    <circle cx="500.6896551724138" cy="349.6703296703297" r="4" fill="#28a745" class="data-point" style="animation-delay: 2.40s" />
    <circle cx="525.1724137931035" cy="349.6703296703297" r="4" fill="#28a745" class="data-point" style="animation-delay: 2.45s" />
    <circle cx="549.6551724137931" cy="349.6703296703297" r="4" fill="#28a745" class="data-point" style="animation-delay: 2.50s" />
    <circle cx="574.1379310344828" cy="349.6703296703297" r="4" fill="#28a745" class="data-point" style="animation-delay: 2.55s" />
    <circle cx="598.6206896551724" cy="349.6703296703297" r="4" fill="#28a745" class="data-point" style="animation-delay: 2.60s" />
    <circle cx="623.1034482758621" cy="349.6703296703297" r="4" fill="#28a745" class="data-point" style="animation-delay: 2.65s" />
    <circle cx="647.5862068965517" cy="349.6703296703297" r="4" fill="#28a745" class="data-point" style="animation-delay: 2.70s" />
    <circle cx="672.0689655172414" cy="349.6703296703297" r="4" fill="#28a745" class="data-point" style="animation-delay: 2.75s" />
    <circle cx="696.551724137931" cy="349.6703296703297" r="4" fill="#28a745" class="data-point" style="animation-delay: 2.80s" />
    <circle cx="721.0344827586207" cy="349.6703296703297" r="4" fill="#28a745" class="data-point" style="animation-delay: 2.85s" />
    <circle cx="745.5172413793103" cy="349.6703296703297" r="4" fill="#28a745" class="data-point" style="animation-delay: 2.90s" />
    <circle cx="770" cy="349.6703296703297" r="4" fill="#28a745" class="data-point" style="animation-delay: 2.95s" />
    
    <circle cx="60" cy="349.7802197802198" r="4" fill="#e74c3c" class="data-point" style="animation-delay: 1.50s" />
    <circle cx="84.48275862068965" cy="349.7802197802198" r="4" fill="#e74c3c" class="data-point" style="animation-delay: 1.55s" />
    <circle cx="108.9655172413793" cy="349.7802197802198" r="4" fill="#e74c3c" class="data-point" style="animation-delay: 1.60s" />
    <circle cx="133.44827586206895" cy="349.7802197802198" r="4" fill="#e74c3c" class="data-point" style="animation-delay: 1.65s" />
    <circle cx="157.9310344827586" cy="349.7802197802198" r="4" fill="#e74c3c" class="data-point" style="animation-delay: 1.70s" />
    <circle cx="182.41379310344828" cy="349.7802197802198" r="4" fill="#e74c3c" class="data-point" style="animation-delay: 1.75s" />
    <circle cx="206.89655172413794" cy="349.7802197802198" r="4" fill="#e74c3c" class="data-point" style="animation-delay: 1.80s" />
    <circle cx="231.3793103448276" cy="349.7802197802198" r="4" fill="#e74c3c" class="data-point" style="animation-delay: 1.85s" />
    <circle cx="255.86206896551724" cy="349.7802197802198" r="4" fill="#e74c3c" class="data-point" style="animation-delay: 1.90s" />
    <circle cx="280.34482758620686" cy="349.7802197802198" r="4" fill="#e74c3c" class="data-point" style="animation-delay: 1.95s" />
    <circle cx="304.82758620689657" cy="349.7802197802198" r="4" fill="#e74c3c" class="data-point" style="animation-delay: 2.00s" />
    <circle cx="329.3103448275862" cy="349.7802197802198" r="4" fill="#e74c3c" class="data-point" style="animation-delay: 2.05s" />
    <circle cx="353.7931034482759" cy="349.7802197802198" r="4" fill="#e74c3c" class="data-point" style="animation-delay: 2.10s" />
    <circle cx="378.2758620689655" cy="349.7802197802198" r="4" fill="#e74c3c" class="data-point" style="animation-delay: 2.15s" />
    <circle cx="402.7586206896552" cy="349.7802197802198" r="4" fill="#e74c3c" class="data-point" style="animation-delay: 2.20s" />
    <circle cx="427.2413793103448" cy="349.7802197802198" r="4" fill="#e74c3c" class="data-point" style="animation-delay: 2.25s" />
    <circle cx="451.7241379310345" cy="349.7802197802198" r="4" fill="#e74c3c" class="data-point" style="animation-delay: 2.30s" />
    <circle cx="476.2068965517241" cy="349.7802197802198" r="4" fill="#e74c3c" class="data-point" style="animation-delay: 2.35s" />
    <circle cx="500.6896551724138" cy="349.7802197802198" r="4" fill="#e74c3c" class="data-point" style="animation-delay: 2.40s" />
    <circle cx="525.1724137931035" cy="349.7802197802198" r="4" fill="#e74c3c" class="data-point" style="animation-delay: 2.45s" />
    <circle cx="549.6551724137931" cy="349.7802197802198" r="4" fill="#e74c3c" class="data-point" style="animation-delay: 2.50s" />
    <circle cx="574.1379310344828" cy="349.7802197802198" r="4" fill="#e74c3c" class="data-point" style="animation-delay: 2.55s" />
    <circle cx="598.6206896551724" cy="349.7802197802198" r="4" fill="#e74c3c" class="data-point" style="animation-delay: 2.60s" />
    <circle cx="623.1034482758621" cy="349.7802197802198" r="4" fill="#e74c3c" class="data-point" style="animation-delay: 2.65s" />
    <circle cx="647.5862068965517" cy="349.7802197802198" r="4" fill="#e74c3c" class="data-point" style="animation-delay: 2.70s" />
    <circle cx="672.0689655172414" cy="349.7802197802198" r="4" fill="#e74c3c" class="data-point" style="animation-delay: 2.75s" />
    <circle cx="696.551724137931" cy="349.7802197802198" r="4" fill="#e74c3c" class="data-point" style="animation-delay: 2.80s" />
    <circle cx="721.0344827586207" cy="349.7802197802198" r="4" fill="#e74c3c" class="data-point" style="animation-delay: 2.85s" />
    <circle cx="745.5172413793103" cy="349.7802197802198" r="4" fill="#e74c3c" class="data-point" style="animation-delay: 2.90s" />
    <circle cx="770" cy="349.7802197802198" r="4" fill="#e74c3c" class="data-point" style="animation-delay: 2.95s" />
    
    <circle cx="60" cy="349.7802197802198" r="4" fill="#3498db" class="data-point" style="animation-delay: 1.50s" />
    <circle cx="84.48275862068965" cy="349.7802197802198" r="4" fill="#3498db" class="data-point" style="animation-delay: 1.55s" />
    <circle cx="108.9655172413793" cy="349.7802197802198" r="4" fill="#3498db" class="data-point" style="animation-delay: 1.60s" />
    <circle cx="133.44827586206895" cy="349.7802197802198" r="4" fill="#3498db" class="data-point" style="animation-delay: 1.65s" />
    <circle cx="157.9310344827586" cy="349.7802197802198" r="4" fill="#3498db" class="data-point" style="animation-delay: 1.70s" />
    <circle cx="182.41379310344828" cy="349.7802197802198" r="4" fill="#3498db" class="data-point" style="animation-delay: 1.75s" />
    <circle cx="206.89655172413794" cy="349.7802197802198" r="4" fill="#3498db" class="data-point" style="animation-delay: 1.80s" />
    <circle cx="231.3793103448276" cy="349.7802197802198" r="4" fill="#3498db" class="data-point" style="animation-delay: 1.85s" />
    <circle cx="255.86206896551724" cy="349.7802197802198" r="4" fill="#3498db" class="data-point" style="animation-delay: 1.90s" />
    <circle cx="280.34482758620686" cy="349.7802197802198" r="4" fill="#3498db" class="data-point" style="animation-delay: 1.95s" />
    <circle cx="304.82758620689657" cy="349.7802197802198" r="4" fill="#3498db" class="data-point" style="animation-delay: 2.00s" />
    <circle cx="329.3103448275862" cy="349.7802197802198" r="4" fill="#3498db" class="data-point" style="animation-delay: 2.05s" />
    <circle cx="353.7931034482759" cy="349.7802197802198" r="4" fill="#3498db" class="data-point" style="animation-delay: 2.10s" />
    <circle cx="378.2758620689655" cy="349.7802197802198" r="4" fill="#3498db" class="data-point" style="animation-delay: 2.15s" />
    <circle cx="402.7586206896552" cy="349.7802197802198" r="4" fill="#3498db" class="data-point" style="animation-delay: 2.20s" />
    <circle cx="427.2413793103448" cy="349.7802197802198" r="4" fill="#3498db" class="data-point" style="animation-delay: 2.25s" />
    <circle cx="451.7241379310345" cy="349.7802197802198" r="4" fill="#3498db" class="data-point" style="animation-delay: 2.30s" />
    <circle cx="476.2068965517241" cy="349.7802197802198" r="4" fill="#3498db" class="data-point" style="animation-delay: 2.35s" />
    <circle cx="500.6896551724138" cy="349.7802197802198" r="4" fill="#3498db" class="data-point" style="animation-delay: 2.40s" />
    <circle cx="525.1724137931035" cy="349.7802197802198" r="4" fill="#3498db" class="data-point" style="animation-delay: 2.45s" />
    <circle cx="549.6551724137931" cy="349.7802197802198" r="4" fill="#3498db" class="data-point" style="animation-delay: 2.50s" />
    <circle cx="574.1379310344828" cy="349.7802197802198" r="4" fill="#3498db" class="data-point" style="animation-delay: 2.55s" />
    <circle cx="598.6206896551724" cy="349.7802197802198" r="4" fill="#3498db" class="data-point" style="animation-delay: 2.60s" />
    <circle cx="623.1034482758621" cy="349.7802197802198" r="4" fill="#3498db" class="data-point" style="animation-delay: 2.65s" />
    <circle cx="647.5862068965517" cy="349.7802197802198" r="4" fill="#3498db" class="data-point" style="animation-delay: 2.70s" />
    <circle cx="672.0689655172414" cy="349.7802197802198" r="4" fill="#3498db" class="data-point" style="animation-delay: 2.75s" />
    <circle cx="696.551724137931" cy="349.7802197802198" r="4" fill="#3498db" class="data-point" style="animation-delay: 2.80s" />
    <circle cx="721.0344827586207" cy="349.7802197802198" r="4" fill="#3498db" class="data-point" style="animation-delay: 2.85s" />
    <circle cx="745.5172413793103" cy="349.7802197802198" r="4" fill="#3498db" class="data-point" style="animation-delay: 2.90s" />
    <circle cx="770" cy="349.7802197802198" r="4" fill="#3498db" class="data-point" style="animation-delay: 2.95s" />
    
    <circle cx="60" cy="349.8901098901099" r="4" fill="#9b59b6" class="data-point" style="animation-delay: 1.50s" />
    <circle cx="84.48275862068965" cy="349.8901098901099" r="4" fill="#9b59b6" class="data-point" style="animation-delay: 1.55s" />
    <circle cx="108.9655172413793" cy="349.8901098901099" r="4" fill="#9b59b6" class="data-point" style="animation-delay: 1.60s" />
    <circle cx="133.44827586206895" cy="349.8901098901099" r="4" fill="#9b59b6" class="data-point" style="animation-delay: 1.65s" />
    <circle cx="157.9310344827586" cy="349.8901098901099" r="4" fill="#9b59b6" class="data-point" style="animation-delay: 1.70s" />
    <circle cx="182.41379310344828" cy="349.8901098901099" r="4" fill="#9b59b6" class="data-point" style="animation-delay: 1.75s" />
    <circle cx="206.89655172413794" cy="349.8901098901099" r="4" fill="#9b59b6" class="data-point" style="animation-delay: 1.80s" />
    <circle cx="231.3793103448276" cy="349.8901098901099" r="4" fill="#9b59b6" class="data-point" style="animation-delay: 1.85s" />
    <circle cx="255.86206896551724" cy="349.8901098901099" r="4" fill="#9b59b6" class="data-point" style="animation-delay: 1.90s" />
    <circle cx="280.34482758620686" cy="349.8901098901099" r="4" fill="#9b59b6" class="data-point" style="animation-delay: 1.95s" />
    <circle cx="304.82758620689657" cy="349.8901098901099" r="4" fill="#9b59b6" class="data-point" style="animation-delay: 2.00s" />
    <circle cx="329.3103448275862" cy="349.8901098901099" r="4" fill="#9b59b6" class="data-point" style="animation-delay: 2.05s" />
    <circle cx="353.7931034482759" cy="349.8901098901099" r="4" fill="#9b59b6" class="data-point" style="animation-delay: 2.10s" />
    <circle cx="378.2758620689655" cy="349.8901098901099" r="4" fill="#9b59b6" class="data-point" style="animation-delay: 2.15s" />
    <circle cx="402.7586206896552" cy="349.8901098901099" r="4" fill="#9b59b6" class="data-point" style="animation-delay: 2.20s" />
    <circle cx="427.2413793103448" cy="349.8901098901099" r="4" fill="#9b59b6" class="data-point" style="animation-delay: 2.25s" />
    <circle cx="451.7241379310345" cy="349.8901098901099" r="4" fill="#9b59b6" class="data-point" style="animation-delay: 2.30s" />
    <circle cx="476.2068965517241" cy="349.8901098901099" r="4" fill="#9b59b6" class="data-point" style="animation-delay: 2.35s" />
    <circle cx="500.6896551724138" cy="349.8901098901099" r="4" fill="#9b59b6" class="data-point" style="animation-delay: 2.40s" />
    <circle cx="525.1724137931035" cy="349.8901098901099" r="4" fill="#9b59b6" class="data-point" style="animation-delay: 2.45s" />
    <circle cx="549.6551724137931" cy="349.8901098901099" r="4" fill="#9b59b6" class="data-point" style="animation-delay: 2.50s" />
    <circle cx="574.1379310344828" cy="349.8901098901099" r="4" fill="#9b59b6" class="data-point" style="animation-delay: 2.55s" />
    <circle cx="598.6206896551724" cy="349.8901098901099" r="4" fill="#9b59b6" class="data-point" style="animation-delay: 2.60s" />
    <circle cx="623.1034482758621" cy="349.8901098901099" r="4" fill="#9b59b6" class="data-point" style="animation-delay: 2.65s" />
    <circle cx="647.5862068965517" cy="349.8901098901099" r="4" fill="#9b59b6" class="data-point" style="animation-delay: 2.70s" />
    <circle cx="672.0689655172414" cy="349.8901098901099" r="4" fill="#9b59b6" class="data-point" style="animation-delay: 2.75s" />
    <circle cx="696.551724137931" cy="349.8901098901099" r="4" fill="#9b59b6" class="data-point" style="animation-delay: 2.80s" />
    <circle cx="721.0344827586207" cy="349.8901098901099" r="4" fill="#9b59b6" class="data-point" style="animation-delay: 2.85s" />
    <circle cx="745.5172413793103" cy="349.8901098901099" r="4" fill="#9b59b6" class="data-point" style="animation-delay: 2.90s" />
    <circle cx="770" cy="349.8901098901099" r="4" fill="#9b59b6" class="data-point" style="animation-delay: 2.95s" />
    
    <circle cx="60" cy="349.8901098901099" r="4" fill="#e67e22" class="data-point" style="animation-delay: 1.50s" />
    <circle cx="84.48275862068965" cy="349.8901098901099" r="4" fill="#e67e22" class="data-point" style="animation-delay: 1.55s" />
    <circle cx="108.9655172413793" cy="349.8901098901099" r="4" fill="#e67e22" class="data-point" style="animation-delay: 1.60s" />
    <circle cx="133.44827586206895" cy="349.8901098901099" r="4" fill="#e67e22" class="data-point" style="animation-delay: 1.65s" />
    <circle cx="157.9310344827586" cy="349.8901098901099" r="4" fill="#e67e22" class="data-point" style="animation-delay: 1.70s" />
    <circle cx="182.41379310344828" cy="349.8901098901099" r="4" fill="#e67e22" class="data-point" style="animation-delay: 1.75s" />
    <circle cx="206.89655172413794" cy="349.8901098901099" r="4" fill="#e67e22" class="data-point" style="animation-delay: 1.80s" />
    <circle cx="231.3793103448276" cy="349.8901098901099" r="4" fill="#e67e22" class="data-point" style="animation-delay: 1.85s" />
    <circle cx="255.86206896551724" cy="349.8901098901099" r="4" fill="#e67e22" class="data-point" style="animation-delay: 1.90s" />
    <circle cx="280.34482758620686" cy="349.8901098901099" r="4" fill="#e67e22" class="data-point" style="animation-delay: 1.95s" />
    <circle cx="304.82758620689657" cy="349.8901098901099" r="4" fill="#e67e22" class="data-point" style="animation-delay: 2.00s" />
    <circle cx="329.3103448275862" cy="349.8901098901099" r="4" fill="#e67e22" class="data-point" style="animation-delay: 2.05s" />
    <circle cx="353.7931034482759" cy="349.8901098901099" r="4" fill="#e67e22" class="data-point" style="animation-delay: 2.10s" />
    <circle cx="378.2758620689655" cy="349.8901098901099" r="4" fill="#e67e22" class="data-point" style="animation-delay: 2.15s" />
    <circle cx="402.7586206896552" cy="349.8901098901099" r="4" fill="#e67e22" class="data-point" style="animation-delay: 2.20s" />
    <circle cx="427.2413793103448" cy="349.8901098901099" r="4" fill="#e67e22" class="data-point" style="animation-delay: 2.25s" />
    <circle cx="451.7241379310345" cy="349.8901098901099" r="4" fill="#e67e22" class="data-point" style="animation-delay: 2.30s" />
    <circle cx="476.2068965517241" cy="349.8901098901099" r="4" fill="#e67e22" class="data-point" style="animation-delay: 2.35s" />
    <circle cx="500.6896551724138" cy="349.8901098901099" r="4" fill="#e67e22" class="data-point" style="animation-delay: 2.40s" />
    <circle cx="525.1724137931035" cy="349.8901098901099" r="4" fill="#e67e22" class="data-point" style="animation-delay: 2.45s" />
    <circle cx="549.6551724137931" cy="349.8901098901099" r="4" fill="#e67e22" class="data-point" style="animation-delay: 2.50s" />
    <circle cx="574.1379310344828" cy="349.8901098901099" r="4" fill="#e67e22" class="data-point" style="animation-delay: 2.55s" />
    <circle cx="598.6206896551724" cy="349.8901098901099" r="4" fill="#e67e22" class="data-point" style="animation-delay: 2.60s" />
    <circle cx="623.1034482758621" cy="349.8901098901099" r="4" fill="#e67e22" class="data-point" style="animation-delay: 2.65s" />
    <circle cx="647.5862068965517" cy="349.8901098901099" r="4" fill="#e67e22" class="data-point" style="animation-delay: 2.70s" />
    <circle cx="672.0689655172414" cy="349.8901098901099" r="4" fill="#e67e22" class="data-point" style="animation-delay: 2.75s" />
    <circle cx="696.551724137931" cy="349.8901098901099" r="4" fill="#e67e22" class="data-point" style="animation-delay: 2.80s" />
    <circle cx="721.0344827586207" cy="349.8901098901099" r="4" fill="#e67e22" class="data-point" style="animation-delay: 2.85s" />
    <circle cx="745.5172413793103" cy="349.8901098901099" r="4" fill="#e67e22" class="data-point" style="animation-delay: 2.90s" />
    <circle cx="770" cy="349.8901098901099" r="4" fill="#e67e22" class="data-point" style="animation-delay: 2.95s" />
    
    <circle cx="60" cy="349.8901098901099" r="4" fill="#1abc9c" class="data-point" style="animation-delay: 1.50s" />
    <circle cx="84.48275862068965" cy="349.8901098901099" r="4" fill="#1abc9c" class="data-point" style="animation-delay: 1.55s" />
    <circle cx="108.9655172413793" cy="349.8901098901099" r="4" fill="#1abc9c" class="data-point" style="animation-delay: 1.60s" />
    <circle cx="133.44827586206895" cy="349.8901098901099" r="4" fill="#1abc9c" class="data-point" style="animation-delay: 1.65s" />
    <circle cx="157.9310344827586" cy="349.8901098901099" r="4" fill="#1abc9c" class="data-point" style="animation-delay: 1.70s" />
    <circle cx="182.41379310344828" cy="349.8901098901099" r="4" fill="#1abc9c" class="data-point" style="animation-delay: 1.75s" />
    <circle cx="206.89655172413794" cy="349.8901098901099" r="4" fill="#1abc9c" class="data-point" style="animation-delay: 1.80s" />
    <circle cx="231.3793103448276" cy="349.8901098901099" r="4" fill="#1abc9c" class="data-point" style="animation-delay: 1.85s" />
    <circle cx="255.86206896551724" cy="349.8901098901099" r="4" fill="#1abc9c" class="data-point" style="animation-delay: 1.90s" />
    <circle cx="280.34482758620686" cy="349.8901098901099" r="4" fill="#1abc9c" class="data-point" style="animation-delay: 1.95s" />
    <circle cx="304.82758620689657" cy="349.8901098901099" r="4" fill="#1abc9c" class="data-point" style="animation-delay: 2.00s" />
    <circle cx="329.3103448275862" cy="349.8901098901099" r="4" fill="#1abc9c" class="data-point" style="animation-delay: 2.05s" />
    <circle cx="353.7931034482759" cy="349.8901098901099" r="4" fill="#1abc9c" class="data-point" style="animation-delay: 2.10s" />
    <circle cx="378.2758620689655" cy="349.8901098901099" r="4" fill="#1abc9c" class="data-point" style="animation-delay: 2.15s" />
    <circle cx="402.7586206896552" cy="349.8901098901099" r="4" fill="#1abc9c" class="data-point" style="animation-delay: 2.20s" />
    <circle cx="427.2413793103448" cy="349.8901098901099" r="4" fill="#1abc9c" class="data-point" style="animation-delay: 2.25s" />
    <circle cx="451.7241379310345" cy="349.8901098901099" r="4" fill="#1abc9c" class="data-point" style="animation-delay: 2.30s" />
    <circle cx="476.2068965517241" cy="349.8901098901099" r="4" fill="#1abc9c" class="data-point" style="animation-delay: 2.35s" />
    <circle cx="500.6896551724138" cy="349.8901098901099" r="4" fill="#1abc9c" class="data-point" style="animation-delay: 2.40s" />
    <circle cx="525.1724137931035" cy="349.8901098901099" r="4" fill="#1abc9c" class="data-point" style="animation-delay: 2.45s" />
    <circle cx="549.6551724137931" cy="349.8901098901099" r="4" fill="#1abc9c" class="data-point" style="animation-delay: 2.50s" />
    <circle cx="574.1379310344828" cy="349.8901098901099" r="4" fill="#1abc9c" class="data-point" style="animation-delay: 2.55s" />
    <circle cx="598.6206896551724" cy="349.8901098901099" r="4" fill="#1abc9c" class="data-point" style="animation-delay: 2.60s" />
    <circle cx="623.1034482758621" cy="349.8901098901099" r="4" fill="#1abc9c" class="data-point" style="animation-delay: 2.65s" />
    <circle cx="647.5862068965517" cy="349.8901098901099" r="4" fill="#1abc9c" class="data-point" style="animation-delay: 2.70s" />
    <circle cx="672.0689655172414" cy="349.8901098901099" r="4" fill="#1abc9c" class="data-point" style="animation-delay: 2.75s" />
    <circle cx="696.551724137931" cy="349.8901098901099" r="4" fill="#1abc9c" class="data-point" style="animation-delay: 2.80s" />
    <circle cx="721.0344827586207" cy="349.8901098901099" r="4" fill="#1abc9c" class="data-point" style="animation-delay: 2.85s" />
    <circle cx="745.5172413793103" cy="349.8901098901099" r="4" fill="#1abc9c" class="data-point" style="animation-delay: 2.90s" />
    <circle cx="770" cy="349.8901098901099" r="4" fill="#1abc9c" class="data-point" style="animation-delay: 2.95s" />
    
    <circle cx="60" cy="349.8901098901099" r="4" fill="#e84393" class="data-point" style="animation-delay: 1.50s" />
    <circle cx="84.48275862068965" cy="349.8901098901099" r="4" fill="#e84393" class="data-point" style="animation-delay: 1.55s" />
    <circle cx="108.9655172413793" cy="349.8901098901099" r="4" fill="#e84393" class="data-point" style="animation-delay: 1.60s" />
    <circle cx="133.44827586206895" cy="349.8901098901099" r="4" fill="#e84393" class="data-point" style="animation-delay: 1.65s" />
    <circle cx="157.9310344827586" cy="349.8901098901099" r="4" fill="#e84393" class="data-point" style="animation-delay: 1.70s" />
    <circle cx="182.41379310344828" cy="349.8901098901099" r="4" fill="#e84393" class="data-point" style="animation-delay: 1.75s" />
    <circle cx="206.89655172413794" cy="349.8901098901099" r="4" fill="#e84393" class="data-point" style="animation-delay: 1.80s" />
    <circle cx="231.3793103448276" cy="349.8901098901099" r="4" fill="#e84393" class="data-point" style="animation-delay: 1.85s" />
    <circle cx="255.86206896551724" cy="349.8901098901099" r="4" fill="#e84393" class="data-point" style="animation-delay: 1.90s" />
    <circle cx="280.34482758620686" cy="349.8901098901099" r="4" fill="#e84393" class="data-point" style="animation-delay: 1.95s" />
    <circle cx="304.82758620689657" cy="349.8901098901099" r="4" fill="#e84393" class="data-point" style="animation-delay: 2.00s" />
    <circle cx="329.3103448275862" cy="349.8901098901099" r="4" fill="#e84393" class="data-point" style="animation-delay: 2.05s" />
    <circle cx="353.7931034482759" cy="349.8901098901099" r="4" fill="#e84393" class="data-point" style="animation-delay: 2.10s" />
    <circle cx="378.2758620689655" cy="349.8901098901099" r="4" fill="#e84393" class="data-point" style="animation-delay: 2.15s" />
    <circle cx="402.7586206896552" cy="349.8901098901099" r="4" fill="#e84393" class="data-point" style="animation-delay: 2.20s" />
    <circle cx="427.2413793103448" cy="349.8901098901099" r="4" fill="#e84393" class="data-point" style="animation-delay: 2.25s" />
    <circle cx="451.7241379310345" cy="349.8901098901099" r="4" fill="#e84393" class="data-point" style="animation-delay: 2.30s" />
    <circle cx="476.2068965517241" cy="349.8901098901099" r="4" fill="#e84393" class="data-point" style="animation-delay: 2.35s" />
    <circle cx="500.6896551724138" cy="349.8901098901099" r="4" fill="#e84393" class="data-point" style="animation-delay: 2.40s" />
    <circle cx="525.1724137931035" cy="349.8901098901099" r="4" fill="#e84393" class="data-point" style="animation-delay: 2.45s" />
    <circle cx="549.6551724137931" cy="349.8901098901099" r="4" fill="#e84393" class="data-point" style="animation-delay: 2.50s" />
    <circle cx="574.1379310344828" cy="349.8901098901099" r="4" fill="#e84393" class="data-point" style="animation-delay: 2.55s" />
    <circle cx="598.6206896551724" cy="349.8901098901099" r="4" fill="#e84393" class="data-point" style="animation-delay: 2.60s" />
    <circle cx="623.1034482758621" cy="349.8901098901099" r="4" fill="#e84393" class="data-point" style="animation-delay: 2.65s" />
    <circle cx="647.5862068965517" cy="349.8901098901099" r="4" fill="#e84393" class="data-point" style="animation-delay: 2.70s" />
    <circle cx="672.0689655172414" cy="349.8901098901099" r="4" fill="#e84393" class="data-point" style="animation-delay: 2.75s" />
    <circle cx="696.551724137931" cy="349.8901098901099" r="4" fill="#e84393" class="data-point" style="animation-delay: 2.80s" />
    <circle cx="721.0344827586207" cy="349.8901098901099" r="4" fill="#e84393" class="data-point" style="animation-delay: 2.85s" />
    <circle cx="745.5172413793103" cy="349.8901098901099" r="4" fill="#e84393" class="data-point" style="animation-delay: 2.90s" />
    <circle cx="770" cy="349.8901098901099" r="4" fill="#e84393" class="data-point" style="animation-delay: 2.95s" />
    
    <circle cx="60" cy="350" r="4" fill="#795548" class="data-point" style="animation-delay: 1.50s" />
    <circle cx="84.48275862068965" cy="350" r="4" fill="#795548" class="data-point" style="animation-delay: 1.55s" />
    <circle cx="108.9655172413793" cy="350" r="4" fill="#795548" class="data-point" style="animation-delay: 1.60s" />
    <circle cx="133.44827586206895" cy="350" r="4" fill="#795548" class="data-point" style="animation-delay: 1.65s" />
    <circle cx="157.9310344827586" cy="350" r="4" fill="#795548" class="data-point" style="animation-delay: 1.70s" />
    <circle cx="182.41379310344828" cy="350" r="4" fill="#795548" class="data-point" style="animation-delay: 1.75s" />
    <circle cx="206.89655172413794" cy="350" r="4" fill="#795548" class="data-point" style="animation-delay: 1.80s" />
    <circle cx="231.3793103448276" cy="350" r="4" fill="#795548" class="data-point" style="animation-delay: 1.85s" />
    <circle cx="255.86206896551724" cy="350" r="4" fill="#795548" class="data-point" style="animation-delay: 1.90s" />
    <circle cx="280.34482758620686" cy="350" r="4" fill="#795548" class="data-point" style="animation-delay: 1.95s" />
    <circle cx="304.82758620689657" cy="350" r="4" fill="#795548" class="data-point" style="animation-delay: 2.00s" />
    <circle cx="329.3103448275862" cy="350" r="4" fill="#795548" class="data-point" style="animation-delay: 2.05s" />
    <circle cx="353.7931034482759" cy="350" r="4" fill="#795548" class="data-point" style="animation-delay: 2.10s" />
    <circle cx="378.2758620689655" cy="350" r="4" fill="#795548" class="data-point" style="animation-delay: 2.15s" />
    <circle cx="402.7586206896552" cy="350" r="4" fill="#795548" class="data-point" style="animation-delay: 2.20s" />
    <circle cx="427.2413793103448" cy="350" r="4" fill="#795548" class="data-point" style="animation-delay: 2.25s" />
    <circle cx="451.7241379310345" cy="350" r="4" fill="#795548" class="data-point" style="animation-delay: 2.30s" />
    <circle cx="476.2068965517241" cy="350" r="4" fill="#795548" class="data-point" style="animation-delay: 2.35s" />
    <circle cx="500.6896551724138" cy="350" r="4" fill="#795548" class="data-point" style="animation-delay: 2.40s" />
    <circle cx="525.1724137931035" cy="350" r="4" fill="#795548" class="data-point" style="animation-delay: 2.45s" />
    <circle cx="549.6551724137931" cy="350" r="4" fill="#795548" class="data-point" style="animation-delay: 2.50s" />
    <circle cx="574.1379310344828" cy="350" r="4" fill="#795548" class="data-point" style="animation-delay: 2.55s" />
    <circle cx="598.6206896551724" cy="350" r="4" fill="#795548" class="data-point" style="animation-delay: 2.60s" />
    <circle cx="623.1034482758621" cy="350" r="4" fill="#795548" class="data-point" style="animation-delay: 2.65s" />
    <circle cx="647.5862068965517" cy="350" r="4" fill="#795548" class="data-point" style="animation-delay: 2.70s" />
    <circle cx="672.0689655172414" cy="350" r="4" fill="#795548" class="data-point" style="animation-delay: 2.75s" />
    <circle cx="696.551724137931" cy="350" r="4" fill="#795548" class="data-point" style="animation-delay: 2.80s" />
    <circle cx="721.0344827586207" cy="350" r="4" fill="#795548" class="data-point" style="animation-delay: 2.85s" />
    <circle cx="745.5172413793103" cy="350" r="4" fill="#795548" class="data-point" style="animation-delay: 2.90s" />
    <circle cx="770" cy="350" r="4" fill="#795548" class="data-point" style="animation-delay: 2.95s" />
    
    <circle cx="60" cy="350" r="4" fill="#00bcd4" class="data-point" style="animation-delay: 1.50s" />
    <circle cx="84.48275862068965" cy="350" r="4" fill="#00bcd4" class="data-point" style="animation-delay: 1.55s" />
    <circle cx="108.9655172413793" cy="350" r="4" fill="#00bcd4" class="data-point" style="animation-delay: 1.60s" />
    <circle cx="133.44827586206895" cy="350" r="4" fill="#00bcd4" class="data-point" style="animation-delay: 1.65s" />
    <circle cx="157.9310344827586" cy="350" r="4" fill="#00bcd4" class="data-point" style="animation-delay: 1.70s" />
    <circle cx="182.41379310344828" cy="350" r="4" fill="#00bcd4" class="data-point" style="animation-delay: 1.75s" />
    <circle cx="206.89655172413794" cy="350" r="4" fill="#00bcd4" class="data-point" style="animation-delay: 1.80s" />
    <circle cx="231.3793103448276" cy="350" r="4" fill="#00bcd4" class="data-point" style="animation-delay: 1.85s" />
    <circle cx="255.86206896551724" cy="350" r="4" fill="#00bcd4" class="data-point" style="animation-delay: 1.90s" />
    <circle cx="280.34482758620686" cy="350" r="4" fill="#00bcd4" class="data-point" style="animation-delay: 1.95s" />
    <circle cx="304.82758620689657" cy="350" r="4" fill="#00bcd4" class="data-point" style="animation-delay: 2.00s" />
    <circle cx="329.3103448275862" cy="350" r="4" fill="#00bcd4" class="data-point" style="animation-delay: 2.05s" />
    <circle cx="353.7931034482759" cy="350" r="4" fill="#00bcd4" class="data-point" style="animation-delay: 2.10s" />
    <circle cx="378.2758620689655" cy="350" r="4" fill="#00bcd4" class="data-point" style="animation-delay: 2.15s" />
    <circle cx="402.7586206896552" cy="350" r="4" fill="#00bcd4" class="data-point" style="animation-delay: 2.20s" />
    <circle cx="427.2413793103448" cy="350" r="4" fill="#00bcd4" class="data-point" style="animation-delay: 2.25s" />
    <circle cx="451.7241379310345" cy="350" r="4" fill="#00bcd4" class="data-point" style="animation-delay: 2.30s" />
    <circle cx="476.2068965517241" cy="350" r="4" fill="#00bcd4" class="data-point" style="animation-delay: 2.35s" />
    <circle cx="500.6896551724138" cy="350" r="4" fill="#00bcd4" class="data-point" style="animation-delay: 2.40s" />
    <circle cx="525.1724137931035" cy="350" r="4" fill="#00bcd4" class="data-point" style="animation-delay: 2.45s" />
    <circle cx="549.6551724137931" cy="350" r="4" fill="#00bcd4" class="data-point" style="animation-delay: 2.50s" />
    <circle cx="574.1379310344828" cy="350" r="4" fill="#00bcd4" class="data-point" style="animation-delay: 2.55s" />
    <circle cx="598.6206896551724" cy="350" r="4" fill="#00bcd4" class="data-point" style="animation-delay: 2.60s" />
    <circle cx="623.1034482758621" cy="350" r="4" fill="#00bcd4" class="data-point" style="animation-delay: 2.65s" />
    <circle cx="647.5862068965517" cy="350" r="4" fill="#00bcd4" class="data-point" style="animation-delay: 2.70s" />
    <circle cx="672.0689655172414" cy="350" r="4" fill="#00bcd4" class="data-point" style="animation-delay: 2.75s" />
    <circle cx="696.551724137931" cy="350" r="4" fill="#00bcd4" class="data-point" style="animation-delay: 2.80s" />
    <circle cx="721.0344827586207" cy="350" r="4" fill="#00bcd4" class="data-point" style="animation-delay: 2.85s" />
    <circle cx="745.5172413793103" cy="350" r="4" fill="#00bcd4" class="data-point" style="animation-delay: 2.90s" />
    <circle cx="770" cy="350" r="4" fill="#00bcd4" class="data-point" style="animation-delay: 2.95s" />
  </g>
</svg>