<svg xmlns="http://www.w3.org/2000/svg" viewBox="0 0 800 400" width="800" height="400">
  <style>
    @keyframes drawLine {
      to { stroke-dashoffset: 0; }
    }
    @keyframes fadeInPoint {
      from { opacity: 0; }
      to { opacity: 1; }
    }
    .data-line-0 {
      stroke-dasharray: 1167;
      stroke-dashoffset: 1167;
      animation: drawLine 2s ease-out forwards;
    }
    .data-line-1 {
      stroke-dasharray: 1065;
      stroke-dashoffset: 1065;
      animation: drawLine 2s ease-out forwards;
    }
    .data-line-2 {
      stroke-dasharray: 1065;
      stroke-dashoffset: 1065;
      animation: drawLine 2s ease-out forwards;
    }
    .data-line-3 {
      stroke-dasharray: 1065;
      stroke-dashoffset: 1065;
      animation: drawLine 2s ease-out forwards;
    }
    .data-line-4 {
      stroke-dasharray: 1065;
      stroke-dashoffset: 1065;
      animation: drawLine 2s ease-out forwards;
    }
    .data-line-5 {
      stroke-dasharray: 1065;
      stroke-dashoffset: 1065;
      animation: drawLine 2s ease-out forwards;
    }
    .data-line-6 {
      stroke-dasharray: 1065;
      stroke-dashoffset: 1065;
      animation: drawLine 2s ease-out forwards;
    }
    .data-line-7 {
      stroke-dasharray: 1065;
      stroke-dashoffset: 1065;
      animation: drawLine 2s ease-out forwards;
    }
    .data-line-8 {
      stroke-dasharray: 1065;
      stroke-dashoffset: 1065;
      animation: drawLine 2s ease-out forwards;
    }
    .data-line-9 {
      stroke-dasharray: 1065;
      stroke-dashoffset: 1065;
      animation: drawLine 2s ease-out forwards;
    }
    .data-point {
      opacity: 0;
      animation: fadeInPoint 0.5s ease-out forwards;
    }
    .chart-bg { fill: #fff; }
    .chart-text { fill: #24292e; }
    .chart-muted { fill: #6a737d; }
    .chart-grid { stroke: #eee; }
    .chart-axis { stroke: #6a737d; }
    @media (prefers-color-scheme: dark) {
      .chart-bg { fill: #0d1117; }
      .chart-text { fill: #e6edf3; }
      .chart-muted { fill: #8b949e; }
      .chart-grid { stroke: #21262d; }
      .chart-axis { stroke: #8b949e; }
    }
  </style>
  <rect width="800" height="400" class="chart-bg" />
  <text x="400" y="14" text-anchor="middle" class="chart-text" font-size="16" font-weight="bold" font-family="-apple-system, BlinkMacSystemFont, 'Segoe UI', Helvetica, Arial, sans-serif">Top Repositories</text>
  <g class="legend">
    <rect x="-200" y="31" width="12" height="3" fill="#dfb317" />
    <line x1="-200" y1="32.5" x2="-188" y2="32.5" stroke="#dfb317" stroke-width="2" />
    <text x="-184" y="36" class="chart-text" font-size="10" font-family="-apple-system, BlinkMacSystemFont, 'Segoe UI', Helvetica, Arial, sans-serif">SteamGridDB/steam-rom-manager</text>
    <rect x="-80" y="31" width="12" height="3" fill="#28a745" />
    <line x1="-80" y1="32.5" x2="-68" y2="32.5" stroke="#28a745" stroke-width="2" />
    <text x="-64" y="36" class="chart-text" font-size="10" font-family="-apple-system, BlinkMacSystemFont, 'Segoe UI', Helvetica, Arial, sans-serif">cbartondock/node-binary-vdf</text>
    <rect x="40" y="31" width="12" height="3" fill="#e74c3c" />
    <line x1="40" y1="32.5" x2="52" y2="32.5" stroke="#e74c3c" stroke-width="2" />
    <text x="56" y="36" class="chart-text" font-size="10" font-family="-apple-system, BlinkMacSystemFont, 'Segoe UI', Helvetica, Arial, sans-serif">cbartondock/PortableEnv</text>
    <rect x="160" y="31" width="12" height="3" fill="#3498db" />
    <line x1="160" y1="32.5" x2="172" y2="32.5" stroke="#3498db" stroke-width="2" />
    <text x="176" y="36" class="chart-text" font-size="10" font-family="-apple-system, BlinkMacSystemFont, 'Segoe UI', Helvetica, Arial, sans-serif">cbartondock/Windwaker</text>
    <rect x="280" y="31" width="12" height="3" fill="#9b59b6" />
    <line x1="280" y1="32.5" x2="292" y2="32.5" stroke="#9b59b6" stroke-width="2" />
    <text x="296" y="36" class="chart-text" font-size="10" font-family="-apple-system, BlinkMacSystemFont, 'Segoe UI', Helvetica, Arial, sans-serif">cbartondock/chaos</text>
    <rect x="400" y="31" width="12" height="3" fill="#e67e22" />
    <line x1="400" y1="32.5" x2="412" y2="32.5" stroke="#e67e22" stroke-width="2" />
    <text x="416" y="36" class="chart-text" font-size="10" font-family="-apple-system, BlinkMacSystemFont, 'Segoe UI', Helvetica, Arial, sans-serif">cbartondock/riemann-sphere</text>
    <rect x="520" y="31" width="12" height="3" fill="#1abc9c" />
    <line x1="520" y1="32.5" x2="532" y2="32.5" stroke="#1abc9c" stroke-width="2" />
    <text x="536" y="36" class="chart-text" font-size="10" font-family="-apple-system, BlinkMacSystemFont, 'Segoe UI', Helvetica, Arial, sans-serif">cbartondock/tak-concept-art</text>
    <rect x="640" y="31" width="12" height="3" fill="#e84393" />
    <line x1="640" y1="32.5" x2="652" y2="32.5" stroke="#e84393" stroke-width="2" />
    <text x="656" y="36" class="chart-text" font-size="10" font-family="-apple-system, BlinkMacSystemFont, 'Segoe UI', Helvetica, Arial, sans-serif">stephan-x-liu/sublimechat</text>
    <rect x="760" y="31" width="12" height="3" fill="#795548" />
    <line x1="760" y1="32.5" x2="772" y2="32.5" stroke="#795548" stroke-width="2" />
    <text x="776" y="36" class="chart-text" font-size="10" font-family="-apple-system, BlinkMacSystemFont, 'Segoe UI', Helvetica, Arial, sans-serif">cbartondock/academicpages.github.io</text>
    <rect x="880" y="31" width="12" height="3" fill="#00bcd4" />
    <line x1="880" y1="32.5" x2="892" y2="32.5" stroke="#00bcd4" stroke-width="2" />
    <text x="896" y="36" class="chart-text" font-size="10" font-family="-apple-system, BlinkMacSystemFont, 'Segoe UI', Helvetica, Arial, sans-serif">cbartondock/discordBadge</text>
  </g>
  <g class="grid">
    <line x1="60" y1="350" x2="770" y2="350" class="chart-grid" stroke-opacity="0.3" />
    <text x="52" y="354" text-anchor="end" class="chart-muted" font-size="11" font-family="-apple-system, BlinkMacSystemFont, 'Segoe UI', Helvetica, Arial, sans-serif">0</text>
    <line x1="60" y1="295.1152579582876" x2="770" y2="295.1152579582876" class="chart-grid" stroke-opacity="0.3" />
    <text x="52" y="299.1152579582876" text-anchor="end" class="chart-muted" font-size="11" font-family="-apple-system, BlinkMacSystemFont, 'Segoe UI', Helvetica, Arial, sans-serif">500</text>
    <line x1="60" y1="240.2305159165752" x2="770" y2="240.2305159165752" class="chart-grid" stroke-opacity="0.3" />
    <text x="52" y="244.2305159165752" text-anchor="end" class="chart-muted" font-size="11" font-family="-apple-system, BlinkMacSystemFont, 'Segoe UI', Helvetica, Arial, sans-serif">1K</text>
    <line x1="60" y1="185.34577387486277" x2="770" y2="185.34577387486277" class="chart-grid" stroke-opacity="0.3" />
    <text x="52" y="189.34577387486277" text-anchor="end" class="chart-muted" font-size="11" font-family="-apple-system, BlinkMacSystemFont, 'Segoe UI', Helvetica, Arial, sans-serif">1.5K</text>
    <line x1="60" y1="130.4610318331504" x2="770" y2="130.4610318331504" class="chart-grid" stroke-opacity="0.3" />
    <text x="52" y="134.4610318331504" text-anchor="end" class="chart-muted" font-size="11" font-family="-apple-system, BlinkMacSystemFont, 'Segoe UI', Helvetica, Arial, sans-serif">2K</text>
    <line x1="60" y1="75.57628979143794" x2="770" y2="75.57628979143794" class="chart-grid" stroke-opacity="0.3" />
    <text x="52" y="79.57628979143794" text-anchor="end" class="chart-muted" font-size="11" font-family="-apple-system, BlinkMacSystemFont, 'Segoe UI', Helvetica, Arial, sans-serif">2.5K</text>
  </g>
  <g class="milestones">
    
  </g>
  <g class="x-axis">
    <text x="60" y="370" text-anchor="middle" class="chart-muted" font-size="11" font-family="-apple-system, BlinkMacSystemFont, 'Segoe UI', Helvetica, Arial, sans-serif">2017</text>
    <text x="133.44827586206895" y="370" text-anchor="middle" class="chart-muted" font-size="11" font-family="-apple-system, BlinkMacSystemFont, 'Segoe UI', Helvetica, Arial, sans-serif">2018</text>
    <text x="206.89655172413794" y="370" text-anchor="middle" class="chart-muted" font-size="11" font-family="-apple-system, BlinkMacSystemFont, 'Segoe UI', Helvetica, Arial, sans-serif">2019</text>
    <text x="280.34482758620686" y="370" text-anchor="middle" class="chart-muted" font-size="11" font-family="-apple-system, BlinkMacSystemFont, 'Segoe UI', Helvetica, Arial, sans-serif">2020</text>
    <text x="353.7931034482759" y="370" text-anchor="middle" class="chart-muted" font-size="11" font-family="-apple-system, BlinkMacSystemFont, 'Segoe UI', Helvetica, Arial, sans-serif">2021</text>
    <text x="427.2413793103448" y="370" text-anchor="middle" class="chart-muted" font-size="11" font-family="-apple-system, BlinkMacSystemFont, 'Segoe UI', Helvetica, Arial, sans-serif">2022</text>
    <text x="500.6896551724138" y="370" text-anchor="middle" class="chart-muted" font-size="11" font-family="-apple-system, BlinkMacSystemFont, 'Segoe UI', Helvetica, Arial, sans-serif">2023</text>
    <text x="574.1379310344828" y="370" text-anchor="middle" class="chart-muted" font-size="11" font-family="-apple-system, BlinkMacSystemFont, 'Segoe UI', Helvetica, Arial, sans-serif">2024</text>
    <text x="672.0689655172414" y="370" text-anchor="middle" class="chart-muted" font-size="11" font-family="-apple-system, BlinkMacSystemFont, 'Segoe UI', Helvetica, Arial, sans-serif">2025</text>
    <text x="745.5172413793103" y="370" text-anchor="middle" class="chart-muted" font-size="11" font-family="-apple-system, BlinkMacSystemFont, 'Segoe UI', Helvetica, Arial, sans-serif">2026</text>
  </g>
  <line x1="60" y1="50" x2="60" y2="350" class="chart-axis" stroke-width="1" />
  <line x1="60" y1="350" x2="770" y2="350" class="chart-axis" stroke-width="1" />
  
  
  
  
  
  
  
  
  
  
  <path d="M60,349.8902305159166 C68.16091954022988,347.32894255397 76.32183908045977,344.1456275155507 84.48275862068965,342.20636663007684 C92.64367816091954,340.267105744603 100.80459770114942,339.517014270033 108.9655172413793,338.25466520307356 C117.12643678160919,336.99231613611414 125.28735632183907,335.78485181119646 133.44827586206895,334.6322722283205 C141.60919540229884,333.4796926454446 149.77011494252872,332.638126600805 157.9310344827586,331.3391877058178 C166.0919540229885,330.0402488108306 174.2528735632184,328.17416758141235 182.41379310344828,326.83863885839736 C190.57471264367817,325.50311013538237 198.73563218390805,324.3139407244786 206.89655172413794,323.3260153677278 C215.05747126436782,322.338090010977 223.2183908045977,321.6428832784486 231.3793103448276,320.91108671789243 C239.54022988505747,320.17929015733625 247.70114942528735,319.66703256494696 255.86206896551724,318.9352360043908 C264.0229885057471,318.2034394438346 272.183908045977,317.8558360775704 280.34482758620686,316.5203073545554 C288.50574712643675,315.18477863154044 296.6666666666667,312.1661178192462 304.82758620689657,310.92206366630074 C312.98850574712645,309.6780095133553 321.14942528735634,309.80607391145264 329.3103448275862,309.0559824368826 C337.4712643678161,308.3058909623125 345.632183908046,307.4277350896451 353.7931034482759,306.4215148188804 C361.95402298850576,305.41529454811564 370.11494252873564,304.70179290157336 378.2758620689655,303.0186608122942 C386.4367816091954,301.335528723015 394.5977011494253,299.24990852542993 402.7586206896552,296.3227222832053 C410.91954022988506,293.39553604098063 419.08045977011494,291.36480058543725 427.2413793103448,285.4555433589462 C435.4022988505747,279.5462861324552 443.5632183908046,268.38638858397366 451.7241379310345,260.86717892425906 C459.88505747126436,253.34796926454447 468.04597701149424,246.4324917672887 476.2068965517241,240.34028540065862 C484.367816091954,234.24807903402854 492.5287356321839,230.02195389681665 500.6896551724138,224.31394072447858 C508.85057471264366,218.60592755214049 517.0114942528736,211.15989754848152 525.1724137931035,206.09220636663008 C533.3333333333334,201.02451518477864 541.4942528735633,198.2619831686791 549.6551724137931,193.90779363336992 C557.816091954023,189.55360409806073 565.9770114942529,184.37614343212584 574.1379310344828,179.96706915477495 C582.2988505747127,175.55799487742405 590.4597701149426,171.6245883644347 598.6206896551724,167.45334796926454 C606.7816091954023,163.2821075740944 614.9425287356322,159.05598243688257 623.1034482758621,154.93962678375414 C631.264367816092,150.8232711306257 639.4252873563219,146.85327478960852 647.5862068965517,142.75521405049398 C655.7471264367816,138.65715331137943 663.9080459770115,134.1017197219173 672.0689655172414,130.35126234906696 C680.2298850574713,126.60080497621661 688.3908045977012,124.07610684229785 696.551724137931,120.25246981339188 C704.7126436781609,116.42883278448592 712.8735632183908,112.01975850713502 721.0344827586207,107.40944017563118 C729.1954022988506,102.79912184412733 737.3563218390805,97.60336626417855 745.5172413793103,92.59055982436882 C753.6781609195402,87.5777533845591 761.8390804597701,82.41858763263815 770,77.33260153677281" fill="none" stroke="#dfb317" stroke-width="2.5" class="data-line-0" />
  <path d="M60,349.6706915477497 C68.16091954022988,349.6706915477497 76.32183908045977,349.6706915477497 84.48275862068965,349.6706915477497 C92.64367816091954,349.6706915477497 100.80459770114942,349.6706915477497 108.9655172413793,349.6706915477497 C117.12643678160919,349.6706915477497 125.28735632183907,349.6706915477497 133.44827586206895,349.6706915477497 C141.60919540229884,349.6706915477497 149.77011494252872,349.6706915477497 157.9310344827586,349.6706915477497 C166.0919540229885,349.6706915477497 174.2528735632184,349.6706915477497 182.41379310344828,349.6706915477497 C190.57471264367817,349.6706915477497 198.73563218390805,349.6706915477497 206.89655172413794,349.6706915477497 C215.05747126436782,349.6706915477497 223.2183908045977,349.6706915477497 231.3793103448276,349.6706915477497 C239.54022988505747,349.6706915477497 247.70114942528735,349.6706915477497 255.86206896551724,349.6706915477497 C264.0229885057471,349.6706915477497 272.183908045977,349.6706915477497 280.34482758620686,349.6706915477497 C288.50574712643675,349.6706915477497 296.6666666666667,349.6706915477497 304.82758620689657,349.6706915477497 C312.98850574712645,349.6706915477497 321.14942528735634,349.6706915477497 329.3103448275862,349.6706915477497 C337.4712643678161,349.6706915477497 345.632183908046,349.6706915477497 353.7931034482759,349.6706915477497 C361.95402298850576,349.6706915477497 370.11494252873564,349.6706915477497 378.2758620689655,349.6706915477497 C386.4367816091954,349.6706915477497 394.5977011494253,349.6706915477497 402.7586206896552,349.6706915477497 C410.91954022988506,349.6706915477497 419.08045977011494,349.6706915477497 427.2413793103448,349.6706915477497 C435.4022988505747,349.6706915477497 443.5632183908046,349.6706915477497 451.7241379310345,349.6706915477497 C459.88505747126436,349.6706915477497 468.04597701149424,349.6706915477497 476.2068965517241,349.6706915477497 C484.367816091954,349.6706915477497 492.5287356321839,349.6706915477497 500.6896551724138,349.6706915477497 C508.85057471264366,349.6706915477497 517.0114942528736,349.6706915477497 525.1724137931035,349.6706915477497 C533.3333333333334,349.6706915477497 541.4942528735633,349.6706915477497 549.6551724137931,349.6706915477497 C557.816091954023,349.6706915477497 565.9770114942529,349.6706915477497 574.1379310344828,349.6706915477497 C582.2988505747127,349.6706915477497 590.4597701149426,349.6706915477497 598.6206896551724,349.6706915477497 C606.7816091954023,349.6706915477497 614.9425287356322,349.6706915477497 623.1034482758621,349.6706915477497 C631.264367816092,349.6706915477497 639.4252873563219,349.6706915477497 647.5862068965517,349.6706915477497 C655.7471264367816,349.6706915477497 663.9080459770115,349.6706915477497 672.0689655172414,349.6706915477497 C680.2298850574713,349.6706915477497 688.3908045977012,349.6706915477497 696.551724137931,349.6706915477497 C704.7126436781609,349.6706915477497 712.8735632183908,349.6706915477497 721.0344827586207,349.6706915477497 C729.1954022988506,349.6706915477497 737.3563218390805,349.6706915477497 745.5172413793103,349.6706915477497 C753.6781609195402,349.6706915477497 761.8390804597701,349.6706915477497 770,349.6706915477497" fill="none" stroke="#28a745" stroke-width="2.5" class="data-line-1" />
  <path d="M60,349.78046103183317 C68.16091954022988,349.78046103183317 76.32183908045977,349.78046103183317 84.48275862068965,349.78046103183317 C92.64367816091954,349.78046103183317 100.80459770114942,349.78046103183317 108.9655172413793,349.78046103183317 C117.12643678160919,349.78046103183317 125.28735632183907,349.78046103183317 133.44827586206895,349.78046103183317 C141.60919540229884,349.78046103183317 149.77011494252872,349.78046103183317 157.9310344827586,349.78046103183317 C166.0919540229885,349.78046103183317 174.2528735632184,349.78046103183317 182.41379310344828,349.78046103183317 C190.57471264367817,349.78046103183317 198.73563218390805,349.78046103183317 206.89655172413794,349.78046103183317 C215.05747126436782,349.78046103183317 223.2183908045977,349.78046103183317 231.3793103448276,349.78046103183317 C239.54022988505747,349.78046103183317 247.70114942528735,349.78046103183317 255.86206896551724,349.78046103183317 C264.0229885057471,349.78046103183317 272.183908045977,349.78046103183317 280.34482758620686,349.78046103183317 C288.50574712643675,349.78046103183317 296.6666666666667,349.78046103183317 304.82758620689657,349.78046103183317 C312.98850574712645,349.78046103183317 321.14942528735634,349.78046103183317 329.3103448275862,349.78046103183317 C337.4712643678161,349.78046103183317 345.632183908046,349.78046103183317 353.7931034482759,349.78046103183317 C361.95402298850576,349.78046103183317 370.11494252873564,349.78046103183317 378.2758620689655,349.78046103183317 C386.4367816091954,349.78046103183317 394.5977011494253,349.78046103183317 402.7586206896552,349.78046103183317 C410.91954022988506,349.78046103183317 419.08045977011494,349.78046103183317 427.2413793103448,349.78046103183317 C435.4022988505747,349.78046103183317 443.5632183908046,349.78046103183317 451.7241379310345,349.78046103183317 C459.88505747126436,349.78046103183317 468.04597701149424,349.78046103183317 476.2068965517241,349.78046103183317 C484.367816091954,349.78046103183317 492.5287356321839,349.78046103183317 500.6896551724138,349.78046103183317 C508.85057471264366,349.78046103183317 517.0114942528736,349.78046103183317 525.1724137931035,349.78046103183317 C533.3333333333334,349.78046103183317 541.4942528735633,349.78046103183317 549.6551724137931,349.78046103183317 C557.816091954023,349.78046103183317 565.9770114942529,349.78046103183317 574.1379310344828,349.78046103183317 C582.2988505747127,349.78046103183317 590.4597701149426,349.78046103183317 598.6206896551724,349.78046103183317 C606.7816091954023,349.78046103183317 614.9425287356322,349.78046103183317 623.1034482758621,349.78046103183317 C631.264367816092,349.78046103183317 639.4252873563219,349.78046103183317 647.5862068965517,349.78046103183317 C655.7471264367816,349.78046103183317 663.9080459770115,349.78046103183317 672.0689655172414,349.78046103183317 C680.2298850574713,349.78046103183317 688.3908045977012,349.78046103183317 696.551724137931,349.78046103183317 C704.7126436781609,349.78046103183317 712.8735632183908,349.78046103183317 721.0344827586207,349.78046103183317 C729.1954022988506,349.78046103183317 737.3563218390805,349.78046103183317 745.5172413793103,349.78046103183317 C753.6781609195402,349.78046103183317 761.8390804597701,349.78046103183317 770,349.78046103183317" fill="none" stroke="#e74c3c" stroke-width="2.5" class="data-line-2" />
  <path d="M60,349.78046103183317 C68.16091954022988,349.78046103183317 76.32183908045977,349.78046103183317 84.48275862068965,349.78046103183317 C92.64367816091954,349.78046103183317 100.80459770114942,349.78046103183317 108.9655172413793,349.78046103183317 C117.12643678160919,349.78046103183317 125.28735632183907,349.78046103183317 133.44827586206895,349.78046103183317 C141.60919540229884,349.78046103183317 149.77011494252872,349.78046103183317 157.9310344827586,349.78046103183317 C166.0919540229885,349.78046103183317 174.2528735632184,349.78046103183317 182.41379310344828,349.78046103183317 C190.57471264367817,349.78046103183317 198.73563218390805,349.78046103183317 206.89655172413794,349.78046103183317 C215.05747126436782,349.78046103183317 223.2183908045977,349.78046103183317 231.3793103448276,349.78046103183317 C239.54022988505747,349.78046103183317 247.70114942528735,349.78046103183317 255.86206896551724,349.78046103183317 C264.0229885057471,349.78046103183317 272.183908045977,349.78046103183317 280.34482758620686,349.78046103183317 C288.50574712643675,349.78046103183317 296.6666666666667,349.78046103183317 304.82758620689657,349.78046103183317 C312.98850574712645,349.78046103183317 321.14942528735634,349.78046103183317 329.3103448275862,349.78046103183317 C337.4712643678161,349.78046103183317 345.632183908046,349.78046103183317 353.7931034482759,349.78046103183317 C361.95402298850576,349.78046103183317 370.11494252873564,349.78046103183317 378.2758620689655,349.78046103183317 C386.4367816091954,349.78046103183317 394.5977011494253,349.78046103183317 402.7586206896552,349.78046103183317 C410.91954022988506,349.78046103183317 419.08045977011494,349.78046103183317 427.2413793103448,349.78046103183317 C435.4022988505747,349.78046103183317 443.5632183908046,349.78046103183317 451.7241379310345,349.78046103183317 C459.88505747126436,349.78046103183317 468.04597701149424,349.78046103183317 476.2068965517241,349.78046103183317 C484.367816091954,349.78046103183317 492.5287356321839,349.78046103183317 500.6896551724138,349.78046103183317 C508.85057471264366,349.78046103183317 517.0114942528736,349.78046103183317 525.1724137931035,349.78046103183317 C533.3333333333334,349.78046103183317 541.4942528735633,349.78046103183317 549.6551724137931,349.78046103183317 C557.816091954023,349.78046103183317 565.9770114942529,349.78046103183317 574.1379310344828,349.78046103183317 C582.2988505747127,349.78046103183317 590.4597701149426,349.78046103183317 598.6206896551724,349.78046103183317 C606.7816091954023,349.78046103183317 614.9425287356322,349.78046103183317 623.1034482758621,349.78046103183317 C631.264367816092,349.78046103183317 639.4252873563219,349.78046103183317 647.5862068965517,349.78046103183317 C655.7471264367816,349.78046103183317 663.9080459770115,349.78046103183317 672.0689655172414,349.78046103183317 C680.2298850574713,349.78046103183317 688.3908045977012,349.78046103183317 696.551724137931,349.78046103183317 C704.7126436781609,349.78046103183317 712.8735632183908,349.78046103183317 721.0344827586207,349.78046103183317 C729.1954022988506,349.78046103183317 737.3563218390805,349.78046103183317 745.5172413793103,349.78046103183317 C753.6781609195402,349.78046103183317 761.8390804597701,349.78046103183317 770,349.78046103183317" fill="none" stroke="#3498db" stroke-width="2.5" class="data-line-3" />
  <path d="M60,349.8902305159166 C68.16091954022988,349.8902305159166 76.32183908045977,349.8902305159166 84.48275862068965,349.8902305159166 C92.64367816091954,349.8902305159166 100.80459770114942,349.8902305159166 108.9655172413793,349.8902305159166 C117.12643678160919,349.8902305159166 125.28735632183907,349.8902305159166 133.44827586206895,349.8902305159166 C141.60919540229884,349.8902305159166 149.77011494252872,349.8902305159166 157.9310344827586,349.8902305159166 C166.0919540229885,349.8902305159166 174.2528735632184,349.8902305159166 182.41379310344828,349.8902305159166 C190.57471264367817,349.8902305159166 198.73563218390805,349.8902305159166 206.89655172413794,349.8902305159166 C215.05747126436782,349.8902305159166 223.2183908045977,349.8902305159166 231.3793103448276,349.8902305159166 C239.54022988505747,349.8902305159166 247.70114942528735,349.8902305159166 255.86206896551724,349.8902305159166 C264.0229885057471,349.8902305159166 272.183908045977,349.8902305159166 280.34482758620686,349.8902305159166 C288.50574712643675,349.8902305159166 296.6666666666667,349.8902305159166 304.82758620689657,349.8902305159166 C312.98850574712645,349.8902305159166 321.14942528735634,349.8902305159166 329.3103448275862,349.8902305159166 C337.4712643678161,349.8902305159166 345.632183908046,349.8902305159166 353.7931034482759,349.8902305159166 C361.95402298850576,349.8902305159166 370.11494252873564,349.8902305159166 378.2758620689655,349.8902305159166 C386.4367816091954,349.8902305159166 394.5977011494253,349.8902305159166 402.7586206896552,349.8902305159166 C410.91954022988506,349.8902305159166 419.08045977011494,349.8902305159166 427.2413793103448,349.8902305159166 C435.4022988505747,349.8902305159166 443.5632183908046,349.8902305159166 451.7241379310345,349.8902305159166 C459.88505747126436,349.8902305159166 468.04597701149424,349.8902305159166 476.2068965517241,349.8902305159166 C484.367816091954,349.8902305159166 492.5287356321839,349.8902305159166 500.6896551724138,349.8902305159166 C508.85057471264366,349.8902305159166 517.0114942528736,349.8902305159166 525.1724137931035,349.8902305159166 C533.3333333333334,349.8902305159166 541.4942528735633,349.8902305159166 549.6551724137931,349.8902305159166 C557.816091954023,349.8902305159166 565.9770114942529,349.8902305159166 574.1379310344828,349.8902305159166 C582.2988505747127,349.8902305159166 590.4597701149426,349.8902305159166 598.6206896551724,349.8902305159166 C606.7816091954023,349.8902305159166 614.9425287356322,349.8902305159166 623.1034482758621,349.8902305159166 C631.264367816092,349.8902305159166 639.4252873563219,349.8902305159166 647.5862068965517,349.8902305159166 C655.7471264367816,349.8902305159166 663.9080459770115,349.8902305159166 672.0689655172414,349.8902305159166 C680.2298850574713,349.8902305159166 688.3908045977012,349.8902305159166 696.551724137931,349.8902305159166 C704.7126436781609,349.8902305159166 712.8735632183908,349.8902305159166 721.0344827586207,349.8902305159166 C729.1954022988506,349.8902305159166 737.3563218390805,349.8902305159166 745.5172413793103,349.8902305159166 C753.6781609195402,349.8902305159166 761.8390804597701,349.8902305159166 770,349.8902305159166" fill="none" stroke="#9b59b6" stroke-width="2.5" class="data-line-4" />
  <path d="M60,349.8902305159166 C68.16091954022988,349.8902305159166 76.32183908045977,349.8902305159166 84.48275862068965,349.8902305159166 C92.64367816091954,349.8902305159166 100.80459770114942,349.8902305159166 108.9655172413793,349.8902305159166 C117.12643678160919,349.8902305159166 125.28735632183907,349.8902305159166 133.44827586206895,349.8902305159166 C141.60919540229884,349.8902305159166 149.77011494252872,349.8902305159166 157.9310344827586,349.8902305159166 C166.0919540229885,349.8902305159166 174.2528735632184,349.8902305159166 182.41379310344828,349.8902305159166 C190.57471264367817,349.8902305159166 198.73563218390805,349.8902305159166 206.89655172413794,349.8902305159166 C215.05747126436782,349.8902305159166 223.2183908045977,349.8902305159166 231.3793103448276,349.8902305159166 C239.54022988505747,349.8902305159166 247.70114942528735,349.8902305159166 255.86206896551724,349.8902305159166 C264.0229885057471,349.8902305159166 272.183908045977,349.8902305159166 280.34482758620686,349.8902305159166 C288.50574712643675,349.8902305159166 296.6666666666667,349.8902305159166 304.82758620689657,349.8902305159166 C312.98850574712645,349.8902305159166 321.14942528735634,349.8902305159166 329.3103448275862,349.8902305159166 C337.4712643678161,349.8902305159166 345.632183908046,349.8902305159166 353.7931034482759,349.8902305159166 C361.95402298850576,349.8902305159166 370.11494252873564,349.8902305159166 378.2758620689655,349.8902305159166 C386.4367816091954,349.8902305159166 394.5977011494253,349.8902305159166 402.7586206896552,349.8902305159166 C410.91954022988506,349.8902305159166 419.08045977011494,349.8902305159166 427.2413793103448,349.8902305159166 C435.4022988505747,349.8902305159166 443.5632183908046,349.8902305159166 451.7241379310345,349.8902305159166 C459.88505747126436,349.8902305159166 468.04597701149424,349.8902305159166 476.2068965517241,349.8902305159166 C484.367816091954,349.8902305159166 492.5287356321839,349.8902305159166 500.6896551724138,349.8902305159166 C508.85057471264366,349.8902305159166 517.0114942528736,349.8902305159166 525.1724137931035,349.8902305159166 C533.3333333333334,349.8902305159166 541.4942528735633,349.8902305159166 549.6551724137931,349.8902305159166 C557.816091954023,349.8902305159166 565.9770114942529,349.8902305159166 574.1379310344828,349.8902305159166 C582.2988505747127,349.8902305159166 590.4597701149426,349.8902305159166 598.6206896551724,349.8902305159166 C606.7816091954023,349.8902305159166 614.9425287356322,349.8902305159166 623.1034482758621,349.8902305159166 C631.264367816092,349.8902305159166 639.4252873563219,349.8902305159166 647.5862068965517,349.8902305159166 C655.7471264367816,349.8902305159166 663.9080459770115,349.8902305159166 672.0689655172414,349.8902305159166 C680.2298850574713,349.8902305159166 688.3908045977012,349.8902305159166 696.551724137931,349.8902305159166 C704.7126436781609,349.8902305159166 712.8735632183908,349.8902305159166 721.0344827586207,349.8902305159166 C729.1954022988506,349.8902305159166 737.3563218390805,349.8902305159166 745.5172413793103,349.8902305159166 C753.6781609195402,349.8902305159166 761.8390804597701,349.8902305159166 770,349.8902305159166" fill="none" stroke="#e67e22" stroke-width="2.5" class="data-line-5" />
  <path d="M60,349.8902305159166 C68.16091954022988,349.8902305159166 76.32183908045977,349.8902305159166 84.48275862068965,349.8902305159166 C92.64367816091954,349.8902305159166 100.80459770114942,349.8902305159166 108.9655172413793,349.8902305159166 C117.12643678160919,349.8902305159166 125.28735632183907,349.8902305159166 133.44827586206895,349.8902305159166 C141.60919540229884,349.8902305159166 149.77011494252872,349.8902305159166 157.9310344827586,349.8902305159166 C166.0919540229885,349.8902305159166 174.2528735632184,349.8902305159166 182.41379310344828,349.8902305159166 C190.57471264367817,349.8902305159166 198.73563218390805,349.8902305159166 206.89655172413794,349.8902305159166 C215.05747126436782,349.8902305159166 223.2183908045977,349.8902305159166 231.3793103448276,349.8902305159166 C239.54022988505747,349.8902305159166 247.70114942528735,349.8902305159166 255.86206896551724,349.8902305159166 C264.0229885057471,349.8902305159166 272.183908045977,349.8902305159166 280.34482758620686,349.8902305159166 C288.50574712643675,349.8902305159166 296.6666666666667,349.8902305159166 304.82758620689657,349.8902305159166 C312.98850574712645,349.8902305159166 321.14942528735634,349.8902305159166 329.3103448275862,349.8902305159166 C337.4712643678161,349.8902305159166 345.632183908046,349.8902305159166 353.7931034482759,349.8902305159166 C361.95402298850576,349.8902305159166 370.11494252873564,349.8902305159166 378.2758620689655,349.8902305159166 C386.4367816091954,349.8902305159166 394.5977011494253,349.8902305159166 402.7586206896552,349.8902305159166 C410.91954022988506,349.8902305159166 419.08045977011494,349.8902305159166 427.2413793103448,349.8902305159166 C435.4022988505747,349.8902305159166 443.5632183908046,349.8902305159166 451.7241379310345,349.8902305159166 C459.88505747126436,349.8902305159166 468.04597701149424,349.8902305159166 476.2068965517241,349.8902305159166 C484.367816091954,349.8902305159166 492.5287356321839,349.8902305159166 500.6896551724138,349.8902305159166 C508.85057471264366,349.8902305159166 517.0114942528736,349.8902305159166 525.1724137931035,349.8902305159166 C533.3333333333334,349.8902305159166 541.4942528735633,349.8902305159166 549.6551724137931,349.8902305159166 C557.816091954023,349.8902305159166 565.9770114942529,349.8902305159166 574.1379310344828,349.8902305159166 C582.2988505747127,349.8902305159166 590.4597701149426,349.8902305159166 598.6206896551724,349.8902305159166 C606.7816091954023,349.8902305159166 614.9425287356322,349.8902305159166 623.1034482758621,349.8902305159166 C631.264367816092,349.8902305159166 639.4252873563219,349.8902305159166 647.5862068965517,349.8902305159166 C655.7471264367816,349.8902305159166 663.9080459770115,349.8902305159166 672.0689655172414,349.8902305159166 C680.2298850574713,349.8902305159166 688.3908045977012,349.8902305159166 696.551724137931,349.8902305159166 C704.7126436781609,349.8902305159166 712.8735632183908,349.8902305159166 721.0344827586207,349.8902305159166 C729.1954022988506,349.8902305159166 737.3563218390805,349.8902305159166 745.5172413793103,349.8902305159166 C753.6781609195402,349.8902305159166 761.8390804597701,349.8902305159166 770,349.8902305159166" fill="none" stroke="#1abc9c" stroke-width="2.5" class="data-line-6" />
  <path d="M60,349.8902305159166 C68.16091954022988,349.8902305159166 76.32183908045977,349.8902305159166 84.48275862068965,349.8902305159166 C92.64367816091954,349.8902305159166 100.80459770114942,349.8902305159166 108.9655172413793,349.8902305159166 C117.12643678160919,349.8902305159166 125.28735632183907,349.8902305159166 133.44827586206895,349.8902305159166 C141.60919540229884,349.8902305159166 149.77011494252872,349.8902305159166 157.9310344827586,349.8902305159166 C166.0919540229885,349.8902305159166 174.2528735632184,349.8902305159166 182.41379310344828,349.8902305159166 C190.57471264367817,349.8902305159166 198.73563218390805,349.8902305159166 206.89655172413794,349.8902305159166 C215.05747126436782,349.8902305159166 223.2183908045977,349.8902305159166 231.3793103448276,349.8902305159166 C239.54022988505747,349.8902305159166 247.70114942528735,349.8902305159166 255.86206896551724,349.8902305159166 C264.0229885057471,349.8902305159166 272.183908045977,349.8902305159166 280.34482758620686,349.8902305159166 C288.50574712643675,349.8902305159166 296.6666666666667,349.8902305159166 304.82758620689657,349.8902305159166 C312.98850574712645,349.8902305159166 321.14942528735634,349.8902305159166 329.3103448275862,349.8902305159166 C337.4712643678161,349.8902305159166 345.632183908046,349.8902305159166 353.7931034482759,349.8902305159166 C361.95402298850576,349.8902305159166 370.11494252873564,349.8902305159166 378.2758620689655,349.8902305159166 C386.4367816091954,349.8902305159166 394.5977011494253,349.8902305159166 402.7586206896552,349.8902305159166 C410.91954022988506,349.8902305159166 419.08045977011494,349.8902305159166 427.2413793103448,349.8902305159166 C435.4022988505747,349.8902305159166 443.5632183908046,349.8902305159166 451.7241379310345,349.8902305159166 C459.88505747126436,349.8902305159166 468.04597701149424,349.8902305159166 476.2068965517241,349.8902305159166 C484.367816091954,349.8902305159166 492.5287356321839,349.8902305159166 500.6896551724138,349.8902305159166 C508.85057471264366,349.8902305159166 517.0114942528736,349.8902305159166 525.1724137931035,349.8902305159166 C533.3333333333334,349.8902305159166 541.4942528735633,349.8902305159166 549.6551724137931,349.8902305159166 C557.816091954023,349.8902305159166 565.9770114942529,349.8902305159166 574.1379310344828,349.8902305159166 C582.2988505747127,349.8902305159166 590.4597701149426,349.8902305159166 598.6206896551724,349.8902305159166 C606.7816091954023,349.8902305159166 614.9425287356322,349.8902305159166 623.1034482758621,349.8902305159166 C631.264367816092,349.8902305159166 639.4252873563219,349.8902305159166 647.5862068965517,349.8902305159166 C655.7471264367816,349.8902305159166 663.9080459770115,349.8902305159166 672.0689655172414,349.8902305159166 C680.2298850574713,349.8902305159166 688.3908045977012,349.8902305159166 696.551724137931,349.8902305159166 C704.7126436781609,349.8902305159166 712.8735632183908,349.8902305159166 721.0344827586207,349.8902305159166 C729.1954022988506,349.8902305159166 737.3563218390805,349.8902305159166 745.5172413793103,349.8902305159166 C753.6781609195402,349.8902305159166 761.8390804597701,349.8902305159166 770,349.8902305159166" fill="none" stroke="#e84393" stroke-width="2.5" class="data-line-7" />
  <path d="M60,350 C68.16091954022988,350 76.32183908045977,350 84.48275862068965,350 C92.64367816091954,350 100.80459770114942,350 108.9655172413793,350 C117.12643678160919,350 125.28735632183907,350 133.44827586206895,350 C141.60919540229884,350 149.77011494252872,350 157.9310344827586,350 C166.0919540229885,350 174.2528735632184,350 182.41379310344828,350 C190.57471264367817,350 198.73563218390805,350 206.89655172413794,350 C215.05747126436782,350 223.2183908045977,350 231.3793103448276,350 C239.54022988505747,350 247.70114942528735,350 255.86206896551724,350 C264.0229885057471,350 272.183908045977,350 280.34482758620686,350 C288.50574712643675,350 296.6666666666667,350 304.82758620689657,350 C312.98850574712645,350 321.14942528735634,350 329.3103448275862,350 C337.4712643678161,350 345.632183908046,350 353.7931034482759,350 C361.95402298850576,350 370.11494252873564,350 378.2758620689655,350 C386.4367816091954,350 394.5977011494253,350 402.7586206896552,350 C410.91954022988506,350 419.08045977011494,350 427.2413793103448,350 C435.4022988505747,350 443.5632183908046,350 451.7241379310345,350 C459.88505747126436,350 468.04597701149424,350 476.2068965517241,350 C484.367816091954,350 492.5287356321839,350 500.6896551724138,350 C508.85057471264366,350 517.0114942528736,350 525.1724137931035,350 C533.3333333333334,350 541.4942528735633,350 549.6551724137931,350 C557.816091954023,350 565.9770114942529,350 574.1379310344828,350 C582.2988505747127,350 590.4597701149426,350 598.6206896551724,350 C606.7816091954023,350 614.9425287356322,350 623.1034482758621,350 C631.264367816092,350 639.4252873563219,350 647.5862068965517,350 C655.7471264367816,350 663.9080459770115,350 672.0689655172414,350 C680.2298850574713,350 688.3908045977012,350 696.551724137931,350 C704.7126436781609,350 712.8735632183908,350 721.0344827586207,350 C729.1954022988506,350 737.3563218390805,350 745.5172413793103,350 C753.6781609195402,350 761.8390804597701,350 770,350" fill="none" stroke="#795548" stroke-width="2.5" class="data-line-8" />
  <path d="M60,350 C68.16091954022988,350 76.32183908045977,350 84.48275862068965,350 C92.64367816091954,350 100.80459770114942,350 108.9655172413793,350 C117.12643678160919,350 125.28735632183907,350 133.44827586206895,350 C141.60919540229884,350 149.77011494252872,350 157.9310344827586,350 C166.0919540229885,350 174.2528735632184,350 182.41379310344828,350 C190.57471264367817,350 198.73563218390805,350 206.89655172413794,350 C215.05747126436782,350 223.2183908045977,350 231.3793103448276,350 C239.54022988505747,350 247.70114942528735,350 255.86206896551724,350 C264.0229885057471,350 272.183908045977,350 280.34482758620686,350 C288.50574712643675,350 296.6666666666667,350 304.82758620689657,350 C312.98850574712645,350 321.14942528735634,350 329.3103448275862,350 C337.4712643678161,350 345.632183908046,350 353.7931034482759,350 C361.95402298850576,350 370.11494252873564,350 378.2758620689655,350 C386.4367816091954,350 394.5977011494253,350 402.7586206896552,350 C410.91954022988506,350 419.08045977011494,350 427.2413793103448,350 C435.4022988505747,350 443.5632183908046,350 451.7241379310345,350 C459.88505747126436,350 468.04597701149424,350 476.2068965517241,350 C484.367816091954,350 492.5287356321839,350 500.6896551724138,350 C508.85057471264366,350 517.0114942528736,350 525.1724137931035,350 C533.3333333333334,350 541.4942528735633,350 549.6551724137931,350 C557.816091954023,350 565.9770114942529,350 574.1379310344828,350 C582.2988505747127,350 590.4597701149426,350 598.6206896551724,350 C606.7816091954023,350 614.9425287356322,350 623.1034482758621,350 C631.264367816092,350 639.4252873563219,350 647.5862068965517,350 C655.7471264367816,350 663.9080459770115,350 672.0689655172414,350 C680.2298850574713,350 688.3908045977012,350 696.551724137931,350 C704.7126436781609,350 712.8735632183908,350 721.0344827586207,350 C729.1954022988506,350 737.3563218390805,350 745.5172413793103,350 C753.6781609195402,350 761.8390804597701,350 770,350" fill="none" stroke="#00bcd4" stroke-width="2.5" class="data-line-9" />
  <g class="points">
    
    <circle cx="60" cy="349.8902305159166" r="4" fill="#dfb317" class="data-point" style="animation-delay: 1.50s" />
    <circle cx="84.48275862068965" cy="342.20636663007684" r="4" fill="#dfb317" class="data-point" style="animation-delay: 1.55s" />
    <circle cx="108.9655172413793" cy="338.25466520307356" r="4" fill="#dfb317" class="data-point" style="animation-delay: 1.60s" />
    <circle cx="133.44827586206895" cy="334.6322722283205" r="4" fill="#dfb317" class="data-point" style="animation-delay: 1.65s" />
    <circle cx="157.9310344827586" cy="331.3391877058178" r="4" fill="#dfb317" class="data-point" style="animation-delay: 1.70s" />
    <circle cx="182.41379310344828" cy="326.83863885839736" r="4" fill="#dfb317" class="data-point" style="animation-delay: 1.75s" />
    <circle cx="206.89655172413794" cy="323.3260153677278" r="4" fill="#dfb317" class="data-point" style="animation-delay: 1.80s" />
    <circle cx="231.3793103448276" cy="320.91108671789243" r="4" fill="#dfb317" class="data-point" style="animation-delay: 1.85s" />
    <circle cx="255.86206896551724" cy="318.9352360043908" r="4" fill="#dfb317" class="data-point" style="animation-delay: 1.90s" />
    <circle cx="280.34482758620686" cy="316.5203073545554" r="4" fill="#dfb317" class="data-point" style="animation-delay: 1.95s" />
    <circle cx="304.82758620689657" cy="310.92206366630074" r="4" fill="#dfb317" class="data-point" style="animation-delay: 2.00s" />
    <circle cx="329.3103448275862" cy="309.0559824368826" r="4" fill="#dfb317" class="data-point" style="animation-delay: 2.05s" />
    <circle cx="353.7931034482759" cy="306.4215148188804" r="4" fill="#dfb317" class="data-point" style="animation-delay: 2.10s" />
    <circle cx="378.2758620689655" cy="303.0186608122942" r="4" fill="#dfb317" class="data-point" style="animation-delay: 2.15s" />
    <circle cx="402.7586206896552" cy="296.3227222832053" r="4" fill="#dfb317" class="data-point" style="animation-delay: 2.20s" />
    <circle cx="427.2413793103448" cy="285.4555433589462" r="4" fill="#dfb317" class="data-point" style="animation-delay: 2.25s" />
    <circle cx="451.7241379310345" cy="260.86717892425906" r="4" fill="#dfb317" class="data-point" style="animation-delay: 2.30s" />
    <circle cx="476.2068965517241" cy="240.34028540065862" r="4" fill="#dfb317" class="data-point" style="animation-delay: 2.35s" />
    <circle cx="500.6896551724138" cy="224.31394072447858" r="4" fill="#dfb317" class="data-point" style="animation-delay: 2.40s" />
    <circle cx="525.1724137931035" cy="206.09220636663008" r="4" fill="#dfb317" class="data-point" style="animation-delay: 2.45s" />
    <circle cx="549.6551724137931" cy="193.90779363336992" r="4" fill="#dfb317" class="data-point" style="animation-delay: 2.50s" />
    <circle cx="574.1379310344828" cy="179.96706915477495" r="4" fill="#dfb317" class="data-point" style="animation-delay: 2.55s" />
    <circle cx="598.6206896551724" cy="167.45334796926454" r="4" fill="#dfb317" class="data-point" style="animation-delay: 2.60s" />
    <circle cx="623.1034482758621" cy="154.93962678375414" r="4" fill="#dfb317" class="data-point" style="animation-delay: 2.65s" />
    <circle cx="647.5862068965517" cy="142.75521405049398" r="4" fill="#dfb317" class="data-point" style="animation-delay: 2.70s" />
    <circle cx="672.0689655172414" cy="130.35126234906696" r="4" fill="#dfb317" class="data-point" style="animation-delay: 2.75s" />
    <circle cx="696.551724137931" cy="120.25246981339188" r="4" fill="#dfb317" class="data-point" style="animation-delay: 2.80s" />
    <circle cx="721.0344827586207" cy="107.40944017563118" r="4" fill="#dfb317" class="data-point" style="animation-delay: 2.85s" />
    <circle cx="745.5172413793103" cy="92.59055982436882" r="4" fill="#dfb317" class="data-point" style="animation-delay: 2.90s" />
    <circle cx="770" cy="77.33260153677281" r="4" fill="#dfb317" class="data-point" style="animation-delay: 2.95s" />
    
    <circle cx="60" cy="349.6706915477497" r="4" fill="#28a745" class="data-point" style="animation-delay: 1.50s" />
    <circle cx="84.48275862068965" cy="349.6706915477497" r="4" fill="#28a745" class="data-point" style="animation-delay: 1.55s" />
    <circle cx="108.9655172413793" cy="349.6706915477497" r="4" fill="#28a745" class="data-point" style="animation-delay: 1.60s" />
    <circle cx="133.44827586206895" cy="349.6706915477497" r="4" fill="#28a745" class="data-point" style="animation-delay: 1.65s" />
    <circle cx="157.9310344827586" cy="349.6706915477497" r="4" fill="#28a745" class="data-point" style="animation-delay: 1.70s" />
    <circle cx="182.41379310344828" cy="349.6706915477497" r="4" fill="#28a745" class="data-point" style="animation-delay: 1.75s" />
    <circle cx="206.89655172413794" cy="349.6706915477497" r="4" fill="#28a745" class="data-point" style="animation-delay: 1.80s" />
    <circle cx="231.3793103448276" cy="349.6706915477497" r="4" fill="#28a745" class="data-point" style="animation-delay: 1.85s" />
    <circle cx="255.86206896551724" cy="349.6706915477497" r="4" fill="#28a745" class="data-point" style="animation-delay: 1.90s" />
    <circle cx="280.34482758620686" cy="349.6706915477497" r="4" fill="#28a745" class="data-point" style="animation-delay: 1.95s" />
    <circle cx="304.82758620689657" cy="349.6706915477497" r="4" fill="#28a745" class="data-point" style="animation-delay: 2.00s" />
    <circle cx="329.3103448275862" cy="349.6706915477497" r="4" fill="#28a745" class="data-point" style="animation-delay: 2.05s" />
    <circle cx="353.7931034482759" cy="349.6706915477497" r="4" fill="#28a745" class="data-point" style="animation-delay: 2.10s" />
    <circle cx="378.2758620689655" cy="349.6706915477497" r="4" fill="#28a745" class="data-point" style="animation-delay: 2.15s" />
    <circle cx="402.7586206896552" cy="349.6706915477497" r="4" fill="#28a745" class="data-point" style="animation-delay: 2.20s" />
    <circle cx="427.2413793103448" cy="349.6706915477497" r="4" fill="#28a745" class="data-point" style="animation-delay: 2.25s" />
    <circle cx="451.7241379310345" cy="349.6706915477497" r="4" fill="#28a745" class="data-point" style="animation-delay: 2.30s" />
    <circle cx="476.2068965517241" cy="349.6706915477497" r="4" fill="#28a745" class="data-point" style="animation-delay: 2.35s" />
    <circle cx="500.6896551724138" cy="349.6706915477497" r="4" fill="#28a745" class="data-point" style="animation-delay: 2.40s" />
    <circle cx="525.1724137931035" cy="349.6706915477497" r="4" fill="#28a745" class="data-point" style="animation-delay: 2.45s" />
    <circle cx="549.6551724137931" cy="349.6706915477497" r="4" fill="#28a745" class="data-point" style="animation-delay: 2.50s" />
    <circle cx="574.1379310344828" cy="349.6706915477497" r="4" fill="#28a745" class="data-point" style="animation-delay: 2.55s" />
    <circle cx="598.6206896551724" cy="349.6706915477497" r="4" fill="#28a745" class="data-point" style="animation-delay: 2.60s" />
    <circle cx="623.1034482758621" cy="349.6706915477497" r="4" fill="#28a745" class="data-point" style="animation-delay: 2.65s" />
    <circle cx="647.5862068965517" cy="349.6706915477497" r="4" fill="#28a745" class="data-point" style="animation-delay: 2.70s" />
    <circle cx="672.0689655172414" cy="349.6706915477497" r="4" fill="#28a745" class="data-point" style="animation-delay: 2.75s" />
    <circle cx="696.551724137931" cy="349.6706915477497" r="4" fill="#28a745" class="data-point" style="animation-delay: 2.80s" />
    <circle cx="721.0344827586207" cy="349.6706915477497" r="4" fill="#28a745" class="data-point" style="animation-delay: 2.85s" />
    <circle cx="745.5172413793103" cy="349.6706915477497" r="4" fill="#28a745" class="data-point" style="animation-delay: 2.90s" />
    <circle cx="770" cy="349.6706915477497" r="4" fill="#28a745" class="data-point" style="animation-delay: 2.95s" />
    
    <circle cx="60" cy="349.78046103183317" r="4" fill="#e74c3c" class="data-point" style="animation-delay: 1.50s" />
    <circle cx="84.48275862068965" cy="349.78046103183317" r="4" fill="#e74c3c" class="data-point" style="animation-delay: 1.55s" />
    <circle cx="108.9655172413793" cy="349.78046103183317" r="4" fill="#e74c3c" class="data-point" style="animation-delay: 1.60s" />
    <circle cx="133.44827586206895" cy="349.78046103183317" r="4" fill="#e74c3c" class="data-point" style="animation-delay: 1.65s" />
    <circle cx="157.9310344827586" cy="349.78046103183317" r="4" fill="#e74c3c" class="data-point" style="animation-delay: 1.70s" />
    <circle cx="182.41379310344828" cy="349.78046103183317" r="4" fill="#e74c3c" class="data-point" style="animation-delay: 1.75s" />
    <circle cx="206.89655172413794" cy="349.78046103183317" r="4" fill="#e74c3c" class="data-point" style="animation-delay: 1.80s" />
    <circle cx="231.3793103448276" cy="349.78046103183317" r="4" fill="#e74c3c" class="data-point" style="animation-delay: 1.85s" />
    <circle cx="255.86206896551724" cy="349.78046103183317" r="4" fill="#e74c3c" class="data-point" style="animation-delay: 1.90s" />
    <circle cx="280.34482758620686" cy="349.78046103183317" r="4" fill="#e74c3c" class="data-point" style="animation-delay: 1.95s" />
    <circle cx="304.82758620689657" cy="349.78046103183317" r="4" fill="#e74c3c" class="data-point" style="animation-delay: 2.00s" />
    <circle cx="329.3103448275862" cy="349.78046103183317" r="4" fill="#e74c3c" class="data-point" style="animation-delay: 2.05s" />
    <circle cx="353.7931034482759" cy="349.78046103183317" r="4" fill="#e74c3c" class="data-point" style="animation-delay: 2.10s" />
    <circle cx="378.2758620689655" cy="349.78046103183317" r="4" fill="#e74c3c" class="data-point" style="animation-delay: 2.15s" />
    <circle cx="402.7586206896552" cy="349.78046103183317" r="4" fill="#e74c3c" class="data-point" style="animation-delay: 2.20s" />
    <circle cx="427.2413793103448" cy="349.78046103183317" r="4" fill="#e74c3c" class="data-point" style="animation-delay: 2.25s" />
    <circle cx="451.7241379310345" cy="349.78046103183317" r="4" fill="#e74c3c" class="data-point" style="animation-delay: 2.30s" />
    <circle cx="476.2068965517241" cy="349.78046103183317" r="4" fill="#e74c3c" class="data-point" style="animation-delay: 2.35s" />
    <circle cx="500.6896551724138" cy="349.78046103183317" r="4" fill="#e74c3c" class="data-point" style="animation-delay: 2.40s" />
    <circle cx="525.1724137931035" cy="349.78046103183317" r="4" fill="#e74c3c" class="data-point" style="animation-delay: 2.45s" />
    <circle cx="549.6551724137931" cy="349.78046103183317" r="4" fill="#e74c3c" class="data-point" style="animation-delay: 2.50s" />
    <circle cx="574.1379310344828" cy="349.78046103183317" r="4" fill="#e74c3c" class="data-point" style="animation-delay: 2.55s" />
    <circle cx="598.6206896551724" cy="349.78046103183317" r="4" fill="#e74c3c" class="data-point" style="animation-delay: 2.60s" />
    <circle cx="623.1034482758621" cy="349.78046103183317" r="4" fill="#e74c3c" class="data-point" style="animation-delay: 2.65s" />
    <circle cx="647.5862068965517" cy="349.78046103183317" r="4" fill="#e74c3c" class="data-point" style="animation-delay: 2.70s" />
    <circle cx="672.0689655172414" cy="349.78046103183317" r="4" fill="#e74c3c" class="data-point" style="animation-delay: 2.75s" />
    <circle cx="696.551724137931" cy="349.78046103183317" r="4" fill="#e74c3c" class="data-point" style="animation-delay: 2.80s" />
    <circle cx="721.0344827586207" cy="349.78046103183317" r="4" fill="#e74c3c" class="data-point" style="animation-delay: 2.85s" />
    <circle cx="745.5172413793103" cy="349.78046103183317" r="4" fill="#e74c3c" class="data-point" style="animation-delay: 2.90s" />
    <circle cx="770" cy="349.78046103183317" r="4" fill="#e74c3c" class="data-point" style="animation-delay: 2.95s" />
    
    <circle cx="60" cy="349.78046103183317" r="4" fill="#3498db" class="data-point" style="animation-delay: 1.50s" />
    <circle cx="84.48275862068965" cy="349.78046103183317" r="4" fill="#3498db" class="data-point" style="animation-delay: 1.55s" />
    <circle cx="108.9655172413793" cy="349.78046103183317" r="4" fill="#3498db" class="data-point" style="animation-delay: 1.60s" />
    <circle cx="133.44827586206895" cy="349.78046103183317" r="4" fill="#3498db" class="data-point" style="animation-delay: 1.65s" />
    <circle cx="157.9310344827586" cy="349.78046103183317" r="4" fill="#3498db" class="data-point" style="animation-delay: 1.70s" />
    <circle cx="182.41379310344828" cy="349.78046103183317" r="4" fill="#3498db" class="data-point" style="animation-delay: 1.75s" />
    <circle cx="206.89655172413794" cy="349.78046103183317" r="4" fill="#3498db" class="data-point" style="animation-delay: 1.80s" />
    <circle cx="231.3793103448276" cy="349.78046103183317" r="4" fill="#3498db" class="data-point" style="animation-delay: 1.85s" />
    <circle cx="255.86206896551724" cy="349.78046103183317" r="4" fill="#3498db" class="data-point" style="animation-delay: 1.90s" />
    <circle cx="280.34482758620686" cy="349.78046103183317" r="4" fill="#3498db" class="data-point" style="animation-delay: 1.95s" />
    <circle cx="304.82758620689657" cy="349.78046103183317" r="4" fill="#3498db" class="data-point" style="animation-delay: 2.00s" />
    <circle cx="329.3103448275862" cy="349.78046103183317" r="4" fill="#3498db" class="data-point" style="animation-delay: 2.05s" />
    <circle cx="353.7931034482759" cy="349.78046103183317" r="4" fill="#3498db" class="data-point" style="animation-delay: 2.10s" />
    <circle cx="378.2758620689655" cy="349.78046103183317" r="4" fill="#3498db" class="data-point" style="animation-delay: 2.15s" />
    <circle cx="402.7586206896552" cy="349.78046103183317" r="4" fill="#3498db" class="data-point" style="animation-delay: 2.20s" />
    <circle cx="427.2413793103448" cy="349.78046103183317" r="4" fill="#3498db" class="data-point" style="animation-delay: 2.25s" />
    <circle cx="451.7241379310345" cy="349.78046103183317" r="4" fill="#3498db" class="data-point" style="animation-delay: 2.30s" />
    <circle cx="476.2068965517241" cy="349.78046103183317" r="4" fill="#3498db" class="data-point" style="animation-delay: 2.35s" />
    <circle cx="500.6896551724138" cy="349.78046103183317" r="4" fill="#3498db" class="data-point" style="animation-delay: 2.40s" />
    <circle cx="525.1724137931035" cy="349.78046103183317" r="4" fill="#3498db" class="data-point" style="animation-delay: 2.45s" />
    <circle cx="549.6551724137931" cy="349.78046103183317" r="4" fill="#3498db" class="data-point" style="animation-delay: 2.50s" />
    <circle cx="574.1379310344828" cy="349.78046103183317" r="4" fill="#3498db" class="data-point" style="animation-delay: 2.55s" />
    <circle cx="598.6206896551724" cy="349.78046103183317" r="4" fill="#3498db" class="data-point" style="animation-delay: 2.60s" />
    <circle cx="623.1034482758621" cy="349.78046103183317" r="4" fill="#3498db" class="data-point" style="animation-delay: 2.65s" />
    <circle cx="647.5862068965517" cy="349.78046103183317" r="4" fill="#3498db" class="data-point" style="animation-delay: 2.70s" />
    <circle cx="672.0689655172414" cy="349.78046103183317" r="4" fill="#3498db" class="data-point" style="animation-delay: 2.75s" />
    <circle cx="696.551724137931" cy="349.78046103183317" r="4" fill="#3498db" class="data-point" style="animation-delay: 2.80s" />
    <circle cx="721.0344827586207" cy="349.78046103183317" r="4" fill="#3498db" class="data-point" style="animation-delay: 2.85s" />
    <circle cx="745.5172413793103" cy="349.78046103183317" r="4" fill="#3498db" class="data-point" style="animation-delay: 2.90s" />
    <circle cx="770" cy="349.78046103183317" r="4" fill="#3498db" class="data-point" style="animation-delay: 2.95s" />
    
    <circle cx="60" cy="349.8902305159166" r="4" fill="#9b59b6" class="data-point" style="animation-delay: 1.50s" />
    <circle cx="84.48275862068965" cy="349.8902305159166" r="4" fill="#9b59b6" class="data-point" style="animation-delay: 1.55s" />
    <circle cx="108.9655172413793" cy="349.8902305159166" r="4" fill="#9b59b6" class="data-point" style="animation-delay: 1.60s" />
    <circle cx="133.44827586206895" cy="349.8902305159166" r="4" fill="#9b59b6" class="data-point" style="animation-delay: 1.65s" />
    <circle cx="157.9310344827586" cy="349.8902305159166" r="4" fill="#9b59b6" class="data-point" style="animation-delay: 1.70s" />
    <circle cx="182.41379310344828" cy="349.8902305159166" r="4" fill="#9b59b6" class="data-point" style="animation-delay: 1.75s" />
    <circle cx="206.89655172413794" cy="349.8902305159166" r="4" fill="#9b59b6" class="data-point" style="animation-delay: 1.80s" />
    <circle cx="231.3793103448276" cy="349.8902305159166" r="4" fill="#9b59b6" class="data-point" style="animation-delay: 1.85s" />
    <circle cx="255.86206896551724" cy="349.8902305159166" r="4" fill="#9b59b6" class="data-point" style="animation-delay: 1.90s" />
    <circle cx="280.34482758620686" cy="349.8902305159166" r="4" fill="#9b59b6" class="data-point" style="animation-delay: 1.95s" />
    <circle cx="304.82758620689657" cy="349.8902305159166" r="4" fill="#9b59b6" class="data-point" style="animation-delay: 2.00s" />
    <circle cx="329.3103448275862" cy="349.8902305159166" r="4" fill="#9b59b6" class="data-point" style="animation-delay: 2.05s" />
    <circle cx="353.7931034482759" cy="349.8902305159166" r="4" fill="#9b59b6" class="data-point" style="animation-delay: 2.10s" />
    <circle cx="378.2758620689655" cy="349.8902305159166" r="4" fill="#9b59b6" class="data-point" style="animation-delay: 2.15s" />
    <circle cx="402.7586206896552" cy="349.8902305159166" r="4" fill="#9b59b6" class="data-point" style="animation-delay: 2.20s" />
    <circle cx="427.2413793103448" cy="349.8902305159166" r="4" fill="#9b59b6" class="data-point" style="animation-delay: 2.25s" />
    <circle cx="451.7241379310345" cy="349.8902305159166" r="4" fill="#9b59b6" class="data-point" style="animation-delay: 2.30s" />
    <circle cx="476.2068965517241" cy="349.8902305159166" r="4" fill="#9b59b6" class="data-point" style="animation-delay: 2.35s" />
    <circle cx="500.6896551724138" cy="349.8902305159166" r="4" fill="#9b59b6" class="data-point" style="animation-delay: 2.40s" />
    <circle cx="525.1724137931035" cy="349.8902305159166" r="4" fill="#9b59b6" class="data-point" style="animation-delay: 2.45s" />
    <circle cx="549.6551724137931" cy="349.8902305159166" r="4" fill="#9b59b6" class="data-point" style="animation-delay: 2.50s" />
    <circle cx="574.1379310344828" cy="349.8902305159166" r="4" fill="#9b59b6" class="data-point" style="animation-delay: 2.55s" />
    <circle cx="598.6206896551724" cy="349.8902305159166" r="4" fill="#9b59b6" class="data-point" style="animation-delay: 2.60s" />
    <circle cx="623.1034482758621" cy="349.8902305159166" r="4" fill="#9b59b6" class="data-point" style="animation-delay: 2.65s" />
    <circle cx="647.5862068965517" cy="349.8902305159166" r="4" fill="#9b59b6" class="data-point" style="animation-delay: 2.70s" />
    <circle cx="672.0689655172414" cy="349.8902305159166" r="4" fill="#9b59b6" class="data-point" style="animation-delay: 2.75s" />
    <circle cx="696.551724137931" cy="349.8902305159166" r="4" fill="#9b59b6" class="data-point" style="animation-delay: 2.80s" />
    <circle cx="721.0344827586207" cy="349.8902305159166" r="4" fill="#9b59b6" class="data-point" style="animation-delay: 2.85s" />
    <circle cx="745.5172413793103" cy="349.8902305159166" r="4" fill="#9b59b6" class="data-point" style="animation-delay: 2.90s" />
    <circle cx="770" cy="349.8902305159166" r="4" fill="#9b59b6" class="data-point" style="animation-delay: 2.95s" />
    
    <circle cx="60" cy="349.8902305159166" r="4" fill="#e67e22" class="data-point" style="animation-delay: 1.50s" />
    <circle cx="84.48275862068965" cy="349.8902305159166" r="4" fill="#e67e22" class="data-point" style="animation-delay: 1.55s" />
    <circle cx="108.9655172413793" cy="349.8902305159166" r="4" fill="#e67e22" class="data-point" style="animation-delay: 1.60s" />
    <circle cx="133.44827586206895" cy="349.8902305159166" r="4" fill="#e67e22" class="data-point" style="animation-delay: 1.65s" />
    <circle cx="157.9310344827586" cy="349.8902305159166" r="4" fill="#e67e22" class="data-point" style="animation-delay: 1.70s" />
    <circle cx="182.41379310344828" cy="349.8902305159166" r="4" fill="#e67e22" class="data-point" style="animation-delay: 1.75s" />
    <circle cx="206.89655172413794" cy="349.8902305159166" r="4" fill="#e67e22" class="data-point" style="animation-delay: 1.80s" />
    <circle cx="231.3793103448276" cy="349.8902305159166" r="4" fill="#e67e22" class="data-point" style="animation-delay: 1.85s" />
    <circle cx="255.86206896551724" cy="349.8902305159166" r="4" fill="#e67e22" class="data-point" style="animation-delay: 1.90s" />
    <circle cx="280.34482758620686" cy="349.8902305159166" r="4" fill="#e67e22" class="data-point" style="animation-delay: 1.95s" />
    <circle cx="304.82758620689657" cy="349.8902305159166" r="4" fill="#e67e22" class="data-point" style="animation-delay: 2.00s" />
    <circle cx="329.3103448275862" cy="349.8902305159166" r="4" fill="#e67e22" class="data-point" style="animation-delay: 2.05s" />
    <circle cx="353.7931034482759" cy="349.8902305159166" r="4" fill="#e67e22" class="data-point" style="animation-delay: 2.10s" />
    <circle cx="378.2758620689655" cy="349.8902305159166" r="4" fill="#e67e22" class="data-point" style="animation-delay: 2.15s" />
    <circle cx="402.7586206896552" cy="349.8902305159166" r="4" fill="#e67e22" class="data-point" style="animation-delay: 2.20s" />
    <circle cx="427.2413793103448" cy="349.8902305159166" r="4" fill="#e67e22" class="data-point" style="animation-delay: 2.25s" />
    <circle cx="451.7241379310345" cy="349.8902305159166" r="4" fill="#e67e22" class="data-point" style="animation-delay: 2.30s" />
    <circle cx="476.2068965517241" cy="349.8902305159166" r="4" fill="#e67e22" class="data-point" style="animation-delay: 2.35s" />
    <circle cx="500.6896551724138" cy="349.8902305159166" r="4" fill="#e67e22" class="data-point" style="animation-delay: 2.40s" />
    <circle cx="525.1724137931035" cy="349.8902305159166" r="4" fill="#e67e22" class="data-point" style="animation-delay: 2.45s" />
    <circle cx="549.6551724137931" cy="349.8902305159166" r="4" fill="#e67e22" class="data-point" style="animation-delay: 2.50s" />
    <circle cx="574.1379310344828" cy="349.8902305159166" r="4" fill="#e67e22" class="data-point" style="animation-delay: 2.55s" />
    <circle cx="598.6206896551724" cy="349.8902305159166" r="4" fill="#e67e22" class="data-point" style="animation-delay: 2.60s" />
    <circle cx="623.1034482758621" cy="349.8902305159166" r="4" fill="#e67e22" class="data-point" style="animation-delay: 2.65s" />
    <circle cx="647.5862068965517" cy="349.8902305159166" r="4" fill="#e67e22" class="data-point" style="animation-delay: 2.70s" />
    <circle cx="672.0689655172414" cy="349.8902305159166" r="4" fill="#e67e22" class="data-point" style="animation-delay: 2.75s" />
    <circle cx="696.551724137931" cy="349.8902305159166" r="4" fill="#e67e22" class="data-point" style="animation-delay: 2.80s" />
    <circle cx="721.0344827586207" cy="349.8902305159166" r="4" fill="#e67e22" class="data-point" style="animation-delay: 2.85s" />
    <circle cx="745.5172413793103" cy="349.8902305159166" r="4" fill="#e67e22" class="data-point" style="animation-delay: 2.90s" />
    <circle cx="770" cy="349.8902305159166" r="4" fill="#e67e22" class="data-point" style="animation-delay: 2.95s" />
    
    <circle cx="60" cy="349.8902305159166" r="4" fill="#1abc9c" class="data-point" style="animation-delay: 1.50s" />
    <circle cx="84.48275862068965" cy="349.8902305159166" r="4" fill="#1abc9c" class="data-point" style="animation-delay: 1.55s" />
    <circle cx="108.9655172413793" cy="349.8902305159166" r="4" fill="#1abc9c" class="data-point" style="animation-delay: 1.60s" />
    <circle cx="133.44827586206895" cy="349.8902305159166" r="4" fill="#1abc9c" class="data-point" style="animation-delay: 1.65s" />
    <circle cx="157.9310344827586" cy="349.8902305159166" r="4" fill="#1abc9c" class="data-point" style="animation-delay: 1.70s" />
    <circle cx="182.41379310344828" cy="349.8902305159166" r="4" fill="#1abc9c" class="data-point" style="animation-delay: 1.75s" />
    <circle cx="206.89655172413794" cy="349.8902305159166" r="4" fill="#1abc9c" class="data-point" style="animation-delay: 1.80s" />
    <circle cx="231.3793103448276" cy="349.8902305159166" r="4" fill="#1abc9c" class="data-point" style="animation-delay: 1.85s" />
    <circle cx="255.86206896551724" cy="349.8902305159166" r="4" fill="#1abc9c" class="data-point" style="animation-delay: 1.90s" />
    <circle cx="280.34482758620686" cy="349.8902305159166" r="4" fill="#1abc9c" class="data-point" style="animation-delay: 1.95s" />
    <circle cx="304.82758620689657" cy="349.8902305159166" r="4" fill="#1abc9c" class="data-point" style="animation-delay: 2.00s" />
    <circle cx="329.3103448275862" cy="349.8902305159166" r="4" fill="#1abc9c" class="data-point" style="animation-delay: 2.05s" />
    <circle cx="353.7931034482759" cy="349.8902305159166" r="4" fill="#1abc9c" class="data-point" style="animation-delay: 2.10s" />
    <circle cx="378.2758620689655" cy="349.8902305159166" r="4" fill="#1abc9c" class="data-point" style="animation-delay: 2.15s" />
    <circle cx="402.7586206896552" cy="349.8902305159166" r="4" fill="#1abc9c" class="data-point" style="animation-delay: 2.20s" />
    <circle cx="427.2413793103448" cy="349.8902305159166" r="4" fill="#1abc9c" class="data-point" style="animation-delay: 2.25s" />
    <circle cx="451.7241379310345" cy="349.8902305159166" r="4" fill="#1abc9c" class="data-point" style="animation-delay: 2.30s" />
    <circle cx="476.2068965517241" cy="349.8902305159166" r="4" fill="#1abc9c" class="data-point" style="animation-delay: 2.35s" />
    <circle cx="500.6896551724138" cy="349.8902305159166" r="4" fill="#1abc9c" class="data-point" style="animation-delay: 2.40s" />
    <circle cx="525.1724137931035" cy="349.8902305159166" r="4" fill="#1abc9c" class="data-point" style="animation-delay: 2.45s" />
    <circle cx="549.6551724137931" cy="349.8902305159166" r="4" fill="#1abc9c" class="data-point" style="animation-delay: 2.50s" />
    <circle cx="574.1379310344828" cy="349.8902305159166" r="4" fill="#1abc9c" class="data-point" style="animation-delay: 2.55s" />
    <circle cx="598.6206896551724" cy="349.8902305159166" r="4" fill="#1abc9c" class="data-point" style="animation-delay: 2.60s" />
    <circle cx="623.1034482758621" cy="349.8902305159166" r="4" fill="#1abc9c" class="data-point" style="animation-delay: 2.65s" />
    <circle cx="647.5862068965517" cy="349.8902305159166" r="4" fill="#1abc9c" class="data-point" style="animation-delay: 2.70s" />
    <circle cx="672.0689655172414" cy="349.8902305159166" r="4" fill="#1abc9c" class="data-point" style="animation-delay: 2.75s" />
    <circle cx="696.551724137931" cy="349.8902305159166" r="4" fill="#1abc9c" class="data-point" style="animation-delay: 2.80s" />
    <circle cx="721.0344827586207" cy="349.8902305159166" r="4" fill="#1abc9c" class="data-point" style="animation-delay: 2.85s" />
    <circle cx="745.5172413793103" cy="349.8902305159166" r="4" fill="#1abc9c" class="data-point" style="animation-delay: 2.90s" />
    <circle cx="770" cy="349.8902305159166" r="4" fill="#1abc9c" class="data-point" style="animation-delay: 2.95s" />
    
    <circle cx="60" cy="349.8902305159166" r="4" fill="#e84393" class="data-point" style="animation-delay: 1.50s" />
    <circle cx="84.48275862068965" cy="349.8902305159166" r="4" fill="#e84393" class="data-point" style="animation-delay: 1.55s" />
    <circle cx="108.9655172413793" cy="349.8902305159166" r="4" fill="#e84393" class="data-point" style="animation-delay: 1.60s" />
    <circle cx="133.44827586206895" cy="349.8902305159166" r="4" fill="#e84393" class="data-point" style="animation-delay: 1.65s" />
    <circle cx="157.9310344827586" cy="349.8902305159166" r="4" fill="#e84393" class="data-point" style="animation-delay: 1.70s" />
    <circle cx="182.41379310344828" cy="349.8902305159166" r="4" fill="#e84393" class="data-point" style="animation-delay: 1.75s" />
    <circle cx="206.89655172413794" cy="349.8902305159166" r="4" fill="#e84393" class="data-point" style="animation-delay: 1.80s" />
    <circle cx="231.3793103448276" cy="349.8902305159166" r="4" fill="#e84393" class="data-point" style="animation-delay: 1.85s" />
    <circle cx="255.86206896551724" cy="349.8902305159166" r="4" fill="#e84393" class="data-point" style="animation-delay: 1.90s" />
    <circle cx="280.34482758620686" cy="349.8902305159166" r="4" fill="#e84393" class="data-point" style="animation-delay: 1.95s" />
    <circle cx="304.82758620689657" cy="349.8902305159166" r="4" fill="#e84393" class="data-point" style="animation-delay: 2.00s" />
    <circle cx="329.3103448275862" cy="349.8902305159166" r="4" fill="#e84393" class="data-point" style="animation-delay: 2.05s" />
    <circle cx="353.7931034482759" cy="349.8902305159166" r="4" fill="#e84393" class="data-point" style="animation-delay: 2.10s" />
    <circle cx="378.2758620689655" cy="349.8902305159166" r="4" fill="#e84393" class="data-point" style="animation-delay: 2.15s" />
    <circle cx="402.7586206896552" cy="349.8902305159166" r="4" fill="#e84393" class="data-point" style="animation-delay: 2.20s" />
    <circle cx="427.2413793103448" cy="349.8902305159166" r="4" fill="#e84393" class="data-point" style="animation-delay: 2.25s" />
    <circle cx="451.7241379310345" cy="349.8902305159166" r="4" fill="#e84393" class="data-point" style="animation-delay: 2.30s" />
    <circle cx="476.2068965517241" cy="349.8902305159166" r="4" fill="#e84393" class="data-point" style="animation-delay: 2.35s" />
    <circle cx="500.6896551724138" cy="349.8902305159166" r="4" fill="#e84393" class="data-point" style="animation-delay: 2.40s" />
    <circle cx="525.1724137931035" cy="349.8902305159166" r="4" fill="#e84393" class="data-point" style="animation-delay: 2.45s" />
    <circle cx="549.6551724137931" cy="349.8902305159166" r="4" fill="#e84393" class="data-point" style="animation-delay: 2.50s" />
    <circle cx="574.1379310344828" cy="349.8902305159166" r="4" fill="#e84393" class="data-point" style="animation-delay: 2.55s" />
    <circle cx="598.6206896551724" cy="349.8902305159166" r="4" fill="#e84393" class="data-point" style="animation-delay: 2.60s" />
    <circle cx="623.1034482758621" cy="349.8902305159166" r="4" fill="#e84393" class="data-point" style="animation-delay: 2.65s" />
    <circle cx="647.5862068965517" cy="349.8902305159166" r="4" fill="#e84393" class="data-point" style="animation-delay: 2.70s" />
    <circle cx="672.0689655172414" cy="349.8902305159166" r="4" fill="#e84393" class="data-point" style="animation-delay: 2.75s" />
    <circle cx="696.551724137931" cy="349.8902305159166" r="4" fill="#e84393" class="data-point" style="animation-delay: 2.80s" />
    <circle cx="721.0344827586207" cy="349.8902305159166" r="4" fill="#e84393" class="data-point" style="animation-delay: 2.85s" />
    <circle cx="745.5172413793103" cy="349.8902305159166" r="4" fill="#e84393" class="data-point" style="animation-delay: 2.90s" />
    <circle cx="770" cy="349.8902305159166" r="4" fill="#e84393" class="data-point" style="animation-delay: 2.95s" />
    
    <circle cx="60" cy="350" r="4" fill="#795548" class="data-point" style="animation-delay: 1.50s" />
    <circle cx="84.48275862068965" cy="350" r="4" fill="#795548" class="data-point" style="animation-delay: 1.55s" />
    <circle cx="108.9655172413793" cy="350" r="4" fill="#795548" class="data-point" style="animation-delay: 1.60s" />
    <circle cx="133.44827586206895" cy="350" r="4" fill="#795548" class="data-point" style="animation-delay: 1.65s" />
    <circle cx="157.9310344827586" cy="350" r="4" fill="#795548" class="data-point" style="animation-delay: 1.70s" />
    <circle cx="182.41379310344828" cy="350" r="4" fill="#795548" class="data-point" style="animation-delay: 1.75s" />
    <circle cx="206.89655172413794" cy="350" r="4" fill="#795548" class="data-point" style="animation-delay: 1.80s" />
    <circle cx="231.3793103448276" cy="350" r="4" fill="#795548" class="data-point" style="animation-delay: 1.85s" />
    <circle cx="255.86206896551724" cy="350" r="4" fill="#795548" class="data-point" style="animation-delay: 1.90s" />
    <circle cx="280.34482758620686" cy="350" r="4" fill="#795548" class="data-point" style="animation-delay: 1.95s" />
    <circle cx="304.82758620689657" cy="350" r="4" fill="#795548" class="data-point" style="animation-delay: 2.00s" />
    <circle cx="329.3103448275862" cy="350" r="4" fill="#795548" class="data-point" style="animation-delay: 2.05s" />
    <circle cx="353.7931034482759" cy="350" r="4" fill="#795548" class="data-point" style="animation-delay: 2.10s" />
    <circle cx="378.2758620689655" cy="350" r="4" fill="#795548" class="data-point" style="animation-delay: 2.15s" />
    <circle cx="402.7586206896552" cy="350" r="4" fill="#795548" class="data-point" style="animation-delay: 2.20s" />
    <circle cx="427.2413793103448" cy="350" r="4" fill="#795548" class="data-point" style="animation-delay: 2.25s" />
    <circle cx="451.7241379310345" cy="350" r="4" fill="#795548" class="data-point" style="animation-delay: 2.30s" />
    <circle cx="476.2068965517241" cy="350" r="4" fill="#795548" class="data-point" style="animation-delay: 2.35s" />
    <circle cx="500.6896551724138" cy="350" r="4" fill="#795548" class="data-point" style="animation-delay: 2.40s" />
    <circle cx="525.1724137931035" cy="350" r="4" fill="#795548" class="data-point" style="animation-delay: 2.45s" />
    <circle cx="549.6551724137931" cy="350" r="4" fill="#795548" class="data-point" style="animation-delay: 2.50s" />
    <circle cx="574.1379310344828" cy="350" r="4" fill="#795548" class="data-point" style="animation-delay: 2.55s" />
    <circle cx="598.6206896551724" cy="350" r="4" fill="#795548" class="data-point" style="animation-delay: 2.60s" />
    <circle cx="623.1034482758621" cy="350" r="4" fill="#795548" class="data-point" style="animation-delay: 2.65s" />
    <circle cx="647.5862068965517" cy="350" r="4" fill="#795548" class="data-point" style="animation-delay: 2.70s" />
    <circle cx="672.0689655172414" cy="350" r="4" fill="#795548" class="data-point" style="animation-delay: 2.75s" />
    <circle cx="696.551724137931" cy="350" r="4" fill="#795548" class="data-point" style="animation-delay: 2.80s" />
    <circle cx="721.0344827586207" cy="350" r="4" fill="#795548" class="data-point" style="animation-delay: 2.85s" />
    <circle cx="745.5172413793103" cy="350" r="4" fill="#795548" class="data-point" style="animation-delay: 2.90s" />
    <circle cx="770" cy="350" r="4" fill="#795548" class="data-point" style="animation-delay: 2.95s" />
    
    <circle cx="60" cy="350" r="4" fill="#00bcd4" class="data-point" style="animation-delay: 1.50s" />
    <circle cx="84.48275862068965" cy="350" r="4" fill="#00bcd4" class="data-point" style="animation-delay: 1.55s" />
    <circle cx="108.9655172413793" cy="350" r="4" fill="#00bcd4" class="data-point" style="animation-delay: 1.60s" />
    <circle cx="133.44827586206895" cy="350" r="4" fill="#00bcd4" class="data-point" style="animation-delay: 1.65s" />
    <circle cx="157.9310344827586" cy="350" r="4" fill="#00bcd4" class="data-point" style="animation-delay: 1.70s" />
    <circle cx="182.41379310344828" cy="350" r="4" fill="#00bcd4" class="data-point" style="animation-delay: 1.75s" />
    <circle cx="206.89655172413794" cy="350" r="4" fill="#00bcd4" class="data-point" style="animation-delay: 1.80s" />
    <circle cx="231.3793103448276" cy="350" r="4" fill="#00bcd4" class="data-point" style="animation-delay: 1.85s" />
    <circle cx="255.86206896551724" cy="350" r="4" fill="#00bcd4" class="data-point" style="animation-delay: 1.90s" />
    <circle cx="280.34482758620686" cy="350" r="4" fill="#00bcd4" class="data-point" style="animation-delay: 1.95s" />
    <circle cx="304.82758620689657" cy="350" r="4" fill="#00bcd4" class="data-point" style="animation-delay: 2.00s" />
    <circle cx="329.3103448275862" cy="350" r="4" fill="#00bcd4" class="data-point" style="animation-delay: 2.05s" />
    <circle cx="353.7931034482759" cy="350" r="4" fill="#00bcd4" class="data-point" style="animation-delay: 2.10s" />
    <circle cx="378.2758620689655" cy="350" r="4" fill="#00bcd4" class="data-point" style="animation-delay: 2.15s" />
    <circle cx="402.7586206896552" cy="350" r="4" fill="#00bcd4" class="data-point" style="animation-delay: 2.20s" />
    <circle cx="427.2413793103448" cy="350" r="4" fill="#00bcd4" class="data-point" style="animation-delay: 2.25s" />
    <circle cx="451.7241379310345" cy="350" r="4" fill="#00bcd4" class="data-point" style="animation-delay: 2.30s" />
    <circle cx="476.2068965517241" cy="350" r="4" fill="#00bcd4" class="data-point" style="animation-delay: 2.35s" />
    <circle cx="500.6896551724138" cy="350" r="4" fill="#00bcd4" class="data-point" style="animation-delay: 2.40s" />
    <circle cx="525.1724137931035" cy="350" r="4" fill="#00bcd4" class="data-point" style="animation-delay: 2.45s" />
    <circle cx="549.6551724137931" cy="350" r="4" fill="#00bcd4" class="data-point" style="animation-delay: 2.50s" />
    <circle cx="574.1379310344828" cy="350" r="4" fill="#00bcd4" class="data-point" style="animation-delay: 2.55s" />
    <circle cx="598.6206896551724" cy="350" r="4" fill="#00bcd4" class="data-point" style="animation-delay: 2.60s" />
    <circle cx="623.1034482758621" cy="350" r="4" fill="#00bcd4" class="data-point" style="animation-delay: 2.65s" />
    <circle cx="647.5862068965517" cy="350" r="4" fill="#00bcd4" class="data-point" style="animation-delay: 2.70s" />
    <circle cx="672.0689655172414" cy="350" r="4" fill="#00bcd4" class="data-point" style="animation-delay: 2.75s" />
    <circle cx="696.551724137931" cy="350" r="4" fill="#00bcd4" class="data-point" style="animation-delay: 2.80s" />
    <circle cx="721.0344827586207" cy="350" r="4" fill="#00bcd4" class="data-point" style="animation-delay: 2.85s" />
    <circle cx="745.5172413793103" cy="350" r="4" fill="#00bcd4" class="data-point" style="animation-delay: 2.90s" />
    <circle cx="770" cy="350" r="4" fill="#00bcd4" class="data-point" style="animation-delay: 2.95s" />
  </g>
</svg>