<svg xmlns="http://www.w3.org/2000/svg" viewBox="0 0 800 400" width="800" height="400">
  <style>
    @keyframes drawLine {
      to { stroke-dashoffset: 0; }
    }
    @keyframes fadeInPoint {
      from { opacity: 0; }
      to { opacity: 1; }
    }
    .data-line-0 {
      stroke-dasharray: 1167;
      stroke-dashoffset: 1167;
      animation: drawLine 2s ease-out forwards;
    }
    .data-line-1 {
      stroke-dasharray: 1065;
      stroke-dashoffset: 1065;
      animation: drawLine 2s ease-out forwards;
    }
    .data-line-2 {
      stroke-dasharray: 1065;
      stroke-dashoffset: 1065;
      animation: drawLine 2s ease-out forwards;
    }
    .data-line-3 {
      stroke-dasharray: 1065;
      stroke-dashoffset: 1065;
      animation: drawLine 2s ease-out forwards;
    }
    .data-line-4 {
      stroke-dasharray: 1065;
      stroke-dashoffset: 1065;
      animation: drawLine 2s ease-out forwards;
    }
    .data-line-5 {
      stroke-dasharray: 1065;
      stroke-dashoffset: 1065;
      animation: drawLine 2s ease-out forwards;
    }
    .data-line-6 {
      stroke-dasharray: 1065;
      stroke-dashoffset: 1065;
      animation: drawLine 2s ease-out forwards;
    }
    .data-line-7 {
      stroke-dasharray: 1065;
      stroke-dashoffset: 1065;
      animation: drawLine 2s ease-out forwards;
    }
    .data-line-8 {
      stroke-dasharray: 1065;
      stroke-dashoffset: 1065;
      animation: drawLine 2s ease-out forwards;
    }
    .data-line-9 {
      stroke-dasharray: 1065;
      stroke-dashoffset: 1065;
      animation: drawLine 2s ease-out forwards;
    }
    .data-point {
      opacity: 0;
      animation: fadeInPoint 0.5s ease-out forwards;
    }
    .chart-bg { fill: #fff; }
    .chart-text { fill: #24292e; }
    .chart-muted { fill: #6a737d; }
    .chart-grid { stroke: #eee; }
    .chart-axis { stroke: #6a737d; }
    @media (prefers-color-scheme: dark) {
      .chart-bg { fill: #0d1117; }
      .chart-text { fill: #e6edf3; }
      .chart-muted { fill: #8b949e; }
      .chart-grid { stroke: #21262d; }
      .chart-axis { stroke: #8b949e; }
    }
  </style>
  <rect width="800" height="400" class="chart-bg" />
  <text x="400" y="14" text-anchor="middle" class="chart-text" font-size="16" font-weight="bold" font-family="-apple-system, BlinkMacSystemFont, 'Segoe UI', Helvetica, Arial, sans-serif">Top Repositories</text>
  <g class="legend">
    <rect x="-200" y="31" width="12" height="3" fill="#dfb317" />
    <line x1="-200" y1="32.5" x2="-188" y2="32.5" stroke="#dfb317" stroke-width="2" />
    <text x="-184" y="36" class="chart-text" font-size="10" font-family="-apple-system, BlinkMacSystemFont, 'Segoe UI', Helvetica, Arial, sans-serif">SteamGridDB/steam-rom-manager</text>
    <rect x="-80" y="31" width="12" height="3" fill="#28a745" />
    <line x1="-80" y1="32.5" x2="-68" y2="32.5" stroke="#28a745" stroke-width="2" />
    <text x="-64" y="36" class="chart-text" font-size="10" font-family="-apple-system, BlinkMacSystemFont, 'Segoe UI', Helvetica, Arial, sans-serif">cbartondock/node-binary-vdf</text>
    <rect x="40" y="31" width="12" height="3" fill="#e74c3c" />
    <line x1="40" y1="32.5" x2="52" y2="32.5" stroke="#e74c3c" stroke-width="2" />
    <text x="56" y="36" class="chart-text" font-size="10" font-family="-apple-system, BlinkMacSystemFont, 'Segoe UI', Helvetica, Arial, sans-serif">cbartondock/PortableEnv</text>
    <rect x="160" y="31" width="12" height="3" fill="#3498db" />
    <line x1="160" y1="32.5" x2="172" y2="32.5" stroke="#3498db" stroke-width="2" />
    <text x="176" y="36" class="chart-text" font-size="10" font-family="-apple-system, BlinkMacSystemFont, 'Segoe UI', Helvetica, Arial, sans-serif">cbartondock/Windwaker</text>
    <rect x="280" y="31" width="12" height="3" fill="#9b59b6" />
    <line x1="280" y1="32.5" x2="292" y2="32.5" stroke="#9b59b6" stroke-width="2" />
    <text x="296" y="36" class="chart-text" font-size="10" font-family="-apple-system, BlinkMacSystemFont, 'Segoe UI', Helvetica, Arial, sans-serif">cbartondock/chaos</text>
    <rect x="400" y="31" width="12" height="3" fill="#e67e22" />
    <line x1="400" y1="32.5" x2="412" y2="32.5" stroke="#e67e22" stroke-width="2" />
    <text x="416" y="36" class="chart-text" font-size="10" font-family="-apple-system, BlinkMacSystemFont, 'Segoe UI', Helvetica, Arial, sans-serif">cbartondock/riemann-sphere</text>
    <rect x="520" y="31" width="12" height="3" fill="#1abc9c" />
    <line x1="520" y1="32.5" x2="532" y2="32.5" stroke="#1abc9c" stroke-width="2" />
    <text x="536" y="36" class="chart-text" font-size="10" font-family="-apple-system, BlinkMacSystemFont, 'Segoe UI', Helvetica, Arial, sans-serif">cbartondock/tak-concept-art</text>
    <rect x="640" y="31" width="12" height="3" fill="#e84393" />
    <line x1="640" y1="32.5" x2="652" y2="32.5" stroke="#e84393" stroke-width="2" />
    <text x="656" y="36" class="chart-text" font-size="10" font-family="-apple-system, BlinkMacSystemFont, 'Segoe UI', Helvetica, Arial, sans-serif">stephan-x-liu/sublimechat</text>
    <rect x="760" y="31" width="12" height="3" fill="#795548" />
    <line x1="760" y1="32.5" x2="772" y2="32.5" stroke="#795548" stroke-width="2" />
    <text x="776" y="36" class="chart-text" font-size="10" font-family="-apple-system, BlinkMacSystemFont, 'Segoe UI', Helvetica, Arial, sans-serif">cbartondock/academicpages.github.io</text>
    <rect x="880" y="31" width="12" height="3" fill="#00bcd4" />
    <line x1="880" y1="32.5" x2="892" y2="32.5" stroke="#00bcd4" stroke-width="2" />
    <text x="896" y="36" class="chart-text" font-size="10" font-family="-apple-system, BlinkMacSystemFont, 'Segoe UI', Helvetica, Arial, sans-serif">cbartondock/discordBadge</text>
  </g>
  <g class="grid">
    <line x1="60" y1="350" x2="770" y2="350" class="chart-grid" stroke-opacity="0.3" />
    <text x="52" y="354" text-anchor="end" class="chart-muted" font-size="11" font-family="-apple-system, BlinkMacSystemFont, 'Segoe UI', Helvetica, Arial, sans-serif">0</text>
    <line x1="60" y1="294.9743213499633" x2="770" y2="294.9743213499633" class="chart-grid" stroke-opacity="0.3" />
    <text x="52" y="298.9743213499633" text-anchor="end" class="chart-muted" font-size="11" font-family="-apple-system, BlinkMacSystemFont, 'Segoe UI', Helvetica, Arial, sans-serif">500</text>
    <line x1="60" y1="239.9486426999266" x2="770" y2="239.9486426999266" class="chart-grid" stroke-opacity="0.3" />
    <text x="52" y="243.9486426999266" text-anchor="end" class="chart-muted" font-size="11" font-family="-apple-system, BlinkMacSystemFont, 'Segoe UI', Helvetica, Arial, sans-serif">1K</text>
    <line x1="60" y1="184.92296404988997" x2="770" y2="184.92296404988997" class="chart-grid" stroke-opacity="0.3" />
    <text x="52" y="188.92296404988997" text-anchor="end" class="chart-muted" font-size="11" font-family="-apple-system, BlinkMacSystemFont, 'Segoe UI', Helvetica, Arial, sans-serif">1.5K</text>
    <line x1="60" y1="129.89728539985325" x2="770" y2="129.89728539985325" class="chart-grid" stroke-opacity="0.3" />
    <text x="52" y="133.89728539985325" text-anchor="end" class="chart-muted" font-size="11" font-family="-apple-system, BlinkMacSystemFont, 'Segoe UI', Helvetica, Arial, sans-serif">2K</text>
    <line x1="60" y1="74.87160674981658" x2="770" y2="74.87160674981658" class="chart-grid" stroke-opacity="0.3" />
    <text x="52" y="78.87160674981658" text-anchor="end" class="chart-muted" font-size="11" font-family="-apple-system, BlinkMacSystemFont, 'Segoe UI', Helvetica, Arial, sans-serif">2.5K</text>
  </g>
  <g class="milestones">
    
  </g>
  <g class="x-axis">
    <text x="60" y="370" text-anchor="middle" class="chart-muted" font-size="11" font-family="-apple-system, BlinkMacSystemFont, 'Segoe UI', Helvetica, Arial, sans-serif">2017</text>
    <text x="133.44827586206895" y="370" text-anchor="middle" class="chart-muted" font-size="11" font-family="-apple-system, BlinkMacSystemFont, 'Segoe UI', Helvetica, Arial, sans-serif">2018</text>
    <text x="206.89655172413794" y="370" text-anchor="middle" class="chart-muted" font-size="11" font-family="-apple-system, BlinkMacSystemFont, 'Segoe UI', Helvetica, Arial, sans-serif">2019</text>
    <text x="280.34482758620686" y="370" text-anchor="middle" class="chart-muted" font-size="11" font-family="-apple-system, BlinkMacSystemFont, 'Segoe UI', Helvetica, Arial, sans-serif">2020</text>
    <text x="353.7931034482759" y="370" text-anchor="middle" class="chart-muted" font-size="11" font-family="-apple-system, BlinkMacSystemFont, 'Segoe UI', Helvetica, Arial, sans-serif">2021</text>
    <text x="427.2413793103448" y="370" text-anchor="middle" class="chart-muted" font-size="11" font-family="-apple-system, BlinkMacSystemFont, 'Segoe UI', Helvetica, Arial, sans-serif">2022</text>
    <text x="500.6896551724138" y="370" text-anchor="middle" class="chart-muted" font-size="11" font-family="-apple-system, BlinkMacSystemFont, 'Segoe UI', Helvetica, Arial, sans-serif">2023</text>
    <text x="598.6206896551724" y="370" text-anchor="middle" class="chart-muted" font-size="11" font-family="-apple-system, BlinkMacSystemFont, 'Segoe UI', Helvetica, Arial, sans-serif">2024</text>
    <text x="672.0689655172414" y="370" text-anchor="middle" class="chart-muted" font-size="11" font-family="-apple-system, BlinkMacSystemFont, 'Segoe UI', Helvetica, Arial, sans-serif">2025</text>
    <text x="745.5172413793103" y="370" text-anchor="middle" class="chart-muted" font-size="11" font-family="-apple-system, BlinkMacSystemFont, 'Segoe UI', Helvetica, Arial, sans-serif">2026</text>
  </g>
  <line x1="60" y1="50" x2="60" y2="350" class="chart-axis" stroke-width="1" />
  <line x1="60" y1="350" x2="770" y2="350" class="chart-axis" stroke-width="1" />
  
  
  
  
  
  
  
  
  
  
  <path d="M60,349.88994864269995 C68.16091954022988,347.3220836390316 76.32183908045977,344.1305942773294 84.48275862068965,342.1863536316948 C92.64367816091954,340.24211298606014 100.80459770114942,339.490095377843 108.9655172413793,338.22450476889213 C117.12643678160919,336.9589141599413 125.28735632183907,335.74834922964044 133.44827586206895,334.5928099779897 C141.60919540229884,333.43727072633897 149.77011494252872,332.59354365370507 157.9310344827586,331.29126925898754 C166.0919540229885,329.98899486427 174.2528735632184,328.09977989728543 182.41379310344828,326.77916360968453 C190.57471264367817,325.45854732208363 198.73563218390805,324.3396918561996 206.89655172413794,323.36757153338226 C215.05747126436782,322.39545121056494 223.2183908045977,321.6617754952311 231.3793103448276,320.9464416727806 C239.54022988505747,320.23110785033015 247.70114942528735,319.7909024211299 255.86206896551724,319.0755685986794 C264.0229885057471,318.36023477622894 272.183908045977,318.01173881144535 280.34482758620686,316.6544387380778 C288.50574712643675,315.2971386647102 296.6666666666667,312.2157006603082 304.82758620689657,310.931768158474 C312.98850574712645,309.6478356566398 321.14942528735634,309.7028613352898 329.3103448275862,308.95084372707265 C337.4712643678161,308.1988261188555 345.632183908046,307.4101247248716 353.7931034482759,306.41966250917096 C361.95402298850576,305.42920029347033 370.11494252873564,304.71386647101986 378.2758620689655,303.0080704328687 C386.4367816091954,301.30227439471753 394.5977011494253,299.13793103448273 402.7586206896552,296.1848862802641 C410.91954022988506,293.23184152604546 419.08045977011494,291.04915627292735 427.2413793103448,285.28980190755686 C435.4022988505747,279.5304475421864 443.5632183908046,269.0939104915627 451.7241379310345,261.6287600880411 C459.88505747126436,254.16360968451943 468.04597701149424,246.6617754952311 476.2068965517241,240.49889948642698 C484.367816091954,234.33602347762286 492.5287356321839,230.30080704328685 500.6896551724138,224.65150403521642 C508.85057471264366,219.002201027146 517.0114942528736,211.7204695524578 525.1724137931035,206.6030814380044 C533.3333333333334,201.485693323551 541.4942528735633,198.29420396184886 549.6551724137931,193.94717534849596 C557.816091954023,189.60014673514306 565.9770114942529,184.8312545854732 574.1379310344828,180.520909757887 C582.2988505747127,176.21056493030082 590.4597701149426,172.3404255319149 598.6206896551724,168.08510638297872 C606.7816091954023,163.82978723404256 614.9425287356322,159.18928833455612 623.1034482758621,154.98899486426998 C631.264367816092,150.78870139398384 639.4252873563219,146.99192956713134 647.5862068965517,142.88334556126193 C655.7471264367816,138.77476155539253 663.9080459770115,134.15260454878944 672.0689655172414,130.33749082905356 C680.2298850574713,126.52237710931769 688.3908045977012,123.66104181951579 696.551724137931,119.99266324284667 C704.7126436781609,116.32428466617756 712.8735632183908,112.94937637564196 721.0344827586207,108.32721936903889 C729.1954022988506,103.70506236243581 737.3563218390805,97.43213499633164 745.5172413793103,92.2597212032282 C753.6781609195402,87.08730741012475 761.8390804597701,82.28173147468821 770,77.29273661041822" fill="none" stroke="#dfb317" stroke-width="2.5" class="data-line-0" />
  <path d="M60,349.6698459280998 C68.16091954022988,349.6698459280998 76.32183908045977,349.6698459280998 84.48275862068965,349.6698459280998 C92.64367816091954,349.6698459280998 100.80459770114942,349.6698459280998 108.9655172413793,349.6698459280998 C117.12643678160919,349.6698459280998 125.28735632183907,349.6698459280998 133.44827586206895,349.6698459280998 C141.60919540229884,349.6698459280998 149.77011494252872,349.6698459280998 157.9310344827586,349.6698459280998 C166.0919540229885,349.6698459280998 174.2528735632184,349.6698459280998 182.41379310344828,349.6698459280998 C190.57471264367817,349.6698459280998 198.73563218390805,349.6698459280998 206.89655172413794,349.6698459280998 C215.05747126436782,349.6698459280998 223.2183908045977,349.6698459280998 231.3793103448276,349.6698459280998 C239.54022988505747,349.6698459280998 247.70114942528735,349.6698459280998 255.86206896551724,349.6698459280998 C264.0229885057471,349.6698459280998 272.183908045977,349.6698459280998 280.34482758620686,349.6698459280998 C288.50574712643675,349.6698459280998 296.6666666666667,349.6698459280998 304.82758620689657,349.6698459280998 C312.98850574712645,349.6698459280998 321.14942528735634,349.6698459280998 329.3103448275862,349.6698459280998 C337.4712643678161,349.6698459280998 345.632183908046,349.6698459280998 353.7931034482759,349.6698459280998 C361.95402298850576,349.6698459280998 370.11494252873564,349.6698459280998 378.2758620689655,349.6698459280998 C386.4367816091954,349.6698459280998 394.5977011494253,349.6698459280998 402.7586206896552,349.6698459280998 C410.91954022988506,349.6698459280998 419.08045977011494,349.6698459280998 427.2413793103448,349.6698459280998 C435.4022988505747,349.6698459280998 443.5632183908046,349.6698459280998 451.7241379310345,349.6698459280998 C459.88505747126436,349.6698459280998 468.04597701149424,349.6698459280998 476.2068965517241,349.6698459280998 C484.367816091954,349.6698459280998 492.5287356321839,349.6698459280998 500.6896551724138,349.6698459280998 C508.85057471264366,349.6698459280998 517.0114942528736,349.6698459280998 525.1724137931035,349.6698459280998 C533.3333333333334,349.6698459280998 541.4942528735633,349.6698459280998 549.6551724137931,349.6698459280998 C557.816091954023,349.6698459280998 565.9770114942529,349.6698459280998 574.1379310344828,349.6698459280998 C582.2988505747127,349.6698459280998 590.4597701149426,349.6698459280998 598.6206896551724,349.6698459280998 C606.7816091954023,349.6698459280998 614.9425287356322,349.6698459280998 623.1034482758621,349.6698459280998 C631.264367816092,349.6698459280998 639.4252873563219,349.6698459280998 647.5862068965517,349.6698459280998 C655.7471264367816,349.6698459280998 663.9080459770115,349.6698459280998 672.0689655172414,349.6698459280998 C680.2298850574713,349.6698459280998 688.3908045977012,349.6698459280998 696.551724137931,349.6698459280998 C704.7126436781609,349.6698459280998 712.8735632183908,349.6698459280998 721.0344827586207,349.6698459280998 C729.1954022988506,349.6698459280998 737.3563218390805,349.6698459280998 745.5172413793103,349.6698459280998 C753.6781609195402,349.6698459280998 761.8390804597701,349.6698459280998 770,349.6698459280998" fill="none" stroke="#28a745" stroke-width="2.5" class="data-line-1" />
  <path d="M60,349.77989728539984 C68.16091954022988,349.77989728539984 76.32183908045977,349.77989728539984 84.48275862068965,349.77989728539984 C92.64367816091954,349.77989728539984 100.80459770114942,349.77989728539984 108.9655172413793,349.77989728539984 C117.12643678160919,349.77989728539984 125.28735632183907,349.77989728539984 133.44827586206895,349.77989728539984 C141.60919540229884,349.77989728539984 149.77011494252872,349.77989728539984 157.9310344827586,349.77989728539984 C166.0919540229885,349.77989728539984 174.2528735632184,349.77989728539984 182.41379310344828,349.77989728539984 C190.57471264367817,349.77989728539984 198.73563218390805,349.77989728539984 206.89655172413794,349.77989728539984 C215.05747126436782,349.77989728539984 223.2183908045977,349.77989728539984 231.3793103448276,349.77989728539984 C239.54022988505747,349.77989728539984 247.70114942528735,349.77989728539984 255.86206896551724,349.77989728539984 C264.0229885057471,349.77989728539984 272.183908045977,349.77989728539984 280.34482758620686,349.77989728539984 C288.50574712643675,349.77989728539984 296.6666666666667,349.77989728539984 304.82758620689657,349.77989728539984 C312.98850574712645,349.77989728539984 321.14942528735634,349.77989728539984 329.3103448275862,349.77989728539984 C337.4712643678161,349.77989728539984 345.632183908046,349.77989728539984 353.7931034482759,349.77989728539984 C361.95402298850576,349.77989728539984 370.11494252873564,349.77989728539984 378.2758620689655,349.77989728539984 C386.4367816091954,349.77989728539984 394.5977011494253,349.77989728539984 402.7586206896552,349.77989728539984 C410.91954022988506,349.77989728539984 419.08045977011494,349.77989728539984 427.2413793103448,349.77989728539984 C435.4022988505747,349.77989728539984 443.5632183908046,349.77989728539984 451.7241379310345,349.77989728539984 C459.88505747126436,349.77989728539984 468.04597701149424,349.77989728539984 476.2068965517241,349.77989728539984 C484.367816091954,349.77989728539984 492.5287356321839,349.77989728539984 500.6896551724138,349.77989728539984 C508.85057471264366,349.77989728539984 517.0114942528736,349.77989728539984 525.1724137931035,349.77989728539984 C533.3333333333334,349.77989728539984 541.4942528735633,349.77989728539984 549.6551724137931,349.77989728539984 C557.816091954023,349.77989728539984 565.9770114942529,349.77989728539984 574.1379310344828,349.77989728539984 C582.2988505747127,349.77989728539984 590.4597701149426,349.77989728539984 598.6206896551724,349.77989728539984 C606.7816091954023,349.77989728539984 614.9425287356322,349.77989728539984 623.1034482758621,349.77989728539984 C631.264367816092,349.77989728539984 639.4252873563219,349.77989728539984 647.5862068965517,349.77989728539984 C655.7471264367816,349.77989728539984 663.9080459770115,349.77989728539984 672.0689655172414,349.77989728539984 C680.2298850574713,349.77989728539984 688.3908045977012,349.77989728539984 696.551724137931,349.77989728539984 C704.7126436781609,349.77989728539984 712.8735632183908,349.77989728539984 721.0344827586207,349.77989728539984 C729.1954022988506,349.77989728539984 737.3563218390805,349.77989728539984 745.5172413793103,349.77989728539984 C753.6781609195402,349.77989728539984 761.8390804597701,349.77989728539984 770,349.77989728539984" fill="none" stroke="#e74c3c" stroke-width="2.5" class="data-line-2" />
  <path d="M60,349.77989728539984 C68.16091954022988,349.77989728539984 76.32183908045977,349.77989728539984 84.48275862068965,349.77989728539984 C92.64367816091954,349.77989728539984 100.80459770114942,349.77989728539984 108.9655172413793,349.77989728539984 C117.12643678160919,349.77989728539984 125.28735632183907,349.77989728539984 133.44827586206895,349.77989728539984 C141.60919540229884,349.77989728539984 149.77011494252872,349.77989728539984 157.9310344827586,349.77989728539984 C166.0919540229885,349.77989728539984 174.2528735632184,349.77989728539984 182.41379310344828,349.77989728539984 C190.57471264367817,349.77989728539984 198.73563218390805,349.77989728539984 206.89655172413794,349.77989728539984 C215.05747126436782,349.77989728539984 223.2183908045977,349.77989728539984 231.3793103448276,349.77989728539984 C239.54022988505747,349.77989728539984 247.70114942528735,349.77989728539984 255.86206896551724,349.77989728539984 C264.0229885057471,349.77989728539984 272.183908045977,349.77989728539984 280.34482758620686,349.77989728539984 C288.50574712643675,349.77989728539984 296.6666666666667,349.77989728539984 304.82758620689657,349.77989728539984 C312.98850574712645,349.77989728539984 321.14942528735634,349.77989728539984 329.3103448275862,349.77989728539984 C337.4712643678161,349.77989728539984 345.632183908046,349.77989728539984 353.7931034482759,349.77989728539984 C361.95402298850576,349.77989728539984 370.11494252873564,349.77989728539984 378.2758620689655,349.77989728539984 C386.4367816091954,349.77989728539984 394.5977011494253,349.77989728539984 402.7586206896552,349.77989728539984 C410.91954022988506,349.77989728539984 419.08045977011494,349.77989728539984 427.2413793103448,349.77989728539984 C435.4022988505747,349.77989728539984 443.5632183908046,349.77989728539984 451.7241379310345,349.77989728539984 C459.88505747126436,349.77989728539984 468.04597701149424,349.77989728539984 476.2068965517241,349.77989728539984 C484.367816091954,349.77989728539984 492.5287356321839,349.77989728539984 500.6896551724138,349.77989728539984 C508.85057471264366,349.77989728539984 517.0114942528736,349.77989728539984 525.1724137931035,349.77989728539984 C533.3333333333334,349.77989728539984 541.4942528735633,349.77989728539984 549.6551724137931,349.77989728539984 C557.816091954023,349.77989728539984 565.9770114942529,349.77989728539984 574.1379310344828,349.77989728539984 C582.2988505747127,349.77989728539984 590.4597701149426,349.77989728539984 598.6206896551724,349.77989728539984 C606.7816091954023,349.77989728539984 614.9425287356322,349.77989728539984 623.1034482758621,349.77989728539984 C631.264367816092,349.77989728539984 639.4252873563219,349.77989728539984 647.5862068965517,349.77989728539984 C655.7471264367816,349.77989728539984 663.9080459770115,349.77989728539984 672.0689655172414,349.77989728539984 C680.2298850574713,349.77989728539984 688.3908045977012,349.77989728539984 696.551724137931,349.77989728539984 C704.7126436781609,349.77989728539984 712.8735632183908,349.77989728539984 721.0344827586207,349.77989728539984 C729.1954022988506,349.77989728539984 737.3563218390805,349.77989728539984 745.5172413793103,349.77989728539984 C753.6781609195402,349.77989728539984 761.8390804597701,349.77989728539984 770,349.77989728539984" fill="none" stroke="#3498db" stroke-width="2.5" class="data-line-3" />
  <path d="M60,349.88994864269995 C68.16091954022988,349.88994864269995 76.32183908045977,349.88994864269995 84.48275862068965,349.88994864269995 C92.64367816091954,349.88994864269995 100.80459770114942,349.88994864269995 108.9655172413793,349.88994864269995 C117.12643678160919,349.88994864269995 125.28735632183907,349.88994864269995 133.44827586206895,349.88994864269995 C141.60919540229884,349.88994864269995 149.77011494252872,349.88994864269995 157.9310344827586,349.88994864269995 C166.0919540229885,349.88994864269995 174.2528735632184,349.88994864269995 182.41379310344828,349.88994864269995 C190.57471264367817,349.88994864269995 198.73563218390805,349.88994864269995 206.89655172413794,349.88994864269995 C215.05747126436782,349.88994864269995 223.2183908045977,349.88994864269995 231.3793103448276,349.88994864269995 C239.54022988505747,349.88994864269995 247.70114942528735,349.88994864269995 255.86206896551724,349.88994864269995 C264.0229885057471,349.88994864269995 272.183908045977,349.88994864269995 280.34482758620686,349.88994864269995 C288.50574712643675,349.88994864269995 296.6666666666667,349.88994864269995 304.82758620689657,349.88994864269995 C312.98850574712645,349.88994864269995 321.14942528735634,349.88994864269995 329.3103448275862,349.88994864269995 C337.4712643678161,349.88994864269995 345.632183908046,349.88994864269995 353.7931034482759,349.88994864269995 C361.95402298850576,349.88994864269995 370.11494252873564,349.88994864269995 378.2758620689655,349.88994864269995 C386.4367816091954,349.88994864269995 394.5977011494253,349.88994864269995 402.7586206896552,349.88994864269995 C410.91954022988506,349.88994864269995 419.08045977011494,349.88994864269995 427.2413793103448,349.88994864269995 C435.4022988505747,349.88994864269995 443.5632183908046,349.88994864269995 451.7241379310345,349.88994864269995 C459.88505747126436,349.88994864269995 468.04597701149424,349.88994864269995 476.2068965517241,349.88994864269995 C484.367816091954,349.88994864269995 492.5287356321839,349.88994864269995 500.6896551724138,349.88994864269995 C508.85057471264366,349.88994864269995 517.0114942528736,349.88994864269995 525.1724137931035,349.88994864269995 C533.3333333333334,349.88994864269995 541.4942528735633,349.88994864269995 549.6551724137931,349.88994864269995 C557.816091954023,349.88994864269995 565.9770114942529,349.88994864269995 574.1379310344828,349.88994864269995 C582.2988505747127,349.88994864269995 590.4597701149426,349.88994864269995 598.6206896551724,349.88994864269995 C606.7816091954023,349.88994864269995 614.9425287356322,349.88994864269995 623.1034482758621,349.88994864269995 C631.264367816092,349.88994864269995 639.4252873563219,349.88994864269995 647.5862068965517,349.88994864269995 C655.7471264367816,349.88994864269995 663.9080459770115,349.88994864269995 672.0689655172414,349.88994864269995 C680.2298850574713,349.88994864269995 688.3908045977012,349.88994864269995 696.551724137931,349.88994864269995 C704.7126436781609,349.88994864269995 712.8735632183908,349.88994864269995 721.0344827586207,349.88994864269995 C729.1954022988506,349.88994864269995 737.3563218390805,349.88994864269995 745.5172413793103,349.88994864269995 C753.6781609195402,349.88994864269995 761.8390804597701,349.88994864269995 770,349.88994864269995" fill="none" stroke="#9b59b6" stroke-width="2.5" class="data-line-4" />
  <path d="M60,349.88994864269995 C68.16091954022988,349.88994864269995 76.32183908045977,349.88994864269995 84.48275862068965,349.88994864269995 C92.64367816091954,349.88994864269995 100.80459770114942,349.88994864269995 108.9655172413793,349.88994864269995 C117.12643678160919,349.88994864269995 125.28735632183907,349.88994864269995 133.44827586206895,349.88994864269995 C141.60919540229884,349.88994864269995 149.77011494252872,349.88994864269995 157.9310344827586,349.88994864269995 C166.0919540229885,349.88994864269995 174.2528735632184,349.88994864269995 182.41379310344828,349.88994864269995 C190.57471264367817,349.88994864269995 198.73563218390805,349.88994864269995 206.89655172413794,349.88994864269995 C215.05747126436782,349.88994864269995 223.2183908045977,349.88994864269995 231.3793103448276,349.88994864269995 C239.54022988505747,349.88994864269995 247.70114942528735,349.88994864269995 255.86206896551724,349.88994864269995 C264.0229885057471,349.88994864269995 272.183908045977,349.88994864269995 280.34482758620686,349.88994864269995 C288.50574712643675,349.88994864269995 296.6666666666667,349.88994864269995 304.82758620689657,349.88994864269995 C312.98850574712645,349.88994864269995 321.14942528735634,349.88994864269995 329.3103448275862,349.88994864269995 C337.4712643678161,349.88994864269995 345.632183908046,349.88994864269995 353.7931034482759,349.88994864269995 C361.95402298850576,349.88994864269995 370.11494252873564,349.88994864269995 378.2758620689655,349.88994864269995 C386.4367816091954,349.88994864269995 394.5977011494253,349.88994864269995 402.7586206896552,349.88994864269995 C410.91954022988506,349.88994864269995 419.08045977011494,349.88994864269995 427.2413793103448,349.88994864269995 C435.4022988505747,349.88994864269995 443.5632183908046,349.88994864269995 451.7241379310345,349.88994864269995 C459.88505747126436,349.88994864269995 468.04597701149424,349.88994864269995 476.2068965517241,349.88994864269995 C484.367816091954,349.88994864269995 492.5287356321839,349.88994864269995 500.6896551724138,349.88994864269995 C508.85057471264366,349.88994864269995 517.0114942528736,349.88994864269995 525.1724137931035,349.88994864269995 C533.3333333333334,349.88994864269995 541.4942528735633,349.88994864269995 549.6551724137931,349.88994864269995 C557.816091954023,349.88994864269995 565.9770114942529,349.88994864269995 574.1379310344828,349.88994864269995 C582.2988505747127,349.88994864269995 590.4597701149426,349.88994864269995 598.6206896551724,349.88994864269995 C606.7816091954023,349.88994864269995 614.9425287356322,349.88994864269995 623.1034482758621,349.88994864269995 C631.264367816092,349.88994864269995 639.4252873563219,349.88994864269995 647.5862068965517,349.88994864269995 C655.7471264367816,349.88994864269995 663.9080459770115,349.88994864269995 672.0689655172414,349.88994864269995 C680.2298850574713,349.88994864269995 688.3908045977012,349.88994864269995 696.551724137931,349.88994864269995 C704.7126436781609,349.88994864269995 712.8735632183908,349.88994864269995 721.0344827586207,349.88994864269995 C729.1954022988506,349.88994864269995 737.3563218390805,349.88994864269995 745.5172413793103,349.88994864269995 C753.6781609195402,349.88994864269995 761.8390804597701,349.88994864269995 770,349.88994864269995" fill="none" stroke="#e67e22" stroke-width="2.5" class="data-line-5" />
  <path d="M60,349.88994864269995 C68.16091954022988,349.88994864269995 76.32183908045977,349.88994864269995 84.48275862068965,349.88994864269995 C92.64367816091954,349.88994864269995 100.80459770114942,349.88994864269995 108.9655172413793,349.88994864269995 C117.12643678160919,349.88994864269995 125.28735632183907,349.88994864269995 133.44827586206895,349.88994864269995 C141.60919540229884,349.88994864269995 149.77011494252872,349.88994864269995 157.9310344827586,349.88994864269995 C166.0919540229885,349.88994864269995 174.2528735632184,349.88994864269995 182.41379310344828,349.88994864269995 C190.57471264367817,349.88994864269995 198.73563218390805,349.88994864269995 206.89655172413794,349.88994864269995 C215.05747126436782,349.88994864269995 223.2183908045977,349.88994864269995 231.3793103448276,349.88994864269995 C239.54022988505747,349.88994864269995 247.70114942528735,349.88994864269995 255.86206896551724,349.88994864269995 C264.0229885057471,349.88994864269995 272.183908045977,349.88994864269995 280.34482758620686,349.88994864269995 C288.50574712643675,349.88994864269995 296.6666666666667,349.88994864269995 304.82758620689657,349.88994864269995 C312.98850574712645,349.88994864269995 321.14942528735634,349.88994864269995 329.3103448275862,349.88994864269995 C337.4712643678161,349.88994864269995 345.632183908046,349.88994864269995 353.7931034482759,349.88994864269995 C361.95402298850576,349.88994864269995 370.11494252873564,349.88994864269995 378.2758620689655,349.88994864269995 C386.4367816091954,349.88994864269995 394.5977011494253,349.88994864269995 402.7586206896552,349.88994864269995 C410.91954022988506,349.88994864269995 419.08045977011494,349.88994864269995 427.2413793103448,349.88994864269995 C435.4022988505747,349.88994864269995 443.5632183908046,349.88994864269995 451.7241379310345,349.88994864269995 C459.88505747126436,349.88994864269995 468.04597701149424,349.88994864269995 476.2068965517241,349.88994864269995 C484.367816091954,349.88994864269995 492.5287356321839,349.88994864269995 500.6896551724138,349.88994864269995 C508.85057471264366,349.88994864269995 517.0114942528736,349.88994864269995 525.1724137931035,349.88994864269995 C533.3333333333334,349.88994864269995 541.4942528735633,349.88994864269995 549.6551724137931,349.88994864269995 C557.816091954023,349.88994864269995 565.9770114942529,349.88994864269995 574.1379310344828,349.88994864269995 C582.2988505747127,349.88994864269995 590.4597701149426,349.88994864269995 598.6206896551724,349.88994864269995 C606.7816091954023,349.88994864269995 614.9425287356322,349.88994864269995 623.1034482758621,349.88994864269995 C631.264367816092,349.88994864269995 639.4252873563219,349.88994864269995 647.5862068965517,349.88994864269995 C655.7471264367816,349.88994864269995 663.9080459770115,349.88994864269995 672.0689655172414,349.88994864269995 C680.2298850574713,349.88994864269995 688.3908045977012,349.88994864269995 696.551724137931,349.88994864269995 C704.7126436781609,349.88994864269995 712.8735632183908,349.88994864269995 721.0344827586207,349.88994864269995 C729.1954022988506,349.88994864269995 737.3563218390805,349.88994864269995 745.5172413793103,349.88994864269995 C753.6781609195402,349.88994864269995 761.8390804597701,349.88994864269995 770,349.88994864269995" fill="none" stroke="#1abc9c" stroke-width="2.5" class="data-line-6" />
  <path d="M60,349.88994864269995 C68.16091954022988,349.88994864269995 76.32183908045977,349.88994864269995 84.48275862068965,349.88994864269995 C92.64367816091954,349.88994864269995 100.80459770114942,349.88994864269995 108.9655172413793,349.88994864269995 C117.12643678160919,349.88994864269995 125.28735632183907,349.88994864269995 133.44827586206895,349.88994864269995 C141.60919540229884,349.88994864269995 149.77011494252872,349.88994864269995 157.9310344827586,349.88994864269995 C166.0919540229885,349.88994864269995 174.2528735632184,349.88994864269995 182.41379310344828,349.88994864269995 C190.57471264367817,349.88994864269995 198.73563218390805,349.88994864269995 206.89655172413794,349.88994864269995 C215.05747126436782,349.88994864269995 223.2183908045977,349.88994864269995 231.3793103448276,349.88994864269995 C239.54022988505747,349.88994864269995 247.70114942528735,349.88994864269995 255.86206896551724,349.88994864269995 C264.0229885057471,349.88994864269995 272.183908045977,349.88994864269995 280.34482758620686,349.88994864269995 C288.50574712643675,349.88994864269995 296.6666666666667,349.88994864269995 304.82758620689657,349.88994864269995 C312.98850574712645,349.88994864269995 321.14942528735634,349.88994864269995 329.3103448275862,349.88994864269995 C337.4712643678161,349.88994864269995 345.632183908046,349.88994864269995 353.7931034482759,349.88994864269995 C361.95402298850576,349.88994864269995 370.11494252873564,349.88994864269995 378.2758620689655,349.88994864269995 C386.4367816091954,349.88994864269995 394.5977011494253,349.88994864269995 402.7586206896552,349.88994864269995 C410.91954022988506,349.88994864269995 419.08045977011494,349.88994864269995 427.2413793103448,349.88994864269995 C435.4022988505747,349.88994864269995 443.5632183908046,349.88994864269995 451.7241379310345,349.88994864269995 C459.88505747126436,349.88994864269995 468.04597701149424,349.88994864269995 476.2068965517241,349.88994864269995 C484.367816091954,349.88994864269995 492.5287356321839,349.88994864269995 500.6896551724138,349.88994864269995 C508.85057471264366,349.88994864269995 517.0114942528736,349.88994864269995 525.1724137931035,349.88994864269995 C533.3333333333334,349.88994864269995 541.4942528735633,349.88994864269995 549.6551724137931,349.88994864269995 C557.816091954023,349.88994864269995 565.9770114942529,349.88994864269995 574.1379310344828,349.88994864269995 C582.2988505747127,349.88994864269995 590.4597701149426,349.88994864269995 598.6206896551724,349.88994864269995 C606.7816091954023,349.88994864269995 614.9425287356322,349.88994864269995 623.1034482758621,349.88994864269995 C631.264367816092,349.88994864269995 639.4252873563219,349.88994864269995 647.5862068965517,349.88994864269995 C655.7471264367816,349.88994864269995 663.9080459770115,349.88994864269995 672.0689655172414,349.88994864269995 C680.2298850574713,349.88994864269995 688.3908045977012,349.88994864269995 696.551724137931,349.88994864269995 C704.7126436781609,349.88994864269995 712.8735632183908,349.88994864269995 721.0344827586207,349.88994864269995 C729.1954022988506,349.88994864269995 737.3563218390805,349.88994864269995 745.5172413793103,349.88994864269995 C753.6781609195402,349.88994864269995 761.8390804597701,349.88994864269995 770,349.88994864269995" fill="none" stroke="#e84393" stroke-width="2.5" class="data-line-7" />
  <path d="M60,350 C68.16091954022988,350 76.32183908045977,350 84.48275862068965,350 C92.64367816091954,350 100.80459770114942,350 108.9655172413793,350 C117.12643678160919,350 125.28735632183907,350 133.44827586206895,350 C141.60919540229884,350 149.77011494252872,350 157.9310344827586,350 C166.0919540229885,350 174.2528735632184,350 182.41379310344828,350 C190.57471264367817,350 198.73563218390805,350 206.89655172413794,350 C215.05747126436782,350 223.2183908045977,350 231.3793103448276,350 C239.54022988505747,350 247.70114942528735,350 255.86206896551724,350 C264.0229885057471,350 272.183908045977,350 280.34482758620686,350 C288.50574712643675,350 296.6666666666667,350 304.82758620689657,350 C312.98850574712645,350 321.14942528735634,350 329.3103448275862,350 C337.4712643678161,350 345.632183908046,350 353.7931034482759,350 C361.95402298850576,350 370.11494252873564,350 378.2758620689655,350 C386.4367816091954,350 394.5977011494253,350 402.7586206896552,350 C410.91954022988506,350 419.08045977011494,350 427.2413793103448,350 C435.4022988505747,350 443.5632183908046,350 451.7241379310345,350 C459.88505747126436,350 468.04597701149424,350 476.2068965517241,350 C484.367816091954,350 492.5287356321839,350 500.6896551724138,350 C508.85057471264366,350 517.0114942528736,350 525.1724137931035,350 C533.3333333333334,350 541.4942528735633,350 549.6551724137931,350 C557.816091954023,350 565.9770114942529,350 574.1379310344828,350 C582.2988505747127,350 590.4597701149426,350 598.6206896551724,350 C606.7816091954023,350 614.9425287356322,350 623.1034482758621,350 C631.264367816092,350 639.4252873563219,350 647.5862068965517,350 C655.7471264367816,350 663.9080459770115,350 672.0689655172414,350 C680.2298850574713,350 688.3908045977012,350 696.551724137931,350 C704.7126436781609,350 712.8735632183908,350 721.0344827586207,350 C729.1954022988506,350 737.3563218390805,350 745.5172413793103,350 C753.6781609195402,350 761.8390804597701,350 770,350" fill="none" stroke="#795548" stroke-width="2.5" class="data-line-8" />
  <path d="M60,350 C68.16091954022988,350 76.32183908045977,350 84.48275862068965,350 C92.64367816091954,350 100.80459770114942,350 108.9655172413793,350 C117.12643678160919,350 125.28735632183907,350 133.44827586206895,350 C141.60919540229884,350 149.77011494252872,350 157.9310344827586,350 C166.0919540229885,350 174.2528735632184,350 182.41379310344828,350 C190.57471264367817,350 198.73563218390805,350 206.89655172413794,350 C215.05747126436782,350 223.2183908045977,350 231.3793103448276,350 C239.54022988505747,350 247.70114942528735,350 255.86206896551724,350 C264.0229885057471,350 272.183908045977,350 280.34482758620686,350 C288.50574712643675,350 296.6666666666667,350 304.82758620689657,350 C312.98850574712645,350 321.14942528735634,350 329.3103448275862,350 C337.4712643678161,350 345.632183908046,350 353.7931034482759,350 C361.95402298850576,350 370.11494252873564,350 378.2758620689655,350 C386.4367816091954,350 394.5977011494253,350 402.7586206896552,350 C410.91954022988506,350 419.08045977011494,350 427.2413793103448,350 C435.4022988505747,350 443.5632183908046,350 451.7241379310345,350 C459.88505747126436,350 468.04597701149424,350 476.2068965517241,350 C484.367816091954,350 492.5287356321839,350 500.6896551724138,350 C508.85057471264366,350 517.0114942528736,350 525.1724137931035,350 C533.3333333333334,350 541.4942528735633,350 549.6551724137931,350 C557.816091954023,350 565.9770114942529,350 574.1379310344828,350 C582.2988505747127,350 590.4597701149426,350 598.6206896551724,350 C606.7816091954023,350 614.9425287356322,350 623.1034482758621,350 C631.264367816092,350 639.4252873563219,350 647.5862068965517,350 C655.7471264367816,350 663.9080459770115,350 672.0689655172414,350 C680.2298850574713,350 688.3908045977012,350 696.551724137931,350 C704.7126436781609,350 712.8735632183908,350 721.0344827586207,350 C729.1954022988506,350 737.3563218390805,350 745.5172413793103,350 C753.6781609195402,350 761.8390804597701,350 770,350" fill="none" stroke="#00bcd4" stroke-width="2.5" class="data-line-9" />
  <g class="points">
    
    <circle cx="60" cy="349.88994864269995" r="4" fill="#dfb317" class="data-point" style="animation-delay: 1.50s" />
    <circle cx="84.48275862068965" cy="342.1863536316948" r="4" fill="#dfb317" class="data-point" style="animation-delay: 1.55s" />
    <circle cx="108.9655172413793" cy="338.22450476889213" r="4" fill="#dfb317" class="data-point" style="animation-delay: 1.60s" />
    <circle cx="133.44827586206895" cy="334.5928099779897" r="4" fill="#dfb317" class="data-point" style="animation-delay: 1.65s" />
    <circle cx="157.9310344827586" cy="331.29126925898754" r="4" fill="#dfb317" class="data-point" style="animation-delay: 1.70s" />
    <circle cx="182.41379310344828" cy="326.77916360968453" r="4" fill="#dfb317" class="data-point" style="animation-delay: 1.75s" />
    <circle cx="206.89655172413794" cy="323.36757153338226" r="4" fill="#dfb317" class="data-point" style="animation-delay: 1.80s" />
    <circle cx="231.3793103448276" cy="320.9464416727806" r="4" fill="#dfb317" class="data-point" style="animation-delay: 1.85s" />
    <circle cx="255.86206896551724" cy="319.0755685986794" r="4" fill="#dfb317" class="data-point" style="animation-delay: 1.90s" />
    <circle cx="280.34482758620686" cy="316.6544387380778" r="4" fill="#dfb317" class="data-point" style="animation-delay: 1.95s" />
    <circle cx="304.82758620689657" cy="310.931768158474" r="4" fill="#dfb317" class="data-point" style="animation-delay: 2.00s" />
    <circle cx="329.3103448275862" cy="308.95084372707265" r="4" fill="#dfb317" class="data-point" style="animation-delay: 2.05s" />
    <circle cx="353.7931034482759" cy="306.41966250917096" r="4" fill="#dfb317" class="data-point" style="animation-delay: 2.10s" />
    <circle cx="378.2758620689655" cy="303.0080704328687" r="4" fill="#dfb317" class="data-point" style="animation-delay: 2.15s" />
    <circle cx="402.7586206896552" cy="296.1848862802641" r="4" fill="#dfb317" class="data-point" style="animation-delay: 2.20s" />
    <circle cx="427.2413793103448" cy="285.28980190755686" r="4" fill="#dfb317" class="data-point" style="animation-delay: 2.25s" />
    <circle cx="451.7241379310345" cy="261.6287600880411" r="4" fill="#dfb317" class="data-point" style="animation-delay: 2.30s" />
    <circle cx="476.2068965517241" cy="240.49889948642698" r="4" fill="#dfb317" class="data-point" style="animation-delay: 2.35s" />
    <circle cx="500.6896551724138" cy="224.65150403521642" r="4" fill="#dfb317" class="data-point" style="animation-delay: 2.40s" />
    <circle cx="525.1724137931035" cy="206.6030814380044" r="4" fill="#dfb317" class="data-point" style="animation-delay: 2.45s" />
    <circle cx="549.6551724137931" cy="193.94717534849596" r="4" fill="#dfb317" class="data-point" style="animation-delay: 2.50s" />
    <circle cx="574.1379310344828" cy="180.520909757887" r="4" fill="#dfb317" class="data-point" style="animation-delay: 2.55s" />
    <circle cx="598.6206896551724" cy="168.08510638297872" r="4" fill="#dfb317" class="data-point" style="animation-delay: 2.60s" />
    <circle cx="623.1034482758621" cy="154.98899486426998" r="4" fill="#dfb317" class="data-point" style="animation-delay: 2.65s" />
    <circle cx="647.5862068965517" cy="142.88334556126193" r="4" fill="#dfb317" class="data-point" style="animation-delay: 2.70s" />
    <circle cx="672.0689655172414" cy="130.33749082905356" r="4" fill="#dfb317" class="data-point" style="animation-delay: 2.75s" />
    <circle cx="696.551724137931" cy="119.99266324284667" r="4" fill="#dfb317" class="data-point" style="animation-delay: 2.80s" />
    <circle cx="721.0344827586207" cy="108.32721936903889" r="4" fill="#dfb317" class="data-point" style="animation-delay: 2.85s" />
    <circle cx="745.5172413793103" cy="92.2597212032282" r="4" fill="#dfb317" class="data-point" style="animation-delay: 2.90s" />
    <circle cx="770" cy="77.29273661041822" r="4" fill="#dfb317" class="data-point" style="animation-delay: 2.95s" />
    
    <circle cx="60" cy="349.6698459280998" r="4" fill="#28a745" class="data-point" style="animation-delay: 1.50s" />
    <circle cx="84.48275862068965" cy="349.6698459280998" r="4" fill="#28a745" class="data-point" style="animation-delay: 1.55s" />
    <circle cx="108.9655172413793" cy="349.6698459280998" r="4" fill="#28a745" class="data-point" style="animation-delay: 1.60s" />
    <circle cx="133.44827586206895" cy="349.6698459280998" r="4" fill="#28a745" class="data-point" style="animation-delay: 1.65s" />
    <circle cx="157.9310344827586" cy="349.6698459280998" r="4" fill="#28a745" class="data-point" style="animation-delay: 1.70s" />
    <circle cx="182.41379310344828" cy="349.6698459280998" r="4" fill="#28a745" class="data-point" style="animation-delay: 1.75s" />
    <circle cx="206.89655172413794" cy="349.6698459280998" r="4" fill="#28a745" class="data-point" style="animation-delay: 1.80s" />
    <circle cx="231.3793103448276" cy="349.6698459280998" r="4" fill="#28a745" class="data-point" style="animation-delay: 1.85s" />
    <circle cx="255.86206896551724" cy="349.6698459280998" r="4" fill="#28a745" class="data-point" style="animation-delay: 1.90s" />
    <circle cx="280.34482758620686" cy="349.6698459280998" r="4" fill="#28a745" class="data-point" style="animation-delay: 1.95s" />
    <circle cx="304.82758620689657" cy="349.6698459280998" r="4" fill="#28a745" class="data-point" style="animation-delay: 2.00s" />
    <circle cx="329.3103448275862" cy="349.6698459280998" r="4" fill="#28a745" class="data-point" style="animation-delay: 2.05s" />
    <circle cx="353.7931034482759" cy="349.6698459280998" r="4" fill="#28a745" class="data-point" style="animation-delay: 2.10s" />
    <circle cx="378.2758620689655" cy="349.6698459280998" r="4" fill="#28a745" class="data-point" style="animation-delay: 2.15s" />
    <circle cx="402.7586206896552" cy="349.6698459280998" r="4" fill="#28a745" class="data-point" style="animation-delay: 2.20s" />
    <circle cx="427.2413793103448" cy="349.6698459280998" r="4" fill="#28a745" class="data-point" style="animation-delay: 2.25s" />
    <circle cx="451.7241379310345" cy="349.6698459280998" r="4" fill="#28a745" class="data-point" style="animation-delay: 2.30s" />
    <circle cx="476.2068965517241" cy="349.6698459280998" r="4" fill="#28a745" class="data-point" style="animation-delay: 2.35s" />
    <circle cx="500.6896551724138" cy="349.6698459280998" r="4" fill="#28a745" class="data-point" style="animation-delay: 2.40s" />
    <circle cx="525.1724137931035" cy="349.6698459280998" r="4" fill="#28a745" class="data-point" style="animation-delay: 2.45s" />
    <circle cx="549.6551724137931" cy="349.6698459280998" r="4" fill="#28a745" class="data-point" style="animation-delay: 2.50s" />
    <circle cx="574.1379310344828" cy="349.6698459280998" r="4" fill="#28a745" class="data-point" style="animation-delay: 2.55s" />
    <circle cx="598.6206896551724" cy="349.6698459280998" r="4" fill="#28a745" class="data-point" style="animation-delay: 2.60s" />
    <circle cx="623.1034482758621" cy="349.6698459280998" r="4" fill="#28a745" class="data-point" style="animation-delay: 2.65s" />
    <circle cx="647.5862068965517" cy="349.6698459280998" r="4" fill="#28a745" class="data-point" style="animation-delay: 2.70s" />
    <circle cx="672.0689655172414" cy="349.6698459280998" r="4" fill="#28a745" class="data-point" style="animation-delay: 2.75s" />
    <circle cx="696.551724137931" cy="349.6698459280998" r="4" fill="#28a745" class="data-point" style="animation-delay: 2.80s" />
    <circle cx="721.0344827586207" cy="349.6698459280998" r="4" fill="#28a745" class="data-point" style="animation-delay: 2.85s" />
    <circle cx="745.5172413793103" cy="349.6698459280998" r="4" fill="#28a745" class="data-point" style="animation-delay: 2.90s" />
    <circle cx="770" cy="349.6698459280998" r="4" fill="#28a745" class="data-point" style="animation-delay: 2.95s" />
    
    <circle cx="60" cy="349.77989728539984" r="4" fill="#e74c3c" class="data-point" style="animation-delay: 1.50s" />
    <circle cx="84.48275862068965" cy="349.77989728539984" r="4" fill="#e74c3c" class="data-point" style="animation-delay: 1.55s" />
    <circle cx="108.9655172413793" cy="349.77989728539984" r="4" fill="#e74c3c" class="data-point" style="animation-delay: 1.60s" />
    <circle cx="133.44827586206895" cy="349.77989728539984" r="4" fill="#e74c3c" class="data-point" style="animation-delay: 1.65s" />
    <circle cx="157.9310344827586" cy="349.77989728539984" r="4" fill="#e74c3c" class="data-point" style="animation-delay: 1.70s" />
    <circle cx="182.41379310344828" cy="349.77989728539984" r="4" fill="#e74c3c" class="data-point" style="animation-delay: 1.75s" />
    <circle cx="206.89655172413794" cy="349.77989728539984" r="4" fill="#e74c3c" class="data-point" style="animation-delay: 1.80s" />
    <circle cx="231.3793103448276" cy="349.77989728539984" r="4" fill="#e74c3c" class="data-point" style="animation-delay: 1.85s" />
    <circle cx="255.86206896551724" cy="349.77989728539984" r="4" fill="#e74c3c" class="data-point" style="animation-delay: 1.90s" />
    <circle cx="280.34482758620686" cy="349.77989728539984" r="4" fill="#e74c3c" class="data-point" style="animation-delay: 1.95s" />
    <circle cx="304.82758620689657" cy="349.77989728539984" r="4" fill="#e74c3c" class="data-point" style="animation-delay: 2.00s" />
    <circle cx="329.3103448275862" cy="349.77989728539984" r="4" fill="#e74c3c" class="data-point" style="animation-delay: 2.05s" />
    <circle cx="353.7931034482759" cy="349.77989728539984" r="4" fill="#e74c3c" class="data-point" style="animation-delay: 2.10s" />
    <circle cx="378.2758620689655" cy="349.77989728539984" r="4" fill="#e74c3c" class="data-point" style="animation-delay: 2.15s" />
    <circle cx="402.7586206896552" cy="349.77989728539984" r="4" fill="#e74c3c" class="data-point" style="animation-delay: 2.20s" />
    <circle cx="427.2413793103448" cy="349.77989728539984" r="4" fill="#e74c3c" class="data-point" style="animation-delay: 2.25s" />
    <circle cx="451.7241379310345" cy="349.77989728539984" r="4" fill="#e74c3c" class="data-point" style="animation-delay: 2.30s" />
    <circle cx="476.2068965517241" cy="349.77989728539984" r="4" fill="#e74c3c" class="data-point" style="animation-delay: 2.35s" />
    <circle cx="500.6896551724138" cy="349.77989728539984" r="4" fill="#e74c3c" class="data-point" style="animation-delay: 2.40s" />
    <circle cx="525.1724137931035" cy="349.77989728539984" r="4" fill="#e74c3c" class="data-point" style="animation-delay: 2.45s" />
    <circle cx="549.6551724137931" cy="349.77989728539984" r="4" fill="#e74c3c" class="data-point" style="animation-delay: 2.50s" />
    <circle cx="574.1379310344828" cy="349.77989728539984" r="4" fill="#e74c3c" class="data-point" style="animation-delay: 2.55s" />
    <circle cx="598.6206896551724" cy="349.77989728539984" r="4" fill="#e74c3c" class="data-point" style="animation-delay: 2.60s" />
    <circle cx="623.1034482758621" cy="349.77989728539984" r="4" fill="#e74c3c" class="data-point" style="animation-delay: 2.65s" />
    <circle cx="647.5862068965517" cy="349.77989728539984" r="4" fill="#e74c3c" class="data-point" style="animation-delay: 2.70s" />
    <circle cx="672.0689655172414" cy="349.77989728539984" r="4" fill="#e74c3c" class="data-point" style="animation-delay: 2.75s" />
    <circle cx="696.551724137931" cy="349.77989728539984" r="4" fill="#e74c3c" class="data-point" style="animation-delay: 2.80s" />
    <circle cx="721.0344827586207" cy="349.77989728539984" r="4" fill="#e74c3c" class="data-point" style="animation-delay: 2.85s" />
    <circle cx="745.5172413793103" cy="349.77989728539984" r="4" fill="#e74c3c" class="data-point" style="animation-delay: 2.90s" />
    <circle cx="770" cy="349.77989728539984" r="4" fill="#e74c3c" class="data-point" style="animation-delay: 2.95s" />
    
    <circle cx="60" cy="349.77989728539984" r="4" fill="#3498db" class="data-point" style="animation-delay: 1.50s" />
    <circle cx="84.48275862068965" cy="349.77989728539984" r="4" fill="#3498db" class="data-point" style="animation-delay: 1.55s" />
    <circle cx="108.9655172413793" cy="349.77989728539984" r="4" fill="#3498db" class="data-point" style="animation-delay: 1.60s" />
    <circle cx="133.44827586206895" cy="349.77989728539984" r="4" fill="#3498db" class="data-point" style="animation-delay: 1.65s" />
    <circle cx="157.9310344827586" cy="349.77989728539984" r="4" fill="#3498db" class="data-point" style="animation-delay: 1.70s" />
    <circle cx="182.41379310344828" cy="349.77989728539984" r="4" fill="#3498db" class="data-point" style="animation-delay: 1.75s" />
    <circle cx="206.89655172413794" cy="349.77989728539984" r="4" fill="#3498db" class="data-point" style="animation-delay: 1.80s" />
    <circle cx="231.3793103448276" cy="349.77989728539984" r="4" fill="#3498db" class="data-point" style="animation-delay: 1.85s" />
    <circle cx="255.86206896551724" cy="349.77989728539984" r="4" fill="#3498db" class="data-point" style="animation-delay: 1.90s" />
    <circle cx="280.34482758620686" cy="349.77989728539984" r="4" fill="#3498db" class="data-point" style="animation-delay: 1.95s" />
    <circle cx="304.82758620689657" cy="349.77989728539984" r="4" fill="#3498db" class="data-point" style="animation-delay: 2.00s" />
    <circle cx="329.3103448275862" cy="349.77989728539984" r="4" fill="#3498db" class="data-point" style="animation-delay: 2.05s" />
    <circle cx="353.7931034482759" cy="349.77989728539984" r="4" fill="#3498db" class="data-point" style="animation-delay: 2.10s" />
    <circle cx="378.2758620689655" cy="349.77989728539984" r="4" fill="#3498db" class="data-point" style="animation-delay: 2.15s" />
    <circle cx="402.7586206896552" cy="349.77989728539984" r="4" fill="#3498db" class="data-point" style="animation-delay: 2.20s" />
    <circle cx="427.2413793103448" cy="349.77989728539984" r="4" fill="#3498db" class="data-point" style="animation-delay: 2.25s" />
    <circle cx="451.7241379310345" cy="349.77989728539984" r="4" fill="#3498db" class="data-point" style="animation-delay: 2.30s" />
    <circle cx="476.2068965517241" cy="349.77989728539984" r="4" fill="#3498db" class="data-point" style="animation-delay: 2.35s" />
    <circle cx="500.6896551724138" cy="349.77989728539984" r="4" fill="#3498db" class="data-point" style="animation-delay: 2.40s" />
    <circle cx="525.1724137931035" cy="349.77989728539984" r="4" fill="#3498db" class="data-point" style="animation-delay: 2.45s" />
    <circle cx="549.6551724137931" cy="349.77989728539984" r="4" fill="#3498db" class="data-point" style="animation-delay: 2.50s" />
    <circle cx="574.1379310344828" cy="349.77989728539984" r="4" fill="#3498db" class="data-point" style="animation-delay: 2.55s" />
    <circle cx="598.6206896551724" cy="349.77989728539984" r="4" fill="#3498db" class="data-point" style="animation-delay: 2.60s" />
    <circle cx="623.1034482758621" cy="349.77989728539984" r="4" fill="#3498db" class="data-point" style="animation-delay: 2.65s" />
    <circle cx="647.5862068965517" cy="349.77989728539984" r="4" fill="#3498db" class="data-point" style="animation-delay: 2.70s" />
    <circle cx="672.0689655172414" cy="349.77989728539984" r="4" fill="#3498db" class="data-point" style="animation-delay: 2.75s" />
    <circle cx="696.551724137931" cy="349.77989728539984" r="4" fill="#3498db" class="data-point" style="animation-delay: 2.80s" />
    <circle cx="721.0344827586207" cy="349.77989728539984" r="4" fill="#3498db" class="data-point" style="animation-delay: 2.85s" />
    <circle cx="745.5172413793103" cy="349.77989728539984" r="4" fill="#3498db" class="data-point" style="animation-delay: 2.90s" />
    <circle cx="770" cy="349.77989728539984" r="4" fill="#3498db" class="data-point" style="animation-delay: 2.95s" />
    
    <circle cx="60" cy="349.88994864269995" r="4" fill="#9b59b6" class="data-point" style="animation-delay: 1.50s" />
    <circle cx="84.48275862068965" cy="349.88994864269995" r="4" fill="#9b59b6" class="data-point" style="animation-delay: 1.55s" />
    <circle cx="108.9655172413793" cy="349.88994864269995" r="4" fill="#9b59b6" class="data-point" style="animation-delay: 1.60s" />
    <circle cx="133.44827586206895" cy="349.88994864269995" r="4" fill="#9b59b6" class="data-point" style="animation-delay: 1.65s" />
    <circle cx="157.9310344827586" cy="349.88994864269995" r="4" fill="#9b59b6" class="data-point" style="animation-delay: 1.70s" />
    <circle cx="182.41379310344828" cy="349.88994864269995" r="4" fill="#9b59b6" class="data-point" style="animation-delay: 1.75s" />
    <circle cx="206.89655172413794" cy="349.88994864269995" r="4" fill="#9b59b6" class="data-point" style="animation-delay: 1.80s" />
    <circle cx="231.3793103448276" cy="349.88994864269995" r="4" fill="#9b59b6" class="data-point" style="animation-delay: 1.85s" />
    <circle cx="255.86206896551724" cy="349.88994864269995" r="4" fill="#9b59b6" class="data-point" style="animation-delay: 1.90s" />
    <circle cx="280.34482758620686" cy="349.88994864269995" r="4" fill="#9b59b6" class="data-point" style="animation-delay: 1.95s" />
    <circle cx="304.82758620689657" cy="349.88994864269995" r="4" fill="#9b59b6" class="data-point" style="animation-delay: 2.00s" />
    <circle cx="329.3103448275862" cy="349.88994864269995" r="4" fill="#9b59b6" class="data-point" style="animation-delay: 2.05s" />
    <circle cx="353.7931034482759" cy="349.88994864269995" r="4" fill="#9b59b6" class="data-point" style="animation-delay: 2.10s" />
    <circle cx="378.2758620689655" cy="349.88994864269995" r="4" fill="#9b59b6" class="data-point" style="animation-delay: 2.15s" />
    <circle cx="402.7586206896552" cy="349.88994864269995" r="4" fill="#9b59b6" class="data-point" style="animation-delay: 2.20s" />
    <circle cx="427.2413793103448" cy="349.88994864269995" r="4" fill="#9b59b6" class="data-point" style="animation-delay: 2.25s" />
    <circle cx="451.7241379310345" cy="349.88994864269995" r="4" fill="#9b59b6" class="data-point" style="animation-delay: 2.30s" />
    <circle cx="476.2068965517241" cy="349.88994864269995" r="4" fill="#9b59b6" class="data-point" style="animation-delay: 2.35s" />
    <circle cx="500.6896551724138" cy="349.88994864269995" r="4" fill="#9b59b6" class="data-point" style="animation-delay: 2.40s" />
    <circle cx="525.1724137931035" cy="349.88994864269995" r="4" fill="#9b59b6" class="data-point" style="animation-delay: 2.45s" />
    <circle cx="549.6551724137931" cy="349.88994864269995" r="4" fill="#9b59b6" class="data-point" style="animation-delay: 2.50s" />
    <circle cx="574.1379310344828" cy="349.88994864269995" r="4" fill="#9b59b6" class="data-point" style="animation-delay: 2.55s" />
    <circle cx="598.6206896551724" cy="349.88994864269995" r="4" fill="#9b59b6" class="data-point" style="animation-delay: 2.60s" />
    <circle cx="623.1034482758621" cy="349.88994864269995" r="4" fill="#9b59b6" class="data-point" style="animation-delay: 2.65s" />
    <circle cx="647.5862068965517" cy="349.88994864269995" r="4" fill="#9b59b6" class="data-point" style="animation-delay: 2.70s" />
    <circle cx="672.0689655172414" cy="349.88994864269995" r="4" fill="#9b59b6" class="data-point" style="animation-delay: 2.75s" />
    <circle cx="696.551724137931" cy="349.88994864269995" r="4" fill="#9b59b6" class="data-point" style="animation-delay: 2.80s" />
    <circle cx="721.0344827586207" cy="349.88994864269995" r="4" fill="#9b59b6" class="data-point" style="animation-delay: 2.85s" />
    <circle cx="745.5172413793103" cy="349.88994864269995" r="4" fill="#9b59b6" class="data-point" style="animation-delay: 2.90s" />
    <circle cx="770" cy="349.88994864269995" r="4" fill="#9b59b6" class="data-point" style="animation-delay: 2.95s" />
    
    <circle cx="60" cy="349.88994864269995" r="4" fill="#e67e22" class="data-point" style="animation-delay: 1.50s" />
    <circle cx="84.48275862068965" cy="349.88994864269995" r="4" fill="#e67e22" class="data-point" style="animation-delay: 1.55s" />
    <circle cx="108.9655172413793" cy="349.88994864269995" r="4" fill="#e67e22" class="data-point" style="animation-delay: 1.60s" />
    <circle cx="133.44827586206895" cy="349.88994864269995" r="4" fill="#e67e22" class="data-point" style="animation-delay: 1.65s" />
    <circle cx="157.9310344827586" cy="349.88994864269995" r="4" fill="#e67e22" class="data-point" style="animation-delay: 1.70s" />
    <circle cx="182.41379310344828" cy="349.88994864269995" r="4" fill="#e67e22" class="data-point" style="animation-delay: 1.75s" />
    <circle cx="206.89655172413794" cy="349.88994864269995" r="4" fill="#e67e22" class="data-point" style="animation-delay: 1.80s" />
    <circle cx="231.3793103448276" cy="349.88994864269995" r="4" fill="#e67e22" class="data-point" style="animation-delay: 1.85s" />
    <circle cx="255.86206896551724" cy="349.88994864269995" r="4" fill="#e67e22" class="data-point" style="animation-delay: 1.90s" />
    <circle cx="280.34482758620686" cy="349.88994864269995" r="4" fill="#e67e22" class="data-point" style="animation-delay: 1.95s" />
    <circle cx="304.82758620689657" cy="349.88994864269995" r="4" fill="#e67e22" class="data-point" style="animation-delay: 2.00s" />
    <circle cx="329.3103448275862" cy="349.88994864269995" r="4" fill="#e67e22" class="data-point" style="animation-delay: 2.05s" />
    <circle cx="353.7931034482759" cy="349.88994864269995" r="4" fill="#e67e22" class="data-point" style="animation-delay: 2.10s" />
    <circle cx="378.2758620689655" cy="349.88994864269995" r="4" fill="#e67e22" class="data-point" style="animation-delay: 2.15s" />
    <circle cx="402.7586206896552" cy="349.88994864269995" r="4" fill="#e67e22" class="data-point" style="animation-delay: 2.20s" />
    <circle cx="427.2413793103448" cy="349.88994864269995" r="4" fill="#e67e22" class="data-point" style="animation-delay: 2.25s" />
    <circle cx="451.7241379310345" cy="349.88994864269995" r="4" fill="#e67e22" class="data-point" style="animation-delay: 2.30s" />
    <circle cx="476.2068965517241" cy="349.88994864269995" r="4" fill="#e67e22" class="data-point" style="animation-delay: 2.35s" />
    <circle cx="500.6896551724138" cy="349.88994864269995" r="4" fill="#e67e22" class="data-point" style="animation-delay: 2.40s" />
    <circle cx="525.1724137931035" cy="349.88994864269995" r="4" fill="#e67e22" class="data-point" style="animation-delay: 2.45s" />
    <circle cx="549.6551724137931" cy="349.88994864269995" r="4" fill="#e67e22" class="data-point" style="animation-delay: 2.50s" />
    <circle cx="574.1379310344828" cy="349.88994864269995" r="4" fill="#e67e22" class="data-point" style="animation-delay: 2.55s" />
    <circle cx="598.6206896551724" cy="349.88994864269995" r="4" fill="#e67e22" class="data-point" style="animation-delay: 2.60s" />
    <circle cx="623.1034482758621" cy="349.88994864269995" r="4" fill="#e67e22" class="data-point" style="animation-delay: 2.65s" />
    <circle cx="647.5862068965517" cy="349.88994864269995" r="4" fill="#e67e22" class="data-point" style="animation-delay: 2.70s" />
    <circle cx="672.0689655172414" cy="349.88994864269995" r="4" fill="#e67e22" class="data-point" style="animation-delay: 2.75s" />
    <circle cx="696.551724137931" cy="349.88994864269995" r="4" fill="#e67e22" class="data-point" style="animation-delay: 2.80s" />
    <circle cx="721.0344827586207" cy="349.88994864269995" r="4" fill="#e67e22" class="data-point" style="animation-delay: 2.85s" />
    <circle cx="745.5172413793103" cy="349.88994864269995" r="4" fill="#e67e22" class="data-point" style="animation-delay: 2.90s" />
    <circle cx="770" cy="349.88994864269995" r="4" fill="#e67e22" class="data-point" style="animation-delay: 2.95s" />
    
    <circle cx="60" cy="349.88994864269995" r="4" fill="#1abc9c" class="data-point" style="animation-delay: 1.50s" />
    <circle cx="84.48275862068965" cy="349.88994864269995" r="4" fill="#1abc9c" class="data-point" style="animation-delay: 1.55s" />
    <circle cx="108.9655172413793" cy="349.88994864269995" r="4" fill="#1abc9c" class="data-point" style="animation-delay: 1.60s" />
    <circle cx="133.44827586206895" cy="349.88994864269995" r="4" fill="#1abc9c" class="data-point" style="animation-delay: 1.65s" />
    <circle cx="157.9310344827586" cy="349.88994864269995" r="4" fill="#1abc9c" class="data-point" style="animation-delay: 1.70s" />
    <circle cx="182.41379310344828" cy="349.88994864269995" r="4" fill="#1abc9c" class="data-point" style="animation-delay: 1.75s" />
    <circle cx="206.89655172413794" cy="349.88994864269995" r="4" fill="#1abc9c" class="data-point" style="animation-delay: 1.80s" />
    <circle cx="231.3793103448276" cy="349.88994864269995" r="4" fill="#1abc9c" class="data-point" style="animation-delay: 1.85s" />
    <circle cx="255.86206896551724" cy="349.88994864269995" r="4" fill="#1abc9c" class="data-point" style="animation-delay: 1.90s" />
    <circle cx="280.34482758620686" cy="349.88994864269995" r="4" fill="#1abc9c" class="data-point" style="animation-delay: 1.95s" />
    <circle cx="304.82758620689657" cy="349.88994864269995" r="4" fill="#1abc9c" class="data-point" style="animation-delay: 2.00s" />
    <circle cx="329.3103448275862" cy="349.88994864269995" r="4" fill="#1abc9c" class="data-point" style="animation-delay: 2.05s" />
    <circle cx="353.7931034482759" cy="349.88994864269995" r="4" fill="#1abc9c" class="data-point" style="animation-delay: 2.10s" />
    <circle cx="378.2758620689655" cy="349.88994864269995" r="4" fill="#1abc9c" class="data-point" style="animation-delay: 2.15s" />
    <circle cx="402.7586206896552" cy="349.88994864269995" r="4" fill="#1abc9c" class="data-point" style="animation-delay: 2.20s" />
    <circle cx="427.2413793103448" cy="349.88994864269995" r="4" fill="#1abc9c" class="data-point" style="animation-delay: 2.25s" />
    <circle cx="451.7241379310345" cy="349.88994864269995" r="4" fill="#1abc9c" class="data-point" style="animation-delay: 2.30s" />
    <circle cx="476.2068965517241" cy="349.88994864269995" r="4" fill="#1abc9c" class="data-point" style="animation-delay: 2.35s" />
    <circle cx="500.6896551724138" cy="349.88994864269995" r="4" fill="#1abc9c" class="data-point" style="animation-delay: 2.40s" />
    <circle cx="525.1724137931035" cy="349.88994864269995" r="4" fill="#1abc9c" class="data-point" style="animation-delay: 2.45s" />
    <circle cx="549.6551724137931" cy="349.88994864269995" r="4" fill="#1abc9c" class="data-point" style="animation-delay: 2.50s" />
    <circle cx="574.1379310344828" cy="349.88994864269995" r="4" fill="#1abc9c" class="data-point" style="animation-delay: 2.55s" />
    <circle cx="598.6206896551724" cy="349.88994864269995" r="4" fill="#1abc9c" class="data-point" style="animation-delay: 2.60s" />
    <circle cx="623.1034482758621" cy="349.88994864269995" r="4" fill="#1abc9c" class="data-point" style="animation-delay: 2.65s" />
    <circle cx="647.5862068965517" cy="349.88994864269995" r="4" fill="#1abc9c" class="data-point" style="animation-delay: 2.70s" />
    <circle cx="672.0689655172414" cy="349.88994864269995" r="4" fill="#1abc9c" class="data-point" style="animation-delay: 2.75s" />
    <circle cx="696.551724137931" cy="349.88994864269995" r="4" fill="#1abc9c" class="data-point" style="animation-delay: 2.80s" />
    <circle cx="721.0344827586207" cy="349.88994864269995" r="4" fill="#1abc9c" class="data-point" style="animation-delay: 2.85s" />
    <circle cx="745.5172413793103" cy="349.88994864269995" r="4" fill="#1abc9c" class="data-point" style="animation-delay: 2.90s" />
    <circle cx="770" cy="349.88994864269995" r="4" fill="#1abc9c" class="data-point" style="animation-delay: 2.95s" />
    
    <circle cx="60" cy="349.88994864269995" r="4" fill="#e84393" class="data-point" style="animation-delay: 1.50s" />
    <circle cx="84.48275862068965" cy="349.88994864269995" r="4" fill="#e84393" class="data-point" style="animation-delay: 1.55s" />
    <circle cx="108.9655172413793" cy="349.88994864269995" r="4" fill="#e84393" class="data-point" style="animation-delay: 1.60s" />
    <circle cx="133.44827586206895" cy="349.88994864269995" r="4" fill="#e84393" class="data-point" style="animation-delay: 1.65s" />
    <circle cx="157.9310344827586" cy="349.88994864269995" r="4" fill="#e84393" class="data-point" style="animation-delay: 1.70s" />
    <circle cx="182.41379310344828" cy="349.88994864269995" r="4" fill="#e84393" class="data-point" style="animation-delay: 1.75s" />
    <circle cx="206.89655172413794" cy="349.88994864269995" r="4" fill="#e84393" class="data-point" style="animation-delay: 1.80s" />
    <circle cx="231.3793103448276" cy="349.88994864269995" r="4" fill="#e84393" class="data-point" style="animation-delay: 1.85s" />
    <circle cx="255.86206896551724" cy="349.88994864269995" r="4" fill="#e84393" class="data-point" style="animation-delay: 1.90s" />
    <circle cx="280.34482758620686" cy="349.88994864269995" r="4" fill="#e84393" class="data-point" style="animation-delay: 1.95s" />
    <circle cx="304.82758620689657" cy="349.88994864269995" r="4" fill="#e84393" class="data-point" style="animation-delay: 2.00s" />
    <circle cx="329.3103448275862" cy="349.88994864269995" r="4" fill="#e84393" class="data-point" style="animation-delay: 2.05s" />
    <circle cx="353.7931034482759" cy="349.88994864269995" r="4" fill="#e84393" class="data-point" style="animation-delay: 2.10s" />
    <circle cx="378.2758620689655" cy="349.88994864269995" r="4" fill="#e84393" class="data-point" style="animation-delay: 2.15s" />
    <circle cx="402.7586206896552" cy="349.88994864269995" r="4" fill="#e84393" class="data-point" style="animation-delay: 2.20s" />
    <circle cx="427.2413793103448" cy="349.88994864269995" r="4" fill="#e84393" class="data-point" style="animation-delay: 2.25s" />
    <circle cx="451.7241379310345" cy="349.88994864269995" r="4" fill="#e84393" class="data-point" style="animation-delay: 2.30s" />
    <circle cx="476.2068965517241" cy="349.88994864269995" r="4" fill="#e84393" class="data-point" style="animation-delay: 2.35s" />
    <circle cx="500.6896551724138" cy="349.88994864269995" r="4" fill="#e84393" class="data-point" style="animation-delay: 2.40s" />
    <circle cx="525.1724137931035" cy="349.88994864269995" r="4" fill="#e84393" class="data-point" style="animation-delay: 2.45s" />
    <circle cx="549.6551724137931" cy="349.88994864269995" r="4" fill="#e84393" class="data-point" style="animation-delay: 2.50s" />
    <circle cx="574.1379310344828" cy="349.88994864269995" r="4" fill="#e84393" class="data-point" style="animation-delay: 2.55s" />
    <circle cx="598.6206896551724" cy="349.88994864269995" r="4" fill="#e84393" class="data-point" style="animation-delay: 2.60s" />
    <circle cx="623.1034482758621" cy="349.88994864269995" r="4" fill="#e84393" class="data-point" style="animation-delay: 2.65s" />
    <circle cx="647.5862068965517" cy="349.88994864269995" r="4" fill="#e84393" class="data-point" style="animation-delay: 2.70s" />
    <circle cx="672.0689655172414" cy="349.88994864269995" r="4" fill="#e84393" class="data-point" style="animation-delay: 2.75s" />
    <circle cx="696.551724137931" cy="349.88994864269995" r="4" fill="#e84393" class="data-point" style="animation-delay: 2.80s" />
    <circle cx="721.0344827586207" cy="349.88994864269995" r="4" fill="#e84393" class="data-point" style="animation-delay: 2.85s" />
    <circle cx="745.5172413793103" cy="349.88994864269995" r="4" fill="#e84393" class="data-point" style="animation-delay: 2.90s" />
    <circle cx="770" cy="349.88994864269995" r="4" fill="#e84393" class="data-point" style="animation-delay: 2.95s" />
    
    <circle cx="60" cy="350" r="4" fill="#795548" class="data-point" style="animation-delay: 1.50s" />
    <circle cx="84.48275862068965" cy="350" r="4" fill="#795548" class="data-point" style="animation-delay: 1.55s" />
    <circle cx="108.9655172413793" cy="350" r="4" fill="#795548" class="data-point" style="animation-delay: 1.60s" />
    <circle cx="133.44827586206895" cy="350" r="4" fill="#795548" class="data-point" style="animation-delay: 1.65s" />
    <circle cx="157.9310344827586" cy="350" r="4" fill="#795548" class="data-point" style="animation-delay: 1.70s" />
    <circle cx="182.41379310344828" cy="350" r="4" fill="#795548" class="data-point" style="animation-delay: 1.75s" />
    <circle cx="206.89655172413794" cy="350" r="4" fill="#795548" class="data-point" style="animation-delay: 1.80s" />
    <circle cx="231.3793103448276" cy="350" r="4" fill="#795548" class="data-point" style="animation-delay: 1.85s" />
    <circle cx="255.86206896551724" cy="350" r="4" fill="#795548" class="data-point" style="animation-delay: 1.90s" />
    <circle cx="280.34482758620686" cy="350" r="4" fill="#795548" class="data-point" style="animation-delay: 1.95s" />
    <circle cx="304.82758620689657" cy="350" r="4" fill="#795548" class="data-point" style="animation-delay: 2.00s" />
    <circle cx="329.3103448275862" cy="350" r="4" fill="#795548" class="data-point" style="animation-delay: 2.05s" />
    <circle cx="353.7931034482759" cy="350" r="4" fill="#795548" class="data-point" style="animation-delay: 2.10s" />
    <circle cx="378.2758620689655" cy="350" r="4" fill="#795548" class="data-point" style="animation-delay: 2.15s" />
    <circle cx="402.7586206896552" cy="350" r="4" fill="#795548" class="data-point" style="animation-delay: 2.20s" />
    <circle cx="427.2413793103448" cy="350" r="4" fill="#795548" class="data-point" style="animation-delay: 2.25s" />
    <circle cx="451.7241379310345" cy="350" r="4" fill="#795548" class="data-point" style="animation-delay: 2.30s" />
    <circle cx="476.2068965517241" cy="350" r="4" fill="#795548" class="data-point" style="animation-delay: 2.35s" />
    <circle cx="500.6896551724138" cy="350" r="4" fill="#795548" class="data-point" style="animation-delay: 2.40s" />
    <circle cx="525.1724137931035" cy="350" r="4" fill="#795548" class="data-point" style="animation-delay: 2.45s" />
    <circle cx="549.6551724137931" cy="350" r="4" fill="#795548" class="data-point" style="animation-delay: 2.50s" />
    <circle cx="574.1379310344828" cy="350" r="4" fill="#795548" class="data-point" style="animation-delay: 2.55s" />
    <circle cx="598.6206896551724" cy="350" r="4" fill="#795548" class="data-point" style="animation-delay: 2.60s" />
    <circle cx="623.1034482758621" cy="350" r="4" fill="#795548" class="data-point" style="animation-delay: 2.65s" />
    <circle cx="647.5862068965517" cy="350" r="4" fill="#795548" class="data-point" style="animation-delay: 2.70s" />
    <circle cx="672.0689655172414" cy="350" r="4" fill="#795548" class="data-point" style="animation-delay: 2.75s" />
    <circle cx="696.551724137931" cy="350" r="4" fill="#795548" class="data-point" style="animation-delay: 2.80s" />
    <circle cx="721.0344827586207" cy="350" r="4" fill="#795548" class="data-point" style="animation-delay: 2.85s" />
    <circle cx="745.5172413793103" cy="350" r="4" fill="#795548" class="data-point" style="animation-delay: 2.90s" />
    <circle cx="770" cy="350" r="4" fill="#795548" class="data-point" style="animation-delay: 2.95s" />
    
    <circle cx="60" cy="350" r="4" fill="#00bcd4" class="data-point" style="animation-delay: 1.50s" />
    <circle cx="84.48275862068965" cy="350" r="4" fill="#00bcd4" class="data-point" style="animation-delay: 1.55s" />
    <circle cx="108.9655172413793" cy="350" r="4" fill="#00bcd4" class="data-point" style="animation-delay: 1.60s" />
    <circle cx="133.44827586206895" cy="350" r="4" fill="#00bcd4" class="data-point" style="animation-delay: 1.65s" />
    <circle cx="157.9310344827586" cy="350" r="4" fill="#00bcd4" class="data-point" style="animation-delay: 1.70s" />
    <circle cx="182.41379310344828" cy="350" r="4" fill="#00bcd4" class="data-point" style="animation-delay: 1.75s" />
    <circle cx="206.89655172413794" cy="350" r="4" fill="#00bcd4" class="data-point" style="animation-delay: 1.80s" />
    <circle cx="231.3793103448276" cy="350" r="4" fill="#00bcd4" class="data-point" style="animation-delay: 1.85s" />
    <circle cx="255.86206896551724" cy="350" r="4" fill="#00bcd4" class="data-point" style="animation-delay: 1.90s" />
    <circle cx="280.34482758620686" cy="350" r="4" fill="#00bcd4" class="data-point" style="animation-delay: 1.95s" />
    <circle cx="304.82758620689657" cy="350" r="4" fill="#00bcd4" class="data-point" style="animation-delay: 2.00s" />
    <circle cx="329.3103448275862" cy="350" r="4" fill="#00bcd4" class="data-point" style="animation-delay: 2.05s" />
    <circle cx="353.7931034482759" cy="350" r="4" fill="#00bcd4" class="data-point" style="animation-delay: 2.10s" />
    <circle cx="378.2758620689655" cy="350" r="4" fill="#00bcd4" class="data-point" style="animation-delay: 2.15s" />
    <circle cx="402.7586206896552" cy="350" r="4" fill="#00bcd4" class="data-point" style="animation-delay: 2.20s" />
    <circle cx="427.2413793103448" cy="350" r="4" fill="#00bcd4" class="data-point" style="animation-delay: 2.25s" />
    <circle cx="451.7241379310345" cy="350" r="4" fill="#00bcd4" class="data-point" style="animation-delay: 2.30s" />
    <circle cx="476.2068965517241" cy="350" r="4" fill="#00bcd4" class="data-point" style="animation-delay: 2.35s" />
    <circle cx="500.6896551724138" cy="350" r="4" fill="#00bcd4" class="data-point" style="animation-delay: 2.40s" />
    <circle cx="525.1724137931035" cy="350" r="4" fill="#00bcd4" class="data-point" style="animation-delay: 2.45s" />
    <circle cx="549.6551724137931" cy="350" r="4" fill="#00bcd4" class="data-point" style="animation-delay: 2.50s" />
    <circle cx="574.1379310344828" cy="350" r="4" fill="#00bcd4" class="data-point" style="animation-delay: 2.55s" />
    <circle cx="598.6206896551724" cy="350" r="4" fill="#00bcd4" class="data-point" style="animation-delay: 2.60s" />
    <circle cx="623.1034482758621" cy="350" r="4" fill="#00bcd4" class="data-point" style="animation-delay: 2.65s" />
    <circle cx="647.5862068965517" cy="350" r="4" fill="#00bcd4" class="data-point" style="animation-delay: 2.70s" />
    <circle cx="672.0689655172414" cy="350" r="4" fill="#00bcd4" class="data-point" style="animation-delay: 2.75s" />
    <circle cx="696.551724137931" cy="350" r="4" fill="#00bcd4" class="data-point" style="animation-delay: 2.80s" />
    <circle cx="721.0344827586207" cy="350" r="4" fill="#00bcd4" class="data-point" style="animation-delay: 2.85s" />
    <circle cx="745.5172413793103" cy="350" r="4" fill="#00bcd4" class="data-point" style="animation-delay: 2.90s" />
    <circle cx="770" cy="350" r="4" fill="#00bcd4" class="data-point" style="animation-delay: 2.95s" />
  </g>
</svg>