<svg xmlns="http://www.w3.org/2000/svg" viewBox="0 0 800 400" width="800" height="400">
  <style>
    @keyframes drawLine {
      to { stroke-dashoffset: 0; }
    }
    @keyframes fadeInPoint {
      from { opacity: 0; }
      to { opacity: 1; }
    }
    .data-line-0 {
      stroke-dasharray: 1066;
      stroke-dashoffset: 1066;
      animation: drawLine 2s ease-out forwards;
    }
    .data-line-1 {
      stroke-dasharray: 1065;
      stroke-dashoffset: 1065;
      animation: drawLine 2s ease-out forwards;
    }
    .data-line-2 {
      stroke-dasharray: 1065;
      stroke-dashoffset: 1065;
      animation: drawLine 2s ease-out forwards;
    }
    .data-line-3 {
      stroke-dasharray: 1065;
      stroke-dashoffset: 1065;
      animation: drawLine 2s ease-out forwards;
    }
    .data-line-4 {
      stroke-dasharray: 1065;
      stroke-dashoffset: 1065;
      animation: drawLine 2s ease-out forwards;
    }
    .data-line-5 {
      stroke-dasharray: 1065;
      stroke-dashoffset: 1065;
      animation: drawLine 2s ease-out forwards;
    }
    .data-line-6 {
      stroke-dasharray: 1065;
      stroke-dashoffset: 1065;
      animation: drawLine 2s ease-out forwards;
    }
    .data-line-7 {
      stroke-dasharray: 1065;
      stroke-dashoffset: 1065;
      animation: drawLine 2s ease-out forwards;
    }
    .data-line-8 {
      stroke-dasharray: 1065;
      stroke-dashoffset: 1065;
      animation: drawLine 2s ease-out forwards;
    }
    .data-line-9 {
      stroke-dasharray: 1065;
      stroke-dashoffset: 1065;
      animation: drawLine 2s ease-out forwards;
    }
    .data-point {
      opacity: 0;
      animation: fadeInPoint 0.5s ease-out forwards;
    }
    .chart-bg { fill: #fff; }
    .chart-text { fill: #24292e; }
    .chart-muted { fill: #6a737d; }
    .chart-grid { stroke: #eee; }
    .chart-axis { stroke: #6a737d; }
    @media (prefers-color-scheme: dark) {
      .chart-bg { fill: #0d1117; }
      .chart-text { fill: #e6edf3; }
      .chart-muted { fill: #8b949e; }
      .chart-grid { stroke: #21262d; }
      .chart-axis { stroke: #8b949e; }
    }
  </style>
  <rect width="800" height="400" class="chart-bg" />
  <text x="400" y="14" text-anchor="middle" class="chart-text" font-size="16" font-weight="bold" font-family="-apple-system, BlinkMacSystemFont, 'Segoe UI', Helvetica, Arial, sans-serif">Top Repositories</text>
  <g class="legend">
    <rect x="-200" y="31" width="12" height="3" fill="#dfb317" />
    <line x1="-200" y1="32.5" x2="-188" y2="32.5" stroke="#dfb317" stroke-width="2" />
    <text x="-184" y="36" class="chart-text" font-size="10" font-family="-apple-system, BlinkMacSystemFont, 'Segoe UI', Helvetica, Arial, sans-serif">SteamGridDB/steam-rom-manager</text>
    <rect x="-80" y="31" width="12" height="3" fill="#28a745" />
    <line x1="-80" y1="32.5" x2="-68" y2="32.5" stroke="#28a745" stroke-width="2" />
    <text x="-64" y="36" class="chart-text" font-size="10" font-family="-apple-system, BlinkMacSystemFont, 'Segoe UI', Helvetica, Arial, sans-serif">cbartondock/node-binary-vdf</text>
    <rect x="40" y="31" width="12" height="3" fill="#e74c3c" />
    <line x1="40" y1="32.5" x2="52" y2="32.5" stroke="#e74c3c" stroke-width="2" />
    <text x="56" y="36" class="chart-text" font-size="10" font-family="-apple-system, BlinkMacSystemFont, 'Segoe UI', Helvetica, Arial, sans-serif">cbartondock/PortableEnv</text>
    <rect x="160" y="31" width="12" height="3" fill="#3498db" />
    <line x1="160" y1="32.5" x2="172" y2="32.5" stroke="#3498db" stroke-width="2" />
    <text x="176" y="36" class="chart-text" font-size="10" font-family="-apple-system, BlinkMacSystemFont, 'Segoe UI', Helvetica, Arial, sans-serif">cbartondock/Windwaker</text>
    <rect x="280" y="31" width="12" height="3" fill="#9b59b6" />
    <line x1="280" y1="32.5" x2="292" y2="32.5" stroke="#9b59b6" stroke-width="2" />
    <text x="296" y="36" class="chart-text" font-size="10" font-family="-apple-system, BlinkMacSystemFont, 'Segoe UI', Helvetica, Arial, sans-serif">cbartondock/chaos</text>
    <rect x="400" y="31" width="12" height="3" fill="#e67e22" />
    <line x1="400" y1="32.5" x2="412" y2="32.5" stroke="#e67e22" stroke-width="2" />
    <text x="416" y="36" class="chart-text" font-size="10" font-family="-apple-system, BlinkMacSystemFont, 'Segoe UI', Helvetica, Arial, sans-serif">cbartondock/riemann-sphere</text>
    <rect x="520" y="31" width="12" height="3" fill="#1abc9c" />
    <line x1="520" y1="32.5" x2="532" y2="32.5" stroke="#1abc9c" stroke-width="2" />
    <text x="536" y="36" class="chart-text" font-size="10" font-family="-apple-system, BlinkMacSystemFont, 'Segoe UI', Helvetica, Arial, sans-serif">cbartondock/tak-concept-art</text>
    <rect x="640" y="31" width="12" height="3" fill="#e84393" />
    <line x1="640" y1="32.5" x2="652" y2="32.5" stroke="#e84393" stroke-width="2" />
    <text x="656" y="36" class="chart-text" font-size="10" font-family="-apple-system, BlinkMacSystemFont, 'Segoe UI', Helvetica, Arial, sans-serif">stephan-x-liu/sublimechat</text>
    <rect x="760" y="31" width="12" height="3" fill="#795548" />
    <line x1="760" y1="32.5" x2="772" y2="32.5" stroke="#795548" stroke-width="2" />
    <text x="776" y="36" class="chart-text" font-size="10" font-family="-apple-system, BlinkMacSystemFont, 'Segoe UI', Helvetica, Arial, sans-serif">cbartondock/academicpages.github.io</text>
    <rect x="880" y="31" width="12" height="3" fill="#00bcd4" />
    <line x1="880" y1="32.5" x2="892" y2="32.5" stroke="#00bcd4" stroke-width="2" />
    <text x="896" y="36" class="chart-text" font-size="10" font-family="-apple-system, BlinkMacSystemFont, 'Segoe UI', Helvetica, Arial, sans-serif">cbartondock/discordBadge</text>
  </g>
  <g class="grid">
    <line x1="60" y1="350" x2="770" y2="350" class="chart-grid" stroke-opacity="0.3" />
    <text x="52" y="354" text-anchor="end" class="chart-muted" font-size="11" font-family="-apple-system, BlinkMacSystemFont, 'Segoe UI', Helvetica, Arial, sans-serif">0</text>
    <line x1="60" y1="295.4347035285558" x2="770" y2="295.4347035285558" class="chart-grid" stroke-opacity="0.3" />
    <text x="52" y="299.4347035285558" text-anchor="end" class="chart-muted" font-size="11" font-family="-apple-system, BlinkMacSystemFont, 'Segoe UI', Helvetica, Arial, sans-serif">500</text>
    <line x1="60" y1="240.8694070571117" x2="770" y2="240.8694070571117" class="chart-grid" stroke-opacity="0.3" />
    <text x="52" y="244.8694070571117" text-anchor="end" class="chart-muted" font-size="11" font-family="-apple-system, BlinkMacSystemFont, 'Segoe UI', Helvetica, Arial, sans-serif">1K</text>
    <line x1="60" y1="186.30411058566753" x2="770" y2="186.30411058566753" class="chart-grid" stroke-opacity="0.3" />
    <text x="52" y="190.30411058566753" text-anchor="end" class="chart-muted" font-size="11" font-family="-apple-system, BlinkMacSystemFont, 'Segoe UI', Helvetica, Arial, sans-serif">1.5K</text>
    <line x1="60" y1="131.73881411422335" x2="770" y2="131.73881411422335" class="chart-grid" stroke-opacity="0.3" />
    <text x="52" y="135.73881411422335" text-anchor="end" class="chart-muted" font-size="11" font-family="-apple-system, BlinkMacSystemFont, 'Segoe UI', Helvetica, Arial, sans-serif">2K</text>
    <line x1="60" y1="77.17351764277919" x2="770" y2="77.17351764277919" class="chart-grid" stroke-opacity="0.3" />
    <text x="52" y="81.17351764277919" text-anchor="end" class="chart-muted" font-size="11" font-family="-apple-system, BlinkMacSystemFont, 'Segoe UI', Helvetica, Arial, sans-serif">2.5K</text>
  </g>
  <g class="milestones">
    
  </g>
  <g class="x-axis">
    <text x="60" y="370" text-anchor="middle" class="chart-muted" font-size="11" font-family="-apple-system, BlinkMacSystemFont, 'Segoe UI', Helvetica, Arial, sans-serif">Jul 12</text>
    <text x="169.23076923076923" y="370" text-anchor="middle" class="chart-muted" font-size="11" font-family="-apple-system, BlinkMacSystemFont, 'Segoe UI', Helvetica, Arial, sans-serif">Jul 13</text>
    <text x="278.46153846153845" y="370" text-anchor="middle" class="chart-muted" font-size="11" font-family="-apple-system, BlinkMacSystemFont, 'Segoe UI', Helvetica, Arial, sans-serif">Jul 15</text>
    <text x="387.69230769230774" y="370" text-anchor="middle" class="chart-muted" font-size="11" font-family="-apple-system, BlinkMacSystemFont, 'Segoe UI', Helvetica, Arial, sans-serif">Jul 17</text>
    <text x="496.92307692307696" y="370" text-anchor="middle" class="chart-muted" font-size="11" font-family="-apple-system, BlinkMacSystemFont, 'Segoe UI', Helvetica, Arial, sans-serif">Jul 19</text>
    <text x="606.1538461538462" y="370" text-anchor="middle" class="chart-muted" font-size="11" font-family="-apple-system, BlinkMacSystemFont, 'Segoe UI', Helvetica, Arial, sans-serif">Jul 21</text>
    <text x="715.3846153846155" y="370" text-anchor="middle" class="chart-muted" font-size="11" font-family="-apple-system, BlinkMacSystemFont, 'Segoe UI', Helvetica, Arial, sans-serif">Jul 23</text>
    <text x="770" y="370" text-anchor="middle" class="chart-muted" font-size="11" font-family="-apple-system, BlinkMacSystemFont, 'Segoe UI', Helvetica, Arial, sans-serif">Jul 24</text>
  </g>
  <line x1="60" y1="50" x2="60" y2="350" class="chart-axis" stroke-width="1" />
  <line x1="60" y1="350" x2="770" y2="350" class="chart-axis" stroke-width="1" />
  
  
  
  
  
  
  
  
  
  
  <path d="M60,79.57439068752274 C78.2051282051282,79.57439068752274 96.41025641025641,79.57439068752274 114.61538461538461,79.57439068752274 C132.82051282051282,79.57439068752274 151.02564102564102,79.57439068752274 169.23076923076923,79.57439068752274 C187.43589743589743,79.57439068752274 205.64102564102566,79.57439068752274 223.84615384615387,79.57439068752274 C242.05128205128207,79.57439068752274 260.2564102564103,79.46526009457983 278.46153846153845,79.46526009457983 C296.6666666666667,79.46526009457983 314.87179487179486,79.46526009457983 333.0769230769231,79.46526009457983 C351.2820512820513,79.46526009457983 369.4871794871795,79.39250636595122 387.69230769230774,79.35612950163693 C405.8974358974359,79.31975263732264 424.1025641025641,79.24699890869408 442.30769230769226,79.24699890869408 C460.5128205128205,79.24699890869408 478.71794871794873,79.24699890869408 496.92307692307696,79.24699890869408 C515.1282051282052,79.24699890869408 533.3333333333334,79.35612950163693 551.5384615384615,79.35612950163693 C569.7435897435897,79.35612950163693 587.948717948718,79.35612950163693 606.1538461538462,79.35612950163693 C624.3589743589744,79.35612950163693 642.5641025641025,79.06511458712261 660.7692307692307,78.91960712986543 C678.974358974359,78.77409967260824 697.1794871794872,78.75591124045108 715.3846153846155,78.48308475809387 C733.5897435897436,78.21025827573665 751.7948717948718,77.68279374317935 770,77.28264823572209" fill="none" stroke="#dfb317" stroke-width="2.5" class="data-line-0" />
  <path d="M60,349.67260822117134 C78.2051282051282,349.67260822117134 96.41025641025641,349.67260822117134 114.61538461538461,349.67260822117134 C132.82051282051282,349.67260822117134 151.02564102564102,349.67260822117134 169.23076923076923,349.67260822117134 C187.43589743589743,349.67260822117134 205.64102564102566,349.67260822117134 223.84615384615387,349.67260822117134 C242.05128205128207,349.67260822117134 260.2564102564103,349.67260822117134 278.46153846153845,349.67260822117134 C296.6666666666667,349.67260822117134 314.87179487179486,349.67260822117134 333.0769230769231,349.67260822117134 C351.2820512820513,349.67260822117134 369.4871794871795,349.67260822117134 387.69230769230774,349.67260822117134 C405.8974358974359,349.67260822117134 424.1025641025641,349.67260822117134 442.30769230769226,349.67260822117134 C460.5128205128205,349.67260822117134 478.71794871794873,349.67260822117134 496.92307692307696,349.67260822117134 C515.1282051282052,349.67260822117134 533.3333333333334,349.67260822117134 551.5384615384615,349.67260822117134 C569.7435897435897,349.67260822117134 587.948717948718,349.67260822117134 606.1538461538462,349.67260822117134 C624.3589743589744,349.67260822117134 642.5641025641025,349.67260822117134 660.7692307692307,349.67260822117134 C678.974358974359,349.67260822117134 697.1794871794872,349.67260822117134 715.3846153846155,349.67260822117134 C733.5897435897436,349.67260822117134 751.7948717948718,349.67260822117134 770,349.67260822117134" fill="none" stroke="#28a745" stroke-width="2.5" class="data-line-1" />
  <path d="M60,349.78173881411425 C78.2051282051282,349.78173881411425 96.41025641025641,349.78173881411425 114.61538461538461,349.78173881411425 C132.82051282051282,349.78173881411425 151.02564102564102,349.78173881411425 169.23076923076923,349.78173881411425 C187.43589743589743,349.78173881411425 205.64102564102566,349.78173881411425 223.84615384615387,349.78173881411425 C242.05128205128207,349.78173881411425 260.2564102564103,349.78173881411425 278.46153846153845,349.78173881411425 C296.6666666666667,349.78173881411425 314.87179487179486,349.78173881411425 333.0769230769231,349.78173881411425 C351.2820512820513,349.78173881411425 369.4871794871795,349.78173881411425 387.69230769230774,349.78173881411425 C405.8974358974359,349.78173881411425 424.1025641025641,349.78173881411425 442.30769230769226,349.78173881411425 C460.5128205128205,349.78173881411425 478.71794871794873,349.78173881411425 496.92307692307696,349.78173881411425 C515.1282051282052,349.78173881411425 533.3333333333334,349.78173881411425 551.5384615384615,349.78173881411425 C569.7435897435897,349.78173881411425 587.948717948718,349.78173881411425 606.1538461538462,349.78173881411425 C624.3589743589744,349.78173881411425 642.5641025641025,349.78173881411425 660.7692307692307,349.78173881411425 C678.974358974359,349.78173881411425 697.1794871794872,349.78173881411425 715.3846153846155,349.78173881411425 C733.5897435897436,349.78173881411425 751.7948717948718,349.78173881411425 770,349.78173881411425" fill="none" stroke="#e74c3c" stroke-width="2.5" class="data-line-2" />
  <path d="M60,349.78173881411425 C78.2051282051282,349.78173881411425 96.41025641025641,349.78173881411425 114.61538461538461,349.78173881411425 C132.82051282051282,349.78173881411425 151.02564102564102,349.78173881411425 169.23076923076923,349.78173881411425 C187.43589743589743,349.78173881411425 205.64102564102566,349.78173881411425 223.84615384615387,349.78173881411425 C242.05128205128207,349.78173881411425 260.2564102564103,349.78173881411425 278.46153846153845,349.78173881411425 C296.6666666666667,349.78173881411425 314.87179487179486,349.78173881411425 333.0769230769231,349.78173881411425 C351.2820512820513,349.78173881411425 369.4871794871795,349.78173881411425 387.69230769230774,349.78173881411425 C405.8974358974359,349.78173881411425 424.1025641025641,349.78173881411425 442.30769230769226,349.78173881411425 C460.5128205128205,349.78173881411425 478.71794871794873,349.78173881411425 496.92307692307696,349.78173881411425 C515.1282051282052,349.78173881411425 533.3333333333334,349.78173881411425 551.5384615384615,349.78173881411425 C569.7435897435897,349.78173881411425 587.948717948718,349.78173881411425 606.1538461538462,349.78173881411425 C624.3589743589744,349.78173881411425 642.5641025641025,349.78173881411425 660.7692307692307,349.78173881411425 C678.974358974359,349.78173881411425 697.1794871794872,349.78173881411425 715.3846153846155,349.78173881411425 C733.5897435897436,349.78173881411425 751.7948717948718,349.78173881411425 770,349.78173881411425" fill="none" stroke="#3498db" stroke-width="2.5" class="data-line-3" />
  <path d="M60,349.8908694070571 C78.2051282051282,349.8908694070571 96.41025641025641,349.8908694070571 114.61538461538461,349.8908694070571 C132.82051282051282,349.8908694070571 151.02564102564102,349.8908694070571 169.23076923076923,349.8908694070571 C187.43589743589743,349.8908694070571 205.64102564102566,349.8908694070571 223.84615384615387,349.8908694070571 C242.05128205128207,349.8908694070571 260.2564102564103,349.8908694070571 278.46153846153845,349.8908694070571 C296.6666666666667,349.8908694070571 314.87179487179486,349.8908694070571 333.0769230769231,349.8908694070571 C351.2820512820513,349.8908694070571 369.4871794871795,349.8908694070571 387.69230769230774,349.8908694070571 C405.8974358974359,349.8908694070571 424.1025641025641,349.8908694070571 442.30769230769226,349.8908694070571 C460.5128205128205,349.8908694070571 478.71794871794873,349.8908694070571 496.92307692307696,349.8908694070571 C515.1282051282052,349.8908694070571 533.3333333333334,349.8908694070571 551.5384615384615,349.8908694070571 C569.7435897435897,349.8908694070571 587.948717948718,349.8908694070571 606.1538461538462,349.8908694070571 C624.3589743589744,349.8908694070571 642.5641025641025,349.8908694070571 660.7692307692307,349.8908694070571 C678.974358974359,349.8908694070571 697.1794871794872,349.8908694070571 715.3846153846155,349.8908694070571 C733.5897435897436,349.8908694070571 751.7948717948718,349.8908694070571 770,349.8908694070571" fill="none" stroke="#9b59b6" stroke-width="2.5" class="data-line-4" />
  <path d="M60,349.8908694070571 C78.2051282051282,349.8908694070571 96.41025641025641,349.8908694070571 114.61538461538461,349.8908694070571 C132.82051282051282,349.8908694070571 151.02564102564102,349.8908694070571 169.23076923076923,349.8908694070571 C187.43589743589743,349.8908694070571 205.64102564102566,349.8908694070571 223.84615384615387,349.8908694070571 C242.05128205128207,349.8908694070571 260.2564102564103,349.8908694070571 278.46153846153845,349.8908694070571 C296.6666666666667,349.8908694070571 314.87179487179486,349.8908694070571 333.0769230769231,349.8908694070571 C351.2820512820513,349.8908694070571 369.4871794871795,349.8908694070571 387.69230769230774,349.8908694070571 C405.8974358974359,349.8908694070571 424.1025641025641,349.8908694070571 442.30769230769226,349.8908694070571 C460.5128205128205,349.8908694070571 478.71794871794873,349.8908694070571 496.92307692307696,349.8908694070571 C515.1282051282052,349.8908694070571 533.3333333333334,349.8908694070571 551.5384615384615,349.8908694070571 C569.7435897435897,349.8908694070571 587.948717948718,349.8908694070571 606.1538461538462,349.8908694070571 C624.3589743589744,349.8908694070571 642.5641025641025,349.8908694070571 660.7692307692307,349.8908694070571 C678.974358974359,349.8908694070571 697.1794871794872,349.8908694070571 715.3846153846155,349.8908694070571 C733.5897435897436,349.8908694070571 751.7948717948718,349.8908694070571 770,349.8908694070571" fill="none" stroke="#e67e22" stroke-width="2.5" class="data-line-5" />
  <path d="M60,349.8908694070571 C78.2051282051282,349.8908694070571 96.41025641025641,349.8908694070571 114.61538461538461,349.8908694070571 C132.82051282051282,349.8908694070571 151.02564102564102,349.8908694070571 169.23076923076923,349.8908694070571 C187.43589743589743,349.8908694070571 205.64102564102566,349.8908694070571 223.84615384615387,349.8908694070571 C242.05128205128207,349.8908694070571 260.2564102564103,349.8908694070571 278.46153846153845,349.8908694070571 C296.6666666666667,349.8908694070571 314.87179487179486,349.8908694070571 333.0769230769231,349.8908694070571 C351.2820512820513,349.8908694070571 369.4871794871795,349.8908694070571 387.69230769230774,349.8908694070571 C405.8974358974359,349.8908694070571 424.1025641025641,349.8908694070571 442.30769230769226,349.8908694070571 C460.5128205128205,349.8908694070571 478.71794871794873,349.8908694070571 496.92307692307696,349.8908694070571 C515.1282051282052,349.8908694070571 533.3333333333334,349.8908694070571 551.5384615384615,349.8908694070571 C569.7435897435897,349.8908694070571 587.948717948718,349.8908694070571 606.1538461538462,349.8908694070571 C624.3589743589744,349.8908694070571 642.5641025641025,349.8908694070571 660.7692307692307,349.8908694070571 C678.974358974359,349.8908694070571 697.1794871794872,349.8908694070571 715.3846153846155,349.8908694070571 C733.5897435897436,349.8908694070571 751.7948717948718,349.8908694070571 770,349.8908694070571" fill="none" stroke="#1abc9c" stroke-width="2.5" class="data-line-6" />
  <path d="M60,349.8908694070571 C78.2051282051282,349.8908694070571 96.41025641025641,349.8908694070571 114.61538461538461,349.8908694070571 C132.82051282051282,349.8908694070571 151.02564102564102,349.8908694070571 169.23076923076923,349.8908694070571 C187.43589743589743,349.8908694070571 205.64102564102566,349.8908694070571 223.84615384615387,349.8908694070571 C242.05128205128207,349.8908694070571 260.2564102564103,349.8908694070571 278.46153846153845,349.8908694070571 C296.6666666666667,349.8908694070571 314.87179487179486,349.8908694070571 333.0769230769231,349.8908694070571 C351.2820512820513,349.8908694070571 369.4871794871795,349.8908694070571 387.69230769230774,349.8908694070571 C405.8974358974359,349.8908694070571 424.1025641025641,349.8908694070571 442.30769230769226,349.8908694070571 C460.5128205128205,349.8908694070571 478.71794871794873,349.8908694070571 496.92307692307696,349.8908694070571 C515.1282051282052,349.8908694070571 533.3333333333334,349.8908694070571 551.5384615384615,349.8908694070571 C569.7435897435897,349.8908694070571 587.948717948718,349.8908694070571 606.1538461538462,349.8908694070571 C624.3589743589744,349.8908694070571 642.5641025641025,349.8908694070571 660.7692307692307,349.8908694070571 C678.974358974359,349.8908694070571 697.1794871794872,349.8908694070571 715.3846153846155,349.8908694070571 C733.5897435897436,349.8908694070571 751.7948717948718,349.8908694070571 770,349.8908694070571" fill="none" stroke="#e84393" stroke-width="2.5" class="data-line-7" />
  <path d="M60,350 C78.2051282051282,350 96.41025641025641,350 114.61538461538461,350 C132.82051282051282,350 151.02564102564102,350 169.23076923076923,350 C187.43589743589743,350 205.64102564102566,350 223.84615384615387,350 C242.05128205128207,350 260.2564102564103,350 278.46153846153845,350 C296.6666666666667,350 314.87179487179486,350 333.0769230769231,350 C351.2820512820513,350 369.4871794871795,350 387.69230769230774,350 C405.8974358974359,350 424.1025641025641,350 442.30769230769226,350 C460.5128205128205,350 478.71794871794873,350 496.92307692307696,350 C515.1282051282052,350 533.3333333333334,350 551.5384615384615,350 C569.7435897435897,350 587.948717948718,350 606.1538461538462,350 C624.3589743589744,350 642.5641025641025,350 660.7692307692307,350 C678.974358974359,350 697.1794871794872,350 715.3846153846155,350 C733.5897435897436,350 751.7948717948718,350 770,350" fill="none" stroke="#795548" stroke-width="2.5" class="data-line-8" />
  <path d="M60,350 C78.2051282051282,350 96.41025641025641,350 114.61538461538461,350 C132.82051282051282,350 151.02564102564102,350 169.23076923076923,350 C187.43589743589743,350 205.64102564102566,350 223.84615384615387,350 C242.05128205128207,350 260.2564102564103,350 278.46153846153845,350 C296.6666666666667,350 314.87179487179486,350 333.0769230769231,350 C351.2820512820513,350 369.4871794871795,350 387.69230769230774,350 C405.8974358974359,350 424.1025641025641,350 442.30769230769226,350 C460.5128205128205,350 478.71794871794873,350 496.92307692307696,350 C515.1282051282052,350 533.3333333333334,350 551.5384615384615,350 C569.7435897435897,350 587.948717948718,350 606.1538461538462,350 C624.3589743589744,350 642.5641025641025,350 660.7692307692307,350 C678.974358974359,350 697.1794871794872,350 715.3846153846155,350 C733.5897435897436,350 751.7948717948718,350 770,350" fill="none" stroke="#00bcd4" stroke-width="2.5" class="data-line-9" />
  <g class="points">
    
    <circle cx="60" cy="79.57439068752274" r="4" fill="#dfb317" class="data-point" style="animation-delay: 1.50s" />
    <circle cx="114.61538461538461" cy="79.57439068752274" r="4" fill="#dfb317" class="data-point" style="animation-delay: 1.55s" />
    <circle cx="169.23076923076923" cy="79.57439068752274" r="4" fill="#dfb317" class="data-point" style="animation-delay: 1.60s" />
    <circle cx="223.84615384615387" cy="79.57439068752274" r="4" fill="#dfb317" class="data-point" style="animation-delay: 1.65s" />
    <circle cx="278.46153846153845" cy="79.46526009457983" r="4" fill="#dfb317" class="data-point" style="animation-delay: 1.70s" />
    <circle cx="333.0769230769231" cy="79.46526009457983" r="4" fill="#dfb317" class="data-point" style="animation-delay: 1.75s" />
    <circle cx="387.69230769230774" cy="79.35612950163693" r="4" fill="#dfb317" class="data-point" style="animation-delay: 1.80s" />
    <circle cx="442.30769230769226" cy="79.24699890869408" r="4" fill="#dfb317" class="data-point" style="animation-delay: 1.85s" />
    <circle cx="496.92307692307696" cy="79.24699890869408" r="4" fill="#dfb317" class="data-point" style="animation-delay: 1.90s" />
    <circle cx="551.5384615384615" cy="79.35612950163693" r="4" fill="#dfb317" class="data-point" style="animation-delay: 1.95s" />
    <circle cx="606.1538461538462" cy="79.35612950163693" r="4" fill="#dfb317" class="data-point" style="animation-delay: 2.00s" />
    <circle cx="660.7692307692307" cy="78.91960712986543" r="4" fill="#dfb317" class="data-point" style="animation-delay: 2.05s" />
    <circle cx="715.3846153846155" cy="78.48308475809387" r="4" fill="#dfb317" class="data-point" style="animation-delay: 2.10s" />
    <circle cx="770" cy="77.28264823572209" r="4" fill="#dfb317" class="data-point" style="animation-delay: 2.15s" />
    
    <circle cx="60" cy="349.67260822117134" r="4" fill="#28a745" class="data-point" style="animation-delay: 1.50s" />
    <circle cx="114.61538461538461" cy="349.67260822117134" r="4" fill="#28a745" class="data-point" style="animation-delay: 1.55s" />
    <circle cx="169.23076923076923" cy="349.67260822117134" r="4" fill="#28a745" class="data-point" style="animation-delay: 1.60s" />
    <circle cx="223.84615384615387" cy="349.67260822117134" r="4" fill="#28a745" class="data-point" style="animation-delay: 1.65s" />
    <circle cx="278.46153846153845" cy="349.67260822117134" r="4" fill="#28a745" class="data-point" style="animation-delay: 1.70s" />
    <circle cx="333.0769230769231" cy="349.67260822117134" r="4" fill="#28a745" class="data-point" style="animation-delay: 1.75s" />
    <circle cx="387.69230769230774" cy="349.67260822117134" r="4" fill="#28a745" class="data-point" style="animation-delay: 1.80s" />
    <circle cx="442.30769230769226" cy="349.67260822117134" r="4" fill="#28a745" class="data-point" style="animation-delay: 1.85s" />
    <circle cx="496.92307692307696" cy="349.67260822117134" r="4" fill="#28a745" class="data-point" style="animation-delay: 1.90s" />
    <circle cx="551.5384615384615" cy="349.67260822117134" r="4" fill="#28a745" class="data-point" style="animation-delay: 1.95s" />
    <circle cx="606.1538461538462" cy="349.67260822117134" r="4" fill="#28a745" class="data-point" style="animation-delay: 2.00s" />
    <circle cx="660.7692307692307" cy="349.67260822117134" r="4" fill="#28a745" class="data-point" style="animation-delay: 2.05s" />
    <circle cx="715.3846153846155" cy="349.67260822117134" r="4" fill="#28a745" class="data-point" style="animation-delay: 2.10s" />
    <circle cx="770" cy="349.67260822117134" r="4" fill="#28a745" class="data-point" style="animation-delay: 2.15s" />
    
    <circle cx="60" cy="349.78173881411425" r="4" fill="#e74c3c" class="data-point" style="animation-delay: 1.50s" />
    <circle cx="114.61538461538461" cy="349.78173881411425" r="4" fill="#e74c3c" class="data-point" style="animation-delay: 1.55s" />
    <circle cx="169.23076923076923" cy="349.78173881411425" r="4" fill="#e74c3c" class="data-point" style="animation-delay: 1.60s" />
    <circle cx="223.84615384615387" cy="349.78173881411425" r="4" fill="#e74c3c" class="data-point" style="animation-delay: 1.65s" />
    <circle cx="278.46153846153845" cy="349.78173881411425" r="4" fill="#e74c3c" class="data-point" style="animation-delay: 1.70s" />
    <circle cx="333.0769230769231" cy="349.78173881411425" r="4" fill="#e74c3c" class="data-point" style="animation-delay: 1.75s" />
    <circle cx="387.69230769230774" cy="349.78173881411425" r="4" fill="#e74c3c" class="data-point" style="animation-delay: 1.80s" />
    <circle cx="442.30769230769226" cy="349.78173881411425" r="4" fill="#e74c3c" class="data-point" style="animation-delay: 1.85s" />
    <circle cx="496.92307692307696" cy="349.78173881411425" r="4" fill="#e74c3c" class="data-point" style="animation-delay: 1.90s" />
    <circle cx="551.5384615384615" cy="349.78173881411425" r="4" fill="#e74c3c" class="data-point" style="animation-delay: 1.95s" />
    <circle cx="606.1538461538462" cy="349.78173881411425" r="4" fill="#e74c3c" class="data-point" style="animation-delay: 2.00s" />
    <circle cx="660.7692307692307" cy="349.78173881411425" r="4" fill="#e74c3c" class="data-point" style="animation-delay: 2.05s" />
    <circle cx="715.3846153846155" cy="349.78173881411425" r="4" fill="#e74c3c" class="data-point" style="animation-delay: 2.10s" />
    <circle cx="770" cy="349.78173881411425" r="4" fill="#e74c3c" class="data-point" style="animation-delay: 2.15s" />
    
    <circle cx="60" cy="349.78173881411425" r="4" fill="#3498db" class="data-point" style="animation-delay: 1.50s" />
    <circle cx="114.61538461538461" cy="349.78173881411425" r="4" fill="#3498db" class="data-point" style="animation-delay: 1.55s" />
    <circle cx="169.23076923076923" cy="349.78173881411425" r="4" fill="#3498db" class="data-point" style="animation-delay: 1.60s" />
    <circle cx="223.84615384615387" cy="349.78173881411425" r="4" fill="#3498db" class="data-point" style="animation-delay: 1.65s" />
    <circle cx="278.46153846153845" cy="349.78173881411425" r="4" fill="#3498db" class="data-point" style="animation-delay: 1.70s" />
    <circle cx="333.0769230769231" cy="349.78173881411425" r="4" fill="#3498db" class="data-point" style="animation-delay: 1.75s" />
    <circle cx="387.69230769230774" cy="349.78173881411425" r="4" fill="#3498db" class="data-point" style="animation-delay: 1.80s" />
    <circle cx="442.30769230769226" cy="349.78173881411425" r="4" fill="#3498db" class="data-point" style="animation-delay: 1.85s" />
    <circle cx="496.92307692307696" cy="349.78173881411425" r="4" fill="#3498db" class="data-point" style="animation-delay: 1.90s" />
    <circle cx="551.5384615384615" cy="349.78173881411425" r="4" fill="#3498db" class="data-point" style="animation-delay: 1.95s" />
    <circle cx="606.1538461538462" cy="349.78173881411425" r="4" fill="#3498db" class="data-point" style="animation-delay: 2.00s" />
    <circle cx="660.7692307692307" cy="349.78173881411425" r="4" fill="#3498db" class="data-point" style="animation-delay: 2.05s" />
    <circle cx="715.3846153846155" cy="349.78173881411425" r="4" fill="#3498db" class="data-point" style="animation-delay: 2.10s" />
    <circle cx="770" cy="349.78173881411425" r="4" fill="#3498db" class="data-point" style="animation-delay: 2.15s" />
    
    <circle cx="60" cy="349.8908694070571" r="4" fill="#9b59b6" class="data-point" style="animation-delay: 1.50s" />
    <circle cx="114.61538461538461" cy="349.8908694070571" r="4" fill="#9b59b6" class="data-point" style="animation-delay: 1.55s" />
    <circle cx="169.23076923076923" cy="349.8908694070571" r="4" fill="#9b59b6" class="data-point" style="animation-delay: 1.60s" />
    <circle cx="223.84615384615387" cy="349.8908694070571" r="4" fill="#9b59b6" class="data-point" style="animation-delay: 1.65s" />
    <circle cx="278.46153846153845" cy="349.8908694070571" r="4" fill="#9b59b6" class="data-point" style="animation-delay: 1.70s" />
    <circle cx="333.0769230769231" cy="349.8908694070571" r="4" fill="#9b59b6" class="data-point" style="animation-delay: 1.75s" />
    <circle cx="387.69230769230774" cy="349.8908694070571" r="4" fill="#9b59b6" class="data-point" style="animation-delay: 1.80s" />
    <circle cx="442.30769230769226" cy="349.8908694070571" r="4" fill="#9b59b6" class="data-point" style="animation-delay: 1.85s" />
    <circle cx="496.92307692307696" cy="349.8908694070571" r="4" fill="#9b59b6" class="data-point" style="animation-delay: 1.90s" />
    <circle cx="551.5384615384615" cy="349.8908694070571" r="4" fill="#9b59b6" class="data-point" style="animation-delay: 1.95s" />
    <circle cx="606.1538461538462" cy="349.8908694070571" r="4" fill="#9b59b6" class="data-point" style="animation-delay: 2.00s" />
    <circle cx="660.7692307692307" cy="349.8908694070571" r="4" fill="#9b59b6" class="data-point" style="animation-delay: 2.05s" />
    <circle cx="715.3846153846155" cy="349.8908694070571" r="4" fill="#9b59b6" class="data-point" style="animation-delay: 2.10s" />
    <circle cx="770" cy="349.8908694070571" r="4" fill="#9b59b6" class="data-point" style="animation-delay: 2.15s" />
    
    <circle cx="60" cy="349.8908694070571" r="4" fill="#e67e22" class="data-point" style="animation-delay: 1.50s" />
    <circle cx="114.61538461538461" cy="349.8908694070571" r="4" fill="#e67e22" class="data-point" style="animation-delay: 1.55s" />
    <circle cx="169.23076923076923" cy="349.8908694070571" r="4" fill="#e67e22" class="data-point" style="animation-delay: 1.60s" />
    <circle cx="223.84615384615387" cy="349.8908694070571" r="4" fill="#e67e22" class="data-point" style="animation-delay: 1.65s" />
    <circle cx="278.46153846153845" cy="349.8908694070571" r="4" fill="#e67e22" class="data-point" style="animation-delay: 1.70s" />
    <circle cx="333.0769230769231" cy="349.8908694070571" r="4" fill="#e67e22" class="data-point" style="animation-delay: 1.75s" />
    <circle cx="387.69230769230774" cy="349.8908694070571" r="4" fill="#e67e22" class="data-point" style="animation-delay: 1.80s" />
    <circle cx="442.30769230769226" cy="349.8908694070571" r="4" fill="#e67e22" class="data-point" style="animation-delay: 1.85s" />
    <circle cx="496.92307692307696" cy="349.8908694070571" r="4" fill="#e67e22" class="data-point" style="animation-delay: 1.90s" />
    <circle cx="551.5384615384615" cy="349.8908694070571" r="4" fill="#e67e22" class="data-point" style="animation-delay: 1.95s" />
    <circle cx="606.1538461538462" cy="349.8908694070571" r="4" fill="#e67e22" class="data-point" style="animation-delay: 2.00s" />
    <circle cx="660.7692307692307" cy="349.8908694070571" r="4" fill="#e67e22" class="data-point" style="animation-delay: 2.05s" />
    <circle cx="715.3846153846155" cy="349.8908694070571" r="4" fill="#e67e22" class="data-point" style="animation-delay: 2.10s" />
    <circle cx="770" cy="349.8908694070571" r="4" fill="#e67e22" class="data-point" style="animation-delay: 2.15s" />
    
    <circle cx="60" cy="349.8908694070571" r="4" fill="#1abc9c" class="data-point" style="animation-delay: 1.50s" />
    <circle cx="114.61538461538461" cy="349.8908694070571" r="4" fill="#1abc9c" class="data-point" style="animation-delay: 1.55s" />
    <circle cx="169.23076923076923" cy="349.8908694070571" r="4" fill="#1abc9c" class="data-point" style="animation-delay: 1.60s" />
    <circle cx="223.84615384615387" cy="349.8908694070571" r="4" fill="#1abc9c" class="data-point" style="animation-delay: 1.65s" />
    <circle cx="278.46153846153845" cy="349.8908694070571" r="4" fill="#1abc9c" class="data-point" style="animation-delay: 1.70s" />
    <circle cx="333.0769230769231" cy="349.8908694070571" r="4" fill="#1abc9c" class="data-point" style="animation-delay: 1.75s" />
    <circle cx="387.69230769230774" cy="349.8908694070571" r="4" fill="#1abc9c" class="data-point" style="animation-delay: 1.80s" />
    <circle cx="442.30769230769226" cy="349.8908694070571" r="4" fill="#1abc9c" class="data-point" style="animation-delay: 1.85s" />
    <circle cx="496.92307692307696" cy="349.8908694070571" r="4" fill="#1abc9c" class="data-point" style="animation-delay: 1.90s" />
    <circle cx="551.5384615384615" cy="349.8908694070571" r="4" fill="#1abc9c" class="data-point" style="animation-delay: 1.95s" />
    <circle cx="606.1538461538462" cy="349.8908694070571" r="4" fill="#1abc9c" class="data-point" style="animation-delay: 2.00s" />
    <circle cx="660.7692307692307" cy="349.8908694070571" r="4" fill="#1abc9c" class="data-point" style="animation-delay: 2.05s" />
    <circle cx="715.3846153846155" cy="349.8908694070571" r="4" fill="#1abc9c" class="data-point" style="animation-delay: 2.10s" />
    <circle cx="770" cy="349.8908694070571" r="4" fill="#1abc9c" class="data-point" style="animation-delay: 2.15s" />
    
    <circle cx="60" cy="349.8908694070571" r="4" fill="#e84393" class="data-point" style="animation-delay: 1.50s" />
    <circle cx="114.61538461538461" cy="349.8908694070571" r="4" fill="#e84393" class="data-point" style="animation-delay: 1.55s" />
    <circle cx="169.23076923076923" cy="349.8908694070571" r="4" fill="#e84393" class="data-point" style="animation-delay: 1.60s" />
    <circle cx="223.84615384615387" cy="349.8908694070571" r="4" fill="#e84393" class="data-point" style="animation-delay: 1.65s" />
    <circle cx="278.46153846153845" cy="349.8908694070571" r="4" fill="#e84393" class="data-point" style="animation-delay: 1.70s" />
    <circle cx="333.0769230769231" cy="349.8908694070571" r="4" fill="#e84393" class="data-point" style="animation-delay: 1.75s" />
    <circle cx="387.69230769230774" cy="349.8908694070571" r="4" fill="#e84393" class="data-point" style="animation-delay: 1.80s" />
    <circle cx="442.30769230769226" cy="349.8908694070571" r="4" fill="#e84393" class="data-point" style="animation-delay: 1.85s" />
    <circle cx="496.92307692307696" cy="349.8908694070571" r="4" fill="#e84393" class="data-point" style="animation-delay: 1.90s" />
    <circle cx="551.5384615384615" cy="349.8908694070571" r="4" fill="#e84393" class="data-point" style="animation-delay: 1.95s" />
    <circle cx="606.1538461538462" cy="349.8908694070571" r="4" fill="#e84393" class="data-point" style="animation-delay: 2.00s" />
    <circle cx="660.7692307692307" cy="349.8908694070571" r="4" fill="#e84393" class="data-point" style="animation-delay: 2.05s" />
    <circle cx="715.3846153846155" cy="349.8908694070571" r="4" fill="#e84393" class="data-point" style="animation-delay: 2.10s" />
    <circle cx="770" cy="349.8908694070571" r="4" fill="#e84393" class="data-point" style="animation-delay: 2.15s" />
    
    <circle cx="60" cy="350" r="4" fill="#795548" class="data-point" style="animation-delay: 1.50s" />
    <circle cx="114.61538461538461" cy="350" r="4" fill="#795548" class="data-point" style="animation-delay: 1.55s" />
    <circle cx="169.23076923076923" cy="350" r="4" fill="#795548" class="data-point" style="animation-delay: 1.60s" />
    <circle cx="223.84615384615387" cy="350" r="4" fill="#795548" class="data-point" style="animation-delay: 1.65s" />
    <circle cx="278.46153846153845" cy="350" r="4" fill="#795548" class="data-point" style="animation-delay: 1.70s" />
    <circle cx="333.0769230769231" cy="350" r="4" fill="#795548" class="data-point" style="animation-delay: 1.75s" />
    <circle cx="387.69230769230774" cy="350" r="4" fill="#795548" class="data-point" style="animation-delay: 1.80s" />
    <circle cx="442.30769230769226" cy="350" r="4" fill="#795548" class="data-point" style="animation-delay: 1.85s" />
    <circle cx="496.92307692307696" cy="350" r="4" fill="#795548" class="data-point" style="animation-delay: 1.90s" />
    <circle cx="551.5384615384615" cy="350" r="4" fill="#795548" class="data-point" style="animation-delay: 1.95s" />
    <circle cx="606.1538461538462" cy="350" r="4" fill="#795548" class="data-point" style="animation-delay: 2.00s" />
    <circle cx="660.7692307692307" cy="350" r="4" fill="#795548" class="data-point" style="animation-delay: 2.05s" />
    <circle cx="715.3846153846155" cy="350" r="4" fill="#795548" class="data-point" style="animation-delay: 2.10s" />
    <circle cx="770" cy="350" r="4" fill="#795548" class="data-point" style="animation-delay: 2.15s" />
    
    <circle cx="60" cy="350" r="4" fill="#00bcd4" class="data-point" style="animation-delay: 1.50s" />
    <circle cx="114.61538461538461" cy="350" r="4" fill="#00bcd4" class="data-point" style="animation-delay: 1.55s" />
    <circle cx="169.23076923076923" cy="350" r="4" fill="#00bcd4" class="data-point" style="animation-delay: 1.60s" />
    <circle cx="223.84615384615387" cy="350" r="4" fill="#00bcd4" class="data-point" style="animation-delay: 1.65s" />
    <circle cx="278.46153846153845" cy="350" r="4" fill="#00bcd4" class="data-point" style="animation-delay: 1.70s" />
    <circle cx="333.0769230769231" cy="350" r="4" fill="#00bcd4" class="data-point" style="animation-delay: 1.75s" />
    <circle cx="387.69230769230774" cy="350" r="4" fill="#00bcd4" class="data-point" style="animation-delay: 1.80s" />
    <circle cx="442.30769230769226" cy="350" r="4" fill="#00bcd4" class="data-point" style="animation-delay: 1.85s" />
    <circle cx="496.92307692307696" cy="350" r="4" fill="#00bcd4" class="data-point" style="animation-delay: 1.90s" />
    <circle cx="551.5384615384615" cy="350" r="4" fill="#00bcd4" class="data-point" style="animation-delay: 1.95s" />
    <circle cx="606.1538461538462" cy="350" r="4" fill="#00bcd4" class="data-point" style="animation-delay: 2.00s" />
    <circle cx="660.7692307692307" cy="350" r="4" fill="#00bcd4" class="data-point" style="animation-delay: 2.05s" />
    <circle cx="715.3846153846155" cy="350" r="4" fill="#00bcd4" class="data-point" style="animation-delay: 2.10s" />
    <circle cx="770" cy="350" r="4" fill="#00bcd4" class="data-point" style="animation-delay: 2.15s" />
  </g>
</svg>