<svg xmlns="http://www.w3.org/2000/svg" viewBox="0 0 800 400" width="800" height="400">
  <style>
    @keyframes drawLine {
      to { stroke-dashoffset: 0; }
    }
    @keyframes fadeInPoint {
      from { opacity: 0; }
      to { opacity: 1; }
    }
    .data-line-0 {
      stroke-dasharray: 1066;
      stroke-dashoffset: 1066;
      animation: drawLine 2s ease-out forwards;
    }
    .data-line-1 {
      stroke-dasharray: 1065;
      stroke-dashoffset: 1065;
      animation: drawLine 2s ease-out forwards;
    }
    .data-line-2 {
      stroke-dasharray: 1065;
      stroke-dashoffset: 1065;
      animation: drawLine 2s ease-out forwards;
    }
    .data-line-3 {
      stroke-dasharray: 1065;
      stroke-dashoffset: 1065;
      animation: drawLine 2s ease-out forwards;
    }
    .data-line-4 {
      stroke-dasharray: 1065;
      stroke-dashoffset: 1065;
      animation: drawLine 2s ease-out forwards;
    }
    .data-line-5 {
      stroke-dasharray: 1065;
      stroke-dashoffset: 1065;
      animation: drawLine 2s ease-out forwards;
    }
    .data-line-6 {
      stroke-dasharray: 1065;
      stroke-dashoffset: 1065;
      animation: drawLine 2s ease-out forwards;
    }
    .data-line-7 {
      stroke-dasharray: 1065;
      stroke-dashoffset: 1065;
      animation: drawLine 2s ease-out forwards;
    }
    .data-line-8 {
      stroke-dasharray: 1065;
      stroke-dashoffset: 1065;
      animation: drawLine 2s ease-out forwards;
    }
    .data-line-9 {
      stroke-dasharray: 1065;
      stroke-dashoffset: 1065;
      animation: drawLine 2s ease-out forwards;
    }
    .data-point {
      opacity: 0;
      animation: fadeInPoint 0.5s ease-out forwards;
    }
    .chart-bg { fill: #fff; }
    .chart-text { fill: #24292e; }
    .chart-muted { fill: #6a737d; }
    .chart-grid { stroke: #eee; }
    .chart-axis { stroke: #6a737d; }
    @media (prefers-color-scheme: dark) {
      .chart-bg { fill: #0d1117; }
      .chart-text { fill: #e6edf3; }
      .chart-muted { fill: #8b949e; }
      .chart-grid { stroke: #21262d; }
      .chart-axis { stroke: #8b949e; }
    }
  </style>
  <rect width="800" height="400" class="chart-bg" />
  <text x="400" y="14" text-anchor="middle" class="chart-text" font-size="16" font-weight="bold" font-family="-apple-system, BlinkMacSystemFont, 'Segoe UI', Helvetica, Arial, sans-serif">Top Repositories</text>
  <g class="legend">
    <rect x="-200" y="31" width="12" height="3" fill="#dfb317" />
    <line x1="-200" y1="32.5" x2="-188" y2="32.5" stroke="#dfb317" stroke-width="2" />
    <text x="-184" y="36" class="chart-text" font-size="10" font-family="-apple-system, BlinkMacSystemFont, 'Segoe UI', Helvetica, Arial, sans-serif">SteamGridDB/steam-rom-manager</text>
    <rect x="-80" y="31" width="12" height="3" fill="#28a745" />
    <line x1="-80" y1="32.5" x2="-68" y2="32.5" stroke="#28a745" stroke-width="2" />
    <text x="-64" y="36" class="chart-text" font-size="10" font-family="-apple-system, BlinkMacSystemFont, 'Segoe UI', Helvetica, Arial, sans-serif">cbartondock/node-binary-vdf</text>
    <rect x="40" y="31" width="12" height="3" fill="#e74c3c" />
    <line x1="40" y1="32.5" x2="52" y2="32.5" stroke="#e74c3c" stroke-width="2" />
    <text x="56" y="36" class="chart-text" font-size="10" font-family="-apple-system, BlinkMacSystemFont, 'Segoe UI', Helvetica, Arial, sans-serif">cbartondock/PortableEnv</text>
    <rect x="160" y="31" width="12" height="3" fill="#3498db" />
    <line x1="160" y1="32.5" x2="172" y2="32.5" stroke="#3498db" stroke-width="2" />
    <text x="176" y="36" class="chart-text" font-size="10" font-family="-apple-system, BlinkMacSystemFont, 'Segoe UI', Helvetica, Arial, sans-serif">cbartondock/Windwaker</text>
    <rect x="280" y="31" width="12" height="3" fill="#9b59b6" />
    <line x1="280" y1="32.5" x2="292" y2="32.5" stroke="#9b59b6" stroke-width="2" />
    <text x="296" y="36" class="chart-text" font-size="10" font-family="-apple-system, BlinkMacSystemFont, 'Segoe UI', Helvetica, Arial, sans-serif">cbartondock/chaos</text>
    <rect x="400" y="31" width="12" height="3" fill="#e67e22" />
    <line x1="400" y1="32.5" x2="412" y2="32.5" stroke="#e67e22" stroke-width="2" />
    <text x="416" y="36" class="chart-text" font-size="10" font-family="-apple-system, BlinkMacSystemFont, 'Segoe UI', Helvetica, Arial, sans-serif">cbartondock/riemann-sphere</text>
    <rect x="520" y="31" width="12" height="3" fill="#1abc9c" />
    <line x1="520" y1="32.5" x2="532" y2="32.5" stroke="#1abc9c" stroke-width="2" />
    <text x="536" y="36" class="chart-text" font-size="10" font-family="-apple-system, BlinkMacSystemFont, 'Segoe UI', Helvetica, Arial, sans-serif">cbartondock/tak-concept-art</text>
    <rect x="640" y="31" width="12" height="3" fill="#e84393" />
    <line x1="640" y1="32.5" x2="652" y2="32.5" stroke="#e84393" stroke-width="2" />
    <text x="656" y="36" class="chart-text" font-size="10" font-family="-apple-system, BlinkMacSystemFont, 'Segoe UI', Helvetica, Arial, sans-serif">stephan-x-liu/sublimechat</text>
    <rect x="760" y="31" width="12" height="3" fill="#795548" />
    <line x1="760" y1="32.5" x2="772" y2="32.5" stroke="#795548" stroke-width="2" />
    <text x="776" y="36" class="chart-text" font-size="10" font-family="-apple-system, BlinkMacSystemFont, 'Segoe UI', Helvetica, Arial, sans-serif">cbartondock/academicpages.github.io</text>
    <rect x="880" y="31" width="12" height="3" fill="#00bcd4" />
    <line x1="880" y1="32.5" x2="892" y2="32.5" stroke="#00bcd4" stroke-width="2" />
    <text x="896" y="36" class="chart-text" font-size="10" font-family="-apple-system, BlinkMacSystemFont, 'Segoe UI', Helvetica, Arial, sans-serif">cbartondock/discordBadge</text>
  </g>
  <g class="grid">
    <line x1="60" y1="350" x2="770" y2="350" class="chart-grid" stroke-opacity="0.3" />
    <text x="52" y="354" text-anchor="end" class="chart-muted" font-size="11" font-family="-apple-system, BlinkMacSystemFont, 'Segoe UI', Helvetica, Arial, sans-serif">0</text>
    <line x1="60" y1="300" x2="770" y2="300" class="chart-grid" stroke-opacity="0.3" />
    <text x="52" y="304" text-anchor="end" class="chart-muted" font-size="11" font-family="-apple-system, BlinkMacSystemFont, 'Segoe UI', Helvetica, Arial, sans-serif">500</text>
    <line x1="60" y1="250" x2="770" y2="250" class="chart-grid" stroke-opacity="0.3" />
    <text x="52" y="254" text-anchor="end" class="chart-muted" font-size="11" font-family="-apple-system, BlinkMacSystemFont, 'Segoe UI', Helvetica, Arial, sans-serif">1K</text>
    <line x1="60" y1="200" x2="770" y2="200" class="chart-grid" stroke-opacity="0.3" />
    <text x="52" y="204" text-anchor="end" class="chart-muted" font-size="11" font-family="-apple-system, BlinkMacSystemFont, 'Segoe UI', Helvetica, Arial, sans-serif">1.5K</text>
    <line x1="60" y1="150" x2="770" y2="150" class="chart-grid" stroke-opacity="0.3" />
    <text x="52" y="154" text-anchor="end" class="chart-muted" font-size="11" font-family="-apple-system, BlinkMacSystemFont, 'Segoe UI', Helvetica, Arial, sans-serif">2K</text>
    <line x1="60" y1="100" x2="770" y2="100" class="chart-grid" stroke-opacity="0.3" />
    <text x="52" y="104" text-anchor="end" class="chart-muted" font-size="11" font-family="-apple-system, BlinkMacSystemFont, 'Segoe UI', Helvetica, Arial, sans-serif">2.5K</text>
    <line x1="60" y1="50" x2="770" y2="50" class="chart-grid" stroke-opacity="0.3" />
    <text x="52" y="54" text-anchor="end" class="chart-muted" font-size="11" font-family="-apple-system, BlinkMacSystemFont, 'Segoe UI', Helvetica, Arial, sans-serif">3K</text>
  </g>
  <g class="milestones">
    
  </g>
  <g class="x-axis">
    <text x="60" y="370" text-anchor="middle" class="chart-muted" font-size="11" font-family="-apple-system, BlinkMacSystemFont, 'Segoe UI', Helvetica, Arial, sans-serif">Jul 12</text>
    <text x="138.88888888888889" y="370" text-anchor="middle" class="chart-muted" font-size="11" font-family="-apple-system, BlinkMacSystemFont, 'Segoe UI', Helvetica, Arial, sans-serif">Jul 13</text>
    <text x="217.77777777777777" y="370" text-anchor="middle" class="chart-muted" font-size="11" font-family="-apple-system, BlinkMacSystemFont, 'Segoe UI', Helvetica, Arial, sans-serif">Jul 15</text>
    <text x="296.66666666666663" y="370" text-anchor="middle" class="chart-muted" font-size="11" font-family="-apple-system, BlinkMacSystemFont, 'Segoe UI', Helvetica, Arial, sans-serif">Jul 17</text>
    <text x="375.55555555555554" y="370" text-anchor="middle" class="chart-muted" font-size="11" font-family="-apple-system, BlinkMacSystemFont, 'Segoe UI', Helvetica, Arial, sans-serif">Jul 19</text>
    <text x="454.44444444444446" y="370" text-anchor="middle" class="chart-muted" font-size="11" font-family="-apple-system, BlinkMacSystemFont, 'Segoe UI', Helvetica, Arial, sans-serif">Jul 21</text>
    <text x="533.3333333333333" y="370" text-anchor="middle" class="chart-muted" font-size="11" font-family="-apple-system, BlinkMacSystemFont, 'Segoe UI', Helvetica, Arial, sans-serif">Jul 23</text>
    <text x="612.2222222222223" y="370" text-anchor="middle" class="chart-muted" font-size="11" font-family="-apple-system, BlinkMacSystemFont, 'Segoe UI', Helvetica, Arial, sans-serif">Jul 25</text>
    <text x="691.1111111111111" y="370" text-anchor="middle" class="chart-muted" font-size="11" font-family="-apple-system, BlinkMacSystemFont, 'Segoe UI', Helvetica, Arial, sans-serif">Jul 27</text>
    <text x="770" y="370" text-anchor="middle" class="chart-muted" font-size="11" font-family="-apple-system, BlinkMacSystemFont, 'Segoe UI', Helvetica, Arial, sans-serif">Jul 29</text>
  </g>
  <line x1="60" y1="50" x2="60" y2="350" class="chart-axis" stroke-width="1" />
  <line x1="60" y1="350" x2="770" y2="350" class="chart-axis" stroke-width="1" />
  
  
  
  
  
  
  
  
  
  
  <path d="M60,102.20000000000002 C73.14814814814815,102.20000000000002 86.29629629629629,102.20000000000002 99.44444444444444,102.20000000000002 C112.5925925925926,102.20000000000002 125.74074074074073,102.20000000000002 138.88888888888889,102.20000000000002 C152.03703703703704,102.20000000000002 165.18518518518516,102.20000000000002 178.33333333333331,102.20000000000002 C191.48148148148147,102.20000000000002 204.62962962962962,102.1 217.77777777777777,102.1 C230.92592592592592,102.1 244.07407407407408,102.1 257.22222222222223,102.1 C270.3703703703704,102.1 283.5185185185185,102.03333333333333 296.66666666666663,102 C309.8148148148148,101.96666666666667 322.962962962963,101.9 336.11111111111114,101.9 C349.2592592592593,101.9 362.4074074074074,101.9 375.55555555555554,101.9 C388.7037037037037,101.9 401.85185185185185,102 415,102 C428.14814814814815,102 441.2962962962963,102 454.44444444444446,102 C467.5925925925926,102 480.74074074074076,101.73333333333336 493.8888888888889,101.60000000000002 C507.037037037037,101.46666666666668 520.1851851851851,101.44999999999999 533.3333333333333,101.19999999999999 C546.4814814814814,100.94999999999999 559.6296296296296,100.30000000000004 572.7777777777777,100.10000000000002 C585.9259259259259,99.9 599.0740740740741,99.9 612.2222222222223,99.9 C625.3703703703704,99.9 638.5185185185186,100 651.6666666666667,100 C664.8148148148149,100 677.9629629629629,100 691.1111111111111,100 C704.2592592592592,100 717.4074074074074,99.86666666666667 730.5555555555555,99.80000000000001 C743.7037037037037,99.73333333333335 756.8518518518518,99.66666666666667 770,99.6" fill="none" stroke="#dfb317" stroke-width="2.5" class="data-line-0" />
  <path d="M60,349.7 C73.14814814814815,349.7 86.29629629629629,349.7 99.44444444444444,349.7 C112.5925925925926,349.7 125.74074074074073,349.7 138.88888888888889,349.7 C152.03703703703704,349.7 165.18518518518516,349.7 178.33333333333331,349.7 C191.48148148148147,349.7 204.62962962962962,349.7 217.77777777777777,349.7 C230.92592592592592,349.7 244.07407407407408,349.7 257.22222222222223,349.7 C270.3703703703704,349.7 283.5185185185185,349.7 296.66666666666663,349.7 C309.8148148148148,349.7 322.962962962963,349.7 336.11111111111114,349.7 C349.2592592592593,349.7 362.4074074074074,349.7 375.55555555555554,349.7 C388.7037037037037,349.7 401.85185185185185,349.7 415,349.7 C428.14814814814815,349.7 441.2962962962963,349.7 454.44444444444446,349.7 C467.5925925925926,349.7 480.74074074074076,349.7 493.8888888888889,349.7 C507.037037037037,349.7 520.1851851851851,349.7 533.3333333333333,349.7 C546.4814814814814,349.7 559.6296296296296,349.7 572.7777777777777,349.7 C585.9259259259259,349.7 599.0740740740741,349.7 612.2222222222223,349.7 C625.3703703703704,349.7 638.5185185185186,349.7 651.6666666666667,349.7 C664.8148148148149,349.7 677.9629629629629,349.7 691.1111111111111,349.7 C704.2592592592592,349.7 717.4074074074074,349.7 730.5555555555555,349.7 C743.7037037037037,349.7 756.8518518518518,349.7 770,349.7" fill="none" stroke="#28a745" stroke-width="2.5" class="data-line-1" />
  <path d="M60,349.8 C73.14814814814815,349.8 86.29629629629629,349.8 99.44444444444444,349.8 C112.5925925925926,349.8 125.74074074074073,349.8 138.88888888888889,349.8 C152.03703703703704,349.8 165.18518518518516,349.8 178.33333333333331,349.8 C191.48148148148147,349.8 204.62962962962962,349.8 217.77777777777777,349.8 C230.92592592592592,349.8 244.07407407407408,349.8 257.22222222222223,349.8 C270.3703703703704,349.8 283.5185185185185,349.8 296.66666666666663,349.8 C309.8148148148148,349.8 322.962962962963,349.8 336.11111111111114,349.8 C349.2592592592593,349.8 362.4074074074074,349.8 375.55555555555554,349.8 C388.7037037037037,349.8 401.85185185185185,349.8 415,349.8 C428.14814814814815,349.8 441.2962962962963,349.8 454.44444444444446,349.8 C467.5925925925926,349.8 480.74074074074076,349.8 493.8888888888889,349.8 C507.037037037037,349.8 520.1851851851851,349.8 533.3333333333333,349.8 C546.4814814814814,349.8 559.6296296296296,349.8 572.7777777777777,349.8 C585.9259259259259,349.8 599.0740740740741,349.8 612.2222222222223,349.8 C625.3703703703704,349.8 638.5185185185186,349.8 651.6666666666667,349.8 C664.8148148148149,349.8 677.9629629629629,349.8 691.1111111111111,349.8 C704.2592592592592,349.8 717.4074074074074,349.8 730.5555555555555,349.8 C743.7037037037037,349.8 756.8518518518518,349.8 770,349.8" fill="none" stroke="#e74c3c" stroke-width="2.5" class="data-line-2" />
  <path d="M60,349.8 C73.14814814814815,349.8 86.29629629629629,349.8 99.44444444444444,349.8 C112.5925925925926,349.8 125.74074074074073,349.8 138.88888888888889,349.8 C152.03703703703704,349.8 165.18518518518516,349.8 178.33333333333331,349.8 C191.48148148148147,349.8 204.62962962962962,349.8 217.77777777777777,349.8 C230.92592592592592,349.8 244.07407407407408,349.8 257.22222222222223,349.8 C270.3703703703704,349.8 283.5185185185185,349.8 296.66666666666663,349.8 C309.8148148148148,349.8 322.962962962963,349.8 336.11111111111114,349.8 C349.2592592592593,349.8 362.4074074074074,349.8 375.55555555555554,349.8 C388.7037037037037,349.8 401.85185185185185,349.8 415,349.8 C428.14814814814815,349.8 441.2962962962963,349.8 454.44444444444446,349.8 C467.5925925925926,349.8 480.74074074074076,349.8 493.8888888888889,349.8 C507.037037037037,349.8 520.1851851851851,349.8 533.3333333333333,349.8 C546.4814814814814,349.8 559.6296296296296,349.8 572.7777777777777,349.8 C585.9259259259259,349.8 599.0740740740741,349.8 612.2222222222223,349.8 C625.3703703703704,349.8 638.5185185185186,349.8 651.6666666666667,349.8 C664.8148148148149,349.8 677.9629629629629,349.8 691.1111111111111,349.8 C704.2592592592592,349.8 717.4074074074074,349.8 730.5555555555555,349.8 C743.7037037037037,349.8 756.8518518518518,349.8 770,349.8" fill="none" stroke="#3498db" stroke-width="2.5" class="data-line-3" />
  <path d="M60,349.9 C73.14814814814815,349.9 86.29629629629629,349.9 99.44444444444444,349.9 C112.5925925925926,349.9 125.74074074074073,349.9 138.88888888888889,349.9 C152.03703703703704,349.9 165.18518518518516,349.9 178.33333333333331,349.9 C191.48148148148147,349.9 204.62962962962962,349.9 217.77777777777777,349.9 C230.92592592592592,349.9 244.07407407407408,349.9 257.22222222222223,349.9 C270.3703703703704,349.9 283.5185185185185,349.9 296.66666666666663,349.9 C309.8148148148148,349.9 322.962962962963,349.9 336.11111111111114,349.9 C349.2592592592593,349.9 362.4074074074074,349.9 375.55555555555554,349.9 C388.7037037037037,349.9 401.85185185185185,349.9 415,349.9 C428.14814814814815,349.9 441.2962962962963,349.9 454.44444444444446,349.9 C467.5925925925926,349.9 480.74074074074076,349.9 493.8888888888889,349.9 C507.037037037037,349.9 520.1851851851851,349.9 533.3333333333333,349.9 C546.4814814814814,349.9 559.6296296296296,349.9 572.7777777777777,349.9 C585.9259259259259,349.9 599.0740740740741,349.9 612.2222222222223,349.9 C625.3703703703704,349.9 638.5185185185186,349.9 651.6666666666667,349.9 C664.8148148148149,349.9 677.9629629629629,349.9 691.1111111111111,349.9 C704.2592592592592,349.9 717.4074074074074,349.9 730.5555555555555,349.9 C743.7037037037037,349.9 756.8518518518518,349.9 770,349.9" fill="none" stroke="#9b59b6" stroke-width="2.5" class="data-line-4" />
  <path d="M60,349.9 C73.14814814814815,349.9 86.29629629629629,349.9 99.44444444444444,349.9 C112.5925925925926,349.9 125.74074074074073,349.9 138.88888888888889,349.9 C152.03703703703704,349.9 165.18518518518516,349.9 178.33333333333331,349.9 C191.48148148148147,349.9 204.62962962962962,349.9 217.77777777777777,349.9 C230.92592592592592,349.9 244.07407407407408,349.9 257.22222222222223,349.9 C270.3703703703704,349.9 283.5185185185185,349.9 296.66666666666663,349.9 C309.8148148148148,349.9 322.962962962963,349.9 336.11111111111114,349.9 C349.2592592592593,349.9 362.4074074074074,349.9 375.55555555555554,349.9 C388.7037037037037,349.9 401.85185185185185,349.9 415,349.9 C428.14814814814815,349.9 441.2962962962963,349.9 454.44444444444446,349.9 C467.5925925925926,349.9 480.74074074074076,349.9 493.8888888888889,349.9 C507.037037037037,349.9 520.1851851851851,349.9 533.3333333333333,349.9 C546.4814814814814,349.9 559.6296296296296,349.9 572.7777777777777,349.9 C585.9259259259259,349.9 599.0740740740741,349.9 612.2222222222223,349.9 C625.3703703703704,349.9 638.5185185185186,349.9 651.6666666666667,349.9 C664.8148148148149,349.9 677.9629629629629,349.9 691.1111111111111,349.9 C704.2592592592592,349.9 717.4074074074074,349.9 730.5555555555555,349.9 C743.7037037037037,349.9 756.8518518518518,349.9 770,349.9" fill="none" stroke="#e67e22" stroke-width="2.5" class="data-line-5" />
  <path d="M60,349.9 C73.14814814814815,349.9 86.29629629629629,349.9 99.44444444444444,349.9 C112.5925925925926,349.9 125.74074074074073,349.9 138.88888888888889,349.9 C152.03703703703704,349.9 165.18518518518516,349.9 178.33333333333331,349.9 C191.48148148148147,349.9 204.62962962962962,349.9 217.77777777777777,349.9 C230.92592592592592,349.9 244.07407407407408,349.9 257.22222222222223,349.9 C270.3703703703704,349.9 283.5185185185185,349.9 296.66666666666663,349.9 C309.8148148148148,349.9 322.962962962963,349.9 336.11111111111114,349.9 C349.2592592592593,349.9 362.4074074074074,349.9 375.55555555555554,349.9 C388.7037037037037,349.9 401.85185185185185,349.9 415,349.9 C428.14814814814815,349.9 441.2962962962963,349.9 454.44444444444446,349.9 C467.5925925925926,349.9 480.74074074074076,349.9 493.8888888888889,349.9 C507.037037037037,349.9 520.1851851851851,349.9 533.3333333333333,349.9 C546.4814814814814,349.9 559.6296296296296,349.9 572.7777777777777,349.9 C585.9259259259259,349.9 599.0740740740741,349.9 612.2222222222223,349.9 C625.3703703703704,349.9 638.5185185185186,349.9 651.6666666666667,349.9 C664.8148148148149,349.9 677.9629629629629,349.9 691.1111111111111,349.9 C704.2592592592592,349.9 717.4074074074074,349.9 730.5555555555555,349.9 C743.7037037037037,349.9 756.8518518518518,349.9 770,349.9" fill="none" stroke="#1abc9c" stroke-width="2.5" class="data-line-6" />
  <path d="M60,349.9 C73.14814814814815,349.9 86.29629629629629,349.9 99.44444444444444,349.9 C112.5925925925926,349.9 125.74074074074073,349.9 138.88888888888889,349.9 C152.03703703703704,349.9 165.18518518518516,349.9 178.33333333333331,349.9 C191.48148148148147,349.9 204.62962962962962,349.9 217.77777777777777,349.9 C230.92592592592592,349.9 244.07407407407408,349.9 257.22222222222223,349.9 C270.3703703703704,349.9 283.5185185185185,349.9 296.66666666666663,349.9 C309.8148148148148,349.9 322.962962962963,349.9 336.11111111111114,349.9 C349.2592592592593,349.9 362.4074074074074,349.9 375.55555555555554,349.9 C388.7037037037037,349.9 401.85185185185185,349.9 415,349.9 C428.14814814814815,349.9 441.2962962962963,349.9 454.44444444444446,349.9 C467.5925925925926,349.9 480.74074074074076,349.9 493.8888888888889,349.9 C507.037037037037,349.9 520.1851851851851,349.9 533.3333333333333,349.9 C546.4814814814814,349.9 559.6296296296296,349.9 572.7777777777777,349.9 C585.9259259259259,349.9 599.0740740740741,349.9 612.2222222222223,349.9 C625.3703703703704,349.9 638.5185185185186,349.9 651.6666666666667,349.9 C664.8148148148149,349.9 677.9629629629629,349.9 691.1111111111111,349.9 C704.2592592592592,349.9 717.4074074074074,349.9 730.5555555555555,349.9 C743.7037037037037,349.9 756.8518518518518,349.9 770,349.9" fill="none" stroke="#e84393" stroke-width="2.5" class="data-line-7" />
  <path d="M60,350 C73.14814814814815,350 86.29629629629629,350 99.44444444444444,350 C112.5925925925926,350 125.74074074074073,350 138.88888888888889,350 C152.03703703703704,350 165.18518518518516,350 178.33333333333331,350 C191.48148148148147,350 204.62962962962962,350 217.77777777777777,350 C230.92592592592592,350 244.07407407407408,350 257.22222222222223,350 C270.3703703703704,350 283.5185185185185,350 296.66666666666663,350 C309.8148148148148,350 322.962962962963,350 336.11111111111114,350 C349.2592592592593,350 362.4074074074074,350 375.55555555555554,350 C388.7037037037037,350 401.85185185185185,350 415,350 C428.14814814814815,350 441.2962962962963,350 454.44444444444446,350 C467.5925925925926,350 480.74074074074076,350 493.8888888888889,350 C507.037037037037,350 520.1851851851851,350 533.3333333333333,350 C546.4814814814814,350 559.6296296296296,350 572.7777777777777,350 C585.9259259259259,350 599.0740740740741,350 612.2222222222223,350 C625.3703703703704,350 638.5185185185186,350 651.6666666666667,350 C664.8148148148149,350 677.9629629629629,350 691.1111111111111,350 C704.2592592592592,350 717.4074074074074,350 730.5555555555555,350 C743.7037037037037,350 756.8518518518518,350 770,350" fill="none" stroke="#795548" stroke-width="2.5" class="data-line-8" />
  <path d="M60,350 C73.14814814814815,350 86.29629629629629,350 99.44444444444444,350 C112.5925925925926,350 125.74074074074073,350 138.88888888888889,350 C152.03703703703704,350 165.18518518518516,350 178.33333333333331,350 C191.48148148148147,350 204.62962962962962,350 217.77777777777777,350 C230.92592592592592,350 244.07407407407408,350 257.22222222222223,350 C270.3703703703704,350 283.5185185185185,350 296.66666666666663,350 C309.8148148148148,350 322.962962962963,350 336.11111111111114,350 C349.2592592592593,350 362.4074074074074,350 375.55555555555554,350 C388.7037037037037,350 401.85185185185185,350 415,350 C428.14814814814815,350 441.2962962962963,350 454.44444444444446,350 C467.5925925925926,350 480.74074074074076,350 493.8888888888889,350 C507.037037037037,350 520.1851851851851,350 533.3333333333333,350 C546.4814814814814,350 559.6296296296296,350 572.7777777777777,350 C585.9259259259259,350 599.0740740740741,350 612.2222222222223,350 C625.3703703703704,350 638.5185185185186,350 651.6666666666667,350 C664.8148148148149,350 677.9629629629629,350 691.1111111111111,350 C704.2592592592592,350 717.4074074074074,350 730.5555555555555,350 C743.7037037037037,350 756.8518518518518,350 770,350" fill="none" stroke="#00bcd4" stroke-width="2.5" class="data-line-9" />
  <g class="points">
    
    <circle cx="60" cy="102.20000000000002" r="4" fill="#dfb317" class="data-point" style="animation-delay: 1.50s" />
    <circle cx="99.44444444444444" cy="102.20000000000002" r="4" fill="#dfb317" class="data-point" style="animation-delay: 1.55s" />
    <circle cx="138.88888888888889" cy="102.20000000000002" r="4" fill="#dfb317" class="data-point" style="animation-delay: 1.60s" />
    <circle cx="178.33333333333331" cy="102.20000000000002" r="4" fill="#dfb317" class="data-point" style="animation-delay: 1.65s" />
    <circle cx="217.77777777777777" cy="102.1" r="4" fill="#dfb317" class="data-point" style="animation-delay: 1.70s" />
    <circle cx="257.22222222222223" cy="102.1" r="4" fill="#dfb317" class="data-point" style="animation-delay: 1.75s" />
    <circle cx="296.66666666666663" cy="102" r="4" fill="#dfb317" class="data-point" style="animation-delay: 1.80s" />
    <circle cx="336.11111111111114" cy="101.9" r="4" fill="#dfb317" class="data-point" style="animation-delay: 1.85s" />
    <circle cx="375.55555555555554" cy="101.9" r="4" fill="#dfb317" class="data-point" style="animation-delay: 1.90s" />
    <circle cx="415" cy="102" r="4" fill="#dfb317" class="data-point" style="animation-delay: 1.95s" />
    <circle cx="454.44444444444446" cy="102" r="4" fill="#dfb317" class="data-point" style="animation-delay: 2.00s" />
    <circle cx="493.8888888888889" cy="101.60000000000002" r="4" fill="#dfb317" class="data-point" style="animation-delay: 2.05s" />
    <circle cx="533.3333333333333" cy="101.19999999999999" r="4" fill="#dfb317" class="data-point" style="animation-delay: 2.10s" />
    <circle cx="572.7777777777777" cy="100.10000000000002" r="4" fill="#dfb317" class="data-point" style="animation-delay: 2.15s" />
    <circle cx="612.2222222222223" cy="99.9" r="4" fill="#dfb317" class="data-point" style="animation-delay: 2.20s" />
    <circle cx="651.6666666666667" cy="100" r="4" fill="#dfb317" class="data-point" style="animation-delay: 2.25s" />
    <circle cx="691.1111111111111" cy="100" r="4" fill="#dfb317" class="data-point" style="animation-delay: 2.30s" />
    <circle cx="730.5555555555555" cy="99.80000000000001" r="4" fill="#dfb317" class="data-point" style="animation-delay: 2.35s" />
    <circle cx="770" cy="99.6" r="4" fill="#dfb317" class="data-point" style="animation-delay: 2.40s" />
    
    <circle cx="60" cy="349.7" r="4" fill="#28a745" class="data-point" style="animation-delay: 1.50s" />
    <circle cx="99.44444444444444" cy="349.7" r="4" fill="#28a745" class="data-point" style="animation-delay: 1.55s" />
    <circle cx="138.88888888888889" cy="349.7" r="4" fill="#28a745" class="data-point" style="animation-delay: 1.60s" />
    <circle cx="178.33333333333331" cy="349.7" r="4" fill="#28a745" class="data-point" style="animation-delay: 1.65s" />
    <circle cx="217.77777777777777" cy="349.7" r="4" fill="#28a745" class="data-point" style="animation-delay: 1.70s" />
    <circle cx="257.22222222222223" cy="349.7" r="4" fill="#28a745" class="data-point" style="animation-delay: 1.75s" />
    <circle cx="296.66666666666663" cy="349.7" r="4" fill="#28a745" class="data-point" style="animation-delay: 1.80s" />
    <circle cx="336.11111111111114" cy="349.7" r="4" fill="#28a745" class="data-point" style="animation-delay: 1.85s" />
    <circle cx="375.55555555555554" cy="349.7" r="4" fill="#28a745" class="data-point" style="animation-delay: 1.90s" />
    <circle cx="415" cy="349.7" r="4" fill="#28a745" class="data-point" style="animation-delay: 1.95s" />
    <circle cx="454.44444444444446" cy="349.7" r="4" fill="#28a745" class="data-point" style="animation-delay: 2.00s" />
    <circle cx="493.8888888888889" cy="349.7" r="4" fill="#28a745" class="data-point" style="animation-delay: 2.05s" />
    <circle cx="533.3333333333333" cy="349.7" r="4" fill="#28a745" class="data-point" style="animation-delay: 2.10s" />
    <circle cx="572.7777777777777" cy="349.7" r="4" fill="#28a745" class="data-point" style="animation-delay: 2.15s" />
    <circle cx="612.2222222222223" cy="349.7" r="4" fill="#28a745" class="data-point" style="animation-delay: 2.20s" />
    <circle cx="651.6666666666667" cy="349.7" r="4" fill="#28a745" class="data-point" style="animation-delay: 2.25s" />
    <circle cx="691.1111111111111" cy="349.7" r="4" fill="#28a745" class="data-point" style="animation-delay: 2.30s" />
    <circle cx="730.5555555555555" cy="349.7" r="4" fill="#28a745" class="data-point" style="animation-delay: 2.35s" />
    <circle cx="770" cy="349.7" r="4" fill="#28a745" class="data-point" style="animation-delay: 2.40s" />
    
    <circle cx="60" cy="349.8" r="4" fill="#e74c3c" class="data-point" style="animation-delay: 1.50s" />
    <circle cx="99.44444444444444" cy="349.8" r="4" fill="#e74c3c" class="data-point" style="animation-delay: 1.55s" />
    <circle cx="138.88888888888889" cy="349.8" r="4" fill="#e74c3c" class="data-point" style="animation-delay: 1.60s" />
    <circle cx="178.33333333333331" cy="349.8" r="4" fill="#e74c3c" class="data-point" style="animation-delay: 1.65s" />
    <circle cx="217.77777777777777" cy="349.8" r="4" fill="#e74c3c" class="data-point" style="animation-delay: 1.70s" />
    <circle cx="257.22222222222223" cy="349.8" r="4" fill="#e74c3c" class="data-point" style="animation-delay: 1.75s" />
    <circle cx="296.66666666666663" cy="349.8" r="4" fill="#e74c3c" class="data-point" style="animation-delay: 1.80s" />
    <circle cx="336.11111111111114" cy="349.8" r="4" fill="#e74c3c" class="data-point" style="animation-delay: 1.85s" />
    <circle cx="375.55555555555554" cy="349.8" r="4" fill="#e74c3c" class="data-point" style="animation-delay: 1.90s" />
    <circle cx="415" cy="349.8" r="4" fill="#e74c3c" class="data-point" style="animation-delay: 1.95s" />
    <circle cx="454.44444444444446" cy="349.8" r="4" fill="#e74c3c" class="data-point" style="animation-delay: 2.00s" />
    <circle cx="493.8888888888889" cy="349.8" r="4" fill="#e74c3c" class="data-point" style="animation-delay: 2.05s" />
    <circle cx="533.3333333333333" cy="349.8" r="4" fill="#e74c3c" class="data-point" style="animation-delay: 2.10s" />
    <circle cx="572.7777777777777" cy="349.8" r="4" fill="#e74c3c" class="data-point" style="animation-delay: 2.15s" />
    <circle cx="612.2222222222223" cy="349.8" r="4" fill="#e74c3c" class="data-point" style="animation-delay: 2.20s" />
    <circle cx="651.6666666666667" cy="349.8" r="4" fill="#e74c3c" class="data-point" style="animation-delay: 2.25s" />
    <circle cx="691.1111111111111" cy="349.8" r="4" fill="#e74c3c" class="data-point" style="animation-delay: 2.30s" />
    <circle cx="730.5555555555555" cy="349.8" r="4" fill="#e74c3c" class="data-point" style="animation-delay: 2.35s" />
    <circle cx="770" cy="349.8" r="4" fill="#e74c3c" class="data-point" style="animation-delay: 2.40s" />
    
    <circle cx="60" cy="349.8" r="4" fill="#3498db" class="data-point" style="animation-delay: 1.50s" />
    <circle cx="99.44444444444444" cy="349.8" r="4" fill="#3498db" class="data-point" style="animation-delay: 1.55s" />
    <circle cx="138.88888888888889" cy="349.8" r="4" fill="#3498db" class="data-point" style="animation-delay: 1.60s" />
    <circle cx="178.33333333333331" cy="349.8" r="4" fill="#3498db" class="data-point" style="animation-delay: 1.65s" />
    <circle cx="217.77777777777777" cy="349.8" r="4" fill="#3498db" class="data-point" style="animation-delay: 1.70s" />
    <circle cx="257.22222222222223" cy="349.8" r="4" fill="#3498db" class="data-point" style="animation-delay: 1.75s" />
    <circle cx="296.66666666666663" cy="349.8" r="4" fill="#3498db" class="data-point" style="animation-delay: 1.80s" />
    <circle cx="336.11111111111114" cy="349.8" r="4" fill="#3498db" class="data-point" style="animation-delay: 1.85s" />
    <circle cx="375.55555555555554" cy="349.8" r="4" fill="#3498db" class="data-point" style="animation-delay: 1.90s" />
    <circle cx="415" cy="349.8" r="4" fill="#3498db" class="data-point" style="animation-delay: 1.95s" />
    <circle cx="454.44444444444446" cy="349.8" r="4" fill="#3498db" class="data-point" style="animation-delay: 2.00s" />
    <circle cx="493.8888888888889" cy="349.8" r="4" fill="#3498db" class="data-point" style="animation-delay: 2.05s" />
    <circle cx="533.3333333333333" cy="349.8" r="4" fill="#3498db" class="data-point" style="animation-delay: 2.10s" />
    <circle cx="572.7777777777777" cy="349.8" r="4" fill="#3498db" class="data-point" style="animation-delay: 2.15s" />
    <circle cx="612.2222222222223" cy="349.8" r="4" fill="#3498db" class="data-point" style="animation-delay: 2.20s" />
    <circle cx="651.6666666666667" cy="349.8" r="4" fill="#3498db" class="data-point" style="animation-delay: 2.25s" />
    <circle cx="691.1111111111111" cy="349.8" r="4" fill="#3498db" class="data-point" style="animation-delay: 2.30s" />
    <circle cx="730.5555555555555" cy="349.8" r="4" fill="#3498db" class="data-point" style="animation-delay: 2.35s" />
    <circle cx="770" cy="349.8" r="4" fill="#3498db" class="data-point" style="animation-delay: 2.40s" />
    
    <circle cx="60" cy="349.9" r="4" fill="#9b59b6" class="data-point" style="animation-delay: 1.50s" />
    <circle cx="99.44444444444444" cy="349.9" r="4" fill="#9b59b6" class="data-point" style="animation-delay: 1.55s" />
    <circle cx="138.88888888888889" cy="349.9" r="4" fill="#9b59b6" class="data-point" style="animation-delay: 1.60s" />
    <circle cx="178.33333333333331" cy="349.9" r="4" fill="#9b59b6" class="data-point" style="animation-delay: 1.65s" />
    <circle cx="217.77777777777777" cy="349.9" r="4" fill="#9b59b6" class="data-point" style="animation-delay: 1.70s" />
    <circle cx="257.22222222222223" cy="349.9" r="4" fill="#9b59b6" class="data-point" style="animation-delay: 1.75s" />
    <circle cx="296.66666666666663" cy="349.9" r="4" fill="#9b59b6" class="data-point" style="animation-delay: 1.80s" />
    <circle cx="336.11111111111114" cy="349.9" r="4" fill="#9b59b6" class="data-point" style="animation-delay: 1.85s" />
    <circle cx="375.55555555555554" cy="349.9" r="4" fill="#9b59b6" class="data-point" style="animation-delay: 1.90s" />
    <circle cx="415" cy="349.9" r="4" fill="#9b59b6" class="data-point" style="animation-delay: 1.95s" />
    <circle cx="454.44444444444446" cy="349.9" r="4" fill="#9b59b6" class="data-point" style="animation-delay: 2.00s" />
    <circle cx="493.8888888888889" cy="349.9" r="4" fill="#9b59b6" class="data-point" style="animation-delay: 2.05s" />
    <circle cx="533.3333333333333" cy="349.9" r="4" fill="#9b59b6" class="data-point" style="animation-delay: 2.10s" />
    <circle cx="572.7777777777777" cy="349.9" r="4" fill="#9b59b6" class="data-point" style="animation-delay: 2.15s" />
    <circle cx="612.2222222222223" cy="349.9" r="4" fill="#9b59b6" class="data-point" style="animation-delay: 2.20s" />
    <circle cx="651.6666666666667" cy="349.9" r="4" fill="#9b59b6" class="data-point" style="animation-delay: 2.25s" />
    <circle cx="691.1111111111111" cy="349.9" r="4" fill="#9b59b6" class="data-point" style="animation-delay: 2.30s" />
    <circle cx="730.5555555555555" cy="349.9" r="4" fill="#9b59b6" class="data-point" style="animation-delay: 2.35s" />
    <circle cx="770" cy="349.9" r="4" fill="#9b59b6" class="data-point" style="animation-delay: 2.40s" />
    
    <circle cx="60" cy="349.9" r="4" fill="#e67e22" class="data-point" style="animation-delay: 1.50s" />
    <circle cx="99.44444444444444" cy="349.9" r="4" fill="#e67e22" class="data-point" style="animation-delay: 1.55s" />
    <circle cx="138.88888888888889" cy="349.9" r="4" fill="#e67e22" class="data-point" style="animation-delay: 1.60s" />
    <circle cx="178.33333333333331" cy="349.9" r="4" fill="#e67e22" class="data-point" style="animation-delay: 1.65s" />
    <circle cx="217.77777777777777" cy="349.9" r="4" fill="#e67e22" class="data-point" style="animation-delay: 1.70s" />
    <circle cx="257.22222222222223" cy="349.9" r="4" fill="#e67e22" class="data-point" style="animation-delay: 1.75s" />
    <circle cx="296.66666666666663" cy="349.9" r="4" fill="#e67e22" class="data-point" style="animation-delay: 1.80s" />
    <circle cx="336.11111111111114" cy="349.9" r="4" fill="#e67e22" class="data-point" style="animation-delay: 1.85s" />
    <circle cx="375.55555555555554" cy="349.9" r="4" fill="#e67e22" class="data-point" style="animation-delay: 1.90s" />
    <circle cx="415" cy="349.9" r="4" fill="#e67e22" class="data-point" style="animation-delay: 1.95s" />
    <circle cx="454.44444444444446" cy="349.9" r="4" fill="#e67e22" class="data-point" style="animation-delay: 2.00s" />
    <circle cx="493.8888888888889" cy="349.9" r="4" fill="#e67e22" class="data-point" style="animation-delay: 2.05s" />
    <circle cx="533.3333333333333" cy="349.9" r="4" fill="#e67e22" class="data-point" style="animation-delay: 2.10s" />
    <circle cx="572.7777777777777" cy="349.9" r="4" fill="#e67e22" class="data-point" style="animation-delay: 2.15s" />
    <circle cx="612.2222222222223" cy="349.9" r="4" fill="#e67e22" class="data-point" style="animation-delay: 2.20s" />
    <circle cx="651.6666666666667" cy="349.9" r="4" fill="#e67e22" class="data-point" style="animation-delay: 2.25s" />
    <circle cx="691.1111111111111" cy="349.9" r="4" fill="#e67e22" class="data-point" style="animation-delay: 2.30s" />
    <circle cx="730.5555555555555" cy="349.9" r="4" fill="#e67e22" class="data-point" style="animation-delay: 2.35s" />
    <circle cx="770" cy="349.9" r="4" fill="#e67e22" class="data-point" style="animation-delay: 2.40s" />
    
    <circle cx="60" cy="349.9" r="4" fill="#1abc9c" class="data-point" style="animation-delay: 1.50s" />
    <circle cx="99.44444444444444" cy="349.9" r="4" fill="#1abc9c" class="data-point" style="animation-delay: 1.55s" />
    <circle cx="138.88888888888889" cy="349.9" r="4" fill="#1abc9c" class="data-point" style="animation-delay: 1.60s" />
    <circle cx="178.33333333333331" cy="349.9" r="4" fill="#1abc9c" class="data-point" style="animation-delay: 1.65s" />
    <circle cx="217.77777777777777" cy="349.9" r="4" fill="#1abc9c" class="data-point" style="animation-delay: 1.70s" />
    <circle cx="257.22222222222223" cy="349.9" r="4" fill="#1abc9c" class="data-point" style="animation-delay: 1.75s" />
    <circle cx="296.66666666666663" cy="349.9" r="4" fill="#1abc9c" class="data-point" style="animation-delay: 1.80s" />
    <circle cx="336.11111111111114" cy="349.9" r="4" fill="#1abc9c" class="data-point" style="animation-delay: 1.85s" />
    <circle cx="375.55555555555554" cy="349.9" r="4" fill="#1abc9c" class="data-point" style="animation-delay: 1.90s" />
    <circle cx="415" cy="349.9" r="4" fill="#1abc9c" class="data-point" style="animation-delay: 1.95s" />
    <circle cx="454.44444444444446" cy="349.9" r="4" fill="#1abc9c" class="data-point" style="animation-delay: 2.00s" />
    <circle cx="493.8888888888889" cy="349.9" r="4" fill="#1abc9c" class="data-point" style="animation-delay: 2.05s" />
    <circle cx="533.3333333333333" cy="349.9" r="4" fill="#1abc9c" class="data-point" style="animation-delay: 2.10s" />
    <circle cx="572.7777777777777" cy="349.9" r="4" fill="#1abc9c" class="data-point" style="animation-delay: 2.15s" />
    <circle cx="612.2222222222223" cy="349.9" r="4" fill="#1abc9c" class="data-point" style="animation-delay: 2.20s" />
    <circle cx="651.6666666666667" cy="349.9" r="4" fill="#1abc9c" class="data-point" style="animation-delay: 2.25s" />
    <circle cx="691.1111111111111" cy="349.9" r="4" fill="#1abc9c" class="data-point" style="animation-delay: 2.30s" />
    <circle cx="730.5555555555555" cy="349.9" r="4" fill="#1abc9c" class="data-point" style="animation-delay: 2.35s" />
    <circle cx="770" cy="349.9" r="4" fill="#1abc9c" class="data-point" style="animation-delay: 2.40s" />
    
    <circle cx="60" cy="349.9" r="4" fill="#e84393" class="data-point" style="animation-delay: 1.50s" />
    <circle cx="99.44444444444444" cy="349.9" r="4" fill="#e84393" class="data-point" style="animation-delay: 1.55s" />
    <circle cx="138.88888888888889" cy="349.9" r="4" fill="#e84393" class="data-point" style="animation-delay: 1.60s" />
    <circle cx="178.33333333333331" cy="349.9" r="4" fill="#e84393" class="data-point" style="animation-delay: 1.65s" />
    <circle cx="217.77777777777777" cy="349.9" r="4" fill="#e84393" class="data-point" style="animation-delay: 1.70s" />
    <circle cx="257.22222222222223" cy="349.9" r="4" fill="#e84393" class="data-point" style="animation-delay: 1.75s" />
    <circle cx="296.66666666666663" cy="349.9" r="4" fill="#e84393" class="data-point" style="animation-delay: 1.80s" />
    <circle cx="336.11111111111114" cy="349.9" r="4" fill="#e84393" class="data-point" style="animation-delay: 1.85s" />
    <circle cx="375.55555555555554" cy="349.9" r="4" fill="#e84393" class="data-point" style="animation-delay: 1.90s" />
    <circle cx="415" cy="349.9" r="4" fill="#e84393" class="data-point" style="animation-delay: 1.95s" />
    <circle cx="454.44444444444446" cy="349.9" r="4" fill="#e84393" class="data-point" style="animation-delay: 2.00s" />
    <circle cx="493.8888888888889" cy="349.9" r="4" fill="#e84393" class="data-point" style="animation-delay: 2.05s" />
    <circle cx="533.3333333333333" cy="349.9" r="4" fill="#e84393" class="data-point" style="animation-delay: 2.10s" />
    <circle cx="572.7777777777777" cy="349.9" r="4" fill="#e84393" class="data-point" style="animation-delay: 2.15s" />
    <circle cx="612.2222222222223" cy="349.9" r="4" fill="#e84393" class="data-point" style="animation-delay: 2.20s" />
    <circle cx="651.6666666666667" cy="349.9" r="4" fill="#e84393" class="data-point" style="animation-delay: 2.25s" />
    <circle cx="691.1111111111111" cy="349.9" r="4" fill="#e84393" class="data-point" style="animation-delay: 2.30s" />
    <circle cx="730.5555555555555" cy="349.9" r="4" fill="#e84393" class="data-point" style="animation-delay: 2.35s" />
    <circle cx="770" cy="349.9" r="4" fill="#e84393" class="data-point" style="animation-delay: 2.40s" />
    
    <circle cx="60" cy="350" r="4" fill="#795548" class="data-point" style="animation-delay: 1.50s" />
    <circle cx="99.44444444444444" cy="350" r="4" fill="#795548" class="data-point" style="animation-delay: 1.55s" />
    <circle cx="138.88888888888889" cy="350" r="4" fill="#795548" class="data-point" style="animation-delay: 1.60s" />
    <circle cx="178.33333333333331" cy="350" r="4" fill="#795548" class="data-point" style="animation-delay: 1.65s" />
    <circle cx="217.77777777777777" cy="350" r="4" fill="#795548" class="data-point" style="animation-delay: 1.70s" />
    <circle cx="257.22222222222223" cy="350" r="4" fill="#795548" class="data-point" style="animation-delay: 1.75s" />
    <circle cx="296.66666666666663" cy="350" r="4" fill="#795548" class="data-point" style="animation-delay: 1.80s" />
    <circle cx="336.11111111111114" cy="350" r="4" fill="#795548" class="data-point" style="animation-delay: 1.85s" />
    <circle cx="375.55555555555554" cy="350" r="4" fill="#795548" class="data-point" style="animation-delay: 1.90s" />
    <circle cx="415" cy="350" r="4" fill="#795548" class="data-point" style="animation-delay: 1.95s" />
    <circle cx="454.44444444444446" cy="350" r="4" fill="#795548" class="data-point" style="animation-delay: 2.00s" />
    <circle cx="493.8888888888889" cy="350" r="4" fill="#795548" class="data-point" style="animation-delay: 2.05s" />
    <circle cx="533.3333333333333" cy="350" r="4" fill="#795548" class="data-point" style="animation-delay: 2.10s" />
    <circle cx="572.7777777777777" cy="350" r="4" fill="#795548" class="data-point" style="animation-delay: 2.15s" />
    <circle cx="612.2222222222223" cy="350" r="4" fill="#795548" class="data-point" style="animation-delay: 2.20s" />
    <circle cx="651.6666666666667" cy="350" r="4" fill="#795548" class="data-point" style="animation-delay: 2.25s" />
    <circle cx="691.1111111111111" cy="350" r="4" fill="#795548" class="data-point" style="animation-delay: 2.30s" />
    <circle cx="730.5555555555555" cy="350" r="4" fill="#795548" class="data-point" style="animation-delay: 2.35s" />
    <circle cx="770" cy="350" r="4" fill="#795548" class="data-point" style="animation-delay: 2.40s" />
    
    <circle cx="60" cy="350" r="4" fill="#00bcd4" class="data-point" style="animation-delay: 1.50s" />
    <circle cx="99.44444444444444" cy="350" r="4" fill="#00bcd4" class="data-point" style="animation-delay: 1.55s" />
    <circle cx="138.88888888888889" cy="350" r="4" fill="#00bcd4" class="data-point" style="animation-delay: 1.60s" />
    <circle cx="178.33333333333331" cy="350" r="4" fill="#00bcd4" class="data-point" style="animation-delay: 1.65s" />
    <circle cx="217.77777777777777" cy="350" r="4" fill="#00bcd4" class="data-point" style="animation-delay: 1.70s" />
    <circle cx="257.22222222222223" cy="350" r="4" fill="#00bcd4" class="data-point" style="animation-delay: 1.75s" />
    <circle cx="296.66666666666663" cy="350" r="4" fill="#00bcd4" class="data-point" style="animation-delay: 1.80s" />
    <circle cx="336.11111111111114" cy="350" r="4" fill="#00bcd4" class="data-point" style="animation-delay: 1.85s" />
    <circle cx="375.55555555555554" cy="350" r="4" fill="#00bcd4" class="data-point" style="animation-delay: 1.90s" />
    <circle cx="415" cy="350" r="4" fill="#00bcd4" class="data-point" style="animation-delay: 1.95s" />
    <circle cx="454.44444444444446" cy="350" r="4" fill="#00bcd4" class="data-point" style="animation-delay: 2.00s" />
    <circle cx="493.8888888888889" cy="350" r="4" fill="#00bcd4" class="data-point" style="animation-delay: 2.05s" />
    <circle cx="533.3333333333333" cy="350" r="4" fill="#00bcd4" class="data-point" style="animation-delay: 2.10s" />
    <circle cx="572.7777777777777" cy="350" r="4" fill="#00bcd4" class="data-point" style="animation-delay: 2.15s" />
    <circle cx="612.2222222222223" cy="350" r="4" fill="#00bcd4" class="data-point" style="animation-delay: 2.20s" />
    <circle cx="651.6666666666667" cy="350" r="4" fill="#00bcd4" class="data-point" style="animation-delay: 2.25s" />
    <circle cx="691.1111111111111" cy="350" r="4" fill="#00bcd4" class="data-point" style="animation-delay: 2.30s" />
    <circle cx="730.5555555555555" cy="350" r="4" fill="#00bcd4" class="data-point" style="animation-delay: 2.35s" />
    <circle cx="770" cy="350" r="4" fill="#00bcd4" class="data-point" style="animation-delay: 2.40s" />
  </g>
</svg>