<svg xmlns="http://www.w3.org/2000/svg" viewBox="0 0 800 400" width="800" height="400">
  <style>
    @keyframes drawLine {
      to { stroke-dashoffset: 0; }
    }
    @keyframes fadeInPoint {
      from { opacity: 0; }
      to { opacity: 1; }
    }
    .data-line-0 {
      stroke-dasharray: 1033;
      stroke-dashoffset: 1033;
      animation: drawLine 2s ease-out forwards;
    }
    .data-point {
      opacity: 0;
      animation: fadeInPoint 0.5s ease-out forwards;
    }
    .chart-bg { fill: #fff; }
    .chart-text { fill: #24292e; }
    .chart-muted { fill: #6a737d; }
    .chart-grid { stroke: #eee; }
    .chart-axis { stroke: #6a737d; }
    @media (prefers-color-scheme: dark) {
      .chart-bg { fill: #0d1117; }
      .chart-text { fill: #e6edf3; }
      .chart-muted { fill: #8b949e; }
      .chart-grid { stroke: #21262d; }
      .chart-axis { stroke: #8b949e; }
    }
  </style>
  <rect width="800" height="400" class="chart-bg" />
  <text x="400" y="14" text-anchor="middle" class="chart-text" font-size="16" font-weight="bold" font-family="-apple-system, BlinkMacSystemFont, 'Segoe UI', Helvetica, Arial, sans-serif">Growth Forecast</text>
  <g class="legend">
    <rect x="220" y="31" width="12" height="3" fill="#dfb317" />
    <line x1="220" y1="32.5" x2="232" y2="32.5" stroke="#dfb317" stroke-width="2" />
    <text x="236" y="36" class="chart-text" font-size="10" font-family="-apple-system, BlinkMacSystemFont, 'Segoe UI', Helvetica, Arial, sans-serif">Star History</text>
    <rect x="340" y="31" width="12" height="3" fill="#28a745" rx="1" />
    <line x1="340" y1="32.5" x2="352" y2="32.5" stroke="#28a745" stroke-width="2" stroke-dasharray="4,2" />
    <text x="356" y="36" class="chart-text" font-size="10" font-family="-apple-system, BlinkMacSystemFont, 'Segoe UI', Helvetica, Arial, sans-serif">Linear Regression</text>
    <rect x="460" y="31" width="12" height="3" fill="#d73a49" rx="1" />
    <line x1="460" y1="32.5" x2="472" y2="32.5" stroke="#d73a49" stroke-width="2" stroke-dasharray="4,2" />
    <text x="476" y="36" class="chart-text" font-size="10" font-family="-apple-system, BlinkMacSystemFont, 'Segoe UI', Helvetica, Arial, sans-serif">Weighted Moving Average</text>
  </g>
  <g class="grid">
    <line x1="60" y1="350" x2="770" y2="350" class="chart-grid" stroke-opacity="0.3" />
    <text x="52" y="354" text-anchor="end" class="chart-muted" font-size="11" font-family="-apple-system, BlinkMacSystemFont, 'Segoe UI', Helvetica, Arial, sans-serif">0</text>
    <line x1="60" y1="300" x2="770" y2="300" class="chart-grid" stroke-opacity="0.3" />
    <text x="52" y="304" text-anchor="end" class="chart-muted" font-size="11" font-family="-apple-system, BlinkMacSystemFont, 'Segoe UI', Helvetica, Arial, sans-serif">500</text>
    <line x1="60" y1="250" x2="770" y2="250" class="chart-grid" stroke-opacity="0.3" />
    <text x="52" y="254" text-anchor="end" class="chart-muted" font-size="11" font-family="-apple-system, BlinkMacSystemFont, 'Segoe UI', Helvetica, Arial, sans-serif">1K</text>
    <line x1="60" y1="200" x2="770" y2="200" class="chart-grid" stroke-opacity="0.3" />
    <text x="52" y="204" text-anchor="end" class="chart-muted" font-size="11" font-family="-apple-system, BlinkMacSystemFont, 'Segoe UI', Helvetica, Arial, sans-serif">1.5K</text>
    <line x1="60" y1="150" x2="770" y2="150" class="chart-grid" stroke-opacity="0.3" />
    <text x="52" y="154" text-anchor="end" class="chart-muted" font-size="11" font-family="-apple-system, BlinkMacSystemFont, 'Segoe UI', Helvetica, Arial, sans-serif">2K</text>
    <line x1="60" y1="100" x2="770" y2="100" class="chart-grid" stroke-opacity="0.3" />
    <text x="52" y="104" text-anchor="end" class="chart-muted" font-size="11" font-family="-apple-system, BlinkMacSystemFont, 'Segoe UI', Helvetica, Arial, sans-serif">2.5K</text>
    <line x1="60" y1="50" x2="770" y2="50" class="chart-grid" stroke-opacity="0.3" />
    <text x="52" y="54" text-anchor="end" class="chart-muted" font-size="11" font-family="-apple-system, BlinkMacSystemFont, 'Segoe UI', Helvetica, Arial, sans-serif">3K</text>
  </g>
  <g class="milestones">
    
  </g>
  <g class="x-axis">
    <text x="60" y="370" text-anchor="middle" class="chart-muted" font-size="11" font-family="-apple-system, BlinkMacSystemFont, 'Segoe UI', Helvetica, Arial, sans-serif">Apr 30</text>
    <text x="146.06060606060606" y="370" text-anchor="middle" class="chart-muted" font-size="11" font-family="-apple-system, BlinkMacSystemFont, 'Segoe UI', Helvetica, Arial, sans-serif">Aug 7</text>
    <text x="232.12121212121212" y="370" text-anchor="middle" class="chart-muted" font-size="11" font-family="-apple-system, BlinkMacSystemFont, 'Segoe UI', Helvetica, Arial, sans-serif">Nov 13</text>
    <text x="318.1818181818182" y="370" text-anchor="middle" class="chart-muted" font-size="11" font-family="-apple-system, BlinkMacSystemFont, 'Segoe UI', Helvetica, Arial, sans-serif">Feb 19</text>
    <text x="404.24242424242425" y="370" text-anchor="middle" class="chart-muted" font-size="11" font-family="-apple-system, BlinkMacSystemFont, 'Segoe UI', Helvetica, Arial, sans-serif">May 29</text>
    <text x="490.3030303030303" y="370" text-anchor="middle" class="chart-muted" font-size="11" font-family="-apple-system, BlinkMacSystemFont, 'Segoe UI', Helvetica, Arial, sans-serif">Sep 4</text>
    <text x="576.3636363636364" y="370" text-anchor="middle" class="chart-muted" font-size="11" font-family="-apple-system, BlinkMacSystemFont, 'Segoe UI', Helvetica, Arial, sans-serif">Dec 11</text>
    <text x="662.4242424242425" y="370" text-anchor="middle" class="chart-muted" font-size="11" font-family="-apple-system, BlinkMacSystemFont, 'Segoe UI', Helvetica, Arial, sans-serif">Mar 20</text>
    <text x="748.4848484848485" y="370" text-anchor="middle" class="chart-muted" font-size="11" font-family="-apple-system, BlinkMacSystemFont, 'Segoe UI', Helvetica, Arial, sans-serif">Week 3</text>
    <text x="770" y="370" text-anchor="middle" class="chart-muted" font-size="11" font-family="-apple-system, BlinkMacSystemFont, 'Segoe UI', Helvetica, Arial, sans-serif">Week 4</text>
  </g>
  <line x1="60" y1="50" x2="60" y2="350" class="chart-axis" stroke-width="1" />
  <line x1="60" y1="350" x2="770" y2="350" class="chart-axis" stroke-width="1" />
  <path d="M60,350 L60,348.8 C67.17171717171718,346.4666666666667 74.34343434343434,343.56666666666666 81.51515151515152,341.8 C88.68686868686869,340.03333333333336 95.85858585858585,339.35 103.03030303030303,338.2 C110.20202020202021,337.04999999999995 117.37373737373737,335.95 124.54545454545455,334.9 C131.7171717171717,333.84999999999997 138.88888888888889,333.0833333333333 146.06060606060606,331.9 C153.23232323232324,330.71666666666664 160.4040404040404,329 167.57575757575756,327.8 C174.74747474747474,326.6 181.91919191919192,325.5833333333333 189.0909090909091,324.7 C196.26262626262627,323.81666666666666 203.43434343434345,323.15 210.60606060606062,322.5 C217.7777777777778,321.85 224.94949494949495,321.45 232.12121212121212,320.8 C239.2929292929293,320.15000000000003 246.46464646464645,319.83333333333337 253.63636363636363,318.6 C260.8080808080808,317.3666666666667 267.979797979798,314.56666666666666 275.1515151515151,313.4 C282.3232323232323,312.2333333333333 289.4949494949495,312.28333333333336 296.66666666666663,311.6 C303.83838383838383,310.9166666666667 311.010101010101,310.20000000000005 318.1818181818182,309.3 C325.35353535353534,308.40000000000003 332.52525252525254,307.75 339.6969696969697,306.2 C346.8686868686869,304.65 354.04040404040404,302.68333333333334 361.21212121212125,300 C368.3838383838384,297.31666666666666 375.55555555555554,295.3333333333333 382.7272727272727,290.1 C389.8989898989899,284.8666666666667 397.07070707070704,275.3833333333334 404.24242424242425,268.6 C411.4141414141414,261.8166666666667 418.5858585858586,255 425.75757575757575,249.4 C432.9292929292929,243.8 440.1010101010101,240.13333333333333 447.27272727272725,235 C454.44444444444446,229.86666666666665 461.6161616161616,223.25 468.7878787878788,218.6 C475.95959595959596,213.95 483.13131313131316,211.04999999999998 490.3030303030303,207.1 C497.47474747474746,203.15 504.64646464646466,198.81666666666666 511.8181818181818,194.9 C518.989898989899,190.98333333333335 526.1616161616162,187.46666666666664 533.3333333333333,183.6 C540.5050505050505,179.73333333333332 547.6767676767677,175.51666666666668 554.8484848484849,171.7 C562.0202020202021,167.88333333333333 569.1919191919192,164.43333333333334 576.3636363636364,160.7 C583.5353535353536,156.96666666666664 590.7070707070707,152.76666666666665 597.8787878787879,149.29999999999998 C605.0505050505051,145.83333333333331 612.2222222222222,143.2333333333333 619.3939393939394,139.89999999999998 C626.5656565656566,136.56666666666663 633.7373737373738,133.5 640.909090909091,129.29999999999998 C648.0808080808082,125.1 655.2525252525253,119.4 662.4242424242425,114.69999999999999 C669.5959595959596,110 676.7676767676768,105.63333333333333 683.9393939393939,101.1 L683.9393939393939,350 L60,350 Z" fill="#dfb317" fill-opacity="0.1" />
  
  
  <path d="M60,350 L60,348.8 C67.17171717171718,346.4666666666667 74.34343434343434,343.56666666666666 81.51515151515152,341.8 C88.68686868686869,340.03333333333336 95.85858585858585,339.35 103.03030303030303,338.2 C110.20202020202021,337.04999999999995 117.37373737373737,335.95 124.54545454545455,334.9 C131.7171717171717,333.84999999999997 138.88888888888889,333.0833333333333 146.06060606060606,331.9 C153.23232323232324,330.71666666666664 160.4040404040404,329 167.57575757575756,327.8 C174.74747474747474,326.6 181.91919191919192,325.5833333333333 189.0909090909091,324.7 C196.26262626262627,323.81666666666666 203.43434343434345,323.15 210.60606060606062,322.5 C217.7777777777778,321.85 224.94949494949495,321.45 232.12121212121212,320.8 C239.2929292929293,320.15000000000003 246.46464646464645,319.83333333333337 253.63636363636363,318.6 C260.8080808080808,317.3666666666667 267.979797979798,314.56666666666666 275.1515151515151,313.4 C282.3232323232323,312.2333333333333 289.4949494949495,312.28333333333336 296.66666666666663,311.6 C303.83838383838383,310.9166666666667 311.010101010101,310.20000000000005 318.1818181818182,309.3 C325.35353535353534,308.40000000000003 332.52525252525254,307.75 339.6969696969697,306.2 C346.8686868686869,304.65 354.04040404040404,302.68333333333334 361.21212121212125,300 C368.3838383838384,297.31666666666666 375.55555555555554,295.3333333333333 382.7272727272727,290.1 C389.8989898989899,284.8666666666667 397.07070707070704,275.3833333333334 404.24242424242425,268.6 C411.4141414141414,261.8166666666667 418.5858585858586,255 425.75757575757575,249.4 C432.9292929292929,243.8 440.1010101010101,240.13333333333333 447.27272727272725,235 C454.44444444444446,229.86666666666665 461.6161616161616,223.25 468.7878787878788,218.6 C475.95959595959596,213.95 483.13131313131316,211.04999999999998 490.3030303030303,207.1 C497.47474747474746,203.15 504.64646464646466,198.81666666666666 511.8181818181818,194.9 C518.989898989899,190.98333333333335 526.1616161616162,187.46666666666664 533.3333333333333,183.6 C540.5050505050505,179.73333333333332 547.6767676767677,175.51666666666668 554.8484848484849,171.7 C562.0202020202021,167.88333333333333 569.1919191919192,164.43333333333334 576.3636363636364,160.7 C583.5353535353536,156.96666666666664 590.7070707070707,152.76666666666665 597.8787878787879,149.29999999999998 C605.0505050505051,145.83333333333331 612.2222222222222,143.2333333333333 619.3939393939394,139.89999999999998 C626.5656565656566,136.56666666666663 633.7373737373738,133.5 640.909090909091,129.29999999999998 C648.0808080808082,125.1 655.2525252525253,119.4 662.4242424242425,114.69999999999999 C669.5959595959596,110 676.7676767676768,105.63333333333333 683.9393939393939,101.1" fill="none" stroke="#dfb317" stroke-width="2.5" class="data-line-0" />
  <path d="M683.9393939393939,101.1 C691.1111111111111,100.93333333333332 698.2828282828282,100.78333333333333 705.4545454545454,100.6 C712.6262626262626,100.41666666666666 719.7979797979798,100.18333333333334 726.969696969697,100 C734.1414141414142,99.81666666666666 741.3131313131313,99.66666666666667 748.4848484848485,99.5 C755.6565656565657,99.33333333333333 762.8282828282828,99.16666666666667 770,99" fill="none" stroke="#28a745" stroke-width="2.5" stroke-dasharray="8,4" />
  <path d="M683.9393939393939,101.1 C691.1111111111111,100.89999999999999 698.2828282828282,100.71666666666667 705.4545454545454,100.5 C712.6262626262626,100.28333333333333 719.7979797979798,100.01666666666668 726.969696969697,99.80000000000001 C734.1414141414142,99.58333333333334 741.3131313131313,99.41666666666669 748.4848484848485,99.20000000000002 C755.6565656565657,98.98333333333335 762.8282828282828,98.73333333333333 770,98.5" fill="none" stroke="#d73a49" stroke-width="2.5" stroke-dasharray="8,4" />
  <g class="points">
    
    <circle cx="60" cy="348.8" r="4" fill="#dfb317" class="data-point" style="animation-delay: 1.50s" />
    <circle cx="81.51515151515152" cy="341.8" r="4" fill="#dfb317" class="data-point" style="animation-delay: 1.55s" />
    <circle cx="103.03030303030303" cy="338.2" r="4" fill="#dfb317" class="data-point" style="animation-delay: 1.60s" />
    <circle cx="124.54545454545455" cy="334.9" r="4" fill="#dfb317" class="data-point" style="animation-delay: 1.65s" />
    <circle cx="146.06060606060606" cy="331.9" r="4" fill="#dfb317" class="data-point" style="animation-delay: 1.70s" />
    <circle cx="167.57575757575756" cy="327.8" r="4" fill="#dfb317" class="data-point" style="animation-delay: 1.75s" />
    <circle cx="189.0909090909091" cy="324.7" r="4" fill="#dfb317" class="data-point" style="animation-delay: 1.80s" />
    <circle cx="210.60606060606062" cy="322.5" r="4" fill="#dfb317" class="data-point" style="animation-delay: 1.85s" />
    <circle cx="232.12121212121212" cy="320.8" r="4" fill="#dfb317" class="data-point" style="animation-delay: 1.90s" />
    <circle cx="253.63636363636363" cy="318.6" r="4" fill="#dfb317" class="data-point" style="animation-delay: 1.95s" />
    <circle cx="275.1515151515151" cy="313.4" r="4" fill="#dfb317" class="data-point" style="animation-delay: 2.00s" />
    <circle cx="296.66666666666663" cy="311.6" r="4" fill="#dfb317" class="data-point" style="animation-delay: 2.05s" />
    <circle cx="318.1818181818182" cy="309.3" r="4" fill="#dfb317" class="data-point" style="animation-delay: 2.10s" />
    <circle cx="339.6969696969697" cy="306.2" r="4" fill="#dfb317" class="data-point" style="animation-delay: 2.15s" />
    <circle cx="361.21212121212125" cy="300" r="4" fill="#dfb317" class="data-point" style="animation-delay: 2.20s" />
    <circle cx="382.7272727272727" cy="290.1" r="4" fill="#dfb317" class="data-point" style="animation-delay: 2.25s" />
    <circle cx="404.24242424242425" cy="268.6" r="4" fill="#dfb317" class="data-point" style="animation-delay: 2.30s" />
    <circle cx="425.75757575757575" cy="249.4" r="4" fill="#dfb317" class="data-point" style="animation-delay: 2.35s" />
    <circle cx="447.27272727272725" cy="235" r="4" fill="#dfb317" class="data-point" style="animation-delay: 2.40s" />
    <circle cx="468.7878787878788" cy="218.6" r="4" fill="#dfb317" class="data-point" style="animation-delay: 2.45s" />
    <circle cx="490.3030303030303" cy="207.1" r="4" fill="#dfb317" class="data-point" style="animation-delay: 2.50s" />
    <circle cx="511.8181818181818" cy="194.9" r="4" fill="#dfb317" class="data-point" style="animation-delay: 2.55s" />
    <circle cx="533.3333333333333" cy="183.6" r="4" fill="#dfb317" class="data-point" style="animation-delay: 2.60s" />
    <circle cx="554.8484848484849" cy="171.7" r="4" fill="#dfb317" class="data-point" style="animation-delay: 2.65s" />
    <circle cx="576.3636363636364" cy="160.7" r="4" fill="#dfb317" class="data-point" style="animation-delay: 2.70s" />
    <circle cx="597.8787878787879" cy="149.29999999999998" r="4" fill="#dfb317" class="data-point" style="animation-delay: 2.75s" />
    <circle cx="619.3939393939394" cy="139.89999999999998" r="4" fill="#dfb317" class="data-point" style="animation-delay: 2.80s" />
    <circle cx="640.909090909091" cy="129.29999999999998" r="4" fill="#dfb317" class="data-point" style="animation-delay: 2.85s" />
    <circle cx="662.4242424242425" cy="114.69999999999999" r="4" fill="#dfb317" class="data-point" style="animation-delay: 2.90s" />
    <circle cx="683.9393939393939" cy="101.1" r="4" fill="#dfb317" class="data-point" style="animation-delay: 2.95s" />
  </g>
</svg>