<svg xmlns="http://www.w3.org/2000/svg" viewBox="0 0 800 400" width="800" height="400">
  <style>
    @keyframes drawLine {
      to { stroke-dashoffset: 0; }
    }
    @keyframes fadeInPoint {
      from { opacity: 0; }
      to { opacity: 1; }
    }
    .data-line-0 {
      stroke-dasharray: 868;
      stroke-dashoffset: 868;
      animation: drawLine 2s ease-out forwards;
    }
    .data-point {
      opacity: 0;
      animation: fadeInPoint 0.5s ease-out forwards;
    }
    .chart-bg { fill: #fff; }
    .chart-text { fill: #24292e; }
    .chart-muted { fill: #6a737d; }
    .chart-grid { stroke: #eee; }
    .chart-axis { stroke: #6a737d; }
    @media (prefers-color-scheme: dark) {
      .chart-bg { fill: #0d1117; }
      .chart-text { fill: #e6edf3; }
      .chart-muted { fill: #8b949e; }
      .chart-grid { stroke: #21262d; }
      .chart-axis { stroke: #8b949e; }
    }
  </style>
  <rect width="800" height="400" class="chart-bg" />
  <text x="400" y="14" text-anchor="middle" class="chart-text" font-size="16" font-weight="bold" font-family="-apple-system, BlinkMacSystemFont, 'Segoe UI', Helvetica, Arial, sans-serif">Growth Forecast</text>
  <g class="legend">
    <rect x="220" y="31" width="12" height="3" fill="#dfb317" />
    <line x1="220" y1="32.5" x2="232" y2="32.5" stroke="#dfb317" stroke-width="2" />
    <text x="236" y="36" class="chart-text" font-size="10" font-family="-apple-system, BlinkMacSystemFont, 'Segoe UI', Helvetica, Arial, sans-serif">Star History</text>
    <rect x="340" y="31" width="12" height="3" fill="#28a745" rx="1" />
    <line x1="340" y1="32.5" x2="352" y2="32.5" stroke="#28a745" stroke-width="2" stroke-dasharray="4,2" />
    <text x="356" y="36" class="chart-text" font-size="10" font-family="-apple-system, BlinkMacSystemFont, 'Segoe UI', Helvetica, Arial, sans-serif">Linear Regression</text>
    <rect x="460" y="31" width="12" height="3" fill="#d73a49" rx="1" />
    <line x1="460" y1="32.5" x2="472" y2="32.5" stroke="#d73a49" stroke-width="2" stroke-dasharray="4,2" />
    <text x="476" y="36" class="chart-text" font-size="10" font-family="-apple-system, BlinkMacSystemFont, 'Segoe UI', Helvetica, Arial, sans-serif">Weighted Moving Average</text>
  </g>
  <g class="grid">
    <line x1="60" y1="347.5206611570248" x2="770" y2="347.5206611570248" class="chart-grid" stroke-opacity="0.3" />
    <text x="52" y="351.5206611570248" text-anchor="end" class="chart-muted" font-size="11" font-family="-apple-system, BlinkMacSystemFont, 'Segoe UI', Helvetica, Arial, sans-serif">2.5K</text>
    <line x1="60" y1="297.93388429752065" x2="770" y2="297.93388429752065" class="chart-grid" stroke-opacity="0.3" />
    <text x="52" y="301.93388429752065" text-anchor="end" class="chart-muted" font-size="11" font-family="-apple-system, BlinkMacSystemFont, 'Segoe UI', Helvetica, Arial, sans-serif">2.5K</text>
    <line x1="60" y1="248.34710743801654" x2="770" y2="248.34710743801654" class="chart-grid" stroke-opacity="0.3" />
    <text x="52" y="252.34710743801654" text-anchor="end" class="chart-muted" font-size="11" font-family="-apple-system, BlinkMacSystemFont, 'Segoe UI', Helvetica, Arial, sans-serif">2.5K</text>
    <line x1="60" y1="198.7603305785124" x2="770" y2="198.7603305785124" class="chart-grid" stroke-opacity="0.3" />
    <text x="52" y="202.7603305785124" text-anchor="end" class="chart-muted" font-size="11" font-family="-apple-system, BlinkMacSystemFont, 'Segoe UI', Helvetica, Arial, sans-serif">2.5K</text>
    <line x1="60" y1="149.17355371900825" x2="770" y2="149.17355371900825" class="chart-grid" stroke-opacity="0.3" />
    <text x="52" y="153.17355371900825" text-anchor="end" class="chart-muted" font-size="11" font-family="-apple-system, BlinkMacSystemFont, 'Segoe UI', Helvetica, Arial, sans-serif">2.6K</text>
    <line x1="60" y1="99.58677685950414" x2="770" y2="99.58677685950414" class="chart-grid" stroke-opacity="0.3" />
    <text x="52" y="103.58677685950414" text-anchor="end" class="chart-muted" font-size="11" font-family="-apple-system, BlinkMacSystemFont, 'Segoe UI', Helvetica, Arial, sans-serif">2.6K</text>
    <line x1="60" y1="50" x2="770" y2="50" class="chart-grid" stroke-opacity="0.3" />
    <text x="52" y="54" text-anchor="end" class="chart-muted" font-size="11" font-family="-apple-system, BlinkMacSystemFont, 'Segoe UI', Helvetica, Arial, sans-serif">2.6K</text>
  </g>
  <g class="milestones">
    
  </g>
  <g class="x-axis">
    <text x="60" y="370" text-anchor="middle" class="chart-muted" font-size="11" font-family="-apple-system, BlinkMacSystemFont, 'Segoe UI', Helvetica, Arial, sans-serif">Jul 12</text>
    <text x="143.52941176470588" y="370" text-anchor="middle" class="chart-muted" font-size="11" font-family="-apple-system, BlinkMacSystemFont, 'Segoe UI', Helvetica, Arial, sans-serif">Jul 13</text>
    <text x="227.05882352941177" y="370" text-anchor="middle" class="chart-muted" font-size="11" font-family="-apple-system, BlinkMacSystemFont, 'Segoe UI', Helvetica, Arial, sans-serif">Jul 15</text>
    <text x="310.5882352941177" y="370" text-anchor="middle" class="chart-muted" font-size="11" font-family="-apple-system, BlinkMacSystemFont, 'Segoe UI', Helvetica, Arial, sans-serif">Jul 17</text>
    <text x="394.11764705882354" y="370" text-anchor="middle" class="chart-muted" font-size="11" font-family="-apple-system, BlinkMacSystemFont, 'Segoe UI', Helvetica, Arial, sans-serif">Jul 19</text>
    <text x="477.64705882352945" y="370" text-anchor="middle" class="chart-muted" font-size="11" font-family="-apple-system, BlinkMacSystemFont, 'Segoe UI', Helvetica, Arial, sans-serif">Jul 21</text>
    <text x="561.1764705882354" y="370" text-anchor="middle" class="chart-muted" font-size="11" font-family="-apple-system, BlinkMacSystemFont, 'Segoe UI', Helvetica, Arial, sans-serif">Jul 23</text>
    <text x="644.7058823529411" y="370" text-anchor="middle" class="chart-muted" font-size="11" font-family="-apple-system, BlinkMacSystemFont, 'Segoe UI', Helvetica, Arial, sans-serif">Week 1</text>
    <text x="728.2352941176471" y="370" text-anchor="middle" class="chart-muted" font-size="11" font-family="-apple-system, BlinkMacSystemFont, 'Segoe UI', Helvetica, Arial, sans-serif">Week 3</text>
    <text x="770" y="370" text-anchor="middle" class="chart-muted" font-size="11" font-family="-apple-system, BlinkMacSystemFont, 'Segoe UI', Helvetica, Arial, sans-serif">Week 4</text>
  </g>
  <line x1="60" y1="50" x2="60" y2="350" class="chart-axis" stroke-width="1" />
  <line x1="60" y1="350" x2="770" y2="350" class="chart-axis" stroke-width="1" />
  <path d="M60,350 L60,325.20661157024796 C73.92156862745098,325.20661157024796 87.84313725490196,325.20661157024796 101.76470588235294,325.20661157024796 C115.68627450980392,325.20661157024796 129.60784313725492,325.20661157024796 143.52941176470588,325.20661157024796 C157.45098039215688,325.20661157024796 171.37254901960785,325.20661157024796 185.29411764705884,325.20661157024796 C199.2156862745098,325.20661157024796 213.1372549019608,322.72727272727275 227.05882352941177,322.72727272727275 C240.98039215686276,322.72727272727275 254.90196078431376,322.72727272727275 268.82352941176475,322.72727272727275 C282.74509803921575,322.72727272727275 296.6666666666667,321.07438016528926 310.5882352941177,320.24793388429754 C324.5098039215686,319.4214876033058 338.4313725490196,317.7685950413223 352.35294117647055,317.7685950413223 C366.27450980392155,317.7685950413223 380.19607843137254,317.7685950413223 394.11764705882354,317.7685950413223 C408.03921568627453,317.7685950413223 421.96078431372547,320.24793388429754 435.88235294117646,320.24793388429754 C449.80392156862746,320.24793388429754 463.72549019607845,320.24793388429754 477.64705882352945,320.24793388429754 C491.56862745098044,320.24793388429754 505.49019607843144,313.6363636363636 519.4117647058824,310.3305785123967 C533.3333333333334,307.02479338842977 547.2549019607844,306.6115702479339 561.1764705882354,300.41322314049586 C575.0980392156863,294.21487603305786 589.0196078431372,282.2314049586777 602.9411764705882,273.1404958677686 L602.9411764705882,350 L60,350 Z" fill="#dfb317" fill-opacity="0.1" />
  
  
  <path d="M60,350 L60,325.20661157024796 C73.92156862745098,325.20661157024796 87.84313725490196,325.20661157024796 101.76470588235294,325.20661157024796 C115.68627450980392,325.20661157024796 129.60784313725492,325.20661157024796 143.52941176470588,325.20661157024796 C157.45098039215688,325.20661157024796 171.37254901960785,325.20661157024796 185.29411764705884,325.20661157024796 C199.2156862745098,325.20661157024796 213.1372549019608,322.72727272727275 227.05882352941177,322.72727272727275 C240.98039215686276,322.72727272727275 254.90196078431376,322.72727272727275 268.82352941176475,322.72727272727275 C282.74509803921575,322.72727272727275 296.6666666666667,321.07438016528926 310.5882352941177,320.24793388429754 C324.5098039215686,319.4214876033058 338.4313725490196,317.7685950413223 352.35294117647055,317.7685950413223 C366.27450980392155,317.7685950413223 380.19607843137254,317.7685950413223 394.11764705882354,317.7685950413223 C408.03921568627453,317.7685950413223 421.96078431372547,320.24793388429754 435.88235294117646,320.24793388429754 C449.80392156862746,320.24793388429754 463.72549019607845,320.24793388429754 477.64705882352945,320.24793388429754 C491.56862745098044,320.24793388429754 505.49019607843144,313.6363636363636 519.4117647058824,310.3305785123967 C533.3333333333334,307.02479338842977 547.2549019607844,306.6115702479339 561.1764705882354,300.41322314049586 C575.0980392156863,294.21487603305786 589.0196078431372,282.2314049586777 602.9411764705882,273.1404958677686" fill="none" stroke="#dfb317" stroke-width="2.5" class="data-line-0" />
  <path d="M602.9411764705882,273.1404958677686 C616.8627450980391,266.5289256198347 630.7843137254902,259.9173553719008 644.7058823529411,253.30578512396693 C658.6274509803922,246.69421487603304 672.5490196078431,240.0826446280992 686.4705882352941,233.4710743801653 C700.3921568627451,226.85950413223142 714.3137254901961,219.83471074380168 728.2352941176471,213.63636363636365 C742.156862745098,207.43801652892563 756.0784313725491,202.06611570247935 770,196.2809917355372" fill="none" stroke="#28a745" stroke-width="2.5" stroke-dasharray="8,4" />
  <path d="M602.9411764705882,273.1404958677686 C616.8627450980391,257.43801652892563 630.7843137254902,241.32231404958677 644.7058823529411,226.03305785123968 C658.6274509803922,210.74380165289256 672.5490196078431,196.69421487603307 686.4705882352941,181.40495867768595 C700.3921568627451,166.11570247933886 714.3137254901961,150 728.2352941176471,134.29752066115702 C742.156862745098,118.59504132231405 756.0784313725491,102.89256198347107 770,87.19008264462809" fill="none" stroke="#d73a49" stroke-width="2.5" stroke-dasharray="8,4" />
  <g class="points">
    
    <circle cx="60" cy="325.20661157024796" r="4" fill="#dfb317" class="data-point" style="animation-delay: 1.50s" />
    <circle cx="101.76470588235294" cy="325.20661157024796" r="4" fill="#dfb317" class="data-point" style="animation-delay: 1.55s" />
    <circle cx="143.52941176470588" cy="325.20661157024796" r="4" fill="#dfb317" class="data-point" style="animation-delay: 1.60s" />
    <circle cx="185.29411764705884" cy="325.20661157024796" r="4" fill="#dfb317" class="data-point" style="animation-delay: 1.65s" />
    <circle cx="227.05882352941177" cy="322.72727272727275" r="4" fill="#dfb317" class="data-point" style="animation-delay: 1.70s" />
    <circle cx="268.82352941176475" cy="322.72727272727275" r="4" fill="#dfb317" class="data-point" style="animation-delay: 1.75s" />
    <circle cx="310.5882352941177" cy="320.24793388429754" r="4" fill="#dfb317" class="data-point" style="animation-delay: 1.80s" />
    <circle cx="352.35294117647055" cy="317.7685950413223" r="4" fill="#dfb317" class="data-point" style="animation-delay: 1.85s" />
    <circle cx="394.11764705882354" cy="317.7685950413223" r="4" fill="#dfb317" class="data-point" style="animation-delay: 1.90s" />
    <circle cx="435.88235294117646" cy="320.24793388429754" r="4" fill="#dfb317" class="data-point" style="animation-delay: 1.95s" />
    <circle cx="477.64705882352945" cy="320.24793388429754" r="4" fill="#dfb317" class="data-point" style="animation-delay: 2.00s" />
    <circle cx="519.4117647058824" cy="310.3305785123967" r="4" fill="#dfb317" class="data-point" style="animation-delay: 2.05s" />
    <circle cx="561.1764705882354" cy="300.41322314049586" r="4" fill="#dfb317" class="data-point" style="animation-delay: 2.10s" />
    <circle cx="602.9411764705882" cy="273.1404958677686" r="4" fill="#dfb317" class="data-point" style="animation-delay: 2.15s" />
  </g>
</svg>