<svg xmlns="http://www.w3.org/2000/svg" viewBox="0 0 800 400" width="800" height="400">
  <style>
    @keyframes drawLine {
      to { stroke-dashoffset: 0; }
    }
    @keyframes fadeInPoint {
      from { opacity: 0; }
      to { opacity: 1; }
    }
    .data-line-0 {
      stroke-dasharray: 1034;
      stroke-dashoffset: 1034;
      animation: drawLine 2s ease-out forwards;
    }
    .data-point {
      opacity: 0;
      animation: fadeInPoint 0.5s ease-out forwards;
    }
    .chart-bg { fill: #fff; }
    .chart-text { fill: #24292e; }
    .chart-muted { fill: #6a737d; }
    .chart-grid { stroke: #eee; }
    .chart-axis { stroke: #6a737d; }
    @media (prefers-color-scheme: dark) {
      .chart-bg { fill: #0d1117; }
      .chart-text { fill: #e6edf3; }
      .chart-muted { fill: #8b949e; }
      .chart-grid { stroke: #21262d; }
      .chart-axis { stroke: #8b949e; }
    }
  </style>
  <rect width="800" height="400" class="chart-bg" />
  <text x="400" y="14" text-anchor="middle" class="chart-text" font-size="16" font-weight="bold" font-family="-apple-system, BlinkMacSystemFont, 'Segoe UI', Helvetica, Arial, sans-serif">Growth Forecast</text>
  <g class="legend">
    <rect x="220" y="31" width="12" height="3" fill="#dfb317" />
    <line x1="220" y1="32.5" x2="232" y2="32.5" stroke="#dfb317" stroke-width="2" />
    <text x="236" y="36" class="chart-text" font-size="10" font-family="-apple-system, BlinkMacSystemFont, 'Segoe UI', Helvetica, Arial, sans-serif">Star History</text>
    <rect x="340" y="31" width="12" height="3" fill="#28a745" rx="1" />
    <line x1="340" y1="32.5" x2="352" y2="32.5" stroke="#28a745" stroke-width="2" stroke-dasharray="4,2" />
    <text x="356" y="36" class="chart-text" font-size="10" font-family="-apple-system, BlinkMacSystemFont, 'Segoe UI', Helvetica, Arial, sans-serif">Linear Regression</text>
    <rect x="460" y="31" width="12" height="3" fill="#d73a49" rx="1" />
    <line x1="460" y1="32.5" x2="472" y2="32.5" stroke="#d73a49" stroke-width="2" stroke-dasharray="4,2" />
    <text x="476" y="36" class="chart-text" font-size="10" font-family="-apple-system, BlinkMacSystemFont, 'Segoe UI', Helvetica, Arial, sans-serif">Weighted Moving Average</text>
  </g>
  <g class="grid">
    <line x1="60" y1="350" x2="770" y2="350" class="chart-grid" stroke-opacity="0.3" />
    <text x="52" y="354" text-anchor="end" class="chart-muted" font-size="11" font-family="-apple-system, BlinkMacSystemFont, 'Segoe UI', Helvetica, Arial, sans-serif">0</text>
    <line x1="60" y1="300" x2="770" y2="300" class="chart-grid" stroke-opacity="0.3" />
    <text x="52" y="304" text-anchor="end" class="chart-muted" font-size="11" font-family="-apple-system, BlinkMacSystemFont, 'Segoe UI', Helvetica, Arial, sans-serif">500</text>
    <line x1="60" y1="250" x2="770" y2="250" class="chart-grid" stroke-opacity="0.3" />
    <text x="52" y="254" text-anchor="end" class="chart-muted" font-size="11" font-family="-apple-system, BlinkMacSystemFont, 'Segoe UI', Helvetica, Arial, sans-serif">1K</text>
    <line x1="60" y1="200" x2="770" y2="200" class="chart-grid" stroke-opacity="0.3" />
    <text x="52" y="204" text-anchor="end" class="chart-muted" font-size="11" font-family="-apple-system, BlinkMacSystemFont, 'Segoe UI', Helvetica, Arial, sans-serif">1.5K</text>
    <line x1="60" y1="150" x2="770" y2="150" class="chart-grid" stroke-opacity="0.3" />
    <text x="52" y="154" text-anchor="end" class="chart-muted" font-size="11" font-family="-apple-system, BlinkMacSystemFont, 'Segoe UI', Helvetica, Arial, sans-serif">2K</text>
    <line x1="60" y1="100" x2="770" y2="100" class="chart-grid" stroke-opacity="0.3" />
    <text x="52" y="104" text-anchor="end" class="chart-muted" font-size="11" font-family="-apple-system, BlinkMacSystemFont, 'Segoe UI', Helvetica, Arial, sans-serif">2.5K</text>
    <line x1="60" y1="50" x2="770" y2="50" class="chart-grid" stroke-opacity="0.3" />
    <text x="52" y="54" text-anchor="end" class="chart-muted" font-size="11" font-family="-apple-system, BlinkMacSystemFont, 'Segoe UI', Helvetica, Arial, sans-serif">3K</text>
  </g>
  <g class="milestones">
    
  </g>
  <g class="x-axis">
    <text x="60" y="370" text-anchor="middle" class="chart-muted" font-size="11" font-family="-apple-system, BlinkMacSystemFont, 'Segoe UI', Helvetica, Arial, sans-serif">Apr 30</text>
    <text x="146.06060606060606" y="370" text-anchor="middle" class="chart-muted" font-size="11" font-family="-apple-system, BlinkMacSystemFont, 'Segoe UI', Helvetica, Arial, sans-serif">Aug 8</text>
    <text x="232.12121212121212" y="370" text-anchor="middle" class="chart-muted" font-size="11" font-family="-apple-system, BlinkMacSystemFont, 'Segoe UI', Helvetica, Arial, sans-serif">Nov 16</text>
    <text x="318.1818181818182" y="370" text-anchor="middle" class="chart-muted" font-size="11" font-family="-apple-system, BlinkMacSystemFont, 'Segoe UI', Helvetica, Arial, sans-serif">Feb 23</text>
    <text x="404.24242424242425" y="370" text-anchor="middle" class="chart-muted" font-size="11" font-family="-apple-system, BlinkMacSystemFont, 'Segoe UI', Helvetica, Arial, sans-serif">Jun 3</text>
    <text x="490.3030303030303" y="370" text-anchor="middle" class="chart-muted" font-size="11" font-family="-apple-system, BlinkMacSystemFont, 'Segoe UI', Helvetica, Arial, sans-serif">Sep 11</text>
    <text x="576.3636363636364" y="370" text-anchor="middle" class="chart-muted" font-size="11" font-family="-apple-system, BlinkMacSystemFont, 'Segoe UI', Helvetica, Arial, sans-serif">Dec 19</text>
    <text x="662.4242424242425" y="370" text-anchor="middle" class="chart-muted" font-size="11" font-family="-apple-system, BlinkMacSystemFont, 'Segoe UI', Helvetica, Arial, sans-serif">Mar 28</text>
    <text x="748.4848484848485" y="370" text-anchor="middle" class="chart-muted" font-size="11" font-family="-apple-system, BlinkMacSystemFont, 'Segoe UI', Helvetica, Arial, sans-serif">Week 3</text>
    <text x="770" y="370" text-anchor="middle" class="chart-muted" font-size="11" font-family="-apple-system, BlinkMacSystemFont, 'Segoe UI', Helvetica, Arial, sans-serif">Week 4</text>
  </g>
  <line x1="60" y1="50" x2="60" y2="350" class="chart-axis" stroke-width="1" />
  <line x1="60" y1="350" x2="770" y2="350" class="chart-axis" stroke-width="1" />
  <path d="M60,350 L60,348.8 C67.17171717171718,346.4666666666667 74.34343434343434,343.56666666666666 81.51515151515152,341.8 C88.68686868686869,340.03333333333336 95.85858585858585,339.35 103.03030303030303,338.2 C110.20202020202021,337.04999999999995 117.37373737373737,335.95 124.54545454545455,334.9 C131.7171717171717,333.84999999999997 138.88888888888889,333.0833333333333 146.06060606060606,331.9 C153.23232323232324,330.71666666666664 160.4040404040404,329.01666666666665 167.57575757575756,327.8 C174.74747474747474,326.58333333333337 181.91919191919192,325.5 189.0909090909091,324.6 C196.26262626262627,323.70000000000005 203.43434343434345,323.06666666666666 210.60606060606062,322.4 C217.7777777777778,321.7333333333333 224.94949494949495,321.2666666666667 232.12121212121212,320.6 C239.2929292929293,319.93333333333334 246.46464646464645,319.6166666666667 253.63636363636363,318.4 C260.8080808080808,317.1833333333333 267.979797979798,314.43333333333334 275.1515151515151,313.3 C282.3232323232323,312.1666666666667 289.4949494949495,312.28333333333336 296.66666666666663,311.6 C303.83838383838383,310.9166666666667 311.010101010101,310.1166666666667 318.1818181818182,309.2 C325.35353535353534,308.2833333333333 332.52525252525254,307.6333333333333 339.6969696969697,306.1 C346.8686868686869,304.56666666666666 354.04040404040404,302.6666666666667 361.21212121212125,300 C368.3838383838384,297.3333333333333 375.55555555555554,295.48333333333335 382.7272727272727,290.1 C389.8989898989899,284.7166666666667 397.07070707070704,274.55 404.24242424242425,267.7 C411.4141414141414,260.85 418.5858585858586,254.55 425.75757575757575,249 C432.9292929292929,243.45 440.1010101010101,239.59999999999997 447.27272727272725,234.39999999999998 C454.44444444444446,229.19999999999996 461.6161616161616,222.41666666666669 468.7878787878788,217.8 C475.95959595959596,213.18333333333337 483.13131313131316,210.68333333333334 490.3030303030303,206.7 C497.47474747474746,202.71666666666664 504.64646464646466,197.91666666666669 511.8181818181818,193.9 C518.989898989899,189.88333333333335 526.1616161616162,186.3833333333333 533.3333333333333,182.6 C540.5050505050505,178.81666666666663 547.6767676767677,174.9666666666667 554.8484848484849,171.20000000000002 C562.0202020202021,167.43333333333337 569.1919191919192,163.73333333333335 576.3636363636364,160 C583.5353535353536,156.26666666666665 590.7070707070707,152.21666666666667 597.8787878787879,148.8 C605.0505050505051,145.38333333333335 612.2222222222222,142.98333333333332 619.3939393939394,139.5 C626.5656565656566,136.01666666666665 633.7373737373738,132.11666666666667 640.909090909091,127.9 C648.0808080808082,123.68333333333335 655.2525252525253,118.83333333333333 662.4242424242425,114.19999999999999 C669.5959595959596,109.56666666666668 676.7676767676768,104.80000000000001 683.9393939393939,100.10000000000002 L683.9393939393939,350 L60,350 Z" fill="#dfb317" fill-opacity="0.1" />
  
  
  <path d="M60,350 L60,348.8 C67.17171717171718,346.4666666666667 74.34343434343434,343.56666666666666 81.51515151515152,341.8 C88.68686868686869,340.03333333333336 95.85858585858585,339.35 103.03030303030303,338.2 C110.20202020202021,337.04999999999995 117.37373737373737,335.95 124.54545454545455,334.9 C131.7171717171717,333.84999999999997 138.88888888888889,333.0833333333333 146.06060606060606,331.9 C153.23232323232324,330.71666666666664 160.4040404040404,329.01666666666665 167.57575757575756,327.8 C174.74747474747474,326.58333333333337 181.91919191919192,325.5 189.0909090909091,324.6 C196.26262626262627,323.70000000000005 203.43434343434345,323.06666666666666 210.60606060606062,322.4 C217.7777777777778,321.7333333333333 224.94949494949495,321.2666666666667 232.12121212121212,320.6 C239.2929292929293,319.93333333333334 246.46464646464645,319.6166666666667 253.63636363636363,318.4 C260.8080808080808,317.1833333333333 267.979797979798,314.43333333333334 275.1515151515151,313.3 C282.3232323232323,312.1666666666667 289.4949494949495,312.28333333333336 296.66666666666663,311.6 C303.83838383838383,310.9166666666667 311.010101010101,310.1166666666667 318.1818181818182,309.2 C325.35353535353534,308.2833333333333 332.52525252525254,307.6333333333333 339.6969696969697,306.1 C346.8686868686869,304.56666666666666 354.04040404040404,302.6666666666667 361.21212121212125,300 C368.3838383838384,297.3333333333333 375.55555555555554,295.48333333333335 382.7272727272727,290.1 C389.8989898989899,284.7166666666667 397.07070707070704,274.55 404.24242424242425,267.7 C411.4141414141414,260.85 418.5858585858586,254.55 425.75757575757575,249 C432.9292929292929,243.45 440.1010101010101,239.59999999999997 447.27272727272725,234.39999999999998 C454.44444444444446,229.19999999999996 461.6161616161616,222.41666666666669 468.7878787878788,217.8 C475.95959595959596,213.18333333333337 483.13131313131316,210.68333333333334 490.3030303030303,206.7 C497.47474747474746,202.71666666666664 504.64646464646466,197.91666666666669 511.8181818181818,193.9 C518.989898989899,189.88333333333335 526.1616161616162,186.3833333333333 533.3333333333333,182.6 C540.5050505050505,178.81666666666663 547.6767676767677,174.9666666666667 554.8484848484849,171.20000000000002 C562.0202020202021,167.43333333333337 569.1919191919192,163.73333333333335 576.3636363636364,160 C583.5353535353536,156.26666666666665 590.7070707070707,152.21666666666667 597.8787878787879,148.8 C605.0505050505051,145.38333333333335 612.2222222222222,142.98333333333332 619.3939393939394,139.5 C626.5656565656566,136.01666666666665 633.7373737373738,132.11666666666667 640.909090909091,127.9 C648.0808080808082,123.68333333333335 655.2525252525253,118.83333333333333 662.4242424242425,114.19999999999999 C669.5959595959596,109.56666666666668 676.7676767676768,104.80000000000001 683.9393939393939,100.10000000000002" fill="none" stroke="#dfb317" stroke-width="2.5" class="data-line-0" />
  <path d="M683.9393939393939,100.10000000000002 C691.1111111111111,99.93333333333335 698.2828282828282,99.78333333333333 705.4545454545454,99.6 C712.6262626262626,99.41666666666666 719.7979797979798,99.18333333333334 726.969696969697,99 C734.1414141414142,98.81666666666666 741.3131313131313,98.66666666666667 748.4848484848485,98.5 C755.6565656565657,98.33333333333333 762.8282828282828,98.16666666666667 770,98" fill="none" stroke="#28a745" stroke-width="2.5" stroke-dasharray="8,4" />
  <path d="M683.9393939393939,100.10000000000002 C691.1111111111111,99.90000000000002 698.2828282828282,99.71666666666667 705.4545454545454,99.5 C712.6262626262626,99.28333333333333 719.7979797979798,99.01666666666665 726.969696969697,98.79999999999998 C734.1414141414142,98.58333333333331 741.3131313131313,98.41666666666666 748.4848484848485,98.19999999999999 C755.6565656565657,97.98333333333332 762.8282828282828,97.73333333333333 770,97.5" fill="none" stroke="#d73a49" stroke-width="2.5" stroke-dasharray="8,4" />
  <g class="points">
    
    <circle cx="60" cy="348.8" r="4" fill="#dfb317" class="data-point" style="animation-delay: 1.50s" />
    <circle cx="81.51515151515152" cy="341.8" r="4" fill="#dfb317" class="data-point" style="animation-delay: 1.55s" />
    <circle cx="103.03030303030303" cy="338.2" r="4" fill="#dfb317" class="data-point" style="animation-delay: 1.60s" />
    <circle cx="124.54545454545455" cy="334.9" r="4" fill="#dfb317" class="data-point" style="animation-delay: 1.65s" />
    <circle cx="146.06060606060606" cy="331.9" r="4" fill="#dfb317" class="data-point" style="animation-delay: 1.70s" />
    <circle cx="167.57575757575756" cy="327.8" r="4" fill="#dfb317" class="data-point" style="animation-delay: 1.75s" />
    <circle cx="189.0909090909091" cy="324.6" r="4" fill="#dfb317" class="data-point" style="animation-delay: 1.80s" />
    <circle cx="210.60606060606062" cy="322.4" r="4" fill="#dfb317" class="data-point" style="animation-delay: 1.85s" />
    <circle cx="232.12121212121212" cy="320.6" r="4" fill="#dfb317" class="data-point" style="animation-delay: 1.90s" />
    <circle cx="253.63636363636363" cy="318.4" r="4" fill="#dfb317" class="data-point" style="animation-delay: 1.95s" />
    <circle cx="275.1515151515151" cy="313.3" r="4" fill="#dfb317" class="data-point" style="animation-delay: 2.00s" />
    <circle cx="296.66666666666663" cy="311.6" r="4" fill="#dfb317" class="data-point" style="animation-delay: 2.05s" />
    <circle cx="318.1818181818182" cy="309.2" r="4" fill="#dfb317" class="data-point" style="animation-delay: 2.10s" />
    <circle cx="339.6969696969697" cy="306.1" r="4" fill="#dfb317" class="data-point" style="animation-delay: 2.15s" />
    <circle cx="361.21212121212125" cy="300" r="4" fill="#dfb317" class="data-point" style="animation-delay: 2.20s" />
    <circle cx="382.7272727272727" cy="290.1" r="4" fill="#dfb317" class="data-point" style="animation-delay: 2.25s" />
    <circle cx="404.24242424242425" cy="267.7" r="4" fill="#dfb317" class="data-point" style="animation-delay: 2.30s" />
    <circle cx="425.75757575757575" cy="249" r="4" fill="#dfb317" class="data-point" style="animation-delay: 2.35s" />
    <circle cx="447.27272727272725" cy="234.39999999999998" r="4" fill="#dfb317" class="data-point" style="animation-delay: 2.40s" />
    <circle cx="468.7878787878788" cy="217.8" r="4" fill="#dfb317" class="data-point" style="animation-delay: 2.45s" />
    <circle cx="490.3030303030303" cy="206.7" r="4" fill="#dfb317" class="data-point" style="animation-delay: 2.50s" />
    <circle cx="511.8181818181818" cy="193.9" r="4" fill="#dfb317" class="data-point" style="animation-delay: 2.55s" />
    <circle cx="533.3333333333333" cy="182.6" r="4" fill="#dfb317" class="data-point" style="animation-delay: 2.60s" />
    <circle cx="554.8484848484849" cy="171.20000000000002" r="4" fill="#dfb317" class="data-point" style="animation-delay: 2.65s" />
    <circle cx="576.3636363636364" cy="160" r="4" fill="#dfb317" class="data-point" style="animation-delay: 2.70s" />
    <circle cx="597.8787878787879" cy="148.8" r="4" fill="#dfb317" class="data-point" style="animation-delay: 2.75s" />
    <circle cx="619.3939393939394" cy="139.5" r="4" fill="#dfb317" class="data-point" style="animation-delay: 2.80s" />
    <circle cx="640.909090909091" cy="127.9" r="4" fill="#dfb317" class="data-point" style="animation-delay: 2.85s" />
    <circle cx="662.4242424242425" cy="114.19999999999999" r="4" fill="#dfb317" class="data-point" style="animation-delay: 2.90s" />
    <circle cx="683.9393939393939" cy="100.10000000000002" r="4" fill="#dfb317" class="data-point" style="animation-delay: 2.95s" />
  </g>
</svg>