<svg xmlns="http://www.w3.org/2000/svg" viewBox="0 0 800 400" width="800" height="400">
  <style>
    @keyframes drawLine {
      to { stroke-dashoffset: 0; }
    }
    @keyframes fadeInPoint {
      from { opacity: 0; }
      to { opacity: 1; }
    }
    .data-line-0 {
      stroke-dasharray: 1167;
      stroke-dashoffset: 1167;
      animation: drawLine 2s ease-out forwards;
    }
    .data-point {
      opacity: 0;
      animation: fadeInPoint 0.5s ease-out forwards;
    }
    .chart-bg { fill: #fff; }
    .chart-text { fill: #24292e; }
    .chart-muted { fill: #6a737d; }
    .chart-grid { stroke: #eee; }
    .chart-axis { stroke: #6a737d; }
    @media (prefers-color-scheme: dark) {
      .chart-bg { fill: #0d1117; }
      .chart-text { fill: #e6edf3; }
      .chart-muted { fill: #8b949e; }
      .chart-grid { stroke: #21262d; }
      .chart-axis { stroke: #8b949e; }
    }
  </style>
  <rect width="800" height="400" class="chart-bg" />
  <text x="400" y="14" text-anchor="middle" class="chart-text" font-size="16" font-weight="bold" font-family="-apple-system, BlinkMacSystemFont, 'Segoe UI', Helvetica, Arial, sans-serif">SteamGridDB/steam-rom-manager Star History</text>
  
  <g class="grid">
    <line x1="60" y1="350" x2="770" y2="350" class="chart-grid" stroke-opacity="0.3" />
    <text x="52" y="354" text-anchor="end" class="chart-muted" font-size="11" font-family="-apple-system, BlinkMacSystemFont, 'Segoe UI', Helvetica, Arial, sans-serif">0</text>
    <line x1="60" y1="295.1954694921447" x2="770" y2="295.1954694921447" class="chart-grid" stroke-opacity="0.3" />
    <text x="52" y="299.1954694921447" text-anchor="end" class="chart-muted" font-size="11" font-family="-apple-system, BlinkMacSystemFont, 'Segoe UI', Helvetica, Arial, sans-serif">500</text>
    <line x1="60" y1="240.3909389842894" x2="770" y2="240.3909389842894" class="chart-grid" stroke-opacity="0.3" />
    <text x="52" y="244.3909389842894" text-anchor="end" class="chart-muted" font-size="11" font-family="-apple-system, BlinkMacSystemFont, 'Segoe UI', Helvetica, Arial, sans-serif">1K</text>
    <line x1="60" y1="185.58640847643403" x2="770" y2="185.58640847643403" class="chart-grid" stroke-opacity="0.3" />
    <text x="52" y="189.58640847643403" text-anchor="end" class="chart-muted" font-size="11" font-family="-apple-system, BlinkMacSystemFont, 'Segoe UI', Helvetica, Arial, sans-serif">1.5K</text>
    <line x1="60" y1="130.78187796857875" x2="770" y2="130.78187796857875" class="chart-grid" stroke-opacity="0.3" />
    <text x="52" y="134.78187796857875" text-anchor="end" class="chart-muted" font-size="11" font-family="-apple-system, BlinkMacSystemFont, 'Segoe UI', Helvetica, Arial, sans-serif">2K</text>
    <line x1="60" y1="75.97734746072342" x2="770" y2="75.97734746072342" class="chart-grid" stroke-opacity="0.3" />
    <text x="52" y="79.97734746072342" text-anchor="end" class="chart-muted" font-size="11" font-family="-apple-system, BlinkMacSystemFont, 'Segoe UI', Helvetica, Arial, sans-serif">2.5K</text>
  </g>
  <g class="milestones">
    
  </g>
  <g class="x-axis">
    <text x="60" y="370" text-anchor="middle" class="chart-muted" font-size="11" font-family="-apple-system, BlinkMacSystemFont, 'Segoe UI', Helvetica, Arial, sans-serif">2017</text>
    <text x="133.44827586206895" y="370" text-anchor="middle" class="chart-muted" font-size="11" font-family="-apple-system, BlinkMacSystemFont, 'Segoe UI', Helvetica, Arial, sans-serif">2018</text>
    <text x="206.89655172413794" y="370" text-anchor="middle" class="chart-muted" font-size="11" font-family="-apple-system, BlinkMacSystemFont, 'Segoe UI', Helvetica, Arial, sans-serif">2019</text>
    <text x="280.34482758620686" y="370" text-anchor="middle" class="chart-muted" font-size="11" font-family="-apple-system, BlinkMacSystemFont, 'Segoe UI', Helvetica, Arial, sans-serif">2020</text>
    <text x="353.7931034482759" y="370" text-anchor="middle" class="chart-muted" font-size="11" font-family="-apple-system, BlinkMacSystemFont, 'Segoe UI', Helvetica, Arial, sans-serif">2021</text>
    <text x="427.2413793103448" y="370" text-anchor="middle" class="chart-muted" font-size="11" font-family="-apple-system, BlinkMacSystemFont, 'Segoe UI', Helvetica, Arial, sans-serif">2022</text>
    <text x="500.6896551724138" y="370" text-anchor="middle" class="chart-muted" font-size="11" font-family="-apple-system, BlinkMacSystemFont, 'Segoe UI', Helvetica, Arial, sans-serif">2023</text>
    <text x="574.1379310344828" y="370" text-anchor="middle" class="chart-muted" font-size="11" font-family="-apple-system, BlinkMacSystemFont, 'Segoe UI', Helvetica, Arial, sans-serif">2024</text>
    <text x="672.0689655172414" y="370" text-anchor="middle" class="chart-muted" font-size="11" font-family="-apple-system, BlinkMacSystemFont, 'Segoe UI', Helvetica, Arial, sans-serif">2025</text>
    <text x="745.5172413793103" y="370" text-anchor="middle" class="chart-muted" font-size="11" font-family="-apple-system, BlinkMacSystemFont, 'Segoe UI', Helvetica, Arial, sans-serif">2026</text>
  </g>
  <line x1="60" y1="50" x2="60" y2="350" class="chart-axis" stroke-width="1" />
  <line x1="60" y1="350" x2="770" y2="350" class="chart-axis" stroke-width="1" />
  <path d="M60,350 L60,349.8903909389843 C68.16091954022988,347.332846181951 76.32183908045977,344.15418341249546 84.48275862068965,342.21775666788454 C92.64367816091954,340.28132992327363 100.80459770114942,339.5323346729996 108.9655172413793,338.27183047131894 C117.12643678160919,337.0113262696383 125.28735632183907,335.80562659846544 133.44827586206895,334.6547314578005 C141.60919540229884,333.50383631713555 149.77011494252872,332.66350018268173 157.9310344827586,331.36645962732916 C166.0919540229885,330.0694190719766 174.2528735632184,328.2060650347095 182.41379310344828,326.87248812568504 C190.57471264367817,325.53891121666055 198.73563218390805,324.3514797223237 206.89655172413794,323.3649981731823 C215.05747126436782,322.3785166240409 223.2183908045977,321.6843259042747 231.3793103448276,320.95359883083665 C239.54022988505747,320.2228717573986 247.70114942528735,319.71136280599194 255.86206896551724,318.9806357325539 C264.0229885057471,318.2499086591158 272.183908045977,317.9028132992328 280.34482758620686,316.5692363902083 C288.50574712643675,315.2356594811838 296.6666666666667,312.22141030325173 304.82758620689657,310.979174278407 C312.98850574712645,309.7369382535623 321.14942528735634,309.864815491414 329.3103448275862,309.11582024113994 C337.4712643678161,308.3668249908659 345.632183908046,307.48995250274027 353.7931034482759,306.4852027767629 C361.95402298850576,305.4804530507855 370.11494252873564,304.76799415418344 378.2758620689655,303.08732188527586 C386.4367816091954,301.40664961636827 394.5977011494253,299.3240774570698 402.7586206896552,296.4011691633175 C410.91954022988506,293.4782608695652 419.08045977011494,291.45049324077456 427.2413793103448,285.54987212276217 C435.4022988505747,279.6492510047498 443.5632183908046,268.50566313481914 451.7241379310345,260.99744245524295 C459.88505747126436,253.48922177566675 468.04597701149424,246.583850931677 476.2068965517241,240.50054804530507 C484.367816091954,234.41724515893313 492.5287356321839,230.19729630982826 500.6896551724138,224.4976251370113 C508.85057471264366,218.79795396419436 517.0114942528736,211.36280599196198 525.1724137931035,206.30252100840335 C533.3333333333334,201.24223602484471 541.4942528735633,198.50200949945193 549.6551724137931,194.13591523565947 C557.816091954023,189.769820971867 565.9770114942529,184.5085860431129 574.1379310344828,180.10595542564852 C582.2988505747127,175.70332480818414 590.4597701149426,171.8670076726343 598.6206896551724,167.72013153087323 C606.7816091954023,163.57325538911218 614.9425287356322,159.3533065400073 623.1034482758621,155.22469857508221 C631.264367816092,151.09609061015712 639.4252873563219,147.0405553525758 647.5862068965517,142.9484837413226 C655.7471264367816,138.8564121300694 663.9080459770115,134.41724515893316 672.0689655172414,130.67226890756305 C680.2298850574713,126.92729265619293 688.3908045977012,124.29667519181584 696.551724137931,120.47862623310192 C704.7126436781609,116.660577274388 712.8735632183908,112.38582389477533 721.0344827586207,107.76397515527952 C729.1954022988506,103.14212641578372 737.3563218390805,97.82608695652173 745.5172413793103,92.74753379612713 C753.6781609195402,87.66898063573252 761.8390804597701,82.44428206065032 770,77.29265619291192 L770,350 L60,350 Z" fill="#dfb317" fill-opacity="0.1" />
  <path d="M60,350 L60,349.8903909389843 C68.16091954022988,347.332846181951 76.32183908045977,344.15418341249546 84.48275862068965,342.21775666788454 C92.64367816091954,340.28132992327363 100.80459770114942,339.5323346729996 108.9655172413793,338.27183047131894 C117.12643678160919,337.0113262696383 125.28735632183907,335.80562659846544 133.44827586206895,334.6547314578005 C141.60919540229884,333.50383631713555 149.77011494252872,332.66350018268173 157.9310344827586,331.36645962732916 C166.0919540229885,330.0694190719766 174.2528735632184,328.2060650347095 182.41379310344828,326.87248812568504 C190.57471264367817,325.53891121666055 198.73563218390805,324.3514797223237 206.89655172413794,323.3649981731823 C215.05747126436782,322.3785166240409 223.2183908045977,321.6843259042747 231.3793103448276,320.95359883083665 C239.54022988505747,320.2228717573986 247.70114942528735,319.71136280599194 255.86206896551724,318.9806357325539 C264.0229885057471,318.2499086591158 272.183908045977,317.9028132992328 280.34482758620686,316.5692363902083 C288.50574712643675,315.2356594811838 296.6666666666667,312.22141030325173 304.82758620689657,310.979174278407 C312.98850574712645,309.7369382535623 321.14942528735634,309.864815491414 329.3103448275862,309.11582024113994 C337.4712643678161,308.3668249908659 345.632183908046,307.48995250274027 353.7931034482759,306.4852027767629 C361.95402298850576,305.4804530507855 370.11494252873564,304.76799415418344 378.2758620689655,303.08732188527586 C386.4367816091954,301.40664961636827 394.5977011494253,299.3240774570698 402.7586206896552,296.4011691633175 C410.91954022988506,293.4782608695652 419.08045977011494,291.45049324077456 427.2413793103448,285.54987212276217 C435.4022988505747,279.6492510047498 443.5632183908046,268.50566313481914 451.7241379310345,260.99744245524295 C459.88505747126436,253.48922177566675 468.04597701149424,246.583850931677 476.2068965517241,240.50054804530507 C484.367816091954,234.41724515893313 492.5287356321839,230.19729630982826 500.6896551724138,224.4976251370113 C508.85057471264366,218.79795396419436 517.0114942528736,211.36280599196198 525.1724137931035,206.30252100840335 C533.3333333333334,201.24223602484471 541.4942528735633,198.50200949945193 549.6551724137931,194.13591523565947 C557.816091954023,189.769820971867 565.9770114942529,184.5085860431129 574.1379310344828,180.10595542564852 C582.2988505747127,175.70332480818414 590.4597701149426,171.8670076726343 598.6206896551724,167.72013153087323 C606.7816091954023,163.57325538911218 614.9425287356322,159.3533065400073 623.1034482758621,155.22469857508221 C631.264367816092,151.09609061015712 639.4252873563219,147.0405553525758 647.5862068965517,142.9484837413226 C655.7471264367816,138.8564121300694 663.9080459770115,134.41724515893316 672.0689655172414,130.67226890756305 C680.2298850574713,126.92729265619293 688.3908045977012,124.29667519181584 696.551724137931,120.47862623310192 C704.7126436781609,116.660577274388 712.8735632183908,112.38582389477533 721.0344827586207,107.76397515527952 C729.1954022988506,103.14212641578372 737.3563218390805,97.82608695652173 745.5172413793103,92.74753379612713 C753.6781609195402,87.66898063573252 761.8390804597701,82.44428206065032 770,77.29265619291192" fill="none" stroke="#dfb317" stroke-width="2.5" class="data-line-0" />
  <g class="points">
    
    <circle cx="60" cy="349.8903909389843" r="4" fill="#dfb317" class="data-point" style="animation-delay: 1.50s" />
    <circle cx="84.48275862068965" cy="342.21775666788454" r="4" fill="#dfb317" class="data-point" style="animation-delay: 1.55s" />
    <circle cx="108.9655172413793" cy="338.27183047131894" r="4" fill="#dfb317" class="data-point" style="animation-delay: 1.60s" />
    <circle cx="133.44827586206895" cy="334.6547314578005" r="4" fill="#dfb317" class="data-point" style="animation-delay: 1.65s" />
    <circle cx="157.9310344827586" cy="331.36645962732916" r="4" fill="#dfb317" class="data-point" style="animation-delay: 1.70s" />
    <circle cx="182.41379310344828" cy="326.87248812568504" r="4" fill="#dfb317" class="data-point" style="animation-delay: 1.75s" />
    <circle cx="206.89655172413794" cy="323.3649981731823" r="4" fill="#dfb317" class="data-point" style="animation-delay: 1.80s" />
    <circle cx="231.3793103448276" cy="320.95359883083665" r="4" fill="#dfb317" class="data-point" style="animation-delay: 1.85s" />
    <circle cx="255.86206896551724" cy="318.9806357325539" r="4" fill="#dfb317" class="data-point" style="animation-delay: 1.90s" />
    <circle cx="280.34482758620686" cy="316.5692363902083" r="4" fill="#dfb317" class="data-point" style="animation-delay: 1.95s" />
    <circle cx="304.82758620689657" cy="310.979174278407" r="4" fill="#dfb317" class="data-point" style="animation-delay: 2.00s" />
    <circle cx="329.3103448275862" cy="309.11582024113994" r="4" fill="#dfb317" class="data-point" style="animation-delay: 2.05s" />
    <circle cx="353.7931034482759" cy="306.4852027767629" r="4" fill="#dfb317" class="data-point" style="animation-delay: 2.10s" />
    <circle cx="378.2758620689655" cy="303.08732188527586" r="4" fill="#dfb317" class="data-point" style="animation-delay: 2.15s" />
    <circle cx="402.7586206896552" cy="296.4011691633175" r="4" fill="#dfb317" class="data-point" style="animation-delay: 2.20s" />
    <circle cx="427.2413793103448" cy="285.54987212276217" r="4" fill="#dfb317" class="data-point" style="animation-delay: 2.25s" />
    <circle cx="451.7241379310345" cy="260.99744245524295" r="4" fill="#dfb317" class="data-point" style="animation-delay: 2.30s" />
    <circle cx="476.2068965517241" cy="240.50054804530507" r="4" fill="#dfb317" class="data-point" style="animation-delay: 2.35s" />
    <circle cx="500.6896551724138" cy="224.4976251370113" r="4" fill="#dfb317" class="data-point" style="animation-delay: 2.40s" />
    <circle cx="525.1724137931035" cy="206.30252100840335" r="4" fill="#dfb317" class="data-point" style="animation-delay: 2.45s" />
    <circle cx="549.6551724137931" cy="194.13591523565947" r="4" fill="#dfb317" class="data-point" style="animation-delay: 2.50s" />
    <circle cx="574.1379310344828" cy="180.10595542564852" r="4" fill="#dfb317" class="data-point" style="animation-delay: 2.55s" />
    <circle cx="598.6206896551724" cy="167.72013153087323" r="4" fill="#dfb317" class="data-point" style="animation-delay: 2.60s" />
    <circle cx="623.1034482758621" cy="155.22469857508221" r="4" fill="#dfb317" class="data-point" style="animation-delay: 2.65s" />
    <circle cx="647.5862068965517" cy="142.9484837413226" r="4" fill="#dfb317" class="data-point" style="animation-delay: 2.70s" />
    <circle cx="672.0689655172414" cy="130.67226890756305" r="4" fill="#dfb317" class="data-point" style="animation-delay: 2.75s" />
    <circle cx="696.551724137931" cy="120.47862623310192" r="4" fill="#dfb317" class="data-point" style="animation-delay: 2.80s" />
    <circle cx="721.0344827586207" cy="107.76397515527952" r="4" fill="#dfb317" class="data-point" style="animation-delay: 2.85s" />
    <circle cx="745.5172413793103" cy="92.74753379612713" r="4" fill="#dfb317" class="data-point" style="animation-delay: 2.90s" />
    <circle cx="770" cy="77.29265619291192" r="4" fill="#dfb317" class="data-point" style="animation-delay: 2.95s" />
  </g>
</svg>