<svg xmlns="http://www.w3.org/2000/svg" viewBox="0 0 800 400" width="800" height="400">
  <style>
    @keyframes drawLine {
      to { stroke-dashoffset: 0; }
    }
    @keyframes fadeInPoint {
      from { opacity: 0; }
      to { opacity: 1; }
    }
    .data-line-0 {
      stroke-dasharray: 1167;
      stroke-dashoffset: 1167;
      animation: drawLine 2s ease-out forwards;
    }
    .data-point {
      opacity: 0;
      animation: fadeInPoint 0.5s ease-out forwards;
    }
    .chart-bg { fill: #fff; }
    .chart-text { fill: #24292e; }
    .chart-muted { fill: #6a737d; }
    .chart-grid { stroke: #eee; }
    .chart-axis { stroke: #6a737d; }
    @media (prefers-color-scheme: dark) {
      .chart-bg { fill: #0d1117; }
      .chart-text { fill: #e6edf3; }
      .chart-muted { fill: #8b949e; }
      .chart-grid { stroke: #21262d; }
      .chart-axis { stroke: #8b949e; }
    }
  </style>
  <rect width="800" height="400" class="chart-bg" />
  <text x="400" y="14" text-anchor="middle" class="chart-text" font-size="16" font-weight="bold" font-family="-apple-system, BlinkMacSystemFont, 'Segoe UI', Helvetica, Arial, sans-serif">SteamGridDB/steam-rom-manager Star History</text>
  
  <g class="grid">
    <line x1="60" y1="350" x2="770" y2="350" class="chart-grid" stroke-opacity="0.3" />
    <text x="52" y="354" text-anchor="end" class="chart-muted" font-size="11" font-family="-apple-system, BlinkMacSystemFont, 'Segoe UI', Helvetica, Arial, sans-serif">0</text>
    <line x1="60" y1="294.994499449945" x2="770" y2="294.994499449945" class="chart-grid" stroke-opacity="0.3" />
    <text x="52" y="298.994499449945" text-anchor="end" class="chart-muted" font-size="11" font-family="-apple-system, BlinkMacSystemFont, 'Segoe UI', Helvetica, Arial, sans-serif">500</text>
    <line x1="60" y1="239.98899889988996" x2="770" y2="239.98899889988996" class="chart-grid" stroke-opacity="0.3" />
    <text x="52" y="243.98899889988996" text-anchor="end" class="chart-muted" font-size="11" font-family="-apple-system, BlinkMacSystemFont, 'Segoe UI', Helvetica, Arial, sans-serif">1K</text>
    <line x1="60" y1="184.98349834983497" x2="770" y2="184.98349834983497" class="chart-grid" stroke-opacity="0.3" />
    <text x="52" y="188.98349834983497" text-anchor="end" class="chart-muted" font-size="11" font-family="-apple-system, BlinkMacSystemFont, 'Segoe UI', Helvetica, Arial, sans-serif">1.5K</text>
    <line x1="60" y1="129.97799779977996" x2="770" y2="129.97799779977996" class="chart-grid" stroke-opacity="0.3" />
    <text x="52" y="133.97799779977996" text-anchor="end" class="chart-muted" font-size="11" font-family="-apple-system, BlinkMacSystemFont, 'Segoe UI', Helvetica, Arial, sans-serif">2K</text>
    <line x1="60" y1="74.97249724972494" x2="770" y2="74.97249724972494" class="chart-grid" stroke-opacity="0.3" />
    <text x="52" y="78.97249724972494" text-anchor="end" class="chart-muted" font-size="11" font-family="-apple-system, BlinkMacSystemFont, 'Segoe UI', Helvetica, Arial, sans-serif">2.5K</text>
  </g>
  <g class="milestones">
    
  </g>
  <g class="x-axis">
    <text x="60" y="370" text-anchor="middle" class="chart-muted" font-size="11" font-family="-apple-system, BlinkMacSystemFont, 'Segoe UI', Helvetica, Arial, sans-serif">2017</text>
    <text x="133.44827586206895" y="370" text-anchor="middle" class="chart-muted" font-size="11" font-family="-apple-system, BlinkMacSystemFont, 'Segoe UI', Helvetica, Arial, sans-serif">2018</text>
    <text x="206.89655172413794" y="370" text-anchor="middle" class="chart-muted" font-size="11" font-family="-apple-system, BlinkMacSystemFont, 'Segoe UI', Helvetica, Arial, sans-serif">2019</text>
    <text x="280.34482758620686" y="370" text-anchor="middle" class="chart-muted" font-size="11" font-family="-apple-system, BlinkMacSystemFont, 'Segoe UI', Helvetica, Arial, sans-serif">2020</text>
    <text x="353.7931034482759" y="370" text-anchor="middle" class="chart-muted" font-size="11" font-family="-apple-system, BlinkMacSystemFont, 'Segoe UI', Helvetica, Arial, sans-serif">2021</text>
    <text x="427.2413793103448" y="370" text-anchor="middle" class="chart-muted" font-size="11" font-family="-apple-system, BlinkMacSystemFont, 'Segoe UI', Helvetica, Arial, sans-serif">2022</text>
    <text x="500.6896551724138" y="370" text-anchor="middle" class="chart-muted" font-size="11" font-family="-apple-system, BlinkMacSystemFont, 'Segoe UI', Helvetica, Arial, sans-serif">2023</text>
    <text x="598.6206896551724" y="370" text-anchor="middle" class="chart-muted" font-size="11" font-family="-apple-system, BlinkMacSystemFont, 'Segoe UI', Helvetica, Arial, sans-serif">2024</text>
    <text x="672.0689655172414" y="370" text-anchor="middle" class="chart-muted" font-size="11" font-family="-apple-system, BlinkMacSystemFont, 'Segoe UI', Helvetica, Arial, sans-serif">2025</text>
    <text x="745.5172413793103" y="370" text-anchor="middle" class="chart-muted" font-size="11" font-family="-apple-system, BlinkMacSystemFont, 'Segoe UI', Helvetica, Arial, sans-serif">2026</text>
  </g>
  <line x1="60" y1="50" x2="60" y2="350" class="chart-axis" stroke-width="1" />
  <line x1="60" y1="350" x2="770" y2="350" class="chart-axis" stroke-width="1" />
  <path d="M60,350 L60,349.88998899889987 C68.16091954022988,347.3230656398973 76.32183908045977,344.13274660799414 84.48275862068965,342.1892189218922 C92.64367816091954,340.2456912357902 100.80459770114942,339.4939493949395 108.9655172413793,338.2288228822882 C117.12643678160919,336.963696369637 125.28735632183907,335.7535753575358 133.44827586206895,334.5984598459846 C141.60919540229884,333.44334433443345 149.77011494252872,332.5999266593326 157.9310344827586,331.2981298129813 C166.0919540229885,329.99633296663 174.2528735632184,328.12614594792814 182.41379310344828,326.7876787678768 C190.57471264367817,325.44921158782546 198.73563218390805,324.2390905757242 206.89655172413794,323.26732673267327 C215.05747126436782,322.2955628896223 223.2183908045977,321.65383204987165 231.3793103448276,320.957095709571 C239.54022988505747,320.2603593692703 247.70114942528735,319.8019801980198 255.86206896551724,319.0869086908691 C264.0229885057471,318.3718371837184 272.183908045977,318.02346901356805 280.34482758620686,316.6666666666667 C288.50574712643675,315.3098643197653 296.6666666666667,312.2295562889622 304.82758620689657,310.94609460946094 C312.98850574712645,309.66263292995967 321.14942528735634,309.73597359735976 329.3103448275862,308.965896589659 C337.4712643678161,308.19581958195823 345.632183908046,307.3157315731573 353.7931034482759,306.3256325632563 C361.95402298850576,305.33553355335533 370.11494252873564,304.71213788045475 378.2758620689655,303.02530253025304 C386.4367816091954,301.33846718005134 394.5977011494253,299.15658232489915 402.7586206896552,296.2046204620462 C410.91954022988506,293.25265859919324 419.08045977011494,291.08910891089107 427.2413793103448,285.3135313531353 C435.4022988505747,279.53795379537956 443.5632183908046,269.03190319031904 451.7241379310345,261.55115511551156 C459.88505747126436,254.07040704070408 468.04597701149424,246.60799413274663 476.2068965517241,240.42904290429044 C484.367816091954,234.25009167583426 492.5287356321839,230.10634396773008 500.6896551724138,224.47744774477445 C508.85057471264366,218.84855152181882 517.0114942528736,211.73450678401173 525.1724137931035,206.65566556655665 C533.3333333333334,201.57682434910157 541.4942528735633,198.4048404840484 549.6551724137931,194.004400440044 C557.816091954023,189.6039603960396 565.9770114942529,184.59845984598462 574.1379310344828,180.25302530253026 C582.2988505747127,175.9075907590759 590.4597701149426,172.14888155482214 598.6206896551724,167.93179317931794 C606.7816091954023,163.71470480381373 614.9425287356322,159.13091309130914 623.1034482758621,154.95049504950495 C631.264367816092,150.77007700770076 639.4252873563219,146.93802713604697 647.5862068965517,142.84928492849286 C655.7471264367816,138.76054272093876 663.9080459770115,134.2134213421342 672.0689655172414,130.4180418041804 C680.2298850574713,126.62266226622661 688.3908045977012,123.78071140447379 696.551724137931,120.07700770077008 C704.7126436781609,116.37330399706637 712.8735632183908,112.8162816281628 721.0344827586207,108.19581958195818 C729.1954022988506,103.57535753575355 737.3563218390805,97.50641730839753 745.5172413793103,92.35423542354238 C753.6781609195402,87.20205353868722 761.8390804597701,82.30656398973231 770,77.28272827282728 L770,350 L60,350 Z" fill="#dfb317" fill-opacity="0.1" />
  <path d="M60,350 L60,349.88998899889987 C68.16091954022988,347.3230656398973 76.32183908045977,344.13274660799414 84.48275862068965,342.1892189218922 C92.64367816091954,340.2456912357902 100.80459770114942,339.4939493949395 108.9655172413793,338.2288228822882 C117.12643678160919,336.963696369637 125.28735632183907,335.7535753575358 133.44827586206895,334.5984598459846 C141.60919540229884,333.44334433443345 149.77011494252872,332.5999266593326 157.9310344827586,331.2981298129813 C166.0919540229885,329.99633296663 174.2528735632184,328.12614594792814 182.41379310344828,326.7876787678768 C190.57471264367817,325.44921158782546 198.73563218390805,324.2390905757242 206.89655172413794,323.26732673267327 C215.05747126436782,322.2955628896223 223.2183908045977,321.65383204987165 231.3793103448276,320.957095709571 C239.54022988505747,320.2603593692703 247.70114942528735,319.8019801980198 255.86206896551724,319.0869086908691 C264.0229885057471,318.3718371837184 272.183908045977,318.02346901356805 280.34482758620686,316.6666666666667 C288.50574712643675,315.3098643197653 296.6666666666667,312.2295562889622 304.82758620689657,310.94609460946094 C312.98850574712645,309.66263292995967 321.14942528735634,309.73597359735976 329.3103448275862,308.965896589659 C337.4712643678161,308.19581958195823 345.632183908046,307.3157315731573 353.7931034482759,306.3256325632563 C361.95402298850576,305.33553355335533 370.11494252873564,304.71213788045475 378.2758620689655,303.02530253025304 C386.4367816091954,301.33846718005134 394.5977011494253,299.15658232489915 402.7586206896552,296.2046204620462 C410.91954022988506,293.25265859919324 419.08045977011494,291.08910891089107 427.2413793103448,285.3135313531353 C435.4022988505747,279.53795379537956 443.5632183908046,269.03190319031904 451.7241379310345,261.55115511551156 C459.88505747126436,254.07040704070408 468.04597701149424,246.60799413274663 476.2068965517241,240.42904290429044 C484.367816091954,234.25009167583426 492.5287356321839,230.10634396773008 500.6896551724138,224.47744774477445 C508.85057471264366,218.84855152181882 517.0114942528736,211.73450678401173 525.1724137931035,206.65566556655665 C533.3333333333334,201.57682434910157 541.4942528735633,198.4048404840484 549.6551724137931,194.004400440044 C557.816091954023,189.6039603960396 565.9770114942529,184.59845984598462 574.1379310344828,180.25302530253026 C582.2988505747127,175.9075907590759 590.4597701149426,172.14888155482214 598.6206896551724,167.93179317931794 C606.7816091954023,163.71470480381373 614.9425287356322,159.13091309130914 623.1034482758621,154.95049504950495 C631.264367816092,150.77007700770076 639.4252873563219,146.93802713604697 647.5862068965517,142.84928492849286 C655.7471264367816,138.76054272093876 663.9080459770115,134.2134213421342 672.0689655172414,130.4180418041804 C680.2298850574713,126.62266226622661 688.3908045977012,123.78071140447379 696.551724137931,120.07700770077008 C704.7126436781609,116.37330399706637 712.8735632183908,112.8162816281628 721.0344827586207,108.19581958195818 C729.1954022988506,103.57535753575355 737.3563218390805,97.50641730839753 745.5172413793103,92.35423542354238 C753.6781609195402,87.20205353868722 761.8390804597701,82.30656398973231 770,77.28272827282728" fill="none" stroke="#dfb317" stroke-width="2.5" class="data-line-0" />
  <g class="points">
    
    <circle cx="60" cy="349.88998899889987" r="4" fill="#dfb317" class="data-point" style="animation-delay: 1.50s" />
    <circle cx="84.48275862068965" cy="342.1892189218922" r="4" fill="#dfb317" class="data-point" style="animation-delay: 1.55s" />
    <circle cx="108.9655172413793" cy="338.2288228822882" r="4" fill="#dfb317" class="data-point" style="animation-delay: 1.60s" />
    <circle cx="133.44827586206895" cy="334.5984598459846" r="4" fill="#dfb317" class="data-point" style="animation-delay: 1.65s" />
    <circle cx="157.9310344827586" cy="331.2981298129813" r="4" fill="#dfb317" class="data-point" style="animation-delay: 1.70s" />
    <circle cx="182.41379310344828" cy="326.7876787678768" r="4" fill="#dfb317" class="data-point" style="animation-delay: 1.75s" />
    <circle cx="206.89655172413794" cy="323.26732673267327" r="4" fill="#dfb317" class="data-point" style="animation-delay: 1.80s" />
    <circle cx="231.3793103448276" cy="320.957095709571" r="4" fill="#dfb317" class="data-point" style="animation-delay: 1.85s" />
    <circle cx="255.86206896551724" cy="319.0869086908691" r="4" fill="#dfb317" class="data-point" style="animation-delay: 1.90s" />
    <circle cx="280.34482758620686" cy="316.6666666666667" r="4" fill="#dfb317" class="data-point" style="animation-delay: 1.95s" />
    <circle cx="304.82758620689657" cy="310.94609460946094" r="4" fill="#dfb317" class="data-point" style="animation-delay: 2.00s" />
    <circle cx="329.3103448275862" cy="308.965896589659" r="4" fill="#dfb317" class="data-point" style="animation-delay: 2.05s" />
    <circle cx="353.7931034482759" cy="306.3256325632563" r="4" fill="#dfb317" class="data-point" style="animation-delay: 2.10s" />
    <circle cx="378.2758620689655" cy="303.02530253025304" r="4" fill="#dfb317" class="data-point" style="animation-delay: 2.15s" />
    <circle cx="402.7586206896552" cy="296.2046204620462" r="4" fill="#dfb317" class="data-point" style="animation-delay: 2.20s" />
    <circle cx="427.2413793103448" cy="285.3135313531353" r="4" fill="#dfb317" class="data-point" style="animation-delay: 2.25s" />
    <circle cx="451.7241379310345" cy="261.55115511551156" r="4" fill="#dfb317" class="data-point" style="animation-delay: 2.30s" />
    <circle cx="476.2068965517241" cy="240.42904290429044" r="4" fill="#dfb317" class="data-point" style="animation-delay: 2.35s" />
    <circle cx="500.6896551724138" cy="224.47744774477445" r="4" fill="#dfb317" class="data-point" style="animation-delay: 2.40s" />
    <circle cx="525.1724137931035" cy="206.65566556655665" r="4" fill="#dfb317" class="data-point" style="animation-delay: 2.45s" />
    <circle cx="549.6551724137931" cy="194.004400440044" r="4" fill="#dfb317" class="data-point" style="animation-delay: 2.50s" />
    <circle cx="574.1379310344828" cy="180.25302530253026" r="4" fill="#dfb317" class="data-point" style="animation-delay: 2.55s" />
    <circle cx="598.6206896551724" cy="167.93179317931794" r="4" fill="#dfb317" class="data-point" style="animation-delay: 2.60s" />
    <circle cx="623.1034482758621" cy="154.95049504950495" r="4" fill="#dfb317" class="data-point" style="animation-delay: 2.65s" />
    <circle cx="647.5862068965517" cy="142.84928492849286" r="4" fill="#dfb317" class="data-point" style="animation-delay: 2.70s" />
    <circle cx="672.0689655172414" cy="130.4180418041804" r="4" fill="#dfb317" class="data-point" style="animation-delay: 2.75s" />
    <circle cx="696.551724137931" cy="120.07700770077008" r="4" fill="#dfb317" class="data-point" style="animation-delay: 2.80s" />
    <circle cx="721.0344827586207" cy="108.19581958195818" r="4" fill="#dfb317" class="data-point" style="animation-delay: 2.85s" />
    <circle cx="745.5172413793103" cy="92.35423542354238" r="4" fill="#dfb317" class="data-point" style="animation-delay: 2.90s" />
    <circle cx="770" cy="77.28272827282728" r="4" fill="#dfb317" class="data-point" style="animation-delay: 2.95s" />
  </g>
</svg>