<svg xmlns="http://www.w3.org/2000/svg" viewBox="0 0 800 400" width="800" height="400">
  <style>
    @keyframes drawLine {
      to { stroke-dashoffset: 0; }
    }
    @keyframes fadeInPoint {
      from { opacity: 0; }
      to { opacity: 1; }
    }
    .data-line-0 {
      stroke-dasharray: 1167;
      stroke-dashoffset: 1167;
      animation: drawLine 2s ease-out forwards;
    }
    .data-point {
      opacity: 0;
      animation: fadeInPoint 0.5s ease-out forwards;
    }
    .chart-bg { fill: #fff; }
    .chart-text { fill: #24292e; }
    .chart-muted { fill: #6a737d; }
    .chart-grid { stroke: #eee; }
    .chart-axis { stroke: #6a737d; }
    @media (prefers-color-scheme: dark) {
      .chart-bg { fill: #0d1117; }
      .chart-text { fill: #e6edf3; }
      .chart-muted { fill: #8b949e; }
      .chart-grid { stroke: #21262d; }
      .chart-axis { stroke: #8b949e; }
    }
  </style>
  <rect width="800" height="400" class="chart-bg" />
  <text x="400" y="14" text-anchor="middle" class="chart-text" font-size="16" font-weight="bold" font-family="-apple-system, BlinkMacSystemFont, 'Segoe UI', Helvetica, Arial, sans-serif">SteamGridDB/steam-rom-manager Star History</text>
  
  <g class="grid">
    <line x1="60" y1="350" x2="770" y2="350" class="chart-grid" stroke-opacity="0.3" />
    <text x="52" y="354" text-anchor="end" class="chart-muted" font-size="11" font-family="-apple-system, BlinkMacSystemFont, 'Segoe UI', Helvetica, Arial, sans-serif">0</text>
    <line x1="60" y1="295.0146627565982" x2="770" y2="295.0146627565982" class="chart-grid" stroke-opacity="0.3" />
    <text x="52" y="299.0146627565982" text-anchor="end" class="chart-muted" font-size="11" font-family="-apple-system, BlinkMacSystemFont, 'Segoe UI', Helvetica, Arial, sans-serif">500</text>
    <line x1="60" y1="240.02932551319648" x2="770" y2="240.02932551319648" class="chart-grid" stroke-opacity="0.3" />
    <text x="52" y="244.02932551319648" text-anchor="end" class="chart-muted" font-size="11" font-family="-apple-system, BlinkMacSystemFont, 'Segoe UI', Helvetica, Arial, sans-serif">1K</text>
    <line x1="60" y1="185.04398826979474" x2="770" y2="185.04398826979474" class="chart-grid" stroke-opacity="0.3" />
    <text x="52" y="189.04398826979474" text-anchor="end" class="chart-muted" font-size="11" font-family="-apple-system, BlinkMacSystemFont, 'Segoe UI', Helvetica, Arial, sans-serif">1.5K</text>
    <line x1="60" y1="130.05865102639297" x2="770" y2="130.05865102639297" class="chart-grid" stroke-opacity="0.3" />
    <text x="52" y="134.05865102639297" text-anchor="end" class="chart-muted" font-size="11" font-family="-apple-system, BlinkMacSystemFont, 'Segoe UI', Helvetica, Arial, sans-serif">2K</text>
    <line x1="60" y1="75.07331378299119" x2="770" y2="75.07331378299119" class="chart-grid" stroke-opacity="0.3" />
    <text x="52" y="79.07331378299119" text-anchor="end" class="chart-muted" font-size="11" font-family="-apple-system, BlinkMacSystemFont, 'Segoe UI', Helvetica, Arial, sans-serif">2.5K</text>
  </g>
  <g class="milestones">
    
  </g>
  <g class="x-axis">
    <text x="60" y="370" text-anchor="middle" class="chart-muted" font-size="11" font-family="-apple-system, BlinkMacSystemFont, 'Segoe UI', Helvetica, Arial, sans-serif">2017</text>
    <text x="133.44827586206895" y="370" text-anchor="middle" class="chart-muted" font-size="11" font-family="-apple-system, BlinkMacSystemFont, 'Segoe UI', Helvetica, Arial, sans-serif">2018</text>
    <text x="206.89655172413794" y="370" text-anchor="middle" class="chart-muted" font-size="11" font-family="-apple-system, BlinkMacSystemFont, 'Segoe UI', Helvetica, Arial, sans-serif">2019</text>
    <text x="280.34482758620686" y="370" text-anchor="middle" class="chart-muted" font-size="11" font-family="-apple-system, BlinkMacSystemFont, 'Segoe UI', Helvetica, Arial, sans-serif">2020</text>
    <text x="353.7931034482759" y="370" text-anchor="middle" class="chart-muted" font-size="11" font-family="-apple-system, BlinkMacSystemFont, 'Segoe UI', Helvetica, Arial, sans-serif">2021</text>
    <text x="427.2413793103448" y="370" text-anchor="middle" class="chart-muted" font-size="11" font-family="-apple-system, BlinkMacSystemFont, 'Segoe UI', Helvetica, Arial, sans-serif">2022</text>
    <text x="500.6896551724138" y="370" text-anchor="middle" class="chart-muted" font-size="11" font-family="-apple-system, BlinkMacSystemFont, 'Segoe UI', Helvetica, Arial, sans-serif">2023</text>
    <text x="598.6206896551724" y="370" text-anchor="middle" class="chart-muted" font-size="11" font-family="-apple-system, BlinkMacSystemFont, 'Segoe UI', Helvetica, Arial, sans-serif">2024</text>
    <text x="672.0689655172414" y="370" text-anchor="middle" class="chart-muted" font-size="11" font-family="-apple-system, BlinkMacSystemFont, 'Segoe UI', Helvetica, Arial, sans-serif">2025</text>
    <text x="745.5172413793103" y="370" text-anchor="middle" class="chart-muted" font-size="11" font-family="-apple-system, BlinkMacSystemFont, 'Segoe UI', Helvetica, Arial, sans-serif">2026</text>
  </g>
  <line x1="60" y1="50" x2="60" y2="350" class="chart-axis" stroke-width="1" />
  <line x1="60" y1="350" x2="770" y2="350" class="chart-axis" stroke-width="1" />
  <path d="M60,350 L60,349.8900293255132 C68.16091954022988,347.3240469208211 76.32183908045977,344.1348973607038 84.48275862068965,342.19208211143695 C92.64367816091954,340.2492668621701 100.80459770114942,339.49780058651027 108.9655172413793,338.23313782991204 C117.12643678160919,336.9684750733138 125.28735632183907,335.758797653959 133.44827586206895,334.6041055718475 C141.60919540229884,333.44941348973606 149.77011494252872,332.60630498533726 157.9310344827586,331.3049853372434 C166.0919540229885,330.00366568914956 174.2528735632184,328.13416422287395 182.41379310344828,326.7961876832845 C190.57471264367817,325.45821114369505 198.73563218390805,324.2485337243402 206.89655172413794,323.2771260997067 C215.05747126436782,322.30571847507326 223.2183908045977,321.6825513196481 231.3793103448276,320.9677419354839 C239.54022988505747,320.2529325513197 247.70114942528735,319.72140762463346 255.86206896551724,318.9882697947214 C264.0229885057471,318.2551319648094 272.183908045977,317.90689149560114 280.34482758620686,316.5689149560117 C288.50574712643675,315.23093841642225 296.6666666666667,312.22507331378296 304.82758620689657,310.96041055718473 C312.98850574712645,309.6957478005865 321.14942528735634,309.7507331378299 329.3103448275862,308.9809384164223 C337.4712643678161,308.2111436950147 345.632183908046,307.3313782991202 353.7931034482759,306.341642228739 C361.95402298850576,305.35190615835774 370.11494252873564,304.72873900293257 378.2758620689655,303.0425219941349 C386.4367816091954,301.35630498533726 394.5977011494253,299.175219941349 402.7586206896552,296.2243401759531 C410.91954022988506,293.2734604105572 419.08045977011494,291.11070381231673 427.2413793103448,285.33724340175957 C435.4022988505747,279.5637829912024 443.5632183908046,269.0615835777126 451.7241379310345,261.58357771260995 C459.88505747126436,254.1055718475073 468.04597701149424,246.6275659824047 476.2068965517241,240.4692082111437 C484.367816091954,234.3108504398827 492.5287356321839,230.29692082111436 500.6896551724138,224.63343108504398 C508.85057471264366,218.96994134897358 517.0114942528736,211.60190615835776 525.1724137931035,206.4882697947214 C533.3333333333334,201.37463343108504 541.4942528735633,198.33211143695016 549.6551724137931,193.95161290322582 C557.816091954023,189.5711143695015 565.9770114942529,184.58577712609969 574.1379310344828,180.20527859237535 C582.2988505747127,175.82478005865102 590.4597701149426,171.8841642228739 598.6206896551724,167.66862170087975 C606.7816091954023,163.45307917888562 614.9425287356322,159.03592375366568 623.1034482758621,154.91202346041055 C631.264367816092,150.78812316715542 639.4252873563219,146.99413489736068 647.5862068965517,142.92521994134896 C655.7471264367816,138.85630498533723 663.9080459770115,134.2925219941349 672.0689655172414,130.49853372434018 C680.2298850574713,126.70454545454545 688.3908045977012,123.88196480938416 696.551724137931,120.16129032258064 C704.7126436781609,116.44061583577712 712.8735632183908,112.79325513196483 721.0344827586207,108.17448680351907 C729.1954022988506,103.55571847507332 737.3563218390805,97.5989736070381 745.5172413793103,92.44868035190615 C753.6781609195402,87.29838709677419 761.8390804597701,82.33137829912026 770,77.27272727272731 L770,350 L60,350 Z" fill="#dfb317" fill-opacity="0.1" />
  <path d="M60,350 L60,349.8900293255132 C68.16091954022988,347.3240469208211 76.32183908045977,344.1348973607038 84.48275862068965,342.19208211143695 C92.64367816091954,340.2492668621701 100.80459770114942,339.49780058651027 108.9655172413793,338.23313782991204 C117.12643678160919,336.9684750733138 125.28735632183907,335.758797653959 133.44827586206895,334.6041055718475 C141.60919540229884,333.44941348973606 149.77011494252872,332.60630498533726 157.9310344827586,331.3049853372434 C166.0919540229885,330.00366568914956 174.2528735632184,328.13416422287395 182.41379310344828,326.7961876832845 C190.57471264367817,325.45821114369505 198.73563218390805,324.2485337243402 206.89655172413794,323.2771260997067 C215.05747126436782,322.30571847507326 223.2183908045977,321.6825513196481 231.3793103448276,320.9677419354839 C239.54022988505747,320.2529325513197 247.70114942528735,319.72140762463346 255.86206896551724,318.9882697947214 C264.0229885057471,318.2551319648094 272.183908045977,317.90689149560114 280.34482758620686,316.5689149560117 C288.50574712643675,315.23093841642225 296.6666666666667,312.22507331378296 304.82758620689657,310.96041055718473 C312.98850574712645,309.6957478005865 321.14942528735634,309.7507331378299 329.3103448275862,308.9809384164223 C337.4712643678161,308.2111436950147 345.632183908046,307.3313782991202 353.7931034482759,306.341642228739 C361.95402298850576,305.35190615835774 370.11494252873564,304.72873900293257 378.2758620689655,303.0425219941349 C386.4367816091954,301.35630498533726 394.5977011494253,299.175219941349 402.7586206896552,296.2243401759531 C410.91954022988506,293.2734604105572 419.08045977011494,291.11070381231673 427.2413793103448,285.33724340175957 C435.4022988505747,279.5637829912024 443.5632183908046,269.0615835777126 451.7241379310345,261.58357771260995 C459.88505747126436,254.1055718475073 468.04597701149424,246.6275659824047 476.2068965517241,240.4692082111437 C484.367816091954,234.3108504398827 492.5287356321839,230.29692082111436 500.6896551724138,224.63343108504398 C508.85057471264366,218.96994134897358 517.0114942528736,211.60190615835776 525.1724137931035,206.4882697947214 C533.3333333333334,201.37463343108504 541.4942528735633,198.33211143695016 549.6551724137931,193.95161290322582 C557.816091954023,189.5711143695015 565.9770114942529,184.58577712609969 574.1379310344828,180.20527859237535 C582.2988505747127,175.82478005865102 590.4597701149426,171.8841642228739 598.6206896551724,167.66862170087975 C606.7816091954023,163.45307917888562 614.9425287356322,159.03592375366568 623.1034482758621,154.91202346041055 C631.264367816092,150.78812316715542 639.4252873563219,146.99413489736068 647.5862068965517,142.92521994134896 C655.7471264367816,138.85630498533723 663.9080459770115,134.2925219941349 672.0689655172414,130.49853372434018 C680.2298850574713,126.70454545454545 688.3908045977012,123.88196480938416 696.551724137931,120.16129032258064 C704.7126436781609,116.44061583577712 712.8735632183908,112.79325513196483 721.0344827586207,108.17448680351907 C729.1954022988506,103.55571847507332 737.3563218390805,97.5989736070381 745.5172413793103,92.44868035190615 C753.6781609195402,87.29838709677419 761.8390804597701,82.33137829912026 770,77.27272727272731" fill="none" stroke="#dfb317" stroke-width="2.5" class="data-line-0" />
  <g class="points">
    
    <circle cx="60" cy="349.8900293255132" r="4" fill="#dfb317" class="data-point" style="animation-delay: 1.50s" />
    <circle cx="84.48275862068965" cy="342.19208211143695" r="4" fill="#dfb317" class="data-point" style="animation-delay: 1.55s" />
    <circle cx="108.9655172413793" cy="338.23313782991204" r="4" fill="#dfb317" class="data-point" style="animation-delay: 1.60s" />
    <circle cx="133.44827586206895" cy="334.6041055718475" r="4" fill="#dfb317" class="data-point" style="animation-delay: 1.65s" />
    <circle cx="157.9310344827586" cy="331.3049853372434" r="4" fill="#dfb317" class="data-point" style="animation-delay: 1.70s" />
    <circle cx="182.41379310344828" cy="326.7961876832845" r="4" fill="#dfb317" class="data-point" style="animation-delay: 1.75s" />
    <circle cx="206.89655172413794" cy="323.2771260997067" r="4" fill="#dfb317" class="data-point" style="animation-delay: 1.80s" />
    <circle cx="231.3793103448276" cy="320.9677419354839" r="4" fill="#dfb317" class="data-point" style="animation-delay: 1.85s" />
    <circle cx="255.86206896551724" cy="318.9882697947214" r="4" fill="#dfb317" class="data-point" style="animation-delay: 1.90s" />
    <circle cx="280.34482758620686" cy="316.5689149560117" r="4" fill="#dfb317" class="data-point" style="animation-delay: 1.95s" />
    <circle cx="304.82758620689657" cy="310.96041055718473" r="4" fill="#dfb317" class="data-point" style="animation-delay: 2.00s" />
    <circle cx="329.3103448275862" cy="308.9809384164223" r="4" fill="#dfb317" class="data-point" style="animation-delay: 2.05s" />
    <circle cx="353.7931034482759" cy="306.341642228739" r="4" fill="#dfb317" class="data-point" style="animation-delay: 2.10s" />
    <circle cx="378.2758620689655" cy="303.0425219941349" r="4" fill="#dfb317" class="data-point" style="animation-delay: 2.15s" />
    <circle cx="402.7586206896552" cy="296.2243401759531" r="4" fill="#dfb317" class="data-point" style="animation-delay: 2.20s" />
    <circle cx="427.2413793103448" cy="285.33724340175957" r="4" fill="#dfb317" class="data-point" style="animation-delay: 2.25s" />
    <circle cx="451.7241379310345" cy="261.58357771260995" r="4" fill="#dfb317" class="data-point" style="animation-delay: 2.30s" />
    <circle cx="476.2068965517241" cy="240.4692082111437" r="4" fill="#dfb317" class="data-point" style="animation-delay: 2.35s" />
    <circle cx="500.6896551724138" cy="224.63343108504398" r="4" fill="#dfb317" class="data-point" style="animation-delay: 2.40s" />
    <circle cx="525.1724137931035" cy="206.4882697947214" r="4" fill="#dfb317" class="data-point" style="animation-delay: 2.45s" />
    <circle cx="549.6551724137931" cy="193.95161290322582" r="4" fill="#dfb317" class="data-point" style="animation-delay: 2.50s" />
    <circle cx="574.1379310344828" cy="180.20527859237535" r="4" fill="#dfb317" class="data-point" style="animation-delay: 2.55s" />
    <circle cx="598.6206896551724" cy="167.66862170087975" r="4" fill="#dfb317" class="data-point" style="animation-delay: 2.60s" />
    <circle cx="623.1034482758621" cy="154.91202346041055" r="4" fill="#dfb317" class="data-point" style="animation-delay: 2.65s" />
    <circle cx="647.5862068965517" cy="142.92521994134896" r="4" fill="#dfb317" class="data-point" style="animation-delay: 2.70s" />
    <circle cx="672.0689655172414" cy="130.49853372434018" r="4" fill="#dfb317" class="data-point" style="animation-delay: 2.75s" />
    <circle cx="696.551724137931" cy="120.16129032258064" r="4" fill="#dfb317" class="data-point" style="animation-delay: 2.80s" />
    <circle cx="721.0344827586207" cy="108.17448680351907" r="4" fill="#dfb317" class="data-point" style="animation-delay: 2.85s" />
    <circle cx="745.5172413793103" cy="92.44868035190615" r="4" fill="#dfb317" class="data-point" style="animation-delay: 2.90s" />
    <circle cx="770" cy="77.27272727272731" r="4" fill="#dfb317" class="data-point" style="animation-delay: 2.95s" />
  </g>
</svg>