<svg xmlns="http://www.w3.org/2000/svg" viewBox="0 0 800 400" width="800" height="400">
  <style>
    @keyframes drawLine {
      to { stroke-dashoffset: 0; }
    }
    @keyframes fadeInPoint {
      from { opacity: 0; }
      to { opacity: 1; }
    }
    .data-line-0 {
      stroke-dasharray: 1243;
      stroke-dashoffset: 1243;
      animation: drawLine 2s ease-out forwards;
    }
    .data-point {
      opacity: 0;
      animation: fadeInPoint 0.5s ease-out forwards;
    }
    .chart-bg { fill: #fff; }
    .chart-text { fill: #24292e; }
    .chart-muted { fill: #6a737d; }
    .chart-grid { stroke: #eee; }
    .chart-axis { stroke: #6a737d; }
    @media (prefers-color-scheme: dark) {
      .chart-bg { fill: #0d1117; }
      .chart-text { fill: #e6edf3; }
      .chart-muted { fill: #8b949e; }
      .chart-grid { stroke: #21262d; }
      .chart-axis { stroke: #8b949e; }
    }
  </style>
  <rect width="800" height="400" class="chart-bg" />
  <text x="400" y="14" text-anchor="middle" class="chart-text" font-size="16" font-weight="bold" font-family="-apple-system, BlinkMacSystemFont, 'Segoe UI', Helvetica, Arial, sans-serif">SteamGridDB/steam-rom-manager Star History</text>
  
  <g class="grid">
    <line x1="60" y1="327.77777777777777" x2="770" y2="327.77777777777777" class="chart-grid" stroke-opacity="0.3" />
    <text x="52" y="331.77777777777777" text-anchor="end" class="chart-muted" font-size="11" font-family="-apple-system, BlinkMacSystemFont, 'Segoe UI', Helvetica, Arial, sans-serif">2.5K</text>
    <line x1="60" y1="272.22222222222223" x2="770" y2="272.22222222222223" class="chart-grid" stroke-opacity="0.3" />
    <text x="52" y="276.22222222222223" text-anchor="end" class="chart-muted" font-size="11" font-family="-apple-system, BlinkMacSystemFont, 'Segoe UI', Helvetica, Arial, sans-serif">2.5K</text>
    <line x1="60" y1="216.66666666666669" x2="770" y2="216.66666666666669" class="chart-grid" stroke-opacity="0.3" />
    <text x="52" y="220.66666666666669" text-anchor="end" class="chart-muted" font-size="11" font-family="-apple-system, BlinkMacSystemFont, 'Segoe UI', Helvetica, Arial, sans-serif">2.6K</text>
    <line x1="60" y1="161.11111111111111" x2="770" y2="161.11111111111111" class="chart-grid" stroke-opacity="0.3" />
    <text x="52" y="165.11111111111111" text-anchor="end" class="chart-muted" font-size="11" font-family="-apple-system, BlinkMacSystemFont, 'Segoe UI', Helvetica, Arial, sans-serif">2.6K</text>
    <line x1="60" y1="105.55555555555557" x2="770" y2="105.55555555555557" class="chart-grid" stroke-opacity="0.3" />
    <text x="52" y="109.55555555555557" text-anchor="end" class="chart-muted" font-size="11" font-family="-apple-system, BlinkMacSystemFont, 'Segoe UI', Helvetica, Arial, sans-serif">2.6K</text>
    <line x1="60" y1="50" x2="770" y2="50" class="chart-grid" stroke-opacity="0.3" />
    <text x="52" y="54" text-anchor="end" class="chart-muted" font-size="11" font-family="-apple-system, BlinkMacSystemFont, 'Segoe UI', Helvetica, Arial, sans-serif">2.6K</text>
  </g>
  <g class="milestones">
    
  </g>
  <g class="x-axis">
    <text x="60" y="370" text-anchor="middle" class="chart-muted" font-size="11" font-family="-apple-system, BlinkMacSystemFont, 'Segoe UI', Helvetica, Arial, sans-serif">Aug 18</text>
    <text x="133.44827586206895" y="370" text-anchor="middle" class="chart-muted" font-size="11" font-family="-apple-system, BlinkMacSystemFont, 'Segoe UI', Helvetica, Arial, sans-serif">Aug 23</text>
    <text x="206.89655172413794" y="370" text-anchor="middle" class="chart-muted" font-size="11" font-family="-apple-system, BlinkMacSystemFont, 'Segoe UI', Helvetica, Arial, sans-serif">Aug 29</text>
    <text x="280.34482758620686" y="370" text-anchor="middle" class="chart-muted" font-size="11" font-family="-apple-system, BlinkMacSystemFont, 'Segoe UI', Helvetica, Arial, sans-serif">Sep 3</text>
    <text x="353.7931034482759" y="370" text-anchor="middle" class="chart-muted" font-size="11" font-family="-apple-system, BlinkMacSystemFont, 'Segoe UI', Helvetica, Arial, sans-serif">Sep 8</text>
    <text x="427.2413793103448" y="370" text-anchor="middle" class="chart-muted" font-size="11" font-family="-apple-system, BlinkMacSystemFont, 'Segoe UI', Helvetica, Arial, sans-serif">Sep 13</text>
    <text x="500.6896551724138" y="370" text-anchor="middle" class="chart-muted" font-size="11" font-family="-apple-system, BlinkMacSystemFont, 'Segoe UI', Helvetica, Arial, sans-serif">Sep 19</text>
    <text x="574.1379310344828" y="370" text-anchor="middle" class="chart-muted" font-size="11" font-family="-apple-system, BlinkMacSystemFont, 'Segoe UI', Helvetica, Arial, sans-serif">Sep 24</text>
    <text x="647.5862068965517" y="370" text-anchor="middle" class="chart-muted" font-size="11" font-family="-apple-system, BlinkMacSystemFont, 'Segoe UI', Helvetica, Arial, sans-serif">Sep 29</text>
    <text x="721.0344827586207" y="370" text-anchor="middle" class="chart-muted" font-size="11" font-family="-apple-system, BlinkMacSystemFont, 'Segoe UI', Helvetica, Arial, sans-serif">Oct 4</text>
    <text x="770" y="370" text-anchor="middle" class="chart-muted" font-size="11" font-family="-apple-system, BlinkMacSystemFont, 'Segoe UI', Helvetica, Arial, sans-serif">Oct 8</text>
  </g>
  <line x1="60" y1="50" x2="60" y2="350" class="chart-axis" stroke-width="1" />
  <line x1="60" y1="350" x2="770" y2="350" class="chart-axis" stroke-width="1" />
  <path d="M60,350 L60,322.22222222222223 C68.16091954022988,314.81481481481484 76.32183908045977,307.4074074074074 84.48275862068965,300 C92.64367816091954,292.5925925925926 100.80459770114942,277.77777777777777 108.9655172413793,277.77777777777777 C117.12643678160919,277.77777777777777 125.28735632183907,277.77777777777777 133.44827586206895,277.77777777777777 C141.60919540229884,277.77777777777777 149.77011494252872,275.9259259259259 157.9310344827586,272.22222222222223 C166.0919540229885,268.51851851851853 174.2528735632184,255.55555555555554 182.41379310344828,255.55555555555554 C190.57471264367817,255.55555555555554 198.73563218390805,255.55555555555554 206.89655172413794,255.55555555555554 C215.05747126436782,255.55555555555554 223.2183908045977,234.25925925925924 231.3793103448276,227.77777777777777 C239.54022988505747,221.2962962962963 247.70114942528735,220.37037037037038 255.86206896551724,216.66666666666669 C264.0229885057471,212.962962962963 272.183908045977,208.33333333333334 280.34482758620686,205.55555555555557 C288.50574712643675,202.77777777777777 296.6666666666667,201.85185185185185 304.82758620689657,200 C312.98850574712645,198.14814814814815 321.14942528735634,198.14814814814815 329.3103448275862,194.44444444444446 C337.4712643678161,190.74074074074076 345.632183908046,186.11111111111111 353.7931034482759,177.77777777777777 C361.95402298850576,169.44444444444443 370.11494252873564,152.77777777777777 378.2758620689655,144.44444444444443 C386.4367816091954,136.1111111111111 394.5977011494253,127.7777777777778 402.7586206896552,127.7777777777778 C410.91954022988506,127.7777777777778 419.08045977011494,133.33333333333334 427.2413793103448,133.33333333333334 C435.4022988505747,133.33333333333334 443.5632183908046,133.33333333333334 451.7241379310345,133.33333333333334 C459.88505747126436,133.33333333333334 468.04597701149424,131.4814814814815 476.2068965517241,127.7777777777778 C484.367816091954,124.07407407407409 492.5287356321839,111.11111111111111 500.6896551724138,111.11111111111111 C508.85057471264366,111.11111111111111 517.0114942528736,111.11111111111111 525.1724137931035,111.11111111111111 C533.3333333333334,111.11111111111111 541.4942528735633,116.66666666666666 549.6551724137931,116.66666666666666 C557.816091954023,116.66666666666666 565.9770114942529,116.66666666666666 574.1379310344828,116.66666666666666 C582.2988505747127,116.66666666666666 590.4597701149426,105.55555555555557 598.6206896551724,105.55555555555557 C606.7816091954023,105.55555555555557 614.9425287356322,105.55555555555557 623.1034482758621,105.55555555555557 C631.264367816092,105.55555555555557 639.4252873563219,93.51851851851855 647.5862068965517,88.88888888888891 C655.7471264367816,84.25925925925928 663.9080459770115,77.77777777777777 672.0689655172414,77.77777777777777 C680.2298850574713,77.77777777777777 688.3908045977012,77.77777777777777 696.551724137931,77.77777777777777 C704.7126436781609,77.77777777777777 712.8735632183908,88.88888888888891 721.0344827586207,88.88888888888891 C729.1954022988506,88.88888888888891 737.3563218390805,88.88888888888891 745.5172413793103,88.88888888888891 C753.6781609195402,88.88888888888891 761.8390804597701,81.48148148148148 770,77.77777777777777 L770,350 L60,350 Z" fill="#dfb317" fill-opacity="0.1" />
  <path d="M60,350 L60,322.22222222222223 C68.16091954022988,314.81481481481484 76.32183908045977,307.4074074074074 84.48275862068965,300 C92.64367816091954,292.5925925925926 100.80459770114942,277.77777777777777 108.9655172413793,277.77777777777777 C117.12643678160919,277.77777777777777 125.28735632183907,277.77777777777777 133.44827586206895,277.77777777777777 C141.60919540229884,277.77777777777777 149.77011494252872,275.9259259259259 157.9310344827586,272.22222222222223 C166.0919540229885,268.51851851851853 174.2528735632184,255.55555555555554 182.41379310344828,255.55555555555554 C190.57471264367817,255.55555555555554 198.73563218390805,255.55555555555554 206.89655172413794,255.55555555555554 C215.05747126436782,255.55555555555554 223.2183908045977,234.25925925925924 231.3793103448276,227.77777777777777 C239.54022988505747,221.2962962962963 247.70114942528735,220.37037037037038 255.86206896551724,216.66666666666669 C264.0229885057471,212.962962962963 272.183908045977,208.33333333333334 280.34482758620686,205.55555555555557 C288.50574712643675,202.77777777777777 296.6666666666667,201.85185185185185 304.82758620689657,200 C312.98850574712645,198.14814814814815 321.14942528735634,198.14814814814815 329.3103448275862,194.44444444444446 C337.4712643678161,190.74074074074076 345.632183908046,186.11111111111111 353.7931034482759,177.77777777777777 C361.95402298850576,169.44444444444443 370.11494252873564,152.77777777777777 378.2758620689655,144.44444444444443 C386.4367816091954,136.1111111111111 394.5977011494253,127.7777777777778 402.7586206896552,127.7777777777778 C410.91954022988506,127.7777777777778 419.08045977011494,133.33333333333334 427.2413793103448,133.33333333333334 C435.4022988505747,133.33333333333334 443.5632183908046,133.33333333333334 451.7241379310345,133.33333333333334 C459.88505747126436,133.33333333333334 468.04597701149424,131.4814814814815 476.2068965517241,127.7777777777778 C484.367816091954,124.07407407407409 492.5287356321839,111.11111111111111 500.6896551724138,111.11111111111111 C508.85057471264366,111.11111111111111 517.0114942528736,111.11111111111111 525.1724137931035,111.11111111111111 C533.3333333333334,111.11111111111111 541.4942528735633,116.66666666666666 549.6551724137931,116.66666666666666 C557.816091954023,116.66666666666666 565.9770114942529,116.66666666666666 574.1379310344828,116.66666666666666 C582.2988505747127,116.66666666666666 590.4597701149426,105.55555555555557 598.6206896551724,105.55555555555557 C606.7816091954023,105.55555555555557 614.9425287356322,105.55555555555557 623.1034482758621,105.55555555555557 C631.264367816092,105.55555555555557 639.4252873563219,93.51851851851855 647.5862068965517,88.88888888888891 C655.7471264367816,84.25925925925928 663.9080459770115,77.77777777777777 672.0689655172414,77.77777777777777 C680.2298850574713,77.77777777777777 688.3908045977012,77.77777777777777 696.551724137931,77.77777777777777 C704.7126436781609,77.77777777777777 712.8735632183908,88.88888888888891 721.0344827586207,88.88888888888891 C729.1954022988506,88.88888888888891 737.3563218390805,88.88888888888891 745.5172413793103,88.88888888888891 C753.6781609195402,88.88888888888891 761.8390804597701,81.48148148148148 770,77.77777777777777" fill="none" stroke="#dfb317" stroke-width="2.5" class="data-line-0" />
  <g class="points">
    
    <circle cx="60" cy="322.22222222222223" r="4" fill="#dfb317" class="data-point" style="animation-delay: 1.50s" />
    <circle cx="84.48275862068965" cy="300" r="4" fill="#dfb317" class="data-point" style="animation-delay: 1.55s" />
    <circle cx="108.9655172413793" cy="277.77777777777777" r="4" fill="#dfb317" class="data-point" style="animation-delay: 1.60s" />
    <circle cx="133.44827586206895" cy="277.77777777777777" r="4" fill="#dfb317" class="data-point" style="animation-delay: 1.65s" />
    <circle cx="157.9310344827586" cy="272.22222222222223" r="4" fill="#dfb317" class="data-point" style="animation-delay: 1.70s" />
    <circle cx="182.41379310344828" cy="255.55555555555554" r="4" fill="#dfb317" class="data-point" style="animation-delay: 1.75s" />
    <circle cx="206.89655172413794" cy="255.55555555555554" r="4" fill="#dfb317" class="data-point" style="animation-delay: 1.80s" />
    <circle cx="231.3793103448276" cy="227.77777777777777" r="4" fill="#dfb317" class="data-point" style="animation-delay: 1.85s" />
    <circle cx="255.86206896551724" cy="216.66666666666669" r="4" fill="#dfb317" class="data-point" style="animation-delay: 1.90s" />
    <circle cx="280.34482758620686" cy="205.55555555555557" r="4" fill="#dfb317" class="data-point" style="animation-delay: 1.95s" />
    <circle cx="304.82758620689657" cy="200" r="4" fill="#dfb317" class="data-point" style="animation-delay: 2.00s" />
    <circle cx="329.3103448275862" cy="194.44444444444446" r="4" fill="#dfb317" class="data-point" style="animation-delay: 2.05s" />
    <circle cx="353.7931034482759" cy="177.77777777777777" r="4" fill="#dfb317" class="data-point" style="animation-delay: 2.10s" />
    <circle cx="378.2758620689655" cy="144.44444444444443" r="4" fill="#dfb317" class="data-point" style="animation-delay: 2.15s" />
    <circle cx="402.7586206896552" cy="127.7777777777778" r="4" fill="#dfb317" class="data-point" style="animation-delay: 2.20s" />
    <circle cx="427.2413793103448" cy="133.33333333333334" r="4" fill="#dfb317" class="data-point" style="animation-delay: 2.25s" />
    <circle cx="451.7241379310345" cy="133.33333333333334" r="4" fill="#dfb317" class="data-point" style="animation-delay: 2.30s" />
    <circle cx="476.2068965517241" cy="127.7777777777778" r="4" fill="#dfb317" class="data-point" style="animation-delay: 2.35s" />
    <circle cx="500.6896551724138" cy="111.11111111111111" r="4" fill="#dfb317" class="data-point" style="animation-delay: 2.40s" />
    <circle cx="525.1724137931035" cy="111.11111111111111" r="4" fill="#dfb317" class="data-point" style="animation-delay: 2.45s" />
    <circle cx="549.6551724137931" cy="116.66666666666666" r="4" fill="#dfb317" class="data-point" style="animation-delay: 2.50s" />
    <circle cx="574.1379310344828" cy="116.66666666666666" r="4" fill="#dfb317" class="data-point" style="animation-delay: 2.55s" />
    <circle cx="598.6206896551724" cy="105.55555555555557" r="4" fill="#dfb317" class="data-point" style="animation-delay: 2.60s" />
    <circle cx="623.1034482758621" cy="105.55555555555557" r="4" fill="#dfb317" class="data-point" style="animation-delay: 2.65s" />
    <circle cx="647.5862068965517" cy="88.88888888888891" r="4" fill="#dfb317" class="data-point" style="animation-delay: 2.70s" />
    <circle cx="672.0689655172414" cy="77.77777777777777" r="4" fill="#dfb317" class="data-point" style="animation-delay: 2.75s" />
    <circle cx="696.551724137931" cy="77.77777777777777" r="4" fill="#dfb317" class="data-point" style="animation-delay: 2.80s" />
    <circle cx="721.0344827586207" cy="88.88888888888891" r="4" fill="#dfb317" class="data-point" style="animation-delay: 2.85s" />
    <circle cx="745.5172413793103" cy="88.88888888888891" r="4" fill="#dfb317" class="data-point" style="animation-delay: 2.90s" />
    <circle cx="770" cy="77.77777777777777" r="4" fill="#dfb317" class="data-point" style="animation-delay: 2.95s" />
  </g>
</svg>