<svg xmlns="http://www.w3.org/2000/svg" viewBox="0 0 800 400" width="800" height="400">
  <style>
    @keyframes drawLine {
      to { stroke-dashoffset: 0; }
    }
    @keyframes fadeInPoint {
      from { opacity: 0; }
      to { opacity: 1; }
    }
    .data-line-0 {
      stroke-dasharray: 1204;
      stroke-dashoffset: 1204;
      animation: drawLine 2s ease-out forwards;
    }
    .data-point {
      opacity: 0;
      animation: fadeInPoint 0.5s ease-out forwards;
    }
    .chart-bg { fill: #fff; }
    .chart-text { fill: #24292e; }
    .chart-muted { fill: #6a737d; }
    .chart-grid { stroke: #eee; }
    .chart-axis { stroke: #6a737d; }
    @media (prefers-color-scheme: dark) {
      .chart-bg { fill: #0d1117; }
      .chart-text { fill: #e6edf3; }
      .chart-muted { fill: #8b949e; }
      .chart-grid { stroke: #21262d; }
      .chart-axis { stroke: #8b949e; }
    }
  </style>
  <rect width="800" height="400" class="chart-bg" />
  <text x="400" y="14" text-anchor="middle" class="chart-text" font-size="16" font-weight="bold" font-family="-apple-system, BlinkMacSystemFont, 'Segoe UI', Helvetica, Arial, sans-serif">SteamGridDB/steam-rom-manager Star History</text>
  
  <g class="grid">
    <line x1="60" y1="314.70588235294116" x2="770" y2="314.70588235294116" class="chart-grid" stroke-opacity="0.3" />
    <text x="52" y="318.70588235294116" text-anchor="end" class="chart-muted" font-size="11" font-family="-apple-system, BlinkMacSystemFont, 'Segoe UI', Helvetica, Arial, sans-serif">2.5K</text>
    <line x1="60" y1="226.47058823529414" x2="770" y2="226.47058823529414" class="chart-grid" stroke-opacity="0.3" />
    <text x="52" y="230.47058823529414" text-anchor="end" class="chart-muted" font-size="11" font-family="-apple-system, BlinkMacSystemFont, 'Segoe UI', Helvetica, Arial, sans-serif">2.5K</text>
    <line x1="60" y1="138.23529411764704" x2="770" y2="138.23529411764704" class="chart-grid" stroke-opacity="0.3" />
    <text x="52" y="142.23529411764704" text-anchor="end" class="chart-muted" font-size="11" font-family="-apple-system, BlinkMacSystemFont, 'Segoe UI', Helvetica, Arial, sans-serif">2.6K</text>
    <line x1="60" y1="50" x2="770" y2="50" class="chart-grid" stroke-opacity="0.3" />
    <text x="52" y="54" text-anchor="end" class="chart-muted" font-size="11" font-family="-apple-system, BlinkMacSystemFont, 'Segoe UI', Helvetica, Arial, sans-serif">2.6K</text>
  </g>
  <g class="milestones">
    
  </g>
  <g class="x-axis">
    <text x="60" y="370" text-anchor="middle" class="chart-muted" font-size="11" font-family="-apple-system, BlinkMacSystemFont, 'Segoe UI', Helvetica, Arial, sans-serif">Aug 6</text>
    <text x="133.44827586206895" y="370" text-anchor="middle" class="chart-muted" font-size="11" font-family="-apple-system, BlinkMacSystemFont, 'Segoe UI', Helvetica, Arial, sans-serif">Aug 11</text>
    <text x="206.89655172413794" y="370" text-anchor="middle" class="chart-muted" font-size="11" font-family="-apple-system, BlinkMacSystemFont, 'Segoe UI', Helvetica, Arial, sans-serif">Aug 17</text>
    <text x="280.34482758620686" y="370" text-anchor="middle" class="chart-muted" font-size="11" font-family="-apple-system, BlinkMacSystemFont, 'Segoe UI', Helvetica, Arial, sans-serif">Aug 22</text>
    <text x="353.7931034482759" y="370" text-anchor="middle" class="chart-muted" font-size="11" font-family="-apple-system, BlinkMacSystemFont, 'Segoe UI', Helvetica, Arial, sans-serif">Aug 27</text>
    <text x="427.2413793103448" y="370" text-anchor="middle" class="chart-muted" font-size="11" font-family="-apple-system, BlinkMacSystemFont, 'Segoe UI', Helvetica, Arial, sans-serif">Sep 1</text>
    <text x="500.6896551724138" y="370" text-anchor="middle" class="chart-muted" font-size="11" font-family="-apple-system, BlinkMacSystemFont, 'Segoe UI', Helvetica, Arial, sans-serif">Sep 7</text>
    <text x="574.1379310344828" y="370" text-anchor="middle" class="chart-muted" font-size="11" font-family="-apple-system, BlinkMacSystemFont, 'Segoe UI', Helvetica, Arial, sans-serif">Sep 12</text>
    <text x="647.5862068965517" y="370" text-anchor="middle" class="chart-muted" font-size="11" font-family="-apple-system, BlinkMacSystemFont, 'Segoe UI', Helvetica, Arial, sans-serif">Sep 17</text>
    <text x="721.0344827586207" y="370" text-anchor="middle" class="chart-muted" font-size="11" font-family="-apple-system, BlinkMacSystemFont, 'Segoe UI', Helvetica, Arial, sans-serif">Sep 22</text>
    <text x="770" y="370" text-anchor="middle" class="chart-muted" font-size="11" font-family="-apple-system, BlinkMacSystemFont, 'Segoe UI', Helvetica, Arial, sans-serif">Sep 26</text>
  </g>
  <line x1="60" y1="50" x2="60" y2="350" class="chart-axis" stroke-width="1" />
  <line x1="60" y1="350" x2="770" y2="350" class="chart-axis" stroke-width="1" />
  <path d="M60,350 L60,323.52941176470586 C68.16091954022988,319.11764705882354 76.32183908045977,314.7058823529412 84.48275862068965,310.29411764705884 C92.64367816091954,305.88235294117646 100.80459770114942,301.47058823529414 108.9655172413793,297.05882352941177 C117.12643678160919,292.6470588235294 125.28735632183907,286.7647058823529 133.44827586206895,283.8235294117647 C141.60919540229884,280.88235294117646 149.77011494252872,279.4117647058823 157.9310344827586,279.4117647058823 C166.0919540229885,279.4117647058823 174.2528735632184,279.4117647058823 182.41379310344828,279.4117647058823 C190.57471264367817,279.4117647058823 198.73563218390805,266.1764705882353 206.89655172413794,266.1764705882353 C215.05747126436782,266.1764705882353 223.2183908045977,266.1764705882353 231.3793103448276,266.1764705882353 C239.54022988505747,266.1764705882353 247.70114942528735,254.41176470588232 255.86206896551724,248.52941176470586 C264.0229885057471,242.6470588235294 272.183908045977,230.88235294117646 280.34482758620686,230.88235294117646 C288.50574712643675,230.88235294117646 296.6666666666667,230.88235294117646 304.82758620689657,230.88235294117646 C312.98850574712645,230.88235294117646 321.14942528735634,229.41176470588238 329.3103448275862,226.47058823529414 C337.4712643678161,223.5294117647059 345.632183908046,213.23529411764707 353.7931034482759,213.23529411764707 C361.95402298850576,213.23529411764707 370.11494252873564,213.23529411764707 378.2758620689655,213.23529411764707 C386.4367816091954,213.23529411764707 394.5977011494253,196.32352941176472 402.7586206896552,191.1764705882353 C410.91954022988506,186.02941176470588 419.08045977011494,185.2941176470588 427.2413793103448,182.35294117647058 C435.4022988505747,179.41176470588235 443.5632183908046,175.73529411764704 451.7241379310345,173.52941176470588 C459.88505747126436,171.32352941176472 468.04597701149424,170.58823529411765 476.2068965517241,169.11764705882354 C484.367816091954,167.64705882352942 492.5287356321839,167.6470588235294 500.6896551724138,164.70588235294116 C508.85057471264366,161.76470588235293 517.0114942528736,158.08823529411765 525.1724137931035,151.47058823529412 C533.3333333333334,144.8529411764706 541.4942528735633,131.61764705882354 549.6551724137931,125 C557.816091954023,118.38235294117648 565.9770114942529,111.76470588235296 574.1379310344828,111.76470588235296 C582.2988505747127,111.76470588235296 590.4597701149426,116.1764705882353 598.6206896551724,116.1764705882353 C606.7816091954023,116.1764705882353 614.9425287356322,116.1764705882353 623.1034482758621,116.1764705882353 C631.264367816092,116.1764705882353 639.4252873563219,114.70588235294119 647.5862068965517,111.76470588235296 C655.7471264367816,108.82352941176472 663.9080459770115,98.52941176470588 672.0689655172414,98.52941176470588 C680.2298850574713,98.52941176470588 688.3908045977012,98.52941176470588 696.551724137931,98.52941176470588 C704.7126436781609,98.52941176470588 712.8735632183908,102.94117647058826 721.0344827586207,102.94117647058826 C729.1954022988506,102.94117647058826 737.3563218390805,102.94117647058826 745.5172413793103,102.94117647058826 C753.6781609195402,102.94117647058826 761.8390804597701,97.05882352941178 770,94.11764705882354 L770,350 L60,350 Z" fill="#dfb317" fill-opacity="0.1" />
  <path d="M60,350 L60,323.52941176470586 C68.16091954022988,319.11764705882354 76.32183908045977,314.7058823529412 84.48275862068965,310.29411764705884 C92.64367816091954,305.88235294117646 100.80459770114942,301.47058823529414 108.9655172413793,297.05882352941177 C117.12643678160919,292.6470588235294 125.28735632183907,286.7647058823529 133.44827586206895,283.8235294117647 C141.60919540229884,280.88235294117646 149.77011494252872,279.4117647058823 157.9310344827586,279.4117647058823 C166.0919540229885,279.4117647058823 174.2528735632184,279.4117647058823 182.41379310344828,279.4117647058823 C190.57471264367817,279.4117647058823 198.73563218390805,266.1764705882353 206.89655172413794,266.1764705882353 C215.05747126436782,266.1764705882353 223.2183908045977,266.1764705882353 231.3793103448276,266.1764705882353 C239.54022988505747,266.1764705882353 247.70114942528735,254.41176470588232 255.86206896551724,248.52941176470586 C264.0229885057471,242.6470588235294 272.183908045977,230.88235294117646 280.34482758620686,230.88235294117646 C288.50574712643675,230.88235294117646 296.6666666666667,230.88235294117646 304.82758620689657,230.88235294117646 C312.98850574712645,230.88235294117646 321.14942528735634,229.41176470588238 329.3103448275862,226.47058823529414 C337.4712643678161,223.5294117647059 345.632183908046,213.23529411764707 353.7931034482759,213.23529411764707 C361.95402298850576,213.23529411764707 370.11494252873564,213.23529411764707 378.2758620689655,213.23529411764707 C386.4367816091954,213.23529411764707 394.5977011494253,196.32352941176472 402.7586206896552,191.1764705882353 C410.91954022988506,186.02941176470588 419.08045977011494,185.2941176470588 427.2413793103448,182.35294117647058 C435.4022988505747,179.41176470588235 443.5632183908046,175.73529411764704 451.7241379310345,173.52941176470588 C459.88505747126436,171.32352941176472 468.04597701149424,170.58823529411765 476.2068965517241,169.11764705882354 C484.367816091954,167.64705882352942 492.5287356321839,167.6470588235294 500.6896551724138,164.70588235294116 C508.85057471264366,161.76470588235293 517.0114942528736,158.08823529411765 525.1724137931035,151.47058823529412 C533.3333333333334,144.8529411764706 541.4942528735633,131.61764705882354 549.6551724137931,125 C557.816091954023,118.38235294117648 565.9770114942529,111.76470588235296 574.1379310344828,111.76470588235296 C582.2988505747127,111.76470588235296 590.4597701149426,116.1764705882353 598.6206896551724,116.1764705882353 C606.7816091954023,116.1764705882353 614.9425287356322,116.1764705882353 623.1034482758621,116.1764705882353 C631.264367816092,116.1764705882353 639.4252873563219,114.70588235294119 647.5862068965517,111.76470588235296 C655.7471264367816,108.82352941176472 663.9080459770115,98.52941176470588 672.0689655172414,98.52941176470588 C680.2298850574713,98.52941176470588 688.3908045977012,98.52941176470588 696.551724137931,98.52941176470588 C704.7126436781609,98.52941176470588 712.8735632183908,102.94117647058826 721.0344827586207,102.94117647058826 C729.1954022988506,102.94117647058826 737.3563218390805,102.94117647058826 745.5172413793103,102.94117647058826 C753.6781609195402,102.94117647058826 761.8390804597701,97.05882352941178 770,94.11764705882354" fill="none" stroke="#dfb317" stroke-width="2.5" class="data-line-0" />
  <g class="points">
    
    <circle cx="60" cy="323.52941176470586" r="4" fill="#dfb317" class="data-point" style="animation-delay: 1.50s" />
    <circle cx="84.48275862068965" cy="310.29411764705884" r="4" fill="#dfb317" class="data-point" style="animation-delay: 1.55s" />
    <circle cx="108.9655172413793" cy="297.05882352941177" r="4" fill="#dfb317" class="data-point" style="animation-delay: 1.60s" />
    <circle cx="133.44827586206895" cy="283.8235294117647" r="4" fill="#dfb317" class="data-point" style="animation-delay: 1.65s" />
    <circle cx="157.9310344827586" cy="279.4117647058823" r="4" fill="#dfb317" class="data-point" style="animation-delay: 1.70s" />
    <circle cx="182.41379310344828" cy="279.4117647058823" r="4" fill="#dfb317" class="data-point" style="animation-delay: 1.75s" />
    <circle cx="206.89655172413794" cy="266.1764705882353" r="4" fill="#dfb317" class="data-point" style="animation-delay: 1.80s" />
    <circle cx="231.3793103448276" cy="266.1764705882353" r="4" fill="#dfb317" class="data-point" style="animation-delay: 1.85s" />
    <circle cx="255.86206896551724" cy="248.52941176470586" r="4" fill="#dfb317" class="data-point" style="animation-delay: 1.90s" />
    <circle cx="280.34482758620686" cy="230.88235294117646" r="4" fill="#dfb317" class="data-point" style="animation-delay: 1.95s" />
    <circle cx="304.82758620689657" cy="230.88235294117646" r="4" fill="#dfb317" class="data-point" style="animation-delay: 2.00s" />
    <circle cx="329.3103448275862" cy="226.47058823529414" r="4" fill="#dfb317" class="data-point" style="animation-delay: 2.05s" />
    <circle cx="353.7931034482759" cy="213.23529411764707" r="4" fill="#dfb317" class="data-point" style="animation-delay: 2.10s" />
    <circle cx="378.2758620689655" cy="213.23529411764707" r="4" fill="#dfb317" class="data-point" style="animation-delay: 2.15s" />
    <circle cx="402.7586206896552" cy="191.1764705882353" r="4" fill="#dfb317" class="data-point" style="animation-delay: 2.20s" />
    <circle cx="427.2413793103448" cy="182.35294117647058" r="4" fill="#dfb317" class="data-point" style="animation-delay: 2.25s" />
    <circle cx="451.7241379310345" cy="173.52941176470588" r="4" fill="#dfb317" class="data-point" style="animation-delay: 2.30s" />
    <circle cx="476.2068965517241" cy="169.11764705882354" r="4" fill="#dfb317" class="data-point" style="animation-delay: 2.35s" />
    <circle cx="500.6896551724138" cy="164.70588235294116" r="4" fill="#dfb317" class="data-point" style="animation-delay: 2.40s" />
    <circle cx="525.1724137931035" cy="151.47058823529412" r="4" fill="#dfb317" class="data-point" style="animation-delay: 2.45s" />
    <circle cx="549.6551724137931" cy="125" r="4" fill="#dfb317" class="data-point" style="animation-delay: 2.50s" />
    <circle cx="574.1379310344828" cy="111.76470588235296" r="4" fill="#dfb317" class="data-point" style="animation-delay: 2.55s" />
    <circle cx="598.6206896551724" cy="116.1764705882353" r="4" fill="#dfb317" class="data-point" style="animation-delay: 2.60s" />
    <circle cx="623.1034482758621" cy="116.1764705882353" r="4" fill="#dfb317" class="data-point" style="animation-delay: 2.65s" />
    <circle cx="647.5862068965517" cy="111.76470588235296" r="4" fill="#dfb317" class="data-point" style="animation-delay: 2.70s" />
    <circle cx="672.0689655172414" cy="98.52941176470588" r="4" fill="#dfb317" class="data-point" style="animation-delay: 2.75s" />
    <circle cx="696.551724137931" cy="98.52941176470588" r="4" fill="#dfb317" class="data-point" style="animation-delay: 2.80s" />
    <circle cx="721.0344827586207" cy="102.94117647058826" r="4" fill="#dfb317" class="data-point" style="animation-delay: 2.85s" />
    <circle cx="745.5172413793103" cy="102.94117647058826" r="4" fill="#dfb317" class="data-point" style="animation-delay: 2.90s" />
    <circle cx="770" cy="94.11764705882354" r="4" fill="#dfb317" class="data-point" style="animation-delay: 2.95s" />
  </g>
</svg>