<svg xmlns="http://www.w3.org/2000/svg" viewBox="0 0 800 400" width="800" height="400">
  <style>
    @keyframes drawLine {
      to { stroke-dashoffset: 0; }
    }
    @keyframes fadeInPoint {
      from { opacity: 0; }
      to { opacity: 1; }
    }
    .data-line-0 {
      stroke-dasharray: 1288;
      stroke-dashoffset: 1288;
      animation: drawLine 2s ease-out forwards;
    }
    .data-point {
      opacity: 0;
      animation: fadeInPoint 0.5s ease-out forwards;
    }
    .chart-bg { fill: #fff; }
    .chart-text { fill: #24292e; }
    .chart-muted { fill: #6a737d; }
    .chart-grid { stroke: #eee; }
    .chart-axis { stroke: #6a737d; }
    @media (prefers-color-scheme: dark) {
      .chart-bg { fill: #0d1117; }
      .chart-text { fill: #e6edf3; }
      .chart-muted { fill: #8b949e; }
      .chart-grid { stroke: #21262d; }
      .chart-axis { stroke: #8b949e; }
    }
  </style>
  <rect width="800" height="400" class="chart-bg" />
  <text x="400" y="14" text-anchor="middle" class="chart-text" font-size="16" font-weight="bold" font-family="-apple-system, BlinkMacSystemFont, 'Segoe UI', Helvetica, Arial, sans-serif">SteamGridDB/steam-rom-manager Star History</text>
  
  <g class="grid">
    <line x1="60" y1="350" x2="770" y2="350" class="chart-grid" stroke-opacity="0.3" />
    <text x="52" y="354" text-anchor="end" class="chart-muted" font-size="11" font-family="-apple-system, BlinkMacSystemFont, 'Segoe UI', Helvetica, Arial, sans-serif">2.5K</text>
    <line x1="60" y1="294.44444444444446" x2="770" y2="294.44444444444446" class="chart-grid" stroke-opacity="0.3" />
    <text x="52" y="298.44444444444446" text-anchor="end" class="chart-muted" font-size="11" font-family="-apple-system, BlinkMacSystemFont, 'Segoe UI', Helvetica, Arial, sans-serif">2.5K</text>
    <line x1="60" y1="238.8888888888889" x2="770" y2="238.8888888888889" class="chart-grid" stroke-opacity="0.3" />
    <text x="52" y="242.8888888888889" text-anchor="end" class="chart-muted" font-size="11" font-family="-apple-system, BlinkMacSystemFont, 'Segoe UI', Helvetica, Arial, sans-serif">2.5K</text>
    <line x1="60" y1="183.33333333333331" x2="770" y2="183.33333333333331" class="chart-grid" stroke-opacity="0.3" />
    <text x="52" y="187.33333333333331" text-anchor="end" class="chart-muted" font-size="11" font-family="-apple-system, BlinkMacSystemFont, 'Segoe UI', Helvetica, Arial, sans-serif">2.5K</text>
    <line x1="60" y1="127.7777777777778" x2="770" y2="127.7777777777778" class="chart-grid" stroke-opacity="0.3" />
    <text x="52" y="131.7777777777778" text-anchor="end" class="chart-muted" font-size="11" font-family="-apple-system, BlinkMacSystemFont, 'Segoe UI', Helvetica, Arial, sans-serif">2.5K</text>
    <line x1="60" y1="72.22222222222223" x2="770" y2="72.22222222222223" class="chart-grid" stroke-opacity="0.3" />
    <text x="52" y="76.22222222222223" text-anchor="end" class="chart-muted" font-size="11" font-family="-apple-system, BlinkMacSystemFont, 'Segoe UI', Helvetica, Arial, sans-serif">2.5K</text>
  </g>
  <g class="milestones">
    
  </g>
  <g class="x-axis">
    <text x="60" y="370" text-anchor="middle" class="chart-muted" font-size="11" font-family="-apple-system, BlinkMacSystemFont, 'Segoe UI', Helvetica, Arial, sans-serif">Jul 12</text>
    <text x="169.23076923076923" y="370" text-anchor="middle" class="chart-muted" font-size="11" font-family="-apple-system, BlinkMacSystemFont, 'Segoe UI', Helvetica, Arial, sans-serif">Jul 13</text>
    <text x="278.46153846153845" y="370" text-anchor="middle" class="chart-muted" font-size="11" font-family="-apple-system, BlinkMacSystemFont, 'Segoe UI', Helvetica, Arial, sans-serif">Jul 15</text>
    <text x="387.69230769230774" y="370" text-anchor="middle" class="chart-muted" font-size="11" font-family="-apple-system, BlinkMacSystemFont, 'Segoe UI', Helvetica, Arial, sans-serif">Jul 17</text>
    <text x="496.92307692307696" y="370" text-anchor="middle" class="chart-muted" font-size="11" font-family="-apple-system, BlinkMacSystemFont, 'Segoe UI', Helvetica, Arial, sans-serif">Jul 19</text>
    <text x="606.1538461538462" y="370" text-anchor="middle" class="chart-muted" font-size="11" font-family="-apple-system, BlinkMacSystemFont, 'Segoe UI', Helvetica, Arial, sans-serif">Jul 21</text>
    <text x="715.3846153846155" y="370" text-anchor="middle" class="chart-muted" font-size="11" font-family="-apple-system, BlinkMacSystemFont, 'Segoe UI', Helvetica, Arial, sans-serif">Jul 23</text>
    <text x="770" y="370" text-anchor="middle" class="chart-muted" font-size="11" font-family="-apple-system, BlinkMacSystemFont, 'Segoe UI', Helvetica, Arial, sans-serif">Jul 24</text>
  </g>
  <line x1="60" y1="50" x2="60" y2="350" class="chart-axis" stroke-width="1" />
  <line x1="60" y1="350" x2="770" y2="350" class="chart-axis" stroke-width="1" />
  <path d="M60,350 L60,316.6666666666667 C78.2051282051282,316.6666666666667 96.41025641025641,316.6666666666667 114.61538461538461,316.6666666666667 C132.82051282051282,316.6666666666667 151.02564102564102,316.6666666666667 169.23076923076923,316.6666666666667 C187.43589743589743,316.6666666666667 205.64102564102566,316.6666666666667 223.84615384615387,316.6666666666667 C242.05128205128207,316.6666666666667 260.2564102564103,305.55555555555554 278.46153846153845,305.55555555555554 C296.6666666666667,305.55555555555554 314.87179487179486,305.55555555555554 333.0769230769231,305.55555555555554 C351.2820512820513,305.55555555555554 369.4871794871795,298.14814814814815 387.69230769230774,294.44444444444446 C405.8974358974359,290.74074074074076 424.1025641025641,283.33333333333337 442.30769230769226,283.33333333333337 C460.5128205128205,283.33333333333337 478.71794871794873,283.33333333333337 496.92307692307696,283.33333333333337 C515.1282051282052,283.33333333333337 533.3333333333334,294.44444444444446 551.5384615384615,294.44444444444446 C569.7435897435897,294.44444444444446 587.948717948718,294.44444444444446 606.1538461538462,294.44444444444446 C624.3589743589744,294.44444444444446 642.5641025641025,264.8148148148148 660.7692307692307,250 C678.974358974359,235.18518518518516 697.1794871794872,233.33333333333343 715.3846153846155,205.55555555555557 C733.5897435897436,177.77777777777783 751.7948717948718,124.0740740740741 770,83.33333333333337 L770,350 L60,350 Z" fill="#dfb317" fill-opacity="0.1" />
  <path d="M60,350 L60,316.6666666666667 C78.2051282051282,316.6666666666667 96.41025641025641,316.6666666666667 114.61538461538461,316.6666666666667 C132.82051282051282,316.6666666666667 151.02564102564102,316.6666666666667 169.23076923076923,316.6666666666667 C187.43589743589743,316.6666666666667 205.64102564102566,316.6666666666667 223.84615384615387,316.6666666666667 C242.05128205128207,316.6666666666667 260.2564102564103,305.55555555555554 278.46153846153845,305.55555555555554 C296.6666666666667,305.55555555555554 314.87179487179486,305.55555555555554 333.0769230769231,305.55555555555554 C351.2820512820513,305.55555555555554 369.4871794871795,298.14814814814815 387.69230769230774,294.44444444444446 C405.8974358974359,290.74074074074076 424.1025641025641,283.33333333333337 442.30769230769226,283.33333333333337 C460.5128205128205,283.33333333333337 478.71794871794873,283.33333333333337 496.92307692307696,283.33333333333337 C515.1282051282052,283.33333333333337 533.3333333333334,294.44444444444446 551.5384615384615,294.44444444444446 C569.7435897435897,294.44444444444446 587.948717948718,294.44444444444446 606.1538461538462,294.44444444444446 C624.3589743589744,294.44444444444446 642.5641025641025,264.8148148148148 660.7692307692307,250 C678.974358974359,235.18518518518516 697.1794871794872,233.33333333333343 715.3846153846155,205.55555555555557 C733.5897435897436,177.77777777777783 751.7948717948718,124.0740740740741 770,83.33333333333337" fill="none" stroke="#dfb317" stroke-width="2.5" class="data-line-0" />
  <g class="points">
    
    <circle cx="60" cy="316.6666666666667" r="4" fill="#dfb317" class="data-point" style="animation-delay: 1.50s" />
    <circle cx="114.61538461538461" cy="316.6666666666667" r="4" fill="#dfb317" class="data-point" style="animation-delay: 1.55s" />
    <circle cx="169.23076923076923" cy="316.6666666666667" r="4" fill="#dfb317" class="data-point" style="animation-delay: 1.60s" />
    <circle cx="223.84615384615387" cy="316.6666666666667" r="4" fill="#dfb317" class="data-point" style="animation-delay: 1.65s" />
    <circle cx="278.46153846153845" cy="305.55555555555554" r="4" fill="#dfb317" class="data-point" style="animation-delay: 1.70s" />
    <circle cx="333.0769230769231" cy="305.55555555555554" r="4" fill="#dfb317" class="data-point" style="animation-delay: 1.75s" />
    <circle cx="387.69230769230774" cy="294.44444444444446" r="4" fill="#dfb317" class="data-point" style="animation-delay: 1.80s" />
    <circle cx="442.30769230769226" cy="283.33333333333337" r="4" fill="#dfb317" class="data-point" style="animation-delay: 1.85s" />
    <circle cx="496.92307692307696" cy="283.33333333333337" r="4" fill="#dfb317" class="data-point" style="animation-delay: 1.90s" />
    <circle cx="551.5384615384615" cy="294.44444444444446" r="4" fill="#dfb317" class="data-point" style="animation-delay: 1.95s" />
    <circle cx="606.1538461538462" cy="294.44444444444446" r="4" fill="#dfb317" class="data-point" style="animation-delay: 2.00s" />
    <circle cx="660.7692307692307" cy="250" r="4" fill="#dfb317" class="data-point" style="animation-delay: 2.05s" />
    <circle cx="715.3846153846155" cy="205.55555555555557" r="4" fill="#dfb317" class="data-point" style="animation-delay: 2.10s" />
    <circle cx="770" cy="83.33333333333337" r="4" fill="#dfb317" class="data-point" style="animation-delay: 2.15s" />
  </g>
</svg>