<svg xmlns="http://www.w3.org/2000/svg" viewBox="0 0 800 400" width="800" height="400">
  <style>
    @keyframes drawLine {
      to { stroke-dashoffset: 0; }
    }
    @keyframes fadeInPoint {
      from { opacity: 0; }
      to { opacity: 1; }
    }
    .data-line-0 {
      stroke-dasharray: 1167;
      stroke-dashoffset: 1167;
      animation: drawLine 2s ease-out forwards;
    }
    .data-point {
      opacity: 0;
      animation: fadeInPoint 0.5s ease-out forwards;
    }
    .chart-bg { fill: #fff; }
    .chart-text { fill: #24292e; }
    .chart-muted { fill: #6a737d; }
    .chart-grid { stroke: #eee; }
    .chart-axis { stroke: #6a737d; }
    @media (prefers-color-scheme: dark) {
      .chart-bg { fill: #0d1117; }
      .chart-text { fill: #e6edf3; }
      .chart-muted { fill: #8b949e; }
      .chart-grid { stroke: #21262d; }
      .chart-axis { stroke: #8b949e; }
    }
  </style>
  <rect width="800" height="400" class="chart-bg" />
  <text x="400" y="14" text-anchor="middle" class="chart-text" font-size="16" font-weight="bold" font-family="-apple-system, BlinkMacSystemFont, 'Segoe UI', Helvetica, Arial, sans-serif">SteamGridDB/steam-rom-manager Star History</text>
  
  <g class="grid">
    <line x1="60" y1="350" x2="770" y2="350" class="chart-grid" stroke-opacity="0.3" />
    <text x="52" y="354" text-anchor="end" class="chart-muted" font-size="11" font-family="-apple-system, BlinkMacSystemFont, 'Segoe UI', Helvetica, Arial, sans-serif">0</text>
    <line x1="60" y1="295.0146627565982" x2="770" y2="295.0146627565982" class="chart-grid" stroke-opacity="0.3" />
    <text x="52" y="299.0146627565982" text-anchor="end" class="chart-muted" font-size="11" font-family="-apple-system, BlinkMacSystemFont, 'Segoe UI', Helvetica, Arial, sans-serif">500</text>
    <line x1="60" y1="240.02932551319648" x2="770" y2="240.02932551319648" class="chart-grid" stroke-opacity="0.3" />
    <text x="52" y="244.02932551319648" text-anchor="end" class="chart-muted" font-size="11" font-family="-apple-system, BlinkMacSystemFont, 'Segoe UI', Helvetica, Arial, sans-serif">1K</text>
    <line x1="60" y1="185.04398826979474" x2="770" y2="185.04398826979474" class="chart-grid" stroke-opacity="0.3" />
    <text x="52" y="189.04398826979474" text-anchor="end" class="chart-muted" font-size="11" font-family="-apple-system, BlinkMacSystemFont, 'Segoe UI', Helvetica, Arial, sans-serif">1.5K</text>
    <line x1="60" y1="130.05865102639297" x2="770" y2="130.05865102639297" class="chart-grid" stroke-opacity="0.3" />
    <text x="52" y="134.05865102639297" text-anchor="end" class="chart-muted" font-size="11" font-family="-apple-system, BlinkMacSystemFont, 'Segoe UI', Helvetica, Arial, sans-serif">2K</text>
    <line x1="60" y1="75.07331378299119" x2="770" y2="75.07331378299119" class="chart-grid" stroke-opacity="0.3" />
    <text x="52" y="79.07331378299119" text-anchor="end" class="chart-muted" font-size="11" font-family="-apple-system, BlinkMacSystemFont, 'Segoe UI', Helvetica, Arial, sans-serif">2.5K</text>
  </g>
  <g class="milestones">
    
  </g>
  <g class="x-axis">
    <text x="60" y="370" text-anchor="middle" class="chart-muted" font-size="11" font-family="-apple-system, BlinkMacSystemFont, 'Segoe UI', Helvetica, Arial, sans-serif">2017</text>
    <text x="133.44827586206895" y="370" text-anchor="middle" class="chart-muted" font-size="11" font-family="-apple-system, BlinkMacSystemFont, 'Segoe UI', Helvetica, Arial, sans-serif">2018</text>
    <text x="206.89655172413794" y="370" text-anchor="middle" class="chart-muted" font-size="11" font-family="-apple-system, BlinkMacSystemFont, 'Segoe UI', Helvetica, Arial, sans-serif">2019</text>
    <text x="280.34482758620686" y="370" text-anchor="middle" class="chart-muted" font-size="11" font-family="-apple-system, BlinkMacSystemFont, 'Segoe UI', Helvetica, Arial, sans-serif">2020</text>
    <text x="353.7931034482759" y="370" text-anchor="middle" class="chart-muted" font-size="11" font-family="-apple-system, BlinkMacSystemFont, 'Segoe UI', Helvetica, Arial, sans-serif">2021</text>
    <text x="427.2413793103448" y="370" text-anchor="middle" class="chart-muted" font-size="11" font-family="-apple-system, BlinkMacSystemFont, 'Segoe UI', Helvetica, Arial, sans-serif">2022</text>
    <text x="500.6896551724138" y="370" text-anchor="middle" class="chart-muted" font-size="11" font-family="-apple-system, BlinkMacSystemFont, 'Segoe UI', Helvetica, Arial, sans-serif">2023</text>
    <text x="574.1379310344828" y="370" text-anchor="middle" class="chart-muted" font-size="11" font-family="-apple-system, BlinkMacSystemFont, 'Segoe UI', Helvetica, Arial, sans-serif">2024</text>
    <text x="672.0689655172414" y="370" text-anchor="middle" class="chart-muted" font-size="11" font-family="-apple-system, BlinkMacSystemFont, 'Segoe UI', Helvetica, Arial, sans-serif">2025</text>
    <text x="745.5172413793103" y="370" text-anchor="middle" class="chart-muted" font-size="11" font-family="-apple-system, BlinkMacSystemFont, 'Segoe UI', Helvetica, Arial, sans-serif">2026</text>
  </g>
  <line x1="60" y1="50" x2="60" y2="350" class="chart-axis" stroke-width="1" />
  <line x1="60" y1="350" x2="770" y2="350" class="chart-axis" stroke-width="1" />
  <path d="M60,350 L60,349.8900293255132 C68.16091954022988,347.3240469208211 76.32183908045977,344.1348973607038 84.48275862068965,342.19208211143695 C92.64367816091954,340.2492668621701 100.80459770114942,339.49780058651027 108.9655172413793,338.23313782991204 C117.12643678160919,336.9684750733138 125.28735632183907,335.758797653959 133.44827586206895,334.6041055718475 C141.60919540229884,333.44941348973606 149.77011494252872,332.60630498533726 157.9310344827586,331.3049853372434 C166.0919540229885,330.00366568914956 174.2528735632184,328.13416422287395 182.41379310344828,326.7961876832845 C190.57471264367817,325.45821114369505 198.73563218390805,324.26686217008796 206.89655172413794,323.2771260997067 C215.05747126436782,322.2873900293255 223.2183908045977,321.5909090909091 231.3793103448276,320.8577712609971 C239.54022988505747,320.12463343108504 247.70114942528735,319.59310850439886 255.86206896551724,318.8782991202346 C264.0229885057471,318.1634897360704 272.183908045977,317.90689149560114 280.34482758620686,316.5689149560117 C288.50574712643675,315.2309384164223 296.6666666666667,312.1151026392962 304.82758620689657,310.85043988269797 C312.98850574712645,309.58577712609974 321.14942528735634,309.7324046920821 329.3103448275862,308.9809384164223 C337.4712643678161,308.2294721407625 345.632183908046,307.349706744868 353.7931034482759,306.341642228739 C361.95402298850576,305.33357771260995 370.11494252873564,304.61876832844575 378.2758620689655,302.9325513196481 C386.4367816091954,301.24633431085044 394.5977011494253,299.1568914956012 402.7586206896552,296.2243401759531 C410.91954022988506,293.291788856305 419.08045977011494,291.22067448680355 427.2413793103448,285.33724340175957 C435.4022988505747,279.4538123167156 443.5632183908046,268.4384164222874 451.7241379310345,260.92375366568916 C459.88505747126436,253.4090909090909 468.04597701149424,246.3343108504399 476.2068965517241,240.2492668621701 C484.367816091954,234.1642228739003 492.5287356321839,230.05865102639294 500.6896551724138,224.41348973607037 C508.85057471264366,218.76832844574778 517.0114942528736,211.49193548387098 525.1724137931035,206.3782991202346 C533.3333333333334,201.26466275659826 541.4942528735633,198.16715542521996 549.6551724137931,193.73167155425222 C557.816091954023,189.29618768328447 565.9770114942529,184.1825513196481 574.1379310344828,179.76539589442814 C582.2988505747127,175.34824046920818 590.4597701149426,171.3709677419355 598.6206896551724,167.22873900293254 C606.7816091954023,163.0865102639296 614.9425287356322,159.0542521994135 623.1034482758621,154.91202346041055 C631.264367816092,150.7697947214076 639.4252873563219,146.49926686217006 647.5862068965517,142.37536656891493 C655.7471264367816,138.2514662756598 663.9080459770115,133.92595307917887 672.0689655172414,130.16862170087975 C680.2298850574713,126.41129032258064 688.3908045977012,123.66202346041057 696.551724137931,119.83137829912025 C704.7126436781609,116.00073313782993 712.8735632183908,111.78519061583577 721.0344827586207,107.18475073313783 C729.1954022988506,102.58431085043989 737.3563218390805,97.21407624633433 745.5172413793103,92.22873900293257 C753.6781609195402,87.24340175953081 761.8390804597701,82.25806451612907 770,77.27272727272731 L770,350 L60,350 Z" fill="#dfb317" fill-opacity="0.1" />
  <path d="M60,350 L60,349.8900293255132 C68.16091954022988,347.3240469208211 76.32183908045977,344.1348973607038 84.48275862068965,342.19208211143695 C92.64367816091954,340.2492668621701 100.80459770114942,339.49780058651027 108.9655172413793,338.23313782991204 C117.12643678160919,336.9684750733138 125.28735632183907,335.758797653959 133.44827586206895,334.6041055718475 C141.60919540229884,333.44941348973606 149.77011494252872,332.60630498533726 157.9310344827586,331.3049853372434 C166.0919540229885,330.00366568914956 174.2528735632184,328.13416422287395 182.41379310344828,326.7961876832845 C190.57471264367817,325.45821114369505 198.73563218390805,324.26686217008796 206.89655172413794,323.2771260997067 C215.05747126436782,322.2873900293255 223.2183908045977,321.5909090909091 231.3793103448276,320.8577712609971 C239.54022988505747,320.12463343108504 247.70114942528735,319.59310850439886 255.86206896551724,318.8782991202346 C264.0229885057471,318.1634897360704 272.183908045977,317.90689149560114 280.34482758620686,316.5689149560117 C288.50574712643675,315.2309384164223 296.6666666666667,312.1151026392962 304.82758620689657,310.85043988269797 C312.98850574712645,309.58577712609974 321.14942528735634,309.7324046920821 329.3103448275862,308.9809384164223 C337.4712643678161,308.2294721407625 345.632183908046,307.349706744868 353.7931034482759,306.341642228739 C361.95402298850576,305.33357771260995 370.11494252873564,304.61876832844575 378.2758620689655,302.9325513196481 C386.4367816091954,301.24633431085044 394.5977011494253,299.1568914956012 402.7586206896552,296.2243401759531 C410.91954022988506,293.291788856305 419.08045977011494,291.22067448680355 427.2413793103448,285.33724340175957 C435.4022988505747,279.4538123167156 443.5632183908046,268.4384164222874 451.7241379310345,260.92375366568916 C459.88505747126436,253.4090909090909 468.04597701149424,246.3343108504399 476.2068965517241,240.2492668621701 C484.367816091954,234.1642228739003 492.5287356321839,230.05865102639294 500.6896551724138,224.41348973607037 C508.85057471264366,218.76832844574778 517.0114942528736,211.49193548387098 525.1724137931035,206.3782991202346 C533.3333333333334,201.26466275659826 541.4942528735633,198.16715542521996 549.6551724137931,193.73167155425222 C557.816091954023,189.29618768328447 565.9770114942529,184.1825513196481 574.1379310344828,179.76539589442814 C582.2988505747127,175.34824046920818 590.4597701149426,171.3709677419355 598.6206896551724,167.22873900293254 C606.7816091954023,163.0865102639296 614.9425287356322,159.0542521994135 623.1034482758621,154.91202346041055 C631.264367816092,150.7697947214076 639.4252873563219,146.49926686217006 647.5862068965517,142.37536656891493 C655.7471264367816,138.2514662756598 663.9080459770115,133.92595307917887 672.0689655172414,130.16862170087975 C680.2298850574713,126.41129032258064 688.3908045977012,123.66202346041057 696.551724137931,119.83137829912025 C704.7126436781609,116.00073313782993 712.8735632183908,111.78519061583577 721.0344827586207,107.18475073313783 C729.1954022988506,102.58431085043989 737.3563218390805,97.21407624633433 745.5172413793103,92.22873900293257 C753.6781609195402,87.24340175953081 761.8390804597701,82.25806451612907 770,77.27272727272731" fill="none" stroke="#dfb317" stroke-width="2.5" class="data-line-0" />
  <g class="points">
    
    <circle cx="60" cy="349.8900293255132" r="4" fill="#dfb317" class="data-point" style="animation-delay: 1.50s" />
    <circle cx="84.48275862068965" cy="342.19208211143695" r="4" fill="#dfb317" class="data-point" style="animation-delay: 1.55s" />
    <circle cx="108.9655172413793" cy="338.23313782991204" r="4" fill="#dfb317" class="data-point" style="animation-delay: 1.60s" />
    <circle cx="133.44827586206895" cy="334.6041055718475" r="4" fill="#dfb317" class="data-point" style="animation-delay: 1.65s" />
    <circle cx="157.9310344827586" cy="331.3049853372434" r="4" fill="#dfb317" class="data-point" style="animation-delay: 1.70s" />
    <circle cx="182.41379310344828" cy="326.7961876832845" r="4" fill="#dfb317" class="data-point" style="animation-delay: 1.75s" />
    <circle cx="206.89655172413794" cy="323.2771260997067" r="4" fill="#dfb317" class="data-point" style="animation-delay: 1.80s" />
    <circle cx="231.3793103448276" cy="320.8577712609971" r="4" fill="#dfb317" class="data-point" style="animation-delay: 1.85s" />
    <circle cx="255.86206896551724" cy="318.8782991202346" r="4" fill="#dfb317" class="data-point" style="animation-delay: 1.90s" />
    <circle cx="280.34482758620686" cy="316.5689149560117" r="4" fill="#dfb317" class="data-point" style="animation-delay: 1.95s" />
    <circle cx="304.82758620689657" cy="310.85043988269797" r="4" fill="#dfb317" class="data-point" style="animation-delay: 2.00s" />
    <circle cx="329.3103448275862" cy="308.9809384164223" r="4" fill="#dfb317" class="data-point" style="animation-delay: 2.05s" />
    <circle cx="353.7931034482759" cy="306.341642228739" r="4" fill="#dfb317" class="data-point" style="animation-delay: 2.10s" />
    <circle cx="378.2758620689655" cy="302.9325513196481" r="4" fill="#dfb317" class="data-point" style="animation-delay: 2.15s" />
    <circle cx="402.7586206896552" cy="296.2243401759531" r="4" fill="#dfb317" class="data-point" style="animation-delay: 2.20s" />
    <circle cx="427.2413793103448" cy="285.33724340175957" r="4" fill="#dfb317" class="data-point" style="animation-delay: 2.25s" />
    <circle cx="451.7241379310345" cy="260.92375366568916" r="4" fill="#dfb317" class="data-point" style="animation-delay: 2.30s" />
    <circle cx="476.2068965517241" cy="240.2492668621701" r="4" fill="#dfb317" class="data-point" style="animation-delay: 2.35s" />
    <circle cx="500.6896551724138" cy="224.41348973607037" r="4" fill="#dfb317" class="data-point" style="animation-delay: 2.40s" />
    <circle cx="525.1724137931035" cy="206.3782991202346" r="4" fill="#dfb317" class="data-point" style="animation-delay: 2.45s" />
    <circle cx="549.6551724137931" cy="193.73167155425222" r="4" fill="#dfb317" class="data-point" style="animation-delay: 2.50s" />
    <circle cx="574.1379310344828" cy="179.76539589442814" r="4" fill="#dfb317" class="data-point" style="animation-delay: 2.55s" />
    <circle cx="598.6206896551724" cy="167.22873900293254" r="4" fill="#dfb317" class="data-point" style="animation-delay: 2.60s" />
    <circle cx="623.1034482758621" cy="154.91202346041055" r="4" fill="#dfb317" class="data-point" style="animation-delay: 2.65s" />
    <circle cx="647.5862068965517" cy="142.37536656891493" r="4" fill="#dfb317" class="data-point" style="animation-delay: 2.70s" />
    <circle cx="672.0689655172414" cy="130.16862170087975" r="4" fill="#dfb317" class="data-point" style="animation-delay: 2.75s" />
    <circle cx="696.551724137931" cy="119.83137829912025" r="4" fill="#dfb317" class="data-point" style="animation-delay: 2.80s" />
    <circle cx="721.0344827586207" cy="107.18475073313783" r="4" fill="#dfb317" class="data-point" style="animation-delay: 2.85s" />
    <circle cx="745.5172413793103" cy="92.22873900293257" r="4" fill="#dfb317" class="data-point" style="animation-delay: 2.90s" />
    <circle cx="770" cy="77.27272727272731" r="4" fill="#dfb317" class="data-point" style="animation-delay: 2.95s" />
  </g>
</svg>