<svg xmlns="http://www.w3.org/2000/svg" viewBox="0 0 800 400" width="800" height="400">
  <style>
    @keyframes drawLine {
      to { stroke-dashoffset: 0; }
    }
    @keyframes fadeInPoint {
      from { opacity: 0; }
      to { opacity: 1; }
    }
    .data-line-0 {
      stroke-dasharray: 1271;
      stroke-dashoffset: 1271;
      animation: drawLine 2s ease-out forwards;
    }
    .data-point {
      opacity: 0;
      animation: fadeInPoint 0.5s ease-out forwards;
    }
    .chart-bg { fill: #fff; }
    .chart-text { fill: #24292e; }
    .chart-muted { fill: #6a737d; }
    .chart-grid { stroke: #eee; }
    .chart-axis { stroke: #6a737d; }
    @media (prefers-color-scheme: dark) {
      .chart-bg { fill: #0d1117; }
      .chart-text { fill: #e6edf3; }
      .chart-muted { fill: #8b949e; }
      .chart-grid { stroke: #21262d; }
      .chart-axis { stroke: #8b949e; }
    }
  </style>
  <rect width="800" height="400" class="chart-bg" />
  <text x="400" y="14" text-anchor="middle" class="chart-text" font-size="16" font-weight="bold" font-family="-apple-system, BlinkMacSystemFont, 'Segoe UI', Helvetica, Arial, sans-serif">SteamGridDB/steam-rom-manager Star History</text>
  
  <g class="grid">
    <line x1="60" y1="350" x2="770" y2="350" class="chart-grid" stroke-opacity="0.3" />
    <text x="52" y="354" text-anchor="end" class="chart-muted" font-size="11" font-family="-apple-system, BlinkMacSystemFont, 'Segoe UI', Helvetica, Arial, sans-serif">2.5K</text>
    <line x1="60" y1="292.3076923076923" x2="770" y2="292.3076923076923" class="chart-grid" stroke-opacity="0.3" />
    <text x="52" y="296.3076923076923" text-anchor="end" class="chart-muted" font-size="11" font-family="-apple-system, BlinkMacSystemFont, 'Segoe UI', Helvetica, Arial, sans-serif">2.5K</text>
    <line x1="60" y1="234.6153846153846" x2="770" y2="234.6153846153846" class="chart-grid" stroke-opacity="0.3" />
    <text x="52" y="238.6153846153846" text-anchor="end" class="chart-muted" font-size="11" font-family="-apple-system, BlinkMacSystemFont, 'Segoe UI', Helvetica, Arial, sans-serif">2.5K</text>
    <line x1="60" y1="176.92307692307693" x2="770" y2="176.92307692307693" class="chart-grid" stroke-opacity="0.3" />
    <text x="52" y="180.92307692307693" text-anchor="end" class="chart-muted" font-size="11" font-family="-apple-system, BlinkMacSystemFont, 'Segoe UI', Helvetica, Arial, sans-serif">2.5K</text>
    <line x1="60" y1="119.23076923076923" x2="770" y2="119.23076923076923" class="chart-grid" stroke-opacity="0.3" />
    <text x="52" y="123.23076923076923" text-anchor="end" class="chart-muted" font-size="11" font-family="-apple-system, BlinkMacSystemFont, 'Segoe UI', Helvetica, Arial, sans-serif">2.5K</text>
    <line x1="60" y1="61.53846153846155" x2="770" y2="61.53846153846155" class="chart-grid" stroke-opacity="0.3" />
    <text x="52" y="65.53846153846155" text-anchor="end" class="chart-muted" font-size="11" font-family="-apple-system, BlinkMacSystemFont, 'Segoe UI', Helvetica, Arial, sans-serif">2.5K</text>
  </g>
  <g class="milestones">
    
  </g>
  <g class="x-axis">
    <text x="60" y="370" text-anchor="middle" class="chart-muted" font-size="11" font-family="-apple-system, BlinkMacSystemFont, 'Segoe UI', Helvetica, Arial, sans-serif">Jul 12</text>
    <text x="141.92307692307693" y="370" text-anchor="middle" class="chart-muted" font-size="11" font-family="-apple-system, BlinkMacSystemFont, 'Segoe UI', Helvetica, Arial, sans-serif">Jul 14</text>
    <text x="223.84615384615387" y="370" text-anchor="middle" class="chart-muted" font-size="11" font-family="-apple-system, BlinkMacSystemFont, 'Segoe UI', Helvetica, Arial, sans-serif">Jul 17</text>
    <text x="305.7692307692308" y="370" text-anchor="middle" class="chart-muted" font-size="11" font-family="-apple-system, BlinkMacSystemFont, 'Segoe UI', Helvetica, Arial, sans-serif">Jul 20</text>
    <text x="387.69230769230774" y="370" text-anchor="middle" class="chart-muted" font-size="11" font-family="-apple-system, BlinkMacSystemFont, 'Segoe UI', Helvetica, Arial, sans-serif">Jul 23</text>
    <text x="469.6153846153846" y="370" text-anchor="middle" class="chart-muted" font-size="11" font-family="-apple-system, BlinkMacSystemFont, 'Segoe UI', Helvetica, Arial, sans-serif">Jul 26</text>
    <text x="551.5384615384615" y="370" text-anchor="middle" class="chart-muted" font-size="11" font-family="-apple-system, BlinkMacSystemFont, 'Segoe UI', Helvetica, Arial, sans-serif">Jul 29</text>
    <text x="633.4615384615385" y="370" text-anchor="middle" class="chart-muted" font-size="11" font-family="-apple-system, BlinkMacSystemFont, 'Segoe UI', Helvetica, Arial, sans-serif">Aug 1</text>
    <text x="715.3846153846155" y="370" text-anchor="middle" class="chart-muted" font-size="11" font-family="-apple-system, BlinkMacSystemFont, 'Segoe UI', Helvetica, Arial, sans-serif">Aug 4</text>
    <text x="770" y="370" text-anchor="middle" class="chart-muted" font-size="11" font-family="-apple-system, BlinkMacSystemFont, 'Segoe UI', Helvetica, Arial, sans-serif">Aug 6</text>
  </g>
  <line x1="60" y1="50" x2="60" y2="350" class="chart-axis" stroke-width="1" />
  <line x1="60" y1="350" x2="770" y2="350" class="chart-axis" stroke-width="1" />
  <path d="M60,350 L60,303.84615384615387 C69.1025641025641,303.84615384615387 78.2051282051282,303.84615384615387 87.3076923076923,303.84615384615387 C96.41025641025641,303.84615384615387 105.51282051282051,303.84615384615387 114.61538461538461,303.84615384615387 C123.71794871794872,303.84615384615387 132.82051282051282,303.84615384615387 141.92307692307693,303.84615384615387 C151.02564102564102,303.84615384615387 160.12820512820514,298.0769230769231 169.23076923076923,298.0769230769231 C178.33333333333334,298.0769230769231 187.43589743589743,298.0769230769231 196.53846153846155,298.0769230769231 C205.64102564102566,298.0769230769231 214.74358974358975,294.2307692307692 223.84615384615387,292.3076923076923 C232.94871794871796,290.3846153846154 242.05128205128204,286.53846153846155 251.15384615384613,286.53846153846155 C260.2564102564102,286.53846153846155 269.35897435897436,286.53846153846155 278.46153846153845,286.53846153846155 C287.56410256410254,286.53846153846155 296.6666666666667,292.3076923076923 305.7692307692308,292.3076923076923 C314.87179487179486,292.3076923076923 323.974358974359,292.3076923076923 333.0769230769231,292.3076923076923 C342.1794871794872,292.3076923076923 351.28205128205127,276.9230769230769 360.38461538461536,269.2307692307692 C369.4871794871795,261.5384615384615 378.5897435897436,260.57692307692315 387.69230769230774,246.15384615384616 C396.7948717948718,231.73076923076925 405.8974358974359,194.2307692307692 415,182.69230769230768 C424.1025641025641,171.15384615384616 433.2051282051282,171.15384615384616 442.30769230769226,171.15384615384616 C451.41025641025635,171.15384615384616 460.5128205128205,176.92307692307693 469.6153846153846,176.92307692307693 C478.71794871794873,176.92307692307693 487.8205128205128,176.92307692307693 496.92307692307696,176.92307692307693 C506.02564102564105,176.92307692307693 515.1282051282052,169.23076923076923 524.2307692307693,165.3846153846154 C533.3333333333334,161.53846153846155 542.4358974358975,153.84615384615384 551.5384615384615,153.84615384615384 C560.6410256410256,153.84615384615384 569.7435897435897,153.84615384615384 578.8461538461538,153.84615384615384 C587.9487179487179,153.84615384615384 597.0512820512821,150.96153846153845 606.1538461538462,148.07692307692307 C615.2564102564103,145.19230769230768 624.3589743589744,143.26923076923075 633.4615384615385,136.53846153846152 C642.5641025641025,129.8076923076923 651.6666666666666,115.38461538461536 660.7692307692307,107.69230769230768 C669.8717948717948,99.99999999999997 678.974358974359,94.2307692307692 688.0769230769231,90.38461538461536 C697.1794871794872,86.53846153846152 706.2820512820514,86.53846153846156 715.3846153846155,84.61538461538464 C724.4871794871796,82.69230769230774 733.5897435897436,80.7692307692308 742.6923076923077,78.84615384615387 C751.7948717948718,76.92307692307693 760.8974358974359,74.99999999999999 770,73.07692307692304 L770,350 L60,350 Z" fill="#dfb317" fill-opacity="0.1" />
  <path d="M60,350 L60,303.84615384615387 C69.1025641025641,303.84615384615387 78.2051282051282,303.84615384615387 87.3076923076923,303.84615384615387 C96.41025641025641,303.84615384615387 105.51282051282051,303.84615384615387 114.61538461538461,303.84615384615387 C123.71794871794872,303.84615384615387 132.82051282051282,303.84615384615387 141.92307692307693,303.84615384615387 C151.02564102564102,303.84615384615387 160.12820512820514,298.0769230769231 169.23076923076923,298.0769230769231 C178.33333333333334,298.0769230769231 187.43589743589743,298.0769230769231 196.53846153846155,298.0769230769231 C205.64102564102566,298.0769230769231 214.74358974358975,294.2307692307692 223.84615384615387,292.3076923076923 C232.94871794871796,290.3846153846154 242.05128205128204,286.53846153846155 251.15384615384613,286.53846153846155 C260.2564102564102,286.53846153846155 269.35897435897436,286.53846153846155 278.46153846153845,286.53846153846155 C287.56410256410254,286.53846153846155 296.6666666666667,292.3076923076923 305.7692307692308,292.3076923076923 C314.87179487179486,292.3076923076923 323.974358974359,292.3076923076923 333.0769230769231,292.3076923076923 C342.1794871794872,292.3076923076923 351.28205128205127,276.9230769230769 360.38461538461536,269.2307692307692 C369.4871794871795,261.5384615384615 378.5897435897436,260.57692307692315 387.69230769230774,246.15384615384616 C396.7948717948718,231.73076923076925 405.8974358974359,194.2307692307692 415,182.69230769230768 C424.1025641025641,171.15384615384616 433.2051282051282,171.15384615384616 442.30769230769226,171.15384615384616 C451.41025641025635,171.15384615384616 460.5128205128205,176.92307692307693 469.6153846153846,176.92307692307693 C478.71794871794873,176.92307692307693 487.8205128205128,176.92307692307693 496.92307692307696,176.92307692307693 C506.02564102564105,176.92307692307693 515.1282051282052,169.23076923076923 524.2307692307693,165.3846153846154 C533.3333333333334,161.53846153846155 542.4358974358975,153.84615384615384 551.5384615384615,153.84615384615384 C560.6410256410256,153.84615384615384 569.7435897435897,153.84615384615384 578.8461538461538,153.84615384615384 C587.9487179487179,153.84615384615384 597.0512820512821,150.96153846153845 606.1538461538462,148.07692307692307 C615.2564102564103,145.19230769230768 624.3589743589744,143.26923076923075 633.4615384615385,136.53846153846152 C642.5641025641025,129.8076923076923 651.6666666666666,115.38461538461536 660.7692307692307,107.69230769230768 C669.8717948717948,99.99999999999997 678.974358974359,94.2307692307692 688.0769230769231,90.38461538461536 C697.1794871794872,86.53846153846152 706.2820512820514,86.53846153846156 715.3846153846155,84.61538461538464 C724.4871794871796,82.69230769230774 733.5897435897436,80.7692307692308 742.6923076923077,78.84615384615387 C751.7948717948718,76.92307692307693 760.8974358974359,74.99999999999999 770,73.07692307692304" fill="none" stroke="#dfb317" stroke-width="2.5" class="data-line-0" />
  <g class="points">
    
    <circle cx="60" cy="303.84615384615387" r="4" fill="#dfb317" class="data-point" style="animation-delay: 1.50s" />
    <circle cx="87.3076923076923" cy="303.84615384615387" r="4" fill="#dfb317" class="data-point" style="animation-delay: 1.55s" />
    <circle cx="114.61538461538461" cy="303.84615384615387" r="4" fill="#dfb317" class="data-point" style="animation-delay: 1.60s" />
    <circle cx="141.92307692307693" cy="303.84615384615387" r="4" fill="#dfb317" class="data-point" style="animation-delay: 1.65s" />
    <circle cx="169.23076923076923" cy="298.0769230769231" r="4" fill="#dfb317" class="data-point" style="animation-delay: 1.70s" />
    <circle cx="196.53846153846155" cy="298.0769230769231" r="4" fill="#dfb317" class="data-point" style="animation-delay: 1.75s" />
    <circle cx="223.84615384615387" cy="292.3076923076923" r="4" fill="#dfb317" class="data-point" style="animation-delay: 1.80s" />
    <circle cx="251.15384615384613" cy="286.53846153846155" r="4" fill="#dfb317" class="data-point" style="animation-delay: 1.85s" />
    <circle cx="278.46153846153845" cy="286.53846153846155" r="4" fill="#dfb317" class="data-point" style="animation-delay: 1.90s" />
    <circle cx="305.7692307692308" cy="292.3076923076923" r="4" fill="#dfb317" class="data-point" style="animation-delay: 1.95s" />
    <circle cx="333.0769230769231" cy="292.3076923076923" r="4" fill="#dfb317" class="data-point" style="animation-delay: 2.00s" />
    <circle cx="360.38461538461536" cy="269.2307692307692" r="4" fill="#dfb317" class="data-point" style="animation-delay: 2.05s" />
    <circle cx="387.69230769230774" cy="246.15384615384616" r="4" fill="#dfb317" class="data-point" style="animation-delay: 2.10s" />
    <circle cx="415" cy="182.69230769230768" r="4" fill="#dfb317" class="data-point" style="animation-delay: 2.15s" />
    <circle cx="442.30769230769226" cy="171.15384615384616" r="4" fill="#dfb317" class="data-point" style="animation-delay: 2.20s" />
    <circle cx="469.6153846153846" cy="176.92307692307693" r="4" fill="#dfb317" class="data-point" style="animation-delay: 2.25s" />
    <circle cx="496.92307692307696" cy="176.92307692307693" r="4" fill="#dfb317" class="data-point" style="animation-delay: 2.30s" />
    <circle cx="524.2307692307693" cy="165.3846153846154" r="4" fill="#dfb317" class="data-point" style="animation-delay: 2.35s" />
    <circle cx="551.5384615384615" cy="153.84615384615384" r="4" fill="#dfb317" class="data-point" style="animation-delay: 2.40s" />
    <circle cx="578.8461538461538" cy="153.84615384615384" r="4" fill="#dfb317" class="data-point" style="animation-delay: 2.45s" />
    <circle cx="606.1538461538462" cy="148.07692307692307" r="4" fill="#dfb317" class="data-point" style="animation-delay: 2.50s" />
    <circle cx="633.4615384615385" cy="136.53846153846152" r="4" fill="#dfb317" class="data-point" style="animation-delay: 2.55s" />
    <circle cx="660.7692307692307" cy="107.69230769230768" r="4" fill="#dfb317" class="data-point" style="animation-delay: 2.60s" />
    <circle cx="688.0769230769231" cy="90.38461538461536" r="4" fill="#dfb317" class="data-point" style="animation-delay: 2.65s" />
    <circle cx="715.3846153846155" cy="84.61538461538464" r="4" fill="#dfb317" class="data-point" style="animation-delay: 2.70s" />
    <circle cx="742.6923076923077" cy="78.84615384615387" r="4" fill="#dfb317" class="data-point" style="animation-delay: 2.75s" />
    <circle cx="770" cy="73.07692307692304" r="4" fill="#dfb317" class="data-point" style="animation-delay: 2.80s" />
  </g>
</svg>