<svg xmlns="http://www.w3.org/2000/svg" viewBox="0 0 800 400" width="800" height="400">
  <style>
    @keyframes drawLine {
      to { stroke-dashoffset: 0; }
    }
    @keyframes fadeInPoint {
      from { opacity: 0; }
      to { opacity: 1; }
    }
    .data-line-0 {
      stroke-dasharray: 1167;
      stroke-dashoffset: 1167;
      animation: drawLine 2s ease-out forwards;
    }
    .data-point {
      opacity: 0;
      animation: fadeInPoint 0.5s ease-out forwards;
    }
    .chart-bg { fill: #fff; }
    .chart-text { fill: #24292e; }
    .chart-muted { fill: #6a737d; }
    .chart-grid { stroke: #eee; }
    .chart-axis { stroke: #6a737d; }
    @media (prefers-color-scheme: dark) {
      .chart-bg { fill: #0d1117; }
      .chart-text { fill: #e6edf3; }
      .chart-muted { fill: #8b949e; }
      .chart-grid { stroke: #21262d; }
      .chart-axis { stroke: #8b949e; }
    }
  </style>
  <rect width="800" height="400" class="chart-bg" />
  <text x="400" y="14" text-anchor="middle" class="chart-text" font-size="16" font-weight="bold" font-family="-apple-system, BlinkMacSystemFont, 'Segoe UI', Helvetica, Arial, sans-serif">SteamGridDB/steam-rom-manager Star History</text>
  
  <g class="grid">
    <line x1="60" y1="350" x2="770" y2="350" class="chart-grid" stroke-opacity="0.3" />
    <text x="52" y="354" text-anchor="end" class="chart-muted" font-size="11" font-family="-apple-system, BlinkMacSystemFont, 'Segoe UI', Helvetica, Arial, sans-serif">0</text>
    <line x1="60" y1="295.1152579582876" x2="770" y2="295.1152579582876" class="chart-grid" stroke-opacity="0.3" />
    <text x="52" y="299.1152579582876" text-anchor="end" class="chart-muted" font-size="11" font-family="-apple-system, BlinkMacSystemFont, 'Segoe UI', Helvetica, Arial, sans-serif">500</text>
    <line x1="60" y1="240.2305159165752" x2="770" y2="240.2305159165752" class="chart-grid" stroke-opacity="0.3" />
    <text x="52" y="244.2305159165752" text-anchor="end" class="chart-muted" font-size="11" font-family="-apple-system, BlinkMacSystemFont, 'Segoe UI', Helvetica, Arial, sans-serif">1K</text>
    <line x1="60" y1="185.34577387486277" x2="770" y2="185.34577387486277" class="chart-grid" stroke-opacity="0.3" />
    <text x="52" y="189.34577387486277" text-anchor="end" class="chart-muted" font-size="11" font-family="-apple-system, BlinkMacSystemFont, 'Segoe UI', Helvetica, Arial, sans-serif">1.5K</text>
    <line x1="60" y1="130.4610318331504" x2="770" y2="130.4610318331504" class="chart-grid" stroke-opacity="0.3" />
    <text x="52" y="134.4610318331504" text-anchor="end" class="chart-muted" font-size="11" font-family="-apple-system, BlinkMacSystemFont, 'Segoe UI', Helvetica, Arial, sans-serif">2K</text>
    <line x1="60" y1="75.57628979143794" x2="770" y2="75.57628979143794" class="chart-grid" stroke-opacity="0.3" />
    <text x="52" y="79.57628979143794" text-anchor="end" class="chart-muted" font-size="11" font-family="-apple-system, BlinkMacSystemFont, 'Segoe UI', Helvetica, Arial, sans-serif">2.5K</text>
  </g>
  <g class="milestones">
    
  </g>
  <g class="x-axis">
    <text x="60" y="370" text-anchor="middle" class="chart-muted" font-size="11" font-family="-apple-system, BlinkMacSystemFont, 'Segoe UI', Helvetica, Arial, sans-serif">2017</text>
    <text x="133.44827586206895" y="370" text-anchor="middle" class="chart-muted" font-size="11" font-family="-apple-system, BlinkMacSystemFont, 'Segoe UI', Helvetica, Arial, sans-serif">2018</text>
    <text x="206.89655172413794" y="370" text-anchor="middle" class="chart-muted" font-size="11" font-family="-apple-system, BlinkMacSystemFont, 'Segoe UI', Helvetica, Arial, sans-serif">2019</text>
    <text x="280.34482758620686" y="370" text-anchor="middle" class="chart-muted" font-size="11" font-family="-apple-system, BlinkMacSystemFont, 'Segoe UI', Helvetica, Arial, sans-serif">2020</text>
    <text x="353.7931034482759" y="370" text-anchor="middle" class="chart-muted" font-size="11" font-family="-apple-system, BlinkMacSystemFont, 'Segoe UI', Helvetica, Arial, sans-serif">2021</text>
    <text x="427.2413793103448" y="370" text-anchor="middle" class="chart-muted" font-size="11" font-family="-apple-system, BlinkMacSystemFont, 'Segoe UI', Helvetica, Arial, sans-serif">2022</text>
    <text x="500.6896551724138" y="370" text-anchor="middle" class="chart-muted" font-size="11" font-family="-apple-system, BlinkMacSystemFont, 'Segoe UI', Helvetica, Arial, sans-serif">2023</text>
    <text x="574.1379310344828" y="370" text-anchor="middle" class="chart-muted" font-size="11" font-family="-apple-system, BlinkMacSystemFont, 'Segoe UI', Helvetica, Arial, sans-serif">2024</text>
    <text x="672.0689655172414" y="370" text-anchor="middle" class="chart-muted" font-size="11" font-family="-apple-system, BlinkMacSystemFont, 'Segoe UI', Helvetica, Arial, sans-serif">2025</text>
    <text x="745.5172413793103" y="370" text-anchor="middle" class="chart-muted" font-size="11" font-family="-apple-system, BlinkMacSystemFont, 'Segoe UI', Helvetica, Arial, sans-serif">2026</text>
  </g>
  <line x1="60" y1="50" x2="60" y2="350" class="chart-axis" stroke-width="1" />
  <line x1="60" y1="350" x2="770" y2="350" class="chart-axis" stroke-width="1" />
  <path d="M60,350 L60,349.8902305159166 C68.16091954022988,347.32894255397 76.32183908045977,344.1456275155507 84.48275862068965,342.20636663007684 C92.64367816091954,340.267105744603 100.80459770114942,339.517014270033 108.9655172413793,338.25466520307356 C117.12643678160919,336.99231613611414 125.28735632183907,335.78485181119646 133.44827586206895,334.6322722283205 C141.60919540229884,333.4796926454446 149.77011494252872,332.638126600805 157.9310344827586,331.3391877058178 C166.0919540229885,330.0402488108306 174.2528735632184,328.17416758141235 182.41379310344828,326.83863885839736 C190.57471264367817,325.50311013538237 198.73563218390805,324.3139407244786 206.89655172413794,323.3260153677278 C215.05747126436782,322.338090010977 223.2183908045977,321.6428832784486 231.3793103448276,320.91108671789243 C239.54022988505747,320.17929015733625 247.70114942528735,319.66703256494696 255.86206896551724,318.9352360043908 C264.0229885057471,318.2034394438346 272.183908045977,317.8558360775704 280.34482758620686,316.5203073545554 C288.50574712643675,315.18477863154044 296.6666666666667,312.1661178192462 304.82758620689657,310.92206366630074 C312.98850574712645,309.6780095133553 321.14942528735634,309.80607391145264 329.3103448275862,309.0559824368826 C337.4712643678161,308.3058909623125 345.632183908046,307.4277350896451 353.7931034482759,306.4215148188804 C361.95402298850576,305.41529454811564 370.11494252873564,304.70179290157336 378.2758620689655,303.0186608122942 C386.4367816091954,301.335528723015 394.5977011494253,299.24990852542993 402.7586206896552,296.3227222832053 C410.91954022988506,293.39553604098063 419.08045977011494,291.36480058543725 427.2413793103448,285.4555433589462 C435.4022988505747,279.5462861324552 443.5632183908046,268.38638858397366 451.7241379310345,260.86717892425906 C459.88505747126436,253.34796926454447 468.04597701149424,246.4324917672887 476.2068965517241,240.34028540065862 C484.367816091954,234.24807903402854 492.5287356321839,230.02195389681665 500.6896551724138,224.31394072447858 C508.85057471264366,218.60592755214049 517.0114942528736,211.15989754848152 525.1724137931035,206.09220636663008 C533.3333333333334,201.02451518477864 541.4942528735633,198.2619831686791 549.6551724137931,193.90779363336992 C557.816091954023,189.55360409806073 565.9770114942529,184.37614343212584 574.1379310344828,179.96706915477495 C582.2988505747127,175.55799487742405 590.4597701149426,171.6245883644347 598.6206896551724,167.45334796926454 C606.7816091954023,163.2821075740944 614.9425287356322,159.05598243688257 623.1034482758621,154.93962678375414 C631.264367816092,150.8232711306257 639.4252873563219,146.85327478960852 647.5862068965517,142.75521405049398 C655.7471264367816,138.65715331137943 663.9080459770115,134.1017197219173 672.0689655172414,130.35126234906696 C680.2298850574713,126.60080497621661 688.3908045977012,124.07610684229785 696.551724137931,120.25246981339188 C704.7126436781609,116.42883278448592 712.8735632183908,112.01975850713502 721.0344827586207,107.40944017563118 C729.1954022988506,102.79912184412733 737.3563218390805,97.60336626417855 745.5172413793103,92.59055982436882 C753.6781609195402,87.5777533845591 761.8390804597701,82.41858763263815 770,77.33260153677281 L770,350 L60,350 Z" fill="#dfb317" fill-opacity="0.1" />
  <path d="M60,350 L60,349.8902305159166 C68.16091954022988,347.32894255397 76.32183908045977,344.1456275155507 84.48275862068965,342.20636663007684 C92.64367816091954,340.267105744603 100.80459770114942,339.517014270033 108.9655172413793,338.25466520307356 C117.12643678160919,336.99231613611414 125.28735632183907,335.78485181119646 133.44827586206895,334.6322722283205 C141.60919540229884,333.4796926454446 149.77011494252872,332.638126600805 157.9310344827586,331.3391877058178 C166.0919540229885,330.0402488108306 174.2528735632184,328.17416758141235 182.41379310344828,326.83863885839736 C190.57471264367817,325.50311013538237 198.73563218390805,324.3139407244786 206.89655172413794,323.3260153677278 C215.05747126436782,322.338090010977 223.2183908045977,321.6428832784486 231.3793103448276,320.91108671789243 C239.54022988505747,320.17929015733625 247.70114942528735,319.66703256494696 255.86206896551724,318.9352360043908 C264.0229885057471,318.2034394438346 272.183908045977,317.8558360775704 280.34482758620686,316.5203073545554 C288.50574712643675,315.18477863154044 296.6666666666667,312.1661178192462 304.82758620689657,310.92206366630074 C312.98850574712645,309.6780095133553 321.14942528735634,309.80607391145264 329.3103448275862,309.0559824368826 C337.4712643678161,308.3058909623125 345.632183908046,307.4277350896451 353.7931034482759,306.4215148188804 C361.95402298850576,305.41529454811564 370.11494252873564,304.70179290157336 378.2758620689655,303.0186608122942 C386.4367816091954,301.335528723015 394.5977011494253,299.24990852542993 402.7586206896552,296.3227222832053 C410.91954022988506,293.39553604098063 419.08045977011494,291.36480058543725 427.2413793103448,285.4555433589462 C435.4022988505747,279.5462861324552 443.5632183908046,268.38638858397366 451.7241379310345,260.86717892425906 C459.88505747126436,253.34796926454447 468.04597701149424,246.4324917672887 476.2068965517241,240.34028540065862 C484.367816091954,234.24807903402854 492.5287356321839,230.02195389681665 500.6896551724138,224.31394072447858 C508.85057471264366,218.60592755214049 517.0114942528736,211.15989754848152 525.1724137931035,206.09220636663008 C533.3333333333334,201.02451518477864 541.4942528735633,198.2619831686791 549.6551724137931,193.90779363336992 C557.816091954023,189.55360409806073 565.9770114942529,184.37614343212584 574.1379310344828,179.96706915477495 C582.2988505747127,175.55799487742405 590.4597701149426,171.6245883644347 598.6206896551724,167.45334796926454 C606.7816091954023,163.2821075740944 614.9425287356322,159.05598243688257 623.1034482758621,154.93962678375414 C631.264367816092,150.8232711306257 639.4252873563219,146.85327478960852 647.5862068965517,142.75521405049398 C655.7471264367816,138.65715331137943 663.9080459770115,134.1017197219173 672.0689655172414,130.35126234906696 C680.2298850574713,126.60080497621661 688.3908045977012,124.07610684229785 696.551724137931,120.25246981339188 C704.7126436781609,116.42883278448592 712.8735632183908,112.01975850713502 721.0344827586207,107.40944017563118 C729.1954022988506,102.79912184412733 737.3563218390805,97.60336626417855 745.5172413793103,92.59055982436882 C753.6781609195402,87.5777533845591 761.8390804597701,82.41858763263815 770,77.33260153677281" fill="none" stroke="#dfb317" stroke-width="2.5" class="data-line-0" />
  <g class="points">
    
    <circle cx="60" cy="349.8902305159166" r="4" fill="#dfb317" class="data-point" style="animation-delay: 1.50s" />
    <circle cx="84.48275862068965" cy="342.20636663007684" r="4" fill="#dfb317" class="data-point" style="animation-delay: 1.55s" />
    <circle cx="108.9655172413793" cy="338.25466520307356" r="4" fill="#dfb317" class="data-point" style="animation-delay: 1.60s" />
    <circle cx="133.44827586206895" cy="334.6322722283205" r="4" fill="#dfb317" class="data-point" style="animation-delay: 1.65s" />
    <circle cx="157.9310344827586" cy="331.3391877058178" r="4" fill="#dfb317" class="data-point" style="animation-delay: 1.70s" />
    <circle cx="182.41379310344828" cy="326.83863885839736" r="4" fill="#dfb317" class="data-point" style="animation-delay: 1.75s" />
    <circle cx="206.89655172413794" cy="323.3260153677278" r="4" fill="#dfb317" class="data-point" style="animation-delay: 1.80s" />
    <circle cx="231.3793103448276" cy="320.91108671789243" r="4" fill="#dfb317" class="data-point" style="animation-delay: 1.85s" />
    <circle cx="255.86206896551724" cy="318.9352360043908" r="4" fill="#dfb317" class="data-point" style="animation-delay: 1.90s" />
    <circle cx="280.34482758620686" cy="316.5203073545554" r="4" fill="#dfb317" class="data-point" style="animation-delay: 1.95s" />
    <circle cx="304.82758620689657" cy="310.92206366630074" r="4" fill="#dfb317" class="data-point" style="animation-delay: 2.00s" />
    <circle cx="329.3103448275862" cy="309.0559824368826" r="4" fill="#dfb317" class="data-point" style="animation-delay: 2.05s" />
    <circle cx="353.7931034482759" cy="306.4215148188804" r="4" fill="#dfb317" class="data-point" style="animation-delay: 2.10s" />
    <circle cx="378.2758620689655" cy="303.0186608122942" r="4" fill="#dfb317" class="data-point" style="animation-delay: 2.15s" />
    <circle cx="402.7586206896552" cy="296.3227222832053" r="4" fill="#dfb317" class="data-point" style="animation-delay: 2.20s" />
    <circle cx="427.2413793103448" cy="285.4555433589462" r="4" fill="#dfb317" class="data-point" style="animation-delay: 2.25s" />
    <circle cx="451.7241379310345" cy="260.86717892425906" r="4" fill="#dfb317" class="data-point" style="animation-delay: 2.30s" />
    <circle cx="476.2068965517241" cy="240.34028540065862" r="4" fill="#dfb317" class="data-point" style="animation-delay: 2.35s" />
    <circle cx="500.6896551724138" cy="224.31394072447858" r="4" fill="#dfb317" class="data-point" style="animation-delay: 2.40s" />
    <circle cx="525.1724137931035" cy="206.09220636663008" r="4" fill="#dfb317" class="data-point" style="animation-delay: 2.45s" />
    <circle cx="549.6551724137931" cy="193.90779363336992" r="4" fill="#dfb317" class="data-point" style="animation-delay: 2.50s" />
    <circle cx="574.1379310344828" cy="179.96706915477495" r="4" fill="#dfb317" class="data-point" style="animation-delay: 2.55s" />
    <circle cx="598.6206896551724" cy="167.45334796926454" r="4" fill="#dfb317" class="data-point" style="animation-delay: 2.60s" />
    <circle cx="623.1034482758621" cy="154.93962678375414" r="4" fill="#dfb317" class="data-point" style="animation-delay: 2.65s" />
    <circle cx="647.5862068965517" cy="142.75521405049398" r="4" fill="#dfb317" class="data-point" style="animation-delay: 2.70s" />
    <circle cx="672.0689655172414" cy="130.35126234906696" r="4" fill="#dfb317" class="data-point" style="animation-delay: 2.75s" />
    <circle cx="696.551724137931" cy="120.25246981339188" r="4" fill="#dfb317" class="data-point" style="animation-delay: 2.80s" />
    <circle cx="721.0344827586207" cy="107.40944017563118" r="4" fill="#dfb317" class="data-point" style="animation-delay: 2.85s" />
    <circle cx="745.5172413793103" cy="92.59055982436882" r="4" fill="#dfb317" class="data-point" style="animation-delay: 2.90s" />
    <circle cx="770" cy="77.33260153677281" r="4" fill="#dfb317" class="data-point" style="animation-delay: 2.95s" />
  </g>
</svg>