<svg xmlns="http://www.w3.org/2000/svg" viewBox="0 0 800 400" width="800" height="400">
  <style>
    @keyframes drawLine {
      to { stroke-dashoffset: 0; }
    }
    @keyframes fadeInPoint {
      from { opacity: 0; }
      to { opacity: 1; }
    }
    .data-line-0 {
      stroke-dasharray: 1167;
      stroke-dashoffset: 1167;
      animation: drawLine 2s ease-out forwards;
    }
    .data-point {
      opacity: 0;
      animation: fadeInPoint 0.5s ease-out forwards;
    }
    .chart-bg { fill: #fff; }
    .chart-text { fill: #24292e; }
    .chart-muted { fill: #6a737d; }
    .chart-grid { stroke: #eee; }
    .chart-axis { stroke: #6a737d; }
    @media (prefers-color-scheme: dark) {
      .chart-bg { fill: #0d1117; }
      .chart-text { fill: #e6edf3; }
      .chart-muted { fill: #8b949e; }
      .chart-grid { stroke: #21262d; }
      .chart-axis { stroke: #8b949e; }
    }
  </style>
  <rect width="800" height="400" class="chart-bg" />
  <text x="400" y="14" text-anchor="middle" class="chart-text" font-size="16" font-weight="bold" font-family="-apple-system, BlinkMacSystemFont, 'Segoe UI', Helvetica, Arial, sans-serif">SteamGridDB/steam-rom-manager Star History</text>
  
  <g class="grid">
    <line x1="60" y1="350" x2="770" y2="350" class="chart-grid" stroke-opacity="0.3" />
    <text x="52" y="354" text-anchor="end" class="chart-muted" font-size="11" font-family="-apple-system, BlinkMacSystemFont, 'Segoe UI', Helvetica, Arial, sans-serif">0</text>
    <line x1="60" y1="295.0348112861854" x2="770" y2="295.0348112861854" class="chart-grid" stroke-opacity="0.3" />
    <text x="52" y="299.0348112861854" text-anchor="end" class="chart-muted" font-size="11" font-family="-apple-system, BlinkMacSystemFont, 'Segoe UI', Helvetica, Arial, sans-serif">500</text>
    <line x1="60" y1="240.06962257237083" x2="770" y2="240.06962257237083" class="chart-grid" stroke-opacity="0.3" />
    <text x="52" y="244.06962257237083" text-anchor="end" class="chart-muted" font-size="11" font-family="-apple-system, BlinkMacSystemFont, 'Segoe UI', Helvetica, Arial, sans-serif">1K</text>
    <line x1="60" y1="185.10443385855626" x2="770" y2="185.10443385855626" class="chart-grid" stroke-opacity="0.3" />
    <text x="52" y="189.10443385855626" text-anchor="end" class="chart-muted" font-size="11" font-family="-apple-system, BlinkMacSystemFont, 'Segoe UI', Helvetica, Arial, sans-serif">1.5K</text>
    <line x1="60" y1="130.13924514474166" x2="770" y2="130.13924514474166" class="chart-grid" stroke-opacity="0.3" />
    <text x="52" y="134.13924514474166" text-anchor="end" class="chart-muted" font-size="11" font-family="-apple-system, BlinkMacSystemFont, 'Segoe UI', Helvetica, Arial, sans-serif">2K</text>
    <line x1="60" y1="75.17405643092707" x2="770" y2="75.17405643092707" class="chart-grid" stroke-opacity="0.3" />
    <text x="52" y="79.17405643092707" text-anchor="end" class="chart-muted" font-size="11" font-family="-apple-system, BlinkMacSystemFont, 'Segoe UI', Helvetica, Arial, sans-serif">2.5K</text>
  </g>
  <g class="milestones">
    
  </g>
  <g class="x-axis">
    <text x="60" y="370" text-anchor="middle" class="chart-muted" font-size="11" font-family="-apple-system, BlinkMacSystemFont, 'Segoe UI', Helvetica, Arial, sans-serif">2017</text>
    <text x="133.44827586206895" y="370" text-anchor="middle" class="chart-muted" font-size="11" font-family="-apple-system, BlinkMacSystemFont, 'Segoe UI', Helvetica, Arial, sans-serif">2018</text>
    <text x="206.89655172413794" y="370" text-anchor="middle" class="chart-muted" font-size="11" font-family="-apple-system, BlinkMacSystemFont, 'Segoe UI', Helvetica, Arial, sans-serif">2019</text>
    <text x="280.34482758620686" y="370" text-anchor="middle" class="chart-muted" font-size="11" font-family="-apple-system, BlinkMacSystemFont, 'Segoe UI', Helvetica, Arial, sans-serif">2020</text>
    <text x="353.7931034482759" y="370" text-anchor="middle" class="chart-muted" font-size="11" font-family="-apple-system, BlinkMacSystemFont, 'Segoe UI', Helvetica, Arial, sans-serif">2021</text>
    <text x="427.2413793103448" y="370" text-anchor="middle" class="chart-muted" font-size="11" font-family="-apple-system, BlinkMacSystemFont, 'Segoe UI', Helvetica, Arial, sans-serif">2022</text>
    <text x="500.6896551724138" y="370" text-anchor="middle" class="chart-muted" font-size="11" font-family="-apple-system, BlinkMacSystemFont, 'Segoe UI', Helvetica, Arial, sans-serif">2023</text>
    <text x="574.1379310344828" y="370" text-anchor="middle" class="chart-muted" font-size="11" font-family="-apple-system, BlinkMacSystemFont, 'Segoe UI', Helvetica, Arial, sans-serif">2024</text>
    <text x="672.0689655172414" y="370" text-anchor="middle" class="chart-muted" font-size="11" font-family="-apple-system, BlinkMacSystemFont, 'Segoe UI', Helvetica, Arial, sans-serif">2025</text>
    <text x="745.5172413793103" y="370" text-anchor="middle" class="chart-muted" font-size="11" font-family="-apple-system, BlinkMacSystemFont, 'Segoe UI', Helvetica, Arial, sans-serif">2026</text>
  </g>
  <line x1="60" y1="50" x2="60" y2="350" class="chart-axis" stroke-width="1" />
  <line x1="60" y1="350" x2="770" y2="350" class="chart-axis" stroke-width="1" />
  <path d="M60,350 L60,349.89006962257236 C68.16091954022988,347.32502748259435 76.32183908045977,344.1370465371931 84.48275862068965,342.19494320263834 C92.64367816091954,340.2528398680836 100.80459770114942,339.50164895566144 108.9655172413793,338.2374496152437 C117.12643678160919,336.97325027482594 125.28735632183907,335.764016123122 133.44827586206895,334.6097471601319 C141.60919540229884,333.4554781971418 149.77011494252872,332.6126786368633 157.9310344827586,331.311835837303 C166.0919540229885,330.01099303774276 174.2528735632184,328.1421766214731 182.41379310344828,326.80469036277026 C190.57471264367817,325.46720410406743 198.73563218390805,324.2579699523635 206.89655172413794,323.28691828508613 C215.05747126436782,322.31586661780875 223.2183908045977,321.7112495419568 231.3793103448276,320.9783803591059 C239.54022988505747,320.24551117625504 247.70114942528735,319.62257237083185 255.86206896551724,318.88970318798096 C264.0229885057471,318.1568340051301 272.183908045977,317.9003297911323 280.34482758620686,316.58116526200075 C288.50574712643675,315.2620007328692 296.6666666666667,312.2389153536094 304.82758620689657,310.97471601319165 C312.98850574712645,309.7105166727739 321.14942528735634,309.76548186148773 329.3103448275862,308.9959692194943 C337.4712643678161,308.2264565775009 345.632183908046,307.3470135580799 353.7931034482759,306.35764016123125 C361.95402298850576,305.3682667643826 370.11494252873564,304.74532795895936 378.2758620689655,303.05972883840235 C386.4367816091954,301.37412971784534 394.5977011494253,299.19384389886403 402.7586206896552,296.2440454378893 C410.91954022988506,293.2942469769146 419.08045977011494,291.1322828875046 427.2413793103448,285.36093807255406 C435.4022988505747,279.58959325760355 443.5632183908046,269.09124221326493 451.7241379310345,261.61597654818615 C459.88505747126436,254.14071088310737 468.04597701149424,246.68376694759985 476.2068965517241,240.50934408208136 C484.367816091954,234.33492121656286 492.5287356321839,230.2491755221693 500.6896551724138,224.56943935507513 C508.85057471264366,218.88970318798096 517.0114942528736,211.52436790032982 525.1724137931035,206.43092707951632 C533.3333333333334,201.33748625870285 541.4942528735633,198.3876877977281 549.6551724137931,194.0087944301942 C557.816091954023,189.6299010626603 565.9770114942529,184.5364602418468 574.1379310344828,180.15756687431292 C582.2988505747127,175.77867350677903 590.4597701149426,171.93111029681202 598.6206896551724,167.73543422499085 C606.7816091954023,163.53975815316969 614.9425287356322,159.12422132649323 623.1034482758621,154.98351044338585 C631.264367816092,150.84279956027848 639.4252873563219,146.9769146207402 647.5862068965517,142.89116892634664 C655.7471264367816,138.80542323195309 663.9080459770115,134.26163429827776 672.0689655172414,130.46903627702454 C680.2298850574713,126.67643825577133 688.3908045977012,123.90985709050932 696.551724137931,120.13558079882739 C704.7126436781609,116.36130450714546 712.8735632183908,112.44045437889336 721.0344827586207,107.82337852693294 C729.1954022988506,103.20630267497252 737.3563218390805,97.52656650787837 745.5172413793103,92.43312568706489 C753.6781609195402,87.3396848662514 761.8390804597701,82.31953096372298 770,77.26273360205204 L770,350 L60,350 Z" fill="#dfb317" fill-opacity="0.1" />
  <path d="M60,350 L60,349.89006962257236 C68.16091954022988,347.32502748259435 76.32183908045977,344.1370465371931 84.48275862068965,342.19494320263834 C92.64367816091954,340.2528398680836 100.80459770114942,339.50164895566144 108.9655172413793,338.2374496152437 C117.12643678160919,336.97325027482594 125.28735632183907,335.764016123122 133.44827586206895,334.6097471601319 C141.60919540229884,333.4554781971418 149.77011494252872,332.6126786368633 157.9310344827586,331.311835837303 C166.0919540229885,330.01099303774276 174.2528735632184,328.1421766214731 182.41379310344828,326.80469036277026 C190.57471264367817,325.46720410406743 198.73563218390805,324.2579699523635 206.89655172413794,323.28691828508613 C215.05747126436782,322.31586661780875 223.2183908045977,321.7112495419568 231.3793103448276,320.9783803591059 C239.54022988505747,320.24551117625504 247.70114942528735,319.62257237083185 255.86206896551724,318.88970318798096 C264.0229885057471,318.1568340051301 272.183908045977,317.9003297911323 280.34482758620686,316.58116526200075 C288.50574712643675,315.2620007328692 296.6666666666667,312.2389153536094 304.82758620689657,310.97471601319165 C312.98850574712645,309.7105166727739 321.14942528735634,309.76548186148773 329.3103448275862,308.9959692194943 C337.4712643678161,308.2264565775009 345.632183908046,307.3470135580799 353.7931034482759,306.35764016123125 C361.95402298850576,305.3682667643826 370.11494252873564,304.74532795895936 378.2758620689655,303.05972883840235 C386.4367816091954,301.37412971784534 394.5977011494253,299.19384389886403 402.7586206896552,296.2440454378893 C410.91954022988506,293.2942469769146 419.08045977011494,291.1322828875046 427.2413793103448,285.36093807255406 C435.4022988505747,279.58959325760355 443.5632183908046,269.09124221326493 451.7241379310345,261.61597654818615 C459.88505747126436,254.14071088310737 468.04597701149424,246.68376694759985 476.2068965517241,240.50934408208136 C484.367816091954,234.33492121656286 492.5287356321839,230.2491755221693 500.6896551724138,224.56943935507513 C508.85057471264366,218.88970318798096 517.0114942528736,211.52436790032982 525.1724137931035,206.43092707951632 C533.3333333333334,201.33748625870285 541.4942528735633,198.3876877977281 549.6551724137931,194.0087944301942 C557.816091954023,189.6299010626603 565.9770114942529,184.5364602418468 574.1379310344828,180.15756687431292 C582.2988505747127,175.77867350677903 590.4597701149426,171.93111029681202 598.6206896551724,167.73543422499085 C606.7816091954023,163.53975815316969 614.9425287356322,159.12422132649323 623.1034482758621,154.98351044338585 C631.264367816092,150.84279956027848 639.4252873563219,146.9769146207402 647.5862068965517,142.89116892634664 C655.7471264367816,138.80542323195309 663.9080459770115,134.26163429827776 672.0689655172414,130.46903627702454 C680.2298850574713,126.67643825577133 688.3908045977012,123.90985709050932 696.551724137931,120.13558079882739 C704.7126436781609,116.36130450714546 712.8735632183908,112.44045437889336 721.0344827586207,107.82337852693294 C729.1954022988506,103.20630267497252 737.3563218390805,97.52656650787837 745.5172413793103,92.43312568706489 C753.6781609195402,87.3396848662514 761.8390804597701,82.31953096372298 770,77.26273360205204" fill="none" stroke="#dfb317" stroke-width="2.5" class="data-line-0" />
  <g class="points">
    
    <circle cx="60" cy="349.89006962257236" r="4" fill="#dfb317" class="data-point" style="animation-delay: 1.50s" />
    <circle cx="84.48275862068965" cy="342.19494320263834" r="4" fill="#dfb317" class="data-point" style="animation-delay: 1.55s" />
    <circle cx="108.9655172413793" cy="338.2374496152437" r="4" fill="#dfb317" class="data-point" style="animation-delay: 1.60s" />
    <circle cx="133.44827586206895" cy="334.6097471601319" r="4" fill="#dfb317" class="data-point" style="animation-delay: 1.65s" />
    <circle cx="157.9310344827586" cy="331.311835837303" r="4" fill="#dfb317" class="data-point" style="animation-delay: 1.70s" />
    <circle cx="182.41379310344828" cy="326.80469036277026" r="4" fill="#dfb317" class="data-point" style="animation-delay: 1.75s" />
    <circle cx="206.89655172413794" cy="323.28691828508613" r="4" fill="#dfb317" class="data-point" style="animation-delay: 1.80s" />
    <circle cx="231.3793103448276" cy="320.9783803591059" r="4" fill="#dfb317" class="data-point" style="animation-delay: 1.85s" />
    <circle cx="255.86206896551724" cy="318.88970318798096" r="4" fill="#dfb317" class="data-point" style="animation-delay: 1.90s" />
    <circle cx="280.34482758620686" cy="316.58116526200075" r="4" fill="#dfb317" class="data-point" style="animation-delay: 1.95s" />
    <circle cx="304.82758620689657" cy="310.97471601319165" r="4" fill="#dfb317" class="data-point" style="animation-delay: 2.00s" />
    <circle cx="329.3103448275862" cy="308.9959692194943" r="4" fill="#dfb317" class="data-point" style="animation-delay: 2.05s" />
    <circle cx="353.7931034482759" cy="306.35764016123125" r="4" fill="#dfb317" class="data-point" style="animation-delay: 2.10s" />
    <circle cx="378.2758620689655" cy="303.05972883840235" r="4" fill="#dfb317" class="data-point" style="animation-delay: 2.15s" />
    <circle cx="402.7586206896552" cy="296.2440454378893" r="4" fill="#dfb317" class="data-point" style="animation-delay: 2.20s" />
    <circle cx="427.2413793103448" cy="285.36093807255406" r="4" fill="#dfb317" class="data-point" style="animation-delay: 2.25s" />
    <circle cx="451.7241379310345" cy="261.61597654818615" r="4" fill="#dfb317" class="data-point" style="animation-delay: 2.30s" />
    <circle cx="476.2068965517241" cy="240.50934408208136" r="4" fill="#dfb317" class="data-point" style="animation-delay: 2.35s" />
    <circle cx="500.6896551724138" cy="224.56943935507513" r="4" fill="#dfb317" class="data-point" style="animation-delay: 2.40s" />
    <circle cx="525.1724137931035" cy="206.43092707951632" r="4" fill="#dfb317" class="data-point" style="animation-delay: 2.45s" />
    <circle cx="549.6551724137931" cy="194.0087944301942" r="4" fill="#dfb317" class="data-point" style="animation-delay: 2.50s" />
    <circle cx="574.1379310344828" cy="180.15756687431292" r="4" fill="#dfb317" class="data-point" style="animation-delay: 2.55s" />
    <circle cx="598.6206896551724" cy="167.73543422499085" r="4" fill="#dfb317" class="data-point" style="animation-delay: 2.60s" />
    <circle cx="623.1034482758621" cy="154.98351044338585" r="4" fill="#dfb317" class="data-point" style="animation-delay: 2.65s" />
    <circle cx="647.5862068965517" cy="142.89116892634664" r="4" fill="#dfb317" class="data-point" style="animation-delay: 2.70s" />
    <circle cx="672.0689655172414" cy="130.46903627702454" r="4" fill="#dfb317" class="data-point" style="animation-delay: 2.75s" />
    <circle cx="696.551724137931" cy="120.13558079882739" r="4" fill="#dfb317" class="data-point" style="animation-delay: 2.80s" />
    <circle cx="721.0344827586207" cy="107.82337852693294" r="4" fill="#dfb317" class="data-point" style="animation-delay: 2.85s" />
    <circle cx="745.5172413793103" cy="92.43312568706489" r="4" fill="#dfb317" class="data-point" style="animation-delay: 2.90s" />
    <circle cx="770" cy="77.26273360205204" r="4" fill="#dfb317" class="data-point" style="animation-delay: 2.95s" />
  </g>
</svg>