<svg xmlns="http://www.w3.org/2000/svg" xml:space="preserve" baseProfile="tiny" viewBox="373.5 287.6 1194.9 218.4"><path fill="#D5E14D" d="M888.2 307c-.4-9.1 6.9-17.7 15.8-19.1 7.3-.3 14.6 0 21.9-.1 10.5-1.1 20.3 8.8 19.8 19.2v31.3c-6.3.1-12.5 0-18.8 0 0-10.6.1-21.2 0-31.8-7 .1-13.9 0-20.9 0-.1 58.8 0 117.7 0 176.5 7.2 0 14.4.1 21.5-.1-.1-28.5 0-57 0-85.4H918v-17h27.7c0 39.9.1 79.9 0 119.8-12.9-.1-25.8 0-38.7 0-7.5 0-14.9-4.8-17.7-11.8-1.5-3.7-1-7.7-1-11.5 0-56.7 0-113.4-.1-170zM994.2 323.5c12.3 0 24.5-.1 36.8 0 7.6-.1 15.3 4 18.5 11 1.3 2.6 1 5.6 1 8.5v56c-.4 7.9-6 16-14.2 17.3 6 27.9 11.9 55.9 17.8 83.9H1037c-6.4-27.7-12.8-55.3-19.2-83h-6.1v83.3h-17.5c.1-59 .1-118 0-177zm17.8 17.3v57.5h20.5v-57.5H1012zM1098 339.9c0-8 6.7-15.8 14.9-16.1 8-.1 16.1 0 24.1-.1 4.1-.1 8.4 1 11.6 3.6 3.7 3 5.7 7.8 5.7 12.6v160.3H1137v-84h-21.5v84H1098V339.9zm18 1.9c0 18.9-.1 37.9 0 56.8 6.8-.1 13.6 0 20.5 0v-56.8c-6.8 0-13.7-.1-20.5 0zM1198.3 338.9c.1-7.8 6.8-15.1 14.7-15.2h29.5v15.8h-26.4c-.1 19.8 0 39.5 0 59.3h21.7v17.5H1216v84h-17.8c.1-53.8.1-107.6.1-161.4zM1286.5 323.8h18.5c.1 16.3-.2 32.7.2 49.1 3.1 5.2 6.8 10.2 10.1 15.3 3.2-5.1 7-9.8 9.9-15.1.3-16.4.1-32.9.1-49.3h18.5c-.1 11.8 0 23.5 0 35.3-.1 5.5.5 11.1-1.5 16.3-4.1 10.9-10.3 20.9-16.4 30.8 7 11.2 14.5 22.5 17.7 35.5.4 19.6.1 39.3.1 58.9h-17.2c-.1-19.7.1-39.4-.1-59.1-2.9-6-7.3-11.2-10.8-16.9-3.6 5.5-7.3 10.8-10.9 16.3 0 19.9.1 39.8 0 59.8-6.1-.1-12.1 0-18.2 0v-55.5c-.1-5 2.3-9.6 4.3-14.1 4.3-8.7 9.3-16.9 14.7-25-7.2-11.1-15.3-22.1-18.8-35-.5-15.9 0-31.6-.2-47.3z"/><g fill="#F79226"><path d="M1524.7 384.8h-28.8v55.3h28.8v-55.3z"/><path d="M1563.5 442.4c6.9-20.1 6.5-42.5-.7-62.4-6.3-17-17.4-32.1-32-42.9-20.1-15.2-46.4-21.6-71.2-17.4-31.2 4.7-59.1 26.7-71.3 55.8-12.3 28.6-9.2 63.2 8.3 89 16.8 25.5 46.8 41.8 77.4 41.5 20.4.4 40.9-6.5 57.1-18.8 15-11.2 26.5-27 32.4-44.8zM1418.6 372h37.4c2.3 2.3 4.3 4.2 6.7 6.5v15.2h-11.1v-8.9H1425v55.3h26.6v-8.9h11.1v15.2c-2.3 2.3-4.3 4.2-6.6 6.5h-37.5l-6.3-6.2v-68.5l6.3-6.2zm57.4 12.8V372h55.1l6.4 6.3v68.4l-6.4 6.3h-55.3c0-4.4.1-8.4.1-12.9h6.6v-55.3h-6.5z"/></g><path fill="#F79226" d="M466.5 323.5h18.2c.1 53 0 106 0 159h20.5c0-53-.1-106 .1-159.1 6.2.1 12.3 0 18.5.1-.1 50.8 0 101.6 0 152.4-.1 3.7.3 7.4-.6 11-1.7 7.7-9.3 13.6-17.2 13.5h-22c-9.6-.2-17.7-9.1-17.5-18.6-.1-52.7 0-105.5 0-158.3zM570 323.5c12.6.1 25.3-.1 37.9.1 8.9.1 18.5 6.9 18.6 16.4v58c-.1 8.4-5.7 17.1-14.3 18.6 6 27.9 11.8 55.9 17.8 83.8h-17.2c-6.3-27.6-12.8-55.1-19.1-82.7h-6.3v82.8h-17.5c.1-59 .1-118 .1-177zm18.2 17.5v57.7h20.2v-57.8c-6.7.1-13.4.1-20.2.1zM676.2 323.5c13.2 0 26.5-.1 39.7 0 8.4 0 16.3 6.9 16.6 15.4v56c0 5.2-3.7 9.3-7.3 12.5 3.5 2.9 6.9 6.7 7.3 11.5.5 7.6.2 15.3.3 22.9-.1 11.6.2 23.3-.3 35-.2 4.9.8 10.3-1.7 14.8-2.7 5.5-8.8 8.7-14.8 8.7h-39.7c-.1-58.8 0-117.8-.1-176.8zm18.3 17.5v57.8h20.2v-57.7c-6.7-.1-13.4-.1-20.2-.1zm0 76.2V483h20.3v-65.7c-6.8-.1-13.5 0-20.3-.1zM791.4 324.5c5.4-1.5 11-.8 16.6-1 6.1.1 12.7-.8 18.2 2.3 5.5 2.9 10.5 8.5 10.3 15.1V477c-.1 3.9.5 8.1-1.4 11.8-2.8 5.9-8.4 10.9-15.1 11.6-6 .1-12 0-18 0-3.5 0-7.2.3-10.5-1-7-2.8-12.8-9.7-12.6-17.5v-136c0-3.6-.4-7.5 1.2-10.9 2.1-4.8 6.3-8.7 11.3-10.5zm6.9 16.8V482h19.5V341.3h-19.5zM390.7 305.3h-17.2v-17.7h55v17.7h-17.2v195h-20.6z"/></svg>