<svg xmlns="http://www.w3.org/2000/svg" xml:space="preserve" width="373.831" height="120.104"><circle cx="114.279" cy="10.335" r="10" style="fill:#0080e8"/><circle cx="139.612" cy="10" r="10" style="fill:#0080e8"/><path fill="none" d="M126.419 29.906c-55.287 0-55.475 85.041-.353 85.041 55.04 0 55.854-85.041.353-85.041"/><path d="M126.419 24.906c-16.061.162-30.552 7.196-39.236 20.915-7.67 12.116-9.111 27.837-5.282 41.478 4.06 14.461 14.838 25.804 29.094 30.463 15.53 5.076 33.615 1.679 46.006-8.884 14.374-12.252 18.58-33.677 13.679-51.324-5.627-20.263-23.637-32.441-44.261-32.648-6.451-.065-6.445 9.935 0 10 14.639.147 27.712 7.472 33.298 21.396 5.004 12.474 3.672 27.057-3.529 38.379-8.21 12.908-24.446 17.367-38.892 14.402-14.073-2.889-23.502-13.993-26.563-27.657-2.375-10.605-.264-22.11 5.525-31.254 6.572-10.381 18.226-15.146 30.161-15.266 6.445-.065 6.452-10.065 0-10z" style="fill:#0080e8"/><path fill="none" d="M178.397 29.906c48.716 110.468 51.349 116.265 104.041 0"/><path d="M174.08 32.43c9.586 21.736 18.656 43.999 30.382 64.701 5.241 9.255 12.593 21.893 24.465 22.801 11.569.885 20.021-12.921 25.149-21.195 12.939-20.876 22.563-43.995 32.68-66.306 2.642-5.825-5.975-10.913-8.635-5.047-9.592 21.154-18.926 42.655-30.574 62.786-3.169 5.476-6.566 10.959-10.974 15.536-1.543 1.604-2.545 2.424-4.268 3.411-1.201.688-2.065.857-3.379.815-.582-.051-.556-.041.08.027-.424-.069-.837-.193-1.248-.316-.165-.049-.753-.289-1.728-.876-1.604-.966-2.992-2.424-4.532-4.152-4.226-4.744-7.359-10.551-10.383-16.096-10.744-19.703-19.356-40.625-28.401-61.135-2.597-5.891-11.211-.797-8.634 5.046z" style="fill:#0080e8"/><path fill="none" d="M332.958 87.255c57.148-12.938 36.661-53.914 3.234-57.148s-51.756 33.427-40.974 59.305c10.782 25.879 32.349 26.958 51.756 24.801"/><path d="M334.288 92.076c16.119-3.771 37.565-12.266 39.429-31.426 1.37-14.087-9.762-25.941-21.77-31.407-17.438-7.938-37.938-4.605-51.258 9.353-13.145 13.773-17.356 35.85-9.787 53.338 4.761 10.999 12.667 20.207 24.025 24.604 10.208 3.952 21.323 3.826 32.048 2.674 6.342-.682 6.408-10.688 0-10-9.54 1.025-19.151 1.334-28.321-1.903-10.214-3.605-17.066-13.445-20.092-23.452-5.278-17.456 3.682-39.335 20.828-46.488 13.844-5.774 32.803-1.287 41.323 11.511 9.107 13.679-4.028 24.854-16.167 29.692-4.179 1.665-8.544 2.838-12.917 3.862-6.278 1.468-3.615 11.11 2.659 9.642z" style="fill:#0080e8"/><path fill="none" d="M10.822 29.224c-19.854 55.69 12.757 96.622 61.59 83.698"/><path d="M6 27.895c-8.2 23.498-9.661 51.774 6.323 72.444 14.666 18.965 39.169 23.091 61.417 17.404 6.244-1.596 3.594-11.24-2.658-9.643-18.687 4.776-39.448 1.689-51.529-14.664C6.14 75.279 8.629 50.654 15.643 30.553c2.13-6.105-7.532-8.706-9.643-2.658zM364.519 100.526c5.073 0 9.115 4.124 9.115 9.28 0 5.238-4.042 9.32-9.156 9.32-5.073 0-9.197-4.082-9.197-9.32 0-5.156 4.124-9.28 9.197-9.28h.041zm-.041 1.443c-4.083 0-7.424 3.506-7.424 7.837 0 4.412 3.341 7.877 7.465 7.877 4.125.041 7.424-3.465 7.424-7.836 0-4.372-3.299-7.878-7.424-7.878h-.041zm-1.732 13.239h-1.649v-10.352c.866-.124 1.69-.248 2.928-.248 1.567 0 2.599.33 3.218.783.618.454.948 1.155.948 2.146 0 1.36-.907 2.186-2.021 2.516v.083c.907.164 1.525.989 1.731 2.516.248 1.608.495 2.227.66 2.557h-1.732c-.247-.33-.494-1.278-.701-2.639-.247-1.32-.907-1.815-2.227-1.815h-1.155v4.453zm0-5.732h1.196c1.361 0 2.516-.495 2.516-1.773 0-.908-.659-1.814-2.516-1.814-.536 0-.907.041-1.196.082v3.505z" style="fill:#0080e8"/></svg>