<svg xmlns="http://www.w3.org/2000/svg" xml:space="preserve" width="940" height="720" viewBox="143.7 37 940 720"><path d="M205.545 39.048c-1 1-2.9 1.9-4.2 1.9-2.1 0-5.5 1.3-10.6 4.2l-3 1.5c-2.5 1.1-9.3 6.6-12.5 10.2-3.9 4.4-8.7 13.4-10.3 19.4-1.8 7.1-1.7 639.2.2 645.7 1.2 4.3 3.1 8.6 6.1 14 4.4 7.8 16.9 16.7 27.5 19.7 6.8 1.8 778.5 1.8 785-.1 8.2-2.3 13.3-5.2 19.6-11 5.8-5.2 9-10.1 11.9-18.1l2.5-6.8v-318c0-290-.1-318.5-1.6-323.6-3.4-11.8-8.4-21.2-14.7-27.6-3.6-3.6-13.5-9.5-16-9.5-.9 0-2.6-.9-3.7-2-2-2-3.3-2-388.2-1.9-379.4.1-386.3.1-388 2zm775.7 10c13.4 4.7 20.7 13.4 25.9 30.8 1.5 4.8 1.6 34.4 1.6 321.6 0 313.6 0 316.2-2 322-1.9 5.6-5.7 11.7-9 14.2-5.2 4.2-9.5 6.7-15.5 8.8l-6.8 2.5h-383.7c-350.4 0-384.2-.1-389.1-1.6-8.7-2.6-12-4.6-18.3-11-6.4-6.3-8.4-9.6-11-18.3-1.5-4.9-1.6-33.1-1.6-318.9 0-287.5.1-314 1.6-319.1 5-16.9 14.7-26.1 32.9-31.2 5.6-1.6 32.9-1.7 387.5-1.8l381.6-.1z"/><path d="M306.745 94.548c-10.9 1.9-15.4 3.3-26.5 8.6-5.5 2.6-6.8 3.5-15.5 9.9-8.2 6.2-12.2 10.2-19.2 19.4-4.4 5.8-13.8 23.9-13.8 26.6 0 .7-.6 3.1-1.4 5.4-.8 2.2-2 8.6-2.7 14.2-2.7 22.5 3.1 45.3 16.9 66.1 11 16.7 33.3 32.3 53.7 37.6 22.5 5.8 45.6 3.6 67-6.6 7.6-3.6 17.9-10.9 24.9-17.6 4.7-4.5 15.6-18.3 15.6-19.8 0-.4.6-1.5 1.3-2.3 1.9-2.2 7.2-15.4 9.1-22.6.9-3.3 2-10.1 2.5-15 .9-7.9.8-9.2-.7-10.3-1.2-.9-12-1.2-46.1-1.2-24.5 0-45.2.4-45.9.8-.9.7-1.2 4.4-1 15.3l.3 14.4 28.5.5c32.5.6 30.8-.1 24.6 9.3-6.6 9.9-19.6 20.4-30.6 24.5-1.9.7-8 2.3-13.4 3.4-10.3 2.2-15.1 2-28.1-1.1-22.2-5.3-42.4-25.5-47.6-47.6-3.5-15-3.5-19.1-.1-35 2.8-12.7 14.4-29 26.8-37.4 5.1-3.5 16.9-9.1 19.2-9.1.9 0 3.9-.7 6.6-1.5 2.7-.8 8.1-1.5 12.1-1.5s9.4.7 12.1 1.5c2.7.8 5.7 1.5 6.6 1.5 3 0 15 6.1 20.8 10.5 3 2.3 7.4 6.3 9.7 8.8 2.4 2.5 5.1 5.1 6.2 5.7 1.1.5 8.2 1 16.1 1 16.1 0 16.6-.3 13-7.2-5.9-11.4-16.6-23.8-27.5-32-6.2-4.6-24.1-13.8-27-13.8-.9 0-2.5-.5-3.6-1.1-3-1.6-20.4-3.9-28.3-3.8-3.9.1-10.5.8-14.6 1.5zM496.745 131.648c-13.5 20.3-24.7 37.2-25 37.8-.3.5-10.4 15.8-22.5 34-12.1 18.1-22.2 33.4-22.4 34-.2.5-1.7 2.6-3.2 4.6-1.6 2-2.9 3.9-2.9 4.2 0 .2-4.5 7.1-9.9 15.3-5.5 8.2-9.7 15.2-9.5 15.6.3.4 8.5.8 18.4.8h17.8l7.9-11.8c4.3-6.4 8-12.2 8.3-12.7 1.1-2.2 6.5-10.2 8.4-12.3 1.9-2.2 2.2-2.2 29.5-2.2 15.2 0 28.1.4 28.7.8.8.5 1.1 6.4 1 18.5-.1 9.8.1 18.3.5 18.8.3.6 6.8.8 15.5.7l14.9-.3v-182l-15.5-.3-15.5-.2zm24.6 48.6c-.1 19.3-.4 24.7-1.5 26.1-1.2 1.4-3.4 1.6-17 1.4-14.1-.3-15.6-.5-15.9-2.1-.2-1.1 5.8-11 14.5-24 8.1-12.2 15.1-23 15.5-23.9.4-1 1.6-1.8 2.6-1.8 1.7 0 1.8 1.3 1.8 24.3zM657.045 133.648c-14.2 21.4-25.9 39.1-26.1 39.5-.2.3-15.7 23.8-34.6 52.2-18.9 28.3-34.1 51.8-33.8 52.1.3.3 8.7.5 18.6.5h18.1l10.1-15.3c5.6-8.3 21.3-32.1 35-52.7s25.1-37.9 25.3-38.5c.2-.5 1.7-2.6 3.2-4.6 1.6-2 2.9-4 2.9-4.3 0-1.4 4.5-6.6 5.7-6.6 1 0 1.3 11.6 1.5 60.7l.3 60.8 15.5.3 15.5.2 16.5-24.7c9.1-13.6 16.7-25.2 17-25.8.3-.5 10.4-15.8 22.5-34 12.1-18.1 22.2-33.4 22.4-34 .6-1.6 4.2-4.8 4.7-4.2.3.3.6 27.9.7 61.3l.2 60.9 15.3.3 15.2.3v-183.1h-30.8l-17.4 26.2c-9.6 14.5-19.2 28.9-21.4 32.1-2.1 3.2-4.4 6.6-4.9 7.5-4.3 7.3-37.8 56.8-38.5 57-.6.2-1.1-23.4-1.2-61l-.3-61.3-15.7-.3-15.7-.3zM855.245 96.148c-.3.7-.4 41.8-.3 91.3l.3 90h94l.3-13c.1-7.2 0-14-.3-15.3l-.5-2.2h-30.9c-27.2 0-31-.2-31.5-1.6-.3-.9-.6-9.8-.6-19.9 0-10.1.3-19 .6-19.9.5-1.4 4.2-1.6 30.9-1.6 24.6 0 30.5-.3 31.4-1.4.8-.9 1.1-5.9.9-15.2l-.3-13.9-31.5-.5-31.5-.5-.3-21c-.1-11.6 0-22 .3-23.3l.5-2.2h62l.5-2.3c.3-1.2.4-8.1.3-15.2l-.3-13-46.8-.3c-36.9-.2-46.9 0-47.2 1zM564.245 309.848c-13.1 3.9-21.7 11.2-27.2 22.9-2.2 4.7-2.5 6.8-2.5 15.6 0 9.5.3 10.8 3.3 16.9 1.8 3.7 5.6 9.4 8.6 12.6 2.9 3.3 5.3 6.3 5.3 6.8 0 .4-2.6 2.6-5.6 4.8-16.2 11.5-26.4 30-26.4 47.6 0 7.1 3 18.9 6.6 26.4 4.4 9 15 19.4 24.4 23.7 16.9 7.8 37.5 7.4 54.8-1.1 5.8-2.8 15-12 20.4-20.2 2.8-4.3 5.8-7.9 6.5-7.9 1.2 0 5.3 3.5 20.8 18.1 10.8 10.2 13.9 12.9 14.7 12.9 1 0 2.1-1.1 11-10.7 7.5-8.2 8.3-9.8 5.9-11.5-1.6-1.2-10.2-9.1-32.8-30.2-6.8-6.4-7.3-7.2-6.7-10 .3-1.7 1-3.6 1.4-4.1.4-.6 2.7-5.5 5-10.9s4.6-10.6 5-11.5c1.3-2.5 6.4-13.9 9-20.4 2.1-5 2.2-6 1-6.7-1.6-1.1-23.2-1.3-26.7-.4-1.6.4-3.3 3.1-6.4 10.2-10.5 24.2-10.2 23.6-12.2 24-.9.2-4.8-2.7-8.9-6.6-4-3.8-8.8-8.2-10.7-9.9l-3.4-3 6.6-7.1c3.6-4 7.3-8.7 8.2-10.4 3.3-6.5 5.5-15.1 5.5-21.7 0-26.3-28.1-46-54.5-38.2zm23.3 31.7c1.7 2 3.2 4.7 3.2 5.9 0 3.1-2 8.6-4.1 11.3-2.3 3-8.8 8.2-10.3 8.2-1.9 0-10.5-8.8-12.6-13-2.8-5.4-2.5-8.3 1-12.4 3.6-4 5.3-4.6 13.5-4.1 5.5.3 6.3.7 9.3 4.1zm-7.8 66.6c2.5 2.3 7 6.5 10 9.2 3 2.8 8.9 8.2 12.9 12l7.4 6.9-1.5 3.1c-.9 1.7-1.9 3.8-2.2 4.6-1.2 3.2-8 12.6-10.6 14.8-4.9 4.1-8.9 5.2-18.9 5.2-10.9 0-15.3-1.4-20.5-6.7-6-6-7.1-9-7.1-19.8 0-9.1.3-10.4 2.6-14 1.5-2.2 4.2-5.4 6-7.1 3.9-3.6 15.8-12.4 16.8-12.4.3 0 2.6 1.9 5.1 4.2zM732.245 510.948c-20.7 4.5-35.2 12.4-49.5 26.9-8.5 8.6-16.6 20.5-20.4 30.1-1 2.5-2.3 5.6-2.8 7-2.5 6.2-4.8 20.9-4.8 30.7 0 25.5 11.1 51.2 29.9 69.1 6.2 5.9 19.1 14.8 26.1 17.9 14.2 6.4 23.6 8.3 40.4 8.3 17.9-.1 27.1-2.2 42.1-9.7 14.9-7.6 28-18.9 36.8-32 2.6-3.9 4.7-7.6 4.7-8.2 0-1.3 1.5-1.2-18.8-1.1l-16.4.1-6.3 5.2c-31.8 26.2-78.7 18.3-99.1-16.8-8.1-13.9-11.3-32-7.9-44.8.8-3.2 1.5-6.4 1.5-7.2 0-2.8 6.3-15 10.6-20.6 5.5-7.1 12.3-13.2 19.4-17.3 7.4-4.2 10.8-5.4 22-7.8 8.3-1.8 10.4-2 16.5-1 11.7 1.9 14.7 2.7 21.5 6.1 9.6 4.8 10.5 5.3 16 10.4l5.1 4.7h17.4c10.5 0 17.6-.4 18-1 1.7-2.8-15.7-23.3-27.2-32-5.9-4.4-18.6-11.2-26.3-13.9-14.3-5.1-33.9-6.3-48.5-3.1zM229.445 515.648c-.4.3-.7 41.5-.7 91.5v90.8h31.8l3.6-5c2-2.8 3.6-5.3 3.6-5.6 0-.3 1.3-2.3 2.9-4.3 1.5-2 3-4.1 3.2-4.6.2-.6 9-13.8 19.4-29.5 10.5-15.7 19.2-29 19.4-29.5.2-.6 1.7-2.6 3.2-4.6 1.6-2 2.9-4 2.9-4.4 0-.4 1.3-2.4 3-4.5 1.6-2.1 3-4 3-4.3 0-1.2 16.7-25.2 17.6-25.2.5 0 1.1 24.4 1.4 60.5l.5 60.5h32l10.3-15.4c5.6-8.5 10.2-15.6 10.2-15.9 0-.2 1.3-2.1 2.9-4.1 1.5-2 3-4.1 3.2-4.6.2-.6 11.7-17.9 25.4-38.5 13.8-20.6 25.2-38 25.4-38.5.2-.6 1.6-2.6 3.1-4.5s2.9-4 3.1-4.5c.2-.6 8.4-13 18.2-27.7 9.8-14.7 17.6-27.2 17.2-27.8-.7-1.1-32.2-1.4-35-.4-1.3.5-38 54.5-39.4 57.9-.2.5-1.7 2.6-3.2 4.6-1.6 2-2.9 4-2.9 4.4 0 .4-1.3 2.4-3 4.5-1.6 2.1-3 4-3 4.2 0 1.2-31.2 47.3-31.8 47.1-.4-.2-.9-27.9-1.2-61.5l-.5-61.3-15.1-.3-15.1-.3-4.2 5.5c-2.2 3-4.1 5.8-4.1 6.2 0 .3-1.3 2.3-2.9 4.3-1.5 2-3 4-3.2 4.6-.2.5-10.3 15.8-22.4 34-12.1 18.1-22.2 33.4-22.4 34-.2.5-1.7 2.6-3.2 4.6-1.6 2-2.9 4-2.9 4.4 0 .4-1.3 2.4-3 4.5-1.6 2.1-3 4-3 4.3 0 .3-1.9 3.4-4.3 6.9-2.4 3.5-4.6 7.1-5 8-.3 1-1.3 1.8-2.2 1.8-1.3 0-1.5-6.8-1.5-60.3 0-45.6-.3-60.6-1.2-61.5-1.3-1.3-28.9-1.8-30.1-.5zM515.545 517.748c-2.2 2.6-33.6 49.2-34.8 51.7-.3.6-17.1 26-37.5 56.5-20.3 30.5-37.2 55.9-37.4 56.4-.2.4-2.3 3.7-4.7 7.2-2.4 3.5-4.4 6.9-4.4 7.4 0 .6 6.8 1 17.9 1h17.9l2.9-3.7c1.6-2.1 7.3-10.6 12.8-18.8 5.5-8.3 10.4-15.3 11-15.7 1.2-.9 53.6-1.1 55.9-.2 1.4.5 1.6 3.2 1.6 19.5v18.8l14.2.3c8.3.2 14.7-.1 15.5-.7 1.1-.8 1.3-16.3 1.1-91.5l-.3-90.5-14.6-.3-14.7-.3zm1 84.3-.3 25.4-17.9.3c-15.4.2-17.8 0-17.3-1.2.4-.9 6.4-10.2 13.4-20.8 7-10.6 13-19.8 13.3-20.3 1.7-3.5 7.5-10.4 8.2-9.7.5.5.7 12.3.6 26.3zM560.745 516.848c-.5 1.1-1 7.4-1 14.1 0 6.7.5 13 1 14.1 1 1.8 2.3 1.9 16.8 1.9 11 0 16.2.4 17 1.2.9.9 1.2 19 1.2 75.5v74.3l2.3.1c12.5.3 28.1-.1 28.8-.8.5-.5 1-34.4 1.1-75.3l.3-74.5 15.9-.3c9.7-.1 16.5-.7 17.3-1.3 1-.9 1.3-4.8 1.3-15.4 0-12.1-.2-14.4-1.6-14.9-.9-.3-23.6-.6-50.4-.6-47.4 0-49 .1-50 1.9zM844.445 515.648c-.4.3-.7 41.5-.7 91.5v90.8h2.3c16.4.3 27.8.1 28.7-.5.7-.4 1-12.2 1-38.2-.1-29.8.2-37.8 1.2-38.4 2.2-1.4 52.2-1.1 53.6.3.9.9 1.2 10.9 1.2 39v37.8l2.3.1c10.7.2 27.9-.1 28.7-.6 1.6-1 1.4-179.7-.2-181.3-1.3-1.3-26.2-1.8-29.2-.6-1.4.5-1.6 4.6-1.6 35.8 0 19.3-.4 35.7-.9 36.4-.6 1-6.6 1.3-27.6 1.3-14.7 0-26.9-.2-27.2-.4-.2-.3-.4-16.1-.3-35.1 0-22.6-.3-35.3-1-36.6-1-1.8-2.2-2-15.4-2-7.8 0-14.6.3-14.9.7zM1021.445 731.648c-1.4 1.3-.6 2.3 2.6 3.1l3.2.8.5 8.2c.5 8 2 11.6 4 9.6.5-.5 1-4.7 1.2-9.4.3-7.6.5-8.5 2.3-8.8 2.6-.5 4.6-2.2 3.9-3.3-.6-1-16.7-1.2-17.7-.2zM1042.645 731.348c-1.1 1.1.1 21 1.3 21.8 1.8 1 3-.5 3.7-4.8.7-4.1 2.4-4.8 2.9-1.2.6 5.4 1.3 6.8 3.1 6.8 2.1 0 3.1-1.9 3.1-6 0-3.9 1.8-4.8 2.6-1.3 1.2 5.5 1.6 6.3 3 6.3 1.1 0 1.4-2.1 1.4-11v-11h-3c-3.2 0-3.7 1-4.2 7.9-.5 6.6-4.9 4.6-5.7-2.6-.6-4.7-.7-4.8-4.1-5.1-2-.2-3.8-.1-4.1.2z"/></svg>