<svg xmlns="http://www.w3.org/2000/svg" width="400" height="120"><path d="m163.3 37.019-23.008 34.023 18.847 17.378 39.897-29.861-35.736-21.54Z" style="fill:#fefefe;fill-opacity:1;fill-rule:evenodd;stroke:none"/><g transform="matrix(.97293 0 0 .97293 3.418 1.244)"><circle cx="191.331" cy="36.524" r="29.55" style="opacity:1;fill:#fff;fill-opacity:1;stroke:none;stroke-width:.2;stroke-miterlimit:4;stroke-dasharray:none;stroke-opacity:1"/><path d="M213.954 36.524a22.623 22.623 0 1 1-45.246 0 22.623 22.623 0 1 1 45.246 0z" style="opacity:1;fill:#070707;fill-opacity:1;fill-rule:evenodd;stroke:none;stroke-width:7.53281212;stroke-linecap:round;stroke-linejoin:bevel;stroke-miterlimit:4;stroke-dasharray:none;stroke-dashoffset:0;stroke-opacity:1"/><path d="M209.375 36.536a18.044 18.044 0 0 1-36.087 0 18.044 18.044 0 1 1 36.087 0z" style="fill:#fefefe;fill-opacity:1;fill-rule:evenodd;stroke:none"/></g><path d="M161.105 85.016a17.623 17.623 0 1 1-35.246 0 17.623 17.623 0 1 1 35.246 0z" style="fill:#fff;fill-opacity:1;fill-rule:evenodd;stroke:none;stroke-width:5.53848743;stroke-linecap:round;stroke-linejoin:bevel;stroke-miterlimit:4;stroke-dasharray:none;stroke-dashoffset:0;stroke-opacity:1"/><path d="M156.64 85.016a13.157 13.557 0 0 1-26.316 0 13.157 13.557 0 1 1 26.315 0z" style="fill:#070707;fill-opacity:1;fill-rule:evenodd;stroke:none;stroke-width:5.53848743;stroke-linecap:round;stroke-linejoin:bevel;stroke-miterlimit:4;stroke-dasharray:none;stroke-dashoffset:0;stroke-opacity:1"/><path d="M48.259 38.977a17.623 17.623 0 1 1-35.247 0 17.623 17.623 0 1 1 35.247 0z" style="fill:#fff;fill-opacity:1;fill-rule:evenodd;stroke:none;stroke-width:5.53848743;stroke-linecap:round;stroke-linejoin:bevel;stroke-miterlimit:4;stroke-dasharray:none;stroke-dashoffset:0;stroke-opacity:1;color:#000;clip-rule:nonzero;display:inline;overflow:visible;visibility:visible;opacity:1;isolation:auto;mix-blend-mode:normal;color-interpolation:sRGB;color-interpolation-filters:linearRGB;solid-color:#000;solid-opacity:1;filter-blend-mode:normal;filter-gaussianBlur-deviation:0;color-rendering:auto;image-rendering:auto;shape-rendering:auto;text-rendering:auto;enable-background:accumulate"/><path d="M43.866 38.977a13.23 12.83 0 1 1-26.461 0 13.23 12.83 0 1 1 26.46 0z" style="color:#000;clip-rule:nonzero;display:inline;overflow:visible;visibility:visible;opacity:1;isolation:auto;mix-blend-mode:normal;color-interpolation:sRGB;color-interpolation-filters:linearRGB;solid-color:#000;solid-opacity:1;fill:#070707;fill-opacity:1;fill-rule:evenodd;stroke:none;stroke-width:5.53848743;stroke-linecap:round;stroke-linejoin:bevel;stroke-miterlimit:4;stroke-dasharray:none;stroke-dashoffset:0;stroke-opacity:1;color-rendering:auto;image-rendering:auto;shape-rendering:auto;text-rendering:auto;enable-background:accumulate"/><rect width="141.701" height="22.776" x="33.12" y="13.314" rx="13.681" style="fill:#fefefe;fill-opacity:1;fill-rule:evenodd;stroke:none" transform="rotate(22.201)"/><path d="M250.747 26.723v6.824q-2.403-1.187-4.688-1.792-2.285-.605-4.316-.605-2.696 0-3.985.82-1.289.822-1.289 2.55 0 1.295.86 2.03.879.712 3.164 1.23l3.203.713q4.863 1.08 6.914 3.283 2.05 2.203 2.05 6.263 0 5.335-2.87 7.948-2.852 2.592-8.73 2.592-2.774 0-5.567-.584-2.793-.583-5.586-1.727v-7.02q2.793 1.642 5.39 2.484 2.618.821 5.04.821 2.46 0 3.769-.907 1.309-.907 1.309-2.592 0-1.512-.899-2.332-.879-.82-3.535-1.469l-2.91-.713q-4.375-1.036-6.406-3.304-2.012-2.268-2.012-6.112 0-4.816 2.812-7.408 2.813-2.591 8.086-2.591 2.403 0 4.942.41 2.539.389 5.254 1.188zM258.465 25.708h26.875v6.284h-9.668v25.96h-7.52v-25.96h-9.687v-6.284zM291.867 25.708h20.293v6.284h-12.773v6.005h12.012v6.284h-12.012v7.387h13.203v6.284h-20.723V25.708zM339.567 52.078h-11.758l-1.856 5.874h-7.558l10.8-32.244h8.965l10.801 32.244h-7.559l-1.835-5.874zm-9.883-5.983h7.988l-3.984-12.828-4.004 12.828zM355.469 25.708h9.57l6.64 17.256 6.68-17.256h9.551v32.244h-7.11V34.368l-6.718 17.386h-4.766l-6.718-17.386v23.584h-7.13V25.708z" style="font-style:normal;font-variant:normal;font-weight:700;font-stretch:normal;font-size:medium;line-height:125%;font-family:sans-serif;-inkscape-font-specification:&quot;sans-serif Bold&quot;;letter-spacing:2.79714489px;word-spacing:0;fill:#fff;fill-opacity:1;stroke:none;stroke-width:1px;stroke-linecap:butt;stroke-linejoin:miter;stroke-opacity:1"/></svg>