<svg xmlns="http://www.w3.org/2000/svg" width="380" height="98"><path d="m163.3 37.019-23.008 34.023 18.847 17.378 39.897-29.861z" style="fill:#171a21;fill-opacity:1;fill-rule:evenodd;stroke:none" transform="translate(-10.161 -6.337)"/><g transform="translate(-10.161 -6.337)"><circle cx="189.57" cy="36.779" r="28.75" style="opacity:1;fill:#171a21;fill-opacity:1;stroke:none;stroke-width:.2;stroke-miterlimit:4;stroke-dasharray:none;stroke-opacity:1"/><path d="M211.58 36.78a22.01 22.01 0 1 1-44.021 0 22.01 22.01 0 1 1 44.022 0z" style="opacity:1;fill:#fff;fill-opacity:1;fill-rule:evenodd;stroke:none;stroke-width:7.53281212;stroke-linecap:round;stroke-linejoin:bevel;stroke-miterlimit:4;stroke-dasharray:none;stroke-dashoffset:0;stroke-opacity:1"/><path d="M207.125 36.79a17.555 17.555 0 0 1-35.11 0 17.555 17.555 0 1 1 35.11 0z" style="fill:#171a21;fill-opacity:1;fill-rule:evenodd;stroke:none"/></g><g transform="translate(-10.161 -6.337)"><path d="M161.105 85.016a17.623 17.623 0 1 1-35.246 0 17.623 17.623 0 1 1 35.246 0z" style="fill:#171a21;fill-opacity:1;fill-rule:evenodd;stroke:none;stroke-width:5.53848743;stroke-linecap:round;stroke-linejoin:bevel;stroke-miterlimit:4;stroke-dasharray:none;stroke-dashoffset:0;stroke-opacity:1"/><path d="M156.64 85.016a13.157 13.557 0 0 1-26.316 0 13.157 13.557 0 1 1 26.315 0z" style="fill:#fff;fill-opacity:1;fill-rule:evenodd;stroke:none;stroke-width:5.53848743;stroke-linecap:round;stroke-linejoin:bevel;stroke-miterlimit:4;stroke-dasharray:none;stroke-dashoffset:0;stroke-opacity:1"/><path d="M48.259 38.977a17.623 17.623 0 1 1-35.247 0 17.623 17.623 0 1 1 35.247 0z" style="color:#000;clip-rule:nonzero;display:inline;overflow:visible;visibility:visible;opacity:1;isolation:auto;mix-blend-mode:normal;color-interpolation:sRGB;color-interpolation-filters:linearRGB;solid-color:#000;solid-opacity:1;fill:#171a21;fill-opacity:1;fill-rule:evenodd;stroke:none;stroke-width:5.53848743;stroke-linecap:round;stroke-linejoin:bevel;stroke-miterlimit:4;stroke-dasharray:none;stroke-dashoffset:0;stroke-opacity:1;color-rendering:auto;image-rendering:auto;shape-rendering:auto;text-rendering:auto;enable-background:accumulate"/><path d="M43.866 38.977a13.23 12.83 0 1 1-26.461 0 13.23 12.83 0 1 1 26.46 0z" style="color:#000;clip-rule:nonzero;display:inline;overflow:visible;visibility:visible;opacity:1;isolation:auto;mix-blend-mode:normal;color-interpolation:sRGB;color-interpolation-filters:linearRGB;solid-color:#000;solid-opacity:1;fill:#fff;fill-opacity:1;fill-rule:evenodd;stroke:none;stroke-width:5.53848743;stroke-linecap:round;stroke-linejoin:bevel;stroke-miterlimit:4;stroke-dasharray:none;stroke-dashoffset:0;stroke-opacity:1;color-rendering:auto;image-rendering:auto;shape-rendering:auto;text-rendering:auto;enable-background:accumulate"/><rect width="141.701" height="22.776" x="33.12" y="13.314" rx="13.681" style="fill:#171a21;fill-opacity:1;fill-rule:evenodd;stroke:none" transform="rotate(22.2)"/></g><g style="font-style:normal;font-variant:normal;font-weight:700;font-stretch:normal;font-size:42.06233215px;line-height:125%;font-family:&quot;Bitstream Vera Sans&quot;;-inkscape-font-specification:&quot;Bitstream Vera Sans Bold&quot;;letter-spacing:2.79714489px;word-spacing:0;fill:#171a21;fill-opacity:1;stroke:none;stroke-width:1px;stroke-linecap:butt;stroke-linejoin:miter;stroke-opacity:1"><path d="M263.044 26.51V33q-2.526-1.13-4.929-1.705-2.403-.575-4.539-.575-2.834 0-4.19.78-1.355.78-1.355 2.424 0 1.232.904 1.93.924.678 3.327 1.17l3.368.679q5.114 1.027 7.27 3.121 2.157 2.095 2.157 5.957 0 5.072-3.019 7.558-2.999 2.464-9.18 2.464-2.917 0-5.854-.554-2.937-.555-5.874-1.643V47.93q2.937 1.56 5.669 2.362 2.752.78 5.299.78 2.587 0 3.963-.863 1.376-.862 1.376-2.464 0-1.438-.944-2.218-.925-.78-3.718-1.397l-3.06-.678q-4.6-.986-6.736-3.142-2.116-2.157-2.116-5.812 0-4.58 2.958-7.045 2.957-2.465 8.502-2.465 2.527 0 5.197.39 2.67.37 5.524 1.13zM271.16 25.544h28.262v5.977h-10.167v24.687h-7.907V31.52H271.16zM306.285 25.544h21.34v5.977h-13.432v5.71h12.63v5.976h-12.63v7.024h13.883v5.977h-21.79zM356.444 50.621H344.08l-1.952 5.587h-7.948l11.358-30.664h9.427l11.358 30.664h-7.949zm-10.393-5.689h8.4l-4.19-12.2ZM373.166 25.544h10.063l6.983 16.41 7.025-16.41h10.043v30.664h-7.476V33.78l-7.065 16.533h-5.012l-7.065-16.533v22.428h-7.496z" style="fill:#171a21;fill-opacity:1" transform="matrix(.95097 0 0 1.05156 -10.161 -6.337)"/></g></svg>