<svg xmlns="http://www.w3.org/2000/svg" xml:space="preserve" width="576.387" height="79.262" version="1.2"><path d="m129.285 258.009-11.18 20.852-41.925-78.263h22.36ZM120.9 231.903l16.77-31.305h22.36l-27.95 52.155zM165.733 200.598h19.621l-.056 78.262h-19.565zM193.683 200.598h19.621l-.056 78.262h-19.565zM218.838 220.164v-19.565h8.385c10.807 0 20.031 3.82 27.671 11.46 7.64 7.64 11.459 16.863 11.459 27.671s-3.82 20.031-11.459 27.671c-7.64 7.64-16.864 11.46-27.671 11.46h-8.385v-19.565h8.385c5.403 0 10.015-1.91 13.835-5.73 3.82-3.819 5.729-8.432 5.729-13.835 0-5.403-1.91-10.016-5.729-13.836-3.82-3.819-8.432-5.729-13.835-5.729h-8.385zM274.851 200.598h19.621l-.056 78.262h-19.565zM300.006 200.598h30.745v19.565h-30.745zM300.006 259.295h30.745v19.565h-30.745zM300.006 229.946h30.745v19.565h-30.745zM397.776 242.524h19.678c-.597 9.615-4.398 17.907-11.404 24.876-7.64 7.64-16.863 11.46-27.671 11.46-10.807 0-20.031-3.82-27.671-11.46-6.969-6.969-10.751-15.261-11.348-24.876h19.677c.559 4.211 2.403 7.882 5.535 11.013 3.801 3.838 8.402 5.758 13.807 5.758 5.405 0 10.025-1.92 13.863-5.758 3.131-3.131 4.976-6.802 5.534-11.013zM359.038 236.934H339.36c.596-9.615 4.379-17.907 11.348-24.876 7.64-7.64 16.863-11.46 27.671-11.46s20.031 3.82 27.671 11.46c7.006 6.969 10.808 15.261 11.404 24.876h-19.678c-.559-4.211-2.403-7.9-5.534-11.068-3.838-3.802-8.459-5.702-13.863-5.702s-10.006 1.9-13.807 5.702c-3.131 3.168-4.976 6.857-5.534 11.068zM426.007 200.598h19.564v78.262h-19.564zM451.162 220.164v-19.565h10.509c6.745 0 12.503 2.386 17.273 7.155 4.771 4.771 7.155 10.528 7.155 17.273 0 6.783-2.385 12.56-7.155 17.329-4.771 4.771-10.528 7.155-17.273 7.155h-10.509v-19.565h10.509c1.342 0 2.487-.475 3.438-1.425.95-.95 1.425-2.115 1.425-3.494 0-1.342-.475-2.487-1.425-3.438-.951-.95-2.097-1.426-3.438-1.426h-10.509zM529.423 247.555l-16.771 31.305h-22.36l27.951-52.156z" style="fill:#5a5a5a;fill-opacity:1" transform="translate(-75.68 -200.099)"/><path d="m537.584 252.306-16.546-30.856 11.18-20.852 41.926 78.262h-22.36l-3.745-6.988h-26.05l10.453-19.565h5.142zM616.181 259.127v19.621c-9.615-.597-17.907-4.379-24.876-11.348-7.64-7.64-11.459-16.863-11.459-27.671s3.819-20.031 11.459-27.671c6.969-6.969 15.261-10.752 24.876-11.348v19.621c-4.211.559-7.882 2.403-11.013 5.534-3.838 3.838-5.758 8.459-5.758 13.863 0 5.403 1.92 10.006 5.758 13.808 3.131 3.168 6.802 5.032 11.013 5.591zM635.299 228.829a20.314 20.314 0 0 0-2.46-2.963c-3.167-3.131-6.856-4.976-11.068-5.534v-19.621c9.615.596 17.907 4.379 24.876 11.348a40.755 40.755 0 0 1 4.92 5.926zM651.566 261.474a40.755 40.755 0 0 1-4.92 5.926c-6.969 6.969-15.261 10.751-24.876 11.348v-19.621c4.212-.559 7.901-2.423 11.068-5.59.932-.932 1.752-1.9 2.46-2.907z" style="fill:#5a5a5a;fill-opacity:1" transform="translate(-75.68 -200.099)"/></svg>