<svg xmlns="http://www.w3.org/2000/svg" width="750.543" height="115.831" version="1.0"><path d="M487.39 354.6c0 1.079-.886 2.05-1.976 2.05h-37.796c-1.101 0-1.986-.971-1.986-2.05v-27.307c0-1.079.885-1.942 1.986-1.942h37.796c1.09 0 1.975.863 1.975 1.942V354.6zm-1.641-37.452h-38.477c-5.569 0-10.113 4.533-10.113 10.145v27.414c0 5.505 4.544 10.146 10.113 10.146h38.477c5.58 0 10.113-4.641 10.113-10.146v-27.414c0-5.612-4.533-10.145-10.113-10.145" style="fill:#929497;fill-rule:nonzero;stroke:none" transform="translate(-28.446 -256.103)"/><path d="M44.363 276.135v35.293h-8.828v-47.705h7.544l35.757 34.753v-34.753h8.71v47.705h-6.897l-36.286-35.293" style="fill:#221f1f;fill-rule:nonzero;stroke:none" transform="translate(-28.446 -256.103)"/><path d="M132.876 276.135v35.293h-8.829v-47.705h7.534l35.756 34.753v-34.753h8.721v47.705h-6.897l-36.285-35.293M316.322 276.135v35.293h-8.828v-47.705h7.533l35.757 34.753v-34.753h8.72v47.705h-6.885l-36.297-35.293M108.57 263.723h1.63v47.705h-8.829v-47.705h7.2M236.185 263.723h1.62v8.203H216.52v39.502h-9.174v-39.502h-21.284v-8.203h50.122M292.74 263.723h1.651v8.203h-37.84v10.685h29.27v8.202h-29.27v12.412h37.84v8.203H247.81v-47.705h44.93M408.59 303.225H381.48v-31.3h27.112c8.483 0 11.494 8.42 11.494 15.65 0 7.124-3.011 15.65-11.494 15.65zm14.485-32.486c-3.454-4.641-8.56-7.016-14.733-7.016h-35.379v47.705h35.38c6.173 0 11.278-2.483 14.732-7.016 3.238-4.209 4.954-10.037 4.954-16.836 0-6.8-1.716-12.628-4.954-16.837M487.39 301.283c0 .97-.886 1.942-1.976 1.942h-37.796c-1.101 0-1.986-.971-1.986-1.942v-27.414c0-1.08.885-1.943 1.986-1.943h37.796c1.09 0 1.975.863 1.975 1.943v27.414zm-1.641-37.56h-38.477c-5.569 0-10.113 4.533-10.113 10.146v27.414c0 5.612 4.544 10.145 10.113 10.145h38.477c5.58 0 10.113-4.533 10.113-10.145v-27.414c0-5.613-4.533-10.146-10.113-10.146M646.023 344.67c9.153 3.67 28.483 6.584 43.571 6.584 16.513 0 23.345-5.613 23.345-12.736 0-6.476-6.346-10.145-24.575-16.837-24.381-8.958-42.265-16.081-42.265-32.163 0-16.513 21.52-26.334 54.32-26.334 17.614 0 23.658 1.079 34.84 3.13l.086 15.757c-10.987-2.05-20.722-5.612-35.843-5.612-16.21 0-23.118 5.18-23.118 10.469 0 7.663 10.641 11.332 29.302 18.024 25.979 9.282 40.43 16.405 40.43 32.055 0 16.19-18.1 27.846-58.918 27.846-16.761 0-28.32-1.08-41.175-3.238V344.67M559.14 277.106h-19.427v73.608h19.428c29.82 0 48.632-12.844 48.632-36.696 0-23.852-18.812-36.912-48.632-36.912zm52.14 80.407c-9.605 4.318-27.78 7.124-43.667 7.124h-60.72V263.399h60.72c15.887 0 34.062 2.807 43.69 7.124 23.388 10.577 31.007 27.522 31.007 43.495 0 15.974-7.555 32.918-31.03 43.495M752.214 349.527h-3.896v-1.403h9.487v1.403h-3.918v11.332h-1.673v-11.332M769.969 355.247c-.097-1.727-.205-3.885-.205-5.504h-.044a75.239 75.239 0 0 1-1.618 4.856l-2.256 6.26h-1.252l-2.094-6.152c-.604-1.835-1.1-3.453-1.457-4.964H761c-.033 1.619-.13 3.777-.238 5.612l-.345 5.504h-1.576l.896-12.735h2.105l2.18 6.152c.529 1.619.95 3.022 1.295 4.317h.032c.346-1.295.799-2.698 1.371-4.317l2.277-6.152h2.105l.799 12.735h-1.63l-.302-5.612" style="fill:#221e1f;fill-rule:nonzero;stroke:none;stroke-width:.05;stroke-linecap:butt;stroke-linejoin:miter;stroke-miterlimit:4;stroke-dasharray:none" transform="translate(-28.446 -256.103)"/></svg>