<svg xmlns="http://www.w3.org/2000/svg" xml:space="preserve" baseProfile="tiny" viewBox="-258.2 372 180.2 50"><path fill="none" d="M-501 744h82.3v50H-501z"/><path d="M-199.845 400.909h-.2c-5.4-2.6-8.2-5.7-8.1-8.9.1-2.6 2.2-5.1 6.2-7.2 3.7-2 9-3.5 15.3-4.5.2 0 .4.1.4.3 0 .2-.1.4-.3.4-12.6 2-20.6 6.2-20.8 10.9-.1 2.8 2.6 5.7 7.7 8.2.2.1.3.3.2.5-.1.2-.3.3-.4.3M-152.425 381.343s-.1 0 0 0c-4.1-.7-8.3-1.1-12.7-1.3-.2 0-.4-.2-.4-.4s.2-.4.4-.4c4.4.2 8.6.7 12.7 1.3.2 0 .3.2.3.4s-.1.4-.3.4M-164.426 407.065h-.7.4c.1 0 .2-.2.3-.2 20.4 0 36.5-5.4 36.7-12.2.1-2.4-1.8-4.9-5.5-7.1s-9-4.1-15.3-5.4c-.2 0-.3-.3-.3-.5s.2-.3.5-.3c6.4 1.4 11.7 3.2 15.5 5.5 4 2.3 6 5 5.9 7.7-.1 3.6-4.1 6.8-11.3 9.1-6.9 2.3-16.2 3.4-26.2 3.4"/><path d="m-157.503 387.491 10.1-7.7-11.8 4.7-3.3-3.5 1.1 4.8-10.1 7.7 11.8-4.7 3.3 3.5-1.1-4.8z"/><path d="m-181.22 383.478.8-4.3 3-.5c.4-.1.6.2.5.6l-.5 2.9c-.1.4-.4.7-.8.8l-3 .5zm33.7 12.2.8-4.3c.3-1.4 1.7-2.7 3-2.9l5.4-.9c.9-.1 1.6.9 1.4 1.9l-.3 1.4c-.2 1-1.2 2.1-2.1 2.2l-5.7.9-.1.5c-.1.6.3 1 .8.9l6.3-1-.4 2.3-7.1 1.1c-1.2.3-2.2-.7-2-2.1m-14.1-4.4 2.3-.4-1.7 9.4-2.3.4 1.7-9.4c-.1 0 0 0 0 0zm-15.1 11.5-2.3.4 1.1-6.1c.1-.8-.1-1-.8-.9l-4.1.6-1.3 7.2-2.3.4 1.7-9.4h.1l7.7-1.2c1.2-.2 1.8.5 1.6 1.8-.1-.1-1.4 7.2-1.4 7.2zm-11.2-.6-.5 2.5-9.7 1.5 3-16.3 8-1.3-.4 2.2-5.7.9-.9 4.7 4.7-.7-.4 2.2-4.7.7-.9 4.7 7.5-1.1zm.3-1.8-5.5.9.2-1.1 4.4-.7 1.1-5.8-4.4.7.2-1.1 5.5-.9-1.5 8zm12.2 4v-.2c.2 0 .4.1.5 0l4.6-.7c-.2.9-1.4 1.1-3.2 1.4l-2.1.3-1.1 6 2.8-.4c6.8-.7 9.4-4.2 10.2-8.3l8.3-1.3 1.3-7.2.7-.1c.7-.1.6-.2.5.5l-1.2 6.6 5.9-.9.1-.4c.4.2 1 .3 1.5.2l10.3-1.6 1-5.1-.7-.5c.6-.7 1-1.5 1.2-2.2l.2-.8c.5-3-2.3-3.8-3.6-3.6l-5.9.9c-1 .2-2.2.9-3 1.9-.8-.8-2-1.1-2.7-1l-6.6 1 .7 1.6 5.9-.9c.9-.1 1.4.2 1.6.9-.1.2-1.6 8.2-1.6 8.2l-2.1.3 1.1-6.1c.1-.8-.1-1-.8-.9l-4.1.6-1.3 7.2-2.3.4 1.5-8.2-1.9-2.3-6.9 2.5 3.3-.5h.1l-2.1 11.2c-.5 2.8-3.6 5.6-6.3 6l-2.8.4.4-2.2 2.1-.3c1.8-.3 3.9-2.1 4.3-4.1l.2-1.2-5.5.9c-1.2.2-1.8-.5-1.6-1.8l1-5.3c.2-.9.8-1.7 1.5-2.1v-.1l2.7-2.1-1.6.3c-.9.1-2.4.8-3.4 2-.8-.9-2.1-1.3-2.8-1.1l-5.9.9 1-5.1 4.3-.7c2.3-.4 4.8-2.9 5.3-5.3l.6-3.5c.4-2.4-1.2-4.3-3.5-3.9l-9.4 1.5-2 10.7-8.6 1.4c-.7.1-1.4.8-1.6 1.6l-3.2 17.3c-.1.8.3 1.3 1.1 1.2l16.5-2.6 1.3-7.2.7-.1c.7-.1.6-.2.5.5l-1.2 6.6c-.1-.2 5.8-1.1 5.8-1.1zm30.9-12.7v.3l4.4-.7c.3-.1.7-.4.8-.8s-.2-.6-.5-.6l-1.1.2-1.8.3-.5.1c-.6 0-1.2.6-1.3 1.2m-27.1 4.4-.5 2.8c-.1.8.1 1 .8.9l4.3-.7.9-4.9-4.3.7c-.7.1-1 .4-1.2 1.2m1.5 1c.1-.7.4-.6 1.1-.7l.7-.1-.2 1.1-.7.1c-.7.1-1 .3-.9-.4"/><path d="m-162.26 385.486-.6-2.5h-.4l-.1.6c-.1.4-.4.8-.8.8l-2.4.4c-.4.1-.6-.2-.6-.6l1.2-6.6c.1-.4.4-.8.8-.8l2.4-.4c.4-.1.6.2.6.6l-.2.8 4.9-.8.2-1c.5-2.5-1.3-4.5-3.7-4.1l-4.7.7c-2.4.4-5 3-5.4 5.5l-1.3 7c-.5 2.5 1.3 4.5 3.7 4.1l1.6-.3 4.8-3.4zM-158.768 383.99c.1-.3.2-.5.3-.8l.2-.9-2 .3 1.5 1.4z"/><path fill="#0F0F0F" d="M-151.906 418.983c-.5.4-1.1.6-1.7.6h-4.5c-.5 0-1.1-.1-1.5-.4-.6-.4-.9-.9-1-1.5-.1-.7.1-1.3.5-1.8s.9-.8 1.5-.8h5.3c.5 0 .9.2 1.3.5s.7.7.8 1.2c.2.9-.1 1.6-.7 2.2m-1.6-4.5h-4.6c-.6 0-1.1.1-1.6.3-.6.3-1 .7-1.3 1.3-.2.5-.3 1.1-.2 1.6.1.6.3 1.1.7 1.6.6.7 1.4 1 2.3 1h5.2c.6-.1 1.1-.3 1.6-.7.5-.5.8-1.1.9-1.8.1-.7 0-1.3-.4-1.8-.6-1.1-1.5-1.5-2.6-1.5m-32.8 5.1H-191.905c-.2 0-.2 0-.2-.2v-4.1c0-.2 0-.2.2-.2h5.2c1.1 0 1.9.6 2.1 1.8.3 1.3-.4 2.4-1.7 2.7m1.3-4.5c-.5-.4-1-.6-1.6-.6h-6.1c-.2 0-.2 0-.2.2v5.4c0 .2.1.2.2.2h6.1c.2 0 .5 0 .7-.1 1.1-.5 1.8-1.3 1.9-2.5.2-1-.1-1.9-1-2.6m17.9 1c-.2.1-.3.1-.5.1h-6.8c-.2 0-.3-.1-.3-.3v-.6c0-.2 0-.2.2-.2h7c.3 0 .4.1.5.4.2.3.1.5-.1.6m-.5-1.6h-7.6c-.2 0-.2.1-.2.2v2.1c0 .2 0 .2.2.2H-168.006c.3 0 .6 0 .9-.1.5-.2.9-.8.7-1.4-.1-.8-.5-1-1.2-1m-11.3 3.2c-.1.2-.3.4-.5.4h-.8c-.2-.1-.4-.4-.4-.6 0-.3.3-.6.5-.6h.3c.2 0 .5-.1.7.2.3.2.3.4.2.6m0-1.4c-.3-.2-.7-.2-1.1-.2-.8 0-1.5.9-1.3 1.7.2.6.7.9 1.5 1 .1 0 .2 0 .4-.1.8-.1 1-.6 1.1-1.1.2-.5 0-.9-.6-1.3m51.2-1.4c0 .1 0 .2-.2.2h-4.5c-.2 0-.3-.1-.3-.3 0-.5 0-.9.1-1.4.1-.4.5-.9.9-1 .2 0 .5-.1.7-.1h1.3c.3 0 .5-.2.5-.5s-.2-.5-.5-.6h-2.4c-.2 0-.2-.1-.2-.2v-.5c0-.2.1-.3.3-.3h2.5c.2 0 .4 0 .6.1.6.1.9.5 1.1 1.1.2.8-.2 1.6-1.1 1.9h-1.7c-.3 0-.7.3-.7.6 0 .1 0 .2.2.2h3.1c.2 0 .2.1.2.2s0 .4.1.6m.1-1.2H-130.706c.1-.2.2-.1.3-.1h1.3c.2 0 .3 0 .5-.1 1-.3 1.4-1.2 1.2-2.1s-.8-1.4-1.8-1.4h-3c-.2 0-.3.1-.3.3v1.1c0 .2 0 .2.2.2h2.4c.3 0 .4.1.4.3 0 .2-.1.3-.4.3h-1.3c-.2 0-.4 0-.6.1-.8.2-1.2.9-1.2 1.7v1.4c0 .1 0 .2.2.2h5.2c.2 0 .2-.1.2-.2v-1.3c0-.4-.1-.4-.2-.4m-21.3 4.4c-.2.9-.6 1.7-1.3 2.3-.4.4-.9.6-1.5.8-.4.1-.9.1-1.3.1h-5.9c-1.7 0-3.2-1.1-3.7-2.6-.5-1.4-.3-2.7.6-3.9.6-.8 1.3-1.2 2.2-1.4.3-.1.6-.1.9-.1h6.5c.9 0 1.6.4 2.3.9.5.4.8.9 1.1 1.4.2.8.2 1.7.1 2.5m-.6-4c-.4-.4-.8-.7-1.3-1-.6-.3-1.1-.4-1.8-.4H-159.806c-.9.2-1.8.6-2.5 1.3-.5.4-.8 1-1.1 1.6-.4 1-.5 1.9-.2 2.9s.8 1.9 1.6 2.5c.9.7 1.8 1 2.9 1h6.3c.3 0 .6-.1.9-.1.6-.2 1.2-.4 1.7-.8.7-.5 1.2-1.1 1.5-1.9.4-.8.5-1.7.3-2.6 0-1-.4-1.8-1.1-2.5m-33 5c-.2.3-.4.7-.6 1-.3.4-.7.6-1.1.9-.5.3-1 .4-1.5.5h-8.5c-.2 0-.2 0-.2-.2v-7.6c0-.2.1-.2.2-.2h8.4c.9 0 1.7.4 2.4 1 .5.5 1 1.1 1.2 1.8.1.3.2.6.2.9-.1.5-.2 1.2-.5 1.9m-.9-5.6c-.7-.5-1.5-.9-2.4-.9h-9.1c-.2 0-.2 0-.2.2v8.9c0 .2.1.2.2.2h9.6c1.2-.2 2.2-.9 2.9-1.9.5-.7.7-1.4.8-2.2.1-.7 0-1.5-.3-2.1-.2-.9-.7-1.6-1.5-2.2m18.6 7.9h-1.3c-.1 0-.2 0-.2-.2v-1.4c0-.5-.5-1.3-1-1.5-.3-.1-.5-.1-.8-.1h-7c-.2 0-.3.1-.3.3v2.7c0 .2 0 .2-.2.2h-1.2c-.2 0-.2 0-.2-.2V413.583c0-.2 0-.3.3-.3h9.8c1 0 2 .8 2.3 1.8.2 1 0 1.8-.7 2.4-.1.1-.2.2 0 .4s.4.5.5.7c.2.3.3.7.3 1.1v1.4c-.1.2-.2.3-.3.3m.8-1.8c-.1-.6-.3-1.1-.7-1.6-.1-.1-.1-.2 0-.3.2-.2.3-.5.4-.7.3-.6.4-1.3.2-1.9-.2-.7-.5-1.3-1.1-1.7-.6-.4-1.2-.7-1.9-.7h-10.5c-.2 0-.2 0-.2.2v9c0 .2 0 .2.2.2h2.6c.2 0 .2 0 .2-.2v-2.7c0-.2.1-.2.2-.2h6.7c.5.1.9.6.9 1v1.9c0 .1 0 .2.2.2h2.7c.2 0 .2-.1.2-.2v-1.6c0-.3 0-.5-.1-.7m-32.5-5.4c0 .2 0 .3-.3.3h-7.4c-1.1-.1-2.3.9-2.6 1.8-.4 1-.2 2 .4 2.9.4.5 1 .9 1.7 1h8c.2 0 .3 0 .2.2v.6c0 .2 0 .2-.2.2h-8c-.9 0-1.8-.3-2.5-.9-.6-.5-1-1.2-1.2-1.9-.3-1.3-.2-2.4.6-3.5.6-.9 1.5-1.3 2.5-1.6.2-.1.5-.1.7-.1h7.9c.2 0 .3 0 .2.3v.7m.4-1.5h-7.6c-.6 0-1.2 0-1.8.1-.7.1-1.3.4-1.8.7-.6.5-1.1 1-1.5 1.7-.5 1-.6 2-.4 3.1.2 1 .7 1.9 1.4 2.5.9.7 1.8 1.1 3 1.2h8.7c.2 0 .2 0 .2-.2v-1.9c0-.2 0-.3-.3-.3h-8c-.8 0-1.4-.3-1.8-.9-.3-.4-.5-1-.5-1.5 0-.6.3-1.1.7-1.5.4-.3.8-.6 1.4-.6h8.2c.2 0 .2 0 .2-.2v-2c.2-.2.1-.2-.1-.2m61.9 8.6h-1.2c-.2 0-.2 0-.2-.2v-4.9c0-.6-.3-1.2-.8-1.5-.3-.2-.6-.3-.9-.3h-2.1c-.2 0-.2 0-.2.2v6.5c0 .2 0 .3-.3.3h-1c-.2 0-.2-.1-.2-.2v-6.5c0-.2-.1-.3-.3-.3h-2c-.6 0-1.2.3-1.5.8-.2.3-.3.6-.3 1v4.9c0 .2 0 .3-.3.3h-1.2c-.1 0-.2 0-.2-.2v-5.7c0-.9.8-1.8 1.6-2 .3-.1.7-.1 1-.1h8.1c.9 0 1.5.4 2 1.1.2.3.3.7.3 1.1v5.5c-.1.2-.1.2-.3.2m-.2-7.9c-.6-.5-1.2-.7-2-.7h-8.2c-.3 0-.6 0-.9.1-.6.2-1.1.5-1.5 1s-.7 1-.7 1.7v6.4c0 .2 0 .2.2.2h2.6c.2 0 .3 0 .3-.2v-5.6c0-.4.2-.8.6-1 .2-.1.5-.1.7-.1h1.2c.2 0 .3.1.3.3v6.5c0 .2 0 .2.2.2h2.4c.2 0 .2-.1.2-.2v-6.5c0-.1 0-.2.1-.2h1.6c.6 0 1 .5 1 1.1v5.5c0 .2 0 .2.2.2h2.6c.2 0 .2-.1.2-.2v-6c0-1.1-.4-1.9-1.1-2.5"/></svg>