<svg xmlns="http://www.w3.org/2000/svg" xml:space="preserve" width="641.883" height="266.225" viewBox="-54.704 -17.335 641.883 266.225"><linearGradient id="a" x1="-387.703" x2="-387.703" y1="422.882" y2="243.83" gradientTransform="matrix(1 0 0 -1 654 409.225)" gradientUnits="userSpaceOnUse"><stop offset=".005" style="stop-color:#cbecfc"/><stop offset=".401" style="stop-color:#bbe3f7"/><stop offset=".543" style="stop-color:#2793c8"/><stop offset="1" style="stop-color:#1e8ec5"/></linearGradient><path fill="url(#a)" d="M583.629-13.657h-96.273l-88.943 91.048v-91.048l-56.885 58.048v-58.048L236.423 91.724V-13.657l-98.209 98.381v-98.381L78.131 44.724v-58.381L-51.036 113.391h47.333l58.167-60.167v60.167l51.917-51.917v51.917l-48.708 48.708h49.291l97.187-97.187v48.479h52.813l58.834-58.833v58.833l50.583-50.583v50.583h122.25l32-32h-91.668l20.5-19.5h30.834l30.416-30.417h-28.082l20.707-18.708h54.625z"/><linearGradient id="b" x1="266.238" x2="266.238" y1="-17.721" y2="163.613" gradientUnits="userSpaceOnUse"><stop offset="0" style="stop-color:#2a76a0"/><stop offset="1" style="stop-color:#223756"/></linearGradient><path fill="url(#b)" d="m54.048 163.599 50.833-50.83V65.095l-51.917 51.914-.002-60.075-56.028 57.956h-51.638L79.631-17.239v58.412l60.083-58.38v98.302l98.209-98.378-.002 105.377L343.026-17.287v58.002l56.887-58.05v91.042l86.811-88.866h96.908v1.502-1.502h3.549l-28.582 29.423h-54.684L486.53 29.972h27.807L480.918 63.39l-30.855-.002-17.35 16.504h91.537l-34.998 34.998H364.879V66.429l-50.583 50.583V58.179l-56.712 56.711H202.65l-.002-46.355-95.063 95.064H54.048zm53.833-49.588-46.585 46.586h45.046l99.309-99.312v50.602h50.69l60.957-60.954v58.833l50.582-50.578v52.702h120.129l28.998-29h-91.795l23.65-22.5h30.813l27.416-27.417h-28.357l24.025-21.707h54.568l22.752-23.422-92.094-.003-91.074 93.229V-9.982l-56.887 58.05V-10.03L234.921 95.353V-10.03l-98.208 98.382v-98.461L76.631 48.269v-58.348L-47.371 111.887h43.033l60.303-62.376v60.257l51.917-51.914-.001 56.157z"/><path fill="#E2E2E2" d="M186.131 157.056v-47.333l-65.833 64h48.999v22.334h16.834v-22.334h18.833l17.834-16.667h-36.667zm-16.834 0h-9.999l9.999-10.999v10.999z"/><linearGradient id="c" x1="171.582" x2="171.582" y1="106.779" y2="197.113" gradientUnits="userSpaceOnUse"><stop offset=".005" style="stop-color:#9ca3a6"/><stop offset="1" style="stop-color:#454547"/></linearGradient><path fill="url(#c)" d="M168.296 197.057v-22.334h-50.464l69.299-67.368v48.7h38.201l-19.975 18.668-18.226-.002v22.336h-18.835zm-45.535-24.336h47.536v22.335h14.833v-22.335h19.438l15.692-14.666h-34.13v-.999h1.001-1.001v.999h-1v-45.966l-62.369 60.632zm34.275-14.666 13.262-14.586v14.586h-13.262zm12.261-.999v-1.001 1.001zm-7.738-1.001h6.737v-7.413l-6.737 7.413z"/><linearGradient id="d" x1="-429.724" x2="-429.724" y1="284.818" y2="154.63" gradientTransform="matrix(1 0 0 -1 654 409.225)" gradientUnits="userSpaceOnUse"><stop offset=".005" style="stop-color:#cbecfc"/><stop offset=".401" style="stop-color:#bbe3f7"/><stop offset=".543" style="stop-color:#2793c8"/><stop offset="1" style="stop-color:#1e8ec5"/></linearGradient><path fill="url(#d)" d="m163.214 247.39 122.125-120.125v90.125h-21.875v-34l-62.25 64z"/><linearGradient id="e" x1="223.192" x2="223.192" y1="122.279" y2="219.613" gradientUnits="userSpaceOnUse"><stop offset="0" style="stop-color:#2a76a0"/><stop offset="1" style="stop-color:#223756"/></linearGradient><path fill="url(#e)" d="M163.215 248.89v-1.5l1.05 1.068-1.05-1.068v1.5h-3.667l127.289-125.209v95.208h-24.873v-31.807l-60.118 61.808h-38.631zm3.661-3 33.701-.002 64.384-66.194v36.195h18.877v-85.046L166.876 245.89z"/><linearGradient id="f" x1="-296.286" x2="-296.286" y1="284.835" y2="153.835" gradientTransform="matrix(1 0 0 -1 654 409.225)" gradientUnits="userSpaceOnUse"><stop offset=".005" style="stop-color:#cbecfc"/><stop offset=".401" style="stop-color:#bbe3f7"/><stop offset=".543" style="stop-color:#2793c8"/><stop offset="1" style="stop-color:#1e8ec5"/></linearGradient><path fill="url(#f)" d="m314.464 127.265-18.5 19.875v70.25h123.499l-18.5-17h-53.5v-73.125l-19.25 19.875v53.25h-13.749z"/><linearGradient id="g" x1="358.889" x2="358.889" y1="122.279" y2="219.613" gradientUnits="userSpaceOnUse"><stop offset="0" style="stop-color:#2a76a0"/><stop offset="1" style="stop-color:#223756"/></linearGradient><path fill="url(#g)" d="M294.464 218.889v-72.342l18.899-20.307 2.6-2.789v75.437h10.75v-52.357l22.248-22.97v75.329h52.586l21.768 19.999H294.464zm2.998-71.16v68.16h118.15l-15.234-14.001h-54.414l-.002-70.919-16.248 16.777v54.142h-16.75v-70.813l-15.502 16.654z"/></svg>