<svg xmlns="http://www.w3.org/2000/svg" xml:space="preserve" width="566.929" height="86.813"><path fill="red" d="M44.922 42.076V0H32.266v29.421L13.603 0H0v42.076h12.655V11.707l19.61 30.369h12.657zM65.486 42.076V13.604H52.832v28.473l12.654-.001zM65.486 7.594V0H52.832v7.594h12.654zM109.777 42.076V22.464c0-4.114-7.908-9.808-12.021-9.808h-3.797c-2.846 0-6.01 2.529-8.857 3.795v-2.847H72.447v28.473h12.654V22.464c0-1.899 4.43-4.114 6.329-4.114 1.897 0 5.377 2.214 5.377 4.114v19.613l12.97-.001zM214.811 42.077V22.463c0-4.111-7.908-9.807-12.025-9.807h-3.795c-2.847 0-6.009 2.53-8.858 3.795v-2.847h-12.654v28.473h12.654V22.463c0-1.897 4.432-4.111 6.325-4.111 1.896 0 5.381 2.214 5.381 4.111v19.614h12.972zM130.338 42.076V13.604h6.646V9.807h-6.646v-6.01h-12.967v6.01h-6.646v3.797h6.646v28.473l12.967-.001zM154.7 12.655c-10.122 0-18.663 6.959-18.663 15.5 0 8.86 8.542 15.818 18.663 15.818 8.857 0 16.135-5.062 18.033-11.703h-12.971v3.795c0 3.163-2.213 4.112-5.063 4.112-2.849 0-4.744-.949-4.744-4.112v-7.909h23.412c.001-8.541-8.228-15.501-18.667-15.501zm0 2.848c2.85 0 5.063 1.898 5.063 5.062v2.848h-9.807v-2.849c-.001-3.163 1.895-5.061 4.744-5.061zM279.349 12.655c-10.442 0-18.666 6.959-18.666 15.5 0 8.86 8.224 15.818 18.666 15.818 10.118 0 18.663-6.958 18.663-15.818 0-8.54-8.545-15.5-18.663-15.5zm0 2.848c2.846 0 4.746 1.898 4.746 5.062v15.503c0 3.163-1.9 4.112-4.746 4.112-3.164 0-5.063-.949-5.063-4.112V20.563c.001-3.162 1.899-5.06 5.063-5.06zM242.968 0v15.502s-3.801-2.847-8.861-2.847c-7.909 0-14.553 6.959-14.553 14.551 0 7.91 6.644 15.819 14.553 15.819 5.062 0 8.861-1.898 8.861-1.898v.949h12.651V0h-12.651zm-4.749 17.401c2.848 0 4.749 2.214 4.749 5.063v11.705c0 2.849-1.901 3.795-4.749 3.795-3.164 0-5.063-.947-5.063-3.795V22.464c.002-2.849 1.899-5.063 5.063-5.063zM299.591 12.815c-3.399 0-6.166-2.768-6.166-6.171 0-3.637 2.709-6.486 6.166-6.486 3.347 0 6.174 2.971 6.174 6.486 0 3.23-2.942 6.171-6.174 6.171zm0-12.337c-3.278 0-5.846 2.708-5.846 6.167 0 3.227 2.622 5.852 5.846 5.852 3.063 0 5.854-2.789 5.854-5.852.001-3.343-2.681-6.167-5.854-6.167zm1.445 8.777-1.217-2.134h-1.964v2.055h-.319V3.637h2.376c1.039 0 1.582.876 1.582 1.742 0 .79-.451 1.587-1.318 1.722l1.138 1.995-.278.159zm-3.181-2.453h2.057c.867 0 1.263-.737 1.263-1.423s-.396-1.423-1.263-1.423h-2.057v2.846z"/><path d="M56.868 86.756V71.198c0-2.949-2.952-5.9-5.904-5.9h-22.53v21.459h6.977V72.274c0-1.074.801-2.148 1.875-2.148h10.729c1.074 0 2.148 1.074 2.148 2.148v14.482h6.705zM243.534 86.756V71.198c0-2.949-2.949-5.9-5.897-5.9h-22.533v21.459h6.973V72.274c0-1.074.808-2.148 1.875-2.148h10.729c1.073 0 2.147 1.074 2.147 2.148v14.482h6.706zM344.871 86.756V71.198c0-2.949-2.949-5.9-5.898-5.9H316.44v21.459h6.974V72.274c0-1.074.807-2.148 1.881-2.148h10.729c1.073 0 2.144 1.074 2.144 2.148v14.482h6.703zM284.048 86.756V71.198c0-2.949-2.95-5.9-5.899-5.9h-30.311v21.459h6.978V72.274c0-1.074.803-2.148 1.875-2.148h4.023c.808 0 1.876 1.074 1.876 2.148v14.482h6.979V72.274c0-1.074.802-2.148 1.876-2.148h4.022c.807 0 1.875 1.074 1.875 2.148v14.482h6.706zM23.606 86.756H5.905C2.953 86.756 0 84.877 0 81.928V65.03h23.605v5.096H7.781c-.805 0-1.875.807-1.875 1.879s1.07 1.877 1.875 1.877h14.752v4.291H7.781c-.805 0-1.875 1.074-1.875 1.879 0 1.072 1.07 2.145 1.875 2.145h15.825v4.559zM110.792 86.756H93.086c-2.949 0-5.898-1.879-5.898-4.828V65.03h23.604v5.096H94.965c-.804 0-1.878.807-1.878 1.879s1.074 1.877 1.878 1.877h14.752v4.291H94.965c-.804 0-1.878 1.074-1.878 1.879 0 1.072 1.074 2.145 1.878 2.145h15.826v4.559zM312.594 86.756h-17.707c-2.949 0-5.898-1.879-5.898-4.828V65.03h23.605v5.096h-15.826c-.807 0-1.881.807-1.881 1.879s1.074 1.877 1.881 1.877h14.752v4.291h-14.752c-.807 0-1.881 1.074-1.881 1.879 0 1.072 1.074 2.145 1.881 2.145h15.826v4.559zM59.816 65.297v4.826h6.974c1.878 0 1.878 0 1.878 2.148v14.482h6.706v-14.48c0-2.148 0-2.148 2.146-2.148h6.706v-4.826h-24.41v-.002zM145.043 65.297v4.826h6.973c1.875 0 1.875 0 1.875 2.148v14.482h6.706v-14.48c0-2.148 0-2.148 2.148-2.148h6.706v-4.826h-24.408v-.002zM348.804 65.297v4.826h6.974c1.875 0 1.875 0 1.875 2.148v14.482h6.705v-14.48c0-2.148 0-2.148 2.147-2.148h6.706v-4.826h-24.407v-.002zM115.606 65.297v21.459h6.976v-3.754c0-1.074.802-2.148 1.875-2.148h8.852c1.074 0 1.875 1.074 1.875 2.148v3.754h5.904v-5.902c0-.805-.807-1.875-.807-2.949 0-.805 1.875-2.682 1.875-4.828v-1.879c0-1.877-2.949-5.9-4.825-5.9h-21.725zm8.851 4.826h8.852c1.074 0 1.875 1.074 1.875 2.148v1.875c0 1.074-.801 1.879-1.875 1.879h-8.852c-1.074 0-1.875-.805-1.875-1.879v-1.875c0-1.073.801-2.148 1.875-2.148zM177.298 65.297c-1.881 0-4.83 4.023-4.83 5.9v15.559h6.973v-5.902h12.61v5.902h6.973V71.198c0-1.877-2.948-5.9-5.097-5.9h-16.629zm4.025 4.826h8.848c.807 0 1.881 1.074 1.881 2.148v3.754h-12.61v-3.754c-.001-1.073.806-2.148 1.881-2.148zM210.559 86.756V65.297h-6.706v21.459h6.706zM566.93 86.698V71.141c0-2.949-2.955-5.9-5.904-5.9h-30.307v21.457h6.973V72.215c0-1.074.803-2.148 1.875-2.148h4.023c.807 0 1.881 1.074 1.881 2.148v14.482h6.973V72.215c0-1.074.803-2.148 1.877-2.148h4.023c.807 0 1.879 1.074 1.879 2.148v14.482h6.707zM525.917 86.698h-17.703c-2.949 0-5.898-1.879-5.898-4.828V64.973h23.602v5.094H510.09c-.801 0-1.875.807-1.875 1.879 0 1.074 1.074 1.877 1.875 1.877h14.752v4.291H510.09c-.801 0-1.875 1.074-1.875 1.879 0 1.074 1.074 2.146 1.875 2.146h15.826v4.559h.001zM474.942 65.239v4.828h6.975c1.875 0 1.875 0 1.875 2.148v14.48h6.705v-14.48c0-2.148 0-2.148 2.148-2.148h6.705V65.24h-24.408v-.001zM395.497 65.356c-1.875 0-5.898 2.951-5.898 4.826v2.953c0 1.877 4.023 4.826 5.898 4.826H407.3c1.074 0 2.143 1.074 2.143 1.879 0 1.07-1.067 2.145-2.143 2.145h-17.701v4.828h19.844c1.882 0 5.639-2.949 5.639-4.828v-2.949c0-2.146-3.757-5.096-5.639-5.096h-11.797c-1.073 0-2.147-.805-2.147-1.879 0-1.072 1.074-1.879 2.147-1.879h17.436v-4.826h-19.585zM452.317 65.356c-1.881 0-5.903 2.951-5.903 4.826v2.953c0 1.877 4.022 4.826 5.903 4.826h11.803c1.068 0 2.143 1.074 2.143 1.879 0 1.07-1.072 2.145-2.143 2.145h-17.707v4.828h19.85c1.881 0 5.631-2.949 5.631-4.828v-2.949c0-2.146-3.75-5.096-5.631-5.096H454.46c-1.068 0-2.145-.805-2.145-1.879 0-1.072 1.074-1.879 2.145-1.879h17.434v-4.826h-19.577zM417.222 65.356v9.656c0 1.877 2.949 4.828 4.83 4.828h4.824v6.973h6.979V79.84h4.825c1.881 0 4.83-2.951 4.83-4.828v-9.656h-6.705v7.779c0 .805-1.075 1.877-2.147 1.877h-8.581c-1.074 0-2.148-1.072-2.148-1.877v-7.779h-6.707z"/></svg>