<svg xmlns="http://www.w3.org/2000/svg" xml:space="preserve" width="221.248" height="39.334" version="1.0"><path fill="#0072BC" d="m211.005 19.795 9.112-11.134a5 5 0 0 0-3.869-8.167h-.028l-12.279.07a5.005 5.005 0 0 0-3.841 1.833l-1.67 2.04-1.671-2.041a5.001 5.001 0 0 0-3.84-1.832L180.64.494a4.92 4.92 0 0 0-1.098.129A4.977 4.977 0 0 0 178.01.38h-21.676c-1.849 0-3.444 1.015-4.31 2.506-2.341-1.624-5.151-2.412-7.815-2.412h-18.125c-.992 0-1.912.298-2.689.796a4.969 4.969 0 0 0-2.728-.829H99.25a5 5 0 0 0-4.303 2.453A19.619 19.619 0 0 0 84.667 0c-5.274 0-10.059 2.098-13.595 5.489l-.531-1.645A5 5 0 0 0 65.783.381H43.861c-.511 0-.994.099-1.458.241-.12-.01-.238-.026-.359-.027L31.466.5a4.957 4.957 0 0 0-4.271 2.327l-3.298 5.214-3.573-5.375A5 5 0 0 0 16.205.434L5.045.333C3.2.275 1.496 1.318.611 2.938s-.805 3.594.207 5.138l19 28.979A5.002 5.002 0 0 0 24 39.313h.051a4.999 4.999 0 0 0 4.185-2.344l10.625-16.951V34.08a5 5 0 0 0 5 5h21.922a5 5 0 0 0 4.758-3.463l.563-1.742c3.533 3.374 8.305 5.461 13.563 5.461 5.839 0 11.339-2.57 15.088-7.052.078-.094.133-.198.204-.296v2.084a5 5 0 0 0 5 5h10c.015 0 .028-.004.043-.004l11.077-.053h10.255a4.978 4.978 0 0 0 3.229-1.183 5.001 5.001 0 0 0 3.271 1.218h12c.236 0 .469-.019.698-.051.263.042.527.081.802.081h21.676c.434 0 .853-.07 1.259-.176.432.121.883.188 1.345.188h.028l12.291-.07a5.005 5.005 0 0 0 3.841-1.833l1.657-2.024 1.656 2.024a4.994 4.994 0 0 0 3.841 1.833l12.291.07h.028a5 5 0 0 0 3.868-8.168l-9.11-11.129zM99.501 25.583l-5.763-5.912.425-.415a4.997 4.997 0 0 0 3.221 1.185h2.575v5.709a5.189 5.189 0 0 0-.458-.567z"/><path fill="#FFF" d="m217.309 4.989-13.579.077-5.3 6.475-5.302-6.475-13.578-.077 12.119 14.808-12.117 14.799 13.59-.078 5.288-6.461 5.287 6.461 13.59.078-12.118-14.799 12.12-14.808zm-2.122 28.595-10.992-.063-5.764-7.043-5.765 7.043-10.992.063 11.289-13.788L181.672 6l10.98.063 5.778 7.056 5.776-7.056L215.188 6l-11.291 13.796 11.29 13.788zM69.125 14.098l-2.978-9.217H43.361v29.697h22.786l2.978-9.217H52.578V23.34h8.313v-7.475h-8.313v-1.768h16.547zm-9.234 2.768v5.475h-8.313v4.021H67.75l-2.331 7.217H44.361V5.881h21.058l2.331 7.217H51.578v3.768h8.313z"/><path fill="#FFF" d="M164.959 25.361V23.34h8.219v-7.475h-8.219v-1.767h16.36l-2.944-9.217h-22.541v29.697h22.541l2.944-9.217h-16.36zm12.686 8.217h-20.811V5.881h20.811l2.306 7.217H163.96v3.767h8.219v5.475h-8.219v4.021h15.991l-2.306 7.217zM151.987 19.521c1.478-2.016.868-6.548.845-6.712-.645-7.739-8.266-7.833-8.622-7.833h-18.626v29.539h11.25v-20.79h3.849c.951.665.906 1.42.904 1.445l-.008.071.013.071c.175.994.058 1.744-.349 2.229-.537.64-1.521.735-2.06.736-.365 0-.624-.042-.641-.044l-.584-.098v9.11l4.599 7.305h13.13l-6.796-12.128c1.838-1.09 3.049-2.834 3.096-2.901zm1.993 14.028h-10.87l-4.151-6.594v-7.684c.843.028 2.225-.104 3.05-1.088.598-.712.791-1.718.577-2.991.007-.328-.076-1.494-1.483-2.39l-.123-.078h-5.146v20.789h-9.25V5.975h17.647c.72 0 7.044.194 7.607 6.944.166 1.196.371 4.606-.667 6.022-.013.019-1.331 1.909-3.187 2.836l-.469.234 6.465 11.538zM98.834 4.942l-2.053 11h7.677V34.57h11V15.942h7.676l-2.053-11H98.834zm15.625 10V33.57h-9V14.942h-7.473l1.68-9h20.586l1.68 9h-7.473zM84.667 13.881a5.76 5.76 0 0 1 4.908 2.72l.329.525 6.828-6.662-.288-.354A15.111 15.111 0 0 0 84.667 4.5C76.304 4.5 69.5 11.304 69.5 19.667s6.804 15.167 15.167 15.167c4.503 0 8.745-1.982 11.637-5.439l.29-.346-6.681-6.854-.338.539a5.76 5.76 0 0 1-4.908 2.72c-3.19 0-5.786-2.596-5.786-5.786s2.596-5.787 5.786-5.787zm-6.786 5.786a6.793 6.793 0 0 0 6.786 6.786 6.746 6.746 0 0 0 5.397-2.67l5.178 5.312a14.138 14.138 0 0 1-10.576 4.74c-7.812 0-14.167-6.355-14.167-14.167S76.855 5.5 84.667 5.5c4.134 0 8.011 1.777 10.708 4.891l-5.302 5.173a6.75 6.75 0 0 0-5.407-2.683 6.793 6.793 0 0 0-6.785 6.786zM23.991 16.309 16.43 4.937 4.069 4.825l19.94 30.414L42.898 5.104l-11.751-.106-7.156 11.311zM41.102 6.087 23.991 33.386 5.931 5.842l9.959.09 8.121 12.215 7.684-12.145 9.407.085z"/></svg>