<svg xmlns="http://www.w3.org/2000/svg" viewBox="0 0 250.854 57.278"><g fill="#2930b4"><path d="M93.406 19.341v-1.827h3.346c2.777 0 3.395-.025 3.629-.147l.443-.149c.087 0 .451-.154.807-.339.812-.422 2.54-2.111 2.54-2.48l.202-.75c.135-.339.194-.681.174-1.015l-.03-.503-5.135-.025c-4.687-.023-5.146-.04-5.258-.192-.087-.117-.124-.633-.124-1.722 0-1.281.027-1.581.155-1.708.137-.139.877-.155 6.654-.155 5.529 0 6.516.02 6.616.142.087.104.109.878.085 2.942-.027 2.468-.052 2.832-.204 3.064l-.175.439-.247.671-.244.675c0 .099.366.573.815 1.054 1.486 1.595 2.147 2.366 2.147 2.511l.124.224.362.349.125.519-.114.247h-3.336l-.708-.745c-.389-.411-.756-.852-.815-.98-.142-.312-.422-.371-.686-.14l-.317.187-.26.144-1.62.843-.504.197-.715.257-.381.15c-.03.048-1.688.087-3.702.087h-3.649v-1.825z"/><path d="M109.478 16.26c-.359-.057-.382-.187-.349-1.955l.028-1.481 5.864-.027c4.25-.018 5.903.007 6 .087.104.085.135.468.135 1.618 0 1.281-.025 1.526-.164 1.641-.134.112-1.166.139-5.704.147-3.045.007-5.66-.007-5.81-.03zm81.724 0-.329-.309.043-3.054c.063-.097 1.363-.124 5.946-.124 5.699 0 5.87.005 5.97.192l-.038 3.123c-.135.185-.319.192-5.753.204-3.085.006-5.714-.007-5.839-.032zm-68.157 4.752c-.119-.309-.067-3.552.058-3.677.089-.087 1.11-.119 3.991-.119 3.156 0 3.926-.025 4.153-.14.154-.077.613-.244 1.02-.371.933-.289 1.541-.7 1.952-1.321l.322-.488-.025-1.531-.027-1.531-6.2-.025-6.2-.025-.095-.252c-.053-.139-.097-.828-.097-1.53 0-1.147.02-1.299.199-1.476.194-.194.329-.197 7.646-.197 6.639 0 7.466.017 7.604.155.134.135.154.591.154 3.512 0 3.164-.012 3.395-.212 4.018a12.906 12.906 0 0 1-.758 1.875c-.209.416-1.815 1.994-2.029 1.994l-.16.092c0 .204-1.019.685-1.925.908l-.489.192c-.055.055-1.859.092-4.458.092-3.89.001-4.371-.016-4.424-.155zm16.539.019c-.077-.092-.105-.593-.087-1.551l.028-1.414.247-.068c.135-.037 1.02-.072 1.965-.078l1.72-.01.329-.369c.304-.341.331-.424.331-1.019 0-1.017-.12-.97 2.582-1.004 2.176-.025 2.351-.042 2.555-.225l.341-.852c-.057-.177-.269-.185-5.278-.185-2.87 0-5.29-.027-5.375-.06v-2.842c.085-.033 3.076-.06 6.646-.06 4.916 0 6.519.028 6.609.119.165.165.155 4.013-.013 4.622-.282 1.02-.73 1.57-1.7 2.089l-.588.316-1.852.042-1.852.04v.503c0 .853-.438 1.543-1.241 1.95-.349.179-.588.195-2.817.195-1.957-.002-2.458-.029-2.55-.139zm29.747-8.211-15.182-1.329-.474-.519V8.744l.474-.437 15.182 1.327.476.521v2.228zm0 4.187-15.182-1.33-.474-.519v-2.229l.474-.436 15.182 1.327.476.521v2.228zm0 4.186-15.182-1.329-.474-.52v-2.229l.474-.437 15.182 1.329.476.521v2.227zm16.435-12.299H174.3c.015.274-.202 1.106-.794 1.939a3.495 3.495 0 0 1-1.321 1.107v3.649c.279-.006 2.382-.085 3.716-1.845.933-1.232.943-2.565.929-2.989h8.829c-.002.307-.004.658-.004 1.056 0 .391 0 .704-.002.962-.004.709-8.823.551-8.823.551l-.013 2.316s8.098-.099 8.291.231c.101.173-.157.658-.356.874-.757.822-1.092.748-1.741.934-.767.219-1.667.184-5.18.205-3.821.025-4.445.048-4.521.177l.025 3.393c.064.03 2.333.043 5.043.03 5.506-.023 4.981.038 6.616-.781.626-.314.916-.541 1.575-1.241.76-.808 1.059-1.496 1.366-2.219.202-.623.165-.549.192-4.243.025-3.291.008-4.068-.092-4.136l-2.269.03zm29.229 4.226h6.312c.187 0 .34-.153.34-.34v-2.396a.341.341 0 0 0-.34-.34h-6.312V8.329a.361.361 0 0 0-.36-.36h-3.608a.361.361 0 0 0-.36.36v1.715h-6.134a.341.341 0 0 0-.34.34v2.396c0 .187.153.34.34.34h6.134v8.403c0 .198.162.36.36.36h3.608c.198 0 .36-.162.36-.36V13.12z"/><path d="M206.061 14.132s2.83.053 2.828 0l-.054 3.959c0 1.966-2.172 3.743-5.224 3.743 0 0-.568-2.19-.35-3.635 0 0 1.509.15 2.172-.44.862-.767.628-3.627.628-3.627zm13.709 0s-2.83.053-2.828 0l.054 3.959c0 1.966 2.172 3.743 5.224 3.743 0 0 .568-2.19.35-3.635 0 0-1.509.15-2.172-.44-.862-.767-.628-3.627-.628-3.627zm-2.165-4.696h-.787a1.004 1.004 0 0 1-1.001-1.001c0-.551.451-1.001 1.001-1.001h.787c.551 0 1.001.451 1.001 1.001.001.55-.45 1.001-1.001 1.001zm3.366 0h-.787a1.004 1.004 0 0 1-1.001-1.001c0-.551.451-1.001 1.001-1.001h.787c.551 0 1.001.451 1.001 1.001.001.55-.45 1.001-1.001 1.001z"/></g><g fill="#cb4414"><path d="M92.921 18.531v-1.827h3.346c2.777 0 3.395-.025 3.629-.147l.443-.149c.087 0 .451-.154.807-.339.812-.422 2.54-2.111 2.54-2.48l.202-.75c.135-.339.194-.681.174-1.015l-.03-.503-5.135-.025c-4.687-.023-5.146-.04-5.258-.192-.087-.117-.124-.633-.124-1.722 0-1.281.027-1.581.155-1.708.137-.139.877-.155 6.654-.155 5.529 0 6.516.02 6.616.142.087.104.109.878.085 2.942-.027 2.468-.052 2.832-.204 3.064l-.175.439-.247.671-.244.675c0 .099.366.573.815 1.054 1.486 1.595 2.147 2.366 2.147 2.511l.124.224.362.349.125.519-.114.247h-3.336l-.708-.745c-.389-.411-.756-.852-.815-.98-.142-.312-.422-.371-.686-.14l-.317.187-.26.144-1.62.843-.504.197-.715.257-.381.15c-.03.048-1.688.087-3.702.087h-3.649v-1.825z"/><path d="M108.993 15.451c-.359-.057-.382-.187-.349-1.955l.028-1.481 5.865-.027c4.25-.018 5.903.007 6 .087.104.085.135.468.135 1.618 0 1.281-.025 1.526-.164 1.641-.134.112-1.166.139-5.704.147-3.045.006-5.66-.007-5.811-.03zm81.725 0-.329-.309.043-3.054c.063-.097 1.363-.124 5.946-.124 5.699 0 5.87.005 5.97.192l-.038 3.123c-.135.185-.319.192-5.753.204-3.086.006-5.714-.007-5.839-.032zm-68.158 4.752c-.119-.309-.067-3.552.058-3.677.089-.087 1.11-.119 3.991-.119 3.156 0 3.926-.025 4.153-.14.154-.077.613-.244 1.02-.371.933-.289 1.541-.7 1.952-1.321l.322-.488-.025-1.531-.027-1.531-6.2-.025-6.2-.025-.095-.252c-.053-.139-.097-.828-.097-1.53 0-1.147.02-1.299.199-1.476.194-.194.329-.197 7.646-.197 6.639 0 7.466.017 7.604.155.134.135.154.591.154 3.512 0 3.164-.012 3.395-.212 4.018a12.906 12.906 0 0 1-.758 1.875c-.209.416-1.815 1.994-2.029 1.994l-.16.092c0 .204-1.019.685-1.925.908l-.489.192c-.055.055-1.859.092-4.458.092-3.89 0-4.37-.016-4.424-.155zm16.54.018c-.077-.092-.105-.593-.087-1.551l.028-1.414.247-.068c.135-.037 1.02-.072 1.965-.078l1.72-.01.329-.369c.304-.341.331-.424.331-1.019 0-1.017-.12-.97 2.582-1.004 2.176-.025 2.351-.042 2.555-.225l.341-.852c-.057-.177-.269-.185-5.278-.185-2.87 0-5.29-.027-5.375-.06v-2.842c.085-.033 3.076-.06 6.646-.06 4.916 0 6.519.028 6.609.119.165.165.155 4.013-.013 4.622-.282 1.02-.73 1.57-1.7 2.089l-.588.316-1.852.042-1.852.04v.503c0 .853-.438 1.543-1.241 1.95-.349.179-.588.195-2.817.195-1.957-.002-2.458-.029-2.55-.139zm29.747-8.21-15.183-1.33-.474-.519V7.935l.474-.438 15.183 1.328.475.521v2.227zm0 4.186-15.183-1.329-.474-.52v-2.229l.474-.436 15.183 1.328.475.521v2.227zm0 4.186-15.183-1.329-.474-.519v-2.23l.474-.437 15.183 1.329.475.521v2.228zm16.434-12.298h-11.466c.015.274-.202 1.106-.794 1.939a3.495 3.495 0 0 1-1.321 1.107v3.649c.279-.006 2.382-.085 3.716-1.845.933-1.232.943-2.565.929-2.989h8.829c-.002.307-.004.658-.004 1.056 0 .391 0 .704-.002.962-.004.709-8.823.551-8.823.551l-.013 2.316s8.098-.099 8.291.231c.101.173-.157.658-.356.874-.757.822-1.092.748-1.741.934-.767.219-1.667.184-5.18.205-3.821.025-4.445.048-4.521.177l.025 3.393c.064.03 2.333.043 5.043.03 5.506-.023 4.981.038 6.616-.781.626-.314.916-.541 1.575-1.241.76-.808 1.059-1.496 1.366-2.219.202-.623.165-.549.192-4.243.025-3.291.008-4.068-.092-4.136l-2.269.03zm29.229 4.225h6.312c.187 0 .34-.153.34-.34V9.574a.341.341 0 0 0-.34-.34h-6.312V7.519a.361.361 0 0 0-.36-.36h-3.608a.361.361 0 0 0-.36.36v1.715h-6.134a.341.341 0 0 0-.34.34v2.396c0 .187.153.34.34.34h6.134v8.403c0 .198.162.36.36.36h3.608c.198 0 .36-.162.36-.36V12.31z"/><path d="M205.577 13.322s2.83.053 2.828 0l-.054 3.959c0 1.966-2.172 3.743-5.224 3.743 0 0-.568-2.19-.35-3.635 0 0 1.509.15 2.172-.44.862-.766.628-3.627.628-3.627zm13.708 0s-2.83.053-2.828 0l.054 3.959c0 1.966 2.172 3.743 5.224 3.743 0 0 .568-2.19.35-3.635 0 0-1.509.15-2.172-.44-.862-.766-.628-3.627-.628-3.627zm-2.164-4.696h-.787a1.004 1.004 0 0 1-1.001-1.001c0-.551.451-1.001 1.001-1.001h.787c.551 0 1.001.451 1.001 1.001 0 .551-.45 1.001-1.001 1.001zm3.366 0h-.787a1.004 1.004 0 0 1-1.001-1.001c0-.551.451-1.001 1.001-1.001h.787c.551 0 1.001.451 1.001 1.001 0 .551-.45 1.001-1.001 1.001z"/></g><path fill="#1e2881" d="M98.43 40.561c-1.61 6.729-4.768 10.094-9.476 10.094-4.51 0-5.992-3.237-4.444-9.709l3.506-14.656h2.939l-3.31 13.837c-1.125 4.701-.338 7.052 2.362 7.052 2.6 0 4.443-2.267 5.528-6.801l3.37-14.087h2.938l-3.413 14.27zm16.322-10.895h-6.617l-1.723 7.202h6.098l-.803 3.358h-6.098l-2.399 10.027h-2.939l5.733-23.963h9.556l-.808 3.376zm11.756 20.587h-3.223l-.133-6.099h-6.963l-2.99 6.099h-3.21l12.362-23.963h3.31l.847 23.963zm-3.359-9.342-.169-9.558c0-.311.042-.813.125-1.503h-.05a15.595 15.595 0 0 1-.606 1.503l-4.719 9.558h5.419zm24.803 9.342h-2.913l3.71-15.508a86.02 86.02 0 0 1 1.287-4.662h-.049c-.432 1.047-.771 1.799-1.022 2.256l-9.569 17.914h-2.025l-1.043-17.78c-.023-.524.011-1.32.102-2.389h-.049c-.163.958-.505 2.523-1.024 4.696l-3.702 15.474h-2.717l5.733-23.963h4.136l.838 15.959c.061 1.225.073 2.139.035 2.74h.062a66.386 66.386 0 0 1 1.412-2.807l8.543-15.892h3.988l-5.733 23.962zm7.372 0h-3.026l5.733-23.963h3.026l-5.733 23.963zm29.48-20.587h-5.092l-4.931 20.587h-2.942l4.931-20.587h-5.081l.809-3.376h13.114l-.808 3.376zm13.62 10.895c-1.612 6.729-4.774 10.094-9.488 10.094-4.517 0-5.998-3.237-4.448-9.709l3.51-14.656h2.942l-3.314 13.837c-1.126 4.701-.337 7.052 2.364 7.052 2.605 0 4.45-2.267 5.536-6.801l3.374-14.087h2.942l-3.418 14.27zm15.542 9.692h-3.437l-1.294-6.417a11.3 11.3 0 0 0-.386-1.513 4.08 4.08 0 0 0-.496-1.027 1.676 1.676 0 0 0-.681-.584c-.267-.123-.587-.184-.959-.184h-1.187l-2.329 9.725h-2.929l5.74-23.963h5.835c.832 0 1.566.134 2.202.401a3.564 3.564 0 0 1 1.54 1.211c.389.541.635 1.214.734 2.022.099.808.019 1.753-.24 2.832a10.904 10.904 0 0 1-.836 2.332 9.163 9.163 0 0 1-1.244 1.888 7.997 7.997 0 0 1-1.575 1.412 7.245 7.245 0 0 1-1.842.903l-.016.067c.263.245.478.515.648.81.167.295.32.599.461.911.141.311.267.665.383 1.061.114.396.238.855.368 1.379l1.54 6.734zm-5.801-20.738-1.865 7.787h2.449c.453 0 .894-.095 1.322-.285a4.04 4.04 0 0 0 1.193-.818c.365-.357.687-.791.966-1.304a6.99 6.99 0 0 0 .648-1.721c.275-1.147.22-2.044-.16-2.691-.38-.646-1.074-.969-2.079-.969h-2.474zm7.863 20.738 5.74-23.963h5.624c1.715 0 2.95.508 3.71 1.521.758 1.014.943 2.334.554 3.96-.326 1.36-.895 2.54-1.703 3.543-.808 1.003-1.767 1.716-2.873 2.139l-.016.067c1.175.19 2.002.8 2.487 1.83.482 1.031.525 2.37.13 4.019-.491 2.05-1.486 3.709-2.985 4.98-1.499 1.27-3.16 1.905-4.98 1.905h-5.688zm7.904-20.771-1.633 6.818h1.905c1.022 0 1.9-.326 2.637-.977.737-.652 1.248-1.573 1.534-2.765.491-2.05-.277-3.075-2.303-3.075h-2.14zm-2.397 10.009-1.817 7.587h2.509c1.097 0 2.025-.342 2.787-1.027.762-.685 1.287-1.63 1.575-2.832.595-2.484-.38-3.727-2.927-3.727h-2.127zm16.995 11.163c-2.555 0-4.332-1.12-5.334-3.359-.999-2.239-1.07-5.153-.211-8.739.923-3.854 2.443-6.93 4.558-9.225s4.516-3.442 7.203-3.442c2.488 0 4.227 1.114 5.212 3.342.987 2.228 1.05 5.141.188 8.739-.937 3.911-2.456 7.002-4.557 9.275-2.103 2.273-4.456 3.409-7.059 3.409zm5.231-21.273c-1.623 0-3.14.819-4.55 2.456-1.41 1.638-2.436 3.794-3.076 6.468-.638 2.662-.656 4.807-.057 6.433.598 1.627 1.699 2.44 3.297 2.44 1.697 0 3.221-.774 4.574-2.323 1.351-1.548 2.361-3.715 3.028-6.5.686-2.863.739-5.074.16-6.635-.577-1.559-1.703-2.339-3.376-2.339zm-158.85-.951c-.018.097-.045.21-.079.338a4.274 4.274 0 0 1-.137.403c-.056.14-.117.287-.186.439a2.823 2.823 0 0 1-.227.402 1.386 1.386 0 0 1-.259.284.446.446 0 0 1-.28.11c-.134 0-.301-.079-.507-.237a5.832 5.832 0 0 0-.809-.504 8.097 8.097 0 0 0-1.215-.503c-.475-.158-1.043-.238-1.703-.238-.734 0-1.396.113-1.988.338a5.109 5.109 0 0 0-1.554.915 4.942 4.942 0 0 0-1.629 2.826c-.097.537-.065 1.006.096 1.409.162.403.4.768.719 1.097.319.328.694.64 1.127.933.434.292.876.592 1.325.896.448.306.888.632 1.318.979.427.348.791.75 1.086 1.208.296.457.505.982.632 1.573.127.592.122 1.278-.02 2.058a7.983 7.983 0 0 1-1.159 2.918 9.238 9.238 0 0 1-2.225 2.378c-.896.677-1.928 1.213-3.091 1.609-1.164.397-2.42.595-3.764.595a9.744 9.744 0 0 1-3.626-.667 7.06 7.06 0 0 1-1.173-.585c-.311-.202-.531-.381-.657-.54-.129-.159-.164-.391-.108-.696.013-.073.041-.176.082-.31.042-.135.097-.281.161-.44.066-.158.131-.314.203-.466.069-.153.15-.292.239-.42s.18-.232.27-.311a.46.46 0 0 1 .302-.119c.193 0 .414.097.667.292.252.195.573.406.957.632a8.31 8.31 0 0 0 1.408.631c.553.195 1.225.293 2.018.293a7.18 7.18 0 0 0 2.316-.357 6.198 6.198 0 0 0 1.843-.969 5.45 5.45 0 0 0 1.295-1.436 5.05 5.05 0 0 0 .678-1.757c.1-.549.072-1.027-.081-1.436a3.24 3.24 0 0 0-.7-1.107 6.168 6.168 0 0 0-1.121-.915c-.436-.28-.876-.572-1.319-.878-.441-.304-.873-.63-1.29-.978a5.136 5.136 0 0 1-1.06-1.208 4.797 4.797 0 0 1-.623-1.573c-.128-.591-.12-1.284.023-2.076a7.637 7.637 0 0 1 1.05-2.707 8.68 8.68 0 0 1 1.986-2.214 9.49 9.49 0 0 1 2.757-1.5c1.039-.365 2.158-.548 3.36-.548.576 0 1.117.049 1.62.147.506.097.955.216 1.35.356.395.14.727.293.996.457.27.165.451.302.539.412.088.11.146.222.173.339.027.114.025.257-.006.428z"/><path fill="red" d="M4.695 0h47.889a4.694 4.694 0 0 1 4.694 4.695v47.888a4.694 4.694 0 0 1-4.694 4.694H4.695A4.693 4.693 0 0 1 0 52.583V4.695A4.695 4.695 0 0 1 4.695 0z"/><path fill="#fff" d="M5.697 9.359v17.903h9.327c4.573 0 5.564-6.137 3.255-9.14l.203-.172c.723-1.015 1.013-2.215 1.018-3.396.005-1.181-.278-2.376-1.002-3.396s-2.011-1.8-3.474-1.8H5.697zm3.255 3.254h5.603c2.033 0 2.053 4.146 0 4.146h-3.083v2.625h3.083c2.033 0 1.998 4.622 0 4.622H8.952V12.613zm17.903-3.27-7.074 17.919h9.537v-3.057h-4.861l3.65-9.275 4.851 12.332h3.505l-7.01-17.919zm-.141 21.041L19.64 48.303h9.537v-3.057h-4.86l3.649-9.275 4.852 12.332h3.505l-7.011-17.919zm10.814.008h3.255v17.903h-3.255zm3.255-21.033 7.261 10.293V9.359h3.255v17.903h-3.255l-7.261-10.861v10.861h-3.255V9.359zM5.837 30.392v17.919h7.731c9.496 0 9.459-17.919 0-17.919H5.837zm3.255 3.255h4.476c5.087 0 5.155 11.409 0 11.409H9.092V33.647z"/></svg>