<svg xmlns="http://www.w3.org/2000/svg" viewBox="0 0 140.7 19.7"><path d="M30.6.9c.8-1 2.3-1.1 3.3-.3.4.3.7.8.8 1.2 1.7 6 3.5 11.9 5.2 17.9h-3.1c-.5-1.6-1-3.3-1.4-4.9h-5.9c-.5 1.6-1 3.3-1.4 4.9H25c1.6-5.7 3.3-11.4 4.9-17.1.2-.6.3-1.3.7-1.7m1.8 3.6c-.7 2.5-1.4 5-2.1 7.4h4.3c-.7-2.4-1.4-4.9-2.2-7.4zM52.2 1c.5-.8 1.6-1.1 2.5-.9.8.2 1.5.9 1.7 1.7 1.7 6 3.5 11.9 5.2 17.9h-3.1c-.5-1.7-1-3.3-1.5-5h-5.9c-.5 1.6-1 3.3-1.4 4.9h-3c1.6-5.7 3.3-11.4 5-17.1.1-.5.1-1.1.5-1.5m-.3 10.9h4.3c-.7-2.5-1.4-5-2.1-7.4-.7 2.5-1.5 4.9-2.2 7.4zM37.6 0h11.1v3h-4.1v16.6h-2.9V3h-4.1V0zm27.2.2c.3-.1.6-.2.9-.2h3.5c2 0 3.8 1.3 4.7 3 .6 1.1.6 2.5.5 3.7-.1 1.3-.7 2.6-1.7 3.5-.5.5-1.2.8-1.8 1.2-.3.2-.3.7-.2 1 1.5 2.4 3.2 4.7 4.7 7.1h-3.5c-1.5-2.3-3-4.6-4.5-6.8-.4-.6-.6-1.5-.3-2.2.2-.6.7-1 1.3-1.2 1.1-.4 2.1-1 2.7-2 .4-.7.4-1.7.2-2.5-.2-1-1.2-1.8-2.3-1.8h-2.3c-.3 0-.7.3-.7.6v16h-2.9V2.4c0-1 .7-1.9 1.7-2.2zM77 0h3.1v19.6H77V0z"/><path fill="#5D3615" d="M130.9 19.7c-5.4 0-9.8-4.4-9.8-9.8s4.4-9.8 9.8-9.8 9.8 4.4 9.8 9.8c0 5.3-4.4 9.8-9.8 9.8zm0-19c-5 0-9.1 4.1-9.1 9.1s4.1 9.1 9.1 9.1 9.1-4.1 9.1-9.1-4.1-9.1-9.1-9.1zm0 15.8a6.7 6.7 0 1 1 0-13.4 6.7 6.7 0 0 1 0 13.4zm0-12.6c-3.3 0-6 2.7-6 6s2.7 6 6 6 6-2.7 6-6c0-3.4-2.7-6-6-6zM110.8 19.7c-5.4 0-9.8-4.4-9.8-9.8s4.4-9.8 9.8-9.8 9.8 4.4 9.8 9.8c0 5.3-4.4 9.8-9.8 9.8zm0-19c-5 0-9.1 4.1-9.1 9.1s4.1 9.1 9.1 9.1 9.1-4.1 9.1-9.1-4.1-9.1-9.1-9.1zm0 15.8a6.7 6.7 0 1 1 0-13.4 6.7 6.7 0 0 1 0 13.4zm0-12.6c-3.3 0-6 2.7-6 6s2.7 6 6 6 6-2.7 6-6c-.1-3.4-2.7-6-6-6zM93.9 19.7c-3.8 0-6.9-3.1-6.9-6.9 0-2.3 1.2-4.4 3-5.7-.5-.7-.7-1.6-.7-2.5 0-2.5 2.1-4.6 4.6-4.6s4.6 2.1 4.6 4.6c0 .9-.3 1.7-.7 2.5 1.9 1.3 3 3.4 3 5.7 0 3.8-3.1 6.9-6.9 6.9zm0-19C91.8.7 90 2.4 90 4.6c0 .9.3 1.7.8 2.4l.2.3-.3.2c-1.9 1.1-3 3.1-3 5.3 0 3.4 2.8 6.2 6.2 6.2 3.4 0 6.2-2.8 6.2-6.2 0-2.2-1.2-4.2-3-5.3l-.3-.2.2-.3c.5-.7.8-1.5.8-2.4 0-2.1-1.7-3.9-3.9-3.9zm0 16.1c-2.2 0-4-1.8-4-4s1.8-4 4-4 4 1.8 4 4-1.8 4-4 4zm0-7.3c-1.8 0-3.3 1.5-3.3 3.3 0 1.8 1.5 3.3 3.3 3.3 1.8 0 3.3-1.5 3.3-3.3 0-1.8-1.5-3.3-3.3-3.3zm0-2.9c-1.1 0-2-.9-2-2s.9-2 2-2 2 .9 2 2-.9 2-2 2zm0-3.3c-.7 0-1.3.6-1.3 1.3 0 .7.6 1.3 1.3 1.3.7 0 1.3-.6 1.3-1.3 0-.7-.6-1.3-1.3-1.3z"/><path fill="#3D3832" d="M0 17.5c0 1.2 1 2.2 2.2 2.2h15.3c1.2 0 2.2-1 2.2-2.2V2.2c0-1.2-1-2.2-2.2-2.2H2.2C1 0 0 1 0 2.2v15.3z"/><g fill="#A1978E"><path d="M7.6 3.7h1v4.2c0 .9-.1 1.8-.3 2.7-.1.6-.3 1.2-.6 1.8-.4.9-1.1 1.7-1.9 2.4-.7.6-1.5 1.1-2.4 1.3-.5.2-1 .3-1.5.4v-1.9c.6-.1 1.2-.3 1.8-.6.7-.3 1.2-.8 1.7-1.4.5-.6.9-1.2 1.2-1.9.4-.8.6-1.6.7-2.5.2-1.1.2-2.2.3-3.3V3.7zm1.3 0h1.8v12.8H8.9V3.7zm2.2 0h1c0 1.3 0 2.6.2 3.9.1 1 .3 2 .7 3 .4.9.9 1.7 1.6 2.4.7.6 1.5 1.1 2.4 1.4.2.1.5.1.8.2v1.9c-.5-.1-1-.2-1.5-.4-.6-.2-1.1-.5-1.7-.8-.4-.2-.7-.5-1-.8-.5-.5-1-1.1-1.4-1.7-.3-.5-.5-1-.7-1.6-.1-.6-.2-1.1-.3-1.7-.1-1.2-.2-2.5-.1-3.7V3.7z"/><path d="M8.9 3.7v12.8h1.8V3.7H8.9m2.2 0v2.1c0 1.2 0 2.5.1 3.7.1.6.1 1.1.3 1.7.2.6.4 1.1.7 1.6.4.6.8 1.2 1.4 1.7.3.3.7.6 1 .8.5.3 1.1.6 1.7.8.5.2 1 .3 1.5.4v-1.9c-.3 0-.5-.1-.8-.2-.9-.3-1.7-.8-2.4-1.4-.7-.7-1.3-1.5-1.6-2.4-.4-.9-.6-1.9-.7-3-.2-1.3-.2-2.6-.2-3.9h-1"/></g></svg>