<svg xmlns="http://www.w3.org/2000/svg" xmlns:xlink="http://www.w3.org/1999/xlink" width="302.341" height="34" viewBox="0 0 79.994 8.996"><defs><linearGradient id="b"><stop offset="0" style="stop-color:#000;stop-opacity:1"/><stop offset=".007" style="stop-color:#c5bb8f;stop-opacity:1"/><stop offset=".018" style="stop-color:#fbe38c;stop-opacity:1"/><stop offset="1" style="stop-color:#fffbb1;stop-opacity:0"/></linearGradient><linearGradient id="a"><stop offset="0" style="stop-color:#ffcf64;stop-opacity:1"/><stop offset="1" style="stop-color:#d09236;stop-opacity:1"/></linearGradient><linearGradient xlink:href="#b" id="d" x1="17.804" x2="17.804" y1="17.983" y2="46.173" gradientTransform="matrix(.26458 0 0 .26458 15.585 271.05)" gradientUnits="userSpaceOnUse"/><radialGradient xlink:href="#a" id="c" cx="55.191" cy="275.031" r="39.815" fx="55.191" fy="275.031" gradientTransform="matrix(1.04652 0 0 .38403 -2.574 174.032)" gradientUnits="userSpaceOnUse"/></defs><g aria-label="All Games" style="font-style:normal;font-variant:normal;font-weight:400;font-stretch:normal;font-size:20.44046021px;line-height:12.77528667px;font-family:&quot;namco regular&quot;;-inkscape-font-specification:&quot;namco regular, &quot;;letter-spacing:0;word-spacing:0;fill:#fbe01b;fill-opacity:1;stroke:none;stroke-width:.51101148px;stroke-linecap:butt;stroke-linejoin:miter;stroke-opacity:1"><g style="font-style:normal;font-variant:normal;font-weight:400;font-stretch:normal;font-size:medium;line-height:4.55890989px;font-family:&quot;namco regular&quot;;-inkscape-font-specification:&quot;namco regular, &quot;;letter-spacing:0;word-spacing:0;fill:#000;fill-opacity:1;stroke:none;stroke-width:.18235639px;stroke-linecap:butt;stroke-linejoin:miter;stroke-opacity:1"><path d="M48.426 171.732a.631.631 0 0 0-.447.184l-3.446 3.445a.631.631 0 0 0-.183.448v20.677c-.001.168.065.329.183.448l3.446 3.445c.118.118.28.184.447.184h20.678c.348 0 .63-.283.63-.631v-6.893a.631.631 0 0 0-.63-.63H52.502v-12.522h13.154a.631.631 0 0 0 .565-.348l3.447-6.893a.631.631 0 0 0-.564-.914zm27.191 0a.632.632 0 0 0-.447.184l-3.445 3.445a.631.631 0 0 0-.184.448v20.677c0 .168.065.329.184.448l3.445 3.445c.119.118.28.184.447.184h17.23a.631.631 0 0 0 .448-.184l3.447-3.445a.631.631 0 0 0 .184-.448V175.81a.631.631 0 0 0-.184-.448l-3.447-3.445a.631.631 0 0 0-.447-.184zm23.746 0a.631.631 0 0 0-.63.631v27.569c0 .348.282.63.63.63h20.678a.631.631 0 0 0 .564-.347l3.446-6.893a.631.631 0 0 0-.565-.914h-16.6v-20.045a.631.631 0 0 0-.63-.63zm27.192 0a.631.631 0 0 0-.631.631v27.569c0 .348.282.63.63.63h20.678a.631.631 0 0 0 .565-.347l3.445-6.893a.631.631 0 0 0-.564-.914h-16.6v-20.045a.631.631 0 0 0-.63-.63zm27.193 0a.631.631 0 0 0-.63.631v27.569c0 .348.282.63.63.63h20.676c.348 0 .63-.282.63-.63v-6.893a.631.631 0 0 0-.63-.63H161.27v-2.184h13.153c.348 0 .63-.283.63-.631V182.7a.631.631 0 0 0-.63-.63H161.27v-2.184h13.153c.348 0 .63-.283.63-.631v-6.893a.631.631 0 0 0-.63-.63zm27.191 0a.631.631 0 0 0-.447.184l-3.445 3.445a.631.631 0 0 0-.184.448v20.677c0 .168.066.329.184.448l3.445 3.445c.119.118.28.184.447.184h20.676c.349 0 .63-.283.631-.631v-6.893a.631.631 0 0 0-.63-.63h-16.6v-12.522h13.154a.631.631 0 0 0 .564-.348l3.446-6.893a.631.631 0 0 0-.565-.914zm23.747 0a.631.631 0 0 0-.631.631v6.893c0 .348.282.63.63.63h7.985v20.046c0 .348.282.63.63.63h6.893c.349 0 .63-.282.631-.63v-20.045h7.985c.348 0 .63-.283.63-.631v-6.893a.631.631 0 0 0-.63-.63zm27.19 0a.631.631 0 0 0-.63.631v27.569c0 .348.283.63.63.63h6.894c.348 0 .63-.282.63-.63v-27.569a.631.631 0 0 0-.63-.63zm13.41 0a.631.631 0 0 0-.448.184l-3.447 3.445a.631.631 0 0 0-.184.448v20.677c0 .168.066.329.184.448l3.447 3.445c.119.118.28.184.447.184h17.23a.632.632 0 0 0 .448-.184l3.445-3.445a.631.631 0 0 0 .184-.448V175.81a.631.631 0 0 0-.184-.448l-3.445-3.445a.631.631 0 0 0-.447-.184zm23.745 0a.631.631 0 0 0-.63.631v27.569c0 .348.282.63.63.63h6.89c.35 0 .631-.282.632-.63v-14.557l7.42 14.84a.631.631 0 0 0 .564.348h8.615c.349 0 .63-.283.631-.631v-27.569a.631.631 0 0 0-.63-.63h-6.891a.631.631 0 0 0-.631.63v14.557l-7.42-14.84a.631.631 0 0 0-.565-.348zm30.637 0a.631.631 0 0 0-.447.184l-3.446 3.445a.631.631 0 0 0-.183.448v10.34c0 .167.065.328.183.447l3.446 3.445c.119.118.28.184.447.184h13.154v2.183h-16.6a.631.631 0 0 0-.63.631v6.893c0 .348.282.63.63.63h17.231a.632.632 0 0 0 .447-.183l6.893-6.893a.631.631 0 0 0 .184-.447v-10.338a.631.631 0 0 0-.631-.63h-16.6v-2.184h13.258c.349 0 .484-.313.631-.631l3.342-6.893a.424.424 0 0 0-.05-.457c-.115-.154-.374-.173-.581-.174zm-219.973 8.155h9.076v12.521h-9.076zm169.666 0h9.076v12.521h-9.076z" style="font-style:normal;font-variant:normal;font-weight:400;font-stretch:normal;line-height:8.9508543px;font-family:Guardians;-inkscape-font-specification:Guardians;text-align:center;text-anchor:middle;stroke-width:.68922102px" transform="matrix(.28918 0 0 .28918 -12.831 -49.332)"/></g><path d="m16.763 275.865-.996.997v5.98l.996.995h5.98v-1.993H17.76v-3.986h3.986l.997-1.993zm7.864 0-.997.997v5.98l.997.995h4.982l.997-.996v-5.98l-.997-.996zm6.866 0v7.972h5.98l.996-1.993h-4.982v-5.979zm7.864 0v7.972h5.98l.995-1.993H41.35v-5.979zm7.863 0v7.972h5.98v-1.993h-3.987v-.996H53.2v-1.993h-3.986v-.997H53.2v-1.993zm7.863 0-.996.997v5.98l.996.995h5.98v-1.993H56.08v-3.986h3.986l.996-1.993zm6.867 0v1.993h2.492v5.98h1.993v-5.98h2.491v-1.993zm7.863 0v7.972h1.994v-7.972zm3.878 0-.997.997v5.98l.997.995h4.982l.997-.996v-5.98l-.997-.996zm6.867 0v7.972h1.992v-4.982l2.492 4.982h2.49v-7.972H85.54v4.983l-2.491-4.983zm8.86 0-.997.997v2.99l.996.996h3.986v.996h-4.982v1.993h4.982l1.994-1.993v-2.99h-4.983v-.996h3.987l.996-1.993zm-63.795 1.993h2.99v3.986h-2.99zm49.064 0h2.99v3.986h-2.99z" style="font-style:normal;font-variant:normal;font-weight:400;font-stretch:normal;font-size:medium;line-height:8.9508543px;font-family:Guardians;-inkscape-font-specification:Guardians;text-align:center;letter-spacing:0;word-spacing:0;text-anchor:middle;fill:url(#c);fill-opacity:1;stroke:none;stroke-width:.19930761px;stroke-linecap:butt;stroke-linejoin:miter;stroke-opacity:1" transform="translate(-15.591 -275.353)"/><path d="m16.763 275.865-.996.997v5.979l.996.996h.048l-.926-.925v-5.98l.997-.996h5.825l.036-.07zm7.863 0-.996.997v5.979l.996.996h.048l-.926-.925v-5.98l.997-.996h4.935l-.07-.07zm6.867 0v7.972h.119v-7.901h1.874v-.07zm7.863 0v7.972h.119v-7.901h1.874v-.07zm7.864 0v7.972h.118v-7.901H53.2v-.07zm7.864 0-.997.997v5.979l.997.996h.047l-.926-.925v-5.98l.996-.996h5.826l.035-.07zm6.866 0v1.993h.119v-1.922h6.857v-.07zm7.863 0v7.972h.119v-7.901h1.875v-.07zm3.878 0-.997.997v5.979l.997.996h.047l-.926-.925v-5.98l.997-.996h4.935l-.07-.07zm6.866 0v7.972h.119v-7.901h2.408l-.035-.07zm4.983 0v4.817l.118.237v-4.983h1.875v-.07zm3.877 0-.996.997v2.99l.996.996h.047l-.925-.926v-2.99l.996-.996h5.826l.036-.07zm-60.804 2.064v3.915h-2.871v.07h2.99v-3.985zm35.829 0v5.908h.118v-5.908zm13.234 0v3.915h-2.87v.07h2.989v-3.985zm-28.345.926v.07H53.2v-.07zm41.201 0v.07h4.865v-.07zm-7.864.07v.166l2.373 4.746h.084zm10.736 1.994v.925H88.42v1.993h.118v-1.922h4.982v-.996zm-75.526.925v.07h4.865v-.07zm15.727 0v.07h4.829l.035-.07zm7.863 0v.07h4.83l.035-.07zm7.863 0v.07H53.2v-.07zm6.867 0v.07h4.864v-.07z" style="font-style:normal;font-variant:normal;font-weight:400;font-stretch:normal;font-size:medium;line-height:8.9508543px;font-family:Guardians;-inkscape-font-specification:Guardians;text-align:center;letter-spacing:0;word-spacing:0;text-anchor:middle;fill:url(#d);fill-opacity:1;stroke:none;stroke-width:.19930762px;stroke-linecap:butt;stroke-linejoin:miter;stroke-opacity:1" transform="translate(-15.591 -275.353)"/></g></svg>