<svg xmlns="http://www.w3.org/2000/svg" width="274.25" height="49.612" viewBox="0 0 72.562 13.127"><g aria-label="All Games" style="font-style:normal;font-variant:normal;font-weight:400;font-stretch:normal;font-size:20.44046021px;line-height:12.77528667px;font-family:&quot;namco regular&quot;;-inkscape-font-specification:&quot;namco regular, &quot;;letter-spacing:0;word-spacing:0;fill:#fbe01b;fill-opacity:1;stroke:none;stroke-width:.51101148px;stroke-linecap:butt;stroke-linejoin:miter;stroke-opacity:1"><path d="M20 270.971c-1.49 0-2.765.44-3.669 1.356-.898.911-1.324 2.191-1.324 3.694v7.082c0 .375.341.716.716.717h3.314a.745.745 0 0 0 .716-.716v-1.936h.052v1.935c0 .375.342.716.716.717h3.314a.745.745 0 0 0 .716-.716v-7.197c0-1.54-.332-2.797-1.124-3.665-.793-.875-1.994-1.27-3.427-1.27zm24.642 0c-1.775 0-3.339.635-4.543 1.863l-.001.002a.444.444 0 0 0-.055.07c-1.158 1.22-1.756 2.78-1.756 4.56 0 1.802.6 3.404 1.772 4.679 1.173 1.275 2.683 1.953 4.38 1.953 1.317 0 2.5-.441 3.424-1.3a4.397 4.397 0 0 0 1.12-1.664c.24.53.56 1.02.99 1.444.945.933 2.18 1.413 3.563 1.413.257 0 .526-.026.809-.075.09-.016.163-.073.24-.12.037.005.072.024.11.024h3.052a.745.745 0 0 0 .716-.716v-3.99c0-1.47-.44-2.737-1.347-3.652-.904-.923-2.162-1.374-3.62-1.374a4.89 4.89 0 0 0-3.519 1.443v.001a.444.444 0 0 0-.05.06 4.821 4.821 0 0 0-1.134 1.91 5.675 5.675 0 0 0-.68-1.09.728.728 0 0 0-.558-.267h-3.158a.745.745 0 0 0-.716.716v2.149c-.026-.024-.062-.032-.087-.057-.317-.32-.48-.72-.48-1.373 0-.625.165-1.02.522-1.375.364-.355.774-.52 1.406-.52.292 0 .67.087 1.124.3a.73.73 0 0 0 .688-.044.73.73 0 0 0 .332-.605v-3.313a.736.736 0 0 0-.49-.68c-.724-.241-1.408-.371-2.054-.371zm-19.745.994v11.138c0 .375.341.716.716.717h3.052a.745.745 0 0 0 .717-.716v-11.139a.745.745 0 0 0-.716-.716h-3.104c-.67 0-.665.314-.665.716zm5.547-.716c-.326 0-.716.048-.716.716v11.138c0 .375.341.716.716.717h3.052a.745.745 0 0 0 .716-.716v-11.139a.745.745 0 0 0-.716-.716h-3.052zm45.89 2.823c-1.345 0-2.553.48-3.502 1.39a.44.44 0 0 0-.062.05 4.816 4.816 0 0 0-1.377 2.727c-.028-1.119-.289-2.076-.88-2.782-.742-.893-1.804-1.369-3-1.369-.84 0-1.64.357-2.385.936-.718-.585-1.546-.936-2.445-.936a3.756 3.756 0 0 0-2.752 1.183c-.736.762-1.122 1.745-1.122 2.823v5.01c0 .375.341.716.716.716h3.052c.19 0 .37-.088.502-.222a.716.716 0 0 0 .502.222h3.052c.19 0 .369-.088.501-.222a.716.716 0 0 0 .502.222h3.052a.745.745 0 0 0 .717-.716v-3.13c.176.986.632 1.871 1.358 2.587.948.936 2.177 1.422 3.547 1.422 1.146 0 2.22-.382 3.144-1.107a.746.746 0 0 0 .108-1.021v-.001l-1.337-1.608h2.036v3.078c0 .375.341.716.716.716h.425c1.125 0 2.062-.171 2.796-.605l.005-.003c1.288-.775 2.017-2.15 2.172-3.878.018-.195.051-.342.081-.435.017-.052.001-.027.008-.039.044-.013.175-.066.389-.066a.745.745 0 0 0 .716-.716v-3.215a.745.745 0 0 0-.716-.717h-.922c-1.194 0-2.237.344-2.988 1.075-.401.388-.705.813-.866 1.288l-.003.01c-.15.467-.217 1.078-.262 1.932-.026.412-.154.609-.151.606.009-.009-.191.057-.454.083.01-.142.022-.299.022-.402 0-1.34-.486-2.542-1.416-3.468l-.002-.002a.44.44 0 0 0-.067-.055h-.001c-.917-.89-2.094-1.361-3.409-1.361zm-56.532 1.744c.007.027.025.142.026.173a.444.444 0 0 0-.023.138v.67h-.052v-.67c0-.2.027-.238.049-.31zm34.504 2.462-.05.121.05-.121zm-.792.37c.077.023.16.033.238.033l.073.083c.089.107.153.255.153.57v.081c-.043.016-.093.002-.133.026a.62.62 0 0 1-.366.106c-.18 0-.2-.013-.295-.11-.092-.094-.114-.134-.114-.332 0-.16.014-.198.141-.325.119-.119.169-.13.303-.132zm30.723 4.761-.031.021.031-.021z" style="font-style:normal;font-variant:normal;font-weight:400;font-stretch:normal;font-family:&quot;Bauhaus 93&quot;;-inkscape-font-specification:&quot;Bauhaus 93, &quot;;fill:#0f0f0f;fill-opacity:1;stroke-width:.41777995px" transform="translate(-15.007 -270.971)"/><path d="M86.853 275.082v3.215q-.645 0-.89.245-.236.237-.302.946-.212 2.359-1.828 3.33-.856.506-2.431.506h-.424v-3.232h.138q.735 0 1.045-.302.318-.31.367-1.077.065-1.248.228-1.754.172-.506.686-1.004.897-.873 2.489-.873zm-6.373 4.447h-4.627q-.106-.35-.106-.644 0-.408.147-.8h1.55q-.163-.906-1.02-.906-.57 0-.93.49-.359.481-.359 1.24 0 .792.343 1.281.35.49.914.49.457 0 .881-.457l1.738 2.089q-1.216.954-2.7.954-1.812 0-3.044-1.215-1.233-1.216-1.233-3.011 0-1.787 1.24-3.02 1.25-1.232 3.06-1.232 1.771 0 2.97 1.208 1.208 1.2 1.208 2.962 0 .18-.032.571zm-9.792 3.574h-3.052v-4.39q0-.506-.106-.701-.106-.196-.383-.196-.514 0-.514.905v4.382H63.58v-4.39q0-.506-.114-.701-.106-.196-.384-.196-.506 0-.506.905v4.382h-3.051v-5.01q0-1.37.922-2.325.922-.963 2.235-.963 1.355 0 2.432 1.142 1.2-1.142 2.399-1.142 1.526 0 2.448 1.11.726.864.726 2.52zm-16.466-3.052v3.158q-.376.066-.686.066-1.836 0-3.06-1.208t-1.224-3.027q0-1.771 1.233-3.003 1.24-1.232 3.01-1.232 1.975 0 3.11 1.158 1.142 1.151 1.142 3.15v3.99h-3.052v-3.77q0-.644-.318-1.028-.31-.383-.84-.383-.482 0-.833.35-.35.352-.35.833 0 .506.317.832.319.327.808.327.4 0 .743-.212zm-9.825-3.19h3.158q1.02 1.265 1.02 2.668 0 1.632-1.2 2.742-1.19 1.11-2.937 1.11-2.268 0-3.851-1.722-1.583-1.722-1.583-4.194 0-2.48 1.607-4.129 1.616-1.648 4.031-1.648.824 0 1.828.334v3.313q-.783-.367-1.428-.367-1.167 0-1.91.726-.734.726-.734 1.885 0 1.183.686 1.877.685.693 1.852.693.742 0 .742-.432 0-.326-.49-.326h-.79zm-10.901-4.896v11.138h-3.052v-11.138zm-4.83 0v11.138h-3.052v-11.138zm-8.675 5.549v2.937h-.954v2.652h-3.313v-7.082q0-2.057 1.118-3.19 1.126-1.143 3.158-1.143 1.958 0 2.896 1.036.939 1.028.939 3.182v7.197h-3.313v-6.976q0-.653-.155-.906t-.555-.253q-.775 0-.775 1.159v1.387z" style="font-style:normal;font-variant:normal;font-weight:400;font-stretch:normal;font-family:&quot;Bauhaus 93&quot;;-inkscape-font-specification:&quot;Bauhaus 93, &quot;;fill:#f6ce44;fill-opacity:1;stroke-width:.41777995px;stroke:none" transform="translate(-15.007 -270.971)"/></g></svg>