<svg xmlns="http://www.w3.org/2000/svg" xml:space="preserve" width="1200" height="474" version="1.2"><path d="M377.885 24.065h187.801c42.346 0 74.632 3.245 96.857 9.727 29.846 8.812 55.42 24.455 76.713 46.922 21.293 22.477 37.492 49.992 48.604 82.537 11.105 32.555 16.662 72.69 16.662 120.417 0 41.938-5.215 78.09-15.627 108.434-12.729 37.074-30.896 67.078-54.494 90.008-17.824 17.383-41.891 30.938-72.209 40.664-22.68 7.184-52.997 10.77-90.95 10.77H377.885zm102.961 86.393v336.695h76.75c28.708 0 49.428-1.619 62.168-4.855 16.669-4.16 30.501-11.205 41.503-21.145 10.994-9.939 19.963-26.295 26.914-49.066 6.943-22.772 10.42-53.812 10.42-93.105 0-39.293-3.477-69.464-10.42-90.507-6.951-21.034-16.678-37.446-29.18-49.234-12.5-11.789-28.355-19.768-47.57-23.928-14.357-3.236-42.492-4.854-84.395-4.854h-46.19z" style="fill:#db1f26" transform="translate(60.854 .654) scale(.86298)"/><path d="M383.385 464.662V17.844H549.03c36.732.011 64.83 2.79 84.596 8.541 26.327 7.766 49 21.632 67.785 41.463 18.757 19.797 33 44.025 42.732 72.531 9.753 28.603 14.568 63.609 14.57 105.073-.002 36.483-4.531 68.067-13.68 94.735-11.128 32.416-27.087 58.84-47.913 79.073-15.875 15.48-37.165 27.418-63.732 35.94-20.118 6.365-46.586 9.454-79.565 9.46H383.385zm7.15-7.147h163.287c32.525.006 58.383-3.093 77.396-9.122 25.774-8.27 46.02-19.726 60.915-34.252 19.898-19.338 35.295-44.702 46.138-76.273 8.823-25.705 13.293-56.518 13.29-92.413.004-40.914-4.771-75.179-14.186-102.765-9.447-27.664-23.163-50.928-41.154-69.924-17.967-18.946-39.436-32.08-64.609-39.52-18.603-5.437-46.23-8.259-82.583-8.25H390.535v432.519zm81.702-67.405V92.4h43.437c36.291.017 60.58 1.363 73.588 4.27 17.102 3.697 31.445 10.878 42.747 21.543 11.327 10.68 19.99 25.406 26.123 43.968 6.184 18.78 9.163 45.098 9.173 79.227-.005 34.123-2.998 61.192-9.148 81.39-6.12 20-14.034 34.688-24.25 43.953-9.979 9.02-22.495 15.361-37.33 19.058-11.587 2.928-29.604 4.291-54.532 4.301zm7.15-7.148h62.658c24.624.01 42.367-1.42 52.784-4.084 13.922-3.479 25.277-9.297 34.286-17.431 8.762-7.893 16.326-21.433 22.205-40.734 5.835-19.108 8.843-45.61 8.835-79.304.011-33.693-3.012-59.45-8.812-76.985-5.864-17.743-13.989-31.346-24.24-41.01-10.271-9.68-23.293-16.271-39.384-19.761-11.744-2.67-36.013-4.118-72.045-4.1h-36.286zm-3.573-283.41v-3.575z"/><path d="M769.093 436.428c20.459 12.277 43.885 18.416 70.275 18.416 41.145 0 74.918-14.813 101.307-44.443 26.387-29.625 39.59-74.078 39.59-133.344 0-58.563-12.852-102.249-38.535-131.068-25.695-28.81-59.813-43.224-102.361-43.224-42.547 0-76.852 14.59-102.887 43.751-26.045 29.161-39.063 73.143-39.063 131.938 0 7.828.246 15.4.734 22.717-1.523 32.752-4.482 119.342-66.846 137.545-26.542-41.889-39.809-94.147-39.809-156.776 0-52.044 7.767-95.731 23.31-131.059 11.593-26.018 27.423-49.373 47.484-70.056 20.064-20.673 42.033-36.012 65.924-46.007 31.77-13.48 68.418-20.221 109.934-20.221 75.141 0 135.264 23.355 180.375 70.064 45.102 46.71 67.66 111.652 67.66 194.836 0 82.5-22.385 147.045-67.145 193.635-44.766 46.59-104.596 69.879-179.506 69.879-54.563 0-101.082-11.998-139.559-35.996 30.384-15.89 56.714-46.856 69.118-70.587z" style="fill:#8461a9" transform="translate(60.854 .654) scale(.86298)"/><path d="M785.353 472.834c-47.599.006-88.471-10.485-122.327-31.606l-5.298-3.308 5.532-2.892c25.31-13.175 47.82-39.573 58.136-59.403l1.756-3.36 3.25 1.95c17.072 10.237 36.583 15.376 58.809 15.384 34.652-.05 62.571-12.317 84.755-37.158 21.96-24.633 33.262-62.043 33.26-112.694.003-50.055-11.007-86.81-32.348-110.73-21.536-24.085-49.74-36.06-85.667-36.107-35.915.047-64.284 12.165-86.124 36.564-21.658 24.222-32.805 61.226-32.802 111.477 0 6.68.21 13.135.626 19.365l.013.196-.01.21c-.494 10.59-1.16 27.923-4.699 46.342-3.553 18.422-9.94 38.03-22.246 53.24-8.195 10.13-19.116 18.249-33.309 22.38l-2.581.752-1.439-2.27c-23.346-36.84-34.913-82.668-34.909-137.207.002-45.265 6.744-83.453 20.424-114.557 10.174-22.83 24.082-43.35 41.678-61.49 17.605-18.142 36.974-31.686 58.06-40.505 27.936-11.854 60.056-17.735 96.267-17.734 65.561-.037 118.61 20.488 158.23 61.555 39.7 41.095 59.414 98.222 59.393 170.621.02 71.81-19.544 128.592-58.941 169.58-39.29 40.935-92.033 61.403-157.318 61.402-.056.003-.115.003-.17.003zm0-7.15c63.928-.036 114.39-19.762 152.332-59.205 37.858-39.424 56.926-94.044 56.948-164.627-.022-71.173-19.242-126.131-57.386-165.655-38.242-39.552-88.962-59.337-153.088-59.372-35.444 0-66.577 5.753-93.49 17.172-20.134 8.425-38.683 21.356-55.705 38.894-17.03 17.559-30.442 37.349-40.273 59.407-13.154 29.889-19.816 67.1-19.812 111.663.004 52.387 10.847 95.987 32.346 131.05 11.45-3.895 20.239-10.654 27.19-19.206 7.447-9.18 12.693-20.463 16.361-32.255 7.32-23.471 8.34-48.77 8.988-62.94a299.74 299.74 0 0 1-.629-19.658c.002-51.226 11.324-90.135 34.618-116.24 23.096-25.934 53.935-38.996 91.457-38.95 37.509-.046 68.19 12.857 91.005 38.499 22.984 25.817 34.157 64.464 34.159 115.487 0 51.636-11.488 90.952-35.069 117.448-23.362 26.3-53.735 39.6-90.095 39.552-21.963.008-41.796-4.831-59.265-14.542-10.822 19.111-30.54 42.078-53.919 56.09 31.521 18.216 69.216 27.384 113.327 27.389z"/><path d="M979.435 301.87c-37.617-11.826-65.129-25.586-82.539-41.27-31.213-28.117-46.813-62.391-46.813-102.832 0-26.027 7.342-50.371 22.023-73.032 14.684-22.652 35.838-39.914 63.473-51.767 27.627-11.853 60.984-17.779 100.066-17.779 63.814 0 111.848 14.136 144.105 42.41 32.248 28.274 49.188 66.015 50.813 113.215l-102.959 3.551c-4.383-26.277-13.785-45.175-28.209-56.695-14.426-11.511-36.059-17.271-64.896-17.271-.691 0-1.379.004-2.063.01-28.787.28-51.408 6.443-67.854 18.482-10.855 7.915-16.273 18.491-16.273 31.75 0 12.103 5.086 22.458 15.266 31.056.309.261.627.521.957.782 17.214 42.91 17.626 86.991 14.903 119.39zm102.742-79.924c37.871 9.975 66.764 20.219 86.666 30.73 23.945 12.648 42.678 29.948 56.213 51.877 13.535 21.941 20.305 49.041 20.305 81.309 0 29.254-8.109 56.648-24.326 82.186-16.217 25.539-39.154 44.51-68.807 56.926-29.652 12.418-66.598 18.633-110.848 18.633-64.406 0-113.863-14.914-148.377-44.74-34.523-29.828-55.143-73.301-61.854-130.412l100.002-9.47c6.02 33.591 18.232 58.259 36.65 74.015 18.416 15.754 43.26 23.623 74.529 23.623 33.119 0 58.082-7.008 74.873-21.043 16.791-14.027 25.193-30.43 25.193-49.207 0-12.057-3.531-22.311-10.576-30.779-7.055-8.461-19.361-15.818-36.928-22.088-2.98-1.037-6.902-2.271-11.771-3.709 4.345-34.238 4.445-68.855-.944-107.851z" style="fill:#fdc20f" transform="translate(60.854 .654) scale(.86298)"/><path d="M829.16 433.869c-30.6-26.419-48.75-64.937-54.594-114.832l-.425-3.63 93.214-8.828.58 3.24c5.11 28.49 15.372 48.91 30.435 61.786 15.11 12.918 35.58 19.514 61.993 19.528 28.11.006 48.765-5.973 62.321-17.328 13.88-11.661 20.416-24.627 20.46-39.72-.02-9.717-2.776-17.604-8.298-24.274-5.404-6.523-15.487-12.707-30.296-17.975-2.486-.863-5.83-1.917-9.996-3.149l-2.918-.86.383-3.015c1.775-13.991 2.717-28.04 2.717-42.542 0-15.822-1.124-32.185-3.529-49.592l3.542-.488-3.542.488-.733-5.311 5.185 1.365c32.836 8.656 57.963 17.536 75.549 26.816 21.176 11.177 37.873 26.58 49.884 46.053 12.1 19.612 18.06 43.71 18.056 72.044.01 25.908-7.217 50.288-21.55 72.84-14.376 22.663-34.836 39.558-61.016 50.506-26.18 10.958-58.523 16.354-97.04 16.358-56.099.002-99.73-12.996-130.383-39.48zm4.673-5.412c28.914 24.997 70.644 37.736 125.708 37.741 37.856.002 69.28-5.329 94.278-15.803 24.998-10.48 44.128-26.328 57.743-47.744 13.655-21.525 20.426-44.426 20.436-69.009-.009-27.358-5.73-50.033-16.99-68.29-11.351-18.379-26.987-32.832-47.138-43.485-15.87-8.388-38.883-16.72-68.881-24.849 1.966 15.747 2.895 30.715 2.895 45.25 0 13.77-.834 27.15-2.405 40.431 2.93.89 5.402 1.683 7.444 2.392 15.482 5.546 26.64 12.061 33.415 20.143 6.635 7.945 9.976 17.754 9.954 28.85.042 17.314-7.925 32.657-23.024 45.206-15.424 12.87-37.856 18.987-66.906 18.99-27.558.017-49.967-6.97-66.641-21.244-16.11-13.787-26.736-34.848-32.217-62.722l-79.384 7.518c6.168 46.865 23.45 82.19 51.713 106.625zm71.18-163.887c-32.74-10.306-56.895-22.29-72.55-36.368-27.598-24.798-41.625-55.566-41.58-91.398-.012-23.136 6.562-44.896 19.58-64.97 13.07-20.181 31.973-35.563 56.365-46.013 24.409-10.472 53.682-15.633 87.764-15.635 55.561.002 97.954 12.295 126.717 37.487 28.591 25.018 43.678 58.758 45.067 100.266l.122 3.573-95.557 3.295-.516-3.09c-3.7-22.17-11.532-37.536-23.045-46.722-11.497-9.202-29.335-14.134-53.775-14.125-.584 0-1.165.004-1.745.01-24.372.234-43.105 5.459-56.485 15.261-8.553 6.33-12.502 14.056-12.575 24.512.048 9.416 3.773 17.133 11.907 24.072.234.197.48.397.737.602l.744.59.354.882c11.03 27.503 14.194 55.436 14.196 79.485 0 9.007-.447 17.472-1.09 25.174l-.373 4.452zm1.071-3.41 1.073-3.41zM869.648 32.389c-23.304 10.007-40.913 24.417-53.187 43.332-12.321 19.04-18.42 39.297-18.43 61.082.044 33.969 12.94 62.354 39.216 86.086 13.746 12.407 35.642 23.694 65.619 33.487.44-6.293.721-13.03.721-20.092.003-23.174-3.032-49.863-13.34-75.967-.052-.044-.104-.088-.156-.13-9.438-7.904-14.49-18.058-14.442-29.533-.072-12.427 5.331-22.956 15.506-30.283 15.011-10.98 35.321-16.393 60.634-16.64.6-.005 1.205-.009 1.815-.009 25.332.01 44.83 5.02 58.235 15.687 12.778 10.215 21.011 26.41 25.089 48.04l82.14-2.833c-2.114-38.264-16.215-68.498-42.472-91.567-26.91-23.607-67.423-35.713-122.004-35.711h-.018c-33.36 0-61.658 5.067-84.926 15.05z"/><path d="M302.11 537.997H9.138v-88.531l199.844-53.157-199.844-52.56v-88.73H302.11v54.957H71.489L302.11 368.13v56.955L71.489 483.04H302.11z" style="fill:#c0bfbf" transform="translate(60.854 .654) scale(.86298)"/><path d="M65.166 468.507v-82.724l162.056-43.104-162.056-42.623v-82.902h259.977v54.574H151.34l173.803 43.829v54.72l-173.705 43.654h173.705v54.577H65.166zm256.401-3.574v-3.575zM72.314 294.543l182.871 48.092-182.87 48.643v70.08h245.679V421.08H122.548l-.872-7.04 196.317-49.337v-43.578L121.674 271.62l.874-7.04h195.446v-40.278H72.314z"/><path d="m206.784 242.356-5.596-57.555c19.319-3.463 33.508-10.492 42.567-21.083 9.062-10.592 13.589-24.88 13.589-42.867 0-19.051-4.028-33.405-12.091-43.066-8.059-9.658-17.486-14.489-28.278-14.489-6.926 0-12.821 2.033-17.686 6.095-4.862 4.066-9.093 11.16-12.69 21.284-2.398 6.929-6.66 22.716-12.79 47.363-7.859 31.71-17.518 53.958-28.977 66.748-16.119 17.986-35.772 26.979-58.954 26.979-14.92 0-28.877-4.228-41.868-12.69-12.99-8.459-22.882-20.649-29.677-36.572-6.795-15.918-10.192-35.138-10.192-57.655 0-36.771 8.063-64.45 24.181-83.036 16.122-18.585 37.639-28.343 64.55-29.277l2.598 59.154c-15.054 2.532-25.88 7.962-32.475 16.287-6.595 8.328-9.892 20.818-9.892 37.471 0 17.187 3.531 30.645 10.591 40.368 4.531 6.264 10.592 9.393 18.186 9.393 6.929 0 12.859-2.929 17.786-8.793 6.264-7.459 12.79-25.58 19.585-54.357 6.794-28.778 13.823-50.061 21.083-63.851 7.263-13.789 17.187-24.581 29.777-32.375 12.59-7.794 28.146-11.691 46.664-11.691 16.787 0 32.509 4.665 47.163 13.989 14.658 9.327 25.549 22.517 32.675 39.569 7.125 17.056 10.691 38.305 10.691 63.75 0 37.04-8.559 65.483-25.68 85.333-17.116 19.856-42.065 31.712-74.84 35.574z" style="fill:#c0bfbf" transform="translate(60.854 .654) scale(.86298)"/><path d="m230.598 157.195 3.246-.581c16.173-2.902 27.55-8.693 34.648-17 7.142-8.359 10.855-19.718 10.869-34.67.003-15.97-3.402-27.47-9.605-34.873-6.51-7.724-13.456-11.178-21.658-11.22-5.287.02-9.41 1.482-12.97 4.428-3.418 2.822-6.905 8.406-9.865 16.793-1.976 5.692-5.674 19.35-10.948 40.564-6.876 27.647-15.25 47.28-25.814 59.128-14.44 16.183-32.594 24.517-53.538 24.471-13.554.01-26.354-3.878-38.081-11.53-11.845-7.702-20.863-18.868-26.948-33.152-6.1-14.302-9.08-31.371-9.082-51.158.004-32.218 7.048-57.033 21.743-74C97.12 17.59 116.87 8.688 140.875 7.897l3.54-.121 2.536 57.743-3.116.525c-12.48 2.104-20.876 6.5-25.816 12.749-4.966 6.231-7.774 16.188-7.764 30.117-.003 14.365 2.962 25.186 8.462 32.741 3.413 4.592 7.24 6.554 12.797 6.628 4.942-.05 8.84-1.906 12.611-6.313 2.212-2.597 4.928-7.851 7.653-15.469 2.748-7.624 5.597-17.633 8.508-29.963 5.91-24.995 12-43.555 18.51-55.947 6.527-12.408 15.567-22.255 26.977-29.311C217.318 4.128 231.456.647 247.925.65c15.152-.009 29.46 4.246 42.621 12.631 13.27 8.432 23.193 20.479 29.576 35.786 6.39 15.306 9.499 34.104 9.502 56.393.004 32.481-7.511 57.974-23.028 75.974-15.448 17.94-37.983 28.53-66.875 31.915l-3.624.426zm8.707 52.607 3.556-.347zm3.198-4.023c25.855-3.692 45.206-13.4 58.68-29.012 14.03-16.261 21.287-39.858 21.292-71.306.004-21.628-3.043-39.507-8.95-53.637-5.915-14.124-14.793-24.843-26.818-32.51-12.131-7.706-24.96-11.502-38.783-11.512-15.49.005-28.2 3.25-38.387 9.554C199.22 23.75 191.13 32.53 185.121 43.92c-6.02 11.41-12.062 29.585-17.877 54.258-2.953 12.505-5.853 22.73-8.739 30.743-2.907 8.02-5.711 13.805-8.905 17.644-4.73 5.714-11.07 8.912-18.086 8.864-7.547.073-14.184-3.366-18.587-9.58-6.69-9.23-9.819-21.639-9.822-36.937.01-14.814 2.892-26.415 9.31-34.556 5.937-7.484 15.143-12.296 27.12-14.778l-1.948-44.343c-20.742 1.494-36.999 9.38-49.593 23.843C74.87 54.19 68 77.147 68.003 108.395c-.002 19.076 2.882 35.18 8.507 48.352 5.645 13.196 13.697 23.07 24.273 29.968 10.695 6.953 21.985 10.362 34.181 10.371 19.068-.044 34.835-7.233 48.214-22.093 9.215-10.228 17.515-28.992 24.2-56.079 5.307-21.321 8.966-34.912 11.139-41.208 3.238-9.058 7.052-15.718 12.028-19.914 4.834-4.063 10.885-6.111 17.554-6.09 10.424-.044 19.75 4.842 27.146 13.787 7.715 9.271 11.26 22.545 11.267 39.456.012 16.094-4.088 29.394-12.587 39.316-7.991 9.337-19.993 15.49-35.578 18.76z"/></svg>