<svg xmlns="http://www.w3.org/2000/svg" width="128" height="128"><path fill="none" stroke="#333" stroke-linejoin="round" stroke-width="4" d="M62.2 17.094c-5.307 0-12.4 25.543-16.694 28.663-4.294 3.12-30.78 1.973-32.42 7.02-1.64 5.048 20.462 19.687 22.102 24.735 1.64 5.047-7.635 29.882-3.342 33.001 4.294 3.12 25.047-13.376 30.354-13.376 5.307 0 26.06 16.496 30.354 13.376 4.293-3.12-4.982-27.954-3.342-33.001 1.64-5.048 23.741-19.687 22.101-24.735-1.64-5.047-28.125-3.9-32.419-7.02-4.293-3.12-11.387-28.663-16.694-28.663z"/></svg>