<svg xmlns="http://www.w3.org/2000/svg" xml:space="preserve" baseProfile="tiny" viewBox="0 0 755.4 208.7"><g fill="red"><path d="m30.9 81.2 74.4 127.6h101L131.9 81.2h-101zm15.9 7.9h77.1l63.6 109h-77.1l-63.6-109zM57.5 149.5-1 208.7h93l-34.5-59.2zm-3.1 16.7 21.7 34.6H20.3l34.1-34.6zM177.2 140.3l58.5-59.2h-93l34.5 59.2zm3.1-16.7L158.6 89h55.8l-34.1 34.6zM251.7 164.2c-.1-.2-.4 1.4-.9 4.9-.5 3.4-.7 6-.8 7.7.5 3.6 1.7 3.6 3.7 5.4 1.6 1 3 .7 7 1.2 3.9.5 27.4.5 31.4 0 4-.4 7.3-1 9.4-2.4 4.2-2.6 7.1-6.5 8.6-16.8 1.1-5.6 1.5-7 1.4-9.6-.2-3.5-1.9-5.9-5.4-7.1-3.4-1.2-8.4-.6-14-.6h-10.9c-11.8 0-18.9.1-22.4 2.5-4 2.7-5.6 6.3-7.1 14.8zm84.2-41h-16.7c.6-4 .4-6.7.3-9.2-.1-2.5-.4-4.7-1.5-5.5-2.4-2-12-1.9-22.3-1.9H286c-10.2 0-16.2-.1-19.3 2.2-4 3.1-6.4 7.9-7.3 14.3l-2.7 11.1s1.8-2.7 5.9-3.1c7.1-.8 19-.1 23.4-.1 10.9.2 19.8-.5 25.7.5 5.8 1 12.2 2.2 15.2 5.5 2.7 2.8 4.2 7 4.4 12.7.2 3.8-.6 9.9-2.2 18.4-.9 4.1-2 7.8-3.3 11.1-1.2 3.3-2.9 6.4-5.1 9.2-2.2 2.8-4.8 7.7-7.8 9.3-4.7 2.4-10.8 2.3-16.3 2.9-5.5.6-14.3 0-23 0-7.8 0-15.7.2-21.4-.5-5.7-.7-10.4-2.3-14-4.9-4.5-3.3-7-8.7-7.6-16.2 0-3.9.4-8.3 1.3-13.3l9.3-48.8c1.8-10.7 5-19 12.8-24 4.3-2.7 9.6-4.5 15.7-5.3 6.2-.9 16.4-1.3 25.2-1.3h13.7c9.3 0 11.9 1.2 18.4 3.7 6.5 2.5 9.9 7.4 10.3 14.8.2 2.4-.3 12-1.4 18.4zM400 102.1c-11 0-20.9.5-24.6 1.5-3.6 1-5.8.9-7.5 3.5-1.6 2.6-2.6 5.3-3.1 8.1-.4 2.8-.8 6.6-1.2 11.4.3 2.9 1.3 4.8 2.7 5.9 2.8 1.8 12.8 2 25.7 2 11.6 0 20.2-.2 24.7-2.2 1.9-.8 3.6-2.5 4.9-5.1 1.4-2.6 2.2-4.6 3.2-9.6.5-3 .8-5.6.7-7.7-.1-2.7-.9-4.4-2.5-5.3-1.7-1-4.4-1.6-8-1.9-3.4-.5-8.5-.6-15-.6zm27.9 39.5c6.9 2.8 6.9 9.4 7 17.1 0 1.1.3 6.9-.1 8.9s-.2 3.5-.4 4.2c-1.5 7-2 10.1-4.4 14.2-2.4 4.1-3.8 7.1-7.9 9.3-3.6 2-8.2 3.5-13.7 4.2-5.5.8-15.2 1.2-23.7 1.2h-11c-9.5 0-17-.3-22.4-1-5.4-.7-8.5-3.2-11.7-6.1-3-2.6-5.8-8.9-6.3-15 .2-2.8.7-4.3 1.5-9.7 1.1-5 1.4-8.9 2.3-11.6.9-2.7 2.6-5.8 4.6-8.2 1.9-2.4 4.8-4.2 8.1-6.1 2.1-1.2 2.7-1.6.6-3.4-2.3-1.9-3-3.8-3.6-6.1-.3-.7-.5-8-.5-8.2 1-16.5 5.4-24.9 13.1-31.3 4.5-3.9 6.5-6.2 16.6-6.9 5.2-.4 19.4-.6 26.6-.6 10 0 19.7.2 23.8.6 3.6.5 6.8 1.3 9.5 2.3 2.7 1 2.4 2.8 4.5 5.2 1.8 2.3 2.8 5.9 2.9 10.8.1 3.4-.1 7-.7 10.7-.5 3.7-1.5 7.3-2.9 10.7-1.4 3.4-3.2 6.2-5.4 8.3-2.8 3-2.4 5.2-6.1 6.4-.8.3-1.2.1-1.2 0s.3-.1.9.1zm-39.1 7.4c-7 0-14.2 0-18 .4-3.8.4-6.9 1.2-9.3 2.4-2.2 1-4 2.8-5.4 5.5-1.4 2.6-2.6 6.3-3.6 11.1-.9 5.5-.8 6.6-.9 8.2.3 2.9.9 4.6 3.1 5.6s5.4 2.7 9.7 2.8c3.3.4 12 .5 20.8.5 9.1 0 16.2.6 21.1-1.2 2.3-1 4.9-1.3 6.4-3.9 1.5-2.6 2.1-5.3 3.2-10.4.9-3.9 1.3-6.9 1.3-9.1-.1-2.5-.8-7.1-2.1-8.4-1.1-1.3-3.6-2.2-7.5-2.8-4.1-.6-10.9-.7-18.8-.7zM484.3 200.8c-9.9 0-20.5-.6-26.3-1.9-5.8-1.3-10.1-3.5-12.7-6.6-3.3-3.7-2.7-9-3.1-16.2.2-5.8.9-11.6 1.9-17.1l6-31.6c1.3-6.8 3-12.9 5.3-18.4 2.3-5.5 5.6-10.1 9.7-13.7 2.4-2.3 5.5-4.1 9.4-5.5 3.9-1.3 8.3-2.2 13.3-2.6 5-.4 11-.6 18.3-.6 5.5 0 10.4.2 14.7.6 4.4.4 8.2 1 11.5 2 3.3 1 6.1 2.5 8.4 4.4 4.1 3.8 6.3 9.7 6.5 17.8.1 3.3-.4 8.9-1.5 16.8l-6.1 31.8c-3.3 18-7.3 29.9-17.2 35.5-4 2.2-8.9 3.7-14.6 4.4-5.8.5-15.3.9-23.5.9zm18.9-98c-7.6 0-13 .1-16.3.4-3.3.3-6.1.9-8.4 1.8-1.8.7-3.4 1.8-4.9 3.2-1.4 1.4-2.9 3.7-4.3 6.9s-2.7 5-3.7 10.4l-6.8 36.1c-.8 5.3-1.3 7-1.5 10.4.2 3 .7 5.2 1.5 6.6.8 1.4 2 2.5 3.6 3.3 2 1 4.6 1.7 7.7 2 3.1.3 8.2.4 15.4.4 8.7 0 15.1-.3 19.4-.8 4.3-.5 7.5-1.7 9.7-3.6 4.1-3.6 6.4-9.1 8.8-20.5l6.3-33.3c.9-6.4 1.3-8.5 1.3-11.8-.1-4.5-.3-6.9-2.2-8.3-1.9-1.4-4.6-2.3-8-2.7-3.6-.3-9.4-.5-17.6-.5zM588 200.8c-9.9 0-20.5-.6-26.3-1.9-5.8-1.3-10.1-3.5-12.7-6.6-3.3-3.7-2.7-9-3.1-16.2.2-5.8.9-11.6 1.9-17.1l6-31.6c1.3-6.8 3-12.9 5.3-18.4 2.3-5.5 5.6-10.1 9.7-13.7 2.4-2.3 5.5-4.1 9.4-5.5 3.9-1.3 8.3-2.2 13.3-2.6 5-.4 11-.6 18.3-.6 5.5 0 10.4.2 14.7.6 4.4.4 8.2 1 11.5 2 3.3 1 6.1 2.5 8.4 4.4 4.1 3.8 6.3 9.7 6.5 17.8.1 3.3-.4 8.9-1.5 16.8l-6.1 31.8c-3.3 18-7.3 29.9-17.2 35.5-4 2.2-8.9 3.7-14.6 4.4-5.8.5-15.4.9-23.5.9zm18.8-98c-7.6 0-13 .1-16.3.4-3.3.3-6.1.9-8.4 1.8-1.8.7-3.4 1.8-4.9 3.2-1.4 1.4-2.9 3.7-4.3 6.9s-2.7 5-3.7 10.4l-6.8 36.1c-.8 5.3-1.3 7-1.5 10.4.2 3 .7 5.2 1.5 6.6.8 1.4 2 2.5 3.6 3.3 2 1 4.6 1.7 7.7 2 3.1.3 8.2.4 15.4.4 8.7 0 15.1-.3 19.4-.8 4.3-.5 7.5-1.7 9.7-3.6 4.1-3.6 6.4-9.1 8.8-20.5l6.3-33.3c.9-6.4 1.3-8.5 1.3-11.8-.1-4.5-.3-6.9-2.2-8.3-1.9-1.4-4.6-2.3-8-2.7-3.5-.3-9.3-.5-17.6-.5zM691.6 200.8c-9.9 0-20.5-.6-26.3-1.9-5.8-1.3-10.1-3.5-12.7-6.6-3.3-3.7-2.7-9-3.1-16.2.2-5.8.9-11.6 1.9-17.1l6-31.6c1.3-6.8 3-12.9 5.3-18.4 2.3-5.5 5.6-10.1 9.7-13.7 2.4-2.3 5.5-4.1 9.4-5.5 3.9-1.3 8.3-2.2 13.3-2.6 5-.4 11-.6 18.3-.6 5.5 0 10.4.2 14.7.6 4.4.4 8.2 1 11.5 2 3.3 1 6.1 2.5 8.4 4.4 4.1 3.8 6.3 9.7 6.5 17.8.1 3.3-.4 8.9-1.5 16.8l-6.1 31.8c-3.3 18-7.3 29.9-17.2 35.5-4 2.2-8.9 3.7-14.6 4.4-5.8.5-15.3.9-23.5.9zm18.9-98c-7.6 0-13 .1-16.3.4-3.3.3-6.1.9-8.4 1.8-1.8.7-3.4 1.8-4.9 3.2-1.4 1.4-2.9 3.7-4.3 6.9s-2.7 5-3.7 10.4l-6.8 36.1c-.8 5.3-1.3 7-1.5 10.4.2 3 .7 5.2 1.5 6.6.8 1.4 2 2.5 3.6 3.3 2 1 4.6 1.7 7.7 2 3.1.3 8.2.4 15.4.4 8.7 0 15.1-.3 19.4-.8 4.3-.5 7.5-1.7 9.7-3.6 4.1-3.6 6.4-9.1 8.8-20.5l6.3-33.3c.9-6.4 1.3-8.5 1.3-11.8-.1-4.5-.3-6.9-2.2-8.3-1.9-1.4-4.6-2.3-8-2.7-3.6-.3-9.4-.5-17.6-.5z"/></g><g fill="red"><path d="M252.1 2v58.2H272V37.1h38.3v23.1h19.9V2h-19.9v22.3H272V2zM375.2 14.6l12.6 20.9h-25.2l12.6-20.9zm19.9 32.8 7.7 12.8h23.1L390.8 2h-23.1l-35.1 58.2h15.1l7.7-12.8h39.7zM512 2v58.2h19.1V39.1c6.3 1.3 13.5 1.9 21.1 1.9 25.3 0 36.9-9.1 37.1-20.3C589.5 7.2 574.4-.4 549-.4c-6.6 0-8.9.3-17.9.8C522.1.9 512 2 512 2zm19.1 9.2s4.7-.5 8.9-.8c4.2-.3 5.3-.2 8.4-.2 11.7 0 18.8 3.7 18.6 10.6-.1 5.8-5.5 10.4-17.2 10.4-3.5 0-8.9-.5-12.4-1-3.6-.5-6.2-1.6-6.2-1.6V11.2zM428.3 2v58.2h19.1v-49s4.7-.5 8.9-.8c4.2-.3 5.3-.2 8.4-.2 11.7 0 19.6 3.7 19.4 10.6-.1 5.8-6.3 8.8-18 8.8-3.5 0-7.9-.5-11.5-1-.2 0-4 6.2-4 6.2l28.7 25.4H508l-25.3-21.8c15.9-2.7 23.7-9.9 23.8-17.7 0-15.1-15-21.4-41.1-21.1-6.6.1-8.9.3-17.9.8-9.2.5-19.2 1.6-19.2 1.6zM239.3 19.5s6.7-12.3 6.4-12.8c-.3-.5-13.5-7.5-39.9-7.2C164.9 0 165.1 17 165.1 17s-4.1 15.9 27.7 19.1c19.5 2 33.4 5.3 33.3 10-.1 4.7-8.3 4.5-11.9 4.2-31.9-2.6-43.3-11.5-43.3-11.5L164 53.3s15.4 9.6 47.4 9.3c32-.3 36.4-7.9 37-18.1.7-12.7-17.1-17.8-17.1-17.8s-9.8-2.1-19.9-3.6c-11.7-1.7-23.8-3.5-22.3-8.2 0-.2 3.4-6.8 27.9-2.2 11.9 2.3 22.3 6.8 22.3 6.8z"/></g></svg>