<svg xmlns="http://www.w3.org/2000/svg" xml:space="preserve" width="220" height="71.8"><path d="M101.6 28.55c1.7-.2 3.3-.4 5-.4 2.6-.1 5.2.4 7.8.8 1.9.5 3.7 1.1 5.5 1.8 2 .8 3.9 2 5.3 3.6 1.2 1.2 2.1 2.8 2.4 4.5.1 1.6.3 3.3-.4 4.9-.5 1.3-1.2 2.7-2.2 3.7-1.6 1.6-3.6 2.7-5.6 3.7-1.2.6-2.4 1.2-3.7 1.7-2.3.8-4.6 1.7-7 2.3-2.5.6-4.9 1.6-7.4 2.4-3.1 1.1-6 2.5-8.5 4.6-.4.3-.6.8-.9 1.2.5.5 1.3.3 2 .4h33.4c.5 0 1.1 0 1.6-.3.6-.4 1.1-.8 1.7-1 .2 1.3.1 2.6.2 3.9 0 1.8 0 3.6-.1 5.4-.2 0-.5.1-.7.1-.4-.4-.8-1-1.4-1.1-.7-.2-1.4-.2-2.1-.2H80.6c-.4 0-.8-.2-.9-.5-.1-1.9.4-3.9 1.2-5.7 1.2-2.9 3.7-5.1 6.1-7 1.7-1.1 3.4-2.1 5.2-2.9 1-.5 2-1.1 3.1-1.5 1.6-.6 3.2-1.3 4.8-1.9 2.3-.8 4.6-1.7 6.8-2.6 2.2-.8 4.3-1.7 6.3-2.9 1.6-.9 2.7-2.3 3.6-3.9.6-1.4-.1-2.9-1-4-2.4-2.1-5.8-2.7-8.9-2.9-4.7 0-9.5 1.4-13.3 4.3-.7.5-1.4 1-1.9 1.7-.4.5-.7 1.1-.9 1.7-.2.7 0 1.4 0 2.1-.1.4-.7.3-.9.1-1.4-1.1-2.5-2.5-3.9-3.6-1.1-.9-2.1-2-3.2-3-.4-.4-.9-.7-.9-1.3.7-.2 1.4-.2 2-.5 1.3-.8 2.5-1.8 3.8-2.6 2.3-1.4 4.6-2.7 7.1-3.5 2.4-.8 4.6-1.4 6.8-1.6zM42.2 29.25c2.7-.5 5.4-.8 8.1-.9 3 0 6.1-.1 9.1.5 1.7.2 3.4.8 5.1 1.2 1.8.6 3.5 1.5 5.1 2.5 1.9 1.3 3.5 3.1 4.2 5.4.3 1.4.4 3 0 4.4-.3.9-.7 1.8-1.4 2.5-.6.7-1.5 1.1-2.4 1.6-.9.5-2 .8-2.9 1.3.2.2.2.5.4.6 1.1.5 2.4.8 3.5 1.4 1.7.8 3.1 2.1 4.4 3.4.9 1.1 1.5 2.4 1.7 3.9.1.9.3 1.8.1 2.7-.3 1.7-1 3.4-2.3 4.6-1.8 1.9-4.1 3.1-6.5 4.2-2.3.9-4.7 1.6-7.1 1.9-4.7.8-9.6.6-14.3.4-3.2-.3-6.5-.6-9.6-1.4-2.5-.7-4.9-1.5-7.3-2.5-.8-.4-1.7-.8-2.6-.9-.7 0-1.5.2-2.2.2-.3-.1-.5-.4-.4-.6.3-.7.7-1.3 1.1-1.9 1-1.6 1.9-3.1 2.9-4.7.4-.7.8-1.4 1.3-2 .3-.4.9-.4 1.2.1.4.8.6 1.9 1.5 2.4 1.9 1.6 4.3 2.5 6.7 3.3 1.9.5 3.8 1 5.8 1.3 3.8.6 7.7.7 11.5.3 1.9-.3 3.8-.7 5.6-1.4 1.6-.6 2.9-1.8 3.8-3.2 1.1-1.7.2-4-1.4-5.1-2.2-1.8-5-2.4-7.7-2.8-2.2-.4-4.5-.3-6.7-.3-1.4 0-2.8.2-4.2.6-.6.2-1 .8-1.6.9-.5-.2-.4-.9-.4-1.3 0-2.5-.1-5 .1-7.6.9-.1 1.5.7 2.4.8 3.1.8 6.4.4 9.6 0 1.8-.4 3.7-.5 5.2-1.7.8-.7 1.6-1.4 2.1-2.4.4-1.2-.1-2.6-1.1-3.4-.7-.6-1.5-1.1-2.3-1.5-1.9-.8-3.9-1-5.9-1.3-2-.2-4 0-6 .2-2.7.2-5.4 1-7.9 2.1-1.5.6-2.9 1.5-4.2 2.5-.6.7-.7 1.6-.7 2.5 0 .4-.6.8-.9.5-2.3-2-4.3-4.4-6.5-6.5-.3-.3-.7-.6-.8-1 0-.2.1-.4.2-.6.8.1 1.7.2 2.4-.2 2.1-1 4.1-2.2 6.2-3.2 1.8-.7 3.9-1.3 6-1.8zM136.3 28.25c5.1-.2 10.2 0 15.3-.1.5 0 1.1-.1 1.5.2-.2.5-.6.9-.8 1.4 1.6 1.9 3.5 3.5 5.1 5.4 1.9 1.9 3.8 3.8 5.7 5.8.3.3.7.7 1.2.4 1.1-.9 2-2 3-3 2.5-2.5 4.9-5.1 7.4-7.6.3-.4.9-.7.7-1.3-.2-.4-.5-.7-.7-1.1 1.2-.2 2.5-.2 3.8-.2h12.6c.4-.1.5.5.6.7-.9.4-1.8.5-2.7.9-1.4.6-2.4 1.9-3.5 3-1.6 1.6-3.2 3.3-4.8 4.9-2.2 2.2-4.4 4.4-6.6 6.7-1 1.1-2.1 2.1-3.1 3.2-.2.3-.5.7-.2 1.1 1 1.3 2.3 2.3 3.4 3.6 1 .9 1.7 1.9 2.7 2.9 2.5 2.6 5.1 5.1 7.6 7.7 1.4 1.6 2.9 3 4.3 4.5.8.8 1.8 1.4 2.9 1.7.6.3 1.5.3 1.8 1-.9.2-1.9.2-2.8.2h-12c-.7 0-1.4.1-2.1-.2.2-.4.6-.8.7-1.3-.2-.3-.4-.6-.7-.8-1-1.1-2.1-2.1-3.1-3.2-2.4-2.8-5.1-5.2-7.6-7.9-.5-.5-1-1.2-1.7-1.5-.6-.4-1.1.3-1.5.6-2.4 2.5-4.9 4.9-7.3 7.4-1.4 1.7-2.9 3.1-4.5 4.7-.3.3-.6.6-.5 1l.6.9c-.1.1-.2.2-.2.3h-14.5c-.7 0-1.4.1-2.1-.2.2-.3.4-.6.7-.7 1.1-.4 2.3-.6 3.3-1.5 1.3-1.1 2.4-2.4 3.6-3.6 3.6-4 7.6-7.6 11.2-11.6 1.1-1 2-2.1 3.1-3 .4-.3.7-.7.9-1.1.2-.6-.4-1-.7-1.4l-1.5-1.5c-3.1-3.4-6.5-6.6-9.7-9.9-1.2-1.4-2.6-2.6-3.9-4-.6-.6-1.2-1.3-2-1.8s-1.9-.6-2.8-1c-.1 0-.1-.4-.1-.7z"/><path d="M158.8 27c1.7-.2 3.3-.4 5-.4 2.6-.1 5.2.4 7.8.8 1.9.5 3.7 1.1 5.5 1.8 2 .8 3.9 2 5.3 3.6 1.2 1.2 2.1 2.8 2.4 4.5.1 1.6.3 3.3-.4 4.9-.5 1.3-1.2 2.7-2.2 3.7-1.6 1.6-3.6 2.7-5.6 3.7-1.2.6-2.4 1.2-3.7 1.7-2.3.8-4.6 1.7-7 2.3-2.5.6-4.9 1.6-7.4 2.4-3.1 1.1-6 2.5-8.5 4.6-.4.3-.6.8-.9 1.2.5.5 1.3.3 2 .4h33.4c.5 0 1.1 0 1.6-.3.6-.4 1.1-.8 1.7-1 .2 1.3.1 2.6.2 3.9 0 1.8 0 3.6-.1 5.4-.2 0-.5.1-.7.1-.4-.4-.8-1-1.4-1.1-.7-.2-1.4-.2-2.1-.2h-45.9c-.4 0-.8-.2-.9-.5-.1-1.9.4-3.9 1.2-5.7 1.2-2.9 3.7-5.1 6.1-7 1.7-1.1 3.4-2.1 5.2-2.9 1-.5 2-1.1 3.1-1.5 1.6-.6 3.2-1.3 4.8-1.9 2.3-.8 4.6-1.7 6.8-2.6 2.2-.8 4.3-1.7 6.3-2.9 1.6-.9 2.7-2.3 3.6-3.9.6-1.4-.1-2.9-1-4-2.4-2.1-5.8-2.7-8.9-2.9-4.7 0-9.5 1.4-13.3 4.3-.7.5-1.4 1-1.9 1.7-.4.5-.7 1.1-.9 1.7-.2.7 0 1.4 0 2.1-.1.4-.7.3-.9.1-1.4-1.1-2.5-2.5-3.9-3.6-1.1-.9-2.1-2-3.2-3-.4-.4-.9-.7-.9-1.3.7-.2 1.4-.2 2-.5 1.3-.8 2.5-1.8 3.8-2.6 2.3-1.4 4.6-2.7 7.1-3.5 2.3-.8 4.5-1.3 6.8-1.6zM99.3 27.7c2.7-.5 5.4-.8 8.1-.9 3 0 6.1-.1 9.1.5 1.7.2 3.4.8 5.1 1.2 1.8.6 3.5 1.5 5.1 2.5 1.9 1.3 3.5 3.1 4.2 5.4.3 1.4.4 3 0 4.4-.3.9-.7 1.8-1.4 2.5-.6.7-1.5 1.1-2.4 1.6-.9.5-2 .8-2.9 1.3.2.2.2.5.4.6 1.1.5 2.4.8 3.5 1.4 1.7.8 3.1 2.1 4.4 3.4.9 1.1 1.5 2.4 1.7 3.9.1.9.3 1.8.1 2.7-.3 1.7-1 3.4-2.3 4.6-1.8 1.9-4.1 3.1-6.5 4.2-2.3.9-4.7 1.6-7.1 1.9-4.7.8-9.6.6-14.3.4-3.2-.3-6.5-.6-9.6-1.4-2.5-.7-4.9-1.5-7.3-2.5-.8-.4-1.7-.8-2.6-.9-.7 0-1.5.2-2.2.2-.3-.1-.5-.4-.4-.6.3-.7.7-1.3 1.1-1.9 1-1.6 1.9-3.1 2.9-4.7.4-.7.8-1.4 1.3-2 .3-.4.9-.4 1.2.1.4.8.6 1.9 1.5 2.4 1.9 1.6 4.3 2.5 6.7 3.3 1.9.5 3.8 1 5.8 1.3 3.8.6 7.7.7 11.5.3 1.9-.3 3.8-.7 5.6-1.4 1.6-.6 2.9-1.8 3.8-3.2 1.1-1.7.2-4-1.4-5.1-2.2-1.8-5-2.4-7.7-2.8-2.2-.4-4.5-.3-6.7-.3-1.4 0-2.8.2-4.2.6-.6.2-1 .8-1.6.9-.5-.2-.4-.9-.4-1.3 0-2.5-.1-5 .1-7.6.9-.1 1.5.7 2.4.8 3.1.8 6.4.4 9.6 0 1.8-.4 3.7-.5 5.2-1.7.8-.7 1.6-1.4 2.1-2.4.4-1.2-.1-2.6-1.1-3.4-.7-.6-1.5-1.1-2.3-1.5-1.9-.8-3.9-1-5.9-1.3-2-.2-4 0-6 .2-2.7.2-5.4 1-7.9 2.1-1.5.6-2.9 1.5-4.2 2.5-.6.7-.7 1.6-.7 2.5 0 .4-.6.8-.9.5-2.3-2-4.3-4.4-6.5-6.5-.3-.3-.7-.6-.8-1 0-.2.1-.4.2-.6.8.1 1.7.2 2.4-.2 2.1-1 4.1-2.2 6.2-3.2 1.8-.6 3.9-1.3 6-1.8z" style="fill:#0084e2" transform="translate(-55.5 -.05)"/><path d="M193.4 26.8c5.1-.2 10.2 0 15.3-.1.5 0 1.1-.1 1.5.2-.2.5-.6.9-.8 1.4 1.6 1.9 3.5 3.5 5.1 5.4 1.9 1.9 3.8 3.8 5.7 5.8.3.3.7.7 1.2.4 1.1-.9 2-2 3-3 2.5-2.5 4.9-5.1 7.4-7.6.3-.4.9-.7.7-1.3-.2-.4-.5-.7-.7-1.1 1.2-.2 2.5-.2 3.8-.2h12.6c.4-.1.5.5.6.7-.9.4-1.8.5-2.7.9-1.4.6-2.4 1.9-3.5 3-1.6 1.6-3.2 3.3-4.8 4.9-2.2 2.2-4.4 4.4-6.6 6.7-1 1.1-2.1 2.1-3.1 3.2-.2.3-.5.7-.2 1.1 1 1.3 2.3 2.3 3.4 3.6 1 .9 1.7 1.9 2.7 2.9 2.5 2.6 5.1 5.1 7.6 7.7 1.4 1.6 2.9 3 4.3 4.5.8.8 1.8 1.4 2.9 1.7.6.3 1.5.3 1.8 1-.9.2-1.9.2-2.8.2h-12c-.7 0-1.4.1-2.1-.2.2-.4.6-.8.7-1.3-.2-.3-.4-.6-.7-.8-1-1.1-2.1-2.1-3.1-3.2-2.4-2.8-5.1-5.2-7.6-7.9-.5-.5-1-1.2-1.7-1.5-.6-.4-1.1.3-1.5.6-2.4 2.5-4.9 4.9-7.3 7.4-1.4 1.7-2.9 3.1-4.5 4.7-.3.3-.6.6-.5 1l.6.9c-.1.1-.2.2-.2.3h-14.5c-.7 0-1.4.1-2.1-.2.2-.3.4-.6.7-.7 1.1-.4 2.3-.6 3.3-1.5 1.3-1.1 2.4-2.4 3.6-3.6 3.6-4 7.6-7.6 11.2-11.6 1.1-1 2-2.1 3.1-3 .4-.3.7-.7.9-1.1.2-.6-.4-1-.7-1.4l-1.5-1.5c-3.1-3.4-6.5-6.6-9.7-9.9-1.2-1.4-2.6-2.6-3.9-4-.6-.6-1.2-1.3-2-1.8s-1.9-.6-2.8-1c-.1-.1 0-.5-.1-.7z" style="fill:#ed0a0a" transform="translate(-55.5 -.05)"/><path d="M65.2 0h200.6v20.3H65.2z" style="fill:#ffe607" transform="translate(-55.5 -.05)"/><path d="M33.1 11.15h-3c-.2 0-.3 0-.4.1-.1.1-.2.2-.2.5h-.3v-3h.3c0 .2.1.4.2.5.1.1.2.1.4.1h5.7v.3c-.2.1-.4.1-.4.2-.1.1-.1.2-.1.4v2.7c0 .2 0 .3.1.4.1.1.2.2.4.2v.2c-2.3 1.5-4.5 2.2-6.7 2.2-2 0-3.6-.5-4.8-1.5-1.6-1.2-2.3-2.9-2.3-5.1 0-2 .7-3.7 2.1-4.9 1.3-1.1 3.1-1.7 5.2-1.7.7 0 1.3.1 2 .2.6.1 1.3.4 2.1.7.4.2.7.3.9.3.1 0 .3-.1.4-.2l.2.1-1.4 3-.3-.1c0-.2 0-.4-.1-.4 0-.1-.2-.2-.3-.3-.4-.3-.9-.5-1.6-.7-.7-.2-1.4-.3-2-.3-1.3 0-2.3.4-3.1 1.1-.9.8-1.4 2-1.4 3.3 0 1.3.5 2.4 1.4 3.2.8.8 1.9 1.1 3.3 1.1.7 0 1.3-.1 2-.2.6-.2 1.2-.4 1.7-.7zM54.7 10.15v3.5h7.8c.2 0 .3 0 .4-.1.1-.1.2-.2.2-.5h.3v3.3h-.3c-.1-.2-.1-.4-.2-.5-.1-.1-.2-.1-.4-.1h-11v-.3c.2-.1.4-.1.4-.2.1-.1.1-.2.1-.4V3.95c0-.2 0-.3-.1-.4-.1-.1-.2-.2-.4-.2v-.4h10.8c.2 0 .3 0 .4-.1.1-.1.2-.2.2-.5h.3v3.3h-.3c-.1-.2-.1-.4-.2-.5-.1-.1-.2-.1-.4-.1h-7.6v3h4.9c.2 0 .3 0 .4-.1.1-.1.2-.2.2-.5h.3v3.2h-.3c-.1-.2-.1-.4-.2-.5-.1-.1-.2-.1-.4-.1h-4.9zM82 6.95v7.7c0 .2 0 .3.1.4.1.1.2.2.4.2v.3h-3.6v-.3c.2-.1.4-.1.4-.2.1-.1.1-.2.1-.4V3.95c0-.2 0-.3-.1-.4-.1-.1-.2-.2-.4-.2v-.4H83v.3c-.3.1-.4.2-.4.4 0 .1.1.3.2.5l6.7 7.3v-7.5c0-.2 0-.3-.1-.4-.1-.1-.2-.2-.4-.2v-.4h3.6v.3c-.2.1-.4.1-.4.2-.1.1-.1.2-.1.4v10.8c0 .2 0 .3.1.4.1.1.2.2.4.2v.3h-3.8v-.3c.2-.1.4-.2.4-.4 0-.1-.1-.3-.4-.7zM111.7 10.15v3.5h7.8c.2 0 .3 0 .4-.1.1-.1.2-.2.2-.5h.3v3.3h-.3c-.1-.2-.1-.4-.2-.5-.1-.1-.2-.1-.4-.1h-11v-.3c.2-.1.4-.1.4-.2.1-.1.1-.2.1-.4V3.95c0-.2 0-.3-.1-.4-.1-.1-.2-.2-.4-.2v-.4h10.8c.2 0 .3 0 .4-.1.1-.1.2-.2.2-.5h.3v3.3h-.3c-.1-.2-.1-.4-.2-.5-.1-.1-.2-.1-.4-.1h-7.6v3h4.9c.2 0 .3 0 .4-.1.1-.1.2-.2.2-.5h.3v3.2h-.3c-.1-.2-.1-.4-.2-.5-.1-.1-.2-.1-.4-.1h-4.9zM147.2 4.05l-1.4 3-.3-.2v-.1c0-.2-.2-.4-.5-.7-1.1-.8-2.3-1.2-3.7-1.2-.6 0-1.2.1-1.7.2-.3.1-.6.3-.8.6-.2.2-.3.5-.3.8 0 .5.3.8.8 1 .3.1.9.2 1.8.3l1.4.2c.8.1 1.5.2 2 .4s1 .4 1.4.7c.4.3.7.7 1 1.2.2.5.4 1 .4 1.6 0 .9-.3 1.7-.8 2.4-.5.6-1.3 1.1-2.3 1.4-.8.2-1.6.3-2.5.3-1.6 0-3.2-.4-4.7-1.2-.3-.2-.5-.2-.6-.2-.1 0-.2.1-.4.2l-.3-.1 1.3-3.1.3.1v.1c0 .3.1.5.4.8.4.4 1 .7 1.8.9.8.3 1.6.4 2.3.4.8 0 1.5-.1 2-.4.3-.2.6-.4.7-.6.2-.3.3-.5.3-.8 0-.4-.2-.7-.6-.9-.3-.1-.9-.2-1.8-.3l-1.4-.1c-.9-.1-1.6-.2-1.9-.3-.4-.1-.8-.2-1.1-.4-.5-.3-1-.7-1.3-1.3-.3-.5-.4-1.1-.4-1.7 0-1.1.4-2 1.1-2.7.9-.9 2.3-1.4 4.2-1.4.8 0 1.5.1 2.2.2.7.2 1.5.5 2.5.9l.6.2c.1 0 .3-.1.4-.2zM167.8 14.75V3.95c0-.2 0-.3-.1-.4-.1-.1-.2-.2-.4-.2v-.4h3.8v.3c-.2.1-.4.1-.4.2-.1.1-.1.2-.1.4v10.8c0 .2 0 .3.1.4.1.1.2.2.4.2v.3h-3.8v-.3c.2-.1.4-.1.4-.2 0 0 .1-.1.1-.3zM198.1 4.05l-1.4 3-.2-.1v-.1c0-.2-.2-.4-.5-.7-1.1-.8-2.3-1.2-3.7-1.2-.8 0-1.3 0-1.8.2-.3.1-.6.3-.8.6-.2.2-.3.5-.3.8 0 .5.3.8.8 1 .3.1.9.2 1.8.3l1.4.1c.8.1 1.5.2 2 .4s1 .4 1.4.7c.4.3.7.7 1 1.2.2.5.4 1 .4 1.6 0 .9-.3 1.7-.8 2.4-.5.6-1.3 1.1-2.3 1.4-.8.2-1.6.3-2.5.3-1.6 0-3.2-.4-4.7-1.2-.3-.2-.5-.2-.6-.2-.1 0-.2.1-.4.2l-.3-.1 1.3-3.1.3.1v.1c0 .3.1.5.4.8.4.4 1 .7 1.8.9.8.3 1.6.4 2.3.4.8 0 1.5-.1 2-.4.3-.2.6-.4.7-.6.2-.3.3-.5.3-.8 0-.4-.2-.7-.6-.9-.3-.1-.9-.2-1.8-.3l-1.4-.1c-.9-.1-1.6-.2-1.9-.3-.4-.1-.8-.2-1.1-.4-.5-.3-1-.7-1.3-1.3-.3-.5-.4-1.1-.4-1.7 0-1.1.4-2 1.1-2.7.9-.9 2.3-1.4 4.2-1.4.8 0 1.5.1 2.2.2.7.2 1.5.5 2.5.9l.6.2c.1 0 .3-.1.4-.2z"/></svg>