<svg xmlns="http://www.w3.org/2000/svg" xml:space="preserve" width="2221.9" height="685.155"><defs><clipPath id="a" clipPathUnits="userSpaceOnUse"><path d="M0 548.124h1777.518V0H0v548.124Z"/></clipPath></defs><g clip-path="url(#a)" transform="matrix(1.25 0 0 -1.25 0 685.155)"><path d="M0 0c.164.271.338.537.511.799 28.075 43.407 72.362 68.813 114.008 68.813 42.407 0 69.065-23.344 104.119-23.344 34.012 0 54.729 23.378 103.758 23.378 37.043 0 76.318-20.257 104.292-55.283-7.735-4.253-14.712-9.083-20.948-14.391L0 0Z" style="fill:#61bb46;fill-opacity:1;fill-rule:nonzero;stroke:none" transform="translate(25.506 349.29)"/><path d="M0 0c.164.271.338.537.511.799 28.075 43.407 72.362 68.813 114.008 68.813 42.407 0 69.065-23.344 104.119-23.344 34.012 0 54.729 23.378 103.758 23.378 37.043 0 76.318-20.257 104.292-55.283-7.735-4.253-14.712-9.083-20.948-14.391L0 0Z" style="fill:none;stroke:#61bb46;stroke-width:2.9849999;stroke-linecap:butt;stroke-linejoin:miter;stroke-miterlimit:2.61299992;stroke-dasharray:none;stroke-opacity:1" transform="translate(25.506 349.29)"/><path d="M0 0c17.796 22.952 31.333 55.36 26.427 88.494C-2.67 86.491-36.702 67.889-56.58 43.673c-18.037-21.999-32.927-54.624-27.13-86.316C-51.944-43.635-19.083-24.588 0 0Z" style="fill:#61bb46;fill-opacity:1;fill-rule:nonzero;stroke:none" transform="translate(310.712 458.047)"/><path d="M0 0c17.796 22.952 31.333 55.36 26.427 88.494C-2.67 86.491-36.702 67.889-56.58 43.673c-18.037-21.999-32.927-54.624-27.13-86.316C-51.944-43.635-19.083-24.588 0 0z" style="fill:none;stroke:#61bb46;stroke-width:2.9849999;stroke-linecap:butt;stroke-linejoin:miter;stroke-miterlimit:2.61299992;stroke-dasharray:none;stroke-opacity:1" transform="translate(310.712 458.047)"/><path d="M0 0c-12.09-19.021-20.456-46.284-22.676-70.197l392.241.01c4.241 26.161 18.343 51.156 40.694 70.158L0 0h.023H0Z" style="fill:#fdb827;fill-opacity:1;fill-rule:nonzero;stroke:none" transform="translate(24.057 349.93)"/><path d="M0 0c-3.812 24.424-4.428 47.97-2.034 69.572l389.186.01c-3.807-23.426-.612-47.805 9.016-69.597L0 0Z" style="fill:#f5821f;fill-opacity:1;fill-rule:nonzero;stroke:none" transform="translate(4.943 210.16)"/><path d="M0 0c-3.812 24.424-4.428 47.97-2.034 69.572l389.186.01c-3.807-23.426-.612-47.805 9.016-69.597L0 0Z" style="fill:none;stroke:#f5821f;stroke-width:2.9849999;stroke-linecap:butt;stroke-linejoin:miter;stroke-miterlimit:2.61299992;stroke-dasharray:none;stroke-opacity:1" transform="translate(4.943 210.16)"/><path d="M0 0c-9.19 23.373-15.483 46.848-19.02 69.567l396.168-.014c12.265-27.768 34.962-51.358 66.922-63.481-.95-2.12-1.865-4.147-2.747-6.102L0 0Z" style="fill:#e03a3e;fill-opacity:1;fill-rule:nonzero;stroke:none" transform="translate(23.963 140.592)"/><path d="M0 0c-9.19 23.373-15.483 46.848-19.02 69.567l396.168-.014c12.265-27.768 34.962-51.358 66.922-63.481-.95-2.12-1.865-4.147-2.747-6.102L0 0Z" style="fill:none;stroke:#e03a3e;stroke-width:2.9849999;stroke-linecap:butt;stroke-linejoin:miter;stroke-miterlimit:2.61299992;stroke-dasharray:none;stroke-opacity:1" transform="translate(23.963 140.592)"/><path d="M0 0c-10.973-24.224-17.333-36.797-32.518-60.006a599.08 599.08 0 0 0-6.352-9.523l-365.683-.034a859.93 859.93 0 0 0-3.475 5.241C-421.7-43.411-432.768-21.732-441.322.03L0 0Z" style="fill:#963d97;fill-opacity:1;fill-rule:nonzero;stroke:none" transform="translate(465.285 140.564)"/><path d="M0 0c-10.973-24.224-17.333-36.797-32.518-60.006a599.08 599.08 0 0 0-6.352-9.523l-365.683-.034a859.93 859.93 0 0 0-3.475 5.241C-421.7-43.411-432.768-21.732-441.322.03L0 0Z" style="fill:none;stroke:#963d97;stroke-width:2.9849999;stroke-linecap:butt;stroke-linejoin:miter;stroke-miterlimit:2.61299992;stroke-dasharray:none;stroke-opacity:1" transform="translate(465.285 140.564)"/><path d="M0 0c-22.37-32.906-52.402-69.118-88.843-69.461-35.559-.325-44.681 23.237-92.924 22.971-48.243-.27-58.315-23.383-93.874-23.049-38.017.353-67.538 35.916-90.042 69.505L0 0Z" style="fill:#009ddc;fill-opacity:1;fill-rule:nonzero;stroke:none" transform="translate(426.415 71.035)"/><path d="M0 0c-22.37-32.906-52.402-69.118-88.843-69.461-35.559-.325-44.681 23.237-92.924 22.971-48.243-.27-58.315-23.383-93.874-23.049-38.017.353-67.538 35.916-90.042 69.505L0 0Z" style="fill:none;stroke:#009ddc;stroke-width:2.9849999;stroke-linecap:butt;stroke-linejoin:miter;stroke-miterlimit:2.61299992;stroke-dasharray:none;stroke-opacity:1" transform="translate(426.415 71.035)"/><path d="M0 0c-28.983 0-53.697-8.797-75.101-26.678-21.45-17.92-31.366-37.266-31.366-59.408 0-26.673 10.189-47.396 31.788-64.162 20.238-15.655 44.76-23.517 74.362-23.517h108.684v41.247H5.193c-13.464 0-25.559 4.537-35.135 13.255-9.631 8.78-14.859 20.582-14.859 33.779 0 12.58 5.039 23.795 14.275 31.967 9.314 8.236 21.587 12.279 35.719 12.279h35.034c2.485.006 4.769-1.462 5.841-3.767a6.792 6.792 0 0 0-.793-7.038L5.571-103.439h60.666l42.145 57.722V0H0Zm-426.818 0v-228.319h55.197v180.426a6.745 6.745 0 0 0 1.886 4.708 6.377 6.377 0 0 0 4.592 1.944h35.065c14.589 0 27.612-5.057 37.841-14.839 9.457-9.064 14.705-20.407 14.708-32.735-.003-12.775-5.734-24.133-15.923-32.029-10.081-7.808-22.534-11.685-36.629-11.685h-13.016v-41.236h36.992c25.449 0 46.423 8.202 64.115 24.941 17.687 16.696 26.109 36.266 26.109 60.271 0 24.873-8.445 45.286-26.059 62.682C-259.563-8.442-280.08-.009-304.78-.009L-426.818 0Zm-237.717 0v-228.319h55.252v180.426a6.735 6.735 0 0 0 1.889 4.708 6.375 6.375 0 0 0 4.583 1.944h35.027c14.578 0 27.612-5.057 37.841-14.839 9.46-9.064 14.706-20.407 14.706-32.735 0-12.752-5.67-24.127-15.868-32.029-10.084-7.811-22.584-11.685-36.676-11.685h-13.005v-41.236h36.993c25.446 0 46.472 8.207 64.168 24.941 17.681 16.696 26.108 36.266 26.108 60.271 0 24.873-8.454 45.286-26.059 62.682C-497.202-8.448-517.769-.009-542.468-.009L-664.535 0Zm-153.86 0c-25.839 0-46.9-8.495-64.485-25.969-17.698-17.583-26.112-37.126-26.112-59.841 0-22.415 8.82-42.218 27.548-60.677 18.675-18.402 39.526-27.278 63.688-27.278h35.4v41.233h-14.964c-13.624 0-25.786 4.426-35.295 13.095-9.506 8.657-14.65 20.195-14.65 32.996 0 12.956 5.042 24.488 14.438 32.799 9.34 8.271 21.322 12.389 34.868 12.389h37.628a6.36 6.36 0 0 0 4.583-1.944 6.738 6.738 0 0 0 1.892-4.708v-125.874h55.197V0h-119.736zM279.383 54.56v-228.435h86.618v31.863h-32.32a6.365 6.365 0 0 0-4.586 1.941 6.682 6.682 0 0 0-1.874 4.711V16.091a6.679 6.679 0 0 0 1.874 4.717 6.361 6.361 0 0 0 4.586 1.941h32.32V54.56h-86.618zm-111.939 0V22.752h32.325a6.385 6.385 0 0 0 4.586-1.941 6.745 6.745 0 0 0 1.889-4.717v-151.448a6.766 6.766 0 0 0-1.889-4.711 6.361 6.361 0 0 0-4.586-1.941h-32.325v-31.866h86.623V54.56h-86.623zM-189.1-173.765h55.197V54.56H-189.1v-228.325z" style="fill:gray;fill-opacity:1;fill-rule:nonzero;stroke:none" transform="translate(1411.518 332.828)"/></g></svg>