<svg xmlns="http://www.w3.org/2000/svg" width="397.328" height="103.708" viewBox="0 0 105.126 27.439"><g aria-label="Last Played" style="font-style:normal;font-variant:normal;font-weight:400;font-stretch:normal;font-size:178.1493988px;line-height:111.34337616px;font-family:&quot;namco regular&quot;;-inkscape-font-specification:&quot;namco regular, &quot;;letter-spacing:0;word-spacing:0;fill:#f4c401;fill-opacity:1;stroke:none;stroke-width:4.45373535px;stroke-linecap:butt;stroke-linejoin:miter;stroke-opacity:1"><path d="M-10207.521-726.012c-37.492-.974-67.985 96.282-45.817 50.295-16.362 37.589-52.261 124.387-35.848 85.235-5.1 12.919-10.45 26.09-15.808 39.27-2.292-.167-4.574-.41-6.887-.41-22.212 0-44.089 5.12-64.773 14.919-21.654 9.801-41.94 25.977-61.721 47.687a22.652 22.652 0 0 0-.07.073c-13.238 14.655-24.532 29.267-33.84 43.935-5.298 8.1-8.899 15.243-12.219 21.715-5.294 4.443-10.416 8.632-15.039 11.97-9.728 7.026-19.056 13.013-28.037 18.186 5.475-4.087 10.443-8.312 14.89-12.76a22.652 22.652 0 0 0 .969-1.03c7.913-8.969 14.74-18.959 20.451-29.815 7.222-13.279 10.801-28.315 10.801-43.752 0-17.079-5.385-34.22-17.724-45.93-9.981-9.832-23.313-15.593-37.297-17.615-3.35-4.701-7.585-8.864-12.457-12.117-8.553-6.207-18.551-8.258-27.883-8.258-11.899 0-23.396 3.793-33.711 9.86a22.652 22.652 0 0 0 0 .001c-8.922 5.248-17.46 11.475-25.611 18.604-7.749 6.72-14.933 14.18-21.547 22.32-5.909 6.84-10.685 12.753-14.449 18.13a22.652 22.652 0 0 0-.11.157c-3.235 4.706-6.23 9.464-9.178 14.23.668-2.363 1.403-4.745 1.909-7.068 1.97-7.499 3.295-14.105 3.295-21.267 0-8.26-2.24-16.637-6.213-23.79a22.652 22.652 0 0 0 0-.003c-2.696-4.851-6.046-9.278-9.762-13.358-3.605-4.807-8.008-9.151-13.27-12.611-4.42-3.683-9.78-7.9-20.337-7.9-9.025 0-19.192 2.968-26.784 9.437-3.414 2.858-6.915 6.131-10.775 9.992a22.652 22.652 0 0 0-1.791 2.02c-5.274 6.711-9.726 12.86-13.42 18.662a22.652 22.652 0 0 0 0 .002 492.572 492.572 0 0 0-9.883 16.236c-4.404 7.55-7.534 15.834-8.363 24.739-.645 6.537-.408 13.192 1.238 19.775l-.136-.58c.127.572.291 1.937-.174 4.498 0 .009-1.788 5.508-6.073 12.908-8.258 14.097-15.587 26.036-22.087 36.195.305-3.011.611-5.906.918-8.968 1.33-9.37 2.472-18.385 3.376-26.979a22.652 22.652 0 0 0 .01-.117c.954-9.54 1.457-18.083 1.457-25.816 0-7.234-.239-14.855-.711-22.88-.52-8.836-1.841-17.374-3.99-25.57-1.822-8.619-4.98-16.856-10.412-24.07-6.113-8.529-17.854-16.117-29.756-16.117-15.186 0-29.214 8.597-38.359 19.701a22.652 22.652 0 0 0-.1.117c-6.51 8.013-12.146 16.185-16.869 24.559-3.871 6.656-6.891 13.13-8.527 20.492a22.652 22.652 0 0 0-.366 2.103c-.751 6.007-.816 12.648 2.118 19.979.04.094.374 1.083.628 2.865a22.652 22.652 0 0 0 .645 3.022c-.632-2.21.221 1.808-.156 7.85a22.652 22.652 0 0 0-.03.747l-1.209 41.084c-.314.403-1.218 1.554-1.405 1.764a22.652 22.652 0 0 0-.314.361c-9.841 11.553-19.139 21.467-27.817 29.746-7.9 7.135-14.626 12.541-20.232 16.559-.14-1.624-.266-3.339-.266-5.36 0-18.183 2.415-36.375 7.319-54.761a22.652 22.652 0 0 0 .03-.12c5.068-19.425 11.825-38.672 20.32-57.786a22.652 22.652 0 0 0 1.08-2.975c1.816-6.354 2.062-12.772 1.428-18.96-.63-9.713-5.694-16.264-10.045-20.616-4.321-4.322-8.987-7.444-14.258-10.518-6.13-4.027-14.813-6.763-23.261-5.705-2.079.26-4.057.722-5.944 1.32-.652-.591-1.237-1.187-1.916-1.78l1.807 1.806c0 .003-.02.003-.03.006-7.035-7.802-18.523-12.807-28.805-12.807-5.545 0-8.801.772-13.869 1.785l2.187-.328c-7.183.719-14.09 2.599-21.521 5.252-8.242 2.944-16.543 7.192-25.434 12.606-9.681 5.435-19.39 12.485-29.5 21.15a22.652 22.652 0 0 0-.47.414c-15.25 13.82-29.691 29.231-43.354 46.176-3.342 4.04-5.891 7.647-8.207 10.932-2.095 1.431-4.373 3.164-6.293 5.357a22.652 22.652 0 0 0-.357.418c-10.81 12.971-21.797 25.031-32.955 36.19-10.671 10.67-21.024 19.948-30.999 27.847-7.79 6.094-14.674 10.816-20.96 14.748.567-2.668 1.134-5.377 2.085-8.467 4.026-12.527 8.704-27.439 14.018-44.705 5.722-17.164 12.346-35.944 19.869-56.304 7.95-20.308 16.788-41.749 26.533-64.338a22.652 22.652 0 0 0 .06-.149c9.627-22.755 20.601-46.018 32.918-69.773a22.652 22.652 0 0 0 .02-.037c7.868-15.242 13.118-27.478 13.936-41.377a22.652 22.652 0 0 0 0-.074c1.024-18.434-9.816-32.366-23.033-43.748-7.334-7.18-18.22-11.133-27.864-11.133-14.368 0-27.122 8.505-35.197 18.6a22.652 22.652 0 0 0-.121.154c-8.585 10.926-15.905 26.057-28.176 51.963 0 .016-.02.038-.02.054-12.039 24.972-27.882 62.208-47.395 110.783-.566-3.247-1.41-6.535-2.357-9.93-2.076-9.34-6.213-18.2-11.973-25.88a22.652 22.652 0 0 0-.308-.402c-6.628-8.437-14.903-15.723-24.451-22.13-8.761-6.166-18.222-11.527-28.305-16.08-9.635-4.549-19.415-8.172-29.315-10.777-8.502-2.237-16.278-3.628-23.918-3.967-8.481-8.329-16.885-14.937-26.789-19.181l1.815.875c-7.54-4.06-14.669-7.424-24.881-7.424-13.301 0-26.51 7.714-34.111 17.596a22.652 22.652 0 0 0-.67.918c-3.743 5.406-6.706 10.61-9.203 15.922-10.146 3.766-20.701 8.256-31.803 13.585a22.652 22.652 0 0 0-.328.16c-12.129 6.065-22.91 13.084-32.203 21.24-8.388 7.122-16.674 17.091-16.674 31.337a22.652 22.652 0 0 0 .138 2.502c.835 7.513 3.916 15.985 10.139 22.457 5.195 5.737 12.385 10.512 20.342 12.502 4.895 1.224 9.728 2.021 14.922 2.021 1.161 0 2.053-.1 3.008-.176-1.103 3.503-1.893 6.07-3.059 9.762a3570.417 3570.417 0 0 0-16.209 51.33 5633.815 5633.815 0 0 0-15.5 49.864 22.652 22.652 0 0 0 0 .002c-4.566 14.946-8.107 27.67-10.877 38.828 0 .003-.02.038-.02.04 0-.01-.57.429-2.325 1.087a22.652 22.652 0 0 0-.457.177c-11.379 4.552-21.626 10.355-28.75 21.293-7.123 10.938-7.317 26.8-2.39 37.885a22.652 22.652 0 0 0 .203.447c5.348 11.365 14.061 20.975 24.592 27.9 11.851 8.256 26.306 12.036 41.019 12.036 7.529 0 15.168-1.429 22.205-4.475 6.09-2.461 11.853-5.502 17.135-10.705 1.73-.116 3.606-.308 5.1-.308 15.992 0 30.807-1.727 44.437-5.538 12.861-3.469 22.894-6.88 32.096-13.55 8.968-6.42 17.983-15.48 19.394-29.588.865-8.647-4.325-20.53-11.316-25.766-6.991-5.237-13.339-6.351-19.351-7.058-7.735-.91-16.952-1.798-27.467-2.682a224.359 224.359 0 0 1-11.315-1.777 871.23 871.23 0 0 1 7.205-24.918c4.397 1.857 9.32 3.146 14.793 3.146 3.944 0 7.948-.311 12.237-.848 4.41-.55 8.916-1.358 13.552-2.388a22.652 22.652 0 0 0 1.311-.332c7.104-2.03 14.336-4.53 21.715-7.48a279.982 279.982 0 0 0 21.24-9.518v.002c6.677-3.338 12.934-6.709 18.787-10.123 5.381-3.14 10.063-6.173 14.309-9.266 7.8-5.015 15.204-11.163 22.361-18.291a179.884 179.884 0 0 0 10.602-10.791c-6.552 20.586-11.892 38.364-15.944 53.219a22.652 22.652 0 0 0-.16.623c-3.69 15.22-6.298 27.866-7.81 38.437-1.429 9.535-2.256 17.172-2.256 24.13 0 16.036 4.521 31.756 13.843 44.41a22.652 22.652 0 0 0 .457.599c10.072 12.757 26.296 21.408 42.692 21.408 19.922 0 39.961-6.116 59.887-16.846v.002c11.963-6.441 23.393-13.757 34.386-21.75.58 1.308 1.103 2.64 1.789 3.899a22.652 22.652 0 0 0 .776 1.314c3.902 6.133 8.261 11.72 13.193 16.65a22.652 22.652 0 0 0 1.1 1.028c4.808 4.207 9.958 7.815 15.562 10.617a22.652 22.652 0 0 0 .93.44c5.464 2.428 10.341 4.646 18.627 4.646 20.689 0 40.099-9.271 59.765-23.86 5.15-3.624 10.729-8.067 17.002-13.423 6.998-5.598 13.573-11.237 19.752-16.93.101-.086.174-.166.274-.252v.014c3.193 11.974 8.655 23.104 16.627 32.404a22.652 22.652 0 0 0 .4.455c12.244 13.535 30.216 21.592 48.443 21.592 15.765 0 31.187-5.17 46.145-13.7 12.624-6.985 24.79-15.772 36.588-26.06 1.52 4.218 3.393 8.334 6.162 12.229-9.374 11.474-19.159 23.358-26.982 33.29a22.652 22.652 0 0 0-.262.337c-11.171 14.744-20.764 27.23-28.742 37.426a22.652 22.652 0 0 0-.668.898c-10.697 15.153-18.44 26.432-23.719 34.569-5.849 8.306-10.534 15.97-14.027 23.539l.306-.64c-1.653 3.308-1.799 2.806-2.166 2.936l.453-.156c-6.273 2.091-10.756 4.818-16.445 8.438a22.652 22.652 0 0 0 0 .002c-9.202 5.856-15.84 13.546-23.365 23.568-4.99 6.497-9.188 13.011-12.592 19.684-3.813 6.636-6.797 13.747-9 21.177-4.371 12.912.917 30.942 10.84 39.948 8.806 8.44 21.418 13.466 33.486 13.466 8.981 0 17.945-1.664 26.213-5.109v-.002c10.455-4.357 18.627-12.344 24.482-21.451 3.448-5.362 6.487-9.12 8.415-11.047a22.652 22.652 0 0 0 1.031-1.102c.03-.032 2.382-2.175 7.338-4.488a22.652 22.652 0 0 0 .554-.267c3.911-1.956 8.784-4.508 14.75-7.721l-1.248.623c7.21-3.327 14.079-7.467 20.571-12.3 6.696-4.67 12.693-9.8 17.902-15.497 7.278-7.42 13.066-18.17 13.066-29.8 0-5.796-1.621-12.318-4.857-17.99 2.193-3.114 15.023-20.065 36.08-45.755 22.999-27.51 52.62-63.648 88.959-108.512a22.652 22.652 0 0 0 0-.004c8.109-10.017 16.525-21.482 25.318-34.435 9.262-13.433 17.857-26.896 25.774-40.4 4.306-7.347 7.918-14.017 11.814-20.965-6.802 20.535-10.73 38.991-10.73 55.963 0 12.969 1.873 25.233 6.25 36.488a22.652 22.652 0 0 0 .412.99c4.62 10.396 10.939 19.805 18.828 27.693 7.814 7.815 17.09 13.98 27.305 17.86 9.981 4.056 20.529 6.277 31.125 6.277 22.151 0 44.29-3.546 66.121-10.492a22.652 22.652 0 0 0 .297-.098c21.678-7.226 42.244-16.654 61.591-28.25.227-.133.428-.284.655-.418 2.227 9.394 6.263 17.923 13.56 25.219a22.652 22.652 0 0 0 .602.582c9.626 8.94 22.869 14.809 36.279 14.809 12.071 0 23.982-3.075 37.92-8.053 15.01-5.36 30.225-13.723 46.145-24.793 4.676-3.123 9.886-6.934 15.929-11.582a22.652 22.652 0 0 0 .822-.664c5.508-4.66 11.009-9.563 16.5-14.592.229 1.353.298 2.714.586 4.063a22.652 22.652 0 0 0 .08.357c1.875 8.12 5.023 15.915 9.243 23.148a22.652 22.652 0 0 0 .455.748 62.462 62.462 0 0 0 19.064 19.07c8.88 5.651 19.419 8.253 29.67 8.253 17.697 0 35.26-5.508 52.176-15.024 16.037-9.02 31.183-20.226 45.402-33.465a22.652 22.652 0 0 0 0-.002c13.893-12.934 26.43-26.662 37.555-41.173 10.946-14.276 19.562-27.449 25.846-40.016 3.719-7.439 6.598-14.74 8.447-22.14a22.652 22.652 0 0 0 .1-.397c2.042-8.849 2.929-19.292-3.077-29.799a22.652 22.652 0 0 0-.457-.762c-2.785-4.458-7.175-9.304-13.578-12.263-6.403-2.96-14.086-3.2-19.879-1.752-12.879 3.22-19.061 11.228-24.57 19.185a22.652 22.652 0 0 0-.486.733c-1.826 2.869-7.333 10.068-15.543 19.574a22.652 22.652 0 0 0 0 .002c-8.122 9.405-17.174 19.103-27.153 29.082a22.652 22.652 0 0 0-.351.36c-8.703 9.098-17.072 16.847-25.11 23.484.03-.31.02-.54.05-.858a22.652 22.652 0 0 0 .08-1.062c.374-7.105 1.578-16.584 3.7-28.04a22.652 22.652 0 0 0 0-.001c2.182-11.788 4.813-24.521 7.898-38.186 3.045-13.484 6.534-27.447 10.461-41.861 4.336-14.288 8.879-27.9 13.617-40.822 11.087-30.156 20.584-53.5 28.162-69.498a22.652 22.652 0 0 0 .1-.206c8.146-17.65 14.737-32.42 19.818-44.43a22.652 22.652 0 0 0 .02-.036c4.27-10.142 7.327-19.276 6.4-30.604-.47-11.63-5.846-21.767-12.677-29.842a22.652 22.652 0 0 0-.09-.111c-6.427-7.497-12.414-13.637-21.797-17.896-6.158-2.98-13.163-4.83-20.314-4.83zm-2367.307 84.16c-42.777 14.105-33.328 3.104-50.436 27.268-5.828 3.189-12.739 5.789-21.033 7.592l.637-.13c-6.278 1.178-13.203 3.467-19.397 9.274-6.193 5.807-9.849 15.364-9.849 23.086 0 13.57 8.798 26.04 18.511 32.766a22.652 22.652 0 0 0 1.657 1.045c1.862 1.064 3.745 1.827 5.611 2.756a907.362 907.362 0 0 1-9.25 31.384 22.652 22.652 0 0 0-.123.4 1076.874 1076.874 0 0 1-14.51 45.507 22.652 22.652 0 0 0-.181.554 1072.732 1072.732 0 0 1-15.166 44.834c-4.635 12.744-9.013 23.535-13.161 32.875-9.458 2.488-17.284 8.246-23.951 14.782-7.795 7.064-12.935 17.252-14.486 27.334-1.437 9.335-.688 20.17 5.199 29.591l-.594-1.004a129.966 129.966 0 0 1 5.166 10.325 22.652 22.652 0 0 0 .436.925c1.287 2.575 2.088 4.687 2.519 6.196l-.369-1.48c2.684 12.53 14.844 25.777 27.832 28.775a22.652 22.652 0 0 0 .348.076c10.499 2.25 22.55 1.101 32.422-4.283v-.002c4.15-2.264 7.5-4.006 10.512-5.535.851-.257 1.618-.454 2.203-.454.685 0 3.234.163 6.386.493 4.433.95 9.601 1.963 16.616 3.2a22.652 22.652 0 0 0 1.127.17c7.893.987 16.7 1.693 26.521 2.163 9.775.903 19.38 1.379 28.801 1.379 25.662 0 50.795-3.972 75.041-11.889 18.32-5.982 34.706-14.908 48.568-26.57.477 1.03.875 2.093 1.42 3.092a22.652 22.652 0 0 0 .776 1.314c3.903 6.134 8.263 11.72 13.191 16.648a22.652 22.652 0 0 0 1.102 1.03c4.811 4.21 9.963 7.816 15.564 10.617a22.652 22.652 0 0 0 .93.44c5.46 2.426 10.341 4.646 18.625 4.646 20.689 0 40.095-9.273 59.759-23.86 5.15-3.624 10.729-8.067 17.002-13.423 7-5.6 13.569-11.238 19.745-16.924.102-.088.178-.17.281-.258v.014c3.197 11.978 8.665 23.107 16.634 32.404a22.652 22.652 0 0 0 .403.455c12.244 13.535 30.214 21.592 48.441 21.592 15.761 0 31.177-5.168 46.133-13.695 5.746-3.18 11.379-6.812 16.949-10.688 2.199 4.734 5.151 8.992 8.526 12.367a22.652 22.652 0 0 0 1.103 1.032c5.094 4.456 10.786 8.232 16.895 11.287 6.226 3.114 12.885 5.324 19.736 6.617 6.507 1.563 12.93 2.508 19.354 2.508 11.198 0 21.84-2.944 33.636-7.545 4.862-1.831 9.575-4.247 14.418-7.084 5.334-2.466 10.496-5.158 15.442-8.125l-.807.463c4.98-2.717 9.515-5.212 13.617-7.49a22.652 22.652 0 0 0 1.563-.954c4.654-3.103 8.675-6.174 12.382-9.802 6.885-6.267 11.857-13.819 16.19-22.485 4.521-9.043 7.773-17.891 7.773-28.303 0-13.054-3.65-25.923-9.896-37.914-5.277-10.96-12.114-21.75-20.418-32.496l.07.092c-5.04-6.591-9.164-12.825-12.525-18.7-1.781-3.93-2.469-6.72-2.727-8.759 3.17-2.465 7.724-5.235 14.133-7.934 6.764-2.848 14.524-5.104 23.371-6.642a22.652 22.652 0 0 0 .738-.14c8.043-1.676 15.762-2.461 23.297-2.69 1.267 6.39 4.142 13.03 9.188 18.076a22.652 22.652 0 0 0 1.871 1.674c2.82 2.255 5.817 4.43 8.996 6.549a22.652 22.652 0 0 0 2.432 1.41c5.393 2.697 11.295 3.84 16.873 3.879-1.862 5.382-3.585 10.48-5.811 16.601a22.652 22.652 0 0 0-.297.873l-9.342 29.362c-3.066 9.194-5.484 15.949-6.941 19.59a22.652 22.652 0 0 0-.148.382c-5.427 14.309-8.877 25.958-8.877 38.326 0 17.773 9.164 35.71 23.629 46.041v-.002c12.473 8.91 27.097 14.319 42.117 14.319 11.907 0 23.973-2.354 36.144-6.563 28.253-8.973 50.879-19.227 68.297-32.28 15.14-11.02 26.157-19.761 34.113-27.718a22.652 22.652 0 0 0 1.182-1.277c4.306-5.024 7.972-10.952 9.969-17.94l-.568 1.725c2.146-5.728 3.999-12.187 2.386-20.748-1.607-8.51-11.452-20.796-21.849-22.875l3.97 1.18c-13.849-5.54-23.785.466-30.402 4.877-3.247 2.165-7.614 4.769-12.982 7.66-5.004 2.694-10.511 5.254-16.528 7.66a22.652 22.652 0 0 0-.51.21c-5.518 2.366-11.281 4.54-17.24 6.542a47.533 47.533 0 0 1-6.814 1.371c.129-1.786.342-3.787.746-6.107a22.652 22.652 0 0 0 .242-1.828c.283-3.113 1.126-7.774 2.656-13.543a1396.37 1396.37 0 0 0 6.395-21.08 1186.86 1186.86 0 0 1 7.637-21.018 1241.157 1241.157 0 0 0 6.476-15.104c29.746-4.033 54.384-8.289 73.998-12.959a22.652 22.652 0 0 0 .367-.09c19.891-5.088 32.179-8.39 42.825-14.123a22.652 22.652 0 0 0 .912-.517c4.73-2.838 8.809-6.555 12.095-10.662l-1.668 1.863c3.988-3.988 7.801-9.394 9.664-16.365 2.091-7.096 1.85-19.878-5.992-28.08-7.666-8.507-17.538-9.707-24.4-9.707-5.183 0-11.706.247-19.895.699-7.83.018-16.295.235-25.623.68a22.652 22.652 0 0 0-.05.002c-8.821.44-17.878.88-27.147 1.322 4.244-9.889 9.332-20.328 15.666-31.506l-.04.07c5.335-9.336 8.559-20.45 7.195-31.783-1.363-11.333-7.288-21.525-14.892-29.129-8.085-8.085-19.936-14.049-32.174-14.049-11.823 0-20.874 4.302-30.336 9.868a22.652 22.652 0 0 0 0 .002c-10.441 6.142-19.475 14.638-24.932 25.552a22.652 22.652 0 0 0 0 .002c-2.468 4.938-4.994 11.038-8.253 19.42a819.639 819.639 0 0 0-9.698 26.313l.125-.348a4255.742 4255.742 0 0 1-8.707 23.445 22.652 22.652 0 0 0 0 .004c-2.281 6.084-3.681 9.304-3.867 9.83-5.806 1.18-11.417 2.362-16.623 3.559-3.58.606-6.656 1.237-9.764 1.865-.901-2.912-2.016-5.775-3.543-8.445l1.543 3.285c-3.491-9.306-10.038-15.844-16.972-20.697-6.439-4.507-13.687-7.814-21.274-9.84-8.588-2.765-17.518-3.684-27.4-3.684-7.262 0-14.828.867-23.027 2.405a22.652 22.652 0 0 0-.27.052c-8.063 1.613-16.186 3.989-24.385 7.063a197.16 197.16 0 0 0-23.574 10.648 22.652 22.652 0 0 0-.58.32 144.023 144.023 0 0 0-20.447 14.14c-11.833 9.205-22.435 20.707-31.955 34.236-10.576 15.028-16.92 31.966-16.92 49.398 0 .403.06.517.07.895-6.424 8.378-12.728 16.422-18.67 23.107a22.652 22.652 0 0 0-.314.36c-9.838 11.548-19.142 21.461-27.825 29.745-7.896 7.132-14.618 12.536-20.222 16.553-.14-1.623-.266-3.335-.266-5.353 0-18.19 2.409-36.381 7.311-54.762a22.652 22.652 0 0 0 .03-.12c5.066-19.42 11.83-38.667 20.328-57.786a22.652 22.652 0 0 0 1.08-2.975c1.826-6.39 2.052-12.798 1.422-18.951-.627-9.707-5.687-16.264-10.039-20.62-4.318-4.32-8.981-7.442-14.248-10.515-6.13-4.03-14.819-6.772-23.274-5.713a33.3 33.3 0 0 0-5.941 1.32c-.652-.592-1.237-1.187-1.916-1.78l1.807 1.806-.03.006c-7.046-7.815-18.53-12.807-28.812-12.807-5.545 0-8.801.772-13.869 1.786l2.187-.329c-7.184.719-14.09 2.598-21.521 5.252-8.249 2.946-16.545 7.195-25.43 12.606-9.681 5.435-19.39 12.485-29.5 21.15a22.652 22.652 0 0 0-.471.414c-15.253 13.824-29.708 29.24-43.379 46.198-14.038 16.958-25.962 35.21-35.691 54.652-8.193 15.72-14.411 29.032-18.695 40.826-.572-.096-1.19-.253-1.723-.307-9.608-.965-14.93 1.536-20.82 4.016a22.652 22.652 0 0 0-.03.016c-9.835 4.16-20.847 7.289-33.162 9.275a22.652 22.652 0 0 0-.116.02c-12.341 2.056-24.108 3.058-35.328 3.058-5.547 0-12.185-.219-19.644-.623a426.156 426.156 0 0 1-22.358-3.105 946.223 946.223 0 0 1-17.705-3.319c.667-1.712 1.235-3.093 1.979-5.043 4.128-9.647 9.234-22.069 15.466-37.65a22.652 22.652 0 0 0 .07-.178c7.2-18.451 13.284-34.221 18.258-47.334 4.898-12.913 8.898-23.806 12.109-32.96l.02-.053c3.645-9.569 6.411-17.166 8.377-23.065a22.652 22.652 0 0 0 0-.004c1.718-5.153 3.199-9.358 4.401-12.566 2.018-5.244 4.489-11.032 7.429-17.334a22.652 22.652 0 0 0 .225-.5c2.498-5.71 4.942-9.365 6.279-10.87a22.652 22.652 0 0 0 .651-.765c9.538-11.74 13.36-30.514 7.443-45.018-4.738-11.764-13.647-21.198-24.162-28.002-10.519-6.806-22.676-11.046-35.203-11.046zm1029.48 90.614c.01-.044-.34 1.024-.529 1.638.09-1.286.52-1.596.529-1.638zm1004.918 6.418c.256.023.904.126.973.154-.328-.03-.644-.13-.973-.154zm231.518 3.338c-.07.235 2.875-7.088 0 0zm-1130.967 4.21c17.22 8.35 28.81-2.676 22.949 22.026-2.671 3.486-5.962 6.839-10.16 10.068-5.102 3.924-10.661 7.702-16.695 11.323l.994-.563c-6.056 3.23-11.763 6.707-17.26 10.33 4.141-11.216 8.895-24.141 11.418-30.869a22.652 22.652 0 0 0 .104-.281 422.898 422.898 0 0 1 8.65-22.033zm-77.211 7.311c.261-.163.09.108-.828.484a22.652 22.652 0 0 0 .828-.484zm-419.271 8.33c-.09.016-.172.043-.258.059-.181.04-.424.075-.604.115zm399.744 1.87a1.89 1.89 0 0 1-.07.032c.02-.013.04-.02.07-.033zm-421.291 7.445c-.07.058-.134.126-.207.185-.05.039-.1.063-.143.102zm641.144 17.81c-.137.33-.338.799-.3.703.09-.236.208-.466.3-.703zm-147.052 12.858-.03.023-.03.02zm-19.588 14.18c-.04.025-.07.053-.104.08-.249.19-.567.4-.814.59zm-346.692 17.398c.106-.004-.101.34-.543.826.04-.104.106-.247.149-.35.159-.262.324-.474.394-.476zm1478.895 4.82c-8.543 17.194-69.166 85.194-34.768 45.812a425.123 425.123 0 0 1 11.746-17.431 22.652 22.652 0 0 0 .03-.045c7.941-11.228 15.63-20.549 22.99-28.336zm-1557.858 5.951c-.305.044-1.401.182-1.644.207.486-.075 1.177-.129 1.644-.207zm1570.35 54.893c-.137.618-.224 1.278-.352 1.904.05-.185.107-.634.122-.719zm-2364.75 6.316c-1.487 3.401 1.854-2.781 0 0zm2088.551 9.217c2.713.505 5.447.842 8.213 1.01-.233.002-.549.058-.778.058-4.756 0-6.534-.63-7.435-1.068zm273.752.588v.103c0 .034 0 .066-.01.1zm36.859 1.592c.05-.057-.05.143-.488.572.101-.123.227-.254.328-.377a22.652 22.652 0 0 0 .16-.195zm-1208.334.683c.129.047.53.409.84.658-.754-.38-1.161-.774-.84-.658zm-621.775 3.403c-.352.15-.648.366-.994.523-.265.132-.564.214-.823.354zm-290.949 5.605c.109.73.192 1.43.125 1.049-.06-.353-.05-.694-.125-1.049zm-178.934 2.072c-.303 1.218 1.755-3.37 0 0zm455.469 1.028c-.08.054-.152.127-.233.181-.367.28-.741.5-1.109.785zm644.838 2.847c-.06.156-.06.156 0 0zm-661.754 12.106c-.09.092-.174.201-.266.295-.138.149-.274.263-.412.414zm967.078 15.064c-.08.07-.146.12-.1.076.03-.026.07-.05.1-.076zm-1237.77.873a9.044 9.044 0 0 1-.396.428c.127-.147.269-.28.396-.428z" style="font-style:italic;font-variant:normal;font-weight:700;font-stretch:normal;font-family:&quot;Caflisch Script&quot;;-inkscape-font-specification:&quot;Caflisch Script Bold Italic&quot;;fill:#333;fill-opacity:1;stroke-width:16.83301544px" transform="translate(509.385 29.027) scale(.03998)"/><path d="M-2728.352-139.957q2.315 0 4.453.534.713.178.891.178.356-.178.713-1.069 2.85-6.947 5.522-13.717 2.85-6.77 5.167-12.47 2.494-5.88 4.275-9.977 1.782-4.275 2.672-5.879 1.07-2.316 1.96-3.028 1.069-.713 1.96-.713 1.425 0 2.85.713 1.603.712 3.741 3.206 1.96 2.316 1.96 4.454.178 1.96-1.247 5.345-1.96 4.631-5.167 11.58-3.206 6.769-7.66 18.883-1.96 5.345-3.741 11.223-1.603 5.88-2.85 11.402-1.248 5.523-2.138 10.333-.891 4.81-1.07 8.195-.89 8.907 3.386 8.907 2.137 0 5.879-3.028 3.74-3.029 7.66-7.126 4.097-4.098 7.482-8.017 3.385-3.92 4.632-5.88 1.604-2.315 3.029-2.671 1.425-.357 2.316 1.069.712 1.247.178 3.563-.535 2.137-1.782 4.631-2.137 4.276-6.235 9.62-4.097 5.345-9.264 10.155-5.166 4.81-10.867 8.017-5.7 3.206-10.867 3.206-2.672 0-4.632-1.247-1.96-1.247-3.206-3.206-1.248-2.138-1.782-4.454-.534-2.494-.356-4.81.178-3.029.356-4.81.178-1.96.534-3.563.179-1.069-.356-1.069-.356-.178-1.069.713-1.603 1.96-3.919 4.275-2.316 2.316-4.81 4.632-2.316 2.138-4.632 4.098-2.316 1.781-3.92 2.85-5.878 4.097-10.866 5.879-4.989 1.781-8.017 1.781-3.029 0-5.523-2.316-2.494-2.494-2.494-9.263 0-2.85.891-6.77.89-4.098 3.029-8.908 2.137-4.81 5.522-9.976 3.385-5.344 8.373-10.867 7.304-8.017 14.43-11.223 7.126-3.385 14.609-3.385zm-3.563 10.332q-2.495 0-7.66 4.276-4.989 4.276-10.155 11.58-5.701 8.016-7.126 11.758-1.426 3.563-1.426 5.522 0 3.029 2.316 3.029 1.604 0 4.632-1.782 3.207-1.96 7.483-6.057 2.315-2.316 4.631-5.522 2.494-3.207 4.632-6.414 2.138-3.207 3.741-5.7 1.604-2.673 1.96-3.742.89-1.781.713-2.85 0-1.247-.535-2.138-1.069-1.96-3.206-1.96zm-98.875 34.383q0-6.057 3.207-14.964 3.207-8.908 9.085-17.459 1.248-1.781 3.563-4.454 2.316-2.85 4.989-5.166 2.85-2.494 5.879-4.276 3.028-1.781 5.879-1.781 2.494 0 3.919 1.069 1.425.89 2.316 2.494 1.069 1.425 2.672 1.603 4.632.357 7.482 3.207 2.85 2.672 2.85 7.838 0 4.81-2.137 8.73-1.96 3.741-4.632 6.77-2.85 2.85-7.66 5.7-4.632 2.673-11.936 2.673-1.426 0-2.85-.357-1.426-.534-2.673-1.069-1.603-.712-2.316.891-.713 1.425-1.069 2.672t-.356 3.207q0 3.029 1.96 4.81 2.137 1.782 6.056 1.782 3.92 0 8.908-1.248 5.166-1.247 10.867-3.919 5.879-2.85 12.292-7.482 6.414-4.632 13.183-11.58 1.426-1.425 2.495-1.425 1.247 0 1.781.89.713 1.248 0 3.386-.534 2.137-2.316 4.453-4.632 5.88-10.867 11.402-6.235 5.523-13.54 9.798-7.125 4.276-15.142 6.948-7.839 2.494-15.677 2.494-3.029 0-6.057-1.247-2.85-1.069-5.167-3.385-2.316-2.316-3.74-5.522-1.248-3.207-1.248-7.483zm24.05-18.35q2.138 0 4.454-1.246 2.494-1.425 4.454-3.385 2.138-1.96 3.385-4.097 1.425-2.316 1.425-4.276t-1.247-2.85q-1.07-1.07-2.85-1.07-1.426 0-3.03 1.426-1.602 1.425-3.384 3.563-1.603 2.138-3.029 4.632-1.425 2.494-2.137 4.632-.535 1.603-.178 2.137.356.535 2.137.535zm-77.364-8.55q.178-2.85-.178-4.098-.178-1.247-.534-2.138-.357-.89-.179-2.315.357-1.604 1.604-3.742 1.603-2.85 3.92-5.7 2.493-3.029 5.522-3.029 1.781 0 3.028 1.782 1.247 1.603 1.782 4.275.712 2.672.89 5.7.179 3.03.179 5.702t-.357 6.235q-.356 3.385-.89 7.126-.357 3.563-.713 6.948-.356 3.385-.534 5.522-.357 3.385.356 4.989.712 1.603 1.603 1.603.535 0 4.632-4.988 4.098-5.167 11.402-17.637 1.96-3.385 2.316-5.345.356-1.96 0-3.563-.357-1.425-.179-3.206.179-1.96 1.426-4.098 1.247-2.137 2.494-4.097 1.247-1.96 3.206-4.454 1.426-1.425 2.494-2.316 1.248-1.069 3.207-1.069.713 0 1.782.891 1.247.713 2.316 2.138 1.247 1.247 2.137 2.85.891 1.604.891 3.385 0 1.603-.712 4.276-.535 2.494-1.782 5.522-1.247 3.029-3.741 7.66-2.494 4.633-5.523 9.799-3.028 5.166-6.591 10.333-3.385 4.988-6.414 8.729-14.43 17.815-23.515 28.682-8.908 10.867-10.333 13.183-2.494 3.385-1.96 4.097 2.673.891 2.673 3.385 0 1.96-1.782 3.741-1.603 1.782-3.92 3.385-2.137 1.604-4.453 2.673-2.316 1.247-3.741 1.96-2.672 1.246-3.92 2.671-1.424 1.426-3.028 3.92-1.603 2.494-3.741 3.385-2.138.89-4.632.89-2.85 0-4.81-1.96-2.138-1.78-1.247-4.275.713-2.494 1.96-4.632 1.069-2.138 2.85-4.454 2.672-3.563 4.632-4.81 1.96-1.247 3.028-1.603 2.495-.89 3.92-3.741 1.069-2.316 3.206-5.345 1.96-3.028 6.236-9.085 3.206-4.098 7.66-9.977 4.632-5.878 10.69-13.183 1.068-1.247.534-1.247h-1.247q-2.495 0-3.742-3.919-1.247-4.097-.89-13.183zm-33.38-20.31q1.96 0 3.208 1.426 1.425 1.247 2.315 2.316.535 1.603 2.316.356 2.138-1.96 4.276-.534 3.741 2.137 3.741 3.74.178 1.604-.178 2.851-3.563 8.017-5.7 16.212-2.139 8.016-2.139 16.033 0 4.632 1.248 6.77 1.247 1.96 3.206 1.96 1.603 0 4.454-1.96 2.85-1.96 6.592-5.345 3.74-3.563 7.838-8.373 4.276-4.81 8.551-10.689 1.425-1.425 2.672-1.247 1.247 0 1.782.891.713 1.247.178 3.563-.534 2.138-1.781 4.632-3.029 5.879-7.483 11.58-4.453 5.7-9.442 10.332-4.988 4.632-10.154 7.483-4.988 2.85-9.264 2.85-4.988 0-8.373-3.741-3.207-3.741-3.741-9.264-.356-1.96-.356-3.385v-2.85q-.179-1.96-1.604-.535l-2.85 2.85q-1.96 1.96-4.454 4.098-2.316 2.138-4.988 4.276-2.494 2.138-4.276 3.385-6.947 5.166-12.292 5.166-.89 0-2.494-.713-1.425-.712-2.85-1.96-1.426-1.424-2.673-3.384-1.068-1.96-1.068-4.454 0-2.672 1.246-7.304 1.248-4.632 5.523-12.827 3.563-7.126 8.73-13.36 5.166-6.414 10.867-11.58 3.74-3.207 6.947-4.989 3.207-1.96 5.701-2.85 2.494-.89 4.276-1.07 1.781-.355 2.494-.355zm-6.59 13.362q-1.248 0-3.564 1.781-2.137 1.782-6.057 6.414-2.316 2.672-4.453 5.879-1.96 3.028-3.563 6.057-1.604 2.85-2.673 5.522-1.069 2.673-1.425 4.454-.356 1.782-.178 3.385.356 1.425 1.425 1.425 1.07 0 2.85-1.069 1.96-1.247 3.92-3.028 2.316-1.96 4.454-4.632 2.315-2.85 6.413-7.482 1.96-2.138 3.741-5.167 1.782-3.028 2.316-3.92.89-1.424 1.069-2.85.356-1.603 0-3.028-.356-1.247-1.425-2.494-1.07-1.247-2.85-1.247zm-77.89 39.905q0-1.96.535-5.522.534-3.741 1.96-9.62 1.603-5.88 4.275-14.252 2.85-8.373 7.482-19.775 8.195-20.487 13.005-30.463 4.81-10.155 6.77-12.65 2.138-2.671 4.632-2.671 1.96 0 3.207 1.247 4.453 3.74 4.275 6.948-.178 3.028-3.028 8.55-4.988 9.62-8.908 18.885-3.92 9.085-7.126 17.28-3.028 8.195-5.344 15.143-2.138 6.948-3.741 11.936-2.138 6.948-1.426 9.442.713 2.316 2.85 2.316 2.139 0 5.523-1.782 3.385-1.96 7.483-5.166 4.275-3.385 8.729-7.839 4.632-4.632 9.086-9.976 1.247-1.425 2.137-1.425 1.07 0 1.604.89 1.069 2.316-1.247 6.948-1.96 3.92-6.77 9.62-4.632 5.701-10.867 10.867-6.057 5.167-13.005 8.908-6.948 3.741-13.005 3.741-3.92 0-6.591-3.385-2.495-3.385-2.495-8.195zm3.577-50.06q0 3.029-1.425 6.236-1.247 3.206-3.385 6.235-2.137 2.85-4.81 5.344-2.494 2.494-4.988 4.098-1.425 1.069-3.563 2.316-2.138 1.247-4.632 2.494-2.494 1.247-5.166 2.316-2.672 1.069-5.166 1.781-1.604.356-3.029.535-1.425.178-2.494.178-1.069 0-2.316-.713-1.069-.89-1.069-2.316 0-1.247.535-2.672.712-1.425 1.603-2.316 1.069-1.425 3.385-3.028 2.316-1.782 5.166-3.742 2.316-1.603 4.988-3.028 2.673-1.604 4.988-3.385 2.316-1.781 3.92-3.92 1.603-2.315 1.603-4.987 0-2.85-1.603-4.81-1.604-2.138-3.92-3.385-2.137-1.247-4.631-1.782-2.316-.534-3.92-.534-2.316 0-3.206 1.96-1.604 3.562-3.207 8.016-1.603 4.276-4.81 13.005-2.85 7.839-5.345 15.32-2.494 7.483-4.453 14.965-.891 2.138-.357 3.029.535.713 2.494 1.247 2.495.713 6.592 1.247 4.276.356 7.304.713 3.029.356 2.85 2.137-.178 1.782-2.672 3.563-1.96 1.426-6.591 2.673-4.454 1.247-10.155 1.247-1.425 0-3.028.178-1.426.356-2.494 1.603-.891.89-2.673 1.604-1.603.712-3.563.712-4.453 0-7.482-2.138-3.028-1.96-4.454-4.988-2.137-4.81 4.989-7.66 1.425-.535 2.315-1.247 1.07-.891 1.782-2.316 1.069-4.454 3.028-10.867 1.96-6.414 4.098-13.183 2.138-6.948 4.276-13.54 2.137-6.77 3.74-11.936.713-1.96.535-2.494-.178-.712-1.603.178-1.96 1.07-4.81 2.494-2.673 1.426-3.563 1.426-1.07 0-2.494-.357-1.426-.356-2.494-1.603-.891-.89-1.07-2.494 0-1.782 2.317-3.741 3.028-2.673 7.304-4.81 4.453-2.138 8.373-3.563 1.247-.535 1.603-.891.535-.356.89-1.247.713-1.782 2.317-4.098 1.781-2.316 4.275-2.316 1.426 0 3.741 1.248 2.495 1.068 5.523 4.097.89.89 1.425 1.247.535.178 1.604.178 2.316 0 5.7.89 3.385.892 6.77 2.495 3.563 1.603 6.592 3.741 3.206 2.138 5.166 4.632 1.603 2.138 2.138 4.632.712 2.494.712 4.097zm-139.64 47.744q2.315 0 4.81-.712 2.671-.891 5.166-1.96 2.672-1.069 4.988-2.316 2.316-1.247 3.919-2.316 1.603-1.069 2.494-.712.89.178 1.069 1.247.178.89-.356 2.316-.357 1.247-1.426 2.494-2.494 2.494-8.373 6.77-5.7 4.275-16.39 7.66-4.097 1.425-7.66 1.425-3.919 0-7.66-2.672t-3.741-7.304q0-2.85 1.96-8.017.712-1.782 1.959-5.523l2.494-7.838q1.425-3.92 2.494-7.126 1.247-3.385 1.603-4.276.357-.89.179-1.425 0-.534-1.426-.356-1.068.178-2.85.356-1.603 0-3.385.356-1.425.178-2.494-.356-1.069-.713-1.96-1.425-.89-.891-.89-2.494.178-1.782 1.247-3.029 1.247-1.425 2.138-2.138 1.068-.89 3.028-1.247 1.603-.356 3.741-.712 2.316-.535 4.988-1.07 1.247-.355 1.96-.712.89-.534 1.425-1.96.357-.712 1.425-3.562 1.07-2.85 2.316-6.236 1.247-3.563 2.494-6.77 1.248-3.206 1.96-4.631 1.247-2.494 4.276-4.276 3.028-1.781 4.988-1.781 2.316 0 4.275 1.96 3.92 3.919 1.07 8.907-3.03 5.344-4.989 10.154-1.96 4.81-2.494 6.057-.356 1.07.356 1.247h1.782q3.028 0 6.591-.178 3.742-.178 7.305-.356 3.74-.178 6.77-.178 3.206-.178 4.987-.178 1.604 0 2.138.712.535.535.178 1.604-.178.89-1.069 1.781-.712.89-1.603 1.425-2.316 1.247-9.976 3.207-7.483 1.782-19.419 3.385-1.781.356-2.494.89-.712.357-1.425 1.782-.89 2.138-2.138 4.988-1.069 2.85-2.137 5.88-.891 3.028-1.782 5.878-.713 2.672-.89 4.632-.713 4.097 0 6.413.89 2.316 4.453 2.316zm-37.038-51.129q3.385 0 5.523.713 2.138.535 3.92 1.782 1.78 1.247 2.315 2.672.713 1.247.713 2.85 0 2.494-1.782 3.741-1.603 1.07-3.92 1.07-4.097 0-8.372.89-4.098.713-7.482 2.138-3.385 1.425-5.523 3.206-1.96 1.782-1.96 3.92 0 2.494 1.425 5.522 1.604 2.85 3.92 5.88 3.028 3.919 4.81 7.66 1.96 3.74 1.96 7.304 0 1.96-1.426 4.81-1.425 2.85-3.028 4.275-.891.891-2.494 1.96-1.604.89-3.563 1.96-1.782 1.069-3.741 1.96-1.782 1.068-3.207 1.603-4.098 1.603-6.77 1.603-1.781 0-3.92-.534-1.959-.357-3.74-1.247-1.782-.891-3.207-2.138-1.247-1.247-1.425-2.672 0-.891.178-1.782.356-1.069 1.247-1.96 1.96-2.137 3.563-3.206 1.603-1.247 2.85-1.782 2.316-1.247 4.454.357 1.425.534 2.316.89 1.069.178 3.029.178 1.781 0 2.672-.712 1.069-.89 1.069-1.782 0-1.425-1.07-3.563-1.068-2.316-3.028-4.81-1.425-1.781-3.206-4.81-1.782-3.206-2.673-5.166-.712-1.603-1.247-3.563-.534-2.138-.534-3.92 0-4.81 3.385-9.62 3.384-4.81 7.304-7.838 2.138-1.781 4.632-3.207 2.672-1.425 5.522-2.494 2.85-1.069 5.523-1.603 2.85-.535 4.988-.535zm-68.967.179q1.96 0 3.206 1.425 1.426 1.247 2.316 2.316.535 1.603 2.316.356 2.138-1.96 4.276-.534 3.741 2.137 3.741 3.74.178 1.604-.178 2.851-3.563 8.017-5.701 16.212-2.138 8.016-2.138 16.033 0 4.632 1.247 6.77 1.247 1.96 3.207 1.96 1.603 0 4.454-1.96 2.85-1.96 6.591-5.345 3.741-3.563 7.839-8.373 4.275-4.81 8.551-10.689 1.425-1.425 2.672-1.247 1.247 0 1.782.891.712 1.247.178 3.563-.535 2.138-1.782 4.632-3.028 5.879-7.482 11.58-4.454 5.7-9.442 10.332-4.988 4.632-10.154 7.483-4.988 2.85-9.264 2.85-4.988 0-8.373-3.741-3.207-3.741-3.741-9.264-.357-1.96-.357-3.385v-2.85q-.178-1.96-1.603-.535l-2.85 2.85q-1.96 1.96-4.454 4.098-2.316 2.138-4.988 4.276-2.494 2.138-4.276 3.385-6.948 5.166-12.292 5.166-.89 0-2.494-.713-1.425-.712-2.85-1.96-1.426-1.424-2.673-3.384-1.069-1.96-1.069-4.454 0-2.672 1.247-7.304t5.523-12.827q3.563-7.126 8.73-13.36 5.166-6.414 10.866-11.58 3.742-3.207 6.948-4.989 3.207-1.96 5.701-2.85 2.494-.89 4.276-1.07 1.781-.355 2.494-.355zm-6.592 13.36q-1.247 0-3.563 1.782-2.138 1.782-6.057 6.414-2.316 2.672-4.454 5.879-1.96 3.028-3.563 6.057-1.603 2.85-2.672 5.522-1.069 2.673-1.425 4.454-.356 1.782-.178 3.385.356 1.425 1.425 1.425t2.85-1.069q1.96-1.247 3.92-3.028 2.316-1.96 4.453-4.632 2.316-2.85 6.414-7.482 1.96-2.138 3.74-5.167 1.782-3.028 2.317-3.92.89-1.424 1.069-2.85.356-1.603 0-3.028-.357-1.247-1.425-2.494-1.07-1.247-2.85-1.247zm-66.845 39.194q4.988 0 10.333-.891 5.522-.89 10.154-2.85 3.385-1.426 3.563.356.357 1.781-1.603 3.92-5.345 6.234-14.074 9.085-8.73 2.85-17.993 2.85-3.563 0-7.304-.356-3.741-.178-6.592-.535-3.028-.534-4.632-.89-1.603-.178-2.493-.178-1.426 0-2.85.534-1.426.713-3.386 1.781-1.96 1.07-4.454.535-2.315-.535-2.85-3.029-.356-1.247-1.069-2.672-.712-1.603-1.603-3.207-.89-1.425-.535-3.74.357-2.317 1.96-3.742 2.672-2.672 4.988-2.672.713 0 1.247-.356.535-.357 1.07-1.782 1.959-4.275 4.097-10.154 2.137-5.88 4.097-12.115 2.138-6.235 3.92-12.292 1.959-6.235 3.206-11.045.89-3.029-.534-3.207-1.96-.356-4.454-1.781-2.316-1.604-2.316-3.741 0-2.138 2.85-2.673 4.098-.89 7.304-2.672 3.207-1.96 4.81-3.92 1.96-2.493 5.523-2.493 3.029 0 6.057 1.96 3.029 1.959 4.098 4.631 1.247 3.029-1.07 5.88-1.425 1.603-2.672 4.453-1.247 2.672-2.137 4.988-.535 1.425-1.247 3.563-.713 2.138-2.138 5.879-1.247 3.563-3.207 8.73-1.96 5.166-4.81 12.47-2.494 6.235-4.097 9.976-1.426 3.741-2.138 5.166-.356.891-.178 1.782.178.89 1.425 1.247 1.247.534 3.92 1.069 2.671.534 5.7 1.069 3.207.534 6.413.89 3.207.179 5.701.179z" style="font-style:italic;font-variant:normal;font-weight:700;font-stretch:normal;font-family:&quot;Caflisch Script&quot;;-inkscape-font-specification:&quot;Caflisch Script Bold Italic&quot;;fill:#f4c401;fill-opacity:1;stroke-width:4.45373535px" transform="translate(509.385 29.027) scale(.15111)"/></g></svg>