<svg xmlns="http://www.w3.org/2000/svg" xml:space="preserve" width="566.929" height="92.175"><path d="m18.421 92.138 1.372-18.127h7.505l1.511 18.127h18.522L35.72.45H11.787L0 92.138h18.421m7.792-33.255h-5.337l2.706-35.63 2.631 35.63M77.555.45H51.749v91.688h17.652V39.921l7.301 52.216h11.463l7.014-51.932v51.932h17.651V.45H86.987l-4.799 40.498L77.555.45m38.488 11.158c-.012 6.318-.084 12.634-.033 18.955.033 1.033.096 2.065.156 2.808.134 1.565.257 2.042.518 3.058.268 1.004.72 2.259 1.432 3.368.334.531.71 1.036 1.269 1.646.559.61 1.301 1.325 2.083 1.993 1.611 1.394 3.367 2.47 5.129 3.4 3.851 2.129 7.678 4.232 11.555 6.39.52.329 1.071.605 1.619 1.137 1.332 1.28 1.328 2.768 1.309 4.191l.074 1.98.028 12.415c.012.907-.075 1.802-.512 2.765a2.61 2.61 0 0 1-.6.75c-.782.651-1.768.822-2.742.433a2.632 2.632 0 0 1-.81-.531c-.982-.945-.869-2.287-1.01-3.438l-.008-18.685h-19.514l.02 20.921c.016 2.568.033 5.002.589 7.518.299 1.297.776 2.645 1.5 3.852a10.682 10.682 0 0 0 2.826 3.106c1.134.832 2.434 1.43 3.461 1.785 1.028.355 1.784.467 2.54.558s1.511.191 2.269.191l19.826-.001c.898 0 1.798.04 2.905-.265a13.611 13.611 0 0 0 3.557-1.565c1.137-.722 2.096-1.625 2.756-2.593.66-.968 1.023-2.002 1.336-2.934s.574-1.763.765-2.872c.191-1.108.313-2.494.382-3.881.066-1.387.033-2.775.033-4.163V59.203c0-.276 0-.553-.008-1.174a90.867 90.867 0 0 0-.061-2.689 77 77 0 0 0-.186-3.146c-.067-.801-.127-1.163-.201-1.523a14.756 14.756 0 0 0-.265-1.069 7.967 7.967 0 0 0-.495-1.312 16.884 16.884 0 0 0-1.278-2.277 12.93 12.93 0 0 0-1.89-2.208c-.711-.661-1.496-1.24-2.37-1.838a77.05 77.05 0 0 0-5.766-3.56l-8.284-4.52a20.763 20.763 0 0 1-1.466-.869 23.034 23.034 0 0 1-1.211-.857c-.497-.379-.498-.429-.707-.651a2.544 2.544 0 0 1-.298-.413c-.312-.497-.689-1.371-.759-2.11-.049-.397-.007-.797-.007-1.198.005-2.886-.015-5.865.014-8.657-.017-.65-.001-1.393.24-2.087.111-.341.257-.671.438-.949.94-1.257 2.065-1.441 3.305-.92.282.147.542.359.762.606s.4.527.529.83c.128.302.206.625.257 1.072.105.921.114 2.188.107 3.302V31.89h19.598c-.021-5.63.068-11.255-.063-16.891a73.425 73.425 0 0 0-.229-3.466c-.079-.859-.145-1.273-.227-1.684a16.596 16.596 0 0 0-.301-1.221 10.086 10.086 0 0 0-.553-1.489c-.307-.686-.79-1.657-1.424-2.523a9.793 9.793 0 0 0-2.302-2.24 11.954 11.954 0 0 0-2.707-1.387c-1.657-.569-2.919-.665-4.359-.849-.706-.075-1.414-.145-2.124-.139l-16.964.136c-1.947.063-3.875.305-5.903.873a9.935 9.935 0 0 0-1.75.719c-1.11.606-2.034 1.269-2.993 2.447a13.254 13.254 0 0 0-1.413 2.174c-.847 1.661-1.354 3.472-1.394 5.258M163.976.45v14.789h9.775v76.898h19.598V15.239h9.701V.45h-39.074m65.204 0h-20.866v91.688h19.569V55.591c1.282.049 2.563-.108 3.863.293.274.098.531.246.752.435.904.776.834 1.767.973 2.703.17 1.881.037 3.771.084 5.654v27.461h19.568l-.018-28.663c-.031-2.825-.223-5.624-.839-8.45a12.526 12.526 0 0 0-.688-1.905 10.81 10.81 0 0 0-4.214-4.898 10.854 10.854 0 0 0-3.006-1.285 12.898 12.898 0 0 0 1.519-.48 9.989 9.989 0 0 0 6.161-6.993c.209-.75.384-1.504.525-2.262.459-3.09.623-6.187.561-9.291v-9.6a35.92 35.92 0 0 0-.271-5.699 31.854 31.854 0 0 0-.442-2.666 12.921 12.921 0 0 0-.578-2.004 11.378 11.378 0 0 0-1.975-3.306 11.922 11.922 0 0 0-2.201-1.844 11.779 11.779 0 0 0-5.393-1.846C237.91.438 233.543.581 229.18.45m-1.297 14.908c.924.007 1.841.018 2.768.022.442.04.895.152 1.333.35 1.273.838 1.338 1.902 1.454 2.93.082 1.154.078 2.315.117 3.474-.016 4.017.051 8.032-.047 12.048-.01.717-.07 1.432-.177 2.146a2.612 2.612 0 0 1-.917 1.739c-.592.533-1.38.56-2.091.644-.81.077-1.627.086-2.44.029V15.358m47.692 76.78 1.371-18.127h7.506l1.51 18.127h18.522L292.874.45H268.94l-11.785 91.688h18.42m7.793-33.255h-5.338l2.706-35.63 2.632 35.63m67.719-52.775a10.52 10.52 0 0 0-2.546-2.802c-1.01-.768-2.158-1.345-3.013-1.688s-1.415-.451-1.974-.55a28.556 28.556 0 0 0-1.682-.252c-.563-.064-1.127-.105-2.467-.165-1.34-.059-3.455-.191-5.571-.192L308.46.45v91.688l31.104-.052c.774-.002 1.532-.222 2.292-.356 1.605-.289 3.016-.594 4.523-1.276a12.712 12.712 0 0 0 2.421-1.416 8.164 8.164 0 0 0 2.13-2.356c.658-1.075 1.277-2.526 1.732-4.301.453-1.774.801-3.871.796-5.971l-.136-62.58c-.004-1.429-.362-2.84-.727-4.146-.362-1.305-.837-2.499-1.508-3.576m-21.824 9.33c.417 0 .835-.033 1.238.017.405.05.792.144 1.112.244s.57.209.795.359c.224.15.421.342.578.562.678 1.017.594 2.464.654 3.747V73.17c0 .39-.002.78-.057 1.16-.057.378-.149.746-.271 1.065s-.272.592-.472.824a2.654 2.654 0 0 1-.715.576c-.27.153-.554.339-.865.339h-3.205V15.438h1.208M429.747 82.679h-21.398c-2.561-.081-4.542-.188-5.889-.313-1.109-.104-1.934-.477-2.565-1.178-.588-.59-.938-1.54-1.046-2.821-.127-1.505-.23-3.796-.313-6.783V20.113c0-2.498.082-4.492.245-5.927.142-1.25.579-2.192 1.366-2.913.689-.691 1.471-1.078 2.391-1.18 1.098-.122 3.085-.185 5.906-.185h21.303v14.871h9.966V.45h-33.769c-2.479 0-4.978.152-7.428.452-2.611.322-4.953 1.41-6.992 3.267-2.102 2.102-3.329 4.65-3.65 7.576-.298 2.721-.449 6.049-.449 9.893V73.11c0 3.428.152 6.335.453 8.642.323 2.499 1.422 4.7 3.265 6.54 1.84 1.843 4.101 2.962 6.722 3.329 2.444.344 5.592.518 9.351.518h32.626v-24.33h-10.094v14.87zM506.18 16.3a65.88 65.88 0 0 0-.193-5.16c-.135-1.718-.531-3.268-1.176-4.608-.66-1.364-1.656-2.554-2.963-3.535-1.298-.971-3.1-1.693-5.408-2.155a32.556 32.556 0 0 0-1.71-.198 81.298 81.298 0 0 0-1.997-.129 66.885 66.885 0 0 0-3.229-.064h-41.331v9.458h8.641V82.68h-8.641v9.458h28.522V82.68h-8.769V50.451h20.678c1.799 0 3.563-.043 5.24-.128 1.762-.087 3.396-.357 4.861-.803a10.008 10.008 0 0 0 4.068-2.394c1.165-1.123 2.082-2.667 2.729-4.612.359-1.171.585-2.487.676-3.914.084-1.38.084-3.208.002-5.397V16.3zm-10.73 3.6v11.482c0 2.177-.063 3.971-.188 5.334-.107 1.208-.422 2.15-.932 2.8-.484.618-1.316 1.057-2.473 1.304-1.317.282-3.27.426-5.803.426h-18.129V9.909h17.623c2.479 0 4.438.083 5.83.25 1.213.144 2.111.485 2.667 1.012.548.521.917 1.423 1.096 2.68.205 1.438.309 3.474.309 6.049zM556.834 67.809V82.68h-21.398c-2.56-.081-4.541-.188-5.889-.313-1.107-.104-1.935-.477-2.563-1.178-.588-.59-.94-1.54-1.047-2.822-.125-1.5-.231-3.79-.313-6.782V20.113c0-2.498.082-4.492.245-5.926.146-1.252.579-2.194 1.368-2.914.689-.692 1.472-1.078 2.389-1.18 1.098-.122 3.085-.185 5.906-.185h21.303v14.871h9.969V.45h-33.771c-2.478 0-4.976.152-7.426.452-2.613.322-4.955 1.41-6.994 3.267-2.101 2.102-3.328 4.65-3.648 7.575-.299 2.718-.451 6.047-.451 9.894V73.11c0 3.43.152 6.338.453 8.642.324 2.499 1.422 4.699 3.266 6.54 1.84 1.843 4.103 2.962 6.721 3.329 2.445.344 5.591.518 9.352.518h32.626v-24.33h-10.098z"/></svg>