<svg xmlns="http://www.w3.org/2000/svg" xml:space="preserve" width="566.926" height="179.318"><linearGradient id="a" x1="478.707" x2="478.707" y1="416.162" y2="513.925" gradientTransform="translate(-.09 -416.162)" gradientUnits="userSpaceOnUse"><stop offset="0" style="stop-color:#33438a"/><stop offset="1" style="stop-color:#0098df"/></linearGradient><path fill="url(#a)" d="M559.93 6.986v38.401H390.307v52.375h176.619v-6.985H397.297V52.375h169.629V0H390.307v6.986z"/><linearGradient id="b" x1="270.465" x2="270.465" y1="416.162" y2="513.925" gradientTransform="translate(-.09 -416.162)" gradientUnits="userSpaceOnUse"><stop offset="0" style="stop-color:#33438a"/><stop offset="1" style="stop-color:#0098df"/></linearGradient><path fill="url(#b)" d="M364.131 0v6.986h-90.093v90.776H176.62v-6.985h90.093V0z"/><linearGradient id="c" x1="88.399" x2="88.399" y1="416.162" y2="513.925" gradientTransform="translate(-.09 -416.162)" gradientUnits="userSpaceOnUse"><stop offset="0" style="stop-color:#33438a"/><stop offset="1" style="stop-color:#0098df"/></linearGradient><path fill="url(#c)" d="M6.986 97.762V52.375H176.62V0H0v6.873l169.639.113v38.401H0v52.375z"/><path fill="#1F1A17" d="M143.989 131.765v34.387h5.37v-31.087h4.972s3.604-.015 4.842 1.604c1.046 1.375 1.238 3.858 1.238 5.541 0 1.803-.11 4.575-.717 5.594-.915 1.551-2.41 1.859-3.791 1.859h-3.28v3.048h4.712s4.255.188 6.09-1.676c2.243-2.29 2.81-5.348 2.81-9.446 0-3.736-1.35-7.494-4.116-8.763-2.288-1.063-6.414-1.063-6.414-1.063l-11.716.002zM170.451 166.152h5.38v-34.387h-5.38zM204.365 139.775l9.821 25.743-5.636 13.8h4.455l16.228-39.543h-4.971l-7.071 19.274-6.583-19.274zM233.277 165.93v-3.242s5.674.221 6.853.221c2.623 0 3.927-.563 4.909-1.609.583-.627 1.111-3.439 1.111-4.433 0-1.008-.187-3.164-.579-4.039-.404-.868-1.316-1.675-2.692-1.786-.973-.09-2.494-.277-4.253-.364a6.89 6.89 0 0 1-4.91-2.336c-.776-.938-1.827-2.321-1.827-6.629 0-4.286 1.11-6.683 2.219-7.805 1.118-1.121 2.753-1.612 3.999-1.829 1.432-.254 3.791-.271 3.791-.271l7.516.225v3.245s-5.484-.211-6.661-.211c-2.623 0-3.408.552-4.39 1.604-.574.634-1.027 2.363-1.027 3.368 0 .988.117 3 .506 3.868.392.875 1.312 1.676 2.679 1.799.975.073 2.495.271 4.256.357 2.49.124 4.124 1.407 4.908 2.344.784.935 1.836 2.898 1.836 7.187s-1.118 7.354-2.229 8.458c-1.11 1.133-2.74 1.626-3.99 1.841-1.44.261-3.798.261-3.798.261l-8.227-.224zM262.552 135.065h-5.361v25.23s.129 2.3.257 3.104c.135.813 1.315 2.75 4.388 2.75l5.561-.12v-3.237s-1.514.113-2.418.113c-.921 0-2.041-.067-2.229-1.629-.199-1.543-.199-3.408-.199-3.408v-14.857h6.056v-3.236h-6.056l.001-4.71zM314.328 166.152h5.368v-26.377h-5.368zM314.328 136.551h5.368v-4.786h-5.368zM336.653 139.557c3.65 0 6.482.821 8.005 2.052 1.535 1.236 3.418 3.829 3.418 11.353 0 7.524-1.883 10.114-3.418 11.363-1.522 1.229-4.354 2.049-8.005 2.049-3.658 0-6.482-.82-8.01-2.049-1.527-1.249-3.414-3.839-3.414-11.363 0-7.521 1.887-10.114 3.414-11.353 1.527-1.229 4.352-2.052 8.01-2.052zm-3.672 5.058c-.741.905-1.637 2.824-1.637 8.346 0 5.538.896 7.44 1.637 8.345.729.901 2.083 1.515 3.838 1.515 1.764 0 3.111-.611 3.859-1.515.733-.902 1.636-2.807 1.636-8.345 0-5.521-.901-7.438-1.636-8.346-.748-.901-2.097-1.501-3.859-1.501-1.755 0-3.11.6-3.838 1.501zM359.197 143.49l5.255-.225c1.385 0 2.997.373 3.778 1.361.737.941 1.198 2.056 1.198 3.858v17.626h5.371v-18.065c0-3.419-1.049-5.396-2.627-6.644-2.254-1.789-6.279-1.629-6.279-1.629l-12.03.229v26.106h5.334V143.49zM303.66 135.065h-5.374v25.23s.127 2.3.26 3.104c.131.813 1.303 2.75 4.381 2.75l5.566-.12v-3.237s-1.509.113-2.424.113c-.907 0-2.029-.067-2.223-1.629-.188-1.543-.188-3.408-.188-3.408v-14.857h6.042v-3.236h-6.041v-4.71h.001zM196.182 148.487c0-1.803-.46-2.917-1.194-3.858-.787-.988-2.407-1.359-3.784-1.359l-7.079.223v-3.486l8.522-.229s4.03-.16 6.284 1.629c1.565 1.245 2.621 3.225 2.621 6.644v17.813l-10.288.221s-4.662.023-7.001-.935c-2.29-.93-3.537-3.485-3.537-7.021 0-3.415 1.052-5.411 2.622-6.659 2.255-1.783 6.275-1.61 6.275-1.61h3.288v3.048h-1.844c-1.375 0-2.795.253-3.577 1.236-.744.944-1.136 1.749-1.136 3.55 0 2.362.46 3.422 1.572 4.227.981.714 2.741.87 4.71.87l3.546-.22v-14.084zM286.663 148.487c0-1.803-.453-2.917-1.188-3.858-.793-.988-2.409-1.359-3.782-1.359l-7.072.223v-3.486l8.505-.229s4.032-.16 6.285 1.629c1.571 1.245 2.614 3.225 2.614 6.644v17.813l-10.272.221s-4.664.023-7.013-.935c-2.28-.93-3.534-3.485-3.534-7.021 0-3.415 1.058-5.411 2.619-6.659 2.257-1.783 6.288-1.61 6.288-1.61h3.278v3.048h-1.843c-1.367 0-2.801.253-3.58 1.236-.734.944-1.135 1.749-1.135 3.55 0 2.362.471 3.422 1.572 4.227.981.714 2.749.87 4.713.87l3.545-.22v-14.084zM422.934 136.211c.068 3.962-.125 6.048-1.457 8.031-1.174 1.742-3.498 3.331-8.635 3.331l-6.373-.189c-1.008.019-3.607.313-4.84 1.632-1.055 1.14-1.138 1.993-1.244 5.026v8.896h21.66v4.357h-23.678l-1.138-.007c-1.609 0-3.191-1.092-3.191-3.277v-6.636c.113-7.752.667-8.863 2.351-10.897 1.168-1.405 3.912-2.979 7.24-3.146.656-.029 1.885-.113 3.614-.066 1.259.056 2.519.092 3.071.102 2.951.03 4.025-.514 4.833-1.571.921-1.188 1.416-2.595 1.416-4.896 0-2.156-.44-4.188-1.263-5.131-.994-1.093-1.948-1.822-4.717-1.822-7.007-.019-15.182.167-15.182.167v-4.116s7.99-.34 16.139-.46c5.074-.087 7.872 1.262 9.295 3.118 1.503 1.932 2.032 3.761 2.099 7.554z"/></svg>