<svg xmlns="http://www.w3.org/2000/svg" xml:space="preserve" width="450" height="120"><path fill="#3e2d72" d="M436.96 82.68c.26-.18.52-.36.77-.54 6.75-5.01 10.32-12.35 10.32-21.21 0-7.19-1.92-13.07-5.72-17.48-3.55-4.12-9.13-7.38-17.05-9.98-2.39-.81-4.17-1.48-5.48-2.01-.59-.24-.08-.8.91-.8 2.31 0 4.45.32 6.37.75 1.94.44 3.84.98 5.65 1.81l9.35 4.28.95-10.24 1.18-12.72.52-5.65L439.38 7c-2.4-.85-5.23-1.56-8.65-2.17-3.36-.59-6.89-.89-10.51-.89-9.74 0-17.74 2.16-23.79 6.41V5.11H365.8v46.62c0 5.59-1.16 8.09-1.86 9.08-.32.47-1 1.43-3.96 1.43s-3.68-.97-4.02-1.44c-1.15-1.57-1.79-4.59-1.79-8.48V5.11h-30.63v4.86c-5.38-3.26-12.32-4.86-21.16-4.86h-33.42v37.14L254.3 5.11h-28.83l-21.75 56.15H188.9V5.11h-30.63v25.12C149.18 13.1 131.16 1.4 110.45 1.4 85.05 1.4 63.7 19 57.91 42.64c-3.57-3.74-8.92-6.74-16.31-9.17a102.7 102.7 0 0 1-5.53-2.03c-.56-.23-.32-.48-.32-.48s.29-.31 1.28-.31c2.32 0 4.46.33 6.37.76 1.97.44 3.82.96 5.67 1.8l9.35 4.27 2.63-28.6L55.7 7c-2.41-.86-5.24-1.56-8.65-2.17a60.88 60.88 0 0 0-10.5-.89c-10.04 0-18.23 2.29-24.35 6.8C5.5 15.7 1.96 23.01 1.96 31.87c0 7.69 2.38 13.8 7.07 18.16 3.99 3.7 9.59 6.68 17.12 9.12 3.72 1.24 5.95 2.23 5.8 2.6-.15.38-1.57.59-3.04.59-2.75 0-6.63-.57-10.32-1.94-3.69-1.37-13.3-8.62-13.3-8.62L2.32 84.03l5.75 1.7c1.79.53 3.88 1.05 6.33 1.57L2.13 118.97h17.88l2.08-5.57h2.45l2.03 5.57h41V86.16h12.72l-.01.02-12.69 32.79h17.88l2.07-5.57H90l2.04 5.57h47.68v-9.45c1.84-.23 3.51-.71 5.01-1.43 1.15 3.02 2.89 5.12 4.46 6.5 3.6 3.19 8.43 4.81 14.37 4.81 1.99 0 4.01-.19 6-.55 1.91-.35 3.32-.68 4.45-1.03l3.86-1.19V87.96l8.5-.01c-2.42 2.45-4.89 6.52-4.89 12.9 0 7.19 3.11 11.45 5.72 13.75 3.6 3.19 8.43 4.81 14.37 4.81 1.74 0 3.5-.15 5.23-.43H223l2.07-5.57h2.45l2.04 5.57h70.71V82.69h-.67V63.27l7.03 19.41h-2.18v36.29h54.61v-3.52c3.48 2.61 7.93 3.95 13.29 3.95 2.01 0 4.03-.19 6-.55.91-.17 1.71-.33 2.42-.49v.62h66.37v-36.3h-10.18z"/><g fill="#FFF"><path d="m323.51 61.52-.4-.88c-.97-2.67-2.13-5.44-3.47-8.31-1.34-2.87-3.44-4.7-6.31-5.48 4.76-.98 8.25-3 10.46-6.06 2.21-3.07 3.33-6.46 3.33-10.18 0-6.2-2.12-10.78-6.35-13.75-4.25-2.97-10.38-4.45-18.39-4.45h-26.13V80.6h16.05V52.91h4.89c2.68 0 4.73.83 6.16 2.5 1.43 1.66 2.58 3.77 3.42 6.31l6.85 18.88h17.21l-7.32-19.08zm-15.86-22.46c-2.09 1.41-4.95 2.11-8.6 2.11h-6.75V24.14h6.26c4.04 0 7.09.67 9.14 2 2.05 1.34 3.09 3.51 3.09 6.51 0 2.88-1.05 5.01-3.14 6.41zM53.12 48.21c-2.64-3.07-7.26-5.67-13.84-7.83-5.94-2.02-9.68-3.65-11.21-4.89-1.53-1.24-2.29-2.74-2.29-4.5 0-2.54 1-4.45 3.03-5.72 2.02-1.27 4.76-1.91 8.22-1.91 2.87 0 5.53.28 7.98.83 2.45.55 4.81 1.35 7.09 2.4l1.17-12.72c-2.02-.72-4.51-1.33-7.48-1.86-2.96-.52-6.05-.78-9.24-.78-8.49 0-15.16 1.79-20.02 5.38-4.86 3.59-7.28 8.67-7.28 15.26 0 5.61 1.58 9.88 4.74 12.82 3.16 2.93 7.97 5.45 14.43 7.53 4.89 1.63 8.15 3.21 9.78 4.74 1.63 1.53 2.45 3.21 2.45 5.04 0 2.34-1.1 4.2-3.28 5.57-2.19 1.37-5.01 2.05-8.46 2.05-3.53 0-7.05-.57-10.57-1.71-3.52-1.14-5.84-2.1-6.95-2.89l-1.27 13.7c2.21.65 5.08 1.32 8.61 2.01 3.52.68 7.21 1.03 11.06 1.03 8.34 0 14.98-1.82 19.9-5.48 4.92-3.65 7.39-8.77 7.39-15.36.01-5.41-1.31-9.64-3.96-12.71zM436.8 48.21c-2.64-3.07-7.26-5.67-13.84-7.83-5.94-2.02-9.68-3.65-11.21-4.89-1.53-1.24-2.29-2.74-2.29-4.5 0-2.54 1-4.45 3.03-5.72 2.02-1.27 4.76-1.91 8.22-1.91 2.87 0 5.53.28 7.98.83 2.45.55 4.81 1.35 7.09 2.4l1.18-12.72c-2.02-.72-4.52-1.33-7.48-1.86-2.96-.52-6.05-.78-9.24-.78-8.49 0-15.16 1.79-20.01 5.38-4.86 3.59-7.29 8.67-7.29 15.26 0 5.61 1.59 9.88 4.75 12.82 3.17 2.93 7.98 5.45 14.44 7.53 4.89 1.63 8.15 3.21 9.78 4.74 1.62 1.53 2.45 3.21 2.45 5.04 0 2.34-1.1 4.2-3.28 5.57-2.2 1.37-5.02 2.05-8.47 2.05-3.52 0-7.04-.57-10.56-1.71-3.52-1.14-5.84-2.1-6.96-2.89l-1.26 13.7c2.21.65 5.08 1.32 8.6 2.01 3.52.68 7.21 1.03 11.07 1.03 8.34 0 14.98-1.82 19.9-5.48 4.92-3.65 7.37-8.77 7.37-15.36-.02-5.41-1.32-9.64-3.97-12.71z"/><path d="M249.34 12.41h-18.87l-21.75 56.15h-27.1V12.41h-16.05V80.6h54.92l5.57-14.97h27.11l5.48 14.97h17.61l-26.92-68.19zm-19.07 41.38 9.58-27.69 9.2 27.69h-18.78zM373.1 12.41v39.33c0 5.81-1.05 10.22-3.17 13.26-2.12 3.03-5.43 4.55-9.94 4.55-4.44 0-7.72-1.47-9.89-4.4-2.15-2.93-3.22-7.21-3.22-12.81V12.41h-16.05v42.95c0 8.68 2.52 15.25 7.53 19.71 5.03 4.47 12.26 6.7 21.72 6.7 9.65 0 16.91-2.32 21.77-6.94 4.86-4.63 7.29-11.61 7.29-20.94V12.41H373.1z"/></g><g fill="#FFF"><path d="M143.88 90.09c-1.79-1.29-4.39-1.94-7.81-1.94h-7.79v25.35h5.96v-9.28h2.69c3.03 0 5.4-.7 7.09-2.12 1.7-1.42 2.55-3.44 2.55-6.05.01-2.67-.89-4.65-2.69-5.96zm-4.45 8.79c-.76.65-1.81.97-3.14.97l-2.04-.06v-7.28h2.04c1.31 0 2.35.32 3.13.94.78.64 1.16 1.53 1.16 2.66 0 1.2-.38 2.12-1.15 2.77zM85.38 88.15l-9.81 25.35h6.1l2.07-5.57h10.08l2.04 5.57h6.54l-10-25.35h-7.02zm-.08 15.38 3.57-10.29 3.42 10.29H85.3zM19.93 88.15l-9.82 25.35h6.1l2.08-5.57h10.08l2.03 5.57h6.54l-10-25.35h-7.01zm-.07 15.38 3.56-10.29 3.42 10.29h-6.98zM122.39 106.08c-.36-.99-.79-2.02-1.29-3.09-.49-1.07-1.28-1.75-2.35-2.04 1.78-.37 3.07-1.11 3.9-2.26.81-1.13 1.23-2.39 1.23-3.77 0-2.31-.78-4.01-2.36-5.11-1.58-1.1-3.86-1.66-6.84-1.66h-9.71v25.35h5.96v-10.3h1.81c.99 0 1.77.32 2.29.94.53.6.96 1.4 1.28 2.34l2.55 7.02h6.39l-2.71-7.09-.15-.33zm-5.75-8.02c-.77.53-1.84.78-3.2.78h-2.5v-6.32h2.32c1.51 0 2.64.25 3.42.75.76.49 1.14 1.31 1.14 2.42 0 1.06-.4 1.86-1.18 2.37zM56.51 106.22l-9.28-18.07h-7.41v25.35h5.6V95.57l9.24 17.53.21.4h7.23V88.15h-5.59zM162.07 103.31h4.59v5.6c-.35.13-.75.24-1.22.33-.48.1-1.06.14-1.76.14-2.57 0-4.65-.78-6.22-2.33-1.58-1.56-2.38-3.61-2.38-6.19 0-2.66.88-4.76 2.59-6.31 1.73-1.53 4.06-2.31 7.02-2.31 1.19 0 2.36.13 3.49.38 1.15.26 2.18.64 3.14 1.15l.4-4.65v-.25c-.92-.37-2.04-.65-3.34-.86-1.3-.21-2.78-.3-4.45-.3-4.68 0-8.35 1.15-11 3.44-2.65 2.28-3.98 5.51-3.98 9.68 0 4.14 1.29 7.37 3.87 9.65 2.59 2.29 6.17 3.44 10.75 3.44 1.7 0 3.37-.16 5.01-.46 1.63-.3 2.91-.59 3.84-.88V98.92h-10.33v4.39zM370.85 103.31h4.59v5.6c-.34.13-.73.24-1.21.33-.48.1-1.07.14-1.77.14-2.56 0-4.65-.78-6.21-2.33-1.58-1.56-2.37-3.61-2.37-6.19 0-2.66.86-4.76 2.58-6.31 1.72-1.53 4.06-2.31 7.02-2.31 1.19 0 2.36.13 3.49.38 1.15.26 2.18.64 3.14 1.15l.38-4.65v-.25c-.91-.37-2.02-.65-3.31-.86-1.31-.21-2.79-.3-4.46-.3-4.68 0-8.34 1.15-11 3.44-2.66 2.28-3.98 5.51-3.98 9.68 0 4.14 1.29 7.37 3.87 9.65 2.6 2.29 6.18 3.44 10.75 3.44 1.69 0 3.38-.16 5-.46 1.64-.3 2.91-.59 3.84-.88V98.92h-10.33v4.39zM386.24 88.15h5.97v25.35h-5.97zM200.07 103.31h4.57v5.6c-.34.13-.74.24-1.21.33-.48.1-1.07.14-1.76.14-2.58 0-4.66-.78-6.23-2.33-1.58-1.56-2.36-3.61-2.36-6.19 0-2.66.86-4.76 2.58-6.31 1.73-1.53 4.06-2.31 7.02-2.31 1.19 0 2.35.13 3.49.38 1.14.26 2.18.64 3.13 1.15l.4-4.65v-.25c-.92-.37-2.03-.65-3.33-.86-1.3-.21-2.78-.3-4.45-.3-4.68 0-8.34 1.15-11 3.44-2.65 2.28-3.99 5.51-3.99 9.68 0 4.14 1.29 7.37 3.87 9.65 2.59 2.29 6.17 3.44 10.75 3.44 1.7 0 3.37-.16 5-.46 1.64-.3 2.91-.59 3.84-.88V98.92h-10.32v4.39zM347.99 106.22l-9.27-18.07h-7.42v25.35h5.59V95.57l9.24 17.53.23.4h7.23V88.15h-5.6zM414.09 106.22l-9.27-18.07h-7.41v25.35H403V95.57l9.24 17.53.22.4h7.23V88.15h-5.6zM430.84 109.09v-6.43h9.84V98.3h-9.84v-5.78h10.62v-4.37h-16.59v25.35h16.79v-4.41zM257.88 105.83l-5.89-17.68h-9.24v25.35h5.78l-.08-20.14 6.67 19.74h5.31l6.8-19.71-.07 20.11h5.73V88.15h-8.98zM222.89 88.15l-9.81 25.35h6.11l2.07-5.57h10.08l2.04 5.57h6.54l-10-25.35h-7.03zm-.06 15.38 3.57-10.29 3.41 10.29h-6.98zM283.96 102.66h9.84V98.3h-9.84v-5.78h10.62v-4.37h-16.59v25.35h16.8v-4.41h-10.83zM315.89 102.66h9.85V98.3h-9.85v-5.78h10.6v-4.37h-16.57v25.35h16.8v-4.41h-10.83z"/></g><path fill="#FFBC00" d="M110.45 6.87c-26.86 0-48.64 21.77-48.64 48.64 0 9.23 2.61 17.73 7.08 25.09h2.79c9.46-9.46 31.04-30.95 36.9-36.82 3.38 3.38 8.01-1.17 9.35-2.65-.73-.72-1.51-1.51-2.32-2.32-3.21-3.2-5.97 1.7-5.97 1.7l-7.03-7.04s10.97-5 16.93.96l4.47 4.47 8.17-8.17c-.78-2.15-.33-4.64 1.39-6.37 2.37-2.37 6.21-2.37 8.57 0a6.036 6.036 0 0 1 0 8.57 6.018 6.018 0 0 1-6.31 1.4l-8.19 8.18c.93.94 2.32 2.33 4.44 4.45 5.98 5.97.96 16.94.96 16.94l-7.03-7.04s4.89-2.76 1.69-5.96l-2.32-2.32c-1.48 1.35-6.03 5.98-2.65 9.35-3.68 3.68-13.55 13.46-22.74 22.65h51.98c4.47-7.36 7.08-15.86 7.08-25.09.04-26.85-21.73-48.62-48.6-48.62z"/></svg>