<svg xmlns="http://www.w3.org/2000/svg" viewBox="0 0 845.512 213.201"><text fill="red" font-family="ArialMT" font-size="2" transform="translate(568.343 171.98)">I don’t like bugs!</text><g fill="#040404"><path d="M342.455 152.604c1.287 4.1 2.459 7.377 3.513 9.836s2.75 4.451 5.094 5.972c1.639 1.172 3.132 1.844 4.479 2.02 1.346.176 2.021.791 2.021 1.845 0 1.641-1.229 2.459-3.688 2.459-1.523 0-3.485-.176-5.884-.527-2.401-.351-5.357-.526-8.87-.526-4.918 0-8.87.147-11.856.438-2.985.294-5.065.439-6.235.439-1.992 0-2.985-.702-2.985-2.107 0-1.872 1.169-2.811 3.513-2.811 2.926 0 4.857-.291 5.796-.878.937-.585 1.405-1.696 1.405-3.338 0-1.52-.526-4.154-1.581-7.903l-6.85-22.482c-.236-.936-1.114-1.405-2.635-1.405h-21.779c-.352 0-.733.148-1.142.439-.396.27-.678.677-.791 1.142l-4.215 15.632c-1.757 6.91-2.635 11.417-2.635 13.524 0 1.757.352 2.929 1.054 3.513.702.588 1.872.997 3.513 1.229 2.341.352 4.098.764 5.27 1.229 1.169.47 1.757 1.348 1.757 2.635 0 1.405-.997 2.108-2.986 2.108-1.29 0-3.222-.176-5.796-.527-2.577-.352-5.739-.527-9.485-.527-2.577 0-4.83.148-6.762.439-1.933.291-3.54.439-4.83.439-2.108 0-3.162-.761-3.162-2.283 0-.937.294-1.551.879-1.845.587-.291 1.316-.497 2.195-.614.936-.122 1.873-.24 2.81-.352.994-.115 1.96-.527 2.898-1.229 1.639-1.169 2.868-2.838 3.688-5.006.818-2.165 1.696-4.83 2.635-7.992l27.927-90.631c.467-1.287.849-2.311 1.142-3.074.291-.76.906-1.142 1.845-1.142 1.287 0 2.107.763 2.459 2.283.352 1.523.936 3.514 1.757 5.973l26.517 83.605zm-36.183-60.948c-.469 0-.82.47-1.054 1.405l-8.255 31.089a5.158 5.158 0 0 0-.176 1.229v.526c0 .703.409 1.055 1.229 1.055h17.564c.352 0 .702-.146 1.054-.439.352-.291.527-.615.527-.966 0-.233-.118-.818-.352-1.757l-9.484-30.562c-.35-1.052-.701-1.58-1.053-1.58z"/><path d="M375.827 105.884c0 .82.176 1.229.527 1.229s.817-.291 1.405-.879l1.756-2.107c3.044-3.513 6.147-6.06 9.31-7.641 3.161-1.58 6.613-2.371 10.362-2.371 3.864 0 7.553.938 11.065 2.811 3.513 1.874 6.557 4.509 9.134 7.903 2.574 3.398 4.624 7.553 6.147 12.471 1.521 4.918 2.283 10.363 2.283 16.335 0 6.56-.884 12.531-2.646 17.916-1.762 5.387-4.229 10.041-7.401 13.963-3.173 3.925-6.93 6.969-11.277 9.134-4.347 2.165-9.166 3.249-14.452 3.249-5.521 0-10.635-1.348-15.333-4.039l-.705.526-.173 24.941c0 2.107.173 3.688.524 4.742.351 1.054 1.229 1.872 2.635 2.459 1.169.585 2.311.936 3.425 1.054 1.111.115 2.047.233 2.81.352.761.115 1.375.352 1.845.702.467.352.702 1.055.702 2.108 0 1.638-1.229 2.459-3.688 2.459-2.344 0-4.824-.176-7.445-.527-2.624-.352-5.437-.526-8.444-.526s-5.679.175-8.011.526c-2.333.352-4.32.527-5.958.527-2.108 0-3.162-.938-3.162-2.811 0-1.642.643-2.459 1.933-2.459 1.287 0 2.81-.352 4.566-1.054 1.521-.588 2.547-1.405 3.073-2.459.527-1.054.791-2.753.791-5.094v-79.391c0-3.161-.412-5.269-1.229-6.323-.821-1.054-1.729-1.726-2.723-2.02-.996-.291-1.904-.467-2.723-.527-.82-.058-1.229-.672-1.229-1.844 0-1.405.906-2.429 2.723-3.074 1.814-.642 4.067-1.901 6.762-3.776 3.396-2.341 5.854-4.391 7.377-6.147 1.521-1.756 2.75-2.634 3.689-2.634 1.169 0 1.756 1.229 1.756 3.688v8.608h-.001zm3.881 63.033c2.47 2.709 5.941 4.062 10.412 4.062 3.411 0 6.529-.823 9.353-2.47 2.824-1.646 5.267-3.974 7.325-6.977 2.059-3.002 3.645-6.592 4.765-10.771 1.116-4.177 1.677-8.738 1.677-13.684 0-10.476-2.207-18.597-6.62-24.365s-9.97-8.653-16.675-8.653c-4.942 0-8.502 1.444-10.679 4.328-2.176 2.885-3.263 7.268-3.263 13.151v32.843c.001 5.65 1.236 9.83 3.705 12.536zm76.036-63.033c0 .82.176 1.229.527 1.229s.817-.291 1.405-.879l1.756-2.107c3.044-3.513 6.147-6.06 9.31-7.641 3.161-1.58 6.613-2.371 10.362-2.371 3.864 0 7.553.938 11.065 2.811 3.513 1.874 6.557 4.509 9.134 7.903 2.574 3.398 4.624 7.553 6.147 12.471 1.521 4.918 2.283 10.363 2.283 16.335 0 6.56-.884 12.531-2.646 17.916-1.762 5.387-4.229 10.041-7.401 13.963-3.173 3.925-6.93 6.969-11.277 9.134-4.347 2.165-9.166 3.249-14.452 3.249-5.521 0-10.635-1.348-15.333-4.039l-.705.526-.173 24.941c0 2.107.173 3.688.524 4.742.351 1.054 1.229 1.872 2.635 2.459 1.169.585 2.311.936 3.425 1.054 1.111.115 2.047.233 2.81.352.761.115 1.375.352 1.845.702.467.352.702 1.055.702 2.108 0 1.638-1.229 2.459-3.688 2.459-2.344 0-4.824-.176-7.445-.527-2.624-.352-5.437-.526-8.444-.526s-5.679.175-8.011.526c-2.333.352-4.32.527-5.958.527-2.108 0-3.162-.938-3.162-2.811 0-1.642.643-2.459 1.933-2.459 1.287 0 2.81-.352 4.566-1.054 1.521-.588 2.547-1.405 3.073-2.459.527-1.054.791-2.753.791-5.094v-79.391c0-3.161-.412-5.269-1.229-6.323-.821-1.054-1.729-1.726-2.723-2.02-.996-.291-1.904-.467-2.723-.527-.82-.058-1.229-.672-1.229-1.844 0-1.405.906-2.429 2.723-3.074 1.814-.642 4.067-1.901 6.762-3.776 3.396-2.341 5.854-4.391 7.377-6.147 1.521-1.756 2.75-2.634 3.689-2.634 1.169 0 1.756 1.229 1.756 3.688v8.608h-.001zm3.881 63.033c2.47 2.709 5.941 4.062 10.412 4.062 3.411 0 6.529-.823 9.353-2.47 2.824-1.646 5.267-3.974 7.325-6.977 2.059-3.002 3.645-6.592 4.765-10.771 1.116-4.177 1.677-8.738 1.677-13.684 0-10.476-2.207-18.597-6.62-24.365s-9.97-8.653-16.675-8.653c-4.942 0-8.502 1.444-10.679 4.328-2.176 2.885-3.263 7.268-3.263 13.151v32.843c.001 5.65 1.236 9.83 3.705 12.536zm75.859-7.706c0 3.864 1.111 6.323 3.338 7.377.936.469 1.871.732 2.81.79.937.061 1.784.148 2.547.264.761.118 1.375.382 1.845.79.466.412.702 1.142.702 2.196 0 1.641-1.172 2.459-3.513 2.459-1.992 0-4.271-.176-6.834-.527-2.563-.352-5.291-.527-8.184-.527-3.008 0-5.708.176-8.096.527-2.391.352-4.405.527-6.043.527-2.108 0-3.162-.937-3.162-2.811 0-1.639.585-2.459 1.757-2.459 1.287 0 2.867-.352 4.742-1.054 1.639-.585 2.635-1.375 2.985-2.371.352-.994.527-2.371.527-4.128V70.93c0-1.521-.382-2.635-1.142-3.337a7.591 7.591 0 0 0-2.635-1.581 31.175 31.175 0 0 1-2.635-1.054c-.763-.352-1.142-.878-1.142-1.581 0-1.287.791-2.135 2.371-2.547 1.581-.409 3.423-1.023 5.527-1.844 4.051-1.521 7.028-2.956 8.938-4.304 1.91-1.345 3.153-2.02 3.732-2.02.925 0 1.504.293 1.737.878.233.587.352 1.405.352 2.459 0 1.523-.088 3.279-.264 5.27-.176 1.992-.264 4.215-.264 6.674v93.268h.004zm30.563-36.183c-.938 0-1.522.176-1.756.527-.236.351-.352 1.114-.352 2.283v4.215c0 10.891 2.311 19.497 6.938 25.82 4.625 6.322 10.627 9.484 18.004 9.484 3.276 0 6.117-.527 8.519-1.581 2.398-1.054 4.391-2.223 5.972-3.513 1.581-1.287 2.811-2.459 3.688-3.513.877-1.054 1.493-1.581 1.845-1.581.936 0 1.404.646 1.404 1.933 0 1.289-.702 2.985-2.107 5.093-1.405 2.108-3.425 4.188-6.06 6.235-2.635 2.051-5.769 3.837-9.396 5.357-3.631 1.521-7.729 2.283-12.295 2.283-4.803 0-9.164-.966-13.086-2.897-3.924-1.933-7.289-4.713-10.1-8.344-2.81-3.628-4.978-8.019-6.498-13.173-1.523-5.151-2.283-10.947-2.283-17.389 0-6.438.848-12.265 2.547-17.477 1.695-5.209 4.066-9.63 7.113-13.261 3.043-3.628 6.644-6.438 10.802-8.431 4.155-1.99 8.694-2.986 13.612-2.986 4.216 0 8.079.733 11.593 2.195 3.513 1.466 6.498 3.426 8.957 5.885 2.459 2.459 4.361 5.329 5.709 8.606 1.345 3.279 2.02 6.792 2.02 10.538 0 1.523-.469 2.52-1.405 2.986-.938.469-2.459.702-4.566.702h-38.819v.004zm25.38-7.377c2.635-1.287 3.952-3.864 3.952-7.729 0-2.925-1.202-5.62-3.601-8.079-2.401-2.459-5.476-3.688-9.222-3.688-4.101 0-7.671 1.581-10.714 4.742-3.047 3.161-5.036 7.144-5.973 11.943l-.526 2.811v.352c0 1.054.702 1.581 2.107 1.581h11.417c5.736 0 9.925-.643 12.56-1.933z"/></g><path fill="#040404" d="M764.613 145.582c0-2.209-.19-3.653-.571-4.334-.381-.679-1.419-1.232-3.112-1.657a21.709 21.709 0 0 0-2.476-.317 19.625 19.625 0 0 1-1.905-.19c-.552-.083-.975-.232-1.271-.444-.297-.21-.444-.613-.444-1.206 0-1.186.719-1.778 2.159-1.778.846 0 2.35.171 4.509.508 2.159.34 5.058.508 8.699.508 4.064 0 7.153-.168 9.271-.508 2.116-.337 3.471-.508 4.064-.508 1.271 0 1.905.552 1.905 1.651 0 .593-.149 1.016-.444 1.27-.298.254-.679.425-1.144.508-.546.095-1.097.159-1.65.19-.636.044-1.334.149-2.096.317-1.524.34-2.477.869-2.857 1.588-.381.721-.572 2.181-.572 4.382v19.304c0 1.948-.656 3.746-1.968 5.397-1.313 1.651-3.111 3.048-5.397 4.191s-4.934 2.031-7.937 2.667c-3.007.635-6.203.952-9.589.952-5.251 0-10.097-1.016-14.541-3.048-4.445-2.032-8.256-4.846-11.431-8.445-3.175-3.598-5.651-7.895-7.43-12.891-1.777-4.995-2.667-10.456-2.667-16.383 0-6.351.994-12.213 2.985-17.59 1.988-5.376 4.719-10.012 8.191-13.907 3.471-3.893 7.619-6.941 12.445-9.144 4.826-2.201 10.075-3.302 15.748-3.302 2.286 0 4.445.154 6.478.462 2.031.308 3.873.702 5.524 1.185 1.65.484 3.048 1.008 4.19 1.572 1.144.563 1.925 1.099 2.35 1.606 1.017 1.017 1.524 5.124 1.524 12.319 0 2.371-.552 3.556-1.651 3.556-.933 0-1.587-.571-1.969-1.714-.381-1.144-.91-2.56-1.587-4.255-2.965-7.449-8.172-11.176-15.621-11.176-3.642 0-7.007.952-10.097 2.857-3.092 1.905-5.778 4.616-8.064 8.128-2.286 3.515-4.063 7.747-5.334 12.7-1.27 4.953-1.905 10.478-1.905 16.573 0 5.674.655 10.796 1.969 15.367 1.312 4.572 3.09 8.489 5.334 11.748 2.242 3.26 4.868 5.778 7.874 7.557 3.005 1.777 6.201 2.667 9.589 2.667 2.454 0 4.401-.34 5.842-1.021 1.438-.679 2.54-1.635 3.302-2.867s1.248-2.699 1.461-4.397c.21-1.698.317-3.568.317-5.607v-15.041zm40.322-39.116c1.058-2.715 2.56-5.046 4.509-6.997 1.946-1.948 4.296-3.455 7.048-4.515 2.751-1.06 5.862-1.591 9.335-1.591 3.556 0 6.709.502 9.461 1.504 2.751 1.004 4.424 1.899 5.017 2.687.677.848 1.017 5.461 1.017 13.843 0 1.778-.552 2.667-1.651 2.667-.933 0-1.546-.571-1.842-1.714-.297-1.144-.91-2.814-1.841-5.017-1.355-3.386-2.838-5.969-4.445-7.747-1.609-1.778-3.896-2.667-6.858-2.667-3.81 0-6.794 1.161-8.953 3.482-2.159 2.322-3.238 5.507-3.238 9.557 0 3.378.952 6.12 2.857 8.229 1.905 2.111 4.89 4.221 8.953 6.33 3.386 1.774 6.392 3.546 9.018 5.318 2.623 1.774 4.846 3.736 6.667 5.888a22.619 22.619 0 0 1 4.128 7.28c.931 2.701 1.396 5.824 1.396 9.368 0 3.715-.615 7.132-1.841 10.256-1.229 3.123-2.922 5.824-5.08 8.103-2.159 2.277-4.743 4.071-7.747 5.379-3.007 1.308-6.287 1.963-9.843 1.963-5.588 0-10.118-.889-13.589-2.667-3.473-1.778-5.207-4.486-5.207-8.128 0-1.438.042-2.836.127-4.191.083-1.354.127-2.623.127-3.81 0-.931-.021-1.671-.063-2.223-.044-.55-.063-.909-.063-1.079 0-2.624.635-3.938 1.905-3.938.591 0 1.016.234 1.27.698.254.467.444 1.102.571 1.905.127.806.274 1.758.445 2.857.168 1.102.422 2.244.762 3.429 1.27 4.318 3.321 7.664 6.159 10.033 2.836 2.371 5.862 3.557 9.081 3.557 1.861 0 3.639-.382 5.334-1.146a13.096 13.096 0 0 0 4.381-3.179c1.227-1.357 2.201-2.969 2.921-4.834.719-1.865 1.08-3.899 1.08-6.106 0-3.9-1.207-7.397-3.62-10.493-2.413-3.096-6.032-5.999-10.858-8.713a293.836 293.836 0 0 1-7.175-4.197c-2.245-1.357-4.191-2.925-5.843-4.707-1.65-1.78-2.964-3.899-3.937-6.36-.975-2.458-1.461-5.554-1.461-9.286-.002-3.306.526-6.313 1.586-9.028z"/><g fill="#040404"><path d="M665.826 161.561c0 1.875.027 3.397.088 4.567.058 1.172.233 2.138.527 2.897a3.964 3.964 0 0 0 1.405 1.845c.642.469 1.55.878 2.722 1.229 1.055.352 2.048.526 2.986.526.936 0 1.757.061 2.459.176.702.118 1.257.382 1.669.791.408.411.614 1.084.614 2.02 0 1.642-1.229 2.459-3.688 2.459-1.054 0-2.958-.176-5.708-.527-2.753-.351-6.411-.526-10.978-.526s-8.229.176-10.978.526c-2.753.352-4.655.527-5.709.527-2.459 0-3.688-.936-3.688-2.811 0-.817.203-1.405.615-1.756.408-.352.936-.585 1.58-.703a12.52 12.52 0 0 1 2.196-.176c.817 0 1.638-.115 2.459-.351 1.404-.352 2.486-.761 3.249-1.229.76-.467 1.317-1.082 1.669-1.845.351-.76.554-1.756.614-2.985.058-1.229.088-2.78.088-4.655V81.118c0-2.811-.206-4.712-.614-5.709-.412-.993-1.493-1.783-3.25-2.371-1.172-.351-2.283-.526-3.337-.526-.938 0-1.787-.058-2.547-.176-.763-.115-1.348-.321-1.757-.615-.411-.29-.614-.905-.614-1.844 0-1.639.878-2.459 2.635-2.459.936 0 2.81.236 5.62.702 2.811.47 6.732.703 11.769.703 5.033 0 8.957-.233 11.768-.703 2.811-.466 4.682-.702 5.621-.702 1.756 0 2.634.82 2.634 2.459 0 .82-.175 1.378-.526 1.669-.352.293-.878.499-1.581.614-.702.118-1.523.206-2.459.264-.938.061-1.932.206-2.985.438-2.227.47-3.544 1.26-3.952 2.372-.412 1.114-.615 3.073-.615 5.884l-.001 80.443z"/><path d="M703.06 161.561c0 1.875.027 3.397.088 4.567.058 1.172.233 2.138.527 2.897a3.964 3.964 0 0 0 1.405 1.845c.642.469 1.55.878 2.722 1.229 1.055.352 2.048.526 2.986.526.936 0 1.757.061 2.459.176.702.118 1.257.382 1.669.791.408.411.614 1.084.614 2.02 0 1.642-1.229 2.459-3.688 2.459-1.054 0-2.958-.176-5.708-.527-2.753-.351-6.411-.526-10.978-.526s-8.229.176-10.978.526c-2.753.352-4.655.527-5.709.527-2.459 0-3.688-.936-3.688-2.811 0-.817.203-1.405.615-1.756.408-.352.936-.585 1.58-.703a12.52 12.52 0 0 1 2.196-.176c.817 0 1.638-.115 2.459-.351 1.404-.352 2.486-.761 3.249-1.229.76-.467 1.317-1.082 1.669-1.845.351-.76.554-1.756.614-2.985.058-1.229.088-2.78.088-4.655V81.118c0-2.811-.206-4.712-.614-5.709-.412-.993-1.493-1.783-3.25-2.371-1.172-.351-2.283-.526-3.337-.526-.938 0-1.787-.058-2.547-.176-.763-.115-1.348-.321-1.757-.615-.411-.29-.614-.905-.614-1.844 0-1.639.878-2.459 2.635-2.459.936 0 2.81.236 5.62.702 2.811.47 6.732.703 11.769.703 5.033 0 8.957-.233 11.768-.703 2.811-.466 4.682-.702 5.621-.702 1.756 0 2.634.82 2.634 2.459 0 .82-.175 1.378-.526 1.669-.352.293-.878.499-1.581.614-.702.118-1.523.206-2.459.264-.938.061-1.932.206-2.985.438-2.227.47-3.544 1.26-3.952 2.372-.412 1.114-.615 3.073-.615 5.884l-.001 80.443z"/></g><path fill="#61bb46" stroke="#61bb46" stroke-miterlimit="2.613" stroke-width="1.155" d="M9.868 76.928c.063-.105.131-.208.198-.309 10.862-16.794 27.996-26.623 44.109-26.623 16.407 0 26.721 9.032 40.283 9.032 13.159 0 21.174-9.045 40.143-9.045 14.332 0 29.527 7.837 40.35 21.388a48.623 48.623 0 0 0-8.105 5.568L9.868 76.928z"/><path fill="#61bb46" stroke="#61bb46" stroke-miterlimit="2.613" stroke-width="1.155" d="M120.212 34.851c6.885-8.88 12.122-21.418 10.224-34.238-11.257.775-24.424 7.972-32.115 17.341-6.978 8.511-12.74 21.134-10.497 33.395 12.291.384 25.005-6.985 32.388-16.498z"/><path fill="#fdb827" d="M9.308 76.68C4.63 84.039 1.394 94.587.535 103.839l151.755-.004c1.641-10.122 7.097-19.792 15.744-27.144L9.308 76.68h.009-.009z"/><path fill="#f5821f" stroke="#f5821f" stroke-miterlimit="2.613" stroke-width="1.155" d="M1.912 130.756c-1.475-9.449-1.713-18.559-.787-26.917l150.573-.004c-1.473 9.064-.237 18.496 3.488 26.927l-153.274-.006z"/><path fill="#e03a3e" stroke="#e03a3e" stroke-miterlimit="2.613" stroke-width="1.155" d="M9.271 157.672c-3.556-9.043-5.99-18.125-7.359-26.915l153.275.006c4.745 10.743 13.526 19.87 25.891 24.56-.367.82-.722 1.605-1.063 2.361l-170.744-.012z"/><path fill="#963d97" stroke="#963d97" stroke-miterlimit="2.613" stroke-width="1.155" d="M180.016 157.683c-4.245 9.372-6.706 14.237-12.581 23.216a226.609 226.609 0 0 1-2.457 3.684l-141.48.013c-.453-.678-.902-1.355-1.344-2.028a137.444 137.444 0 0 1-12.881-24.897l170.743.012z"/><path fill="#009ddc" stroke="#009ddc" stroke-miterlimit="2.613" stroke-width="1.155" d="M164.977 184.583c-8.655 12.731-20.274 26.741-34.373 26.874-13.758.125-17.287-8.99-35.952-8.888-18.665.105-22.562 9.047-36.319 8.918-14.709-.137-26.13-13.896-34.837-26.891l141.481-.013z"/></svg>