<svg xmlns="http://www.w3.org/2000/svg" width="1758.6" height="493.2"><path d="M206.186 350.33h1346.09c39.44 0 71.414 31.974 71.414 71.414s-31.974 71.367-71.368 71.367H206.186c-39.44 0-71.367-31.973-71.367-71.367.045-39.44 31.973-71.414 71.367-71.414z" class="st0" style="clip-rule:evenodd;fill:#034ea2;fill-rule:evenodd;stroke-width:.458072"/><g style="fill:#fdfdfd;fill-opacity:1"><path d="M907.1 849.5h60.8c35.9 0 59 18.4 59 49.9v.4c0 33.5-25.7 51.1-61 51.1h-19.5v40.6h-39.3zm58 70.6c14 0 22.5-7.3 22.5-18.5v-.4c0-12.2-8.5-18.7-22.7-18.7h-18.4V920ZM1104.4 849.5h39.3V957h68.7v34.5h-108.1zM1339.1 848.5h37.9l60.4 142.9h-42.2l-10.3-25.3h-54.7l-10.1 25.3h-41.4zm34.5 87-15.8-40.4-16 40.4zM1530.8 938.3l-53.9-88.8h44.8l29.2 51.7 29.4-51.7h44l-53.9 88.2v53.7h-39.5zM1803.4 970.4l21.9-26.2c14 11.2 29.6 17 46 17 10.5 0 16.2-3.6 16.2-9.7v-.4c0-5.9-4.7-9.1-23.9-13.6-30.2-6.9-53.5-15.4-53.5-44.6v-.4c0-26.4 20.9-45.4 54.9-45.4 24.1 0 43 6.5 58.4 18.9l-19.7 27.8c-13-9.1-27.2-14-39.7-14-9.5 0-14.2 4.1-14.2 9.1v.4c0 6.5 4.9 9.3 24.5 13.8 32.6 7.1 52.9 17.6 52.9 44.2v.4c0 29-22.9 46.2-57.4 46.2-25 0-49-7.9-66.4-23.5zM2042 938.3l-53.9-88.8h44.8l29.2 51.7 29.4-51.7h44l-53.9 88.2v53.7h-39.5zM2190.6 970.4l21.9-26.2c14 11.2 29.6 17 46 17 10.5 0 16.2-3.6 16.2-9.7v-.4c0-5.9-4.7-9.1-23.9-13.6-30.2-6.9-53.5-15.4-53.5-44.6v-.4c0-26.4 20.9-45.4 54.9-45.4 24.1 0 43 6.5 58.4 18.9l-19.7 27.8c-13-9.1-27.2-14-39.7-14-9.5 0-14.2 4.1-14.2 9.1v.4c0 6.5 4.9 9.3 24.5 13.8 32.6 7.1 52.9 17.6 52.9 44.2v.4c0 29-22.9 46.2-57.4 46.2-25 0-48.9-7.9-66.4-23.5zM2425 884h-42.6v-34.5h124.5V884h-42.6v107.5H2425ZM2585 849.5h114.2V883H2624v21.5h68.1v31H2624V958h76.2v33.5H2585ZM2781 849.5h41.6l33.9 54.9 33.9-54.9h41.6v141.9h-39.1v-81.5l-36.3 55.6h-.8l-36.1-55.2v81.1h-38.5V849.5Z" class="st1" style="fill:#fdfdfd;fill-opacity:1" transform="translate(.008 .089) scale(.45807)"/></g><path d="M690.46 76.861v109.434s73.704-30.691 73.704-74.025c0-53.548-73.704-35.409-73.704-35.409M1260.576 71.319c-32.157 0-75.307 18.918-75.307 94.5s38.432 94.5 75.307 94.5c36.83 0 76.086-23.636 76.086-94.5s-43.93-94.5-76.086-94.5" class="st2" style="fill:#231f20;stroke-width:.458072"/><path d="M887.6 363.5h112.9l-58.1-163.3-54.8 163.3" class="st2" style="fill:#231f20" transform="translate(.008 .089) scale(.45807)"/><path d="M261.521 294.217H179.94c-97.249 0-151.347-76.407-151.347-131.513 0-84.514 73.2-131.42 139.574-131.42 64.314 0 103.112 49.334 103.112 49.334l-44.295 46.677s-2.337 1.191-4.306 1.191c-1.97 0-4.718-1.97-4.718-1.97l-5.497-4.718s-1.558-.366-1.558-1.97c0-1.557 4.306-5.496 4.306-12.963 0-7.466-1.557-38.57-49.38-38.57S96.799 113.188 96.799 150.2c0 37.012 22.766 104.76 97.248 104.76 43.334 0 52.541-24.414 52.541-24.414h14.887v63.672zm319.139.778h-98.44v-18.918s6.276.779 9.437-4.718c3.16-5.497 3.16-9.849.778-15.346-2.336-5.496-18.826-49.242-18.826-49.242h-80.346s-16.49 44.066-18.048 48.051c-1.558 3.94-1.558 10.261 0 14.155 2.61 6.55 11.772 7.512 11.772 7.512v18.506H308.2V276.49s7.146-2.473 12.505-7.879c5.91-5.909 7.833-12.184 7.833-12.184l79.98-218.134h67.061l81.537 214.148c2.336 5.91 6.321 11.452 10.215 16.125 3.894 4.718 13.33 7.878 13.33 7.878zm186.618-100.821c-33.485 15.483-77.597 27.576-77.597 27.576V262.7s.367 2.749 4.306 7.513c3.94 4.718 8.245 5.909 8.245 5.909v18.918H611.26v-18.506s5.497-1.191 9.436-5.13c3.94-3.94 4.719-8.658 4.719-8.658V77.686s.366-7.879-2.749-11.04c-3.16-3.16-10.581-7.466-10.581-7.466V38.292H737.55c46.265 0 92.53 16.536 92.53 70.085 0 53.548-33.76 72.421-62.802 85.797zM996.314 68.662c-47.822 0-69.031 44.891-69.031 81.903 0 37.012 22.766 104.761 97.249 104.761 43.38 0 52.54-24.415 52.54-24.415h14.888v63.718h-81.583c-97.248 0-151.347-76.36-151.347-131.513 0-84.514 73.2-131.42 139.575-131.42 64.313 0 103.112 49.334 103.112 49.334l-44.296 46.677s-2.336 1.146-4.306 1.146c-1.97 0-4.718-1.97-4.718-1.97l-5.497-4.718s-1.557-.412-1.557-1.97c0-1.557 4.306-5.497 4.306-12.963.046-7.467-1.512-38.57-49.335-38.57zm264.262 233.708c-84.697 0-145.575-62.114-145.575-137.696s62.435-134.17 145.575-134.17c83.094 0 145.575 58.588 145.575 134.17s-60.877 137.696-145.575 137.696zm470.898-7.237h-93.721v-17.04s8.245-1.192 10.993-5.131c2.749-3.94 3.94-6.321 3.161-12.597-.779-6.321-23.133-149.606-23.133-149.606l-40.814 126.748h-49.38l-40.402-118.87-20.384 140.125s-.779 8.428 2.382 13.01c4.306 6.32 12.139 6.32 12.139 6.32v16.95h-81.17v-18.14s6.458-1.008 11.176-6.46c4.718-5.496 5.497-12.596 5.497-12.596l29.592-184.878s1.74-6.871-.184-10.032c-2.06-3.298-13.146-6.092-13.146-6.092V38.52h93.355l33.714 104.578 36.05-104.761h97.661v15.345s-6.55 2.748-9.436 6.321c-3.527 4.306-3.527 7.467-2.749 13.788.78 6.322 25.881 177.183 26.66 183.458.779 6.322 1.558 9.849 3.115 14.2 1.558 4.306 9.024 7.833 9.024 7.833z" class="st2" style="fill:#231f20;stroke-width:.458072"/><path d="M690.46 76.861v109.434s73.704-30.691 73.704-74.025c0-53.548-73.704-35.409-73.704-35.409M1260.576 71.319c-32.157 0-75.307 18.918-75.307 94.5s38.432 94.5 75.307 94.5c36.83 0 76.086-23.636 76.086-94.5s-43.93-94.5-76.086-94.5" class="st1" style="fill:#fff;stroke-width:.458072"/><path d="M887.6 363.5h112.9l-58.1-163.3-54.8 163.3" class="st1" style="fill:#fff" transform="translate(.008 .089) scale(.45807)"/><path d="m310.901 79.243-83.14 88.18-54.877-37.792s18.048-17.315 1.558-29.912c-12.872-9.803-48.876 11.04-47.365 51.991 1.832 47.228 30.92 73.979 63.03 73.979 29.776 0 37.609-24.14 37.609-24.14h66.832v55.655l93.997-248.87h107.417l86.255 223.63s6.276 11.819 12.552 14.98c0 0 .366-146.72.366-150.844 0-4.122-.55-8.657-3.115-11.589-4.214-4.901-11.36-6.87-11.36-6.87V8.333h150.568c78.056 0 98.12 21.3 120.748 62.206C883.262 28.26 926.276.455 987.656.455c63.169 0 107.831 23.362 133.346 62.206C1156.64 19.923 1213.99.09 1266.485.09c64.497 0 118.366 31.332 146.263 79.933V8.334h145.071l15.3 38.982 11.36-38.982h149.79v67.703c-10.582 5.13-14.842 10.352-12.964 22.445l20.934 133.85c.87 4.35 2.382 8.886 6.138 12.23 4.352 3.893 10.215 3.16 10.215 3.16v77.185h-150.568v-58.312h-86.301v58.45h-141.544V287.07s-51.717 45.67-118.412 45.67c-85.293 0-142.323-62.985-142.323-62.985v55.106h-100.41c-89.323 0-166.004-49.106-187.442-138.567-10.17 9.711-54.923 41.822-108.609 53.915-4.169.916-6.276 2.52-6.276 7.1 0 8.291 17.682 11.223 17.682 11.223v66.329h-550.51C81.91 324.907.007 254.822.007 165.865.008 76.907 63.863 1.234 169.724 1.234c101.188 0 141.177 78.01 141.177 78.01" class="st3" style="fill:#034ea2;stroke-width:.458072"/><path d="M408.517 38.246h67.061l81.583 214.194c2.336 5.91 6.275 11.406 10.215 16.125 3.893 4.718 13.33 7.878 13.33 7.878v18.507h-98.44V276.03s6.276.825 9.436-4.718c3.161-5.497 3.161-9.849.78-15.345-2.337-5.497-18.828-49.243-18.828-49.243h-80.391s-16.49 44.112-18.048 48.052c-1.558 3.939-1.558 10.26 0 14.154 2.61 6.55 11.772 7.512 11.772 7.512v18.507H308.2v-18.507s7.146-2.473 12.505-7.878c5.91-5.91 7.879-12.231 7.879-12.231l79.934-218.088m-1.924 128.352h51.762l-26.66-74.803ZM612.038 38.246h125.466c46.265 0 92.53 16.536 92.53 70.085 0 53.549-33.714 72.421-62.756 85.797-33.485 15.483-77.643 27.576-77.643 27.576v40.906s.367 2.748 4.306 7.512c3.894 4.718 8.245 5.91 8.245 5.91v18.918h-90.973v-18.507s5.497-1.19 9.437-5.13c3.94-3.94 4.718-8.658 4.718-8.658V77.595s.366-7.88-2.749-11.04c-3.16-3.16-10.581-7.467-10.581-7.467V38.246m78.422 38.615v109.434s73.704-30.691 73.704-74.025c0-53.548-73.704-35.409-73.704-35.409zM1260.576 302.37c-84.697 0-145.575-62.114-145.575-137.696s62.435-134.215 145.575-134.215c83.14 0 145.575 58.587 145.575 134.215s-60.877 137.696-145.575 137.696m-75.261-136.505c0 75.582 38.432 94.5 75.307 94.5 36.829 0 76.086-23.636 76.086-94.5s-43.93-94.5-76.086-94.5c-32.203 0-75.307 18.872-75.307 94.5zM1444.08 38.43h93.309l33.714 104.577 36.05-104.761h97.615v15.345s-6.504 2.749-9.436 6.322c-3.527 4.306-3.527 7.512-2.748 13.788.778 6.321 25.88 177.182 26.66 183.458.778 6.321 1.603 9.848 3.16 14.2 1.558 4.306 9.024 7.879 9.024 7.879v15.849h-93.721v-17.04s8.245-1.191 10.948-5.13c2.748-3.94 3.94-6.322 3.115-12.598-.78-6.321-23.133-149.606-23.133-149.606l-40.768 126.794h-49.38l-40.403-118.915-20.384 140.17s-.778 8.383 2.336 12.963c4.306 6.322 12.14 6.322 12.14 6.322v16.903h-81.171v-18.094s6.459-1.008 11.177-6.505 5.497-12.597 5.497-12.597l29.591-184.832s1.787-6.917-.183-10.032c-2.061-3.298-13.147-6.138-13.147-6.138V38.43M271.278 80.572l-43.746 46.082c-2.29 2.428-6.092 2.657-8.657.55l-7.421-6.093c-.32-.275-.504-.733-.504-1.328 0-1.558 4.306-5.497 4.306-12.964 0-7.512-1.557-38.57-49.38-38.57s-69.032 44.892-69.032 81.904c0 37.012 22.767 104.761 97.25 104.761 43.333 0 52.54-24.415 52.54-24.415h14.887v63.672H179.94c-97.249 0-151.347-76.36-151.347-131.467 0-84.514 73.2-131.42 139.574-131.42 64.314 0 103.112 49.288 103.112 49.288M1101.808 81.03l-43.745 46.082c-2.29 2.428-6.093 2.657-8.658.55l-7.42-6.093c-.321-.275-.505-.733-.505-1.328 0-1.558 4.306-5.497 4.306-12.964 0-7.512-1.557-38.57-49.38-38.57s-69.031 44.892-69.031 81.904c0 37.012 22.766 104.761 97.248 104.761 43.334 0 52.541-24.415 52.541-24.415h14.887v63.672h-81.582c-97.249 0-151.347-76.36-151.347-131.513 0-84.514 73.2-131.42 139.574-131.42 64.268.045 103.112 49.334 103.112 49.334" class="st4" style="fill:#ffcb04;stroke-width:.458072"/></svg>