<svg xmlns="http://www.w3.org/2000/svg" width="100" height="46"><path d="M11.547 35.562s-1.767 1.075 1.23 1.383c3.6.46 5.53.384 9.524-.384 0 0 1.075.69 2.535 1.23-8.987 3.84-20.354-.23-13.288-2.227zm-1.152-4.992s-1.92 1.46 1.075 1.767c3.917.384 7 .46 12.29-.614 0 0 .69.768 1.843 1.152-10.83 3.226-22.966.307-15.208-2.304zm21.2 8.756s1.306 1.075-1.46 1.92c-5.146 1.536-21.583 1.997-26.192 0-1.613-.69 1.46-1.7 2.458-1.843 1-.23 1.536-.23 1.536-.23-1.766-1.23-11.752 2.535-5.07 3.6 18.357 2.995 33.488-1.306 28.726-3.456zM12.39 25.346s-8.372 1.998-2.996 2.689c2.304.307 6.836.23 11.06-.077 3.456-.307 6.913-.922 6.913-.922s-1.23.538-2.074 1.075c-8.526 2.227-24.886 1.23-20.2-1.075 3.994-1.92 7.297-1.7 7.297-1.7zm14.978 8.373c8.602-4.455 4.608-8.756 1.843-8.218-.69.154-1 .307-1 .307s.23-.46.768-.614c5.453-1.92 9.755 5.76-1.767 8.756 0 0 .077-.077.154-.23zM13.237 45.854c8.295.538 20.97-.307 21.276-4.224 0 0-.614 1.536-6.836 2.688-7.066 1.306-15.822 1.152-20.97.307 0 0 1.075.922 6.53 1.23z" style="fill:#4e7896"/><path d="M22.146 0s4.762 4.84-4.532 12.136c-7.45 5.914-1.7 9.294 0 13.134-4.378-3.917-7.527-7.373-5.377-10.6C15.387 9.908 24.065 7.604 22.145 0zm-2.458 22.044c2.227 2.535-.615 4.84-.615 4.84s5.684-2.92 3.072-6.53c-2.38-3.456-4.224-5.146 5.76-10.907 0 0-15.746 3.917-8.218 12.596z" style="fill:#f58219"/><path d="M68.909 31.162V19.485c0-2.98-1.668-5.004-5.838-5.004-2.383 0-4.41.596-6.196 1.31l.596 2.145c1.31-.477 2.98-.953 4.766-.953 2.264 0 3.336.953 3.336 2.86v1.55H64.39c-5.72 0-8.34 2.145-8.34 5.6 0 2.86 1.787 4.528 5.004 4.528 2.026 0 3.575-.953 5.004-2.145l.238 1.787h2.62zM65.57 27.35c-1.19 1.072-2.502 1.668-3.694 1.668-1.55 0-2.502-.953-2.502-2.62 0-1.667.953-2.86 4.766-2.86h1.43v3.813zm14.536 3.813h-4.17L70.934 14.84h3.575l3.098 10.01.715 2.98c1.55-4.29 2.74-8.698 3.217-12.987h3.574c-.953 5.362-2.62 11.2-5.004 16.323zm19.302 0V19.485c0-2.98-1.668-5.004-5.84-5.004-2.383 0-4.408.596-6.196 1.31l.477 2.145c1.43-.477 3.098-.953 4.885-.953 2.264 0 3.336.953 3.336 2.86v1.55h-1.19c-5.72 0-8.34 2.145-8.34 5.6 0 2.86 1.668 4.528 4.885 4.528 2.145 0 3.694-.953 5.123-2.145l.238 1.787h2.62zm-3.336-3.813c-1.19 1.072-2.502 1.668-3.694 1.668-1.55 0-2.502-.953-2.502-2.62 0-1.667.953-2.86 4.766-2.86h1.43v3.813zm-43.728 6.553c-.953 1.43-2.383 2.502-4.17 3.098l-1.55-1.906c1.192-.715 2.383-1.787 2.86-2.74.477-.834.596-2.026.596-4.766V8.999h3.575v18.35c0 3.695-.358 5.124-1.31 6.554z" style="fill:#4e7896"/><g aria-label="Micro Edition" style="font-style:normal;font-variant:normal;font-weight:700;font-stretch:normal;font-size:7.20037651px;line-height:1.25;font-family:KacstArt;-inkscape-font-specification:&quot;KacstArt Bold&quot;;letter-spacing:0;word-spacing:0;fill:#f58219;fill-opacity:1;stroke:none;stroke-width:.90004706"><path d="M58.328 39.196V35.989q.003-.101.035-.875-.25.946-.37 1.318l-.892 2.764h-.739l-.893-2.764-.376-1.318q.042.816.042 1.08v3.002h-.92v-4.954h1.388l.886 2.77.077.268.17.664.22-.794.911-2.908h1.382v4.954zM60.233 34.706v-.728h.988v.728zm0 4.49v-3.804h.988v3.804zM63.82 39.266q-.865 0-1.337-.513-.47-.517-.47-1.438 0-.942.474-1.466.475-.528 1.347-.528.671 0 1.11.338.44.338.553.932l-.995.049q-.043-.292-.211-.464-.17-.176-.479-.176-.762 0-.762 1.276 0 1.315.777 1.315.28 0 .47-.176.19-.179.236-.53l.992.045q-.053.39-.282.696-.225.306-.594.475-.369.165-.83.165zM66.238 39.196v-2.911q0-.313-.01-.52-.007-.211-.018-.373h.942q.011.063.029.387.017.32.017.425h.014q.144-.4.257-.563.112-.165.267-.242.155-.081.387-.081.19 0 .306.053v.826q-.24-.053-.422-.053-.37 0-.577.299-.204.299-.204.886v1.867zM72.655 37.29q0 .925-.514 1.452-.513.524-1.42.524-.89 0-1.396-.527-.506-.528-.506-1.449 0-.917.506-1.441.507-.528 1.417-.528.932 0 1.42.51.493.507.493 1.46zm-1.034 0q0-.678-.221-.984-.222-.306-.644-.306-.9 0-.9 1.29 0 .637.218.97.222.331.636.331.911 0 .911-1.3zM75.418 39.196v-4.954h3.896v.802h-2.859v1.244H79.1v.802h-2.644v1.304h3.003v.802zM82.706 39.196q-.014-.053-.035-.264-.017-.214-.017-.355h-.014q-.32.69-1.217.69-.664 0-1.026-.518-.363-.52-.363-1.452 0-.945.38-1.459.383-.517 1.083-.517.404 0 .696.17.295.168.454.502h.007l-.007-.626v-1.389h.988v4.388q0 .352.028.83zm-.045-1.923q0-.615-.208-.946-.204-.334-.604-.334-.398 0-.591.323-.193.32-.193.981 0 1.294.777 1.294.39 0 .604-.34.215-.345.215-.978zM84.64 34.706v-.728h.988v.728zm0 4.49v-3.804h.988v3.804zM87.614 39.26q-.435 0-.671-.236-.236-.24-.236-.721V36.06h-.481v-.668h.53l.31-.893h.619v.893h.72v.668h-.72v1.976q0 .277.105.411.106.13.327.13.116 0 .33-.05v.613q-.365.12-.833.12ZM89.038 34.706v-.728h.988v.728zm0 4.49v-3.804h.988v3.804zM94.653 37.29q0 .925-.513 1.452-.514.524-1.42.524-.89 0-1.396-.527-.507-.528-.507-1.449 0-.917.507-1.441.506-.528 1.417-.528.931 0 1.42.51.492.507.492 1.46zm-1.034 0q0-.678-.221-.984-.222-.306-.643-.306-.9 0-.9 1.29 0 .637.218.97.221.331.636.331.91 0 .91-1.3zM97.902 39.196v-2.134q0-1.002-.679-1.002-.358 0-.58.31-.218.305-.218.787v2.039h-.988v-2.953q0-.306-.01-.5-.007-.196-.018-.351h.942q.01.067.028.358.018.289.018.398h.014q.2-.436.503-.633.302-.197.72-.197.605 0 .929.373.323.372.323 1.09v2.415z" style="font-style:normal;font-variant:normal;font-weight:700;font-stretch:normal;font-family:KacstArt;-inkscape-font-specification:&quot;KacstArt Bold&quot;;fill:#f58219;fill-opacity:1;stroke-width:.90004706" transform="translate(.523 .796)"/></g></svg>