<svg xmlns="http://www.w3.org/2000/svg" width="1461.33" height="397.82" viewBox="0 0 386.643 105.257"><g style="display:inline"><path d="m466.233 193.236-19.325 7.246v7.383l4.222-1.583v8.003l8.454 3.17v-14.341l6.65-2.493z" style="display:inline;fill:#000;fill-opacity:1;stroke:#000;stroke-width:1.30421162;stroke-miterlimit:4;stroke-dasharray:none;stroke-opacity:1;paint-order:fill markers stroke" transform="translate(-101.913 -192.295)"/><path d="m467.521 193.236 19.325 7.246v7.383l-4.221-1.583v.006l-8.455-3.17v-.004l-6.649-2.493z" style="display:inline;fill:none;fill-opacity:1;stroke:#010002;stroke-width:1.30421162;stroke-miterlimit:4;stroke-dasharray:none;stroke-opacity:1;paint-order:fill markers stroke" transform="translate(-101.913 -192.295)"/><path d="m467.258 192.857.933.35v7.384l-.933-.35z" style="display:inline;fill:#000;fill-opacity:1;stroke:#000;stroke-width:.77892429;stroke-miterlimit:4;stroke-dasharray:none;stroke-opacity:1;paint-order:fill markers stroke" transform="translate(-101.913 -192.295)"/><path d="m467.521 227.877 19.325-7.246v-7.383l-4.221 1.583v-8.003l-8.455-3.17v14.341l-6.649 2.493z" style="display:inline;fill:#000;fill-opacity:1;stroke:#000;stroke-width:1.30421162;stroke-miterlimit:4;stroke-dasharray:none;stroke-opacity:1;paint-order:fill markers stroke" transform="translate(-101.913 -192.295)"/><path d="m466.233 227.877-19.325-7.246v-7.383l4.222 1.583v-.006l8.454 3.17v.004l6.65 2.493z" style="display:inline;fill:none;fill-opacity:1;stroke:#010002;stroke-width:1.30421162;stroke-miterlimit:4;stroke-dasharray:none;stroke-opacity:1;paint-order:fill markers stroke" transform="translate(-101.913 -192.295)"/><path d="m466.496 228.256-.933-.35v-7.384l.933.35z" style="display:inline;fill:#000;fill-opacity:1;stroke:#000;stroke-width:.77892429;stroke-miterlimit:4;stroke-dasharray:none;stroke-opacity:1;paint-order:fill markers stroke" transform="translate(-101.913 -192.295)"/><g aria-label="THOMSON" style="font-style:normal;font-variant:normal;font-weight:700;font-stretch:normal;font-size:27.09069252px;line-height:1.25;font-family:&quot;Microgramma D Extended&quot;;-inkscape-font-specification:&quot;Microgramma D Extended, Bold&quot;;font-variant-ligatures:normal;font-variant-caps:normal;font-variant-numeric:normal;font-feature-settings:normal;text-align:start;letter-spacing:0;word-spacing:0;writing-mode:lr-tb;text-anchor:start;display:inline;fill:#000;fill-opacity:1;stroke:#000;stroke-width:.40636039"><path d="M18.205 154.283v5.526h9.655v16.157h6.925V159.81h9.655v-5.526zM45.011 154.283v21.683h6.925v-7.835h14.921v7.835h6.925v-21.683h-6.925v7.77H51.936v-7.77zM91.256 153.958c-9.07 0-11.086.227-12.744 1.495-1.658 1.268-2.145 3.478-2.145 9.525 0 6.372.455 8.517 2.145 9.818 1.658 1.268 3.674 1.495 12.809 1.495 8.972 0 11.02-.227 12.678-1.495 1.658-1.268 2.146-3.446 2.146-9.688 0-6.21-.488-8.387-2.146-9.655-1.658-1.268-3.673-1.495-12.743-1.495zm0 5.624c6.046 0 6.761.097 7.51.975.584.715.78 1.95.78 5.169 0 2.633-.228 3.576-.976 4.16-.878.651-1.95.781-7.25.781-5.46 0-6.501-.097-7.379-.78-.78-.618-.975-1.495-.975-4.194 0-2.763.13-3.998.52-4.746.65-1.268 1.268-1.365 7.77-1.365zM108.76 154.283v21.683h6.5l-.162-16.222h1.17l8.16 16.222h5.494l8.16-16.222h1.105l-.162 16.222h6.502v-21.683h-11.899l-6.469 14.076-6.437-14.076zM147.79 168.782v1.04c0 2.99.487 4.259 1.983 5.201 1.527.976 4.16 1.268 10.89 1.268 6.47 0 9.2-.162 10.5-.65 2.243-.845 3.154-2.698 3.154-6.47 0-3.023-.553-4.485-2.048-5.46-1.398-.878-2.796-1.041-9.948-1.269-4.584-.13-6.372-.227-6.957-.39-.683-.162-.975-.585-.975-1.398 0-1.593.455-1.723 6.046-1.723 4.682 0 5.494.065 6.047.39.488.293.585.586.65 1.789h6.372c.032-.423.032-.878.032-1.008 0-2.568-.52-3.934-1.82-4.812-1.528-1.04-3.804-1.332-10.11-1.332-5.202 0-8.193.13-9.46.39-2.991.65-4.161 2.503-4.161 6.632 0 4.778 1.495 6.144 6.859 6.306l1.755.065 3.511.163 5.202.195c2.113.032 2.6.357 2.6 1.658 0 1.918 0 1.918-7.086 1.918-4.65 0-5.364-.065-5.982-.455-.52-.325-.65-.748-.65-2.048zM191.068 153.958c-9.07 0-11.086.227-12.744 1.495-1.658 1.268-2.145 3.478-2.145 9.525 0 6.372.455 8.517 2.145 9.818 1.658 1.268 3.674 1.495 12.809 1.495 8.972 0 11.02-.227 12.678-1.495 1.658-1.268 2.146-3.446 2.146-9.688 0-6.21-.488-8.387-2.146-9.655-1.658-1.268-3.673-1.495-12.743-1.495zm0 5.624c6.047 0 6.762.097 7.51.975.585.715.78 1.95.78 5.169 0 2.633-.228 3.576-.976 4.16-.877.651-1.95.781-7.25.781-5.46 0-6.5-.097-7.379-.78-.78-.618-.975-1.495-.975-4.194 0-2.763.13-3.998.52-4.746.65-1.268 1.268-1.365 7.77-1.365zM208.571 154.283v21.683h6.73l-.163-16.19h.715l11.41 16.19h11.477v-21.683h-6.73l.163 16.157h-.683l-11.346-16.157z" style="font-style:normal;font-variant:normal;font-weight:700;font-stretch:normal;font-size:32.50883102px;font-family:&quot;Microgramma D Extended&quot;;-inkscape-font-specification:&quot;Microgramma D Extended, Bold&quot;;font-variant-ligatures:normal;font-variant-caps:normal;font-variant-numeric:normal;font-feature-settings:normal;text-align:start;writing-mode:lr-tb;text-anchor:start;fill:#000;fill-opacity:1;stroke:#000;stroke-width:.40636039" transform="matrix(1.472 0 0 1.472 -26.5 -224.802)"/></g><text xml:space="preserve" x="151.568" y="228.208" style="font-style:normal;font-weight:400;font-size:10.58333302px;line-height:1.25;font-family:sans-serif;letter-spacing:0;word-spacing:0;fill:#000;fill-opacity:1;stroke:none;stroke-width:.26458332" transform="translate(-101.913 -192.295)"/><g aria-label="MO / TO" style="font-style:normal;font-variant:normal;font-weight:700;font-stretch:normal;font-size:38.74311829px;line-height:1.25;font-family:&quot;Microgramma D Extended&quot;;-inkscape-font-specification:&quot;Microgramma D Extended, Bold&quot;;font-variant-ligatures:normal;font-variant-caps:normal;font-variant-numeric:normal;font-feature-settings:normal;text-align:start;letter-spacing:0;word-spacing:0;writing-mode:lr-tb;text-anchor:start;display:inline;fill:#000;fill-opacity:1;stroke:none;stroke-width:.58114672"><path d="M30.853 189.324v31.01h9.298l-.232-23.2h1.673l11.67 23.2h7.857l11.67-23.2h1.58l-.232 23.2h9.298v-31.01H66.419l-9.252 20.13-9.205-20.13zM108.43 188.859c-12.972 0-15.854.325-18.225 2.138-2.372 1.814-3.069 4.975-3.069 13.623 0 9.112.65 12.18 3.069 14.04 2.37 1.813 5.253 2.139 18.317 2.139 12.832 0 15.761-.326 18.132-2.139 2.371-1.813 3.069-4.928 3.069-13.854 0-8.88-.698-11.995-3.069-13.809-2.371-1.813-5.254-2.138-18.225-2.138zm0 8.043c8.647 0 9.67.14 10.739 1.395.837 1.022 1.116 2.79 1.116 7.392 0 3.766-.326 5.114-1.395 5.95-1.255.93-2.79 1.117-10.368 1.117-7.81 0-9.298-.14-10.553-1.116-1.116-.884-1.395-2.139-1.395-5.998 0-3.951.186-5.718.744-6.787.93-1.814 1.813-1.953 11.111-1.953z" style="font-style:normal;font-variant:normal;font-weight:700;font-stretch:normal;font-size:46.49174118px;font-family:&quot;Microgramma D Extended&quot;;-inkscape-font-specification:&quot;Microgramma D Extended, Bold&quot;;font-variant-ligatures:normal;font-variant-caps:normal;font-variant-numeric:normal;font-feature-settings:normal;text-align:start;writing-mode:lr-tb;text-anchor:start;fill:none;fill-opacity:1;stroke:#000;stroke-width:1.26018751;stroke-miterlimit:4;stroke-dasharray:none;stroke-opacity:1" transform="matrix(1.472 0 0 1.472 -26.5 -224.802)"/><path d="M163.287 185.683 141.39 223.94h2.923l-.02.034h5.047l21.936-38.258h-2.922l.02-.034z" style="font-style:normal;font-variant:normal;font-weight:700;font-stretch:normal;font-size:46.49174118px;font-family:&quot;Microgramma D Extended&quot;;-inkscape-font-specification:&quot;Microgramma D Extended, Bold&quot;;font-variant-ligatures:normal;font-variant-caps:normal;font-variant-numeric:normal;font-feature-settings:normal;text-align:start;writing-mode:lr-tb;text-anchor:start;fill:#000;fill-opacity:1;stroke:#000;stroke-width:.49874598;stroke-opacity:1" transform="matrix(1.472 0 0 1.472 -26.5 -224.802)"/><path d="M182.944 189.324v7.903h13.808v23.107h9.903v-23.107h13.808v-7.903zM243.91 188.859c-12.972 0-15.855.325-18.226 2.138-2.37 1.814-3.068 4.975-3.068 13.623 0 9.112.65 12.18 3.068 14.04 2.371 1.813 5.254 2.139 18.318 2.139 12.832 0 15.76-.326 18.132-2.139 2.371-1.813 3.068-4.928 3.068-13.854 0-8.88-.697-11.995-3.068-13.809-2.371-1.813-5.254-2.138-18.225-2.138zm0 8.043c8.647 0 9.67.14 10.739 1.395.837 1.022 1.116 2.79 1.116 7.392 0 3.766-.326 5.114-1.395 5.95-1.256.93-2.79 1.117-10.368 1.117-7.81 0-9.298-.14-10.554-1.116-1.115-.884-1.394-2.139-1.394-5.998 0-3.951.186-5.718.744-6.787.93-1.814 1.813-1.953 11.111-1.953z" style="font-style:normal;font-variant:normal;font-weight:700;font-stretch:normal;font-size:46.49174118px;font-family:&quot;Microgramma D Extended&quot;;-inkscape-font-specification:&quot;Microgramma D Extended, Bold&quot;;font-variant-ligatures:normal;font-variant-caps:normal;font-variant-numeric:normal;font-feature-settings:normal;text-align:start;writing-mode:lr-tb;text-anchor:start;fill:#000;fill-opacity:1;stroke:#000;stroke-width:.58114672;stroke-opacity:1" transform="matrix(1.472 0 0 1.472 -26.5 -224.802)"/></g></g></svg>