<svg xmlns="http://www.w3.org/2000/svg" xml:space="preserve" width="566.926" height="197.123"><g fill="#F50005"><path d="M88.705 89.429c2.707-8.077 5.128-16.25 7.654-24.389.623-2.007 1.207-4.025 1.81-6.039.077-.436 2.299-8.207 3.145-11.702 1.013-4.181 2.102-8.379 2.608-12.635.313-2.636 1.473-3.998 3.75-4.699 1.329-.409 2.062-1.088 3.439-1.188 1.13-.083 1.917-.366 2.438-1.405.442-.879 1.583-1.424 2.174-2.207.438-.581.993-1.271 1.631-1.465 1.825-.551 3.771-.726 5.576-1.324 2.277-.753 4.909-1.296 6.565-2.823 1.695-1.562 3.268-2.412 5.455-2.579 2.026-.155 3.788-.938 4.441-3.06.406-1.315 1.411-1.907 2.428-2.561.93-.188 1.446-.561 1.56-1.677.114-1.115-4.076-.493-4.353-.773-1.289-1.31-1.165-1.57.532-2.211 1.106-.417 2.319-.549 3.484-.81l2.118-.506c1.674-.218 3.345-.454 5.021-.65 2.903-.344 5.813-.638 8.711-1.012.678-.088 1.405-.296 1.963-.669.514-.343 1.217-1.55 1.235-2.14.018-.59-1.145-.923-1.702-.905-2.317.078-4.643.239-6.938.564-3.571.508-7.128 1.131-10.676 1.785-2.959.546-5.898 1.205-8.846 1.813-.413.049-5.73 1.288-6.11 1.397l-3.419.812-.253.036-3.344.592c-3.459.717-6.912 1.468-10.379 2.141-1.879.363-3.803.832-5.673 1.231-2.667.57-5.282 1.068-7.957 1.592-5.917 1.16-11.856 2.201-17.787 3.29-.57.021-21.061 3.659-31.962 3.979-2.527.074-5.065.031-7.599.01-.876-.007-1.577.139-1.857 1.147-.359 1.291-.064 1.712 1.435 2.307.674.269 1.23.837 1.84 1.269-.702.471-1.356 1.054-2.122 1.372-.523.219-1.207.019-1.805.104-.479.068-1.019.18-1.387.461-1.604 1.221-1.113 2.662 1.234 3.733 3.116 1.423 3.301 2.089 1.358 4.904-.375.257-1.125.497-1.124.771.001.272.67.64 1.065.753.335.096.758-.113 1.142-.188.511.566 1.199 1.054 1.495 1.715.628 1.403 1.541 1.96 3.087 1.84 4.317-.337 8.681-.305 12.953-.924 4.467-.647 8.802-2.063 13.348-2.465 3.71-.327 7.386-1.05 11.078-1.595.997-.147 1.572.233 1.537 1.297-.046 1.414.082 2.919-.171 4.239-.252 1.318-1.027 5.701-1.729 8.792-.929 4.096-2.281 8.71-2.307 8.952l-1.227 4.234c-1.379 4.309-4.625 15.078-4.888 16.15-1.209 4.919-6.452 17.542-7.21 19.175-1.744 3.757-3.497 7.535-5.607 11.09-2.081 3.506-4.603 6.751-6.94 10.104-1.797 2.577-6.368 7.089-6.427 7.156-6.815 7.774-14.552 9.43-14.729 9.49-5.069 1.755-9.908 1.714-14.877-.8-2.238-1.133-4.62-2.131-6.563-3.661-2.08-1.638-4.334-3.746-6.244-5.45-.572-.511-.979-1.244-1.766-1.657-1.164-.608-1.973-.083-2.031 1.262-.025.585.019 1.275.305 1.756 2.187 3.673 4.621 7.207 8.297 9.525 3.568 2.251 8.954 4.82 12.535 6.259 3.581 1.438 6.438 2.408 9.203 2.972 2.765.563 7.439 1.353 11.344.194 3.905-1.154 8.233-2.938 14.265-7.859 6.032-4.923 18.136-18.741 22.798-27.327 2.006-3.692 3.815-7.492 5.632-11.282 1.521-3.172 3.207-6.308 4.32-9.628zM268.584 99.114l-.009.008-.009.01z"/><path d="m164.388 26.515-1.842-.465-.07-.018c-.123-1.697-.195-3.399-.389-5.088-.105-.916.234-2.163-1.266-2.372l-.013.017c-.955-.793-3.021-.156-3.021-.156s-2.075.385-2.496 1.475c-1.29.167-2.578.461-3.869.475-4.37.05-4.357.017-5.958 4.057-.204.515-.627.942-.949 1.41-.364-.42-.959-.797-1.05-1.27-.306-1.579-1.322-1.886-2.67-1.771-1.331.114-1.347 1.094-1.625 2.133-.673 2.512-1.337 5.15-3.56 6.818-2.683 2.016-3.753 4.881-4.634 7.908-.666 2.29-.908 4.781-3.128 6.339-.311.22-.607 1.713-.508 1.909-1.891 2.526-7.695 11.104-8.543 12.804-.928 1.861-2.044 3.721-2.474 5.711-.354 1.64-.818 3.03-1.975 4.202-2.25 1.231-1.709 3.434-1.875 5.39-.379.607-.757 1.219-1.136 1.827l-.847 1.213c-.142.152-.284.307-.427.459-.382.443-.437 1.003-1.148 1.334-.711.33-3.206 1.231-4.852 1.698-2.5.705-3.039 1.047-2.958 2.393.11 1.837 1.483 1.896 2.844 1.982 1.139.071 1.376.771.952 1.682-1.32 2.829-2.617 5.675-4.063 8.439-3.408 6.518-10.534 20.047-10.624 20.326l-1.952 4.939-.015.633-.78 1.071-.438.713-.129.604c-.719 1.32-1.785 2.57-2.066 3.979-.313 1.563-.886 2.906-1.883 4.01-2.11 2.338-1.343 4.884-.759 7.435.189.825.91.913 1.356.38a15.726 15.726 0 0 0 1.942-2.995c.581-1.153.915-2.432 1.494-3.586.17-.338.844-.646 1.221-.583.27.047.683.81.592 1.128-.323 1.135-.871 2.205-1.248 3.327-.096.285-.054.938.198 1.021s.847-.186.964-.427c.744-1.538 1.372-3.132 2.091-4.683a405.657 405.657 0 0 1 3.875-8.129c.138-.28.668-.622.887-.549.28.094.487.56.617.903.1.267.081.604.033.896-.52 3.137-1.06 6.268-1.578 9.401-.028.168.086.513.143.516.269.01.69.017.782-.14.288-.489.462-1.048.662-1.587.898-2.419 1.087-5.19 3.566-6.818.443-.291.857-1.01.854-1.527-.011-2.255 5.243-13.497 5.869-14.699l.013-.014c.494-1.241 6.413-13.402 7.575-16.519.144-.385 2.029-4.517 2.158-4.685l2.499-5.464c1.258-.618 2.477-1.332 3.778-1.838 6.636-2.577 22.214-8.974 22.989-8.787.008.197.015 1.692.022 1.891l.045 1.224c-.011 2.811-.075 5.622-.017 8.432.046 2.218.609 9.44.443 10.804-.263 2.143-.349 4.147.618 6.216.898 1.921 1.28 4.052.678 6.212l-.042.063-.037 2.467v.005c.146 1.493.135 2.979 1.348 4.196.832.837 1.468 1.104 2.164.062.5-.749.797-.634 1.331-.039 1.354 1.515 2.107 3.142 1.721 5.259-.126.689.188 1.533.511 2.205.179.373.481 1.059 1.209.798.728-.263.659-.958.718-1.468.117-.997-.036-2.025.064-3.025.088-.878.267-1.778.605-2.586.197-.471.739-.9 1.226-1.087.175-.066.71.585.962.983.317.505.417 1.164.779 1.62.872 1.099 2.079.898 2.479-.434a8.641 8.641 0 0 0 .345-2.682c-.1-3.738-.428-7.478-.39-11.213.076-7.487.345-14.976.519-22.463.171-7.389.292-14.778.499-22.166.063-2.213.478-4.419.498-6.63.065-7.197.712-14.334 1.852-21.437.34-2.113-.027-4.117-1.165-5.955l-.121-.039zm-21.865 39.674c-1.215.496-2.51.797-3.727 1.291-.511.208-1.667 1.023-1.667 1.023s-.484.575-.625.763c-.875.419-1.753 1.19-2.627 1.188-2.187-.009-3.671.924-4.786 2.672-.272.427-.468.933-.825 1.268-.252.235-.762.4-1.074.312-.28-.082-.652-.573-.626-.85.083-.886.179-1.823.542-2.617 1.471-3.208 2.957-6.415 4.598-9.537 2.585-4.918 5.299-9.768 7.959-14.646.438-.803.762-1.657 2.041-1.311.432.117 1.058-.293 1.531-.572.455-.268.825-.678 1.232-1.024.102.588.289 1.176.292 1.765.02 5.581-.053 11.163.04 16.742.031 1.811-.732 2.901-2.278 3.533zM279.894 21.702c-.609-.23-1.218-.463-1.825-.693a.58.58 0 0 0-.144-.387c-.027-.03 1.821-2.267.771-3.354-.283-.222-1.861-.767-2.144-.987-.143-.884-.308-1.765-.423-2.652-.188-1.43-1.061-1.784-2.337-1.546l-1.239.878-.182-.003-1.928-.152c-1.388.412-.833 1.15-2.22 1.563l-.947.692c-.949.805-1.616 1.263-2.777 2.873-1.162 1.609-2.497 4.234-3.306 5.693-.809 1.458-4.134 10.116-4.188 10.223-.266.244-5.822 12.535-7.656 16.654-1.428 3.204-3.306 7.048-4.701 10.91-1.395 3.862-2.736 9.753-3.05 10.117l-.315.802-.414 1.23-.163 1.21c-.395 2.214-.99 5.242-1.414 6.593-.424 1.351-1.334 2.876-1.85 4.377-.421 2.864-.911 5.722-1.239 8.597-.251 2.203-.296 4.43-.433 6.646l.262 2.409c.405 1.433.498 2.113 1.214 4.299.717 2.185 3.737 4.234 3.737 4.234 3.567 2.002 9.577 1.997 12.284.141 2.708-1.856 4.567-3.097 5.734-4.121 1.167-1.023 7.067-5.707 9.859-8.821 2.792-3.115 3.842-4.611 4.668-5.435.417 1.438.012 2.687-.882 3.824l-.574 1.638c-.149 2.485-.415 4.969-.423 7.453-.012 3.342 1.323 10.349 4.809 10.956 3.486.606 4.058.628 6.116-.417 1.598-.813 3.424-1.231 5.192-1.635 1.278-.29 1.712.323 1.151 1.54-.635 1.376-1.369 2.713-2.137 4.021-3.061 5.235-6.102 10.479-9.228 15.679-1.244 2.068-.536 2.352 1.147 2.376.302.005-.303 1.688-.253 2.247.16 1.783 1.03 2.319 2.508 1.287.865-.605 1.524-1.567 2.135-2.464.619-.908 1.014-1.97 1.63-2.881.115-.172 1.047-.103 1.203.129.39.562-.209 1.919 1.093 1.681.616-.111 1.108-1.002 1.618-1.571.336-.378.58-.832.904-1.222.543-.657 1.057-.901 1.617.049.572.977 1.412.762 2.006.095.938-1.054 1.885-2.148 2.553-3.377 1.775-3.282 3.445-6.625 5.074-9.984.59-1.217 1.229-2.125 2.74-1.73 1.268.332 1.814-.257 2.219-1.396.572-1.62 1.203-3.24 2.025-4.742 2.709-4.953 5.521-9.85 8.282-14.773 2.22-3.958 4.422-7.928 6.627-11.893 1.188-2.136 2.116-4.447 3.551-6.439 1.882-2.614 5.517-3.16 6.646-3.041 1.129.118 2.336-.564 2.854-1.09.52-.524.645-.456 1.381-.931.737-.475 1.21-.868 1.563-1.125.351-.257 5.76-2.393 6.898-3.505 2.193-2.146 5.584-3.393 8.612-3.632.286 1.393.36 2.904.375 4.325.028 3.189-.038 6.383-.063 9.573l-.064 1.257c-.826 2.05.054 3.903.592 5.825.256.91.52 2.066.182 2.852-1.117 2.576-.59 5.195-.535 7.797.021 1.031.423 2.082 1.812 1.942 1.146-.115 1.322.489 1.399 1.438.15 1.813.425 3.614.652 5.419.213 1.701.385 3.41.67 5.099.151.896.521 1.601 1.572 2.004 1.708.656 1.76.935.917 2.649-.476.97-.97 1.824.009 2.721 1.623 1.485 1.692 3.092.471 4.86-.733 1.064-.604 1.938.789 2.25 1.178.265 1.254 1.23 1.377 2.097.102.688-.034 1.407-.086 2.112-.064.951.248 1.607 1.306 1.628.925.021 1.168-.573 1.208-1.389.223-4.438.402-8.876.729-13.304.137-1.891.939-6.364.965-6.729.188-1.852.746-6.411.841-6.84.187-4.863.627-17.301.901-21.876.277-4.574 1.724-26.029 1.82-29.256-.109-.209 2.678-20.388 3.617-24.966.939-4.579.881-8.701.768-9.173-.113-.472-2.113-1.021-3.225-1.204-2.234-.365-4.505-.501-6.762-.73-1.471-.182-1.17-1.982-1.293-2.3-.121-.317-4.904-1.687-5.861-1.187s-1.186 5.116-1.418 7.25c-.596 1.021-1.188 2.043-1.782 3.064l-1.315 1.198c-.174.179-.352.357-.526.536-1.179.738-2.354 1.477-3.532 2.215-1.681 1.794-3.361 3.587-5.045 5.381a54.831 54.831 0 0 0-1.217 1.527c-.914 1.261-3.063 3.995-3.082 4.212-.337.462-.676.924-1.014 1.385 0 0-.758.292-.873.502-1.442 2.625-2.848 5.271-4.262 7.913l-1.561.756-1.406 1.089c-.188.063-3.097 3.868-4.65 5.493-.318.335-.896 1.526-.889 1.717-2.084.865-1.822 4.143-2.128 4.532-.305.389-1.713 1.043-2.077 1.726-1.059 1.98-2.334 5.489-2.82 6.128-.483.641-1.219 1.28-1.684 1.714l-.925.371c-1.334.138-1.952 1.852-2.127 2.211-.175.361-.636.429-.953.643-.229.157-.46.313-.69.473l.037-.037-1.396.61c-2.926 1.771-5.855 3.526-8.758 5.339-.247.155-.479.791-.357 1.018 1.021 1.961.385 3.509-1.063 4.915-.123.119-.213.493-.17.522.232.154.563.386.771.317 1.248-.411 2.455-.942 3.707-1.336.438-.136 1.271-.156 1.384.059.238.443.256 1.12.105 1.627-.158.554-.602 1.029-.932 1.532-1.158 1.769-4.16 5.739-4.384 6.045-1.657 2.276-3.263 4.593-4.93 6.862-.979 1.334-2.056 2.039-3.585.871-1.105-.846-2.156-1.764-3.232-2.646-.074-.618-.15-1.234-.227-1.854.433-2.355.555-4.704 1.671-6.996 1.567-3.218 2.521-6.736 3.706-10.138 1.293-3.71 2.555-7.431 3.822-11.148a350.767 350.767 0 0 0 1.896-5.716c2.139-4.263 4.305-8.511 6.396-12.795 1.101-2.251 2.067-4.566 3.096-6.854.173-.05.242-.163.214-.34 1.886-3.648 3.927-7.229 5.575-10.98.605-1.379.523-3.204.279-4.75-.115-.732-1.321-1.327-2.088-1.917-.813-.628-.803-1.185-.25-2.045 1.121-1.756.955-2.839-.25-4.288-.959-1.153-2.22-1.328-3.565-1.274-1.696.065-3.308.044-5.027-.444-1.414-.402-3.419-1.047-4.685.812l-.121.122c-.48.856-8.014 13.938-8.428 14.612l-2.133 3.27c-.545.818.709 2.128.438 2.782-.271.655-.932-.318-1.967.718-.067.021-.914 3.018-1.613 5.767-.059.233.852.475.79.718-.052.198-1.073 1.048-1.125 1.252-.521 2.045-1.103 3.698-1.656 5.827-.101.39.123.45.022.825-.096.37-.516.083-.608.434-.528 1.983-.992 4.598-1.289 5.442-.085.243.155.485.07.729-.118.336-.56.673-.677 1.011a293.71 293.71 0 0 0-3.957 12.218c-.11.275-.221.553-.333.828l-2.974 3.987-1.71 1.514c-.44.504-.878 1.007-1.307 1.512l-.87.705a.45.45 0 0 0-.359.376l-.688.713c-.002-.025.002-.045-.002-.07-.678.681-1.356 1.36-2.036 2.04l-.836.739-1.019 1.065c-.182.067-1.073.914-1.463 1.176-.179.09-.376.157-.532.274-4.497 3.394-8.99 6.791-13.483 10.19-.357.118-.35.146-1.069.358-.72.212-2.78-.084-2.846-.961s.675-5.912 1.462-8.865c1.587-5.951 3.681-11.646 6.487-17.107 1.087-2.117 2.153-5.02 3.092-6.438s2.828-3.942 3.501-5.293c.673-1.353 1.034-3.911 1.937-5.666 1.652-3.214 3.529-6.321 5.464-9.378 1.256-1.985 2.313-3.926 2.553-6.361.159-1.638.838-3.28 1.216-3.838.379-.559 1.33-1.375 1.516-1.738 1.229-2.406 2.369-4.859 3.538-7.296 0 0 2.429-3.898 3.368-5.969.954-2.104.857-2.149-1.511-3.242m-6.15 63.616c-.005.021-.006.047-.01.067.004-.02.005-.045.01-.067zm18.773-47.869.102.137-.098-.12c-.003-.006-.003-.011-.004-.017zm60.787 10.165c-.576 1.556-1.105 2.972-.965 4.65.063.769-.195 1.583-.4 2.351-.268 1.002-.913 1.505-2.021 1.405-2.918-.266-4.938 1.323-6.765 3.323-.399.438-.866.913-1.399 1.112-1.112.415-2.291.657-3.439.97.245-1.032.373-2.112.77-3.085.563-1.385 1.153-2.812 2.024-4.008 3.261-4.478 6.64-8.868 10.001-13.268 1.484-1.943 1.229-.029 1.932.139.195.047.738-.927.93-.866.248.081.326.329.438.537.104.194.186.398.247.609.146.499.187 1.03.16 1.547-.054 1.055-.457 2.026-.854 2.99-.223.531-.462 1.057-.659 1.594zM427.128 79.598c.922.304 3.033.856 4.563 1.238 1.898.477 3.566 1.271 4.912 2.783 1.734 1.949 3.611 3.771 5.412 5.664.406.426.867.861 1.1 1.385 1.535 3.474 3.475 6.506 7.354 7.804.814.271 1.48 1.01 2.188 1.563.531.42.979.962 1.549 1.328 2.367 1.532 4.811 2.952 7.137 4.547 1.65 1.131 3.154 2.479 4.723 3.728l.645.493c1.41 1.246 2.824 2.492 4.236 3.739 8.373 8.356 16.436 17.076 26.834 23.081.811.499 1.625.998 2.436 1.498.563.336 1.119.671 1.678 1.007.475.355.941.709 1.412 1.064 2.42 1.816 4.896 3.565 7.246 5.466 3.928 3.178 7.762 6.468 11.664 9.673 1.17.961 12.336 8.489 13.58 9.354.119.084 3.432.984.82-1.229-1.682-1.427-9.664-6.29-9.74-6.357-2.283-1.977-5.223-3.582-7.48-5.588-3.016-2.678-5.982-5.407-8.965-8.124-3.563-3.247-6.578-7.14-11.068-9.293a3.138 3.138 0 0 1-1.314-1.217c-2.119-3.8-5.539-6.404-8.662-9.227-2.145-1.942-4.854-3.251-7.18-5.017-2.971-2.254-5.811-4.683-8.707-7.033-.262-.273-.523-.548-.787-.821-1.289-1.176-2.576-2.352-3.865-3.525-2.262-1.669-4.502-3.368-6.795-4.992-.979-.693-2.088-1.207-3.104-1.855-.34-.218-1.113-.588-.199-1.015 1.467-.688.572-1.084-.102-1.599-4.088-3.125-8.078-6.331-11.492-10.245-1.275-1.462-3.232-2.327-4.867-3.479-.566-.399-1.182-.776-1.633-1.286-2.264-2.55-3.547-5.897-6.48-7.911-.295-.204-.459-.673-.566-1.053-.098-.338-.027-.722-.033-1.085.361.035.85-.068 1.066.127 1.063.935 2.023 1.978 3.07 2.927.578.523 1.213 1.243 1.898 1.34 1.336.189 2.215.603 2.732 1.95.215.555 1.064.88 1.648 1.273 1.672 1.127 3.4 2.171 5.014 3.375.908.679 1.592 1.577 2.9.763.254-.158.986.088 1.256.376 3.285 3.554 6.51 7.165 9.787 10.727 1.479 1.605 2.688 3.486 4.811 4.453 1.146.521 2.283 1.229 3.17 2.107a48.9 48.9 0 0 1 4.391 5.001c1.537 2.013 3.416 3.404 5.883 3.992.652.478 1.309.955 1.963 1.434.883.662 1.766 1.326 2.648 1.986 2.336 1.741 4.674 3.481 7.01 5.224.408.348.818.693 1.23 1.041.229.189.455.381.684.571l1.133.896.592.361c2.828 2.267 5.688 4.495 8.473 6.808 3.732 3.099 7.377 6.302 11.123 9.378 2.795 2.297 5.943 4.166 8.326 6.963.318.373.787.775 1.236.846.738.111 1.785.26 2.225-.139.744-.675.053-1.419-.553-2.023-1.061-1.07-2.383-2.037-3.02-3.332-.607-1.236-1.396-1.943-2.561-2.338-4.768-1.62-8.152-5.135-11.701-8.429-3.027-2.811-6.057-5.621-9.084-8.433-.852-.799-1.701-1.599-2.553-2.396l-.584-.572c-.469-.471-.938-.943-1.404-1.416l-.988-1.105c-1.189-1.068-2.305-2.236-3.582-3.18-1.939-1.427-4.104-2.56-5.969-4.068-1.85-1.498-3.752-3.097-5.078-5.028-1.607-2.347-3.229-4.34-6.15-4.939-.563-.115-1.037-.607-1.568-.896-2.816-1.535-4.684-4.102-6.754-6.402-2.012-2.236-3.727-4.74-5.57-7.126l-.689-.678c-1.014-1.357-1.877-2.872-3.08-4.037-1.652-1.602-3.559-2.94-5.361-4.386-1.646-1.319-1.666-2.015.143-3.162 1.01-.643 2.246-.922 3.26-1.562 6.248-3.945 12.254-8.188 16.563-14.375 1.295-2.121 2.832-4.135 3.832-6.386 1.834-4.118 2.086-8.453 1.734-12.994-.354-4.561-2-8.308-4.865-11.686-.025-.2-1.504-1.646-1.656-1.81-.572-.574-1.893-1.697-5.594-4.527-3.699-2.831-8.951-5.635-13.561-6.237-4.609-.604-10.969.334-13.742.586-.465.042-1.053.292-1.324.644-1.289 1.677-3.244 1.942-5.049 2.541-1.504-.033-3.01-.134-4.512-.084-1.568.054-3.135.251-4.701.387-.564.034-2.045.224-2.22.283-.721.119-3.286.729-3.751.884-2.755 1.254-10.558 4.191-12.173 4.827-1.614.637-2.293.625-4.519 1.097-.95.203-2.051.905-3.039 1.511l-.323.241c-1.073.548-2.146 1.097-3.222 1.645l-1.746 1.054-3.092 1.341c-.381.158-1.25.326-1.789.648-.541.324-1.961 1.688-2.127 2.399-.166.712-.271 1.199-.406 1.8-.139.479-.278.959-.42 1.438l-.101.232c-.321.749-1.474 1.079-2.146 1.364-.924.393-2.104.727-2.896 1.359-.729.582-.862 1.52-1.192 2.34-.254.622-.188 1.597.09 2.2.269.588 1.424 1.675 2.047 1.77.713.108 1.793.181 2.137.324s1.385 1.291 1.32 1.771.313 1.714 1.291 2.056c.701.115 1.404.23 2.105.348l2.129.09.506.573c.305.932.803 1.577 1.924 1.295.818.002 2.359.329 3.986-.01s2.428-.896 3.563-1.494c1.217-.643 2.338-1.465 3.5-2.209.674-.539 1.447-.772 1.386.416-.128 2.424-.728 4.759-2.073 6.839-.091.219-.182.438-.271.657-.623 3.262-7.894 21.354-8.864 24.997-.972 3.645-1.915 7.414-2.191 8.063-.062.265-.119.528-.183.792-.394 1.248-.87 2.478-1.146 3.748-.18.833-.65 2.851-.018 2.552 1.991-.933.706 1.212-1.08 2.424-1.072.07-3.996 6.642-4.353 10.054-.22 2.1-1.627 5.171-1.091 6.025.109.174.49.54.275.629-1.451.587-2.486 6.556-2.486 6.556s.479.261.24.502c-.24.241-.27.302-.436.448-.291.289-1.914 3.652-2.217 4.428-.127.224-1.643 3.304-1.832 3.668-1.059 1.492-1.416 5.319-1.02 7.199.264 1.242.524-.236.549 1.041.006.303-.072.481-.07.77.002.604.367 4.104.879 4.339.955.438 1.023-.592 1.334-1.164.094-.172.248-.308.375-.461-.057-.219.867-1.201 1.064-1.307.201.065-.892 3.101-.138 2.895.754-.203 2.979-7.675 3.231-8.225l1.308-2.493c.375-.112.75-.226 1.123-.34l1.151.344c.132.203.263.407.396.61.009.592-.058 1.197.056 1.768.057.294.426.527.651.788.238-.265.478-.526.716-.793.188-.453.364-.907.557-1.358 2.021-4.781 4.047-9.562 6.064-14.341.439-1.046.7-2.159 1.162-3.197.075-.171 1.655-2.683 1.93-2.256.209.323.563.632.596.972.055.586-.19 1.205-.115 1.784.054.419.377 1.07.666 1.122.359.063.927-.293 1.195-.635.43-.544.822-1.188 1-1.853.4-1.521 2.975-14.915 6.014-27.988 2.979-12.819 7.061-26.537 7.477-26.538.937-.001 1.377-.448 1.551-1.291.414-1.834.83-3.669 1.246-5.503.217-.745.433-1.49.646-2.235l.637-1.431c.623-1.152 1.203-2.333 1.883-3.45.543-.893 1.174-1.222 1.584.13.305 1.01.98 1.184 1.438.307 1.012-1.944 2.131-3.928 2.6-6.03.346-1.543 1.068-2.295 2.299-2.872 7.314-3.424 14.484-3.114 21.494.874 2.896 1.649 4.137 3.949 3.441 6.716-.639 2.546-1.586 4.967-3.24 7.105-2.285 2.959-4.445 6.021-6.586 9.089-1.77 2.534-6.137 2.955-8.385.77-1.088-1.058-2.201-2.103-3.402-3.021-1.035-.793-2.479-.49-2.818.582-.326 1.027-.635 2.175.463 3.068 1.105.896 2.293 1.727 3.207 2.791.518.601.854 1.671.705 2.418-.104.522-1.137 1.16-1.797 1.214-1.287.104-2.605-.224-3.912-.252-.662-.016-1.643.009-1.936.41-.65.894-1.664 2.089-1.719 3.24-.075 1.471 3.552 4.652 4.356 4.918z"/><path d="M527.169 165.854c-3.201-1.912-6.449-3.746-9.654-5.651-2.051-1.22-4.324-2.228-6.029-3.828-7.809-7.329-15.4-14.89-23.182-22.247-2.99-2.826-6.084-5.573-10.191-6.855-1.813-.567-3.535-1.507-5.188-2.472-1.002-.584-2.055-1.383-2.621-2.354-2.195-3.775-5.789-6.043-9.004-8.729-3.787-2.879-6.08-7.379-10.451-9.634-.346-.179-.65-.496-.893-.812-2.879-3.755-5.967-7.303-9.523-10.456-3.664-3.249-6.721-7.165-10.977-9.771-1.004-.613-1.779-1.622-2.59-2.515-.09-.099-1.865-1.804-2.998-2.443-1.135-.641-3.775-1.311-5.687-1.896-2.364-.727-3.345-.045-3.709 2.479a18.385 18.385 0 0 0-.196 2.725c.008 1.884.319 2.172 2.284 2.44.791.108 1.821.025 2.31.487 1.217 1.157 2.572 1.113 3.973.887 1.402-.226 2.193.338 3.041 1.425 1.605 2.052 3.203 4.239 5.248 5.779 2.621 1.974 4.68 4.425 6.959 6.692 2.641 2.626 4.855 5.662 8.375 7.386 1.314.646 2.137 2.301 3.182 3.499 1.053 1.207 1.932 2.646 3.186 3.573 2.02 1.495 4.285 2.653 6.447 3.955.781.624 1.58 1.227 2.34 1.877 1.602 1.378 3.414 2.596 4.697 4.227 1.115 1.414 2.191 2.361 3.961 2.914 1.789.561 3.559 1.561 5.002 2.767 4.506 3.762 8.869 7.692 13.258 11.596 3.016 2.684 5.83 5.61 9.975 6.648.9.226 1.674 1.06 2.445 1.685 1.709 1.389 3.381 2.82 5.066 4.233.482.368.965.737 1.445 1.106.131.152.242.332.396.457 4.84 3.971 10.4 6.969 15.002 11.283.875.819 2.691.451 3.641 1.338 14.717 13.771 15.029 10.623 15.537 10.388-.277-.387-14.5-11.959-14.877-12.183z"/><path d="M504.121 163.154c-.482-1.454-1.492-2.103-2.502-2.813-1.309-.921-2.789-1.593-4.176-2.405-1.982-1.166-4.086-2.16-4.926-4.627-.227-.662-1.043-1.468-1.693-1.578-2.783-.479-4.273-3.453-7.207-3.597-.363-.017-.686-.687-1.041-1.036-.717-.707-1.502-1.353-2.154-2.113-1.463-1.713-3.967-2.395-4.727-4.844-.107-.348-.967-.535-1.51-.655-2.91-.646-5.271-2.071-6.361-4.939-.787-2.068-2.301-3.474-3.711-5.041-1.195-1.327-2.52-1.927-4.268-1.702-1.441.186-2.535-.243-3.223-1.661-.293-.604-.934-1.039-1.416-1.552l-1.986-2.274-.502-.689a.741.741 0 0 0-.232-.503c-.281-1.754-1.121-3.128-2.705-3.999-2.482-2.06-5.105-3.972-7.41-6.215-3.111-3.028-6.107-6.168-7.135-10.703-.309-1.353-1.404-2.72-2.498-3.655a34.78 34.78 0 0 0-5.969-4.104c-3.174-1.72-6.252-3.73-9.919-4.359-1.157-.197-2.339-.659-3.144.597-.519.81.125 1.369.801 1.855.402.288.893.632 1.346.637 2.129.024 3.036 1.466 3.584 3.141.749 2.295 2.189 3.35 4.596 3.678 1.967.271 4.076.985 4.773 3.184 1.221 3.844 3.84 6.563 6.883 8.912 2.814 2.176 5.27 4.65 7.359 7.513.41.562.799 1.176 1.328 1.604 2.096 1.702 4.244 3.341 6.373 5.002l.643.598 1.842 1.84c1.609 2.942 4.078 4.729 7.344 5.44l1.27.494c.73.627 1.533 1.188 2.178 1.895 1.137 1.244 2.105 2.642 3.271 3.853.83.865 1.859 1.539 2.814 2.284 3.268 2.559 6.479 5.198 9.828 7.645 3.41 2.492 6.984 4.765 10.443 7.192 1.564 1.099 3.104 2.261 4.512 3.546 2.387 2.176 4.725 4.364 7.654 5.84 1.193.603 2.199 1.577 3.289 2.384.188.023 14.174 9.471 15.508 10.612.781.669 6.459 4.301 11.627 8.291 3.664 2.83 6.801 6.075 8.959 7.528 9.77 6.576 6.076 1.771 6.387 1.812-.279-.428-36.223-26.545-36.5-26.971-.988-1.008-7.301-4.146-7.697-5.342zM397.458 121.354c-.766 0-1.568.555-2.271 1.015-.279.182-.389.7-.475 1.087-.258 1.174-.453 2.361-.697 3.538-.338 1.623-.102 3.429-1.791 4.587-.762.523-.309 1.277.201 1.824.638.68 1.392.52 1.802-.137a27.752 27.752 0 0 0 2.088-3.997c.802-1.921 1.899-4.889 2.233-6.091.336-1.203-.726-1.826-1.09-1.826zM193.976 117.267a24.002 24.002 0 0 0 14.063 1.338c1.99-.41 2.448-.547 5.679-2.446 3.231-1.9 5.438-6.474 6.098-6.712.66-.239 2.726-.354 3.36.181.374.313 1.368 1.608 2.617 2.577 1.25.97.011.878.957 2.193.945 1.315 2.296-.126 2.32.531.024.655.514 1.183 1.587 1.179 1.074-.003.849-4.18.624-6.594-.221-1.393-.715-6.804-.614-7.986.101-1.182.432-3.207.648-4.813-.079-2.068 1.738-8.891 2.031-10.365-.133-.204 1.29-4.121 2.119-7.931.829-3.808 1.452-8.333 1.497-9.744.082-2.203.496-5.912.248-6.611-.248-.699-1.606-.412-2.119-.127-.512.286-.265.473-.397.71l-.024.103a.24.24 0 0 0-.254.105c-1.895.333-2.878-1.562-3.627-1.842-.749-.28-1.287-.343-2.198-.199-.911.143-4.288 3.513-5.906 4.271s-7.065 3.191-8.946 2.912a.579.579 0 0 1-.563.162c-.727.752-1.394 2.076-2.192 2.16-3.916.415-6.156 3.323-8.898 5.497-.48.623-1.158 1.178-1.405 1.884-.735 2.108-1.532 3.464-3.658 4.584-.115.062-.219.386-.159.479.089.138.326.244.504.251 1.345.044 2.939-1.104 2.939-1.104s6.611-2.839 9.902-4.291c1.423-.628 2.763-.989 4.319-.237.594.285 1.508-.091 2.275-.166l.903-.522.926-.242.573-.058c.419.067.839.138 1.259.205-.761 2.282-1.116 6.314-1.227 7.04-.11.725-.378 1.129-.541 1.709-.241.859-.51 1.722-.642 2.603-.425 2.854-.992 5.71-1.108 8.581-.072 1.776.987 4.513 1.542 5.164.556.652 1.174 1.561.212 2.361-.962.801-1.711 1.541-2.566 2.313-1.069.397-3.175 2.025-6.272 2.505-3.098.479-5.773.357-10.154-1.599-4.381-1.955-7.941-5.512-10.359-7.7-2.418-2.189-5.952-10.584-6.201-14.385-.25-3.801.111-7.657.228-9.199.117-1.543.978-6.734 2.366-10.32 1.388-3.585 5.417-8.558 5.978-9.188l6.27-6.062c2.375-1.806 6.13-5.06 11.488-8.034 1.215-.594 7.93-4.43 13.025-4.832 1.484-.117 2.933-.705 4.352-1.207 1.289-.457 2.03-1.367 1.422-2.817-.418-1-.407-1.97.715-2.248 1.412-.351.14-2.527-.529-2.372-.721.168-1.438.479-2.467-.188-1.122-.73-2.065-2.181-2.442-4.045-.155-.771 1.051-.73.29-1.756-.761-1.024-2.241-.389-2.875-.907-.211-.075-.421-.149-.631-.225l-2.363-.297-.369-.327c-.791-.935-1.707-1.046-2.951-.942-3.673.302-7.043 1.71-10.564 2.549l-3.775 1.325c-.548.43-1.077.885-1.646 1.283-1.478 1.036-2.974 2.047-4.463 3.069l-.547.574-.057.072-1.411 1.805-.423.559-1.221 1.193-.65.585-1.105.698-.035.039-.699 1.182-.039.238-.96.993-.839.979-.629.774-.582.513-1.053 1.379-.071.079-1.372 1.658-.468.765-2.169 3.609a.507.507 0 0 0-.331.457l-.583 1.377-.62 1.093v.001c-2.059 1.592-3.163 3.774-3.835 6.221l-.422.525-.726 1.916-1.109 2.966c-2.243 4.051-2.813 8.558-3.11 13.024-.387 5.845-.312 11.725 1.094 17.482.466 1.909 3.739 9.271 5.361 11.726 1.622 2.451 5.974 7.289 8.748 9.188 2.776 1.899 5.299 3.346 9.632 5.146zM541.029 154.924c-2.76-2.041-5.557-4.031-8.354-6.021-.576-.409-.982-1.629-1.836-.838-.295.272.105 1.484.416 2.168.234.516.783.93 1.271 1.283 2.947 2.14 5.889 4.297 8.904 6.336.803.537 1.859.703 2.818.975.164.046.422-.238.703-.411-.285-.333-.449-.584-.67-.771-1.071-.92-2.117-1.881-3.252-2.721zM560.708 167.271c-.16-.192-4.123-2.332-4.307-2.461-.832-.588-1.346-.361-2.176-.957-1.586-1.142-3.092-2.387-4.627-3.59-.805-.634-2.027-1.109-2.162.146-.086.808.111 1.793.867 2.225.271.155.541.313.814.467 1.553.803 3.1 1.613 4.652 2.412.684.351 10.729 7.396 12.367 7.09 1.645-.309.205-2.153.205-2.153s-5.367-2.854-5.633-3.179z"/></g><path fill="#F50005" d="M540.507 167.99s7.076 4.818 9.74 6.05c2.666 1.229 4.205 2.255 3.281.819-.922-1.437 0-1.129-2.977-2.871-2.973-1.742-4.609-2.357-5.943-3.691-1.334-1.333-4-2.46-4.105-1.538-.099.923.004 1.231.004 1.231zM546.455 183.68c2.973 1.741 4.41 3.074 3.385.408-1.023-2.666-2.666-2.152-4.922-3.279-2.256-1.129-2.344-.019-1.832.599l3.369 2.272z"/></svg>