<svg xmlns="http://www.w3.org/2000/svg" width="1652.445" height="272.857" viewBox="0 0 437.209 72.193"><path d="M-165.932-299.357h91.848v72.193h-91.848z" style="fill:#000;fill-opacity:1;stroke:none;stroke-width:.264999;stroke-linecap:round;stroke-miterlimit:4;stroke-dasharray:none" transform="translate(165.932 299.357)"/><path d="M-68.754-262.211v-4.654h14.806q2.475 0 2.475-2.162 0-2.115-2.475-2.115h-7.411q-3.901 0-5.97-1.739-2.052-1.755-2.052-5.03 0-3.274 2.021-5.013 2.037-1.754 5.782-1.754h16.654v4.7h-14.743q-2.538 0-2.538 2.068 0 2.115 2.538 2.115h7.567q3.808 0 5.797 1.755 2.006 1.739 2.006 5.013 0 3.322-2.006 5.076-1.99 1.74-5.797 1.74zM-32.151-262.211q-4.575 0-7.176-2.21-2.6-2.209-2.6-7.097v-13.16h7.175v13.207q0 2.35 1.206 3.384 1.207 1.034 3.15 1.034h6.047v-17.625h7.176v22.467zM-13.272-262.211v-22.467H1.534q5.029 0 7.379 2.005 2.366 1.99 2.366 5.452 0 3.416-2.335 5.421-2.334 1.99-7.41 1.99h-7.63v7.599zm16.999-14.994q0-2.82-3.463-2.82h-6.36v5.609h6.36q3.463 0 3.463-2.79zM37.332-280.025h-9.26q-3.368 0-4.872 1.034-1.489 1.034-1.755 3.102h15.887v4.606H21.445q.11 2.021 1.598 3.196 1.504 1.175 5.03 1.175h9.259v4.7H27.164q-6.471 0-9.761-2.82-3.275-2.835-3.275-8.413t3.275-8.398q3.29-2.835 9.76-2.835h10.169zM58.417-277.931c0-2.058-1.154-2.094-3.462-2.094h-7.301v5.243h7.3c2.309 0 3.463-1.05 3.463-3.149zm-4.271 7.755h-6.492v7.965h-7.176v-22.467h16.216c3.144 0 5.473.72 6.987 2.162 1.525 1.43 2.288 2.292 2.288 4.57 0 2.308-.752 4.177-2.256 5.608-.763.731-1.734 1.275-2.914 1.63l6.182 8.497h-7.468zM80.597-273.445q0-5.578 3.274-8.398 3.29-2.835 9.761-2.835H103.8v4.653h-9.26q-3.368 0-4.872 1.034-1.488 1.034-1.755 3.102H103.8v4.606H87.772v9.072h-7.175zM113.994-262.211q-3.964 0-6.11-1.834-2.147-1.848-2.147-5.107 0-3.243 2.147-5.076 2.146-1.85 6.11-1.85h9.964v-.814q0-1.708-.814-2.397-.8-.69-2.773-.69h-12.926v-4.7h13.192q5.562 0 8.022 2.116 2.475 2.115 2.475 6.909v13.443zm9.964-9.26h-8.037q-2.898 0-2.898 2.319 0 2.334 2.898 2.334h8.037zM161.701-262.211v-13.443q0-2.256-1.128-3.212-1.128-.971-3.744-.971h-1.489v17.626h-7.175v-17.626h-6.048v17.626h-7.176v-22.467h23.11q5.671 0 8.24 2.209 2.57 2.209 2.57 7.097v13.16zM178.154-284.678v22.467h-7.176v-22.467zM204.678-279.931h-8.602q-3.917 0-5.671 1.52-1.755 1.52-1.755 4.966 0 3.447 1.723 4.967 1.724 1.52 5.656 1.52h8.649v4.747h-10.435q-6.33 0-9.541-2.82-3.212-2.836-3.212-8.414 0-5.562 3.212-8.398 3.212-2.835 9.541-2.835h10.435zM234.313-273.11q0 2.913-.971 5.044-.972 2.115-2.805 3.494-1.817 1.363-4.434 2.037-2.6.658-5.922.658-3.321 0-5.938-.658-2.6-.674-4.418-2.037-1.818-1.379-2.805-3.494-.971-2.13-.971-5.045 0-2.914.971-5.03.987-2.13 2.805-3.493 1.817-1.379 4.418-2.037 2.617-.673 5.938-.673 3.322 0 5.922.673 2.617.658 4.434 2.037 1.833 1.363 2.805 3.494.971 2.115.971 5.03zm-14.132 6.485q6.956 0 6.956-6.486t-6.956-6.486q-6.956 0-6.956 6.486t6.956 6.486zM264.118-262.211v-13.443q0-2.256-1.128-3.212-1.128-.971-3.745-.971h-1.488v17.626h-7.176v-17.626h-6.047v17.626h-7.176v-22.467h23.11q5.671 0 8.24 2.209 2.57 2.209 2.57 7.097v13.16z" style="font-style:normal;font-variant:normal;font-weight:400;font-stretch:normal;font-size:32.08679962px;line-height:1.25;font-family:&quot;Super FamiFont&quot;;-inkscape-font-specification:&quot;Super FamiFont&quot;;fill:#000;fill-opacity:1;stroke:none;stroke-width:.80216902" transform="translate(165.932 299.357)"/><path d="M-260.871-963.938v14.395l49.623.125v5.178c0 15.812-16.606 23.234-30.305 23.234h-19.697v14.395h21.717c9.027 0 19.123-4.347 26.715-11.532l7.757 11.532h18.436l-18.146-22.123c2.355-4.572 3.751-9.67 3.751-15.127v-20.076z" style="fill:#000;stroke:none;stroke-width:1.00156999;stroke-linecap:butt;stroke-linejoin:miter;stroke-miterlimit:4;stroke-dasharray:none;stroke-opacity:1" transform="matrix(.26458 0 0 .26458 165.932 299.357)"/><path d="M-50.982-249.262h13.931v3.374h-13.931z" style="fill:#000;stroke:none;stroke-width:.26499999;stroke-linecap:round;stroke-miterlimit:4;stroke-dasharray:none" transform="translate(165.932 299.357)"/><path d="M-15.168-249.262h13.931v3.374h-13.931z" style="fill:#000;stroke:none;stroke-width:.264999;stroke-linecap:round;stroke-miterlimit:4;stroke-dasharray:none" transform="translate(165.932 299.357)"/><path d="M19.477-251.2v2.372c0 4.184-3.257 5.145-6.882 5.145H4.978v3.809h7.89c4.574 0 9.316-2.817 9.316-8.462v-6.706H3.742v3.809z" style="fill:#000;stroke:none;stroke-width:.26458299px;stroke-linecap:butt;stroke-linejoin:miter;stroke-opacity:1" transform="translate(165.932 299.357)"/><path d="M29.03-239.874h-4.04v-3.462h4.51c.822 0 1.275-.653 1.275-1.338v-1.508h5.445c1.009 0 1.432-.692 1.432-1.286v-.863H24.057v-3.236h16.018v4.505c0 2.067-2.12 3.782-3.685 3.782H32.8c0 1.542-.896 3.406-3.77 3.406z" style="fill:#000;fill-opacity:1;stroke:none;stroke-width:.264999;stroke-linecap:butt;stroke-linejoin:miter;stroke-miterlimit:4;stroke-dasharray:none;stroke-opacity:1" transform="translate(165.932 299.357)"/><path d="m61.398-253.315-19.3-2.102v3.496l19.3 2.102zM61.398-248.236l-19.3-2.102v3.496l19.3 2.102zM61.398-243.299l-19.3-2.102v3.496l19.3 2.103zM-35.27-239.874h-1.54v-3.826h1.068c3.51 0 5.268-2.427 5.268-5.15v-6.284h2.905v7.016c0 5.231-3.048 8.244-7.7 8.244zM-17.395-239.874h1.54v-3.826h-1.068c-3.51 0-5.268-2.427-5.268-5.15v-6.284h-2.905v7.016c0 5.231 3.048 8.244 7.7 8.244z" style="fill:#000;stroke:none;stroke-width:.26458299px;stroke-linecap:butt;stroke-linejoin:miter;stroke-opacity:1" transform="translate(165.932 299.357)"/><path d="M-18.408-255.452a2.792 2.792 0 0 0-2.784 2.781 2.793 2.793 0 0 0 2.784 2.783 2.793 2.793 0 0 0 2.783-2.783 2.792 2.792 0 0 0-2.783-2.781zm0 1.27a1.5 1.5 0 0 1 1.51 1.511c0 .842-.668 1.512-1.51 1.512-.843 0-1.512-.67-1.512-1.512s.67-1.51 1.512-1.51z" style="color:#000;font-style:normal;font-variant:normal;font-weight:400;font-stretch:normal;font-size:medium;line-height:normal;font-family:sans-serif;font-variant-ligatures:normal;font-variant-position:normal;font-variant-caps:normal;font-variant-numeric:normal;font-variant-alternates:normal;font-feature-settings:normal;text-indent:0;text-align:start;text-decoration:none;text-decoration-line:none;text-decoration-style:solid;text-decoration-color:#000;letter-spacing:normal;word-spacing:normal;text-transform:none;writing-mode:lr-tb;direction:ltr;text-orientation:mixed;dominant-baseline:auto;baseline-shift:baseline;text-anchor:start;white-space:normal;shape-padding:0;clip-rule:nonzero;display:inline;overflow:visible;visibility:visible;opacity:1;isolation:auto;mix-blend-mode:normal;color-interpolation:sRGB;color-interpolation-filters:linearRGB;solid-color:#000;solid-opacity:1;vector-effect:none;fill:#000;fill-opacity:1;fill-rule:nonzero;stroke:none;stroke-width:.38100001;stroke-linecap:round;stroke-linejoin:miter;stroke-miterlimit:4;stroke-dasharray:none;stroke-dashoffset:0;stroke-opacity:1;color-rendering:auto;image-rendering:auto;shape-rendering:auto;text-rendering:auto;enable-background:accumulate" transform="translate(165.932 299.357)"/><path d="M63.443-255.194v4.092h16.045v7.23H63.443v3.998h19.321V-255.194z" style="fill:#000;fill-opacity:1;stroke:none;stroke-width:.264999;stroke-linecap:round;stroke-linejoin:miter;stroke-miterlimit:4;stroke-dasharray:none" transform="translate(165.932 299.357)"/><path d="M101.133-255.298v6.804c0 3.158-3.522 4.856-5.496 4.856H84.7v3.764h11.78c3.078 0 7.46-2.581 7.46-7.779v-7.645zm-16.422.08v4.116h11.831v-4.117z" style="fill:#000;fill-opacity:1;stroke:none;stroke-width:.26458299px;stroke-linecap:butt;stroke-linejoin:miter;stroke-opacity:1" transform="translate(165.932 299.357)"/><g transform="translate(165.932 299.357)"><path d="M-360.475-1050.008a56.021 56.082 0 0 0-22.045 4.504 56.021 56.082 0 0 0-34.023 51.813 55.417 51.215 0 0 1 38.467 14.709 55.417 51.215 0 0 1 16.428 39.884l1.273 1.254a56.021 56.082 0 0 0 51.723-34.898 56.021 56.082 0 0 0-12.578-61.158 56.021 56.082 0 0 0-39.245-16.108z" style="fill:#ec1d23;fill-opacity:1;stroke:none;stroke-width:1.02403998;stroke-linecap:round;stroke-miterlimit:4;stroke-dasharray:none" transform="scale(.26458)"/><path d="M-124.909-292.556a14.822 14.838 0 0 0-5.832 1.191 14.822 14.838 0 0 0-9.002 13.709 14.662 13.55 0 0 1 10.177 3.892 14.662 13.55 0 0 1 4.347 10.553l.337.331a14.822 14.838 0 0 0 13.685-9.233 14.822 14.838 0 0 0-3.328-16.182 14.822 14.838 0 0 0-10.384-4.261z" style="fill:#43b9e9;fill-opacity:1;stroke:none;stroke-width:.270944;stroke-linecap:round;stroke-miterlimit:4;stroke-dasharray:none"/><ellipse cx="-143.677" cy="-258.644" rx="16.96" ry="8.519" style="fill:#7bc049;fill-opacity:1;stroke:none;stroke-width:.26563099;stroke-linecap:round;stroke-miterlimit:4;stroke-dasharray:none"/><ellipse cx="-114.149" cy="-243.795" rx="16.96" ry="8.519" style="fill:#eee816;fill-opacity:1;stroke:none;stroke-width:.26563099;stroke-linecap:round;stroke-miterlimit:4;stroke-dasharray:none"/></g></svg>