<svg xmlns="http://www.w3.org/2000/svg" xml:space="preserve" width="566.924" height="121.752"><path d="M207.014 5.277c4.724-6.043 14.501-7.076 20.297-2.006 2.37 1.996 4.031 4.75 4.88 7.715 10.73 36.92 21.508 73.822 32.223 110.746-6.332.006-12.667-.012-18.999.006-2.987-10.18-5.903-20.377-8.852-30.565-12.246-.024-24.485-.006-36.73-.012a5818.517 5818.517 0 0 0-8.901 30.582c-6.298-.021-12.596-.005-18.895-.011 10.194-35.221 20.4-70.438 30.643-105.647 1.218-3.681 1.678-7.798 4.334-10.808m11.179 22.625c-4.49 15.295-8.889 30.619-13.354 45.922 8.9.043 17.796.016 26.692.016-4.453-15.313-8.884-30.625-13.338-45.938zM340.411 6.072c3.3-4.787 9.68-7.109 15.295-5.631 5.143 1.184 9.076 5.615 10.434 10.604 10.72 36.893 21.478 73.772 32.195 110.666-6.342.049-12.68 0-19.02.024-2.949-10.188-5.865-20.387-8.836-30.575-12.226.006-24.447-.021-36.671.01-2.922 10.195-5.936 20.367-8.856 30.563-6.293.006-12.58-.006-18.873.006 10.188-35.414 20.496-70.797 30.767-106.187 1.076-3.195 1.493-6.718 3.565-9.48m-1.543 67.768c8.863.013 17.721.007 26.584.007-4.41-15.347-8.892-30.671-13.285-46.015-4.426 15.338-8.893 30.662-13.299 46.008ZM250.237.256h68.719v18.533c-8.438.006-16.866-.01-25.297.006 0 34.313.006 68.627-.004 102.938h-18.123c0-34.312-.005-68.625.005-102.938-8.436-.016-16.866 0-25.301-.006.001-6.178-.004-12.351.001-18.533zM418.474 1.01c1.74-.602 3.599-.807 5.437-.764 7.223.025 14.447.006 21.668.01 12.164.225 23.772 7.771 29.037 18.719 3.645 7.109 4.02 15.377 3.102 23.176-.635 8.164-4.059 16.328-10.334 21.741-3.313 2.952-7.442 4.743-10.992 7.375-1.948 1.481-2.047 4.364-1.039 6.428 9.586 14.799 19.552 29.367 29.339 44.039-7.158.012-14.316-.017-21.476.012-9.369-14.074-18.643-28.219-27.975-42.313-2.744-4.013-3.49-9.324-1.847-13.902 1.281-3.512 4.351-6.08 7.769-7.406 6.524-2.49 12.959-6.4 16.572-12.559 2.75-4.627 2.606-10.336 1.371-15.4-1.451-6.574-7.855-11.746-14.625-11.52-4.683.031-9.359-.021-14.033.021-2.117-.049-4.107 1.791-4.08 3.934-.023 33.047.01 66.096-.01 99.141-6.089-.012-12.168 0-18.257-.006-.012-35.576.013-71.154-.012-106.73.039-6.236 4.474-12.104 10.385-13.996zM494.261.256h19.211c-.006 40.496.013 80.986-.012 121.481-6.396-.018-12.797 0-19.199-.006V.256zM54.173.008c3.076-.01 6.153 0 9.229-.008.013 7.234 0 14.469.005 21.701.032 6.039-.139 12.076-.389 18.107-.412 8.711-.957 17.439-2.4 26.05-.991 5.937-3.044 11.662-5.592 17.099-4.156 8.76-10.686 16.172-18.027 22.405-6.567 5.779-14.405 9.986-22.649 12.834-4.664 1.605-9.463 2.845-14.35 3.533.005-6.065.005-12.137 0-18.203 5.883-.883 11.538-2.971 16.791-5.729 6.233-3.295 11.844-7.729 16.566-12.953 4.877-5.395 8.764-11.641 11.714-18.272 3.474-7.625 5.333-15.861 6.597-24.109 1.584-10.482 2.244-21.088 2.489-31.684.035-3.591.005-7.183.016-10.771zM67.116.02C72.778-.017 78.444.014 84.108.004c.002 40.574.002 81.149 0 121.728-5.65.012-11.303-.027-16.953.021-.072-12.938-.01-25.879-.03-38.815-.007-27.643.011-55.28-.009-82.918ZM87.888.004c3.06-.002 6.118-.008 9.176.002-.099 12.371.322 24.766 1.797 37.057 1.207 9.547 2.909 19.164 6.711 28.059 3.605 8.605 8.801 16.604 15.572 23.051 6.466 6.166 14.302 10.906 22.815 13.635 2.375.76 4.805 1.355 7.274 1.715-.003 6.064-.006 12.129 0 18.191-4.852-.658-9.61-1.908-14.24-3.482-5.514-1.918-10.847-4.401-15.745-7.588-3.576-2.301-6.828-5.053-9.952-7.924-5.149-4.748-9.758-10.146-13.219-16.256-2.708-4.758-4.683-9.9-6.23-15.145-1.418-5.271-2.023-10.717-2.573-16.135-1.064-11.709-1.462-23.477-1.386-35.23 0-6.649-.002-13.302 0-19.95z" style="fill:#1b6db7;fill-opacity:1"/><path d="M54.173.008c-.01 3.588.02 7.18-.016 10.77-.245 10.596-.904 21.201-2.489 31.684-1.264 8.248-3.124 16.484-6.597 24.109-2.95 6.635-6.837 12.879-11.714 18.272-4.722 5.228-10.333 9.658-16.566 12.953-5.253 2.764-10.908 4.85-16.791 5.73.005 6.066.005 12.138 0 18.203 4.887-.688 9.686-1.928 14.35-3.532 8.244-2.849 16.082-7.056 22.649-12.835 7.341-6.233 13.871-13.646 18.027-22.405 2.547-5.437 4.601-11.162 5.592-17.099 1.443-8.61 1.989-17.339 2.4-26.05.25-6.031.421-12.068.389-18.107-.005-7.232.008-14.467-.005-21.701-3.077.008-6.153-.002-9.229.008M67.116.02c.02 27.641.002 55.275.01 82.917.02 12.938-.042 25.879.03 38.815 5.65-.051 11.302-.012 16.953-.021.002-40.574.002-81.15 0-121.728-5.665.011-11.331-.021-16.993.017M87.888.004c-.002 6.648 0 13.301 0 19.949-.076 11.754.322 23.521 1.386 35.23.55 5.418 1.155 10.863 2.573 16.134 1.547 5.244 3.522 10.388 6.23 15.146 3.46 6.108 8.07 11.509 13.219 16.256 3.124 2.871 6.376 5.623 9.952 7.923 4.898 3.188 10.231 5.672 15.745 7.59 4.63 1.574 9.388 2.824 14.24 3.481-.006-6.063-.003-12.127 0-18.19-2.47-.359-4.899-.955-7.274-1.715-8.513-2.729-16.35-7.47-22.815-13.636-6.771-6.446-11.967-14.444-15.572-23.051-3.802-8.895-5.504-18.512-6.711-28.061-1.475-12.289-1.896-24.684-1.797-37.055-3.057-.009-6.116-.003-9.176-.001M535.438 109.703l7.134 2.162-.14-2.439c0-6.717 5.752-11.135 12.146-11.135 7.318 0 12.332 5.705 12.332 12.838 0 4.281-2.254 8.562-6.074 10.584l-3.037-3.223c2.945-1.058 5.154-4.601 5.154-7.683 0-4.692-3.865-8.375-8.514-8.375-4.464 0-8.236 3.816-8.236 8.279 0 2.439 1.15 4.971 3.084 6.488v.83l-17.81-5.338V98.797h3.957v10.906zM562.22 75.426h3.955v22.408l-18.637-15.187c-1.746-1.426-3.91-3.082-6.211-3.082-3.635 0-6.625 3.222-6.625 6.81 0 3.545 2.854 6.442 6.35 6.674v4.324c-6.166-.688-10.309-4.692-10.309-10.998 0-5.89 4.371-10.949 10.399-10.949 2.576 0 5.152.968 7.134 2.574l13.94 11.412V75.426ZM530.745 56.471c0 9.936 8.147 18.018 18.162 18.018 9.936 0 18.018-8.082 18.018-18.018 0-10.225-7.944-18.234-18.09-18.234s-18.09 8.009-18.09 18.234zm18.162-13.975c7.838 0 13.977 6.234 13.977 14.195 0 7.465-6.27 13.537-13.977 13.537-7.787 0-14.123-6.071-14.123-13.537 0-8.091 6.072-14.195 14.123-14.195zM530.745 18.234c0 9.936 8.147 18.018 18.162 18.018 9.936 0 18.018-8.082 18.018-18.018C566.925 8.01 558.979 0 548.835 0s-18.09 8.01-18.09 18.234ZM548.907 4.26c7.838 0 13.977 6.234 13.977 14.195 0 7.465-6.27 13.539-13.977 13.539-7.787 0-14.123-6.074-14.123-13.539 0-8.094 6.072-14.195 14.123-14.195z" style="fill:#1b6db7;fill-opacity:1"/></svg>